<?xml version="1.0" encoding="utf-8" standalone="no"?>
<!DOCTYPE svg PUBLIC "-//W3C//DTD SVG 1.1//EN"
  "http://www.w3.org/Graphics/SVG/1.1/DTD/svg11.dtd">
<!-- Created with matplotlib (https://matplotlib.org/) -->
<svg height="345.6pt" version="1.1" viewBox="0 0 460.8 345.6" width="460.8pt" xmlns="http://www.w3.org/2000/svg" xmlns:xlink="http://www.w3.org/1999/xlink">
 <metadata>
  <rdf:RDF xmlns:cc="http://creativecommons.org/ns#" xmlns:dc="http://purl.org/dc/elements/1.1/" xmlns:rdf="http://www.w3.org/1999/02/22-rdf-syntax-ns#">
   <cc:Work>
    <dc:type rdf:resource="http://purl.org/dc/dcmitype/StillImage"/>
    <dc:date>2020-07-25T11:17:27.251456</dc:date>
    <dc:format>image/svg+xml</dc:format>
    <dc:creator>
     <cc:Agent>
      <dc:title>Matplotlib v3.3.0, https://matplotlib.org/</dc:title>
     </cc:Agent>
    </dc:creator>
   </cc:Work>
  </rdf:RDF>
 </metadata>
 <defs>
  <style type="text/css">*{stroke-linecap:butt;stroke-linejoin:round;}</style>
 </defs>
 <g id="figure_1">
  <g id="patch_1">
   <path d="M 0 345.6 
L 460.8 345.6 
L 460.8 0 
L 0 0 
z
" style="fill:#ffffff;"/>
  </g>
  <g id="axes_1">
   <g id="patch_2">
    <path d="M 57.6 307.584 
L 414.72 307.584 
L 414.72 41.472 
L 57.6 41.472 
z
" style="fill:#ffffff;"/>
   </g>
   <g id="matplotlib.axis_1">
    <g id="xtick_1">
     <g id="line2d_1">
      <defs>
       <path d="M 0 0 
L 0 3.5 
" id="m215086a359" style="stroke:#000000;stroke-width:0.8;"/>
      </defs>
      <g>
       <use style="stroke:#000000;stroke-width:0.8;" x="73.832727" xlink:href="#m215086a359" y="307.584"/>
      </g>
     </g>
     <g id="text_1">
      <!-- $\mathdefault{0}$ -->
      <g transform="translate(71.34206 321.502498)scale(0.1 -0.1)">
       <defs>
        <path d="M 42 31.640625 
C 42 37.75 41.90625 48.125 37.703125 56.109375 
C 34 63.109375 28.09375 65.59375 22.90625 65.59375 
C 18.09375 65.59375 12 63.40625 8.203125 56.203125 
C 4.203125 48.71875 3.796875 39.4375 3.796875 31.640625 
C 3.796875 25.953125 3.90625 17.28125 7 9.671875 
C 11.296875 -0.609375 19 -2 22.90625 -2 
C 27.5 -2 34.5 -0.109375 38.59375 9.375 
C 41.59375 16.28125 42 24.359375 42 31.640625 
z
M 22.90625 -0.40625 
C 16.5 -0.40625 12.703125 5.078125 11.296875 12.6875 
C 10.203125 18.5625 10.203125 27.15625 10.203125 32.75 
C 10.203125 40.4375 10.203125 46.828125 11.5 52.921875 
C 13.40625 61.390625 19 64 22.90625 64 
C 27 64 32.296875 61.296875 34.203125 53.125 
C 35.5 47.4375 35.59375 40.734375 35.59375 32.75 
C 35.59375 26.25 35.59375 18.265625 34.40625 12.375 
C 32.296875 1.484375 26.40625 -0.40625 22.90625 -0.40625 
z
" id="CMR17-48"/>
       </defs>
       <use transform="scale(0.996264)" xlink:href="#CMR17-48"/>
      </g>
     </g>
    </g>
    <g id="xtick_2">
     <g id="line2d_2">
      <g>
       <use style="stroke:#000000;stroke-width:0.8;" x="114.414545" xlink:href="#m215086a359" y="307.584"/>
      </g>
     </g>
     <g id="text_2">
      <!-- $\mathdefault{25000}$ -->
      <g transform="translate(101.961207 321.502498)scale(0.1 -0.1)">
       <defs>
        <path d="M 41.703125 15.453125 
L 39.90625 15.453125 
C 38.90625 8.375 38.09375 7.171875 37.703125 6.5625 
C 37.203125 5.765625 30 5.765625 28.59375 5.765625 
L 9.40625 5.765625 
C 13 9.671875 20 16.75 28.5 24.953125 
C 34.59375 30.734375 41.703125 37.53125 41.703125 47.421875 
C 41.703125 59.21875 32.296875 66 21.796875 66 
C 10.796875 66 4.09375 56.3125 4.09375 47.34375 
C 4.09375 43.4375 7 42.9375 8.203125 42.9375 
C 9.203125 42.9375 12.203125 43.546875 12.203125 47.03125 
C 12.203125 50.109375 9.59375 51 8.203125 51 
C 7.59375 51 7 50.90625 6.59375 50.703125 
C 8.5 59.21875 14.296875 63.40625 20.40625 63.40625 
C 29.09375 63.40625 34.796875 56.515625 34.796875 47.421875 
C 34.796875 38.734375 29.703125 31.25 24 24.75 
L 4.09375 2.28125 
L 4.09375 0 
L 39.296875 0 
z
" id="CMR17-50"/>
        <path d="M 11.40625 57.6875 
C 12.40625 57.28125 16.5 56 20.703125 56 
C 30 56 35.09375 61.109375 38 64.0625 
C 38 64.953125 38 65.5 37.40625 65.5 
C 37.296875 65.5 37.09375 65.5 36.296875 65.046875 
C 32.796875 63.40625 28.703125 62.078125 23.703125 62.078125 
C 20.703125 62.078125 16.203125 62.484375 11.296875 64.671875 
C 10.203125 65.171875 10 65.171875 9.90625 65.171875 
C 9.40625 65.171875 9.296875 65.0625 9.296875 63.078125 
L 9.296875 34.421875 
C 9.296875 32.640625 9.296875 32.140625 10.296875 32.140625 
C 10.796875 32.140625 11 32.34375 11.5 33.03125 
C 14.703125 37.515625 19.09375 39.40625 24.09375 39.40625 
C 27.59375 39.40625 35.09375 37.21875 35.09375 20.140625 
C 35.09375 16.953125 35.09375 11.171875 32.09375 6.578125 
C 29.59375 2.484375 25.703125 0.390625 21.40625 0.390625 
C 14.796875 0.390625 8.09375 5 6.296875 12.71875 
C 6.703125 12.609375 7.5 12.421875 7.90625 12.421875 
C 9.203125 12.421875 11.703125 13.125 11.703125 16.21875 
C 11.703125 18.90625 9.796875 20 7.90625 20 
C 5.59375 20 4.09375 18.59375 4.09375 15.796875 
C 4.09375 7.09375 11 -2 21.59375 -2 
C 31.90625 -2 41.703125 6.875 41.703125 19.75 
C 41.703125 31.71875 33.90625 41 24.203125 41 
C 19.09375 41 14.796875 39.109375 11.40625 35.53125 
z
" id="CMR17-53"/>
       </defs>
       <use transform="scale(0.996264)" xlink:href="#CMR17-50"/>
       <use transform="translate(45.690477 0)scale(0.996264)" xlink:href="#CMR17-53"/>
       <use transform="translate(91.380954 0)scale(0.996264)" xlink:href="#CMR17-48"/>
       <use transform="translate(137.071431 0)scale(0.996264)" xlink:href="#CMR17-48"/>
       <use transform="translate(182.761908 0)scale(0.996264)" xlink:href="#CMR17-48"/>
      </g>
     </g>
    </g>
    <g id="xtick_3">
     <g id="line2d_3">
      <g>
       <use style="stroke:#000000;stroke-width:0.8;" x="154.996364" xlink:href="#m215086a359" y="307.584"/>
      </g>
     </g>
     <g id="text_3">
      <!-- $\mathdefault{50000}$ -->
      <g transform="translate(142.543026 321.502498)scale(0.1 -0.1)">
       <use transform="scale(0.996264)" xlink:href="#CMR17-53"/>
       <use transform="translate(45.690477 0)scale(0.996264)" xlink:href="#CMR17-48"/>
       <use transform="translate(91.380954 0)scale(0.996264)" xlink:href="#CMR17-48"/>
       <use transform="translate(137.071431 0)scale(0.996264)" xlink:href="#CMR17-48"/>
       <use transform="translate(182.761908 0)scale(0.996264)" xlink:href="#CMR17-48"/>
      </g>
     </g>
    </g>
    <g id="xtick_4">
     <g id="line2d_4">
      <g>
       <use style="stroke:#000000;stroke-width:0.8;" x="195.578182" xlink:href="#m215086a359" y="307.584"/>
      </g>
     </g>
     <g id="text_4">
      <!-- $\mathdefault{75000}$ -->
      <g transform="translate(183.124844 321.502498)scale(0.1 -0.1)">
       <defs>
        <path d="M 45.09375 61.578125 
L 45.09375 63.765625 
L 21.59375 63.765625 
C 9.90625 63.765625 9.703125 65.078125 9.296875 67 
L 7.5 67 
L 4.59375 48.34375 
L 6.40625 48.34375 
C 6.703125 50.234375 7.40625 55.3125 8.59375 57.203125 
C 9.203125 58 16.59375 58 18.296875 58 
L 40.296875 58 
L 29.203125 41.578125 
C 21.796875 30.53125 16.703125 15.609375 16.703125 2.578125 
C 16.703125 1.390625 16.703125 -2 20.296875 -2 
C 23.90625 -2 23.90625 1.390625 23.90625 2.671875 
L 23.90625 7.265625 
C 23.90625 23.5625 26.703125 34.3125 31.296875 41.1875 
z
" id="CMR17-55"/>
       </defs>
       <use transform="scale(0.996264)" xlink:href="#CMR17-55"/>
       <use transform="translate(45.690477 0)scale(0.996264)" xlink:href="#CMR17-53"/>
       <use transform="translate(91.380954 0)scale(0.996264)" xlink:href="#CMR17-48"/>
       <use transform="translate(137.071431 0)scale(0.996264)" xlink:href="#CMR17-48"/>
       <use transform="translate(182.761908 0)scale(0.996264)" xlink:href="#CMR17-48"/>
      </g>
     </g>
    </g>
    <g id="xtick_5">
     <g id="line2d_5">
      <g>
       <use style="stroke:#000000;stroke-width:0.8;" x="236.16" xlink:href="#m215086a359" y="307.584"/>
      </g>
     </g>
     <g id="text_5">
      <!-- $\mathdefault{100000}$ -->
      <g transform="translate(221.215994 321.502498)scale(0.1 -0.1)">
       <defs>
        <path d="M 26.59375 63.40625 
C 26.59375 65.5 26.5 65.5 25.09375 65.5 
C 21.203125 61.1875 15.296875 59.796875 9.703125 59.796875 
C 9.40625 59.796875 8.90625 59.796875 8.796875 59.5 
C 8.703125 59.296875 8.703125 59.09375 8.703125 57 
C 11.796875 57 17 57.59375 21 59.984375 
L 21 7.203125 
C 21 3.6875 20.796875 2.5 12.203125 2.5 
L 9.203125 2.5 
L 9.203125 0 
C 14 0 19 0 23.796875 0 
C 28.59375 0 33.59375 0 38.40625 0 
L 38.40625 2.5 
L 35.40625 2.5 
C 26.796875 2.5 26.59375 3.59375 26.59375 7.15625 
z
" id="CMR17-49"/>
       </defs>
       <use transform="scale(0.996264)" xlink:href="#CMR17-49"/>
       <use transform="translate(45.690477 0)scale(0.996264)" xlink:href="#CMR17-48"/>
       <use transform="translate(91.380954 0)scale(0.996264)" xlink:href="#CMR17-48"/>
       <use transform="translate(137.071431 0)scale(0.996264)" xlink:href="#CMR17-48"/>
       <use transform="translate(182.761908 0)scale(0.996264)" xlink:href="#CMR17-48"/>
       <use transform="translate(228.452386 0)scale(0.996264)" xlink:href="#CMR17-48"/>
      </g>
     </g>
    </g>
    <g id="xtick_6">
     <g id="line2d_6">
      <g>
       <use style="stroke:#000000;stroke-width:0.8;" x="276.741818" xlink:href="#m215086a359" y="307.584"/>
      </g>
     </g>
     <g id="text_6">
      <!-- $\mathdefault{125000}$ -->
      <g transform="translate(261.797812 321.502498)scale(0.1 -0.1)">
       <use transform="scale(0.996264)" xlink:href="#CMR17-49"/>
       <use transform="translate(45.690477 0)scale(0.996264)" xlink:href="#CMR17-50"/>
       <use transform="translate(91.380954 0)scale(0.996264)" xlink:href="#CMR17-53"/>
       <use transform="translate(137.071431 0)scale(0.996264)" xlink:href="#CMR17-48"/>
       <use transform="translate(182.761908 0)scale(0.996264)" xlink:href="#CMR17-48"/>
       <use transform="translate(228.452386 0)scale(0.996264)" xlink:href="#CMR17-48"/>
      </g>
     </g>
    </g>
    <g id="xtick_7">
     <g id="line2d_7">
      <g>
       <use style="stroke:#000000;stroke-width:0.8;" x="317.323636" xlink:href="#m215086a359" y="307.584"/>
      </g>
     </g>
     <g id="text_7">
      <!-- $\mathdefault{150000}$ -->
      <g transform="translate(302.379631 321.502498)scale(0.1 -0.1)">
       <use transform="scale(0.996264)" xlink:href="#CMR17-49"/>
       <use transform="translate(45.690477 0)scale(0.996264)" xlink:href="#CMR17-53"/>
       <use transform="translate(91.380954 0)scale(0.996264)" xlink:href="#CMR17-48"/>
       <use transform="translate(137.071431 0)scale(0.996264)" xlink:href="#CMR17-48"/>
       <use transform="translate(182.761908 0)scale(0.996264)" xlink:href="#CMR17-48"/>
       <use transform="translate(228.452386 0)scale(0.996264)" xlink:href="#CMR17-48"/>
      </g>
     </g>
    </g>
    <g id="xtick_8">
     <g id="line2d_8">
      <g>
       <use style="stroke:#000000;stroke-width:0.8;" x="357.905455" xlink:href="#m215086a359" y="307.584"/>
      </g>
     </g>
     <g id="text_8">
      <!-- $\mathdefault{175000}$ -->
      <g transform="translate(342.961449 321.502498)scale(0.1 -0.1)">
       <use transform="scale(0.996264)" xlink:href="#CMR17-49"/>
       <use transform="translate(45.690477 0)scale(0.996264)" xlink:href="#CMR17-55"/>
       <use transform="translate(91.380954 0)scale(0.996264)" xlink:href="#CMR17-53"/>
       <use transform="translate(137.071431 0)scale(0.996264)" xlink:href="#CMR17-48"/>
       <use transform="translate(182.761908 0)scale(0.996264)" xlink:href="#CMR17-48"/>
       <use transform="translate(228.452386 0)scale(0.996264)" xlink:href="#CMR17-48"/>
      </g>
     </g>
    </g>
    <g id="xtick_9">
     <g id="line2d_9">
      <g>
       <use style="stroke:#000000;stroke-width:0.8;" x="398.487273" xlink:href="#m215086a359" y="307.584"/>
      </g>
     </g>
     <g id="text_9">
      <!-- $\mathdefault{200000}$ -->
      <g transform="translate(383.543267 321.502498)scale(0.1 -0.1)">
       <use transform="scale(0.996264)" xlink:href="#CMR17-50"/>
       <use transform="translate(45.690477 0)scale(0.996264)" xlink:href="#CMR17-48"/>
       <use transform="translate(91.380954 0)scale(0.996264)" xlink:href="#CMR17-48"/>
       <use transform="translate(137.071431 0)scale(0.996264)" xlink:href="#CMR17-48"/>
       <use transform="translate(182.761908 0)scale(0.996264)" xlink:href="#CMR17-48"/>
       <use transform="translate(228.452386 0)scale(0.996264)" xlink:href="#CMR17-48"/>
      </g>
     </g>
    </g>
   </g>
   <g id="matplotlib.axis_2">
    <g id="ytick_1">
     <g id="line2d_10">
      <defs>
       <path d="M 0 0 
L -3.5 0 
" id="m39475299a6" style="stroke:#000000;stroke-width:0.8;"/>
      </defs>
      <g>
       <use style="stroke:#000000;stroke-width:0.8;" x="57.6" xlink:href="#m39475299a6" y="296.920293"/>
      </g>
     </g>
     <g id="text_10">
      <!-- $\mathdefault{0.00}$ -->
      <g transform="translate(32.888586 300.379542)scale(0.1 -0.1)">
       <defs>
        <path d="M 18.40625 4.796875 
C 18.40625 7.6875 16 9.671875 13.59375 9.671875 
C 10.703125 9.671875 8.703125 7.28125 8.703125 4.890625 
C 8.703125 2 11.09375 0 13.5 0 
C 16.40625 0 18.40625 2.390625 18.40625 4.796875 
z
" id="CMMI12-58"/>
       </defs>
       <use transform="scale(0.996264)" xlink:href="#CMR17-48"/>
       <use transform="translate(45.690477 0)scale(0.996264)" xlink:href="#CMMI12-58"/>
       <use transform="translate(72.787654 0)scale(0.996264)" xlink:href="#CMR17-48"/>
       <use transform="translate(118.478131 0)scale(0.996264)" xlink:href="#CMR17-48"/>
      </g>
     </g>
    </g>
    <g id="ytick_2">
     <g id="line2d_11">
      <g>
       <use style="stroke:#000000;stroke-width:0.8;" x="57.6" xlink:href="#m39475299a6" y="259.379141"/>
      </g>
     </g>
     <g id="text_11">
      <!-- $\mathdefault{0.02}$ -->
      <g transform="translate(32.888586 262.83839)scale(0.1 -0.1)">
       <use transform="scale(0.996264)" xlink:href="#CMR17-48"/>
       <use transform="translate(45.690477 0)scale(0.996264)" xlink:href="#CMMI12-58"/>
       <use transform="translate(72.787654 0)scale(0.996264)" xlink:href="#CMR17-48"/>
       <use transform="translate(118.478131 0)scale(0.996264)" xlink:href="#CMR17-50"/>
      </g>
     </g>
    </g>
    <g id="ytick_3">
     <g id="line2d_12">
      <g>
       <use style="stroke:#000000;stroke-width:0.8;" x="57.6" xlink:href="#m39475299a6" y="221.83799"/>
      </g>
     </g>
     <g id="text_12">
      <!-- $\mathdefault{0.04}$ -->
      <g transform="translate(32.888586 225.297239)scale(0.1 -0.1)">
       <defs>
        <path d="M 33.59375 64.40625 
C 33.59375 66.5 33.5 66.5 31.703125 66.5 
L 2 19.59375 
L 2 17 
L 27.796875 17 
L 27.796875 7.140625 
C 27.796875 3.5 27.59375 2.5 20.59375 2.5 
L 18.703125 2.5 
L 18.703125 0 
C 21.90625 0 27.296875 0 30.703125 0 
C 34.09375 0 39.5 0 42.703125 0 
L 42.703125 2.5 
L 40.796875 2.5 
C 33.796875 2.5 33.59375 3.5 33.59375 7.140625 
L 33.59375 17 
L 43.796875 17 
L 43.796875 19.59375 
L 33.59375 19.59375 
z
M 28.09375 57.859375 
L 28.09375 19.59375 
L 4 19.59375 
z
" id="CMR17-52"/>
       </defs>
       <use transform="scale(0.996264)" xlink:href="#CMR17-48"/>
       <use transform="translate(45.690477 0)scale(0.996264)" xlink:href="#CMMI12-58"/>
       <use transform="translate(72.787654 0)scale(0.996264)" xlink:href="#CMR17-48"/>
       <use transform="translate(118.478131 0)scale(0.996264)" xlink:href="#CMR17-52"/>
      </g>
     </g>
    </g>
    <g id="ytick_4">
     <g id="line2d_13">
      <g>
       <use style="stroke:#000000;stroke-width:0.8;" x="57.6" xlink:href="#m39475299a6" y="184.296838"/>
      </g>
     </g>
     <g id="text_13">
      <!-- $\mathdefault{0.06}$ -->
      <g transform="translate(32.888586 187.756087)scale(0.1 -0.1)">
       <defs>
        <path d="M 10.59375 34 
C 10.59375 57.65625 21.796875 63 28.296875 63 
C 30.40625 63 35.5 62.640625 37.5 59 
C 35.90625 59 32.90625 59 32.90625 55.515625 
C 32.90625 52.828125 35.09375 51.921875 36.5 51.921875 
C 37.40625 51.921875 40.09375 52.3125 40.09375 55.625 
C 40.09375 61.78125 35.09375 65.296875 28.203125 65.296875 
C 16.296875 65.296875 3.796875 52.96875 3.796875 31 
C 3.796875 3.953125 15.09375 -2 23.09375 -2 
C 32.796875 -2 42 6.671875 42 20.046875 
C 42 32.515625 33.90625 41.59375 23.703125 41.59375 
C 17.59375 41.59375 13.09375 37.609375 10.59375 30.625 
z
M 23.09375 0.390625 
C 10.796875 0.390625 10.796875 18.75 10.796875 22.4375 
C 10.796875 29.625 14.203125 40 23.5 40 
C 25.203125 40 30.09375 40 33.40625 33.125 
C 35.203125 29.21875 35.203125 25.140625 35.203125 20.140625 
C 35.203125 14.75 35.203125 10.78125 33.09375 6.78125 
C 30.90625 2.671875 27.703125 0.390625 23.09375 0.390625 
z
" id="CMR17-54"/>
       </defs>
       <use transform="scale(0.996264)" xlink:href="#CMR17-48"/>
       <use transform="translate(45.690477 0)scale(0.996264)" xlink:href="#CMMI12-58"/>
       <use transform="translate(72.787654 0)scale(0.996264)" xlink:href="#CMR17-48"/>
       <use transform="translate(118.478131 0)scale(0.996264)" xlink:href="#CMR17-54"/>
      </g>
     </g>
    </g>
    <g id="ytick_5">
     <g id="line2d_14">
      <g>
       <use style="stroke:#000000;stroke-width:0.8;" x="57.6" xlink:href="#m39475299a6" y="146.755686"/>
      </g>
     </g>
     <g id="text_14">
      <!-- $\mathdefault{0.08}$ -->
      <g transform="translate(32.888586 150.214935)scale(0.1 -0.1)">
       <defs>
        <path d="M 27.203125 35.375 
C 33.5 38.546875 39.90625 43.328125 39.90625 50.984375 
C 39.90625 60.015625 31.09375 65.296875 23 65.296875 
C 13.90625 65.296875 5.90625 58.734375 5.90625 49.6875 
C 5.90625 47.203125 6.5 42.921875 10.40625 39.140625 
C 11.40625 38.15625 15.59375 35.171875 18.296875 33.28125 
C 13.796875 30.984375 3.296875 25.53125 3.296875 14.59375 
C 3.296875 4.359375 13.09375 -2 22.796875 -2 
C 33.5 -2 42.5 5.65625 42.5 15.78125 
C 42.5 24.84375 36.40625 29.015625 32.40625 31.703125 
z
M 14.09375 44.09375 
C 13.296875 44.59375 9.296875 47.671875 9.296875 52.359375 
C 9.296875 58.421875 15.59375 63 22.796875 63 
C 30.703125 63 36.5 57.4375 36.5 50.96875 
C 36.5 41.703125 26.09375 36.421875 25.59375 36.421875 
C 25.5 36.421875 25.40625 36.421875 24.59375 37.03125 
z
M 32.5 23.734375 
C 34 22.640625 38.796875 19.375 38.796875 13.296875 
C 38.796875 5.953125 31.40625 0.390625 23 0.390625 
C 13.90625 0.390625 7 6.84375 7 14.6875 
C 7 22.546875 13.09375 29.09375 20 32.1875 
z
" id="CMR17-56"/>
       </defs>
       <use transform="scale(0.996264)" xlink:href="#CMR17-48"/>
       <use transform="translate(45.690477 0)scale(0.996264)" xlink:href="#CMMI12-58"/>
       <use transform="translate(72.787654 0)scale(0.996264)" xlink:href="#CMR17-48"/>
       <use transform="translate(118.478131 0)scale(0.996264)" xlink:href="#CMR17-56"/>
      </g>
     </g>
    </g>
    <g id="ytick_6">
     <g id="line2d_15">
      <g>
       <use style="stroke:#000000;stroke-width:0.8;" x="57.6" xlink:href="#m39475299a6" y="109.214534"/>
      </g>
     </g>
     <g id="text_15">
      <!-- $\mathdefault{0.10}$ -->
      <g transform="translate(32.888586 112.673784)scale(0.1 -0.1)">
       <use transform="scale(0.996264)" xlink:href="#CMR17-48"/>
       <use transform="translate(45.690477 0)scale(0.996264)" xlink:href="#CMMI12-58"/>
       <use transform="translate(72.787654 0)scale(0.996264)" xlink:href="#CMR17-49"/>
       <use transform="translate(118.478131 0)scale(0.996264)" xlink:href="#CMR17-48"/>
      </g>
     </g>
    </g>
    <g id="ytick_7">
     <g id="line2d_16">
      <g>
       <use style="stroke:#000000;stroke-width:0.8;" x="57.6" xlink:href="#m39475299a6" y="71.673383"/>
      </g>
     </g>
     <g id="text_16">
      <!-- $\mathdefault{0.12}$ -->
      <g transform="translate(32.888586 75.132632)scale(0.1 -0.1)">
       <use transform="scale(0.996264)" xlink:href="#CMR17-48"/>
       <use transform="translate(45.690477 0)scale(0.996264)" xlink:href="#CMMI12-58"/>
       <use transform="translate(72.787654 0)scale(0.996264)" xlink:href="#CMR17-49"/>
       <use transform="translate(118.478131 0)scale(0.996264)" xlink:href="#CMR17-50"/>
      </g>
     </g>
    </g>
   </g>
   <g id="line2d_17">
    <path clip-path="url(#p098873e5df)" d="M 73.832727 109.214534 
L 74.296983 109.292 
L 74.316463 111.842163 
L 74.368407 154.137697 
L 74.421975 110.521869 
L 74.454441 106.016585 
L 74.501516 117.72522 
L 74.5632 132.184958 
L 74.600535 114.323219 
L 74.629754 107.93432 
L 74.715788 111.233776 
L 74.897594 116.547305 
L 74.908957 116.028611 
L 75.022586 102.298181 
L 75.077777 110.973705 
L 75.121606 113.459099 
L 75.18816 110.879799 
L 75.269324 112.293112 
L 75.194653 110.783726 
L 75.318022 111.330475 
L 75.322892 111.227192 
L 75.395939 113.035286 
L 75.397562 112.94694 
L 75.418665 113.136063 
L 75.485219 111.567665 
L 75.486842 111.601148 
L 75.54041 110.150265 
L 75.606964 110.719306 
L 75.608588 110.704549 
L 75.631313 111.406526 
L 75.694621 112.740379 
L 75.751436 112.038761 
L 75.783901 111.815107 
L 75.829353 112.25094 
L 75.858572 112.419507 
L 75.915386 112.076861 
L 75.917009 112.085448 
L 76.025769 111.469375 
L 76.051741 111.591021 
L 76.163747 113.137844 
L 76.199459 112.923507 
L 76.26926 112.469079 
L 76.321204 112.478321 
L 76.322828 112.522646 
L 76.395875 112.354028 
L 76.429964 112.425013 
L 76.431587 112.383134 
L 76.520867 112.925596 
L 76.52249 112.902231 
L 76.650729 113.598251 
L 76.657222 113.599569 
L 76.769228 113.387722 
L 76.88448 113.503661 
L 76.886103 113.475184 
L 76.96889 113.912504 
L 76.970513 113.902653 
L 77.082519 115.108207 
L 77.119855 115.074156 
L 77.283805 115.989941 
L 77.285428 115.979131 
L 77.338996 116.364728 
L 77.34062 116.352311 
L 77.618199 119.536691 
L 77.619823 119.531939 
L 77.645795 119.778059 
L 78.121414 127.700637 
L 78.194461 129.054937 
L 78.623005 137.94185 
L 80.096937 177.873474 
L 81.551389 237.007997 
L 82.700666 295.488 
L 82.763974 293.317583 
L 85.10798 186.160354 
L 85.818973 167.173847 
L 86.495878 155.77481 
L 86.950394 151.316508 
L 87.323747 149.280456 
L 87.60295 148.79323 
L 87.854557 148.834804 
L 88.289594 150.245089 
L 88.648337 152.580448 
L 89.171031 157.343423 
L 89.83982 165.410985 
L 90.740736 178.706123 
L 93.024681 212.705981 
L 94.276224 226.933893 
L 94.865472 231.743674 
L 95.660876 235.821048 
L 96.206295 236.873722 
L 96.631593 236.753899 
L 97.196492 235.470129 
L 98.087668 231.570705 
L 98.686656 228.284355 
L 99.818077 222.045141 
L 101.251427 215.71725 
L 101.910476 213.593764 
L 102.504593 212.139441 
L 102.981836 211.306911 
L 103.397393 210.828365 
L 103.764253 210.599084 
L 104.090531 210.536512 
L 104.691142 210.772345 
L 105.551476 211.757462 
L 106.963724 214.314055 
L 108.013981 216.284843 
L 109.559337 218.533255 
L 110.856332 219.676149 
L 111.403375 219.950461 
L 112.443892 220.110817 
L 112.956847 220.016539 
L 113.508759 219.800733 
L 114.164561 219.424034 
L 115.057361 218.799764 
L 117.401367 217.423489 
L 119.117167 216.988557 
L 120.09113 216.913871 
L 121.08782 216.957178 
L 122.160803 217.131904 
L 125.472279 217.860318 
L 126.894266 217.979515 
L 128.735057 217.997303 
L 130.739799 217.891685 
L 134.319116 217.645859 
L 139.705135 217.679751 
L 142.614039 217.677977 
L 143.274711 217.701102 
L 143.893178 217.683438 
L 144.847663 217.466604 
L 145.128489 217.867917 
L 145.756695 218.821915 
L 145.904413 218.671697 
L 146.110569 218.060477 
L 146.574825 215.719084 
L 146.839418 215.036304 
L 146.938438 215.133334 
L 147.086156 215.712548 
L 147.341009 217.805525 
L 147.802019 221.345668 
L 147.850717 221.308271 
L 147.870196 221.256942 
L 147.982202 220.528551 
L 148.176995 217.482438 
L 148.862016 203.657946 
L 148.931817 203.950452 
L 149.053562 205.949445 
L 149.254848 213.659719 
L 149.650927 239.792619 
L 149.889548 249.240262 
L 149.904157 249.188578 
L 149.964218 247.968442 
L 150.09895 239.578937 
L 150.421981 201.446233 
L 150.81319 165.28161 
L 150.878121 164.341524 
L 150.931689 164.991572 
L 151.055057 170.618333 
L 151.467369 203.645258 
L 151.78066 247.929314 
L 151.96409 270.820432 
L 152.009542 268.321022 
L 152.144273 241.812467 
L 152.725405 123.592455 
L 152.929937 115.909916 
L 153.194531 105.781522 
L 153.217257 105.891502 
L 153.287057 107.698273 
L 153.421789 118.335322 
L 153.653917 158.205938 
L 153.959092 207.660352 
L 153.991558 206.68327 
L 154.080838 194.19619 
L 154.665216 94.106223 
L 155.080774 70.201307 
L 155.09863 70.135098 
L 155.139212 70.559712 
L 155.226868 74.855101 
L 155.377833 95.862135 
L 155.795014 182.548959 
L 155.882671 174.033629 
L 156.506007 76.865275 
L 156.915072 55.954139 
L 156.934551 55.844814 
L 156.97838 56.43094 
L 157.066036 62.120326 
L 157.221871 90.216812 
L 157.562758 167.701738 
L 157.622819 162.982838 
L 157.780276 121.65857 
L 158.03513 78.971991 
L 158.538345 55.441833 
L 158.651974 53.568037 
L 158.697425 54.101821 
L 158.781836 58.974652 
L 158.919814 83.001006 
L 159.244468 163.095717 
L 159.317516 155.807044 
L 159.903517 64.925337 
L 160.244404 56.382774 
L 160.26713 56.343022 
L 160.309335 56.564176 
L 160.387252 58.643258 
L 160.496012 69.134343 
L 160.659962 112.60064 
L 160.872611 164.755665 
L 160.911569 162.445938 
L 161.023575 136.412374 
L 161.356346 67.091975 
L 161.543023 64.319473 
L 161.736192 62.978844 
L 161.776774 63.08005 
L 161.862807 64.090811 
L 161.979683 68.673553 
L 162.107921 84.548244 
L 162.299468 144.459163 
L 162.461795 182.357989 
L 162.504 179.307562 
L 162.628992 145.713103 
L 162.96014 70.665925 
L 163.135453 67.287368 
L 163.189021 67.190525 
L 163.240966 67.320937 
L 163.349725 68.40668 
L 163.484457 72.258236 
L 163.606202 83.888805 
L 163.765283 126.742451 
L 164.01202 202.014895 
L 164.063965 196.683514 
L 164.232785 141.548743 
L 164.531468 74.628779 
L 164.674316 70.778495 
L 164.697041 70.830743 
L 164.784698 71.732155 
L 164.937286 75.803602 
L 165.070394 86.458231 
L 165.224605 121.704109 
L 165.524911 222.751235 
L 165.601204 210.180793 
L 166.148247 79.056241 
L 166.229411 77.986522 
L 166.282979 78.327941 
L 166.398231 81.062477 
L 166.53134 90.24435 
L 166.679057 119.911587 
L 167.010205 233.986727 
L 167.104355 214.177568 
L 167.563741 90.765106 
L 167.698473 86.373718 
L 167.730938 86.549355 
L 167.825088 88.734581 
L 167.964689 97.823566 
L 168.120524 125.813885 
L 168.398103 229.902032 
L 168.47602 244.907576 
L 168.529588 237.206472 
L 169.177274 95.662523 
L 169.188637 95.642208 
L 169.225972 95.903696 
L 169.320122 98.720245 
L 169.456477 110.546809 
L 169.625297 148.911083 
L 169.925603 250.21213 
L 170.00352 235.285821 
L 170.509981 106.283726 
L 170.625233 102.81289 
L 170.667439 103.181174 
L 170.768081 106.854321 
L 170.914176 121.573559 
L 171.099229 167.7523 
L 171.368692 254.729456 
L 171.432 244.486029 
L 172.014755 110.114786 
L 172.089425 108.84029 
L 172.142993 109.455016 
L 172.248506 114.386178 
L 172.396224 133.646938 
L 172.608873 197.735555 
L 172.802042 256.800368 
L 172.853987 249.86415 
L 173.511412 112.200504 
L 173.514659 112.201998 
L 173.545501 112.463323 
L 173.634781 115.605362 
L 173.779252 129.717271 
L 173.967552 174.618315 
L 174.237015 258.149491 
L 174.301946 247.862497 
L 174.886324 116.14935 
L 174.960995 114.75421 
L 175.016186 115.416567 
L 175.123322 120.738258 
L 175.274287 141.467484 
L 175.498298 210.584881 
L 175.667119 258.757408 
L 175.71744 252.2511 
L 176.382982 115.564377 
L 176.394345 115.596829 
L 176.447913 116.568648 
L 176.566412 123.58109 
L 176.728739 148.68152 
L 176.988463 233.178492 
L 177.100468 258.836635 
L 177.152413 252.04309 
L 177.827695 116.312964 
L 177.829318 116.313235 
L 177.85529 116.482474 
L 177.934831 118.903686 
L 178.069562 131.067203 
L 178.249745 171.817498 
L 178.530572 258.965127 
L 178.600372 247.394827 
L 179.155532 118.539445 
L 179.248058 116.209813 
L 179.29838 116.809462 
L 179.405516 122.015705 
L 179.559727 142.103836 
L 179.780492 206.760258 
L 179.963921 258.789808 
L 180.014243 252.577007 
L 180.694394 116.451467 
L 180.71225 116.530355 
L 180.778804 118.089944 
L 180.903796 127.256935 
L 181.070993 159.142714 
L 181.395648 258.869665 
L 181.483305 241.79952 
L 181.968663 122.136434 
L 182.113135 116.155212 
L 182.143977 116.385394 
L 182.23001 119.337626 
L 182.372858 133.144918 
L 182.562781 177.854266 
L 182.828998 258.726345 
L 182.893929 248.904207 
L 183.48967 117.554602 
L 183.559471 116.374845 
L 183.613039 117.03788 
L 183.718551 122.302177 
L 183.869516 143.034672 
L 184.095151 212.31653 
L 184.260724 258.835241 
L 184.311046 252.452007 
L 184.978211 116.086132 
L 184.994444 116.145979 
L 185.056128 117.491801 
L 185.182743 126.079238 
L 185.34994 155.247285 
L 185.695697 258.71475 
L 185.791471 239.352256 
L 186.260596 123.658173 
L 186.424547 116.330094 
L 186.445649 116.433375 
L 186.517073 118.268408 
L 186.645312 128.372857 
L 186.817379 163.289636 
L 187.127424 258.834188 
L 187.206964 244.111618 
L 187.716672 120.666361 
L 187.844911 116.073098 
L 187.882246 116.41643 
L 187.976396 120.130721 
L 188.124113 136.200936 
L 188.323776 187.682062 
L 188.560774 258.718312 
L 188.617588 250.863215 
L 189.262028 116.514602 
L 189.289623 116.327615 
L 189.341568 116.927141 
L 189.445457 121.927372 
L 189.594799 141.795282 
L 189.815564 208.20834 
L 189.9925 258.837939 
L 190.042822 252.328833 
L 190.709987 116.076398 
L 190.72135 116.108412 
L 190.774918 117.07323 
L 190.893417 124.052371 
L 191.055744 149.145491 
L 191.317091 234.06037 
L 191.42585 258.722032 
L 191.477795 252.168769 
L 192.156323 116.336077 
L 192.164439 116.353704 
L 192.211514 117.040995 
L 192.31865 122.531566 
L 192.469615 143.68676 
L 192.698496 214.759495 
L 192.857577 258.841252 
L 192.907898 252.453663 
L 193.575063 116.081226 
L 193.591296 116.141754 
L 193.65298 117.489197 
L 193.779596 126.078019 
L 193.946793 155.254944 
L 194.29255 258.724363 
L 194.388323 239.346513 
L 194.857449 123.660341 
L 195.021399 116.338568 
L 195.042502 116.442115 
L 195.113926 118.278128 
L 195.242164 128.389376 
L 195.414231 163.323957 
L 195.724276 258.842372 
L 195.803817 244.094452 
L 196.313524 120.670925 
L 196.441763 116.083605 
L 196.479098 116.429213 
L 196.573248 120.149927 
L 196.720966 136.231187 
L 196.920628 187.72654 
L 197.157626 258.724887 
L 197.214441 250.842781 
L 197.85888 116.524051 
L 197.886476 116.338814 
L 197.936797 116.904312 
L 198.039063 121.703459 
L 198.186781 140.866094 
L 198.4043 205.220694 
L 198.589353 258.842808 
L 198.639674 252.305551 
L 199.306839 116.083544 
L 199.318202 116.116042 
L 199.37177 117.083198 
L 199.490269 124.070093 
L 199.652596 149.181343 
L 199.913943 234.107539 
L 200.022703 258.724234 
L 200.074647 252.140987 
L 200.753175 116.339337 
L 200.759668 116.351392 
L 200.803497 116.930279 
L 200.907386 121.90971 
L 201.056727 141.728114 
L 201.277492 208.074261 
L 201.454429 258.842361 
L 201.504751 252.423672 
L 202.171916 116.083363 
L 202.186525 116.133029 
L 202.246586 117.38161 
L 202.371578 125.588883 
L 202.537152 153.672633 
L 202.889402 258.723914 
L 202.988422 238.254496 
L 203.449431 124.127281 
L 203.618252 116.339103 
L 203.637731 116.428575 
L 203.705908 118.08402 
L 203.832524 127.623577 
L 204.001344 160.609592 
L 204.321129 258.841617 
L 204.405539 242.536717 
L 204.897391 121.711742 
L 205.038615 116.083543 
L 205.071081 116.34919 
L 205.160361 119.578055 
L 205.304832 134.177027 
L 205.498001 181.225599 
L 205.754479 258.724832 
L 205.816163 249.561815 
L 206.426513 117.131817 
L 206.483328 116.33895 
L 206.538519 117.02241 
L 206.645655 122.465409 
L 206.79662 143.509148 
L 207.025501 214.432102 
L 207.186205 258.84277 
L 207.236527 252.27556 
L 207.903692 116.083405 
L 207.913431 116.108004 
L 207.963753 116.944591 
L 208.079005 123.359702 
L 208.238086 146.68647 
L 208.481577 223.554077 
L 208.619555 258.724506 
L 208.669876 252.487384 
L 209.348404 116.339133 
L 209.367884 116.419721 
L 209.434438 117.981109 
L 209.55943 127.130656 
L 209.726627 158.995477 
L 210.051281 258.842612 
L 210.138938 241.823974 
L 210.624297 122.080865 
L 210.768768 116.083365 
L 210.79961 116.309368 
L 210.885644 119.251604 
L 211.028492 133.046423 
L 211.216791 177.214975 
L 211.486255 258.723395 
L 211.549562 248.964676 
L 212.146927 117.470801 
L 212.215104 116.33906 
L 212.270295 117.038033 
L 212.377431 122.515801 
L 212.528396 143.639502 
L 212.757277 214.668764 
L 212.917981 258.841045 
L 212.966679 252.511093 
L 213.633844 116.083496 
L 213.6517 116.154917 
L 213.716631 117.661609 
L 213.84487 126.748533 
L 214.015313 157.690179 
L 214.351331 258.724737 
L 214.442234 240.97759 
L 214.925969 122.774897 
L 215.08018 116.339 
L 215.106153 116.49204 
L 215.18407 118.776477 
L 215.317178 130.460906 
L 215.495738 170.010542 
L 215.783057 258.842622 
L 215.854481 246.604636 
L 216.399901 118.836049 
L 216.500544 116.083421 
L 216.547619 116.620528 
L 216.651508 121.440614 
L 216.804096 140.48265 
L 217.019991 202.001345 
L 217.216407 258.724733 
L 217.268352 252.081597 
L 217.945257 116.339091 
L 217.95175 116.347049 
L 217.992332 116.828786 
L 218.092975 121.332058 
L 218.239069 139.573725 
L 218.450095 200.311181 
L 218.648134 258.842797 
L 218.700079 251.975887 
L 219.36562 116.083373 
L 219.367244 116.083954 
L 219.393216 116.266104 
L 219.47438 118.834006 
L 219.613981 131.439009 
L 219.797411 172.169619 
L 220.081484 258.723353 
L 220.151284 247.595507 
L 220.721053 118.400218 
L 220.811956 116.339077 
L 220.862278 116.924509 
L 220.966167 121.89108 
L 221.115508 141.679091 
L 221.336273 207.98187 
L 221.51321 258.841548 
L 221.563532 252.481366 
L 222.230697 116.083456 
L 222.248553 116.155975 
L 222.313484 117.666433 
L 222.441722 126.762408 
L 222.612166 157.72322 
L 222.948183 258.724527 
L 223.039087 240.937558 
L 223.522822 122.763511 
L 223.677033 116.339007 
L 223.703005 116.493541 
L 223.780922 118.78251 
L 223.914031 130.47818 
L 224.092591 170.04951 
L 224.37991 258.842357 
L 224.451334 246.567582 
L 224.99513 118.923365 
L 225.097396 116.083446 
L 225.144471 116.623349 
L 225.248361 121.449775 
L 225.400948 140.506416 
L 225.616844 202.047401 
L 225.81326 258.724866 
L 225.865204 252.051852 
L 226.542109 116.339059 
L 226.546979 116.34349 
L 226.582691 116.704579 
L 226.676841 120.466035 
L 226.819689 136.664443 
L 227.019351 190.375583 
L 227.244986 258.842888 
L 227.300177 251.143659 
L 227.94137 116.195144 
L 227.962473 116.083373 
L 228.009548 116.612255 
L 228.113437 121.413754 
L 228.266025 140.412957 
L 228.480297 201.276563 
L 228.678336 258.723832 
L 228.730281 252.168703 
L 229.408809 116.339109 
L 229.416925 116.356765 
L 229.464 117.044366 
L 229.571136 122.536263 
L 229.7221 143.692428 
L 229.950982 214.764589 
L 230.110063 258.841999 
L 230.160384 252.451596 
L 230.827549 116.083424 
L 230.843782 116.144013 
L 230.907089 117.550149 
L 231.033705 126.2511 
L 231.202525 156.080982 
L 231.545036 258.724223 
L 231.639185 239.86438 
L 232.113181 123.350042 
L 232.273885 116.339014 
L 232.296611 116.458869 
L 232.369658 118.417838 
L 232.49952 128.999027 
L 232.67321 165.211032 
L 232.976762 258.841997 
L 233.053056 245.081058 
L 233.57575 119.958183 
L 233.694249 116.083483 
L 233.736454 116.522432 
L 233.835473 120.779613 
L 233.986438 138.457287 
L 234.194217 195.091043 
L 234.410112 258.72491 
L 234.46368 251.635959 
L 235.130845 116.355712 
L 235.140585 116.339389 
L 235.17305 116.59839 
L 235.260707 119.692984 
L 235.398685 133.747371 
L 235.588608 180.899081 
L 235.841839 258.842888 
L 235.903523 249.415973 
L 236.500887 116.97267 
L 236.559325 116.08338 
L 236.614516 116.809997 
L 236.724899 122.537207 
L 236.882356 144.262385 
L 237.114484 215.076239 
L 237.275188 258.724224 
L 237.32551 252.514592 
L 238.005661 116.339151 
L 238.023517 116.418707 
L 238.090071 117.976536 
L 238.215063 127.117072 
L 238.38226 158.963103 
L 238.706915 258.842359 
L 238.794572 241.861812 
L 239.27993 122.091374 
L 239.424401 116.0834 
L 239.455244 116.307649 
L 239.541277 119.245145 
L 239.684125 133.028831 
L 239.872425 177.177009 
L 240.141888 258.723831 
L 240.205196 248.996532 
L 240.80256 117.474903 
L 240.870737 116.339027 
L 240.925929 117.035052 
L 241.033065 122.506209 
L 241.184029 143.614718 
L 241.412911 214.623805 
L 241.573615 258.841545 
L 241.622313 252.538905 
L 242.291101 116.083528 
L 242.308957 116.167928 
L 242.377135 117.846974 
L 242.50862 127.646334 
L 242.680687 160.24327 
L 243.006964 258.724866 
L 243.092998 242.538087 
L 243.591343 121.941373 
L 243.735814 116.339019 
L 243.766656 116.552935 
L 243.849443 119.257361 
L 243.985798 132.286937 
L 244.170851 176.12482 
L 244.438691 258.842796 
L 244.503622 248.491828 
L 245.081507 117.55763 
L 245.156177 116.083394 
L 245.209745 116.771815 
L 245.320128 122.417405 
L 245.475962 143.62547 
L 245.704844 212.711271 
L 245.872041 258.724529 
L 245.922362 252.485588 
L 246.60089 116.339127 
L 246.620369 116.419788 
L 246.686924 117.981422 
L 246.811916 127.131565 
L 246.979113 158.997587 
L 247.303767 258.842628 
L 247.391424 241.82148 
L 247.876783 122.080159 
L 248.021254 116.083383 
L 248.052096 116.309495 
L 248.138129 119.252009 
L 248.280977 133.047542 
L 248.469277 177.217504 
L 248.73874 258.723349 
L 248.802048 248.962563 
L 249.399412 117.47052 
L 249.46759 116.339048 
L 249.522781 117.038215 
L 249.629917 122.516428 
L 249.780881 143.641151 
L 250.009763 214.671721 
L 250.168844 258.841039 
L 250.219165 252.50924 
L 250.88633 116.083495 
L 250.904186 116.154988 
L 250.969117 117.661926 
L 251.097356 126.749406 
L 251.267799 157.692212 
L 251.603817 258.724733 
L 251.69472 240.975122 
L 252.178455 122.774202 
L 252.332666 116.33901 
L 252.358639 116.492141 
L 252.436556 118.776855 
L 252.569664 130.461976 
L 252.748224 170.012962 
L 253.035543 258.842613 
L 253.106967 246.602351 
L 253.652387 118.835603 
L 253.75303 116.083417 
L 253.800105 116.620695 
L 253.903994 121.441182 
L 254.056582 140.484133 
L 254.272477 202.004188 
L 254.468893 258.724744 
L 254.520838 252.079756 
L 255.197743 116.339089 
L 255.204236 116.347071 
L 255.244817 116.828951 
L 255.34546 121.332616 
L 255.491555 139.575198 
L 255.70258 200.314069 
L 255.90062 258.842805 
L 255.952564 251.973992 
L 256.618106 116.083374 
L 256.619729 116.083962 
L 256.645702 116.266207 
L 256.726865 118.834395 
L 256.866467 131.440086 
L 257.049897 172.172028 
L 257.333969 258.723383 
L 257.40377 247.593311 
L 257.973539 118.39984 
L 258.064442 116.339076 
L 258.114764 116.924686 
L 258.218653 121.891673 
L 258.367994 141.680654 
L 258.588759 207.984813 
L 258.765696 258.841577 
L 258.816017 252.479522 
L 259.483183 116.083455 
L 259.501039 116.156042 
L 259.565969 117.666735 
L 259.694208 126.763269 
L 259.864652 157.725264 
L 260.200669 258.724512 
L 260.291572 240.935081 
L 260.773684 122.909652 
L 260.929519 116.339009 
L 260.955491 116.493634 
L 261.033408 118.782883 
L 261.166516 130.47925 
L 261.345076 170.051924 
L 261.632396 258.842338 
L 261.70382 246.565288 
L 262.247616 118.922905 
L 262.349882 116.083447 
L 262.396957 116.623524 
L 262.500847 121.450343 
L 262.653434 140.507889 
L 262.869329 202.050251 
L 263.065745 258.724871 
L 263.11769 252.050008 
L 263.794595 116.339058 
L 263.799465 116.343507 
L 263.835177 116.704721 
L 263.929327 120.466534 
L 264.072175 136.665798 
L 264.271837 190.37836 
L 264.497472 258.842891 
L 264.552663 251.141684 
L 265.193856 116.19506 
L 265.214959 116.083373 
L 265.262033 116.612428 
L 265.365923 121.414317 
L 265.518511 140.414424 
L 265.732783 201.279408 
L 265.930822 258.723858 
L 265.982767 252.166871 
L 266.661295 116.339111 
L 266.667788 116.350839 
L 266.711616 116.927587 
L 266.815505 121.901269 
L 266.964847 141.705892 
L 267.185612 208.032383 
L 267.362548 258.842024 
L 267.41287 252.449751 
L 268.080035 116.083423 
L 268.096268 116.144074 
L 268.159575 117.550436 
L 268.286191 126.251933 
L 268.455011 156.082981 
L 268.797521 258.724202 
L 268.891671 239.86187 
L 269.365667 123.349303 
L 269.526371 116.339015 
L 269.549097 116.458951 
L 269.622144 118.418181 
L 269.752006 129.000023 
L 269.925696 165.213331 
L 270.229248 258.841972 
L 270.305542 245.078688 
L 270.828236 119.957636 
L 270.946735 116.083485 
L 270.98894 116.52259 
L 271.087959 120.780139 
L 271.238924 138.458678 
L 271.446703 195.093825 
L 271.662598 258.72491 
L 271.716166 251.634075 
L 272.383331 116.355681 
L 272.393071 116.339394 
L 272.425536 116.59851 
L 272.513193 119.693428 
L 272.651171 133.748596 
L 272.841094 180.90171 
L 273.094324 258.842885 
L 273.156009 249.413857 
L 273.753373 116.972423 
L 273.811811 116.08338 
L 273.867002 116.8102 
L 273.977385 122.537838 
L 274.134842 144.263997 
L 274.36697 215.079154 
L 274.527674 258.724246 
L 274.577996 252.512797 
L 275.258147 116.339153 
L 275.276003 116.418774 
L 275.342557 117.976838 
L 275.467549 127.117969 
L 275.634746 158.965237 
L 275.959401 258.842378 
L 276.047057 241.859316 
L 276.532416 122.090679 
L 276.676887 116.083399 
L 276.707729 116.307763 
L 276.793763 119.24557 
L 276.936611 133.029989 
L 277.124911 177.179516 
L 277.394374 258.723803 
L 277.457681 248.99443 
L 278.055046 117.474632 
L 278.123223 116.339028 
L 278.178415 117.035248 
L 278.285551 122.506841 
L 278.436515 143.616354 
L 278.665396 214.626771 
L 278.8261 258.841514 
L 278.874799 252.53707 
L 279.543587 116.083531 
L 279.561443 116.167999 
L 279.62962 117.847289 
L 279.761105 127.647238 
L 279.933172 160.245386 
L 280.25945 258.72486 
L 280.345484 242.53566 
L 280.843828 121.94072 
L 280.9883 116.339019 
L 281.019142 116.553043 
L 281.101929 119.257773 
L 281.238284 132.288095 
L 281.423337 176.127361 
L 281.691177 258.842788 
L 281.756108 248.489647 
L 282.333993 117.557306 
L 282.408663 116.083395 
L 282.462231 116.772013 
L 282.572614 122.418029 
L 282.728448 143.62706 
L 282.957329 212.714182 
L 283.124527 258.724544 
L 283.174848 252.483791 
L 283.853376 116.339124 
L 283.872855 116.419856 
L 283.939409 117.981725 
L 284.064401 127.132463 
L 284.231599 158.999722 
L 284.556253 258.842642 
L 284.64391 241.818982 
L 285.129268 122.079465 
L 285.27374 116.083382 
L 285.304582 116.309609 
L 285.390615 119.252434 
L 285.533463 133.048701 
L 285.721763 177.220012 
L 285.991226 258.723317 
L 286.054534 248.960459 
L 286.651898 117.470249 
L 286.720076 116.339049 
L 286.775267 117.038411 
L 286.882403 122.517061 
L 287.033367 143.642789 
L 287.262249 214.674687 
L 287.421329 258.841075 
L 287.471651 252.507401 
L 288.138816 116.083492 
L 288.156672 116.155053 
L 288.221603 117.662224 
L 288.349841 126.750264 
L 288.520285 157.694258 
L 288.856303 258.724722 
L 288.947206 240.972644 
L 289.430941 122.773496 
L 289.585152 116.33901 
L 289.611124 116.492234 
L 289.689041 118.777228 
L 289.82215 130.463045 
L 290.00071 170.015374 
L 290.288029 258.842599 
L 290.359453 246.600058 
L 290.904873 118.83515 
L 291.005516 116.083418 
L 291.052591 116.62087 
L 291.15648 121.441749 
L 291.309068 140.485604 
L 291.524963 202.007039 
L 291.721379 258.724755 
L 291.773324 252.077916 
L 292.450228 116.339087 
L 292.456721 116.347092 
L 292.497303 116.829115 
L 292.597946 121.333174 
L 292.744041 139.576676 
L 292.955066 200.316959 
L 293.153105 258.842813 
L 293.20505 251.972097 
L 293.870592 116.083374 
L 293.872215 116.083968 
L 293.898188 116.266311 
L 293.979351 118.83479 
L 294.118953 131.441172 
L 294.302383 172.174433 
L 294.586455 258.723415 
L 294.656256 247.591119 
L 295.226025 118.399465 
L 295.316928 116.339077 
L 295.367249 116.924865 
L 295.471139 121.892267 
L 295.62048 141.682216 
L 295.841245 207.987758 
L 296.018182 258.841608 
L 296.068503 252.47768 
L 296.735668 116.083453 
L 296.753524 116.156108 
L 296.818455 117.667033 
L 296.946694 126.764127 
L 297.117137 157.72731 
L 297.453155 258.724495 
L 297.544058 240.932601 
L 298.02617 122.908938 
L 298.182004 116.339009 
L 298.207977 116.493727 
L 298.285894 118.783257 
L 298.419002 130.48032 
L 298.597562 170.054337 
L 298.884881 258.842318 
L 298.956305 246.562992 
L 299.500102 118.922443 
L 299.602368 116.083449 
L 299.649443 116.623699 
L 299.753332 121.45091 
L 299.90592 140.50936 
L 300.121815 202.053103 
L 300.318231 258.724876 
L 300.370176 252.048165 
L 301.047081 116.339056 
L 301.051951 116.343523 
L 301.087663 116.704863 
L 301.181812 120.467034 
L 301.32466 136.667154 
L 301.524323 190.381137 
L 301.749958 258.842893 
L 301.805149 251.13971 
L 302.446342 116.194976 
L 302.467444 116.083374 
L 302.514519 116.612601 
L 302.618409 121.414883 
L 302.770996 140.415892 
L 302.985268 201.282254 
L 303.183308 258.723885 
L 303.235252 252.16504 
L 303.91378 116.339113 
L 303.920273 116.350865 
L 303.964102 116.927767 
L 304.067991 121.901863 
L 304.217332 141.707455 
L 304.438097 208.035328 
L 304.615034 258.842048 
L 304.665356 252.447906 
L 305.332521 116.083421 
L 305.348753 116.144133 
L 305.412061 117.550723 
L 305.538676 126.252765 
L 305.707497 156.084981 
L 306.050007 258.72418 
L 306.144157 239.85936 
L 306.618153 123.348563 
L 306.778857 116.339016 
L 306.801583 116.459032 
L 306.87463 118.418523 
L 307.004492 129.001018 
L 307.178182 165.215629 
L 307.481734 258.841946 
L 307.558028 245.076319 
L 308.080721 119.95709 
L 308.19922 116.083488 
L 308.241425 116.522749 
L 308.340445 120.780666 
L 308.491409 138.460067 
L 308.699188 195.096608 
L 308.915084 258.72491 
L 308.968652 251.63219 
L 309.635817 116.35565 
L 309.645556 116.339399 
L 309.678022 116.598629 
L 309.765679 119.693872 
L 309.903657 133.749822 
L 310.09358 180.90434 
L 310.34681 258.842882 
L 310.408495 249.411741 
L 311.005859 116.972176 
L 311.064297 116.083381 
L 311.119488 116.810402 
L 311.229871 122.538469 
L 311.387328 144.26561 
L 311.619456 215.082069 
L 311.78016 258.724267 
L 311.830481 252.511003 
L 312.510633 116.339156 
L 312.528489 116.418841 
L 312.595043 117.97714 
L 312.720035 127.118866 
L 312.887232 158.967372 
L 313.211887 258.842397 
L 313.299543 241.856819 
L 313.784902 122.089985 
L 313.929373 116.083397 
L 313.960215 116.307878 
L 314.046249 119.245994 
L 314.189097 133.031148 
L 314.377396 177.182023 
L 314.64686 258.723776 
L 314.710167 248.992328 
L 315.307532 117.47436 
L 315.375709 116.339029 
L 315.4309 117.035444 
L 315.538036 122.507474 
L 315.689001 143.61799 
L 315.917882 214.629738 
L 316.078586 258.841482 
L 316.127284 252.535235 
L 316.796073 116.083534 
L 316.813929 116.168069 
L 316.882106 117.847603 
L 317.013591 127.648141 
L 317.185658 160.247503 
L 317.511936 258.724854 
L 317.597969 242.533233 
L 318.096314 121.940066 
L 318.240785 116.339018 
L 318.271628 116.553152 
L 318.354415 119.258184 
L 318.490769 132.289252 
L 318.675823 176.129901 
L 318.943663 258.842778 
L 319.008593 248.487466 
L 319.586479 117.556983 
L 319.661149 116.083397 
L 319.714717 116.77221 
L 319.8251 122.418654 
L 319.980934 143.628649 
L 320.209815 212.717093 
L 320.377012 258.72456 
L 320.427334 252.481993 
L 321.105862 116.339122 
L 321.125341 116.419923 
L 321.191895 117.982027 
L 321.316887 127.133361 
L 321.484084 159.001858 
L 321.808739 258.842655 
L 321.896396 241.816485 
L 322.381754 122.078772 
L 322.526225 116.083382 
L 322.557068 116.309724 
L 322.643101 119.252859 
L 322.785949 133.04986 
L 322.974249 177.22252 
L 323.243712 258.723283 
L 323.30702 248.958354 
L 323.904384 117.469978 
L 323.972561 116.339051 
L 324.027753 117.038607 
L 324.134889 122.517694 
L 324.285853 143.644426 
L 324.514735 214.677654 
L 324.673815 258.841111 
L 324.724137 252.505563 
L 325.391302 116.083489 
L 325.409158 116.155118 
L 325.474089 117.662521 
L 325.602327 126.751122 
L 325.772771 157.696304 
L 326.108788 258.72471 
L 326.199692 240.970165 
L 326.683427 122.77279 
L 326.837638 116.33901 
L 326.86361 116.492326 
L 326.941527 118.777601 
L 327.074636 130.464114 
L 327.253196 170.017786 
L 327.540515 258.842584 
L 327.611939 246.597764 
L 328.157359 118.834696 
L 328.258001 116.08342 
L 328.305076 116.621045 
L 328.408966 121.442316 
L 328.561553 140.487074 
L 328.777449 202.009891 
L 328.973865 258.724765 
L 329.025809 252.076075 
L 329.702714 116.339085 
L 329.709207 116.347113 
L 329.749789 116.82928 
L 329.850432 121.333732 
L 329.996527 139.578154 
L 330.207552 200.319849 
L 330.405591 258.842821 
L 330.457536 251.970202 
L 331.123078 116.083374 
L 331.124701 116.083974 
L 331.150673 116.266414 
L 331.231837 118.835185 
L 331.371439 131.442258 
L 331.554868 172.176838 
L 331.838941 258.723446 
L 331.908742 247.588926 
L 332.478511 118.399089 
L 332.569414 116.339079 
L 332.619735 116.925045 
L 332.723625 121.892861 
L 332.872966 141.683778 
L 333.093731 207.990703 
L 333.270668 258.841638 
L 333.320989 252.475838 
L 333.988154 116.08345 
L 334.00601 116.156173 
L 334.070941 117.667331 
L 334.19918 126.764986 
L 334.369623 157.729357 
L 334.705641 258.724478 
L 334.796544 240.930122 
L 335.278656 122.908224 
L 335.43449 116.339009 
L 335.460463 116.49382 
L 335.53838 118.78363 
L 335.671488 130.48139 
L 335.850048 170.05675 
L 336.137367 258.842298 
L 336.208791 246.560696 
L 336.752588 118.921982 
L 336.854854 116.083451 
L 336.901929 116.623874 
L 337.005818 121.451478 
L 337.158406 140.510832 
L 337.374301 202.055956 
L 337.570717 258.724881 
L 337.622662 252.046322 
L 338.299567 116.339055 
L 338.304436 116.343539 
L 338.340148 116.705005 
L 338.434298 120.467533 
L 338.577146 136.66851 
L 338.776809 190.383914 
L 339.002444 258.842895 
L 339.057635 251.137735 
L 339.698828 116.194892 
L 339.71993 116.083374 
L 339.767005 116.612775 
L 339.870895 121.415448 
L 340.023482 140.417359 
L 340.237754 201.2851 
L 340.435793 258.723911 
L 340.487738 252.163208 
L 341.166266 116.339116 
L 341.172759 116.350891 
L 341.216588 116.927947 
L 341.320477 121.902458 
L 341.469818 141.709018 
L 341.690583 208.038273 
L 341.86752 258.842073 
L 341.917841 252.446061 
L 342.585007 116.083419 
L 342.601239 116.144193 
L 342.664547 117.55101 
L 342.791162 126.253598 
L 342.959983 156.08698 
L 343.302493 258.724157 
L 343.396643 239.856849 
L 343.870639 123.347823 
L 344.031343 116.339016 
L 344.054068 116.459114 
L 344.127116 118.418866 
L 344.256977 129.002014 
L 344.430668 165.217928 
L 344.73422 258.84192 
L 344.810513 245.073949 
L 345.333207 119.956543 
L 345.451706 116.08349 
L 345.493911 116.522907 
L 345.592931 120.781192 
L 345.743895 138.461457 
L 345.951674 195.099391 
L 346.167569 258.724909 
L 346.221137 251.630305 
L 346.888303 116.355619 
L 346.898042 116.339403 
L 346.930508 116.598749 
L 347.018164 119.694317 
L 347.156143 133.751048 
L 347.346065 180.906969 
L 347.599296 258.842878 
L 347.66098 249.409625 
L 348.258345 116.971929 
L 348.316783 116.083382 
L 348.371974 116.810605 
L 348.482356 122.5391 
L 348.639814 144.267223 
L 348.871942 215.084984 
L 349.032646 258.724288 
L 349.082967 252.509208 
L 349.763119 116.339159 
L 349.780975 116.418907 
L 349.847529 117.977443 
L 349.972521 127.119763 
L 350.139718 158.969506 
L 350.464372 258.842416 
L 350.552029 241.854322 
L 351.037388 122.08929 
L 351.181859 116.083396 
L 351.212701 116.307992 
L 351.298735 119.246419 
L 351.441583 133.032306 
L 351.629882 177.18453 
L 351.899345 258.723748 
L 351.962653 248.990226 
L 352.560017 117.474089 
L 352.628195 116.339031 
L 352.683386 117.035639 
L 352.790522 122.508106 
L 352.941487 143.619626 
L 353.170368 214.632705 
L 353.331072 258.841451 
L 353.37977 252.533399 
L 354.048559 116.083538 
L 354.066415 116.16814 
L 354.134592 117.847918 
L 354.266077 127.649044 
L 354.438144 160.24962 
L 354.764422 258.724848 
L 354.850455 242.530805 
L 355.3488 121.939413 
L 355.493271 116.339017 
L 355.524113 116.553261 
L 355.6069 119.258595 
L 355.743255 132.29041 
L 355.928308 176.132442 
L 356.196148 258.842769 
L 356.261079 248.485285 
L 356.838964 117.556659 
L 356.913635 116.083398 
L 356.967203 116.772408 
L 357.077585 122.419278 
L 357.23342 143.630239 
L 357.462301 212.720004 
L 357.629498 258.724575 
L 357.67982 252.480196 
L 358.358348 116.339119 
L 358.377827 116.41999 
L 358.444381 117.98233 
L 358.569373 127.134259 
L 358.73657 159.003993 
L 359.061225 258.842668 
L 359.148881 241.813987 
L 359.63424 122.078078 
L 359.778711 116.083381 
L 359.809553 116.309838 
L 359.895587 119.253284 
L 360.038435 133.051019 
L 360.226735 177.225027 
L 360.496198 258.72325 
L 360.559505 248.95625 
L 361.15687 117.469707 
L 361.225047 116.339052 
L 361.280239 117.038803 
L 361.387375 122.518327 
L 361.538339 143.646063 
L 361.76722 214.680621 
L 361.926301 258.841146 
L 361.976623 252.503724 
L 362.643788 116.083487 
L 362.661644 116.155183 
L 362.726575 117.662819 
L 362.854813 126.75198 
L 363.025257 157.69835 
L 363.361274 258.724699 
L 363.452177 240.967686 
L 363.935913 122.772085 
L 364.090124 116.33901 
L 364.116096 116.492418 
L 364.194013 118.777974 
L 364.327121 130.465183 
L 364.505681 170.020198 
L 364.793001 258.842569 
L 364.864425 246.59547 
L 365.409844 118.834242 
L 365.510487 116.083422 
L 365.557562 116.62122 
L 365.661452 121.442883 
L 365.814039 140.488545 
L 366.029935 202.012743 
L 366.226351 258.724775 
L 366.278295 252.074235 
L 366.9552 116.339082 
L 366.96007 116.343299 
L 366.995782 116.702857 
L 367.089932 120.45997 
L 367.23278 136.64797 
L 367.432442 190.341839 
L 367.658077 258.842828 
L 367.713268 251.16764 
L 368.356084 116.17937 
L 368.375564 116.083373 
L 368.421015 116.574899 
L 368.523281 121.175976 
L 368.675869 139.792844 
L 368.888518 199.480257 
L 369.091427 258.723478 
L 369.143372 252.190938 
L 369.8219 116.339082 
L 369.830016 116.356381 
L 369.877091 117.041975 
L 369.984227 122.528559 
L 370.135191 143.672516 
L 370.364073 214.728538 
L 370.523153 258.841667 
L 370.573475 252.473996 
L 371.24064 116.083448 
L 371.258496 116.156239 
L 371.323427 117.667629 
L 371.451665 126.765845 
L 371.622109 157.731404 
L 371.958127 258.724461 
L 372.04903 240.927642 
L 372.531142 122.90751 
L 372.686976 116.33901 
L 372.712948 116.493913 
L 372.790865 118.784004 
L 372.923974 130.48246 
L 373.102534 170.059162 
L 373.389853 258.842277 
L 373.461277 246.5584 
L 374.005073 118.921521 
L 374.10734 116.083453 
L 374.154415 116.62405 
L 374.258304 121.452046 
L 374.410892 140.512303 
L 374.626787 202.058808 
L 374.823203 258.724885 
L 374.875148 252.044478 
L 375.552052 116.339053 
L 375.556922 116.343555 
L 375.592634 116.705147 
L 375.686784 120.468033 
L 375.829632 136.669866 
L 376.029295 190.386691 
L 376.254929 258.842897 
L 376.310121 251.13576 
L 376.951313 116.194808 
L 376.972416 116.083374 
L 377.019491 116.612949 
L 377.12338 121.416013 
L 377.275968 140.418827 
L 377.49024 201.287945 
L 377.688279 258.723937 
L 377.740224 252.161377 
L 378.418752 116.339118 
L 378.425245 116.350916 
L 378.469073 116.928127 
L 378.572963 121.903052 
L 378.722304 141.710581 
L 378.943069 208.041219 
L 379.120006 258.842096 
L 379.170327 252.444216 
L 379.837492 116.083418 
L 379.853725 116.144253 
L 379.917033 117.551297 
L 380.043648 126.25443 
L 380.212468 156.08898 
L 380.554979 258.724134 
L 380.649129 239.854338 
L 381.123124 123.347083 
L 381.283828 116.339017 
L 381.306554 116.459196 
L 381.379601 118.419209 
L 381.509463 129.003009 
L 381.683153 165.220227 
L 381.986705 258.841893 
L 382.062999 245.071578 
L 382.585693 119.955996 
L 382.704192 116.083493 
L 382.746397 116.523066 
L 382.845417 120.781719 
L 382.996381 138.462847 
L 383.20416 195.102174 
L 383.420055 258.724908 
L 383.473623 251.62842 
L 384.140788 116.355588 
L 384.150528 116.339408 
L 384.182993 116.598869 
L 384.27065 119.694761 
L 384.408628 133.752274 
L 384.598551 180.909599 
L 384.851782 258.842874 
L 384.913466 249.407508 
L 385.510831 116.971682 
L 385.569268 116.083383 
L 385.62446 116.810808 
L 385.734842 122.539732 
L 385.8923 144.268836 
L 386.124428 215.0879 
L 386.285132 258.724308 
L 386.335453 252.507413 
L 387.015604 116.339162 
L 387.03346 116.418974 
L 387.100015 117.977745 
L 387.225007 127.12066 
L 387.392204 158.971641 
L 387.716858 258.842434 
L 387.804515 241.851826 
L 388.289873 122.088596 
L 388.434345 116.083395 
L 388.465187 116.308106 
L 388.55122 119.246844 
L 388.694068 133.033464 
L 388.882368 177.187037 
L 389.151831 258.72372 
L 389.215139 248.988123 
L 389.812503 117.473817 
L 389.880681 116.339032 
L 389.935872 117.035835 
L 390.043008 122.508739 
L 390.193972 143.621263 
L 390.422854 214.635671 
L 390.583558 258.841418 
L 390.632256 252.531563 
L 391.299421 116.08353 
L 391.3189 116.168211 
L 391.387078 117.848232 
L 391.518563 127.649948 
L 391.69063 160.251737 
L 392.016908 258.724841 
L 392.102941 242.528378 
L 392.601286 121.93876 
L 392.745757 116.339016 
L 392.776599 116.55337 
L 392.859386 119.259007 
L 392.995741 132.291568 
L 393.180794 176.134982 
L 393.448634 258.842759 
L 393.513565 248.483104 
L 394.09145 117.556336 
L 394.166121 116.083399 
L 394.219689 116.772605 
L 394.330071 122.419903 
L 394.485905 143.631829 
L 394.714787 212.722915 
L 394.881984 258.72459 
L 394.932305 252.478398 
L 395.610833 116.339117 
L 395.630313 116.420057 
L 395.696867 117.982633 
L 395.821859 127.135156 
L 395.989056 159.006129 
L 396.313711 258.84268 
L 396.401367 241.811488 
L 396.886726 122.077384 
L 397.031197 116.08338 
L 397.062039 116.309953 
L 397.148073 119.25371 
L 397.290921 133.052178 
L 397.480844 177.747605 
L 397.748684 258.723216 
L 397.811991 248.954145 
L 398.409356 117.469436 
L 398.477533 116.339054 
L 398.487273 116.362906 
" style="fill:none;stroke:#1f77b4;stroke-linecap:square;stroke-width:1.5;"/>
   </g>
   <g id="patch_3">
    <path d="M 57.6 307.584 
L 57.6 41.472 
" style="fill:none;stroke:#000000;stroke-linecap:square;stroke-linejoin:miter;stroke-width:0.8;"/>
   </g>
   <g id="patch_4">
    <path d="M 414.72 307.584 
L 414.72 41.472 
" style="fill:none;stroke:#000000;stroke-linecap:square;stroke-linejoin:miter;stroke-width:0.8;"/>
   </g>
   <g id="patch_5">
    <path d="M 57.6 307.584 
L 414.72 307.584 
" style="fill:none;stroke:#000000;stroke-linecap:square;stroke-linejoin:miter;stroke-width:0.8;"/>
   </g>
   <g id="patch_6">
    <path d="M 57.6 41.472 
L 414.72 41.472 
" style="fill:none;stroke:#000000;stroke-linecap:square;stroke-linejoin:miter;stroke-width:0.8;"/>
   </g>
  </g>
 </g>
 <defs>
  <clipPath id="p098873e5df">
   <rect height="266.112" width="357.12" x="57.6" y="41.472"/>
  </clipPath>
 </defs>
</svg>
