<?xml version="1.0" encoding="utf-8" standalone="no"?>
<!DOCTYPE svg PUBLIC "-//W3C//DTD SVG 1.1//EN"
  "http://www.w3.org/Graphics/SVG/1.1/DTD/svg11.dtd">
<!-- Created with matplotlib (https://matplotlib.org/) -->
<svg height="345.6pt" version="1.1" viewBox="0 0 460.8 345.6" width="460.8pt" xmlns="http://www.w3.org/2000/svg" xmlns:xlink="http://www.w3.org/1999/xlink">
 <metadata>
  <rdf:RDF xmlns:cc="http://creativecommons.org/ns#" xmlns:dc="http://purl.org/dc/elements/1.1/" xmlns:rdf="http://www.w3.org/1999/02/22-rdf-syntax-ns#">
   <cc:Work>
    <dc:type rdf:resource="http://purl.org/dc/dcmitype/StillImage"/>
    <dc:date>2020-07-25T22:28:40.332566</dc:date>
    <dc:format>image/svg+xml</dc:format>
    <dc:creator>
     <cc:Agent>
      <dc:title>Matplotlib v3.3.0, https://matplotlib.org/</dc:title>
     </cc:Agent>
    </dc:creator>
   </cc:Work>
  </rdf:RDF>
 </metadata>
 <defs>
  <style type="text/css">*{stroke-linecap:butt;stroke-linejoin:round;}</style>
 </defs>
 <g id="figure_1">
  <g id="patch_1">
   <path d="M 0 345.6 
L 460.8 345.6 
L 460.8 0 
L 0 0 
z
" style="fill:#ffffff;"/>
  </g>
  <g id="axes_1">
   <g id="patch_2">
    <path d="M 57.6 307.584 
L 414.72 307.584 
L 414.72 41.472 
L 57.6 41.472 
z
" style="fill:#ffffff;"/>
   </g>
   <g id="matplotlib.axis_1">
    <g id="xtick_1">
     <g id="line2d_1">
      <defs>
       <path d="M 0 0 
L 0 3.5 
" id="m9759f3e142" style="stroke:#000000;stroke-width:0.8;"/>
      </defs>
      <g>
       <use style="stroke:#000000;stroke-width:0.8;" x="73.832727" xlink:href="#m9759f3e142" y="307.584"/>
      </g>
     </g>
     <g id="text_1">
      <!-- $\mathdefault{0}$ -->
      <g transform="translate(71.34206 321.502498)scale(0.1 -0.1)">
       <defs>
        <path d="M 42 31.640625 
C 42 37.75 41.90625 48.125 37.703125 56.109375 
C 34 63.109375 28.09375 65.59375 22.90625 65.59375 
C 18.09375 65.59375 12 63.40625 8.203125 56.203125 
C 4.203125 48.71875 3.796875 39.4375 3.796875 31.640625 
C 3.796875 25.953125 3.90625 17.28125 7 9.671875 
C 11.296875 -0.609375 19 -2 22.90625 -2 
C 27.5 -2 34.5 -0.109375 38.59375 9.375 
C 41.59375 16.28125 42 24.359375 42 31.640625 
z
M 22.90625 -0.40625 
C 16.5 -0.40625 12.703125 5.078125 11.296875 12.6875 
C 10.203125 18.5625 10.203125 27.15625 10.203125 32.75 
C 10.203125 40.4375 10.203125 46.828125 11.5 52.921875 
C 13.40625 61.390625 19 64 22.90625 64 
C 27 64 32.296875 61.296875 34.203125 53.125 
C 35.5 47.4375 35.59375 40.734375 35.59375 32.75 
C 35.59375 26.25 35.59375 18.265625 34.40625 12.375 
C 32.296875 1.484375 26.40625 -0.40625 22.90625 -0.40625 
z
" id="CMR17-48"/>
       </defs>
       <use transform="scale(0.996264)" xlink:href="#CMR17-48"/>
      </g>
     </g>
    </g>
    <g id="xtick_2">
     <g id="line2d_2">
      <g>
       <use style="stroke:#000000;stroke-width:0.8;" x="114.414545" xlink:href="#m9759f3e142" y="307.584"/>
      </g>
     </g>
     <g id="text_2">
      <!-- $\mathdefault{50000}$ -->
      <g transform="translate(101.961207 321.502498)scale(0.1 -0.1)">
       <defs>
        <path d="M 11.40625 57.6875 
C 12.40625 57.28125 16.5 56 20.703125 56 
C 30 56 35.09375 61.109375 38 64.0625 
C 38 64.953125 38 65.5 37.40625 65.5 
C 37.296875 65.5 37.09375 65.5 36.296875 65.046875 
C 32.796875 63.40625 28.703125 62.078125 23.703125 62.078125 
C 20.703125 62.078125 16.203125 62.484375 11.296875 64.671875 
C 10.203125 65.171875 10 65.171875 9.90625 65.171875 
C 9.40625 65.171875 9.296875 65.0625 9.296875 63.078125 
L 9.296875 34.421875 
C 9.296875 32.640625 9.296875 32.140625 10.296875 32.140625 
C 10.796875 32.140625 11 32.34375 11.5 33.03125 
C 14.703125 37.515625 19.09375 39.40625 24.09375 39.40625 
C 27.59375 39.40625 35.09375 37.21875 35.09375 20.140625 
C 35.09375 16.953125 35.09375 11.171875 32.09375 6.578125 
C 29.59375 2.484375 25.703125 0.390625 21.40625 0.390625 
C 14.796875 0.390625 8.09375 5 6.296875 12.71875 
C 6.703125 12.609375 7.5 12.421875 7.90625 12.421875 
C 9.203125 12.421875 11.703125 13.125 11.703125 16.21875 
C 11.703125 18.90625 9.796875 20 7.90625 20 
C 5.59375 20 4.09375 18.59375 4.09375 15.796875 
C 4.09375 7.09375 11 -2 21.59375 -2 
C 31.90625 -2 41.703125 6.875 41.703125 19.75 
C 41.703125 31.71875 33.90625 41 24.203125 41 
C 19.09375 41 14.796875 39.109375 11.40625 35.53125 
z
" id="CMR17-53"/>
       </defs>
       <use transform="scale(0.996264)" xlink:href="#CMR17-53"/>
       <use transform="translate(45.690477 0)scale(0.996264)" xlink:href="#CMR17-48"/>
       <use transform="translate(91.380954 0)scale(0.996264)" xlink:href="#CMR17-48"/>
       <use transform="translate(137.071431 0)scale(0.996264)" xlink:href="#CMR17-48"/>
       <use transform="translate(182.761908 0)scale(0.996264)" xlink:href="#CMR17-48"/>
      </g>
     </g>
    </g>
    <g id="xtick_3">
     <g id="line2d_3">
      <g>
       <use style="stroke:#000000;stroke-width:0.8;" x="154.996364" xlink:href="#m9759f3e142" y="307.584"/>
      </g>
     </g>
     <g id="text_3">
      <!-- $\mathdefault{100000}$ -->
      <g transform="translate(140.052358 321.502498)scale(0.1 -0.1)">
       <defs>
        <path d="M 26.59375 63.40625 
C 26.59375 65.5 26.5 65.5 25.09375 65.5 
C 21.203125 61.1875 15.296875 59.796875 9.703125 59.796875 
C 9.40625 59.796875 8.90625 59.796875 8.796875 59.5 
C 8.703125 59.296875 8.703125 59.09375 8.703125 57 
C 11.796875 57 17 57.59375 21 59.984375 
L 21 7.203125 
C 21 3.6875 20.796875 2.5 12.203125 2.5 
L 9.203125 2.5 
L 9.203125 0 
C 14 0 19 0 23.796875 0 
C 28.59375 0 33.59375 0 38.40625 0 
L 38.40625 2.5 
L 35.40625 2.5 
C 26.796875 2.5 26.59375 3.59375 26.59375 7.15625 
z
" id="CMR17-49"/>
       </defs>
       <use transform="scale(0.996264)" xlink:href="#CMR17-49"/>
       <use transform="translate(45.690477 0)scale(0.996264)" xlink:href="#CMR17-48"/>
       <use transform="translate(91.380954 0)scale(0.996264)" xlink:href="#CMR17-48"/>
       <use transform="translate(137.071431 0)scale(0.996264)" xlink:href="#CMR17-48"/>
       <use transform="translate(182.761908 0)scale(0.996264)" xlink:href="#CMR17-48"/>
       <use transform="translate(228.452386 0)scale(0.996264)" xlink:href="#CMR17-48"/>
      </g>
     </g>
    </g>
    <g id="xtick_4">
     <g id="line2d_4">
      <g>
       <use style="stroke:#000000;stroke-width:0.8;" x="195.578182" xlink:href="#m9759f3e142" y="307.584"/>
      </g>
     </g>
     <g id="text_4">
      <!-- $\mathdefault{150000}$ -->
      <g transform="translate(180.634176 321.502498)scale(0.1 -0.1)">
       <use transform="scale(0.996264)" xlink:href="#CMR17-49"/>
       <use transform="translate(45.690477 0)scale(0.996264)" xlink:href="#CMR17-53"/>
       <use transform="translate(91.380954 0)scale(0.996264)" xlink:href="#CMR17-48"/>
       <use transform="translate(137.071431 0)scale(0.996264)" xlink:href="#CMR17-48"/>
       <use transform="translate(182.761908 0)scale(0.996264)" xlink:href="#CMR17-48"/>
       <use transform="translate(228.452386 0)scale(0.996264)" xlink:href="#CMR17-48"/>
      </g>
     </g>
    </g>
    <g id="xtick_5">
     <g id="line2d_5">
      <g>
       <use style="stroke:#000000;stroke-width:0.8;" x="236.16" xlink:href="#m9759f3e142" y="307.584"/>
      </g>
     </g>
     <g id="text_5">
      <!-- $\mathdefault{200000}$ -->
      <g transform="translate(221.215994 321.502498)scale(0.1 -0.1)">
       <defs>
        <path d="M 41.703125 15.453125 
L 39.90625 15.453125 
C 38.90625 8.375 38.09375 7.171875 37.703125 6.5625 
C 37.203125 5.765625 30 5.765625 28.59375 5.765625 
L 9.40625 5.765625 
C 13 9.671875 20 16.75 28.5 24.953125 
C 34.59375 30.734375 41.703125 37.53125 41.703125 47.421875 
C 41.703125 59.21875 32.296875 66 21.796875 66 
C 10.796875 66 4.09375 56.3125 4.09375 47.34375 
C 4.09375 43.4375 7 42.9375 8.203125 42.9375 
C 9.203125 42.9375 12.203125 43.546875 12.203125 47.03125 
C 12.203125 50.109375 9.59375 51 8.203125 51 
C 7.59375 51 7 50.90625 6.59375 50.703125 
C 8.5 59.21875 14.296875 63.40625 20.40625 63.40625 
C 29.09375 63.40625 34.796875 56.515625 34.796875 47.421875 
C 34.796875 38.734375 29.703125 31.25 24 24.75 
L 4.09375 2.28125 
L 4.09375 0 
L 39.296875 0 
z
" id="CMR17-50"/>
       </defs>
       <use transform="scale(0.996264)" xlink:href="#CMR17-50"/>
       <use transform="translate(45.690477 0)scale(0.996264)" xlink:href="#CMR17-48"/>
       <use transform="translate(91.380954 0)scale(0.996264)" xlink:href="#CMR17-48"/>
       <use transform="translate(137.071431 0)scale(0.996264)" xlink:href="#CMR17-48"/>
       <use transform="translate(182.761908 0)scale(0.996264)" xlink:href="#CMR17-48"/>
       <use transform="translate(228.452386 0)scale(0.996264)" xlink:href="#CMR17-48"/>
      </g>
     </g>
    </g>
    <g id="xtick_6">
     <g id="line2d_6">
      <g>
       <use style="stroke:#000000;stroke-width:0.8;" x="276.741818" xlink:href="#m9759f3e142" y="307.584"/>
      </g>
     </g>
     <g id="text_6">
      <!-- $\mathdefault{250000}$ -->
      <g transform="translate(261.797812 321.502498)scale(0.1 -0.1)">
       <use transform="scale(0.996264)" xlink:href="#CMR17-50"/>
       <use transform="translate(45.690477 0)scale(0.996264)" xlink:href="#CMR17-53"/>
       <use transform="translate(91.380954 0)scale(0.996264)" xlink:href="#CMR17-48"/>
       <use transform="translate(137.071431 0)scale(0.996264)" xlink:href="#CMR17-48"/>
       <use transform="translate(182.761908 0)scale(0.996264)" xlink:href="#CMR17-48"/>
       <use transform="translate(228.452386 0)scale(0.996264)" xlink:href="#CMR17-48"/>
      </g>
     </g>
    </g>
    <g id="xtick_7">
     <g id="line2d_7">
      <g>
       <use style="stroke:#000000;stroke-width:0.8;" x="317.323636" xlink:href="#m9759f3e142" y="307.584"/>
      </g>
     </g>
     <g id="text_7">
      <!-- $\mathdefault{300000}$ -->
      <g transform="translate(302.379631 321.502498)scale(0.1 -0.1)">
       <defs>
        <path d="M 22.09375 33.703125 
C 31 33.703125 34.90625 25.96875 34.90625 17.03125 
C 34.90625 5 28.5 0.390625 22.703125 0.390625 
C 17.40625 0.390625 8.796875 3.03125 6.09375 10.828125 
C 6.59375 10.625 7.09375 10.625 7.59375 10.625 
C 10 10.625 11.796875 12.21875 11.796875 14.8125 
C 11.796875 17.703125 9.59375 19 7.59375 19 
C 5.90625 19 3.296875 18.203125 3.296875 14.46875 
C 3.296875 5.234375 12.296875 -2 22.90625 -2 
C 34 -2 42.5 6.71875 42.5 16.953125 
C 42.5 26.671875 34.5 33.703125 25 34.796875 
C 32.59375 36.375 39.90625 43.0625 39.90625 52.015625 
C 39.90625 59.6875 32 65.296875 23 65.296875 
C 13.90625 65.296875 5.90625 59.828125 5.90625 52.015625 
C 5.90625 48.59375 8.5 48 9.796875 48 
C 11.90625 48 13.703125 49.296875 13.703125 51.890625 
C 13.703125 54.46875 11.90625 55.765625 9.796875 55.765625 
C 9.40625 55.765625 8.90625 55.765625 8.5 55.578125 
C 11.40625 61.859375 19.296875 63 22.796875 63 
C 26.296875 63 32.90625 61.328125 32.90625 51.875 
C 32.90625 49.109375 32.5 44.1875 29.09375 39.84375 
C 26.09375 36 22.703125 36 19.40625 35.6875 
C 18.90625 35.6875 16.59375 35.453125 16.203125 35.453125 
C 15.5 35.359375 15.09375 35.265625 15.09375 34.5 
C 15.09375 33.796875 15.203125 33.703125 17.203125 33.703125 
z
" id="CMR17-51"/>
       </defs>
       <use transform="scale(0.996264)" xlink:href="#CMR17-51"/>
       <use transform="translate(45.690477 0)scale(0.996264)" xlink:href="#CMR17-48"/>
       <use transform="translate(91.380954 0)scale(0.996264)" xlink:href="#CMR17-48"/>
       <use transform="translate(137.071431 0)scale(0.996264)" xlink:href="#CMR17-48"/>
       <use transform="translate(182.761908 0)scale(0.996264)" xlink:href="#CMR17-48"/>
       <use transform="translate(228.452386 0)scale(0.996264)" xlink:href="#CMR17-48"/>
      </g>
     </g>
    </g>
    <g id="xtick_8">
     <g id="line2d_8">
      <g>
       <use style="stroke:#000000;stroke-width:0.8;" x="357.905455" xlink:href="#m9759f3e142" y="307.584"/>
      </g>
     </g>
     <g id="text_8">
      <!-- $\mathdefault{350000}$ -->
      <g transform="translate(342.961449 321.502498)scale(0.1 -0.1)">
       <use transform="scale(0.996264)" xlink:href="#CMR17-51"/>
       <use transform="translate(45.690477 0)scale(0.996264)" xlink:href="#CMR17-53"/>
       <use transform="translate(91.380954 0)scale(0.996264)" xlink:href="#CMR17-48"/>
       <use transform="translate(137.071431 0)scale(0.996264)" xlink:href="#CMR17-48"/>
       <use transform="translate(182.761908 0)scale(0.996264)" xlink:href="#CMR17-48"/>
       <use transform="translate(228.452386 0)scale(0.996264)" xlink:href="#CMR17-48"/>
      </g>
     </g>
    </g>
    <g id="xtick_9">
     <g id="line2d_9">
      <g>
       <use style="stroke:#000000;stroke-width:0.8;" x="398.487273" xlink:href="#m9759f3e142" y="307.584"/>
      </g>
     </g>
     <g id="text_9">
      <!-- $\mathdefault{400000}$ -->
      <g transform="translate(383.543267 321.502498)scale(0.1 -0.1)">
       <defs>
        <path d="M 33.59375 64.40625 
C 33.59375 66.5 33.5 66.5 31.703125 66.5 
L 2 19.59375 
L 2 17 
L 27.796875 17 
L 27.796875 7.140625 
C 27.796875 3.5 27.59375 2.5 20.59375 2.5 
L 18.703125 2.5 
L 18.703125 0 
C 21.90625 0 27.296875 0 30.703125 0 
C 34.09375 0 39.5 0 42.703125 0 
L 42.703125 2.5 
L 40.796875 2.5 
C 33.796875 2.5 33.59375 3.5 33.59375 7.140625 
L 33.59375 17 
L 43.796875 17 
L 43.796875 19.59375 
L 33.59375 19.59375 
z
M 28.09375 57.859375 
L 28.09375 19.59375 
L 4 19.59375 
z
" id="CMR17-52"/>
       </defs>
       <use transform="scale(0.996264)" xlink:href="#CMR17-52"/>
       <use transform="translate(45.690477 0)scale(0.996264)" xlink:href="#CMR17-48"/>
       <use transform="translate(91.380954 0)scale(0.996264)" xlink:href="#CMR17-48"/>
       <use transform="translate(137.071431 0)scale(0.996264)" xlink:href="#CMR17-48"/>
       <use transform="translate(182.761908 0)scale(0.996264)" xlink:href="#CMR17-48"/>
       <use transform="translate(228.452386 0)scale(0.996264)" xlink:href="#CMR17-48"/>
      </g>
     </g>
    </g>
   </g>
   <g id="matplotlib.axis_2">
    <g id="ytick_1">
     <g id="line2d_10">
      <defs>
       <path d="M 0 0 
L -3.5 0 
" id="m049d0604ef" style="stroke:#000000;stroke-width:0.8;"/>
      </defs>
      <g>
       <use style="stroke:#000000;stroke-width:0.8;" x="57.6" xlink:href="#m049d0604ef" y="293.384371"/>
      </g>
     </g>
     <g id="text_10">
      <!-- $\mathdefault{0.005}$ -->
      <g transform="translate(27.907251 296.843621)scale(0.1 -0.1)">
       <defs>
        <path d="M 18.40625 4.796875 
C 18.40625 7.6875 16 9.671875 13.59375 9.671875 
C 10.703125 9.671875 8.703125 7.28125 8.703125 4.890625 
C 8.703125 2 11.09375 0 13.5 0 
C 16.40625 0 18.40625 2.390625 18.40625 4.796875 
z
" id="CMMI12-58"/>
       </defs>
       <use transform="scale(0.996264)" xlink:href="#CMR17-48"/>
       <use transform="translate(45.690477 0)scale(0.996264)" xlink:href="#CMMI12-58"/>
       <use transform="translate(72.787654 0)scale(0.996264)" xlink:href="#CMR17-48"/>
       <use transform="translate(118.478131 0)scale(0.996264)" xlink:href="#CMR17-48"/>
       <use transform="translate(164.168608 0)scale(0.996264)" xlink:href="#CMR17-53"/>
      </g>
     </g>
    </g>
    <g id="ytick_2">
     <g id="line2d_11">
      <g>
       <use style="stroke:#000000;stroke-width:0.8;" x="57.6" xlink:href="#m049d0604ef" y="261.503636"/>
      </g>
     </g>
     <g id="text_11">
      <!-- $\mathdefault{0.010}$ -->
      <g transform="translate(27.907251 264.962885)scale(0.1 -0.1)">
       <use transform="scale(0.996264)" xlink:href="#CMR17-48"/>
       <use transform="translate(45.690477 0)scale(0.996264)" xlink:href="#CMMI12-58"/>
       <use transform="translate(72.787654 0)scale(0.996264)" xlink:href="#CMR17-48"/>
       <use transform="translate(118.478131 0)scale(0.996264)" xlink:href="#CMR17-49"/>
       <use transform="translate(164.168608 0)scale(0.996264)" xlink:href="#CMR17-48"/>
      </g>
     </g>
    </g>
    <g id="ytick_3">
     <g id="line2d_12">
      <g>
       <use style="stroke:#000000;stroke-width:0.8;" x="57.6" xlink:href="#m049d0604ef" y="229.622901"/>
      </g>
     </g>
     <g id="text_12">
      <!-- $\mathdefault{0.015}$ -->
      <g transform="translate(27.907251 233.08215)scale(0.1 -0.1)">
       <use transform="scale(0.996264)" xlink:href="#CMR17-48"/>
       <use transform="translate(45.690477 0)scale(0.996264)" xlink:href="#CMMI12-58"/>
       <use transform="translate(72.787654 0)scale(0.996264)" xlink:href="#CMR17-48"/>
       <use transform="translate(118.478131 0)scale(0.996264)" xlink:href="#CMR17-49"/>
       <use transform="translate(164.168608 0)scale(0.996264)" xlink:href="#CMR17-53"/>
      </g>
     </g>
    </g>
    <g id="ytick_4">
     <g id="line2d_13">
      <g>
       <use style="stroke:#000000;stroke-width:0.8;" x="57.6" xlink:href="#m049d0604ef" y="197.742165"/>
      </g>
     </g>
     <g id="text_13">
      <!-- $\mathdefault{0.020}$ -->
      <g transform="translate(27.907251 201.201415)scale(0.1 -0.1)">
       <use transform="scale(0.996264)" xlink:href="#CMR17-48"/>
       <use transform="translate(45.690477 0)scale(0.996264)" xlink:href="#CMMI12-58"/>
       <use transform="translate(72.787654 0)scale(0.996264)" xlink:href="#CMR17-48"/>
       <use transform="translate(118.478131 0)scale(0.996264)" xlink:href="#CMR17-50"/>
       <use transform="translate(164.168608 0)scale(0.996264)" xlink:href="#CMR17-48"/>
      </g>
     </g>
    </g>
    <g id="ytick_5">
     <g id="line2d_14">
      <g>
       <use style="stroke:#000000;stroke-width:0.8;" x="57.6" xlink:href="#m049d0604ef" y="165.86143"/>
      </g>
     </g>
     <g id="text_14">
      <!-- $\mathdefault{0.025}$ -->
      <g transform="translate(27.907251 169.320679)scale(0.1 -0.1)">
       <use transform="scale(0.996264)" xlink:href="#CMR17-48"/>
       <use transform="translate(45.690477 0)scale(0.996264)" xlink:href="#CMMI12-58"/>
       <use transform="translate(72.787654 0)scale(0.996264)" xlink:href="#CMR17-48"/>
       <use transform="translate(118.478131 0)scale(0.996264)" xlink:href="#CMR17-50"/>
       <use transform="translate(164.168608 0)scale(0.996264)" xlink:href="#CMR17-53"/>
      </g>
     </g>
    </g>
    <g id="ytick_6">
     <g id="line2d_15">
      <g>
       <use style="stroke:#000000;stroke-width:0.8;" x="57.6" xlink:href="#m049d0604ef" y="133.980695"/>
      </g>
     </g>
     <g id="text_15">
      <!-- $\mathdefault{0.030}$ -->
      <g transform="translate(27.907251 137.439944)scale(0.1 -0.1)">
       <use transform="scale(0.996264)" xlink:href="#CMR17-48"/>
       <use transform="translate(45.690477 0)scale(0.996264)" xlink:href="#CMMI12-58"/>
       <use transform="translate(72.787654 0)scale(0.996264)" xlink:href="#CMR17-48"/>
       <use transform="translate(118.478131 0)scale(0.996264)" xlink:href="#CMR17-51"/>
       <use transform="translate(164.168608 0)scale(0.996264)" xlink:href="#CMR17-48"/>
      </g>
     </g>
    </g>
    <g id="ytick_7">
     <g id="line2d_16">
      <g>
       <use style="stroke:#000000;stroke-width:0.8;" x="57.6" xlink:href="#m049d0604ef" y="102.099959"/>
      </g>
     </g>
     <g id="text_16">
      <!-- $\mathdefault{0.035}$ -->
      <g transform="translate(27.907251 105.559209)scale(0.1 -0.1)">
       <use transform="scale(0.996264)" xlink:href="#CMR17-48"/>
       <use transform="translate(45.690477 0)scale(0.996264)" xlink:href="#CMMI12-58"/>
       <use transform="translate(72.787654 0)scale(0.996264)" xlink:href="#CMR17-48"/>
       <use transform="translate(118.478131 0)scale(0.996264)" xlink:href="#CMR17-51"/>
       <use transform="translate(164.168608 0)scale(0.996264)" xlink:href="#CMR17-53"/>
      </g>
     </g>
    </g>
    <g id="ytick_8">
     <g id="line2d_17">
      <g>
       <use style="stroke:#000000;stroke-width:0.8;" x="57.6" xlink:href="#m049d0604ef" y="70.219224"/>
      </g>
     </g>
     <g id="text_17">
      <!-- $\mathdefault{0.040}$ -->
      <g transform="translate(27.907251 73.678473)scale(0.1 -0.1)">
       <use transform="scale(0.996264)" xlink:href="#CMR17-48"/>
       <use transform="translate(45.690477 0)scale(0.996264)" xlink:href="#CMMI12-58"/>
       <use transform="translate(72.787654 0)scale(0.996264)" xlink:href="#CMR17-48"/>
       <use transform="translate(118.478131 0)scale(0.996264)" xlink:href="#CMR17-52"/>
       <use transform="translate(164.168608 0)scale(0.996264)" xlink:href="#CMR17-48"/>
      </g>
     </g>
    </g>
   </g>
   <g id="line2d_18">
    <path clip-path="url(#pcb5f2ffe2a)" d="M 73.832727 70.219224 
L 74.085146 70.307618 
L 74.097321 75.621552 
L 74.119235 133.622943 
L 74.169556 61.118417 
L 74.224748 98.919818 
L 74.264518 63.22072 
L 74.353798 75.089178 
L 74.390321 80.060145 
L 74.427657 72.634975 
L 74.454441 59.400704 
L 74.503951 75.026912 
L 74.539663 71.849095 
L 74.621638 74.918181 
L 74.641117 76.242942 
L 74.695497 70.53338 
L 74.708483 70.167732 
L 74.764486 72.879063 
L 74.871622 74.310954 
L 74.822112 72.678612 
L 74.887855 73.887305 
L 74.937364 71.309272 
L 75.010412 73.112334 
L 75.061545 73.258311 
L 75.114301 72.724093 
L 75.115113 72.894224 
L 75.179232 72.308088 
L 75.223872 73.382513 
L 75.224684 73.066057 
L 75.228742 73.405231 
L 75.318833 72.145649 
L 75.334255 72.686809 
L 75.335066 72.304744 
L 75.443014 73.413416 
L 75.443825 73.100344 
L 75.459247 73.620018 
L 75.534729 72.698769 
L 75.553396 72.933922 
L 75.554208 72.760482 
L 75.593978 73.181053 
L 75.662967 73.12256 
L 75.697056 73.758279 
L 75.767668 73.011088 
L 75.771727 73.091286 
L 75.772538 73.012407 
L 75.844774 73.318238 
L 75.881297 73.174809 
L 75.940547 74.036872 
L 75.994115 73.45835 
L 76.003043 73.310159 
L 76.102874 73.673742 
L 76.103686 73.557241 
L 76.185661 74.354672 
L 76.218127 74.05905 
L 76.248157 73.805508 
L 76.328509 74.129695 
L 76.329321 74.069824 
L 76.429152 74.803744 
L 76.429964 74.766084 
L 76.434022 74.812493 
L 76.491648 74.492746 
L 76.537911 74.647528 
L 76.538723 74.630397 
L 76.628815 75.068999 
L 76.629626 75.067998 
L 76.645859 75.222752 
L 76.687252 75.536575 
L 76.772474 75.49849 
L 76.773286 75.494274 
L 76.824419 75.81011 
L 76.825231 75.803316 
L 76.977007 76.694159 
L 76.977818 76.674171 
L 77.066287 77.207268 
L 77.067098 77.19086 
L 77.212381 78.503185 
L 77.213193 78.479443 
L 77.300038 79.155566 
L 77.300849 79.138052 
L 77.454249 81.147819 
L 77.45506 81.127383 
L 77.530543 81.973702 
L 77.531354 81.958502 
L 77.705856 85.138852 
L 77.706668 85.124788 
L 77.762671 86.058267 
L 77.763482 86.046962 
L 77.970449 91.029301 
L 77.971261 91.022623 
L 77.999668 91.691681 
L 78.00048 91.686101 
L 78.248029 99.083783 
L 78.255334 99.277734 
L 78.540218 109.33779 
L 78.597844 111.59544 
L 78.894092 123.489054 
L 78.997169 127.702499 
L 79.382697 144.237406 
L 79.537719 150.868963 
L 79.932986 168.314975 
L 80.144823 177.568089 
L 80.567686 195.767408 
L 80.865556 208.258613 
L 81.285172 224.87525 
L 81.563564 235.196949 
L 81.965324 248.90075 
L 82.255078 257.687162 
L 82.634112 267.803247 
L 82.858935 272.969558 
L 83.164111 279.057811 
L 83.453865 283.82138 
L 83.537463 284.996531 
L 83.793129 288.197025 
L 83.826406 288.554197 
L 84.047983 290.712692 
L 84.06178 290.822429 
L 84.265501 292.382347 
L 84.266313 292.380874 
L 84.293097 292.557513 
L 84.293908 292.555829 
L 84.47815 293.617748 
L 84.478961 293.615011 
L 84.525225 293.837985 
L 84.526036 293.834879 
L 84.689175 294.503053 
L 84.689987 294.499 
L 84.838516 294.92864 
L 84.839328 294.924202 
L 84.916433 295.118237 
L 84.917245 295.113169 
L 85.047919 295.316457 
L 85.04873 295.310827 
L 85.143692 295.429708 
L 85.144503 295.423932 
L 85.262191 295.480254 
L 85.273553 295.482117 
L 85.373385 295.481187 
L 85.392052 295.487458 
L 85.478897 295.434772 
L 85.479709 295.44065 
L 85.603889 295.33362 
L 85.604701 295.339369 
L 85.699663 295.230581 
L 85.700474 295.235737 
L 85.834394 295.029403 
L 85.835206 295.034443 
L 85.923674 294.890791 
L 85.924486 294.895501 
L 86.064899 294.611024 
L 86.065711 294.615514 
L 86.147686 294.44979 
L 86.148497 294.454265 
L 86.295404 294.113792 
L 86.296215 294.117924 
L 86.373321 293.937277 
L 86.374132 293.941504 
L 86.524285 293.572058 
L 86.525097 293.575961 
L 86.598956 293.38928 
L 86.599767 293.393198 
L 86.74992 293.017072 
L 86.750732 293.020773 
L 86.822967 292.835736 
L 86.823779 292.839394 
L 86.973932 292.467946 
L 86.974743 292.471439 
L 87.045356 292.293354 
L 87.046167 292.296892 
L 87.19632 291.94026 
L 87.197132 291.943647 
L 87.267744 291.769675 
L 87.268556 291.773143 
L 87.417085 291.44095 
L 87.417897 291.444377 
L 87.490132 291.276414 
L 87.490944 291.279766 
L 87.63785 290.971853 
L 87.638662 290.975305 
L 87.714144 290.81852 
L 87.714956 290.821778 
L 87.861862 290.535802 
L 87.862673 290.539179 
L 87.941402 290.39582 
L 87.942214 290.39907 
L 88.087497 290.141607 
L 88.088308 290.144898 
L 88.16866 290.015377 
L 88.169472 290.018665 
L 88.313132 289.791759 
L 88.313943 289.795011 
L 88.397542 289.674883 
L 88.398353 289.678173 
L 88.538767 289.483766 
L 88.539578 289.486989 
L 88.626423 289.376929 
L 88.627235 289.380162 
L 88.766025 289.213891 
L 88.766836 289.217046 
L 88.855305 289.119654 
L 88.856116 289.122803 
L 88.99166 288.983771 
L 88.992471 288.986824 
L 89.082563 288.900678 
L 89.083375 288.903755 
L 89.215671 288.788911 
L 89.216483 288.791886 
L 89.309821 288.71331 
L 89.310633 288.71633 
L 89.441306 288.620719 
L 89.442118 288.62366 
L 89.537079 288.553342 
L 89.537891 288.556287 
L 89.666941 288.476101 
L 89.667753 288.479004 
L 89.764337 288.417567 
L 89.765149 288.420402 
L 89.892576 288.352136 
L 89.893388 288.354958 
L 89.993219 288.301942 
L 89.994031 288.304659 
L 90.121457 288.245109 
L 90.122269 288.247823 
L 90.223724 288.202892 
L 90.224535 288.205511 
L 90.350339 288.15365 
L 90.351151 288.156263 
L 90.454228 288.117593 
L 90.45504 288.120136 
L 90.580844 288.074048 
L 90.687168 288.045065 
L 90.812972 288.004015 
L 90.920919 287.978576 
L 91.046723 287.941984 
L 91.156294 287.919409 
L 91.282097 287.88676 
L 91.391668 287.866805 
L 91.517472 287.837653 
L 91.628666 287.819447 
L 91.75447 287.793417 
L 91.867287 287.776615 
L 91.993091 287.753391 
L 92.105908 287.738079 
L 92.231712 287.717448 
L 92.346153 287.703302 
L 92.471956 287.68508 
L 92.58802 287.672219 
L 92.715447 287.656083 
L 92.833135 287.644709 
L 92.960561 287.630777 
L 93.079872 287.621011 
L 93.207299 287.609218 
L 93.328233 287.60115 
L 93.457283 287.591325 
L 93.57984 287.58504 
L 93.70889 287.577223 
L 93.834694 287.572678 
L 93.965367 287.566695 
L 94.092794 287.563986 
L 94.225091 287.559724 
L 94.355764 287.558784 
L 94.488061 287.556106 
L 94.621981 287.556842 
L 94.755901 287.55555 
L 94.893068 287.557814 
L 95.030234 287.557793 
L 95.170647 287.561369 
L 95.309437 287.562608 
L 95.453097 287.567177 
L 95.59351 287.569657 
L 95.740416 287.574782 
L 95.884076 287.578303 
L 96.034228 287.583647 
L 96.181135 287.587796 
L 96.336157 287.593651 
L 96.487933 287.598041 
L 96.488745 287.598877 
L 96.643767 287.603443 
L 96.805283 287.609334 
L 96.965175 287.613944 
L 97.133184 287.62008 
L 97.299569 287.624255 
L 97.474071 287.630077 
L 97.64695 287.634272 
L 97.827945 287.639363 
L 98.010563 287.643145 
L 98.201297 287.647933 
L 98.392032 287.651207 
L 98.592506 287.655209 
L 98.796227 287.657924 
L 99.008064 287.661383 
L 99.224771 287.663546 
L 99.451217 287.666377 
L 99.682534 287.667994 
L 99.925213 287.67017 
L 100.176009 287.671263 
L 100.438167 287.672865 
L 100.711689 287.673502 
L 100.99982 287.674615 
L 101.30256 287.674935 
L 101.621533 287.675698 
L 101.959985 287.675746 
L 102.31954 287.676172 
L 102.705068 287.676026 
L 103.119814 287.676207 
L 103.568649 287.675885 
L 104.056442 287.675861 
L 104.594557 287.675429 
L 105.19111 287.675239 
L 105.863956 287.674729 
L 106.634199 287.67445 
L 107.532681 287.673999 
L 108.611345 287.673812 
L 109.95298 287.673607 
L 111.719101 287.673586 
L 114.252218 287.673647 
L 118.506004 287.67366 
L 128.677431 287.673664 
L 210.557743 287.673656 
L 277.473103 287.563366 
L 278.421094 287.411866 
L 282.092125 287.505231 
L 283.268186 286.878265 
L 283.699977 287.072904 
L 284.287601 287.298189 
L 284.636605 287.172174 
L 285.546449 286.720034 
L 285.866234 286.927723 
L 286.576416 287.448286 
L 286.802051 287.293973 
L 287.09424 286.772171 
L 287.961879 285.063321 
L 288.1656 285.110662 
L 288.414772 285.450118 
L 289.126577 286.522072 
L 289.300268 286.395021 
L 289.538889 285.878833 
L 290.388672 283.789526 
L 290.544506 283.912604 
L 290.768518 284.447871 
L 291.492497 286.431939 
L 291.50873 286.424779 
L 291.63778 286.223947 
L 291.838255 285.402647 
L 292.207549 282.730478 
L 292.722127 279.470834 
L 292.925847 279.175592 
L 292.930717 279.177353 
L 293.049216 279.345668 
L 293.246444 280.114372 
L 294.004512 283.950167 
L 294.076748 283.869601 
L 294.216349 283.324447 
L 294.459028 281.290109 
L 295.233329 274.282188 
L 295.325044 274.211063 
L 295.368061 274.258156 
L 295.494676 274.690501 
L 295.717876 276.407797 
L 296.400463 282.448418 
L 296.432928 282.420405 
L 296.526266 282.048386 
L 296.69671 280.253605 
L 297.019741 273.961932 
L 297.588698 263.711619 
L 297.811087 262.671859 
L 297.883322 262.789058 
L 298.017242 263.580017 
L 298.253428 266.565639 
L 298.906796 275.677094 
L 298.927898 275.657908 
L 299.00338 275.29956 
L 299.152721 273.258446 
L 299.440041 265.577123 
L 300.021984 250.769602 
L 300.230575 249.462101 
L 300.237068 249.463744 
L 300.301187 249.616422 
L 300.431049 250.668443 
L 300.657495 254.668949 
L 301.332777 269.329455 
L 301.395273 269.070413 
L 301.513772 267.145638 
L 301.737783 259.083563 
L 302.533187 228.019556 
L 302.738531 226.430929 
L 302.746647 226.434134 
L 302.806708 226.614554 
L 302.932512 227.889018 
L 303.145161 232.73432 
L 303.832617 254.061225 
L 303.930825 253.134944 
L 304.083412 248.106106 
L 304.441344 226.682852 
L 304.877193 206.30602 
L 305.132858 202.362218 
L 305.174252 202.291915 
L 305.226196 202.435229 
L 305.335767 203.610711 
L 305.523255 208.475076 
L 305.834924 223.510449 
L 306.238307 240.039652 
L 306.258598 240.090404 
L 306.303238 239.800505 
L 306.404692 237.056998 
L 306.610036 224.084633 
L 307.338886 174.67714 
L 307.610784 169.063434 
L 307.649743 168.970708 
L 307.701687 169.16502 
L 307.808823 170.779844 
L 307.993876 177.58364 
L 308.316096 199.387797 
L 308.686202 219.460656 
L 308.708116 219.547111 
L 308.755191 219.136492 
L 308.859081 215.372913 
L 309.082281 197.248218 
L 309.657731 151.518667 
L 309.958848 142.510653 
L 310.023779 142.184036 
L 310.077347 142.432289 
L 310.185295 144.457621 
L 310.371159 152.942726 
L 310.691756 179.908709 
L 311.058615 204.623228 
L 311.078095 204.710783 
L 311.123546 204.232286 
L 311.226624 199.671503 
L 311.457129 177.062718 
L 311.996055 127.352631 
L 312.316652 114.787622 
L 312.396192 114.191709 
L 312.448948 114.46849 
L 312.555273 116.770607 
L 312.738703 126.482052 
L 313.049559 157.148434 
L 313.429405 187.997751 
L 313.448884 188.096193 
L 313.494336 187.528061 
L 313.599037 182.139736 
L 313.853079 154.279611 
L 314.317335 110.927294 
L 314.634685 98.179168 
L 314.711791 97.59988 
L 314.764547 97.89653 
L 314.870871 100.34863 
L 315.052678 110.689096 
L 315.352983 143.01678 
L 315.740945 178.191431 
L 315.756367 178.264138 
L 315.798572 177.723867 
L 315.899215 172.26314 
L 316.149199 143.08091 
L 316.613455 97.099753 
L 316.941356 82.550591 
L 317.029824 81.747413 
L 317.080957 82.037082 
L 317.184847 84.497923 
L 317.361783 94.989329 
L 317.649103 127.858578 
L 318.049239 167.53231 
L 318.062225 167.58703 
L 318.101996 167.066914 
L 318.200204 161.58971 
L 318.456681 131.008831 
L 318.892529 88.861659 
L 319.214749 75.174162 
L 319.297536 74.471327 
L 319.349481 74.770535 
L 319.45337 77.277259 
L 319.628684 87.922712 
L 319.910321 121.262419 
L 320.310458 162.576221 
L 320.321009 162.610612 
L 320.356721 162.155323 
L 320.45006 157.026567 
L 320.691927 127.848525 
L 321.140762 82.565047 
L 321.47678 67.275709 
L 321.570929 66.349915 
L 321.621251 66.637398 
L 321.723517 69.123862 
L 321.895584 79.787374 
L 322.170729 113.398531 
L 322.570865 156.192526 
L 322.578982 156.216003 
L 322.612259 155.818719 
L 322.702351 150.99059 
L 322.937725 122.851398 
L 323.376009 79.215924 
L 323.707156 64.740767 
L 323.79806 63.888354 
L 323.849193 64.180408 
L 323.951459 66.66873 
L 324.122714 77.32022 
L 324.393801 110.75487 
L 324.794749 154.335994 
L 324.801242 154.351718 
L 324.832084 154.003433 
L 324.918118 149.537659 
L 325.139695 123.164632 
L 325.595834 76.201944 
L 325.937533 60.484106 
L 326.037364 59.44415 
L 326.086063 59.715661 
L 326.185894 62.115879 
L 326.353903 72.5736 
L 326.620119 105.79909 
L 327.022691 150.397348 
L 327.028372 150.408263 
L 327.05678 150.101267 
L 327.140378 145.893038 
L 327.355462 120.670969 
L 327.80592 74.821795 
L 328.140314 60.06929 
L 328.236899 59.118526 
L 328.286409 59.397338 
L 328.387052 61.820818 
L 328.55506 72.278675 
L 328.819654 105.352378 
L 329.223037 150.215696 
L 329.227907 150.221948 
L 329.253068 149.96876 
L 329.331796 146.235436 
L 329.530647 123.420097 
L 330.011136 73.016665 
L 330.352835 57.389881 
L 330.454289 56.322963 
L 330.502988 56.598255 
L 330.602819 59.026832 
L 330.770016 69.600292 
L 331.034609 103.273248 
L 331.429876 147.534352 
L 331.434746 147.54341 
L 331.462342 147.253671 
L 331.544317 143.163283 
L 331.756154 118.34606 
L 332.205801 72.532967 
L 332.540195 57.883141 
L 332.63678 56.931475 
L 332.686289 57.209157 
L 332.786121 59.611666 
L 332.953318 70.064636 
L 333.215476 103.148935 
L 333.616425 148.194327 
L 333.620483 148.199816 
L 333.644832 147.967847 
L 333.721937 144.380576 
L 333.91673 122.173336 
L 334.399654 71.433245 
L 334.741353 55.929857 
L 334.841996 54.881548 
L 334.890694 55.157901 
L 334.990525 57.598536 
L 335.156911 68.189728 
L 335.419881 101.925369 
L 335.812713 146.139595 
L 335.817583 146.146767 
L 335.842743 145.893412 
L 335.921472 142.122387 
L 336.123569 118.840853 
L 336.583767 71.491477 
L 336.918161 56.869161 
L 337.015558 55.907309 
L 337.065068 56.18766 
L 337.165711 58.632751 
L 337.332908 69.195846 
L 337.595878 102.723988 
L 337.991145 147.208855 
L 337.995203 147.215041 
L 338.020364 146.970049 
L 338.098281 143.270863 
L 338.297132 120.357045 
L 338.771127 70.747496 
L 339.112826 55.259974 
L 339.214281 54.20167 
L 339.262167 54.472193 
L 339.361187 56.873072 
L 339.526761 67.364697 
L 339.788108 100.881681 
L 340.182563 145.461666 
L 340.186621 145.467127 
L 340.21097 145.232786 
L 340.288076 141.623401 
L 340.485303 119.121453 
L 340.951994 70.914302 
L 341.286388 56.362325 
L 341.382973 55.419099 
L 341.432483 55.701036 
L 341.533126 58.152695 
L 341.700323 68.751032 
L 341.963293 102.411328 
L 342.356937 146.730029 
L 342.360995 146.735155 
L 342.384532 146.513719 
L 342.460015 143.050678 
L 342.651561 121.340072 
L 343.137731 70.222979 
L 343.478618 54.896504 
L 343.577638 53.875783 
L 343.626336 54.149104 
L 343.725356 56.55868 
L 343.890929 67.08368 
L 344.152276 100.704776 
L 344.545108 145.130203 
L 344.549167 145.135753 
L 344.573516 144.901355 
L 344.650621 141.286423 
L 344.847849 118.763641 
L 345.313728 70.653912 
L 345.647311 56.13852 
L 345.743895 55.183533 
L 345.793405 55.458315 
L 345.893236 57.864051 
L 346.059622 68.3287 
L 346.320157 101.516637 
L 346.717859 146.496591 
L 346.721917 146.500845 
L 346.744643 146.288925 
L 346.819313 142.907373 
L 347.008425 121.600575 
L 347.498653 69.98617 
L 347.838729 54.734048 
L 347.937748 53.718064 
L 347.986447 53.994059 
L 348.085466 56.410976 
L 348.25104 66.958438 
L 348.512387 100.638442 
L 348.903596 144.966041 
L 348.908465 144.973891 
L 348.934438 144.705524 
L 349.013978 140.812656 
L 349.220134 116.81326 
L 349.672215 70.546778 
L 350.005798 56.027947 
L 350.103194 55.06911 
L 350.151892 55.341513 
L 350.251724 57.742421 
L 350.417297 68.13053 
L 350.677021 101.15197 
L 351.077158 146.384461 
L 351.080404 146.386235 
L 351.099884 146.225217 
L 351.169684 143.329082 
L 351.344998 124.40739 
L 351.867692 69.168903 
L 352.203709 54.520565 
L 352.295424 53.641288 
L 352.345745 53.933965 
L 352.446388 56.452508 
L 352.613585 67.314072 
L 352.878991 101.971275 
L 353.26046 144.884369 
L 353.266141 144.894715 
L 353.293737 144.589279 
L 353.376524 140.345657 
L 353.594854 114.397841 
L 354.031514 70.35696 
L 354.365097 55.933939 
L 354.460058 55.013277 
L 354.509568 55.290122 
L 354.609399 57.701634 
L 354.775785 68.185592 
L 355.037132 101.556508 
L 355.43321 146.326238 
L 355.437268 146.330375 
L 355.459994 146.117543 
L 355.534665 142.73069 
L 355.723776 121.41033 
L 356.213193 69.878773 
L 356.553268 54.623811 
L 356.652288 53.603812 
L 356.700986 53.877472 
L 356.800006 56.289755 
L 356.96558 66.833986 
L 357.226927 100.531722 
L 357.618135 144.849172 
L 357.623005 144.855934 
L 357.648166 144.598004 
L 357.726895 140.792342 
L 357.930615 117.196084 
L 358.385943 70.468757 
L 358.720337 55.932126 
L 358.816922 54.986015 
L 358.866432 55.265963 
L 358.966263 57.684825 
L 359.132649 68.184527 
L 359.393996 101.580863 
L 359.790074 146.299774 
L 359.793321 146.303146 
L 359.815235 146.112022 
L 359.888282 142.903366 
L 360.072524 122.431488 
L 360.572492 69.666231 
L 360.911756 54.564168 
L 361.009152 53.585518 
L 361.05785 53.864586 
L 361.157681 56.320699 
L 361.324067 67.00734 
L 361.587037 101.107892 
L 361.974188 144.829347 
L 361.979057 144.837092 
L 362.00503 144.567893 
L 362.08457 140.670367 
L 362.291537 116.549747 
L 362.741996 70.467586 
L 363.07639 55.922536 
L 363.172975 54.972667 
L 363.222484 55.250365 
L 363.322316 57.664093 
L 363.488701 68.154324 
L 363.750048 101.540786 
L 364.146127 146.28602 
L 364.150185 146.289412 
L 364.172099 146.086979 
L 364.245958 142.786827 
L 364.432634 121.885838 
L 364.926921 69.771037 
L 365.266185 54.589094 
L 365.365204 53.576545 
L 365.413903 53.854472 
L 365.513734 56.307968 
L 365.680119 66.989951 
L 365.943089 101.08631 
L 366.33024 144.819858 
L 366.33511 144.827835 
L 366.361082 144.559838 
L 366.440623 140.665468 
L 366.646778 116.657993 
L 367.098048 70.462721 
L 367.432442 55.916592 
L 367.529027 54.966139 
L 367.578537 55.243484 
L 367.678368 57.656433 
L 367.844753 68.14544 
L 368.1061 101.531502 
L 368.502179 146.279443 
L 368.506237 146.28285 
L 368.528151 146.080495 
L 368.60201 142.780487 
L 368.788687 121.879408 
L 369.282973 69.765257 
L 369.622237 54.584367 
L 369.721257 53.572159 
L 369.769955 53.850282 
L 369.869786 56.304269 
L 370.036172 66.987445 
L 370.299142 101.086179 
L 370.686292 144.815444 
L 370.691162 144.823285 
L 370.717135 144.554555 
L 370.796675 140.658087 
L 371.003642 116.538004 
L 371.4541 70.456043 
L 371.788495 55.912428 
L 371.885079 54.962945 
L 371.934589 55.240867 
L 372.03442 57.655171 
L 372.200806 68.146994 
L 372.462153 101.537299 
L 372.858231 146.276381 
L 372.862289 146.279588 
L 372.884204 146.076154 
L 372.958063 142.772763 
L 373.144739 121.867301 
L 373.639025 69.758048 
L 373.978289 54.580747 
L 374.077309 53.57002 
L 374.126007 53.848991 
L 374.225839 56.304991 
L 374.392224 66.992228 
L 374.655194 101.096553 
L 375.042345 144.813512 
L 375.047215 144.821035 
L 375.073187 144.550625 
L 375.153539 140.587899 
L 375.362129 116.193878 
L 375.810153 70.448476 
L 376.144547 55.909136 
L 376.241132 54.961384 
L 376.290641 55.240338 
L 376.390473 57.657042 
L 376.556858 68.153661 
L 376.818205 101.550482 
L 377.214284 146.275034 
L 377.21753 146.278381 
L 377.239444 146.08705 
L 377.312492 142.877404 
L 377.496733 122.40324 
L 377.996701 69.642494 
L 378.335965 54.545781 
L 378.433361 53.56898 
L 378.48206 53.849122 
L 378.581891 56.307881 
L 378.748276 67.000582 
L 379.011247 101.112072 
L 379.397585 144.809803 
L 379.403267 144.819904 
L 379.430863 144.513119 
L 379.513649 140.264504 
L 379.73198 114.308409 
L 380.167828 70.334884 
L 380.501411 55.890916 
L 380.597184 54.960624 
L 380.646694 55.240833 
L 380.746525 57.66045 
L 380.912911 68.162833 
L 381.174257 101.567281 
L 381.569524 146.27247 
L 381.573583 146.277579 
L 381.59712 146.055291 
L 381.672602 142.582733 
L 381.86496 120.731098 
L 382.347884 69.95812 
L 382.688771 54.607187 
L 382.788602 53.568429 
L 382.8373 53.840625 
L 382.93632 56.249742 
L 383.101894 66.789575 
L 383.363241 100.488457 
L 383.754449 144.812647 
L 383.759319 144.819314 
L 383.78448 144.560829 
L 383.863209 140.75298 
L 384.066929 117.152671 
L 384.522257 70.432262 
L 384.85584 55.919074 
L 384.953236 54.960259 
L 385.001935 55.232604 
L 385.101766 57.634015 
L 385.26734 68.028164 
L 385.527063 101.077093 
L 385.926388 146.274404 
L 385.929635 146.277157 
L 385.950737 146.095682 
L 386.022973 142.971592 
L 386.20478 122.919703 
L 386.710429 69.51861 
L 387.048881 54.524633 
L 387.144655 53.568176 
L 387.194164 53.851123 
L 387.293996 56.316311 
L 387.460381 67.021654 
L 387.724163 101.277917 
L 388.10969 144.809953 
L 388.11456 144.819233 
L 388.142156 144.524561 
L 388.224131 140.371707 
L 388.439215 114.93406 
L 388.879121 70.371135 
L 389.212704 55.901071 
L 389.309289 54.960089 
L 389.358799 55.243081 
L 389.459441 57.699963 
L 389.626639 68.330239 
L 389.889609 102.11524 
L 390.280817 146.27018 
L 390.285687 146.276914 
L 390.310848 146.018781 
L 390.389577 142.206821 
L 390.591674 118.700092 
L 391.057553 70.104074 
L 391.399252 54.634556 
L 391.500707 53.568055 
L 391.549405 53.843091 
L 391.648425 56.258837 
L 391.813999 66.811732 
L 392.075345 100.527506 
L 392.466554 144.813052 
L 392.470612 144.8191 
L 392.495773 144.571512 
L 392.57369 140.854675 
L 392.774164 117.778931 
L 393.234362 70.415583 
L 393.567945 55.913995 
L 393.664529 54.959967 
L 393.714039 55.235176 
L 393.813871 57.643211 
L 393.980256 68.122841 
L 394.240791 101.370587 
L 394.637681 146.272827 
L 394.64174 146.276751 
L 394.664465 146.062659 
L 394.739948 142.613394 
L 394.931494 120.900695 
L 395.416041 69.932516 
L 395.756928 54.599212 
L 395.856759 53.568 
L 395.905457 53.844495 
L 396.004477 56.263642 
L 396.170051 66.82323 
L 396.431398 100.547629 
L 396.822607 144.813377 
L 396.826665 144.81902 
L 396.851014 144.584615 
L 396.928119 140.964499 
L 397.126159 118.311806 
L 397.590415 70.407196 
L 397.923997 55.911509 
L 398.020582 54.959921 
L 398.070092 55.236586 
L 398.169923 57.647995 
L 398.336308 68.134264 
L 398.487273 85.232653 
L 398.487273 85.232653 
" style="fill:none;stroke:#1f77b4;stroke-linecap:square;stroke-width:1.5;"/>
   </g>
   <g id="patch_3">
    <path d="M 57.6 307.584 
L 57.6 41.472 
" style="fill:none;stroke:#000000;stroke-linecap:square;stroke-linejoin:miter;stroke-width:0.8;"/>
   </g>
   <g id="patch_4">
    <path d="M 414.72 307.584 
L 414.72 41.472 
" style="fill:none;stroke:#000000;stroke-linecap:square;stroke-linejoin:miter;stroke-width:0.8;"/>
   </g>
   <g id="patch_5">
    <path d="M 57.6 307.584 
L 414.72 307.584 
" style="fill:none;stroke:#000000;stroke-linecap:square;stroke-linejoin:miter;stroke-width:0.8;"/>
   </g>
   <g id="patch_6">
    <path d="M 57.6 41.472 
L 414.72 41.472 
" style="fill:none;stroke:#000000;stroke-linecap:square;stroke-linejoin:miter;stroke-width:0.8;"/>
   </g>
  </g>
 </g>
 <defs>
  <clipPath id="pcb5f2ffe2a">
   <rect height="266.112" width="357.12" x="57.6" y="41.472"/>
  </clipPath>
 </defs>
</svg>
