<?xml version="1.0" encoding="utf-8" standalone="no"?>
<!DOCTYPE svg PUBLIC "-//W3C//DTD SVG 1.1//EN"
  "http://www.w3.org/Graphics/SVG/1.1/DTD/svg11.dtd">
<!-- Created with matplotlib (https://matplotlib.org/) -->
<svg height="345.6pt" version="1.1" viewBox="0 0 460.8 345.6" width="460.8pt" xmlns="http://www.w3.org/2000/svg" xmlns:xlink="http://www.w3.org/1999/xlink">
 <metadata>
  <rdf:RDF xmlns:cc="http://creativecommons.org/ns#" xmlns:dc="http://purl.org/dc/elements/1.1/" xmlns:rdf="http://www.w3.org/1999/02/22-rdf-syntax-ns#">
   <cc:Work>
    <dc:type rdf:resource="http://purl.org/dc/dcmitype/StillImage"/>
    <dc:date>2020-07-23T21:59:09.063904</dc:date>
    <dc:format>image/svg+xml</dc:format>
    <dc:creator>
     <cc:Agent>
      <dc:title>Matplotlib v3.3.0, https://matplotlib.org/</dc:title>
     </cc:Agent>
    </dc:creator>
   </cc:Work>
  </rdf:RDF>
 </metadata>
 <defs>
  <style type="text/css">*{stroke-linecap:butt;stroke-linejoin:round;}</style>
 </defs>
 <g id="figure_1">
  <g id="patch_1">
   <path d="M 0 345.6 
L 460.8 345.6 
L 460.8 0 
L 0 0 
z
" style="fill:#ffffff;"/>
  </g>
  <g id="axes_1">
   <g id="patch_2">
    <path d="M 57.6 307.584 
L 414.72 307.584 
L 414.72 41.472 
L 57.6 41.472 
z
" style="fill:#ffffff;"/>
   </g>
   <g id="matplotlib.axis_1">
    <g id="xtick_1">
     <g id="line2d_1">
      <defs>
       <path d="M 0 0 
L 0 3.5 
" id="m9c78844c7f" style="stroke:#000000;stroke-width:0.8;"/>
      </defs>
      <g>
       <use style="stroke:#000000;stroke-width:0.8;" x="73.832727" xlink:href="#m9c78844c7f" y="307.584"/>
      </g>
     </g>
     <g id="text_1">
      <!-- $\mathdefault{0}$ -->
      <g transform="translate(71.34206 321.502498)scale(0.1 -0.1)">
       <defs>
        <path d="M 42 31.640625 
C 42 37.75 41.90625 48.125 37.703125 56.109375 
C 34 63.109375 28.09375 65.59375 22.90625 65.59375 
C 18.09375 65.59375 12 63.40625 8.203125 56.203125 
C 4.203125 48.71875 3.796875 39.4375 3.796875 31.640625 
C 3.796875 25.953125 3.90625 17.28125 7 9.671875 
C 11.296875 -0.609375 19 -2 22.90625 -2 
C 27.5 -2 34.5 -0.109375 38.59375 9.375 
C 41.59375 16.28125 42 24.359375 42 31.640625 
z
M 22.90625 -0.40625 
C 16.5 -0.40625 12.703125 5.078125 11.296875 12.6875 
C 10.203125 18.5625 10.203125 27.15625 10.203125 32.75 
C 10.203125 40.4375 10.203125 46.828125 11.5 52.921875 
C 13.40625 61.390625 19 64 22.90625 64 
C 27 64 32.296875 61.296875 34.203125 53.125 
C 35.5 47.4375 35.59375 40.734375 35.59375 32.75 
C 35.59375 26.25 35.59375 18.265625 34.40625 12.375 
C 32.296875 1.484375 26.40625 -0.40625 22.90625 -0.40625 
z
" id="CMR17-48"/>
       </defs>
       <use transform="scale(0.996264)" xlink:href="#CMR17-48"/>
      </g>
     </g>
    </g>
    <g id="xtick_2">
     <g id="line2d_2">
      <g>
       <use style="stroke:#000000;stroke-width:0.8;" x="114.414545" xlink:href="#m9c78844c7f" y="307.584"/>
      </g>
     </g>
     <g id="text_2">
      <!-- $\mathdefault{25000}$ -->
      <g transform="translate(101.961207 321.502498)scale(0.1 -0.1)">
       <defs>
        <path d="M 41.703125 15.453125 
L 39.90625 15.453125 
C 38.90625 8.375 38.09375 7.171875 37.703125 6.5625 
C 37.203125 5.765625 30 5.765625 28.59375 5.765625 
L 9.40625 5.765625 
C 13 9.671875 20 16.75 28.5 24.953125 
C 34.59375 30.734375 41.703125 37.53125 41.703125 47.421875 
C 41.703125 59.21875 32.296875 66 21.796875 66 
C 10.796875 66 4.09375 56.3125 4.09375 47.34375 
C 4.09375 43.4375 7 42.9375 8.203125 42.9375 
C 9.203125 42.9375 12.203125 43.546875 12.203125 47.03125 
C 12.203125 50.109375 9.59375 51 8.203125 51 
C 7.59375 51 7 50.90625 6.59375 50.703125 
C 8.5 59.21875 14.296875 63.40625 20.40625 63.40625 
C 29.09375 63.40625 34.796875 56.515625 34.796875 47.421875 
C 34.796875 38.734375 29.703125 31.25 24 24.75 
L 4.09375 2.28125 
L 4.09375 0 
L 39.296875 0 
z
" id="CMR17-50"/>
        <path d="M 11.40625 57.6875 
C 12.40625 57.28125 16.5 56 20.703125 56 
C 30 56 35.09375 61.109375 38 64.0625 
C 38 64.953125 38 65.5 37.40625 65.5 
C 37.296875 65.5 37.09375 65.5 36.296875 65.046875 
C 32.796875 63.40625 28.703125 62.078125 23.703125 62.078125 
C 20.703125 62.078125 16.203125 62.484375 11.296875 64.671875 
C 10.203125 65.171875 10 65.171875 9.90625 65.171875 
C 9.40625 65.171875 9.296875 65.0625 9.296875 63.078125 
L 9.296875 34.421875 
C 9.296875 32.640625 9.296875 32.140625 10.296875 32.140625 
C 10.796875 32.140625 11 32.34375 11.5 33.03125 
C 14.703125 37.515625 19.09375 39.40625 24.09375 39.40625 
C 27.59375 39.40625 35.09375 37.21875 35.09375 20.140625 
C 35.09375 16.953125 35.09375 11.171875 32.09375 6.578125 
C 29.59375 2.484375 25.703125 0.390625 21.40625 0.390625 
C 14.796875 0.390625 8.09375 5 6.296875 12.71875 
C 6.703125 12.609375 7.5 12.421875 7.90625 12.421875 
C 9.203125 12.421875 11.703125 13.125 11.703125 16.21875 
C 11.703125 18.90625 9.796875 20 7.90625 20 
C 5.59375 20 4.09375 18.59375 4.09375 15.796875 
C 4.09375 7.09375 11 -2 21.59375 -2 
C 31.90625 -2 41.703125 6.875 41.703125 19.75 
C 41.703125 31.71875 33.90625 41 24.203125 41 
C 19.09375 41 14.796875 39.109375 11.40625 35.53125 
z
" id="CMR17-53"/>
       </defs>
       <use transform="scale(0.996264)" xlink:href="#CMR17-50"/>
       <use transform="translate(45.690477 0)scale(0.996264)" xlink:href="#CMR17-53"/>
       <use transform="translate(91.380954 0)scale(0.996264)" xlink:href="#CMR17-48"/>
       <use transform="translate(137.071431 0)scale(0.996264)" xlink:href="#CMR17-48"/>
       <use transform="translate(182.761908 0)scale(0.996264)" xlink:href="#CMR17-48"/>
      </g>
     </g>
    </g>
    <g id="xtick_3">
     <g id="line2d_3">
      <g>
       <use style="stroke:#000000;stroke-width:0.8;" x="154.996364" xlink:href="#m9c78844c7f" y="307.584"/>
      </g>
     </g>
     <g id="text_3">
      <!-- $\mathdefault{50000}$ -->
      <g transform="translate(142.543026 321.502498)scale(0.1 -0.1)">
       <use transform="scale(0.996264)" xlink:href="#CMR17-53"/>
       <use transform="translate(45.690477 0)scale(0.996264)" xlink:href="#CMR17-48"/>
       <use transform="translate(91.380954 0)scale(0.996264)" xlink:href="#CMR17-48"/>
       <use transform="translate(137.071431 0)scale(0.996264)" xlink:href="#CMR17-48"/>
       <use transform="translate(182.761908 0)scale(0.996264)" xlink:href="#CMR17-48"/>
      </g>
     </g>
    </g>
    <g id="xtick_4">
     <g id="line2d_4">
      <g>
       <use style="stroke:#000000;stroke-width:0.8;" x="195.578182" xlink:href="#m9c78844c7f" y="307.584"/>
      </g>
     </g>
     <g id="text_4">
      <!-- $\mathdefault{75000}$ -->
      <g transform="translate(183.124844 321.502498)scale(0.1 -0.1)">
       <defs>
        <path d="M 45.09375 61.578125 
L 45.09375 63.765625 
L 21.59375 63.765625 
C 9.90625 63.765625 9.703125 65.078125 9.296875 67 
L 7.5 67 
L 4.59375 48.34375 
L 6.40625 48.34375 
C 6.703125 50.234375 7.40625 55.3125 8.59375 57.203125 
C 9.203125 58 16.59375 58 18.296875 58 
L 40.296875 58 
L 29.203125 41.578125 
C 21.796875 30.53125 16.703125 15.609375 16.703125 2.578125 
C 16.703125 1.390625 16.703125 -2 20.296875 -2 
C 23.90625 -2 23.90625 1.390625 23.90625 2.671875 
L 23.90625 7.265625 
C 23.90625 23.5625 26.703125 34.3125 31.296875 41.1875 
z
" id="CMR17-55"/>
       </defs>
       <use transform="scale(0.996264)" xlink:href="#CMR17-55"/>
       <use transform="translate(45.690477 0)scale(0.996264)" xlink:href="#CMR17-53"/>
       <use transform="translate(91.380954 0)scale(0.996264)" xlink:href="#CMR17-48"/>
       <use transform="translate(137.071431 0)scale(0.996264)" xlink:href="#CMR17-48"/>
       <use transform="translate(182.761908 0)scale(0.996264)" xlink:href="#CMR17-48"/>
      </g>
     </g>
    </g>
    <g id="xtick_5">
     <g id="line2d_5">
      <g>
       <use style="stroke:#000000;stroke-width:0.8;" x="236.16" xlink:href="#m9c78844c7f" y="307.584"/>
      </g>
     </g>
     <g id="text_5">
      <!-- $\mathdefault{100000}$ -->
      <g transform="translate(221.215994 321.502498)scale(0.1 -0.1)">
       <defs>
        <path d="M 26.59375 63.40625 
C 26.59375 65.5 26.5 65.5 25.09375 65.5 
C 21.203125 61.1875 15.296875 59.796875 9.703125 59.796875 
C 9.40625 59.796875 8.90625 59.796875 8.796875 59.5 
C 8.703125 59.296875 8.703125 59.09375 8.703125 57 
C 11.796875 57 17 57.59375 21 59.984375 
L 21 7.203125 
C 21 3.6875 20.796875 2.5 12.203125 2.5 
L 9.203125 2.5 
L 9.203125 0 
C 14 0 19 0 23.796875 0 
C 28.59375 0 33.59375 0 38.40625 0 
L 38.40625 2.5 
L 35.40625 2.5 
C 26.796875 2.5 26.59375 3.59375 26.59375 7.15625 
z
" id="CMR17-49"/>
       </defs>
       <use transform="scale(0.996264)" xlink:href="#CMR17-49"/>
       <use transform="translate(45.690477 0)scale(0.996264)" xlink:href="#CMR17-48"/>
       <use transform="translate(91.380954 0)scale(0.996264)" xlink:href="#CMR17-48"/>
       <use transform="translate(137.071431 0)scale(0.996264)" xlink:href="#CMR17-48"/>
       <use transform="translate(182.761908 0)scale(0.996264)" xlink:href="#CMR17-48"/>
       <use transform="translate(228.452386 0)scale(0.996264)" xlink:href="#CMR17-48"/>
      </g>
     </g>
    </g>
    <g id="xtick_6">
     <g id="line2d_6">
      <g>
       <use style="stroke:#000000;stroke-width:0.8;" x="276.741818" xlink:href="#m9c78844c7f" y="307.584"/>
      </g>
     </g>
     <g id="text_6">
      <!-- $\mathdefault{125000}$ -->
      <g transform="translate(261.797812 321.502498)scale(0.1 -0.1)">
       <use transform="scale(0.996264)" xlink:href="#CMR17-49"/>
       <use transform="translate(45.690477 0)scale(0.996264)" xlink:href="#CMR17-50"/>
       <use transform="translate(91.380954 0)scale(0.996264)" xlink:href="#CMR17-53"/>
       <use transform="translate(137.071431 0)scale(0.996264)" xlink:href="#CMR17-48"/>
       <use transform="translate(182.761908 0)scale(0.996264)" xlink:href="#CMR17-48"/>
       <use transform="translate(228.452386 0)scale(0.996264)" xlink:href="#CMR17-48"/>
      </g>
     </g>
    </g>
    <g id="xtick_7">
     <g id="line2d_7">
      <g>
       <use style="stroke:#000000;stroke-width:0.8;" x="317.323636" xlink:href="#m9c78844c7f" y="307.584"/>
      </g>
     </g>
     <g id="text_7">
      <!-- $\mathdefault{150000}$ -->
      <g transform="translate(302.379631 321.502498)scale(0.1 -0.1)">
       <use transform="scale(0.996264)" xlink:href="#CMR17-49"/>
       <use transform="translate(45.690477 0)scale(0.996264)" xlink:href="#CMR17-53"/>
       <use transform="translate(91.380954 0)scale(0.996264)" xlink:href="#CMR17-48"/>
       <use transform="translate(137.071431 0)scale(0.996264)" xlink:href="#CMR17-48"/>
       <use transform="translate(182.761908 0)scale(0.996264)" xlink:href="#CMR17-48"/>
       <use transform="translate(228.452386 0)scale(0.996264)" xlink:href="#CMR17-48"/>
      </g>
     </g>
    </g>
    <g id="xtick_8">
     <g id="line2d_8">
      <g>
       <use style="stroke:#000000;stroke-width:0.8;" x="357.905455" xlink:href="#m9c78844c7f" y="307.584"/>
      </g>
     </g>
     <g id="text_8">
      <!-- $\mathdefault{175000}$ -->
      <g transform="translate(342.961449 321.502498)scale(0.1 -0.1)">
       <use transform="scale(0.996264)" xlink:href="#CMR17-49"/>
       <use transform="translate(45.690477 0)scale(0.996264)" xlink:href="#CMR17-55"/>
       <use transform="translate(91.380954 0)scale(0.996264)" xlink:href="#CMR17-53"/>
       <use transform="translate(137.071431 0)scale(0.996264)" xlink:href="#CMR17-48"/>
       <use transform="translate(182.761908 0)scale(0.996264)" xlink:href="#CMR17-48"/>
       <use transform="translate(228.452386 0)scale(0.996264)" xlink:href="#CMR17-48"/>
      </g>
     </g>
    </g>
    <g id="xtick_9">
     <g id="line2d_9">
      <g>
       <use style="stroke:#000000;stroke-width:0.8;" x="398.487273" xlink:href="#m9c78844c7f" y="307.584"/>
      </g>
     </g>
     <g id="text_9">
      <!-- $\mathdefault{200000}$ -->
      <g transform="translate(383.543267 321.502498)scale(0.1 -0.1)">
       <use transform="scale(0.996264)" xlink:href="#CMR17-50"/>
       <use transform="translate(45.690477 0)scale(0.996264)" xlink:href="#CMR17-48"/>
       <use transform="translate(91.380954 0)scale(0.996264)" xlink:href="#CMR17-48"/>
       <use transform="translate(137.071431 0)scale(0.996264)" xlink:href="#CMR17-48"/>
       <use transform="translate(182.761908 0)scale(0.996264)" xlink:href="#CMR17-48"/>
       <use transform="translate(228.452386 0)scale(0.996264)" xlink:href="#CMR17-48"/>
      </g>
     </g>
    </g>
   </g>
   <g id="matplotlib.axis_2">
    <g id="ytick_1">
     <g id="line2d_10">
      <defs>
       <path d="M 0 0 
L -3.5 0 
" id="m1a0d6fa290" style="stroke:#000000;stroke-width:0.8;"/>
      </defs>
      <g>
       <use style="stroke:#000000;stroke-width:0.8;" x="57.6" xlink:href="#m1a0d6fa290" y="296.654592"/>
      </g>
     </g>
     <g id="text_10">
      <!-- $\mathdefault{0.00}$ -->
      <g transform="translate(32.888586 300.113841)scale(0.1 -0.1)">
       <defs>
        <path d="M 18.40625 4.796875 
C 18.40625 7.6875 16 9.671875 13.59375 9.671875 
C 10.703125 9.671875 8.703125 7.28125 8.703125 4.890625 
C 8.703125 2 11.09375 0 13.5 0 
C 16.40625 0 18.40625 2.390625 18.40625 4.796875 
z
" id="CMMI12-58"/>
       </defs>
       <use transform="scale(0.996264)" xlink:href="#CMR17-48"/>
       <use transform="translate(45.690477 0)scale(0.996264)" xlink:href="#CMMI12-58"/>
       <use transform="translate(72.787654 0)scale(0.996264)" xlink:href="#CMR17-48"/>
       <use transform="translate(118.478131 0)scale(0.996264)" xlink:href="#CMR17-48"/>
      </g>
     </g>
    </g>
    <g id="ytick_2">
     <g id="line2d_11">
      <g>
       <use style="stroke:#000000;stroke-width:0.8;" x="57.6" xlink:href="#m1a0d6fa290" y="256.368538"/>
      </g>
     </g>
     <g id="text_11">
      <!-- $\mathdefault{0.02}$ -->
      <g transform="translate(32.888586 259.827787)scale(0.1 -0.1)">
       <use transform="scale(0.996264)" xlink:href="#CMR17-48"/>
       <use transform="translate(45.690477 0)scale(0.996264)" xlink:href="#CMMI12-58"/>
       <use transform="translate(72.787654 0)scale(0.996264)" xlink:href="#CMR17-48"/>
       <use transform="translate(118.478131 0)scale(0.996264)" xlink:href="#CMR17-50"/>
      </g>
     </g>
    </g>
    <g id="ytick_3">
     <g id="line2d_12">
      <g>
       <use style="stroke:#000000;stroke-width:0.8;" x="57.6" xlink:href="#m1a0d6fa290" y="216.082484"/>
      </g>
     </g>
     <g id="text_12">
      <!-- $\mathdefault{0.04}$ -->
      <g transform="translate(32.888586 219.541733)scale(0.1 -0.1)">
       <defs>
        <path d="M 33.59375 64.40625 
C 33.59375 66.5 33.5 66.5 31.703125 66.5 
L 2 19.59375 
L 2 17 
L 27.796875 17 
L 27.796875 7.140625 
C 27.796875 3.5 27.59375 2.5 20.59375 2.5 
L 18.703125 2.5 
L 18.703125 0 
C 21.90625 0 27.296875 0 30.703125 0 
C 34.09375 0 39.5 0 42.703125 0 
L 42.703125 2.5 
L 40.796875 2.5 
C 33.796875 2.5 33.59375 3.5 33.59375 7.140625 
L 33.59375 17 
L 43.796875 17 
L 43.796875 19.59375 
L 33.59375 19.59375 
z
M 28.09375 57.859375 
L 28.09375 19.59375 
L 4 19.59375 
z
" id="CMR17-52"/>
       </defs>
       <use transform="scale(0.996264)" xlink:href="#CMR17-48"/>
       <use transform="translate(45.690477 0)scale(0.996264)" xlink:href="#CMMI12-58"/>
       <use transform="translate(72.787654 0)scale(0.996264)" xlink:href="#CMR17-48"/>
       <use transform="translate(118.478131 0)scale(0.996264)" xlink:href="#CMR17-52"/>
      </g>
     </g>
    </g>
    <g id="ytick_4">
     <g id="line2d_13">
      <g>
       <use style="stroke:#000000;stroke-width:0.8;" x="57.6" xlink:href="#m1a0d6fa290" y="175.796429"/>
      </g>
     </g>
     <g id="text_13">
      <!-- $\mathdefault{0.06}$ -->
      <g transform="translate(32.888586 179.255679)scale(0.1 -0.1)">
       <defs>
        <path d="M 10.59375 34 
C 10.59375 57.65625 21.796875 63 28.296875 63 
C 30.40625 63 35.5 62.640625 37.5 59 
C 35.90625 59 32.90625 59 32.90625 55.515625 
C 32.90625 52.828125 35.09375 51.921875 36.5 51.921875 
C 37.40625 51.921875 40.09375 52.3125 40.09375 55.625 
C 40.09375 61.78125 35.09375 65.296875 28.203125 65.296875 
C 16.296875 65.296875 3.796875 52.96875 3.796875 31 
C 3.796875 3.953125 15.09375 -2 23.09375 -2 
C 32.796875 -2 42 6.671875 42 20.046875 
C 42 32.515625 33.90625 41.59375 23.703125 41.59375 
C 17.59375 41.59375 13.09375 37.609375 10.59375 30.625 
z
M 23.09375 0.390625 
C 10.796875 0.390625 10.796875 18.75 10.796875 22.4375 
C 10.796875 29.625 14.203125 40 23.5 40 
C 25.203125 40 30.09375 40 33.40625 33.125 
C 35.203125 29.21875 35.203125 25.140625 35.203125 20.140625 
C 35.203125 14.75 35.203125 10.78125 33.09375 6.78125 
C 30.90625 2.671875 27.703125 0.390625 23.09375 0.390625 
z
" id="CMR17-54"/>
       </defs>
       <use transform="scale(0.996264)" xlink:href="#CMR17-48"/>
       <use transform="translate(45.690477 0)scale(0.996264)" xlink:href="#CMMI12-58"/>
       <use transform="translate(72.787654 0)scale(0.996264)" xlink:href="#CMR17-48"/>
       <use transform="translate(118.478131 0)scale(0.996264)" xlink:href="#CMR17-54"/>
      </g>
     </g>
    </g>
    <g id="ytick_5">
     <g id="line2d_14">
      <g>
       <use style="stroke:#000000;stroke-width:0.8;" x="57.6" xlink:href="#m1a0d6fa290" y="135.510375"/>
      </g>
     </g>
     <g id="text_14">
      <!-- $\mathdefault{0.08}$ -->
      <g transform="translate(32.888586 138.969624)scale(0.1 -0.1)">
       <defs>
        <path d="M 27.203125 35.375 
C 33.5 38.546875 39.90625 43.328125 39.90625 50.984375 
C 39.90625 60.015625 31.09375 65.296875 23 65.296875 
C 13.90625 65.296875 5.90625 58.734375 5.90625 49.6875 
C 5.90625 47.203125 6.5 42.921875 10.40625 39.140625 
C 11.40625 38.15625 15.59375 35.171875 18.296875 33.28125 
C 13.796875 30.984375 3.296875 25.53125 3.296875 14.59375 
C 3.296875 4.359375 13.09375 -2 22.796875 -2 
C 33.5 -2 42.5 5.65625 42.5 15.78125 
C 42.5 24.84375 36.40625 29.015625 32.40625 31.703125 
z
M 14.09375 44.09375 
C 13.296875 44.59375 9.296875 47.671875 9.296875 52.359375 
C 9.296875 58.421875 15.59375 63 22.796875 63 
C 30.703125 63 36.5 57.4375 36.5 50.96875 
C 36.5 41.703125 26.09375 36.421875 25.59375 36.421875 
C 25.5 36.421875 25.40625 36.421875 24.59375 37.03125 
z
M 32.5 23.734375 
C 34 22.640625 38.796875 19.375 38.796875 13.296875 
C 38.796875 5.953125 31.40625 0.390625 23 0.390625 
C 13.90625 0.390625 7 6.84375 7 14.6875 
C 7 22.546875 13.09375 29.09375 20 32.1875 
z
" id="CMR17-56"/>
       </defs>
       <use transform="scale(0.996264)" xlink:href="#CMR17-48"/>
       <use transform="translate(45.690477 0)scale(0.996264)" xlink:href="#CMMI12-58"/>
       <use transform="translate(72.787654 0)scale(0.996264)" xlink:href="#CMR17-48"/>
       <use transform="translate(118.478131 0)scale(0.996264)" xlink:href="#CMR17-56"/>
      </g>
     </g>
    </g>
    <g id="ytick_6">
     <g id="line2d_15">
      <g>
       <use style="stroke:#000000;stroke-width:0.8;" x="57.6" xlink:href="#m1a0d6fa290" y="95.224321"/>
      </g>
     </g>
     <g id="text_15">
      <!-- $\mathdefault{0.10}$ -->
      <g transform="translate(32.888586 98.68357)scale(0.1 -0.1)">
       <use transform="scale(0.996264)" xlink:href="#CMR17-48"/>
       <use transform="translate(45.690477 0)scale(0.996264)" xlink:href="#CMMI12-58"/>
       <use transform="translate(72.787654 0)scale(0.996264)" xlink:href="#CMR17-49"/>
       <use transform="translate(118.478131 0)scale(0.996264)" xlink:href="#CMR17-48"/>
      </g>
     </g>
    </g>
    <g id="ytick_7">
     <g id="line2d_16">
      <g>
       <use style="stroke:#000000;stroke-width:0.8;" x="57.6" xlink:href="#m1a0d6fa290" y="54.938267"/>
      </g>
     </g>
     <g id="text_16">
      <!-- $\mathdefault{0.12}$ -->
      <g transform="translate(32.888586 58.397516)scale(0.1 -0.1)">
       <use transform="scale(0.996264)" xlink:href="#CMR17-48"/>
       <use transform="translate(45.690477 0)scale(0.996264)" xlink:href="#CMMI12-58"/>
       <use transform="translate(72.787654 0)scale(0.996264)" xlink:href="#CMR17-49"/>
       <use transform="translate(118.478131 0)scale(0.996264)" xlink:href="#CMR17-50"/>
      </g>
     </g>
    </g>
   </g>
   <g id="line2d_17">
    <path clip-path="url(#p488c692f5d)" d="M 73.832727 95.224321 
L 74.292113 95.311814 
L 74.313216 98.104471 
L 74.368407 139.497619 
L 74.421975 97.357862 
L 74.456064 92.293985 
L 74.503139 104.863619 
L 74.559953 119.105684 
L 74.602159 101.329507 
L 74.639494 94.100677 
L 74.719034 97.331738 
L 74.894348 103.032878 
L 74.91058 102.303144 
L 75.025833 88.97217 
L 75.071284 95.676479 
L 75.128099 99.77892 
L 75.18816 97.490117 
L 75.2677 98.600053 
L 75.1979 97.364298 
L 75.305036 98.042098 
L 75.322892 97.833486 
L 75.373213 99.078464 
L 75.374836 99.039821 
L 75.418665 99.6661 
L 75.475479 98.415279 
L 75.477103 98.464191 
L 75.55015 96.577061 
L 75.602095 97.008177 
L 75.697868 99.286696 
L 75.740073 98.852941 
L 75.783901 98.440464 
L 75.847209 98.926159 
L 75.848832 98.925505 
L 75.866688 98.971897 
L 75.929996 98.65199 
L 76.016029 98.133225 
L 76.058234 98.397037 
L 76.166993 99.866662 
L 76.209199 99.653551 
L 76.327697 99.360915 
L 76.376396 99.312623 
L 76.439703 99.45338 
L 76.441327 99.418121 
L 76.520867 100.070439 
L 76.52249 100.052696 
L 76.657222 100.961157 
L 76.658845 100.927286 
L 76.764358 101.034522 
L 76.765981 101.004613 
L 76.897466 101.486706 
L 76.899089 101.466701 
L 76.959151 102.046929 
L 76.960774 102.041801 
L 77.140957 104.266262 
L 77.14258 104.255483 
L 77.183162 104.691149 
L 77.184785 104.686132 
L 77.413667 107.764383 
L 77.447756 108.406295 
L 77.77728 115.934169 
L 77.95097 120.220225 
L 78.39737 133.408072 
L 78.648977 141.726646 
L 80.463796 214.905426 
L 82.14226 295.488 
L 82.203945 293.550361 
L 83.387311 247.71441 
L 84.091811 229.773195 
L 84.640477 221.0754 
L 85.039802 217.566291 
L 85.4651 216.056869 
L 85.7232 216.101509 
L 85.793001 216.237397 
L 86.284852 218.393978 
L 86.664698 221.232557 
L 87.042921 224.585419 
L 88.434065 237.897876 
L 89.424262 244.987936 
L 90.299206 248.985893 
L 90.854365 250.781081 
L 91.341347 252.115109 
L 91.927348 253.570512 
L 93.751907 256.916023 
L 94.630097 257.188553 
L 94.8395 257.091386 
L 96.08942 255.629955 
L 97.172143 253.952661 
L 98.491863 252.53632 
L 99.006441 252.231723 
L 100.759575 251.735977 
L 103.911971 251.582096 
L 107.768867 252.237553 
L 109.273641 252.282593 
L 136.8709 252.195067 
L 156.871244 252.088646 
L 157.421533 252.093487 
L 158.155252 252.125088 
L 159.147072 251.875832 
L 159.453871 252.304699 
L 159.955462 252.963656 
L 160.119412 252.867871 
L 160.323945 252.420866 
L 161.091753 250.158525 
L 161.166423 250.225583 
L 161.327127 250.663303 
L 161.629056 252.294482 
L 161.97806 253.744349 
L 162.055977 253.696897 
L 162.068963 253.670234 
L 162.197201 253.101558 
L 162.41959 250.883214 
L 163.041303 244.335707 
L 163.104611 244.429615 
L 163.21824 245.187551 
L 163.413033 248.284571 
L 163.83346 259.686276 
L 164.042863 262.658399 
L 164.062342 262.628483 
L 164.128896 262.037552 
L 164.270121 258.308 
L 164.586659 242.341377 
L 165.000593 225.546373 
L 165.10286 224.708612 
L 165.149935 224.901426 
L 165.253824 226.649815 
L 165.443747 234.378023 
L 165.752169 257.502634 
L 166.076823 286.069526 
L 166.138508 283.142304 
L 166.365766 253.44078 
L 166.919302 188.330413 
L 167.107601 183.923788 
L 167.115718 183.930863 
L 167.169286 184.244572 
L 167.326743 186.845802 
L 167.542639 194.042849 
L 167.765027 210.566899 
L 168.167599 250.89117 
L 168.242269 247.455345 
L 168.39648 222.93249 
L 168.919174 138.096077 
L 169.312006 123.283801 
L 169.346095 123.117777 
L 169.394793 123.524885 
L 169.495436 127.109215 
L 169.665879 142.725964 
L 170.131759 209.184403 
L 170.234025 201.531836 
L 170.451543 153.472469 
L 170.753472 107.78195 
L 171.214481 78.097955 
L 171.259933 77.701833 
L 171.313501 78.286505 
L 171.415767 83.156606 
L 171.586211 104.235011 
L 172.009885 179.301196 
L 172.094295 172.953847 
L 172.305321 126.213541 
L 172.584524 88.43852 
L 173.017937 62.487832 
L 173.090985 61.561333 
L 173.142929 62.138893 
L 173.240326 66.970768 
L 173.399407 88.291391 
L 173.797108 166.009963 
L 173.881519 159.055492 
L 174.602252 62.317823 
L 174.870092 53.568 
L 174.874961 53.572003 
L 174.90905 53.878483 
L 174.991837 57.137749 
L 175.129815 73.373767 
L 175.417135 142.900897 
L 175.53401 156.618442 
L 175.581085 154.297045 
L 175.702831 131.173084 
L 176.045341 73.471563 
L 176.408954 56.075607 
L 176.550179 53.867808 
L 176.589137 54.102768 
L 176.670301 56.598872 
L 176.796916 69.022202 
L 177.001449 116.780265 
L 177.214097 156.592983 
L 177.246563 155.378311 
L 177.342336 139.920597 
L 177.762764 68.617163 
L 178.108521 55.67336 
L 178.189684 54.956964 
L 178.240006 55.303246 
L 178.329286 58.251559 
L 178.457524 71.483043 
L 178.662057 122.038405 
L 178.853603 158.079432 
L 178.889315 156.588422 
L 178.991581 138.486253 
L 179.390906 67.27358 
L 179.668486 58.843273 
L 179.761012 58.07057 
L 179.809711 58.345844 
L 179.898991 60.745488 
L 180.025606 71.405629 
L 180.202543 109.598756 
L 180.45415 165.004151 
L 180.496355 162.778936 
L 180.613231 138.85998 
L 180.978467 69.606808 
L 181.228451 61.09462 
L 181.338833 60.041293 
L 181.385908 60.288716 
L 181.471942 62.50872 
L 181.595311 72.72887 
L 181.769001 110.2839 
L 182.025478 168.718542 
L 182.069306 166.181161 
L 182.191052 139.734583 
L 182.548172 69.933601 
L 182.77056 63.014146 
L 182.85984 62.398342 
L 182.908538 62.642437 
L 182.997818 64.774509 
L 183.12281 74.31112 
L 183.291631 108.259811 
L 183.572457 174.259079 
L 183.624401 170.627437 
L 183.767249 136.188605 
L 184.093527 72.84413 
L 184.319162 64.773031 
L 184.411689 64.046536 
L 184.460387 64.302996 
L 184.54642 66.504996 
L 184.668166 76.552272 
L 184.840233 113.766456 
L 185.103203 175.452957 
L 185.148655 172.675755 
L 185.273647 144.256349 
L 185.629143 72.805376 
L 185.845039 65.818338 
L 185.908346 65.473125 
L 185.960291 65.757804 
L 186.052817 68.11156 
L 186.179433 78.205733 
L 186.3515 114.053337 
L 186.624209 178.57648 
L 186.674531 175.216384 
L 186.812509 142.237579 
L 187.15015 75.015851 
L 187.374161 66.953086 
L 187.452079 66.384043 
L 187.5024 66.687185 
L 187.59168 69.258854 
L 187.718295 80.864539 
L 187.900102 123.196808 
L 188.140346 178.1299 
L 188.180928 175.883696 
L 188.29618 151.025332 
L 188.677649 73.764122 
L 188.890298 67.330109 
L 188.94062 67.110177 
L 188.992564 67.411382 
L 189.085091 69.863246 
L 189.213329 80.514321 
L 189.388643 118.171172 
L 189.653236 180.126179 
L 189.700311 177.124057 
L 189.830173 147.002489 
L 190.182423 75.927398 
L 190.406435 67.919396 
L 190.477859 67.431799 
L 190.52818 67.751693 
L 190.61746 70.398253 
L 190.744076 82.193024 
L 190.927505 125.241835 
L 191.164503 179.030665 
L 191.205085 176.764393 
L 191.320337 151.896098 
L 191.701807 74.448964 
L 191.914455 67.954381 
L 191.963153 67.739882 
L 192.015098 68.039225 
L 192.107625 70.513061 
L 192.235863 81.254772 
L 192.411177 119.030371 
L 192.674147 180.592174 
L 192.721222 177.671839 
L 192.84946 148.162649 
L 193.20658 76.154618 
L 193.430592 68.236662 
L 193.498769 67.785538 
L 193.549091 68.108748 
L 193.638371 70.778358 
L 193.764986 82.634117 
L 193.948416 125.735515 
L 194.183791 179.280344 
L 194.224372 177.125277 
L 194.338001 152.915785 
L 194.72434 74.526419 
L 194.936989 68.130346 
L 194.984064 67.934484 
L 195.034385 68.223463 
L 195.125289 70.605925 
L 195.253527 81.168017 
L 195.428841 118.59772 
L 195.695057 180.71155 
L 195.742132 177.644251 
L 195.873617 146.994558 
L 196.224244 76.418186 
L 196.448256 68.361616 
L 196.518057 67.882664 
L 196.570001 68.224347 
L 196.660905 71.032608 
L 196.789143 83.433354 
L 196.977443 128.790305 
L 197.204701 179.339391 
L 197.24366 177.199783 
L 197.357289 153.023042 
L 197.745251 74.490745 
L 197.9579 68.169417 
L 198.003351 67.985189 
L 198.053673 68.272235 
L 198.144576 70.651506 
L 198.272815 81.209986 
L 198.448128 118.631118 
L 198.714345 180.737758 
L 198.76142 177.674085 
L 198.892905 147.032787 
L 199.243532 76.449756 
L 199.467543 68.385349 
L 199.537344 67.90512 
L 199.589289 68.246667 
L 199.680192 71.056326 
L 199.808431 83.459965 
L 199.99673 128.814701 
L 200.223988 179.350752 
L 200.262947 177.208865 
L 200.376576 153.030423 
L 200.764538 74.50171 
L 200.977187 68.180788 
L 201.022639 67.99656 
L 201.07296 68.283579 
L 201.163863 70.663207 
L 201.292102 81.224388 
L 201.467415 118.650971 
L 201.733632 180.742232 
L 201.780707 177.673909 
L 201.912192 147.027049 
L 202.262819 76.453287 
L 202.486831 68.389377 
L 202.556631 67.90917 
L 202.608576 68.251162 
L 202.699479 71.062771 
L 202.827718 83.471209 
L 203.016017 128.831154 
L 203.243276 179.352076 
L 203.280611 177.374628 
L 203.390993 154.390469 
L 203.787072 74.301456 
L 203.999721 68.157161 
L 204.041926 67.998691 
L 204.092247 68.286084 
L 204.183151 70.666745 
L 204.311389 81.231317 
L 204.486703 118.664832 
L 204.752919 180.742598 
L 204.799994 177.669034 
L 204.931479 147.015126 
L 205.282106 76.451283 
L 205.506118 68.389412 
L 205.575919 67.909539 
L 205.627863 68.252035 
L 205.718767 71.065375 
L 205.847005 83.478279 
L 206.035305 128.844436 
L 206.26094 179.351859 
L 206.299898 177.370222 
L 206.410281 154.378799 
L 206.806359 74.298963 
L 207.019008 68.157131 
L 207.061213 67.999001 
L 207.111535 68.286838 
L 207.202438 70.66866 
L 207.330676 81.236569 
L 207.50599 118.67672 
L 207.772207 180.742437 
L 207.817658 177.864286 
L 207.945897 148.428485 
L 208.303017 76.333506 
L 208.527028 68.367605 
L 208.595206 67.909431 
L 208.647151 68.252429 
L 208.738054 71.067333 
L 208.866292 83.484354 
L 209.054592 128.85675 
L 209.280227 179.351765 
L 209.319185 177.365983 
L 209.429568 154.367549 
L 209.825647 74.296415 
L 210.038295 68.156838 
L 210.0805 67.999038 
L 210.130822 68.287325 
L 210.221725 70.670343 
L 210.349964 81.241543 
L 210.525277 118.688065 
L 210.789871 180.742399 
L 210.836945 177.859483 
L 210.965184 148.417017 
L 211.322304 76.330734 
L 211.546316 68.367068 
L 211.614493 67.909354 
L 211.666438 68.252858 
L 211.757341 71.069255 
L 211.88558 83.490215 
L 212.073879 128.868816 
L 212.299514 179.351759 
L 212.338473 177.361924 
L 212.448855 154.356607 
L 212.844934 74.293979 
L 213.057583 68.156535 
L 213.099788 67.999052 
L 213.150109 68.287788 
L 213.241012 70.672021 
L 213.369251 81.24651 
L 213.544564 118.699288 
L 213.809158 180.742461 
L 213.856233 177.854769 
L 213.984471 148.405727 
L 214.341591 76.328 
L 214.565603 68.36656 
L 214.63378 67.909329 
L 214.685725 68.253344 
L 214.776628 71.07121 
L 214.904867 83.496036 
L 215.093167 128.880827 
L 215.318801 179.3518 
L 215.35776 177.357941 
L 215.468143 154.345784 
L 215.864221 74.291607 
L 216.07687 68.15624 
L 216.119075 67.999067 
L 216.169396 68.288251 
L 216.2603 70.67371 
L 216.388538 81.251499 
L 216.563852 118.710491 
L 216.828445 180.742534 
L 216.87552 177.85008 
L 217.003759 148.394487 
L 217.360879 76.325284 
L 217.58489 68.366064 
L 217.653068 67.909326 
L 217.705012 68.253858 
L 217.795916 71.073189 
L 217.924154 83.50185 
L 218.112454 128.89283 
L 218.338089 179.351859 
L 218.377047 177.353983 
L 218.48743 154.334998 
L 218.883508 74.289261 
L 219.096157 68.155948 
L 219.138362 67.999081 
L 219.188684 68.28871 
L 219.279587 70.675401 
L 219.407825 81.256503 
L 219.583139 118.721697 
L 219.847732 180.742608 
L 219.894807 177.845393 
L 220.023046 148.383256 
L 220.380166 76.322574 
L 220.604177 68.365569 
L 220.672355 67.909331 
L 220.7243 68.254384 
L 220.815203 71.075179 
L 220.943441 83.507665 
L 221.131741 128.904831 
L 221.357376 179.351921 
L 221.396335 177.35003 
L 221.506717 154.324221 
L 221.902796 74.286925 
L 222.115444 68.155658 
L 222.157649 67.999093 
L 222.207971 68.289167 
L 222.298874 70.677092 
L 222.427113 81.261514 
L 222.602426 118.732906 
L 222.86702 180.742677 
L 222.914095 177.840702 
L 223.042333 148.372023 
L 223.399453 76.319866 
L 223.623465 68.365073 
L 223.691642 67.909338 
L 223.741964 68.232861 
L 223.831244 70.911289 
L 223.959482 83.027774 
L 224.144535 126.899522 
L 224.376663 179.351983 
L 224.417245 177.176049 
L 224.530874 152.94241 
L 224.917213 74.585169 
L 225.129862 68.193943 
L 225.175313 67.998896 
L 225.227258 68.289622 
L 225.318161 70.678783 
L 225.4464 81.266529 
L 225.621713 118.744118 
L 225.886307 180.742743 
L 225.933382 177.836007 
L 226.06162 148.360788 
L 226.41874 76.317159 
L 226.642752 68.364577 
L 226.710929 67.909346 
L 226.761251 68.233374 
L 226.850531 70.913219 
L 226.978769 83.033471 
L 227.163823 126.911432 
L 227.395951 179.352041 
L 227.436532 177.171937 
L 227.550161 152.931515 
L 227.9365 74.582748 
L 228.149149 68.193622 
L 228.194601 67.998895 
L 228.246545 68.290076 
L 228.337449 70.680473 
L 228.465687 81.271547 
L 228.641001 118.755333 
L 228.905594 180.742804 
L 228.952669 177.831308 
L 229.080908 148.349551 
L 229.438028 76.314453 
L 229.662039 68.36408 
L 229.730217 67.909354 
L 229.780538 68.233888 
L 229.869818 70.915152 
L 229.998057 83.039169 
L 230.18311 126.923343 
L 230.415238 179.352096 
L 230.45582 177.167823 
L 230.569449 152.92062 
L 230.955788 74.580328 
L 231.168436 68.1933 
L 231.213888 67.998894 
L 231.265833 68.29053 
L 231.356736 70.682164 
L 231.484975 81.276566 
L 231.660288 118.766549 
L 231.924881 180.742861 
L 231.971956 177.826606 
L 232.100195 148.338313 
L 232.457315 76.311749 
L 232.681327 68.363583 
L 232.749504 67.909362 
L 232.799825 68.234402 
L 232.889105 70.917086 
L 233.017344 83.044869 
L 233.202397 126.935254 
L 233.434525 179.352147 
L 233.475107 177.163705 
L 233.588736 152.909724 
L 233.975075 74.577909 
L 234.187724 68.19298 
L 234.233175 67.998893 
L 234.28512 68.290984 
L 234.376023 70.683855 
L 234.504262 81.281587 
L 234.679575 118.777767 
L 234.944169 180.742914 
L 234.991244 177.8219 
L 235.119482 148.327075 
L 235.476602 76.309045 
L 235.700614 68.363086 
L 235.768791 67.90937 
L 235.819113 68.234917 
L 235.908393 70.91902 
L 236.036631 83.050571 
L 236.221684 126.947165 
L 236.453812 179.352195 
L 236.494394 177.159584 
L 236.608023 152.898828 
L 236.994362 74.575491 
L 237.207011 68.192659 
L 237.252463 67.998892 
L 237.304407 68.291438 
L 237.395311 70.685546 
L 237.523549 81.286609 
L 237.698863 118.788986 
L 237.963456 180.742964 
L 238.010531 177.81719 
L 238.138769 148.315837 
L 238.495889 76.306342 
L 238.719901 68.36259 
L 238.788079 67.909379 
L 238.8384 68.235432 
L 238.92768 70.920956 
L 239.055919 83.056274 
L 239.240972 126.959077 
L 239.4731 179.352238 
L 239.513681 177.155459 
L 239.628934 152.427452 
L 240.012026 74.675691 
L 240.224675 68.206047 
L 240.27175 67.998892 
L 240.323695 68.291893 
L 240.414598 70.687238 
L 240.542836 81.291632 
L 240.71815 118.800206 
L 240.982743 180.743008 
L 241.029818 177.812477 
L 241.15968 147.830067 
L 241.513553 76.418275 
L 241.737565 68.383251 
L 241.807366 67.909388 
L 241.857687 68.235948 
L 241.946967 70.922893 
L 242.075206 83.061978 
L 242.260259 126.970989 
L 242.492387 179.352277 
L 242.532969 177.151331 
L 242.648221 152.416517 
L 243.031313 74.673243 
L 243.243962 68.205717 
L 243.291037 67.998893 
L 243.342982 68.292348 
L 243.433885 70.68893 
L 243.562124 81.296657 
L 243.737437 118.811427 
L 244.002031 180.743049 
L 244.049105 177.807761 
L 244.178967 147.818809 
L 244.532841 76.415542 
L 244.756852 68.382744 
L 244.826653 67.909398 
L 244.876975 68.236464 
L 244.966255 70.92483 
L 245.094493 83.067684 
L 245.279546 126.982901 
L 245.511674 179.352311 
L 245.552256 177.147198 
L 245.667508 152.405582 
L 246.050601 74.670796 
L 246.263249 68.205387 
L 246.310324 67.998893 
L 246.362269 68.292803 
L 246.453172 70.690623 
L 246.581411 81.301683 
L 246.756724 118.822649 
L 247.021318 180.743086 
L 247.068393 177.803041 
L 247.198255 147.807549 
L 247.552128 76.41281 
L 247.77614 68.382238 
L 247.84594 67.909407 
L 247.896262 68.236981 
L 247.985542 70.926768 
L 248.11378 83.073391 
L 248.298833 126.994815 
L 248.530961 179.352342 
L 248.571543 177.143063 
L 248.686796 152.394645 
L 249.069888 74.66835 
L 249.282537 68.205057 
L 249.329612 67.998894 
L 249.381556 68.293259 
L 249.47246 70.692317 
L 249.600698 81.306711 
L 249.776012 118.833872 
L 250.040605 180.743119 
L 250.08768 177.798317 
L 250.217542 147.79629 
L 250.571415 76.410078 
L 250.795427 68.381731 
L 250.863604 67.909281 
L 250.915549 68.237498 
L 251.004829 70.928707 
L 251.133068 83.0791 
L 251.318121 127.006729 
L 251.550249 179.352369 
L 251.590831 177.138923 
L 251.706083 152.383708 
L 252.089175 74.665904 
L 252.301824 68.204728 
L 252.348899 67.998895 
L 252.400844 68.293715 
L 252.491747 70.694012 
L 252.619985 81.311739 
L 252.795299 118.845095 
L 253.059892 180.743147 
L 253.106967 177.79359 
L 253.236829 147.78503 
L 253.590703 76.407347 
L 253.814714 68.381226 
L 253.882892 67.909278 
L 253.934836 68.238016 
L 254.024116 70.930647 
L 254.152355 83.08481 
L 254.337408 127.018643 
L 254.569536 179.352391 
L 254.610118 177.13478 
L 254.72537 152.37277 
L 255.108463 74.663459 
L 255.321111 68.204399 
L 255.368186 67.998897 
L 255.420131 68.294172 
L 255.511034 70.695707 
L 255.639273 81.316769 
L 255.814586 118.85632 
L 256.07918 180.743172 
L 256.126255 177.788859 
L 256.256116 147.773769 
L 256.60999 76.404617 
L 256.834001 68.38072 
L 256.902179 67.909275 
L 256.954124 68.238534 
L 257.043404 70.932587 
L 257.171642 83.090522 
L 257.356695 127.030558 
L 257.588823 179.35241 
L 257.629405 177.130633 
L 257.744657 152.361831 
L 258.12775 74.661015 
L 258.340399 68.20407 
L 258.387473 67.998899 
L 258.439418 68.294629 
L 258.530321 70.697403 
L 258.65856 81.321801 
L 258.833873 118.867546 
L 259.098467 180.743192 
L 259.145542 177.784125 
L 259.275404 147.762508 
L 259.629277 76.401888 
L 259.853289 68.380214 
L 259.921466 67.909272 
L 259.973411 68.239052 
L 260.062691 70.934529 
L 260.190929 83.096235 
L 260.377606 127.54564 
L 260.608111 179.352424 
L 260.647069 177.298376 
L 260.759075 153.728295 
L 261.150284 74.455067 
L 261.362932 68.176926 
L 261.406761 67.998901 
L 261.458705 68.295086 
L 261.549609 70.6991 
L 261.677847 81.326833 
L 261.853161 118.878773 
L 262.117754 180.743208 
L 262.164829 177.779388 
L 262.294691 147.751247 
L 262.648564 76.399159 
L 262.872576 68.379709 
L 262.940753 67.909269 
L 262.992698 68.239571 
L 263.081978 70.936471 
L 263.210217 83.10195 
L 263.396893 127.55758 
L 263.627398 179.352434 
L 263.666356 177.294377 
L 263.778362 153.717469 
L 264.169571 74.452686 
L 264.38222 68.176619 
L 264.426048 67.998903 
L 264.477993 68.295544 
L 264.568896 70.700797 
L 264.697135 81.331867 
L 264.872448 118.890001 
L 265.137041 180.743221 
L 265.184116 177.774647 
L 265.313978 147.739985 
L 265.667852 76.396432 
L 265.891863 68.379204 
L 265.960041 67.909267 
L 266.011985 68.24009 
L 266.102889 71.021113 
L 266.231127 83.350089 
L 266.417804 128.073715 
L 266.646685 179.35244 
L 266.685644 177.290374 
L 266.797649 153.706642 
L 267.188858 74.450305 
L 267.401507 68.176312 
L 267.445335 67.998906 
L 267.49728 68.296002 
L 267.588183 70.702495 
L 267.716422 81.336902 
L 267.891735 118.901229 
L 268.156329 180.743229 
L 268.203404 177.769902 
L 268.333265 147.728723 
L 268.687139 76.393705 
L 268.911151 68.378699 
L 268.979328 67.909265 
L 269.031273 68.24061 
L 269.122176 71.023091 
L 269.250415 83.355867 
L 269.437091 128.085679 
L 269.665972 179.352442 
L 269.704931 177.286368 
L 269.816937 153.695814 
L 270.208145 74.447925 
L 270.420794 68.176005 
L 270.464623 67.998909 
L 270.516567 68.296461 
L 270.607471 70.704194 
L 270.735709 81.341939 
L 270.911023 118.912459 
L 271.175616 180.743233 
L 271.222691 177.765154 
L 271.352553 147.71746 
L 271.706426 76.390978 
L 271.930438 68.378195 
L 271.998615 67.909263 
L 272.05056 68.24113 
L 272.141463 71.02507 
L 272.269702 83.361646 
L 272.456378 128.097643 
L 272.68526 179.35244 
L 272.724218 177.282357 
L 272.836224 153.684985 
L 273.227433 74.445547 
L 273.440081 68.175699 
L 273.48391 67.998912 
L 273.535855 68.29692 
L 273.626758 70.705893 
L 273.754996 81.346977 
L 273.93031 118.92369 
L 274.194903 180.743232 
L 274.241978 177.760402 
L 274.37184 147.706197 
L 274.725713 76.388253 
L 274.949725 68.377691 
L 275.017903 67.909262 
L 275.069847 68.241651 
L 275.160751 71.02705 
L 275.288989 83.367427 
L 275.475665 128.109608 
L 275.704547 179.352433 
L 275.743505 177.278344 
L 275.855511 153.674155 
L 276.24672 74.443168 
L 276.459369 68.175393 
L 276.503197 67.998916 
L 276.555142 68.297379 
L 276.646045 70.707593 
L 276.774284 81.352016 
L 276.949597 118.934921 
L 277.214191 180.743228 
L 277.261265 177.755647 
L 277.391127 147.694933 
L 277.745001 76.385528 
L 277.969012 68.377187 
L 278.03719 67.909261 
L 278.089135 68.242172 
L 278.180038 71.02903 
L 278.308276 83.373209 
L 278.494953 128.121574 
L 278.723834 179.352423 
L 278.762793 177.274326 
L 278.874799 153.663324 
L 279.266007 74.440791 
L 279.478656 68.175087 
L 279.522484 67.99892 
L 279.574429 68.297839 
L 279.665332 70.709294 
L 279.793571 81.357056 
L 279.968884 118.946154 
L 280.233478 180.74322 
L 280.280553 177.750888 
L 280.410415 147.683669 
L 280.764288 76.382804 
L 280.9883 68.376683 
L 281.056477 67.90926 
L 281.108422 68.242694 
L 281.199325 71.031011 
L 281.327564 83.378992 
L 281.51424 128.13354 
L 281.743121 179.352408 
L 281.78208 177.270305 
L 281.894086 153.652492 
L 282.285295 74.438414 
L 282.497943 68.174782 
L 282.541772 67.998924 
L 282.593716 68.298299 
L 282.68462 70.710996 
L 282.812858 81.362098 
L 282.988172 118.957387 
L 283.252765 180.743207 
L 283.29984 177.746126 
L 283.429702 147.672405 
L 283.783575 76.380081 
L 284.007587 68.37618 
L 284.075764 67.90926 
L 284.127709 68.243216 
L 284.218612 71.032993 
L 284.346851 83.384777 
L 284.533527 128.145506 
L 284.762409 179.352389 
L 284.801367 177.26628 
L 284.913373 153.64166 
L 285.304582 74.436038 
L 285.517231 68.174477 
L 285.561059 67.998928 
L 285.613004 68.29876 
L 285.703907 70.712698 
L 285.832145 81.367141 
L 286.007459 118.968622 
L 286.272052 180.743191 
L 286.319127 177.74136 
L 286.448989 147.66114 
L 286.802863 76.377359 
L 287.026874 68.375676 
L 287.095052 67.90926 
L 287.146996 68.243738 
L 287.2379 71.034976 
L 287.366138 83.390564 
L 287.552815 128.157473 
L 287.781696 179.352367 
L 287.820655 177.262252 
L 287.93266 153.630826 
L 288.323869 74.433662 
L 288.536518 68.174172 
L 288.580346 67.998933 
L 288.632291 68.299221 
L 288.724817 70.786868 
L 288.853056 81.586176 
L 289.029993 119.931209 
L 289.29134 180.74317 
L 289.336791 177.934716 
L 289.463407 149.071867 
L 289.823773 76.26051 
L 290.047785 68.354185 
L 290.114339 67.90926 
L 290.166284 68.244261 
L 290.257187 71.03696 
L 290.385425 83.396351 
L 290.572102 128.16944 
L 290.800983 179.35234 
L 290.839942 177.25822 
L 290.951948 153.619991 
L 291.343156 74.431288 
L 291.555805 68.173867 
L 291.599633 67.998938 
L 291.651578 68.299682 
L 291.744105 70.788601 
L 291.872343 81.591277 
L 292.04928 119.942525 
L 292.310627 180.743145 
L 292.356079 177.930092 
L 292.482694 149.060662 
L 292.84306 76.25782 
L 293.067072 68.353693 
L 293.133626 67.909261 
L 293.185571 68.244785 
L 293.276474 71.038944 
L 293.404713 83.402141 
L 293.593012 128.686733 
L 293.820271 179.352309 
L 293.859229 177.254184 
L 293.971235 153.609155 
L 294.362444 74.428914 
L 294.575092 68.173563 
L 294.618921 67.998944 
L 294.669242 68.281004 
L 294.760145 70.646516 
L 294.886761 80.961069 
L 295.060451 117.588014 
L 295.329914 180.743116 
L 295.378612 177.522365 
L 295.513344 145.720782 
L 295.859101 76.484603 
L 296.083113 68.395582 
L 296.152913 67.909262 
L 296.204858 68.245308 
L 296.295761 71.04093 
L 296.424 83.407931 
L 296.6123 128.698723 
L 296.839558 179.352273 
L 296.878516 177.250144 
L 296.990522 153.598319 
L 297.381731 74.42654 
L 297.59438 68.173258 
L 297.638208 67.998949 
L 297.688529 68.28145 
L 297.779433 70.648192 
L 297.906048 80.966007 
L 298.079738 117.599127 
L 298.349201 180.743083 
L 298.3979 177.517438 
L 298.532631 145.709454 
L 298.878388 76.481851 
L 299.1024 68.395069 
L 299.172201 67.909264 
L 299.224145 68.245833 
L 299.315049 71.042916 
L 299.443287 83.413723 
L 299.631587 128.710714 
L 299.858845 179.352234 
L 299.897804 177.246101 
L 300.009809 153.587481 
L 300.401018 74.424168 
L 300.613667 68.172954 
L 300.657495 67.998955 
L 300.707817 68.281896 
L 300.79872 70.649869 
L 300.925335 80.970947 
L 301.099025 117.610241 
L 301.368489 180.743046 
L 301.415564 177.717478 
L 301.547049 147.129142 
L 301.897676 76.4791 
L 302.121687 68.394556 
L 302.191488 67.909265 
L 302.243433 68.246357 
L 302.334336 71.044903 
L 302.462575 83.419517 
L 302.650874 128.722705 
L 302.878132 179.352191 
L 302.917091 177.242054 
L 303.029097 153.576643 
L 303.420305 74.421796 
L 303.632954 68.172651 
L 303.676783 67.998962 
L 303.727104 68.282343 
L 303.818007 70.651546 
L 303.944623 80.975888 
L 304.118313 117.621356 
L 304.387776 180.743005 
L 304.434851 177.712691 
L 304.566336 147.117857 
L 304.916963 76.47635 
L 305.140975 68.394044 
L 305.210775 67.909267 
L 305.26272 68.246883 
L 305.353623 71.04689 
L 305.481862 83.425312 
L 305.670161 128.734696 
L 305.89742 179.352143 
L 305.936378 177.238003 
L 306.048384 153.565803 
L 306.439593 74.419425 
L 306.652241 68.172347 
L 306.69607 67.998968 
L 306.746391 68.282789 
L 306.837295 70.653224 
L 306.96391 80.98083 
L 307.1376 117.632472 
L 307.407063 180.74296 
L 307.454138 177.707901 
L 307.585623 147.106572 
L 307.93625 76.473601 
L 308.160262 68.393532 
L 308.230063 67.90927 
L 308.282007 68.247408 
L 308.372911 71.048879 
L 308.501149 83.431108 
L 308.689449 128.746688 
L 308.916707 179.352091 
L 308.955665 177.233949 
L 309.069295 153.09682 
L 309.457257 74.517672 
L 309.669905 68.185055 
L 309.715357 67.998975 
L 309.765679 68.283237 
L 309.856582 70.654902 
L 309.983197 80.985773 
L 310.156887 117.643589 
L 310.426351 180.74291 
L 310.473425 177.703107 
L 310.604911 147.095287 
L 310.955537 76.470853 
L 311.179549 68.39302 
L 311.24935 67.909272 
L 311.301295 68.247934 
L 311.392198 71.050868 
L 311.520436 83.436906 
L 311.708736 128.75868 
L 311.935994 179.352035 
L 311.974953 177.229891 
L 312.088582 153.085939 
L 312.476544 74.515272 
L 312.689193 68.184741 
L 312.734644 67.998982 
L 312.784966 68.283684 
L 312.875869 70.656582 
L 313.002484 80.990718 
L 313.176175 117.654707 
L 313.445638 180.742857 
L 313.492713 177.698309 
L 313.624198 147.084001 
L 313.974825 76.468105 
L 314.198836 68.392509 
L 314.268637 67.909275 
L 314.320582 68.248461 
L 314.411485 71.052858 
L 314.539724 83.442705 
L 314.728023 128.770673 
L 314.955281 179.351975 
L 314.99424 177.225829 
L 315.107869 153.075058 
L 315.495831 74.512872 
L 315.70848 68.184428 
L 315.753932 67.99899 
L 315.804253 68.284132 
L 315.895156 70.658262 
L 316.021772 80.995664 
L 316.195462 117.665827 
L 316.464925 180.742799 
L 316.512 177.693508 
L 316.643485 147.072714 
L 316.994112 76.465358 
L 317.218124 68.391998 
L 317.287924 67.909279 
L 317.339869 68.248988 
L 317.430772 71.054849 
L 317.559011 83.448506 
L 317.747311 128.782667 
L 317.974569 179.351911 
L 318.013527 177.221764 
L 318.127156 153.064176 
L 318.515119 74.510474 
L 318.727767 68.184115 
L 318.773219 67.998997 
L 318.82354 68.284581 
L 318.914444 70.659942 
L 319.041059 81.000611 
L 319.214749 117.676947 
L 319.484212 180.742737 
L 319.531287 177.688704 
L 319.662772 147.061427 
L 320.013399 76.462612 
L 320.237411 68.391487 
L 320.307212 67.909282 
L 320.359156 68.249516 
L 320.45006 71.056841 
L 320.578298 83.454308 
L 320.766598 128.794661 
L 320.993856 179.351843 
L 321.032815 177.217695 
L 321.146444 153.053292 
L 321.534406 74.508076 
L 321.747055 68.183802 
L 321.792506 67.999005 
L 321.842828 68.28503 
L 321.933731 70.661624 
L 322.060346 81.00556 
L 322.234036 117.688068 
L 322.5035 180.742672 
L 322.550575 177.683896 
L 322.68206 147.05014 
L 323.032687 76.459867 
L 323.256698 68.390976 
L 323.326499 67.909286 
L 323.378444 68.250044 
L 323.469347 71.058834 
L 323.597585 83.460112 
L 323.785885 128.806655 
L 324.013143 179.351771 
L 324.052102 177.213622 
L 324.165731 153.042408 
L 324.553693 74.505679 
L 324.766342 68.183489 
L 324.811793 67.999014 
L 324.862115 68.285479 
L 324.953018 70.663306 
L 325.079633 81.01051 
L 325.253324 117.69919 
L 325.522787 180.742602 
L 325.569862 177.679085 
L 325.701347 147.038853 
L 326.051974 76.457122 
L 326.275985 68.390465 
L 326.345786 67.909291 
L 326.397731 68.250572 
L 326.488634 71.060827 
L 326.616873 83.465917 
L 326.805172 128.81865 
L 327.032431 179.351695 
L 327.071389 177.209546 
L 327.185018 153.031523 
L 327.57298 74.503282 
L 327.785629 68.183177 
L 327.831081 67.999022 
L 327.881402 68.285929 
L 327.972305 70.664988 
L 328.098921 81.015461 
L 328.272611 117.710314 
L 328.542074 180.742528 
L 328.589149 177.67427 
L 328.720634 147.027565 
L 329.071261 76.454378 
L 329.295273 68.389955 
L 329.365073 67.909295 
L 329.417018 68.251101 
L 329.507921 71.062821 
L 329.63616 83.471723 
L 329.82446 128.830645 
L 330.051718 179.351614 
L 330.089053 177.374376 
L 330.199436 154.390805 
L 330.595514 74.30135 
L 330.808163 68.157446 
L 330.850368 67.999031 
L 330.900689 68.286379 
L 330.991593 70.666672 
L 331.119831 81.230516 
L 331.295145 118.663568 
L 331.561361 180.742449 
L 331.608436 177.669451 
L 331.739921 147.016277 
L 332.090548 76.451635 
L 332.31456 68.389445 
L 332.384361 67.9093 
L 332.436305 68.25163 
L 332.527209 71.064817 
L 332.655447 83.477531 
L 332.843747 128.842641 
L 333.071005 179.351529 
L 333.10834 177.370448 
L 333.218723 154.380039 
L 333.614801 74.299015 
L 333.82745 68.157155 
L 333.869655 67.99904 
L 333.919977 68.286829 
L 334.01088 70.668356 
L 334.139119 81.235525 
L 334.314432 118.674777 
L 334.580649 180.742367 
L 334.6261 177.864986 
L 334.754339 148.430268 
L 335.111459 76.333902 
L 335.335471 68.367659 
L 335.403648 67.909306 
L 335.455593 68.25216 
L 335.546496 71.066812 
L 335.674735 83.48334 
L 335.863034 128.854638 
L 336.088669 179.351606 
L 336.127628 177.366516 
L 336.23801 154.369272 
L 336.634089 74.296681 
L 336.846737 68.156865 
L 336.888943 67.99905 
L 336.939264 68.28728 
L 337.030167 70.670041 
L 337.158406 81.240535 
L 337.333719 118.685987 
L 337.598313 180.742358 
L 337.645388 177.860309 
L 337.773626 148.419034 
L 338.130746 76.331192 
L 338.354758 68.36716 
L 338.422935 67.909311 
L 338.47488 68.25269 
L 338.565783 71.068809 
L 338.694022 83.489151 
L 338.882321 128.866634 
L 339.107956 179.351687 
L 339.146915 177.362581 
L 339.257297 154.358505 
L 339.653376 74.294348 
L 339.866025 68.156575 
L 339.90823 67.99906 
L 339.958551 68.287731 
L 340.049455 70.671726 
L 340.177693 81.245546 
L 340.353007 118.697198 
L 340.6176 180.742441 
L 340.664675 177.855628 
L 340.792913 148.407799 
L 341.150033 76.328483 
L 341.374045 68.366661 
L 341.442223 67.909318 
L 341.494167 68.253221 
L 341.585071 71.070807 
L 341.713309 83.494963 
L 341.901609 128.878632 
L 342.127244 179.351764 
L 342.166202 177.358642 
L 342.276585 154.347736 
L 342.672663 74.292015 
L 342.885312 68.156286 
L 342.927517 67.99907 
L 342.977839 68.288182 
L 343.068742 70.673412 
L 343.19698 81.250559 
L 343.372294 118.70841 
L 343.636887 180.74252 
L 343.683962 177.850944 
L 343.812201 148.396564 
L 344.169321 76.325775 
L 344.393332 68.366163 
L 344.46151 67.909324 
L 344.513455 68.253752 
L 344.604358 71.072805 
L 344.732596 83.500777 
L 344.920896 128.890629 
L 345.146531 179.351837 
L 345.185489 177.354699 
L 345.295872 154.336966 
L 345.691951 74.289683 
L 345.904599 68.155996 
L 345.946804 67.99908 
L 345.997126 68.288634 
L 346.088029 70.675099 
L 346.216268 81.255573 
L 346.391581 118.719623 
L 346.656175 180.742594 
L 346.703249 177.846257 
L 346.831488 148.385329 
L 347.188608 76.323068 
L 347.41262 68.365665 
L 347.480797 67.909331 
L 347.532742 68.254283 
L 347.623645 71.074804 
L 347.751884 83.506592 
L 347.940183 128.902628 
L 348.165818 179.351905 
L 348.204777 177.350752 
L 348.315159 154.326196 
L 348.711238 74.287352 
L 348.923887 68.155707 
L 348.966092 67.999091 
L 349.016413 68.289087 
L 349.107316 70.676787 
L 349.235555 81.260589 
L 349.410868 118.730837 
L 349.675462 180.742665 
L 349.722537 177.841566 
L 349.850775 148.374092 
L 350.207895 76.320361 
L 350.431907 68.365167 
L 350.500084 67.909338 
L 350.550406 68.232766 
L 350.639686 70.91093 
L 350.767924 83.026724 
L 350.952977 126.897334 
L 351.185105 179.35197 
L 351.225687 177.176802 
L 351.339316 152.94441 
L 351.725655 74.585614 
L 351.938304 68.194 
L 351.983756 67.998895 
L 352.0357 68.289539 
L 352.126604 70.678475 
L 352.254842 81.265605 
L 352.430156 118.742052 
L 352.694749 180.742731 
L 352.741824 177.836871 
L 352.870063 148.362856 
L 353.227183 76.317655 
L 353.451194 68.364669 
L 353.519372 67.909345 
L 353.569693 68.23328 
L 353.658973 70.912862 
L 353.787212 83.032421 
L 353.972265 126.909243 
L 354.204393 179.35203 
L 354.244975 177.172693 
L 354.358604 152.933517 
L 354.744943 74.583193 
L 354.957591 68.193679 
L 355.003043 67.998894 
L 355.054988 68.289992 
L 355.145891 70.680164 
L 355.274129 81.270623 
L 355.449443 118.753268 
L 355.714036 180.742793 
L 355.761111 177.832173 
L 355.88935 148.351619 
L 356.24647 76.31495 
L 356.470481 68.364172 
L 356.538659 67.909353 
L 356.58898 68.233793 
L 356.67826 70.914795 
L 356.806499 83.03812 
L 356.991552 126.921152 
L 357.22368 179.352086 
L 357.264262 177.16858 
L 357.377891 152.922623 
L 357.76423 74.580773 
L 357.976879 68.193358 
L 358.02233 67.998893 
L 358.074275 68.290446 
L 358.165178 70.681853 
L 358.293417 81.275642 
L 358.46873 118.764485 
L 358.733324 180.742851 
L 358.780399 177.827471 
L 358.908637 148.340381 
L 359.265757 76.312246 
L 359.489769 68.363675 
L 359.557946 67.909361 
L 359.608268 68.234308 
L 359.697548 70.916729 
L 359.825786 83.04382 
L 360.010839 126.933063 
L 360.242967 179.352138 
L 360.283549 177.164463 
L 360.397178 152.911728 
L 360.783517 74.578354 
L 360.996166 68.193038 
L 361.041617 67.998893 
L 361.093562 68.2909 
L 361.184465 70.683544 
L 361.312704 81.280663 
L 361.488017 118.775703 
L 361.752611 180.742905 
L 361.799686 177.822766 
L 361.927924 148.329143 
L 362.285044 76.309542 
L 362.509056 68.363178 
L 362.577233 67.909369 
L 362.627555 68.234822 
L 362.716835 70.918664 
L 362.845073 83.049521 
L 363.030127 126.944974 
L 363.262255 179.352186 
L 363.302836 177.160342 
L 363.416465 152.900832 
L 363.802804 74.575936 
L 364.015453 68.192718 
L 364.060905 67.998892 
L 364.112849 68.291354 
L 364.203753 70.685235 
L 364.331991 81.285685 
L 364.507305 118.786922 
L 364.771898 180.742955 
L 364.818973 177.818057 
L 364.947212 148.317904 
L 365.304332 76.306839 
L 365.528343 68.362681 
L 365.596521 67.909378 
L 365.646842 68.235338 
L 365.736122 70.9206 
L 365.864361 83.055224 
L 366.049414 126.956885 
L 366.281542 179.35223 
L 366.322124 177.156218 
L 366.435753 152.889936 
L 366.822092 74.573518 
L 367.03474 68.192398 
L 367.080192 67.998892 
L 367.132137 68.291809 
L 367.22304 70.686926 
L 367.351279 81.290708 
L 367.526592 118.798141 
L 367.791185 180.743001 
L 367.83826 177.813345 
L 367.968122 147.832139 
L 368.321996 76.418778 
L 368.546007 68.383344 
L 368.615808 67.909387 
L 368.666129 68.235853 
L 368.755409 70.922536 
L 368.883648 83.060928 
L 369.068701 126.968797 
L 369.300829 179.35227 
L 369.341411 177.15209 
L 369.456663 152.418529 
L 369.839756 74.673693 
L 370.052404 68.205778 
L 370.099479 67.998893 
L 370.151424 68.292264 
L 370.242327 70.688619 
L 370.370566 81.295733 
L 370.545879 118.809362 
L 370.810473 180.743042 
L 370.857548 177.808629 
L 370.987409 147.82088 
L 371.341283 76.416045 
L 371.565295 68.382837 
L 371.635095 67.909396 
L 371.685417 68.236369 
L 371.774697 70.924473 
L 371.902935 83.066634 
L 372.087988 126.98071 
L 372.320116 179.352305 
L 372.360698 177.147959 
L 372.475951 152.407594 
L 372.859043 74.671246 
L 373.071692 68.205448 
L 373.118767 67.998893 
L 373.170711 68.292719 
L 373.261615 70.690312 
L 373.389853 81.300758 
L 373.565167 118.820584 
L 373.82976 180.74308 
L 373.876835 177.803909 
L 374.006697 147.809621 
L 374.36057 76.413312 
L 374.584582 68.382331 
L 374.654383 67.909406 
L 374.704704 68.236886 
L 374.793984 70.926411 
L 374.922223 83.072341 
L 375.107276 126.992623 
L 375.339404 179.352337 
L 375.379985 177.143824 
L 375.495238 152.396657 
L 375.87833 74.6688 
L 376.090979 68.205118 
L 376.138054 67.998894 
L 376.189999 68.293175 
L 376.280902 70.692006 
L 376.40914 81.305786 
L 376.584454 118.831807 
L 376.849047 180.743113 
L 376.896122 177.799186 
L 377.025984 147.798361 
L 377.379857 76.41058 
L 377.603869 68.381825 
L 377.672047 67.909282 
L 377.723991 68.237403 
L 377.813271 70.92835 
L 377.94151 83.07805 
L 378.126563 127.004537 
L 378.358691 179.352364 
L 378.399273 177.139685 
L 378.514525 152.38572 
L 378.897617 74.666354 
L 379.110266 68.204788 
L 379.157341 67.998895 
L 379.209286 68.293631 
L 379.300189 70.6937 
L 379.428428 81.310814 
L 379.603741 118.84303 
L 379.868335 180.743142 
L 379.915409 177.79446 
L 380.045271 147.787101 
L 380.399145 76.40785 
L 380.623156 68.381319 
L 380.691334 67.909278 
L 380.743279 68.23792 
L 380.832559 70.93029 
L 380.960797 83.08376 
L 381.14585 127.016451 
L 381.377978 179.352387 
L 381.41856 177.135542 
L 381.533812 152.374782 
L 381.916905 74.663909 
L 382.129553 68.204459 
L 382.176628 67.998897 
L 382.228573 68.294088 
L 382.319476 70.695395 
L 382.447715 81.315844 
L 382.623028 118.854255 
L 382.887622 180.743168 
L 382.934697 177.78973 
L 383.064559 147.775841 
L 383.418432 76.405119 
L 383.642444 68.380813 
L 383.710621 67.909275 
L 383.762566 68.238438 
L 383.851846 70.93223 
L 383.980084 83.089471 
L 384.165137 127.028366 
L 384.397265 179.352407 
L 384.437847 177.131396 
L 384.5531 152.363843 
L 384.936192 74.661465 
L 385.148841 68.20413 
L 385.195916 67.998898 
L 385.24786 68.294545 
L 385.338764 70.697091 
L 385.467002 81.320875 
L 385.642316 118.865481 
L 385.906909 180.743189 
L 385.953984 177.784997 
L 386.083846 147.76458 
L 386.437719 76.40239 
L 386.661731 68.380307 
L 386.729908 67.909272 
L 386.781853 68.238957 
L 386.871133 70.934172 
L 386.999372 83.095184 
L 387.186048 127.543444 
L 387.416553 179.352422 
L 387.455511 177.299111 
L 387.567517 153.730287 
L 387.958726 74.455505 
L 388.171375 68.176982 
L 388.215203 67.998901 
L 388.267148 68.295002 
L 388.358051 70.698788 
L 388.486289 81.325907 
L 388.661603 118.876707 
L 388.926196 180.743206 
L 388.973271 177.78026 
L 389.103133 147.753319 
L 389.457007 76.399661 
L 389.681018 68.379802 
L 389.749196 67.909269 
L 389.80114 68.239475 
L 389.89042 70.936114 
L 390.018659 83.100898 
L 390.205335 127.555383 
L 390.43584 179.352432 
L 390.474799 177.295113 
L 390.586804 153.719461 
L 390.978013 74.453124 
L 391.190662 68.176675 
L 391.23449 67.998903 
L 391.286435 68.29546 
L 391.377338 70.700485 
L 391.505577 81.330941 
L 391.68089 118.887935 
L 391.945484 180.743219 
L 391.992559 177.775519 
L 392.12242 147.742057 
L 392.476294 76.396933 
L 392.700305 68.379297 
L 392.768483 67.909267 
L 392.820428 68.239995 
L 392.911331 71.02075 
L 393.039569 83.349026 
L 393.226246 128.071514 
L 393.455127 179.352439 
L 393.494086 177.291111 
L 393.606092 153.708634 
L 393.9973 74.450743 
L 394.209949 68.176368 
L 394.253777 67.998906 
L 394.305722 68.295918 
L 394.396625 70.702183 
L 394.524864 81.335976 
L 394.700177 118.899163 
L 394.964771 180.743227 
L 395.011846 177.770775 
L 395.141708 147.730795 
L 395.495581 76.394206 
L 395.719593 68.378792 
L 395.78777 67.909265 
L 395.839715 68.240514 
L 395.930618 71.022727 
L 396.058857 83.354804 
L 396.245533 128.083478 
L 396.474415 179.352442 
L 396.513373 177.287105 
L 396.625379 153.697806 
L 397.016588 74.448363 
L 397.229236 68.176062 
L 397.273065 67.998908 
L 397.325009 68.296377 
L 397.415913 70.703881 
L 397.544151 81.341012 
L 397.719465 118.910393 
L 397.984058 180.743232 
L 398.031133 177.766027 
L 398.160995 147.719532 
L 398.487273 78.554081 
L 398.487273 78.554081 
" style="fill:none;stroke:#1f77b4;stroke-linecap:square;stroke-width:1.5;"/>
   </g>
   <g id="patch_3">
    <path d="M 57.6 307.584 
L 57.6 41.472 
" style="fill:none;stroke:#000000;stroke-linecap:square;stroke-linejoin:miter;stroke-width:0.8;"/>
   </g>
   <g id="patch_4">
    <path d="M 414.72 307.584 
L 414.72 41.472 
" style="fill:none;stroke:#000000;stroke-linecap:square;stroke-linejoin:miter;stroke-width:0.8;"/>
   </g>
   <g id="patch_5">
    <path d="M 57.6 307.584 
L 414.72 307.584 
" style="fill:none;stroke:#000000;stroke-linecap:square;stroke-linejoin:miter;stroke-width:0.8;"/>
   </g>
   <g id="patch_6">
    <path d="M 57.6 41.472 
L 414.72 41.472 
" style="fill:none;stroke:#000000;stroke-linecap:square;stroke-linejoin:miter;stroke-width:0.8;"/>
   </g>
  </g>
 </g>
 <defs>
  <clipPath id="p488c692f5d">
   <rect height="266.112" width="357.12" x="57.6" y="41.472"/>
  </clipPath>
 </defs>
</svg>
