<?xml version="1.0" encoding="utf-8" standalone="no"?>
<!DOCTYPE svg PUBLIC "-//W3C//DTD SVG 1.1//EN"
  "http://www.w3.org/Graphics/SVG/1.1/DTD/svg11.dtd">
<!-- Created with matplotlib (https://matplotlib.org/) -->
<svg height="345.6pt" version="1.1" viewBox="0 0 460.8 345.6" width="460.8pt" xmlns="http://www.w3.org/2000/svg" xmlns:xlink="http://www.w3.org/1999/xlink">
 <metadata>
  <rdf:RDF xmlns:cc="http://creativecommons.org/ns#" xmlns:dc="http://purl.org/dc/elements/1.1/" xmlns:rdf="http://www.w3.org/1999/02/22-rdf-syntax-ns#">
   <cc:Work>
    <dc:type rdf:resource="http://purl.org/dc/dcmitype/StillImage"/>
    <dc:date>2020-07-23T21:21:19.048014</dc:date>
    <dc:format>image/svg+xml</dc:format>
    <dc:creator>
     <cc:Agent>
      <dc:title>Matplotlib v3.3.0, https://matplotlib.org/</dc:title>
     </cc:Agent>
    </dc:creator>
   </cc:Work>
  </rdf:RDF>
 </metadata>
 <defs>
  <style type="text/css">*{stroke-linecap:butt;stroke-linejoin:round;}</style>
 </defs>
 <g id="figure_1">
  <g id="patch_1">
   <path d="M 0 345.6 
L 460.8 345.6 
L 460.8 0 
L 0 0 
z
" style="fill:#ffffff;"/>
  </g>
  <g id="axes_1">
   <g id="patch_2">
    <path d="M 57.6 307.584 
L 414.72 307.584 
L 414.72 41.472 
L 57.6 41.472 
z
" style="fill:#ffffff;"/>
   </g>
   <g id="matplotlib.axis_1">
    <g id="xtick_1">
     <g id="line2d_1">
      <defs>
       <path d="M 0 0 
L 0 3.5 
" id="mbbbba0bd78" style="stroke:#000000;stroke-width:0.8;"/>
      </defs>
      <g>
       <use style="stroke:#000000;stroke-width:0.8;" x="73.832727" xlink:href="#mbbbba0bd78" y="307.584"/>
      </g>
     </g>
     <g id="text_1">
      <!-- $\mathdefault{0}$ -->
      <g transform="translate(71.34206 321.502498)scale(0.1 -0.1)">
       <defs>
        <path d="M 42 31.640625 
C 42 37.75 41.90625 48.125 37.703125 56.109375 
C 34 63.109375 28.09375 65.59375 22.90625 65.59375 
C 18.09375 65.59375 12 63.40625 8.203125 56.203125 
C 4.203125 48.71875 3.796875 39.4375 3.796875 31.640625 
C 3.796875 25.953125 3.90625 17.28125 7 9.671875 
C 11.296875 -0.609375 19 -2 22.90625 -2 
C 27.5 -2 34.5 -0.109375 38.59375 9.375 
C 41.59375 16.28125 42 24.359375 42 31.640625 
z
M 22.90625 -0.40625 
C 16.5 -0.40625 12.703125 5.078125 11.296875 12.6875 
C 10.203125 18.5625 10.203125 27.15625 10.203125 32.75 
C 10.203125 40.4375 10.203125 46.828125 11.5 52.921875 
C 13.40625 61.390625 19 64 22.90625 64 
C 27 64 32.296875 61.296875 34.203125 53.125 
C 35.5 47.4375 35.59375 40.734375 35.59375 32.75 
C 35.59375 26.25 35.59375 18.265625 34.40625 12.375 
C 32.296875 1.484375 26.40625 -0.40625 22.90625 -0.40625 
z
" id="CMR17-48"/>
       </defs>
       <use transform="scale(0.996264)" xlink:href="#CMR17-48"/>
      </g>
     </g>
    </g>
    <g id="xtick_2">
     <g id="line2d_2">
      <g>
       <use style="stroke:#000000;stroke-width:0.8;" x="138.763636" xlink:href="#mbbbba0bd78" y="307.584"/>
      </g>
     </g>
     <g id="text_2">
      <!-- $\mathdefault{20000}$ -->
      <g transform="translate(126.310298 321.502498)scale(0.1 -0.1)">
       <defs>
        <path d="M 41.703125 15.453125 
L 39.90625 15.453125 
C 38.90625 8.375 38.09375 7.171875 37.703125 6.5625 
C 37.203125 5.765625 30 5.765625 28.59375 5.765625 
L 9.40625 5.765625 
C 13 9.671875 20 16.75 28.5 24.953125 
C 34.59375 30.734375 41.703125 37.53125 41.703125 47.421875 
C 41.703125 59.21875 32.296875 66 21.796875 66 
C 10.796875 66 4.09375 56.3125 4.09375 47.34375 
C 4.09375 43.4375 7 42.9375 8.203125 42.9375 
C 9.203125 42.9375 12.203125 43.546875 12.203125 47.03125 
C 12.203125 50.109375 9.59375 51 8.203125 51 
C 7.59375 51 7 50.90625 6.59375 50.703125 
C 8.5 59.21875 14.296875 63.40625 20.40625 63.40625 
C 29.09375 63.40625 34.796875 56.515625 34.796875 47.421875 
C 34.796875 38.734375 29.703125 31.25 24 24.75 
L 4.09375 2.28125 
L 4.09375 0 
L 39.296875 0 
z
" id="CMR17-50"/>
       </defs>
       <use transform="scale(0.996264)" xlink:href="#CMR17-50"/>
       <use transform="translate(45.690477 0)scale(0.996264)" xlink:href="#CMR17-48"/>
       <use transform="translate(91.380954 0)scale(0.996264)" xlink:href="#CMR17-48"/>
       <use transform="translate(137.071431 0)scale(0.996264)" xlink:href="#CMR17-48"/>
       <use transform="translate(182.761908 0)scale(0.996264)" xlink:href="#CMR17-48"/>
      </g>
     </g>
    </g>
    <g id="xtick_3">
     <g id="line2d_3">
      <g>
       <use style="stroke:#000000;stroke-width:0.8;" x="203.694545" xlink:href="#mbbbba0bd78" y="307.584"/>
      </g>
     </g>
     <g id="text_3">
      <!-- $\mathdefault{40000}$ -->
      <g transform="translate(191.241207 321.502498)scale(0.1 -0.1)">
       <defs>
        <path d="M 33.59375 64.40625 
C 33.59375 66.5 33.5 66.5 31.703125 66.5 
L 2 19.59375 
L 2 17 
L 27.796875 17 
L 27.796875 7.140625 
C 27.796875 3.5 27.59375 2.5 20.59375 2.5 
L 18.703125 2.5 
L 18.703125 0 
C 21.90625 0 27.296875 0 30.703125 0 
C 34.09375 0 39.5 0 42.703125 0 
L 42.703125 2.5 
L 40.796875 2.5 
C 33.796875 2.5 33.59375 3.5 33.59375 7.140625 
L 33.59375 17 
L 43.796875 17 
L 43.796875 19.59375 
L 33.59375 19.59375 
z
M 28.09375 57.859375 
L 28.09375 19.59375 
L 4 19.59375 
z
" id="CMR17-52"/>
       </defs>
       <use transform="scale(0.996264)" xlink:href="#CMR17-52"/>
       <use transform="translate(45.690477 0)scale(0.996264)" xlink:href="#CMR17-48"/>
       <use transform="translate(91.380954 0)scale(0.996264)" xlink:href="#CMR17-48"/>
       <use transform="translate(137.071431 0)scale(0.996264)" xlink:href="#CMR17-48"/>
       <use transform="translate(182.761908 0)scale(0.996264)" xlink:href="#CMR17-48"/>
      </g>
     </g>
    </g>
    <g id="xtick_4">
     <g id="line2d_4">
      <g>
       <use style="stroke:#000000;stroke-width:0.8;" x="268.625455" xlink:href="#mbbbba0bd78" y="307.584"/>
      </g>
     </g>
     <g id="text_4">
      <!-- $\mathdefault{60000}$ -->
      <g transform="translate(256.172116 321.502498)scale(0.1 -0.1)">
       <defs>
        <path d="M 10.59375 34 
C 10.59375 57.65625 21.796875 63 28.296875 63 
C 30.40625 63 35.5 62.640625 37.5 59 
C 35.90625 59 32.90625 59 32.90625 55.515625 
C 32.90625 52.828125 35.09375 51.921875 36.5 51.921875 
C 37.40625 51.921875 40.09375 52.3125 40.09375 55.625 
C 40.09375 61.78125 35.09375 65.296875 28.203125 65.296875 
C 16.296875 65.296875 3.796875 52.96875 3.796875 31 
C 3.796875 3.953125 15.09375 -2 23.09375 -2 
C 32.796875 -2 42 6.671875 42 20.046875 
C 42 32.515625 33.90625 41.59375 23.703125 41.59375 
C 17.59375 41.59375 13.09375 37.609375 10.59375 30.625 
z
M 23.09375 0.390625 
C 10.796875 0.390625 10.796875 18.75 10.796875 22.4375 
C 10.796875 29.625 14.203125 40 23.5 40 
C 25.203125 40 30.09375 40 33.40625 33.125 
C 35.203125 29.21875 35.203125 25.140625 35.203125 20.140625 
C 35.203125 14.75 35.203125 10.78125 33.09375 6.78125 
C 30.90625 2.671875 27.703125 0.390625 23.09375 0.390625 
z
" id="CMR17-54"/>
       </defs>
       <use transform="scale(0.996264)" xlink:href="#CMR17-54"/>
       <use transform="translate(45.690477 0)scale(0.996264)" xlink:href="#CMR17-48"/>
       <use transform="translate(91.380954 0)scale(0.996264)" xlink:href="#CMR17-48"/>
       <use transform="translate(137.071431 0)scale(0.996264)" xlink:href="#CMR17-48"/>
       <use transform="translate(182.761908 0)scale(0.996264)" xlink:href="#CMR17-48"/>
      </g>
     </g>
    </g>
    <g id="xtick_5">
     <g id="line2d_5">
      <g>
       <use style="stroke:#000000;stroke-width:0.8;" x="333.556364" xlink:href="#mbbbba0bd78" y="307.584"/>
      </g>
     </g>
     <g id="text_5">
      <!-- $\mathdefault{80000}$ -->
      <g transform="translate(321.103026 321.502498)scale(0.1 -0.1)">
       <defs>
        <path d="M 27.203125 35.375 
C 33.5 38.546875 39.90625 43.328125 39.90625 50.984375 
C 39.90625 60.015625 31.09375 65.296875 23 65.296875 
C 13.90625 65.296875 5.90625 58.734375 5.90625 49.6875 
C 5.90625 47.203125 6.5 42.921875 10.40625 39.140625 
C 11.40625 38.15625 15.59375 35.171875 18.296875 33.28125 
C 13.796875 30.984375 3.296875 25.53125 3.296875 14.59375 
C 3.296875 4.359375 13.09375 -2 22.796875 -2 
C 33.5 -2 42.5 5.65625 42.5 15.78125 
C 42.5 24.84375 36.40625 29.015625 32.40625 31.703125 
z
M 14.09375 44.09375 
C 13.296875 44.59375 9.296875 47.671875 9.296875 52.359375 
C 9.296875 58.421875 15.59375 63 22.796875 63 
C 30.703125 63 36.5 57.4375 36.5 50.96875 
C 36.5 41.703125 26.09375 36.421875 25.59375 36.421875 
C 25.5 36.421875 25.40625 36.421875 24.59375 37.03125 
z
M 32.5 23.734375 
C 34 22.640625 38.796875 19.375 38.796875 13.296875 
C 38.796875 5.953125 31.40625 0.390625 23 0.390625 
C 13.90625 0.390625 7 6.84375 7 14.6875 
C 7 22.546875 13.09375 29.09375 20 32.1875 
z
" id="CMR17-56"/>
       </defs>
       <use transform="scale(0.996264)" xlink:href="#CMR17-56"/>
       <use transform="translate(45.690477 0)scale(0.996264)" xlink:href="#CMR17-48"/>
       <use transform="translate(91.380954 0)scale(0.996264)" xlink:href="#CMR17-48"/>
       <use transform="translate(137.071431 0)scale(0.996264)" xlink:href="#CMR17-48"/>
       <use transform="translate(182.761908 0)scale(0.996264)" xlink:href="#CMR17-48"/>
      </g>
     </g>
    </g>
    <g id="xtick_6">
     <g id="line2d_6">
      <g>
       <use style="stroke:#000000;stroke-width:0.8;" x="398.487273" xlink:href="#mbbbba0bd78" y="307.584"/>
      </g>
     </g>
     <g id="text_6">
      <!-- $\mathdefault{100000}$ -->
      <g transform="translate(383.543267 321.502498)scale(0.1 -0.1)">
       <defs>
        <path d="M 26.59375 63.40625 
C 26.59375 65.5 26.5 65.5 25.09375 65.5 
C 21.203125 61.1875 15.296875 59.796875 9.703125 59.796875 
C 9.40625 59.796875 8.90625 59.796875 8.796875 59.5 
C 8.703125 59.296875 8.703125 59.09375 8.703125 57 
C 11.796875 57 17 57.59375 21 59.984375 
L 21 7.203125 
C 21 3.6875 20.796875 2.5 12.203125 2.5 
L 9.203125 2.5 
L 9.203125 0 
C 14 0 19 0 23.796875 0 
C 28.59375 0 33.59375 0 38.40625 0 
L 38.40625 2.5 
L 35.40625 2.5 
C 26.796875 2.5 26.59375 3.59375 26.59375 7.15625 
z
" id="CMR17-49"/>
       </defs>
       <use transform="scale(0.996264)" xlink:href="#CMR17-49"/>
       <use transform="translate(45.690477 0)scale(0.996264)" xlink:href="#CMR17-48"/>
       <use transform="translate(91.380954 0)scale(0.996264)" xlink:href="#CMR17-48"/>
       <use transform="translate(137.071431 0)scale(0.996264)" xlink:href="#CMR17-48"/>
       <use transform="translate(182.761908 0)scale(0.996264)" xlink:href="#CMR17-48"/>
       <use transform="translate(228.452386 0)scale(0.996264)" xlink:href="#CMR17-48"/>
      </g>
     </g>
    </g>
   </g>
   <g id="matplotlib.axis_2">
    <g id="ytick_1">
     <g id="line2d_7">
      <defs>
       <path d="M 0 0 
L -3.5 0 
" id="m9aac4b2e21" style="stroke:#000000;stroke-width:0.8;"/>
      </defs>
      <g>
       <use style="stroke:#000000;stroke-width:0.8;" x="57.6" xlink:href="#m9aac4b2e21" y="297.1629"/>
      </g>
     </g>
     <g id="text_7">
      <!-- $\mathdefault{0.00}$ -->
      <g transform="translate(32.888586 300.622149)scale(0.1 -0.1)">
       <defs>
        <path d="M 18.40625 4.796875 
C 18.40625 7.6875 16 9.671875 13.59375 9.671875 
C 10.703125 9.671875 8.703125 7.28125 8.703125 4.890625 
C 8.703125 2 11.09375 0 13.5 0 
C 16.40625 0 18.40625 2.390625 18.40625 4.796875 
z
" id="CMMI12-58"/>
       </defs>
       <use transform="scale(0.996264)" xlink:href="#CMR17-48"/>
       <use transform="translate(45.690477 0)scale(0.996264)" xlink:href="#CMMI12-58"/>
       <use transform="translate(72.787654 0)scale(0.996264)" xlink:href="#CMR17-48"/>
       <use transform="translate(118.478131 0)scale(0.996264)" xlink:href="#CMR17-48"/>
      </g>
     </g>
    </g>
    <g id="ytick_2">
     <g id="line2d_8">
      <g>
       <use style="stroke:#000000;stroke-width:0.8;" x="57.6" xlink:href="#m9aac4b2e21" y="263.68217"/>
      </g>
     </g>
     <g id="text_8">
      <!-- $\mathdefault{0.02}$ -->
      <g transform="translate(32.888586 267.14142)scale(0.1 -0.1)">
       <use transform="scale(0.996264)" xlink:href="#CMR17-48"/>
       <use transform="translate(45.690477 0)scale(0.996264)" xlink:href="#CMMI12-58"/>
       <use transform="translate(72.787654 0)scale(0.996264)" xlink:href="#CMR17-48"/>
       <use transform="translate(118.478131 0)scale(0.996264)" xlink:href="#CMR17-50"/>
      </g>
     </g>
    </g>
    <g id="ytick_3">
     <g id="line2d_9">
      <g>
       <use style="stroke:#000000;stroke-width:0.8;" x="57.6" xlink:href="#m9aac4b2e21" y="230.201441"/>
      </g>
     </g>
     <g id="text_9">
      <!-- $\mathdefault{0.04}$ -->
      <g transform="translate(32.888586 233.66069)scale(0.1 -0.1)">
       <use transform="scale(0.996264)" xlink:href="#CMR17-48"/>
       <use transform="translate(45.690477 0)scale(0.996264)" xlink:href="#CMMI12-58"/>
       <use transform="translate(72.787654 0)scale(0.996264)" xlink:href="#CMR17-48"/>
       <use transform="translate(118.478131 0)scale(0.996264)" xlink:href="#CMR17-52"/>
      </g>
     </g>
    </g>
    <g id="ytick_4">
     <g id="line2d_10">
      <g>
       <use style="stroke:#000000;stroke-width:0.8;" x="57.6" xlink:href="#m9aac4b2e21" y="196.720712"/>
      </g>
     </g>
     <g id="text_10">
      <!-- $\mathdefault{0.06}$ -->
      <g transform="translate(32.888586 200.179961)scale(0.1 -0.1)">
       <use transform="scale(0.996264)" xlink:href="#CMR17-48"/>
       <use transform="translate(45.690477 0)scale(0.996264)" xlink:href="#CMMI12-58"/>
       <use transform="translate(72.787654 0)scale(0.996264)" xlink:href="#CMR17-48"/>
       <use transform="translate(118.478131 0)scale(0.996264)" xlink:href="#CMR17-54"/>
      </g>
     </g>
    </g>
    <g id="ytick_5">
     <g id="line2d_11">
      <g>
       <use style="stroke:#000000;stroke-width:0.8;" x="57.6" xlink:href="#m9aac4b2e21" y="163.239982"/>
      </g>
     </g>
     <g id="text_11">
      <!-- $\mathdefault{0.08}$ -->
      <g transform="translate(32.888586 166.699232)scale(0.1 -0.1)">
       <use transform="scale(0.996264)" xlink:href="#CMR17-48"/>
       <use transform="translate(45.690477 0)scale(0.996264)" xlink:href="#CMMI12-58"/>
       <use transform="translate(72.787654 0)scale(0.996264)" xlink:href="#CMR17-48"/>
       <use transform="translate(118.478131 0)scale(0.996264)" xlink:href="#CMR17-56"/>
      </g>
     </g>
    </g>
    <g id="ytick_6">
     <g id="line2d_12">
      <g>
       <use style="stroke:#000000;stroke-width:0.8;" x="57.6" xlink:href="#m9aac4b2e21" y="129.759253"/>
      </g>
     </g>
     <g id="text_12">
      <!-- $\mathdefault{0.10}$ -->
      <g transform="translate(32.888586 133.218502)scale(0.1 -0.1)">
       <use transform="scale(0.996264)" xlink:href="#CMR17-48"/>
       <use transform="translate(45.690477 0)scale(0.996264)" xlink:href="#CMMI12-58"/>
       <use transform="translate(72.787654 0)scale(0.996264)" xlink:href="#CMR17-49"/>
       <use transform="translate(118.478131 0)scale(0.996264)" xlink:href="#CMR17-48"/>
      </g>
     </g>
    </g>
    <g id="ytick_7">
     <g id="line2d_13">
      <g>
       <use style="stroke:#000000;stroke-width:0.8;" x="57.6" xlink:href="#m9aac4b2e21" y="96.278524"/>
      </g>
     </g>
     <g id="text_13">
      <!-- $\mathdefault{0.12}$ -->
      <g transform="translate(32.888586 99.737773)scale(0.1 -0.1)">
       <use transform="scale(0.996264)" xlink:href="#CMR17-48"/>
       <use transform="translate(45.690477 0)scale(0.996264)" xlink:href="#CMMI12-58"/>
       <use transform="translate(72.787654 0)scale(0.996264)" xlink:href="#CMR17-49"/>
       <use transform="translate(118.478131 0)scale(0.996264)" xlink:href="#CMR17-50"/>
      </g>
     </g>
    </g>
    <g id="ytick_8">
     <g id="line2d_14">
      <g>
       <use style="stroke:#000000;stroke-width:0.8;" x="57.6" xlink:href="#m9aac4b2e21" y="62.797794"/>
      </g>
     </g>
     <g id="text_14">
      <!-- $\mathdefault{0.14}$ -->
      <g transform="translate(32.888586 66.257044)scale(0.1 -0.1)">
       <use transform="scale(0.996264)" xlink:href="#CMR17-48"/>
       <use transform="translate(45.690477 0)scale(0.996264)" xlink:href="#CMMI12-58"/>
       <use transform="translate(72.787654 0)scale(0.996264)" xlink:href="#CMR17-49"/>
       <use transform="translate(118.478131 0)scale(0.996264)" xlink:href="#CMR17-52"/>
      </g>
     </g>
    </g>
   </g>
   <g id="line2d_15">
    <path clip-path="url(#p36366280f1)" d="M 73.832727 129.759253 
L 74.774225 129.845117 
L 74.803444 131.429889 
L 74.865129 156.73782 
L 74.91058 174.322823 
L 74.946292 142.447382 
L 75.076154 126.604688 
L 75.102127 127.620522 
L 75.202769 143.130024 
L 75.300166 150.877459 
L 75.332631 146.82466 
L 75.404055 128.236757 
L 75.494959 129.331868 
L 75.589108 131.596796 
L 75.787148 133.985495 
L 75.923503 135.675995 
L 75.965708 136.40891 
L 76.00142 135.071979 
L 76.209199 122.192034 
L 76.238417 124.154313 
L 76.397498 133.563214 
L 76.426717 133.389858 
L 76.491648 132.232593 
L 76.553332 130.622084 
L 76.618263 131.552488 
L 76.70592 132.512122 
L 76.744879 132.234052 
L 76.813056 131.078633 
L 76.865001 131.756978 
L 76.991616 133.003458 
L 76.994863 132.891019 
L 77.004602 133.00556 
L 77.085766 132.443142 
L 77.089012 132.489812 
L 77.235107 130.205985 
L 77.248093 130.235243 
L 77.316271 130.727321 
L 77.377955 130.702422 
L 77.556515 132.653254 
L 77.585734 132.558957 
L 77.731828 131.688564 
L 77.796759 132.019198 
L 77.87143 132.382609 
L 77.923375 132.251999 
L 78.088948 131.632766 
L 78.092195 131.657313 
L 78.173359 131.45303 
L 78.176605 131.483193 
L 78.238289 131.347022 
L 78.283741 131.457531 
L 78.468794 132.883951 
L 78.488273 132.90807 
L 78.627875 132.257175 
L 78.631121 132.290503 
L 78.699299 132.101341 
L 78.728518 132.163681 
L 78.731764 132.121818 
L 78.786956 132.218275 
L 78.835654 132.141955 
L 78.8389 132.18196 
L 78.93305 132.000172 
L 78.936297 132.038817 
L 78.997981 131.962065 
L 79.049926 131.975441 
L 79.183034 132.300216 
L 79.186281 132.275949 
L 79.247965 132.600499 
L 79.251212 132.574497 
L 79.377827 132.875536 
L 79.381073 132.839695 
L 79.481716 132.956405 
L 79.484963 132.920776 
L 79.488209 132.957239 
L 79.575866 132.775446 
L 79.579113 132.801122 
L 79.705728 132.55493 
L 79.74144 132.58806 
L 79.809617 132.52456 
L 79.812864 132.554269 
L 79.881041 132.496247 
L 79.926493 132.507708 
L 79.955712 132.540254 
L 80.023889 132.48675 
L 80.033629 132.515875 
L 80.036876 132.487555 
L 80.118039 132.733763 
L 80.121286 132.724995 
L 80.280367 133.602855 
L 80.290106 133.571754 
L 80.293353 133.594174 
L 80.368023 133.388845 
L 80.37127 133.406085 
L 80.413475 133.329447 
L 80.475159 133.44147 
L 80.478406 133.425286 
L 80.566063 133.552563 
L 80.598528 133.544749 
L 80.627747 133.519654 
L 80.695924 133.595393 
L 80.699171 133.578826 
L 80.832279 133.765708 
L 80.845265 133.769036 
L 80.945908 133.73122 
L 80.965388 133.726551 
L 81.280303 134.987703 
L 81.413411 134.879627 
L 81.293289 134.9983 
L 81.419904 134.882977 
L 81.630929 135.43625 
L 81.634176 135.4318 
L 81.669888 135.554445 
L 81.673135 135.550617 
L 81.845201 136.020507 
L 81.848448 136.013704 
L 81.910132 136.131556 
L 81.913379 136.124016 
L 82.390621 138.143725 
L 82.393868 138.137657 
L 82.442566 138.27232 
L 82.445812 138.274034 
L 82.7867 139.914154 
L 82.874356 140.258354 
L 83.455488 143.189967 
L 83.57561 143.926771 
L 83.910004 145.780702 
L 84.069085 146.62805 
L 84.760599 151.300933 
L 85.094993 153.396881 
L 87.120838 169.756949 
L 87.867543 177.565262 
L 89.380433 196.493156 
L 91.815343 238.545462 
L 93.175645 269.644808 
L 94.227526 295.488 
L 94.318429 294.18573 
L 94.860602 279.432861 
L 98.269475 186.939679 
L 99.684969 156.615782 
L 100.71737 138.847383 
L 101.707567 125.047126 
L 102.554915 115.602861 
L 103.392524 107.816559 
L 104.596992 99.339627 
L 105.402135 94.96432 
L 106.496221 90.672249 
L 107.609786 87.957985 
L 108.401943 86.973374 
L 108.681146 86.941329 
L 109.060992 86.964728 
L 109.541481 87.46456 
L 110.142092 88.775771 
L 110.98944 91.920748 
L 111.947171 96.746485 
L 113.411363 105.352357 
L 114.284684 111.151945 
L 115.804067 123.009425 
L 117.115671 135.607229 
L 118.680506 153.927544 
L 123.040617 209.545278 
L 124.258071 220.458921 
L 124.965818 225.203373 
L 125.602141 228.430041 
L 126.17678 230.562924 
L 127.040361 232.557621 
L 127.787066 233.198818 
L 128.491567 233.035082 
L 128.692852 232.854341 
L 128.998028 232.489277 
L 129.260998 232.060418 
L 130.325865 229.523568 
L 131.488128 225.255901 
L 132.663377 219.354088 
L 134.341841 208.626175 
L 136.731299 193.513635 
L 137.731235 189.205453 
L 138.611049 186.728823 
L 139.133743 185.788223 
L 140.023296 184.914697 
L 140.919343 184.789688 
L 141.873827 185.343439 
L 143.081542 186.949667 
L 145.665792 192.339584 
L 148.152646 198.852723 
L 149.21102 203.335914 
L 150.756375 211.90756 
L 151.905652 218.244694 
L 152.616646 221.385936 
L 153.399063 223.73078 
L 153.785402 224.377206 
L 154.262644 224.673861 
L 154.486656 224.622104 
L 154.950912 224.126874 
L 155.259334 223.530985 
L 155.9963 221.376625 
L 156.642362 218.896811 
L 157.963706 213.683203 
L 158.723398 211.661937 
L 159.239599 211.008741 
L 159.522048 210.911589 
L 159.973318 211.105412 
L 160.294726 211.452709 
L 161.892026 213.597797 
L 162.200448 213.708631 
L 162.641978 213.533932 
L 163.1387 212.841764 
L 163.505559 212.001522 
L 164.268497 209.47873 
L 164.972998 206.461984 
L 167.015075 197.2028 
L 167.888396 194.448278 
L 168.355898 193.549778 
L 168.706525 193.202572 
L 168.969495 193.150236 
L 169.316876 193.381119 
L 169.592832 193.817213 
L 170.073321 195.128286 
L 170.703151 197.819161 
L 171.832948 204.284424 
L 172.787433 209.460698 
L 173.375057 211.753848 
L 173.913984 212.98064 
L 174.29383 213.260995 
L 174.495116 213.20289 
L 174.706141 212.98539 
L 175.121699 212.104097 
L 175.693091 210.028509 
L 176.774191 204.592339 
L 177.76114 200.215566 
L 178.293574 198.900326 
L 178.650694 198.589096 
L 178.923404 198.693397 
L 179.241565 199.207726 
L 179.65063 200.499601 
L 180.179817 203.175053 
L 180.79666 207.473408 
L 183.247802 225.24713 
L 183.6731 226.608817 
L 184.01074 227.027851 
L 184.237999 226.938151 
L 184.507462 226.41203 
L 184.786665 225.365546 
L 185.153524 223.200566 
L 185.695697 218.429954 
L 186.364486 210.452353 
L 188.465001 184.505399 
L 188.932503 181.679838 
L 189.260404 180.765876 
L 189.477923 180.66079 
L 189.637004 180.832717 
L 189.893481 181.533709 
L 190.227875 183.16176 
L 190.757062 187.042256 
L 193.159505 206.252998 
L 193.743884 208.49958 
L 194.136716 209.202102 
L 194.350988 209.252119 
L 194.526301 209.097577 
L 194.747066 208.6383 
L 195.042502 207.545487 
L 195.484032 204.896526 
L 196.071657 199.680306 
L 196.896279 190.174925 
L 198.39943 173.157562 
L 198.951343 169.260723 
L 199.321449 167.920583 
L 199.551953 167.691966 
L 199.717527 167.829428 
L 199.92206 168.345336 
L 200.240221 169.866692 
L 200.707724 173.422337 
L 201.555072 182.063739 
L 203.184838 200.819631 
L 204.425018 215.638963 
L 204.694481 216.59591 
L 204.782138 216.566172 
L 204.798371 216.540397 
L 204.928233 216.107982 
L 205.136012 214.558401 
L 205.44768 210.374327 
L 205.989853 199.603476 
L 206.639162 188.049088 
L 206.908625 186.276361 
L 206.96057 186.253213 
L 207.006022 186.328408 
L 207.126144 186.982301 
L 207.31769 189.478087 
L 207.616372 196.800265 
L 208.677993 225.863201 
L 208.723444 225.762199 
L 208.824087 224.739725 
L 208.999401 220.232659 
L 209.28185 206.241627 
L 209.791558 167.691562 
L 210.483072 119.189555 
L 210.661632 115.775257 
L 210.684358 115.842944 
L 210.759028 116.949863 
L 210.911616 123.339514 
L 211.265489 150.486015 
L 211.947264 198.165242 
L 212.463465 217.778896 
L 212.86279 227.111705 
L 212.885516 227.154431 
L 212.927721 226.970671 
L 213.021871 225.097454 
L 213.177705 216.642877 
L 213.430935 188.406733 
L 214.11271 107.551135 
L 214.128943 107.504941 
L 214.174394 107.774974 
L 214.362694 109.898897 
L 214.430871 109.48011 
L 214.583459 106.311369 
L 215.401588 87.378482 
L 215.427561 87.346585 
L 215.469766 87.481905 
L 215.563916 88.765952 
L 215.71975 94.642275 
L 215.950255 113.468697 
L 216.797603 204.762387 
L 216.888506 202.186874 
L 217.041094 186.885803 
L 217.654691 118.361466 
L 218.13518 101.558877 
L 219.02798 70.162607 
L 219.105897 69.461779 
L 219.154595 69.807757 
L 219.255238 72.90012 
L 219.433798 86.901203 
L 219.868835 145.217686 
L 220.274653 185.545284 
L 220.313612 186.023917 
L 220.365556 185.114296 
L 220.475939 177.147047 
L 220.722676 138.363296 
L 221.07655 95.023119 
L 221.371985 85.737899 
L 222.531002 53.568 
L 222.592687 53.943217 
L 222.696576 56.812064 
L 222.86215 69.102368 
L 223.151092 111.176003 
L 223.57639 166.0139 
L 223.595869 166.156453 
L 223.638074 165.469548 
L 223.741964 158.394148 
L 223.975715 123.371611 
L 224.339328 78.625247 
L 224.530874 75.137908 
L 224.956172 73.247074 
L 225.248361 68.663772 
L 225.560029 65.36854 
L 225.641193 65.21178 
L 225.689891 65.300385 
L 225.79378 66.073588 
L 225.936628 69.125516 
L 226.102202 78.326388 
L 226.309981 104.792052 
L 226.783977 176.240752 
L 226.829428 175.270963 
L 226.943057 165.474983 
L 227.254726 112.945634 
L 227.572887 75.812892 
L 227.754694 72.739189 
L 227.793652 72.775545 
L 227.813132 72.828392 
L 228.212457 73.996675 
L 228.277388 73.963664 
L 228.433222 73.998842 
L 228.582563 74.387519 
L 228.767616 75.574023 
L 229.001367 78.773614 
L 229.179927 84.538269 
L 229.355241 98.965415 
L 229.595485 141.924965 
L 229.929879 192.365237 
L 229.933126 192.356918 
L 229.968838 191.463783 
L 230.072727 181.677261 
L 230.420108 119.184642 
L 230.764241 76.496669 
L 230.929815 73.135895 
L 230.942801 73.146423 
L 231.010979 73.507161 
L 231.34862 77.142357 
L 231.786903 83.599531 
L 232.163503 92.777338 
L 232.329076 105.111978 
L 232.549841 142.032087 
L 233.020591 230.307652 
L 233.059549 229.212898 
L 233.166685 216.511044 
L 234.062732 83.676449 
L 234.264017 79.142594 
L 234.286743 79.128706 
L 234.328948 79.245747 
L 234.478289 80.479024 
L 234.975011 86.798645 
L 235.127599 92.859003 
L 235.315898 111.416015 
L 235.611334 166.870959 
L 236.059357 266.448031 
L 236.124288 260.794944 
L 236.371025 202.224825 
L 236.819049 118.747916 
L 237.140457 94.713328 
L 237.422906 86.563182 
L 237.536535 86.104511 
L 237.57874 86.15676 
L 237.705356 86.711425 
L 237.870929 88.49682 
L 238.03001 93.176205 
L 238.231296 107.106544 
L 238.487773 142.652303 
L 238.84814 229.378261 
L 239.075398 294.34926 
L 239.133836 279.659711 
L 239.711721 142.207685 
L 240.052608 106.378582 
L 240.315578 97.482546 
L 240.474659 96.360011 
L 240.497385 96.382091 
L 240.585041 96.788052 
L 240.766848 98.912591 
L 240.951901 103.913281 
L 241.166173 116.971744 
L 241.435636 148.908305 
L 241.799249 223.101673 
L 242.071959 280.768273 
L 242.123904 275.734626 
L 243.101114 123.604307 
L 243.357591 116.937389 
L 243.429015 116.64425 
L 243.48096 116.80908 
L 243.597836 118.230285 
L 243.802368 123.885169 
L 244.055599 137.844829 
L 244.360774 168.750704 
L 244.763345 236.046788 
L 245.016576 270.469835 
L 245.049041 269.518967 
L 245.159424 256.480755 
L 245.899636 157.35909 
L 246.211305 143.308417 
L 246.409344 141.094036 
L 246.419084 141.09902 
L 246.477521 141.339486 
L 246.604137 143.078512 
L 246.802176 149.397507 
L 247.0619 165.887176 
L 247.402787 203.74186 
L 247.915741 267.217656 
L 247.964439 266.001065 
L 248.094301 253.570307 
L 248.834513 174.350099 
L 249.136442 163.990187 
L 249.28903 162.764404 
L 249.318249 162.811805 
L 249.402659 163.470031 
L 249.558493 166.83973 
L 249.792244 177.598578 
L 250.113652 204.149561 
L 250.759715 274.77628 
L 250.857111 270.118558 
L 251.188259 232.109425 
L 251.655761 191.229615 
L 251.983663 178.780705 
L 252.178455 176.827495 
L 252.191441 176.835386 
L 252.253126 177.11931 
L 252.379741 179.042044 
L 252.581027 186.132115 
L 252.86023 204.929364 
L 253.269295 250.098457 
L 253.561484 277.569115 
L 253.593949 277.01234 
L 253.697839 269.24036 
L 254.606871 186.967601 
L 254.895814 179.790657 
L 255.009443 179.187536 
L 255.051648 179.283638 
L 255.152291 180.262293 
L 255.324358 184.616455 
L 255.567849 197.337256 
L 255.898996 227.976329 
L 256.392471 284.159206 
L 256.463895 280.393996 
L 256.814522 236.911392 
L 257.291764 192.932863 
L 257.652131 177.293 
L 257.898868 173.799686 
L 257.921594 173.790174 
L 257.957306 173.891705 
L 258.054703 174.92007 
L 258.226769 179.59934 
L 258.473507 193.420341 
L 258.807901 226.620609 
L 259.272157 281.551313 
L 259.337088 278.532322 
L 259.583825 247.291897 
L 260.103273 192.523438 
L 260.466886 174.353334 
L 260.729856 169.787118 
L 260.772061 169.706823 
L 260.820759 169.85642 
L 260.927895 171.129913 
L 261.112948 176.507747 
L 261.369425 191.32536 
L 261.70382 225.270219 
L 262.177815 283.808007 
L 262.245993 279.85227 
L 262.619345 230.653569 
L 263.083601 186.666744 
L 263.440721 170.896691 
L 263.684212 167.386654 
L 263.703692 167.375058 
L 263.74265 167.480541 
L 263.843293 168.565559 
L 264.018607 173.375323 
L 264.265344 187.215994 
L 264.593245 220.082614 
L 265.08672 279.912263 
L 265.154897 276.569164 
L 265.411375 243.51167 
L 265.921082 189.308781 
L 266.278202 171.770182 
L 266.537926 167.410545 
L 266.573638 167.346269 
L 266.625583 167.504979 
L 266.735965 168.872922 
L 266.924265 174.570769 
L 267.187235 190.289832 
L 267.531369 226.080656 
L 267.989132 282.011625 
L 268.054063 278.905639 
L 268.31054 245.88755 
L 268.833233 190.419944 
L 269.200093 172.074384 
L 269.46631 167.351673 
L 269.505268 167.272568 
L 269.557213 167.433512 
L 269.667596 168.821014 
L 269.852649 174.500691 
L 270.109126 190.190261 
L 270.45326 226.842352 
L 270.891543 278.380235 
L 270.943488 276.556028 
L 271.109062 257.776515 
L 271.729152 189.342641 
L 272.079779 172.407892 
L 272.336256 168.244434 
L 272.371968 168.182551 
L 272.423913 168.338947 
L 272.534295 169.687723 
L 272.719348 175.223499 
L 272.979072 190.58741 
L 273.326452 226.30483 
L 273.787462 281.539006 
L 273.849146 278.742202 
L 274.082897 249.438237 
L 274.621824 191.829129 
L 274.988684 173.374312 
L 275.2549 168.606648 
L 275.297105 168.515965 
L 275.34905 168.679415 
L 275.459433 170.07444 
L 275.644486 175.784618 
L 275.904209 191.765195 
L 276.254836 229.224811 
L 276.680134 278.685075 
L 276.728832 277.08898 
L 276.884666 259.945064 
L 277.527482 189.663641 
L 277.878109 173.176538 
L 278.128093 169.345407 
L 278.160559 169.304327 
L 278.20601 169.437291 
L 278.313146 170.668755 
L 278.494953 175.873234 
L 278.75143 190.54682 
L 279.092317 224.69588 
L 279.572806 282.079834 
L 279.637737 278.826593 
L 279.9072 244.509212 
L 280.420154 191.4339 
L 280.783767 173.657434 
L 281.046737 169.148264 
L 281.082449 169.082511 
L 281.134394 169.243138 
L 281.244777 170.63132 
L 281.42983 176.330118 
L 281.686307 192.047079 
L 282.033687 228.934318 
L 282.462231 279.085409 
L 282.514176 277.344073 
L 282.676503 259.082784 
L 283.29984 190.65579 
L 283.653713 173.524046 
L 283.910191 169.385104 
L 283.945903 169.330594 
L 283.994601 169.478696 
L 284.101737 170.74665 
L 284.28679 176.144668 
L 284.546513 191.254425 
L 284.890647 226.259326 
L 285.35815 282.272019 
L 285.419834 279.278485 
L 285.669818 247.56235 
L 286.195759 192.023762 
L 286.562618 173.667614 
L 286.828835 168.904806 
L 286.87104 168.816012 
L 286.922985 168.9821 
L 287.033367 170.382289 
L 287.21842 176.097974 
L 287.474897 191.844664 
L 287.822278 228.842766 
L 288.250822 279.093563 
L 288.302767 277.311031 
L 288.46834 258.521173 
L 289.088431 190.380497 
L 289.442304 173.245577 
L 289.698781 169.082203 
L 289.734493 169.024397 
L 289.783191 169.168672 
L 289.890327 170.431376 
L 290.072134 175.697384 
L 290.328611 190.443689 
L 290.669498 224.729565 
L 291.14674 282.193048 
L 291.214918 278.726162 
L 291.50386 241.591652 
L 292.007075 190.330243 
L 292.370688 172.936679 
L 292.627165 168.688764 
L 292.659631 168.634419 
L 292.708329 168.775764 
L 292.815465 170.060913 
L 292.997271 175.465733 
L 293.250502 190.550464 
L 293.591389 226.027112 
L 294.042659 279.009891 
L 294.09785 276.898174 
L 294.279657 255.631643 
L 294.870528 190.875144 
L 295.227648 173.32022 
L 295.484125 169.052369 
L 295.523084 168.977451 
L 295.575028 169.133079 
L 295.685411 170.478298 
L 295.870464 175.99265 
L 296.130188 191.300141 
L 296.474321 226.562522 
L 296.935331 282.129117 
L 297.000262 279.093595 
L 297.253492 246.912645 
L 297.776186 191.801036 
L 298.143046 173.476569 
L 298.409263 168.748672 
L 298.451468 168.666114 
L 298.500166 168.820187 
L 298.607302 170.134367 
L 298.789108 175.592967 
L 299.045585 191.020683 
L 299.389719 227.171369 
L 299.831249 278.984052 
L 299.886441 276.942706 
L 300.065001 256.194706 
L 300.662365 190.748684 
L 301.016239 173.392199 
L 301.272716 169.114242 
L 301.311674 169.037505 
L 301.363619 169.190269 
L 301.470755 170.468129 
L 301.655808 175.891559 
L 301.915532 191.053754 
L 302.259665 226.124234 
L 302.727168 282.13424 
L 302.788852 279.146763 
L 303.038836 247.438189 
L 303.564777 191.879139 
L 303.931636 173.539076 
L 304.197853 168.799727 
L 304.240058 168.715072 
L 304.288756 168.866634 
L 304.395892 170.175063 
L 304.577699 175.623339 
L 304.834176 191.034759 
L 305.17831 227.160871 
L 305.61984 278.999555 
L 305.675031 276.978882 
L 305.853591 256.249864 
L 306.450956 190.799111 
L 306.804829 173.428078 
L 307.061306 169.140012 
L 307.103511 169.062901 
L 307.152209 169.213357 
L 307.259345 170.48827 
L 307.444399 175.905528 
L 307.704122 191.053386 
L 308.048256 226.105114 
L 308.515759 282.152374 
L 308.577443 279.18301 
L 308.827427 247.482641 
L 309.353367 191.907232 
L 309.720227 173.55509 
L 309.986444 168.80603 
L 310.028649 168.719674 
L 310.080593 168.888892 
L 310.190976 170.296296 
L 310.376029 176.025732 
L 310.635753 192.053305 
L 310.98638 229.644413 
L 311.408431 279.009808 
L 311.460375 277.231267 
L 311.625949 258.472607 
L 312.246039 190.359251 
L 312.599913 173.245911 
L 312.85639 169.108671 
L 312.892102 169.053853 
L 312.9408 169.201837 
L 313.047936 170.47153 
L 313.232989 175.880496 
L 313.492713 191.01525 
L 313.836847 226.047425 
L 314.304349 282.155924 
L 314.36928 278.936158 
L 314.635497 244.940757 
L 315.151697 191.235839 
L 315.515311 173.360526 
L 315.778281 168.782709 
L 315.817239 168.707976 
L 315.869184 168.87445 
L 315.979567 170.27576 
L 316.16462 175.994144 
L 316.421097 191.741349 
L 316.768477 228.7291 
L 317.197021 279.007409 
L 317.248966 277.261846 
L 317.411293 258.96849 
L 318.03463 190.385255 
L 318.388503 173.251549 
L 318.64498 169.102155 
L 318.680692 169.045355 
L 318.729391 169.190505 
L 318.836527 170.453583 
L 319.018333 175.719454 
L 319.27481 190.473347 
L 319.615697 224.764089 
L 320.09294 282.152515 
L 320.157871 278.979596 
L 320.420841 245.437434 
L 320.937041 191.498422 
L 321.303901 173.371672 
L 321.566871 168.780778 
L 321.60583 168.703887 
L 321.657775 168.867388 
L 321.768157 170.262089 
L 321.95321 175.968434 
L 322.209687 191.696372 
L 322.557068 228.658805 
L 322.988858 279.004289 
L 323.040803 277.075853 
L 323.21287 257.299508 
L 323.819974 190.65077 
L 324.173847 173.359097 
L 324.430324 169.116195 
L 324.469283 169.045572 
L 324.517981 169.188136 
L 324.625117 170.445104 
L 324.806924 175.699525 
L 325.063401 190.435027 
L 325.404288 224.701787 
L 325.88153 282.150677 
L 325.949708 278.732718 
L 326.232157 242.503351 
L 326.738618 190.62311 
L 327.102231 173.099618 
L 327.361955 168.760093 
L 327.39442 168.705889 
L 327.443119 168.847376 
L 327.550255 170.132815 
L 327.732061 175.539095 
L 327.985292 190.626614 
L 328.326179 226.092295 
L 328.777449 279.004653 
L 328.83264 276.882171 
L 329.014447 255.620723 
L 329.605318 190.918677 
L 329.962438 173.375271 
L 330.218915 169.120209 
L 330.257873 169.047637 
L 330.309818 169.206358 
L 330.420201 170.557588 
L 330.605254 176.079386 
L 330.864977 191.395108 
L 331.209111 226.670752 
L 331.670121 282.150881 
L 331.735052 279.065226 
L 331.991529 246.432927 
L 332.514223 191.57054 
L 332.881082 173.404604 
L 333.144052 168.788484 
L 333.183011 168.707406 
L 333.234956 168.865159 
L 333.345338 170.247215 
L 333.530391 175.930875 
L 333.786868 191.622517 
L 334.134249 228.53701 
L 334.566039 279.0059 
L 334.617984 277.141509 
L 334.786804 257.863601 
L 335.400401 190.491269 
L 335.754275 173.295813 
L 336.010752 169.110213 
L 336.046464 169.047984 
L 336.098409 169.203961 
L 336.208791 170.549133 
L 336.393844 176.060301 
L 336.653568 191.359082 
L 336.997702 226.611661 
L 337.458711 282.150761 
L 337.523642 279.106867 
L 337.776873 246.928913 
L 338.299567 191.836044 
L 338.666426 173.517344 
L 338.932643 168.790328 
L 338.974848 168.707899 
L 339.023546 168.862127 
L 339.130682 170.176671 
L 339.312489 175.635996 
L 339.568966 191.065473 
L 339.9131 227.218681 
L 340.35463 279.0063 
L 340.409821 276.950265 
L 340.588381 256.185019 
L 341.185745 190.754839 
L 341.539619 173.403134 
L 341.796096 169.123997 
L 341.835055 169.047445 
L 341.886999 169.200669 
L 341.997382 170.539696 
L 342.182435 176.039942 
L 342.442159 191.321506 
L 342.786292 226.551127 
L 343.250548 282.150172 
L 343.312233 279.148506 
L 343.562217 247.426385 
L 344.088157 191.870051 
L 344.455017 173.531489 
L 344.721233 168.791891 
L 344.763439 168.707228 
L 344.812137 168.858798 
L 344.919273 170.16726 
L 345.101079 175.615471 
L 345.357556 191.026872 
L 345.70169 227.15653 
L 346.14322 279.005873 
L 346.198412 276.983935 
L 346.376972 256.249576 
L 346.974336 190.78885 
L 347.328209 173.416851 
L 347.584687 169.125695 
L 347.626892 169.047933 
L 347.67559 169.197658 
L 347.782726 170.471171 
L 347.967779 175.886984 
L 348.227503 191.033879 
L 348.571636 226.083245 
L 349.039139 282.150967 
L 349.100823 279.190018 
L 349.347561 247.925144 
L 349.876748 191.904522 
L 350.243607 173.546183 
L 350.509824 168.793926 
L 350.552029 168.707016 
L 350.603974 168.875522 
L 350.714356 170.281313 
L 350.899409 176.00772 
L 351.159133 192.030408 
L 351.50976 229.616134 
L 351.931811 279.005183 
L 351.983756 277.237714 
L 352.149329 258.490057 
L 352.76942 190.363091 
L 353.123293 173.243291 
L 353.37977 169.103195 
L 353.415482 169.04783 
L 353.46418 169.194988 
L 353.571316 170.462595 
L 353.756369 175.867575 
L 354.016093 190.997129 
L 354.360227 226.023183 
L 354.827729 282.151575 
L 354.89266 278.947871 
L 355.158877 244.960838 
L 355.675078 191.245631 
L 356.038691 173.363884 
L 356.301661 168.782354 
L 356.34062 168.707024 
L 356.392564 168.872676 
L 356.502947 170.272168 
L 356.688 175.987236 
L 356.944477 191.729006 
L 357.291857 228.708992 
L 357.720401 279.004326 
L 357.772346 277.269339 
L 357.934673 258.987535 
L 358.561257 190.168835 
L 358.91513 173.164687 
L 359.168361 169.104943 
L 359.204073 169.047754 
L 359.252771 169.192341 
L 359.359907 170.45403 
L 359.541713 175.717012 
L 359.798191 190.465791 
L 360.139078 224.750138 
L 360.61632 282.151875 
L 360.684497 278.698828 
L 360.970193 242.028587 
L 361.473408 190.597743 
L 361.837021 173.089643 
L 362.096745 168.759825 
L 362.12921 168.706965 
L 362.177908 168.850524 
L 362.285044 170.140697 
L 362.466851 175.555644 
L 362.720081 190.657157 
L 363.060969 226.141391 
L 363.512239 279.004983 
L 363.56743 276.855687 
L 363.752483 255.13303 
L 364.340108 190.891679 
L 364.697228 173.364449 
L 364.953705 169.118667 
L 364.992663 169.04761 
L 365.041361 169.189628 
L 365.148497 170.445401 
L 365.330304 175.697732 
L 365.586781 190.429492 
L 365.927668 224.690711 
L 366.404911 282.151739 
L 366.473088 278.742466 
L 366.755537 242.517206 
L 367.261999 190.630999 
L 367.625612 173.103607 
L 367.885335 168.761445 
L 367.917801 168.706858 
L 367.966499 168.847754 
L 368.073635 170.131843 
L 368.255441 175.53571 
L 368.508672 190.619463 
L 368.849559 226.080219 
L 369.300829 279.005657 
L 369.35602 276.89003 
L 369.537827 255.634513 
L 370.128698 190.925932 
L 370.485818 173.378341 
L 370.742295 169.120515 
L 370.781254 169.047475 
L 370.833199 169.205553 
L 370.943581 170.555381 
L 371.128634 176.07482 
L 371.388358 191.386945 
L 371.732492 226.657514 
L 372.193501 282.151194 
L 372.258432 279.074662 
L 372.514909 246.446669 
L 373.037603 191.577647 
L 373.404463 173.407192 
L 373.667433 168.788329 
L 373.706391 168.706793 
L 373.758336 168.863912 
L 373.868719 170.244549 
L 374.053772 175.925609 
L 374.310249 191.613143 
L 374.657629 228.52246 
L 375.08942 279.005999 
L 375.141364 277.148932 
L 375.310185 257.878118 
L 375.923782 190.498448 
L 376.277655 173.298354 
L 376.534132 169.110039 
L 376.569844 169.04739 
L 376.621789 169.202727 
L 376.732172 170.546452 
L 376.917225 176.055021 
L 377.176948 191.349801 
L 377.521082 226.597197 
L 377.982092 282.150279 
L 378.047023 279.116512 
L 378.300253 246.943672 
L 378.822947 191.843757 
L 379.189807 173.520359 
L 379.456023 168.790383 
L 379.498228 168.707437 
L 379.546927 168.861051 
L 379.654063 170.174192 
L 379.835869 175.630938 
L 380.092346 191.056174 
L 380.43648 227.20386 
L 380.87801 279.006022 
L 380.933201 276.958034 
L 381.111761 256.20011 
L 381.709126 190.762759 
L 382.062999 173.406259 
L 382.319476 169.12434 
L 382.358435 169.047335 
L 382.41038 169.199933 
L 382.517516 170.478005 
L 382.702569 175.90219 
L 382.962292 191.062388 
L 383.306426 226.129551 
L 383.773929 282.150269 
L 383.835613 279.158148 
L 384.085597 247.44146 
L 384.611537 191.878141 
L 384.978397 173.535021 
L 385.244614 168.792459 
L 385.286819 168.70727 
L 385.335517 168.858216 
L 385.442653 170.165262 
L 385.62446 175.610914 
L 385.880937 191.018141 
L 386.225071 227.142266 
L 386.666601 279.005713 
L 386.721792 276.991689 
L 386.900352 256.26457 
L 387.497716 190.796915 
L 387.85159 173.420247 
L 388.108067 169.126285 
L 388.150272 169.048026 
L 388.19897 169.197159 
L 388.306106 170.469314 
L 388.491159 175.882647 
L 388.750883 191.025543 
L 389.095017 226.069478 
L 389.562519 282.151187 
L 389.62745 278.915044 
L 389.896913 244.481887 
L 390.409868 191.219582 
L 390.773481 173.352778 
L 391.036451 168.780856 
L 391.075409 168.707122 
L 391.124108 168.855401 
L 391.231244 170.156355 
L 391.41305 175.590917 
L 391.669527 190.98014 
L 392.013661 227.080691 
L 392.455191 279.00507 
L 392.510383 277.025106 
L 392.685696 256.765114 
L 393.286307 190.831101 
L 393.643427 173.339858 
L 393.899904 169.115392 
L 393.938863 169.047846 
L 393.987561 169.194409 
L 394.094697 170.460648 
L 394.276503 175.731815 
L 394.53298 190.493699 
L 394.873868 224.795878 
L 395.35111 282.151719 
L 395.416041 278.957679 
L 395.682257 244.97544 
L 396.198458 191.253417 
L 396.562071 173.367186 
L 396.825041 168.782806 
L 396.864 168.707 
L 396.915945 168.871999 
L 397.026327 170.270043 
L 397.21138 175.982491 
L 397.467857 191.720092 
L 397.815238 228.694676 
L 398.247028 279.004216 
L 398.295727 277.276597 
L 398.458054 259.002259 
L 398.487273 255.083359 
L 398.487273 255.083359 
" style="fill:none;stroke:#1f77b4;stroke-linecap:square;stroke-width:1.5;"/>
   </g>
   <g id="patch_3">
    <path d="M 57.6 307.584 
L 57.6 41.472 
" style="fill:none;stroke:#000000;stroke-linecap:square;stroke-linejoin:miter;stroke-width:0.8;"/>
   </g>
   <g id="patch_4">
    <path d="M 414.72 307.584 
L 414.72 41.472 
" style="fill:none;stroke:#000000;stroke-linecap:square;stroke-linejoin:miter;stroke-width:0.8;"/>
   </g>
   <g id="patch_5">
    <path d="M 57.6 307.584 
L 414.72 307.584 
" style="fill:none;stroke:#000000;stroke-linecap:square;stroke-linejoin:miter;stroke-width:0.8;"/>
   </g>
   <g id="patch_6">
    <path d="M 57.6 41.472 
L 414.72 41.472 
" style="fill:none;stroke:#000000;stroke-linecap:square;stroke-linejoin:miter;stroke-width:0.8;"/>
   </g>
  </g>
 </g>
 <defs>
  <clipPath id="p36366280f1">
   <rect height="266.112" width="357.12" x="57.6" y="41.472"/>
  </clipPath>
 </defs>
</svg>
