<?xml version="1.0" encoding="utf-8" standalone="no"?>
<!DOCTYPE svg PUBLIC "-//W3C//DTD SVG 1.1//EN"
  "http://www.w3.org/Graphics/SVG/1.1/DTD/svg11.dtd">
<!-- Created with matplotlib (https://matplotlib.org/) -->
<svg height="345.6pt" version="1.1" viewBox="0 0 460.8 345.6" width="460.8pt" xmlns="http://www.w3.org/2000/svg" xmlns:xlink="http://www.w3.org/1999/xlink">
 <metadata>
  <rdf:RDF xmlns:cc="http://creativecommons.org/ns#" xmlns:dc="http://purl.org/dc/elements/1.1/" xmlns:rdf="http://www.w3.org/1999/02/22-rdf-syntax-ns#">
   <cc:Work>
    <dc:type rdf:resource="http://purl.org/dc/dcmitype/StillImage"/>
    <dc:date>2020-07-23T22:07:17.110045</dc:date>
    <dc:format>image/svg+xml</dc:format>
    <dc:creator>
     <cc:Agent>
      <dc:title>Matplotlib v3.3.0, https://matplotlib.org/</dc:title>
     </cc:Agent>
    </dc:creator>
   </cc:Work>
  </rdf:RDF>
 </metadata>
 <defs>
  <style type="text/css">*{stroke-linecap:butt;stroke-linejoin:round;}</style>
 </defs>
 <g id="figure_1">
  <g id="patch_1">
   <path d="M 0 345.6 
L 460.8 345.6 
L 460.8 0 
L 0 0 
z
" style="fill:#ffffff;"/>
  </g>
  <g id="axes_1">
   <g id="patch_2">
    <path d="M 57.6 307.584 
L 414.72 307.584 
L 414.72 41.472 
L 57.6 41.472 
z
" style="fill:#ffffff;"/>
   </g>
   <g id="matplotlib.axis_1">
    <g id="xtick_1">
     <g id="line2d_1">
      <defs>
       <path d="M 0 0 
L 0 3.5 
" id="m9dfd531306" style="stroke:#000000;stroke-width:0.8;"/>
      </defs>
      <g>
       <use style="stroke:#000000;stroke-width:0.8;" x="73.832727" xlink:href="#m9dfd531306" y="307.584"/>
      </g>
     </g>
     <g id="text_1">
      <!-- $\mathdefault{0}$ -->
      <g transform="translate(71.34206 321.502498)scale(0.1 -0.1)">
       <defs>
        <path d="M 42 31.640625 
C 42 37.75 41.90625 48.125 37.703125 56.109375 
C 34 63.109375 28.09375 65.59375 22.90625 65.59375 
C 18.09375 65.59375 12 63.40625 8.203125 56.203125 
C 4.203125 48.71875 3.796875 39.4375 3.796875 31.640625 
C 3.796875 25.953125 3.90625 17.28125 7 9.671875 
C 11.296875 -0.609375 19 -2 22.90625 -2 
C 27.5 -2 34.5 -0.109375 38.59375 9.375 
C 41.59375 16.28125 42 24.359375 42 31.640625 
z
M 22.90625 -0.40625 
C 16.5 -0.40625 12.703125 5.078125 11.296875 12.6875 
C 10.203125 18.5625 10.203125 27.15625 10.203125 32.75 
C 10.203125 40.4375 10.203125 46.828125 11.5 52.921875 
C 13.40625 61.390625 19 64 22.90625 64 
C 27 64 32.296875 61.296875 34.203125 53.125 
C 35.5 47.4375 35.59375 40.734375 35.59375 32.75 
C 35.59375 26.25 35.59375 18.265625 34.40625 12.375 
C 32.296875 1.484375 26.40625 -0.40625 22.90625 -0.40625 
z
" id="CMR17-48"/>
       </defs>
       <use transform="scale(0.996264)" xlink:href="#CMR17-48"/>
      </g>
     </g>
    </g>
    <g id="xtick_2">
     <g id="line2d_2">
      <g>
       <use style="stroke:#000000;stroke-width:0.8;" x="114.414545" xlink:href="#m9dfd531306" y="307.584"/>
      </g>
     </g>
     <g id="text_2">
      <!-- $\mathdefault{25000}$ -->
      <g transform="translate(101.961207 321.502498)scale(0.1 -0.1)">
       <defs>
        <path d="M 41.703125 15.453125 
L 39.90625 15.453125 
C 38.90625 8.375 38.09375 7.171875 37.703125 6.5625 
C 37.203125 5.765625 30 5.765625 28.59375 5.765625 
L 9.40625 5.765625 
C 13 9.671875 20 16.75 28.5 24.953125 
C 34.59375 30.734375 41.703125 37.53125 41.703125 47.421875 
C 41.703125 59.21875 32.296875 66 21.796875 66 
C 10.796875 66 4.09375 56.3125 4.09375 47.34375 
C 4.09375 43.4375 7 42.9375 8.203125 42.9375 
C 9.203125 42.9375 12.203125 43.546875 12.203125 47.03125 
C 12.203125 50.109375 9.59375 51 8.203125 51 
C 7.59375 51 7 50.90625 6.59375 50.703125 
C 8.5 59.21875 14.296875 63.40625 20.40625 63.40625 
C 29.09375 63.40625 34.796875 56.515625 34.796875 47.421875 
C 34.796875 38.734375 29.703125 31.25 24 24.75 
L 4.09375 2.28125 
L 4.09375 0 
L 39.296875 0 
z
" id="CMR17-50"/>
        <path d="M 11.40625 57.6875 
C 12.40625 57.28125 16.5 56 20.703125 56 
C 30 56 35.09375 61.109375 38 64.0625 
C 38 64.953125 38 65.5 37.40625 65.5 
C 37.296875 65.5 37.09375 65.5 36.296875 65.046875 
C 32.796875 63.40625 28.703125 62.078125 23.703125 62.078125 
C 20.703125 62.078125 16.203125 62.484375 11.296875 64.671875 
C 10.203125 65.171875 10 65.171875 9.90625 65.171875 
C 9.40625 65.171875 9.296875 65.0625 9.296875 63.078125 
L 9.296875 34.421875 
C 9.296875 32.640625 9.296875 32.140625 10.296875 32.140625 
C 10.796875 32.140625 11 32.34375 11.5 33.03125 
C 14.703125 37.515625 19.09375 39.40625 24.09375 39.40625 
C 27.59375 39.40625 35.09375 37.21875 35.09375 20.140625 
C 35.09375 16.953125 35.09375 11.171875 32.09375 6.578125 
C 29.59375 2.484375 25.703125 0.390625 21.40625 0.390625 
C 14.796875 0.390625 8.09375 5 6.296875 12.71875 
C 6.703125 12.609375 7.5 12.421875 7.90625 12.421875 
C 9.203125 12.421875 11.703125 13.125 11.703125 16.21875 
C 11.703125 18.90625 9.796875 20 7.90625 20 
C 5.59375 20 4.09375 18.59375 4.09375 15.796875 
C 4.09375 7.09375 11 -2 21.59375 -2 
C 31.90625 -2 41.703125 6.875 41.703125 19.75 
C 41.703125 31.71875 33.90625 41 24.203125 41 
C 19.09375 41 14.796875 39.109375 11.40625 35.53125 
z
" id="CMR17-53"/>
       </defs>
       <use transform="scale(0.996264)" xlink:href="#CMR17-50"/>
       <use transform="translate(45.690477 0)scale(0.996264)" xlink:href="#CMR17-53"/>
       <use transform="translate(91.380954 0)scale(0.996264)" xlink:href="#CMR17-48"/>
       <use transform="translate(137.071431 0)scale(0.996264)" xlink:href="#CMR17-48"/>
       <use transform="translate(182.761908 0)scale(0.996264)" xlink:href="#CMR17-48"/>
      </g>
     </g>
    </g>
    <g id="xtick_3">
     <g id="line2d_3">
      <g>
       <use style="stroke:#000000;stroke-width:0.8;" x="154.996364" xlink:href="#m9dfd531306" y="307.584"/>
      </g>
     </g>
     <g id="text_3">
      <!-- $\mathdefault{50000}$ -->
      <g transform="translate(142.543026 321.502498)scale(0.1 -0.1)">
       <use transform="scale(0.996264)" xlink:href="#CMR17-53"/>
       <use transform="translate(45.690477 0)scale(0.996264)" xlink:href="#CMR17-48"/>
       <use transform="translate(91.380954 0)scale(0.996264)" xlink:href="#CMR17-48"/>
       <use transform="translate(137.071431 0)scale(0.996264)" xlink:href="#CMR17-48"/>
       <use transform="translate(182.761908 0)scale(0.996264)" xlink:href="#CMR17-48"/>
      </g>
     </g>
    </g>
    <g id="xtick_4">
     <g id="line2d_4">
      <g>
       <use style="stroke:#000000;stroke-width:0.8;" x="195.578182" xlink:href="#m9dfd531306" y="307.584"/>
      </g>
     </g>
     <g id="text_4">
      <!-- $\mathdefault{75000}$ -->
      <g transform="translate(183.124844 321.502498)scale(0.1 -0.1)">
       <defs>
        <path d="M 45.09375 61.578125 
L 45.09375 63.765625 
L 21.59375 63.765625 
C 9.90625 63.765625 9.703125 65.078125 9.296875 67 
L 7.5 67 
L 4.59375 48.34375 
L 6.40625 48.34375 
C 6.703125 50.234375 7.40625 55.3125 8.59375 57.203125 
C 9.203125 58 16.59375 58 18.296875 58 
L 40.296875 58 
L 29.203125 41.578125 
C 21.796875 30.53125 16.703125 15.609375 16.703125 2.578125 
C 16.703125 1.390625 16.703125 -2 20.296875 -2 
C 23.90625 -2 23.90625 1.390625 23.90625 2.671875 
L 23.90625 7.265625 
C 23.90625 23.5625 26.703125 34.3125 31.296875 41.1875 
z
" id="CMR17-55"/>
       </defs>
       <use transform="scale(0.996264)" xlink:href="#CMR17-55"/>
       <use transform="translate(45.690477 0)scale(0.996264)" xlink:href="#CMR17-53"/>
       <use transform="translate(91.380954 0)scale(0.996264)" xlink:href="#CMR17-48"/>
       <use transform="translate(137.071431 0)scale(0.996264)" xlink:href="#CMR17-48"/>
       <use transform="translate(182.761908 0)scale(0.996264)" xlink:href="#CMR17-48"/>
      </g>
     </g>
    </g>
    <g id="xtick_5">
     <g id="line2d_5">
      <g>
       <use style="stroke:#000000;stroke-width:0.8;" x="236.16" xlink:href="#m9dfd531306" y="307.584"/>
      </g>
     </g>
     <g id="text_5">
      <!-- $\mathdefault{100000}$ -->
      <g transform="translate(221.215994 321.502498)scale(0.1 -0.1)">
       <defs>
        <path d="M 26.59375 63.40625 
C 26.59375 65.5 26.5 65.5 25.09375 65.5 
C 21.203125 61.1875 15.296875 59.796875 9.703125 59.796875 
C 9.40625 59.796875 8.90625 59.796875 8.796875 59.5 
C 8.703125 59.296875 8.703125 59.09375 8.703125 57 
C 11.796875 57 17 57.59375 21 59.984375 
L 21 7.203125 
C 21 3.6875 20.796875 2.5 12.203125 2.5 
L 9.203125 2.5 
L 9.203125 0 
C 14 0 19 0 23.796875 0 
C 28.59375 0 33.59375 0 38.40625 0 
L 38.40625 2.5 
L 35.40625 2.5 
C 26.796875 2.5 26.59375 3.59375 26.59375 7.15625 
z
" id="CMR17-49"/>
       </defs>
       <use transform="scale(0.996264)" xlink:href="#CMR17-49"/>
       <use transform="translate(45.690477 0)scale(0.996264)" xlink:href="#CMR17-48"/>
       <use transform="translate(91.380954 0)scale(0.996264)" xlink:href="#CMR17-48"/>
       <use transform="translate(137.071431 0)scale(0.996264)" xlink:href="#CMR17-48"/>
       <use transform="translate(182.761908 0)scale(0.996264)" xlink:href="#CMR17-48"/>
       <use transform="translate(228.452386 0)scale(0.996264)" xlink:href="#CMR17-48"/>
      </g>
     </g>
    </g>
    <g id="xtick_6">
     <g id="line2d_6">
      <g>
       <use style="stroke:#000000;stroke-width:0.8;" x="276.741818" xlink:href="#m9dfd531306" y="307.584"/>
      </g>
     </g>
     <g id="text_6">
      <!-- $\mathdefault{125000}$ -->
      <g transform="translate(261.797812 321.502498)scale(0.1 -0.1)">
       <use transform="scale(0.996264)" xlink:href="#CMR17-49"/>
       <use transform="translate(45.690477 0)scale(0.996264)" xlink:href="#CMR17-50"/>
       <use transform="translate(91.380954 0)scale(0.996264)" xlink:href="#CMR17-53"/>
       <use transform="translate(137.071431 0)scale(0.996264)" xlink:href="#CMR17-48"/>
       <use transform="translate(182.761908 0)scale(0.996264)" xlink:href="#CMR17-48"/>
       <use transform="translate(228.452386 0)scale(0.996264)" xlink:href="#CMR17-48"/>
      </g>
     </g>
    </g>
    <g id="xtick_7">
     <g id="line2d_7">
      <g>
       <use style="stroke:#000000;stroke-width:0.8;" x="317.323636" xlink:href="#m9dfd531306" y="307.584"/>
      </g>
     </g>
     <g id="text_7">
      <!-- $\mathdefault{150000}$ -->
      <g transform="translate(302.379631 321.502498)scale(0.1 -0.1)">
       <use transform="scale(0.996264)" xlink:href="#CMR17-49"/>
       <use transform="translate(45.690477 0)scale(0.996264)" xlink:href="#CMR17-53"/>
       <use transform="translate(91.380954 0)scale(0.996264)" xlink:href="#CMR17-48"/>
       <use transform="translate(137.071431 0)scale(0.996264)" xlink:href="#CMR17-48"/>
       <use transform="translate(182.761908 0)scale(0.996264)" xlink:href="#CMR17-48"/>
       <use transform="translate(228.452386 0)scale(0.996264)" xlink:href="#CMR17-48"/>
      </g>
     </g>
    </g>
    <g id="xtick_8">
     <g id="line2d_8">
      <g>
       <use style="stroke:#000000;stroke-width:0.8;" x="357.905455" xlink:href="#m9dfd531306" y="307.584"/>
      </g>
     </g>
     <g id="text_8">
      <!-- $\mathdefault{175000}$ -->
      <g transform="translate(342.961449 321.502498)scale(0.1 -0.1)">
       <use transform="scale(0.996264)" xlink:href="#CMR17-49"/>
       <use transform="translate(45.690477 0)scale(0.996264)" xlink:href="#CMR17-55"/>
       <use transform="translate(91.380954 0)scale(0.996264)" xlink:href="#CMR17-53"/>
       <use transform="translate(137.071431 0)scale(0.996264)" xlink:href="#CMR17-48"/>
       <use transform="translate(182.761908 0)scale(0.996264)" xlink:href="#CMR17-48"/>
       <use transform="translate(228.452386 0)scale(0.996264)" xlink:href="#CMR17-48"/>
      </g>
     </g>
    </g>
    <g id="xtick_9">
     <g id="line2d_9">
      <g>
       <use style="stroke:#000000;stroke-width:0.8;" x="398.487273" xlink:href="#m9dfd531306" y="307.584"/>
      </g>
     </g>
     <g id="text_9">
      <!-- $\mathdefault{200000}$ -->
      <g transform="translate(383.543267 321.502498)scale(0.1 -0.1)">
       <use transform="scale(0.996264)" xlink:href="#CMR17-50"/>
       <use transform="translate(45.690477 0)scale(0.996264)" xlink:href="#CMR17-48"/>
       <use transform="translate(91.380954 0)scale(0.996264)" xlink:href="#CMR17-48"/>
       <use transform="translate(137.071431 0)scale(0.996264)" xlink:href="#CMR17-48"/>
       <use transform="translate(182.761908 0)scale(0.996264)" xlink:href="#CMR17-48"/>
       <use transform="translate(228.452386 0)scale(0.996264)" xlink:href="#CMR17-48"/>
      </g>
     </g>
    </g>
   </g>
   <g id="matplotlib.axis_2">
    <g id="ytick_1">
     <g id="line2d_10">
      <defs>
       <path d="M 0 0 
L -3.5 0 
" id="ma2f8b4c799" style="stroke:#000000;stroke-width:0.8;"/>
      </defs>
      <g>
       <use style="stroke:#000000;stroke-width:0.8;" x="57.6" xlink:href="#ma2f8b4c799" y="297.324524"/>
      </g>
     </g>
     <g id="text_10">
      <!-- $\mathdefault{0.00}$ -->
      <g transform="translate(32.888586 300.783773)scale(0.1 -0.1)">
       <defs>
        <path d="M 18.40625 4.796875 
C 18.40625 7.6875 16 9.671875 13.59375 9.671875 
C 10.703125 9.671875 8.703125 7.28125 8.703125 4.890625 
C 8.703125 2 11.09375 0 13.5 0 
C 16.40625 0 18.40625 2.390625 18.40625 4.796875 
z
" id="CMMI12-58"/>
       </defs>
       <use transform="scale(0.996264)" xlink:href="#CMR17-48"/>
       <use transform="translate(45.690477 0)scale(0.996264)" xlink:href="#CMMI12-58"/>
       <use transform="translate(72.787654 0)scale(0.996264)" xlink:href="#CMR17-48"/>
       <use transform="translate(118.478131 0)scale(0.996264)" xlink:href="#CMR17-48"/>
      </g>
     </g>
    </g>
    <g id="ytick_2">
     <g id="line2d_11">
      <g>
       <use style="stroke:#000000;stroke-width:0.8;" x="57.6" xlink:href="#ma2f8b4c799" y="263.561903"/>
      </g>
     </g>
     <g id="text_11">
      <!-- $\mathdefault{0.02}$ -->
      <g transform="translate(32.888586 267.021152)scale(0.1 -0.1)">
       <use transform="scale(0.996264)" xlink:href="#CMR17-48"/>
       <use transform="translate(45.690477 0)scale(0.996264)" xlink:href="#CMMI12-58"/>
       <use transform="translate(72.787654 0)scale(0.996264)" xlink:href="#CMR17-48"/>
       <use transform="translate(118.478131 0)scale(0.996264)" xlink:href="#CMR17-50"/>
      </g>
     </g>
    </g>
    <g id="ytick_3">
     <g id="line2d_12">
      <g>
       <use style="stroke:#000000;stroke-width:0.8;" x="57.6" xlink:href="#ma2f8b4c799" y="229.799281"/>
      </g>
     </g>
     <g id="text_12">
      <!-- $\mathdefault{0.04}$ -->
      <g transform="translate(32.888586 233.25853)scale(0.1 -0.1)">
       <defs>
        <path d="M 33.59375 64.40625 
C 33.59375 66.5 33.5 66.5 31.703125 66.5 
L 2 19.59375 
L 2 17 
L 27.796875 17 
L 27.796875 7.140625 
C 27.796875 3.5 27.59375 2.5 20.59375 2.5 
L 18.703125 2.5 
L 18.703125 0 
C 21.90625 0 27.296875 0 30.703125 0 
C 34.09375 0 39.5 0 42.703125 0 
L 42.703125 2.5 
L 40.796875 2.5 
C 33.796875 2.5 33.59375 3.5 33.59375 7.140625 
L 33.59375 17 
L 43.796875 17 
L 43.796875 19.59375 
L 33.59375 19.59375 
z
M 28.09375 57.859375 
L 28.09375 19.59375 
L 4 19.59375 
z
" id="CMR17-52"/>
       </defs>
       <use transform="scale(0.996264)" xlink:href="#CMR17-48"/>
       <use transform="translate(45.690477 0)scale(0.996264)" xlink:href="#CMMI12-58"/>
       <use transform="translate(72.787654 0)scale(0.996264)" xlink:href="#CMR17-48"/>
       <use transform="translate(118.478131 0)scale(0.996264)" xlink:href="#CMR17-52"/>
      </g>
     </g>
    </g>
    <g id="ytick_4">
     <g id="line2d_13">
      <g>
       <use style="stroke:#000000;stroke-width:0.8;" x="57.6" xlink:href="#ma2f8b4c799" y="196.03666"/>
      </g>
     </g>
     <g id="text_13">
      <!-- $\mathdefault{0.06}$ -->
      <g transform="translate(32.888586 199.495909)scale(0.1 -0.1)">
       <defs>
        <path d="M 10.59375 34 
C 10.59375 57.65625 21.796875 63 28.296875 63 
C 30.40625 63 35.5 62.640625 37.5 59 
C 35.90625 59 32.90625 59 32.90625 55.515625 
C 32.90625 52.828125 35.09375 51.921875 36.5 51.921875 
C 37.40625 51.921875 40.09375 52.3125 40.09375 55.625 
C 40.09375 61.78125 35.09375 65.296875 28.203125 65.296875 
C 16.296875 65.296875 3.796875 52.96875 3.796875 31 
C 3.796875 3.953125 15.09375 -2 23.09375 -2 
C 32.796875 -2 42 6.671875 42 20.046875 
C 42 32.515625 33.90625 41.59375 23.703125 41.59375 
C 17.59375 41.59375 13.09375 37.609375 10.59375 30.625 
z
M 23.09375 0.390625 
C 10.796875 0.390625 10.796875 18.75 10.796875 22.4375 
C 10.796875 29.625 14.203125 40 23.5 40 
C 25.203125 40 30.09375 40 33.40625 33.125 
C 35.203125 29.21875 35.203125 25.140625 35.203125 20.140625 
C 35.203125 14.75 35.203125 10.78125 33.09375 6.78125 
C 30.90625 2.671875 27.703125 0.390625 23.09375 0.390625 
z
" id="CMR17-54"/>
       </defs>
       <use transform="scale(0.996264)" xlink:href="#CMR17-48"/>
       <use transform="translate(45.690477 0)scale(0.996264)" xlink:href="#CMMI12-58"/>
       <use transform="translate(72.787654 0)scale(0.996264)" xlink:href="#CMR17-48"/>
       <use transform="translate(118.478131 0)scale(0.996264)" xlink:href="#CMR17-54"/>
      </g>
     </g>
    </g>
    <g id="ytick_5">
     <g id="line2d_14">
      <g>
       <use style="stroke:#000000;stroke-width:0.8;" x="57.6" xlink:href="#ma2f8b4c799" y="162.274038"/>
      </g>
     </g>
     <g id="text_14">
      <!-- $\mathdefault{0.08}$ -->
      <g transform="translate(32.888586 165.733288)scale(0.1 -0.1)">
       <defs>
        <path d="M 27.203125 35.375 
C 33.5 38.546875 39.90625 43.328125 39.90625 50.984375 
C 39.90625 60.015625 31.09375 65.296875 23 65.296875 
C 13.90625 65.296875 5.90625 58.734375 5.90625 49.6875 
C 5.90625 47.203125 6.5 42.921875 10.40625 39.140625 
C 11.40625 38.15625 15.59375 35.171875 18.296875 33.28125 
C 13.796875 30.984375 3.296875 25.53125 3.296875 14.59375 
C 3.296875 4.359375 13.09375 -2 22.796875 -2 
C 33.5 -2 42.5 5.65625 42.5 15.78125 
C 42.5 24.84375 36.40625 29.015625 32.40625 31.703125 
z
M 14.09375 44.09375 
C 13.296875 44.59375 9.296875 47.671875 9.296875 52.359375 
C 9.296875 58.421875 15.59375 63 22.796875 63 
C 30.703125 63 36.5 57.4375 36.5 50.96875 
C 36.5 41.703125 26.09375 36.421875 25.59375 36.421875 
C 25.5 36.421875 25.40625 36.421875 24.59375 37.03125 
z
M 32.5 23.734375 
C 34 22.640625 38.796875 19.375 38.796875 13.296875 
C 38.796875 5.953125 31.40625 0.390625 23 0.390625 
C 13.90625 0.390625 7 6.84375 7 14.6875 
C 7 22.546875 13.09375 29.09375 20 32.1875 
z
" id="CMR17-56"/>
       </defs>
       <use transform="scale(0.996264)" xlink:href="#CMR17-48"/>
       <use transform="translate(45.690477 0)scale(0.996264)" xlink:href="#CMMI12-58"/>
       <use transform="translate(72.787654 0)scale(0.996264)" xlink:href="#CMR17-48"/>
       <use transform="translate(118.478131 0)scale(0.996264)" xlink:href="#CMR17-56"/>
      </g>
     </g>
    </g>
    <g id="ytick_6">
     <g id="line2d_15">
      <g>
       <use style="stroke:#000000;stroke-width:0.8;" x="57.6" xlink:href="#ma2f8b4c799" y="128.511417"/>
      </g>
     </g>
     <g id="text_15">
      <!-- $\mathdefault{0.10}$ -->
      <g transform="translate(32.888586 131.970666)scale(0.1 -0.1)">
       <use transform="scale(0.996264)" xlink:href="#CMR17-48"/>
       <use transform="translate(45.690477 0)scale(0.996264)" xlink:href="#CMMI12-58"/>
       <use transform="translate(72.787654 0)scale(0.996264)" xlink:href="#CMR17-49"/>
       <use transform="translate(118.478131 0)scale(0.996264)" xlink:href="#CMR17-48"/>
      </g>
     </g>
    </g>
    <g id="ytick_7">
     <g id="line2d_16">
      <g>
       <use style="stroke:#000000;stroke-width:0.8;" x="57.6" xlink:href="#ma2f8b4c799" y="94.748795"/>
      </g>
     </g>
     <g id="text_16">
      <!-- $\mathdefault{0.12}$ -->
      <g transform="translate(32.888586 98.208045)scale(0.1 -0.1)">
       <use transform="scale(0.996264)" xlink:href="#CMR17-48"/>
       <use transform="translate(45.690477 0)scale(0.996264)" xlink:href="#CMMI12-58"/>
       <use transform="translate(72.787654 0)scale(0.996264)" xlink:href="#CMR17-49"/>
       <use transform="translate(118.478131 0)scale(0.996264)" xlink:href="#CMR17-50"/>
      </g>
     </g>
    </g>
    <g id="ytick_8">
     <g id="line2d_17">
      <g>
       <use style="stroke:#000000;stroke-width:0.8;" x="57.6" xlink:href="#ma2f8b4c799" y="60.986174"/>
      </g>
     </g>
     <g id="text_17">
      <!-- $\mathdefault{0.14}$ -->
      <g transform="translate(32.888586 64.445423)scale(0.1 -0.1)">
       <use transform="scale(0.996264)" xlink:href="#CMR17-48"/>
       <use transform="translate(45.690477 0)scale(0.996264)" xlink:href="#CMMI12-58"/>
       <use transform="translate(72.787654 0)scale(0.996264)" xlink:href="#CMR17-49"/>
       <use transform="translate(118.478131 0)scale(0.996264)" xlink:href="#CMR17-52"/>
      </g>
     </g>
    </g>
   </g>
   <g id="line2d_18">
    <path clip-path="url(#p26ccf4d4f1)" d="M 73.832727 128.511417 
L 74.3051 128.60529 
L 74.322956 131.570068 
L 74.371654 174.698847 
L 74.426845 128.233791 
L 74.452817 125.265932 
L 74.496646 134.320611 
L 74.56807 149.951719 
L 74.598912 131.461003 
L 74.616768 126.854228 
L 74.710918 130.438564 
L 74.899217 135.2418 
L 74.907334 135.026517 
L 75.020963 120.459497 
L 75.077777 130.572423 
L 75.115113 132.363933 
L 75.180044 129.71472 
L 75.19303 129.230716 
L 75.256337 131.156072 
L 75.257961 131.083401 
L 75.322892 129.721369 
L 75.369967 131.337903 
L 75.418665 131.71858 
L 75.517684 129.196303 
L 75.694621 131.373925 
L 75.533917 128.851109 
L 75.770915 130.418628 
L 75.782278 130.367143 
L 75.832599 131.035693 
L 75.9024 130.665564 
L 75.845585 131.10667 
L 75.904023 130.675483 
L 76.038755 130.012771 
L 76.1605 131.607417 
L 76.196212 131.333103 
L 76.266013 130.740583 
L 76.317958 130.837621 
L 76.319581 130.879922 
L 76.415354 130.598393 
L 76.420224 130.640414 
L 76.421847 130.600079 
L 76.514374 131.003217 
L 76.515997 130.980423 
L 76.644236 131.574289 
L 76.769228 131.140934 
L 76.660468 131.599014 
L 76.775721 131.142177 
L 76.787084 131.177458 
L 76.853638 131.074169 
L 76.88448 131.115679 
L 76.938048 131.030662 
L 76.981876 131.341797 
L 76.9835 131.337298 
L 77.0533 132.144167 
L 77.108492 131.852334 
L 77.123101 131.800984 
L 77.186409 132.03902 
L 77.210758 131.986985 
L 77.332503 132.158112 
L 77.23673 131.957758 
L 77.33575 132.15751 
L 77.421783 132.047649 
L 77.447756 132.106602 
L 77.559761 133.200559 
L 77.613329 132.986068 
L 77.623069 132.973379 
L 77.838964 133.801438 
L 77.840588 133.79195 
L 77.923375 133.941524 
L 77.924998 133.935318 
L 78.264262 136.42663 
L 78.295104 136.644722 
L 78.588916 139.028137 
L 78.59054 139.026682 
L 78.618135 139.143687 
L 78.619759 139.145067 
L 79.759296 151.680755 
L 80.957271 170.198484 
L 81.567622 182.909885 
L 83.036684 226.922964 
L 83.658397 253.520742 
L 84.507369 295.488 
L 84.573923 293.208164 
L 85.258944 253.378477 
L 86.851375 166.57572 
L 87.794496 129.150351 
L 88.565551 107.238379 
L 89.300893 92.04494 
L 89.9291 82.544219 
L 90.797551 73.153441 
L 91.217978 69.973576 
L 91.969553 66.410883 
L 92.204928 66.065543 
L 92.255249 66.096657 
L 92.466275 66.240006 
L 92.729245 67.206848 
L 93.279535 71.012562 
L 94.902807 85.816572 
L 95.597568 94.443709 
L 96.469265 108.604511 
L 97.185129 123.839322 
L 98.194804 150.250083 
L 100.249868 205.319472 
L 100.946252 218.296385 
L 101.582575 225.855507 
L 102.089036 228.963089 
L 102.51758 229.937051 
L 102.952617 229.736754 
L 103.442845 228.313879 
L 103.999628 225.127512 
L 104.402199 221.672803 
L 104.890804 216.288766 
L 107.174749 188.488005 
L 107.802956 184.408614 
L 108.145466 183.25737 
L 108.535052 182.804306 
L 109.073978 183.247992 
L 110.046319 185.872057 
L 110.418048 187.341499 
L 112.197155 196.507466 
L 112.86919 202.528199 
L 113.598039 212.612615 
L 114.656413 226.948142 
L 114.9973 228.587519 
L 115.140148 228.612756 
L 115.161251 228.582103 
L 115.253777 228.345936 
L 115.519994 226.744269 
L 115.945292 221.836188 
L 117.073466 207.021398 
L 117.445196 205.082894 
L 117.641612 204.843709 
L 117.823418 205.069698 
L 118.115607 206.189795 
L 119.370397 212.5914 
L 119.55058 212.339063 
L 119.699921 211.740988 
L 119.919063 210.211905 
L 120.326505 205.341015 
L 120.831343 196.475267 
L 121.680314 181.87351 
L 122.079639 178.443502 
L 122.290665 177.978755 
L 122.305274 177.985042 
L 122.389684 178.113572 
L 122.522793 178.654397 
L 122.735441 180.372825 
L 123.105548 185.605688 
L 124.069772 204.678617 
L 124.727197 215.464416 
L 125.032372 217.547873 
L 125.10055 217.576889 
L 125.142755 217.504928 
L 125.292096 216.672011 
L 125.529094 213.463335 
L 125.881344 204.695538 
L 126.507927 182.381706 
L 127.058217 166.711245 
L 127.319564 164.044927 
L 127.368262 163.992922 
L 127.418583 164.091957 
L 127.525719 164.811366 
L 127.717265 167.744119 
L 128.040297 176.491114 
L 129.152239 209.111911 
L 129.679802 217.63707 
L 129.898944 218.659246 
L 129.900567 218.658847 
L 129.944396 218.627681 
L 129.970368 218.571183 
L 130.114839 217.739403 
L 130.314502 215.126379 
L 130.629417 207.522885 
L 131.056337 190.73465 
L 132.476701 129.501346 
L 132.572474 129.155262 
L 132.619549 129.24947 
L 132.728308 130.064256 
L 132.950697 133.797662 
L 133.494493 147.892026 
L 133.984721 157.473147 
L 134.924596 170.819366 
L 135.044719 171.082452 
L 135.086924 171.033508 
L 135.202176 170.487971 
L 135.383983 168.357271 
L 135.697274 161.695401 
L 136.221591 151.226783 
L 136.296262 151.001805 
L 136.348207 151.140771 
L 136.461836 152.331548 
L 136.672861 157.502952 
L 137.164713 169.79651 
L 137.169583 169.793785 
L 137.210164 169.618503 
L 137.312431 167.890665 
L 137.492614 160.332623 
L 137.817268 135.396296 
L 138.258799 105.70916 
L 138.270161 105.678303 
L 138.305873 106.037786 
L 138.391907 110.127942 
L 138.544495 130.294179 
L 139.214906 234.57092 
L 139.331782 238.147354 
L 139.377233 237.471018 
L 139.47463 231.057384 
L 139.636957 202.353883 
L 140.039529 105.976379 
L 140.127185 106.590161 
L 140.187247 104.793858 
L 140.666112 79.05487 
L 140.761885 82.56453 
L 140.89337 101.942398 
L 141.372236 203.492218 
L 141.446906 196.574492 
L 141.623843 142.843035 
L 141.836492 110.133862 
L 142.026415 93.982476 
L 142.474438 53.568 
L 142.528006 55.466699 
L 142.636765 71.91933 
L 143.12537 175.827517 
L 143.195171 169.102861 
L 143.363991 115.291724 
L 143.563654 85.790458 
L 143.808768 75.995238 
L 144.264908 54.097224 
L 144.320099 55.664879 
L 144.414249 68.824489 
L 144.665856 148.530758 
L 144.802211 173.815163 
L 144.846039 170.62131 
L 144.959668 138.391 
L 145.237248 73.507692 
L 145.477492 70.081966 
L 145.815133 62.021888 
L 145.867078 62.126216 
L 145.935255 62.911318 
L 146.014796 67.434907 
L 146.128425 90.469455 
L 146.404381 180.198855 
L 146.487168 168.069429 
L 146.905972 70.950416 
L 146.95954 71.028479 
L 146.982266 71.030638 
L 147.016355 70.927876 
L 147.133231 69.722208 
L 147.313414 68.437126 
L 147.344256 68.498952 
L 147.423796 69.276402 
L 147.537425 72.840433 
L 147.646185 85.399543 
L 147.795526 137.21052 
L 147.952983 186.513425 
L 148.000058 181.113251 
L 148.167255 120.392279 
L 148.409123 67.524222 
L 148.422109 67.464267 
L 148.467561 67.974714 
L 148.84903 76.948438 
L 149.113623 91.220646 
L 149.228876 120.93613 
L 149.485353 224.691376 
L 149.560023 209.587395 
L 150.061615 69.64658 
L 150.071354 69.601859 
L 150.111936 70.145215 
L 150.454447 81.023564 
L 150.563206 88.610098 
L 150.691444 120.765382 
L 151.014476 266.138267 
L 151.105379 232.369253 
L 151.467369 99.349018 
L 151.725469 78.727848 
L 151.770921 78.526787 
L 151.834228 78.74881 
L 151.923508 79.97094 
L 152.022528 85.752779 
L 152.165376 109.979896 
L 152.360169 190.031279 
L 152.535482 295.024267 
L 152.595543 259.548345 
L 152.957533 104.488383 
L 153.163689 85.656009 
L 153.243229 84.850448 
L 153.29842 85.096706 
L 153.412049 86.867237 
L 153.524055 93.477549 
L 153.678266 118.24405 
L 153.889292 197.537301 
L 154.058112 270.442049 
L 154.114927 254.048403 
L 154.533731 112.658263 
L 154.718784 102.735331 
L 154.728524 102.757945 
L 154.778845 103.543201 
L 154.91033 109.863079 
L 155.097007 130.76733 
L 155.306409 182.437045 
L 155.5499 257.724792 
L 155.609961 248.869766 
L 156.166743 130.648084 
L 156.239791 129.537808 
L 156.294982 130.100405 
L 156.402118 134.603609 
L 156.567692 152.661642 
L 156.809559 207.891437 
L 157.018961 254.589421 
L 157.06766 250.636655 
L 157.260829 202.741569 
L 157.554641 157.685914 
L 157.697489 153.047362 
L 157.731578 153.306425 
L 157.817612 156.327578 
L 157.978316 171.372972 
L 158.225053 218.814231 
L 158.457181 264.940087 
L 158.507503 261.147039 
L 158.728268 214.227851 
L 159.030196 175.149752 
L 159.158435 171.794578 
L 159.197393 172.101606 
L 159.288297 175.343328 
L 159.447377 190.589931 
L 159.698985 240.756079 
L 159.871052 270.577361 
L 159.918127 267.154746 
L 160.125905 223.632211 
L 160.435951 182.298992 
L 160.595031 177.610328 
L 160.622627 177.764285 
L 160.698921 179.908341 
L 160.840145 191.54007 
L 161.067404 232.467485 
L 161.291415 278.835356 
L 161.34823 272.2219 
L 161.948841 174.14597 
L 162.060847 171.515362 
L 162.106298 171.992055 
L 162.205318 176.45954 
L 162.374138 196.163672 
L 162.654964 261.055871 
L 162.744244 274.989965 
L 162.797812 269.190041 
L 163.437382 166.566475 
L 163.505559 165.649152 
L 163.559127 166.273382 
L 163.666263 171.336475 
L 163.836707 191.71933 
L 164.112663 257.683674 
L 164.218176 276.761305 
L 164.270121 270.692706 
L 164.899951 163.90264 
L 164.990854 162.140955 
L 165.041175 162.728626 
L 165.146688 167.78817 
L 165.317132 188.567787 
L 165.599581 256.661325 
L 165.693731 271.882611 
L 165.747299 266.252627 
L 166.396608 162.53818 
L 166.440436 162.127428 
L 166.494004 162.745001 
L 166.602764 167.90183 
L 166.778077 188.681748 
L 167.054033 254.224755 
L 167.166039 274.368956 
L 167.217984 268.898828 
L 167.880279 162.826461 
L 167.930601 162.277191 
L 167.984169 162.930117 
L 168.092928 168.368277 
L 168.266618 190.209035 
L 168.635101 269.904595 
L 168.737367 254.116691 
L 169.188637 170.612902 
L 169.376937 163.347018 
L 169.393169 163.403259 
L 169.454854 164.682271 
L 169.584716 173.070263 
L 169.781132 202.576958 
L 170.100916 273.787261 
L 170.180457 262.716641 
L 170.695034 169.746701 
L 170.860608 164.082976 
L 170.888204 164.25445 
L 170.967744 166.70107 
L 171.113839 179.38274 
L 171.334604 221.458821 
L 171.565108 270.68054 
L 171.6203 265.059321 
L 172.274479 165.195308 
L 172.306944 164.965499 
L 172.358889 165.55534 
L 172.464401 170.556552 
L 172.639715 191.243906 
L 172.918918 256.260712 
L 173.027677 274.867018 
L 173.079622 269.286345 
L 173.733801 165.506864 
L 173.788992 164.846688 
L 173.84256 165.502637 
L 173.949696 170.854346 
L 174.125009 192.798346 
L 174.490246 271.381245 
L 174.590889 255.92662 
L 175.045405 172.293273 
L 175.236951 164.953866 
L 175.251561 165.002281 
L 175.309999 166.145742 
L 175.434991 173.931823 
L 175.62816 202.186293 
L 175.956061 275.100408 
L 176.038848 262.714041 
L 176.5307 171.628254 
L 176.718999 164.354967 
L 176.736855 164.429161 
L 176.801786 165.926445 
L 176.933271 175.2076 
L 177.134557 208.19297 
L 177.420253 271.27589 
L 177.490054 262.887529 
L 178.054953 167.025588 
L 178.166959 164.465833 
L 178.21241 164.917759 
L 178.31143 169.133712 
L 178.48025 187.602675 
L 178.738351 245.304914 
L 178.887692 274.858311 
L 178.938013 269.508101 
L 179.603555 164.553673 
L 179.649007 164.08641 
L 179.704198 164.759085 
L 179.812957 170.254882 
L 179.988271 192.411179 
L 180.353507 271.088604 
L 180.452527 255.706398 
L 180.908666 171.621875 
L 181.096966 164.424462 
L 181.113199 164.477108 
L 181.17326 165.684265 
L 181.299875 173.687206 
L 181.494668 202.567276 
L 181.817699 274.759851 
L 181.898863 263.121963 
L 182.402077 170.762743 
L 182.580637 164.18141 
L 182.603363 164.299055 
L 182.674787 166.208385 
L 182.814388 177.158032 
L 183.025414 214.627866 
L 183.283514 271.076032 
L 183.345199 264.223572 
L 183.953926 165.688524 
L 184.028596 164.540075 
L 184.080541 165.141603 
L 184.187677 170.249061 
L 184.362991 191.110962 
L 184.64544 257.406321 
L 184.749329 274.806126 
L 184.801274 269.17857 
L 185.455453 164.943173 
L 185.510644 164.267264 
L 185.565836 164.948467 
L 185.674595 170.470076 
L 185.849908 192.668054 
L 186.213521 271.128995 
L 186.312541 256.015448 
L 186.770304 171.734805 
L 186.958604 164.570228 
L 186.974836 164.626615 
L 187.036521 165.907428 
L 187.164759 174.219411 
L 187.361175 203.856593 
L 187.679337 274.844011 
L 187.758877 263.356499 
L 188.265338 170.671528 
L 188.442275 164.257519 
L 188.465001 164.381755 
L 188.538048 166.384847 
L 188.679273 177.70112 
L 188.891921 216.048348 
L 189.143529 271.141498 
L 189.20359 264.732763 
L 189.826927 165.358723 
L 189.888611 164.54379 
L 189.943802 165.195808 
L 190.052561 170.536879 
L 190.229498 192.063365 
L 190.521687 261.294495 
L 190.609344 274.837753 
L 190.662912 269.054814 
L 191.310598 165.056311 
L 191.372282 164.232248 
L 191.42585 164.887598 
L 191.534609 170.352141 
L 191.709923 192.448645 
L 192.075159 271.129872 
L 192.174179 255.869058 
L 192.630319 171.775726 
L 192.820241 164.531364 
L 192.834851 164.580016 
L 192.893289 165.719949 
L 193.018281 173.456797 
L 193.21145 201.607681 
L 193.539351 274.825389 
L 193.623761 262.46659 
L 194.117236 171.312859 
L 194.302289 164.231135 
L 194.321769 164.313698 
L 194.388323 165.903791 
L 194.521431 175.528948 
L 194.72434 209.343786 
L 195.005167 271.124166 
L 195.073344 263.008052 
L 195.644736 166.831201 
L 195.750249 164.537155 
L 195.797324 165.019145 
L 195.897967 169.41302 
L 196.06841 188.385445 
L 196.33138 247.840223 
L 196.470982 274.825994 
L 196.521303 269.573995 
L 197.191715 164.615884 
L 197.23392 164.237814 
L 197.285865 164.866671 
L 197.393001 170.150181 
L 197.566691 191.686248 
L 197.936797 271.125429 
L 198.03744 255.351515 
L 198.48871 171.994845 
L 198.680256 164.541514 
L 198.694865 164.583389 
L 198.75168 165.643827 
L 198.875049 173.072131 
L 199.066595 200.429866 
L 199.400989 274.829195 
L 199.487023 261.95497 
L 199.974004 171.647022 
L 200.163927 164.238834 
L 200.181783 164.312277 
L 200.246714 165.806987 
L 200.378199 175.078043 
L 200.579485 208.022718 
L 200.866804 271.128534 
L 200.934982 262.896535 
L 201.503127 166.95143 
L 201.611887 164.540381 
L 201.657338 165.000266 
L 201.757981 169.344625 
L 201.926801 187.963219 
L 202.186525 246.244037 
L 202.330996 274.828711 
L 202.382941 269.473667 
L 203.048483 164.698046 
L 203.093935 164.237212 
L 203.147503 164.878853 
L 203.254639 170.190157 
L 203.428329 191.780471 
L 203.796812 271.128207 
L 203.899078 255.219779 
L 204.348724 172.077346 
L 204.541894 164.538974 
L 204.556503 164.584169 
L 204.614941 165.709977 
L 204.739933 173.414005 
L 204.933103 201.502174 
L 205.262627 274.828877 
L 205.345414 262.600864 
L 205.840512 171.240415 
L 206.025565 164.236809 
L 206.045044 164.328662 
L 206.113222 166.016819 
L 206.247953 176.004446 
L 206.452486 210.695368 
L 206.728442 271.126548 
L 206.793373 263.456337 
L 207.376128 166.459238 
L 207.471901 164.539179 
L 207.522223 165.078339 
L 207.626112 169.822523 
L 207.799802 189.868638 
L 208.072512 252.904433 
L 208.192634 274.828846 
L 208.244579 269.374519 
L 208.905251 164.788372 
L 208.955572 164.237115 
L 209.00914 164.891656 
L 209.1179 170.354403 
L 209.293213 192.44469 
L 209.658449 271.127694 
L 209.757469 255.881794 
L 210.213609 171.786802 
L 210.403532 164.539519 
L 210.418141 164.588086 
L 210.476579 165.727742 
L 210.601571 173.463231 
L 210.79474 201.608685 
L 211.122641 274.827825 
L 211.207052 262.475486 
L 211.700527 171.321873 
L 211.88558 164.237333 
L 211.905059 164.319624 
L 211.971613 165.909065 
L 212.104721 175.533511 
L 212.307631 209.345344 
L 212.588457 271.127752 
L 212.656634 263.013712 
L 213.228026 166.835082 
L 213.333539 164.539533 
L 213.380614 165.021033 
L 213.481257 169.414343 
L 213.6517 188.385122 
L 213.914671 247.837811 
L 214.054272 274.828847 
L 214.104593 269.578844 
L 214.775005 164.616059 
L 214.81721 164.237321 
L 214.869155 164.865334 
L 214.976291 170.147388 
L 215.149981 191.681544 
L 215.520087 271.126743 
L 215.622353 254.960771 
L 216.070377 172.121633 
L 216.263546 164.539521 
L 216.278156 164.581154 
L 216.33497 165.64066 
L 216.458339 173.067229 
L 216.649885 200.422104 
L 216.984279 274.829021 
L 217.070313 261.962029 
L 217.557295 171.64752 
L 217.747217 164.237125 
L 217.765073 164.310274 
L 217.830004 165.803809 
L 217.961489 175.072289 
L 218.162775 208.013334 
L 218.450095 271.127839 
L 218.518272 262.903513 
L 219.086417 166.95191 
L 219.195177 164.539405 
L 219.240628 164.998543 
L 219.341271 169.341092 
L 219.510092 187.956584 
L 219.769815 246.233267 
L 219.914287 274.827812 
L 219.966231 269.480014 
L 220.631773 164.698598 
L 220.677225 164.237166 
L 220.730793 164.878018 
L 220.837929 170.187434 
L 221.011619 191.774135 
L 221.380102 271.127714 
L 221.482368 255.228281 
L 221.932015 172.080266 
L 222.125184 164.539417 
L 222.139793 164.584412 
L 222.198231 165.709369 
L 222.323223 173.411318 
L 222.516393 201.495861 
L 222.845917 274.828835 
L 222.928704 262.608788 
L 223.423802 171.243288 
L 223.608855 164.237285 
L 223.628335 164.328877 
L 223.696512 166.016102 
L 223.831244 176.001502 
L 224.035776 210.688494 
L 224.311732 271.126764 
L 224.376663 263.462918 
L 224.961041 166.398001 
L 225.055191 164.539542 
L 225.105513 165.078023 
L 225.209402 169.820726 
L 225.381469 189.598681 
L 225.650932 251.601103 
L 225.775924 274.828994 
L 225.827869 269.380533 
L 226.488541 164.78914 
L 226.538863 164.237177 
L 226.592431 164.89096 
L 226.699567 170.227796 
L 226.87488 192.152355 
L 227.24174 271.127854 
L 227.342383 255.49493 
L 227.795276 171.913549 
L 227.986822 164.53944 
L 228.001431 164.587802 
L 228.059869 165.726627 
L 228.184861 173.460244 
L 228.378031 201.602217 
L 228.705932 274.827765 
L 228.790342 262.483066 
L 229.283817 171.32417 
L 229.46887 164.237191 
L 229.488349 164.319191 
L 229.554903 165.907626 
L 229.688012 175.52991 
L 229.890921 209.33796 
L 230.171747 271.127699 
L 230.239924 263.020391 
L 230.811316 166.836358 
L 230.916829 164.53942 
L 230.963904 165.020237 
L 231.064547 169.412032 
L 231.234991 188.379864 
L 231.497961 247.828957 
L 231.637562 274.828862 
L 231.687884 269.58487 
L 232.358295 164.616612 
L 232.4005 164.237268 
L 232.452445 164.864497 
L 232.559581 170.144844 
L 232.733271 191.675802 
L 233.103377 271.126813 
L 233.205644 254.96875 
L 233.653667 172.124162 
L 233.846836 164.539535 
L 233.861446 164.580961 
L 233.91826 165.639638 
L 234.041629 173.064287 
L 234.233175 200.415686 
L 234.567569 274.828975 
L 234.653603 261.969813 
L 235.140585 171.649998 
L 235.330508 164.237165 
L 235.348364 164.310053 
L 235.413295 165.802614 
L 235.54478 175.068903 
L 235.746065 208.006175 
L 236.033385 271.127865 
L 236.101562 262.910267 
L 236.669708 166.953349 
L 236.778467 164.539435 
L 236.823919 164.997928 
L 236.924561 169.338976 
L 237.093382 187.951538 
L 237.353105 246.224587 
L 237.497577 274.827706 
L 237.549521 269.486064 
L 238.215063 164.699261 
L 238.260515 164.237195 
L 238.314083 164.877265 
L 238.421219 170.185012 
L 238.594909 191.768499 
L 238.963392 271.127676 
L 239.065658 255.236178 
L 239.515305 172.082792 
L 239.708474 164.539425 
L 239.723084 164.584215 
L 239.781521 165.708329 
L 239.906513 173.408354 
L 240.099683 201.489394 
L 240.429207 274.828886 
L 240.511994 262.616436 
L 241.007092 171.245671 
L 241.192145 164.237266 
L 241.211625 164.328575 
L 241.279802 166.014787 
L 241.414534 175.99795 
L 241.619066 210.681116 
L 241.895023 271.126863 
L 241.959953 263.4695 
L 242.544332 166.399236 
L 242.640105 164.539568 
L 242.688803 165.077305 
L 242.792692 169.818453 
L 242.964759 189.593406 
L 243.234223 251.592474 
L 243.359215 274.828957 
L 243.411159 269.386618 
L 244.071831 164.789836 
L 244.122153 164.237165 
L 244.175721 164.890158 
L 244.282857 170.225323 
L 244.45817 192.146645 
L 244.82503 271.127877 
L 244.925673 255.502813 
L 245.378566 171.916037 
L 245.570112 164.539432 
L 245.584721 164.587589 
L 245.643159 165.725566 
L 245.768151 173.457249 
L 245.961321 201.595718 
L 246.289222 274.827647 
L 246.373632 262.490748 
L 246.867107 171.326574 
L 247.05216 164.237197 
L 247.071639 164.318912 
L 247.138193 165.906353 
L 247.271302 175.526431 
L 247.474211 209.33068 
L 247.755037 271.127651 
L 247.823215 263.027099 
L 248.394607 166.837737 
L 248.500119 164.539426 
L 248.547194 165.019571 
L 248.647837 169.409862 
L 248.818281 188.374737 
L 249.081251 247.820256 
L 249.220852 274.828908 
L 249.271174 269.59088 
L 249.941585 164.617202 
L 249.983791 164.237261 
L 250.035735 164.863725 
L 250.142871 170.142399 
L 250.316561 191.670154 
L 250.686668 271.126911 
L 250.788934 254.976679 
L 251.236957 172.126692 
L 251.43175 164.539562 
L 251.444736 164.580769 
L 251.501551 165.638624 
L 251.624919 173.061373 
L 251.816465 200.409304 
L 252.15086 274.828939 
L 252.236893 261.977557 
L 252.723875 171.652456 
L 252.913798 164.237164 
L 252.931654 164.309792 
L 252.996585 165.801386 
L 253.12807 175.065506 
L 253.329356 207.999001 
L 253.616675 271.127889 
L 253.684852 262.916999 
L 254.254621 166.884484 
L 254.361757 164.53943 
L 254.408832 165.030583 
L 254.511098 169.555458 
L 254.681542 188.717322 
L 254.946135 248.83503 
L 255.080867 274.827588 
L 255.132812 269.492111 
L 255.798353 164.699907 
L 255.843805 164.2372 
L 255.897373 164.876482 
L 256.004509 170.182557 
L 256.178199 191.762838 
L 256.546682 271.127626 
L 256.648948 255.244083 
L 257.100218 171.959411 
L 257.291764 164.539428 
L 257.306374 164.584013 
L 257.364812 165.707281 
L 257.489804 173.405374 
L 257.682973 201.482911 
L 258.012497 274.828929 
L 258.095284 262.624096 
L 258.590383 171.248059 
L 258.775436 164.237256 
L 258.794915 164.328281 
L 258.863092 166.013474 
L 258.997824 175.994394 
L 259.202356 210.673737 
L 259.478313 271.126957 
L 259.543244 263.476088 
L 260.127622 166.400479 
L 260.223395 164.539556 
L 260.272093 165.076598 
L 260.375983 169.816189 
L 260.548049 189.588137 
L 260.817513 251.583845 
L 260.942505 274.828918 
L 260.994449 269.392704 
L 261.655121 164.790541 
L 261.705443 164.237163 
L 261.759011 164.889368 
L 261.866147 170.222859 
L 262.04146 192.140943 
L 262.40832 271.127899 
L 262.508963 255.510695 
L 262.961856 171.918527 
L 263.153402 164.539428 
L 263.168012 164.58738 
L 263.226449 165.724511 
L 263.351441 173.454262 
L 263.544611 201.589225 
L 263.874135 274.827618 
L 263.956922 262.498425 
L 264.450397 171.328976 
L 264.63545 164.237203 
L 264.654929 164.318635 
L 264.721484 165.905082 
L 264.854592 175.522955 
L 265.057501 209.323402 
L 265.338327 271.127599 
L 265.406505 263.033802 
L 265.977897 166.839114 
L 266.083409 164.539429 
L 266.130484 165.018904 
L 266.231127 169.407691 
L 266.401571 188.36961 
L 266.664541 247.811556 
L 266.804143 274.828948 
L 266.854464 269.596886 
L 267.524876 164.61779 
L 267.567081 164.237251 
L 267.619025 164.862951 
L 267.726161 170.139953 
L 267.899852 191.664504 
L 268.269958 271.127003 
L 268.372224 254.984607 
L 268.820247 172.12922 
L 269.01504 164.539551 
L 269.028026 164.580575 
L 269.084841 165.637609 
L 269.208209 173.058457 
L 269.399756 200.40292 
L 269.73415 274.828897 
L 269.820183 261.9853 
L 270.307165 171.654914 
L 270.497088 164.237162 
L 270.514944 164.30953 
L 270.579875 165.800156 
L 270.71136 175.062108 
L 270.912646 207.991826 
L 271.199965 271.127908 
L 271.268143 262.92373 
L 271.837911 166.885875 
L 271.945047 164.539427 
L 271.992122 165.029907 
L 272.094388 169.553253 
L 272.264832 188.712155 
L 272.529425 248.826343 
L 272.66578 274.827677 
L 272.716102 269.498156 
L 273.381644 164.700553 
L 273.427095 164.237207 
L 273.480663 164.875699 
L 273.587799 170.180102 
L 273.761489 191.757178 
L 274.129972 271.127571 
L 274.232239 255.251988 
L 274.683508 171.961909 
L 274.875055 164.539431 
L 274.889664 164.583811 
L 274.948102 165.706234 
L 275.073094 173.402396 
L 275.266263 201.476429 
L 275.595788 274.828967 
L 275.678575 262.631755 
L 276.173673 171.250448 
L 276.358726 164.237247 
L 276.378205 164.327988 
L 276.446383 166.012162 
L 276.581114 175.99084 
L 276.785647 210.666359 
L 277.061603 271.127048 
L 277.126534 263.482675 
L 277.710912 166.401722 
L 277.806685 164.539545 
L 277.855383 165.075891 
L 277.959273 169.813926 
L 278.13134 189.582869 
L 278.400803 251.575217 
L 278.525795 274.828874 
L 278.57774 269.398788 
L 279.240035 164.756397 
L 279.288733 164.237162 
L 279.342301 164.888578 
L 279.449437 170.220396 
L 279.624751 192.135241 
L 279.99161 271.127916 
L 280.092253 255.518576 
L 280.545146 171.921019 
L 280.736692 164.539425 
L 280.751302 164.587171 
L 280.80974 165.723456 
L 280.934732 173.451274 
L 281.127901 201.582734 
L 281.457425 274.827735 
L 281.540212 262.506101 
L 282.033687 171.331379 
L 282.21874 164.23721 
L 282.23822 164.318357 
L 282.304774 165.903812 
L 282.437882 175.519479 
L 282.640791 209.316125 
L 282.921617 271.127543 
L 282.989795 263.040504 
L 283.56281 166.77187 
L 283.6667 164.539433 
L 283.713775 165.018236 
L 283.814417 169.405521 
L 283.984861 188.364483 
L 284.246208 247.366298 
L 284.387433 274.828984 
L 284.437754 269.60289 
L 285.108166 164.618377 
L 285.150371 164.237242 
L 285.202316 164.862177 
L 285.309452 170.137508 
L 285.483142 191.658854 
L 285.853248 271.127091 
L 285.955514 254.992534 
L 286.403537 172.13175 
L 286.59833 164.53954 
L 286.611316 164.580381 
L 286.668131 165.636594 
L 286.7915 173.055542 
L 286.983046 200.396537 
L 287.31744 274.828851 
L 287.403473 261.993042 
L 287.890455 171.657372 
L 288.080378 164.237161 
L 288.098234 164.309269 
L 288.163165 165.798927 
L 288.29465 175.058712 
L 288.495936 207.984652 
L 288.783255 271.127922 
L 288.851433 262.93046 
L 289.421201 166.887266 
L 289.528337 164.539423 
L 289.575412 165.029232 
L 289.677679 169.55105 
L 289.848122 188.706988 
L 290.112716 248.817655 
L 290.249071 274.827792 
L 290.299392 269.504199 
L 290.966557 164.669287 
L 291.010385 164.237213 
L 291.063953 164.874918 
L 291.171089 170.177648 
L 291.34478 191.751518 
L 291.713263 271.127513 
L 291.815529 255.259892 
L 292.266799 171.964408 
L 292.458345 164.539436 
L 292.472954 164.58361 
L 292.529769 165.653289 
L 292.653137 173.103384 
L 292.844684 200.501221 
L 293.179078 274.829 
L 293.265111 261.866041 
L 293.75047 171.740658 
L 293.942016 164.237238 
L 293.958249 164.300722 
L 294.019933 165.638536 
L 294.148172 174.278501 
L 294.344588 205.265173 
L 294.644893 271.127134 
L 294.71794 261.78527 
L 295.260113 167.936725 
L 295.389975 164.539534 
L 295.428934 164.883928 
L 295.523084 168.540784 
L 295.687034 185.305193 
L 295.932148 237.627697 
L 296.109085 274.828826 
L 296.16103 269.40487 
L 296.823325 164.757081 
L 296.872023 164.237161 
L 296.925591 164.887788 
L 297.032727 170.217933 
L 297.208041 192.129541 
L 297.5749 271.127928 
L 297.675543 255.526456 
L 298.128436 171.92351 
L 298.319983 164.539422 
L 298.334592 164.586962 
L 298.39303 165.722401 
L 298.518022 173.448288 
L 298.711191 201.576243 
L 299.040716 274.827848 
L 299.123503 262.513777 
L 299.616977 171.333782 
L 299.802031 164.237217 
L 299.82151 164.318081 
L 299.888064 165.902542 
L 300.021172 175.516004 
L 300.224081 209.308849 
L 300.504908 271.127482 
L 300.573085 263.047204 
L 301.1461 166.773228 
L 301.24999 164.539438 
L 301.297065 165.01757 
L 301.397708 169.403351 
L 301.568151 188.359357 
L 301.829498 247.357594 
L 301.970723 274.829014 
L 302.021044 269.608891 
L 302.691456 164.618965 
L 302.733661 164.237234 
L 302.785606 164.861404 
L 302.892742 170.135064 
L 303.066432 191.653205 
L 303.436538 271.127175 
L 303.538804 255.000461 
L 303.986828 172.134279 
L 304.18162 164.539529 
L 304.194607 164.580188 
L 304.251421 165.635579 
L 304.37479 173.052627 
L 304.566336 200.390154 
L 304.90073 274.828799 
L 304.986764 262.000783 
L 305.473745 171.659831 
L 305.663668 164.237161 
L 305.681524 164.309008 
L 305.746455 165.797698 
L 305.87794 175.055315 
L 306.079226 207.977478 
L 306.366545 271.127933 
L 306.434723 262.937187 
L 307.004492 166.888658 
L 307.111628 164.539421 
L 307.158703 165.028558 
L 307.260969 169.548847 
L 307.431412 188.701822 
L 307.696006 248.808967 
L 307.832361 274.827902 
L 307.882682 269.510239 
L 308.549847 164.669913 
L 308.593676 164.237221 
L 308.647244 164.874137 
L 308.75438 170.175195 
L 308.92807 191.745859 
L 309.296553 271.127449 
L 309.398819 255.267796 
L 309.850089 171.966908 
L 310.041635 164.53944 
L 310.056244 164.58341 
L 310.113059 165.652266 
L 310.236428 173.100461 
L 310.427974 200.494829 
L 310.762368 274.829028 
L 310.848401 261.873798 
L 311.33376 171.743131 
L 311.525306 164.23723 
L 311.541539 164.300477 
L 311.603223 165.637373 
L 311.731462 174.275241 
L 311.927878 205.258219 
L 312.228183 271.127215 
L 312.301231 261.792259 
L 312.843404 167.938395 
L 312.973265 164.539524 
L 313.012224 164.883363 
L 313.106374 168.538823 
L 313.270324 185.300441 
L 313.515439 237.619077 
L 313.692375 274.828772 
L 313.74432 269.410949 
L 314.406615 164.757765 
L 314.455313 164.23716 
L 314.508881 164.886999 
L 314.616017 170.215471 
L 314.791331 192.12384 
L 315.158191 271.127936 
L 315.258833 255.534336 
L 315.711727 171.926002 
L 315.903273 164.539419 
L 315.917882 164.586754 
L 315.97632 165.721347 
L 316.101312 173.445302 
L 316.294481 201.569752 
L 316.624006 274.827955 
L 316.706793 262.521451 
L 317.200268 171.336186 
L 317.385321 164.237225 
L 317.4048 164.317804 
L 317.471354 165.901272 
L 317.604463 175.51253 
L 317.807372 209.301573 
L 318.088198 271.127416 
L 318.156375 263.053903 
L 318.729391 166.774587 
L 318.83328 164.539443 
L 318.880355 165.016903 
L 318.980998 169.401182 
L 319.151441 188.354232 
L 319.412788 247.348889 
L 319.554013 274.82904 
L 319.604335 269.61489 
L 320.276369 164.590577 
L 320.316951 164.237226 
L 320.368896 164.860631 
L 320.476032 170.13262 
L 320.649722 191.647557 
L 321.019828 271.127254 
L 321.122095 255.008387 
L 321.570118 172.13681 
L 321.764911 164.539519 
L 321.777897 164.579996 
L 321.834711 165.634565 
L 321.95808 173.049713 
L 322.149626 200.383772 
L 322.48402 274.828743 
L 322.570054 262.008523 
L 323.057036 171.662291 
L 323.246959 164.23716 
L 323.264815 164.308748 
L 323.328122 165.73549 
L 323.457984 174.714213 
L 323.657647 206.897197 
L 323.949836 271.127939 
L 324.019636 262.604465 
L 324.581289 167.177555 
L 324.694918 164.539418 
L 324.740369 164.99467 
L 324.841012 169.32821 
L 325.009833 187.92616 
L 325.269556 246.181031 
L 325.415651 274.828007 
L 325.465972 269.516277 
L 326.133137 164.670538 
L 326.176966 164.237229 
L 326.230534 164.873356 
L 326.33767 170.172742 
L 326.51136 191.740201 
L 326.879843 271.127382 
L 326.982109 255.275698 
L 327.433379 171.969408 
L 327.624925 164.539446 
L 327.639535 164.58321 
L 327.696349 165.651244 
L 327.819718 173.097538 
L 328.011264 200.488437 
L 328.345658 274.829051 
L 328.431692 261.881553 
L 328.91705 171.745605 
L 329.108596 164.237222 
L 329.124829 164.300232 
L 329.186513 165.636211 
L 329.314752 174.271982 
L 329.511168 205.251265 
L 329.811473 271.127292 
L 329.884521 261.799247 
L 330.428317 167.85681 
L 330.556556 164.539514 
L 330.597137 164.911678 
L 330.692911 168.736015 
L 330.858484 186.017606 
L 331.108468 240.212959 
L 331.275665 274.828714 
L 331.32761 269.417026 
L 331.989905 164.75845 
L 332.038604 164.23716 
L 332.092172 164.886211 
L 332.199308 170.213009 
L 332.374621 192.118141 
L 332.741481 271.12794 
L 332.842124 255.542214 
L 333.295017 171.928495 
L 333.486563 164.539417 
L 333.501172 164.586546 
L 333.55961 165.720294 
L 333.684602 173.442316 
L 333.877772 201.563262 
L 334.207296 274.828058 
L 334.290083 262.529124 
L 334.783558 171.33859 
L 334.968611 164.237233 
L 334.98809 164.317528 
L 335.054644 165.900004 
L 335.187753 175.509056 
L 335.390662 209.294297 
L 335.671488 271.127347 
L 335.739665 263.0606 
L 336.312681 166.775945 
L 336.41657 164.539448 
L 336.463645 165.016237 
L 336.564288 169.399013 
L 336.734732 188.349108 
L 336.996079 247.340185 
L 337.137303 274.829061 
L 337.187625 269.620886 
L 337.85966 164.591144 
L 337.900241 164.237218 
L 337.952186 164.859859 
L 338.059322 170.130176 
L 338.233012 191.641909 
L 338.603119 271.127329 
L 338.705385 255.016312 
L 339.153408 172.13934 
L 339.348201 164.53951 
L 339.361187 164.579804 
L 339.418001 165.633551 
L 339.54137 173.046799 
L 339.732916 200.377391 
L 340.067311 274.828682 
L 340.153344 262.016262 
L 340.640326 171.66475 
L 340.830249 164.237161 
L 340.848105 164.308488 
L 340.911412 165.734287 
L 341.041274 174.710877 
L 341.240937 206.89011 
L 341.533126 271.12794 
L 341.602927 262.611272 
L 342.164579 167.179028 
L 342.278208 164.539416 
L 342.32366 164.99402 
L 342.424303 169.326058 
L 342.593123 187.921086 
L 342.852847 246.17232 
L 342.998941 274.828107 
L 343.049263 269.522313 
L 343.716428 164.671165 
L 343.760256 164.237237 
L 343.813824 164.872576 
L 343.92096 170.170289 
L 344.09465 191.734543 
L 344.463133 271.12731 
L 344.565399 255.2836 
L 345.016669 171.971908 
L 345.208215 164.539451 
L 345.222825 164.58301 
L 345.279639 165.650223 
L 345.403008 173.094616 
L 345.594554 200.482046 
L 345.928948 274.82907 
L 346.014982 261.889308 
L 346.50034 171.748079 
L 346.691887 164.237215 
L 346.708119 164.299989 
L 346.769804 165.635049 
L 346.898042 174.268724 
L 347.094458 205.244312 
L 347.394764 271.127365 
L 347.467811 261.806234 
L 348.011607 167.85846 
L 348.139846 164.539505 
L 348.180428 164.911091 
L 348.276201 168.734005 
L 348.441775 186.012764 
L 348.691759 240.204288 
L 348.858956 274.82865 
L 348.9109 269.4231 
L 349.573196 164.759135 
L 349.621894 164.237161 
L 349.675462 164.885423 
L 349.782598 170.210548 
L 349.957911 192.112442 
L 350.324771 271.127939 
L 350.425414 255.550093 
L 350.878307 171.930988 
L 351.069853 164.539415 
L 351.084463 164.586339 
L 351.1429 165.71924 
L 351.267892 173.439331 
L 351.461062 201.556773 
L 351.790586 274.828156 
L 351.873373 262.536796 
L 352.366848 171.340994 
L 352.551901 164.237241 
L 352.57138 164.317253 
L 352.637935 165.898735 
L 352.771043 175.505583 
L 352.973952 209.287022 
L 353.254778 271.127272 
L 353.322956 263.067295 
L 353.895971 166.777305 
L 353.99986 164.539454 
L 354.046935 165.015572 
L 354.147578 169.396845 
L 354.318022 188.343983 
L 354.579369 247.33148 
L 354.720593 274.829077 
L 354.770915 269.62688 
L 355.44295 164.591711 
L 355.483532 164.237211 
L 355.535476 164.859087 
L 355.642612 170.127733 
L 355.816303 191.636263 
L 356.186409 271.1274 
L 356.288675 255.024236 
L 356.736698 172.141871 
L 356.931491 164.539501 
L 356.944477 164.579612 
L 357.001292 165.632538 
L 357.12466 173.043886 
L 357.316207 200.37101 
L 357.650601 274.828617 
L 357.736634 262.024 
L 358.223616 171.667211 
L 358.413539 164.237161 
L 358.431395 164.308228 
L 358.494703 165.733085 
L 358.624564 174.707541 
L 358.822604 206.528233 
L 359.116416 271.127938 
L 359.18784 262.274735 
L 359.741376 167.484405 
L 359.861498 164.539415 
L 359.905327 164.961386 
L 360.002723 169.005872 
L 360.16992 186.910202 
L 360.423151 242.668089 
L 360.582231 274.828203 
L 360.632553 269.528346 
L 361.299718 164.671791 
L 361.343546 164.237245 
L 361.397114 164.871796 
L 361.50425 170.167838 
L 361.67794 191.728886 
L 362.046423 271.127234 
L 362.148689 255.291502 
L 362.599959 171.974409 
L 362.791505 164.539457 
L 362.806115 164.582811 
L 362.862929 165.649202 
L 362.986298 173.091694 
L 363.177844 200.475656 
L 363.512239 274.829083 
L 363.598272 261.897062 
L 364.083631 171.750553 
L 364.275177 164.237208 
L 364.291409 164.299745 
L 364.353094 165.633888 
L 364.481332 174.265466 
L 364.677748 205.23736 
L 364.978054 271.127434 
L 365.051101 261.813219 
L 365.594897 167.86011 
L 365.723136 164.539496 
L 365.763718 164.910504 
L 365.859491 168.731996 
L 366.025065 186.007923 
L 366.275049 240.195618 
L 366.442246 274.828582 
L 366.494191 269.429172 
L 367.156486 164.759821 
L 367.205184 164.237162 
L 367.258752 164.884635 
L 367.365888 170.208087 
L 367.541201 192.106743 
L 367.908061 271.127935 
L 368.008704 255.55797 
L 368.461597 171.933481 
L 368.653143 164.539414 
L 368.667753 164.586133 
L 368.726191 165.718188 
L 368.851183 173.436347 
L 369.044352 201.550284 
L 369.373876 274.828249 
L 369.456663 262.544467 
L 369.950138 171.343399 
L 370.135191 164.23725 
L 370.154671 164.316978 
L 370.219601 165.834493 
L 370.351087 175.156694 
L 370.552372 208.191331 
L 370.838068 271.127194 
L 370.907869 262.736148 
L 371.472768 167.059631 
L 371.583151 164.539461 
L 371.628602 164.98215 
L 371.727622 169.179748 
L 371.896442 187.574687 
L 372.154543 245.137978 
L 372.303884 274.829088 
L 372.354205 269.632872 
L 373.02624 164.592279 
L 373.066822 164.237204 
L 373.118767 164.858315 
L 373.225903 170.125291 
L 373.399593 191.630616 
L 373.769699 271.127467 
L 373.871965 255.03216 
L 374.319988 172.144403 
L 374.514781 164.539492 
L 374.527767 164.579421 
L 374.584582 165.631525 
L 374.707951 173.040974 
L 374.899497 200.36463 
L 375.233891 274.828546 
L 375.319924 262.031737 
L 375.806906 171.669671 
L 375.996829 164.237163 
L 376.014685 164.307969 
L 376.077993 165.731883 
L 376.207855 174.704206 
L 376.405894 206.521176 
L 376.699706 271.12793 
L 376.77113 262.281617 
L 377.324666 167.48596 
L 377.444788 164.539414 
L 377.488617 164.96076 
L 377.586013 169.003797 
L 377.75321 186.905251 
L 378.006441 242.659387 
L 378.165521 274.828293 
L 378.215843 269.534377 
L 378.883008 164.672418 
L 378.926836 164.237255 
L 378.980404 164.871017 
L 379.08754 170.165386 
L 379.261231 191.723229 
L 379.629713 271.127153 
L 379.73198 255.299402 
L 380.183249 171.97691 
L 380.374796 164.539464 
L 380.389405 164.582612 
L 380.44622 165.648182 
L 380.569588 173.088772 
L 380.761135 200.469266 
L 381.095529 274.829092 
L 381.181562 261.904815 
L 381.666921 171.753028 
L 381.858467 164.237201 
L 381.8747 164.299502 
L 381.936384 165.632727 
L 382.064623 174.262209 
L 382.261039 205.230408 
L 382.561344 271.127498 
L 382.634391 261.820203 
L 383.178188 167.86176 
L 383.306426 164.539488 
L 383.347008 164.909918 
L 383.442781 168.729987 
L 383.608355 186.003082 
L 383.856716 239.752186 
L 384.025536 274.828509 
L 384.077481 269.435242 
L 384.741399 164.726629 
L 384.788474 164.237164 
L 384.842042 164.883848 
L 384.949178 170.205627 
L 385.122868 191.816009 
L 385.491351 271.127925 
L 385.593617 255.169835 
L 386.043264 172.061663 
L 386.236433 164.539413 
L 386.24942 164.576169 
L 386.304611 165.564215 
L 386.426356 172.701853 
L 386.616279 199.301886 
L 386.957167 274.828337 
L 387.044823 261.386799 
L 387.523689 172.088699 
L 387.718481 164.237259 
L 387.734714 164.291576 
L 387.794775 165.537019 
L 387.921391 173.830642 
L 388.116183 203.959289 
L 388.421359 271.127111 
L 388.497652 261.352245 
L 389.031709 168.259943 
L 389.166441 164.539467 
L 389.205399 164.862375 
L 389.297926 168.368319 
L 389.460253 184.649833 
L 389.702121 235.569972 
L 389.887174 274.829095 
L 389.939119 269.335473 
L 390.598167 164.819663 
L 390.650112 164.237198 
L 390.70368 164.896809 
L 390.812439 170.370538 
L 390.987753 192.481607 
L 391.352989 271.127529 
L 391.452009 255.831466 
L 391.908148 171.770985 
L 392.098071 164.539484 
L 392.112681 164.589364 
L 392.171119 165.734439 
L 392.296111 173.482333 
L 392.48928 201.650201 
L 392.817181 274.828471 
L 392.901591 262.426308 
L 393.395066 171.306438 
L 393.580119 164.237164 
L 393.599599 164.321262 
L 393.666153 165.917033 
L 393.799261 175.555613 
L 394.00217 209.391749 
L 394.282996 271.127919 
L 394.349551 263.305698 
L 394.929059 166.558624 
L 395.028079 164.539413 
L 395.076777 165.059494 
L 395.180666 169.761141 
L 395.352733 189.459825 
L 395.622196 251.373347 
L 395.748812 274.828379 
L 395.799133 269.540405 
L 396.467921 164.642112 
L 396.510127 164.237264 
L 396.563695 164.870238 
L 396.670831 170.162936 
L 396.844521 191.717574 
L 397.213004 271.127068 
L 397.31527 255.307302 
L 397.76654 171.979412 
L 397.958086 164.539471 
L 397.972695 164.582414 
L 398.02951 165.647162 
L 398.152879 173.085852 
L 398.344425 200.462877 
L 398.487273 233.851817 
L 398.487273 233.851817 
" style="fill:none;stroke:#1f77b4;stroke-linecap:square;stroke-width:1.5;"/>
   </g>
   <g id="patch_3">
    <path d="M 57.6 307.584 
L 57.6 41.472 
" style="fill:none;stroke:#000000;stroke-linecap:square;stroke-linejoin:miter;stroke-width:0.8;"/>
   </g>
   <g id="patch_4">
    <path d="M 414.72 307.584 
L 414.72 41.472 
" style="fill:none;stroke:#000000;stroke-linecap:square;stroke-linejoin:miter;stroke-width:0.8;"/>
   </g>
   <g id="patch_5">
    <path d="M 57.6 307.584 
L 414.72 307.584 
" style="fill:none;stroke:#000000;stroke-linecap:square;stroke-linejoin:miter;stroke-width:0.8;"/>
   </g>
   <g id="patch_6">
    <path d="M 57.6 41.472 
L 414.72 41.472 
" style="fill:none;stroke:#000000;stroke-linecap:square;stroke-linejoin:miter;stroke-width:0.8;"/>
   </g>
  </g>
 </g>
 <defs>
  <clipPath id="p26ccf4d4f1">
   <rect height="266.112" width="357.12" x="57.6" y="41.472"/>
  </clipPath>
 </defs>
</svg>
