<?xml version="1.0" encoding="utf-8" standalone="no"?>
<!DOCTYPE svg PUBLIC "-//W3C//DTD SVG 1.1//EN"
  "http://www.w3.org/Graphics/SVG/1.1/DTD/svg11.dtd">
<!-- Created with matplotlib (https://matplotlib.org/) -->
<svg height="345.6pt" version="1.1" viewBox="0 0 460.8 345.6" width="460.8pt" xmlns="http://www.w3.org/2000/svg" xmlns:xlink="http://www.w3.org/1999/xlink">
 <metadata>
  <rdf:RDF xmlns:cc="http://creativecommons.org/ns#" xmlns:dc="http://purl.org/dc/elements/1.1/" xmlns:rdf="http://www.w3.org/1999/02/22-rdf-syntax-ns#">
   <cc:Work>
    <dc:type rdf:resource="http://purl.org/dc/dcmitype/StillImage"/>
    <dc:date>2020-07-25T22:45:30.782125</dc:date>
    <dc:format>image/svg+xml</dc:format>
    <dc:creator>
     <cc:Agent>
      <dc:title>Matplotlib v3.3.0, https://matplotlib.org/</dc:title>
     </cc:Agent>
    </dc:creator>
   </cc:Work>
  </rdf:RDF>
 </metadata>
 <defs>
  <style type="text/css">*{stroke-linecap:butt;stroke-linejoin:round;}</style>
 </defs>
 <g id="figure_1">
  <g id="patch_1">
   <path d="M 0 345.6 
L 460.8 345.6 
L 460.8 0 
L 0 0 
z
" style="fill:#ffffff;"/>
  </g>
  <g id="axes_1">
   <g id="patch_2">
    <path d="M 57.6 307.584 
L 414.72 307.584 
L 414.72 41.472 
L 57.6 41.472 
z
" style="fill:#ffffff;"/>
   </g>
   <g id="matplotlib.axis_1">
    <g id="xtick_1">
     <g id="line2d_1">
      <defs>
       <path d="M 0 0 
L 0 3.5 
" id="m12abbb74c6" style="stroke:#000000;stroke-width:0.8;"/>
      </defs>
      <g>
       <use style="stroke:#000000;stroke-width:0.8;" x="73.832727" xlink:href="#m12abbb74c6" y="307.584"/>
      </g>
     </g>
     <g id="text_1">
      <!-- $\mathdefault{0}$ -->
      <g transform="translate(71.34206 321.502498)scale(0.1 -0.1)">
       <defs>
        <path d="M 42 31.640625 
C 42 37.75 41.90625 48.125 37.703125 56.109375 
C 34 63.109375 28.09375 65.59375 22.90625 65.59375 
C 18.09375 65.59375 12 63.40625 8.203125 56.203125 
C 4.203125 48.71875 3.796875 39.4375 3.796875 31.640625 
C 3.796875 25.953125 3.90625 17.28125 7 9.671875 
C 11.296875 -0.609375 19 -2 22.90625 -2 
C 27.5 -2 34.5 -0.109375 38.59375 9.375 
C 41.59375 16.28125 42 24.359375 42 31.640625 
z
M 22.90625 -0.40625 
C 16.5 -0.40625 12.703125 5.078125 11.296875 12.6875 
C 10.203125 18.5625 10.203125 27.15625 10.203125 32.75 
C 10.203125 40.4375 10.203125 46.828125 11.5 52.921875 
C 13.40625 61.390625 19 64 22.90625 64 
C 27 64 32.296875 61.296875 34.203125 53.125 
C 35.5 47.4375 35.59375 40.734375 35.59375 32.75 
C 35.59375 26.25 35.59375 18.265625 34.40625 12.375 
C 32.296875 1.484375 26.40625 -0.40625 22.90625 -0.40625 
z
" id="CMR17-48"/>
       </defs>
       <use transform="scale(0.996264)" xlink:href="#CMR17-48"/>
      </g>
     </g>
    </g>
    <g id="xtick_2">
     <g id="line2d_2">
      <g>
       <use style="stroke:#000000;stroke-width:0.8;" x="114.414545" xlink:href="#m12abbb74c6" y="307.584"/>
      </g>
     </g>
     <g id="text_2">
      <!-- $\mathdefault{25000}$ -->
      <g transform="translate(101.961207 321.502498)scale(0.1 -0.1)">
       <defs>
        <path d="M 41.703125 15.453125 
L 39.90625 15.453125 
C 38.90625 8.375 38.09375 7.171875 37.703125 6.5625 
C 37.203125 5.765625 30 5.765625 28.59375 5.765625 
L 9.40625 5.765625 
C 13 9.671875 20 16.75 28.5 24.953125 
C 34.59375 30.734375 41.703125 37.53125 41.703125 47.421875 
C 41.703125 59.21875 32.296875 66 21.796875 66 
C 10.796875 66 4.09375 56.3125 4.09375 47.34375 
C 4.09375 43.4375 7 42.9375 8.203125 42.9375 
C 9.203125 42.9375 12.203125 43.546875 12.203125 47.03125 
C 12.203125 50.109375 9.59375 51 8.203125 51 
C 7.59375 51 7 50.90625 6.59375 50.703125 
C 8.5 59.21875 14.296875 63.40625 20.40625 63.40625 
C 29.09375 63.40625 34.796875 56.515625 34.796875 47.421875 
C 34.796875 38.734375 29.703125 31.25 24 24.75 
L 4.09375 2.28125 
L 4.09375 0 
L 39.296875 0 
z
" id="CMR17-50"/>
        <path d="M 11.40625 57.6875 
C 12.40625 57.28125 16.5 56 20.703125 56 
C 30 56 35.09375 61.109375 38 64.0625 
C 38 64.953125 38 65.5 37.40625 65.5 
C 37.296875 65.5 37.09375 65.5 36.296875 65.046875 
C 32.796875 63.40625 28.703125 62.078125 23.703125 62.078125 
C 20.703125 62.078125 16.203125 62.484375 11.296875 64.671875 
C 10.203125 65.171875 10 65.171875 9.90625 65.171875 
C 9.40625 65.171875 9.296875 65.0625 9.296875 63.078125 
L 9.296875 34.421875 
C 9.296875 32.640625 9.296875 32.140625 10.296875 32.140625 
C 10.796875 32.140625 11 32.34375 11.5 33.03125 
C 14.703125 37.515625 19.09375 39.40625 24.09375 39.40625 
C 27.59375 39.40625 35.09375 37.21875 35.09375 20.140625 
C 35.09375 16.953125 35.09375 11.171875 32.09375 6.578125 
C 29.59375 2.484375 25.703125 0.390625 21.40625 0.390625 
C 14.796875 0.390625 8.09375 5 6.296875 12.71875 
C 6.703125 12.609375 7.5 12.421875 7.90625 12.421875 
C 9.203125 12.421875 11.703125 13.125 11.703125 16.21875 
C 11.703125 18.90625 9.796875 20 7.90625 20 
C 5.59375 20 4.09375 18.59375 4.09375 15.796875 
C 4.09375 7.09375 11 -2 21.59375 -2 
C 31.90625 -2 41.703125 6.875 41.703125 19.75 
C 41.703125 31.71875 33.90625 41 24.203125 41 
C 19.09375 41 14.796875 39.109375 11.40625 35.53125 
z
" id="CMR17-53"/>
       </defs>
       <use transform="scale(0.996264)" xlink:href="#CMR17-50"/>
       <use transform="translate(45.690477 0)scale(0.996264)" xlink:href="#CMR17-53"/>
       <use transform="translate(91.380954 0)scale(0.996264)" xlink:href="#CMR17-48"/>
       <use transform="translate(137.071431 0)scale(0.996264)" xlink:href="#CMR17-48"/>
       <use transform="translate(182.761908 0)scale(0.996264)" xlink:href="#CMR17-48"/>
      </g>
     </g>
    </g>
    <g id="xtick_3">
     <g id="line2d_3">
      <g>
       <use style="stroke:#000000;stroke-width:0.8;" x="154.996364" xlink:href="#m12abbb74c6" y="307.584"/>
      </g>
     </g>
     <g id="text_3">
      <!-- $\mathdefault{50000}$ -->
      <g transform="translate(142.543026 321.502498)scale(0.1 -0.1)">
       <use transform="scale(0.996264)" xlink:href="#CMR17-53"/>
       <use transform="translate(45.690477 0)scale(0.996264)" xlink:href="#CMR17-48"/>
       <use transform="translate(91.380954 0)scale(0.996264)" xlink:href="#CMR17-48"/>
       <use transform="translate(137.071431 0)scale(0.996264)" xlink:href="#CMR17-48"/>
       <use transform="translate(182.761908 0)scale(0.996264)" xlink:href="#CMR17-48"/>
      </g>
     </g>
    </g>
    <g id="xtick_4">
     <g id="line2d_4">
      <g>
       <use style="stroke:#000000;stroke-width:0.8;" x="195.578182" xlink:href="#m12abbb74c6" y="307.584"/>
      </g>
     </g>
     <g id="text_4">
      <!-- $\mathdefault{75000}$ -->
      <g transform="translate(183.124844 321.502498)scale(0.1 -0.1)">
       <defs>
        <path d="M 45.09375 61.578125 
L 45.09375 63.765625 
L 21.59375 63.765625 
C 9.90625 63.765625 9.703125 65.078125 9.296875 67 
L 7.5 67 
L 4.59375 48.34375 
L 6.40625 48.34375 
C 6.703125 50.234375 7.40625 55.3125 8.59375 57.203125 
C 9.203125 58 16.59375 58 18.296875 58 
L 40.296875 58 
L 29.203125 41.578125 
C 21.796875 30.53125 16.703125 15.609375 16.703125 2.578125 
C 16.703125 1.390625 16.703125 -2 20.296875 -2 
C 23.90625 -2 23.90625 1.390625 23.90625 2.671875 
L 23.90625 7.265625 
C 23.90625 23.5625 26.703125 34.3125 31.296875 41.1875 
z
" id="CMR17-55"/>
       </defs>
       <use transform="scale(0.996264)" xlink:href="#CMR17-55"/>
       <use transform="translate(45.690477 0)scale(0.996264)" xlink:href="#CMR17-53"/>
       <use transform="translate(91.380954 0)scale(0.996264)" xlink:href="#CMR17-48"/>
       <use transform="translate(137.071431 0)scale(0.996264)" xlink:href="#CMR17-48"/>
       <use transform="translate(182.761908 0)scale(0.996264)" xlink:href="#CMR17-48"/>
      </g>
     </g>
    </g>
    <g id="xtick_5">
     <g id="line2d_5">
      <g>
       <use style="stroke:#000000;stroke-width:0.8;" x="236.16" xlink:href="#m12abbb74c6" y="307.584"/>
      </g>
     </g>
     <g id="text_5">
      <!-- $\mathdefault{100000}$ -->
      <g transform="translate(221.215994 321.502498)scale(0.1 -0.1)">
       <defs>
        <path d="M 26.59375 63.40625 
C 26.59375 65.5 26.5 65.5 25.09375 65.5 
C 21.203125 61.1875 15.296875 59.796875 9.703125 59.796875 
C 9.40625 59.796875 8.90625 59.796875 8.796875 59.5 
C 8.703125 59.296875 8.703125 59.09375 8.703125 57 
C 11.796875 57 17 57.59375 21 59.984375 
L 21 7.203125 
C 21 3.6875 20.796875 2.5 12.203125 2.5 
L 9.203125 2.5 
L 9.203125 0 
C 14 0 19 0 23.796875 0 
C 28.59375 0 33.59375 0 38.40625 0 
L 38.40625 2.5 
L 35.40625 2.5 
C 26.796875 2.5 26.59375 3.59375 26.59375 7.15625 
z
" id="CMR17-49"/>
       </defs>
       <use transform="scale(0.996264)" xlink:href="#CMR17-49"/>
       <use transform="translate(45.690477 0)scale(0.996264)" xlink:href="#CMR17-48"/>
       <use transform="translate(91.380954 0)scale(0.996264)" xlink:href="#CMR17-48"/>
       <use transform="translate(137.071431 0)scale(0.996264)" xlink:href="#CMR17-48"/>
       <use transform="translate(182.761908 0)scale(0.996264)" xlink:href="#CMR17-48"/>
       <use transform="translate(228.452386 0)scale(0.996264)" xlink:href="#CMR17-48"/>
      </g>
     </g>
    </g>
    <g id="xtick_6">
     <g id="line2d_6">
      <g>
       <use style="stroke:#000000;stroke-width:0.8;" x="276.741818" xlink:href="#m12abbb74c6" y="307.584"/>
      </g>
     </g>
     <g id="text_6">
      <!-- $\mathdefault{125000}$ -->
      <g transform="translate(261.797812 321.502498)scale(0.1 -0.1)">
       <use transform="scale(0.996264)" xlink:href="#CMR17-49"/>
       <use transform="translate(45.690477 0)scale(0.996264)" xlink:href="#CMR17-50"/>
       <use transform="translate(91.380954 0)scale(0.996264)" xlink:href="#CMR17-53"/>
       <use transform="translate(137.071431 0)scale(0.996264)" xlink:href="#CMR17-48"/>
       <use transform="translate(182.761908 0)scale(0.996264)" xlink:href="#CMR17-48"/>
       <use transform="translate(228.452386 0)scale(0.996264)" xlink:href="#CMR17-48"/>
      </g>
     </g>
    </g>
    <g id="xtick_7">
     <g id="line2d_7">
      <g>
       <use style="stroke:#000000;stroke-width:0.8;" x="317.323636" xlink:href="#m12abbb74c6" y="307.584"/>
      </g>
     </g>
     <g id="text_7">
      <!-- $\mathdefault{150000}$ -->
      <g transform="translate(302.379631 321.502498)scale(0.1 -0.1)">
       <use transform="scale(0.996264)" xlink:href="#CMR17-49"/>
       <use transform="translate(45.690477 0)scale(0.996264)" xlink:href="#CMR17-53"/>
       <use transform="translate(91.380954 0)scale(0.996264)" xlink:href="#CMR17-48"/>
       <use transform="translate(137.071431 0)scale(0.996264)" xlink:href="#CMR17-48"/>
       <use transform="translate(182.761908 0)scale(0.996264)" xlink:href="#CMR17-48"/>
       <use transform="translate(228.452386 0)scale(0.996264)" xlink:href="#CMR17-48"/>
      </g>
     </g>
    </g>
    <g id="xtick_8">
     <g id="line2d_8">
      <g>
       <use style="stroke:#000000;stroke-width:0.8;" x="357.905455" xlink:href="#m12abbb74c6" y="307.584"/>
      </g>
     </g>
     <g id="text_8">
      <!-- $\mathdefault{175000}$ -->
      <g transform="translate(342.961449 321.502498)scale(0.1 -0.1)">
       <use transform="scale(0.996264)" xlink:href="#CMR17-49"/>
       <use transform="translate(45.690477 0)scale(0.996264)" xlink:href="#CMR17-55"/>
       <use transform="translate(91.380954 0)scale(0.996264)" xlink:href="#CMR17-53"/>
       <use transform="translate(137.071431 0)scale(0.996264)" xlink:href="#CMR17-48"/>
       <use transform="translate(182.761908 0)scale(0.996264)" xlink:href="#CMR17-48"/>
       <use transform="translate(228.452386 0)scale(0.996264)" xlink:href="#CMR17-48"/>
      </g>
     </g>
    </g>
    <g id="xtick_9">
     <g id="line2d_9">
      <g>
       <use style="stroke:#000000;stroke-width:0.8;" x="398.487273" xlink:href="#m12abbb74c6" y="307.584"/>
      </g>
     </g>
     <g id="text_9">
      <!-- $\mathdefault{200000}$ -->
      <g transform="translate(383.543267 321.502498)scale(0.1 -0.1)">
       <use transform="scale(0.996264)" xlink:href="#CMR17-50"/>
       <use transform="translate(45.690477 0)scale(0.996264)" xlink:href="#CMR17-48"/>
       <use transform="translate(91.380954 0)scale(0.996264)" xlink:href="#CMR17-48"/>
       <use transform="translate(137.071431 0)scale(0.996264)" xlink:href="#CMR17-48"/>
       <use transform="translate(182.761908 0)scale(0.996264)" xlink:href="#CMR17-48"/>
       <use transform="translate(228.452386 0)scale(0.996264)" xlink:href="#CMR17-48"/>
      </g>
     </g>
    </g>
   </g>
   <g id="matplotlib.axis_2">
    <g id="ytick_1">
     <g id="line2d_10">
      <defs>
       <path d="M 0 0 
L -3.5 0 
" id="m4afa28841d" style="stroke:#000000;stroke-width:0.8;"/>
      </defs>
      <g>
       <use style="stroke:#000000;stroke-width:0.8;" x="57.6" xlink:href="#m4afa28841d" y="296.804029"/>
      </g>
     </g>
     <g id="text_10">
      <!-- $\mathdefault{0.000}$ -->
      <g transform="translate(27.907251 300.263278)scale(0.1 -0.1)">
       <defs>
        <path d="M 18.40625 4.796875 
C 18.40625 7.6875 16 9.671875 13.59375 9.671875 
C 10.703125 9.671875 8.703125 7.28125 8.703125 4.890625 
C 8.703125 2 11.09375 0 13.5 0 
C 16.40625 0 18.40625 2.390625 18.40625 4.796875 
z
" id="CMMI12-58"/>
       </defs>
       <use transform="scale(0.996264)" xlink:href="#CMR17-48"/>
       <use transform="translate(45.690477 0)scale(0.996264)" xlink:href="#CMMI12-58"/>
       <use transform="translate(72.787654 0)scale(0.996264)" xlink:href="#CMR17-48"/>
       <use transform="translate(118.478131 0)scale(0.996264)" xlink:href="#CMR17-48"/>
       <use transform="translate(164.168608 0)scale(0.996264)" xlink:href="#CMR17-48"/>
      </g>
     </g>
    </g>
    <g id="ytick_2">
     <g id="line2d_11">
      <g>
       <use style="stroke:#000000;stroke-width:0.8;" x="57.6" xlink:href="#m4afa28841d" y="264.947362"/>
      </g>
     </g>
     <g id="text_11">
      <!-- $\mathdefault{0.025}$ -->
      <g transform="translate(27.907251 268.406611)scale(0.1 -0.1)">
       <use transform="scale(0.996264)" xlink:href="#CMR17-48"/>
       <use transform="translate(45.690477 0)scale(0.996264)" xlink:href="#CMMI12-58"/>
       <use transform="translate(72.787654 0)scale(0.996264)" xlink:href="#CMR17-48"/>
       <use transform="translate(118.478131 0)scale(0.996264)" xlink:href="#CMR17-50"/>
       <use transform="translate(164.168608 0)scale(0.996264)" xlink:href="#CMR17-53"/>
      </g>
     </g>
    </g>
    <g id="ytick_3">
     <g id="line2d_12">
      <g>
       <use style="stroke:#000000;stroke-width:0.8;" x="57.6" xlink:href="#m4afa28841d" y="233.090694"/>
      </g>
     </g>
     <g id="text_12">
      <!-- $\mathdefault{0.050}$ -->
      <g transform="translate(27.907251 236.549944)scale(0.1 -0.1)">
       <use transform="scale(0.996264)" xlink:href="#CMR17-48"/>
       <use transform="translate(45.690477 0)scale(0.996264)" xlink:href="#CMMI12-58"/>
       <use transform="translate(72.787654 0)scale(0.996264)" xlink:href="#CMR17-48"/>
       <use transform="translate(118.478131 0)scale(0.996264)" xlink:href="#CMR17-53"/>
       <use transform="translate(164.168608 0)scale(0.996264)" xlink:href="#CMR17-48"/>
      </g>
     </g>
    </g>
    <g id="ytick_4">
     <g id="line2d_13">
      <g>
       <use style="stroke:#000000;stroke-width:0.8;" x="57.6" xlink:href="#m4afa28841d" y="201.234027"/>
      </g>
     </g>
     <g id="text_13">
      <!-- $\mathdefault{0.075}$ -->
      <g transform="translate(27.907251 204.693276)scale(0.1 -0.1)">
       <use transform="scale(0.996264)" xlink:href="#CMR17-48"/>
       <use transform="translate(45.690477 0)scale(0.996264)" xlink:href="#CMMI12-58"/>
       <use transform="translate(72.787654 0)scale(0.996264)" xlink:href="#CMR17-48"/>
       <use transform="translate(118.478131 0)scale(0.996264)" xlink:href="#CMR17-55"/>
       <use transform="translate(164.168608 0)scale(0.996264)" xlink:href="#CMR17-53"/>
      </g>
     </g>
    </g>
    <g id="ytick_5">
     <g id="line2d_14">
      <g>
       <use style="stroke:#000000;stroke-width:0.8;" x="57.6" xlink:href="#m4afa28841d" y="169.37736"/>
      </g>
     </g>
     <g id="text_14">
      <!-- $\mathdefault{0.100}$ -->
      <g transform="translate(27.907251 172.836609)scale(0.1 -0.1)">
       <use transform="scale(0.996264)" xlink:href="#CMR17-48"/>
       <use transform="translate(45.690477 0)scale(0.996264)" xlink:href="#CMMI12-58"/>
       <use transform="translate(72.787654 0)scale(0.996264)" xlink:href="#CMR17-49"/>
       <use transform="translate(118.478131 0)scale(0.996264)" xlink:href="#CMR17-48"/>
       <use transform="translate(164.168608 0)scale(0.996264)" xlink:href="#CMR17-48"/>
      </g>
     </g>
    </g>
    <g id="ytick_6">
     <g id="line2d_15">
      <g>
       <use style="stroke:#000000;stroke-width:0.8;" x="57.6" xlink:href="#m4afa28841d" y="137.520693"/>
      </g>
     </g>
     <g id="text_15">
      <!-- $\mathdefault{0.125}$ -->
      <g transform="translate(27.907251 140.979942)scale(0.1 -0.1)">
       <use transform="scale(0.996264)" xlink:href="#CMR17-48"/>
       <use transform="translate(45.690477 0)scale(0.996264)" xlink:href="#CMMI12-58"/>
       <use transform="translate(72.787654 0)scale(0.996264)" xlink:href="#CMR17-49"/>
       <use transform="translate(118.478131 0)scale(0.996264)" xlink:href="#CMR17-50"/>
       <use transform="translate(164.168608 0)scale(0.996264)" xlink:href="#CMR17-53"/>
      </g>
     </g>
    </g>
    <g id="ytick_7">
     <g id="line2d_16">
      <g>
       <use style="stroke:#000000;stroke-width:0.8;" x="57.6" xlink:href="#m4afa28841d" y="105.664026"/>
      </g>
     </g>
     <g id="text_16">
      <!-- $\mathdefault{0.150}$ -->
      <g transform="translate(27.907251 109.123275)scale(0.1 -0.1)">
       <use transform="scale(0.996264)" xlink:href="#CMR17-48"/>
       <use transform="translate(45.690477 0)scale(0.996264)" xlink:href="#CMMI12-58"/>
       <use transform="translate(72.787654 0)scale(0.996264)" xlink:href="#CMR17-49"/>
       <use transform="translate(118.478131 0)scale(0.996264)" xlink:href="#CMR17-53"/>
       <use transform="translate(164.168608 0)scale(0.996264)" xlink:href="#CMR17-48"/>
      </g>
     </g>
    </g>
    <g id="ytick_8">
     <g id="line2d_17">
      <g>
       <use style="stroke:#000000;stroke-width:0.8;" x="57.6" xlink:href="#m4afa28841d" y="73.807359"/>
      </g>
     </g>
     <g id="text_17">
      <!-- $\mathdefault{0.175}$ -->
      <g transform="translate(27.907251 77.266608)scale(0.1 -0.1)">
       <use transform="scale(0.996264)" xlink:href="#CMR17-48"/>
       <use transform="translate(45.690477 0)scale(0.996264)" xlink:href="#CMMI12-58"/>
       <use transform="translate(72.787654 0)scale(0.996264)" xlink:href="#CMR17-49"/>
       <use transform="translate(118.478131 0)scale(0.996264)" xlink:href="#CMR17-55"/>
       <use transform="translate(164.168608 0)scale(0.996264)" xlink:href="#CMR17-53"/>
      </g>
     </g>
    </g>
    <g id="ytick_9">
     <g id="line2d_18">
      <g>
       <use style="stroke:#000000;stroke-width:0.8;" x="57.6" xlink:href="#m4afa28841d" y="41.950692"/>
      </g>
     </g>
     <g id="text_18">
      <!-- $\mathdefault{0.200}$ -->
      <g transform="translate(27.907251 45.409941)scale(0.1 -0.1)">
       <use transform="scale(0.996264)" xlink:href="#CMR17-48"/>
       <use transform="translate(45.690477 0)scale(0.996264)" xlink:href="#CMMI12-58"/>
       <use transform="translate(72.787654 0)scale(0.996264)" xlink:href="#CMR17-50"/>
       <use transform="translate(118.478131 0)scale(0.996264)" xlink:href="#CMR17-48"/>
       <use transform="translate(164.168608 0)scale(0.996264)" xlink:href="#CMR17-48"/>
      </g>
     </g>
    </g>
   </g>
   <g id="line2d_19">
    <path clip-path="url(#p894d085af4)" d="M 73.832727 118.406693 
L 74.274257 118.502968 
L 74.293737 121.658067 
L 74.347305 159.492732 
L 74.399249 119.824768 
L 74.426845 116.918673 
L 74.472297 126.312701 
L 74.540474 138.597125 
L 74.574563 124.610817 
L 74.597289 118.360842 
L 74.689815 121.881608 
L 74.850519 124.854667 
L 74.871622 125.506885 
L 74.917073 121.210049 
L 74.918697 121.226983 
L 74.944669 121.649657 
L 74.985251 113.609835 
L 74.998237 111.665087 
L 75.061545 120.454274 
L 75.100503 122.159589 
L 75.162188 120.136139 
L 75.18329 119.65271 
L 75.249844 121.266798 
L 75.264454 121.434874 
L 75.311529 120.443533 
L 75.358604 121.265711 
L 75.558266 119.517953 
L 75.430028 121.639506 
L 75.574499 119.558701 
L 75.680012 122.287921 
L 75.743319 121.407975 
L 75.845585 121.804361 
L 75.769292 121.260261 
L 75.871558 121.686529 
L 75.931619 121.302916 
L 75.98681 121.548174 
L 76.173487 123.494986 
L 76.240041 123.279002 
L 76.288739 123.402068 
L 76.426717 123.888434 
L 76.42834 123.8797 
L 76.467299 124.275569 
L 76.728646 128.160036 
L 76.821172 129.37591 
L 77.915258 153.490105 
L 78.304844 165.800889 
L 79.079145 197.054766 
L 79.807994 240.716241 
L 80.543337 295.198947 
L 80.622877 290.066808 
L 82.017268 180.768224 
L 82.77696 141.7707 
L 83.327249 123.784189 
L 83.859683 112.774127 
L 84.348288 106.723822 
L 84.724887 104.222201 
L 85.111226 102.843012 
L 85.148561 102.887293 
L 85.63879 103.976613 
L 86.036492 107.086454 
L 86.417961 111.98367 
L 86.943901 120.863801 
L 87.632169 135.090667 
L 88.270115 151.544192 
L 89.464844 191.186387 
L 90.505361 224.152902 
L 91.08974 235.395709 
L 91.51666 239.450561 
L 91.790993 240.437515 
L 92.031238 240.630028 
L 92.073443 240.587592 
L 92.501987 239.612841 
L 93.203241 236.078611 
L 93.787619 231.037826 
L 94.401216 222.629076 
L 95.156038 207.97914 
L 96.211165 188.008884 
L 96.672175 183.356763 
L 97.022801 181.781856 
L 97.290641 181.509978 
L 97.439983 181.602863 
L 97.59257 181.854858 
L 97.918848 182.714808 
L 98.714252 185.795182 
L 99.696332 189.667279 
L 100.257984 191.984615 
L 100.615104 194.272546 
L 101.004689 198.139533 
L 101.52576 205.48019 
L 102.576017 220.431484 
L 102.989952 223.315882 
L 103.21721 223.788189 
L 103.332463 223.728572 
L 103.524009 223.184145 
L 103.8373 221.296973 
L 104.39246 216.368543 
L 104.895674 212.971563 
L 105.150528 212.469329 
L 105.267404 212.547658 
L 105.426484 212.937874 
L 105.710557 214.182407 
L 106.311168 216.767745 
L 106.507584 216.941904 
L 106.661795 216.718149 
L 106.846848 216.004883 
L 107.116311 214.109883 
L 107.51239 209.718024 
L 108.952233 192.643237 
L 109.161635 192.252877 
L 109.163258 192.253453 
L 109.262278 192.373568 
L 109.442461 193.074464 
L 109.715171 195.171225 
L 110.276823 201.521775 
L 110.862825 206.948637 
L 111.16313 208.111171 
L 111.309225 208.179887 
L 111.331951 208.160501 
L 111.491031 207.801357 
L 111.745885 206.469284 
L 112.146833 203.018782 
L 112.815622 197.530274 
L 113.044503 196.996157 
L 113.150016 197.122648 
L 113.30098 197.746964 
L 113.550964 199.929562 
L 113.955159 205.889712 
L 114.946979 220.914951 
L 115.232675 222.415347 
L 115.321955 222.472624 
L 115.362537 222.429007 
L 115.479412 222.055935 
L 115.672582 220.625563 
L 115.981004 216.373733 
L 116.578368 204.082873 
L 117.084829 195.722399 
L 117.334813 194.342057 
L 117.388381 194.340761 
L 117.42734 194.405742 
L 117.558825 195.022642 
L 117.782836 197.339925 
L 118.214627 204.585913 
L 118.889908 214.943278 
L 119.214563 217.081088 
L 119.337932 217.237277 
L 119.37689 217.204435 
L 119.500259 216.829865 
L 119.701545 215.31183 
L 120.00185 211.008224 
L 120.482339 200.359104 
L 121.203072 185.326806 
L 121.457926 183.626272 
L 121.501754 183.619715 
L 121.543959 183.695056 
L 121.667328 184.366874 
L 121.884847 187.052514 
L 122.287418 195.409617 
L 123.123404 212.479626 
L 123.462668 215.577056 
L 123.603892 215.853026 
L 123.636358 215.828036 
L 123.749987 215.487697 
L 123.952896 213.981464 
L 124.271057 209.71884 
L 124.657396 201.435296 
L 125.514484 179.421445 
L 125.577792 179.660894 
L 125.696291 181.417593 
L 125.930042 188.972569 
L 126.298525 199.070471 
L 126.311511 199.076477 
L 126.343977 198.946828 
L 126.438127 197.424714 
L 126.657268 189.202412 
L 126.910499 182.201859 
L 126.928355 182.251558 
L 126.990039 183.249133 
L 127.115031 189.740487 
L 127.32281 214.524622 
L 127.702656 278.375704 
L 127.780573 269.0948 
L 128.093865 181.187894 
L 128.340602 139.716328 
L 128.348719 139.7471 
L 128.415273 141.247032 
L 128.462348 141.807296 
L 128.520785 141.12641 
L 128.606819 139.958747 
L 128.655517 140.615615 
L 128.744797 146.386773 
L 128.897385 174.135076 
L 129.184704 251.872174 
L 129.257751 238.388512 
L 129.808041 87.487976 
L 129.999587 68.913097 
L 130.035299 69.837108 
L 130.122956 80.713677 
L 130.533644 174.055431 
L 130.627793 156.485313 
L 130.921606 90.718386 
L 131.035235 83.675352 
L 131.346903 64.97074 
L 131.379369 65.570799 
L 131.452416 72.619105 
L 131.590394 113.478214 
L 131.793303 179.211493 
L 131.843625 171.671913 
L 132.278662 78.267745 
L 132.606563 58.158686 
L 132.637405 58.77493 
L 132.707206 66.584369 
L 132.843561 114.283575 
L 133.012381 174.64807 
L 133.062703 166.745881 
L 133.513972 63.29452 
L 133.786682 53.568 
L 133.822394 54.214929 
L 133.892195 61.488091 
L 134.007447 104.139681 
L 134.164905 168.595965 
L 134.218473 158.887828 
L 134.608058 64.655545 
L 134.642147 64.584207 
L 134.705455 64.726853 
L 134.914857 65.921859 
L 134.987904 68.445922 
L 135.070691 81.848605 
L 135.213539 155.816261 
L 135.302819 187.024111 
L 135.356387 175.92403 
L 135.692404 63.54479 
L 135.758959 65.095382 
L 136.08199 81.738533 
L 136.181009 101.412204 
L 136.356323 202.474309 
L 136.422877 224.733613 
L 136.478068 209.863663 
L 136.874147 73.374102 
L 136.883887 73.337471 
L 136.924468 73.793027 
L 137.111145 79.502351 
L 137.200425 91.302149 
L 137.333533 149.275897 
L 137.508847 253.63845 
L 137.570531 228.617448 
L 137.898432 89.804076 
L 138.012061 83.132808 
L 138.057513 83.68002 
L 138.166272 88.456564 
L 138.273408 106.190441 
L 138.430865 179.525006 
L 138.580207 280.741784 
L 138.640268 246.050044 
L 138.935703 109.641268 
L 139.099654 97.438655 
L 139.120756 97.587434 
L 139.190557 100.12254 
L 139.297693 113.726696 
L 139.450281 169.32349 
L 139.640204 295.488 
L 139.708381 247.015552 
L 139.992454 126.862716 
L 140.136925 116.365213 
L 140.167767 116.771357 
L 140.252177 121.86253 
L 140.383663 145.60312 
L 140.576832 230.761795 
L 140.683968 290.788168 
L 140.739159 261.855557 
L 141.049204 144.830227 
L 141.196922 134.012108 
L 141.227764 134.463439 
L 141.310551 140.209395 
L 141.448529 168.373706 
L 141.677411 272.250982 
L 141.716369 285.863983 
L 141.771561 263.725835 
L 142.091345 156.430135 
L 142.221207 148.533267 
L 142.260166 149.266584 
L 142.352692 156.9611 
L 142.506903 191.849117 
L 142.740655 288.255493 
L 142.816948 258.524303 
L 143.13024 165.87595 
L 143.261725 157.885373 
L 143.300684 158.641194 
L 143.39321 166.565017 
L 143.547421 202.384183 
L 143.761693 287.453356 
L 143.833117 260.96675 
L 144.148032 169.750473 
L 144.28114 161.991576 
L 144.318476 162.679746 
L 144.409379 170.099472 
L 144.56359 204.24148 
L 144.782732 292.376608 
L 144.855779 263.056046 
L 145.175564 170.673857 
L 145.318412 161.675314 
L 145.354124 162.286542 
L 145.44178 169.176615 
L 145.591121 202.165009 
L 145.810263 291.388195 
L 145.883311 261.465521 
L 146.196602 169.265985 
L 146.33945 160.468749 
L 146.375162 161.060788 
L 146.462819 167.759121 
L 146.61216 199.648447 
L 146.841041 294.70396 
L 146.917335 260.736904 
L 147.23225 168.23821 
L 147.379968 158.657836 
L 147.414057 159.188639 
L 147.498467 165.42432 
L 147.641315 195.578223 
L 147.873443 292.433665 
L 147.952983 258.10504 
L 148.259782 167.019729 
L 148.404253 158.014243 
L 148.438342 158.56409 
L 148.524375 164.942898 
L 148.67047 195.333152 
L 148.907468 294.628402 
L 148.987008 258.839214 
L 149.298676 166.761222 
L 149.446394 157.074627 
L 149.480483 157.593081 
L 149.564893 163.792274 
L 149.707741 193.933195 
L 149.941492 291.952233 
L 150.021033 257.723433 
L 150.327831 166.078404 
L 150.470679 157.090118 
L 150.506391 157.663441 
L 150.594048 164.293978 
L 150.741766 195.552023 
L 150.97714 294.120593 
L 151.055057 258.843036 
L 151.366726 166.385028 
L 151.514444 156.679847 
L 151.548532 157.204478 
L 151.632943 163.424914 
L 151.775791 193.592076 
L 152.011165 291.638448 
L 152.089082 257.763449 
L 152.395881 165.992804 
L 152.538729 157.052756 
L 152.574441 157.648219 
L 152.662097 164.332489 
L 152.809815 195.634902 
L 153.04519 293.961486 
L 153.123107 258.725085 
L 153.434775 166.448552 
L 153.582493 156.821513 
L 153.616582 157.371921 
L 153.702615 163.862182 
L 153.847087 194.978412 
L 154.077591 291.598078 
L 154.155508 258.207478 
L 154.46393 166.043467 
L 154.605155 157.230127 
L 154.640867 157.807531 
L 154.728524 164.440609 
L 154.876241 195.596197 
L 155.111616 294.004455 
L 155.189533 259.013007 
L 155.501201 166.640125 
L 155.648919 156.93903 
L 155.683008 157.472996 
L 155.767418 163.725638 
L 155.910266 193.914617 
L 156.144017 291.613124 
L 156.223558 257.683556 
L 156.530356 166.158685 
L 156.673204 157.290017 
L 156.707293 157.851591 
L 156.79495 164.439254 
L 156.942668 195.488944 
L 157.178042 294.040212 
L 157.257583 258.485908 
L 157.567628 166.718901 
L 157.716969 156.948815 
L 157.749434 157.466516 
L 157.833844 163.674866 
L 157.976692 193.76313 
L 158.212067 291.645692 
L 158.291607 257.168368 
L 158.598406 166.016754 
L 158.739631 157.284319 
L 158.775343 157.881613 
L 158.862999 164.560935 
L 159.01234 196.309842 
L 159.244468 294.03297 
L 159.322385 259.488643 
L 159.634054 166.779899 
L 159.783395 156.933666 
L 159.81586 157.434023 
L 159.900271 163.592349 
L 160.043119 193.568223 
L 160.278493 291.651685 
L 160.358033 257.440431 
L 160.664832 166.076934 
L 160.806057 157.272352 
L 160.841769 157.84959 
L 160.929425 164.474846 
L 161.077143 195.605391 
L 161.312518 294.053842 
L 161.390435 259.022159 
L 161.702103 166.639836 
L 161.849821 156.923817 
L 161.88391 157.456107 
L 161.96832 163.702604 
L 162.111168 193.869039 
L 162.346543 291.63485 
L 162.42446 257.728269 
L 162.731258 166.147681 
L 162.874106 157.26693 
L 162.908195 157.82385 
L 162.995852 164.39404 
L 163.143569 195.40708 
L 163.378944 294.049385 
L 163.458484 258.564214 
L 163.770153 166.508437 
L 163.917871 156.921325 
L 163.951959 157.486162 
L 164.037993 164.016455 
L 164.182464 195.194054 
L 164.412969 291.647521 
L 164.490886 258.019487 
L 164.799308 166.023384 
L 164.940532 157.265995 
L 164.976244 157.855732 
L 165.063901 164.51287 
L 165.211619 195.713277 
L 165.446993 294.035806 
L 165.524911 258.852319 
L 165.836579 166.587521 
L 165.984297 156.921443 
L 166.018385 157.466386 
L 166.104419 163.941006 
L 166.24889 194.996551 
L 166.479395 291.642259 
L 166.557312 258.310425 
L 166.865734 166.100277 
L 167.006959 157.266177 
L 167.042671 157.83506 
L 167.130327 164.437451 
L 167.278045 195.520872 
L 167.51342 294.053807 
L 167.591337 259.139706 
L 167.903005 166.667077 
L 168.050723 156.921862 
L 168.084812 157.446804 
L 168.169222 163.67162 
L 168.31207 193.787266 
L 168.547444 291.64085 
L 168.625361 257.843891 
L 168.93216 166.177324 
L 169.075008 157.265599 
L 169.109097 157.814456 
L 169.19513 164.169876 
L 169.342848 194.832309 
L 169.579846 294.037416 
L 169.659386 258.680307 
L 169.971055 166.538343 
L 170.118772 156.921601 
L 170.152861 157.478712 
L 170.238895 163.986332 
L 170.383366 195.113578 
L 170.613871 291.647649 
L 170.691788 258.135264 
L 171.000209 166.053508 
L 171.141434 157.265201 
L 171.177146 157.846508 
L 171.264803 164.48146 
L 171.412521 195.635407 
L 171.647895 294.046582 
L 171.725812 258.967742 
L 172.037481 166.618004 
L 172.185199 156.921448 
L 172.219287 157.458413 
L 172.303697 163.715402 
L 172.446545 193.901954 
L 172.680297 291.635041 
L 172.759837 257.669811 
L 173.066636 166.130483 
L 173.209484 157.265056 
L 173.243572 157.825773 
L 173.331229 164.406061 
L 173.478947 195.442698 
L 173.714321 294.05081 
L 173.793862 258.508931 
L 174.103907 166.698247 
L 174.253248 156.921547 
L 174.285713 157.438534 
L 174.370124 163.64095 
L 174.512972 193.708064 
L 174.748346 291.645865 
L 174.827887 257.205117 
L 175.134685 166.007279 
L 175.27591 157.264748 
L 175.311622 157.858485 
L 175.399279 164.526008 
L 175.546996 195.750018 
L 175.782371 294.027233 
L 175.860288 258.796314 
L 176.171956 166.569937 
L 176.319674 156.921287 
L 176.353763 157.4702 
L 176.439796 163.954958 
L 176.584268 195.033189 
L 176.814772 291.644764 
L 176.892689 258.253351 
L 177.201111 166.084226 
L 177.342336 157.264889 
L 177.378048 157.837779 
L 177.465705 164.450612 
L 177.613423 195.557197 
L 177.848797 294.052151 
L 177.926714 259.083927 
L 178.238383 166.650164 
L 178.3861 156.921412 
L 178.420189 157.450179 
L 178.504599 163.68494 
L 178.647447 193.823328 
L 178.882822 291.637214 
L 178.960739 257.787733 
L 179.267537 166.161553 
L 179.410385 157.264791 
L 179.444474 157.817478 
L 179.530508 164.183129 
L 179.678225 194.868289 
L 179.915223 294.042543 
L 179.994764 258.624861 
L 180.306432 166.522239 
L 180.45415 156.921349 
L 180.488239 157.482243 
L 180.574272 164.000184 
L 180.718743 195.150828 
L 180.949248 291.647663 
L 181.027165 258.079333 
L 181.335587 166.038206 
L 181.476812 157.264762 
L 181.512524 157.850089 
L 181.60018 164.495515 
L 181.747898 195.672127 
L 181.983273 294.04133 
L 182.06119 258.912252 
L 182.372858 166.602267 
L 182.520576 156.921267 
L 182.554665 157.462025 
L 182.640698 163.924271 
L 182.785169 194.953781 
L 183.015674 291.638786 
L 183.093591 258.371142 
L 183.402013 166.115327 
L 183.544861 157.265019 
L 183.57895 157.829581 
L 183.666607 164.420362 
L 183.814324 195.479635 
L 184.049699 294.052413 
L 184.129239 258.453398 
L 184.439284 166.682628 
L 184.588625 156.92156 
L 184.621091 157.442192 
L 184.705501 163.654998 
L 184.848349 193.745381 
L 185.083724 291.643702 
L 185.163264 257.149001 
L 185.470063 165.992325 
L 185.611287 157.264773 
L 185.646999 157.862544 
L 185.734656 164.54061 
L 185.882374 195.787346 
L 186.116125 294.028948 
L 186.195665 258.740591 
L 186.507334 166.554463 
L 186.655052 156.921267 
L 186.68914 157.474042 
L 186.775174 163.969543 
L 186.919645 195.071441 
L 187.15015 291.646382 
L 187.228067 258.196829 
L 187.536489 166.069229 
L 187.677713 157.264883 
L 187.713425 157.841812 
L 187.801082 164.465211 
L 187.9488 195.594569 
L 188.184175 294.049951 
L 188.262092 259.028041 
L 188.57376 166.634607 
L 188.721478 156.921341 
L 188.755567 157.453995 
L 188.839977 163.699321 
L 188.982825 193.861029 
L 189.218199 291.632877 
L 189.296116 257.73112 
L 189.602915 166.14649 
L 189.745763 157.264899 
L 189.779852 157.821446 
L 189.867508 164.390238 
L 190.015226 195.402323 
L 190.250601 294.047106 
L 190.330141 258.568976 
L 190.641809 166.506755 
L 190.789527 156.921405 
L 190.823616 157.486207 
L 190.909649 164.015001 
L 191.054121 195.189315 
L 191.284625 291.647097 
L 191.362543 258.022554 
L 191.670964 166.02325 
L 191.812189 157.264788 
L 191.847901 157.854166 
L 191.935558 164.51022 
L 192.083276 195.709716 
L 192.31865 294.035163 
L 192.396567 258.856249 
L 192.708236 166.586688 
L 192.855953 156.921261 
L 192.890042 157.465938 
L 192.976076 163.939039 
L 193.120547 194.992195 
L 193.351052 291.642005 
L 193.428969 258.314238 
L 193.737391 166.10029 
L 193.878615 157.265037 
L 193.914327 157.833578 
L 194.001984 164.434995 
L 194.149702 195.517159 
L 194.385076 294.052974 
L 194.462993 259.143788 
L 194.774662 166.666958 
L 194.92238 156.921481 
L 194.956468 157.446042 
L 195.040879 163.66947 
L 195.183727 193.78315 
L 195.419101 291.640916 
L 195.497018 257.848353 
L 195.803817 166.177688 
L 195.946665 157.264816 
L 195.980753 157.813358 
L 196.066787 164.167867 
L 196.214505 194.828741 
L 196.451503 294.036222 
L 196.531043 258.684535 
L 196.842711 166.538881 
L 196.990429 156.921309 
L 197.024518 157.478013 
L 197.110551 163.98439 
L 197.255023 195.109942 
L 197.485527 291.647374 
L 197.563444 258.139883 
L 197.871866 166.054211 
L 198.013091 157.264847 
L 198.048803 157.84584 
L 198.13646 164.479904 
L 198.284177 195.632184 
L 198.519552 294.046471 
L 198.597469 258.97191 
L 198.909137 166.618947 
L 199.056855 156.92131 
L 199.090944 157.457892 
L 199.175354 163.713853 
L 199.318202 193.898872 
L 199.551953 291.634513 
L 199.631494 257.67424 
L 199.938292 166.131392 
L 200.08114 157.264969 
L 200.115229 157.8254 
L 200.202886 164.40485 
L 200.350604 195.439837 
L 200.585978 294.050384 
L 200.665519 258.512913 
L 200.977187 166.491194 
L 201.124905 156.921485 
L 201.158993 157.490218 
L 201.245027 164.0299 
L 201.389498 195.227884 
L 201.620003 291.645838 
L 201.69792 257.965617 
L 202.006342 166.008257 
L 202.147567 157.264786 
L 202.183279 157.858233 
L 202.270935 164.524965 
L 202.418653 195.747394 
L 202.654028 294.027688 
L 202.731945 258.800125 
L 203.043613 166.571055 
L 203.191331 156.921267 
L 203.22542 157.469874 
L 203.311453 163.953847 
L 203.455924 195.030657 
L 203.686429 291.644521 
L 203.764346 258.257249 
L 204.072768 166.085222 
L 204.213993 157.264962 
L 204.249705 157.837572 
L 204.337361 164.449657 
L 204.485079 195.554734 
L 204.720454 294.052209 
L 204.798371 259.087607 
L 205.110039 166.651257 
L 205.257757 156.921414 
L 205.291846 157.449903 
L 205.376256 163.68396 
L 205.519104 193.82095 
L 205.754479 291.637404 
L 205.832396 257.791442 
L 206.139194 166.162547 
L 206.282042 157.264852 
L 206.316131 157.81728 
L 206.402164 164.182232 
L 206.549882 194.865945 
L 206.78688 294.0422 
L 206.86642 258.628437 
L 207.178089 166.523285 
L 207.325807 156.921354 
L 207.359895 157.481988 
L 207.445929 163.999247 
L 207.5904 195.148466 
L 207.820905 291.647633 
L 207.898822 258.082922 
L 208.207244 166.03918 
L 208.348468 157.264814 
L 208.38418 157.849876 
L 208.471837 164.494615 
L 208.619555 195.669816 
L 208.854929 294.041675 
L 208.932847 258.915758 
L 209.244515 166.603283 
L 209.392233 156.921282 
L 209.426321 157.461794 
L 209.512355 163.923376 
L 209.656826 194.951458 
L 209.887331 291.638541 
L 209.965248 258.374656 
L 210.27367 166.11629 
L 210.416518 157.265048 
L 210.450607 157.829364 
L 210.538263 164.419478 
L 210.685981 195.477366 
L 210.921356 294.052342 
L 211.000896 258.456847 
L 211.310941 166.683621 
L 211.460282 156.921571 
L 211.492748 157.441973 
L 211.577158 163.654138 
L 211.720006 193.743114 
L 211.95538 291.64384 
L 212.034921 257.152455 
L 212.341719 165.993266 
L 212.482944 157.264794 
L 212.518656 157.862312 
L 212.606313 164.539725 
L 212.754031 195.785085 
L 212.987782 294.02847 
L 213.067322 258.744006 
L 213.378991 166.555431 
L 213.526708 156.921281 
L 213.560797 157.473818 
L 213.646831 163.968666 
L 213.791302 195.069136 
L 214.021807 291.646298 
L 214.099724 258.200268 
L 214.408145 166.070161 
L 214.54937 157.264899 
L 214.585082 157.841579 
L 214.672739 164.464333 
L 214.820457 195.592322 
L 215.055831 294.050122 
L 215.133748 259.031436 
L 215.445417 166.635566 
L 215.593135 156.921356 
L 215.627223 157.453774 
L 215.711633 163.698463 
L 215.854481 193.858767 
L 216.089856 291.633158 
L 216.167773 257.734541 
L 216.474572 166.147416 
L 216.61742 157.264902 
L 216.651508 157.821214 
L 216.739165 164.389367 
L 216.886883 195.400083 
L 217.122257 294.046869 
L 217.201798 258.572351 
L 217.513466 166.5077 
L 217.661184 156.92141 
L 217.695273 157.485976 
L 217.781306 164.014118 
L 217.925777 195.187009 
L 218.156282 291.647153 
L 218.234199 258.025971 
L 218.542621 166.024161 
L 218.683846 157.264793 
L 218.719558 157.853926 
L 218.807215 164.50934 
L 218.954932 195.707465 
L 219.190307 294.035572 
L 219.268224 258.859619 
L 219.579892 166.587632 
L 219.72761 156.921268 
L 219.761699 157.465709 
L 219.847732 163.938159 
L 219.992204 194.989894 
L 220.222708 291.641834 
L 220.300625 258.317656 
L 220.609047 166.101201 
L 220.750272 157.265044 
L 220.785984 157.833341 
L 220.873641 164.43412 
L 221.021359 195.514913 
L 221.256733 294.052978 
L 221.33465 259.147157 
L 221.646319 166.667904 
L 221.794036 156.921489 
L 221.828125 157.445815 
L 221.912535 163.668606 
L 222.055383 193.780888 
L 222.290758 291.641105 
L 222.368675 257.851765 
L 222.675473 166.1786 
L 222.818321 157.264815 
L 222.85241 157.813125 
L 222.938444 164.167009 
L 223.086161 194.826515 
L 223.323159 294.035823 
L 223.4027 258.687899 
L 223.714368 166.539819 
L 223.862086 156.921309 
L 223.896175 157.477777 
L 223.982208 163.983502 
L 224.126679 195.107635 
L 224.357184 291.647337 
L 224.435101 258.143298 
L 224.743523 166.055115 
L 224.884748 157.26485 
L 224.92046 157.845599 
L 225.008116 164.479025 
L 225.155834 195.62993 
L 225.391209 294.046717 
L 225.469126 258.975276 
L 225.780794 166.619888 
L 225.928512 156.921313 
L 225.962601 157.45766 
L 226.047011 163.712982 
L 226.189859 193.896604 
L 226.42361 291.634249 
L 226.503151 257.677651 
L 226.809949 166.132299 
L 226.952797 157.264965 
L 226.986886 157.825163 
L 227.074543 164.403975 
L 227.22226 195.437589 
L 227.457635 294.050225 
L 227.537175 258.516275 
L 227.848844 166.492128 
L 227.996561 156.921481 
L 228.03065 157.489978 
L 228.116684 164.029007 
L 228.261155 195.225571 
L 228.49166 291.645935 
L 228.569577 257.969031 
L 228.877999 166.009157 
L 229.019223 157.264786 
L 229.054935 157.857989 
L 229.142592 164.524081 
L 229.29031 195.745134 
L 229.525684 294.028173 
L 229.603601 258.803491 
L 229.91527 166.571993 
L 230.062988 156.921267 
L 230.097076 157.469638 
L 230.18311 163.952959 
L 230.327581 195.02835 
L 230.558086 291.644391 
L 230.636003 258.260667 
L 230.944425 166.086126 
L 231.085649 157.264966 
L 231.121361 157.837332 
L 231.209018 164.448778 
L 231.356736 195.55248 
L 231.592111 294.052292 
L 231.670028 259.090976 
L 231.981696 166.652199 
L 232.129414 156.921417 
L 232.163503 157.449671 
L 232.247913 163.68309 
L 232.390761 193.818682 
L 232.626135 291.637636 
L 232.704052 257.794855 
L 233.010851 166.163455 
L 233.153699 157.26485 
L 233.187788 157.817044 
L 233.273821 164.18137 
L 233.421539 194.863713 
L 233.658537 294.041878 
L 233.738077 258.631802 
L 234.049745 166.52422 
L 234.197463 156.921351 
L 234.231552 157.481749 
L 234.317585 163.998355 
L 234.462057 195.146155 
L 234.692561 291.647639 
L 234.770479 258.086338 
L 235.0789 166.040082 
L 235.220125 157.264815 
L 235.255837 157.849634 
L 235.343494 164.493732 
L 235.491212 195.667558 
L 235.726586 294.041999 
L 235.804503 258.919126 
L 236.116172 166.604222 
L 236.263889 156.921284 
L 236.297978 157.461559 
L 236.384012 163.922489 
L 236.528483 194.949153 
L 236.758988 291.63832 
L 236.836905 258.378075 
L 237.145327 166.117195 
L 237.288175 157.265043 
L 237.322263 157.829125 
L 237.40992 164.4186 
L 237.557638 195.475114 
L 237.793012 294.052262 
L 237.872553 258.46021 
L 238.182598 166.684565 
L 238.331939 156.921565 
L 238.364404 157.441743 
L 238.448815 163.653271 
L 238.591663 193.740849 
L 238.827037 291.643981 
L 238.906577 257.155862 
L 239.213376 165.994165 
L 239.354601 157.264793 
L 239.390313 157.862067 
L 239.477969 164.538839 
L 239.625687 195.782824 
L 239.859439 294.027987 
L 239.938979 258.747372 
L 240.250647 166.556368 
L 240.398365 156.92128 
L 240.432454 157.473581 
L 240.518487 163.967777 
L 240.662959 195.066827 
L 240.893463 291.646212 
L 240.97138 258.203687 
L 241.279802 166.071065 
L 241.421027 157.264903 
L 241.456739 157.841338 
L 241.544396 164.463452 
L 241.692113 195.590066 
L 241.927488 294.050285 
L 242.005405 259.034805 
L 242.317073 166.636507 
L 242.464791 156.921359 
L 242.49888 157.453542 
L 242.58329 163.697592 
L 242.726138 193.856497 
L 242.961513 291.633433 
L 243.03943 257.737955 
L 243.346228 166.148323 
L 243.489076 157.264899 
L 243.523165 157.820978 
L 243.610822 164.388491 
L 243.75854 195.397833 
L 243.993914 294.046626 
L 244.073455 258.575715 
L 244.385123 166.508635 
L 244.532841 156.921407 
L 244.566929 157.485736 
L 244.652963 164.013225 
L 244.797434 195.184696 
L 245.027939 291.647203 
L 245.105856 258.029388 
L 245.414278 166.025062 
L 245.555503 157.264794 
L 245.591215 157.853682 
L 245.678871 164.508456 
L 245.826589 195.705206 
L 246.061964 294.035975 
L 246.139881 258.862987 
L 246.451549 166.58857 
L 246.599267 156.921268 
L 246.633356 157.465473 
L 246.719389 163.937271 
L 246.86386 194.987587 
L 247.094365 291.641657 
L 247.172282 258.321076 
L 247.480704 166.102106 
L 247.621929 157.265049 
L 247.657641 157.833102 
L 247.745297 164.433241 
L 247.893015 195.51266 
L 248.12839 294.052978 
L 248.206307 259.150528 
L 248.517975 166.668846 
L 248.665693 156.921494 
L 248.699782 157.445584 
L 248.784192 163.667737 
L 248.92704 193.778621 
L 249.162415 291.64129 
L 249.240332 257.85518 
L 249.54713 166.179509 
L 249.689978 157.264813 
L 249.724067 157.81289 
L 249.8101 164.166148 
L 249.957818 194.824284 
L 250.194816 294.035418 
L 250.274356 258.691265 
L 250.586025 166.540755 
L 250.733743 156.921307 
L 250.767831 157.477539 
L 250.853865 163.982612 
L 250.998336 195.105325 
L 251.228841 291.647295 
L 251.306758 258.146716 
L 251.61518 166.056017 
L 251.756404 157.264853 
L 251.792116 157.845358 
L 251.879773 164.478143 
L 252.027491 195.627673 
L 252.262865 294.046959 
L 252.340783 258.978645 
L 252.652451 166.620828 
L 252.800169 156.921315 
L 252.834257 157.457426 
L 252.918668 163.712111 
L 253.061516 193.894333 
L 253.295267 291.633982 
L 253.374807 257.681064 
L 253.681606 166.133205 
L 253.824454 157.264961 
L 253.858543 157.824926 
L 253.946199 164.403098 
L 254.093917 195.435338 
L 254.329292 294.050061 
L 254.408832 258.519639 
L 254.7205 166.493062 
L 254.868218 156.921476 
L 254.902307 157.489737 
L 254.98834 164.028113 
L 255.132812 195.223257 
L 255.363316 291.646029 
L 255.441233 257.972447 
L 255.749655 166.010056 
L 255.89088 157.264786 
L 255.926592 157.857745 
L 256.014249 164.523196 
L 256.161967 195.742874 
L 256.397341 294.028653 
L 256.475258 258.806858 
L 256.786927 166.572931 
L 256.934644 156.921266 
L 256.968733 157.469402 
L 257.054767 163.952071 
L 257.199238 195.026042 
L 257.429743 291.644258 
L 257.50766 258.264086 
L 257.816081 166.08703 
L 257.957306 157.264971 
L 257.993018 157.837093 
L 258.080675 164.447898 
L 258.228393 195.550225 
L 258.463767 294.052371 
L 258.541684 259.094347 
L 258.853353 166.653141 
L 259.001071 156.921421 
L 259.035159 157.44944 
L 259.119569 163.682221 
L 259.262417 193.816414 
L 259.497792 291.637865 
L 259.575709 257.798269 
L 259.882508 166.164363 
L 260.025356 157.264847 
L 260.059444 157.816809 
L 260.145478 164.180508 
L 260.293196 194.861481 
L 260.530193 294.041552 
L 260.609734 258.635167 
L 260.921402 166.525156 
L 261.06912 156.921348 
L 261.103209 157.481511 
L 261.189242 163.997464 
L 261.333713 195.143843 
L 261.564218 291.647641 
L 261.642135 258.089756 
L 261.950557 166.040983 
L 262.091782 157.264817 
L 262.127494 157.849391 
L 262.215151 164.492849 
L 262.362868 195.6653 
L 262.598243 294.042319 
L 262.67616 258.922495 
L 262.987828 166.605162 
L 263.135546 156.921285 
L 263.169635 157.461325 
L 263.255668 163.921603 
L 263.40014 194.946848 
L 263.630644 291.638097 
L 263.708561 258.381496 
L 264.016983 166.118101 
L 264.159831 157.265038 
L 264.19392 157.828887 
L 264.281577 164.417722 
L 264.429295 195.472862 
L 264.664669 294.052177 
L 264.744209 258.463573 
L 265.054255 166.685508 
L 265.203596 156.92156 
L 265.236061 157.441513 
L 265.320471 163.652403 
L 265.463319 193.738583 
L 265.698694 291.644119 
L 265.778234 257.159269 
L 266.085033 165.995064 
L 266.226257 157.264792 
L 266.261969 157.861822 
L 266.349626 164.537953 
L 266.497344 195.780562 
L 266.731095 294.027501 
L 266.810636 258.750739 
L 267.122304 166.557305 
L 267.270022 156.921279 
L 267.304111 157.473344 
L 267.390144 163.966887 
L 267.534615 195.064518 
L 267.76512 291.646123 
L 267.843037 258.207105 
L 268.151459 166.071968 
L 268.292684 157.264906 
L 268.328396 157.841097 
L 268.416052 164.462571 
L 268.56377 195.587811 
L 268.799145 294.050442 
L 268.877062 259.038175 
L 269.18873 166.637448 
L 269.336448 156.921362 
L 269.370537 157.453309 
L 269.454947 163.696722 
L 269.597795 193.854228 
L 269.833169 291.633706 
L 269.911087 257.741368 
L 270.217885 166.149231 
L 270.360733 157.264895 
L 270.394822 157.820742 
L 270.482479 164.387615 
L 270.630196 195.395584 
L 270.865571 294.046378 
L 270.945111 258.57908 
L 271.25678 166.509569 
L 271.404497 156.921403 
L 271.438586 157.485497 
L 271.52462 164.012333 
L 271.669091 195.182383 
L 271.899596 291.64725 
L 271.977513 258.032805 
L 272.285935 166.025963 
L 272.427159 157.264795 
L 272.462871 157.853439 
L 272.550528 164.507572 
L 272.698246 195.702947 
L 272.93362 294.036373 
L 273.011537 258.866355 
L 273.323206 166.589509 
L 273.470924 156.921269 
L 273.505012 157.465238 
L 273.591046 163.936384 
L 273.735517 194.98528 
L 273.966022 291.641477 
L 274.043939 258.324495 
L 274.352361 166.103011 
L 274.493585 157.265054 
L 274.529297 157.832863 
L 274.616954 164.432362 
L 274.764672 195.510406 
L 275.000047 294.052972 
L 275.077964 259.153899 
L 275.389632 166.669789 
L 275.53735 156.921499 
L 275.571439 157.445353 
L 275.655849 163.666869 
L 275.798697 193.776354 
L 276.034071 291.641472 
L 276.113612 257.10248 
L 276.42041 165.980086 
L 276.561635 157.264812 
L 276.597347 157.865912 
L 276.685004 164.552725 
L 276.834345 196.321685 
L 277.066473 294.035009 
L 277.14439 259.441712 
L 277.456058 166.750409 
L 277.605399 156.921305 
L 277.637865 157.425842 
L 277.722275 163.592986 
L 277.865123 193.583188 
L 278.100497 291.647251 
L 278.180038 257.393348 
L 278.486836 166.056919 
L 278.628061 157.264856 
L 278.663773 157.845116 
L 278.75143 164.477261 
L 278.899148 195.625416 
L 279.134522 294.047195 
L 279.212439 258.982014 
L 279.524108 166.621768 
L 279.671825 156.921317 
L 279.705914 157.457193 
L 279.790324 163.711239 
L 279.933172 193.892063 
L 280.166924 291.633712 
L 280.246464 257.684477 
L 280.553263 166.134112 
L 280.696111 157.264957 
L 280.730199 157.824688 
L 280.817856 164.402221 
L 280.965574 195.433087 
L 281.200948 294.049892 
L 281.280489 258.523003 
L 281.592157 166.493996 
L 281.739875 156.921472 
L 281.773964 157.489497 
L 281.859997 164.027219 
L 282.004468 195.220943 
L 282.234973 291.64612 
L 282.31289 257.975863 
L 282.621312 166.010956 
L 282.762537 157.264786 
L 282.798249 157.857501 
L 282.885905 164.522312 
L 283.033623 195.740613 
L 283.268998 294.029129 
L 283.346915 258.810225 
L 283.658583 166.573869 
L 283.806301 156.921266 
L 283.84039 157.469166 
L 283.926423 163.951182 
L 284.070895 195.023734 
L 284.301399 291.644123 
L 284.379316 258.267504 
L 284.687738 166.087934 
L 284.828963 157.264975 
L 284.864675 157.836853 
L 284.952332 164.447018 
L 285.100049 195.547971 
L 285.335424 294.052444 
L 285.413341 259.097717 
L 285.725009 166.654082 
L 285.872727 156.921425 
L 285.906816 157.449208 
L 285.991226 163.681351 
L 286.134074 193.814146 
L 286.369449 291.638091 
L 286.447366 257.801684 
L 286.754164 166.165272 
L 286.897012 157.264845 
L 286.931101 157.816573 
L 287.017135 164.179646 
L 287.164852 194.859248 
L 287.40185 294.04122 
L 287.481391 258.638532 
L 287.793059 166.526091 
L 287.940777 156.921345 
L 287.974865 157.481272 
L 288.060899 163.996572 
L 288.20537 195.141532 
L 288.435875 291.647641 
L 288.513792 258.093173 
L 288.822214 166.041885 
L 288.963439 157.264819 
L 288.999151 157.849149 
L 289.086807 164.491967 
L 289.234525 195.663042 
L 289.4699 294.042635 
L 289.547817 258.925863 
L 289.859485 166.606101 
L 290.007203 156.921286 
L 290.041292 157.461091 
L 290.127325 163.920717 
L 290.271796 194.944542 
L 290.502301 291.63787 
L 290.580218 258.384916 
L 290.88864 166.119007 
L 291.031488 157.265033 
L 291.065577 157.828649 
L 291.153233 164.416844 
L 291.300951 195.47061 
L 291.536326 294.052087 
L 291.615866 258.466937 
L 291.925911 166.686452 
L 292.075252 156.921554 
L 292.107718 157.441283 
L 292.192128 163.651536 
L 292.334976 193.736318 
L 292.570351 291.644254 
L 292.649891 257.162677 
L 292.956689 165.995963 
L 293.097914 157.264791 
L 293.133626 157.861577 
L 293.221283 164.537067 
L 293.369001 195.7783 
L 293.602752 294.027009 
L 293.682292 258.754106 
L 293.993961 166.558242 
L 294.141679 156.921278 
L 294.175767 157.473107 
L 294.261801 163.965998 
L 294.406272 195.062209 
L 294.636777 291.646032 
L 294.714694 258.210523 
L 295.023116 166.072871 
L 295.16434 157.26491 
L 295.200052 157.840857 
L 295.287709 164.46169 
L 295.435427 195.585555 
L 295.670801 294.050595 
L 295.748719 259.041545 
L 296.060387 166.638389 
L 296.208105 156.921366 
L 296.242193 157.453076 
L 296.326604 163.695851 
L 296.469452 193.851958 
L 296.704826 291.633976 
L 296.782743 257.744782 
L 297.089542 166.150138 
L 297.23239 157.264892 
L 297.266479 157.820505 
L 297.354135 164.386739 
L 297.501853 195.393335 
L 297.737228 294.046126 
L 297.816768 258.582445 
L 298.128436 166.510504 
L 298.276154 156.921399 
L 298.310243 157.485257 
L 298.396276 164.01144 
L 298.540748 195.18007 
L 298.771252 291.647294 
L 298.849169 258.036221 
L 299.157591 166.026864 
L 299.298816 157.264796 
L 299.334528 157.853196 
L 299.422185 164.506689 
L 299.569903 195.700687 
L 299.805277 294.036767 
L 299.883194 258.869723 
L 300.194863 166.590448 
L 300.34258 156.921269 
L 300.376669 157.465003 
L 300.462703 163.935497 
L 300.607174 194.982974 
L 300.837679 291.641295 
L 300.915596 258.327915 
L 301.224017 166.103916 
L 301.365242 157.265059 
L 301.400954 157.832624 
L 301.488611 164.431483 
L 301.636329 195.508153 
L 301.871703 294.052962 
L 301.94962 259.15727 
L 302.261289 166.670732 
L 302.409007 156.921504 
L 302.443095 157.445123 
L 302.527505 163.666001 
L 302.670353 193.774087 
L 302.905728 291.641652 
L 302.985268 257.105887 
L 303.292067 165.980984 
L 303.433292 157.26481 
L 303.469004 157.865666 
L 303.55666 164.551839 
L 303.706001 196.319406 
L 303.938129 294.034595 
L 304.016047 259.445086 
L 304.327715 166.751356 
L 304.477056 156.921303 
L 304.509521 157.425616 
L 304.593932 163.592123 
L 304.73678 193.580928 
L 304.972154 291.647204 
L 305.051695 257.396758 
L 305.358493 166.057822 
L 305.499718 157.264858 
L 305.53543 157.844874 
L 305.623087 164.476379 
L 305.770804 195.623159 
L 306.006179 294.047427 
L 306.084096 258.985383 
L 306.395764 166.622709 
L 306.543482 156.92132 
L 306.577571 157.456959 
L 306.661981 163.710368 
L 306.804829 193.889792 
L 307.03858 291.633439 
L 307.118121 257.68789 
L 307.424919 166.135019 
L 307.567767 157.264953 
L 307.601856 157.824451 
L 307.689513 164.401344 
L 307.837231 195.430836 
L 308.072605 294.049718 
L 308.152145 258.526367 
L 308.463814 166.49493 
L 308.611532 156.921467 
L 308.64562 157.489257 
L 308.731654 164.026326 
L 308.876125 195.218629 
L 309.10663 291.646209 
L 309.184547 257.979279 
L 309.492969 166.011856 
L 309.634193 157.264786 
L 309.669905 157.857257 
L 309.757562 164.521427 
L 309.90528 195.738353 
L 310.140655 294.0296 
L 310.218572 258.813592 
L 310.53024 166.574807 
L 310.677958 156.921266 
L 310.712047 157.46893 
L 310.79808 163.950294 
L 310.942551 195.021426 
L 311.173056 291.643985 
L 311.250973 258.270923 
L 311.559395 166.088838 
L 311.70062 157.264979 
L 311.736332 157.836613 
L 311.823988 164.446138 
L 311.971706 195.545716 
L 312.207081 294.052513 
L 312.284998 259.101087 
L 312.596666 166.655024 
L 312.744384 156.921429 
L 312.778473 157.448976 
L 312.862883 163.680482 
L 313.005731 193.811878 
L 313.241105 291.638315 
L 313.319023 257.805098 
L 313.625821 166.16618 
L 313.768669 157.264843 
L 313.802758 157.816338 
L 313.888791 164.178784 
L 314.036509 194.857016 
L 314.273507 294.040885 
L 314.353047 258.641898 
L 314.664716 166.527027 
L 314.812433 156.921342 
L 314.846522 157.481033 
L 314.932556 163.99568 
L 315.077027 195.13922 
L 315.307532 291.647639 
L 315.385449 258.09659 
L 315.693871 166.042786 
L 315.835095 157.264821 
L 315.870807 157.848906 
L 315.958464 164.491084 
L 316.106182 195.660784 
L 316.341556 294.042945 
L 316.419473 258.929232 
L 316.731142 166.607041 
L 316.87886 156.921288 
L 316.912948 157.460857 
L 316.998982 163.91983 
L 317.143453 194.942237 
L 317.373958 291.637641 
L 317.451875 258.388336 
L 317.760297 166.119913 
L 317.903145 157.265028 
L 317.937233 157.828411 
L 318.02489 164.415966 
L 318.172608 195.468358 
L 318.407983 294.051993 
L 318.487523 258.4703 
L 318.797568 166.687395 
L 318.946909 156.921549 
L 318.979375 157.441053 
L 319.063785 163.650669 
L 319.206633 193.734052 
L 319.442007 291.644387 
L 319.521548 257.166085 
L 319.828346 165.996863 
L 319.969571 157.26479 
L 320.005283 157.861332 
L 320.09294 164.536181 
L 320.240657 195.776038 
L 320.474409 294.026513 
L 320.553949 258.757472 
L 320.865617 166.559179 
L 321.013335 156.921277 
L 321.047424 157.47287 
L 321.133457 163.965108 
L 321.277929 195.0599 
L 321.508433 291.645938 
L 321.586351 258.213942 
L 321.894772 166.073774 
L 322.035997 157.264913 
L 322.071709 157.840616 
L 322.159366 164.46081 
L 322.307084 195.5833 
L 322.542458 294.050743 
L 322.620375 259.044915 
L 322.932044 166.63933 
L 323.079761 156.921369 
L 323.11385 157.452844 
L 323.19826 163.694981 
L 323.341108 193.849689 
L 323.576483 291.634244 
L 323.6544 257.748195 
L 323.961199 166.151046 
L 324.104047 157.264889 
L 324.138135 157.820269 
L 324.225792 164.385863 
L 324.37351 195.391085 
L 324.608884 294.045868 
L 324.688425 258.585809 
L 325.000093 166.511439 
L 325.147811 156.921395 
L 325.1819 157.485018 
L 325.267933 164.010548 
L 325.412404 195.177757 
L 325.642909 291.647336 
L 325.720826 258.039638 
L 326.029248 166.027764 
L 326.170473 157.264797 
L 326.206185 157.852952 
L 326.293841 164.505805 
L 326.441559 195.698428 
L 326.676934 294.037155 
L 326.754851 258.873091 
L 327.066519 166.591387 
L 327.214237 156.92127 
L 327.248326 157.464768 
L 327.334359 163.934609 
L 327.478831 194.980668 
L 327.709335 291.641111 
L 327.787252 258.331334 
L 328.095674 166.104821 
L 328.236899 157.265064 
L 328.272611 157.832385 
L 328.360268 164.430604 
L 328.507985 195.5059 
L 328.74336 294.052946 
L 328.821277 259.160641 
L 329.132945 166.671674 
L 329.280663 156.921509 
L 329.314752 157.444892 
L 329.399162 163.665132 
L 329.54201 193.771821 
L 329.777385 291.641829 
L 329.856925 257.109294 
L 330.163724 165.981883 
L 330.304948 157.264808 
L 330.34066 157.865421 
L 330.428317 164.550952 
L 330.577658 196.317127 
L 330.809786 294.034176 
L 330.887703 259.44846 
L 331.199372 166.752303 
L 331.348713 156.921301 
L 331.381178 157.425389 
L 331.465588 163.59126 
L 331.608436 193.578668 
L 331.843811 291.647155 
L 331.923351 257.400168 
L 332.23015 166.058724 
L 332.371375 157.264861 
L 332.407087 157.844633 
L 332.494743 164.475497 
L 332.642461 195.620903 
L 332.877836 294.047654 
L 332.955753 258.988752 
L 333.267421 166.623649 
L 333.415139 156.921322 
L 333.449228 157.456726 
L 333.533638 163.709496 
L 333.676486 193.887522 
L 333.910237 291.633163 
L 333.989777 257.691303 
L 334.296576 166.135925 
L 334.439424 157.264949 
L 334.473513 157.824214 
L 334.561169 164.400468 
L 334.708887 195.428586 
L 334.944262 294.04954 
L 335.023802 258.529731 
L 335.335471 166.495864 
L 335.483188 156.921463 
L 335.517277 157.489016 
L 335.603311 164.025432 
L 335.747782 195.216315 
L 335.978287 291.646295 
L 336.056204 257.982695 
L 336.364625 166.012756 
L 336.50585 157.264786 
L 336.541562 157.857013 
L 336.629219 164.520542 
L 336.776937 195.736093 
L 337.012311 294.030066 
L 337.090228 258.81696 
L 337.401897 166.575745 
L 337.549615 156.921266 
L 337.583703 157.468694 
L 337.669737 163.949406 
L 337.814208 195.019119 
L 338.044713 291.643844 
L 338.12263 258.274342 
L 338.431052 166.089742 
L 338.572276 157.264984 
L 338.607988 157.836373 
L 338.695645 164.445259 
L 338.843363 195.543462 
L 339.078737 294.052577 
L 339.156655 259.104458 
L 339.468323 166.655966 
L 339.616041 156.921433 
L 339.650129 157.448745 
L 339.73454 163.679613 
L 339.877388 193.80961 
L 340.112762 291.638536 
L 340.190679 257.808512 
L 340.497478 166.167088 
L 340.640326 157.26484 
L 340.674415 157.816103 
L 340.760448 164.177922 
L 340.908166 194.854784 
L 341.145164 294.040544 
L 341.224704 258.645263 
L 341.536372 166.527963 
L 341.68409 156.92134 
L 341.718179 157.480795 
L 341.804212 163.994789 
L 341.948684 195.136909 
L 342.179188 291.647634 
L 342.257105 258.100007 
L 342.565527 166.043688 
L 342.706752 157.264822 
L 342.742464 157.848664 
L 342.830121 164.490201 
L 342.977839 195.658526 
L 343.213213 294.043251 
L 343.29113 258.9326 
L 343.602799 166.607981 
L 343.750516 156.921289 
L 343.784605 157.460622 
L 343.870639 163.918944 
L 344.01511 194.939932 
L 344.245615 291.63741 
L 344.323532 258.391756 
L 344.631953 166.120819 
L 344.774801 157.265023 
L 344.80889 157.828173 
L 344.896547 164.415089 
L 345.044265 195.466107 
L 345.279639 294.051894 
L 345.35918 258.473664 
L 345.669225 166.688339 
L 345.818566 156.921544 
L 345.851031 157.440824 
L 345.935441 163.649802 
L 346.078289 193.731787 
L 346.313664 291.644517 
L 346.393204 257.169492 
L 346.700003 165.997762 
L 346.841228 157.26479 
L 346.87694 157.861087 
L 346.964596 164.535296 
L 347.112314 195.773777 
L 347.346065 294.026012 
L 347.425606 258.760839 
L 347.737274 166.560116 
L 347.884992 156.921275 
L 347.919081 157.472633 
L 348.005114 163.964219 
L 348.149585 195.057591 
L 348.38009 291.645842 
L 348.458007 258.21736 
L 348.766429 166.074678 
L 348.907654 157.264917 
L 348.943366 157.840375 
L 349.031023 164.459929 
L 349.17874 195.581044 
L 349.414115 294.050887 
L 349.492032 259.048285 
L 349.8037 166.640271 
L 349.951418 156.921372 
L 349.985507 157.452612 
L 350.069917 163.69411 
L 350.212765 193.84742 
L 350.44814 291.634509 
L 350.526057 257.751609 
L 350.832855 166.151953 
L 350.975703 157.264886 
L 351.009792 157.820033 
L 351.097449 164.384987 
L 351.245167 195.388836 
L 351.480541 294.045606 
L 351.560081 258.589174 
L 351.87175 166.512374 
L 352.019468 156.921392 
L 352.053556 157.484778 
L 352.13959 164.009655 
L 352.284061 195.175444 
L 352.514566 291.647375 
L 352.592483 258.043054 
L 352.900905 166.028665 
L 353.042129 157.264798 
L 353.077841 157.852709 
L 353.165498 164.504921 
L 353.313216 195.696169 
L 353.548591 294.03754 
L 353.626508 258.876458 
L 353.938176 166.592325 
L 354.085894 156.92127 
L 354.119983 157.464533 
L 354.206016 163.933722 
L 354.350487 194.978361 
L 354.580992 291.640923 
L 354.658909 258.334754 
L 354.967331 166.105726 
L 355.108556 157.265069 
L 355.144268 157.832146 
L 355.231924 164.429726 
L 355.379642 195.503647 
L 355.615017 294.052926 
L 355.692934 259.164013 
L 356.004602 166.672617 
L 356.15232 156.921514 
L 356.186409 157.444661 
L 356.270819 163.664264 
L 356.413667 193.769554 
L 356.649041 291.642003 
L 356.728582 257.1127 
L 357.03538 165.982781 
L 357.176605 157.264807 
L 357.212317 157.865175 
L 357.299974 164.550065 
L 357.449315 196.314848 
L 357.681443 294.033753 
L 357.75936 259.451834 
L 358.071028 166.75325 
L 358.220369 156.921299 
L 358.252835 157.425163 
L 358.337245 163.590397 
L 358.480093 193.576408 
L 358.715468 291.647103 
L 358.795008 257.403578 
L 359.101807 166.059627 
L 359.243031 157.264864 
L 359.278743 157.844392 
L 359.3664 164.474616 
L 359.514118 195.618646 
L 359.749492 294.047877 
L 359.827409 258.992122 
L 360.139078 166.624589 
L 360.286796 156.921324 
L 360.320884 157.456493 
L 360.405295 163.708625 
L 360.548143 193.885251 
L 360.781894 291.632885 
L 360.861434 257.694716 
L 361.168233 166.136832 
L 361.311081 157.264945 
L 361.345169 157.823977 
L 361.432826 164.399591 
L 361.580544 195.426335 
L 361.815919 294.049357 
L 361.895459 258.533096 
L 362.207127 166.496798 
L 362.354845 156.921458 
L 362.388934 157.488776 
L 362.474967 164.024539 
L 362.619439 195.214001 
L 362.849943 291.646378 
L 362.92786 257.986111 
L 363.236282 166.013656 
L 363.377507 157.264787 
L 363.413219 157.856769 
L 363.500876 164.519657 
L 363.648593 195.733832 
L 363.883968 294.030528 
L 363.961885 258.820327 
L 364.273553 166.576683 
L 364.421271 156.921266 
L 364.45536 157.468458 
L 364.541393 163.948518 
L 364.685865 195.016811 
L 364.916369 291.643701 
L 364.994287 258.277761 
L 365.302708 166.090647 
L 365.443933 157.264988 
L 365.479645 157.836134 
L 365.567302 164.444379 
L 365.71502 195.541208 
L 365.950394 294.052637 
L 366.028311 259.107828 
L 366.33998 166.656908 
L 366.487697 156.921437 
L 366.521786 157.448513 
L 366.606196 163.678743 
L 366.749044 193.807342 
L 366.984419 291.638754 
L 367.062336 257.811926 
L 367.369135 166.167997 
L 367.511983 157.264838 
L 367.546071 157.815867 
L 367.632105 164.17706 
L 367.779823 194.852552 
L 368.01682 294.040199 
L 368.096361 258.648629 
L 368.408029 166.528898 
L 368.555747 156.921337 
L 368.589836 157.480556 
L 368.675869 163.993898 
L 368.82034 195.134597 
L 369.050845 291.647626 
L 369.128762 258.103424 
L 369.437184 166.04459 
L 369.578409 157.264824 
L 369.614121 157.848422 
L 369.701777 164.489319 
L 369.849495 195.656268 
L 370.08487 294.043552 
L 370.162787 258.935969 
L 370.474455 166.60892 
L 370.622173 156.921291 
L 370.656262 157.460388 
L 370.742295 163.918058 
L 370.886767 194.937627 
L 371.117271 291.637176 
L 371.195188 258.395176 
L 371.50361 166.121725 
L 371.646458 157.265018 
L 371.680547 157.827935 
L 371.768204 164.414211 
L 371.915921 195.463855 
L 372.151296 294.05179 
L 372.230836 258.477027 
L 372.540881 166.689283 
L 372.690223 156.921538 
L 372.722688 157.440594 
L 372.807098 163.648934 
L 372.949946 193.729522 
L 373.185321 291.644644 
L 373.264861 257.1729 
L 373.57166 165.998661 
L 373.712884 157.264789 
L 373.748596 157.860842 
L 373.836253 164.53441 
L 373.983971 195.771515 
L 374.217722 294.025507 
L 374.297263 258.764206 
L 374.608931 166.561054 
L 374.756649 156.921275 
L 374.790737 157.472397 
L 374.876771 163.96333 
L 375.021242 195.055282 
L 375.251747 291.645743 
L 375.329664 258.220778 
L 375.638086 166.075581 
L 375.779311 157.26492 
L 375.815023 157.840135 
L 375.902679 164.459048 
L 376.050397 195.578789 
L 376.285772 294.051025 
L 376.363689 259.051655 
L 376.675357 166.641213 
L 376.823075 156.921375 
L 376.857164 157.452379 
L 376.941574 163.69324 
L 377.084422 193.845151 
L 377.319796 291.634771 
L 377.397713 257.755023 
L 377.704512 166.152861 
L 377.84736 157.264883 
L 377.881449 157.819797 
L 377.969105 164.384112 
L 378.116823 195.386587 
L 378.352198 294.04534 
L 378.431738 258.592539 
L 378.743407 166.513309 
L 378.891124 156.921388 
L 378.925213 157.484539 
L 379.011247 164.008763 
L 379.155718 195.173132 
L 379.386223 291.647411 
L 379.46414 258.046471 
L 379.772561 166.029566 
L 379.913786 157.264799 
L 379.949498 157.852466 
L 380.037155 164.504038 
L 380.184873 195.69391 
L 380.420247 294.037919 
L 380.498164 258.879826 
L 380.809833 166.593264 
L 380.957551 156.921271 
L 380.991639 157.464298 
L 381.077673 163.932835 
L 381.222144 194.976055 
L 381.452649 291.640733 
L 381.530566 258.338173 
L 381.838988 166.106631 
L 381.980212 157.265075 
L 382.015924 157.831908 
L 382.103581 164.428847 
L 382.251299 195.501395 
L 382.486673 294.052902 
L 382.564591 259.167384 
L 382.876259 166.67356 
L 383.023977 156.921519 
L 383.058065 157.444431 
L 383.142476 163.663396 
L 383.285324 193.767288 
L 383.520698 291.642175 
L 383.600239 257.116107 
L 383.907037 165.983679 
L 384.048262 157.264806 
L 384.083974 157.864929 
L 384.171631 164.549179 
L 384.320972 196.31257 
L 384.5531 294.033325 
L 384.631017 259.455208 
L 384.942685 166.754196 
L 385.092026 156.921297 
L 385.124492 157.424937 
L 385.208902 163.589534 
L 385.35175 193.574148 
L 385.587124 291.647048 
L 385.666665 257.406988 
L 385.973463 166.06053 
L 386.114688 157.264867 
L 386.1504 157.84415 
L 386.238057 164.473734 
L 386.385775 195.61639 
L 386.621149 294.048095 
L 386.699066 258.995491 
L 387.010735 166.62553 
L 387.158452 156.921327 
L 387.192541 157.456259 
L 387.276951 163.707754 
L 387.419799 193.882981 
L 387.653551 291.632604 
L 387.733091 257.698129 
L 388.039889 166.137739 
L 388.182737 157.264941 
L 388.216826 157.82374 
L 388.304483 164.398714 
L 388.452201 195.424085 
L 388.687575 294.049169 
L 388.767116 258.53646 
L 389.078784 166.497732 
L 389.226502 156.921454 
L 389.260591 157.488536 
L 389.346624 164.023645 
L 389.491095 195.211687 
L 389.7216 291.646459 
L 389.799517 257.989527 
L 390.107939 166.014556 
L 390.249164 157.264787 
L 390.284876 157.856525 
L 390.372532 164.518773 
L 390.52025 195.731572 
L 390.755625 294.030985 
L 390.833542 258.823694 
L 391.14521 166.577621 
L 391.292928 156.921265 
L 391.327017 157.468222 
L 391.41305 163.947629 
L 391.557521 195.014504 
L 391.788026 291.643555 
L 391.865943 258.28118 
L 392.174365 166.091551 
L 392.31559 157.264993 
L 392.351302 157.835894 
L 392.438959 164.443499 
L 392.586676 195.538954 
L 392.822051 294.052692 
L 392.899968 259.111199 
L 393.211636 166.657851 
L 393.359354 156.921442 
L 393.393443 157.448282 
L 393.477853 163.677874 
L 393.620701 193.805075 
L 393.856076 291.638969 
L 393.933993 257.81534 
L 394.240791 166.168905 
L 394.383639 157.264836 
L 394.417728 157.815632 
L 394.503761 164.176199 
L 394.651479 194.85032 
L 394.888477 294.039849 
L 394.968017 258.651994 
L 395.279686 166.529834 
L 395.427404 156.921334 
L 395.461492 157.480318 
L 395.547526 163.993006 
L 395.691997 195.132286 
L 395.922502 291.647615 
L 396.000419 258.106842 
L 396.308841 166.045491 
L 396.450065 157.264826 
L 396.485777 157.84818 
L 396.573434 164.488436 
L 396.721152 195.65401 
L 396.956527 294.043849 
L 397.034444 258.939338 
L 397.346112 166.60986 
L 397.49383 156.921293 
L 397.527919 157.460154 
L 397.613952 163.917172 
L 397.758423 194.935323 
L 397.988928 291.636939 
L 398.066845 258.398596 
L 398.375267 166.122631 
L 398.487273 157.679362 
L 398.487273 157.679362 
" style="fill:none;stroke:#1f77b4;stroke-linecap:square;stroke-width:1.5;"/>
   </g>
   <g id="patch_3">
    <path d="M 57.6 307.584 
L 57.6 41.472 
" style="fill:none;stroke:#000000;stroke-linecap:square;stroke-linejoin:miter;stroke-width:0.8;"/>
   </g>
   <g id="patch_4">
    <path d="M 414.72 307.584 
L 414.72 41.472 
" style="fill:none;stroke:#000000;stroke-linecap:square;stroke-linejoin:miter;stroke-width:0.8;"/>
   </g>
   <g id="patch_5">
    <path d="M 57.6 307.584 
L 414.72 307.584 
" style="fill:none;stroke:#000000;stroke-linecap:square;stroke-linejoin:miter;stroke-width:0.8;"/>
   </g>
   <g id="patch_6">
    <path d="M 57.6 41.472 
L 414.72 41.472 
" style="fill:none;stroke:#000000;stroke-linecap:square;stroke-linejoin:miter;stroke-width:0.8;"/>
   </g>
  </g>
 </g>
 <defs>
  <clipPath id="p894d085af4">
   <rect height="266.112" width="357.12" x="57.6" y="41.472"/>
  </clipPath>
 </defs>
</svg>
