<?xml version="1.0" encoding="utf-8" standalone="no"?>
<!DOCTYPE svg PUBLIC "-//W3C//DTD SVG 1.1//EN"
  "http://www.w3.org/Graphics/SVG/1.1/DTD/svg11.dtd">
<!-- Created with matplotlib (https://matplotlib.org/) -->
<svg height="345.6pt" version="1.1" viewBox="0 0 460.8 345.6" width="460.8pt" xmlns="http://www.w3.org/2000/svg" xmlns:xlink="http://www.w3.org/1999/xlink">
 <metadata>
  <rdf:RDF xmlns:cc="http://creativecommons.org/ns#" xmlns:dc="http://purl.org/dc/elements/1.1/" xmlns:rdf="http://www.w3.org/1999/02/22-rdf-syntax-ns#">
   <cc:Work>
    <dc:type rdf:resource="http://purl.org/dc/dcmitype/StillImage"/>
    <dc:date>2020-07-23T21:59:08.727916</dc:date>
    <dc:format>image/svg+xml</dc:format>
    <dc:creator>
     <cc:Agent>
      <dc:title>Matplotlib v3.3.0, https://matplotlib.org/</dc:title>
     </cc:Agent>
    </dc:creator>
   </cc:Work>
  </rdf:RDF>
 </metadata>
 <defs>
  <style type="text/css">*{stroke-linecap:butt;stroke-linejoin:round;}</style>
 </defs>
 <g id="figure_1">
  <g id="patch_1">
   <path d="M 0 345.6 
L 460.8 345.6 
L 460.8 0 
L 0 0 
z
" style="fill:#ffffff;"/>
  </g>
  <g id="axes_1">
   <g id="patch_2">
    <path d="M 57.6 307.584 
L 414.72 307.584 
L 414.72 41.472 
L 57.6 41.472 
z
" style="fill:#ffffff;"/>
   </g>
   <g id="matplotlib.axis_1">
    <g id="xtick_1">
     <g id="line2d_1">
      <defs>
       <path d="M 0 0 
L 0 3.5 
" id="m3ae164b4dd" style="stroke:#000000;stroke-width:0.8;"/>
      </defs>
      <g>
       <use style="stroke:#000000;stroke-width:0.8;" x="73.832727" xlink:href="#m3ae164b4dd" y="307.584"/>
      </g>
     </g>
     <g id="text_1">
      <!-- $\mathdefault{0}$ -->
      <g transform="translate(71.34206 321.502498)scale(0.1 -0.1)">
       <defs>
        <path d="M 42 31.640625 
C 42 37.75 41.90625 48.125 37.703125 56.109375 
C 34 63.109375 28.09375 65.59375 22.90625 65.59375 
C 18.09375 65.59375 12 63.40625 8.203125 56.203125 
C 4.203125 48.71875 3.796875 39.4375 3.796875 31.640625 
C 3.796875 25.953125 3.90625 17.28125 7 9.671875 
C 11.296875 -0.609375 19 -2 22.90625 -2 
C 27.5 -2 34.5 -0.109375 38.59375 9.375 
C 41.59375 16.28125 42 24.359375 42 31.640625 
z
M 22.90625 -0.40625 
C 16.5 -0.40625 12.703125 5.078125 11.296875 12.6875 
C 10.203125 18.5625 10.203125 27.15625 10.203125 32.75 
C 10.203125 40.4375 10.203125 46.828125 11.5 52.921875 
C 13.40625 61.390625 19 64 22.90625 64 
C 27 64 32.296875 61.296875 34.203125 53.125 
C 35.5 47.4375 35.59375 40.734375 35.59375 32.75 
C 35.59375 26.25 35.59375 18.265625 34.40625 12.375 
C 32.296875 1.484375 26.40625 -0.40625 22.90625 -0.40625 
z
" id="CMR17-48"/>
       </defs>
       <use transform="scale(0.996264)" xlink:href="#CMR17-48"/>
      </g>
     </g>
    </g>
    <g id="xtick_2">
     <g id="line2d_2">
      <g>
       <use style="stroke:#000000;stroke-width:0.8;" x="114.414545" xlink:href="#m3ae164b4dd" y="307.584"/>
      </g>
     </g>
     <g id="text_2">
      <!-- $\mathdefault{25000}$ -->
      <g transform="translate(101.961207 321.502498)scale(0.1 -0.1)">
       <defs>
        <path d="M 41.703125 15.453125 
L 39.90625 15.453125 
C 38.90625 8.375 38.09375 7.171875 37.703125 6.5625 
C 37.203125 5.765625 30 5.765625 28.59375 5.765625 
L 9.40625 5.765625 
C 13 9.671875 20 16.75 28.5 24.953125 
C 34.59375 30.734375 41.703125 37.53125 41.703125 47.421875 
C 41.703125 59.21875 32.296875 66 21.796875 66 
C 10.796875 66 4.09375 56.3125 4.09375 47.34375 
C 4.09375 43.4375 7 42.9375 8.203125 42.9375 
C 9.203125 42.9375 12.203125 43.546875 12.203125 47.03125 
C 12.203125 50.109375 9.59375 51 8.203125 51 
C 7.59375 51 7 50.90625 6.59375 50.703125 
C 8.5 59.21875 14.296875 63.40625 20.40625 63.40625 
C 29.09375 63.40625 34.796875 56.515625 34.796875 47.421875 
C 34.796875 38.734375 29.703125 31.25 24 24.75 
L 4.09375 2.28125 
L 4.09375 0 
L 39.296875 0 
z
" id="CMR17-50"/>
        <path d="M 11.40625 57.6875 
C 12.40625 57.28125 16.5 56 20.703125 56 
C 30 56 35.09375 61.109375 38 64.0625 
C 38 64.953125 38 65.5 37.40625 65.5 
C 37.296875 65.5 37.09375 65.5 36.296875 65.046875 
C 32.796875 63.40625 28.703125 62.078125 23.703125 62.078125 
C 20.703125 62.078125 16.203125 62.484375 11.296875 64.671875 
C 10.203125 65.171875 10 65.171875 9.90625 65.171875 
C 9.40625 65.171875 9.296875 65.0625 9.296875 63.078125 
L 9.296875 34.421875 
C 9.296875 32.640625 9.296875 32.140625 10.296875 32.140625 
C 10.796875 32.140625 11 32.34375 11.5 33.03125 
C 14.703125 37.515625 19.09375 39.40625 24.09375 39.40625 
C 27.59375 39.40625 35.09375 37.21875 35.09375 20.140625 
C 35.09375 16.953125 35.09375 11.171875 32.09375 6.578125 
C 29.59375 2.484375 25.703125 0.390625 21.40625 0.390625 
C 14.796875 0.390625 8.09375 5 6.296875 12.71875 
C 6.703125 12.609375 7.5 12.421875 7.90625 12.421875 
C 9.203125 12.421875 11.703125 13.125 11.703125 16.21875 
C 11.703125 18.90625 9.796875 20 7.90625 20 
C 5.59375 20 4.09375 18.59375 4.09375 15.796875 
C 4.09375 7.09375 11 -2 21.59375 -2 
C 31.90625 -2 41.703125 6.875 41.703125 19.75 
C 41.703125 31.71875 33.90625 41 24.203125 41 
C 19.09375 41 14.796875 39.109375 11.40625 35.53125 
z
" id="CMR17-53"/>
       </defs>
       <use transform="scale(0.996264)" xlink:href="#CMR17-50"/>
       <use transform="translate(45.690477 0)scale(0.996264)" xlink:href="#CMR17-53"/>
       <use transform="translate(91.380954 0)scale(0.996264)" xlink:href="#CMR17-48"/>
       <use transform="translate(137.071431 0)scale(0.996264)" xlink:href="#CMR17-48"/>
       <use transform="translate(182.761908 0)scale(0.996264)" xlink:href="#CMR17-48"/>
      </g>
     </g>
    </g>
    <g id="xtick_3">
     <g id="line2d_3">
      <g>
       <use style="stroke:#000000;stroke-width:0.8;" x="154.996364" xlink:href="#m3ae164b4dd" y="307.584"/>
      </g>
     </g>
     <g id="text_3">
      <!-- $\mathdefault{50000}$ -->
      <g transform="translate(142.543026 321.502498)scale(0.1 -0.1)">
       <use transform="scale(0.996264)" xlink:href="#CMR17-53"/>
       <use transform="translate(45.690477 0)scale(0.996264)" xlink:href="#CMR17-48"/>
       <use transform="translate(91.380954 0)scale(0.996264)" xlink:href="#CMR17-48"/>
       <use transform="translate(137.071431 0)scale(0.996264)" xlink:href="#CMR17-48"/>
       <use transform="translate(182.761908 0)scale(0.996264)" xlink:href="#CMR17-48"/>
      </g>
     </g>
    </g>
    <g id="xtick_4">
     <g id="line2d_4">
      <g>
       <use style="stroke:#000000;stroke-width:0.8;" x="195.578182" xlink:href="#m3ae164b4dd" y="307.584"/>
      </g>
     </g>
     <g id="text_4">
      <!-- $\mathdefault{75000}$ -->
      <g transform="translate(183.124844 321.502498)scale(0.1 -0.1)">
       <defs>
        <path d="M 45.09375 61.578125 
L 45.09375 63.765625 
L 21.59375 63.765625 
C 9.90625 63.765625 9.703125 65.078125 9.296875 67 
L 7.5 67 
L 4.59375 48.34375 
L 6.40625 48.34375 
C 6.703125 50.234375 7.40625 55.3125 8.59375 57.203125 
C 9.203125 58 16.59375 58 18.296875 58 
L 40.296875 58 
L 29.203125 41.578125 
C 21.796875 30.53125 16.703125 15.609375 16.703125 2.578125 
C 16.703125 1.390625 16.703125 -2 20.296875 -2 
C 23.90625 -2 23.90625 1.390625 23.90625 2.671875 
L 23.90625 7.265625 
C 23.90625 23.5625 26.703125 34.3125 31.296875 41.1875 
z
" id="CMR17-55"/>
       </defs>
       <use transform="scale(0.996264)" xlink:href="#CMR17-55"/>
       <use transform="translate(45.690477 0)scale(0.996264)" xlink:href="#CMR17-53"/>
       <use transform="translate(91.380954 0)scale(0.996264)" xlink:href="#CMR17-48"/>
       <use transform="translate(137.071431 0)scale(0.996264)" xlink:href="#CMR17-48"/>
       <use transform="translate(182.761908 0)scale(0.996264)" xlink:href="#CMR17-48"/>
      </g>
     </g>
    </g>
    <g id="xtick_5">
     <g id="line2d_5">
      <g>
       <use style="stroke:#000000;stroke-width:0.8;" x="236.16" xlink:href="#m3ae164b4dd" y="307.584"/>
      </g>
     </g>
     <g id="text_5">
      <!-- $\mathdefault{100000}$ -->
      <g transform="translate(221.215994 321.502498)scale(0.1 -0.1)">
       <defs>
        <path d="M 26.59375 63.40625 
C 26.59375 65.5 26.5 65.5 25.09375 65.5 
C 21.203125 61.1875 15.296875 59.796875 9.703125 59.796875 
C 9.40625 59.796875 8.90625 59.796875 8.796875 59.5 
C 8.703125 59.296875 8.703125 59.09375 8.703125 57 
C 11.796875 57 17 57.59375 21 59.984375 
L 21 7.203125 
C 21 3.6875 20.796875 2.5 12.203125 2.5 
L 9.203125 2.5 
L 9.203125 0 
C 14 0 19 0 23.796875 0 
C 28.59375 0 33.59375 0 38.40625 0 
L 38.40625 2.5 
L 35.40625 2.5 
C 26.796875 2.5 26.59375 3.59375 26.59375 7.15625 
z
" id="CMR17-49"/>
       </defs>
       <use transform="scale(0.996264)" xlink:href="#CMR17-49"/>
       <use transform="translate(45.690477 0)scale(0.996264)" xlink:href="#CMR17-48"/>
       <use transform="translate(91.380954 0)scale(0.996264)" xlink:href="#CMR17-48"/>
       <use transform="translate(137.071431 0)scale(0.996264)" xlink:href="#CMR17-48"/>
       <use transform="translate(182.761908 0)scale(0.996264)" xlink:href="#CMR17-48"/>
       <use transform="translate(228.452386 0)scale(0.996264)" xlink:href="#CMR17-48"/>
      </g>
     </g>
    </g>
    <g id="xtick_6">
     <g id="line2d_6">
      <g>
       <use style="stroke:#000000;stroke-width:0.8;" x="276.741818" xlink:href="#m3ae164b4dd" y="307.584"/>
      </g>
     </g>
     <g id="text_6">
      <!-- $\mathdefault{125000}$ -->
      <g transform="translate(261.797812 321.502498)scale(0.1 -0.1)">
       <use transform="scale(0.996264)" xlink:href="#CMR17-49"/>
       <use transform="translate(45.690477 0)scale(0.996264)" xlink:href="#CMR17-50"/>
       <use transform="translate(91.380954 0)scale(0.996264)" xlink:href="#CMR17-53"/>
       <use transform="translate(137.071431 0)scale(0.996264)" xlink:href="#CMR17-48"/>
       <use transform="translate(182.761908 0)scale(0.996264)" xlink:href="#CMR17-48"/>
       <use transform="translate(228.452386 0)scale(0.996264)" xlink:href="#CMR17-48"/>
      </g>
     </g>
    </g>
    <g id="xtick_7">
     <g id="line2d_7">
      <g>
       <use style="stroke:#000000;stroke-width:0.8;" x="317.323636" xlink:href="#m3ae164b4dd" y="307.584"/>
      </g>
     </g>
     <g id="text_7">
      <!-- $\mathdefault{150000}$ -->
      <g transform="translate(302.379631 321.502498)scale(0.1 -0.1)">
       <use transform="scale(0.996264)" xlink:href="#CMR17-49"/>
       <use transform="translate(45.690477 0)scale(0.996264)" xlink:href="#CMR17-53"/>
       <use transform="translate(91.380954 0)scale(0.996264)" xlink:href="#CMR17-48"/>
       <use transform="translate(137.071431 0)scale(0.996264)" xlink:href="#CMR17-48"/>
       <use transform="translate(182.761908 0)scale(0.996264)" xlink:href="#CMR17-48"/>
       <use transform="translate(228.452386 0)scale(0.996264)" xlink:href="#CMR17-48"/>
      </g>
     </g>
    </g>
    <g id="xtick_8">
     <g id="line2d_8">
      <g>
       <use style="stroke:#000000;stroke-width:0.8;" x="357.905455" xlink:href="#m3ae164b4dd" y="307.584"/>
      </g>
     </g>
     <g id="text_8">
      <!-- $\mathdefault{175000}$ -->
      <g transform="translate(342.961449 321.502498)scale(0.1 -0.1)">
       <use transform="scale(0.996264)" xlink:href="#CMR17-49"/>
       <use transform="translate(45.690477 0)scale(0.996264)" xlink:href="#CMR17-55"/>
       <use transform="translate(91.380954 0)scale(0.996264)" xlink:href="#CMR17-53"/>
       <use transform="translate(137.071431 0)scale(0.996264)" xlink:href="#CMR17-48"/>
       <use transform="translate(182.761908 0)scale(0.996264)" xlink:href="#CMR17-48"/>
       <use transform="translate(228.452386 0)scale(0.996264)" xlink:href="#CMR17-48"/>
      </g>
     </g>
    </g>
    <g id="xtick_9">
     <g id="line2d_9">
      <g>
       <use style="stroke:#000000;stroke-width:0.8;" x="398.487273" xlink:href="#m3ae164b4dd" y="307.584"/>
      </g>
     </g>
     <g id="text_9">
      <!-- $\mathdefault{200000}$ -->
      <g transform="translate(383.543267 321.502498)scale(0.1 -0.1)">
       <use transform="scale(0.996264)" xlink:href="#CMR17-50"/>
       <use transform="translate(45.690477 0)scale(0.996264)" xlink:href="#CMR17-48"/>
       <use transform="translate(91.380954 0)scale(0.996264)" xlink:href="#CMR17-48"/>
       <use transform="translate(137.071431 0)scale(0.996264)" xlink:href="#CMR17-48"/>
       <use transform="translate(182.761908 0)scale(0.996264)" xlink:href="#CMR17-48"/>
       <use transform="translate(228.452386 0)scale(0.996264)" xlink:href="#CMR17-48"/>
      </g>
     </g>
    </g>
   </g>
   <g id="matplotlib.axis_2">
    <g id="ytick_1">
     <g id="line2d_10">
      <defs>
       <path d="M 0 0 
L -3.5 0 
" id="m21960baede" style="stroke:#000000;stroke-width:0.8;"/>
      </defs>
      <g>
       <use style="stroke:#000000;stroke-width:0.8;" x="57.6" xlink:href="#m21960baede" y="297.1629"/>
      </g>
     </g>
     <g id="text_10">
      <!-- $\mathdefault{0.00}$ -->
      <g transform="translate(32.888586 300.622149)scale(0.1 -0.1)">
       <defs>
        <path d="M 18.40625 4.796875 
C 18.40625 7.6875 16 9.671875 13.59375 9.671875 
C 10.703125 9.671875 8.703125 7.28125 8.703125 4.890625 
C 8.703125 2 11.09375 0 13.5 0 
C 16.40625 0 18.40625 2.390625 18.40625 4.796875 
z
" id="CMMI12-58"/>
       </defs>
       <use transform="scale(0.996264)" xlink:href="#CMR17-48"/>
       <use transform="translate(45.690477 0)scale(0.996264)" xlink:href="#CMMI12-58"/>
       <use transform="translate(72.787654 0)scale(0.996264)" xlink:href="#CMR17-48"/>
       <use transform="translate(118.478131 0)scale(0.996264)" xlink:href="#CMR17-48"/>
      </g>
     </g>
    </g>
    <g id="ytick_2">
     <g id="line2d_11">
      <g>
       <use style="stroke:#000000;stroke-width:0.8;" x="57.6" xlink:href="#m21960baede" y="263.68217"/>
      </g>
     </g>
     <g id="text_11">
      <!-- $\mathdefault{0.02}$ -->
      <g transform="translate(32.888586 267.14142)scale(0.1 -0.1)">
       <use transform="scale(0.996264)" xlink:href="#CMR17-48"/>
       <use transform="translate(45.690477 0)scale(0.996264)" xlink:href="#CMMI12-58"/>
       <use transform="translate(72.787654 0)scale(0.996264)" xlink:href="#CMR17-48"/>
       <use transform="translate(118.478131 0)scale(0.996264)" xlink:href="#CMR17-50"/>
      </g>
     </g>
    </g>
    <g id="ytick_3">
     <g id="line2d_12">
      <g>
       <use style="stroke:#000000;stroke-width:0.8;" x="57.6" xlink:href="#m21960baede" y="230.201441"/>
      </g>
     </g>
     <g id="text_12">
      <!-- $\mathdefault{0.04}$ -->
      <g transform="translate(32.888586 233.66069)scale(0.1 -0.1)">
       <defs>
        <path d="M 33.59375 64.40625 
C 33.59375 66.5 33.5 66.5 31.703125 66.5 
L 2 19.59375 
L 2 17 
L 27.796875 17 
L 27.796875 7.140625 
C 27.796875 3.5 27.59375 2.5 20.59375 2.5 
L 18.703125 2.5 
L 18.703125 0 
C 21.90625 0 27.296875 0 30.703125 0 
C 34.09375 0 39.5 0 42.703125 0 
L 42.703125 2.5 
L 40.796875 2.5 
C 33.796875 2.5 33.59375 3.5 33.59375 7.140625 
L 33.59375 17 
L 43.796875 17 
L 43.796875 19.59375 
L 33.59375 19.59375 
z
M 28.09375 57.859375 
L 28.09375 19.59375 
L 4 19.59375 
z
" id="CMR17-52"/>
       </defs>
       <use transform="scale(0.996264)" xlink:href="#CMR17-48"/>
       <use transform="translate(45.690477 0)scale(0.996264)" xlink:href="#CMMI12-58"/>
       <use transform="translate(72.787654 0)scale(0.996264)" xlink:href="#CMR17-48"/>
       <use transform="translate(118.478131 0)scale(0.996264)" xlink:href="#CMR17-52"/>
      </g>
     </g>
    </g>
    <g id="ytick_4">
     <g id="line2d_13">
      <g>
       <use style="stroke:#000000;stroke-width:0.8;" x="57.6" xlink:href="#m21960baede" y="196.720712"/>
      </g>
     </g>
     <g id="text_13">
      <!-- $\mathdefault{0.06}$ -->
      <g transform="translate(32.888586 200.179961)scale(0.1 -0.1)">
       <defs>
        <path d="M 10.59375 34 
C 10.59375 57.65625 21.796875 63 28.296875 63 
C 30.40625 63 35.5 62.640625 37.5 59 
C 35.90625 59 32.90625 59 32.90625 55.515625 
C 32.90625 52.828125 35.09375 51.921875 36.5 51.921875 
C 37.40625 51.921875 40.09375 52.3125 40.09375 55.625 
C 40.09375 61.78125 35.09375 65.296875 28.203125 65.296875 
C 16.296875 65.296875 3.796875 52.96875 3.796875 31 
C 3.796875 3.953125 15.09375 -2 23.09375 -2 
C 32.796875 -2 42 6.671875 42 20.046875 
C 42 32.515625 33.90625 41.59375 23.703125 41.59375 
C 17.59375 41.59375 13.09375 37.609375 10.59375 30.625 
z
M 23.09375 0.390625 
C 10.796875 0.390625 10.796875 18.75 10.796875 22.4375 
C 10.796875 29.625 14.203125 40 23.5 40 
C 25.203125 40 30.09375 40 33.40625 33.125 
C 35.203125 29.21875 35.203125 25.140625 35.203125 20.140625 
C 35.203125 14.75 35.203125 10.78125 33.09375 6.78125 
C 30.90625 2.671875 27.703125 0.390625 23.09375 0.390625 
z
" id="CMR17-54"/>
       </defs>
       <use transform="scale(0.996264)" xlink:href="#CMR17-48"/>
       <use transform="translate(45.690477 0)scale(0.996264)" xlink:href="#CMMI12-58"/>
       <use transform="translate(72.787654 0)scale(0.996264)" xlink:href="#CMR17-48"/>
       <use transform="translate(118.478131 0)scale(0.996264)" xlink:href="#CMR17-54"/>
      </g>
     </g>
    </g>
    <g id="ytick_5">
     <g id="line2d_14">
      <g>
       <use style="stroke:#000000;stroke-width:0.8;" x="57.6" xlink:href="#m21960baede" y="163.239982"/>
      </g>
     </g>
     <g id="text_14">
      <!-- $\mathdefault{0.08}$ -->
      <g transform="translate(32.888586 166.699232)scale(0.1 -0.1)">
       <defs>
        <path d="M 27.203125 35.375 
C 33.5 38.546875 39.90625 43.328125 39.90625 50.984375 
C 39.90625 60.015625 31.09375 65.296875 23 65.296875 
C 13.90625 65.296875 5.90625 58.734375 5.90625 49.6875 
C 5.90625 47.203125 6.5 42.921875 10.40625 39.140625 
C 11.40625 38.15625 15.59375 35.171875 18.296875 33.28125 
C 13.796875 30.984375 3.296875 25.53125 3.296875 14.59375 
C 3.296875 4.359375 13.09375 -2 22.796875 -2 
C 33.5 -2 42.5 5.65625 42.5 15.78125 
C 42.5 24.84375 36.40625 29.015625 32.40625 31.703125 
z
M 14.09375 44.09375 
C 13.296875 44.59375 9.296875 47.671875 9.296875 52.359375 
C 9.296875 58.421875 15.59375 63 22.796875 63 
C 30.703125 63 36.5 57.4375 36.5 50.96875 
C 36.5 41.703125 26.09375 36.421875 25.59375 36.421875 
C 25.5 36.421875 25.40625 36.421875 24.59375 37.03125 
z
M 32.5 23.734375 
C 34 22.640625 38.796875 19.375 38.796875 13.296875 
C 38.796875 5.953125 31.40625 0.390625 23 0.390625 
C 13.90625 0.390625 7 6.84375 7 14.6875 
C 7 22.546875 13.09375 29.09375 20 32.1875 
z
" id="CMR17-56"/>
       </defs>
       <use transform="scale(0.996264)" xlink:href="#CMR17-48"/>
       <use transform="translate(45.690477 0)scale(0.996264)" xlink:href="#CMMI12-58"/>
       <use transform="translate(72.787654 0)scale(0.996264)" xlink:href="#CMR17-48"/>
       <use transform="translate(118.478131 0)scale(0.996264)" xlink:href="#CMR17-56"/>
      </g>
     </g>
    </g>
    <g id="ytick_6">
     <g id="line2d_15">
      <g>
       <use style="stroke:#000000;stroke-width:0.8;" x="57.6" xlink:href="#m21960baede" y="129.759253"/>
      </g>
     </g>
     <g id="text_15">
      <!-- $\mathdefault{0.10}$ -->
      <g transform="translate(32.888586 133.218502)scale(0.1 -0.1)">
       <use transform="scale(0.996264)" xlink:href="#CMR17-48"/>
       <use transform="translate(45.690477 0)scale(0.996264)" xlink:href="#CMMI12-58"/>
       <use transform="translate(72.787654 0)scale(0.996264)" xlink:href="#CMR17-49"/>
       <use transform="translate(118.478131 0)scale(0.996264)" xlink:href="#CMR17-48"/>
      </g>
     </g>
    </g>
    <g id="ytick_7">
     <g id="line2d_16">
      <g>
       <use style="stroke:#000000;stroke-width:0.8;" x="57.6" xlink:href="#m21960baede" y="96.278524"/>
      </g>
     </g>
     <g id="text_16">
      <!-- $\mathdefault{0.12}$ -->
      <g transform="translate(32.888586 99.737773)scale(0.1 -0.1)">
       <use transform="scale(0.996264)" xlink:href="#CMR17-48"/>
       <use transform="translate(45.690477 0)scale(0.996264)" xlink:href="#CMMI12-58"/>
       <use transform="translate(72.787654 0)scale(0.996264)" xlink:href="#CMR17-49"/>
       <use transform="translate(118.478131 0)scale(0.996264)" xlink:href="#CMR17-50"/>
      </g>
     </g>
    </g>
    <g id="ytick_8">
     <g id="line2d_17">
      <g>
       <use style="stroke:#000000;stroke-width:0.8;" x="57.6" xlink:href="#m21960baede" y="62.797794"/>
      </g>
     </g>
     <g id="text_17">
      <!-- $\mathdefault{0.14}$ -->
      <g transform="translate(32.888586 66.257044)scale(0.1 -0.1)">
       <use transform="scale(0.996264)" xlink:href="#CMR17-48"/>
       <use transform="translate(45.690477 0)scale(0.996264)" xlink:href="#CMMI12-58"/>
       <use transform="translate(72.787654 0)scale(0.996264)" xlink:href="#CMR17-49"/>
       <use transform="translate(118.478131 0)scale(0.996264)" xlink:href="#CMR17-52"/>
      </g>
     </g>
    </g>
   </g>
   <g id="line2d_18">
    <path clip-path="url(#pb95b1ac108)" d="M 73.832727 129.759253 
L 74.303476 129.845117 
L 74.322956 133.167206 
L 74.371654 174.322823 
L 74.425222 129.843692 
L 74.454441 126.604688 
L 74.498269 136.20081 
L 74.566447 150.877459 
L 74.598912 133.302943 
L 74.618391 128.236757 
L 74.710918 131.596796 
L 74.899217 136.40891 
L 74.905711 136.257595 
L 75.007977 124.71285 
L 75.020963 122.192034 
L 75.09401 133.036153 
L 75.115113 133.563214 
L 75.176797 131.274727 
L 75.19303 130.622084 
L 75.262831 132.476009 
L 75.264454 132.39503 
L 75.322892 131.078633 
L 75.379706 132.787878 
L 75.418665 133.00556 
L 75.533917 130.205985 
L 75.694621 132.653254 
L 75.705984 132.591983 
L 75.782278 131.688564 
L 75.843962 132.355313 
L 75.852079 132.382609 
L 75.918633 131.865482 
L 75.920256 131.883679 
L 76.035508 131.347022 
L 76.051741 131.401674 
L 76.1605 132.90807 
L 76.199459 132.62186 
L 76.266013 132.101341 
L 76.321204 132.167341 
L 76.322828 132.209492 
L 76.412108 131.961875 
L 76.423471 132.006527 
L 76.425094 131.965858 
L 76.51762 132.393708 
L 76.519244 132.370219 
L 76.644236 132.939967 
L 76.645859 132.906355 
L 76.660468 132.957239 
L 76.743255 132.58645 
L 76.744879 132.616309 
L 76.853638 132.495922 
L 76.860131 132.497119 
L 76.931555 132.486522 
L 77.001356 133.107307 
L 77.002979 133.105649 
L 77.007849 133.20814 
L 77.009472 133.20562 
L 77.056547 133.602855 
L 77.124724 133.353906 
L 77.126348 133.330458 
L 77.196148 133.552767 
L 77.223744 133.519522 
L 77.348736 133.770191 
L 77.226991 133.519248 
L 77.351983 133.76974 
L 77.408797 133.725128 
L 77.452625 133.874405 
L 77.454249 133.868812 
L 77.566255 134.999551 
L 77.618199 134.893711 
L 77.619823 134.878232 
L 77.69287 135.212344 
L 77.694493 135.207109 
L 77.868183 136.121246 
L 77.869807 136.113705 
L 77.926621 136.347823 
L 77.928244 136.345518 
L 78.270755 139.552573 
L 78.337309 140.138777 
L 78.864873 145.714136 
L 78.993111 147.215065 
L 79.351855 152.013002 
L 79.653783 156.297535 
L 80.057978 162.344871 
L 81.882537 204.626495 
L 82.77209 236.422083 
L 83.598336 274.297727 
L 84.030127 295.488 
L 84.082071 293.885186 
L 84.690799 259.844117 
L 85.978054 190.439557 
L 86.848128 153.334492 
L 87.701969 126.890656 
L 88.331799 112.747053 
L 89.104477 100.629079 
L 89.872285 92.718876 
L 90.519971 88.733972 
L 90.953385 87.261254 
L 91.281286 86.920286 
L 91.380305 86.874313 
L 91.420887 86.922473 
L 91.678988 87.433646 
L 92.127011 89.648133 
L 92.575034 93.526864 
L 93.458095 103.295109 
L 94.675549 120.540111 
L 95.531014 136.842154 
L 96.470889 159.437645 
L 98.527575 211.378637 
L 99.272657 223.638453 
L 99.769379 228.862232 
L 100.18656 231.585389 
L 100.665425 233.063588 
L 100.855348 233.222163 
L 101.176756 233.015734 
L 101.628026 231.766123 
L 102.207535 228.72885 
L 102.610106 225.680298 
L 103.092218 221.058783 
L 104.12462 208.112987 
L 105.202473 194.337523 
L 105.773865 189.262963 
L 106.226758 186.707694 
L 106.772177 185.130965 
L 107.275392 184.761998 
L 107.850031 185.337576 
L 108.551284 187.284169 
L 110.625827 196.532404 
L 111.335197 201.593407 
L 111.87737 207.093106 
L 113.48441 223.091966 
L 113.896721 224.553832 
L 114.133719 224.644933 
L 114.38695 224.142976 
L 114.766796 222.349572 
L 115.497268 216.748991 
L 116.105996 212.434873 
L 116.505321 211.053811 
L 116.748812 210.930615 
L 117.011782 211.32624 
L 118.010095 213.707658 
L 118.232483 213.541464 
L 118.391564 213.164608 
L 118.620445 212.250901 
L 119.107427 209.028206 
L 121.001786 193.848241 
L 121.328064 193.157014 
L 121.462796 193.191332 
L 121.672198 193.665475 
L 121.89134 194.726648 
L 122.290665 198.049484 
L 123.782452 212.670144 
L 124.061655 213.261404 
L 124.219113 213.108569 
L 124.370077 212.632023 
L 124.691485 210.628319 
L 125.347287 204.141897 
L 125.878097 199.716396 
L 126.196259 198.621596 
L 126.342353 198.636232 
L 126.347223 198.643248 
L 126.472215 198.946303 
L 126.715706 200.29685 
L 127.071203 203.987425 
L 127.59065 211.966865 
L 128.473711 224.654556 
L 128.830831 226.88042 
L 128.963939 227.03114 
L 129.002897 226.996012 
L 129.153862 226.500146 
L 129.343785 225.03137 
L 129.6587 220.496606 
L 130.132695 209.547545 
L 131.195939 183.799357 
L 131.515724 180.868667 
L 131.637469 180.650549 
L 131.674804 180.683738 
L 131.777071 181.007111 
L 131.978356 182.576024 
L 132.319244 187.457997 
L 133.525335 206.533409 
L 133.910051 209.022762 
L 134.074001 209.26203 
L 134.091857 209.252119 
L 134.182761 209.088335 
L 134.330479 208.393479 
L 134.588579 205.861619 
L 134.935959 200.011434 
L 135.573905 184.996838 
L 136.249187 171.027477 
L 136.573841 167.933972 
L 136.695587 167.692574 
L 136.734545 167.730265 
L 136.851421 168.178576 
L 137.057577 170.129177 
L 137.395217 175.785128 
L 138.344832 196.645382 
L 139.263604 216.59591 
L 139.284707 216.604136 
L 139.326912 216.494605 
L 139.435671 215.415773 
L 139.623971 210.902926 
L 140.062255 193.417898 
L 140.360937 186.313972 
L 140.390156 186.248283 
L 140.438854 186.46658 
L 140.542743 188.427455 
L 140.731043 197.197134 
L 141.25536 225.863201 
L 141.299188 225.469959 
L 141.394961 221.633268 
L 141.581638 203.133 
L 142.24718 115.775257 
L 142.329967 119.151482 
L 142.497164 141.829003 
L 143.008495 208.184195 
L 143.357498 227.154468 
L 143.372108 227.084109 
L 143.424052 225.298799 
L 143.532812 211.931285 
L 143.76007 148.592718 
L 143.980835 107.504941 
L 143.998691 107.676444 
L 144.097711 109.898897 
L 144.157772 108.668292 
L 144.415872 94.546253 
L 144.628521 87.345988 
L 144.65774 87.574229 
L 144.730787 90.58787 
L 144.860649 107.265696 
L 145.315165 204.762387 
L 145.417431 191.872507 
L 145.862208 111.222882 
L 146.469312 69.461779 
L 146.51801 70.879306 
L 146.61703 83.592718 
L 146.956294 171.549477 
L 147.073169 186.023917 
L 147.120244 183.023602 
L 147.233873 153.953399 
L 147.529309 89.717788 
L 148.181865 53.568 
L 148.256535 56.144241 
L 148.365295 73.077455 
L 148.714298 166.156453 
L 148.811695 152.811131 
L 149.225629 74.958637 
L 149.326272 74.385601 
L 149.449641 71.745934 
L 149.735337 65.211037 
L 149.764556 65.323972 
L 149.837603 66.790758 
L 149.939869 74.311728 
L 150.072977 105.351062 
L 150.308352 176.240752 
L 150.368413 169.849451 
L 150.55022 110.649995 
L 150.767738 72.922281 
L 150.796957 72.737195 
L 150.861888 73.153897 
L 151.012852 74.00042 
L 151.058304 73.960055 
L 151.105379 73.948243 
L 151.142714 74.028386 
L 151.24498 74.750353 
L 151.387828 77.731407 
L 151.51282 85.214597 
L 151.634566 110.550167 
L 151.881303 192.365237 
L 151.955974 180.785373 
L 152.381271 73.135895 
L 152.446202 73.951843 
L 152.803322 83.356217 
L 153.025711 95.70297 
L 153.147456 124.568058 
L 153.426659 230.307652 
L 153.506199 214.277018 
L 153.994804 80.334052 
L 154.056489 79.126427 
L 154.118173 79.75873 
L 154.397376 86.513804 
L 154.499642 95.554628 
L 154.64736 135.254347 
L 154.946042 266.448031 
L 155.028829 239.061946 
L 155.415168 102.845541 
L 155.647296 86.279231 
L 155.683008 86.104247 
L 155.743069 86.421983 
L 155.853452 88.553713 
L 155.962211 96.352078 
L 156.114799 127.438701 
L 156.340433 229.378261 
L 156.454063 294.34926 
L 156.510877 263.498323 
L 156.87449 116.680815 
L 157.088762 97.087874 
L 157.153693 96.360011 
L 157.210508 96.811543 
L 157.333876 100.272396 
L 157.463738 111.562206 
L 157.639052 150.442732 
L 157.952343 280.768273 
L 158.046493 245.128232 
L 158.393873 132.288642 
L 158.609769 116.742337 
L 158.630871 116.64425 
L 158.676323 117.128155 
L 158.786705 121.743307 
L 158.953903 139.319179 
L 159.168175 189.556398 
L 159.424652 270.469835 
L 159.491206 257.98944 
L 159.963578 146.881636 
L 160.121036 141.094036 
L 160.147008 141.236814 
L 160.224925 143.35243 
L 160.36615 154.389205 
L 160.569059 191.077684 
L 160.874234 267.217656 
L 160.947281 257.484147 
L 161.456989 165.053293 
L 161.560879 162.764404 
L 161.607953 163.248164 
L 161.706973 167.577944 
L 161.877417 186.677567 
L 162.150127 247.098066 
L 162.296221 274.77628 
L 162.346543 269.839089 
L 162.986112 176.90943 
L 163.005591 176.827495 
L 163.051043 177.263197 
L 163.148439 181.388909 
L 163.315636 199.848206 
L 163.593216 260.634223 
L 163.697105 277.569115 
L 163.750673 272.075023 
L 164.365894 179.756471 
L 164.421085 179.187536 
L 164.474653 179.790222 
L 164.580166 184.733566 
L 164.752233 205.315229 
L 165.047668 273.958085 
L 165.112599 284.159206 
L 165.167791 276.302105 
L 165.696977 180.019626 
L 165.873914 173.787076 
L 165.89664 173.908109 
L 165.968064 175.862683 
L 166.106042 187.092143 
L 166.317068 225.827854 
L 166.552442 281.551313 
L 166.61575 271.929522 
L 167.115718 176.643119 
L 167.300771 169.706153 
L 167.318627 169.777281 
L 167.381935 171.189161 
L 167.51342 180.21119 
L 167.709836 211.530428 
L 168.005271 283.808007 
L 168.083188 269.119453 
L 168.527965 178.891364 
L 168.75847 167.386654 
L 168.766586 167.374035 
L 168.797428 167.598429 
L 168.880215 170.404183 
L 169.029556 184.425816 
L 169.251945 230.154653 
L 169.459724 279.912263 
L 169.516538 271.812759 
L 170.048972 172.160097 
L 170.203183 167.346269 
L 170.234025 167.568748 
L 170.316812 170.35017 
L 170.469399 184.396507 
L 170.695034 229.438006 
L 170.910929 282.011625 
L 170.970991 272.949055 
L 171.483945 174.261778 
L 171.668998 167.272568 
L 171.688477 167.36429 
L 171.756655 169.079897 
L 171.891386 179.318262 
L 172.094295 214.748751 
L 172.362135 278.380235 
L 172.430313 268.234228 
L 172.930281 174.028839 
L 173.102348 168.182551 
L 173.125073 168.303072 
L 173.196497 170.212692 
L 173.336099 181.160365 
L 173.547124 218.363697 
L 173.810095 281.539006 
L 173.878272 270.655411 
L 174.365254 176.568327 
L 174.563293 168.515919 
L 174.576279 168.549576 
L 174.629847 169.513288 
L 174.746723 176.498925 
L 174.931776 203.242203 
L 175.256431 278.685075 
L 175.342464 264.172976 
L 175.790487 177.6121 
L 175.99502 169.3034 
L 176.001513 169.3139 
L 176.043718 169.83422 
L 176.145984 174.529989 
L 176.318051 194.663463 
L 176.584268 257.411422 
L 176.702767 282.079834 
L 176.754711 274.815367 
L 177.303377 173.951989 
L 177.457588 169.082511 
L 177.490054 169.331773 
L 177.574464 172.314956 
L 177.727052 187.143162 
L 177.957556 235.352685 
L 178.147479 279.085409 
L 178.202671 272.05288 
L 178.764323 172.404431 
L 178.887692 169.329922 
L 178.929897 169.724054 
L 179.02567 173.668992 
L 179.191244 191.504086 
L 179.439604 246.96785 
L 179.595439 282.272019 
L 179.649007 274.575744 
L 180.187933 174.282858 
L 180.35026 168.81581 
L 180.379479 169.002776 
L 180.45902 171.549278 
L 180.606737 184.929285 
L 180.829126 229.264698 
L 181.041775 279.093563 
L 181.100212 271.252338 
L 181.642385 172.971015 
L 181.781987 169.02401 
L 181.819322 169.326435 
L 181.908602 172.655184 
L 182.067683 188.527634 
L 182.304681 238.648947 
L 182.489734 282.193048 
L 182.544925 274.254108 
L 183.078982 174.349155 
L 183.246179 168.634419 
L 183.272151 168.794864 
L 183.348445 171.100948 
L 183.492916 183.629862 
L 183.710435 225.613589 
L 183.937693 279.009891 
L 183.997754 270.630928 
L 184.528564 173.41513 
L 184.677905 168.977451 
L 184.710371 169.218823 
L 184.794781 172.111339 
L 184.948992 186.580339 
L 185.177873 232.819378 
L 185.384029 282.129117 
L 185.442467 273.615775 
L 185.965161 174.96358 
L 186.140474 168.665425 
L 186.164823 168.801449 
L 186.237871 170.878681 
L 186.379095 182.590234 
L 186.591744 222.25389 
L 186.831988 278.984052 
L 186.893673 270.351467 
L 187.419613 173.680635 
L 187.572201 169.037505 
L 187.603043 169.252199 
L 187.68583 171.981355 
L 187.838417 185.937314 
L 188.064052 230.670896 
L 188.279948 282.13424 
L 188.338385 273.30122 
L 188.854586 175.373075 
L 189.034769 168.714546 
L 189.055872 168.814584 
L 189.124049 170.560672 
L 189.258781 180.890632 
L 189.463313 216.750582 
L 189.726284 278.999555 
L 189.794461 268.867015 
L 190.292806 175.080551 
L 190.466496 169.062086 
L 190.489222 169.178153 
L 190.560646 171.068136 
L 190.700247 181.931773 
L 190.909649 218.611744 
L 191.174243 282.152374 
L 191.24242 270.944766 
L 191.722909 177.39331 
L 191.929065 168.719281 
L 191.938804 168.739476 
L 191.985879 169.453544 
L 192.096262 175.345371 
L 192.273199 198.850626 
L 192.620579 279.009808 
L 192.717975 261.490287 
L 193.143273 178.531897 
L 193.360791 169.053204 
L 193.383517 169.16696 
L 193.454941 171.05004 
L 193.594543 181.900977 
L 193.803945 218.556993 
L 194.068538 282.155924 
L 194.136716 270.996213 
L 194.618828 177.267302 
L 194.82336 168.707751 
L 194.8331 168.726931 
L 194.880175 169.435916 
L 194.988934 175.183196 
L 195.165871 198.494259 
L 195.514874 279.007409 
L 195.613894 261.123795 
L 196.035945 178.688968 
L 196.255087 169.04489 
L 196.277812 169.156014 
L 196.349236 171.030238 
L 196.488838 181.863073 
L 196.69824 218.490723 
L 196.962833 282.152515 
L 197.031011 271.059355 
L 197.513123 177.284127 
L 197.717655 168.703845 
L 197.729018 168.729114 
L 197.77934 169.557631 
L 197.892969 175.968434 
L 198.074775 201.213637 
L 198.410793 279.004289 
L 198.501696 262.895751 
L 198.936733 178.140668 
L 199.149382 169.045275 
L 199.152628 169.047007 
L 199.183471 169.294153 
L 199.269504 172.293542 
L 199.425338 187.148133 
L 199.655843 234.271336 
L 199.857129 282.150677 
L 199.913943 273.898893 
L 200.441507 174.745602 
L 200.613574 168.705889 
L 200.637923 168.847376 
L 200.712593 171.017576 
L 200.853818 182.890636 
L 201.06809 223.22528 
L 201.305088 279.004653 
L 201.366772 270.237111 
L 201.889466 173.859835 
L 202.043677 169.047504 
L 202.074519 169.247236 
L 202.155683 171.850917 
L 202.306647 185.376142 
L 202.530659 229.14273 
L 202.751424 282.150881 
L 202.811485 273.180699 
L 203.326063 175.448754 
L 203.507869 168.707406 
L 203.528972 168.812032 
L 203.598772 170.6428 
L 203.735127 181.310434 
L 203.941283 218.014596 
L 204.199383 279.0059 
L 204.265937 269.143949 
L 204.769152 174.816237 
L 204.939596 169.047984 
L 204.963945 169.185469 
L 205.038615 171.289081 
L 205.181463 182.917364 
L 205.395735 221.803878 
L 205.645719 282.150761 
L 205.712273 271.647328 
L 206.202502 176.82163 
L 206.402164 168.707199 
L 206.415151 168.746154 
L 206.470342 169.783567 
L 206.590464 177.215795 
L 206.778764 205.298743 
L 207.093679 279.0063 
L 207.176465 265.177846 
L 207.630982 177.249418 
L 207.833891 169.047445 
L 207.842007 169.063529 
L 207.887459 169.694515 
L 207.994595 175.012676 
L 208.171532 196.940401 
L 208.453981 265.923819 
L 208.541638 282.150172 
L 208.595206 274.447685 
L 209.134132 174.145239 
L 209.29646 168.706703 
L 209.325679 168.8996 
L 209.405219 171.463591 
L 209.552937 184.880082 
L 209.775325 229.255709 
L 209.987974 279.005873 
L 210.046412 271.146521 
L 210.588585 172.956297 
L 210.728186 169.047168 
L 210.763898 169.331379 
L 210.851555 172.515773 
L 211.009012 187.923343 
L 211.242764 236.60822 
L 211.435933 282.150967 
L 211.491124 274.124293 
L 212.023558 174.481792 
L 212.190755 168.706666 
L 212.218351 168.875522 
L 212.296268 171.286753 
L 212.442362 184.209259 
L 212.661504 227.094738 
L 212.882269 279.005183 
L 212.94233 270.831997 
L 213.476387 173.336603 
L 213.622481 169.047233 
L 213.65657 169.302576 
L 213.742604 172.319427 
L 213.898438 187.20947 
L 214.130566 234.815635 
L 214.330228 282.151575 
L 214.387043 273.797683 
L 214.912983 174.828568 
L 215.08505 168.706849 
L 215.111023 168.853248 
L 215.185693 171.038678 
L 215.328541 183.146182 
L 215.542813 223.739323 
L 215.776564 279.004326 
L 215.838249 270.514238 
L 216.365812 173.637294 
L 216.516777 169.047325 
L 216.549242 169.275337 
L 216.633652 172.128956 
L 216.787863 186.510801 
L 217.016745 232.615129 
L 217.224524 282.151875 
L 217.282961 273.46803 
L 217.802409 175.185376 
L 217.980969 168.706965 
L 218.002071 168.815686 
L 218.071872 170.660575 
L 218.208227 181.359101 
L 218.414383 218.115697 
L 218.672483 279.004983 
L 218.737414 269.429561 
L 219.245498 174.570849 
L 219.411072 169.047348 
L 219.437044 169.189628 
L 219.511715 171.307889 
L 219.654563 182.967258 
L 219.868835 221.906085 
L 220.118819 282.151739 
L 220.18375 271.944993 
L 220.678848 176.532045 
L 220.875264 168.706858 
L 220.889873 168.758886 
L 220.948311 169.958562 
L 221.07168 178.033211 
L 221.263226 207.77193 
L 221.566778 279.005657 
L 221.644695 266.305105 
L 222.110575 176.695846 
L 222.305367 169.047381 
L 222.318353 169.080129 
L 222.371921 170.011941 
L 222.49042 176.904115 
L 222.677097 203.01579 
L 223.013114 282.151194 
L 223.104017 265.291763 
L 223.535808 179.758796 
L 223.764689 168.711383 
L 223.771183 168.707627 
L 223.795532 168.863912 
L 223.871825 171.159816 
L 224.016297 183.66905 
L 224.233815 225.606007 
L 224.461073 279.005999 
L 224.521135 270.679835 
L 225.051945 173.487272 
L 225.201286 169.04739 
L 225.233751 169.288362 
L 225.318161 172.177758 
L 225.472372 186.633271 
L 225.701254 232.851815 
L 225.907409 282.150279 
L 225.965847 273.639784 
L 226.488541 175.007597 
L 226.663855 168.706778 
L 226.688204 168.842344 
L 226.761251 170.918151 
L 226.902476 182.626795 
L 227.115124 222.286885 
L 227.355369 279.006022 
L 227.417053 270.36061 
L 227.94137 173.793173 
L 228.095581 169.047335 
L 228.126423 169.261855 
L 228.20921 171.991568 
L 228.361798 185.946923 
L 228.587433 230.676429 
L 228.803328 282.150269 
L 228.861766 273.308794 
L 229.377967 175.369569 
L 229.55815 168.706786 
L 229.579252 168.806289 
L 229.64743 170.55061 
L 229.782161 180.876453 
L 229.986694 216.731704 
L 230.249664 279.005713 
L 230.317841 268.882686 
L 230.816186 175.073594 
L 230.989876 169.0473 
L 231.012602 169.16213 
L 231.084026 171.048486 
L 231.223628 181.906629 
L 231.43303 218.577307 
L 231.697623 282.151187 
L 231.765801 270.968619 
L 232.247913 177.257236 
L 232.452445 168.706813 
L 232.462185 168.726501 
L 232.50926 169.438018 
L 232.618019 175.191543 
L 232.794956 198.514332 
L 233.143959 279.00507 
L 233.241356 261.522028 
L 233.666653 178.536143 
L 233.884172 169.047287 
L 233.906897 169.159728 
L 233.978321 171.038161 
L 234.117923 181.879227 
L 234.327325 218.520945 
L 234.591919 282.151719 
L 234.660096 271.028958 
L 235.142208 177.276857 
L 235.34674 168.706866 
L 235.358103 168.732782 
L 235.408425 169.564284 
L 235.522054 175.982491 
L 235.70386 201.241512 
L 236.039878 279.004216 
L 236.130781 262.862219 
L 236.565818 178.131677 
L 236.778467 169.047301 
L 236.781713 169.04922 
L 236.812556 169.298196 
L 236.898589 172.303119 
L 237.054423 187.168781 
L 237.284928 234.308096 
L 237.486214 282.151869 
L 237.543028 273.867579 
L 238.070592 174.737469 
L 238.242659 168.706906 
L 238.267008 168.849852 
L 238.341679 171.024745 
L 238.482903 182.90797 
L 238.697175 223.259507 
L 238.934173 279.005155 
L 238.995857 270.206321 
L 239.518551 173.85177 
L 239.672762 169.04734 
L 239.703604 169.248815 
L 239.784768 171.857431 
L 239.935732 185.393269 
L 240.159744 229.176483 
L 240.380509 282.151636 
L 240.44057 273.148932 
L 240.953524 175.556424 
L 241.136954 168.706838 
L 241.156433 168.79735 
L 241.222988 170.443933 
L 241.356096 180.404135 
L 241.559005 215.366027 
L 241.828468 279.005761 
L 241.896646 268.722657 
L 242.393367 175.139993 
L 242.567057 169.047403 
L 242.589783 169.15268 
L 242.659584 170.938742 
L 242.797562 181.430672 
L 243.005341 217.215875 
L 243.274804 282.151019 
L 243.344605 270.801223 
L 243.823471 177.469785 
L 244.031249 168.706795 
L 244.039366 168.722655 
L 244.084817 169.372025 
L 244.191953 174.856857 
L 244.367267 197.444094 
L 244.722764 279.006037 
L 244.823407 260.488592 
L 245.242211 178.766025 
L 245.461353 169.047492 
L 245.484079 169.150382 
L 245.553879 170.928713 
L 245.691857 181.40383 
L 245.899636 217.160252 
L 246.1691 282.150018 
L 246.2389 270.861721 
L 246.719389 177.355576 
L 246.925545 168.706779 
L 246.935284 168.728334 
L 246.983983 169.492596 
L 247.095988 175.626317 
L 247.274548 199.811419 
L 247.617059 279.005981 
L 247.711209 262.263831 
L 248.141376 178.356063 
L 248.357271 169.047324 
L 248.358895 169.04818 
L 248.38649 169.239307 
L 248.467654 171.820637 
L 248.616995 185.089278 
L 248.839383 228.16449 
L 249.065018 282.150514 
L 249.125079 272.930354 
L 249.634787 175.728217 
L 249.81984 168.706788 
L 249.839319 168.790924 
L 249.905873 170.414796 
L 250.038982 180.324372 
L 250.241891 215.198762 
L 250.511354 279.005594 
L 250.581155 268.503971 
L 251.07463 175.303792 
L 251.251567 169.047294 
L 251.272669 169.145862 
L 251.340847 170.841932 
L 251.477201 180.990808 
L 251.683357 215.927422 
L 251.959313 282.151343 
L 252.030737 270.160331 
L 252.50311 177.801599 
L 252.714135 168.706822 
L 252.720628 168.71502 
L 252.759587 169.170156 
L 252.858607 173.602725 
L 253.02418 192.810557 
L 253.285527 254.506645 
L 253.405649 279.004875 
L 253.459217 272.302809 
L 254.030609 171.745738 
L 254.145862 169.047289 
L 254.18969 169.468916 
L 254.287087 173.592119 
L 254.454284 191.988785 
L 254.707514 249.432749 
L 254.853609 282.151788 
L 254.907177 274.584899 
L 255.44935 173.974403 
L 255.608431 168.706883 
L 255.639273 168.913677 
L 255.720436 171.602394 
L 255.869777 185.454012 
L 256.093789 230.799929 
L 256.301568 279.004462 
L 256.358383 271.27982 
L 256.903802 172.811394 
L 257.040157 169.047308 
L 257.077492 169.348213 
L 257.166772 172.669577 
L 257.325853 188.533201 
L 257.562851 238.631318 
L 257.747904 282.15185 
L 257.803095 274.26273 
L 258.338775 174.305712 
L 258.504349 168.706888 
L 258.531945 168.88877 
L 258.611485 171.421013 
L 258.75758 184.556129 
L 258.978345 228.197715 
L 259.195863 279.005324 
L 259.254301 270.966599 
L 259.791604 173.184512 
L 259.934452 169.047353 
L 259.970164 169.318453 
L 260.057821 172.468621 
L 260.215279 187.806495 
L 260.44903 236.386409 
L 260.642199 282.151528 
L 260.699014 273.93738 
L 261.226577 174.757646 
L 261.398644 168.706826 
L 261.422993 168.846492 
L 261.497664 171.010847 
L 261.638889 182.871517 
L 261.853161 223.185845 
L 262.090159 279.005854 
L 262.151843 270.274972 
L 262.674537 173.869874 
L 262.830371 169.047438 
L 262.85959 169.244886 
L 262.940753 171.842306 
L 263.091718 185.3548 
L 263.315729 229.100935 
L 263.536495 282.150822 
L 263.596556 273.220053 
L 264.111133 175.459995 
L 264.29294 168.706789 
L 264.314042 168.809838 
L 264.383843 170.635129 
L 264.520198 181.290714 
L 264.726353 217.974696 
L 264.984454 279.006053 
L 265.051008 269.183426 
L 265.554223 174.826783 
L 265.724666 169.047364 
L 265.749015 169.183066 
L 265.823686 171.280869 
L 265.966534 182.896856 
L 266.180806 221.763157 
L 266.43079 282.149732 
L 266.497344 271.688712 
L 266.987572 176.834516 
L 267.187235 168.706778 
L 267.200221 168.744757 
L 267.255412 169.777874 
L 267.375535 177.199864 
L 267.563834 205.26393 
L 267.878749 279.005921 
L 267.961536 265.220394 
L 268.416052 177.262891 
L 268.618961 169.047315 
L 268.627078 169.062816 
L 268.672529 169.690414 
L 268.779665 174.999981 
L 268.956602 196.911094 
L 269.239052 265.87827 
L 269.326708 282.150739 
L 269.380276 274.486446 
L 269.920826 174.051247 
L 270.08153 168.706793 
L 270.110749 168.897463 
L 270.190289 171.455096 
L 270.338007 184.858101 
L 270.560396 229.212438 
L 270.773044 279.005457 
L 270.831482 271.184113 
L 271.373655 172.965617 
L 271.513257 169.047291 
L 271.548969 169.32888 
L 271.636625 172.506442 
L 271.794083 187.90008 
L 272.027834 236.563915 
L 272.221004 282.15148 
L 272.277818 273.780126 
L 272.803759 174.823462 
L 272.975825 168.706834 
L 273.001798 168.854111 
L 273.076468 171.04218 
L 273.219316 183.155396 
L 273.433588 223.757862 
L 273.66734 279.004662 
L 273.729024 270.497174 
L 274.256588 173.632837 
L 274.407552 169.047291 
L 274.440017 169.276362 
L 274.524428 172.132898 
L 274.678639 186.520754 
L 274.90752 232.634443 
L 275.115299 282.151836 
L 275.173737 273.450351 
L 275.693184 175.180112 
L 275.870121 168.706901 
L 275.892847 168.816387 
L 275.962647 170.663734 
L 276.099002 181.367634 
L 276.305158 218.133302 
L 276.563258 279.00469 
L 276.628189 269.412018 
L 277.136273 174.565965 
L 277.301847 169.047316 
L 277.32782 169.190439 
L 277.40249 171.311262 
L 277.545338 182.976053 
L 277.75961 221.923944 
L 278.009594 282.151809 
L 278.074525 271.926727 
L 278.568 176.653475 
L 278.766039 168.706872 
L 278.779025 168.748758 
L 278.83584 169.851819 
L 278.957585 177.568932 
L 279.147508 206.414528 
L 279.457553 279.005476 
L 279.538717 265.4648 
L 279.994857 177.208784 
L 280.196143 169.047366 
L 280.205882 169.065353 
L 280.252957 169.746818 
L 280.361716 175.299974 
L 280.540276 197.887912 
L 280.830842 269.536037 
L 280.903889 282.151399 
L 280.959081 274.331728 
L 281.496384 174.21863 
L 281.660335 168.706815 
L 281.68793 168.884973 
L 281.765847 171.323787 
L 281.911942 184.305291 
L 282.131084 227.284468 
L 282.351849 279.00593 
L 282.410287 271.03369 
L 282.949213 173.10949 
L 283.092061 169.047419 
L 283.127773 169.339507 
L 283.217053 172.638359 
L 283.376134 188.456407 
L 283.613132 238.48689 
L 283.798185 282.150604 
L 283.854999 274.007043 
L 284.384186 174.667106 
L 284.55463 168.706784 
L 284.580602 168.861934 
L 284.656896 171.15177 
L 284.799744 183.442388 
L 285.015639 224.741641 
L 285.246144 279.006052 
L 285.306205 270.717929 
L 285.838639 173.401955 
L 285.986356 169.04735 
L 286.018822 169.285942 
L 286.103232 172.168765 
L 286.257443 186.610746 
L 286.486324 232.808332 
L 286.694103 282.149909 
L 286.750918 273.6793 
L 287.273612 175.019193 
L 287.448925 168.706779 
L 287.473274 168.840503 
L 287.546321 170.91052 
L 287.687546 182.606514 
L 287.900195 222.245776 
L 288.140439 279.005843 
L 288.203747 270.021155 
L 288.721571 174.104976 
L 288.880652 169.047307 
L 288.909871 169.237865 
L 288.989411 171.73298 
L 289.138752 184.866304 
L 289.36114 227.724264 
L 289.588399 282.150944 
L 289.64846 272.957172 
L 290.158167 175.736385 
L 290.34322 168.7068 
L 290.3627 168.789957 
L 290.429254 170.410337 
L 290.562362 180.312131 
L 290.765271 215.173061 
L 291.034735 279.005303 
L 291.104535 268.530795 
L 291.59801 175.311586 
L 291.774947 169.047289 
L 291.796049 169.144834 
L 291.864227 170.837423 
L 292.000582 180.97866 
L 292.206737 215.902084 
L 292.482694 282.151596 
L 292.554118 270.188515 
L 293.02649 177.810951 
L 293.237516 168.706847 
L 293.244009 168.714721 
L 293.282967 169.167862 
L 293.381987 173.595034 
L 293.547561 192.792263 
L 293.808908 254.475741 
L 293.92903 279.004431 
L 293.982598 272.326749 
L 294.555613 171.676889 
L 294.669242 169.047295 
L 294.714694 169.498878 
L 294.813713 173.800834 
L 294.982534 192.743865 
L 295.239011 251.677084 
L 295.376989 282.151864 
L 295.430557 274.610523 
L 295.97273 173.981471 
L 296.133434 168.706933 
L 296.162653 168.912152 
L 296.243817 171.596544 
L 296.393158 185.439035 
L 296.617169 230.77085 
L 296.824948 279.004901 
L 296.881763 271.304728 
L 297.427183 172.817382 
L 297.563537 169.047326 
L 297.600873 169.346402 
L 297.690153 172.663108 
L 297.849233 188.517303 
L 298.086231 238.601436 
L 298.271284 282.151749 
L 298.326476 274.288616 
L 298.862156 174.312998 
L 299.027729 168.706856 
L 299.055325 168.887342 
L 299.134865 171.415356 
L 299.28096 184.541601 
L 299.501725 228.1691 
L 299.719244 279.00561 
L 299.777681 270.99177 
L 300.316608 173.099125 
L 300.457833 169.047381 
L 300.493545 169.316734 
L 300.581201 172.46234 
L 300.738659 187.790927 
L 300.97241 236.356849 
L 301.16558 282.15125 
L 301.222394 273.963514 
L 301.751581 174.654584 
L 301.922025 168.706806 
L 301.947997 168.864143 
L 302.024291 171.160721 
L 302.168762 183.671411 
L 302.386281 225.610717 
L 302.613539 279.005987 
L 302.6736 270.675588 
L 303.20441 173.486188 
L 303.353751 169.047401 
L 303.386217 169.288638 
L 303.470627 172.178766 
L 303.624838 186.63579 
L 303.853719 232.856669 
L 304.059875 282.150367 
L 304.118313 273.635375 
L 304.641007 175.006304 
L 304.81632 168.706781 
L 304.840669 168.842553 
L 304.913716 170.919006 
L 305.054941 182.629058 
L 305.26759 222.291473 
L 305.507834 279.006033 
L 305.569519 270.35632 
L 306.093836 173.792045 
L 306.248047 169.047338 
L 306.278889 169.26211 
L 306.361676 171.99254 
L 306.514263 185.94938 
L 306.739898 230.681214 
L 306.955793 282.150182 
L 307.014231 273.304347 
L 307.530432 175.368237 
L 307.710615 168.706782 
L 307.731718 168.806464 
L 307.799895 170.551385 
L 307.934627 180.878553 
L 308.139159 216.736066 
L 308.402129 279.005748 
L 308.470307 268.878234 
L 308.968652 175.072316 
L 309.142342 169.047301 
L 309.165068 169.162315 
L 309.236492 171.049283 
L 309.376093 181.908744 
L 309.585495 218.581656 
L 309.850089 282.151129 
L 309.918266 270.963961 
L 310.400378 177.255724 
L 310.604911 168.706809 
L 310.61465 168.726578 
L 310.661725 169.438501 
L 310.770484 175.193037 
L 310.947421 198.517762 
L 311.296425 279.005131 
L 311.393821 261.517153 
L 311.819119 178.534508 
L 312.036637 169.047288 
L 312.059363 169.159913 
L 312.130787 171.038957 
L 312.270388 181.88134 
L 312.479791 218.525293 
L 312.744384 282.151692 
L 312.812561 271.024304 
L 313.294673 177.275342 
L 313.499206 168.706862 
L 313.510569 168.732873 
L 313.56089 169.564809 
L 313.674519 175.984079 
L 313.856326 201.245105 
L 314.19072 279.004183 
L 314.283247 262.85739 
L 314.718284 178.13008 
L 314.930932 169.0473 
L 314.934179 169.049244 
L 314.965021 169.298473 
L 315.051055 172.304143 
L 315.206889 187.171336 
L 315.437393 234.312986 
L 315.638679 282.151872 
L 315.695494 273.863198 
L 316.223057 174.736204 
L 316.395124 168.706913 
L 316.419473 168.850064 
L 316.494144 171.025618 
L 316.635369 182.910257 
L 316.849641 223.264127 
L 317.086639 279.005094 
L 317.148323 270.202013 
L 317.671017 173.850636 
L 317.825228 169.047336 
L 317.85607 169.249062 
L 317.937233 171.85838 
L 318.088198 185.395682 
L 318.312209 229.18122 
L 318.532975 282.151668 
L 318.593036 273.144468 
L 319.10599 175.555076 
L 319.28942 168.706842 
L 319.308899 168.797518 
L 319.375453 170.444686 
L 319.508561 180.406191 
L 319.711471 215.370333 
L 319.980934 279.005726 
L 320.049111 268.718191 
L 320.545833 175.138708 
L 320.719523 169.047398 
L 320.742249 169.152858 
L 320.812049 170.939517 
L 320.950028 181.432745 
L 321.157807 217.220168 
L 321.42727 282.15108 
L 321.497071 270.796553 
L 321.975936 177.468252 
L 322.183715 168.706798 
L 322.191831 168.722725 
L 322.237283 169.372486 
L 322.344419 174.858309 
L 322.519732 197.447458 
L 322.875229 279.006027 
L 322.975872 260.483689 
L 323.394676 178.764367 
L 323.613818 169.047484 
L 323.636544 169.150558 
L 323.706345 170.929486 
L 323.844323 181.4059 
L 324.052102 217.164543 
L 324.321565 282.150109 
L 324.391366 270.857055 
L 324.871855 177.354053 
L 325.07801 168.706779 
L 325.08775 168.728416 
L 325.136448 169.493098 
L 325.248454 175.627863 
L 325.427014 199.814928 
L 325.769524 279.005997 
L 325.863674 262.258979 
L 326.293841 178.354445 
L 326.509737 169.047327 
L 326.51136 169.048196 
L 326.538956 169.239548 
L 326.620119 171.82158 
L 326.76946 185.091667 
L 326.991849 228.169195 
L 327.217484 282.150434 
L 327.277545 272.925868 
L 327.787252 175.726851 
L 327.972305 168.706786 
L 327.991785 168.791087 
L 328.058339 170.415542 
L 328.191447 180.32642 
L 328.394356 215.203061 
L 328.66382 279.005635 
L 328.73362 268.499485 
L 329.227095 175.302489 
L 329.404032 169.047295 
L 329.425135 169.146034 
L 329.493312 170.842686 
L 329.629667 180.99284 
L 329.835823 215.93166 
L 330.111779 282.151293 
L 330.183203 270.155617 
L 330.655575 177.800036 
L 330.866601 168.706819 
L 330.873094 168.715071 
L 330.912052 169.17054 
L 331.011072 173.604012 
L 331.176646 192.813617 
L 331.437993 254.511812 
L 331.558115 279.004942 
L 331.611683 272.298803 
L 332.183075 171.74489 
L 332.298327 169.047288 
L 332.342156 169.469276 
L 332.439552 173.593337 
L 332.606749 191.991694 
L 332.85998 249.437927 
L 333.006074 282.151767 
L 333.059642 274.580612 
L 333.601815 173.973221 
L 333.760896 168.706877 
L 333.791738 168.913932 
L 333.872902 171.603373 
L 334.022243 185.456517 
L 334.246255 230.804792 
L 334.454033 279.004382 
L 334.510848 271.275653 
L 335.056268 172.810394 
L 335.192623 169.047306 
L 335.229958 169.348517 
L 335.319238 172.670659 
L 335.478319 188.53586 
L 335.715316 238.636316 
L 335.900369 282.151859 
L 335.955561 274.258399 
L 336.491241 174.304494 
L 336.656815 168.706894 
L 336.68441 168.88901 
L 336.763951 171.42196 
L 336.910045 184.558559 
L 337.13081 228.2025 
L 337.348329 279.005269 
L 337.406767 270.962387 
L 337.94407 173.183462 
L 338.086918 169.047348 
L 338.12263 169.31874 
L 338.210287 172.469672 
L 338.367744 187.809099 
L 338.601495 236.391353 
L 338.794665 282.151566 
L 338.851479 273.933008 
L 339.379043 174.75638 
L 339.55111 168.70683 
L 339.575459 168.846701 
L 339.650129 171.011718 
L 339.791354 182.873801 
L 340.005626 223.190462 
L 340.242624 279.005825 
L 340.304308 270.270672 
L 340.827002 173.868738 
L 340.981213 169.047415 
L 341.012055 169.245131 
L 341.093219 171.843253 
L 341.244183 185.35721 
L 341.468195 229.10567 
L 341.68896 282.15089 
L 341.749021 273.215598 
L 342.263599 175.458657 
L 342.445405 168.706791 
L 342.466508 168.810018 
L 342.536308 170.635923 
L 342.672663 181.292854 
L 342.878819 217.979112 
L 343.136919 279.00605 
L 343.203473 269.179005 
L 343.706688 174.825534 
L 343.877132 169.047369 
L 343.901481 169.183269 
L 343.976151 171.281713 
L 344.118999 182.899059 
L 344.333271 221.767634 
L 344.583255 282.14983 
L 344.649809 271.684111 
L 345.140038 176.833043 
L 345.3397 168.706778 
L 345.352687 168.744866 
L 345.407878 169.778463 
L 345.528 177.20159 
L 345.7163 205.267747 
L 346.031215 279.005943 
L 346.114001 265.215672 
L 346.568518 177.261381 
L 346.771427 169.047318 
L 346.779543 169.062884 
L 346.824995 169.690861 
L 346.932131 175.001383 
L 347.109068 196.91433 
L 347.391517 265.883312 
L 347.479174 282.150666 
L 347.532742 274.482145 
L 348.073292 174.050056 
L 348.233996 168.706791 
L 348.263215 168.897708 
L 348.342755 171.456048 
L 348.490473 184.860556 
L 348.712861 229.217254 
L 348.92551 279.005505 
L 348.983948 271.179932 
L 349.526121 172.964595 
L 349.665722 169.047292 
L 349.701434 169.329173 
L 349.789091 172.507499 
L 349.946548 187.902691 
L 350.1803 236.568863 
L 350.373469 282.151436 
L 350.430284 273.775734 
L 350.954601 174.934375 
L 351.128291 168.70683 
L 351.15264 168.836048 
L 351.225687 170.891913 
L 351.365289 182.359885 
L 351.576314 221.344532 
L 351.819805 279.004735 
L 351.883113 270.115993 
L 352.404183 173.927816 
L 352.560017 169.04729 
L 352.59086 169.254032 
L 352.672023 171.87735 
L 352.822988 185.443849 
L 353.046999 229.275724 
L 353.267764 282.151822 
L 353.327825 273.055374 
L 353.839156 175.646778 
L 354.022586 168.706895 
L 354.043689 168.800909 
L 354.111866 170.526711 
L 354.246598 180.81164 
L 354.45113 216.596935 
L 354.715724 279.004616 
L 354.782278 269.02002 
L 355.283869 174.890473 
L 355.454313 169.047313 
L 355.478662 169.172959 
L 355.551709 171.1655 
L 355.692934 182.403185 
L 355.903959 219.978523 
L 356.16206 282.151825 
L 356.228614 271.518707 
L 356.717219 176.909591 
L 356.918505 168.706877 
L 356.929868 168.739433 
L 356.983436 169.697975 
L 357.100311 176.667135 
L 357.285364 203.420254 
L 357.610019 279.005427 
L 357.696052 264.21223 
L 358.140829 177.744751 
L 358.348608 169.047362 
L 358.355101 169.054829 
L 358.39406 169.490738 
L 358.491456 173.665232 
L 358.658653 192.163197 
L 358.911884 249.742558 
L 359.056355 282.151444 
L 359.109923 274.704309 
L 359.655343 173.801481 
L 359.8128 168.706819 
L 359.843642 168.929238 
L 359.926429 171.748667 
L 360.077393 186.049147 
L 360.304652 232.80885 
L 360.504314 279.005906 
L 360.559505 271.757591 
L 361.116288 172.329171 
L 361.244527 169.047425 
L 361.285108 169.423898 
L 361.379258 173.229845 
L 361.543209 190.616888 
L 361.789946 245.154009 
L 361.95065 282.150679 
L 362.005841 274.383369 
L 362.543145 174.233092 
L 362.707095 168.706786 
L 362.734691 168.882152 
L 362.812608 171.312689 
L 362.958703 184.276497 
L 363.177844 227.227589 
L 363.398609 279.006055 
L 363.457047 271.083901 
L 363.997597 173.031057 
L 364.138822 169.047355 
L 364.174534 169.335944 
L 364.263814 172.625485 
L 364.422895 188.424687 
L 364.659892 238.427168 
L 364.846569 282.149813 
L 364.90176 274.059188 
L 365.43257 174.572275 
L 365.601391 168.706779 
L 365.627363 168.859304 
L 365.703657 171.141055 
L 365.846505 183.414486 
L 366.0624 224.685777 
L 366.292905 279.005871 
L 366.352966 270.768649 
L 366.887023 173.320674 
L 367.033117 169.04731 
L 367.067206 169.306821 
L 367.153239 172.334859 
L 367.309073 187.247843 
L 367.541201 234.889092 
L 367.740864 282.150878 
L 367.797679 273.731924 
L 368.321996 174.921574 
L 368.495686 168.706798 
L 368.520035 168.838064 
L 368.593082 170.900362 
L 368.732684 182.382208 
L 368.943709 221.389893 
L 369.1872 279.005357 
L 369.250508 270.072907 
L 369.769955 174.017133 
L 369.927412 169.047289 
L 369.956631 169.234998 
L 370.036172 171.721896 
L 370.185513 184.83797 
L 370.407901 227.668177 
L 370.635159 282.151559 
L 370.69522 273.010757 
L 371.206551 175.633252 
L 371.389981 168.706843 
L 371.411084 168.802628 
L 371.479261 170.534404 
L 371.613993 180.832531 
L 371.818525 216.640398 
L 372.081495 279.00451 
L 372.149673 268.975754 
L 372.649641 174.988602 
L 372.821708 169.047293 
L 372.844433 169.158265 
L 372.915857 171.031826 
L 373.055459 181.862392 
L 373.264861 218.4863 
L 373.529455 282.151857 
L 373.597632 271.066036 
L 374.079744 177.288934 
L 374.284276 168.706913 
L 374.295639 168.732071 
L 374.345961 169.560105 
L 374.45959 175.969839 
L 374.641396 201.212885 
L 374.977414 279.004832 
L 375.068317 262.900705 
L 375.503354 178.144408 
L 375.716003 169.047322 
L 375.719249 169.049034 
L 375.750092 169.295996 
L 375.836125 172.29496 
L 375.991959 187.148426 
L 376.222464 234.269133 
L 376.42375 282.151771 
L 376.480564 273.902475 
L 377.008128 174.747547 
L 377.180195 168.706861 
L 377.204544 168.848168 
L 377.279215 171.017795 
L 377.420439 182.889748 
L 377.634711 223.222694 
L 377.871709 279.005567 
L 377.933393 270.240642 
L 378.456087 173.860811 
L 378.610298 169.047376 
L 378.64114 169.246847 
L 378.722304 171.849868 
L 378.873268 185.37404 
L 379.09728 229.138727 
L 379.318045 282.151302 
L 379.378106 273.184485 
L 379.892684 175.449318 
L 380.07449 168.706809 
L 380.095593 168.811276 
L 380.165393 170.641471 
L 380.301748 181.307795 
L 380.507904 218.009941 
L 380.766004 279.00597 
L 380.832559 269.14813 
L 381.335773 174.81682 
L 381.506217 169.047407 
L 381.530566 169.184688 
L 381.605236 171.287608 
L 381.748084 182.914444 
L 381.962356 221.798889 
L 382.21234 282.150448 
L 382.278895 271.651981 
L 382.769123 176.822765 
L 382.968785 168.706782 
L 382.981772 168.745629 
L 383.036963 169.782572 
L 383.157085 177.213644 
L 383.345385 205.294393 
L 383.6603 279.006042 
L 383.743087 265.182708 
L 384.197603 177.250844 
L 384.400512 169.047342 
L 384.408628 169.063364 
L 384.45408 169.693982 
L 384.561216 175.011168 
L 384.738153 196.936921 
L 385.020602 265.918493 
L 385.108259 282.150093 
L 385.161827 274.45211 
L 385.700753 174.146575 
L 385.863081 168.706781 
L 385.8923 168.899424 
L 385.97184 171.462703 
L 386.119558 184.877702 
L 386.341946 229.250879 
L 386.554595 279.005782 
L 386.613033 271.150733 
L 387.155206 172.95747 
L 387.294807 169.047303 
L 387.330519 169.331226 
L 387.418176 172.514881 
L 387.575633 187.920923 
L 387.809385 236.603405 
L 388.002554 282.151069 
L 388.057745 274.128606 
L 388.590179 174.483141 
L 388.757376 168.706806 
L 388.784972 168.875427 
L 388.862889 171.285963 
L 389.008983 184.207019 
L 389.228125 227.09019 
L 389.44889 279.005191 
L 389.508951 270.836166 
L 390.044631 173.244395 
L 390.189103 169.047288 
L 390.223191 169.302352 
L 390.309225 172.318461 
L 390.465059 187.207022 
L 390.697187 234.810875 
L 390.896849 282.151662 
L 390.953664 273.801987 
L 391.479604 174.829803 
L 391.651671 168.706857 
L 391.677644 168.853041 
L 391.752314 171.03782 
L 391.895162 183.1439 
L 392.109434 223.73477 
L 392.343185 279.004268 
L 392.40487 270.518444 
L 392.932433 173.638351 
L 393.083398 169.047298 
L 393.115863 169.275048 
L 393.200273 172.127939 
L 393.354484 186.508287 
L 393.583366 232.610329 
L 393.791145 282.151871 
L 393.849583 273.472404 
L 394.36903 175.186637 
L 394.54759 168.706919 
L 394.568692 168.815466 
L 394.638493 170.659752 
L 394.774848 181.356945 
L 394.981004 218.111281 
L 395.239104 279.005031 
L 395.304035 269.433912 
L 395.812119 174.572037 
L 395.977693 169.047333 
L 396.003665 169.189404 
L 396.078336 171.307032 
L 396.221184 182.965049 
L 396.435456 221.901621 
L 396.68544 282.151697 
L 396.750371 271.949536 
L 397.245469 176.533479 
L 397.441885 168.706847 
L 397.456495 168.758753 
L 397.514932 169.957925 
L 397.638301 178.03141 
L 397.829847 207.768013 
L 398.133399 279.005689 
L 398.211316 266.309721 
L 398.487273 200.520086 
L 398.487273 200.520086 
" style="fill:none;stroke:#1f77b4;stroke-linecap:square;stroke-width:1.5;"/>
   </g>
   <g id="patch_3">
    <path d="M 57.6 307.584 
L 57.6 41.472 
" style="fill:none;stroke:#000000;stroke-linecap:square;stroke-linejoin:miter;stroke-width:0.8;"/>
   </g>
   <g id="patch_4">
    <path d="M 414.72 307.584 
L 414.72 41.472 
" style="fill:none;stroke:#000000;stroke-linecap:square;stroke-linejoin:miter;stroke-width:0.8;"/>
   </g>
   <g id="patch_5">
    <path d="M 57.6 307.584 
L 414.72 307.584 
" style="fill:none;stroke:#000000;stroke-linecap:square;stroke-linejoin:miter;stroke-width:0.8;"/>
   </g>
   <g id="patch_6">
    <path d="M 57.6 41.472 
L 414.72 41.472 
" style="fill:none;stroke:#000000;stroke-linecap:square;stroke-linejoin:miter;stroke-width:0.8;"/>
   </g>
  </g>
 </g>
 <defs>
  <clipPath id="pb95b1ac108">
   <rect height="266.112" width="357.12" x="57.6" y="41.472"/>
  </clipPath>
 </defs>
</svg>
