<?xml version="1.0" encoding="utf-8" standalone="no"?>
<!DOCTYPE svg PUBLIC "-//W3C//DTD SVG 1.1//EN"
  "http://www.w3.org/Graphics/SVG/1.1/DTD/svg11.dtd">
<!-- Created with matplotlib (https://matplotlib.org/) -->
<svg height="345.6pt" version="1.1" viewBox="0 0 460.8 345.6" width="460.8pt" xmlns="http://www.w3.org/2000/svg" xmlns:xlink="http://www.w3.org/1999/xlink">
 <metadata>
  <rdf:RDF xmlns:cc="http://creativecommons.org/ns#" xmlns:dc="http://purl.org/dc/elements/1.1/" xmlns:rdf="http://www.w3.org/1999/02/22-rdf-syntax-ns#">
   <cc:Work>
    <dc:type rdf:resource="http://purl.org/dc/dcmitype/StillImage"/>
    <dc:date>2020-07-27T12:06:05.381694</dc:date>
    <dc:format>image/svg+xml</dc:format>
    <dc:creator>
     <cc:Agent>
      <dc:title>Matplotlib v3.3.0, https://matplotlib.org/</dc:title>
     </cc:Agent>
    </dc:creator>
   </cc:Work>
  </rdf:RDF>
 </metadata>
 <defs>
  <style type="text/css">*{stroke-linecap:butt;stroke-linejoin:round;}</style>
 </defs>
 <g id="figure_1">
  <g id="patch_1">
   <path d="M 0 345.6 
L 460.8 345.6 
L 460.8 0 
L 0 0 
z
" style="fill:#ffffff;"/>
  </g>
  <g id="axes_1">
   <g id="patch_2">
    <path d="M 57.6 307.584 
L 414.72 307.584 
L 414.72 41.472 
L 57.6 41.472 
z
" style="fill:#ffffff;"/>
   </g>
   <g id="matplotlib.axis_1">
    <g id="xtick_1">
     <g id="line2d_1">
      <defs>
       <path d="M 0 0 
L 0 3.5 
" id="m9bdee3aadf" style="stroke:#000000;stroke-width:0.8;"/>
      </defs>
      <g>
       <use style="stroke:#000000;stroke-width:0.8;" x="73.832727" xlink:href="#m9bdee3aadf" y="307.584"/>
      </g>
     </g>
     <g id="text_1">
      <!-- $\mathdefault{0}$ -->
      <g transform="translate(71.34206 321.502498)scale(0.1 -0.1)">
       <defs>
        <path d="M 42 31.640625 
C 42 37.75 41.90625 48.125 37.703125 56.109375 
C 34 63.109375 28.09375 65.59375 22.90625 65.59375 
C 18.09375 65.59375 12 63.40625 8.203125 56.203125 
C 4.203125 48.71875 3.796875 39.4375 3.796875 31.640625 
C 3.796875 25.953125 3.90625 17.28125 7 9.671875 
C 11.296875 -0.609375 19 -2 22.90625 -2 
C 27.5 -2 34.5 -0.109375 38.59375 9.375 
C 41.59375 16.28125 42 24.359375 42 31.640625 
z
M 22.90625 -0.40625 
C 16.5 -0.40625 12.703125 5.078125 11.296875 12.6875 
C 10.203125 18.5625 10.203125 27.15625 10.203125 32.75 
C 10.203125 40.4375 10.203125 46.828125 11.5 52.921875 
C 13.40625 61.390625 19 64 22.90625 64 
C 27 64 32.296875 61.296875 34.203125 53.125 
C 35.5 47.4375 35.59375 40.734375 35.59375 32.75 
C 35.59375 26.25 35.59375 18.265625 34.40625 12.375 
C 32.296875 1.484375 26.40625 -0.40625 22.90625 -0.40625 
z
" id="CMR17-48"/>
       </defs>
       <use transform="scale(0.996264)" xlink:href="#CMR17-48"/>
      </g>
     </g>
    </g>
    <g id="xtick_2">
     <g id="line2d_2">
      <g>
       <use style="stroke:#000000;stroke-width:0.8;" x="114.414545" xlink:href="#m9bdee3aadf" y="307.584"/>
      </g>
     </g>
     <g id="text_2">
      <!-- $\mathdefault{25000}$ -->
      <g transform="translate(101.961207 321.502498)scale(0.1 -0.1)">
       <defs>
        <path d="M 41.703125 15.453125 
L 39.90625 15.453125 
C 38.90625 8.375 38.09375 7.171875 37.703125 6.5625 
C 37.203125 5.765625 30 5.765625 28.59375 5.765625 
L 9.40625 5.765625 
C 13 9.671875 20 16.75 28.5 24.953125 
C 34.59375 30.734375 41.703125 37.53125 41.703125 47.421875 
C 41.703125 59.21875 32.296875 66 21.796875 66 
C 10.796875 66 4.09375 56.3125 4.09375 47.34375 
C 4.09375 43.4375 7 42.9375 8.203125 42.9375 
C 9.203125 42.9375 12.203125 43.546875 12.203125 47.03125 
C 12.203125 50.109375 9.59375 51 8.203125 51 
C 7.59375 51 7 50.90625 6.59375 50.703125 
C 8.5 59.21875 14.296875 63.40625 20.40625 63.40625 
C 29.09375 63.40625 34.796875 56.515625 34.796875 47.421875 
C 34.796875 38.734375 29.703125 31.25 24 24.75 
L 4.09375 2.28125 
L 4.09375 0 
L 39.296875 0 
z
" id="CMR17-50"/>
        <path d="M 11.40625 57.6875 
C 12.40625 57.28125 16.5 56 20.703125 56 
C 30 56 35.09375 61.109375 38 64.0625 
C 38 64.953125 38 65.5 37.40625 65.5 
C 37.296875 65.5 37.09375 65.5 36.296875 65.046875 
C 32.796875 63.40625 28.703125 62.078125 23.703125 62.078125 
C 20.703125 62.078125 16.203125 62.484375 11.296875 64.671875 
C 10.203125 65.171875 10 65.171875 9.90625 65.171875 
C 9.40625 65.171875 9.296875 65.0625 9.296875 63.078125 
L 9.296875 34.421875 
C 9.296875 32.640625 9.296875 32.140625 10.296875 32.140625 
C 10.796875 32.140625 11 32.34375 11.5 33.03125 
C 14.703125 37.515625 19.09375 39.40625 24.09375 39.40625 
C 27.59375 39.40625 35.09375 37.21875 35.09375 20.140625 
C 35.09375 16.953125 35.09375 11.171875 32.09375 6.578125 
C 29.59375 2.484375 25.703125 0.390625 21.40625 0.390625 
C 14.796875 0.390625 8.09375 5 6.296875 12.71875 
C 6.703125 12.609375 7.5 12.421875 7.90625 12.421875 
C 9.203125 12.421875 11.703125 13.125 11.703125 16.21875 
C 11.703125 18.90625 9.796875 20 7.90625 20 
C 5.59375 20 4.09375 18.59375 4.09375 15.796875 
C 4.09375 7.09375 11 -2 21.59375 -2 
C 31.90625 -2 41.703125 6.875 41.703125 19.75 
C 41.703125 31.71875 33.90625 41 24.203125 41 
C 19.09375 41 14.796875 39.109375 11.40625 35.53125 
z
" id="CMR17-53"/>
       </defs>
       <use transform="scale(0.996264)" xlink:href="#CMR17-50"/>
       <use transform="translate(45.690477 0)scale(0.996264)" xlink:href="#CMR17-53"/>
       <use transform="translate(91.380954 0)scale(0.996264)" xlink:href="#CMR17-48"/>
       <use transform="translate(137.071431 0)scale(0.996264)" xlink:href="#CMR17-48"/>
       <use transform="translate(182.761908 0)scale(0.996264)" xlink:href="#CMR17-48"/>
      </g>
     </g>
    </g>
    <g id="xtick_3">
     <g id="line2d_3">
      <g>
       <use style="stroke:#000000;stroke-width:0.8;" x="154.996364" xlink:href="#m9bdee3aadf" y="307.584"/>
      </g>
     </g>
     <g id="text_3">
      <!-- $\mathdefault{50000}$ -->
      <g transform="translate(142.543026 321.502498)scale(0.1 -0.1)">
       <use transform="scale(0.996264)" xlink:href="#CMR17-53"/>
       <use transform="translate(45.690477 0)scale(0.996264)" xlink:href="#CMR17-48"/>
       <use transform="translate(91.380954 0)scale(0.996264)" xlink:href="#CMR17-48"/>
       <use transform="translate(137.071431 0)scale(0.996264)" xlink:href="#CMR17-48"/>
       <use transform="translate(182.761908 0)scale(0.996264)" xlink:href="#CMR17-48"/>
      </g>
     </g>
    </g>
    <g id="xtick_4">
     <g id="line2d_4">
      <g>
       <use style="stroke:#000000;stroke-width:0.8;" x="195.578182" xlink:href="#m9bdee3aadf" y="307.584"/>
      </g>
     </g>
     <g id="text_4">
      <!-- $\mathdefault{75000}$ -->
      <g transform="translate(183.124844 321.502498)scale(0.1 -0.1)">
       <defs>
        <path d="M 45.09375 61.578125 
L 45.09375 63.765625 
L 21.59375 63.765625 
C 9.90625 63.765625 9.703125 65.078125 9.296875 67 
L 7.5 67 
L 4.59375 48.34375 
L 6.40625 48.34375 
C 6.703125 50.234375 7.40625 55.3125 8.59375 57.203125 
C 9.203125 58 16.59375 58 18.296875 58 
L 40.296875 58 
L 29.203125 41.578125 
C 21.796875 30.53125 16.703125 15.609375 16.703125 2.578125 
C 16.703125 1.390625 16.703125 -2 20.296875 -2 
C 23.90625 -2 23.90625 1.390625 23.90625 2.671875 
L 23.90625 7.265625 
C 23.90625 23.5625 26.703125 34.3125 31.296875 41.1875 
z
" id="CMR17-55"/>
       </defs>
       <use transform="scale(0.996264)" xlink:href="#CMR17-55"/>
       <use transform="translate(45.690477 0)scale(0.996264)" xlink:href="#CMR17-53"/>
       <use transform="translate(91.380954 0)scale(0.996264)" xlink:href="#CMR17-48"/>
       <use transform="translate(137.071431 0)scale(0.996264)" xlink:href="#CMR17-48"/>
       <use transform="translate(182.761908 0)scale(0.996264)" xlink:href="#CMR17-48"/>
      </g>
     </g>
    </g>
    <g id="xtick_5">
     <g id="line2d_5">
      <g>
       <use style="stroke:#000000;stroke-width:0.8;" x="236.16" xlink:href="#m9bdee3aadf" y="307.584"/>
      </g>
     </g>
     <g id="text_5">
      <!-- $\mathdefault{100000}$ -->
      <g transform="translate(221.215994 321.502498)scale(0.1 -0.1)">
       <defs>
        <path d="M 26.59375 63.40625 
C 26.59375 65.5 26.5 65.5 25.09375 65.5 
C 21.203125 61.1875 15.296875 59.796875 9.703125 59.796875 
C 9.40625 59.796875 8.90625 59.796875 8.796875 59.5 
C 8.703125 59.296875 8.703125 59.09375 8.703125 57 
C 11.796875 57 17 57.59375 21 59.984375 
L 21 7.203125 
C 21 3.6875 20.796875 2.5 12.203125 2.5 
L 9.203125 2.5 
L 9.203125 0 
C 14 0 19 0 23.796875 0 
C 28.59375 0 33.59375 0 38.40625 0 
L 38.40625 2.5 
L 35.40625 2.5 
C 26.796875 2.5 26.59375 3.59375 26.59375 7.15625 
z
" id="CMR17-49"/>
       </defs>
       <use transform="scale(0.996264)" xlink:href="#CMR17-49"/>
       <use transform="translate(45.690477 0)scale(0.996264)" xlink:href="#CMR17-48"/>
       <use transform="translate(91.380954 0)scale(0.996264)" xlink:href="#CMR17-48"/>
       <use transform="translate(137.071431 0)scale(0.996264)" xlink:href="#CMR17-48"/>
       <use transform="translate(182.761908 0)scale(0.996264)" xlink:href="#CMR17-48"/>
       <use transform="translate(228.452386 0)scale(0.996264)" xlink:href="#CMR17-48"/>
      </g>
     </g>
    </g>
    <g id="xtick_6">
     <g id="line2d_6">
      <g>
       <use style="stroke:#000000;stroke-width:0.8;" x="276.741818" xlink:href="#m9bdee3aadf" y="307.584"/>
      </g>
     </g>
     <g id="text_6">
      <!-- $\mathdefault{125000}$ -->
      <g transform="translate(261.797812 321.502498)scale(0.1 -0.1)">
       <use transform="scale(0.996264)" xlink:href="#CMR17-49"/>
       <use transform="translate(45.690477 0)scale(0.996264)" xlink:href="#CMR17-50"/>
       <use transform="translate(91.380954 0)scale(0.996264)" xlink:href="#CMR17-53"/>
       <use transform="translate(137.071431 0)scale(0.996264)" xlink:href="#CMR17-48"/>
       <use transform="translate(182.761908 0)scale(0.996264)" xlink:href="#CMR17-48"/>
       <use transform="translate(228.452386 0)scale(0.996264)" xlink:href="#CMR17-48"/>
      </g>
     </g>
    </g>
    <g id="xtick_7">
     <g id="line2d_7">
      <g>
       <use style="stroke:#000000;stroke-width:0.8;" x="317.323636" xlink:href="#m9bdee3aadf" y="307.584"/>
      </g>
     </g>
     <g id="text_7">
      <!-- $\mathdefault{150000}$ -->
      <g transform="translate(302.379631 321.502498)scale(0.1 -0.1)">
       <use transform="scale(0.996264)" xlink:href="#CMR17-49"/>
       <use transform="translate(45.690477 0)scale(0.996264)" xlink:href="#CMR17-53"/>
       <use transform="translate(91.380954 0)scale(0.996264)" xlink:href="#CMR17-48"/>
       <use transform="translate(137.071431 0)scale(0.996264)" xlink:href="#CMR17-48"/>
       <use transform="translate(182.761908 0)scale(0.996264)" xlink:href="#CMR17-48"/>
       <use transform="translate(228.452386 0)scale(0.996264)" xlink:href="#CMR17-48"/>
      </g>
     </g>
    </g>
    <g id="xtick_8">
     <g id="line2d_8">
      <g>
       <use style="stroke:#000000;stroke-width:0.8;" x="357.905455" xlink:href="#m9bdee3aadf" y="307.584"/>
      </g>
     </g>
     <g id="text_8">
      <!-- $\mathdefault{175000}$ -->
      <g transform="translate(342.961449 321.502498)scale(0.1 -0.1)">
       <use transform="scale(0.996264)" xlink:href="#CMR17-49"/>
       <use transform="translate(45.690477 0)scale(0.996264)" xlink:href="#CMR17-55"/>
       <use transform="translate(91.380954 0)scale(0.996264)" xlink:href="#CMR17-53"/>
       <use transform="translate(137.071431 0)scale(0.996264)" xlink:href="#CMR17-48"/>
       <use transform="translate(182.761908 0)scale(0.996264)" xlink:href="#CMR17-48"/>
       <use transform="translate(228.452386 0)scale(0.996264)" xlink:href="#CMR17-48"/>
      </g>
     </g>
    </g>
    <g id="xtick_9">
     <g id="line2d_9">
      <g>
       <use style="stroke:#000000;stroke-width:0.8;" x="398.487273" xlink:href="#m9bdee3aadf" y="307.584"/>
      </g>
     </g>
     <g id="text_9">
      <!-- $\mathdefault{200000}$ -->
      <g transform="translate(383.543267 321.502498)scale(0.1 -0.1)">
       <use transform="scale(0.996264)" xlink:href="#CMR17-50"/>
       <use transform="translate(45.690477 0)scale(0.996264)" xlink:href="#CMR17-48"/>
       <use transform="translate(91.380954 0)scale(0.996264)" xlink:href="#CMR17-48"/>
       <use transform="translate(137.071431 0)scale(0.996264)" xlink:href="#CMR17-48"/>
       <use transform="translate(182.761908 0)scale(0.996264)" xlink:href="#CMR17-48"/>
       <use transform="translate(228.452386 0)scale(0.996264)" xlink:href="#CMR17-48"/>
      </g>
     </g>
    </g>
   </g>
   <g id="matplotlib.axis_2">
    <g id="ytick_1">
     <g id="line2d_10">
      <defs>
       <path d="M 0 0 
L -3.5 0 
" id="m686d35799a" style="stroke:#000000;stroke-width:0.8;"/>
      </defs>
      <g>
       <use style="stroke:#000000;stroke-width:0.8;" x="57.6" xlink:href="#m686d35799a" y="297.372088"/>
      </g>
     </g>
     <g id="text_10">
      <!-- $\mathdefault{0.00}$ -->
      <g transform="translate(32.888586 300.831337)scale(0.1 -0.1)">
       <defs>
        <path d="M 18.40625 4.796875 
C 18.40625 7.6875 16 9.671875 13.59375 9.671875 
C 10.703125 9.671875 8.703125 7.28125 8.703125 4.890625 
C 8.703125 2 11.09375 0 13.5 0 
C 16.40625 0 18.40625 2.390625 18.40625 4.796875 
z
" id="CMMI12-58"/>
       </defs>
       <use transform="scale(0.996264)" xlink:href="#CMR17-48"/>
       <use transform="translate(45.690477 0)scale(0.996264)" xlink:href="#CMMI12-58"/>
       <use transform="translate(72.787654 0)scale(0.996264)" xlink:href="#CMR17-48"/>
       <use transform="translate(118.478131 0)scale(0.996264)" xlink:href="#CMR17-48"/>
      </g>
     </g>
    </g>
    <g id="ytick_2">
     <g id="line2d_11">
      <g>
       <use style="stroke:#000000;stroke-width:0.8;" x="57.6" xlink:href="#m686d35799a" y="240.153886"/>
      </g>
     </g>
     <g id="text_11">
      <!-- $\mathdefault{0.05}$ -->
      <g transform="translate(32.888586 243.613135)scale(0.1 -0.1)">
       <use transform="scale(0.996264)" xlink:href="#CMR17-48"/>
       <use transform="translate(45.690477 0)scale(0.996264)" xlink:href="#CMMI12-58"/>
       <use transform="translate(72.787654 0)scale(0.996264)" xlink:href="#CMR17-48"/>
       <use transform="translate(118.478131 0)scale(0.996264)" xlink:href="#CMR17-53"/>
      </g>
     </g>
    </g>
    <g id="ytick_3">
     <g id="line2d_12">
      <g>
       <use style="stroke:#000000;stroke-width:0.8;" x="57.6" xlink:href="#m686d35799a" y="182.935684"/>
      </g>
     </g>
     <g id="text_12">
      <!-- $\mathdefault{0.10}$ -->
      <g transform="translate(32.888586 186.394933)scale(0.1 -0.1)">
       <use transform="scale(0.996264)" xlink:href="#CMR17-48"/>
       <use transform="translate(45.690477 0)scale(0.996264)" xlink:href="#CMMI12-58"/>
       <use transform="translate(72.787654 0)scale(0.996264)" xlink:href="#CMR17-49"/>
       <use transform="translate(118.478131 0)scale(0.996264)" xlink:href="#CMR17-48"/>
      </g>
     </g>
    </g>
    <g id="ytick_4">
     <g id="line2d_13">
      <g>
       <use style="stroke:#000000;stroke-width:0.8;" x="57.6" xlink:href="#m686d35799a" y="125.717482"/>
      </g>
     </g>
     <g id="text_13">
      <!-- $\mathdefault{0.15}$ -->
      <g transform="translate(32.888586 129.176732)scale(0.1 -0.1)">
       <use transform="scale(0.996264)" xlink:href="#CMR17-48"/>
       <use transform="translate(45.690477 0)scale(0.996264)" xlink:href="#CMMI12-58"/>
       <use transform="translate(72.787654 0)scale(0.996264)" xlink:href="#CMR17-49"/>
       <use transform="translate(118.478131 0)scale(0.996264)" xlink:href="#CMR17-53"/>
      </g>
     </g>
    </g>
    <g id="ytick_5">
     <g id="line2d_14">
      <g>
       <use style="stroke:#000000;stroke-width:0.8;" x="57.6" xlink:href="#m686d35799a" y="68.49928"/>
      </g>
     </g>
     <g id="text_14">
      <!-- $\mathdefault{0.20}$ -->
      <g transform="translate(32.888586 71.95853)scale(0.1 -0.1)">
       <use transform="scale(0.996264)" xlink:href="#CMR17-48"/>
       <use transform="translate(45.690477 0)scale(0.996264)" xlink:href="#CMMI12-58"/>
       <use transform="translate(72.787654 0)scale(0.996264)" xlink:href="#CMR17-50"/>
       <use transform="translate(118.478131 0)scale(0.996264)" xlink:href="#CMR17-48"/>
      </g>
     </g>
    </g>
   </g>
   <g id="line2d_15">
    <path clip-path="url(#p9c60538f69)" d="M 73.832727 125.717482 
L 74.271011 125.802114 
L 74.29049 129.214434 
L 74.342435 166.699629 
L 74.396003 126.701545 
L 74.418729 124.289596 
L 74.46418 132.814923 
L 74.537228 144.868033 
L 74.56807 131.444827 
L 74.585926 125.511842 
L 74.681699 129.29093 
L 74.813184 130.976726 
L 74.845649 131.836899 
L 74.866752 132.57506 
L 74.907334 128.116798 
L 74.908957 128.123258 
L 74.991744 118.461677 
L 74.944669 128.816847 
L 75.040442 126.009355 
L 75.097257 129.228875 
L 75.157318 127.054112 
L 75.17842 126.561819 
L 75.244975 128.178554 
L 75.311529 127.45379 
L 75.2677 128.498206 
L 75.35698 128.138596 
L 75.433274 128.524451 
L 75.37646 128.124311 
L 75.467363 128.130959 
L 75.468986 128.138801 
L 75.485219 127.756216 
L 75.568006 126.495273 
L 75.606964 127.179288 
L 75.676765 129.380057 
L 75.736826 128.321357 
L 75.842339 128.838128 
L 75.762799 128.103114 
L 75.878051 128.548882 
L 75.928372 128.104358 
L 75.988433 128.562571 
L 75.990057 128.5519 
L 76.069597 128.762609 
L 76.07122 128.752578 
L 76.166993 130.461183 
L 76.248157 130.299734 
L 76.24978 130.28537 
L 76.326074 130.561654 
L 76.327697 130.553123 
L 76.459183 130.84603 
L 76.490025 131.32016 
L 76.688064 133.728321 
L 76.920192 135.808417 
L 76.921815 135.802223 
L 76.96402 136.075786 
L 78.57593 172.164913 
L 79.29504 202.503098 
L 79.92 241.606691 
L 80.595281 295.488 
L 80.671575 289.693395 
L 82.051357 163.478126 
L 82.804556 119.628201 
L 83.387311 98.456594 
L 84.002531 84.150451 
L 84.598272 74.859247 
L 85.10798 69.256895 
L 85.491072 66.632906 
L 85.669632 66.258092 
L 85.706967 66.317731 
L 86.031622 67.436413 
L 86.62574 72.321437 
L 87.296151 79.778392 
L 88.120774 92.961959 
L 88.873972 110.998264 
L 89.734307 140.242754 
L 92.152983 229.772185 
L 92.586397 237.334908 
L 92.95488 240.07366 
L 93.144803 240.440423 
L 93.39154 240.113492 
L 93.872029 237.872004 
L 94.397969 232.982074 
L 94.945012 224.156602 
L 95.654383 208.235263 
L 97.040657 176.922435 
L 97.454592 171.501902 
L 97.798726 169.558139 
L 98.086045 169.107948 
L 98.259735 169.073509 
L 98.566534 169.037503 
L 98.706135 169.08085 
L 98.879825 169.242865 
L 99.189871 170.088439 
L 99.483683 171.600183 
L 100.201169 177.197186 
L 101.098839 186.69613 
L 101.417001 193.457252 
L 101.861777 207.975228 
L 102.600367 230.433546 
L 102.892556 234.010202 
L 102.978589 234.202279 
L 103.027287 234.124987 
L 103.157149 233.283251 
L 103.389277 229.646131 
L 103.903855 217.086319 
L 104.332399 209.634811 
L 104.648937 207.260239 
L 104.827497 206.90168 
L 104.855092 206.920863 
L 104.942749 207.141536 
L 105.090467 208.107136 
L 105.332335 211.522918 
L 106.202409 225.979946 
L 106.234874 225.948793 
L 106.340387 225.409905 
L 106.507584 223.210999 
L 106.772177 216.232795 
L 107.116311 200.566315 
L 108.260719 143.426519 
L 108.491223 141.479766 
L 108.525312 141.470863 
L 108.570764 141.558467 
L 108.699002 142.358604 
L 108.919767 145.405365 
L 109.317469 154.427921 
L 109.994374 175.092414 
L 110.461876 187.068941 
L 110.578752 187.703162 
L 110.62258 187.598413 
L 110.7216 186.637889 
L 110.90503 182.212388 
L 111.205335 168.638529 
L 112.034828 129.065655 
L 112.125731 128.500131 
L 112.177676 128.674996 
L 112.292928 130.228659 
L 112.518563 136.890637 
L 113.30098 170.433385 
L 113.76686 186.028768 
L 113.870749 186.744075 
L 113.919447 186.596245 
L 114.036323 185.16186 
L 114.326889 181.016466 
L 114.373964 181.208178 
L 114.468113 182.959421 
L 114.627194 190.949988 
L 115.029766 223.526203 
L 115.123916 218.599915 
L 115.27975 189.570765 
L 115.638493 116.129731 
L 115.680698 117.302651 
L 115.924189 134.781567 
L 116.474479 225.07344 
L 116.51506 222.262633 
L 116.61408 191.747704 
L 116.885167 73.701331 
L 116.964707 84.005043 
L 117.000419 85.868324 
L 117.062103 82.751216 
L 117.290985 68.21541 
L 117.33806 70.06967 
L 117.424093 87.129532 
L 117.693556 179.346038 
L 117.771473 163.359535 
L 118.005225 119.104303 
L 118.514932 88.634501 
L 118.592849 94.305467 
L 118.706479 131.592077 
L 118.899648 205.661372 
L 118.953216 195.031639 
L 119.375267 75.310131 
L 119.633367 55.790625 
L 119.652847 56.136516 
L 119.711284 62.375809 
L 119.8379 106.548228 
L 120.021329 182.659358 
L 120.079767 169.885415 
L 120.427148 74.254044 
L 120.776151 53.568 
L 120.779398 53.575863 
L 120.806993 54.323068 
L 120.870301 63.808604 
L 120.985553 125.931945 
L 121.08295 168.89126 
L 121.136518 155.684358 
L 121.383255 65.302715 
L 121.451433 65.785563 
L 121.469289 65.816307 
L 121.516364 65.62045 
L 121.545583 65.513701 
L 121.584541 65.886657 
L 121.720896 70.691807 
L 121.889716 82.484969 
L 121.982243 111.662563 
L 122.146193 208.270457 
L 122.217617 180.188716 
L 122.49682 62.275882 
L 122.519546 62.589611 
L 122.649408 68.733527 
L 122.949713 97.880406 
L 123.071459 171.64156 
L 123.181841 238.316501 
L 123.237033 216.36282 
L 123.569804 71.273847 
L 123.607139 69.838674 
L 123.673693 71.760816 
L 123.878225 84.434798 
L 123.991855 129.143897 
L 124.189894 274.841809 
L 124.262941 224.501107 
L 124.534028 86.386016 
L 124.735313 72.684064 
L 124.777519 71.974067 
L 124.821347 73.222331 
L 124.910627 85.714183 
L 125.033996 140.976584 
L 125.204439 295.10731 
L 125.272617 228.480815 
L 125.53234 87.561255 
L 125.628113 81.832422 
L 125.676812 82.646474 
L 125.801804 89.972616 
L 125.933289 114.189687 
L 126.089123 193.76833 
L 126.207622 270.637019 
L 126.264436 242.051124 
L 126.556625 109.901316 
L 126.679994 102.993835 
L 126.717329 103.500963 
L 126.804986 108.849354 
L 126.936471 133.565083 
L 127.110161 219.571183 
L 127.201065 261.56022 
L 127.256256 242.329886 
L 127.576041 125.673389 
L 127.642595 123.109168 
L 127.699409 124.673793 
L 127.817908 137.304068 
L 127.989975 183.410087 
L 128.188015 263.466874 
L 128.256192 244.301088 
L 128.585716 146.874712 
L 128.67175 143.415318 
L 128.722071 144.639253 
L 128.822714 154.905408 
L 128.986665 198.899406 
L 129.165225 261.238185 
L 129.225286 248.673221 
L 129.593769 156.684276 
L 129.637597 155.781303 
L 129.691165 157.109532 
L 129.796678 168.167828 
L 129.971991 214.771338 
L 130.139188 269.742178 
L 130.197626 257.832138 
L 130.579095 165.205751 
L 130.634287 163.833795 
L 130.687855 165.168644 
L 130.791744 176.242013 
L 130.963811 223.383257 
L 131.111529 270.269867 
L 131.16672 259.007134 
L 131.553059 166.202418 
L 131.606627 164.897747 
L 131.660195 166.242196 
L 131.764084 177.232012 
L 131.934528 223.161569 
L 132.088739 275.668905 
L 132.147177 261.995492 
L 132.520529 165.04827 
L 132.603316 161.976098 
L 132.655261 163.296197 
L 132.759151 174.361295 
L 132.924724 220.304999 
L 133.075689 272.933861 
L 133.134127 259.083357 
L 133.499363 162.092382 
L 133.578903 159.266304 
L 133.630848 160.498034 
L 133.734737 170.992549 
L 133.898688 214.776632 
L 134.065885 276.009951 
L 134.127569 259.747342 
L 134.481443 161.285631 
L 134.580463 156.981031 
L 134.629161 158.089452 
L 134.72818 167.763541 
L 134.885638 209.437697 
L 135.057705 272.286974 
L 135.119389 256.507608 
L 135.470016 159.528694 
L 135.557673 156.192963 
L 135.609617 157.372355 
L 135.711884 167.400908 
L 135.872588 209.828111 
L 136.049524 274.799747 
L 136.111209 258.015525 
L 136.461836 159.629175 
L 136.562479 155.275417 
L 136.611177 156.36017 
L 136.708573 165.839819 
L 136.866031 207.716638 
L 137.039721 271.092624 
L 137.101405 255.616983 
L 137.453655 158.476557 
L 137.539689 155.393075 
L 137.59001 156.527365 
L 137.690653 166.214556 
L 137.849734 207.604715 
L 138.03154 274.119356 
L 138.093225 257.660561 
L 138.445475 159.205874 
L 138.544495 155.018777 
L 138.593193 156.083434 
L 138.688966 165.299668 
L 138.8448 206.339536 
L 139.021737 270.558331 
L 139.083421 255.259891 
L 139.438918 158.124357 
L 139.520081 155.360075 
L 139.572026 156.528939 
L 139.672669 166.249575 
L 139.83175 207.710879 
L 140.011933 273.884441 
L 140.075241 257.416511 
L 140.427491 159.258384 
L 140.524887 155.18002 
L 140.573585 156.213244 
L 140.669359 165.308001 
L 140.825193 206.128221 
L 141.003753 270.454805 
L 141.065437 254.852305 
L 141.419311 158.326938 
L 141.500474 155.569971 
L 141.552419 156.749179 
L 141.653062 166.439531 
L 141.812143 207.756533 
L 141.992326 273.906384 
L 142.055633 257.530971 
L 142.409507 159.32236 
L 142.50528 155.394272 
L 142.553978 156.443275 
L 142.649751 165.531713 
L 142.803962 205.677171 
L 142.982522 270.496882 
L 143.04583 254.820201 
L 143.399703 158.439489 
L 143.480867 155.690367 
L 143.532812 156.892763 
L 143.635078 166.865447 
L 143.794159 208.50432 
L 143.972719 273.964617 
L 144.036026 257.4661 
L 144.388276 159.504957 
L 144.485673 155.459534 
L 144.534371 156.529864 
L 144.631767 165.89812 
L 144.787601 206.994474 
L 144.962915 270.563683 
L 145.024599 255.409677 
L 145.381719 158.342235 
L 145.46126 155.696894 
L 145.513204 156.908703 
L 145.615471 166.91313 
L 145.776175 209.158925 
L 145.953111 274.002966 
L 146.014796 258.083266 
L 146.370292 159.360161 
L 146.466065 155.447946 
L 146.514764 156.526015 
L 146.61216 165.917226 
L 146.767994 207.012458 
L 146.943308 270.606392 
L 147.004992 255.416004 
L 147.360489 158.45073 
L 147.441652 155.68042 
L 147.493597 156.887862 
L 147.595863 166.902628 
L 147.756567 209.158148 
L 147.933504 274.019594 
L 147.996812 257.444366 
L 148.349062 159.489396 
L 148.446458 155.435235 
L 148.495156 156.510561 
L 148.592553 165.906781 
L 148.748387 207.00199 
L 148.9237 270.621647 
L 148.985385 255.449154 
L 149.340881 158.457088 
L 149.422045 155.675199 
L 149.47399 156.873037 
L 149.576256 166.879557 
L 149.73696 209.13904 
L 149.913897 274.017177 
L 149.977204 257.474539 
L 150.329455 159.491491 
L 150.426851 155.430035 
L 150.475549 156.499069 
L 150.572945 165.887016 
L 150.72878 206.976916 
L 150.904093 270.618579 
L 150.965777 255.484935 
L 151.322897 158.352728 
L 151.402438 155.676649 
L 151.454383 156.866819 
L 151.556649 166.858146 
L 151.717353 209.111611 
L 151.894289 274.009044 
L 151.957597 257.505286 
L 152.309847 159.495365 
L 152.407244 155.429428 
L 152.455942 156.493407 
L 152.553338 165.869524 
L 152.709172 206.949085 
L 152.884486 270.610055 
L 152.947793 254.871356 
L 153.300044 158.581619 
L 153.382831 155.679321 
L 153.434775 156.865844 
L 153.537041 166.844646 
L 153.697745 209.085804 
L 153.874682 274.002907 
L 153.93799 257.528172 
L 154.29024 159.498817 
L 154.387636 155.42998 
L 154.436335 156.491327 
L 154.533731 165.858452 
L 154.689565 206.92593 
L 154.864879 270.603898 
L 154.928186 254.889437 
L 155.280436 158.583447 
L 155.363223 155.680557 
L 155.415168 156.866096 
L 155.517434 166.837873 
L 155.678138 209.06518 
L 155.855075 274.000983 
L 155.918383 257.545014 
L 156.270633 159.501844 
L 156.368029 155.429863 
L 156.416727 156.48985 
L 156.514124 165.851481 
L 156.669958 206.907158 
L 156.846895 270.601573 
L 156.908579 254.903818 
L 157.260829 158.584665 
L 157.343616 155.680026 
L 157.395561 156.865076 
L 157.497827 166.83328 
L 157.658531 209.047782 
L 157.835468 274.001924 
L 157.898775 257.561157 
L 158.252649 159.371119 
L 158.348422 155.429327 
L 158.39712 156.48794 
L 158.494516 165.845646 
L 158.650351 206.890415 
L 158.827287 270.602423 
L 158.888972 254.919457 
L 159.242845 158.47306 
L 159.324009 155.679072 
L 159.375953 156.862887 
L 159.47822 166.828095 
L 159.638924 209.03143 
L 159.81586 274.00345 
L 159.879168 257.579176 
L 160.233041 159.375277 
L 160.328815 155.429053 
L 160.377513 156.485758 
L 160.474909 165.839338 
L 160.630743 206.87384 
L 160.80768 270.603932 
L 160.869364 254.93756 
L 161.223238 158.476284 
L 161.304401 155.678551 
L 161.356346 156.860282 
L 161.458612 166.821508 
L 161.619316 209.014722 
L 161.796253 274.004179 
L 161.859561 257.598915 
L 162.213434 159.379798 
L 162.309207 155.429189 
L 162.357905 156.483588 
L 162.455302 165.83222 
L 162.611136 206.856571 
L 162.788073 270.604996 
L 162.849757 254.957168 
L 163.203631 158.48003 
L 163.284794 155.678507 
L 163.336739 156.857735 
L 163.439005 166.813876 
L 163.599709 208.997198 
L 163.776646 274.003878 
L 163.839953 257.619183 
L 164.193827 159.384166 
L 164.2896 155.429485 
L 164.338298 156.481508 
L 164.435695 165.824627 
L 164.591529 206.838609 
L 164.768465 270.60546 
L 164.83015 254.977031 
L 165.184023 158.483748 
L 165.265187 155.67867 
L 165.317132 156.855391 
L 165.419398 166.80593 
L 165.578479 208.376338 
L 165.758662 274.003805 
L 165.820346 257.639105 
L 166.17422 159.388204 
L 166.269993 155.429709 
L 166.318691 156.479483 
L 166.416087 165.817001 
L 166.571921 206.820367 
L 166.748858 270.605615 
L 166.810543 254.996471 
L 167.164416 158.487237 
L 167.24558 155.678813 
L 167.297524 156.853195 
L 167.399791 166.798155 
L 167.558871 208.358262 
L 167.739055 274.003808 
L 167.800739 257.658493 
L 168.154612 159.392018 
L 168.250385 155.429782 
L 168.299084 156.477446 
L 168.39648 165.809547 
L 168.552314 206.802186 
L 168.729251 270.605752 
L 168.790935 255.015464 
L 169.144809 158.490553 
L 169.225972 155.678863 
L 169.277917 156.851046 
L 169.37856 166.542252 
L 169.537641 207.741062 
L 169.719447 274.003984 
L 169.781132 257.677585 
L 170.135005 159.395789 
L 170.230778 155.42975 
L 170.279476 156.475363 
L 170.376873 165.802243 
L 170.532707 206.784173 
L 170.709644 270.605977 
L 170.771328 255.034264 
L 171.125201 158.493824 
L 171.206365 155.678855 
L 171.25831 156.848888 
L 171.358953 166.535027 
L 171.518033 207.723389 
L 171.69984 274.004337 
L 171.761524 257.696671 
L 172.115398 159.399633 
L 172.211171 155.429696 
L 172.261492 156.545817 
L 172.358889 166.04539 
L 172.516346 207.987419 
L 172.690036 270.606255 
L 172.750097 255.692056 
L 173.107217 158.385217 
L 173.186758 155.67884 
L 173.238703 156.846708 
L 173.339345 166.527834 
L 173.498426 207.7058 
L 173.680233 274.004757 
L 173.741917 257.715884 
L 174.095791 159.403566 
L 174.191564 155.429672 
L 174.241885 156.54361 
L 174.339281 166.037995 
L 174.496739 207.969344 
L 174.670429 270.606516 
L 174.73049 255.710818 
L 175.08761 158.388488 
L 175.167151 155.678844 
L 175.219095 156.844517 
L 175.319738 166.520603 
L 175.478819 207.688211 
L 175.660625 274.005147 
L 175.72231 257.735208 
L 176.076183 159.407546 
L 176.171956 155.429686 
L 176.222278 156.54141 
L 176.319674 166.030553 
L 176.477132 207.951243 
L 176.650822 270.606722 
L 176.712506 255.090967 
L 177.06638 158.503825 
L 177.147543 155.678864 
L 177.199488 156.842325 
L 177.300131 166.513329 
L 177.459212 207.670589 
L 177.641018 274.005468 
L 177.702703 257.75457 
L 178.056576 159.411531 
L 178.152349 155.429721 
L 178.202671 156.539225 
L 178.300067 166.023087 
L 178.457524 207.933112 
L 178.631215 270.606875 
L 178.692899 255.109943 
L 179.046772 158.507181 
L 179.127936 155.678889 
L 179.179881 156.840137 
L 179.280524 166.506036 
L 179.439604 207.65294 
L 179.621411 274.005727 
L 179.684719 257.118707 
L 180.035345 159.550458 
L 180.132742 155.429761 
L 180.18144 156.464776 
L 180.277213 165.519032 
L 180.431424 205.488065 
L 180.611607 270.606994 
L 180.673292 255.128896 
L 181.027165 158.510528 
L 181.108329 155.678911 
L 181.160273 156.837951 
L 181.260916 166.498747 
L 181.419997 207.635285 
L 181.601804 274.005946 
L 181.665111 257.138137 
L 182.015738 159.554482 
L 182.113135 155.429798 
L 182.161833 156.462684 
L 182.257606 165.511789 
L 182.411817 205.470332 
L 182.592 270.607095 
L 182.653684 255.147826 
L 183.007558 158.513873 
L 183.088721 155.678929 
L 183.140666 156.835768 
L 183.241309 166.491469 
L 183.40039 207.617639 
L 183.582196 274.006141 
L 183.645504 257.157543 
L 183.996131 159.558501 
L 184.093527 155.429831 
L 184.142225 156.460594 
L 184.237999 165.504561 
L 184.392209 205.452611 
L 184.572393 270.607182 
L 184.6357 254.523684 
L 184.986327 158.631928 
L 185.069114 155.678948 
L 185.121059 156.833585 
L 185.221702 166.4842 
L 185.380783 207.600004 
L 185.562589 274.006316 
L 185.625897 257.17694 
L 185.976524 159.562522 
L 186.075543 155.429855 
L 186.122618 156.458503 
L 186.218391 165.497339 
L 186.372602 205.434899 
L 186.552785 270.60725 
L 186.616093 254.542745 
L 186.96672 158.635352 
L 187.049507 155.67897 
L 187.101452 156.831404 
L 187.202095 166.476935 
L 187.361175 207.582376 
L 187.542982 274.006468 
L 187.606289 257.196339 
L 187.956916 159.566548 
L 188.055936 155.42982 
L 188.103011 156.456413 
L 188.198784 165.490119 
L 188.352995 205.417191 
L 188.533178 270.607294 
L 188.596486 254.561808 
L 188.947113 158.638781 
L 189.0299 155.678996 
L 189.081844 156.829226 
L 189.182487 166.469671 
L 189.341568 207.564751 
L 189.523375 274.006594 
L 189.586682 257.215741 
L 189.937309 159.570578 
L 190.036329 155.429789 
L 190.083404 156.454324 
L 190.179177 165.482899 
L 190.333388 205.399486 
L 190.513571 270.60731 
L 190.576879 254.580871 
L 190.927505 158.642213 
L 191.010292 155.679025 
L 191.062237 156.827051 
L 191.16288 166.462409 
L 191.321961 207.547127 
L 191.503767 274.006692 
L 191.567075 257.235141 
L 191.917702 159.574612 
L 192.016721 155.42976 
L 192.063796 156.452238 
L 192.159569 165.475679 
L 192.31378 205.381781 
L 192.493964 270.607299 
L 192.557271 254.599929 
L 192.907898 158.645646 
L 192.990685 155.679057 
L 193.04263 156.824878 
L 193.143273 166.455149 
L 193.302353 207.529505 
L 193.48416 274.006761 
L 193.547468 257.254538 
L 193.899718 159.443213 
L 193.997114 155.429733 
L 194.045812 156.521906 
L 194.143209 165.963641 
L 194.299043 207.176962 
L 194.474356 270.607262 
L 194.536041 255.261328 
L 194.891537 158.421341 
L 194.972701 155.679093 
L 195.024646 156.897364 
L 195.126912 166.945464 
L 195.287616 209.315837 
L 195.464553 274.006804 
L 195.526237 257.92816 
L 195.881734 159.313988 
L 195.977507 155.429708 
L 196.026205 156.51975 
L 196.123601 165.956226 
L 196.279436 207.158956 
L 196.454749 270.6072 
L 196.516433 255.280231 
L 196.87193 158.424636 
L 196.953094 155.67906 
L 197.005039 156.895124 
L 197.107305 166.938019 
L 197.268009 209.297925 
L 197.444945 274.006819 
L 197.50663 257.947425 
L 197.862127 159.31789 
L 197.9579 155.429685 
L 198.006598 156.517596 
L 198.103994 165.948814 
L 198.259828 207.140953 
L 198.435142 270.607114 
L 198.496826 255.299129 
L 198.852323 158.427933 
L 198.933487 155.67903 
L 198.985431 156.892885 
L 199.087697 166.930578 
L 199.248401 209.280015 
L 199.425338 274.006808 
L 199.487023 257.966686 
L 199.842519 159.321794 
L 199.938292 155.429665 
L 199.986991 156.515444 
L 200.084387 165.941405 
L 200.240221 207.122954 
L 200.415535 270.607003 
L 200.477219 255.318023 
L 200.832716 158.431232 
L 200.913879 155.679001 
L 200.965824 156.890649 
L 201.06809 166.923139 
L 201.228794 209.262109 
L 201.405731 274.006769 
L 201.467415 257.985944 
L 201.822912 159.325701 
L 201.918685 155.429646 
L 201.967383 156.513295 
L 202.06478 165.933999 
L 202.220614 207.104957 
L 202.395927 270.606867 
L 202.457612 255.336913 
L 202.813108 158.434533 
L 202.894272 155.678974 
L 202.946217 156.888415 
L 203.048483 166.915703 
L 203.209187 209.244205 
L 203.386124 274.006703 
L 203.447808 258.005198 
L 203.803305 159.329609 
L 203.899078 155.429629 
L 203.947776 156.511147 
L 204.045172 165.926597 
L 204.201007 207.086964 
L 204.37632 270.606706 
L 204.438004 255.355799 
L 204.793501 158.437837 
L 204.874665 155.67895 
L 204.926609 156.886183 
L 205.028876 166.908269 
L 205.18958 209.226305 
L 205.366516 274.00661 
L 205.428201 258.024448 
L 205.783697 159.333519 
L 205.879471 155.429614 
L 205.928169 156.509002 
L 206.025565 165.919197 
L 206.181399 207.068974 
L 206.356713 270.606521 
L 206.418397 255.37468 
L 206.773894 158.441142 
L 206.855057 155.678927 
L 206.907002 156.883953 
L 207.009268 166.900838 
L 207.169972 209.208407 
L 207.346909 274.00649 
L 207.408593 258.043694 
L 207.76409 159.337431 
L 207.859863 155.429602 
L 207.908561 156.506859 
L 208.005958 165.9118 
L 208.161792 207.050986 
L 208.337105 270.60631 
L 208.39879 255.393557 
L 208.754287 158.44445 
L 208.83545 155.678906 
L 208.887395 156.881725 
L 208.989661 166.89341 
L 209.150365 209.190512 
L 209.327302 274.006343 
L 209.388986 258.062936 
L 209.744483 159.341346 
L 209.840256 155.429591 
L 209.888954 156.504718 
L 209.986351 165.904406 
L 210.142185 207.033002 
L 210.317498 270.606074 
L 210.379183 255.412429 
L 210.734679 158.44776 
L 210.815843 155.678888 
L 210.867788 156.879499 
L 210.970054 166.885985 
L 211.130758 209.17262 
L 211.307695 274.006168 
L 211.369379 258.082174 
L 211.724876 159.345262 
L 211.820649 155.429582 
L 211.869347 156.50258 
L 211.966743 165.897016 
L 212.122577 207.01502 
L 212.297891 270.605814 
L 212.359575 255.431296 
L 212.715072 158.451071 
L 212.796236 155.678871 
L 212.84818 156.877276 
L 212.950447 166.878563 
L 213.111151 209.154731 
L 213.288087 274.005967 
L 213.349772 258.101409 
L 213.705268 159.34918 
L 213.801041 155.429575 
L 213.84974 156.500444 
L 213.947136 165.889628 
L 214.10297 206.997041 
L 214.278284 270.605528 
L 214.339968 255.450159 
L 214.695465 158.454385 
L 214.776628 155.678856 
L 214.828573 156.875054 
L 214.930839 166.871144 
L 215.091543 209.136844 
L 215.26848 274.005738 
L 215.331788 257.467657 
L 215.684038 159.486975 
L 215.781434 155.429571 
L 215.830132 156.498309 
L 215.927529 165.882243 
L 216.083363 206.979066 
L 216.258676 270.605218 
L 216.320361 255.469018 
L 216.677481 158.346621 
L 216.757021 155.678843 
L 216.808966 156.872835 
L 216.911232 166.863727 
L 217.071936 209.118961 
L 217.248873 274.005483 
L 217.31218 257.48701 
L 217.664431 159.490966 
L 217.761827 155.429568 
L 217.810525 156.496178 
L 217.907921 165.874861 
L 218.063756 206.961093 
L 218.239069 270.604882 
L 218.300753 255.487872 
L 218.657873 158.349869 
L 218.737414 155.678832 
L 218.789359 156.870617 
L 218.891625 166.856314 
L 219.052329 209.10108 
L 219.229265 274.0052 
L 219.292573 257.506359 
L 219.644823 159.494958 
L 219.74222 155.429567 
L 219.790918 156.494048 
L 219.888314 165.867482 
L 220.044148 206.943124 
L 220.219462 270.604522 
L 220.282769 254.866274 
L 220.63502 158.57793 
L 220.717807 155.678824 
L 220.769751 156.868402 
L 220.872017 166.848903 
L 221.032721 209.083203 
L 221.209658 274.00489 
L 221.272966 257.525705 
L 221.625216 159.498953 
L 221.722612 155.429569 
L 221.771311 156.49192 
L 221.868707 165.860107 
L 222.024541 206.925157 
L 222.199855 270.604136 
L 222.263162 254.885268 
L 222.615412 158.581323 
L 222.698199 155.678817 
L 222.750144 156.866189 
L 222.85241 166.841495 
L 223.013114 209.065328 
L 223.190051 274.004553 
L 223.253359 257.545048 
L 223.605609 159.502949 
L 223.703005 155.429572 
L 223.751703 156.489795 
L 223.8491 165.852734 
L 224.004934 206.907194 
L 224.181871 270.603748 
L 224.243555 254.904257 
L 224.595805 158.584717 
L 224.678592 155.678812 
L 224.730537 156.863978 
L 224.832803 166.83409 
L 224.993507 209.047456 
L 225.170444 274.004188 
L 225.233751 257.564386 
L 225.587625 159.372732 
L 225.683398 155.429578 
L 225.732096 156.487672 
L 225.829492 165.845364 
L 225.985327 206.889233 
L 226.162263 270.604157 
L 226.223948 254.923242 
L 226.577821 158.474311 
L 226.658985 155.678809 
L 226.710929 156.86177 
L 226.813196 166.826687 
L 226.9739 209.029587 
L 227.150836 274.003797 
L 227.214144 257.583721 
L 227.568017 159.376665 
L 227.663791 155.429585 
L 227.712489 156.485551 
L 227.809885 165.837997 
L 227.965719 206.871276 
L 228.142656 270.604541 
L 228.20434 254.942223 
L 228.558214 158.477639 
L 228.639377 155.678808 
L 228.691322 156.859563 
L 228.793588 166.819288 
L 228.954292 209.011721 
L 229.131229 274.003378 
L 229.194537 257.603053 
L 229.54841 159.380599 
L 229.644183 155.429595 
L 229.692881 156.483432 
L 229.790278 165.830633 
L 229.946112 206.853321 
L 230.123049 270.6049 
L 230.184733 254.961199 
L 230.538607 158.48097 
L 230.61977 155.678809 
L 230.671715 156.857358 
L 230.773981 166.811891 
L 230.934685 208.993858 
L 231.113245 274.002938 
L 231.174929 257.622381 
L 231.528803 159.384535 
L 231.624576 155.429606 
L 231.673274 156.481316 
L 231.770671 165.823272 
L 231.926505 206.835369 
L 232.103441 270.605234 
L 232.165126 254.980171 
L 232.518999 158.484302 
L 232.600163 155.678812 
L 232.652108 156.855156 
L 232.754374 166.804497 
L 232.913455 208.373209 
L 233.093638 274.003383 
L 233.155322 257.641705 
L 233.509196 159.388474 
L 233.604969 155.42962 
L 233.653667 156.479202 
L 233.751063 165.815915 
L 233.906897 206.817421 
L 234.083834 270.605543 
L 234.145519 254.999139 
L 234.499392 158.487637 
L 234.580556 155.678817 
L 234.6325 156.852956 
L 234.734767 166.797106 
L 234.893847 208.355451 
L 235.074031 274.003801 
L 235.135715 257.661025 
L 235.489588 159.392414 
L 235.585361 155.429635 
L 235.63406 156.47709 
L 235.731456 165.80856 
L 235.88729 206.799475 
L 236.064227 270.605828 
L 236.125911 255.018103 
L 236.479785 158.490973 
L 236.560948 155.678824 
L 236.612893 156.850758 
L 236.713536 166.541324 
L 236.872617 207.738447 
L 237.054423 274.004192 
L 237.116108 257.680342 
L 237.469981 159.396357 
L 237.565754 155.429653 
L 237.614452 156.47498 
L 237.711849 165.801208 
L 237.867683 206.781533 
L 238.04462 270.606087 
L 238.106304 255.037062 
L 238.460177 158.494312 
L 238.541341 155.678833 
L 238.593286 156.848561 
L 238.693929 166.534034 
L 238.853009 207.720793 
L 239.034816 274.004556 
L 239.0965 257.699655 
L 239.450374 159.400301 
L 239.546147 155.429672 
L 239.596468 156.545435 
L 239.693865 166.044254 
L 239.851322 207.984704 
L 240.025012 270.606321 
L 240.085073 255.694965 
L 240.442193 158.385733 
L 240.521734 155.678844 
L 240.573679 156.846367 
L 240.674321 166.526747 
L 240.833402 207.703142 
L 241.015209 274.004893 
L 241.076893 257.718965 
L 241.430767 159.404248 
L 241.52654 155.429694 
L 241.576861 156.543254 
L 241.674257 166.036807 
L 241.831715 207.966566 
L 242.005405 270.606531 
L 242.065466 255.713764 
L 242.422586 158.389006 
L 242.502127 155.678857 
L 242.554071 156.844176 
L 242.654714 166.519463 
L 242.813795 207.685493 
L 242.995601 274.005203 
L 243.057286 257.738271 
L 243.411159 159.408196 
L 243.506932 155.429717 
L 243.557254 156.541076 
L 243.65465 166.029363 
L 243.812108 207.94843 
L 243.985798 270.606715 
L 244.047482 255.093914 
L 244.401356 158.50434 
L 244.482519 155.678872 
L 244.534464 156.841986 
L 244.635107 166.512182 
L 244.794188 207.667848 
L 244.975994 274.005485 
L 245.037679 257.757573 
L 245.391552 159.412147 
L 245.487325 155.429743 
L 245.537647 156.538901 
L 245.635043 166.021922 
L 245.7925 207.930298 
L 245.966191 270.606875 
L 246.027875 255.112856 
L 246.381748 158.507687 
L 246.462912 155.678888 
L 246.514857 156.839798 
L 246.6155 166.504903 
L 246.77458 207.650206 
L 246.956387 274.005741 
L 247.019695 257.121685 
L 247.370321 159.551066 
L 247.467718 155.429771 
L 247.516416 156.464464 
L 247.612189 165.517922 
L 247.7664 205.485328 
L 247.946583 270.607009 
L 248.008268 255.131794 
L 248.362141 158.511036 
L 248.443305 155.678907 
L 248.495249 156.837613 
L 248.595892 166.497627 
L 248.754973 207.632567 
L 248.93678 274.005969 
L 249.000087 257.141101 
L 249.350714 159.555088 
L 249.448111 155.4298 
L 249.496809 156.462367 
L 249.592582 165.510689 
L 249.746793 205.467609 
L 249.926976 270.607119 
L 249.98866 255.150727 
L 250.342534 158.514387 
L 250.423697 155.678928 
L 250.475642 156.835429 
L 250.576285 166.490355 
L 250.735366 207.614931 
L 250.917172 274.00617 
L 250.98048 257.160513 
L 251.331107 159.559113 
L 251.428503 155.429832 
L 251.477201 156.460272 
L 251.572975 165.503459 
L 251.727185 205.449892 
L 251.907369 270.607204 
L 251.970676 254.526615 
L 252.321303 158.632458 
L 252.40409 155.678951 
L 252.456035 156.833248 
L 252.556678 166.483085 
L 252.715759 207.597297 
L 252.897565 274.006344 
L 252.960873 257.179921 
L 253.3115 159.56314 
L 253.410519 155.429847 
L 253.457594 156.45818 
L 253.553367 165.496231 
L 253.707578 205.432179 
L 253.887761 270.607263 
L 253.951069 254.545682 
L 254.301696 158.635883 
L 254.384483 155.678976 
L 254.436428 156.831069 
L 254.537071 166.475817 
L 254.696151 207.579667 
L 254.877958 274.006491 
L 254.941265 257.199327 
L 255.291892 159.567169 
L 255.390912 155.429815 
L 255.437987 156.45609 
L 255.53376 165.489007 
L 255.687971 205.414468 
L 255.868154 270.607298 
L 255.931462 254.564745 
L 256.282089 158.639311 
L 256.364876 155.679002 
L 256.41682 156.828892 
L 256.517463 166.468553 
L 256.676544 207.562039 
L 256.858351 274.006611 
L 256.921658 257.218729 
L 257.272285 159.5712 
L 257.371305 155.429784 
L 257.41838 156.454002 
L 257.514153 165.481786 
L 257.668364 205.396761 
L 257.848547 270.607308 
L 257.911855 254.583804 
L 258.262481 158.642741 
L 258.345268 155.679031 
L 258.397213 156.826717 
L 258.497856 166.461291 
L 258.656937 207.544415 
L 258.838743 274.006704 
L 258.902051 257.238127 
L 259.252678 159.575233 
L 259.351697 155.429756 
L 259.398772 156.451917 
L 259.494545 165.474567 
L 259.648756 205.379057 
L 259.82894 270.607293 
L 259.892247 254.60286 
L 260.242874 158.646173 
L 260.325661 155.679062 
L 260.377606 156.824544 
L 260.478249 166.454032 
L 260.637329 207.526793 
L 260.819136 274.006769 
L 260.882444 257.257522 
L 261.234694 159.443823 
L 261.33209 155.429729 
L 261.380788 156.521574 
L 261.478185 165.9625 
L 261.634019 207.174191 
L 261.809332 270.607253 
L 261.871017 255.264235 
L 262.226513 158.421847 
L 262.307677 155.679087 
L 262.359622 156.897019 
L 262.461888 166.944319 
L 262.622592 209.313082 
L 262.799529 274.006808 
L 262.861213 257.931124 
L 263.21671 159.314588 
L 263.312483 155.429705 
L 263.361181 156.519418 
L 263.458577 165.955085 
L 263.614412 207.156186 
L 263.789725 270.607188 
L 263.851409 255.283138 
L 264.206906 158.425143 
L 264.28807 155.679055 
L 264.340015 156.894779 
L 264.442281 166.936875 
L 264.602985 209.29517 
L 264.779921 274.006819 
L 264.841606 257.950388 
L 265.197103 159.318491 
L 265.292876 155.429682 
L 265.341574 156.517265 
L 265.43897 165.947674 
L 265.594804 207.138184 
L 265.770118 270.607099 
L 265.831802 255.302036 
L 266.187299 158.42844 
L 266.268463 155.679025 
L 266.320407 156.892541 
L 266.422673 166.929433 
L 266.583377 209.277261 
L 266.760314 274.006804 
L 266.821999 257.969649 
L 267.177495 159.322395 
L 267.273268 155.429662 
L 267.321967 156.515113 
L 267.419363 165.940266 
L 267.575197 207.120185 
L 267.750511 270.606984 
L 267.812195 255.32093 
L 268.167692 158.43174 
L 268.248855 155.678997 
L 268.3008 156.890305 
L 268.403066 166.921995 
L 268.56377 209.259355 
L 268.740707 274.006761 
L 268.802391 257.988906 
L 269.157888 159.326302 
L 269.253661 155.429643 
L 269.302359 156.512964 
L 269.399756 165.932861 
L 269.55559 207.102189 
L 269.730903 270.606844 
L 269.792588 255.339819 
L 270.148084 158.435041 
L 270.229248 155.67897 
L 270.281193 156.888071 
L 270.383459 166.914559 
L 270.544163 209.241452 
L 270.7211 274.006691 
L 270.782784 258.008159 
L 271.138281 159.33021 
L 271.234054 155.429627 
L 271.282752 156.510817 
L 271.380148 165.925458 
L 271.535983 207.084196 
L 271.711296 270.606679 
L 271.77298 255.358704 
L 272.128477 158.438345 
L 272.209641 155.678946 
L 272.261585 156.885839 
L 272.363852 166.907126 
L 272.524556 209.223551 
L 272.701492 274.006593 
L 272.763177 258.027408 
L 273.118673 159.334121 
L 273.214447 155.429612 
L 273.263145 156.508672 
L 273.360541 165.918059 
L 273.516375 207.066206 
L 273.691689 270.60649 
L 273.753373 255.377584 
L 274.10887 158.441651 
L 274.190033 155.678924 
L 274.241978 156.88361 
L 274.344244 166.899695 
L 274.504948 209.205654 
L 274.681885 274.006469 
L 274.743569 258.046654 
L 275.099066 159.338033 
L 275.194839 155.4296 
L 275.243537 156.50653 
L 275.340934 165.910663 
L 275.496768 207.048219 
L 275.672081 270.606275 
L 275.733766 255.39646 
L 276.089263 158.444959 
L 276.170426 155.678903 
L 276.222371 156.881382 
L 276.324637 166.892268 
L 276.485341 209.187759 
L 276.662278 274.006318 
L 276.723962 258.065896 
L 277.079459 159.341948 
L 277.175232 155.429589 
L 277.22393 156.504389 
L 277.321327 165.903269 
L 277.477161 207.030235 
L 277.652474 270.606036 
L 277.714159 255.415331 
L 278.069655 158.448269 
L 278.150819 155.678885 
L 278.202764 156.879157 
L 278.30503 166.884844 
L 278.465734 209.169868 
L 278.642671 274.006139 
L 278.704355 258.085133 
L 279.059852 159.345865 
L 279.155625 155.429581 
L 279.204323 156.502251 
L 279.301719 165.895879 
L 279.457553 207.012254 
L 279.632867 270.605771 
L 279.694551 255.434198 
L 280.050048 158.451581 
L 280.131212 155.678868 
L 280.183156 156.876934 
L 280.285423 166.877422 
L 280.446127 209.151979 
L 280.623063 274.005934 
L 280.686371 257.451278 
L 281.038621 159.4836 
L 281.136017 155.429575 
L 281.184716 156.500115 
L 281.282112 165.888492 
L 281.437946 206.994276 
L 281.61326 270.605482 
L 281.674944 255.453061 
L 282.030441 158.454895 
L 282.111604 155.678854 
L 282.163549 156.874713 
L 282.265815 166.870003 
L 282.426519 209.134093 
L 282.603456 274.005701 
L 282.666764 257.470634 
L 283.019014 159.487589 
L 283.11641 155.42957 
L 283.165108 156.497981 
L 283.262505 165.881107 
L 283.418339 206.976301 
L 283.593652 270.605168 
L 283.655337 255.471919 
L 284.012457 158.347121 
L 284.091997 155.678841 
L 284.143942 156.872493 
L 284.246208 166.862587 
L 284.406912 209.11621 
L 284.583849 274.005441 
L 284.647156 257.489987 
L 284.999407 159.49158 
L 285.096803 155.429568 
L 285.145501 156.49585 
L 285.242897 165.873726 
L 285.398732 206.958329 
L 285.574045 270.604828 
L 285.635729 255.490772 
L 285.992849 158.350369 
L 286.07239 155.678831 
L 286.124335 156.870277 
L 286.226601 166.855174 
L 286.387305 209.09833 
L 286.564241 274.005154 
L 286.627549 257.509335 
L 286.979799 159.495572 
L 287.077196 155.429568 
L 287.125894 156.49372 
L 287.22329 165.866348 
L 287.379124 206.94036 
L 287.554438 270.604464 
L 287.617745 254.869196 
L 287.969996 158.578452 
L 288.052783 155.678822 
L 288.104727 156.868062 
L 288.206993 166.847763 
L 288.367697 209.080453 
L 288.544634 274.00484 
L 288.607942 257.528681 
L 288.960192 159.499567 
L 289.057588 155.429569 
L 289.106287 156.491593 
L 289.203683 165.858972 
L 289.359517 206.922394 
L 289.534831 270.604075 
L 289.598138 254.888189 
L 289.950388 158.581845 
L 290.033175 155.678816 
L 290.08512 156.865849 
L 290.187386 166.840356 
L 290.34809 209.062579 
L 290.525027 274.004498 
L 290.588335 257.548023 
L 290.940585 159.503564 
L 291.037981 155.429573 
L 291.086679 156.489468 
L 291.184076 165.8516 
L 291.33991 206.904431 
L 291.516847 270.603813 
L 291.578531 254.907178 
L 291.930781 158.585239 
L 292.013568 155.678811 
L 292.065513 156.863639 
L 292.167779 166.832951 
L 292.328483 209.044707 
L 292.50542 274.00413 
L 292.568727 257.567361 
L 292.922601 159.373337 
L 293.018374 155.429579 
L 293.067072 156.487346 
L 293.164468 165.844231 
L 293.320303 206.886471 
L 293.497239 270.604218 
L 293.558924 254.926162 
L 293.912797 158.474823 
L 293.993961 155.678809 
L 294.045905 156.86143 
L 294.148172 166.825549 
L 294.308876 209.026839 
L 294.485812 274.003734 
L 294.54912 257.586695 
L 294.902993 159.37727 
L 294.998767 155.429586 
L 295.047465 156.485225 
L 295.144861 165.836864 
L 295.300695 206.868514 
L 295.477632 270.604598 
L 295.539316 254.945142 
L 295.89319 158.478151 
L 295.974353 155.678808 
L 296.026298 156.859224 
L 296.128564 166.81815 
L 296.289268 209.008973 
L 296.466205 274.003312 
L 296.529513 257.606026 
L 296.883386 159.381204 
L 296.979159 155.429596 
L 297.027857 156.483107 
L 297.125254 165.829501 
L 297.281088 206.850559 
L 297.458025 270.604953 
L 297.519709 254.964118 
L 297.873583 158.481482 
L 297.954746 155.678809 
L 298.006691 156.85702 
L 298.108957 166.810754 
L 298.269661 208.991111 
L 298.448221 274.003008 
L 298.509905 257.625353 
L 298.863779 159.385141 
L 298.959552 155.429608 
L 299.00825 156.480991 
L 299.105647 165.82214 
L 299.261481 206.832608 
L 299.438417 270.605283 
L 299.500102 254.983089 
L 299.853975 158.484815 
L 299.935139 155.678813 
L 299.987084 156.854817 
L 300.08935 166.80336 
L 300.248431 208.370478 
L 300.428614 274.003449 
L 300.490298 257.644677 
L 300.844172 159.38908 
L 300.939945 155.429622 
L 300.988643 156.478877 
L 301.086039 165.814783 
L 301.241873 206.81466 
L 301.41881 270.605589 
L 301.480495 255.002056 
L 301.834368 158.48815 
L 301.915532 155.678818 
L 301.967476 156.852617 
L 302.069743 166.79597 
L 302.228823 208.352719 
L 302.409007 274.003863 
L 302.470691 257.663997 
L 302.824564 159.393021 
L 302.920337 155.429638 
L 302.969036 156.476765 
L 303.066432 165.807429 
L 303.222266 206.796715 
L 303.399203 270.605869 
L 303.460887 255.021019 
L 303.814761 158.491487 
L 303.895924 155.678825 
L 303.947869 156.85042 
L 304.048512 166.540202 
L 304.207593 207.735731 
L 304.389399 274.00425 
L 304.451084 257.683313 
L 304.804957 159.396963 
L 304.90073 155.429656 
L 304.949428 156.474655 
L 305.046825 165.800077 
L 305.202659 206.778773 
L 305.379596 270.606124 
L 305.44128 255.039978 
L 305.795153 158.494825 
L 305.876317 155.678835 
L 305.928262 156.848224 
L 306.028905 166.532913 
L 306.187985 207.718077 
L 306.369792 274.00461 
L 306.431476 257.702626 
L 306.78535 159.400908 
L 306.881123 155.429675 
L 306.931444 156.545099 
L 307.028841 166.043108 
L 307.186298 207.981913 
L 307.359988 270.606355 
L 307.420049 255.697857 
L 307.777169 158.386237 
L 307.85671 155.678846 
L 307.908655 156.84603 
L 308.009297 166.525626 
L 308.168378 207.700427 
L 308.350185 274.004942 
L 308.411869 257.721935 
L 308.765743 159.404855 
L 308.861516 155.429697 
L 308.911837 156.542919 
L 309.009233 166.035662 
L 309.166691 207.963776 
L 309.340381 270.606561 
L 309.400442 255.716656 
L 309.757562 158.38951 
L 309.837103 155.678859 
L 309.889047 156.843839 
L 309.98969 166.518343 
L 310.148771 207.682779 
L 310.330577 274.005248 
L 310.392262 257.74124 
L 310.746135 159.408804 
L 310.841908 155.429721 
L 310.89223 156.540742 
L 310.989626 166.028218 
L 311.147084 207.945641 
L 311.320774 270.606741 
L 311.382458 255.096828 
L 311.736332 158.504855 
L 311.817495 155.678874 
L 311.86944 156.841649 
L 311.970083 166.511062 
L 312.129164 207.665134 
L 312.31097 274.005526 
L 312.374278 257.105253 
L 312.724905 159.547663 
L 312.822301 155.429747 
L 312.870999 156.466239 
L 312.966772 165.524045 
L 313.120983 205.500325 
L 313.301167 270.606897 
L 313.362851 255.115769 
L 313.716724 158.508202 
L 313.797888 155.678891 
L 313.849833 156.839462 
L 313.950476 166.503784 
L 314.109556 207.647493 
L 314.291363 274.005778 
L 314.354671 257.124672 
L 314.705297 159.551684 
L 314.802694 155.429775 
L 314.851392 156.464141 
L 314.947165 165.516809 
L 315.101376 205.482602 
L 315.281559 270.607028 
L 315.343244 255.134706 
L 315.697117 158.511551 
L 315.778281 155.67891 
L 315.830225 156.837277 
L 315.930868 166.496509 
L 316.089949 207.629854 
L 316.271756 274.006002 
L 316.335063 257.144087 
L 316.68569 159.555707 
L 316.783087 155.429805 
L 316.831785 156.462045 
L 316.927558 165.509576 
L 317.081769 205.464883 
L 317.261952 270.607134 
L 317.323636 255.153639 
L 317.67751 158.514903 
L 317.758673 155.678931 
L 317.810618 156.835094 
L 317.911261 166.489236 
L 318.070342 207.612218 
L 318.252148 274.006199 
L 318.315456 257.163498 
L 318.666083 159.559733 
L 318.763479 155.429837 
L 318.812177 156.45995 
L 318.907951 165.502347 
L 319.062161 205.447167 
L 319.242345 270.607214 
L 319.305652 254.529548 
L 319.656279 158.632984 
L 319.739066 155.678955 
L 319.791011 156.832913 
L 319.891654 166.481966 
L 320.050735 207.594585 
L 320.232541 274.006369 
L 320.295849 257.182907 
L 320.646476 159.56376 
L 320.745495 155.429842 
L 320.79257 156.457859 
L 320.888343 165.49512 
L 321.042554 205.429454 
L 321.222737 270.60727 
L 321.286045 254.548615 
L 321.636672 158.63641 
L 321.719459 155.67898 
L 321.771404 156.830734 
L 321.872047 166.4747 
L 322.031127 207.576955 
L 322.212934 274.006511 
L 322.276241 257.202311 
L 322.626868 159.567789 
L 322.725888 155.42981 
L 322.772963 156.455769 
L 322.868736 165.487896 
L 323.022947 205.411744 
L 323.20313 270.607301 
L 323.266438 254.567677 
L 323.617065 158.639838 
L 323.699852 155.679007 
L 323.751796 156.828557 
L 323.852439 166.467436 
L 324.01152 207.559328 
L 324.193327 274.006627 
L 324.256634 257.221713 
L 324.607261 159.57182 
L 324.706281 155.42978 
L 324.753356 156.453681 
L 324.849129 165.480675 
L 325.00334 205.394038 
L 325.183523 270.607308 
L 325.246831 254.586736 
L 325.597457 158.643269 
L 325.680244 155.679036 
L 325.732189 156.826383 
L 325.832832 166.460175 
L 325.991913 207.541704 
L 326.173719 274.006716 
L 326.237027 257.241111 
L 326.587654 159.575853 
L 326.686673 155.429751 
L 326.733748 156.451596 
L 326.829521 165.473457 
L 326.983732 205.376334 
L 327.163916 270.607289 
L 327.227223 254.60579 
L 327.57785 158.646701 
L 327.660637 155.679067 
L 327.712582 156.82421 
L 327.813225 166.452916 
L 327.972305 207.524083 
L 328.154112 274.006777 
L 328.21742 257.260505 
L 328.56967 159.444433 
L 328.667066 155.429725 
L 328.715764 156.521243 
L 328.813161 165.961359 
L 328.968995 207.171422 
L 329.144308 270.607245 
L 329.205993 255.267143 
L 329.561489 158.422354 
L 329.642653 155.679082 
L 329.694598 156.896675 
L 329.796864 166.943174 
L 329.957568 209.310326 
L 330.134505 274.006811 
L 330.196189 257.934087 
L 330.551686 159.315188 
L 330.647459 155.429701 
L 330.696157 156.519087 
L 330.793553 165.953945 
L 330.949388 207.153417 
L 331.124701 270.607176 
L 331.186385 255.286045 
L 331.541882 158.42565 
L 331.623046 155.67905 
L 331.674991 156.894435 
L 331.777257 166.93573 
L 331.937961 209.292415 
L 332.114897 274.006819 
L 332.176582 257.953351 
L 332.532079 159.319091 
L 332.627852 155.429679 
L 332.67655 156.516934 
L 332.773946 165.946534 
L 332.92978 207.135416 
L 333.105094 270.607083 
L 333.166778 255.304942 
L 333.522275 158.428948 
L 333.603439 155.67902 
L 333.655383 156.892197 
L 333.757649 166.928289 
L 333.918353 209.274506 
L 334.09529 274.006799 
L 334.156975 257.972611 
L 334.512471 159.322996 
L 334.608244 155.429659 
L 334.656943 156.514783 
L 334.754339 165.939127 
L 334.910173 207.117417 
L 335.085487 270.606964 
L 335.147171 255.323835 
L 335.502668 158.432248 
L 335.583831 155.678992 
L 335.635776 156.889961 
L 335.738042 166.920851 
L 335.898746 209.256601 
L 336.075683 274.006752 
L 336.137367 257.991868 
L 336.492864 159.326903 
L 336.588637 155.42964 
L 336.637335 156.512634 
L 336.734732 165.931722 
L 336.890566 207.099422 
L 337.065879 270.60682 
L 337.127564 255.342724 
L 337.48306 158.43555 
L 337.564224 155.678966 
L 337.616169 156.887728 
L 337.718435 166.913415 
L 337.879139 209.238698 
L 338.056076 274.006677 
L 338.11776 258.01112 
L 338.473257 159.330812 
L 338.56903 155.429624 
L 338.617728 156.510487 
L 338.715124 165.92432 
L 338.870959 207.081429 
L 339.046272 270.606652 
L 339.107956 255.361608 
L 339.463453 158.438854 
L 339.544617 155.678942 
L 339.596561 156.885496 
L 339.698828 166.905983 
L 339.859532 209.220798 
L 340.036468 274.006576 
L 340.098153 258.030369 
L 340.453649 159.334723 
L 340.549423 155.42961 
L 340.598121 156.508343 
L 340.695517 165.916921 
L 340.851351 207.063439 
L 341.026665 270.606458 
L 341.088349 255.380488 
L 341.443846 158.44216 
L 341.525009 155.67892 
L 341.576954 156.883267 
L 341.67922 166.898553 
L 341.839924 209.202901 
L 342.016861 274.006448 
L 342.078545 258.049614 
L 342.434042 159.338635 
L 342.529815 155.429598 
L 342.578513 156.5062 
L 342.67591 165.909525 
L 342.831744 207.045453 
L 343.007057 270.60624 
L 343.068742 255.399363 
L 343.424239 158.445468 
L 343.505402 155.6789 
L 343.557347 156.88104 
L 343.659613 166.891126 
L 343.820317 209.185007 
L 343.997254 274.006292 
L 344.058938 258.068855 
L 344.414435 159.34255 
L 344.510208 155.429588 
L 344.558906 156.50406 
L 344.656303 165.902132 
L 344.812137 207.027469 
L 344.98745 270.605997 
L 345.049135 255.418234 
L 345.404631 158.448778 
L 345.485795 155.678882 
L 345.53774 156.878815 
L 345.640006 166.883702 
L 345.80071 209.167116 
L 345.977647 274.006109 
L 346.039331 258.088092 
L 346.394828 159.346467 
L 346.490601 155.42958 
L 346.539299 156.501922 
L 346.636695 165.894743 
L 346.792529 207.009489 
L 346.967843 270.605728 
L 347.029527 255.4371 
L 347.385024 158.45209 
L 347.466188 155.678866 
L 347.518132 156.876592 
L 347.620399 166.87628 
L 347.781103 209.149228 
L 347.958039 274.0059 
L 348.021347 257.454255 
L 348.373597 159.484213 
L 348.470993 155.429574 
L 348.519692 156.499787 
L 348.617088 165.887356 
L 348.772922 206.991511 
L 348.948236 270.605435 
L 349.00992 255.455962 
L 349.365417 158.455405 
L 349.44658 155.678852 
L 349.498525 156.874371 
L 349.600791 166.868862 
L 349.761495 209.131342 
L 349.938432 274.005663 
L 350.00174 257.473611 
L 350.35399 159.488203 
L 350.451386 155.42957 
L 350.500084 156.497653 
L 350.597481 165.879972 
L 350.753315 206.973537 
L 350.928628 270.605117 
L 350.990313 255.474819 
L 351.347433 158.34762 
L 351.426973 155.67884 
L 351.478918 156.872152 
L 351.581184 166.861446 
L 351.741888 209.11346 
L 351.918825 274.005399 
L 351.982132 257.492963 
L 352.334383 159.492194 
L 352.431779 155.429568 
L 352.480477 156.495522 
L 352.577873 165.872591 
L 352.733708 206.955565 
L 352.909021 270.604774 
L 352.970705 255.493672 
L 353.327825 158.350869 
L 353.407366 155.67883 
L 353.459311 156.869936 
L 353.561577 166.854034 
L 353.722281 209.09558 
L 353.899217 274.005107 
L 353.962525 257.512311 
L 354.314775 159.496187 
L 354.412172 155.429568 
L 354.46087 156.493393 
L 354.558266 165.865213 
L 354.7141 206.937596 
L 354.889414 270.604406 
L 354.952721 254.872118 
L 355.304972 158.578974 
L 355.387759 155.678821 
L 355.439703 156.867721 
L 355.541969 166.846624 
L 355.702673 209.077703 
L 355.87961 274.004789 
L 355.942918 257.531656 
L 356.295168 159.500182 
L 356.392564 155.42957 
L 356.441263 156.491266 
L 356.538659 165.857838 
L 356.694493 206.919631 
L 356.869807 270.604013 
L 356.933114 254.89111 
L 357.285364 158.582367 
L 357.368151 155.678815 
L 357.420096 156.865509 
L 357.522362 166.839216 
L 357.683066 209.05983 
L 357.860003 274.004443 
L 357.923311 257.550997 
L 358.275561 159.504179 
L 358.372957 155.429574 
L 358.421655 156.489142 
L 358.519052 165.850466 
L 358.674886 206.901668 
L 358.851823 270.603877 
L 358.913507 254.910098 
L 359.265757 158.585762 
L 359.348544 155.678811 
L 359.400489 156.863299 
L 359.502755 166.831812 
L 359.663459 209.041959 
L 359.840396 274.004071 
L 359.903703 257.570335 
L 360.257577 159.373942 
L 360.35335 155.42958 
L 360.402048 156.487019 
L 360.499444 165.843097 
L 360.655279 206.883708 
L 360.832215 270.604278 
L 360.8939 254.929082 
L 361.247773 158.475335 
L 361.328937 155.678808 
L 361.380881 156.861091 
L 361.483148 166.824411 
L 361.643852 209.024091 
L 361.820788 274.003671 
L 361.884096 257.589669 
L 362.237969 159.377875 
L 362.333743 155.429588 
L 362.382441 156.484899 
L 362.479837 165.835731 
L 362.635671 206.865752 
L 362.812608 270.604654 
L 362.874292 254.948061 
L 363.228166 158.478664 
L 363.309329 155.678808 
L 363.361274 156.858885 
L 363.46354 166.817012 
L 363.624244 209.006225 
L 363.801181 274.003244 
L 363.864489 257.608999 
L 364.218362 159.38181 
L 364.314135 155.429598 
L 364.362833 156.482781 
L 364.46023 165.828368 
L 364.616064 206.847798 
L 364.793001 270.605006 
L 364.854685 254.967036 
L 365.208559 158.481995 
L 365.289722 155.67881 
L 365.341667 156.856681 
L 365.443933 166.809616 
L 365.604637 208.988363 
L 365.783197 274.003078 
L 365.844881 257.628326 
L 366.198755 159.385747 
L 366.294528 155.42961 
L 366.343226 156.480665 
L 366.440623 165.821008 
L 366.596457 206.829847 
L 366.773393 270.605332 
L 366.835078 254.986007 
L 367.188951 158.485328 
L 367.270115 155.678813 
L 367.32206 156.854479 
L 367.424326 166.802223 
L 367.583407 208.367746 
L 367.76359 274.003515 
L 367.825274 257.647649 
L 368.179148 159.389686 
L 368.274921 155.429624 
L 368.323619 156.478552 
L 368.421015 165.813652 
L 368.576849 206.8119 
L 368.753786 270.605633 
L 368.815471 255.004973 
L 369.169344 158.488663 
L 369.250508 155.678819 
L 369.302452 156.852279 
L 369.403095 166.546373 
L 369.562176 207.750671 
L 369.743983 274.003925 
L 369.805667 257.666968 
L 370.15954 159.393627 
L 370.255313 155.42964 
L 370.304012 156.47644 
L 370.401408 165.806298 
L 370.557242 206.793955 
L 370.734179 270.60591 
L 370.795863 255.023936 
L 371.149737 158.492 
L 371.2309 155.678827 
L 371.282845 156.850082 
L 371.383488 166.539081 
L 371.542569 207.733015 
L 371.724375 274.004307 
L 371.78606 257.686284 
L 372.139933 159.39757 
L 372.235706 155.429658 
L 372.284404 156.474331 
L 372.381801 165.798947 
L 372.537635 206.776014 
L 372.714572 270.606162 
L 372.776256 255.042894 
L 373.130129 158.495339 
L 373.211293 155.678836 
L 373.263238 156.847886 
L 373.363881 166.531792 
L 373.522961 207.715362 
L 373.704768 274.004663 
L 373.766452 257.705596 
L 374.120326 159.401515 
L 374.216099 155.429679 
L 374.26642 156.544764 
L 374.363817 166.041963 
L 374.521274 207.979123 
L 374.694964 270.606388 
L 374.755025 255.700749 
L 375.112145 158.38674 
L 375.191686 155.678848 
L 375.243631 156.845693 
L 375.344273 166.524506 
L 375.503354 207.697712 
L 375.685161 274.004991 
L 375.746845 257.724904 
L 376.100719 159.405462 
L 376.196492 155.429701 
L 376.246813 156.542584 
L 376.344209 166.034517 
L 376.501667 207.960986 
L 376.675357 270.60659 
L 376.737041 255.080797 
L 377.090915 158.502024 
L 377.172079 155.678861 
L 377.224023 156.843502 
L 377.324666 166.517223 
L 377.483747 207.680065 
L 377.665553 274.005292 
L 377.727238 257.744209 
L 378.081111 159.409411 
L 378.176884 155.429725 
L 378.227206 156.540407 
L 378.324602 166.027073 
L 378.48206 207.942852 
L 378.65575 270.606767 
L 378.717434 255.099742 
L 379.071308 158.505369 
L 379.152471 155.678877 
L 379.204416 156.841313 
L 379.305059 166.509942 
L 379.46414 207.662421 
L 379.645946 274.005567 
L 379.709254 257.10824 
L 380.059881 159.548282 
L 380.157277 155.429751 
L 380.205975 156.465916 
L 380.301748 165.522932 
L 380.455959 205.497598 
L 380.636143 270.606919 
L 380.697827 255.118682 
L 381.0517 158.508717 
L 381.132864 155.678894 
L 381.184809 156.839126 
L 381.285452 166.502665 
L 381.444532 207.644779 
L 381.626339 274.005814 
L 381.689647 257.127658 
L 382.040273 159.552303 
L 382.13767 155.429779 
L 382.186368 156.463818 
L 382.282141 165.515696 
L 382.436352 205.479877 
L 382.616535 270.607046 
L 382.67822 255.137619 
L 383.032093 158.512067 
L 383.113257 155.678913 
L 383.165201 156.836941 
L 383.265844 166.49539 
L 383.424925 207.627141 
L 383.606732 274.006034 
L 383.670039 257.147073 
L 384.020666 159.556326 
L 384.118063 155.42981 
L 384.166761 156.461722 
L 384.262534 165.508464 
L 384.416745 205.462158 
L 384.596928 270.607148 
L 384.660236 254.513411 
L 385.010863 158.630087 
L 385.093649 155.678935 
L 385.145594 156.834758 
L 385.246237 166.488118 
L 385.405318 207.609506 
L 385.587124 274.006227 
L 385.650432 257.166484 
L 386.001059 159.560352 
L 386.098455 155.429842 
L 386.147153 156.459629 
L 386.242927 165.501235 
L 386.397137 205.444443 
L 386.577321 270.607225 
L 386.640628 254.532481 
L 386.991255 158.633511 
L 387.074042 155.678958 
L 387.125987 156.832578 
L 387.22663 166.480849 
L 387.385711 207.591873 
L 387.567517 274.006392 
L 387.630825 257.185892 
L 387.981452 159.564379 
L 388.080471 155.429837 
L 388.127546 156.457537 
L 388.223319 165.494009 
L 388.37753 205.42673 
L 388.557713 270.607277 
L 388.621021 254.551547 
L 388.971648 158.636937 
L 389.054435 155.678984 
L 389.10638 156.830399 
L 389.207023 166.473582 
L 389.366103 207.574244 
L 389.54791 274.006531 
L 389.611217 257.205296 
L 389.961844 159.568409 
L 390.060864 155.429805 
L 390.107939 156.455448 
L 390.203712 165.486785 
L 390.357923 205.409021 
L 390.538106 270.607304 
L 390.601414 254.570609 
L 390.952041 158.640366 
L 391.034828 155.679011 
L 391.086772 156.828223 
L 391.187415 166.466319 
L 391.346496 207.556617 
L 391.528303 274.006643 
L 391.59161 257.224697 
L 391.942237 159.57244 
L 392.041257 155.429775 
L 392.088332 156.453361 
L 392.184105 165.479565 
L 392.338316 205.391314 
L 392.518499 270.607306 
L 392.581807 254.589667 
L 392.932433 158.643796 
L 393.01522 155.67904 
L 393.067165 156.826048 
L 393.167808 166.459058 
L 393.326889 207.538993 
L 393.508695 274.006727 
L 393.572003 257.244094 
L 393.92263 159.576474 
L 394.021649 155.429747 
L 394.070348 156.523068 
L 394.167744 165.967635 
L 394.323578 207.186659 
L 394.498892 270.607284 
L 394.560576 255.251145 
L 394.916073 158.419567 
L 394.995613 155.679071 
L 395.049181 156.898572 
L 395.151447 166.949475 
L 395.312151 209.325485 
L 395.489088 274.006784 
L 395.550772 257.917783 
L 395.906269 159.311887 
L 396.002042 155.429721 
L 396.05074 156.520911 
L 396.148137 165.960218 
L 396.303971 207.168652 
L 396.479284 270.607236 
L 396.540969 255.270051 
L 396.896465 158.422861 
L 396.977629 155.679077 
L 397.029574 156.89633 
L 397.13184 166.942029 
L 397.292544 209.307571 
L 397.469481 274.006814 
L 397.531165 257.93705 
L 397.886662 159.315788 
L 397.982435 155.429697 
L 398.031133 156.518756 
L 398.128529 165.952805 
L 398.284364 207.150648 
L 398.459677 270.607163 
L 398.487273 266.840675 
" style="fill:none;stroke:#1f77b4;stroke-linecap:square;stroke-width:1.5;"/>
   </g>
   <g id="patch_3">
    <path d="M 57.6 307.584 
L 57.6 41.472 
" style="fill:none;stroke:#000000;stroke-linecap:square;stroke-linejoin:miter;stroke-width:0.8;"/>
   </g>
   <g id="patch_4">
    <path d="M 414.72 307.584 
L 414.72 41.472 
" style="fill:none;stroke:#000000;stroke-linecap:square;stroke-linejoin:miter;stroke-width:0.8;"/>
   </g>
   <g id="patch_5">
    <path d="M 57.6 307.584 
L 414.72 307.584 
" style="fill:none;stroke:#000000;stroke-linecap:square;stroke-linejoin:miter;stroke-width:0.8;"/>
   </g>
   <g id="patch_6">
    <path d="M 57.6 41.472 
L 414.72 41.472 
" style="fill:none;stroke:#000000;stroke-linecap:square;stroke-linejoin:miter;stroke-width:0.8;"/>
   </g>
  </g>
 </g>
 <defs>
  <clipPath id="p9c60538f69">
   <rect height="266.112" width="357.12" x="57.6" y="41.472"/>
  </clipPath>
 </defs>
</svg>
