<?xml version="1.0" encoding="utf-8" standalone="no"?>
<!DOCTYPE svg PUBLIC "-//W3C//DTD SVG 1.1//EN"
  "http://www.w3.org/Graphics/SVG/1.1/DTD/svg11.dtd">
<!-- Created with matplotlib (https://matplotlib.org/) -->
<svg height="345.6pt" version="1.1" viewBox="0 0 460.8 345.6" width="460.8pt" xmlns="http://www.w3.org/2000/svg" xmlns:xlink="http://www.w3.org/1999/xlink">
 <metadata>
  <rdf:RDF xmlns:cc="http://creativecommons.org/ns#" xmlns:dc="http://purl.org/dc/elements/1.1/" xmlns:rdf="http://www.w3.org/1999/02/22-rdf-syntax-ns#">
   <cc:Work>
    <dc:type rdf:resource="http://purl.org/dc/dcmitype/StillImage"/>
    <dc:date>2020-07-25T22:49:48.079357</dc:date>
    <dc:format>image/svg+xml</dc:format>
    <dc:creator>
     <cc:Agent>
      <dc:title>Matplotlib v3.3.0, https://matplotlib.org/</dc:title>
     </cc:Agent>
    </dc:creator>
   </cc:Work>
  </rdf:RDF>
 </metadata>
 <defs>
  <style type="text/css">*{stroke-linecap:butt;stroke-linejoin:round;}</style>
 </defs>
 <g id="figure_1">
  <g id="patch_1">
   <path d="M 0 345.6 
L 460.8 345.6 
L 460.8 0 
L 0 0 
z
" style="fill:#ffffff;"/>
  </g>
  <g id="axes_1">
   <g id="patch_2">
    <path d="M 57.6 307.584 
L 414.72 307.584 
L 414.72 41.472 
L 57.6 41.472 
z
" style="fill:#ffffff;"/>
   </g>
   <g id="matplotlib.axis_1">
    <g id="xtick_1">
     <g id="line2d_1">
      <defs>
       <path d="M 0 0 
L 0 3.5 
" id="mafa9c8324c" style="stroke:#000000;stroke-width:0.8;"/>
      </defs>
      <g>
       <use style="stroke:#000000;stroke-width:0.8;" x="73.832727" xlink:href="#mafa9c8324c" y="307.584"/>
      </g>
     </g>
     <g id="text_1">
      <!-- $\mathdefault{0}$ -->
      <g transform="translate(71.34206 321.502498)scale(0.1 -0.1)">
       <defs>
        <path d="M 42 31.640625 
C 42 37.75 41.90625 48.125 37.703125 56.109375 
C 34 63.109375 28.09375 65.59375 22.90625 65.59375 
C 18.09375 65.59375 12 63.40625 8.203125 56.203125 
C 4.203125 48.71875 3.796875 39.4375 3.796875 31.640625 
C 3.796875 25.953125 3.90625 17.28125 7 9.671875 
C 11.296875 -0.609375 19 -2 22.90625 -2 
C 27.5 -2 34.5 -0.109375 38.59375 9.375 
C 41.59375 16.28125 42 24.359375 42 31.640625 
z
M 22.90625 -0.40625 
C 16.5 -0.40625 12.703125 5.078125 11.296875 12.6875 
C 10.203125 18.5625 10.203125 27.15625 10.203125 32.75 
C 10.203125 40.4375 10.203125 46.828125 11.5 52.921875 
C 13.40625 61.390625 19 64 22.90625 64 
C 27 64 32.296875 61.296875 34.203125 53.125 
C 35.5 47.4375 35.59375 40.734375 35.59375 32.75 
C 35.59375 26.25 35.59375 18.265625 34.40625 12.375 
C 32.296875 1.484375 26.40625 -0.40625 22.90625 -0.40625 
z
" id="CMR17-48"/>
       </defs>
       <use transform="scale(0.996264)" xlink:href="#CMR17-48"/>
      </g>
     </g>
    </g>
    <g id="xtick_2">
     <g id="line2d_2">
      <g>
       <use style="stroke:#000000;stroke-width:0.8;" x="114.414545" xlink:href="#mafa9c8324c" y="307.584"/>
      </g>
     </g>
     <g id="text_2">
      <!-- $\mathdefault{25000}$ -->
      <g transform="translate(101.961207 321.502498)scale(0.1 -0.1)">
       <defs>
        <path d="M 41.703125 15.453125 
L 39.90625 15.453125 
C 38.90625 8.375 38.09375 7.171875 37.703125 6.5625 
C 37.203125 5.765625 30 5.765625 28.59375 5.765625 
L 9.40625 5.765625 
C 13 9.671875 20 16.75 28.5 24.953125 
C 34.59375 30.734375 41.703125 37.53125 41.703125 47.421875 
C 41.703125 59.21875 32.296875 66 21.796875 66 
C 10.796875 66 4.09375 56.3125 4.09375 47.34375 
C 4.09375 43.4375 7 42.9375 8.203125 42.9375 
C 9.203125 42.9375 12.203125 43.546875 12.203125 47.03125 
C 12.203125 50.109375 9.59375 51 8.203125 51 
C 7.59375 51 7 50.90625 6.59375 50.703125 
C 8.5 59.21875 14.296875 63.40625 20.40625 63.40625 
C 29.09375 63.40625 34.796875 56.515625 34.796875 47.421875 
C 34.796875 38.734375 29.703125 31.25 24 24.75 
L 4.09375 2.28125 
L 4.09375 0 
L 39.296875 0 
z
" id="CMR17-50"/>
        <path d="M 11.40625 57.6875 
C 12.40625 57.28125 16.5 56 20.703125 56 
C 30 56 35.09375 61.109375 38 64.0625 
C 38 64.953125 38 65.5 37.40625 65.5 
C 37.296875 65.5 37.09375 65.5 36.296875 65.046875 
C 32.796875 63.40625 28.703125 62.078125 23.703125 62.078125 
C 20.703125 62.078125 16.203125 62.484375 11.296875 64.671875 
C 10.203125 65.171875 10 65.171875 9.90625 65.171875 
C 9.40625 65.171875 9.296875 65.0625 9.296875 63.078125 
L 9.296875 34.421875 
C 9.296875 32.640625 9.296875 32.140625 10.296875 32.140625 
C 10.796875 32.140625 11 32.34375 11.5 33.03125 
C 14.703125 37.515625 19.09375 39.40625 24.09375 39.40625 
C 27.59375 39.40625 35.09375 37.21875 35.09375 20.140625 
C 35.09375 16.953125 35.09375 11.171875 32.09375 6.578125 
C 29.59375 2.484375 25.703125 0.390625 21.40625 0.390625 
C 14.796875 0.390625 8.09375 5 6.296875 12.71875 
C 6.703125 12.609375 7.5 12.421875 7.90625 12.421875 
C 9.203125 12.421875 11.703125 13.125 11.703125 16.21875 
C 11.703125 18.90625 9.796875 20 7.90625 20 
C 5.59375 20 4.09375 18.59375 4.09375 15.796875 
C 4.09375 7.09375 11 -2 21.59375 -2 
C 31.90625 -2 41.703125 6.875 41.703125 19.75 
C 41.703125 31.71875 33.90625 41 24.203125 41 
C 19.09375 41 14.796875 39.109375 11.40625 35.53125 
z
" id="CMR17-53"/>
       </defs>
       <use transform="scale(0.996264)" xlink:href="#CMR17-50"/>
       <use transform="translate(45.690477 0)scale(0.996264)" xlink:href="#CMR17-53"/>
       <use transform="translate(91.380954 0)scale(0.996264)" xlink:href="#CMR17-48"/>
       <use transform="translate(137.071431 0)scale(0.996264)" xlink:href="#CMR17-48"/>
       <use transform="translate(182.761908 0)scale(0.996264)" xlink:href="#CMR17-48"/>
      </g>
     </g>
    </g>
    <g id="xtick_3">
     <g id="line2d_3">
      <g>
       <use style="stroke:#000000;stroke-width:0.8;" x="154.996364" xlink:href="#mafa9c8324c" y="307.584"/>
      </g>
     </g>
     <g id="text_3">
      <!-- $\mathdefault{50000}$ -->
      <g transform="translate(142.543026 321.502498)scale(0.1 -0.1)">
       <use transform="scale(0.996264)" xlink:href="#CMR17-53"/>
       <use transform="translate(45.690477 0)scale(0.996264)" xlink:href="#CMR17-48"/>
       <use transform="translate(91.380954 0)scale(0.996264)" xlink:href="#CMR17-48"/>
       <use transform="translate(137.071431 0)scale(0.996264)" xlink:href="#CMR17-48"/>
       <use transform="translate(182.761908 0)scale(0.996264)" xlink:href="#CMR17-48"/>
      </g>
     </g>
    </g>
    <g id="xtick_4">
     <g id="line2d_4">
      <g>
       <use style="stroke:#000000;stroke-width:0.8;" x="195.578182" xlink:href="#mafa9c8324c" y="307.584"/>
      </g>
     </g>
     <g id="text_4">
      <!-- $\mathdefault{75000}$ -->
      <g transform="translate(183.124844 321.502498)scale(0.1 -0.1)">
       <defs>
        <path d="M 45.09375 61.578125 
L 45.09375 63.765625 
L 21.59375 63.765625 
C 9.90625 63.765625 9.703125 65.078125 9.296875 67 
L 7.5 67 
L 4.59375 48.34375 
L 6.40625 48.34375 
C 6.703125 50.234375 7.40625 55.3125 8.59375 57.203125 
C 9.203125 58 16.59375 58 18.296875 58 
L 40.296875 58 
L 29.203125 41.578125 
C 21.796875 30.53125 16.703125 15.609375 16.703125 2.578125 
C 16.703125 1.390625 16.703125 -2 20.296875 -2 
C 23.90625 -2 23.90625 1.390625 23.90625 2.671875 
L 23.90625 7.265625 
C 23.90625 23.5625 26.703125 34.3125 31.296875 41.1875 
z
" id="CMR17-55"/>
       </defs>
       <use transform="scale(0.996264)" xlink:href="#CMR17-55"/>
       <use transform="translate(45.690477 0)scale(0.996264)" xlink:href="#CMR17-53"/>
       <use transform="translate(91.380954 0)scale(0.996264)" xlink:href="#CMR17-48"/>
       <use transform="translate(137.071431 0)scale(0.996264)" xlink:href="#CMR17-48"/>
       <use transform="translate(182.761908 0)scale(0.996264)" xlink:href="#CMR17-48"/>
      </g>
     </g>
    </g>
    <g id="xtick_5">
     <g id="line2d_5">
      <g>
       <use style="stroke:#000000;stroke-width:0.8;" x="236.16" xlink:href="#mafa9c8324c" y="307.584"/>
      </g>
     </g>
     <g id="text_5">
      <!-- $\mathdefault{100000}$ -->
      <g transform="translate(221.215994 321.502498)scale(0.1 -0.1)">
       <defs>
        <path d="M 26.59375 63.40625 
C 26.59375 65.5 26.5 65.5 25.09375 65.5 
C 21.203125 61.1875 15.296875 59.796875 9.703125 59.796875 
C 9.40625 59.796875 8.90625 59.796875 8.796875 59.5 
C 8.703125 59.296875 8.703125 59.09375 8.703125 57 
C 11.796875 57 17 57.59375 21 59.984375 
L 21 7.203125 
C 21 3.6875 20.796875 2.5 12.203125 2.5 
L 9.203125 2.5 
L 9.203125 0 
C 14 0 19 0 23.796875 0 
C 28.59375 0 33.59375 0 38.40625 0 
L 38.40625 2.5 
L 35.40625 2.5 
C 26.796875 2.5 26.59375 3.59375 26.59375 7.15625 
z
" id="CMR17-49"/>
       </defs>
       <use transform="scale(0.996264)" xlink:href="#CMR17-49"/>
       <use transform="translate(45.690477 0)scale(0.996264)" xlink:href="#CMR17-48"/>
       <use transform="translate(91.380954 0)scale(0.996264)" xlink:href="#CMR17-48"/>
       <use transform="translate(137.071431 0)scale(0.996264)" xlink:href="#CMR17-48"/>
       <use transform="translate(182.761908 0)scale(0.996264)" xlink:href="#CMR17-48"/>
       <use transform="translate(228.452386 0)scale(0.996264)" xlink:href="#CMR17-48"/>
      </g>
     </g>
    </g>
    <g id="xtick_6">
     <g id="line2d_6">
      <g>
       <use style="stroke:#000000;stroke-width:0.8;" x="276.741818" xlink:href="#mafa9c8324c" y="307.584"/>
      </g>
     </g>
     <g id="text_6">
      <!-- $\mathdefault{125000}$ -->
      <g transform="translate(261.797812 321.502498)scale(0.1 -0.1)">
       <use transform="scale(0.996264)" xlink:href="#CMR17-49"/>
       <use transform="translate(45.690477 0)scale(0.996264)" xlink:href="#CMR17-50"/>
       <use transform="translate(91.380954 0)scale(0.996264)" xlink:href="#CMR17-53"/>
       <use transform="translate(137.071431 0)scale(0.996264)" xlink:href="#CMR17-48"/>
       <use transform="translate(182.761908 0)scale(0.996264)" xlink:href="#CMR17-48"/>
       <use transform="translate(228.452386 0)scale(0.996264)" xlink:href="#CMR17-48"/>
      </g>
     </g>
    </g>
    <g id="xtick_7">
     <g id="line2d_7">
      <g>
       <use style="stroke:#000000;stroke-width:0.8;" x="317.323636" xlink:href="#mafa9c8324c" y="307.584"/>
      </g>
     </g>
     <g id="text_7">
      <!-- $\mathdefault{150000}$ -->
      <g transform="translate(302.379631 321.502498)scale(0.1 -0.1)">
       <use transform="scale(0.996264)" xlink:href="#CMR17-49"/>
       <use transform="translate(45.690477 0)scale(0.996264)" xlink:href="#CMR17-53"/>
       <use transform="translate(91.380954 0)scale(0.996264)" xlink:href="#CMR17-48"/>
       <use transform="translate(137.071431 0)scale(0.996264)" xlink:href="#CMR17-48"/>
       <use transform="translate(182.761908 0)scale(0.996264)" xlink:href="#CMR17-48"/>
       <use transform="translate(228.452386 0)scale(0.996264)" xlink:href="#CMR17-48"/>
      </g>
     </g>
    </g>
    <g id="xtick_8">
     <g id="line2d_8">
      <g>
       <use style="stroke:#000000;stroke-width:0.8;" x="357.905455" xlink:href="#mafa9c8324c" y="307.584"/>
      </g>
     </g>
     <g id="text_8">
      <!-- $\mathdefault{175000}$ -->
      <g transform="translate(342.961449 321.502498)scale(0.1 -0.1)">
       <use transform="scale(0.996264)" xlink:href="#CMR17-49"/>
       <use transform="translate(45.690477 0)scale(0.996264)" xlink:href="#CMR17-55"/>
       <use transform="translate(91.380954 0)scale(0.996264)" xlink:href="#CMR17-53"/>
       <use transform="translate(137.071431 0)scale(0.996264)" xlink:href="#CMR17-48"/>
       <use transform="translate(182.761908 0)scale(0.996264)" xlink:href="#CMR17-48"/>
       <use transform="translate(228.452386 0)scale(0.996264)" xlink:href="#CMR17-48"/>
      </g>
     </g>
    </g>
    <g id="xtick_9">
     <g id="line2d_9">
      <g>
       <use style="stroke:#000000;stroke-width:0.8;" x="398.487273" xlink:href="#mafa9c8324c" y="307.584"/>
      </g>
     </g>
     <g id="text_9">
      <!-- $\mathdefault{200000}$ -->
      <g transform="translate(383.543267 321.502498)scale(0.1 -0.1)">
       <use transform="scale(0.996264)" xlink:href="#CMR17-50"/>
       <use transform="translate(45.690477 0)scale(0.996264)" xlink:href="#CMR17-48"/>
       <use transform="translate(91.380954 0)scale(0.996264)" xlink:href="#CMR17-48"/>
       <use transform="translate(137.071431 0)scale(0.996264)" xlink:href="#CMR17-48"/>
       <use transform="translate(182.761908 0)scale(0.996264)" xlink:href="#CMR17-48"/>
       <use transform="translate(228.452386 0)scale(0.996264)" xlink:href="#CMR17-48"/>
      </g>
     </g>
    </g>
   </g>
   <g id="matplotlib.axis_2">
    <g id="ytick_1">
     <g id="line2d_10">
      <defs>
       <path d="M 0 0 
L -3.5 0 
" id="mc0cbd20a76" style="stroke:#000000;stroke-width:0.8;"/>
      </defs>
      <g>
       <use style="stroke:#000000;stroke-width:0.8;" x="57.6" xlink:href="#mc0cbd20a76" y="296.012148"/>
      </g>
     </g>
     <g id="text_10">
      <!-- $\mathdefault{0.00}$ -->
      <g transform="translate(32.888586 299.471397)scale(0.1 -0.1)">
       <defs>
        <path d="M 18.40625 4.796875 
C 18.40625 7.6875 16 9.671875 13.59375 9.671875 
C 10.703125 9.671875 8.703125 7.28125 8.703125 4.890625 
C 8.703125 2 11.09375 0 13.5 0 
C 16.40625 0 18.40625 2.390625 18.40625 4.796875 
z
" id="CMMI12-58"/>
       </defs>
       <use transform="scale(0.996264)" xlink:href="#CMR17-48"/>
       <use transform="translate(45.690477 0)scale(0.996264)" xlink:href="#CMMI12-58"/>
       <use transform="translate(72.787654 0)scale(0.996264)" xlink:href="#CMR17-48"/>
       <use transform="translate(118.478131 0)scale(0.996264)" xlink:href="#CMR17-48"/>
      </g>
     </g>
    </g>
    <g id="ytick_2">
     <g id="line2d_11">
      <g>
       <use style="stroke:#000000;stroke-width:0.8;" x="57.6" xlink:href="#mc0cbd20a76" y="248.324813"/>
      </g>
     </g>
     <g id="text_11">
      <!-- $\mathdefault{0.05}$ -->
      <g transform="translate(32.888586 251.784062)scale(0.1 -0.1)">
       <use transform="scale(0.996264)" xlink:href="#CMR17-48"/>
       <use transform="translate(45.690477 0)scale(0.996264)" xlink:href="#CMMI12-58"/>
       <use transform="translate(72.787654 0)scale(0.996264)" xlink:href="#CMR17-48"/>
       <use transform="translate(118.478131 0)scale(0.996264)" xlink:href="#CMR17-53"/>
      </g>
     </g>
    </g>
    <g id="ytick_3">
     <g id="line2d_12">
      <g>
       <use style="stroke:#000000;stroke-width:0.8;" x="57.6" xlink:href="#mc0cbd20a76" y="200.637478"/>
      </g>
     </g>
     <g id="text_12">
      <!-- $\mathdefault{0.10}$ -->
      <g transform="translate(32.888586 204.096727)scale(0.1 -0.1)">
       <use transform="scale(0.996264)" xlink:href="#CMR17-48"/>
       <use transform="translate(45.690477 0)scale(0.996264)" xlink:href="#CMMI12-58"/>
       <use transform="translate(72.787654 0)scale(0.996264)" xlink:href="#CMR17-49"/>
       <use transform="translate(118.478131 0)scale(0.996264)" xlink:href="#CMR17-48"/>
      </g>
     </g>
    </g>
    <g id="ytick_4">
     <g id="line2d_13">
      <g>
       <use style="stroke:#000000;stroke-width:0.8;" x="57.6" xlink:href="#mc0cbd20a76" y="152.950143"/>
      </g>
     </g>
     <g id="text_13">
      <!-- $\mathdefault{0.15}$ -->
      <g transform="translate(32.888586 156.409392)scale(0.1 -0.1)">
       <use transform="scale(0.996264)" xlink:href="#CMR17-48"/>
       <use transform="translate(45.690477 0)scale(0.996264)" xlink:href="#CMMI12-58"/>
       <use transform="translate(72.787654 0)scale(0.996264)" xlink:href="#CMR17-49"/>
       <use transform="translate(118.478131 0)scale(0.996264)" xlink:href="#CMR17-53"/>
      </g>
     </g>
    </g>
    <g id="ytick_5">
     <g id="line2d_14">
      <g>
       <use style="stroke:#000000;stroke-width:0.8;" x="57.6" xlink:href="#mc0cbd20a76" y="105.262808"/>
      </g>
     </g>
     <g id="text_14">
      <!-- $\mathdefault{0.20}$ -->
      <g transform="translate(32.888586 108.722057)scale(0.1 -0.1)">
       <use transform="scale(0.996264)" xlink:href="#CMR17-48"/>
       <use transform="translate(45.690477 0)scale(0.996264)" xlink:href="#CMMI12-58"/>
       <use transform="translate(72.787654 0)scale(0.996264)" xlink:href="#CMR17-50"/>
       <use transform="translate(118.478131 0)scale(0.996264)" xlink:href="#CMR17-48"/>
      </g>
     </g>
    </g>
    <g id="ytick_6">
     <g id="line2d_15">
      <g>
       <use style="stroke:#000000;stroke-width:0.8;" x="57.6" xlink:href="#mc0cbd20a76" y="57.575473"/>
      </g>
     </g>
     <g id="text_15">
      <!-- $\mathdefault{0.25}$ -->
      <g transform="translate(32.888586 61.034723)scale(0.1 -0.1)">
       <use transform="scale(0.996264)" xlink:href="#CMR17-48"/>
       <use transform="translate(45.690477 0)scale(0.996264)" xlink:href="#CMMI12-58"/>
       <use transform="translate(72.787654 0)scale(0.996264)" xlink:href="#CMR17-50"/>
       <use transform="translate(118.478131 0)scale(0.996264)" xlink:href="#CMR17-53"/>
      </g>
     </g>
    </g>
   </g>
   <g id="line2d_16">
    <path clip-path="url(#pdb26f9a484)" d="M 73.832727 133.875209 
L 74.258025 133.962188 
L 74.277504 137.14134 
L 74.331072 170.013794 
L 74.383017 135.478184 
L 74.407366 133.162565 
L 74.452817 141.005784 
L 74.524241 150.948841 
L 74.556707 140.467546 
L 74.577809 134.209031 
L 74.671959 137.60741 
L 74.792081 139.148521 
L 74.793705 139.090923 
L 74.860259 140.313214 
L 74.886231 138.182058 
L 74.986874 128.332438 
L 75.025833 132.833449 
L 75.092387 137.098131 
L 75.152448 135.128969 
L 75.154071 135.131554 
L 75.158941 134.969855 
L 75.160564 134.985126 
L 75.171927 134.816688 
L 75.241728 136.267012 
L 75.243351 136.252964 
L 75.264454 136.552912 
L 75.305036 135.961488 
L 75.355357 136.363831 
L 75.379706 136.242329 
L 75.44626 136.608929 
L 75.457623 136.556332 
L 75.459247 136.58167 
L 75.511191 135.681335 
L 75.564759 134.975576 
L 75.615081 135.976492 
L 75.683258 138.065762 
L 75.835846 137.940954 
L 75.921879 137.612774 
L 75.858572 138.052953 
L 75.957591 137.886282 
L 76.228678 141.804574 
L 76.283869 142.535336 
L 76.486778 144.638172 
L 76.881233 152.861281 
L 77.012719 155.40059 
L 78.321076 205.648017 
L 79.095377 261.898345 
L 79.441135 294.291182 
L 79.510935 288.952585 
L 81.272186 141.716257 
L 81.746182 123.92139 
L 82.186089 113.186923 
L 83.32238 99.3847 
L 83.528535 98.656953 
L 83.685993 97.968564 
L 83.785012 98.212776 
L 83.939223 98.664195 
L 84.348288 102.077841 
L 84.870982 108.320697 
L 85.494319 118.198425 
L 86.094929 131.742803 
L 86.731252 152.010534 
L 87.497437 183.466325 
L 88.529839 223.925455 
L 89.093114 238.179259 
L 89.674246 247.158144 
L 90.063831 250.116021 
L 90.284596 250.525268 
L 90.294336 250.521374 
L 90.420951 250.196731 
L 90.755345 248.111518 
L 91.144931 243.44622 
L 91.703337 233.329594 
L 92.346153 216.391113 
L 93.284404 191.580745 
L 93.709702 185.952742 
L 94.295703 181.352498 
L 94.893068 178.101542 
L 95.157661 177.718052 
L 95.259927 177.79589 
L 95.526144 178.506429 
L 96.569908 183.171069 
L 96.871837 185.414265 
L 97.177012 189.517 
L 97.594193 198.278159 
L 98.722368 223.00861 
L 99.246685 229.869478 
L 99.537251 231.426536 
L 99.647633 231.503427 
L 99.684969 231.463678 
L 99.793728 231.141504 
L 100.024233 229.539641 
L 100.72711 223.623297 
L 100.754705 223.643104 
L 100.840739 223.901298 
L 101.014429 225.3223 
L 101.408884 230.957201 
L 101.728669 233.886394 
L 101.80334 233.992935 
L 101.855284 233.91515 
L 101.985146 233.182059 
L 102.214028 230.230554 
L 102.593873 222.024081 
L 104.045079 188.797345 
L 104.347008 185.935436 
L 104.402199 185.87404 
L 104.454144 185.966853 
L 104.575889 186.757215 
L 104.788538 189.88498 
L 105.697571 205.073914 
L 105.819316 205.323204 
L 105.858275 205.284237 
L 105.973527 204.820161 
L 106.153711 202.999025 
L 106.457263 197.203737 
L 107.163386 183.474192 
L 107.387398 182.482654 
L 107.460445 182.541886 
L 107.470185 182.56339 
L 107.60654 183.198012 
L 107.814319 185.448287 
L 108.088652 191.298593 
L 108.496093 205.648194 
L 109.332079 235.037641 
L 109.582063 237.69118 
L 109.611281 237.706812 
L 109.65511 237.608072 
L 109.758999 236.767516 
L 109.932689 233.267262 
L 110.171311 223.228131 
L 110.541417 196.128727 
L 110.898537 176.524976 
L 110.950481 176.147624 
L 111.004049 176.575221 
L 111.120925 180.144946 
L 111.549469 199.085667 
L 111.632256 197.758357 
L 111.778351 189.4573 
L 112.081903 170.933804 
L 112.122484 171.567263 
L 112.213388 177.944041 
L 112.390324 209.932453 
L 112.706863 292.531191 
L 112.773417 274.474684 
L 113.278255 145.030521 
L 113.521745 129.094749 
L 113.602909 133.245925 
L 113.719785 158.713614 
L 113.956783 242.40823 
L 114.026583 223.774721 
L 114.378833 110.086808 
L 114.606092 75.110672 
L 114.646673 77.347943 
L 114.74894 101.908981 
L 115.031389 186.531277 
L 115.08658 176.854286 
L 115.468049 81.463105 
L 115.705047 53.568 
L 115.763485 60.634205 
L 115.911203 128.068266 
L 116.005353 156.232388 
L 116.057297 145.105388 
L 116.235857 89.477836 
L 116.304035 90.666216 
L 116.370589 91.247333 
L 116.422534 90.839808 
L 116.532916 87.327041 
L 116.638429 84.084889 
L 116.690374 85.146191 
L 116.765044 93.050532 
L 116.87705 137.477688 
L 117.013405 199.438016 
L 117.068596 185.645636 
L 117.388381 88.947703 
L 117.531229 85.896009 
L 117.565318 86.009194 
L 117.641612 87.329992 
L 117.730892 93.024282 
L 117.821795 120.098269 
L 117.976006 199.408304 
L 118.044183 175.805068 
L 118.307153 85.907324 
L 118.532788 83.297234 
L 118.563631 83.483833 
L 118.612329 85.674454 
L 118.678883 103.181305 
L 118.849327 201.31705 
L 118.927244 169.898337 
L 119.175604 70.294569 
L 119.19346 70.7006 
L 119.328192 81.754474 
L 119.531101 103.911138 
L 119.657716 184.738292 
L 119.755113 247.254628 
L 119.810304 221.002473 
L 120.087884 95.479264 
L 120.167424 91.326884 
L 120.227485 91.777211 
L 120.311895 93.633578 
L 120.383319 104.81688 
L 120.509935 169.149875 
L 120.644666 282.793634 
L 120.706351 234.013014 
L 120.961204 103.395437 
L 121.126778 94.090052 
L 121.134895 94.108699 
L 121.170607 94.859893 
L 121.243654 102.539182 
L 121.35566 142.537787 
L 121.52935 295.488 
L 121.60402 222.313483 
L 121.837772 111.034789 
L 121.905949 107.617495 
L 121.964387 109.334495 
L 122.084509 122.024652 
L 122.225734 166.35754 
L 122.405917 279.998126 
L 122.477341 235.969297 
L 122.727325 136.423695 
L 122.821475 131.357929 
L 122.871796 132.522265 
L 122.965946 142.216023 
L 123.103924 184.536512 
L 123.272745 273.065645 
L 123.340922 243.260417 
L 123.603892 153.645516 
L 123.680186 150.218218 
L 123.733754 151.804605 
L 123.837644 164.511051 
L 123.998348 217.420985 
L 124.134703 276.623244 
L 124.19314 257.668683 
L 124.490199 169.320446 
L 124.566493 165.987463 
L 124.618438 167.619034 
L 124.719081 181.144112 
L 124.892771 241.815598 
L 124.988544 275.686727 
L 125.043735 260.223076 
L 125.352157 176.811622 
L 125.408972 175.092166 
L 125.46254 176.720771 
L 125.564806 189.675065 
L 125.738496 246.422749 
L 125.837516 283.363929 
L 125.892707 266.049773 
L 126.197882 181.229348 
L 126.277423 177.977769 
L 126.329367 179.460713 
L 126.428387 191.833967 
L 126.595584 247.313882 
L 126.689734 282.762256 
L 126.744925 264.615892 
L 127.043607 179.781137 
L 127.129641 176.155154 
L 127.179962 177.514961 
L 127.277359 189.032035 
L 127.438063 240.56841 
L 127.548445 287.077084 
L 127.603636 266.024895 
L 127.899072 178.309367 
L 128.004585 172.665016 
L 128.05166 173.889378 
L 128.144186 184.954107 
L 128.30002 236.599535 
L 128.412026 284.299132 
L 128.468841 263.311129 
L 128.762653 175.190716 
L 128.858426 170.392894 
L 128.907124 171.705698 
L 129.002897 183.270753 
L 129.161978 235.713557 
L 129.277231 286.385879 
L 129.334045 264.593967 
L 129.629481 174.202169 
L 129.731747 168.544248 
L 129.778822 169.81535 
L 129.872972 181.361878 
L 130.032052 234.856595 
L 130.144058 282.642585 
L 130.200873 262.513222 
L 130.496308 172.585238 
L 130.585588 168.310041 
L 130.63591 169.701992 
L 130.733306 181.562499 
L 130.89401 234.353419 
L 131.010886 284.464221 
L 131.0677 263.323013 
L 131.363136 173.286072 
L 131.462156 168.20904 
L 131.509231 169.502387 
L 131.60338 180.867939 
L 131.760838 232.928791 
L 131.87609 281.419644 
L 131.932905 261.75849 
L 132.22834 173.107575 
L 132.315997 169.060806 
L 132.367942 170.515232 
L 132.466961 182.815566 
L 132.630912 237.765979 
L 132.741295 284.164914 
L 132.796486 263.951333 
L 133.093545 174.401431 
L 133.192564 169.25639 
L 133.241263 170.624369 
L 133.337036 182.67922 
L 133.499363 238.21467 
L 133.604876 281.383183 
L 133.660067 262.652972 
L 133.958749 173.861025 
L 134.044783 169.928968 
L 134.096727 171.415148 
L 134.195747 183.887282 
L 134.361321 239.667454 
L 134.468457 284.48307 
L 134.523648 264.611298 
L 134.82233 174.850768 
L 134.919727 169.855364 
L 134.968425 171.240195 
L 135.064198 183.291447 
L 135.226525 238.487162 
L 135.332038 281.706411 
L 135.387229 263.000516 
L 135.685911 174.14245 
L 135.771945 170.265713 
L 135.822266 171.661942 
L 135.919663 183.501891 
L 136.08199 236.72424 
L 136.195619 284.803433 
L 136.252433 264.010516 
L 136.549492 174.968705 
L 136.646889 169.946224 
L 136.695587 171.275548 
L 136.789737 182.846426 
L 136.948817 236.035003 
L 137.0592 281.905446 
L 137.116015 262.391077 
L 137.41145 174.259157 
L 137.50073 170.114473 
L 137.551052 171.525029 
L 137.648448 183.452987 
L 137.810775 237.048598 
L 137.922781 284.828919 
L 137.979596 264.300069 
L 138.276655 174.843693 
L 138.375674 169.67084 
L 138.424372 171.032447 
L 138.520145 183.059767 
L 138.682473 238.473499 
L 138.787985 281.840156 
L 138.843177 262.848484 
L 139.141859 173.829852 
L 139.227892 169.892056 
L 139.279837 171.355881 
L 139.378857 183.729103 
L 139.542807 238.635598 
L 139.651567 284.743225 
L 139.708381 264.070473 
L 140.00544 174.669343 
L 140.10446 169.591011 
L 140.151535 170.909351 
L 140.245684 182.467768 
L 140.404765 235.608831 
L 140.516771 281.786028 
L 140.571962 262.61252 
L 140.869021 173.929228 
L 140.956678 169.909852 
L 141.006999 171.310786 
L 141.104396 183.191566 
L 141.266723 236.631267 
L 141.380352 284.710852 
L 141.437167 263.790966 
L 141.732602 174.832766 
L 141.831622 169.637212 
L 141.88032 170.977524 
L 141.976093 182.921963 
L 142.136797 237.396729 
L 142.243933 281.775407 
L 142.300748 262.326135 
L 142.597807 173.925817 
L 142.685463 169.941775 
L 142.735785 171.369859 
L 142.834804 183.655928 
L 142.998755 238.427477 
L 143.109137 284.698198 
L 143.164329 264.280946 
L 143.461388 174.788246 
L 143.560407 169.652521 
L 143.609105 171.032574 
L 143.704879 183.081584 
L 143.867206 238.471591 
L 143.972719 281.78154 
L 144.02791 262.812523 
L 144.324969 174.024159 
L 144.412625 169.960584 
L 144.462947 171.339442 
L 144.560343 183.177456 
L 144.722671 236.520806 
L 144.8363 284.721381 
L 144.893114 263.978011 
L 145.190173 174.732148 
L 145.287569 169.673438 
L 145.336268 170.999387 
L 145.430417 182.581309 
L 145.591121 236.525846 
L 145.701504 281.791605 
L 145.756695 262.496393 
L 146.053754 173.974139 
L 146.141411 169.969516 
L 146.191732 171.382046 
L 146.289129 183.301953 
L 146.451456 236.819492 
L 146.565085 284.72671 
L 146.620276 264.432921 
L 146.917335 174.83125 
L 147.016355 169.664835 
L 147.065053 171.024534 
L 147.160826 183.020229 
L 147.323153 238.327258 
L 147.428666 281.797222 
L 147.485481 262.187879 
L 147.780916 174.053212 
L 147.870196 169.954403 
L 147.920518 171.403694 
L 148.019537 183.736571 
L 148.183488 238.581823 
L 148.292247 284.72203 
L 148.349062 264.132855 
L 148.646121 174.754107 
L 148.74514 169.654775 
L 148.792215 170.960306 
L 148.886365 182.495445 
L 149.045446 235.612162 
L 149.157452 281.79155 
L 149.212643 262.662124 
L 149.509702 173.989941 
L 149.597359 169.953047 
L 149.64768 171.347021 
L 149.745076 183.222018 
L 149.907404 236.647686 
L 150.021033 284.724627 
L 150.077847 263.831137 
L 150.374906 174.692435 
L 150.472303 169.658398 
L 150.521001 170.998886 
L 150.616774 182.943437 
L 150.777478 237.397935 
L 150.884614 281.789851 
L 150.941428 262.359842 
L 151.238487 173.936077 
L 151.326144 169.955206 
L 151.376465 171.384016 
L 151.475485 183.664346 
L 151.639436 238.413869 
L 151.749818 284.716741 
L 151.805009 264.304274 
L 152.102068 174.795085 
L 152.201088 169.65786 
L 152.249786 171.03437 
L 152.345559 183.071049 
L 152.507887 238.44721 
L 152.613399 281.792481 
L 152.668591 262.830317 
L 152.965649 174.02615 
L 153.053306 169.954862 
L 153.105251 171.420809 
L 153.204271 183.7919 
L 153.368221 238.704381 
L 153.47698 284.723172 
L 153.533795 264.002195 
L 153.830854 174.729715 
L 153.92825 169.659231 
L 153.976948 170.979708 
L 154.071098 182.552286 
L 154.231802 236.486465 
L 154.342185 281.78806 
L 154.397376 262.529695 
L 154.694435 173.968759 
L 154.782092 169.956298 
L 154.832413 171.365461 
L 154.929809 183.27812 
L 155.092137 236.776835 
L 155.205766 284.722923 
L 155.260957 264.47438 
L 155.558016 174.832331 
L 155.657036 169.659571 
L 155.705734 171.015982 
L 155.801507 183.001386 
L 155.963834 238.283349 
L 156.069347 281.792823 
L 156.126161 262.227508 
L 156.421597 174.059826 
L 156.510877 169.955769 
L 156.561199 171.400994 
L 156.660218 183.721592 
L 156.824169 238.543217 
L 156.932928 284.720018 
L 156.989743 264.170445 
L 157.286801 174.766088 
L 157.385821 169.658601 
L 157.432896 170.959189 
L 157.527046 182.481916 
L 157.686127 235.578374 
L 157.798132 281.792117 
L 157.853324 262.69719 
L 158.150383 174.0005 
L 158.238039 169.955256 
L 158.288361 171.344151 
L 158.385757 183.208379 
L 158.548084 236.616262 
L 158.661713 284.724479 
L 158.718528 263.866964 
L 159.015587 174.701161 
L 159.112983 169.658888 
L 159.161681 170.9952 
L 159.257455 182.929935 
L 159.418159 237.365407 
L 159.525295 281.789028 
L 159.582109 262.396179 
L 159.879168 173.942771 
L 159.966825 169.955549 
L 160.017146 171.380605 
L 160.116166 183.65129 
L 160.280116 238.380675 
L 160.390499 284.718723 
L 160.44569 264.340285 
L 160.742749 174.802741 
L 160.841769 169.658769 
L 160.890467 171.031301 
L 160.98624 183.057245 
L 161.148567 238.413048 
L 161.25408 281.793396 
L 161.309271 262.86502 
L 161.607953 173.885031 
L 161.693987 169.95566 
L 161.745932 171.417094 
L 161.844951 183.777211 
L 162.008902 238.670786 
L 162.117661 284.723166 
L 162.174476 264.03666 
L 162.471535 174.737454 
L 162.570554 169.659002 
L 162.617629 170.975092 
L 162.711779 182.53706 
L 162.87086 235.706518 
L 162.982865 281.789187 
L 163.038057 262.564424 
L 163.335116 173.975099 
L 163.422772 169.955449 
L 163.473094 171.360279 
L 163.57049 183.262906 
L 163.732817 236.743039 
L 163.846447 284.723226 
L 163.903261 263.732741 
L 164.198697 174.839257 
L 164.297716 169.658857 
L 164.346415 171.011137 
L 164.442188 182.986104 
L 164.604515 238.248223 
L 164.710028 281.792034 
L 164.766842 262.263281 
L 165.063901 173.917274 
L 165.151558 169.955601 
L 165.201879 171.396691 
L 165.300899 183.706846 
L 165.464849 238.508727 
L 165.573609 284.718754 
L 165.630423 264.206298 
L 165.927482 174.773881 
L 166.026502 169.658838 
L 166.073577 170.955281 
L 166.167727 182.467352 
L 166.326807 235.544104 
L 166.438813 281.792625 
L 166.494004 262.732372 
L 166.791063 174.007658 
L 166.87872 169.955527 
L 166.929041 171.340075 
L 167.026438 183.193903 
L 167.188765 236.582708 
L 167.302394 284.724496 
L 167.359209 263.902509 
L 167.656268 174.708902 
L 167.753664 169.658927 
L 167.802362 170.990935 
L 167.896512 182.59228 
L 168.057216 236.581595 
L 168.165975 281.787895 
L 168.22279 262.431519 
L 168.519849 173.949512 
L 168.607505 169.955444 
L 168.657827 171.376267 
L 168.755223 183.317472 
L 168.917551 236.869876 
L 169.03118 284.719914 
L 169.086371 264.37604 
L 169.38343 174.810332 
L 169.482449 169.65877 
L 169.531148 171.027085 
L 169.626921 183.04236 
L 169.789248 238.378405 
L 169.894761 281.793353 
L 169.949952 262.900331 
L 170.248634 173.891796 
L 170.336291 169.955737 
L 170.386612 171.412878 
L 170.485632 183.76248 
L 170.649583 238.63674 
L 170.758342 284.722558 
L 170.815156 264.072239 
L 171.112215 174.745146 
L 171.211235 169.659009 
L 171.25831 170.970956 
L 171.35246 182.522403 
L 171.51154 235.672433 
L 171.623546 281.790152 
L 171.678737 262.599627 
L 171.975796 173.981946 
L 172.063453 169.955444 
L 172.113775 171.355994 
L 172.211171 183.248361 
L 172.373498 236.70939 
L 172.487127 284.723752 
L 172.543942 263.768366 
L 172.839377 174.846908 
L 172.938397 169.658807 
L 172.987095 171.006831 
L 173.082868 182.971131 
L 173.245196 238.213632 
L 173.350708 281.79137 
L 173.407523 262.298636 
L 173.704582 173.923988 
L 173.792239 169.955521 
L 173.84256 171.392366 
L 173.94158 183.692076 
L 174.10553 238.474673 
L 174.214289 284.717381 
L 174.271104 264.241969 
L 174.568163 174.781509 
L 174.667183 169.65882 
L 174.715881 171.04319 
L 174.811654 183.098794 
L 174.973981 238.508668 
L 175.079494 281.793007 
L 175.134685 262.76765 
L 175.431744 174.014535 
L 175.519401 169.955602 
L 175.569722 171.335892 
L 175.667119 183.179459 
L 175.829446 236.549053 
L 175.943075 284.724365 
L 175.999889 263.938133 
L 176.296948 174.716521 
L 176.394345 169.658986 
L 176.443043 170.986728 
L 176.537193 182.577584 
L 176.697897 236.547319 
L 176.806656 281.786687 
L 176.863471 262.466813 
L 177.160529 173.956313 
L 177.248186 169.955425 
L 177.298508 171.371988 
L 177.395904 183.302937 
L 177.558231 236.836174 
L 177.67186 284.720983 
L 177.727052 264.411678 
L 178.024111 174.817991 
L 178.12313 169.658757 
L 178.171828 171.022814 
L 178.267601 183.027388 
L 178.429929 238.343794 
L 178.535441 281.793158 
L 178.590633 262.935601 
L 178.889315 173.898538 
L 178.976972 169.955681 
L 179.027293 171.408563 
L 179.126313 183.747686 
L 179.290263 238.602695 
L 179.399023 284.721741 
L 179.455837 264.107882 
L 179.752896 174.752773 
L 179.851916 169.658966 
L 179.898991 170.966793 
L 179.99314 182.507766 
L 180.152221 235.63831 
L 180.264227 281.790979 
L 180.319418 262.634908 
L 180.616477 173.988784 
L 180.704134 169.95547 
L 180.754455 171.351764 
L 180.851852 183.233876 
L 181.014179 236.675715 
L 181.127808 284.724151 
L 181.184623 263.804008 
L 181.481681 174.68798 
L 181.579078 169.658831 
L 181.627776 171.002592 
L 181.723549 182.956197 
L 181.885876 238.179058 
L 181.991389 281.790609 
L 182.048204 262.333954 
L 182.345263 173.93076 
L 182.432919 169.955484 
L 182.483241 171.38807 
L 182.58226 183.677315 
L 182.746211 238.440661 
L 182.856593 284.716193 
L 182.911785 264.277609 
L 183.208844 174.789155 
L 183.307863 169.658794 
L 183.356561 171.038898 
L 183.452335 183.083784 
L 183.614662 238.474036 
L 183.720175 281.793262 
L 183.775366 262.802924 
L 184.072425 174.021393 
L 184.160081 169.955654 
L 184.210403 171.331694 
L 184.307799 183.165021 
L 184.470127 236.515403 
L 184.583756 284.724083 
L 184.64057 263.973776 
L 184.937629 174.724124 
L 185.035025 169.659045 
L 185.083724 170.982531 
L 185.177873 182.562907 
L 185.338577 236.513036 
L 185.44896 281.787268 
L 185.504151 262.502113 
L 185.80121 173.963121 
L 185.888867 169.955423 
L 185.939188 171.367728 
L 186.036585 183.288419 
L 186.198912 236.802472 
L 186.312541 284.721916 
L 186.367732 264.447306 
L 186.664791 174.825668 
L 186.763811 169.65876 
L 186.812509 171.018553 
L 186.908282 183.012422 
L 187.070609 238.309194 
L 187.176122 281.792846 
L 187.232937 262.201049 
L 187.528372 174.054139 
L 187.617652 169.955628 
L 187.667974 171.404247 
L 187.766993 183.732894 
L 187.930944 238.568661 
L 188.039703 284.720778 
L 188.096518 264.143522 
L 188.393577 174.760401 
L 188.492596 169.658919 
L 188.539671 170.962628 
L 188.633821 182.493135 
L 188.792902 235.604192 
L 188.904908 281.791682 
L 188.960099 262.670193 
L 189.257158 173.99562 
L 189.344815 169.955499 
L 189.395136 171.347538 
L 189.492532 183.219401 
L 189.65486 236.642043 
L 189.768489 284.724405 
L 189.825303 263.839655 
L 190.122362 174.695559 
L 190.219759 169.658864 
L 190.268457 170.998367 
L 190.36423 182.941276 
L 190.524934 237.391836 
L 190.63207 281.789731 
L 190.688884 262.369268 
L 190.985943 173.937543 
L 191.0736 169.95546 
L 191.123921 171.383786 
L 191.222941 183.662565 
L 191.386892 238.406658 
L 191.497274 284.717663 
L 191.552465 264.313242 
L 191.849524 174.79681 
L 191.948544 169.658775 
L 191.997242 171.034613 
L 192.093015 183.068782 
L 192.255343 238.439413 
L 192.360855 281.793399 
L 192.416047 262.838191 
L 192.713105 174.028257 
L 192.800762 169.95571 
L 192.852707 171.420519 
L 192.951727 183.788602 
L 193.115677 238.696747 
L 193.224436 284.723658 
L 193.281251 264.009419 
L 193.57831 174.73173 
L 193.675706 169.659109 
L 193.724404 170.978339 
L 193.818554 182.548239 
L 193.979258 236.478757 
L 194.089641 281.788419 
L 194.144832 262.537411 
L 194.441891 173.969933 
L 194.529548 169.955428 
L 194.579869 171.363476 
L 194.677265 183.27391 
L 194.839593 236.768775 
L 194.953222 284.722707 
L 195.010036 263.705521 
L 195.305472 174.833352 
L 195.404492 169.65877 
L 195.45319 171.014302 
L 195.548963 182.997466 
L 195.71129 238.2746 
L 195.816803 281.792416 
L 195.873617 262.236376 
L 196.169053 174.061032 
L 196.258333 169.955581 
L 196.308655 171.399938 
L 196.407674 183.71811 
L 196.571625 238.534634 
L 196.680384 284.719673 
L 196.737199 264.17916 
L 197.034257 174.768034 
L 197.133277 169.658877 
L 197.180352 170.958469 
L 197.274502 182.478513 
L 197.433583 235.570081 
L 197.545588 281.792266 
L 197.60078 262.705474 
L 197.897839 174.002461 
L 197.985495 169.955532 
L 198.035817 171.343318 
L 198.133213 183.204936 
L 198.29554 236.608376 
L 198.409169 284.724517 
L 198.465984 263.875302 
L 198.763043 174.703142 
L 198.860439 169.658904 
L 198.909137 170.994149 
L 199.003287 182.603478 
L 199.163991 236.607767 
L 199.272751 281.788734 
L 199.329565 262.404579 
L 199.626624 173.944333 
L 199.714281 169.955442 
L 199.764602 171.379509 
L 199.863622 183.647825 
L 200.027572 238.372661 
L 200.137955 284.71899 
L 200.193146 264.348874 
L 200.490205 174.804472 
L 200.589225 169.658762 
L 200.637923 171.030335 
L 200.733696 183.05379 
L 200.896023 238.404797 
L 201.001536 281.793416 
L 201.056727 262.873455 
L 201.355409 173.886646 
L 201.443066 169.955787 
L 201.493388 171.416185 
L 201.592407 183.773784 
L 201.756358 238.662697 
L 201.865117 284.723089 
L 201.921932 264.045062 
L 202.218991 174.739342 
L 202.31801 169.659066 
L 202.365085 170.974154 
L 202.459235 182.533581 
L 202.618316 235.69846 
L 202.730321 281.78945 
L 202.785513 262.572705 
L 203.082572 173.976752 
L 203.170228 169.955439 
L 203.22055 171.359231 
L 203.317946 183.259411 
L 203.480273 236.735084 
L 203.593903 284.723356 
L 203.650717 263.741171 
L 203.946153 174.841042 
L 204.045172 169.658787 
L 204.093871 171.010057 
L 204.189644 182.982519 
L 204.351971 238.240011 
L 204.457484 281.791867 
L 204.514298 262.271699 
L 204.811357 173.918818 
L 204.899014 169.95554 
L 204.949335 171.395636 
L 205.048355 183.703335 
L 205.212305 238.500613 
L 205.321065 284.718426 
L 205.377879 264.214797 
L 205.674938 174.775674 
L 205.773958 169.658841 
L 205.822656 171.046467 
L 205.918429 183.11025 
L 206.080756 238.535076 
L 206.186269 281.792732 
L 206.24146 262.740752 
L 206.538519 174.009308 
L 206.626176 169.955571 
L 206.676497 171.339104 
L 206.773894 183.19048 
L 206.936221 236.574716 
L 207.04985 284.724486 
L 207.106665 263.910948 
L 207.403724 174.710732 
L 207.50112 169.65895 
L 207.549818 170.989937 
L 207.643968 182.588784 
L 207.804672 236.573471 
L 207.913431 281.787619 
L 207.970246 262.439886 
L 208.267305 173.951128 
L 208.354961 169.95543 
L 208.405283 171.375239 
L 208.502679 183.314014 
L 208.665007 236.861884 
L 208.778636 284.720175 
L 208.833827 264.384505 
L 209.130886 174.812139 
L 209.229905 169.658756 
L 209.278604 171.026064 
L 209.374377 183.038808 
L 209.536704 238.370186 
L 209.642217 281.793315 
L 209.697408 262.908714 
L 209.99609 173.893389 
L 210.083747 169.955724 
L 210.134068 171.411858 
L 210.233088 183.758975 
L 210.397039 238.628653 
L 210.505798 284.722379 
L 210.562612 264.080703 
L 210.859671 174.746959 
L 210.958691 169.659007 
L 211.005766 170.969976 
L 211.099916 182.518932 
L 211.258996 235.664332 
L 211.371002 281.790363 
L 211.426193 262.607996 
L 211.723252 173.983576 
L 211.810909 169.955455 
L 211.861231 171.354993 
L 211.958627 183.244921 
L 212.120954 236.7014 
L 212.234583 284.723861 
L 212.291398 263.77682 
L 212.586833 174.848738 
L 212.685853 169.658809 
L 212.734551 171.005819 
L 212.830324 182.967581 
L 212.992652 238.205428 
L 213.098164 281.791199 
L 213.154979 262.307019 
L 213.452038 173.925591 
L 213.539695 169.955506 
L 213.590016 171.391341 
L 213.689036 183.68857 
L 213.852986 238.466598 
L 213.961745 284.717036 
L 214.01856 264.250433 
L 214.315619 174.783319 
L 214.414639 169.658812 
L 214.463337 171.04217 
L 214.55911 183.095231 
L 214.721437 238.500444 
L 214.82695 281.793078 
L 214.882141 262.776026 
L 215.1792 174.016162 
L 215.266857 169.955616 
L 215.317178 171.334898 
L 215.414575 183.176033 
L 215.576902 236.541063 
L 215.690531 284.724312 
L 215.747345 263.946593 
L 216.044404 174.718328 
L 216.141801 169.659002 
L 216.190499 170.985733 
L 216.284649 182.5741 
L 216.445353 236.539182 
L 216.554112 281.786384 
L 216.610927 262.475191 
L 216.907985 173.95793 
L 216.995642 169.955424 
L 217.045964 171.370975 
L 217.14336 183.299489 
L 217.305687 236.828175 
L 217.419316 284.721217 
L 217.474508 264.420135 
L 217.771567 174.819813 
L 217.870586 169.658756 
L 217.919284 171.0218 
L 218.015057 183.023834 
L 218.177385 238.335581 
L 218.282897 281.793094 
L 218.338089 262.94397 
L 218.636771 173.900139 
L 218.724428 169.955667 
L 218.774749 171.407538 
L 218.873769 183.744175 
L 219.037719 238.594615 
L 219.146479 284.721525 
L 219.203293 264.116343 
L 219.500352 174.754583 
L 219.599372 169.658955 
L 219.646447 170.965805 
L 219.740596 182.504293 
L 219.899677 235.63021 
L 220.011683 281.791157 
L 220.066874 262.643284 
L 220.363933 173.990407 
L 220.45159 169.955478 
L 220.501911 171.350761 
L 220.599308 183.230439 
L 220.761635 236.667722 
L 220.875264 284.724224 
L 220.932079 263.812469 
L 221.229137 174.689779 
L 221.326534 169.658838 
L 221.375232 171.001589 
L 221.471005 182.952654 
L 221.631709 237.418102 
L 221.738845 281.790411 
L 221.79566 262.342336 
L 222.092719 173.932369 
L 222.180375 169.955478 
L 222.230697 171.387052 
L 222.329716 183.673813 
L 222.493667 238.43259 
L 222.604049 284.716555 
L 222.659241 264.286067 
L 222.9563 174.790971 
L 223.055319 169.658788 
L 223.104017 171.03788 
L 223.199791 183.080222 
L 223.362118 238.465817 
L 223.467631 281.793305 
L 223.522822 262.811296 
L 223.819881 174.023021 
L 223.907537 169.955667 
L 223.957859 171.330697 
L 224.055255 183.161595 
L 224.217583 236.507416 
L 224.331212 284.723995 
L 224.388026 263.982237 
L 224.685085 174.725929 
L 224.782481 169.65906 
L 224.83118 170.981536 
L 224.925329 182.559425 
L 225.086033 236.504898 
L 225.196416 281.787552 
L 225.251607 262.510491 
L 225.548666 173.964737 
L 225.636323 169.955424 
L 225.686644 171.366718 
L 225.784041 183.284974 
L 225.946368 236.794473 
L 226.059997 284.722117 
L 226.115188 264.455763 
L 226.412247 174.827492 
L 226.511267 169.658761 
L 226.559965 171.017543 
L 226.655738 183.008871 
L 226.818065 238.300982 
L 226.923578 281.792755 
L 226.980393 262.209435 
L 227.275828 174.055774 
L 227.365108 169.955616 
L 227.41543 171.403224 
L 227.514449 183.729384 
L 227.6784 238.560583 
L 227.787159 284.720529 
L 227.843974 264.151982 
L 228.141033 174.762212 
L 228.240052 169.658908 
L 228.287127 170.96164 
L 228.381277 182.489664 
L 228.540358 235.596095 
L 228.652364 281.791832 
L 228.707555 262.678568 
L 229.004614 173.997243 
L 229.092271 169.955506 
L 229.142592 171.346536 
L 229.239988 183.215967 
L 229.402316 236.634051 
L 229.515945 284.724445 
L 229.572759 263.848116 
L 229.869818 174.697358 
L 229.967215 169.658873 
L 230.015913 170.997365 
L 230.111686 182.937736 
L 230.27239 237.383662 
L 230.379526 281.789505 
L 230.43634 262.37765 
L 230.733399 173.939154 
L 230.821056 169.955455 
L 230.871377 171.38277 
L 230.970397 183.659066 
L 231.134348 238.398588 
L 231.24473 284.717991 
L 231.299921 264.3217 
L 231.59698 174.798628 
L 231.696 169.658771 
L 231.744698 171.033597 
L 231.840471 183.065223 
L 232.002799 238.431196 
L 232.108311 281.793414 
L 232.163503 262.846562 
L 232.460561 174.029887 
L 232.548218 169.955724 
L 232.600163 171.41949 
L 232.699183 183.785084 
L 232.863133 238.688664 
L 232.971892 284.723536 
L 233.028707 264.01788 
L 233.325766 174.733536 
L 233.424785 169.659115 
L 233.47186 170.977345 
L 233.56601 182.544759 
L 233.726714 236.470621 
L 233.837097 281.788674 
L 233.892288 262.545789 
L 234.189347 173.971551 
L 234.277004 169.95543 
L 234.327325 171.362468 
L 234.424721 183.270468 
L 234.587049 236.760777 
L 234.700678 284.722874 
L 234.757492 263.713983 
L 235.052928 174.835177 
L 235.151948 169.658773 
L 235.200646 171.013294 
L 235.296419 182.993917 
L 235.458746 238.266389 
L 235.564259 281.792296 
L 235.621073 262.24476 
L 235.916509 174.062669 
L 236.005789 169.955571 
L 236.056111 171.398917 
L 236.15513 183.714602 
L 236.319081 238.526558 
L 236.42784 284.71939 
L 236.484655 264.187619 
L 236.781713 174.769847 
L 236.880733 169.658868 
L 236.927808 170.957483 
L 237.021958 182.475043 
L 237.181039 235.561985 
L 237.293044 281.792388 
L 237.348236 262.713848 
L 237.645295 174.004086 
L 237.732951 169.95554 
L 237.783273 171.342317 
L 237.880669 183.201504 
L 238.042996 236.600386 
L 238.156625 284.724522 
L 238.21344 263.883763 
L 238.510499 174.704943 
L 238.607895 169.658915 
L 238.656593 170.993149 
L 238.750743 182.599989 
L 238.911447 236.599626 
L 239.020207 281.78848 
L 239.077021 262.41296 
L 239.37408 173.945945 
L 239.461737 169.955439 
L 239.512058 171.378495 
L 239.611078 183.644327 
L 239.775028 238.364592 
L 239.885411 284.719284 
L 239.940602 264.357332 
L 240.237661 174.806291 
L 240.336681 169.65876 
L 240.385379 171.029321 
L 240.481152 183.050233 
L 240.643479 238.396581 
L 240.748992 281.793403 
L 240.804183 262.881825 
L 241.102865 173.888246 
L 241.190522 169.955771 
L 241.240844 171.415158 
L 241.339863 183.770268 
L 241.503814 238.654615 
L 241.612573 284.722934 
L 241.669388 264.053522 
L 241.966447 174.741149 
L 242.065466 169.659052 
L 242.112541 170.973162 
L 242.206691 182.530103 
L 242.365772 235.690359 
L 242.477777 281.789678 
L 242.532969 262.581082 
L 242.830028 173.978371 
L 242.917684 169.955442 
L 242.968006 171.358225 
L 243.065402 183.255971 
L 243.227729 236.727088 
L 243.341359 284.723489 
L 243.398173 263.749633 
L 243.693609 174.842868 
L 243.792628 169.658791 
L 243.841327 171.009051 
L 243.9371 182.978972 
L 244.099427 238.231802 
L 244.20494 281.791719 
L 244.261754 262.280083 
L 244.558813 173.920425 
L 244.64647 169.955532 
L 244.696791 171.394616 
L 244.795811 183.69983 
L 244.959761 238.492538 
L 245.068521 284.718109 
L 245.125335 264.223256 
L 245.422394 174.777488 
L 245.521414 169.658834 
L 245.570112 171.045447 
L 245.665885 183.106684 
L 245.828212 238.526855 
L 245.933725 281.792825 
L 245.988916 262.749125 
L 246.285975 174.010935 
L 246.373632 169.955581 
L 246.423953 171.338105 
L 246.52135 183.18705 
L 246.683677 236.566728 
L 246.797306 284.724457 
L 246.854121 263.919409 
L 247.15118 174.712534 
L 247.248576 169.658962 
L 247.297274 170.988939 
L 247.391424 182.585298 
L 247.552128 236.565332 
L 247.660887 281.787336 
L 247.717702 262.448267 
L 248.014761 173.952742 
L 248.102417 169.955428 
L 248.152739 171.374226 
L 248.250135 183.310565 
L 248.412463 236.853882 
L 248.526092 284.720435 
L 248.581283 264.392963 
L 248.878342 174.81396 
L 248.977361 169.658755 
L 249.02606 171.025051 
L 249.121833 183.035253 
L 249.28416 238.361971 
L 249.389673 281.793273 
L 249.444864 262.917083 
L 249.743546 173.894991 
L 249.831203 169.95571 
L 249.881524 171.410832 
L 249.980544 183.755461 
L 250.144495 238.620573 
L 250.253254 284.722189 
L 250.310068 264.089163 
L 250.607127 174.748768 
L 250.706147 169.658994 
L 250.753222 170.968985 
L 250.847372 182.515457 
L 251.006452 235.656232 
L 251.118458 281.790562 
L 251.173649 262.616373 
L 251.470708 173.985197 
L 251.558365 169.95546 
L 251.608687 171.353988 
L 251.706083 183.241482 
L 251.86841 236.693405 
L 251.982039 284.723961 
L 252.038854 263.785282 
L 252.335913 174.684003 
L 252.433309 169.658816 
L 252.482007 171.004815 
L 252.57778 182.964037 
L 252.740108 238.197221 
L 252.84562 281.791022 
L 252.902435 262.315402 
L 253.199494 173.927199 
L 253.287151 169.955499 
L 253.337472 171.390322 
L 253.436492 183.685066 
L 253.600442 238.458525 
L 253.709201 284.716685 
L 253.766016 264.258891 
L 254.063075 174.785135 
L 254.162095 169.658806 
L 254.210793 171.041151 
L 254.306566 183.091668 
L 254.468893 238.492224 
L 254.574406 281.793143 
L 254.629597 262.784398 
L 254.926656 174.017789 
L 255.014313 169.955627 
L 255.064634 171.3339 
L 255.162031 183.172605 
L 255.324358 236.533076 
L 255.437987 284.72425 
L 255.494801 263.955054 
L 255.79186 174.720131 
L 255.889257 169.659015 
L 255.937955 170.984736 
L 256.032105 182.570615 
L 256.192809 236.531044 
L 256.303191 281.786616 
L 256.358383 262.48357 
L 256.655441 173.959545 
L 256.743098 169.955423 
L 256.79342 171.369964 
L 256.890816 183.296043 
L 257.053143 236.820175 
L 257.166772 284.721444 
L 257.221964 264.428592 
L 257.519023 174.821635 
L 257.618042 169.658756 
L 257.66674 171.020789 
L 257.762513 183.020282 
L 257.924841 238.327368 
L 258.030353 281.793024 
L 258.085545 262.952338 
L 258.384227 173.901742 
L 258.471884 169.955654 
L 258.522205 171.406513 
L 258.621225 183.740663 
L 258.785175 238.586536 
L 258.893935 284.721301 
L 258.950749 264.124802 
L 259.247808 174.756393 
L 259.346828 169.658943 
L 259.393903 170.964816 
L 259.488052 182.50082 
L 259.647133 235.622112 
L 259.759139 281.791328 
L 259.81433 262.651659 
L 260.111389 173.992029 
L 260.199046 169.955484 
L 260.249367 171.349757 
L 260.346764 183.227003 
L 260.509091 236.659729 
L 260.62272 284.72429 
L 260.679535 263.82093 
L 260.976593 174.691577 
L 261.07399 169.658846 
L 261.122688 171.000586 
L 261.218461 182.949112 
L 261.379165 237.409927 
L 261.486301 281.790207 
L 261.543116 262.350719 
L 261.840175 173.933979 
L 261.927831 169.955472 
L 261.978153 171.386035 
L 262.077172 183.670312 
L 262.241123 238.424518 
L 262.351505 284.716908 
L 262.406697 264.294525 
L 262.703756 174.792788 
L 262.802775 169.658784 
L 262.851473 171.036863 
L 262.947247 183.076661 
L 263.109574 238.457598 
L 263.215087 281.793342 
L 263.270278 262.819667 
L 263.567337 174.02465 
L 263.654993 169.95568 
L 263.705315 171.329701 
L 263.802711 183.158169 
L 263.965039 236.499431 
L 264.078668 284.723899 
L 264.135482 263.990697 
L 264.432541 174.727734 
L 264.529937 169.659075 
L 264.578636 170.98054 
L 264.672785 182.555943 
L 264.833489 236.496762 
L 264.943872 281.787829 
L 264.999063 262.51887 
L 265.296122 173.966354 
L 265.383779 169.955425 
L 265.4341 171.365709 
L 265.531497 183.28153 
L 265.693824 236.786474 
L 265.807453 284.72231 
L 265.862644 264.46422 
L 266.159703 174.829316 
L 266.258723 169.658764 
L 266.307421 171.016534 
L 266.403194 183.00532 
L 266.565521 238.29277 
L 266.671034 281.792657 
L 266.727849 262.21782 
L 267.023284 174.05741 
L 267.112564 169.955605 
L 267.162886 171.402201 
L 267.261905 183.725874 
L 267.425856 238.552506 
L 267.534615 284.720271 
L 267.59143 264.160441 
L 267.888489 174.764024 
L 267.987508 169.658898 
L 268.034583 170.960653 
L 268.128733 182.486192 
L 268.287814 235.587998 
L 268.39982 281.791974 
L 268.455011 262.686943 
L 268.75207 173.998867 
L 268.839727 169.955514 
L 268.890048 171.345534 
L 268.987444 183.212533 
L 269.149772 236.626059 
L 269.263401 284.724476 
L 269.320215 263.856578 
L 269.617274 174.699158 
L 269.714671 169.658883 
L 269.763369 170.996364 
L 269.859142 182.934196 
L 270.019846 237.375488 
L 270.126982 281.789273 
L 270.183796 262.386031 
L 270.480855 173.940766 
L 270.568512 169.955451 
L 270.618833 171.381755 
L 270.717853 183.655567 
L 270.881804 238.390518 
L 270.992186 284.71831 
L 271.047377 264.330158 
L 271.344436 174.800446 
L 271.443456 169.658768 
L 271.492154 171.032581 
L 271.587927 183.061664 
L 271.750255 238.422979 
L 271.855767 281.793422 
L 271.910959 262.854932 
L 272.208017 174.031517 
L 272.295674 169.955738 
L 272.347619 171.418461 
L 272.446639 183.781566 
L 272.610589 238.680581 
L 272.719348 284.723406 
L 272.776163 264.02634 
L 273.073222 174.735343 
L 273.172241 169.6591 
L 273.219316 170.976351 
L 273.313466 182.54128 
L 273.472547 235.71639 
L 273.584553 281.788923 
L 273.639744 262.554166 
L 273.936803 173.973169 
L 274.02446 169.955432 
L 274.074781 171.36146 
L 274.172177 183.267026 
L 274.334505 236.75278 
L 274.448134 284.723033 
L 274.504948 263.722445 
L 274.800384 174.837002 
L 274.899404 169.658777 
L 274.948102 171.012286 
L 275.043875 182.990369 
L 275.206202 238.258179 
L 275.311715 281.79217 
L 275.368529 262.253145 
L 275.663965 174.064306 
L 275.753245 169.955561 
L 275.803567 171.397895 
L 275.902586 183.711095 
L 276.066537 238.518482 
L 276.175296 284.719099 
L 276.232111 264.196078 
L 276.529169 174.77166 
L 276.628189 169.658859 
L 276.675264 170.956497 
L 276.769414 182.471574 
L 276.928495 235.55389 
L 277.0405 281.792502 
L 277.095692 262.722222 
L 277.392751 174.005711 
L 277.480407 169.95555 
L 277.530729 171.341317 
L 277.628125 183.198072 
L 277.790452 236.592396 
L 277.904081 284.72452 
L 277.960896 263.892224 
L 278.257955 174.706745 
L 278.355351 169.658925 
L 278.404049 170.992149 
L 278.498199 182.596501 
L 278.658903 236.591485 
L 278.767663 281.78822 
L 278.824477 262.421341 
L 279.121536 173.947558 
L 279.209193 169.955436 
L 279.259514 171.377481 
L 279.358534 183.64083 
L 279.522484 238.356523 
L 279.632867 284.71957 
L 279.688058 264.36579 
L 279.985117 174.808111 
L 280.084137 169.658758 
L 280.132835 171.028307 
L 280.228608 183.046676 
L 280.390935 238.388365 
L 280.496448 281.793383 
L 280.551639 262.890194 
L 280.850321 173.889846 
L 280.937978 169.955756 
L 280.9883 171.41413 
L 281.087319 183.766752 
L 281.25127 238.646534 
L 281.360029 284.72277 
L 281.416844 264.061982 
L 281.713903 174.742957 
L 281.812922 169.659038 
L 281.859997 170.97217 
L 281.954147 182.526626 
L 282.113228 235.682258 
L 282.225233 281.789898 
L 282.280425 262.589459 
L 282.577484 173.979991 
L 282.66514 169.955446 
L 282.715462 171.357218 
L 282.812858 183.252531 
L 282.975185 236.719093 
L 283.088815 284.723614 
L 283.145629 263.758095 
L 283.441065 174.844695 
L 283.540084 169.658797 
L 283.588783 171.008044 
L 283.684556 182.975426 
L 283.846883 238.223593 
L 283.952396 281.791564 
L 284.00921 262.288467 
L 284.306269 173.922032 
L 284.393926 169.955523 
L 284.444247 171.393596 
L 284.543267 183.696325 
L 284.707217 238.484464 
L 284.815977 284.717784 
L 284.872791 264.231714 
L 285.16985 174.779303 
L 285.26887 169.658827 
L 285.317568 171.044426 
L 285.413341 183.103119 
L 285.575668 238.518634 
L 285.681181 281.792911 
L 285.736372 262.757498 
L 286.033431 174.012561 
L 286.121088 169.955591 
L 286.171409 171.337107 
L 286.268806 183.18362 
L 286.431133 236.558739 
L 286.544762 284.724421 
L 286.601577 263.92787 
L 286.898636 174.714337 
L 286.996032 169.658974 
L 287.04473 170.987941 
L 287.13888 182.581812 
L 287.299584 236.557192 
L 287.408343 281.787047 
L 287.465158 262.456647 
L 287.762217 173.954356 
L 287.849873 169.955426 
L 287.900195 171.373214 
L 287.997591 183.307118 
L 288.159919 236.84588 
L 288.273548 284.720687 
L 288.328739 264.40142 
L 288.625798 174.815781 
L 288.724817 169.658755 
L 288.773516 171.024039 
L 288.869289 183.031698 
L 289.031616 238.353757 
L 289.137129 281.793225 
L 289.19232 262.925452 
L 289.491002 173.896593 
L 289.578659 169.955696 
L 289.62898 171.409806 
L 289.728 183.751948 
L 289.891951 238.612493 
L 290.00071 284.721991 
L 290.057524 264.097622 
L 290.354583 174.750578 
L 290.453603 169.658982 
L 290.500678 170.967995 
L 290.594828 182.511982 
L 290.753908 235.648133 
L 290.865914 281.790755 
L 290.921105 262.624749 
L 291.218164 173.986818 
L 291.305821 169.955465 
L 291.356143 171.352983 
L 291.453539 183.238045 
L 291.615866 236.685411 
L 291.729495 284.724052 
L 291.78631 263.793744 
L 292.083369 174.6858 
L 292.180765 169.658822 
L 292.229463 171.00381 
L 292.325236 182.960494 
L 292.487564 238.189013 
L 292.593076 281.79084 
L 292.649891 262.323786 
L 292.94695 173.928808 
L 293.034607 169.955492 
L 293.084928 171.389304 
L 293.183948 183.681563 
L 293.347898 238.450453 
L 293.456657 284.716326 
L 293.513472 264.26735 
L 293.810531 174.786951 
L 293.909551 169.6588 
L 293.958249 171.040133 
L 294.054022 183.088105 
L 294.216349 238.484005 
L 294.321862 281.793201 
L 294.377053 262.79277 
L 294.674112 174.019417 
L 294.761769 169.955639 
L 294.81209 171.332903 
L 294.909487 183.169178 
L 295.071814 236.525089 
L 295.185443 284.724179 
L 295.242257 263.963514 
L 295.539316 174.721935 
L 295.636713 169.659029 
L 295.685411 170.98374 
L 295.779561 182.567132 
L 295.940265 236.522906 
L 296.050647 281.786915 
L 296.105839 262.491949 
L 296.402897 173.961161 
L 296.490554 169.955423 
L 296.540876 171.368954 
L 296.638272 183.292597 
L 296.800599 236.812175 
L 296.914228 284.721662 
L 296.96942 264.437049 
L 297.266479 174.823457 
L 297.365498 169.658758 
L 297.414196 171.019779 
L 297.509969 183.01673 
L 297.672297 238.319155 
L 297.777809 281.792948 
L 297.834624 262.190878 
L 298.13006 174.052155 
L 298.21934 169.955642 
L 298.269661 171.405489 
L 298.368681 183.737152 
L 298.532631 238.578458 
L 298.641391 284.72107 
L 298.698205 264.133262 
L 298.995264 174.758204 
L 299.094284 169.658932 
L 299.141359 170.963827 
L 299.235508 182.497347 
L 299.394589 235.614014 
L 299.506595 281.791492 
L 299.561786 262.660035 
L 299.858845 173.993651 
L 299.946502 169.95549 
L 299.996823 171.348754 
L 300.09422 183.223568 
L 300.256547 236.651737 
L 300.370176 284.724347 
L 300.426991 263.829392 
L 300.724049 174.693376 
L 300.821446 169.658854 
L 300.870144 170.999583 
L 300.965917 182.94557 
L 301.126621 237.401752 
L 301.233757 281.789996 
L 301.290572 262.359101 
L 301.587631 173.93559 
L 301.675287 169.955466 
L 301.725609 171.385019 
L 301.824628 183.666811 
L 301.988579 238.416447 
L 302.098961 284.717254 
L 302.154153 264.302983 
L 302.451212 174.794605 
L 302.550231 169.65878 
L 302.598929 171.035846 
L 302.694703 183.073101 
L 302.85703 238.449381 
L 302.962543 281.793372 
L 303.017734 262.828038 
L 303.314793 174.02628 
L 303.402449 169.955693 
L 303.454394 171.421768 
L 303.553414 183.79287 
L 303.717364 238.706551 
L 303.826124 284.723795 
L 303.882938 263.999158 
L 304.179997 174.72954 
L 304.277393 169.65909 
L 304.326092 170.979545 
L 304.420241 182.552461 
L 304.580945 236.488625 
L 304.691328 281.7881 
L 304.746519 262.527248 
L 305.043578 173.967971 
L 305.131235 169.955426 
L 305.181556 171.3647 
L 305.278953 183.278086 
L 305.44128 236.778476 
L 305.554909 284.722494 
L 305.6101 264.472676 
L 305.907159 174.83114 
L 306.006179 169.658766 
L 306.054877 171.015525 
L 306.15065 183.001771 
L 306.312977 238.284559 
L 306.41849 281.792552 
L 306.475305 262.226205 
L 306.77074 174.059046 
L 306.86002 169.955594 
L 306.910342 171.401178 
L 307.009361 183.722366 
L 307.173312 238.54443 
L 307.282071 284.720006 
L 307.338886 264.1689 
L 307.635945 174.765836 
L 307.734964 169.658888 
L 307.782039 170.959666 
L 307.876189 182.482722 
L 308.03527 235.579901 
L 308.147276 281.79211 
L 308.202467 262.695317 
L 308.499526 174.000491 
L 308.587183 169.955522 
L 308.637504 171.344532 
L 308.7349 183.2091 
L 308.897228 236.618068 
L 309.010857 284.724499 
L 309.067671 263.865039 
L 309.36473 174.700958 
L 309.462127 169.658892 
L 309.510825 170.995363 
L 309.606598 182.930657 
L 309.767302 237.367314 
L 309.874438 281.789034 
L 309.931252 262.394413 
L 310.228311 173.942377 
L 310.315968 169.955446 
L 310.366289 171.38074 
L 310.465309 183.652068 
L 310.62926 238.382448 
L 310.739642 284.718622 
L 310.794833 264.338616 
L 311.091892 174.802265 
L 311.190912 169.658765 
L 311.23961 171.031566 
L 311.335383 183.058106 
L 311.497711 238.414762 
L 311.603223 281.793423 
L 311.658415 262.863303 
L 311.955473 174.033148 
L 312.04313 169.955753 
L 312.095075 171.417432 
L 312.194095 183.778049 
L 312.358045 238.672499 
L 312.466804 284.723268 
L 312.523619 264.0348 
L 312.820678 174.73715 
L 312.919697 169.659084 
L 312.966772 170.975358 
L 313.060922 182.5378 
L 313.220003 235.708287 
L 313.332009 281.789165 
L 313.3872 262.562544 
L 313.684259 173.974788 
L 313.771916 169.955435 
L 313.822237 171.360453 
L 313.919633 183.263584 
L 314.081961 236.744783 
L 314.19559 284.723184 
L 314.252404 263.730907 
L 314.54784 174.838828 
L 314.64686 169.658781 
L 314.695558 171.011278 
L 314.791331 182.986821 
L 314.953658 238.249969 
L 315.059171 281.792037 
L 315.115985 262.261529 
L 315.413044 173.916869 
L 315.500701 169.955552 
L 315.551023 171.396874 
L 315.650042 183.707588 
L 315.813993 238.510407 
L 315.922752 284.718799 
L 315.979567 264.204537 
L 316.276625 174.773474 
L 316.375645 169.658851 
L 316.42272 170.955512 
L 316.51687 182.468106 
L 316.675951 235.545795 
L 316.787956 281.79261 
L 316.843148 262.730595 
L 317.140207 174.007336 
L 317.227863 169.955559 
L 317.278185 171.340317 
L 317.375581 183.194641 
L 317.537908 236.584407 
L 317.651537 284.724509 
L 317.708352 263.900685 
L 318.005411 174.708546 
L 318.102807 169.658936 
L 318.151505 170.991149 
L 318.245655 182.593014 
L 318.406359 236.583345 
L 318.515119 281.787952 
L 318.571933 262.429721 
L 318.868992 173.949171 
L 318.956649 169.955433 
L 319.00697 171.376468 
L 319.104367 183.318197 
L 319.266694 236.87159 
L 319.380323 284.719848 
L 319.435514 264.374247 
L 319.732573 174.809931 
L 319.831593 169.658757 
L 319.880291 171.027293 
L 319.976064 183.04312 
L 320.138391 238.38015 
L 320.243904 281.793356 
L 320.299095 262.898563 
L 320.597777 173.891447 
L 320.685434 169.955741 
L 320.735756 171.413103 
L 320.834775 183.763237 
L 320.998726 238.638454 
L 321.107485 284.722598 
L 321.1643 264.070442 
L 321.461359 174.744765 
L 321.560378 169.659024 
L 321.607453 170.971178 
L 321.701603 182.523149 
L 321.860684 235.674157 
L 321.972689 281.790112 
L 322.027881 262.597836 
L 322.32494 173.981611 
L 322.412596 169.95545 
L 322.462918 171.356212 
L 322.560314 183.249092 
L 322.722641 236.711097 
L 322.836271 284.72373 
L 322.893085 263.766557 
L 323.188521 174.846521 
L 323.28754 169.658802 
L 323.336239 171.007039 
L 323.432012 182.971881 
L 323.594339 238.215384 
L 323.699852 281.791403 
L 323.756666 262.296851 
L 324.053725 173.92364 
L 324.141382 169.955515 
L 324.191703 171.392577 
L 324.290723 183.69282 
L 324.454673 238.476391 
L 324.563433 284.71745 
L 324.620247 264.240173 
L 324.917306 174.781118 
L 325.016326 169.65882 
L 325.065024 171.043407 
L 325.160797 183.099554 
L 325.323124 238.510414 
L 325.428637 281.79299 
L 325.483828 262.76587 
L 325.780887 174.014188 
L 325.868544 169.955602 
L 325.918865 171.336108 
L 326.016262 183.180191 
L 326.178589 236.550752 
L 326.292218 284.724376 
L 326.349033 263.93633 
L 326.646092 174.71614 
L 326.743488 169.658986 
L 326.792186 170.986943 
L 326.886336 182.578326 
L 327.04704 236.549053 
L 327.155799 281.786752 
L 327.212614 262.465026 
L 327.509673 173.955971 
L 327.597329 169.955425 
L 327.647651 171.372202 
L 327.745047 183.30367 
L 327.907375 236.837879 
L 328.021004 284.720932 
L 328.076195 264.409877 
L 328.373254 174.817603 
L 328.472273 169.658755 
L 328.520972 171.023027 
L 328.616745 183.028144 
L 328.779072 238.345543 
L 328.884585 281.79317 
L 328.939776 262.93382 
L 329.238458 173.898195 
L 329.326115 169.955683 
L 329.376436 171.408781 
L 329.475456 183.748435 
L 329.639407 238.604414 
L 329.748166 284.721785 
L 329.80498 264.106082 
L 330.102039 174.752387 
L 330.201059 169.658969 
L 330.248134 170.967005 
L 330.342284 182.508507 
L 330.501364 235.640033 
L 330.61337 281.79094 
L 330.668561 262.633125 
L 330.96562 173.988439 
L 331.053277 169.95547 
L 331.103599 171.351979 
L 331.200995 183.234608 
L 331.363322 236.677418 
L 331.476951 284.724135 
L 331.533766 263.802205 
L 331.830825 174.687598 
L 331.928221 169.658829 
L 331.976919 171.002806 
L 332.072692 182.956951 
L 332.23502 238.180806 
L 332.340532 281.79065 
L 332.397347 262.332168 
L 332.694406 173.930417 
L 332.782063 169.955485 
L 332.832384 171.388286 
L 332.931404 183.678061 
L 333.095354 238.442381 
L 333.205737 284.716115 
L 333.260928 264.275808 
L 333.557987 174.788767 
L 333.657007 169.658795 
L 333.705705 171.039114 
L 333.801478 183.084543 
L 333.963805 238.475786 
L 334.069318 281.793252 
L 334.124509 262.801141 
L 334.421568 174.021046 
L 334.509225 169.955651 
L 334.559546 171.331906 
L 334.656943 183.165751 
L 334.81927 236.517103 
L 334.932899 284.724101 
L 334.989713 263.971975 
L 335.286772 174.72374 
L 335.384169 169.659043 
L 335.432867 170.982743 
L 335.527017 182.563649 
L 335.687721 236.514768 
L 335.798103 281.787207 
L 335.853295 262.500328 
L 336.150353 173.962777 
L 336.23801 169.955423 
L 336.288332 171.367943 
L 336.385728 183.289152 
L 336.548055 236.804176 
L 336.661684 284.721873 
L 336.716876 264.445505 
L 337.013935 174.82528 
L 337.112954 169.658759 
L 337.161652 171.018768 
L 337.257425 183.013178 
L 337.419753 238.310943 
L 337.525265 281.792865 
L 337.58208 262.199263 
L 337.877516 174.05379 
L 337.966796 169.95563 
L 338.017117 171.404465 
L 338.116137 183.733641 
L 338.280087 238.570381 
L 338.388847 284.72083 
L 338.445661 264.141721 
L 338.74272 174.760015 
L 338.84174 169.658921 
L 338.888815 170.962839 
L 338.982964 182.493875 
L 339.142045 235.605916 
L 339.254051 281.79165 
L 339.309242 262.66841 
L 339.606301 173.995274 
L 339.693958 169.955497 
L 339.744279 171.347752 
L 339.841676 183.220133 
L 340.004003 236.643745 
L 340.117632 284.724396 
L 340.174447 263.837853 
L 340.471505 174.695176 
L 340.568902 169.658863 
L 340.6176 170.998581 
L 340.713373 182.94203 
L 340.874077 237.393577 
L 340.981213 281.789778 
L 341.038028 262.367483 
L 341.335087 173.9372 
L 341.422743 169.955461 
L 341.473065 171.384003 
L 341.572084 183.663311 
L 341.736035 238.408377 
L 341.846417 284.717592 
L 341.901609 264.311441 
L 342.198668 174.796423 
L 342.297687 169.658776 
L 342.346385 171.034829 
L 342.442159 183.06954 
L 342.604486 238.441163 
L 342.709999 281.793395 
L 342.76519 262.836409 
L 343.062249 174.02791 
L 343.149905 169.955707 
L 343.20185 171.420738 
L 343.30087 183.789351 
L 343.46482 238.698468 
L 343.57358 284.723683 
L 343.630394 264.007618 
L 343.927453 174.731345 
L 344.024849 169.659105 
L 344.073548 170.978551 
L 344.167697 182.548981 
L 344.328401 236.480489 
L 344.438784 281.788363 
L 344.493975 262.535627 
L 344.791034 173.969589 
L 344.878691 169.955428 
L 344.929012 171.363691 
L 345.026409 183.274643 
L 345.188736 236.770478 
L 345.302365 284.722671 
L 345.35918 263.703719 
L 345.654615 174.832964 
L 345.753635 169.658769 
L 345.802333 171.014516 
L 345.898106 182.998221 
L 346.060433 238.276348 
L 346.165946 281.792441 
L 346.222761 262.23459 
L 346.518196 174.060683 
L 346.607476 169.955583 
L 346.657798 171.400156 
L 346.756817 183.718857 
L 346.920768 238.536353 
L 347.029527 284.719732 
L 347.086342 264.177359 
L 347.383401 174.767648 
L 347.48242 169.658879 
L 347.529495 170.958679 
L 347.623645 182.479252 
L 347.782726 235.571805 
L 347.894732 281.79224 
L 347.949923 262.703691 
L 348.246982 174.002115 
L 348.334639 169.95553 
L 348.38496 171.343531 
L 348.482356 183.205667 
L 348.644684 236.610078 
L 348.758313 284.724515 
L 348.815127 263.8735 
L 349.112186 174.702759 
L 349.209583 169.658902 
L 349.258281 170.994362 
L 349.352431 182.604221 
L 349.513135 236.609501 
L 349.621894 281.788788 
L 349.678708 262.402794 
L 349.975767 173.943989 
L 350.063424 169.955443 
L 350.113745 171.379725 
L 350.212765 183.64857 
L 350.376716 238.374379 
L 350.487098 284.718926 
L 350.542289 264.347073 
L 350.839348 174.804084 
L 350.938368 169.658763 
L 350.987066 171.030551 
L 351.082839 183.054548 
L 351.245167 238.406546 
L 351.350679 281.793418 
L 351.405871 262.871672 
L 351.704553 173.886305 
L 351.790586 169.955768 
L 351.842531 171.416404 
L 351.941551 183.774532 
L 352.105501 238.664418 
L 352.21426 284.723122 
L 352.271075 264.04326 
L 352.568134 174.738957 
L 352.667153 169.659069 
L 352.714228 170.974365 
L 352.808378 182.534322 
L 352.967459 235.700186 
L 353.079465 281.789401 
L 353.134656 262.570921 
L 353.431715 173.976407 
L 353.519372 169.955438 
L 353.569693 171.359446 
L 353.667089 183.260144 
L 353.829417 236.736787 
L 353.943046 284.723326 
L 353.99986 263.739369 
L 354.295296 174.840653 
L 354.394316 169.658786 
L 354.443014 171.010271 
L 354.538787 182.983274 
L 354.701114 238.241759 
L 354.806627 281.791897 
L 354.863441 262.269914 
L 355.1605 173.918476 
L 355.248157 169.955542 
L 355.298479 171.395854 
L 355.397498 183.704082 
L 355.561449 238.502332 
L 355.670208 284.718492 
L 355.727023 264.212996 
L 356.024081 174.775288 
L 356.123101 169.658843 
L 356.171799 171.046685 
L 356.267572 183.111009 
L 356.4299 238.536827 
L 356.535412 281.792711 
L 356.590604 262.738969 
L 356.887663 174.008962 
L 356.975319 169.955569 
L 357.025641 171.339317 
L 357.123037 183.191211 
L 357.285364 236.576418 
L 357.398993 284.724491 
L 357.455808 263.909146 
L 357.752867 174.710348 
L 357.850263 169.658948 
L 357.898961 170.99015 
L 357.993111 182.589527 
L 358.153815 236.575205 
L 358.262575 281.787678 
L 358.319389 262.438102 
L 358.616448 173.950785 
L 358.704105 169.95543 
L 358.754426 171.375455 
L 358.851823 183.314748 
L 359.01415 236.863588 
L 359.127779 284.720118 
L 359.18297 264.382704 
L 359.480029 174.811751 
L 359.579049 169.658756 
L 359.627747 171.02628 
L 359.72352 183.039565 
L 359.885847 238.371935 
L 359.99136 281.793323 
L 360.046551 262.906932 
L 360.345233 173.893048 
L 360.43289 169.955727 
L 360.483212 171.412077 
L 360.582231 183.759723 
L 360.746182 238.630373 
L 360.854941 284.722418 
L 360.911756 264.078901 
L 361.208815 174.746574 
L 361.307834 169.65901 
L 361.354909 170.970187 
L 361.449059 182.519673 
L 361.60814 235.666057 
L 361.720145 281.79032 
L 361.775337 262.606213 
L 362.072396 173.983231 
L 362.160052 169.955454 
L 362.210374 171.355207 
L 362.30777 183.245653 
L 362.470097 236.703102 
L 362.583727 284.723839 
L 362.640541 263.775018 
L 362.935977 174.848348 
L 363.034996 169.658808 
L 363.083695 171.006033 
L 363.179468 182.968336 
L 363.341795 238.207176 
L 363.447308 281.791235 
L 363.504122 262.305234 
L 363.801181 173.925248 
L 363.888838 169.955508 
L 363.939159 171.391558 
L 364.038179 183.689316 
L 364.202129 238.468317 
L 364.310889 284.717109 
L 364.367703 264.248631 
L 364.664762 174.782933 
L 364.763782 169.658813 
L 364.81248 171.042387 
L 364.908253 183.09599 
L 365.07058 238.502194 
L 365.176093 281.793063 
L 365.231284 262.774243 
L 365.528343 174.015815 
L 365.616 169.955613 
L 365.666321 171.33511 
L 365.763718 183.176763 
L 365.926045 236.542764 
L 366.039674 284.724324 
L 366.096489 263.944791 
L 366.393548 174.717944 
L 366.490944 169.658999 
L 366.539642 170.985945 
L 366.633792 182.574842 
L 366.794496 236.540915 
L 366.903255 281.786449 
L 366.96007 262.473406 
L 367.257129 173.957586 
L 367.344785 169.955424 
L 367.395107 171.371191 
L 367.492503 183.300223 
L 367.654831 236.829879 
L 367.76846 284.721168 
L 367.823651 264.418334 
L 368.12071 174.819425 
L 368.219729 169.658755 
L 368.268428 171.022016 
L 368.364201 183.024591 
L 368.526528 238.33733 
L 368.632041 281.793108 
L 368.687232 262.942188 
L 368.985914 173.899798 
L 369.073571 169.95567 
L 369.123892 171.407756 
L 369.222912 183.744923 
L 369.386863 238.596335 
L 369.495622 284.721572 
L 369.552436 264.114541 
L 369.849495 174.754197 
L 369.948515 169.658957 
L 369.99559 170.966015 
L 370.08974 182.505033 
L 370.24882 235.631935 
L 370.360826 281.79112 
L 370.416017 262.6415 
L 370.713076 173.990061 
L 370.800733 169.955476 
L 370.851055 171.350975 
L 370.948451 183.231171 
L 371.110778 236.669424 
L 371.224407 284.72421 
L 371.281222 263.810667 
L 371.578281 174.689396 
L 371.675677 169.658837 
L 371.724375 171.001803 
L 371.820148 182.953408 
L 371.980852 237.419843 
L 372.087988 281.790454 
L 372.144803 262.340551 
L 372.441862 173.932027 
L 372.529519 169.955479 
L 372.57984 171.387269 
L 372.67886 183.674559 
L 372.84281 238.434309 
L 372.953193 284.716478 
L 373.008384 264.284266 
L 373.305443 174.790584 
L 373.404463 169.65879 
L 373.453161 171.038097 
L 373.548934 183.080981 
L 373.711261 238.467567 
L 373.816774 281.793297 
L 373.871965 262.809513 
L 374.169024 174.022674 
L 374.256681 169.955664 
L 374.307002 171.33091 
L 374.404399 183.162324 
L 374.566726 236.509117 
L 374.680355 284.724015 
L 374.737169 263.980435 
L 375.034228 174.725545 
L 375.131625 169.659057 
L 375.180323 170.981748 
L 375.274473 182.560166 
L 375.435177 236.506631 
L 375.545559 281.787492 
L 375.600751 262.508707 
L 375.897809 173.964393 
L 375.985466 169.955424 
L 376.035788 171.366934 
L 376.133184 183.285708 
L 376.295511 236.796176 
L 376.40914 284.722075 
L 376.464332 264.453962 
L 376.761391 174.827104 
L 376.86041 169.658761 
L 376.909108 171.017758 
L 377.004881 183.009627 
L 377.167209 238.302731 
L 377.272721 281.792775 
L 377.329536 262.207649 
L 377.624972 174.055426 
L 377.714252 169.955618 
L 377.764573 171.403442 
L 377.863593 183.730131 
L 378.027543 238.562303 
L 378.136303 284.720583 
L 378.193117 264.15018 
L 378.490176 174.761826 
L 378.589196 169.658911 
L 378.636271 170.961851 
L 378.73042 182.490403 
L 378.889501 235.597819 
L 379.001507 281.7918 
L 379.056698 262.676784 
L 379.353757 173.996897 
L 379.441414 169.955504 
L 379.491735 171.346749 
L 379.589132 183.216699 
L 379.751459 236.635753 
L 379.865088 284.724437 
L 379.921903 263.846315 
L 380.218961 174.696975 
L 380.316358 169.658871 
L 380.365056 170.997579 
L 380.460829 182.938489 
L 380.621533 237.385403 
L 380.728669 281.789554 
L 380.785484 262.375865 
L 381.082543 173.938811 
L 381.170199 169.955456 
L 381.220521 171.382987 
L 381.31954 183.659811 
L 381.483491 238.400306 
L 381.593873 284.717921 
L 381.649065 264.319899 
L 381.946124 174.798241 
L 382.045143 169.658772 
L 382.093841 171.033813 
L 382.189615 183.065981 
L 382.351942 238.432946 
L 382.457455 281.793411 
L 382.512646 262.844779 
L 382.809705 174.02954 
L 382.897361 169.955721 
L 382.949306 171.419709 
L 383.048326 183.785833 
L 383.212276 238.690385 
L 383.321036 284.723562 
L 383.37785 264.016078 
L 383.674909 174.733152 
L 383.773929 169.659119 
L 383.821004 170.977557 
L 383.915153 182.5455 
L 384.075857 236.472354 
L 384.18624 281.78862 
L 384.241431 262.544004 
L 384.53849 173.971207 
L 384.626147 169.95543 
L 384.676468 171.362683 
L 384.773865 183.271201 
L 384.936192 236.762481 
L 385.049821 284.722839 
L 385.106636 263.712181 
L 385.402071 174.834788 
L 385.501091 169.658773 
L 385.549789 171.013508 
L 385.645562 182.994672 
L 385.807889 238.268138 
L 385.913402 281.792322 
L 385.970217 262.242975 
L 386.265652 174.06232 
L 386.354932 169.955573 
L 386.405254 171.399134 
L 386.504273 183.715349 
L 386.668224 238.528277 
L 386.776983 284.719451 
L 386.833798 264.185818 
L 387.130857 174.769461 
L 387.229876 169.65887 
L 387.276951 170.957693 
L 387.371101 182.475782 
L 387.530182 235.563709 
L 387.642188 281.792362 
L 387.697379 262.712065 
L 387.994438 174.00374 
L 388.082095 169.955539 
L 388.132416 171.34253 
L 388.229812 183.202235 
L 388.39214 236.602088 
L 388.505769 284.724522 
L 388.562583 263.881961 
L 388.859642 174.70456 
L 388.957039 169.658912 
L 389.005737 170.993361 
L 389.099887 182.600732 
L 389.260591 236.60136 
L 389.36935 281.788535 
L 389.426164 262.411175 
L 389.723223 173.945602 
L 389.81088 169.955439 
L 389.861201 171.378711 
L 389.960221 183.645072 
L 390.124172 238.36631 
L 390.234554 284.719222 
L 390.289745 264.355531 
L 390.586804 174.805904 
L 390.685824 169.658761 
L 390.734522 171.029537 
L 390.830295 183.05099 
L 390.992623 238.39833 
L 391.098135 281.793406 
L 391.153327 262.880042 
L 391.452009 173.887905 
L 391.539665 169.955774 
L 391.589987 171.415376 
L 391.689007 183.771016 
L 391.852957 238.656336 
L 391.961716 284.722967 
L 392.018531 264.05172 
L 392.31559 174.740764 
L 392.414609 169.659055 
L 392.461684 170.973373 
L 392.555834 182.530844 
L 392.714915 235.692084 
L 392.826921 281.78963 
L 392.882112 262.579298 
L 393.179171 173.978026 
L 393.266828 169.955441 
L 393.317149 171.358439 
L 393.414545 183.256703 
L 393.576873 236.728791 
L 393.690502 284.723461 
L 393.747316 263.747831 
L 394.042752 174.842479 
L 394.141772 169.65879 
L 394.19047 171.009265 
L 394.286243 182.979728 
L 394.44857 238.23355 
L 394.554083 281.791751 
L 394.610897 262.278298 
L 394.907956 173.920083 
L 394.995613 169.955534 
L 395.045935 171.394833 
L 395.144954 183.700576 
L 395.308905 238.494258 
L 395.417664 284.718177 
L 395.474479 264.221454 
L 395.771537 174.777102 
L 395.870557 169.658835 
L 395.919255 171.045664 
L 396.015028 183.107444 
L 396.177356 238.528606 
L 396.282868 281.792805 
L 396.33806 262.747342 
L 396.635119 174.010588 
L 396.722775 169.955579 
L 396.773097 171.338318 
L 396.870493 183.18778 
L 397.03282 236.568429 
L 397.146449 284.724464 
L 397.203264 263.917607 
L 397.500323 174.712151 
L 397.597719 169.658959 
L 397.646417 170.989151 
L 397.740567 182.58604 
L 397.901271 236.567065 
L 398.010031 281.787397 
L 398.066845 262.446482 
L 398.363904 173.952398 
L 398.451561 169.955428 
L 398.487273 170.663891 
" style="fill:none;stroke:#1f77b4;stroke-linecap:square;stroke-width:1.5;"/>
   </g>
   <g id="patch_3">
    <path d="M 57.6 307.584 
L 57.6 41.472 
" style="fill:none;stroke:#000000;stroke-linecap:square;stroke-linejoin:miter;stroke-width:0.8;"/>
   </g>
   <g id="patch_4">
    <path d="M 414.72 307.584 
L 414.72 41.472 
" style="fill:none;stroke:#000000;stroke-linecap:square;stroke-linejoin:miter;stroke-width:0.8;"/>
   </g>
   <g id="patch_5">
    <path d="M 57.6 307.584 
L 414.72 307.584 
" style="fill:none;stroke:#000000;stroke-linecap:square;stroke-linejoin:miter;stroke-width:0.8;"/>
   </g>
   <g id="patch_6">
    <path d="M 57.6 41.472 
L 414.72 41.472 
" style="fill:none;stroke:#000000;stroke-linecap:square;stroke-linejoin:miter;stroke-width:0.8;"/>
   </g>
  </g>
 </g>
 <defs>
  <clipPath id="pdb26f9a484">
   <rect height="266.112" width="357.12" x="57.6" y="41.472"/>
  </clipPath>
 </defs>
</svg>
