<?xml version="1.0" encoding="utf-8" standalone="no"?>
<!DOCTYPE svg PUBLIC "-//W3C//DTD SVG 1.1//EN"
  "http://www.w3.org/Graphics/SVG/1.1/DTD/svg11.dtd">
<!-- Created with matplotlib (https://matplotlib.org/) -->
<svg height="345.6pt" version="1.1" viewBox="0 0 460.8 345.6" width="460.8pt" xmlns="http://www.w3.org/2000/svg" xmlns:xlink="http://www.w3.org/1999/xlink">
 <metadata>
  <rdf:RDF xmlns:cc="http://creativecommons.org/ns#" xmlns:dc="http://purl.org/dc/elements/1.1/" xmlns:rdf="http://www.w3.org/1999/02/22-rdf-syntax-ns#">
   <cc:Work>
    <dc:type rdf:resource="http://purl.org/dc/dcmitype/StillImage"/>
    <dc:date>2020-07-25T11:17:24.776070</dc:date>
    <dc:format>image/svg+xml</dc:format>
    <dc:creator>
     <cc:Agent>
      <dc:title>Matplotlib v3.3.0, https://matplotlib.org/</dc:title>
     </cc:Agent>
    </dc:creator>
   </cc:Work>
  </rdf:RDF>
 </metadata>
 <defs>
  <style type="text/css">*{stroke-linecap:butt;stroke-linejoin:round;}</style>
 </defs>
 <g id="figure_1">
  <g id="patch_1">
   <path d="M 0 345.6 
L 460.8 345.6 
L 460.8 0 
L 0 0 
z
" style="fill:#ffffff;"/>
  </g>
  <g id="axes_1">
   <g id="patch_2">
    <path d="M 57.6 307.584 
L 414.72 307.584 
L 414.72 41.472 
L 57.6 41.472 
z
" style="fill:#ffffff;"/>
   </g>
   <g id="matplotlib.axis_1">
    <g id="xtick_1">
     <g id="line2d_1">
      <defs>
       <path d="M 0 0 
L 0 3.5 
" id="m35a25ef252" style="stroke:#000000;stroke-width:0.8;"/>
      </defs>
      <g>
       <use style="stroke:#000000;stroke-width:0.8;" x="73.832727" xlink:href="#m35a25ef252" y="307.584"/>
      </g>
     </g>
     <g id="text_1">
      <!-- $\mathdefault{0}$ -->
      <g transform="translate(71.34206 321.502498)scale(0.1 -0.1)">
       <defs>
        <path d="M 42 31.640625 
C 42 37.75 41.90625 48.125 37.703125 56.109375 
C 34 63.109375 28.09375 65.59375 22.90625 65.59375 
C 18.09375 65.59375 12 63.40625 8.203125 56.203125 
C 4.203125 48.71875 3.796875 39.4375 3.796875 31.640625 
C 3.796875 25.953125 3.90625 17.28125 7 9.671875 
C 11.296875 -0.609375 19 -2 22.90625 -2 
C 27.5 -2 34.5 -0.109375 38.59375 9.375 
C 41.59375 16.28125 42 24.359375 42 31.640625 
z
M 22.90625 -0.40625 
C 16.5 -0.40625 12.703125 5.078125 11.296875 12.6875 
C 10.203125 18.5625 10.203125 27.15625 10.203125 32.75 
C 10.203125 40.4375 10.203125 46.828125 11.5 52.921875 
C 13.40625 61.390625 19 64 22.90625 64 
C 27 64 32.296875 61.296875 34.203125 53.125 
C 35.5 47.4375 35.59375 40.734375 35.59375 32.75 
C 35.59375 26.25 35.59375 18.265625 34.40625 12.375 
C 32.296875 1.484375 26.40625 -0.40625 22.90625 -0.40625 
z
" id="CMR17-48"/>
       </defs>
       <use transform="scale(0.996264)" xlink:href="#CMR17-48"/>
      </g>
     </g>
    </g>
    <g id="xtick_2">
     <g id="line2d_2">
      <g>
       <use style="stroke:#000000;stroke-width:0.8;" x="114.414545" xlink:href="#m35a25ef252" y="307.584"/>
      </g>
     </g>
     <g id="text_2">
      <!-- $\mathdefault{25000}$ -->
      <g transform="translate(101.961207 321.502498)scale(0.1 -0.1)">
       <defs>
        <path d="M 41.703125 15.453125 
L 39.90625 15.453125 
C 38.90625 8.375 38.09375 7.171875 37.703125 6.5625 
C 37.203125 5.765625 30 5.765625 28.59375 5.765625 
L 9.40625 5.765625 
C 13 9.671875 20 16.75 28.5 24.953125 
C 34.59375 30.734375 41.703125 37.53125 41.703125 47.421875 
C 41.703125 59.21875 32.296875 66 21.796875 66 
C 10.796875 66 4.09375 56.3125 4.09375 47.34375 
C 4.09375 43.4375 7 42.9375 8.203125 42.9375 
C 9.203125 42.9375 12.203125 43.546875 12.203125 47.03125 
C 12.203125 50.109375 9.59375 51 8.203125 51 
C 7.59375 51 7 50.90625 6.59375 50.703125 
C 8.5 59.21875 14.296875 63.40625 20.40625 63.40625 
C 29.09375 63.40625 34.796875 56.515625 34.796875 47.421875 
C 34.796875 38.734375 29.703125 31.25 24 24.75 
L 4.09375 2.28125 
L 4.09375 0 
L 39.296875 0 
z
" id="CMR17-50"/>
        <path d="M 11.40625 57.6875 
C 12.40625 57.28125 16.5 56 20.703125 56 
C 30 56 35.09375 61.109375 38 64.0625 
C 38 64.953125 38 65.5 37.40625 65.5 
C 37.296875 65.5 37.09375 65.5 36.296875 65.046875 
C 32.796875 63.40625 28.703125 62.078125 23.703125 62.078125 
C 20.703125 62.078125 16.203125 62.484375 11.296875 64.671875 
C 10.203125 65.171875 10 65.171875 9.90625 65.171875 
C 9.40625 65.171875 9.296875 65.0625 9.296875 63.078125 
L 9.296875 34.421875 
C 9.296875 32.640625 9.296875 32.140625 10.296875 32.140625 
C 10.796875 32.140625 11 32.34375 11.5 33.03125 
C 14.703125 37.515625 19.09375 39.40625 24.09375 39.40625 
C 27.59375 39.40625 35.09375 37.21875 35.09375 20.140625 
C 35.09375 16.953125 35.09375 11.171875 32.09375 6.578125 
C 29.59375 2.484375 25.703125 0.390625 21.40625 0.390625 
C 14.796875 0.390625 8.09375 5 6.296875 12.71875 
C 6.703125 12.609375 7.5 12.421875 7.90625 12.421875 
C 9.203125 12.421875 11.703125 13.125 11.703125 16.21875 
C 11.703125 18.90625 9.796875 20 7.90625 20 
C 5.59375 20 4.09375 18.59375 4.09375 15.796875 
C 4.09375 7.09375 11 -2 21.59375 -2 
C 31.90625 -2 41.703125 6.875 41.703125 19.75 
C 41.703125 31.71875 33.90625 41 24.203125 41 
C 19.09375 41 14.796875 39.109375 11.40625 35.53125 
z
" id="CMR17-53"/>
       </defs>
       <use transform="scale(0.996264)" xlink:href="#CMR17-50"/>
       <use transform="translate(45.690477 0)scale(0.996264)" xlink:href="#CMR17-53"/>
       <use transform="translate(91.380954 0)scale(0.996264)" xlink:href="#CMR17-48"/>
       <use transform="translate(137.071431 0)scale(0.996264)" xlink:href="#CMR17-48"/>
       <use transform="translate(182.761908 0)scale(0.996264)" xlink:href="#CMR17-48"/>
      </g>
     </g>
    </g>
    <g id="xtick_3">
     <g id="line2d_3">
      <g>
       <use style="stroke:#000000;stroke-width:0.8;" x="154.996364" xlink:href="#m35a25ef252" y="307.584"/>
      </g>
     </g>
     <g id="text_3">
      <!-- $\mathdefault{50000}$ -->
      <g transform="translate(142.543026 321.502498)scale(0.1 -0.1)">
       <use transform="scale(0.996264)" xlink:href="#CMR17-53"/>
       <use transform="translate(45.690477 0)scale(0.996264)" xlink:href="#CMR17-48"/>
       <use transform="translate(91.380954 0)scale(0.996264)" xlink:href="#CMR17-48"/>
       <use transform="translate(137.071431 0)scale(0.996264)" xlink:href="#CMR17-48"/>
       <use transform="translate(182.761908 0)scale(0.996264)" xlink:href="#CMR17-48"/>
      </g>
     </g>
    </g>
    <g id="xtick_4">
     <g id="line2d_4">
      <g>
       <use style="stroke:#000000;stroke-width:0.8;" x="195.578182" xlink:href="#m35a25ef252" y="307.584"/>
      </g>
     </g>
     <g id="text_4">
      <!-- $\mathdefault{75000}$ -->
      <g transform="translate(183.124844 321.502498)scale(0.1 -0.1)">
       <defs>
        <path d="M 45.09375 61.578125 
L 45.09375 63.765625 
L 21.59375 63.765625 
C 9.90625 63.765625 9.703125 65.078125 9.296875 67 
L 7.5 67 
L 4.59375 48.34375 
L 6.40625 48.34375 
C 6.703125 50.234375 7.40625 55.3125 8.59375 57.203125 
C 9.203125 58 16.59375 58 18.296875 58 
L 40.296875 58 
L 29.203125 41.578125 
C 21.796875 30.53125 16.703125 15.609375 16.703125 2.578125 
C 16.703125 1.390625 16.703125 -2 20.296875 -2 
C 23.90625 -2 23.90625 1.390625 23.90625 2.671875 
L 23.90625 7.265625 
C 23.90625 23.5625 26.703125 34.3125 31.296875 41.1875 
z
" id="CMR17-55"/>
       </defs>
       <use transform="scale(0.996264)" xlink:href="#CMR17-55"/>
       <use transform="translate(45.690477 0)scale(0.996264)" xlink:href="#CMR17-53"/>
       <use transform="translate(91.380954 0)scale(0.996264)" xlink:href="#CMR17-48"/>
       <use transform="translate(137.071431 0)scale(0.996264)" xlink:href="#CMR17-48"/>
       <use transform="translate(182.761908 0)scale(0.996264)" xlink:href="#CMR17-48"/>
      </g>
     </g>
    </g>
    <g id="xtick_5">
     <g id="line2d_5">
      <g>
       <use style="stroke:#000000;stroke-width:0.8;" x="236.16" xlink:href="#m35a25ef252" y="307.584"/>
      </g>
     </g>
     <g id="text_5">
      <!-- $\mathdefault{100000}$ -->
      <g transform="translate(221.215994 321.502498)scale(0.1 -0.1)">
       <defs>
        <path d="M 26.59375 63.40625 
C 26.59375 65.5 26.5 65.5 25.09375 65.5 
C 21.203125 61.1875 15.296875 59.796875 9.703125 59.796875 
C 9.40625 59.796875 8.90625 59.796875 8.796875 59.5 
C 8.703125 59.296875 8.703125 59.09375 8.703125 57 
C 11.796875 57 17 57.59375 21 59.984375 
L 21 7.203125 
C 21 3.6875 20.796875 2.5 12.203125 2.5 
L 9.203125 2.5 
L 9.203125 0 
C 14 0 19 0 23.796875 0 
C 28.59375 0 33.59375 0 38.40625 0 
L 38.40625 2.5 
L 35.40625 2.5 
C 26.796875 2.5 26.59375 3.59375 26.59375 7.15625 
z
" id="CMR17-49"/>
       </defs>
       <use transform="scale(0.996264)" xlink:href="#CMR17-49"/>
       <use transform="translate(45.690477 0)scale(0.996264)" xlink:href="#CMR17-48"/>
       <use transform="translate(91.380954 0)scale(0.996264)" xlink:href="#CMR17-48"/>
       <use transform="translate(137.071431 0)scale(0.996264)" xlink:href="#CMR17-48"/>
       <use transform="translate(182.761908 0)scale(0.996264)" xlink:href="#CMR17-48"/>
       <use transform="translate(228.452386 0)scale(0.996264)" xlink:href="#CMR17-48"/>
      </g>
     </g>
    </g>
    <g id="xtick_6">
     <g id="line2d_6">
      <g>
       <use style="stroke:#000000;stroke-width:0.8;" x="276.741818" xlink:href="#m35a25ef252" y="307.584"/>
      </g>
     </g>
     <g id="text_6">
      <!-- $\mathdefault{125000}$ -->
      <g transform="translate(261.797812 321.502498)scale(0.1 -0.1)">
       <use transform="scale(0.996264)" xlink:href="#CMR17-49"/>
       <use transform="translate(45.690477 0)scale(0.996264)" xlink:href="#CMR17-50"/>
       <use transform="translate(91.380954 0)scale(0.996264)" xlink:href="#CMR17-53"/>
       <use transform="translate(137.071431 0)scale(0.996264)" xlink:href="#CMR17-48"/>
       <use transform="translate(182.761908 0)scale(0.996264)" xlink:href="#CMR17-48"/>
       <use transform="translate(228.452386 0)scale(0.996264)" xlink:href="#CMR17-48"/>
      </g>
     </g>
    </g>
    <g id="xtick_7">
     <g id="line2d_7">
      <g>
       <use style="stroke:#000000;stroke-width:0.8;" x="317.323636" xlink:href="#m35a25ef252" y="307.584"/>
      </g>
     </g>
     <g id="text_7">
      <!-- $\mathdefault{150000}$ -->
      <g transform="translate(302.379631 321.502498)scale(0.1 -0.1)">
       <use transform="scale(0.996264)" xlink:href="#CMR17-49"/>
       <use transform="translate(45.690477 0)scale(0.996264)" xlink:href="#CMR17-53"/>
       <use transform="translate(91.380954 0)scale(0.996264)" xlink:href="#CMR17-48"/>
       <use transform="translate(137.071431 0)scale(0.996264)" xlink:href="#CMR17-48"/>
       <use transform="translate(182.761908 0)scale(0.996264)" xlink:href="#CMR17-48"/>
       <use transform="translate(228.452386 0)scale(0.996264)" xlink:href="#CMR17-48"/>
      </g>
     </g>
    </g>
    <g id="xtick_8">
     <g id="line2d_8">
      <g>
       <use style="stroke:#000000;stroke-width:0.8;" x="357.905455" xlink:href="#m35a25ef252" y="307.584"/>
      </g>
     </g>
     <g id="text_8">
      <!-- $\mathdefault{175000}$ -->
      <g transform="translate(342.961449 321.502498)scale(0.1 -0.1)">
       <use transform="scale(0.996264)" xlink:href="#CMR17-49"/>
       <use transform="translate(45.690477 0)scale(0.996264)" xlink:href="#CMR17-55"/>
       <use transform="translate(91.380954 0)scale(0.996264)" xlink:href="#CMR17-53"/>
       <use transform="translate(137.071431 0)scale(0.996264)" xlink:href="#CMR17-48"/>
       <use transform="translate(182.761908 0)scale(0.996264)" xlink:href="#CMR17-48"/>
       <use transform="translate(228.452386 0)scale(0.996264)" xlink:href="#CMR17-48"/>
      </g>
     </g>
    </g>
    <g id="xtick_9">
     <g id="line2d_9">
      <g>
       <use style="stroke:#000000;stroke-width:0.8;" x="398.487273" xlink:href="#m35a25ef252" y="307.584"/>
      </g>
     </g>
     <g id="text_9">
      <!-- $\mathdefault{200000}$ -->
      <g transform="translate(383.543267 321.502498)scale(0.1 -0.1)">
       <use transform="scale(0.996264)" xlink:href="#CMR17-50"/>
       <use transform="translate(45.690477 0)scale(0.996264)" xlink:href="#CMR17-48"/>
       <use transform="translate(91.380954 0)scale(0.996264)" xlink:href="#CMR17-48"/>
       <use transform="translate(137.071431 0)scale(0.996264)" xlink:href="#CMR17-48"/>
       <use transform="translate(182.761908 0)scale(0.996264)" xlink:href="#CMR17-48"/>
       <use transform="translate(228.452386 0)scale(0.996264)" xlink:href="#CMR17-48"/>
      </g>
     </g>
    </g>
   </g>
   <g id="matplotlib.axis_2">
    <g id="ytick_1">
     <g id="line2d_10">
      <defs>
       <path d="M 0 0 
L -3.5 0 
" id="m6665a993d4" style="stroke:#000000;stroke-width:0.8;"/>
      </defs>
      <g>
       <use style="stroke:#000000;stroke-width:0.8;" x="57.6" xlink:href="#m6665a993d4" y="293.3324"/>
      </g>
     </g>
     <g id="text_10">
      <!-- $\mathdefault{0.005}$ -->
      <g transform="translate(27.907251 296.791649)scale(0.1 -0.1)">
       <defs>
        <path d="M 18.40625 4.796875 
C 18.40625 7.6875 16 9.671875 13.59375 9.671875 
C 10.703125 9.671875 8.703125 7.28125 8.703125 4.890625 
C 8.703125 2 11.09375 0 13.5 0 
C 16.40625 0 18.40625 2.390625 18.40625 4.796875 
z
" id="CMMI12-58"/>
       </defs>
       <use transform="scale(0.996264)" xlink:href="#CMR17-48"/>
       <use transform="translate(45.690477 0)scale(0.996264)" xlink:href="#CMMI12-58"/>
       <use transform="translate(72.787654 0)scale(0.996264)" xlink:href="#CMR17-48"/>
       <use transform="translate(118.478131 0)scale(0.996264)" xlink:href="#CMR17-48"/>
       <use transform="translate(164.168608 0)scale(0.996264)" xlink:href="#CMR17-53"/>
      </g>
     </g>
    </g>
    <g id="ytick_2">
     <g id="line2d_11">
      <g>
       <use style="stroke:#000000;stroke-width:0.8;" x="57.6" xlink:href="#m6665a993d4" y="260.664028"/>
      </g>
     </g>
     <g id="text_11">
      <!-- $\mathdefault{0.010}$ -->
      <g transform="translate(27.907251 264.123278)scale(0.1 -0.1)">
       <use transform="scale(0.996264)" xlink:href="#CMR17-48"/>
       <use transform="translate(45.690477 0)scale(0.996264)" xlink:href="#CMMI12-58"/>
       <use transform="translate(72.787654 0)scale(0.996264)" xlink:href="#CMR17-48"/>
       <use transform="translate(118.478131 0)scale(0.996264)" xlink:href="#CMR17-49"/>
       <use transform="translate(164.168608 0)scale(0.996264)" xlink:href="#CMR17-48"/>
      </g>
     </g>
    </g>
    <g id="ytick_3">
     <g id="line2d_12">
      <g>
       <use style="stroke:#000000;stroke-width:0.8;" x="57.6" xlink:href="#m6665a993d4" y="227.995657"/>
      </g>
     </g>
     <g id="text_12">
      <!-- $\mathdefault{0.015}$ -->
      <g transform="translate(27.907251 231.454906)scale(0.1 -0.1)">
       <use transform="scale(0.996264)" xlink:href="#CMR17-48"/>
       <use transform="translate(45.690477 0)scale(0.996264)" xlink:href="#CMMI12-58"/>
       <use transform="translate(72.787654 0)scale(0.996264)" xlink:href="#CMR17-48"/>
       <use transform="translate(118.478131 0)scale(0.996264)" xlink:href="#CMR17-49"/>
       <use transform="translate(164.168608 0)scale(0.996264)" xlink:href="#CMR17-53"/>
      </g>
     </g>
    </g>
    <g id="ytick_4">
     <g id="line2d_13">
      <g>
       <use style="stroke:#000000;stroke-width:0.8;" x="57.6" xlink:href="#m6665a993d4" y="195.327285"/>
      </g>
     </g>
     <g id="text_13">
      <!-- $\mathdefault{0.020}$ -->
      <g transform="translate(27.907251 198.786535)scale(0.1 -0.1)">
       <use transform="scale(0.996264)" xlink:href="#CMR17-48"/>
       <use transform="translate(45.690477 0)scale(0.996264)" xlink:href="#CMMI12-58"/>
       <use transform="translate(72.787654 0)scale(0.996264)" xlink:href="#CMR17-48"/>
       <use transform="translate(118.478131 0)scale(0.996264)" xlink:href="#CMR17-50"/>
       <use transform="translate(164.168608 0)scale(0.996264)" xlink:href="#CMR17-48"/>
      </g>
     </g>
    </g>
    <g id="ytick_5">
     <g id="line2d_14">
      <g>
       <use style="stroke:#000000;stroke-width:0.8;" x="57.6" xlink:href="#m6665a993d4" y="162.658914"/>
      </g>
     </g>
     <g id="text_14">
      <!-- $\mathdefault{0.025}$ -->
      <g transform="translate(27.907251 166.118163)scale(0.1 -0.1)">
       <use transform="scale(0.996264)" xlink:href="#CMR17-48"/>
       <use transform="translate(45.690477 0)scale(0.996264)" xlink:href="#CMMI12-58"/>
       <use transform="translate(72.787654 0)scale(0.996264)" xlink:href="#CMR17-48"/>
       <use transform="translate(118.478131 0)scale(0.996264)" xlink:href="#CMR17-50"/>
       <use transform="translate(164.168608 0)scale(0.996264)" xlink:href="#CMR17-53"/>
      </g>
     </g>
    </g>
    <g id="ytick_6">
     <g id="line2d_15">
      <g>
       <use style="stroke:#000000;stroke-width:0.8;" x="57.6" xlink:href="#m6665a993d4" y="129.990542"/>
      </g>
     </g>
     <g id="text_15">
      <!-- $\mathdefault{0.030}$ -->
      <g transform="translate(27.907251 133.449792)scale(0.1 -0.1)">
       <defs>
        <path d="M 22.09375 33.703125 
C 31 33.703125 34.90625 25.96875 34.90625 17.03125 
C 34.90625 5 28.5 0.390625 22.703125 0.390625 
C 17.40625 0.390625 8.796875 3.03125 6.09375 10.828125 
C 6.59375 10.625 7.09375 10.625 7.59375 10.625 
C 10 10.625 11.796875 12.21875 11.796875 14.8125 
C 11.796875 17.703125 9.59375 19 7.59375 19 
C 5.90625 19 3.296875 18.203125 3.296875 14.46875 
C 3.296875 5.234375 12.296875 -2 22.90625 -2 
C 34 -2 42.5 6.71875 42.5 16.953125 
C 42.5 26.671875 34.5 33.703125 25 34.796875 
C 32.59375 36.375 39.90625 43.0625 39.90625 52.015625 
C 39.90625 59.6875 32 65.296875 23 65.296875 
C 13.90625 65.296875 5.90625 59.828125 5.90625 52.015625 
C 5.90625 48.59375 8.5 48 9.796875 48 
C 11.90625 48 13.703125 49.296875 13.703125 51.890625 
C 13.703125 54.46875 11.90625 55.765625 9.796875 55.765625 
C 9.40625 55.765625 8.90625 55.765625 8.5 55.578125 
C 11.40625 61.859375 19.296875 63 22.796875 63 
C 26.296875 63 32.90625 61.328125 32.90625 51.875 
C 32.90625 49.109375 32.5 44.1875 29.09375 39.84375 
C 26.09375 36 22.703125 36 19.40625 35.6875 
C 18.90625 35.6875 16.59375 35.453125 16.203125 35.453125 
C 15.5 35.359375 15.09375 35.265625 15.09375 34.5 
C 15.09375 33.796875 15.203125 33.703125 17.203125 33.703125 
z
" id="CMR17-51"/>
       </defs>
       <use transform="scale(0.996264)" xlink:href="#CMR17-48"/>
       <use transform="translate(45.690477 0)scale(0.996264)" xlink:href="#CMMI12-58"/>
       <use transform="translate(72.787654 0)scale(0.996264)" xlink:href="#CMR17-48"/>
       <use transform="translate(118.478131 0)scale(0.996264)" xlink:href="#CMR17-51"/>
       <use transform="translate(164.168608 0)scale(0.996264)" xlink:href="#CMR17-48"/>
      </g>
     </g>
    </g>
    <g id="ytick_7">
     <g id="line2d_16">
      <g>
       <use style="stroke:#000000;stroke-width:0.8;" x="57.6" xlink:href="#m6665a993d4" y="97.322171"/>
      </g>
     </g>
     <g id="text_16">
      <!-- $\mathdefault{0.035}$ -->
      <g transform="translate(27.907251 100.78142)scale(0.1 -0.1)">
       <use transform="scale(0.996264)" xlink:href="#CMR17-48"/>
       <use transform="translate(45.690477 0)scale(0.996264)" xlink:href="#CMMI12-58"/>
       <use transform="translate(72.787654 0)scale(0.996264)" xlink:href="#CMR17-48"/>
       <use transform="translate(118.478131 0)scale(0.996264)" xlink:href="#CMR17-51"/>
       <use transform="translate(164.168608 0)scale(0.996264)" xlink:href="#CMR17-53"/>
      </g>
     </g>
    </g>
    <g id="ytick_8">
     <g id="line2d_17">
      <g>
       <use style="stroke:#000000;stroke-width:0.8;" x="57.6" xlink:href="#m6665a993d4" y="64.6538"/>
      </g>
     </g>
     <g id="text_17">
      <!-- $\mathdefault{0.040}$ -->
      <g transform="translate(27.907251 68.113049)scale(0.1 -0.1)">
       <defs>
        <path d="M 33.59375 64.40625 
C 33.59375 66.5 33.5 66.5 31.703125 66.5 
L 2 19.59375 
L 2 17 
L 27.796875 17 
L 27.796875 7.140625 
C 27.796875 3.5 27.59375 2.5 20.59375 2.5 
L 18.703125 2.5 
L 18.703125 0 
C 21.90625 0 27.296875 0 30.703125 0 
C 34.09375 0 39.5 0 42.703125 0 
L 42.703125 2.5 
L 40.796875 2.5 
C 33.796875 2.5 33.59375 3.5 33.59375 7.140625 
L 33.59375 17 
L 43.796875 17 
L 43.796875 19.59375 
L 33.59375 19.59375 
z
M 28.09375 57.859375 
L 28.09375 19.59375 
L 4 19.59375 
z
" id="CMR17-52"/>
       </defs>
       <use transform="scale(0.996264)" xlink:href="#CMR17-48"/>
       <use transform="translate(45.690477 0)scale(0.996264)" xlink:href="#CMMI12-58"/>
       <use transform="translate(72.787654 0)scale(0.996264)" xlink:href="#CMR17-48"/>
       <use transform="translate(118.478131 0)scale(0.996264)" xlink:href="#CMR17-52"/>
       <use transform="translate(164.168608 0)scale(0.996264)" xlink:href="#CMR17-48"/>
      </g>
     </g>
    </g>
   </g>
   <g id="line2d_18">
    <path clip-path="url(#pfbbfec13eb)" d="M 73.832727 64.6538 
L 74.337565 64.744378 
L 74.357044 67.588292 
L 74.405743 129.623952 
L 74.46418 66.472692 
L 74.506385 55.32815 
L 74.550214 76.017457 
L 74.600535 98.87526 
L 74.64761 66.798334 
L 74.696308 57.482392 
L 74.764486 62.00617 
L 74.947916 74.737848 
L 74.969018 73.147533 
L 75.076154 53.568 
L 75.131345 65.797643 
L 75.175174 69.580265 
L 75.244975 66.315498 
L 75.279063 67.070116 
L 75.449507 70.826338 
L 75.355357 66.796865 
L 75.481972 69.506427 
L 75.584239 64.601036 
L 75.645923 65.335023 
L 75.731956 68.107402 
L 75.821236 67.215877 
L 75.910516 68.846618 
L 75.967331 67.564604 
L 76.042001 65.770778 
L 76.103686 66.606417 
L 76.186473 67.675962 
L 76.231924 67.477857 
L 76.290362 67.767969 
L 76.340684 67.387707 
L 76.342307 67.51659 
L 76.44782 67.206798 
L 76.449443 67.414623 
L 76.525737 66.79427 
L 76.561449 66.99902 
L 76.624756 67.918519 
L 76.673455 67.681159 
L 76.788707 66.669208 
L 76.897466 67.536499 
L 76.80494 66.627818 
L 76.900713 67.53525 
L 76.977007 66.874295 
L 77.012719 67.067522 
L 77.085766 68.138612 
L 77.124724 67.886857 
L 77.23673 67.194603 
L 77.348736 67.684756 
L 77.350359 67.561658 
L 77.355229 67.688803 
L 77.444509 67.344998 
L 77.459119 67.413169 
L 77.460742 67.371502 
L 77.540282 68.183067 
L 77.564631 68.280062 
L 77.614953 67.874952 
L 77.616576 67.901237 
L 77.705856 67.51461 
L 77.735075 67.534637 
L 77.850327 67.828576 
L 77.913635 67.666467 
L 77.957463 67.930986 
L 77.959087 67.807846 
L 78.048367 68.565765 
L 78.074339 68.467417 
L 78.173359 67.821098 
L 78.189591 67.829688 
L 78.301597 68.147676 
L 78.30322 68.022307 
L 78.408733 68.225608 
L 78.410356 68.11289 
L 78.528855 68.881155 
L 78.530479 68.783026 
L 78.538595 68.891417 
L 78.634368 68.36422 
L 78.635991 68.447742 
L 78.663587 68.328685 
L 78.743127 68.529305 
L 78.744751 68.45845 
L 78.860003 68.709828 
L 78.861626 68.652409 
L 78.960646 69.024381 
L 78.962269 68.986266 
L 79.035316 69.360549 
L 79.079145 69.211712 
L 79.080768 69.240719 
L 79.150569 69.032902 
L 79.181411 69.080892 
L 79.183034 69.056767 
L 79.278807 69.267446 
L 79.280431 69.253004 
L 79.415162 69.587735 
L 79.416785 69.585239 
L 79.545024 70.10226 
L 79.582359 70.048312 
L 79.65216 69.97308 
L 79.700858 70.031431 
L 79.903767 70.65451 
L 79.905391 70.644925 
L 79.965452 70.942995 
L 79.967075 70.935012 
L 80.075834 71.289598 
L 80.09856 71.286719 
L 80.109923 71.265709 
L 80.199203 71.403122 
L 80.200826 71.385117 
L 80.348544 72.027725 
L 80.350167 72.009463 
L 80.426461 72.367578 
L 80.428084 72.350377 
L 80.572556 73.103695 
L 80.574179 73.079979 
L 80.666705 73.310945 
L 80.668329 73.288216 
L 80.819293 74.141111 
L 80.820916 74.122711 
L 80.890717 74.566935 
L 80.89234 74.548301 
L 81.053044 75.73584 
L 81.054668 75.716009 
L 81.130961 76.104769 
L 81.132585 76.083652 
L 81.296535 77.290122 
L 81.298159 77.276121 
L 81.351727 77.771639 
L 81.35335 77.757243 
L 81.530287 79.514513 
L 81.53191 79.502076 
L 81.582231 79.968481 
L 81.583855 79.953992 
L 81.760791 81.627711 
L 81.762415 81.619978 
L 81.79001 81.978159 
L 81.791633 81.970859 
L 81.991296 84.515549 
L 81.992919 84.511389 
L 82.007529 84.733297 
L 82.009152 84.728897 
L 82.199075 87.0651 
L 82.200698 87.061362 
L 82.215308 87.284019 
L 82.216931 87.281365 
L 82.452305 90.930184 
L 82.466915 91.145197 
L 82.689303 94.62997 
L 82.703913 94.840318 
L 82.978246 99.832827 
L 83.022074 100.635074 
L 83.280175 105.38717 
L 83.346729 106.721617 
L 83.634048 112.534166 
L 83.697356 113.724117 
L 84.043113 121.129043 
L 84.158365 123.492341 
L 84.543081 131.933313 
L 84.690799 135.052359 
L 85.094993 144.136415 
L 85.252451 147.515133 
L 85.64366 156.386027 
L 85.801117 159.860878 
L 86.189079 168.603328 
L 86.359523 172.451479 
L 86.762095 181.377519 
L 87.198755 191.041876 
L 87.408157 195.640166 
L 87.851311 205.100405 
L 88.164602 211.628 
L 88.656454 221.575267 
L 88.904815 226.423088 
L 89.338228 234.539675 
L 89.667753 240.441255 
L 90.123892 248.172442 
L 90.378746 252.226385 
L 90.765085 258.010612 
L 91.16928 263.666645 
L 91.365696 266.212427 
L 91.7147 270.462961 
L 91.875404 272.301225 
L 92.201681 275.78126 
L 92.336413 277.110796 
L 92.646458 280.015144 
L 92.761711 280.987383 
L 93.065263 283.459894 
L 93.148049 284.069074 
L 93.425629 286.023998 
L 93.49543 286.471896 
L 93.747037 287.980654 
L 93.787619 288.200181 
L 94.032733 289.529706 
L 94.063575 289.67192 
L 94.285964 290.693014 
L 94.310313 290.791964 
L 94.526208 291.695674 
L 94.527831 291.694717 
L 94.555427 291.802443 
L 94.55705 291.801399 
L 94.756713 292.495478 
L 94.758336 292.493748 
L 94.792425 292.60934 
L 94.794048 292.607627 
L 94.987217 293.218925 
L 94.988841 293.216524 
L 95.032669 293.340367 
L 95.034292 293.337708 
L 95.211229 293.782465 
L 95.212852 293.779311 
L 95.26642 293.904948 
L 95.268044 293.901639 
L 95.438487 294.283949 
L 95.440111 294.28046 
L 95.503418 294.407433 
L 95.505041 294.403455 
L 95.659252 294.659878 
L 95.660876 294.655569 
L 95.733923 294.767886 
L 95.735546 294.763292 
L 95.883264 294.968635 
L 95.884887 294.964098 
L 95.961181 295.068325 
L 95.962804 295.063396 
L 96.100783 295.195365 
L 96.102406 295.189942 
L 96.191686 295.266387 
L 96.193309 295.260814 
L 96.324794 295.348637 
L 96.326417 295.342926 
L 96.422191 295.410793 
L 96.423814 295.405051 
L 96.545559 295.45691 
L 96.654319 295.468492 
L 96.769571 295.483101 
L 96.884823 295.479356 
L 96.996829 295.481214 
L 97.118575 295.435686 
L 97.120198 295.441708 
L 97.222464 295.397768 
L 97.224087 295.403642 
L 97.352326 295.338953 
L 97.353949 295.344818 
L 97.452969 295.297173 
L 97.454592 295.302889 
L 97.589324 295.207307 
L 97.590947 295.212585 
L 97.683473 295.138593 
L 97.685097 295.143864 
L 97.823075 295.028289 
L 97.824698 295.033432 
L 97.917225 294.957673 
L 97.918848 294.962878 
L 98.060073 294.830771 
L 98.061696 294.835484 
L 98.144483 294.745066 
L 98.146106 294.749803 
L 98.290577 294.596199 
L 98.292201 294.600799 
L 98.374988 294.51007 
L 98.376611 294.514775 
L 98.521082 294.360032 
L 98.522705 294.364393 
L 98.602246 294.262815 
L 98.603869 294.267088 
L 98.751587 294.087591 
L 98.75321 294.091833 
L 98.832751 293.990685 
L 98.834374 293.994936 
L 98.982092 293.821461 
L 98.983715 293.825631 
L 99.060009 293.723374 
L 99.061632 293.727331 
L 99.212596 293.528773 
L 99.21422 293.532776 
L 99.290513 293.430444 
L 99.292137 293.434382 
L 99.443101 293.245317 
L 99.444724 293.249341 
L 99.521018 293.148886 
L 99.522641 293.152692 
L 99.676852 292.943613 
L 99.678476 292.947411 
L 99.754769 292.844848 
L 99.756393 292.84861 
L 99.907357 292.654709 
L 99.90898 292.658561 
L 99.985274 292.561652 
L 99.986897 292.565396 
L 100.144355 292.355669 
L 100.145978 292.359282 
L 100.222272 292.258537 
L 100.223895 292.262186 
L 100.378106 292.067676 
L 100.379729 292.071358 
L 100.456023 291.977974 
L 100.457647 291.981659 
L 100.611857 291.787312 
L 100.613481 291.79078 
L 100.689775 291.693045 
L 100.691398 291.696594 
L 100.845609 291.511625 
L 100.847232 291.515167 
L 100.926772 291.422099 
L 100.928396 291.425712 
L 101.082607 291.24735 
L 101.08423 291.250737 
L 101.160524 291.157813 
L 101.162147 291.161262 
L 101.313111 290.993053 
L 101.314735 290.996509 
L 101.394275 290.908546 
L 101.395898 290.912068 
L 101.546863 290.755021 
L 101.548486 290.758393 
L 101.628026 290.668865 
L 101.629649 290.672223 
L 101.780614 290.518015 
L 101.782237 290.521431 
L 101.865024 290.437371 
L 101.866647 290.440806 
L 102.014365 290.303288 
L 102.015988 290.30668 
L 102.098775 290.223642 
L 102.100399 290.22694 
L 102.248116 290.089645 
L 102.24974 290.093035 
L 102.332527 290.017725 
L 102.33415 290.021095 
L 102.478621 289.900655 
L 102.480244 289.904061 
L 102.566278 289.829648 
L 102.567901 289.832925 
L 102.715619 289.709064 
L 102.717242 289.712412 
L 102.803276 289.643804 
L 102.804899 289.647132 
L 102.94937 289.540006 
L 102.950993 289.543381 
L 103.040273 289.4776 
L 103.041897 289.480872 
L 103.186368 289.373514 
L 103.187991 289.376794 
L 103.277271 289.314729 
L 103.278895 289.318023 
L 103.423366 289.224046 
L 103.424989 289.22736 
L 103.517516 289.169338 
L 103.519139 289.172596 
L 103.66361 289.079525 
L 103.665233 289.082728 
L 103.75776 289.026752 
L 103.759383 289.029998 
L 103.900608 288.95059 
L 103.916841 288.942383 
L 103.999628 288.905752 
L 104.140852 288.828115 
L 104.239872 288.783868 
L 104.37785 288.717565 
L 104.480116 288.678394 
L 104.621341 288.613154 
L 104.723607 288.573818 
L 104.861585 288.517704 
L 104.967098 288.48367 
L 105.105076 288.43031 
L 105.210589 288.395617 
L 105.348567 288.348239 
L 105.457327 288.318841 
L 105.595305 288.274179 
L 105.704064 288.243937 
L 105.838796 288.20479 
L 105.950801 288.179514 
L 106.08878 288.141947 
L 106.200785 288.115677 
L 106.335517 288.082491 
L 106.450769 288.060836 
L 106.585501 288.029627 
L 106.700753 288.006788 
L 106.835485 287.978485 
L 106.953984 287.959856 
L 107.091962 287.932368 
L 107.210461 287.912546 
L 107.345193 287.888331 
L 107.463692 287.872712 
L 107.60167 287.848654 
L 107.720169 287.831842 
L 107.858147 287.810426 
L 107.979892 287.796769 
L 108.117871 287.775298 
L 108.239616 287.760668 
L 108.377594 287.741931 
L 108.502586 287.729872 
L 108.643811 287.709898 
L 108.768803 287.697427 
L 108.910028 287.680396 
L 109.038266 287.669663 
L 109.179491 287.651193 
L 109.307729 287.64086 
L 109.448954 287.625422 
L 109.580439 287.615586 
L 109.724911 287.598517 
L 109.856396 287.589924 
L 110.000867 287.575673 
L 110.135599 287.566125 
L 110.28007 287.551588 
L 110.414801 287.5439 
L 110.562519 287.530937 
L 110.700497 287.521597 
L 110.848215 287.509734 
L 110.986193 287.502521 
L 111.137158 287.490385 
L 111.278383 287.482619 
L 111.429347 287.472343 
L 111.573818 287.465865 
L 111.728029 287.454341 
L 111.875747 287.448971 
L 112.029958 287.439518 
L 112.177676 287.433478 
L 112.335133 287.42467 
L 112.486097 287.420116 
L 112.643555 287.41183 
L 112.797766 287.407082 
L 112.95847 287.400339 
L 113.115927 287.396603 
L 113.279878 287.389374 
L 113.440582 287.387026 
L 113.607779 287.381188 
L 113.771729 287.3782 
L 113.938927 287.373965 
L 114.106124 287.372238 
L 114.276567 287.367561 
L 114.447011 287.367223 
L 114.620701 287.363811 
L 114.794391 287.363105 
L 114.971328 287.361115 
L 115.151511 287.361339 
L 115.331695 287.359446 
L 115.515124 287.360815 
L 115.701801 287.359531 
L 115.891724 287.36156 
L 116.081647 287.361283 
L 116.274816 287.363258 
L 116.467985 287.364141 
L 116.667648 287.36687 
L 116.867311 287.367958 
L 117.073466 287.371487 
L 117.279622 287.372829 
L 117.492271 287.377146 
L 117.704919 287.379059 
L 117.924061 287.383636 
L 118.143203 287.386086 
L 118.372084 287.390772 
L 118.600966 287.393773 
L 118.83634 287.398552 
L 119.074961 287.401962 
L 119.320076 287.406872 
L 119.56519 287.410445 
L 119.820044 287.415415 
L 120.078144 287.4191 
L 120.342737 287.424069 
L 120.610577 287.427661 
L 120.888157 287.432626 
L 121.17223 287.436068 
L 121.462796 287.440917 
L 121.759855 287.444024 
L 122.066653 287.448553 
L 122.379945 287.451546 
L 122.702976 287.455579 
L 123.035747 287.458382 
L 123.378257 287.461941 
L 123.733754 287.464283 
L 124.098991 287.467476 
L 124.477213 287.469489 
L 124.868422 287.472082 
L 125.275863 287.473611 
L 125.699537 287.475814 
L 126.139444 287.47695 
L 126.598831 287.478702 
L 127.077696 287.479472 
L 127.582534 287.480779 
L 128.110097 287.481197 
L 128.66688 287.482115 
L 129.256128 287.482286 
L 129.877841 287.482916 
L 130.54176 287.482891 
L 131.25113 287.48322 
L 132.012445 287.483032 
L 132.832198 287.483156 
L 133.723375 287.482796 
L 134.698961 287.482745 
L 135.775191 287.48229 
L 136.97479 287.482089 
L 138.333469 287.481576 
L 139.890188 287.481304 
L 141.716369 287.480875 
L 143.922397 287.480712 
L 146.680337 287.480534 
L 150.342441 287.48053 
L 155.668399 287.480593 
L 164.860992 287.480603 
L 188.443898 287.480605 
L 398.487273 287.480832 
L 398.487273 287.480832 
" style="fill:none;stroke:#1f77b4;stroke-linecap:square;stroke-width:1.5;"/>
   </g>
   <g id="patch_3">
    <path d="M 57.6 307.584 
L 57.6 41.472 
" style="fill:none;stroke:#000000;stroke-linecap:square;stroke-linejoin:miter;stroke-width:0.8;"/>
   </g>
   <g id="patch_4">
    <path d="M 414.72 307.584 
L 414.72 41.472 
" style="fill:none;stroke:#000000;stroke-linecap:square;stroke-linejoin:miter;stroke-width:0.8;"/>
   </g>
   <g id="patch_5">
    <path d="M 57.6 307.584 
L 414.72 307.584 
" style="fill:none;stroke:#000000;stroke-linecap:square;stroke-linejoin:miter;stroke-width:0.8;"/>
   </g>
   <g id="patch_6">
    <path d="M 57.6 41.472 
L 414.72 41.472 
" style="fill:none;stroke:#000000;stroke-linecap:square;stroke-linejoin:miter;stroke-width:0.8;"/>
   </g>
  </g>
 </g>
 <defs>
  <clipPath id="pfbbfec13eb">
   <rect height="266.112" width="357.12" x="57.6" y="41.472"/>
  </clipPath>
 </defs>
</svg>
