<?xml version="1.0" encoding="utf-8" standalone="no"?>
<!DOCTYPE svg PUBLIC "-//W3C//DTD SVG 1.1//EN"
  "http://www.w3.org/Graphics/SVG/1.1/DTD/svg11.dtd">
<!-- Created with matplotlib (https://matplotlib.org/) -->
<svg height="345.6pt" version="1.1" viewBox="0 0 460.8 345.6" width="460.8pt" xmlns="http://www.w3.org/2000/svg" xmlns:xlink="http://www.w3.org/1999/xlink">
 <metadata>
  <rdf:RDF xmlns:cc="http://creativecommons.org/ns#" xmlns:dc="http://purl.org/dc/elements/1.1/" xmlns:rdf="http://www.w3.org/1999/02/22-rdf-syntax-ns#">
   <cc:Work>
    <dc:type rdf:resource="http://purl.org/dc/dcmitype/StillImage"/>
    <dc:date>2020-07-25T22:28:46.420774</dc:date>
    <dc:format>image/svg+xml</dc:format>
    <dc:creator>
     <cc:Agent>
      <dc:title>Matplotlib v3.3.0, https://matplotlib.org/</dc:title>
     </cc:Agent>
    </dc:creator>
   </cc:Work>
  </rdf:RDF>
 </metadata>
 <defs>
  <style type="text/css">*{stroke-linecap:butt;stroke-linejoin:round;}</style>
 </defs>
 <g id="figure_1">
  <g id="patch_1">
   <path d="M 0 345.6 
L 460.8 345.6 
L 460.8 0 
L 0 0 
z
" style="fill:#ffffff;"/>
  </g>
  <g id="axes_1">
   <g id="patch_2">
    <path d="M 57.6 307.584 
L 414.72 307.584 
L 414.72 41.472 
L 57.6 41.472 
z
" style="fill:#ffffff;"/>
   </g>
   <g id="matplotlib.axis_1">
    <g id="xtick_1">
     <g id="line2d_1">
      <defs>
       <path d="M 0 0 
L 0 3.5 
" id="m3a1b2f35fd" style="stroke:#000000;stroke-width:0.8;"/>
      </defs>
      <g>
       <use style="stroke:#000000;stroke-width:0.8;" x="73.832727" xlink:href="#m3a1b2f35fd" y="307.584"/>
      </g>
     </g>
     <g id="text_1">
      <!-- $\mathdefault{0}$ -->
      <g transform="translate(71.34206 321.502498)scale(0.1 -0.1)">
       <defs>
        <path d="M 42 31.640625 
C 42 37.75 41.90625 48.125 37.703125 56.109375 
C 34 63.109375 28.09375 65.59375 22.90625 65.59375 
C 18.09375 65.59375 12 63.40625 8.203125 56.203125 
C 4.203125 48.71875 3.796875 39.4375 3.796875 31.640625 
C 3.796875 25.953125 3.90625 17.28125 7 9.671875 
C 11.296875 -0.609375 19 -2 22.90625 -2 
C 27.5 -2 34.5 -0.109375 38.59375 9.375 
C 41.59375 16.28125 42 24.359375 42 31.640625 
z
M 22.90625 -0.40625 
C 16.5 -0.40625 12.703125 5.078125 11.296875 12.6875 
C 10.203125 18.5625 10.203125 27.15625 10.203125 32.75 
C 10.203125 40.4375 10.203125 46.828125 11.5 52.921875 
C 13.40625 61.390625 19 64 22.90625 64 
C 27 64 32.296875 61.296875 34.203125 53.125 
C 35.5 47.4375 35.59375 40.734375 35.59375 32.75 
C 35.59375 26.25 35.59375 18.265625 34.40625 12.375 
C 32.296875 1.484375 26.40625 -0.40625 22.90625 -0.40625 
z
" id="CMR17-48"/>
       </defs>
       <use transform="scale(0.996264)" xlink:href="#CMR17-48"/>
      </g>
     </g>
    </g>
    <g id="xtick_2">
     <g id="line2d_2">
      <g>
       <use style="stroke:#000000;stroke-width:0.8;" x="114.414545" xlink:href="#m3a1b2f35fd" y="307.584"/>
      </g>
     </g>
     <g id="text_2">
      <!-- $\mathdefault{25000}$ -->
      <g transform="translate(101.961207 321.502498)scale(0.1 -0.1)">
       <defs>
        <path d="M 41.703125 15.453125 
L 39.90625 15.453125 
C 38.90625 8.375 38.09375 7.171875 37.703125 6.5625 
C 37.203125 5.765625 30 5.765625 28.59375 5.765625 
L 9.40625 5.765625 
C 13 9.671875 20 16.75 28.5 24.953125 
C 34.59375 30.734375 41.703125 37.53125 41.703125 47.421875 
C 41.703125 59.21875 32.296875 66 21.796875 66 
C 10.796875 66 4.09375 56.3125 4.09375 47.34375 
C 4.09375 43.4375 7 42.9375 8.203125 42.9375 
C 9.203125 42.9375 12.203125 43.546875 12.203125 47.03125 
C 12.203125 50.109375 9.59375 51 8.203125 51 
C 7.59375 51 7 50.90625 6.59375 50.703125 
C 8.5 59.21875 14.296875 63.40625 20.40625 63.40625 
C 29.09375 63.40625 34.796875 56.515625 34.796875 47.421875 
C 34.796875 38.734375 29.703125 31.25 24 24.75 
L 4.09375 2.28125 
L 4.09375 0 
L 39.296875 0 
z
" id="CMR17-50"/>
        <path d="M 11.40625 57.6875 
C 12.40625 57.28125 16.5 56 20.703125 56 
C 30 56 35.09375 61.109375 38 64.0625 
C 38 64.953125 38 65.5 37.40625 65.5 
C 37.296875 65.5 37.09375 65.5 36.296875 65.046875 
C 32.796875 63.40625 28.703125 62.078125 23.703125 62.078125 
C 20.703125 62.078125 16.203125 62.484375 11.296875 64.671875 
C 10.203125 65.171875 10 65.171875 9.90625 65.171875 
C 9.40625 65.171875 9.296875 65.0625 9.296875 63.078125 
L 9.296875 34.421875 
C 9.296875 32.640625 9.296875 32.140625 10.296875 32.140625 
C 10.796875 32.140625 11 32.34375 11.5 33.03125 
C 14.703125 37.515625 19.09375 39.40625 24.09375 39.40625 
C 27.59375 39.40625 35.09375 37.21875 35.09375 20.140625 
C 35.09375 16.953125 35.09375 11.171875 32.09375 6.578125 
C 29.59375 2.484375 25.703125 0.390625 21.40625 0.390625 
C 14.796875 0.390625 8.09375 5 6.296875 12.71875 
C 6.703125 12.609375 7.5 12.421875 7.90625 12.421875 
C 9.203125 12.421875 11.703125 13.125 11.703125 16.21875 
C 11.703125 18.90625 9.796875 20 7.90625 20 
C 5.59375 20 4.09375 18.59375 4.09375 15.796875 
C 4.09375 7.09375 11 -2 21.59375 -2 
C 31.90625 -2 41.703125 6.875 41.703125 19.75 
C 41.703125 31.71875 33.90625 41 24.203125 41 
C 19.09375 41 14.796875 39.109375 11.40625 35.53125 
z
" id="CMR17-53"/>
       </defs>
       <use transform="scale(0.996264)" xlink:href="#CMR17-50"/>
       <use transform="translate(45.690477 0)scale(0.996264)" xlink:href="#CMR17-53"/>
       <use transform="translate(91.380954 0)scale(0.996264)" xlink:href="#CMR17-48"/>
       <use transform="translate(137.071431 0)scale(0.996264)" xlink:href="#CMR17-48"/>
       <use transform="translate(182.761908 0)scale(0.996264)" xlink:href="#CMR17-48"/>
      </g>
     </g>
    </g>
    <g id="xtick_3">
     <g id="line2d_3">
      <g>
       <use style="stroke:#000000;stroke-width:0.8;" x="154.996364" xlink:href="#m3a1b2f35fd" y="307.584"/>
      </g>
     </g>
     <g id="text_3">
      <!-- $\mathdefault{50000}$ -->
      <g transform="translate(142.543026 321.502498)scale(0.1 -0.1)">
       <use transform="scale(0.996264)" xlink:href="#CMR17-53"/>
       <use transform="translate(45.690477 0)scale(0.996264)" xlink:href="#CMR17-48"/>
       <use transform="translate(91.380954 0)scale(0.996264)" xlink:href="#CMR17-48"/>
       <use transform="translate(137.071431 0)scale(0.996264)" xlink:href="#CMR17-48"/>
       <use transform="translate(182.761908 0)scale(0.996264)" xlink:href="#CMR17-48"/>
      </g>
     </g>
    </g>
    <g id="xtick_4">
     <g id="line2d_4">
      <g>
       <use style="stroke:#000000;stroke-width:0.8;" x="195.578182" xlink:href="#m3a1b2f35fd" y="307.584"/>
      </g>
     </g>
     <g id="text_4">
      <!-- $\mathdefault{75000}$ -->
      <g transform="translate(183.124844 321.502498)scale(0.1 -0.1)">
       <defs>
        <path d="M 45.09375 61.578125 
L 45.09375 63.765625 
L 21.59375 63.765625 
C 9.90625 63.765625 9.703125 65.078125 9.296875 67 
L 7.5 67 
L 4.59375 48.34375 
L 6.40625 48.34375 
C 6.703125 50.234375 7.40625 55.3125 8.59375 57.203125 
C 9.203125 58 16.59375 58 18.296875 58 
L 40.296875 58 
L 29.203125 41.578125 
C 21.796875 30.53125 16.703125 15.609375 16.703125 2.578125 
C 16.703125 1.390625 16.703125 -2 20.296875 -2 
C 23.90625 -2 23.90625 1.390625 23.90625 2.671875 
L 23.90625 7.265625 
C 23.90625 23.5625 26.703125 34.3125 31.296875 41.1875 
z
" id="CMR17-55"/>
       </defs>
       <use transform="scale(0.996264)" xlink:href="#CMR17-55"/>
       <use transform="translate(45.690477 0)scale(0.996264)" xlink:href="#CMR17-53"/>
       <use transform="translate(91.380954 0)scale(0.996264)" xlink:href="#CMR17-48"/>
       <use transform="translate(137.071431 0)scale(0.996264)" xlink:href="#CMR17-48"/>
       <use transform="translate(182.761908 0)scale(0.996264)" xlink:href="#CMR17-48"/>
      </g>
     </g>
    </g>
    <g id="xtick_5">
     <g id="line2d_5">
      <g>
       <use style="stroke:#000000;stroke-width:0.8;" x="236.16" xlink:href="#m3a1b2f35fd" y="307.584"/>
      </g>
     </g>
     <g id="text_5">
      <!-- $\mathdefault{100000}$ -->
      <g transform="translate(221.215994 321.502498)scale(0.1 -0.1)">
       <defs>
        <path d="M 26.59375 63.40625 
C 26.59375 65.5 26.5 65.5 25.09375 65.5 
C 21.203125 61.1875 15.296875 59.796875 9.703125 59.796875 
C 9.40625 59.796875 8.90625 59.796875 8.796875 59.5 
C 8.703125 59.296875 8.703125 59.09375 8.703125 57 
C 11.796875 57 17 57.59375 21 59.984375 
L 21 7.203125 
C 21 3.6875 20.796875 2.5 12.203125 2.5 
L 9.203125 2.5 
L 9.203125 0 
C 14 0 19 0 23.796875 0 
C 28.59375 0 33.59375 0 38.40625 0 
L 38.40625 2.5 
L 35.40625 2.5 
C 26.796875 2.5 26.59375 3.59375 26.59375 7.15625 
z
" id="CMR17-49"/>
       </defs>
       <use transform="scale(0.996264)" xlink:href="#CMR17-49"/>
       <use transform="translate(45.690477 0)scale(0.996264)" xlink:href="#CMR17-48"/>
       <use transform="translate(91.380954 0)scale(0.996264)" xlink:href="#CMR17-48"/>
       <use transform="translate(137.071431 0)scale(0.996264)" xlink:href="#CMR17-48"/>
       <use transform="translate(182.761908 0)scale(0.996264)" xlink:href="#CMR17-48"/>
       <use transform="translate(228.452386 0)scale(0.996264)" xlink:href="#CMR17-48"/>
      </g>
     </g>
    </g>
    <g id="xtick_6">
     <g id="line2d_6">
      <g>
       <use style="stroke:#000000;stroke-width:0.8;" x="276.741818" xlink:href="#m3a1b2f35fd" y="307.584"/>
      </g>
     </g>
     <g id="text_6">
      <!-- $\mathdefault{125000}$ -->
      <g transform="translate(261.797812 321.502498)scale(0.1 -0.1)">
       <use transform="scale(0.996264)" xlink:href="#CMR17-49"/>
       <use transform="translate(45.690477 0)scale(0.996264)" xlink:href="#CMR17-50"/>
       <use transform="translate(91.380954 0)scale(0.996264)" xlink:href="#CMR17-53"/>
       <use transform="translate(137.071431 0)scale(0.996264)" xlink:href="#CMR17-48"/>
       <use transform="translate(182.761908 0)scale(0.996264)" xlink:href="#CMR17-48"/>
       <use transform="translate(228.452386 0)scale(0.996264)" xlink:href="#CMR17-48"/>
      </g>
     </g>
    </g>
    <g id="xtick_7">
     <g id="line2d_7">
      <g>
       <use style="stroke:#000000;stroke-width:0.8;" x="317.323636" xlink:href="#m3a1b2f35fd" y="307.584"/>
      </g>
     </g>
     <g id="text_7">
      <!-- $\mathdefault{150000}$ -->
      <g transform="translate(302.379631 321.502498)scale(0.1 -0.1)">
       <use transform="scale(0.996264)" xlink:href="#CMR17-49"/>
       <use transform="translate(45.690477 0)scale(0.996264)" xlink:href="#CMR17-53"/>
       <use transform="translate(91.380954 0)scale(0.996264)" xlink:href="#CMR17-48"/>
       <use transform="translate(137.071431 0)scale(0.996264)" xlink:href="#CMR17-48"/>
       <use transform="translate(182.761908 0)scale(0.996264)" xlink:href="#CMR17-48"/>
       <use transform="translate(228.452386 0)scale(0.996264)" xlink:href="#CMR17-48"/>
      </g>
     </g>
    </g>
    <g id="xtick_8">
     <g id="line2d_8">
      <g>
       <use style="stroke:#000000;stroke-width:0.8;" x="357.905455" xlink:href="#m3a1b2f35fd" y="307.584"/>
      </g>
     </g>
     <g id="text_8">
      <!-- $\mathdefault{175000}$ -->
      <g transform="translate(342.961449 321.502498)scale(0.1 -0.1)">
       <use transform="scale(0.996264)" xlink:href="#CMR17-49"/>
       <use transform="translate(45.690477 0)scale(0.996264)" xlink:href="#CMR17-55"/>
       <use transform="translate(91.380954 0)scale(0.996264)" xlink:href="#CMR17-53"/>
       <use transform="translate(137.071431 0)scale(0.996264)" xlink:href="#CMR17-48"/>
       <use transform="translate(182.761908 0)scale(0.996264)" xlink:href="#CMR17-48"/>
       <use transform="translate(228.452386 0)scale(0.996264)" xlink:href="#CMR17-48"/>
      </g>
     </g>
    </g>
    <g id="xtick_9">
     <g id="line2d_9">
      <g>
       <use style="stroke:#000000;stroke-width:0.8;" x="398.487273" xlink:href="#m3a1b2f35fd" y="307.584"/>
      </g>
     </g>
     <g id="text_9">
      <!-- $\mathdefault{200000}$ -->
      <g transform="translate(383.543267 321.502498)scale(0.1 -0.1)">
       <use transform="scale(0.996264)" xlink:href="#CMR17-50"/>
       <use transform="translate(45.690477 0)scale(0.996264)" xlink:href="#CMR17-48"/>
       <use transform="translate(91.380954 0)scale(0.996264)" xlink:href="#CMR17-48"/>
       <use transform="translate(137.071431 0)scale(0.996264)" xlink:href="#CMR17-48"/>
       <use transform="translate(182.761908 0)scale(0.996264)" xlink:href="#CMR17-48"/>
       <use transform="translate(228.452386 0)scale(0.996264)" xlink:href="#CMR17-48"/>
      </g>
     </g>
    </g>
   </g>
   <g id="matplotlib.axis_2">
    <g id="ytick_1">
     <g id="line2d_10">
      <defs>
       <path d="M 0 0 
L -3.5 0 
" id="m96c920d59d" style="stroke:#000000;stroke-width:0.8;"/>
      </defs>
      <g>
       <use style="stroke:#000000;stroke-width:0.8;" x="57.6" xlink:href="#m96c920d59d" y="296.634326"/>
      </g>
     </g>
     <g id="text_10">
      <!-- $\mathdefault{0.00}$ -->
      <g transform="translate(32.888586 300.093575)scale(0.1 -0.1)">
       <defs>
        <path d="M 18.40625 4.796875 
C 18.40625 7.6875 16 9.671875 13.59375 9.671875 
C 10.703125 9.671875 8.703125 7.28125 8.703125 4.890625 
C 8.703125 2 11.09375 0 13.5 0 
C 16.40625 0 18.40625 2.390625 18.40625 4.796875 
z
" id="CMMI12-58"/>
       </defs>
       <use transform="scale(0.996264)" xlink:href="#CMR17-48"/>
       <use transform="translate(45.690477 0)scale(0.996264)" xlink:href="#CMMI12-58"/>
       <use transform="translate(72.787654 0)scale(0.996264)" xlink:href="#CMR17-48"/>
       <use transform="translate(118.478131 0)scale(0.996264)" xlink:href="#CMR17-48"/>
      </g>
     </g>
    </g>
    <g id="ytick_2">
     <g id="line2d_11">
      <g>
       <use style="stroke:#000000;stroke-width:0.8;" x="57.6" xlink:href="#m96c920d59d" y="239.607333"/>
      </g>
     </g>
     <g id="text_11">
      <!-- $\mathdefault{0.02}$ -->
      <g transform="translate(32.888586 243.066582)scale(0.1 -0.1)">
       <use transform="scale(0.996264)" xlink:href="#CMR17-48"/>
       <use transform="translate(45.690477 0)scale(0.996264)" xlink:href="#CMMI12-58"/>
       <use transform="translate(72.787654 0)scale(0.996264)" xlink:href="#CMR17-48"/>
       <use transform="translate(118.478131 0)scale(0.996264)" xlink:href="#CMR17-50"/>
      </g>
     </g>
    </g>
    <g id="ytick_3">
     <g id="line2d_12">
      <g>
       <use style="stroke:#000000;stroke-width:0.8;" x="57.6" xlink:href="#m96c920d59d" y="182.580339"/>
      </g>
     </g>
     <g id="text_12">
      <!-- $\mathdefault{0.04}$ -->
      <g transform="translate(32.888586 186.039588)scale(0.1 -0.1)">
       <defs>
        <path d="M 33.59375 64.40625 
C 33.59375 66.5 33.5 66.5 31.703125 66.5 
L 2 19.59375 
L 2 17 
L 27.796875 17 
L 27.796875 7.140625 
C 27.796875 3.5 27.59375 2.5 20.59375 2.5 
L 18.703125 2.5 
L 18.703125 0 
C 21.90625 0 27.296875 0 30.703125 0 
C 34.09375 0 39.5 0 42.703125 0 
L 42.703125 2.5 
L 40.796875 2.5 
C 33.796875 2.5 33.59375 3.5 33.59375 7.140625 
L 33.59375 17 
L 43.796875 17 
L 43.796875 19.59375 
L 33.59375 19.59375 
z
M 28.09375 57.859375 
L 28.09375 19.59375 
L 4 19.59375 
z
" id="CMR17-52"/>
       </defs>
       <use transform="scale(0.996264)" xlink:href="#CMR17-48"/>
       <use transform="translate(45.690477 0)scale(0.996264)" xlink:href="#CMMI12-58"/>
       <use transform="translate(72.787654 0)scale(0.996264)" xlink:href="#CMR17-48"/>
       <use transform="translate(118.478131 0)scale(0.996264)" xlink:href="#CMR17-52"/>
      </g>
     </g>
    </g>
    <g id="ytick_4">
     <g id="line2d_13">
      <g>
       <use style="stroke:#000000;stroke-width:0.8;" x="57.6" xlink:href="#m96c920d59d" y="125.553345"/>
      </g>
     </g>
     <g id="text_13">
      <!-- $\mathdefault{0.06}$ -->
      <g transform="translate(32.888586 129.012595)scale(0.1 -0.1)">
       <defs>
        <path d="M 10.59375 34 
C 10.59375 57.65625 21.796875 63 28.296875 63 
C 30.40625 63 35.5 62.640625 37.5 59 
C 35.90625 59 32.90625 59 32.90625 55.515625 
C 32.90625 52.828125 35.09375 51.921875 36.5 51.921875 
C 37.40625 51.921875 40.09375 52.3125 40.09375 55.625 
C 40.09375 61.78125 35.09375 65.296875 28.203125 65.296875 
C 16.296875 65.296875 3.796875 52.96875 3.796875 31 
C 3.796875 3.953125 15.09375 -2 23.09375 -2 
C 32.796875 -2 42 6.671875 42 20.046875 
C 42 32.515625 33.90625 41.59375 23.703125 41.59375 
C 17.59375 41.59375 13.09375 37.609375 10.59375 30.625 
z
M 23.09375 0.390625 
C 10.796875 0.390625 10.796875 18.75 10.796875 22.4375 
C 10.796875 29.625 14.203125 40 23.5 40 
C 25.203125 40 30.09375 40 33.40625 33.125 
C 35.203125 29.21875 35.203125 25.140625 35.203125 20.140625 
C 35.203125 14.75 35.203125 10.78125 33.09375 6.78125 
C 30.90625 2.671875 27.703125 0.390625 23.09375 0.390625 
z
" id="CMR17-54"/>
       </defs>
       <use transform="scale(0.996264)" xlink:href="#CMR17-48"/>
       <use transform="translate(45.690477 0)scale(0.996264)" xlink:href="#CMMI12-58"/>
       <use transform="translate(72.787654 0)scale(0.996264)" xlink:href="#CMR17-48"/>
       <use transform="translate(118.478131 0)scale(0.996264)" xlink:href="#CMR17-54"/>
      </g>
     </g>
    </g>
    <g id="ytick_5">
     <g id="line2d_14">
      <g>
       <use style="stroke:#000000;stroke-width:0.8;" x="57.6" xlink:href="#m96c920d59d" y="68.526352"/>
      </g>
     </g>
     <g id="text_14">
      <!-- $\mathdefault{0.08}$ -->
      <g transform="translate(32.888586 71.985601)scale(0.1 -0.1)">
       <defs>
        <path d="M 27.203125 35.375 
C 33.5 38.546875 39.90625 43.328125 39.90625 50.984375 
C 39.90625 60.015625 31.09375 65.296875 23 65.296875 
C 13.90625 65.296875 5.90625 58.734375 5.90625 49.6875 
C 5.90625 47.203125 6.5 42.921875 10.40625 39.140625 
C 11.40625 38.15625 15.59375 35.171875 18.296875 33.28125 
C 13.796875 30.984375 3.296875 25.53125 3.296875 14.59375 
C 3.296875 4.359375 13.09375 -2 22.796875 -2 
C 33.5 -2 42.5 5.65625 42.5 15.78125 
C 42.5 24.84375 36.40625 29.015625 32.40625 31.703125 
z
M 14.09375 44.09375 
C 13.296875 44.59375 9.296875 47.671875 9.296875 52.359375 
C 9.296875 58.421875 15.59375 63 22.796875 63 
C 30.703125 63 36.5 57.4375 36.5 50.96875 
C 36.5 41.703125 26.09375 36.421875 25.59375 36.421875 
C 25.5 36.421875 25.40625 36.421875 24.59375 37.03125 
z
M 32.5 23.734375 
C 34 22.640625 38.796875 19.375 38.796875 13.296875 
C 38.796875 5.953125 31.40625 0.390625 23 0.390625 
C 13.90625 0.390625 7 6.84375 7 14.6875 
C 7 22.546875 13.09375 29.09375 20 32.1875 
z
" id="CMR17-56"/>
       </defs>
       <use transform="scale(0.996264)" xlink:href="#CMR17-48"/>
       <use transform="translate(45.690477 0)scale(0.996264)" xlink:href="#CMMI12-58"/>
       <use transform="translate(72.787654 0)scale(0.996264)" xlink:href="#CMR17-48"/>
       <use transform="translate(118.478131 0)scale(0.996264)" xlink:href="#CMR17-56"/>
      </g>
     </g>
    </g>
   </g>
   <g id="line2d_15">
    <path clip-path="url(#p106453c12b)" d="M 73.832727 97.039849 
L 74.318086 97.149834 
L 74.337565 100.14207 
L 74.386263 145.915242 
L 74.443078 97.957171 
L 74.47879 91.840811 
L 74.524241 105.49646 
L 74.581056 122.470029 
L 74.623261 100.442353 
L 74.658973 93.966046 
L 74.738513 97.343661 
L 74.918697 104.743965 
L 74.934929 103.943445 
L 75.048559 89.401593 
L 75.097257 98.213588 
L 75.147578 101.41277 
L 75.210886 98.872154 
L 75.217379 98.836124 
L 75.249844 99.452271 
L 75.337501 99.073628 
L 75.430028 101.64798 
L 75.558266 97.709249 
L 75.597225 97.904815 
L 75.705984 100.387402 
L 75.72871 100.238398 
L 75.792017 99.476298 
L 75.842339 100.031661 
L 75.882921 100.359843 
L 75.933242 99.911831 
L 75.934865 99.948931 
L 76.030639 98.704517 
L 76.063104 98.93659 
L 76.168617 100.356725 
L 76.188096 100.303485 
L 76.251404 99.863983 
L 76.303348 99.873124 
L 76.304972 99.961967 
L 76.394252 99.643148 
L 76.408861 99.713855 
L 76.472169 99.652115 
L 76.515997 99.820477 
L 76.51762 99.796231 
L 76.610147 100.499118 
L 76.649105 100.400188 
L 76.808186 99.833882 
L 76.843898 99.918944 
L 76.962397 100.081303 
L 76.96402 100.053909 
L 77.030575 100.749388 
L 77.032198 100.727026 
L 77.069533 100.964438 
L 77.139334 100.662268 
L 77.140957 100.701592 
L 77.239977 100.583189 
L 77.252963 100.59102 
L 77.348736 100.830417 
L 77.371462 100.815648 
L 77.41529 100.724566 
L 77.472105 101.041894 
L 77.473728 101.014228 
L 77.559761 101.778925 
L 77.59872 101.631329 
L 77.652288 101.433956 
L 77.710726 101.523252 
L 77.832471 101.866377 
L 77.834095 101.830361 
L 77.933114 102.066836 
L 77.934737 102.041045 
L 78.059729 103.080665 
L 78.079209 103.058133 
L 78.123037 102.958635 
L 78.183098 103.156967 
L 78.184721 103.133218 
L 78.325946 103.87965 
L 78.327569 103.857667 
L 78.40711 104.260258 
L 78.408733 104.244154 
L 78.58567 105.889986 
L 78.587293 105.871227 
L 78.780463 107.460401 
L 78.782086 107.454207 
L 78.809681 107.751449 
L 78.811305 107.74562 
L 79.062912 111.076937 
L 79.064535 111.076588 
L 79.069405 111.152201 
L 79.071028 111.151478 
L 79.361594 115.339511 
L 79.424902 116.406121 
L 79.74144 122.195562 
L 79.859939 124.492544 
L 80.270627 132.921556 
L 80.484899 137.594107 
L 80.820916 145.142956 
L 81.595217 164.481764 
L 82.132521 179.115901 
L 84.643724 259.698259 
L 85.755665 295.488 
L 85.818973 294.346432 
L 88.109411 236.648362 
L 88.708399 227.484707 
L 89.437248 220.033062 
L 89.83008 217.581231 
L 90.222912 216.090696 
L 90.471273 215.685419 
L 90.789434 215.640249 
L 91.414394 217.02708 
L 91.662755 217.994508 
L 92.484131 222.613396 
L 95.45959 242.816702 
L 96.931898 248.791402 
L 97.326353 249.839165 
L 97.853917 250.980141 
L 98.196428 251.585932 
L 98.444788 251.976934 
L 98.76295 252.40854 
L 99.095721 252.812635 
L 99.279151 253.015068 
L 99.602182 253.341262 
L 99.785612 253.510871 
L 100.098903 253.775867 
L 100.28558 253.918949 
L 100.589132 254.129364 
L 100.782301 254.246167 
L 101.072867 254.401135 
L 101.285516 254.491459 
L 101.563095 254.588638 
L 101.804963 254.642632 
L 102.06631 254.678775 
L 102.353629 254.678413 
L 102.605236 254.651672 
L 102.9445 254.570733 
L 103.176628 254.484876 
L 103.674973 254.233535 
L 103.981772 254.039759 
L 104.720361 253.459616 
L 105.111569 253.119074 
L 105.697571 252.586327 
L 106.296559 252.059331 
L 106.915025 251.562062 
L 109.37266 250.355895 
L 113.187351 250.134014 
L 114.753809 250.225626 
L 115.925812 250.328201 
L 117.534476 250.490264 
L 119.183721 250.634389 
L 120.852445 250.720234 
L 122.857187 250.747644 
L 128.251322 250.690197 
L 157.095255 250.664089 
L 187.127424 250.762293 
L 187.956916 250.750846 
L 189.726284 250.535765 
L 190.588241 250.655331 
L 191.020032 250.440199 
L 191.878743 249.953204 
L 192.1547 250.1013 
L 192.484224 250.57138 
L 193.326703 251.883945 
L 193.508509 251.780071 
L 193.727651 251.339306 
L 194.066915 250.062434 
L 194.768169 247.416946 
L 194.946729 247.348714 
L 194.949975 247.351064 
L 195.097693 247.600896 
L 195.323328 248.51341 
L 195.734016 251.323711 
L 196.149574 253.577876 
L 196.248593 253.653505 
L 196.289175 253.610419 
L 196.410921 253.201303 
L 196.612207 251.587009 
L 196.962833 246.598312 
L 197.563444 238.543168 
L 197.725772 238.034658 
L 197.753367 238.055364 
L 197.845894 238.368527 
L 198.009844 239.881049 
L 198.264698 244.662664 
L 198.681879 257.480848 
L 199.107177 268.312449 
L 199.142889 268.405547 
L 199.19321 268.189564 
L 199.301969 266.30265 
L 199.516241 257.819461 
L 200.560006 210.731367 
L 200.628183 210.485174 
L 200.681751 210.65284 
L 200.79538 212.025776 
L 201.004783 217.790264 
L 201.348916 234.309565 
L 201.78233 266.503564 
L 202.05991 288.718938 
L 202.113478 286.493902 
L 202.335866 261.275985 
L 203.149126 170.992637 
L 203.405603 163.419369 
L 203.717271 160.790534 
L 203.821161 160.483292 
L 203.868236 160.580566 
L 203.964009 161.438056 
L 204.11822 165.235139 
L 204.342231 177.198004 
L 204.710714 211.355515 
L 205.01102 231.294625 
L 205.017513 231.282612 
L 205.056471 230.645125 
L 205.158737 224.409949 
L 205.387619 193.353675 
L 205.895703 128.346937 
L 206.351843 107.639232 
L 206.622929 101.53457 
L 206.640785 101.512025 
L 206.682991 101.689319 
L 206.778764 103.389682 
L 206.944337 111.095484 
L 207.194321 134.919634 
L 207.746234 195.800534 
L 207.794932 194.866108 
L 207.903692 186.303459 
L 208.200751 139.030762 
L 208.535145 103.310959 
L 209.124393 72.364243 
L 209.337041 68.510886 
L 209.350028 68.529529 
L 209.406842 69.038444 
L 209.523718 72.559888 
L 209.708771 86.1655 
L 210.004207 127.686701 
L 210.375936 171.320294 
L 210.379183 171.320852 
L 210.393792 171.204214 
L 210.455476 168.589394 
L 210.606441 150.337926 
L 211.106409 88.441576 
L 211.627479 64.033571 
L 211.900189 58.275912 
L 211.911552 58.275005 
L 211.940771 58.393681 
L 212.023558 59.794672 
L 212.166406 66.759274 
L 212.379055 90.075752 
L 212.895255 161.392526 
L 212.961809 159.169444 
L 213.101411 142.732707 
L 213.611119 80.161018 
L 214.067258 60.844876 
L 214.388666 53.600489 
L 214.409769 53.568488 
L 214.451974 53.767865 
L 214.5445 55.683517 
L 214.693841 64.436276 
L 214.912983 93.041295 
L 215.344774 154.76766 
L 215.380486 154.118408 
L 215.474636 146.440988 
L 216.242444 66.645149 
L 216.688844 55.890849 
L 216.784617 55.283647 
L 216.833315 55.490437 
L 216.927465 57.280835 
L 217.073559 65.234929 
L 217.278092 90.911842 
L 217.719622 156.71282 
L 217.769943 155.318464 
L 217.886819 142.729994 
L 218.479313 70.177225 
L 218.82994 60.362494 
L 219.114013 56.8326 
L 219.152972 56.939215 
L 219.235759 58.070685 
L 219.367244 63.6154 
L 219.547427 82.530433 
L 220.039279 159.008909 
L 220.138298 153.445264 
L 220.349324 118.659466 
L 220.70482 73.009247 
L 220.967791 63.840909 
L 221.271343 59.914972 
L 221.32978 59.783463 
L 221.380102 59.927406 
L 221.474252 61.107187 
L 221.608983 66.185453 
L 221.784297 82.988982 
L 222.078109 138.602464 
L 222.303744 165.730249 
L 222.3216 165.52766 
L 222.388154 161.431822 
L 222.566714 132.858169 
L 222.979025 74.328766 
L 223.238749 64.892906 
L 223.521199 61.371542 
L 223.56178 61.306635 
L 223.610479 61.448365 
L 223.704628 62.637066 
L 223.83936 67.731262 
L 224.011427 84.347072 
L 224.297123 139.48217 
L 224.529251 168.794557 
L 224.547107 168.583168 
L 224.613661 164.339806 
L 224.793844 134.62402 
L 225.207779 74.220068 
L 225.452893 65.556337 
L 225.694761 63.28269 
L 225.71911 63.274691 
L 225.758068 63.374728 
L 225.850595 64.315887 
L 225.98695 68.482742 
L 226.15577 81.833961 
L 226.391145 122.096254 
L 226.723916 173.731966 
L 226.741772 173.526904 
L 226.808326 169.239646 
L 226.988509 139.078938 
L 227.407313 76.676522 
L 227.660544 67.107823 
L 227.908905 64.479019 
L 227.931631 64.471398 
L 227.968966 64.578779 
L 228.058246 65.611709 
L 228.191354 70.291317 
L 228.363421 85.844155 
L 228.623145 134.465643 
L 228.900724 174.299616 
L 228.913711 174.17739 
L 228.972148 170.948436 
L 229.127983 146.691567 
L 229.598732 75.450917 
L 229.842223 67.215146 
L 230.050001 65.602098 
L 230.056495 65.603968 
L 230.108439 65.76149 
L 230.207459 66.965976 
L 230.34706 71.949818 
L 230.522374 87.810119 
L 230.783721 136.429777 
L 231.064547 176.975522 
L 231.077533 176.857136 
L 231.134348 173.783701 
L 231.286935 150.335063 
L 231.770671 76.943921 
L 232.023901 68.113299 
L 232.246289 66.09041 
L 232.249536 66.091198 
L 232.296611 66.232503 
L 232.390761 67.44267 
L 232.527116 72.705311 
L 232.702429 89.884732 
L 232.989748 145.961117 
L 233.221876 176.138652 
L 233.239732 175.9295 
L 233.306287 171.570038 
L 233.48647 141.025622 
L 233.908521 77.341175 
L 234.153635 68.324458 
L 234.36466 66.555142 
L 234.367907 66.555904 
L 234.418228 66.698849 
L 234.515625 67.848112 
L 234.655226 72.690513 
L 234.828916 88.022787 
L 235.085393 135.043796 
L 235.375959 177.931817 
L 235.390569 177.803371 
L 235.449007 174.537408 
L 235.606464 149.858028 
L 236.08046 77.752426 
L 236.33369 68.726116 
L 236.556079 66.64949 
L 236.559325 66.650346 
L 236.6064 66.797056 
L 236.70055 68.043073 
L 236.836905 73.400842 
L 237.013841 90.959392 
L 237.306031 148.292926 
L 237.530042 176.651107 
L 237.549521 176.392399 
L 237.619322 171.519096 
L 237.812492 137.776643 
L 238.215063 77.799893 
L 238.460177 68.657379 
L 238.672826 66.867734 
L 238.676073 66.868621 
L 238.726394 67.014977 
L 238.823791 68.186868 
L 238.963392 73.122984 
L 239.138705 88.858555 
L 239.400052 137.276531 
L 239.682502 178.178146 
L 239.695488 178.063353 
L 239.752303 175.000594 
L 239.90489 151.544479 
L 240.390249 77.695417 
L 240.643479 68.811654 
L 240.860998 66.816525 
L 240.867491 66.81906 
L 240.917812 67.002586 
L 241.016832 68.46077 
L 241.156433 74.490186 
L 241.33824 94.006387 
L 241.834961 176.770018 
L 241.942097 169.493443 
L 242.185588 123.983872 
L 242.531345 77.139729 
L 242.77646 68.545553 
L 242.976122 66.946052 
L 242.985862 66.950854 
L 243.041053 67.157852 
L 243.144943 68.61953 
L 243.287791 74.358679 
L 243.467974 92.309727 
L 243.763409 150.079877 
L 243.987421 178.227062 
L 244.0069 177.956807 
L 244.078324 172.876933 
L 244.276364 138.009341 
L 244.674065 79.095454 
L 244.927296 69.233891 
L 245.159424 66.852167 
L 245.185396 66.873722 
L 245.206499 66.947592 
L 245.294156 67.926033 
L 245.425641 72.432966 
L 245.596084 87.532139 
L 245.852561 134.889687 
L 246.138257 176.791138 
L 246.152867 176.659944 
L 246.211305 173.378956 
L 246.368762 148.64334 
L 246.839511 76.909199 
L 247.084625 68.501721 
L 247.281041 66.960945 
L 247.292404 66.967895 
L 247.350842 67.211157 
L 247.457978 68.841529 
L 247.604073 75.145154 
L 247.787503 94.556605 
L 248.136506 163.491125 
L 248.290717 178.235174 
L 248.326429 177.400819 
L 248.423825 167.452745 
L 249.181894 70.332292 
L 249.430255 66.931811 
L 249.470836 66.857495 
L 249.521158 67.01047 
L 249.615308 68.273417 
L 249.751663 73.688842 
L 249.928599 91.379644 
L 250.225658 149.800376 
L 250.443177 176.794027 
L 250.464279 176.492754 
L 250.537327 171.12295 
L 250.741859 134.606096 
L 251.128198 77.931301 
L 251.373312 68.759625 
L 251.584337 66.963682 
L 251.587584 66.964183 
L 251.636282 67.095344 
L 251.732055 68.19528 
L 251.870033 72.883098 
L 252.043724 87.954262 
L 252.296954 133.872577 
L 252.595636 178.235312 
L 252.608623 178.114416 
L 252.665437 175.027291 
L 252.819648 151.220077 
L 253.30176 77.830506 
L 253.554991 68.881153 
L 253.774132 66.857971 
L 253.779002 66.859698 
L 253.8277 67.026004 
L 253.923473 68.362921 
L 254.061452 74.037288 
L 254.240012 92.422462 
L 254.554927 154.908278 
L 254.746473 176.793299 
L 254.774068 176.313852 
L 254.856855 169.244629 
L 255.110086 121.664436 
L 255.447727 76.924612 
L 255.692841 68.506851 
L 255.889257 66.96346 
L 255.90062 66.970241 
L 255.959057 67.212367 
L 256.066193 68.839101 
L 256.212288 75.134171 
L 256.395718 94.530324 
L 256.743098 163.174384 
L 256.898932 178.235065 
L 256.934644 177.409582 
L 257.030417 167.722431 
L 257.796602 70.17989 
L 258.04334 66.915598 
L 258.080675 66.858287 
L 258.129373 67.009841 
L 258.223523 68.26984 
L 258.359878 73.67721 
L 258.536815 91.351758 
L 258.833873 149.759515 
L 259.051392 176.793577 
L 259.072495 176.497809 
L 259.145542 171.144968 
L 259.348451 134.979916 
L 259.736413 77.944575 
L 259.981527 68.763286 
L 260.192553 66.963465 
L 260.195799 66.963903 
L 260.244497 67.09405 
L 260.340271 68.191408 
L 260.478249 72.872627 
L 260.651939 87.928799 
L 260.905169 133.828464 
L 261.203852 178.235042 
L 261.218461 178.087145 
L 261.278522 174.599573 
L 261.440849 148.67968 
L 261.903482 78.258684 
L 262.156713 69.002365 
L 262.382348 66.857758 
L 262.383971 66.858018 
L 262.429423 66.985623 
L 262.521949 68.146689 
L 262.656681 73.233927 
L 262.830371 89.860099 
L 263.107951 143.336271 
L 263.356311 176.79322 
L 263.372544 176.602969 
L 263.437475 172.475968 
L 263.612788 143.161635 
L 264.044579 77.67667 
L 264.289693 68.695661 
L 264.497472 66.963394 
L 264.502342 66.964734 
L 264.552663 67.11553 
L 264.651683 68.330755 
L 264.791284 73.349627 
L 264.966598 89.269209 
L 265.229568 138.251523 
L 265.507148 178.23475 
L 265.521757 178.104704 
L 265.580195 174.83488 
L 265.737652 150.156174 
L 266.211648 78.003759 
L 266.464879 68.930275 
L 266.685644 66.857672 
L 266.690513 66.858817 
L 266.737588 67.008542 
L 266.831738 68.265265 
L 266.968093 73.664445 
L 267.14503 91.322212 
L 267.440465 149.376783 
L 267.659607 176.793413 
L 267.68071 176.503457 
L 267.752134 171.353177 
L 267.951796 136.023685 
L 268.344628 77.958624 
L 268.589743 68.766821 
L 268.802391 66.963449 
L 268.805638 66.964309 
L 268.855959 67.110369 
L 268.953356 68.280542 
L 269.092957 73.209757 
L 269.268271 88.938582 
L 269.529617 137.339536 
L 269.812067 178.235032 
L 269.825053 178.121207 
L 269.881868 175.063004 
L 270.034455 151.619186 
L 270.521437 77.652869 
L 270.774668 68.830854 
L 270.990563 66.857693 
L 270.997056 66.860263 
L 271.047377 67.044465 
L 271.146397 68.505042 
L 271.285999 74.536865 
L 271.467805 94.056128 
L 271.964527 176.793347 
L 272.071663 169.506621 
L 272.316777 123.672422 
L 272.660911 77.157391 
L 272.906025 68.565035 
L 273.105687 66.963379 
L 273.115427 66.968074 
L 273.170618 67.174794 
L 273.274508 68.63802 
L 273.418979 74.48348 
L 273.599162 92.572677 
L 273.899468 151.471 
L 274.116986 178.234639 
L 274.136465 177.961374 
L 274.207889 172.871995 
L 274.405929 137.994482 
L 274.803631 79.097169 
L 275.056861 69.239069 
L 275.288989 66.859112 
L 275.314961 66.880693 
L 275.336064 66.954601 
L 275.423721 67.933735 
L 275.555206 72.444743 
L 275.725649 87.553348 
L 275.982127 134.918481 
L 276.267823 176.793298 
L 276.282432 176.659842 
L 276.34087 173.370621 
L 276.498327 148.623537 
L 276.969076 76.90578 
L 277.214191 68.501964 
L 277.410607 66.963422 
L 277.421969 66.970513 
L 277.480407 67.214454 
L 277.587543 68.846098 
L 277.733638 75.153452 
L 277.917068 94.574385 
L 278.267695 163.791504 
L 278.420282 178.235015 
L 278.455994 177.395643 
L 278.553391 167.436867 
L 279.309836 70.370753 
L 279.558196 66.937841 
L 279.600401 66.857868 
L 279.650723 67.011597 
L 279.744873 68.276217 
L 279.881228 73.695084 
L 280.058164 91.393695 
L 280.355223 149.820852 
L 280.572742 176.793434 
L 280.593844 176.489378 
L 280.666892 171.111012 
L 280.871424 134.58571 
L 281.257763 77.924365 
L 281.502877 68.758157 
L 281.713903 66.963373 
L 281.717149 66.963899 
L 281.765847 67.095519 
L 281.86162 68.196887 
L 281.999599 72.888068 
L 282.173289 87.965686 
L 282.426519 133.892772 
L 282.725201 178.234823 
L 282.738188 178.112309 
L 282.796625 174.872611 
L 282.954083 150.23837 
L 283.428079 78.030223 
L 283.681309 68.937748 
L 283.903697 66.857727 
L 283.906944 66.858625 
L 283.954019 67.006039 
L 284.048169 68.256221 
L 284.184524 73.639135 
L 284.36146 91.263169 
L 284.656896 149.289957 
L 284.876038 176.793132 
L 284.89714 176.514846 
L 284.968564 171.399878 
L 285.166604 136.442802 
L 285.561059 77.987038 
L 285.806173 68.773993 
L 286.018822 66.963405 
L 286.022068 66.964142 
L 286.07239 67.108074 
L 286.169786 68.272465 
L 286.309388 73.187124 
L 286.484701 88.884902 
L 286.744425 136.892919 
L 287.028497 178.234944 
L 287.043107 178.099167 
L 287.103168 174.657786 
L 287.263872 149.128308 
L 287.729751 78.193564 
L 287.982982 68.983963 
L 288.206993 66.857674 
L 288.21024 66.858259 
L 288.255692 66.991194 
L 288.348218 68.167483 
L 288.48295 73.29267 
L 288.658263 90.222236 
L 288.939089 144.605211 
L 289.180957 176.793464 
L 289.19719 176.616703 
L 289.260497 172.701976 
L 289.430941 144.608137 
L 289.872471 77.501905 
L 290.117585 68.65163 
L 290.322118 66.963372 
L 290.330234 66.966358 
L 290.383802 67.150772 
L 290.486068 68.520722 
L 290.628916 74.06218 
L 290.807476 91.372467 
L 291.091549 146.233999 
L 291.333417 178.234949 
L 291.349649 178.051198 
L 291.412957 174.119265 
L 291.585024 145.717607 
L 292.024931 78.791902 
L 292.278161 69.152986 
L 292.508666 66.857984 
L 292.554118 66.96048 
L 292.641775 67.956281 
L 292.77326 72.509615 
L 292.943703 87.70909 
L 293.20018 135.184318 
L 293.485876 176.793122 
L 293.498863 176.66756 
L 293.5573 173.408524 
L 293.714758 148.70591 
L 294.18713 76.829918 
L 294.432244 68.482972 
L 294.627037 66.963391 
L 294.640023 66.971984 
L 294.700084 67.23604 
L 294.808844 68.957129 
L 294.956561 75.561872 
L 295.143238 95.990136 
L 295.636713 178.234815 
L 295.740602 171.497358 
L 295.969484 129.309173 
L 296.32985 78.744012 
L 296.583081 69.139473 
L 296.813585 66.85783 
L 296.859037 66.964009 
L 296.948317 68.000568 
L 297.081425 72.725391 
L 297.253492 88.437251 
L 297.516463 137.837566 
L 297.789172 176.793437 
L 297.803782 176.654236 
L 297.863843 173.192779 
L 298.024547 147.593739 
L 298.48718 77.093156 
L 298.732294 68.548923 
L 298.931956 66.963456 
L 298.941696 66.969058 
L 298.998511 67.19299 
L 299.104023 68.736257 
L 299.248495 74.751088 
L 299.430301 93.419617 
L 299.745216 155.643822 
L 299.941632 178.235017 
L 299.965981 177.835049 
L 300.043898 171.610128 
L 300.271156 129.823167 
L 300.633146 78.805949 
L 300.886377 69.156949 
L 301.116881 66.858038 
L 301.162333 66.959459 
L 301.24999 67.952397 
L 301.381475 72.49846 
L 301.551919 87.682344 
L 301.808396 135.138753 
L 302.094092 176.793292 
L 302.107078 176.671333 
L 302.165516 173.427402 
L 302.322973 148.747081 
L 302.795345 76.842887 
L 303.04046 68.486217 
L 303.235252 66.963381 
L 303.248239 66.971722 
L 303.3083 67.234427 
L 303.417059 68.951875 
L 303.564777 75.547721 
L 303.751453 95.958218 
L 304.244928 178.234628 
L 304.350441 171.321293 
L 304.584192 128.040421 
L 304.939689 78.648736 
L 305.192919 69.112581 
L 305.423424 66.857679 
L 305.468876 66.971259 
L 305.558156 68.027988 
L 305.691264 72.803993 
L 305.863331 88.624616 
L 306.127924 138.504704 
L 306.397388 176.793351 
L 306.411997 176.658204 
L 306.470435 173.362691 
L 306.627892 148.606351 
L 307.098641 76.900341 
L 307.343756 68.5006 
L 307.540172 66.963432 
L 307.551535 66.970614 
L 307.609972 67.215099 
L 307.717108 68.848213 
L 307.863203 75.159161 
L 308.046633 94.587314 
L 308.39726 163.806454 
L 308.549847 178.235027 
L 308.585559 177.391591 
L 308.682956 167.42394 
L 309.439401 70.368604 
L 309.687761 66.937506 
L 309.729967 66.857886 
L 309.780288 67.012129 
L 309.876061 68.314045 
L 310.014039 73.901485 
L 310.192599 92.107871 
L 310.501021 153.176204 
L 310.702307 176.793404 
L 310.726656 176.387325 
L 310.806196 169.932144 
L 311.038324 126.950268 
L 311.393821 77.482508 
L 311.638935 68.646748 
L 311.843468 66.963374 
L 311.851584 66.966581 
L 311.905152 67.15264 
L 312.007418 68.527099 
L 312.150266 74.079746 
L 312.328826 91.413182 
L 312.612899 146.297025 
L 312.854767 178.234753 
L 312.870999 178.044646 
L 312.93593 173.926324 
L 313.111244 144.668649 
L 313.544657 78.882296 
L 313.797888 69.178486 
L 314.030016 66.857914 
L 314.075468 66.961936 
L 314.163124 67.961801 
L 314.294609 72.525449 
L 314.465053 87.747031 
L 314.723153 135.605858 
L 315.005603 176.793208 
L 315.020212 176.662115 
L 315.07865 173.381687 
L 315.236108 148.647546 
L 315.706857 76.913387 
L 315.951971 68.503867 
L 316.148387 66.963412 
L 316.15975 66.970375 
L 316.218188 67.213557 
L 316.325324 68.843145 
L 316.471418 75.145477 
L 316.654848 94.556331 
L 317.003852 163.488679 
L 317.158063 178.23498 
L 317.193775 177.401287 
L 317.291171 167.454918 
L 318.049239 70.333505 
L 318.2976 66.932112 
L 318.338182 66.857844 
L 318.388503 67.010858 
L 318.482653 68.273569 
L 318.619008 73.687684 
L 318.795945 91.376448 
L 319.093004 149.795646 
L 319.310522 176.793459 
L 319.331625 176.492802 
L 319.404672 171.124902 
L 319.609204 134.610527 
L 319.995543 77.932617 
L 320.240657 68.760242 
L 320.451683 66.963372 
L 320.454929 66.963862 
L 320.503628 67.094885 
L 320.599401 68.194623 
L 320.737379 72.881707 
L 320.911069 87.950488 
L 321.1643 133.866346 
L 321.462982 178.234903 
L 321.475968 178.114484 
L 321.532783 175.029309 
L 321.686993 151.225004 
L 322.169105 77.83195 
L 322.422336 68.881605 
L 322.641478 66.857715 
L 322.646348 66.859419 
L 322.695046 67.025484 
L 322.790819 68.361902 
L 322.928797 74.035211 
L 323.107357 92.417741 
L 323.422272 154.901925 
L 323.615441 176.793034 
L 323.641414 176.314694 
L 323.724201 169.248398 
L 323.975808 121.989837 
L 324.315072 76.926448 
L 324.560186 68.507138 
L 324.756602 66.963396 
L 324.767965 66.970139 
L 324.826403 67.212019 
L 324.933539 68.838085 
L 325.079633 75.131809 
L 325.263063 94.52537 
L 325.610444 163.168454 
L 325.766278 178.234876 
L 325.80199 177.410929 
L 325.897763 167.727122 
L 326.663948 70.180538 
L 326.910685 66.91563 
L 326.94802 66.858218 
L 326.996719 67.009593 
L 327.090868 68.269032 
L 327.227223 73.675 
L 327.40416 91.346874 
L 327.699596 149.412972 
L 327.918737 176.793455 
L 327.93984 176.498631 
L 328.012887 171.148701 
L 328.215796 134.98676 
L 328.603759 77.946789 
L 328.848873 68.763822 
L 329.061521 66.963467 
L 329.063145 66.963802 
L 329.111843 67.093801 
L 329.207616 68.190744 
L 329.345594 72.870802 
L 329.519284 87.924429 
L 329.772515 133.821005 
L 330.071197 178.234995 
L 330.085807 178.087761 
L 330.145868 174.60271 
L 330.308195 148.686415 
L 330.770828 78.260828 
L 331.024058 69.002985 
L 331.249693 66.857698 
L 331.251316 66.857952 
L 331.296768 66.985377 
L 331.389295 68.145947 
L 331.524026 73.231922 
L 331.697716 89.855361 
L 331.975296 143.328847 
L 332.223657 176.793228 
L 332.239889 176.603719 
L 332.30482 172.479431 
L 332.480134 143.168559 
L 332.911924 77.678936 
L 333.157039 68.696225 
L 333.364817 66.963384 
L 333.369687 66.964708 
L 333.420009 67.115316 
L 333.519028 68.330037 
L 333.65863 73.347708 
L 333.833943 89.264722 
L 334.096913 138.24399 
L 334.374493 178.234713 
L 334.389103 178.105337 
L 334.44754 174.838004 
L 334.604998 150.162967 
L 335.078993 78.005946 
L 335.332224 68.930877 
L 335.552989 66.857677 
L 335.557859 66.858803 
L 335.604934 67.008334 
L 335.699084 68.264504 
L 335.835439 73.662331 
L 336.012375 91.317322 
L 336.307811 149.369584 
L 336.526953 176.793394 
L 336.548055 176.504404 
L 336.619479 171.357047 
L 336.819142 136.030743 
L 337.211974 77.960975 
L 337.457088 68.767407 
L 337.669737 66.963441 
L 337.672983 66.964292 
L 337.723305 67.11018 
L 337.820701 68.279875 
L 337.960303 73.207875 
L 338.135616 88.934127 
L 338.396963 137.332015 
L 338.679412 178.23503 
L 338.694022 178.091838 
L 338.754083 174.622185 
L 338.91641 148.72788 
L 339.379043 78.274323 
L 339.632273 69.006801 
L 339.857908 66.857686 
L 339.859532 66.857904 
L 339.904983 66.984231 
L 339.995887 68.108429 
L 340.130618 73.125542 
L 340.304308 89.604908 
L 340.578641 142.226561 
L 340.831872 176.793364 
L 340.846481 176.642679 
L 340.906543 173.137469 
L 341.06887 147.151027 
L 341.528256 77.159593 
L 341.77337 68.565592 
L 341.973033 66.963376 
L 341.982772 66.96804 
L 342.037964 67.174558 
L 342.141853 68.637239 
L 342.286324 74.481347 
L 342.466508 92.567775 
L 342.766813 151.463871 
L 342.984332 178.234674 
L 343.005434 177.916896 
L 343.078481 172.506726 
L 343.284637 135.66806 
L 343.670976 79.099547 
L 343.924207 69.239738 
L 344.156335 66.859132 
L 344.180684 66.877106 
L 344.203409 66.954436 
L 344.291066 67.933097 
L 344.422551 72.442908 
L 344.592995 87.548939 
L 344.849472 134.910932 
L 345.135168 176.793275 
L 345.149777 176.66049 
L 345.208215 173.373768 
L 345.365673 148.630362 
L 345.836422 76.907943 
L 346.081536 68.502503 
L 346.277952 66.96342 
L 346.289315 66.970474 
L 346.347753 67.2142 
L 346.454889 68.845258 
L 346.600983 75.151184 
L 346.784413 94.569254 
L 347.13504 163.785566 
L 347.287628 178.235007 
L 347.32334 177.397249 
L 347.420736 167.441999 
L 348.177181 70.371608 
L 348.425542 66.937974 
L 348.467747 66.857861 
L 348.518068 67.011388 
L 348.612218 68.275465 
L 348.748573 73.69298 
L 348.92551 91.388792 
L 349.222569 149.813689 
L 349.440087 176.793443 
L 349.46119 176.490353 
L 349.534237 171.114961 
L 349.738769 134.592764 
L 350.125108 77.92671 
L 350.370223 68.75875 
L 350.581248 66.963372 
L 350.584495 66.963888 
L 350.633193 67.095338 
L 350.728966 68.196244 
L 350.866944 72.88626 
L 351.040634 87.961366 
L 351.293865 133.885262 
L 351.592547 178.234848 
L 351.605533 178.112929 
L 351.663971 174.875727 
L 351.821428 150.245177 
L 352.295424 78.032417 
L 352.548655 68.938369 
L 352.771043 66.857724 
L 352.774289 66.85861 
L 352.821364 67.005832 
L 352.915514 68.255474 
L 353.051869 73.637043 
L 353.228806 91.258283 
L 353.524241 149.282765 
L 353.743383 176.793098 
L 353.764486 176.51578 
L 353.83591 171.403738 
L 354.033949 136.449861 
L 354.428404 77.989394 
L 354.673519 68.774589 
L 354.886167 66.963402 
L 354.889414 66.964129 
L 354.939735 67.107885 
L 355.037132 68.271797 
L 355.176733 73.185252 
L 355.352047 88.88046 
L 355.61177 136.885396 
L 355.895843 178.234926 
L 355.910452 178.099819 
L 355.96889 174.811157 
L 356.126348 150.104688 
L 356.600343 77.987222 
L 356.853574 68.925576 
L 357.074339 66.857674 
L 357.079209 66.858951 
L 357.126284 67.01012 
L 357.220433 68.270924 
L 357.356788 73.680289 
L 357.533725 91.359209 
L 357.830784 149.770436 
L 358.048303 176.793464 
L 358.069405 176.496206 
L 358.142452 171.138778 
L 358.346985 134.635345 
L 358.733324 77.940875 
L 358.978438 68.762328 
L 359.189463 66.963372 
L 359.19271 66.963826 
L 359.241408 67.094252 
L 359.337181 68.192361 
L 359.475159 72.87535 
L 359.648849 87.935298 
L 359.90208 133.83992 
L 360.200762 178.234964 
L 360.213748 178.11664 
L 360.270563 175.040031 
L 360.423151 151.568224 
L 360.908509 77.737755 
L 361.16174 68.854916 
L 361.379258 66.857705 
L 361.385751 66.860454 
L 361.436073 67.046234 
L 361.535092 68.511297 
L 361.674694 74.554082 
L 361.8565 94.095537 
L 362.353222 176.793154 
L 362.460358 169.473405 
L 362.705472 123.620846 
L 363.049606 77.140726 
L 363.29472 68.560857 
L 363.494383 66.963389 
L 363.504122 66.968318 
L 363.559313 67.176552 
L 363.663203 68.643913 
L 363.807674 74.499631 
L 363.987857 92.609722 
L 364.288163 151.524856 
L 364.504058 178.234788 
L 364.525161 177.954342 
L 364.596585 172.842899 
L 364.794624 137.941204 
L 365.190703 79.191981 
L 365.443933 69.265785 
L 365.677684 66.858976 
L 365.703657 66.881282 
L 365.724759 66.955846 
L 365.812416 67.938546 
L 365.943901 72.458615 
L 366.114345 87.586696 
L 366.370822 134.975504 
L 366.656518 176.793427 
L 366.671127 176.654897 
L 366.731188 173.195999 
L 366.891892 147.600604 
L 367.354525 77.095352 
L 367.599639 68.549473 
L 367.799302 66.963451 
L 367.809041 66.969023 
L 367.865856 67.192747 
L 367.971369 68.735449 
L 368.11584 74.7489 
L 368.297647 93.414617 
L 368.612561 155.636981 
L 368.808977 178.235022 
L 368.83495 177.781733 
L 368.916113 171.005277 
L 369.159604 125.58778 
L 369.506985 78.374859 
L 369.760215 69.035221 
L 369.987473 66.85769 
L 369.989097 66.857924 
L 370.034548 66.984708 
L 370.125452 68.110185 
L 370.260183 73.130538 
L 370.433873 89.616697 
L 370.708207 142.245363 
L 370.961437 176.793315 
L 370.976047 176.640939 
L 371.037731 172.97426 
L 371.203305 146.154751 
L 371.654575 77.364508 
L 371.899689 68.617066 
L 372.102598 66.963379 
L 372.110714 66.966716 
L 372.164282 67.153745 
L 372.266548 68.530862 
L 372.409396 74.090102 
L 372.587956 91.437173 
L 372.872029 146.334123 
L 373.112273 178.234592 
L 373.130129 178.040735 
L 373.19506 173.908728 
L 373.370374 144.633467 
L 373.803788 78.870509 
L 374.057018 69.175162 
L 374.289146 66.857877 
L 374.334598 66.962798 
L 374.423878 67.99593 
L 374.556986 72.712056 
L 374.729053 88.405396 
L 374.992023 137.78453 
L 375.264733 176.793332 
L 375.279343 176.658856 
L 375.33778 173.365841 
L 375.495238 148.613175 
L 375.965987 76.902501 
L 376.211101 68.501141 
L 376.407517 66.963428 
L 376.41888 66.970574 
L 376.477318 67.214843 
L 376.584454 68.847373 
L 376.730548 75.156893 
L 376.913978 94.58218 
L 377.264605 163.800519 
L 377.417193 178.235023 
L 377.452905 177.393201 
L 377.550301 167.429073 
L 378.306746 70.369457 
L 378.555107 66.937639 
L 378.597312 66.857879 
L 378.647633 67.011918 
L 378.743407 68.31328 
L 378.881385 73.899338 
L 379.059945 92.102883 
L 379.368367 153.169262 
L 379.569652 176.793417 
L 379.594001 176.38845 
L 379.671919 170.137641 
L 379.899177 128.270897 
L 380.259543 77.592397 
L 380.504657 68.674417 
L 380.710813 66.963374 
L 380.717306 66.965429 
L 380.769251 67.132335 
L 380.869894 68.422719 
L 381.011119 73.696365 
L 381.188055 90.298858 
L 381.460765 142.074943 
L 381.722112 178.234782 
L 381.736721 178.080136 
L 381.798406 174.411943 
L 381.96398 147.632872 
L 382.418496 78.448778 
L 382.671727 69.056108 
L 382.900608 66.857733 
L 382.94606 66.97858 
L 383.036963 68.087495 
L 383.171695 73.065871 
L 383.345385 89.463911 
L 383.618095 141.647583 
L 383.872948 176.793179 
L 383.889181 176.630664 
L 383.950865 172.925835 
L 384.118063 145.726327 
L 384.566086 77.438116 
L 384.8112 68.635578 
L 385.015732 66.963409 
L 385.022225 66.96589 
L 385.07417 67.136611 
L 385.174813 68.43751 
L 385.316038 73.737237 
L 385.492975 90.394356 
L 385.767308 142.582387 
L 386.025408 178.234967 
L 386.040017 178.098173 
L 386.100079 174.652914 
L 386.260783 149.117902 
L 386.726662 78.190189 
L 386.979892 68.983009 
L 387.203904 66.857675 
L 387.207151 66.858278 
L 387.252602 66.99149 
L 387.345129 68.168572 
L 387.47986 73.295737 
L 387.655174 90.229462 
L 387.936 144.616444 
L 388.177868 176.793462 
L 388.1941 176.615569 
L 388.257408 172.69679 
L 388.429475 144.268138 
L 388.867759 77.6062 
L 389.112873 68.677894 
L 389.319028 66.963372 
L 389.325521 66.965303 
L 389.377466 67.131095 
L 389.478109 68.418408 
L 389.619334 73.684437 
L 389.796271 90.270959 
L 390.06898 142.029812 
L 390.330327 178.234922 
L 390.344937 178.084317 
L 390.404998 174.586423 
L 390.567325 148.651812 
L 391.028335 78.35559 
L 391.281565 69.029775 
L 391.508823 66.857712 
L 391.510447 66.857996 
L 391.555898 66.986338 
L 391.648425 68.149525 
L 391.783156 73.242032 
L 391.956847 89.879103 
L 392.234426 143.366304 
L 392.482787 176.79307 
L 392.49902 176.599809 
L 392.563951 172.461803 
L 392.739264 143.133326 
L 393.171055 77.667352 
L 393.416169 68.693305 
L 393.623948 66.963394 
L 393.628817 66.964795 
L 393.679139 67.116297 
L 393.778159 68.333496 
L 393.91776 73.35731 
L 394.093073 89.287352 
L 394.356044 138.281863 
L 394.633623 178.234853 
L 394.648233 178.102102 
L 394.706671 174.82221 
L 394.864128 150.128658 
L 395.338124 77.994919 
L 395.591354 68.927755 
L 395.812119 66.857674 
L 395.816989 66.858889 
L 395.864064 67.009384 
L 395.958214 68.268281 
L 396.094569 73.6729 
L 396.271505 91.341978 
L 396.566941 149.405787 
L 396.786083 176.793449 
L 396.807185 176.499591 
L 396.878609 171.337516 
L 397.078272 135.995186 
L 397.471104 77.949137 
L 397.716218 68.764416 
L 397.928867 66.963462 
L 397.93049 66.963792 
L 397.979188 67.093622 
L 398.074961 68.190102 
L 398.21294 72.868998 
L 398.38663 87.920114 
L 398.487273 103.051491 
L 398.487273 103.051491 
" style="fill:none;stroke:#1f77b4;stroke-linecap:square;stroke-width:1.5;"/>
   </g>
   <g id="patch_3">
    <path d="M 57.6 307.584 
L 57.6 41.472 
" style="fill:none;stroke:#000000;stroke-linecap:square;stroke-linejoin:miter;stroke-width:0.8;"/>
   </g>
   <g id="patch_4">
    <path d="M 414.72 307.584 
L 414.72 41.472 
" style="fill:none;stroke:#000000;stroke-linecap:square;stroke-linejoin:miter;stroke-width:0.8;"/>
   </g>
   <g id="patch_5">
    <path d="M 57.6 307.584 
L 414.72 307.584 
" style="fill:none;stroke:#000000;stroke-linecap:square;stroke-linejoin:miter;stroke-width:0.8;"/>
   </g>
   <g id="patch_6">
    <path d="M 57.6 41.472 
L 414.72 41.472 
" style="fill:none;stroke:#000000;stroke-linecap:square;stroke-linejoin:miter;stroke-width:0.8;"/>
   </g>
  </g>
 </g>
 <defs>
  <clipPath id="p106453c12b">
   <rect height="266.112" width="357.12" x="57.6" y="41.472"/>
  </clipPath>
 </defs>
</svg>
