<?xml version="1.0" encoding="utf-8" standalone="no"?>
<!DOCTYPE svg PUBLIC "-//W3C//DTD SVG 1.1//EN"
  "http://www.w3.org/Graphics/SVG/1.1/DTD/svg11.dtd">
<!-- Created with matplotlib (https://matplotlib.org/) -->
<svg height="345.6pt" version="1.1" viewBox="0 0 460.8 345.6" width="460.8pt" xmlns="http://www.w3.org/2000/svg" xmlns:xlink="http://www.w3.org/1999/xlink">
 <metadata>
  <rdf:RDF xmlns:cc="http://creativecommons.org/ns#" xmlns:dc="http://purl.org/dc/elements/1.1/" xmlns:rdf="http://www.w3.org/1999/02/22-rdf-syntax-ns#">
   <cc:Work>
    <dc:type rdf:resource="http://purl.org/dc/dcmitype/StillImage"/>
    <dc:date>2020-07-27T12:06:05.634152</dc:date>
    <dc:format>image/svg+xml</dc:format>
    <dc:creator>
     <cc:Agent>
      <dc:title>Matplotlib v3.3.0, https://matplotlib.org/</dc:title>
     </cc:Agent>
    </dc:creator>
   </cc:Work>
  </rdf:RDF>
 </metadata>
 <defs>
  <style type="text/css">*{stroke-linecap:butt;stroke-linejoin:round;}</style>
 </defs>
 <g id="figure_1">
  <g id="patch_1">
   <path d="M 0 345.6 
L 460.8 345.6 
L 460.8 0 
L 0 0 
z
" style="fill:#ffffff;"/>
  </g>
  <g id="axes_1">
   <g id="patch_2">
    <path d="M 57.6 307.584 
L 414.72 307.584 
L 414.72 41.472 
L 57.6 41.472 
z
" style="fill:#ffffff;"/>
   </g>
   <g id="matplotlib.axis_1">
    <g id="xtick_1">
     <g id="line2d_1">
      <defs>
       <path d="M 0 0 
L 0 3.5 
" id="mf5d28a12e3" style="stroke:#000000;stroke-width:0.8;"/>
      </defs>
      <g>
       <use style="stroke:#000000;stroke-width:0.8;" x="73.832727" xlink:href="#mf5d28a12e3" y="307.584"/>
      </g>
     </g>
     <g id="text_1">
      <!-- $\mathdefault{0}$ -->
      <g transform="translate(71.34206 321.502498)scale(0.1 -0.1)">
       <defs>
        <path d="M 42 31.640625 
C 42 37.75 41.90625 48.125 37.703125 56.109375 
C 34 63.109375 28.09375 65.59375 22.90625 65.59375 
C 18.09375 65.59375 12 63.40625 8.203125 56.203125 
C 4.203125 48.71875 3.796875 39.4375 3.796875 31.640625 
C 3.796875 25.953125 3.90625 17.28125 7 9.671875 
C 11.296875 -0.609375 19 -2 22.90625 -2 
C 27.5 -2 34.5 -0.109375 38.59375 9.375 
C 41.59375 16.28125 42 24.359375 42 31.640625 
z
M 22.90625 -0.40625 
C 16.5 -0.40625 12.703125 5.078125 11.296875 12.6875 
C 10.203125 18.5625 10.203125 27.15625 10.203125 32.75 
C 10.203125 40.4375 10.203125 46.828125 11.5 52.921875 
C 13.40625 61.390625 19 64 22.90625 64 
C 27 64 32.296875 61.296875 34.203125 53.125 
C 35.5 47.4375 35.59375 40.734375 35.59375 32.75 
C 35.59375 26.25 35.59375 18.265625 34.40625 12.375 
C 32.296875 1.484375 26.40625 -0.40625 22.90625 -0.40625 
z
" id="CMR17-48"/>
       </defs>
       <use transform="scale(0.996264)" xlink:href="#CMR17-48"/>
      </g>
     </g>
    </g>
    <g id="xtick_2">
     <g id="line2d_2">
      <g>
       <use style="stroke:#000000;stroke-width:0.8;" x="114.414545" xlink:href="#mf5d28a12e3" y="307.584"/>
      </g>
     </g>
     <g id="text_2">
      <!-- $\mathdefault{25000}$ -->
      <g transform="translate(101.961207 321.502498)scale(0.1 -0.1)">
       <defs>
        <path d="M 41.703125 15.453125 
L 39.90625 15.453125 
C 38.90625 8.375 38.09375 7.171875 37.703125 6.5625 
C 37.203125 5.765625 30 5.765625 28.59375 5.765625 
L 9.40625 5.765625 
C 13 9.671875 20 16.75 28.5 24.953125 
C 34.59375 30.734375 41.703125 37.53125 41.703125 47.421875 
C 41.703125 59.21875 32.296875 66 21.796875 66 
C 10.796875 66 4.09375 56.3125 4.09375 47.34375 
C 4.09375 43.4375 7 42.9375 8.203125 42.9375 
C 9.203125 42.9375 12.203125 43.546875 12.203125 47.03125 
C 12.203125 50.109375 9.59375 51 8.203125 51 
C 7.59375 51 7 50.90625 6.59375 50.703125 
C 8.5 59.21875 14.296875 63.40625 20.40625 63.40625 
C 29.09375 63.40625 34.796875 56.515625 34.796875 47.421875 
C 34.796875 38.734375 29.703125 31.25 24 24.75 
L 4.09375 2.28125 
L 4.09375 0 
L 39.296875 0 
z
" id="CMR17-50"/>
        <path d="M 11.40625 57.6875 
C 12.40625 57.28125 16.5 56 20.703125 56 
C 30 56 35.09375 61.109375 38 64.0625 
C 38 64.953125 38 65.5 37.40625 65.5 
C 37.296875 65.5 37.09375 65.5 36.296875 65.046875 
C 32.796875 63.40625 28.703125 62.078125 23.703125 62.078125 
C 20.703125 62.078125 16.203125 62.484375 11.296875 64.671875 
C 10.203125 65.171875 10 65.171875 9.90625 65.171875 
C 9.40625 65.171875 9.296875 65.0625 9.296875 63.078125 
L 9.296875 34.421875 
C 9.296875 32.640625 9.296875 32.140625 10.296875 32.140625 
C 10.796875 32.140625 11 32.34375 11.5 33.03125 
C 14.703125 37.515625 19.09375 39.40625 24.09375 39.40625 
C 27.59375 39.40625 35.09375 37.21875 35.09375 20.140625 
C 35.09375 16.953125 35.09375 11.171875 32.09375 6.578125 
C 29.59375 2.484375 25.703125 0.390625 21.40625 0.390625 
C 14.796875 0.390625 8.09375 5 6.296875 12.71875 
C 6.703125 12.609375 7.5 12.421875 7.90625 12.421875 
C 9.203125 12.421875 11.703125 13.125 11.703125 16.21875 
C 11.703125 18.90625 9.796875 20 7.90625 20 
C 5.59375 20 4.09375 18.59375 4.09375 15.796875 
C 4.09375 7.09375 11 -2 21.59375 -2 
C 31.90625 -2 41.703125 6.875 41.703125 19.75 
C 41.703125 31.71875 33.90625 41 24.203125 41 
C 19.09375 41 14.796875 39.109375 11.40625 35.53125 
z
" id="CMR17-53"/>
       </defs>
       <use transform="scale(0.996264)" xlink:href="#CMR17-50"/>
       <use transform="translate(45.690477 0)scale(0.996264)" xlink:href="#CMR17-53"/>
       <use transform="translate(91.380954 0)scale(0.996264)" xlink:href="#CMR17-48"/>
       <use transform="translate(137.071431 0)scale(0.996264)" xlink:href="#CMR17-48"/>
       <use transform="translate(182.761908 0)scale(0.996264)" xlink:href="#CMR17-48"/>
      </g>
     </g>
    </g>
    <g id="xtick_3">
     <g id="line2d_3">
      <g>
       <use style="stroke:#000000;stroke-width:0.8;" x="154.996364" xlink:href="#mf5d28a12e3" y="307.584"/>
      </g>
     </g>
     <g id="text_3">
      <!-- $\mathdefault{50000}$ -->
      <g transform="translate(142.543026 321.502498)scale(0.1 -0.1)">
       <use transform="scale(0.996264)" xlink:href="#CMR17-53"/>
       <use transform="translate(45.690477 0)scale(0.996264)" xlink:href="#CMR17-48"/>
       <use transform="translate(91.380954 0)scale(0.996264)" xlink:href="#CMR17-48"/>
       <use transform="translate(137.071431 0)scale(0.996264)" xlink:href="#CMR17-48"/>
       <use transform="translate(182.761908 0)scale(0.996264)" xlink:href="#CMR17-48"/>
      </g>
     </g>
    </g>
    <g id="xtick_4">
     <g id="line2d_4">
      <g>
       <use style="stroke:#000000;stroke-width:0.8;" x="195.578182" xlink:href="#mf5d28a12e3" y="307.584"/>
      </g>
     </g>
     <g id="text_4">
      <!-- $\mathdefault{75000}$ -->
      <g transform="translate(183.124844 321.502498)scale(0.1 -0.1)">
       <defs>
        <path d="M 45.09375 61.578125 
L 45.09375 63.765625 
L 21.59375 63.765625 
C 9.90625 63.765625 9.703125 65.078125 9.296875 67 
L 7.5 67 
L 4.59375 48.34375 
L 6.40625 48.34375 
C 6.703125 50.234375 7.40625 55.3125 8.59375 57.203125 
C 9.203125 58 16.59375 58 18.296875 58 
L 40.296875 58 
L 29.203125 41.578125 
C 21.796875 30.53125 16.703125 15.609375 16.703125 2.578125 
C 16.703125 1.390625 16.703125 -2 20.296875 -2 
C 23.90625 -2 23.90625 1.390625 23.90625 2.671875 
L 23.90625 7.265625 
C 23.90625 23.5625 26.703125 34.3125 31.296875 41.1875 
z
" id="CMR17-55"/>
       </defs>
       <use transform="scale(0.996264)" xlink:href="#CMR17-55"/>
       <use transform="translate(45.690477 0)scale(0.996264)" xlink:href="#CMR17-53"/>
       <use transform="translate(91.380954 0)scale(0.996264)" xlink:href="#CMR17-48"/>
       <use transform="translate(137.071431 0)scale(0.996264)" xlink:href="#CMR17-48"/>
       <use transform="translate(182.761908 0)scale(0.996264)" xlink:href="#CMR17-48"/>
      </g>
     </g>
    </g>
    <g id="xtick_5">
     <g id="line2d_5">
      <g>
       <use style="stroke:#000000;stroke-width:0.8;" x="236.16" xlink:href="#mf5d28a12e3" y="307.584"/>
      </g>
     </g>
     <g id="text_5">
      <!-- $\mathdefault{100000}$ -->
      <g transform="translate(221.215994 321.502498)scale(0.1 -0.1)">
       <defs>
        <path d="M 26.59375 63.40625 
C 26.59375 65.5 26.5 65.5 25.09375 65.5 
C 21.203125 61.1875 15.296875 59.796875 9.703125 59.796875 
C 9.40625 59.796875 8.90625 59.796875 8.796875 59.5 
C 8.703125 59.296875 8.703125 59.09375 8.703125 57 
C 11.796875 57 17 57.59375 21 59.984375 
L 21 7.203125 
C 21 3.6875 20.796875 2.5 12.203125 2.5 
L 9.203125 2.5 
L 9.203125 0 
C 14 0 19 0 23.796875 0 
C 28.59375 0 33.59375 0 38.40625 0 
L 38.40625 2.5 
L 35.40625 2.5 
C 26.796875 2.5 26.59375 3.59375 26.59375 7.15625 
z
" id="CMR17-49"/>
       </defs>
       <use transform="scale(0.996264)" xlink:href="#CMR17-49"/>
       <use transform="translate(45.690477 0)scale(0.996264)" xlink:href="#CMR17-48"/>
       <use transform="translate(91.380954 0)scale(0.996264)" xlink:href="#CMR17-48"/>
       <use transform="translate(137.071431 0)scale(0.996264)" xlink:href="#CMR17-48"/>
       <use transform="translate(182.761908 0)scale(0.996264)" xlink:href="#CMR17-48"/>
       <use transform="translate(228.452386 0)scale(0.996264)" xlink:href="#CMR17-48"/>
      </g>
     </g>
    </g>
    <g id="xtick_6">
     <g id="line2d_6">
      <g>
       <use style="stroke:#000000;stroke-width:0.8;" x="276.741818" xlink:href="#mf5d28a12e3" y="307.584"/>
      </g>
     </g>
     <g id="text_6">
      <!-- $\mathdefault{125000}$ -->
      <g transform="translate(261.797812 321.502498)scale(0.1 -0.1)">
       <use transform="scale(0.996264)" xlink:href="#CMR17-49"/>
       <use transform="translate(45.690477 0)scale(0.996264)" xlink:href="#CMR17-50"/>
       <use transform="translate(91.380954 0)scale(0.996264)" xlink:href="#CMR17-53"/>
       <use transform="translate(137.071431 0)scale(0.996264)" xlink:href="#CMR17-48"/>
       <use transform="translate(182.761908 0)scale(0.996264)" xlink:href="#CMR17-48"/>
       <use transform="translate(228.452386 0)scale(0.996264)" xlink:href="#CMR17-48"/>
      </g>
     </g>
    </g>
    <g id="xtick_7">
     <g id="line2d_7">
      <g>
       <use style="stroke:#000000;stroke-width:0.8;" x="317.323636" xlink:href="#mf5d28a12e3" y="307.584"/>
      </g>
     </g>
     <g id="text_7">
      <!-- $\mathdefault{150000}$ -->
      <g transform="translate(302.379631 321.502498)scale(0.1 -0.1)">
       <use transform="scale(0.996264)" xlink:href="#CMR17-49"/>
       <use transform="translate(45.690477 0)scale(0.996264)" xlink:href="#CMR17-53"/>
       <use transform="translate(91.380954 0)scale(0.996264)" xlink:href="#CMR17-48"/>
       <use transform="translate(137.071431 0)scale(0.996264)" xlink:href="#CMR17-48"/>
       <use transform="translate(182.761908 0)scale(0.996264)" xlink:href="#CMR17-48"/>
       <use transform="translate(228.452386 0)scale(0.996264)" xlink:href="#CMR17-48"/>
      </g>
     </g>
    </g>
    <g id="xtick_8">
     <g id="line2d_8">
      <g>
       <use style="stroke:#000000;stroke-width:0.8;" x="357.905455" xlink:href="#mf5d28a12e3" y="307.584"/>
      </g>
     </g>
     <g id="text_8">
      <!-- $\mathdefault{175000}$ -->
      <g transform="translate(342.961449 321.502498)scale(0.1 -0.1)">
       <use transform="scale(0.996264)" xlink:href="#CMR17-49"/>
       <use transform="translate(45.690477 0)scale(0.996264)" xlink:href="#CMR17-55"/>
       <use transform="translate(91.380954 0)scale(0.996264)" xlink:href="#CMR17-53"/>
       <use transform="translate(137.071431 0)scale(0.996264)" xlink:href="#CMR17-48"/>
       <use transform="translate(182.761908 0)scale(0.996264)" xlink:href="#CMR17-48"/>
       <use transform="translate(228.452386 0)scale(0.996264)" xlink:href="#CMR17-48"/>
      </g>
     </g>
    </g>
    <g id="xtick_9">
     <g id="line2d_9">
      <g>
       <use style="stroke:#000000;stroke-width:0.8;" x="398.487273" xlink:href="#mf5d28a12e3" y="307.584"/>
      </g>
     </g>
     <g id="text_9">
      <!-- $\mathdefault{200000}$ -->
      <g transform="translate(383.543267 321.502498)scale(0.1 -0.1)">
       <use transform="scale(0.996264)" xlink:href="#CMR17-50"/>
       <use transform="translate(45.690477 0)scale(0.996264)" xlink:href="#CMR17-48"/>
       <use transform="translate(91.380954 0)scale(0.996264)" xlink:href="#CMR17-48"/>
       <use transform="translate(137.071431 0)scale(0.996264)" xlink:href="#CMR17-48"/>
       <use transform="translate(182.761908 0)scale(0.996264)" xlink:href="#CMR17-48"/>
       <use transform="translate(228.452386 0)scale(0.996264)" xlink:href="#CMR17-48"/>
      </g>
     </g>
    </g>
   </g>
   <g id="matplotlib.axis_2">
    <g id="ytick_1">
     <g id="line2d_10">
      <defs>
       <path d="M 0 0 
L -3.5 0 
" id="m0037795033" style="stroke:#000000;stroke-width:0.8;"/>
      </defs>
      <g>
       <use style="stroke:#000000;stroke-width:0.8;" x="57.6" xlink:href="#m0037795033" y="297.228957"/>
      </g>
     </g>
     <g id="text_10">
      <!-- $\mathdefault{0.000}$ -->
      <g transform="translate(27.907251 300.688206)scale(0.1 -0.1)">
       <defs>
        <path d="M 18.40625 4.796875 
C 18.40625 7.6875 16 9.671875 13.59375 9.671875 
C 10.703125 9.671875 8.703125 7.28125 8.703125 4.890625 
C 8.703125 2 11.09375 0 13.5 0 
C 16.40625 0 18.40625 2.390625 18.40625 4.796875 
z
" id="CMMI12-58"/>
       </defs>
       <use transform="scale(0.996264)" xlink:href="#CMR17-48"/>
       <use transform="translate(45.690477 0)scale(0.996264)" xlink:href="#CMMI12-58"/>
       <use transform="translate(72.787654 0)scale(0.996264)" xlink:href="#CMR17-48"/>
       <use transform="translate(118.478131 0)scale(0.996264)" xlink:href="#CMR17-48"/>
       <use transform="translate(164.168608 0)scale(0.996264)" xlink:href="#CMR17-48"/>
      </g>
     </g>
    </g>
    <g id="ytick_2">
     <g id="line2d_11">
      <g>
       <use style="stroke:#000000;stroke-width:0.8;" x="57.6" xlink:href="#m0037795033" y="264.326698"/>
      </g>
     </g>
     <g id="text_11">
      <!-- $\mathdefault{0.025}$ -->
      <g transform="translate(27.907251 267.785947)scale(0.1 -0.1)">
       <use transform="scale(0.996264)" xlink:href="#CMR17-48"/>
       <use transform="translate(45.690477 0)scale(0.996264)" xlink:href="#CMMI12-58"/>
       <use transform="translate(72.787654 0)scale(0.996264)" xlink:href="#CMR17-48"/>
       <use transform="translate(118.478131 0)scale(0.996264)" xlink:href="#CMR17-50"/>
       <use transform="translate(164.168608 0)scale(0.996264)" xlink:href="#CMR17-53"/>
      </g>
     </g>
    </g>
    <g id="ytick_3">
     <g id="line2d_12">
      <g>
       <use style="stroke:#000000;stroke-width:0.8;" x="57.6" xlink:href="#m0037795033" y="231.424438"/>
      </g>
     </g>
     <g id="text_12">
      <!-- $\mathdefault{0.050}$ -->
      <g transform="translate(27.907251 234.883687)scale(0.1 -0.1)">
       <use transform="scale(0.996264)" xlink:href="#CMR17-48"/>
       <use transform="translate(45.690477 0)scale(0.996264)" xlink:href="#CMMI12-58"/>
       <use transform="translate(72.787654 0)scale(0.996264)" xlink:href="#CMR17-48"/>
       <use transform="translate(118.478131 0)scale(0.996264)" xlink:href="#CMR17-53"/>
       <use transform="translate(164.168608 0)scale(0.996264)" xlink:href="#CMR17-48"/>
      </g>
     </g>
    </g>
    <g id="ytick_4">
     <g id="line2d_13">
      <g>
       <use style="stroke:#000000;stroke-width:0.8;" x="57.6" xlink:href="#m0037795033" y="198.522178"/>
      </g>
     </g>
     <g id="text_13">
      <!-- $\mathdefault{0.075}$ -->
      <g transform="translate(27.907251 201.981427)scale(0.1 -0.1)">
       <use transform="scale(0.996264)" xlink:href="#CMR17-48"/>
       <use transform="translate(45.690477 0)scale(0.996264)" xlink:href="#CMMI12-58"/>
       <use transform="translate(72.787654 0)scale(0.996264)" xlink:href="#CMR17-48"/>
       <use transform="translate(118.478131 0)scale(0.996264)" xlink:href="#CMR17-55"/>
       <use transform="translate(164.168608 0)scale(0.996264)" xlink:href="#CMR17-53"/>
      </g>
     </g>
    </g>
    <g id="ytick_5">
     <g id="line2d_14">
      <g>
       <use style="stroke:#000000;stroke-width:0.8;" x="57.6" xlink:href="#m0037795033" y="165.619919"/>
      </g>
     </g>
     <g id="text_14">
      <!-- $\mathdefault{0.100}$ -->
      <g transform="translate(27.907251 169.079168)scale(0.1 -0.1)">
       <use transform="scale(0.996264)" xlink:href="#CMR17-48"/>
       <use transform="translate(45.690477 0)scale(0.996264)" xlink:href="#CMMI12-58"/>
       <use transform="translate(72.787654 0)scale(0.996264)" xlink:href="#CMR17-49"/>
       <use transform="translate(118.478131 0)scale(0.996264)" xlink:href="#CMR17-48"/>
       <use transform="translate(164.168608 0)scale(0.996264)" xlink:href="#CMR17-48"/>
      </g>
     </g>
    </g>
    <g id="ytick_6">
     <g id="line2d_15">
      <g>
       <use style="stroke:#000000;stroke-width:0.8;" x="57.6" xlink:href="#m0037795033" y="132.717659"/>
      </g>
     </g>
     <g id="text_15">
      <!-- $\mathdefault{0.125}$ -->
      <g transform="translate(27.907251 136.176908)scale(0.1 -0.1)">
       <use transform="scale(0.996264)" xlink:href="#CMR17-48"/>
       <use transform="translate(45.690477 0)scale(0.996264)" xlink:href="#CMMI12-58"/>
       <use transform="translate(72.787654 0)scale(0.996264)" xlink:href="#CMR17-49"/>
       <use transform="translate(118.478131 0)scale(0.996264)" xlink:href="#CMR17-50"/>
       <use transform="translate(164.168608 0)scale(0.996264)" xlink:href="#CMR17-53"/>
      </g>
     </g>
    </g>
    <g id="ytick_7">
     <g id="line2d_16">
      <g>
       <use style="stroke:#000000;stroke-width:0.8;" x="57.6" xlink:href="#m0037795033" y="99.815399"/>
      </g>
     </g>
     <g id="text_16">
      <!-- $\mathdefault{0.150}$ -->
      <g transform="translate(27.907251 103.274648)scale(0.1 -0.1)">
       <use transform="scale(0.996264)" xlink:href="#CMR17-48"/>
       <use transform="translate(45.690477 0)scale(0.996264)" xlink:href="#CMMI12-58"/>
       <use transform="translate(72.787654 0)scale(0.996264)" xlink:href="#CMR17-49"/>
       <use transform="translate(118.478131 0)scale(0.996264)" xlink:href="#CMR17-53"/>
       <use transform="translate(164.168608 0)scale(0.996264)" xlink:href="#CMR17-48"/>
      </g>
     </g>
    </g>
    <g id="ytick_8">
     <g id="line2d_17">
      <g>
       <use style="stroke:#000000;stroke-width:0.8;" x="57.6" xlink:href="#m0037795033" y="66.91314"/>
      </g>
     </g>
     <g id="text_17">
      <!-- $\mathdefault{0.175}$ -->
      <g transform="translate(27.907251 70.372389)scale(0.1 -0.1)">
       <use transform="scale(0.996264)" xlink:href="#CMR17-48"/>
       <use transform="translate(45.690477 0)scale(0.996264)" xlink:href="#CMMI12-58"/>
       <use transform="translate(72.787654 0)scale(0.996264)" xlink:href="#CMR17-49"/>
       <use transform="translate(118.478131 0)scale(0.996264)" xlink:href="#CMR17-55"/>
       <use transform="translate(164.168608 0)scale(0.996264)" xlink:href="#CMR17-53"/>
      </g>
     </g>
    </g>
   </g>
   <g id="line2d_18">
    <path clip-path="url(#p364b0837b1)" d="M 73.832727 129.427433 
L 74.283997 129.510343 
L 74.303476 132.636324 
L 74.355421 170.682373 
L 74.407366 130.282399 
L 74.434961 127.448574 
L 74.47879 136.155119 
L 74.550214 149.185968 
L 74.581056 134.798564 
L 74.600535 128.849442 
L 74.694685 132.287961 
L 74.878115 136.101616 
L 74.887855 135.911127 
L 75.00473 122.25466 
L 75.056675 130.437255 
L 75.10375 133.105466 
L 75.168681 130.820415 
L 75.186537 130.322552 
L 75.262831 132.195009 
L 75.264454 132.180021 
L 75.266077 132.202652 
L 75.303412 131.20353 
L 75.314775 131.025405 
L 75.374836 132.142654 
L 75.37646 132.12813 
L 75.430028 132.409011 
L 75.467363 131.787849 
L 75.488465 131.246303 
L 75.53554 130.188888 
L 75.606964 130.836927 
L 75.683258 132.662157 
L 75.738449 131.976765 
L 75.772538 131.657068 
L 75.842339 132.231946 
L 75.843962 132.189719 
L 75.845585 132.231813 
L 75.931619 131.618056 
L 75.933242 131.657159 
L 75.938112 131.613143 
L 75.994927 131.769334 
L 76.045248 131.631707 
L 76.163747 133.260193 
L 76.205952 132.940441 
L 76.266013 132.617394 
L 76.324451 132.707727 
L 76.326074 132.734444 
L 76.412108 132.616914 
L 76.429964 132.652668 
L 76.431587 132.631578 
L 76.501388 133.166778 
L 76.512751 133.310841 
L 76.660468 134.381324 
L 76.662092 134.368535 
L 76.741632 134.618269 
L 76.743255 134.608429 
L 76.890973 135.121958 
L 76.892596 135.109517 
L 76.959151 135.454112 
L 77.002979 136.268209 
L 77.173423 138.049466 
L 77.285428 139.506578 
L 77.666897 144.204479 
L 77.993175 149.271457 
L 78.413603 157.368377 
L 78.579177 160.694584 
L 79.20576 175.780859 
L 79.809617 195.588666 
L 80.493015 225.172783 
L 81.053044 256.487503 
L 81.650409 295.488 
L 81.738065 290.425972 
L 83.817478 152.408157 
L 84.492759 126.158737 
L 85.059281 111.151489 
L 85.680995 100.288635 
L 86.450426 91.865033 
L 86.958511 88.91403 
L 87.296151 88.205055 
L 87.416273 88.101441 
L 87.464972 88.162409 
L 87.710086 88.847305 
L 88.106164 91.644489 
L 88.520099 96.076513 
L 89.555747 110.277098 
L 90.385239 126.232196 
L 91.003706 142.008394 
L 91.97767 173.4992 
L 93.328233 216.463377 
L 93.901248 228.691795 
L 94.443421 235.93063 
L 94.910924 239.173957 
L 95.232332 240.001348 
L 95.490432 239.92711 
L 95.604061 239.656459 
L 95.789114 239.007955 
L 96.063447 237.506828 
L 96.654319 232.16571 
L 97.297135 223.130398 
L 98.183441 205.781177 
L 99.027543 190.022075 
L 99.540497 184.024238 
L 99.986897 181.035838 
L 100.499852 179.274159 
L 100.936512 178.751053 
L 101.08423 178.780827 
L 101.481932 179.410819 
L 101.717306 180.175039 
L 102.442909 183.58885 
L 103.213964 187.734565 
L 103.728541 191.872455 
L 104.135983 197.052609 
L 104.950865 211.416 
L 105.682961 223.08188 
L 106.140724 227.255471 
L 106.424797 228.125602 
L 106.517324 228.107716 
L 106.538426 228.081627 
L 106.652055 227.810307 
L 106.837108 226.926264 
L 107.127674 224.550815 
L 108.207151 214.612011 
L 108.333766 214.50998 
L 108.367855 214.541208 
L 108.476614 214.798533 
L 108.724975 216.175633 
L 109.56096 221.201338 
L 109.65024 221.14851 
L 109.658356 221.134717 
L 109.780102 220.773943 
L 110.025216 219.14776 
L 110.348247 215.412262 
L 110.952105 205.211268 
L 111.919575 188.916461 
L 112.314031 185.316074 
L 112.521809 184.790931 
L 112.533172 184.795432 
L 112.615959 184.93683 
L 112.783156 185.82748 
L 113.026647 188.490954 
L 113.482787 196.213581 
L 114.099631 205.542654 
L 114.435648 207.975925 
L 114.588236 208.22979 
L 114.620701 208.204786 
L 114.752186 207.807714 
L 114.935616 206.447347 
L 115.261894 201.985977 
L 116.318644 186.369789 
L 116.476102 185.986768 
L 116.502074 186.00299 
L 116.60921 186.322082 
L 116.789393 187.829068 
L 117.045871 192.129119 
L 117.463052 203.37832 
L 118.398057 228.791959 
L 118.743814 233.326127 
L 118.863936 233.686121 
L 118.909388 233.625584 
L 119.02464 232.955455 
L 119.2032 230.388463 
L 119.47104 223.00832 
L 119.893091 204.142702 
L 120.704727 167.668939 
L 120.956335 164.32506 
L 120.99854 164.270554 
L 121.048861 164.38723 
L 121.16249 165.33511 
L 121.376762 169.314085 
L 121.821539 182.680688 
L 122.470848 200.052124 
L 122.814982 204.495471 
L 122.935104 204.818288 
L 122.977309 204.767107 
L 123.092561 204.215844 
L 123.31495 201.834179 
L 124.128209 189.438415 
L 124.357091 179.796693 
L 124.72882 152.109968 
L 125.025879 137.45348 
L 125.030749 137.450781 
L 125.053475 137.584931 
L 125.124899 139.702196 
L 125.266124 152.123316 
L 125.561559 203.178688 
L 125.939782 264.065354 
L 125.972247 263.057768 
L 126.066397 249.87089 
L 126.343977 171.192093 
L 126.652399 97.8793 
L 126.675124 98.481749 
L 126.780637 109.981711 
L 126.850438 113.433031 
L 126.910499 112.054594 
L 127.027375 108.986898 
L 127.077696 109.925828 
L 127.171846 118.066898 
L 127.347159 157.532054 
L 127.597143 211.289969 
L 127.636102 208.904103 
L 127.741615 182.139011 
L 128.019194 124.031855 
L 128.178275 111.111773 
L 128.527279 86.34905 
L 128.551628 86.653427 
L 128.619805 91.323833 
L 128.75129 119.2959 
L 129.054842 203.632558 
L 129.114903 195.544002 
L 129.686295 73.659159 
L 129.9168 53.568 
L 129.959005 55.198102 
L 130.053155 71.773581 
L 130.385926 167.903558 
L 130.470336 152.963016 
L 130.796614 81.486646 
L 131.286842 61.677695 
L 131.330671 63.233521 
L 131.413457 78.153052 
L 131.678051 171.239947 
L 131.772201 150.586678 
L 132.075753 74.215691 
L 132.106595 74.051899 
L 132.165033 74.451986 
L 132.304634 75.745589 
L 132.358202 75.43304 
L 132.51566 72.986593 
L 132.572474 74.220387 
L 132.658508 83.945953 
L 132.789993 130.568484 
L 132.949073 190.239015 
L 133.001018 181.718744 
L 133.387357 77.375023 
L 133.452288 77.5687 
L 133.57728 78.049199 
L 133.648704 77.993556 
L 133.697402 78.147115 
L 133.776943 79.346928 
L 133.861353 84.879019 
L 133.957126 110.791032 
L 134.155165 199.543346 
L 134.228212 182.463086 
L 134.570723 69.684349 
L 134.611305 70.691387 
L 135.018746 93.440553 
L 135.121012 117.840157 
L 135.374243 246.18746 
L 135.465146 211.483068 
L 135.786554 92.834723 
L 135.911546 84.49137 
L 135.948881 84.736333 
L 136.116079 87.859778 
L 136.198865 96.326979 
L 136.33522 140.00528 
L 136.565725 277.006038 
L 136.643642 234.242831 
L 136.942324 105.152247 
L 137.14361 91.138915 
L 137.14848 91.134756 
L 137.174452 91.283812 
L 137.252369 93.348152 
L 137.354636 103.208671 
L 137.507223 144.335315 
L 137.732858 281.841656 
L 137.752337 291.319403 
L 137.805905 257.00452 
L 138.107834 121.3908 
L 138.30912 105.34506 
L 138.31886 105.31794 
L 138.354572 105.674569 
L 138.440605 109.605292 
L 138.568844 128.052211 
L 138.75065 192.510369 
L 138.922717 276.995608 
L 138.982778 253.864605 
L 139.307433 136.195318 
L 139.46002 127.65504 
L 139.485993 127.862525 
L 139.562287 130.92469 
L 139.693772 146.704729 
L 139.883695 202.40506 
L 140.073617 272.84543 
L 140.133679 257.947389 
L 140.513524 152.894796 
L 140.622284 148.772256 
L 140.667735 149.43285 
L 140.766755 155.531033 
L 140.917719 180.991739 
L 141.206662 271.144341 
L 141.299188 248.866386 
L 141.643322 167.432149 
L 141.748835 163.294751 
L 141.794287 164.039209 
L 141.896553 170.925847 
L 142.06375 199.781926 
L 142.33159 277.383023 
L 142.412753 258.844568 
L 142.771497 177.087631 
L 142.906228 171.122598 
L 142.943564 171.607494 
L 143.03122 176.876992 
L 143.183808 202.299433 
L 143.453271 277.951968 
L 143.534435 259.73774 
L 143.893178 177.806573 
L 144.02791 172.498497 
L 144.063622 172.910352 
L 144.149655 177.488742 
L 144.29575 199.697401 
L 144.581446 283.701676 
L 144.672349 259.492273 
L 145.019729 176.909794 
L 145.175564 169.30233 
L 145.204783 169.578216 
L 145.2827 173.237127 
L 145.420678 192.237196 
L 145.641443 260.125427 
L 145.722607 281.939767 
L 145.776175 269.863087 
L 146.17063 172.761663 
L 146.306985 166.787562 
L 146.34432 167.268425 
L 146.4336 172.516631 
L 146.587811 197.352861 
L 146.868637 285.18217 
L 146.957917 258.298916 
L 147.289065 175.435446 
L 147.470871 165.145512 
L 147.490351 165.281649 
L 147.555281 167.764032 
L 147.680273 182.850786 
L 147.883183 240.101456 
L 148.016291 281.787776 
L 148.071482 268.727765 
L 148.454575 171.802581 
L 148.603916 165.254781 
L 148.634758 165.56964 
L 148.714298 169.498799 
L 148.8539 189.663479 
L 149.086028 262.986644 
L 149.162321 284.240867 
L 149.215889 271.184319 
L 149.602228 172.530081 
L 149.761309 164.84171 
L 149.788905 165.110178 
L 149.865199 168.715553 
L 150.001553 187.93832 
L 150.225565 258.374805 
L 150.308352 281.060092 
L 150.36192 268.988522 
L 150.754752 170.971346 
L 150.891107 165.172263 
L 150.928442 165.636106 
L 151.016099 170.636668 
L 151.167063 194.60983 
L 151.454383 283.896131 
L 151.545286 257.095342 
L 151.878057 174.457774 
L 152.051747 164.92848 
L 152.074473 165.096926 
L 152.144273 167.974024 
L 152.274135 184.540171 
L 152.483537 245.841692 
L 152.59879 280.805411 
L 152.653981 268.585744 
L 153.04519 171.299408 
L 153.184791 165.462931 
L 153.220503 165.899977 
L 153.306537 170.719229 
L 153.454255 194.042661 
L 153.743197 283.802726 
L 153.835724 257.144464 
L 154.170118 174.350453 
L 154.342185 165.265476 
L 154.364911 165.445257 
L 154.434711 168.320662 
L 154.564573 184.844094 
L 154.773975 246.34711 
L 154.889228 280.946075 
L 154.942796 268.911661 
L 155.337251 171.203733 
L 155.471983 165.65007 
L 155.509318 166.119371 
L 155.596975 171.12752 
L 155.746316 194.85551 
L 156.033635 283.997784 
L 156.124538 257.358258 
L 156.458932 174.551341 
L 156.630999 165.274903 
L 156.653725 165.446899 
L 156.723526 168.316292 
L 156.853388 184.813361 
L 157.06279 246.075213 
L 157.178042 280.992454 
L 157.233233 268.629735 
L 157.624442 171.420915 
L 157.76242 165.584022 
L 157.798132 165.997007 
L 157.884166 170.74303 
L 158.031884 193.808966 
L 158.294854 279.397687 
L 158.322449 283.949559 
L 158.376017 271.415696 
L 158.765603 172.740293 
L 158.921437 165.214316 
L 158.952279 165.53696 
L 159.03182 169.605388 
L 159.171421 190.458898 
L 159.411665 268.019809 
L 159.46848 280.989967 
L 159.523671 268.451026 
L 159.913257 171.438341 
L 160.051235 165.554023 
L 160.086947 165.959214 
L 160.17298 170.660471 
L 160.320698 193.527162 
L 160.575552 276.624255 
L 160.612887 283.982206 
L 160.666455 271.231275 
L 161.054417 172.854323 
L 161.211875 165.20233 
L 161.241094 165.509154 
L 161.320634 169.533768 
L 161.460236 190.245929 
L 161.698857 267.02302 
L 161.757295 280.984454 
L 161.812486 268.838666 
L 162.205318 171.286906 
L 162.341673 165.547836 
L 162.379008 165.992661 
L 162.466665 170.964887 
L 162.616006 194.760438 
L 162.903325 283.951248 
L 162.994228 257.357999 
L 163.328623 174.452384 
L 163.500689 165.203532 
L 163.523415 165.368908 
L 163.591593 168.101428 
L 163.719831 184.058891 
L 163.925987 243.578457 
L 164.047732 280.976099 
L 164.102924 268.665707 
L 164.494132 171.364985 
L 164.632111 165.556043 
L 164.667823 165.980417 
L 164.753856 170.739107 
L 164.901574 193.755784 
L 165.161297 278.433575 
L 165.19214 283.959941 
L 165.245708 271.447495 
L 165.635293 172.756217 
L 165.791127 165.210022 
L 165.821969 165.537094 
L 165.90151 169.619163 
L 166.041111 190.466093 
L 166.281356 267.968696 
L 166.33817 280.982386 
L 166.393361 268.480405 
L 166.782947 171.473408 
L 166.922548 165.556187 
L 166.95826 165.99015 
L 167.044294 170.782298 
L 167.192012 193.887256 
L 167.454982 279.516152 
L 167.482577 283.958392 
L 167.534522 271.835165 
L 167.927354 172.554506 
L 168.081565 165.209091 
L 168.112407 165.544077 
L 168.193571 169.788987 
L 168.334796 191.296519 
L 168.583156 272.027646 
L 168.628608 280.976908 
L 168.682176 268.860834 
L 169.075008 171.283256 
L 169.211363 165.557996 
L 169.248698 166.006283 
L 169.336355 170.978451 
L 169.485696 194.749014 
L 169.773015 283.961422 
L 169.863919 257.373979 
L 170.198313 174.462495 
L 170.37038 165.210045 
L 170.393105 165.377529 
L 170.462906 168.224928 
L 170.592768 184.683668 
L 170.80217 245.986479 
L 170.917423 280.982125 
L 170.972614 268.677085 
L 171.363823 171.379279 
L 171.501801 165.555746 
L 171.537513 165.977006 
L 171.623546 170.732695 
L 171.771264 193.754919 
L 172.030988 278.416559 
L 172.06183 283.956703 
L 172.115398 271.463462 
L 172.504983 172.762113 
L 172.660817 165.208172 
L 172.69166 165.5318 
L 172.7712 169.60616 
L 172.910801 190.450938 
L 173.151046 267.953956 
L 173.20786 280.981048 
L 173.263052 268.497162 
L 173.652637 171.471014 
L 173.792239 165.556773 
L 173.827951 165.99061 
L 173.913984 170.77919 
L 174.061702 193.871488 
L 174.323049 279.048059 
L 174.352268 283.960802 
L 174.405836 271.277737 
L 174.793798 172.866016 
L 174.951255 165.209431 
L 174.980474 165.510938 
L 175.060015 169.518488 
L 175.199616 190.210623 
L 175.436614 266.40619 
L 175.498298 280.978709 
L 175.551866 268.875036 
L 175.944698 171.289229 
L 176.081053 165.556188 
L 176.118388 166.002974 
L 176.206045 170.973077 
L 176.355386 194.740917 
L 176.642705 283.960305 
L 176.733609 257.390772 
L 177.068003 174.468978 
L 177.24007 165.208678 
L 177.262796 165.374632 
L 177.330973 168.108953 
L 177.459212 184.05937 
L 177.665367 243.548284 
L 177.787113 280.98084 
L 177.842304 268.694585 
L 178.233513 171.381941 
L 178.371491 165.556517 
L 178.407203 165.976683 
L 178.493236 170.728418 
L 178.640954 193.742047 
L 178.900678 278.403996 
L 178.93152 283.956604 
L 178.985088 271.47978 
L 179.374673 172.765221 
L 179.530508 165.209194 
L 179.56135 165.532486 
L 179.64089 169.604741 
L 179.780492 190.440995 
L 180.020736 267.93822 
L 180.077551 280.981551 
L 180.132742 268.512329 
L 180.522327 171.475661 
L 180.661929 165.556413 
L 180.697641 165.989256 
L 180.783674 170.775573 
L 180.931392 193.862446 
L 181.192739 279.033966 
L 181.221958 283.960432 
L 181.275526 271.294047 
L 181.663488 172.8716 
L 181.820945 165.208823 
L 181.850164 165.50904 
L 181.929705 169.513404 
L 182.069306 190.200801 
L 182.306304 266.389179 
L 182.367988 280.978918 
L 182.421556 268.891521 
L 182.814388 171.293017 
L 182.950743 165.556511 
L 182.988079 166.002008 
L 183.075735 170.968507 
L 183.225076 194.729454 
L 183.512396 283.96057 
L 183.603299 257.408293 
L 183.937693 174.473214 
L 184.10976 165.209176 
L 184.132486 165.374578 
L 184.200663 168.106721 
L 184.328902 184.050701 
L 184.535057 243.531049 
L 184.656803 280.980745 
L 184.711994 268.710109 
L 185.103203 171.385813 
L 185.241181 165.556367 
L 185.276893 165.97556 
L 185.362927 170.724666 
L 185.510644 193.732001 
L 185.768745 277.899505 
L 185.802833 283.956989 
L 185.856401 270.921764 
L 186.24274 172.926872 
L 186.400198 165.208853 
L 186.429417 165.497603 
L 186.507334 169.335134 
L 186.645312 189.373522 
L 186.87744 263.222588 
L 186.947241 280.981624 
L 187.002432 268.528555 
L 187.392017 171.479722 
L 187.531619 165.55645 
L 187.567331 165.988092 
L 187.653364 170.771183 
L 187.801082 193.851675 
L 188.062429 279.020753 
L 188.091648 283.960247 
L 188.145216 271.310479 
L 188.533178 172.875792 
L 188.690636 165.209025 
L 188.719855 165.508361 
L 188.799395 169.509812 
L 188.938996 190.190437 
L 189.175994 266.37274 
L 189.237679 280.979243 
L 189.291247 268.907271 
L 189.684079 171.296786 
L 189.820433 165.556503 
L 189.857769 166.000927 
L 189.945425 170.9645 
L 190.094767 194.718832 
L 190.382086 283.960699 
L 190.472989 257.425294 
L 190.807383 174.478351 
L 190.97945 165.209056 
L 191.002176 165.373723 
L 191.070353 168.103531 
L 191.198592 184.042211 
L 191.404748 243.513861 
L 191.526493 280.98055 
L 191.581684 268.726138 
L 191.972893 171.389855 
L 192.110871 165.556373 
L 192.146583 165.974416 
L 192.232617 170.720453 
L 192.380335 193.721475 
L 192.638435 277.885405 
L 192.672524 283.95746 
L 192.726092 270.93822 
L 193.112431 172.931276 
L 193.269888 165.20895 
L 193.299107 165.496776 
L 193.377024 169.331464 
L 193.515002 189.363473 
L 193.74713 263.205638 
L 193.816931 280.981644 
L 193.872122 268.544485 
L 194.261708 171.483599 
L 194.401309 165.556445 
L 194.437021 165.98702 
L 194.523055 170.767151 
L 194.670772 193.841135 
L 194.932119 279.007431 
L 194.961338 283.96002 
L 195.014906 271.326744 
L 195.402868 172.880301 
L 195.560326 165.208957 
L 195.589545 165.507366 
L 195.667462 169.373806 
L 195.80544 189.476479 
L 196.037568 263.399333 
L 196.107369 280.979605 
L 196.160937 268.923191 
L 196.553769 171.300746 
L 196.690124 165.556512 
L 196.727459 165.999764 
L 196.815116 170.960262 
L 196.964457 194.708157 
L 197.251776 283.960819 
L 197.342679 257.442468 
L 197.677073 174.483288 
L 197.84914 165.209112 
L 197.871866 165.373058 
L 197.940044 168.100473 
L 198.068282 184.033515 
L 198.274438 243.496724 
L 198.396183 280.980279 
L 198.451375 268.74206 
L 198.842583 171.393741 
L 198.980561 165.556386 
L 199.016273 165.973342 
L 199.102307 170.71639 
L 199.250025 193.710945 
L 199.508125 277.871275 
L 199.542214 283.957883 
L 199.595782 270.954579 
L 199.982121 172.935765 
L 200.139578 165.208936 
L 200.168797 165.495838 
L 200.246714 169.327764 
L 200.384692 189.353599 
L 200.61682 263.188587 
L 200.686621 280.981688 
L 200.741812 268.560466 
L 201.131398 171.487594 
L 201.270999 165.556424 
L 201.306711 165.985892 
L 201.392745 170.76303 
L 201.540463 193.830633 
L 201.801809 278.994102 
L 201.831028 283.959783 
L 201.884596 271.343073 
L 202.272559 172.884776 
L 202.430016 165.208958 
L 202.459235 165.506433 
L 202.537152 169.370069 
L 202.67513 189.466522 
L 202.907258 263.382336 
L 202.977059 280.979903 
L 203.030627 268.939079 
L 203.423459 171.304625 
L 203.559814 165.556539 
L 203.597149 165.998646 
L 203.684806 170.956076 
L 203.834147 194.697436 
L 204.121466 283.96089 
L 204.212369 257.459604 
L 204.546764 174.488245 
L 204.718831 165.209129 
L 204.741556 165.372361 
L 204.809734 168.097416 
L 204.937972 184.02489 
L 205.144128 243.479555 
L 205.265873 280.980011 
L 205.321065 268.757992 
L 205.712273 171.397684 
L 205.850252 165.556386 
L 205.885964 165.972242 
L 205.971997 170.712302 
L 206.119715 193.70046 
L 206.377815 277.857136 
L 206.411904 283.958295 
L 206.465472 270.970964 
L 206.851811 172.94026 
L 207.009268 165.208946 
L 207.038487 165.494917 
L 207.116404 169.324053 
L 207.254383 189.343686 
L 207.486511 263.17156 
L 207.556311 280.981688 
L 207.611503 268.576439 
L 208.002711 171.35301 
L 208.140689 165.556416 
L 208.176401 165.984785 
L 208.262435 170.758923 
L 208.410153 193.820098 
L 208.6715 278.980762 
L 208.700719 283.959502 
L 208.754287 271.35938 
L 209.142249 172.889244 
L 209.299706 165.208947 
L 209.328925 165.505494 
L 209.406842 169.366346 
L 209.54482 189.456592 
L 209.776948 263.365321 
L 209.846749 280.980189 
L 209.900317 268.954964 
L 210.293149 171.308527 
L 210.429504 165.556558 
L 210.466839 165.997516 
L 210.554496 170.951888 
L 210.703837 194.686745 
L 210.991156 283.960945 
L 211.08206 257.476745 
L 211.416454 174.493211 
L 211.590144 165.209134 
L 211.611247 165.371669 
L 211.679424 168.094354 
L 211.807663 184.016255 
L 212.013818 243.4624 
L 212.135564 280.97971 
L 212.190755 268.77392 
L 212.581964 171.401616 
L 212.719942 165.556394 
L 212.755654 165.97115 
L 212.841687 170.708215 
L 212.989405 193.689957 
L 213.247505 277.842988 
L 213.281594 283.95867 
L 213.335162 270.98734 
L 213.721501 172.944747 
L 213.878959 165.208955 
L 213.908177 165.493998 
L 213.986095 169.32035 
L 214.124073 189.333781 
L 214.356201 263.154525 
L 214.426001 280.981669 
L 214.481193 268.592407 
L 214.872401 171.356928 
L 215.01038 165.556406 
L 215.046092 165.983675 
L 215.132125 170.754819 
L 215.279843 193.809579 
L 215.539567 278.491556 
L 215.570409 283.9592 
L 215.623977 271.375688 
L 216.013562 172.737299 
L 216.169396 165.20894 
L 216.198615 165.504557 
L 216.276532 169.362621 
L 216.414511 189.446662 
L 216.646639 263.348308 
L 216.716439 280.980448 
L 216.770007 268.970847 
L 217.162839 171.312428 
L 217.300817 165.556597 
L 217.336529 165.99639 
L 217.424186 170.9477 
L 217.573527 194.676046 
L 217.860847 283.960966 
L 217.95175 257.493886 
L 218.286144 174.498174 
L 218.459834 165.20911 
L 218.480937 165.370978 
L 218.549114 168.091297 
L 218.677353 184.007622 
L 218.883508 243.445242 
L 219.005254 280.979386 
L 219.060445 268.789844 
L 219.453277 171.268114 
L 219.589632 165.5564 
L 219.626967 166.009296 
L 219.714624 170.995468 
L 219.863965 194.797927 
L 220.151284 283.959019 
L 220.242188 257.298788 
L 220.576582 174.44176 
L 220.748649 165.208965 
L 220.771375 165.378927 
L 220.841175 168.235426 
L 220.971037 184.719974 
L 221.180439 246.062326 
L 221.295692 280.981624 
L 221.350883 268.608372 
L 221.742092 171.360847 
L 221.88007 165.556398 
L 221.915782 165.982567 
L 222.001815 170.750715 
L 222.149533 193.799058 
L 222.409257 278.477834 
L 222.440099 283.958867 
L 222.493667 271.391992 
L 222.883252 172.741725 
L 223.039087 165.208934 
L 223.069929 165.537411 
L 223.151092 169.761516 
L 223.292317 191.215651 
L 223.539055 271.370858 
L 223.586129 280.980683 
L 223.639697 268.986726 
L 224.034153 171.180048 
L 224.170508 165.556573 
L 224.20622 165.995265 
L 224.293876 170.943515 
L 224.443217 194.665352 
L 224.730537 283.96096 
L 224.82144 257.511027 
L 225.155834 174.503139 
L 225.329524 165.209088 
L 225.350627 165.370289 
L 225.418804 168.088241 
L 225.547043 183.998992 
L 225.753199 243.428086 
L 225.874944 280.979037 
L 225.930135 268.805765 
L 226.322967 171.272 
L 226.459322 165.556409 
L 226.496657 166.008154 
L 226.584314 170.991262 
L 226.733655 194.787208 
L 227.020975 283.959339 
L 227.111878 257.315927 
L 227.446272 174.446708 
L 227.618339 165.208976 
L 227.641065 165.378221 
L 227.710865 168.232289 
L 227.840727 184.711164 
L 228.050129 246.045046 
L 228.165382 280.981555 
L 228.220573 268.624333 
L 228.611782 171.364766 
L 228.74976 165.556391 
L 228.785472 165.98146 
L 228.871505 170.746613 
L 229.019223 193.78854 
L 229.278947 278.464102 
L 229.309789 283.958506 
L 229.363357 271.408294 
L 229.752943 172.746153 
L 229.908777 165.208929 
L 229.939619 165.536423 
L 230.019159 169.6212 
L 230.158761 190.485692 
L 230.399005 268.009476 
L 230.45582 280.980893 
L 230.511011 268.442443 
L 230.900596 171.45835 
L 231.040198 165.55655 
L 231.07591 165.994142 
L 231.161943 170.793404 
L 231.309661 193.908388 
L 231.572631 279.551137 
L 231.600227 283.960925 
L 231.652172 271.79479 
L 232.04338 172.695835 
L 232.199215 165.209067 
L 232.228433 165.513408 
L 232.307974 169.530255 
L 232.447575 190.244881 
L 232.686196 267.043506 
L 232.744634 280.978664 
L 232.799825 268.821682 
L 233.192657 171.275887 
L 233.329012 165.556419 
L 233.366348 166.007014 
L 233.454004 170.987058 
L 233.603345 194.776492 
L 233.890665 283.95963 
L 233.981568 257.333066 
L 234.315962 174.451658 
L 234.488029 165.208989 
L 234.510755 165.377516 
L 234.580556 168.229153 
L 234.710417 184.702355 
L 234.91982 246.027768 
L 235.035072 280.981461 
L 235.090263 268.640291 
L 235.481472 171.368688 
L 235.61945 165.556385 
L 235.655162 165.980355 
L 235.741196 170.742514 
L 235.888913 193.778024 
L 236.148637 278.45036 
L 236.179479 283.958116 
L 236.233047 271.424592 
L 236.622633 172.750583 
L 236.778467 165.208926 
L 236.809309 165.535438 
L 236.888849 169.617352 
L 237.028451 190.475534 
L 237.268695 267.993176 
L 237.32551 280.981078 
L 237.380701 268.458441 
L 237.770287 171.462306 
L 237.909888 165.556529 
L 237.9456 165.99302 
L 238.031633 170.789284 
L 238.179351 193.897848 
L 238.442321 279.538278 
L 238.469917 283.960861 
L 238.521862 271.811014 
L 238.913071 172.700248 
L 239.068905 165.209047 
L 239.098124 165.512459 
L 239.177664 169.52645 
L 239.317265 190.234776 
L 239.555887 267.027014 
L 239.614324 280.978266 
L 239.669516 268.837596 
L 240.062348 171.279776 
L 240.198703 165.556431 
L 240.236038 166.005876 
L 240.323695 170.982856 
L 240.473036 194.765777 
L 240.760355 283.959893 
L 240.851258 257.350205 
L 241.185652 174.45661 
L 241.357719 165.209004 
L 241.380445 165.376813 
L 241.450246 168.22602 
L 241.580108 184.693549 
L 241.78951 246.01049 
L 241.904762 280.981343 
L 241.959953 268.656246 
L 242.351162 171.372611 
L 242.48914 165.556381 
L 242.524852 165.979252 
L 242.610886 170.738416 
L 242.758604 193.76751 
L 243.018327 278.436609 
L 243.049169 283.957697 
L 243.102737 271.440887 
L 243.492323 172.755013 
L 243.648157 165.208924 
L 243.678999 165.534454 
L 243.75854 169.613506 
L 243.898141 190.465378 
L 244.138385 267.976873 
L 244.1952 280.981239 
L 244.250391 268.474435 
L 244.639977 171.466263 
L 244.779578 165.556509 
L 244.81529 165.9919 
L 244.901324 170.785166 
L 245.049041 193.88731 
L 245.312012 279.525408 
L 245.339607 283.960769 
L 245.391552 271.827235 
L 245.784384 172.550327 
L 245.938595 165.209029 
L 245.969437 165.545745 
L 246.050601 169.794398 
L 246.191825 191.302218 
L 246.440186 272.034035 
L 246.485638 280.977956 
L 246.539206 268.853505 
L 246.932038 171.283665 
L 247.068393 165.556444 
L 247.105728 166.004739 
L 247.193385 170.978655 
L 247.342726 194.755065 
L 247.630045 283.960126 
L 247.720948 257.367345 
L 248.055343 174.461563 
L 248.227409 165.20902 
L 248.250135 165.376112 
L 248.319936 168.222888 
L 248.449798 184.684746 
L 248.6592 245.993212 
L 248.774452 280.9812 
L 248.829644 268.672197 
L 249.220852 171.376535 
L 249.358831 165.556378 
L 249.394543 165.97815 
L 249.480576 170.734319 
L 249.628294 193.756999 
L 249.888017 278.422848 
L 249.91886 283.95725 
L 249.972428 271.45718 
L 250.362013 172.759445 
L 250.517847 165.208924 
L 250.548689 165.533471 
L 250.62823 169.609662 
L 250.767831 190.455224 
L 251.008076 267.960566 
L 251.06489 280.981376 
L 251.120081 268.490426 
L 251.509667 171.470222 
L 251.649268 165.556491 
L 251.68498 165.990781 
L 251.771014 170.78105 
L 251.918732 193.876774 
L 252.180079 279.052435 
L 252.209297 283.960648 
L 252.262865 271.271552 
L 252.650828 172.865186 
L 252.808285 165.209012 
L 252.837504 165.510564 
L 252.917044 169.518848 
L 253.056646 190.214571 
L 253.293644 266.412265 
L 253.355328 280.978372 
L 253.408896 268.869412 
L 253.801728 171.287557 
L 253.938083 165.556458 
L 253.975418 166.003603 
L 254.063075 170.974457 
L 254.212416 194.744355 
L 254.499735 283.960332 
L 254.590639 257.384485 
L 254.925033 174.466517 
L 255.0971 165.209037 
L 255.119825 165.375412 
L 255.189626 168.219757 
L 255.319488 184.675944 
L 255.52889 245.975936 
L 255.644143 280.981033 
L 255.699334 268.688144 
L 256.090543 171.380461 
L 256.228521 165.556377 
L 256.264233 165.977049 
L 256.350266 170.730225 
L 256.497984 193.746489 
L 256.757708 278.409077 
L 256.78855 283.956774 
L 256.842118 271.473469 
L 257.231703 172.763879 
L 257.387537 165.208925 
L 257.41838 165.53249 
L 257.49792 169.60582 
L 257.637521 190.445073 
L 257.877766 267.944255 
L 257.93458 280.981488 
L 257.989772 268.506413 
L 258.379357 171.474182 
L 258.518959 165.556474 
L 258.554671 165.989664 
L 258.640704 170.776935 
L 258.788422 193.86624 
L 259.049769 279.039143 
L 259.078988 283.960498 
L 259.132556 271.287876 
L 259.520518 172.869653 
L 259.677975 165.208997 
L 259.707194 165.509619 
L 259.786735 169.515049 
L 259.926336 190.204473 
L 260.163334 266.395661 
L 260.225018 280.978763 
L 260.278586 268.885314 
L 260.671418 171.29145 
L 260.807773 165.556474 
L 260.845108 166.002469 
L 260.932765 170.97026 
L 261.082106 194.733647 
L 261.369425 283.960508 
L 261.460329 257.401625 
L 261.794723 174.471473 
L 261.96679 165.209056 
L 261.989516 165.374713 
L 262.057693 168.107777 
L 262.185932 184.054113 
L 262.392087 243.537604 
L 262.513833 280.980841 
L 262.569024 268.704088 
L 262.960233 171.384388 
L 263.098211 165.556377 
L 263.133923 165.97595 
L 263.219956 170.726132 
L 263.367674 193.735982 
L 263.627398 278.395296 
L 263.659863 283.956805 
L 263.711808 271.489755 
L 264.101393 172.768314 
L 264.257228 165.208927 
L 264.28807 165.53151 
L 264.36761 169.60198 
L 264.507212 190.434923 
L 264.747456 267.927942 
L 264.804271 280.981575 
L 264.859462 268.522397 
L 265.249047 171.478143 
L 265.388649 165.556458 
L 265.424361 165.988548 
L 265.510394 170.772822 
L 265.658112 193.855709 
L 265.919459 279.02584 
L 265.948678 283.96032 
L 266.002246 271.304196 
L 266.390208 172.874121 
L 266.547665 165.208983 
L 266.576884 165.508675 
L 266.656425 169.511252 
L 266.796026 190.194376 
L 267.033024 266.379055 
L 267.094708 280.97913 
L 267.148276 268.901213 
L 267.541108 171.295344 
L 267.677463 165.556491 
L 267.714799 166.001336 
L 267.802455 170.966065 
L 267.951796 194.722941 
L 268.239116 283.960656 
L 268.330019 257.418765 
L 268.664413 174.47643 
L 268.83648 165.209076 
L 268.859206 165.374016 
L 268.927383 168.104711 
L 269.055622 184.045471 
L 269.261777 243.520443 
L 269.383523 280.980624 
L 269.438714 268.720028 
L 269.829923 171.388316 
L 269.967901 165.556378 
L 270.003613 165.974852 
L 270.089647 170.722041 
L 270.237364 193.725477 
L 270.495465 277.890809 
L 270.529553 283.957279 
L 270.583121 270.931933 
L 270.96946 172.929565 
L 271.126918 165.208931 
L 271.156137 165.497115 
L 271.234054 169.332887 
L 271.372032 189.367296 
L 271.60416 263.212136 
L 271.673961 280.981638 
L 271.729152 268.538378 
L 272.118737 171.482106 
L 272.258339 165.556444 
L 272.294051 165.987433 
L 272.380084 170.768711 
L 272.527802 193.845179 
L 272.789149 279.012527 
L 272.818368 283.960113 
L 272.871936 271.320514 
L 273.259898 172.878591 
L 273.417356 165.208971 
L 273.446575 165.507733 
L 273.524492 169.375228 
L 273.66247 189.480262 
L 273.894598 263.405851 
L 273.964399 280.979472 
L 274.017967 268.917108 
L 274.410799 171.29924 
L 274.547153 165.556509 
L 274.584489 166.000205 
L 274.672145 170.961871 
L 274.821487 194.712237 
L 275.108806 283.960775 
L 275.199709 257.435905 
L 275.534103 174.481389 
L 275.70617 165.209097 
L 275.728896 165.37332 
L 275.797073 168.101647 
L 275.925312 184.036831 
L 276.131468 243.503282 
L 276.253213 280.980383 
L 276.308404 268.735964 
L 276.699613 171.392246 
L 276.837591 165.556381 
L 276.873303 165.973756 
L 276.959337 170.717952 
L 277.107055 193.714974 
L 277.365155 277.876682 
L 277.399244 283.957725 
L 277.452812 270.948316 
L 277.839151 172.934052 
L 277.996608 165.208936 
L 278.025827 165.496192 
L 278.103744 169.329179 
L 278.241722 189.357385 
L 278.47385 263.195107 
L 278.543651 280.981677 
L 278.598842 268.554354 
L 278.988428 171.486071 
L 279.128029 165.556431 
L 279.163741 165.98632 
L 279.249775 170.764602 
L 279.397492 193.834652 
L 279.658839 278.999202 
L 279.688058 283.959877 
L 279.741626 271.336829 
L 280.129588 172.883062 
L 280.287046 165.20896 
L 280.316265 165.506792 
L 280.394182 169.371498 
L 280.53216 189.470326 
L 280.764288 263.388842 
L 280.834089 280.97979 
L 280.887657 268.932999 
L 281.280489 171.303137 
L 281.416844 165.556529 
L 281.454179 165.999075 
L 281.541836 170.95768 
L 281.691177 194.701536 
L 281.978496 283.960866 
L 282.069399 257.453046 
L 282.403793 174.48635 
L 282.57586 165.20912 
L 282.598586 165.372626 
L 282.666764 168.098585 
L 282.795002 184.028193 
L 283.001158 243.486123 
L 283.122903 280.980118 
L 283.178095 268.751897 
L 283.569303 171.396178 
L 283.707281 165.556385 
L 283.742993 165.972661 
L 283.829027 170.713864 
L 283.976745 193.704473 
L 284.234845 277.862547 
L 284.268934 283.958141 
L 284.322502 270.964697 
L 284.708841 172.93854 
L 284.866298 165.208943 
L 284.895517 165.49527 
L 284.973434 169.325472 
L 285.111412 189.347477 
L 285.34354 263.178076 
L 285.413341 280.98169 
L 285.468532 268.570328 
L 285.858118 171.490037 
L 285.997719 165.556419 
L 286.033431 165.985209 
L 286.119465 170.760494 
L 286.267183 193.824127 
L 286.528529 278.985867 
L 286.557748 283.959613 
L 286.611316 271.35314 
L 286.999279 172.887534 
L 287.156736 165.208951 
L 287.185955 165.505853 
L 287.263872 169.367771 
L 287.40185 189.460392 
L 287.633978 263.371831 
L 287.703779 280.980083 
L 287.757347 268.948887 
L 288.150179 171.307035 
L 288.286534 165.55655 
L 288.323869 165.997947 
L 288.411526 170.95349 
L 288.560867 194.690836 
L 288.848186 283.960928 
L 288.939089 257.470187 
L 289.273484 174.491311 
L 289.447174 165.209143 
L 289.468276 165.371934 
L 289.536454 168.095525 
L 289.664692 184.019558 
L 289.870848 243.468964 
L 289.992593 280.979827 
L 290.047785 268.767826 
L 290.438993 171.400111 
L 290.576972 165.556391 
L 290.612684 165.971568 
L 290.698717 170.709779 
L 290.846435 193.693974 
L 291.104535 277.848402 
L 291.138624 283.95853 
L 291.192192 270.981075 
L 291.578531 172.94303 
L 291.735988 165.208951 
L 291.765207 165.49435 
L 291.843124 169.321767 
L 291.981103 189.337571 
L 292.213231 263.161043 
L 292.283031 280.98168 
L 292.338223 268.586298 
L 292.729431 171.355429 
L 292.867409 165.556409 
L 292.903121 165.984099 
L 292.989155 170.756389 
L 293.136873 193.813604 
L 293.396596 278.496803 
L 293.427439 283.959319 
L 293.481007 271.369449 
L 293.868969 172.892008 
L 294.026426 165.208942 
L 294.055645 165.504915 
L 294.133562 169.364045 
L 294.27154 189.45046 
L 294.503668 263.354818 
L 294.573469 280.980352 
L 294.627037 268.964771 
L 295.019869 171.310935 
L 295.156224 165.556572 
L 295.193559 165.996821 
L 295.281216 170.949302 
L 295.430557 194.680139 
L 295.717876 283.960961 
L 295.80878 257.487328 
L 296.143174 174.496275 
L 296.316864 165.209119 
L 296.337967 165.371242 
L 296.406144 168.092466 
L 296.534383 184.010924 
L 296.740538 243.451806 
L 296.862284 280.979513 
L 296.917475 268.783752 
L 297.310307 171.266628 
L 297.446662 165.556398 
L 297.483997 166.009733 
L 297.571654 170.997077 
L 297.720995 194.802028 
L 298.008314 283.958889 
L 298.099217 257.292231 
L 298.433612 174.439867 
L 298.605679 165.208961 
L 298.628404 165.379197 
L 298.698205 168.236627 
L 298.828067 184.723345 
L 299.037469 246.068937 
L 299.152721 280.981644 
L 299.207913 268.602264 
L 299.599121 171.359347 
L 299.7371 165.556401 
L 299.772812 165.982991 
L 299.858845 170.752285 
L 300.006563 193.803083 
L 300.266287 278.483085 
L 300.297129 283.958998 
L 300.350697 271.385754 
L 300.740282 172.740032 
L 300.896116 165.208936 
L 300.926959 165.537789 
L 301.008122 169.763014 
L 301.149347 191.219599 
L 301.396084 271.376734 
L 301.443159 280.980596 
L 301.496727 268.980651 
L 301.889559 171.314837 
L 302.027537 165.556582 
L 302.063249 165.995695 
L 302.150906 170.945116 
L 302.300247 194.669444 
L 302.587567 283.960966 
L 302.67847 257.504469 
L 303.012864 174.501239 
L 303.186554 165.209096 
L 303.207657 165.370553 
L 303.275834 168.08941 
L 303.404073 184.002293 
L 303.610228 243.43465 
L 303.731974 280.979173 
L 303.787165 268.799674 
L 304.179997 171.270513 
L 304.316352 165.556406 
L 304.353687 166.008591 
L 304.441344 170.992871 
L 304.590685 194.791309 
L 304.878004 283.95922 
L 304.968908 257.30937 
L 305.303302 174.444815 
L 305.475369 165.208972 
L 305.498095 165.378491 
L 305.567895 168.233489 
L 305.697757 184.714534 
L 305.907159 246.051657 
L 306.022412 280.981585 
L 306.077603 268.618227 
L 306.468812 171.363266 
L 306.60679 165.556393 
L 306.642502 165.981883 
L 306.728535 170.748182 
L 306.876253 193.792564 
L 307.135977 278.469357 
L 307.166819 283.958647 
L 307.220387 271.402057 
L 307.609972 172.744459 
L 307.765807 165.208931 
L 307.796649 165.536801 
L 307.877812 169.759099 
L 308.019037 191.209282 
L 308.265775 271.361375 
L 308.312849 280.980815 
L 308.366417 268.996528 
L 308.760873 171.182426 
L 308.897228 165.556559 
L 308.93294 165.994571 
L 309.020596 170.940931 
L 309.169937 194.658751 
L 309.457257 283.960942 
L 309.54816 257.52161 
L 309.882554 174.506206 
L 310.056244 165.209075 
L 310.077347 165.369865 
L 310.145524 168.086355 
L 310.273763 183.993664 
L 310.479919 243.417494 
L 310.601664 280.97881 
L 310.656855 268.815593 
L 311.049687 171.2744 
L 311.186042 165.556415 
L 311.223377 166.00745 
L 311.311034 170.988666 
L 311.460375 194.780592 
L 311.747695 283.959522 
L 311.838598 257.326509 
L 312.172992 174.449764 
L 312.345059 165.208984 
L 312.367785 165.377786 
L 312.437585 168.230353 
L 312.567447 184.705725 
L 312.776849 246.034378 
L 312.892102 280.9815 
L 312.947293 268.634186 
L 313.338502 171.367187 
L 313.47648 165.556387 
L 313.512192 165.980778 
L 313.598225 170.744082 
L 313.745943 193.782047 
L 314.005667 278.455619 
L 314.036509 283.958268 
L 314.090077 271.418356 
L 314.479663 172.748888 
L 314.635497 165.208927 
L 314.666339 165.535815 
L 314.745879 169.618824 
L 314.885481 190.47942 
L 315.125725 267.999413 
L 315.18254 280.98101 
L 315.237731 268.45232 
L 315.627316 171.460792 
L 315.766918 165.556537 
L 315.80263 165.993449 
L 315.888663 170.79086 
L 316.036381 193.90188 
L 316.299351 279.543199 
L 316.326947 283.960889 
L 316.378892 271.804807 
L 316.7701 172.698559 
L 316.925935 165.209055 
L 316.955153 165.512822 
L 317.034694 169.527906 
L 317.174295 190.238642 
L 317.412916 267.033325 
L 317.471354 280.978421 
L 317.526545 268.831508 
L 317.919377 171.278288 
L 318.055732 165.556426 
L 318.093068 166.006311 
L 318.180724 170.984463 
L 318.330065 194.769876 
L 318.617385 283.959795 
L 318.708288 257.343648 
L 319.042682 174.454715 
L 319.214749 165.208998 
L 319.237475 165.377082 
L 319.307276 168.227218 
L 319.437137 184.696918 
L 319.64654 246.0171 
L 319.761792 280.981391 
L 319.816983 268.650142 
L 320.208192 171.37111 
L 320.34617 165.556382 
L 320.381882 165.979674 
L 320.467916 170.739983 
L 320.615633 193.771533 
L 320.875357 278.441871 
L 320.906199 283.957861 
L 320.959767 271.434653 
L 321.349353 172.753318 
L 321.505187 165.208924 
L 321.536029 165.53483 
L 321.615569 169.614978 
L 321.755171 190.469264 
L 321.995415 267.983111 
L 322.05223 280.981181 
L 322.107421 268.468316 
L 322.497007 171.464749 
L 322.636608 165.556517 
L 322.67232 165.992328 
L 322.758353 170.786741 
L 322.906071 193.891341 
L 323.169041 279.530333 
L 323.196637 283.960808 
L 323.248582 271.821029 
L 323.639791 172.702974 
L 323.795625 165.209036 
L 323.824844 165.511873 
L 323.904384 169.524103 
L 324.043985 190.228538 
L 324.282607 267.016831 
L 324.341044 280.978008 
L 324.396236 268.847419 
L 324.789068 171.282177 
L 324.925423 165.556439 
L 324.962758 166.005174 
L 325.050415 170.980262 
L 325.199756 194.759163 
L 325.487075 283.96004 
L 325.577978 257.360787 
L 325.912372 174.459667 
L 326.084439 165.209013 
L 326.107165 165.37638 
L 326.176966 168.224086 
L 326.306828 184.688114 
L 326.51623 245.999823 
L 326.631482 280.981258 
L 326.686673 268.666094 
L 327.077882 171.375033 
L 327.21586 165.556379 
L 327.251572 165.978571 
L 327.337606 170.735886 
L 327.485324 193.76102 
L 327.745047 278.428114 
L 327.775889 283.957424 
L 327.829457 271.450946 
L 328.219043 172.757749 
L 328.374877 165.208924 
L 328.405719 165.533847 
L 328.48526 169.611133 
L 328.624861 190.459109 
L 328.865105 267.966805 
L 328.92192 280.981327 
L 328.977111 268.484308 
L 329.366697 171.468707 
L 329.506298 165.556498 
L 329.54201 165.991209 
L 329.628044 170.782624 
L 329.775761 193.880805 
L 330.038732 279.517455 
L 330.066327 283.960697 
L 330.118272 271.837248 
L 330.511104 172.553023 
L 330.665315 165.209019 
L 330.696157 165.545128 
L 330.777321 169.791972 
L 330.918545 191.295837 
L 331.166906 272.024707 
L 331.212358 280.978216 
L 331.265926 268.863326 
L 331.658758 171.286068 
L 331.795113 165.556452 
L 331.832448 166.004037 
L 331.920105 170.976063 
L 332.069446 194.748452 
L 332.356765 283.960257 
L 332.447668 257.377927 
L 332.782063 174.464621 
L 332.954129 165.20903 
L 332.976855 165.375679 
L 333.046656 168.220955 
L 333.176518 184.679311 
L 333.38592 245.982546 
L 333.501172 280.9811 
L 333.556364 268.682043 
L 333.947572 171.378958 
L 334.085551 165.556377 
L 334.121263 165.97747 
L 334.207296 170.731791 
L 334.355014 193.75051 
L 334.614737 278.414347 
L 334.64558 283.956959 
L 334.699148 271.467237 
L 335.088733 172.762182 
L 335.244567 165.208924 
L 335.275409 165.532865 
L 335.35495 169.60729 
L 335.494551 190.448957 
L 335.734796 267.950496 
L 335.79161 280.981448 
L 335.846801 268.500297 
L 336.236387 171.472666 
L 336.375988 165.55648 
L 336.4117 165.990091 
L 336.497734 170.778509 
L 336.645452 193.87027 
L 336.906799 279.04423 
L 336.936017 283.960559 
L 336.989585 271.281631 
L 337.377548 172.867944 
L 337.535005 165.209003 
L 337.564224 165.50998 
L 337.643764 169.516502 
L 337.783366 190.208336 
L 338.020364 266.402014 
L 338.082048 280.978616 
L 338.135616 268.87923 
L 338.528448 171.28996 
L 338.664803 165.556468 
L 338.702138 166.002903 
L 338.789795 170.971865 
L 338.939136 194.737744 
L 339.226455 283.960444 
L 339.317359 257.395067 
L 339.651753 174.469577 
L 339.82382 165.209048 
L 339.846545 165.37498 
L 339.914723 168.10895 
L 340.042961 184.05742 
L 340.249117 243.54417 
L 340.370863 280.980917 
L 340.426054 268.697988 
L 340.817263 171.382885 
L 340.955241 165.556377 
L 340.990953 165.97637 
L 341.076986 170.727698 
L 341.224704 193.740002 
L 341.484428 278.40057 
L 341.516893 283.956616 
L 341.568838 271.483524 
L 341.958423 172.766617 
L 342.114257 165.208926 
L 342.1451 165.531885 
L 342.22464 169.603449 
L 342.364241 190.438806 
L 342.604486 267.934184 
L 342.6613 280.981545 
L 342.716492 268.516282 
L 343.106077 171.476628 
L 343.245679 165.556464 
L 343.281391 165.988975 
L 343.367424 170.774396 
L 343.515142 193.859738 
L 343.776489 279.030931 
L 343.805708 283.960391 
L 343.859276 271.297952 
L 344.247238 172.872412 
L 344.404695 165.208989 
L 344.433914 165.509036 
L 344.513455 169.512705 
L 344.653056 190.198239 
L 344.890054 266.385409 
L 344.951738 280.978992 
L 345.005306 268.89513 
L 345.398138 171.293854 
L 345.534493 165.556484 
L 345.571828 166.00177 
L 345.659485 170.967669 
L 345.808826 194.727037 
L 346.096145 283.960603 
L 346.187049 257.412207 
L 346.521443 174.474533 
L 346.69351 165.209068 
L 346.716236 165.374282 
L 346.784413 168.105884 
L 346.912652 184.048777 
L 347.118807 243.527009 
L 347.240553 280.98071 
L 347.295744 268.713929 
L 347.686953 171.386813 
L 347.824931 165.556378 
L 347.860643 165.975272 
L 347.946676 170.723606 
L 348.094394 193.729496 
L 348.352495 277.896211 
L 348.386583 283.957101 
L 348.440151 270.925663 
L 348.82649 172.927848 
L 348.983948 165.208929 
L 349.013167 165.497469 
L 349.091084 169.334306 
L 349.229062 189.371088 
L 349.46119 263.218651 
L 349.530991 280.981617 
L 349.586182 268.532264 
L 349.975767 171.48059 
L 350.115369 165.556449 
L 350.151081 165.98786 
L 350.237114 170.770284 
L 350.384832 193.849208 
L 350.646179 279.017622 
L 350.675398 283.960195 
L 350.728966 271.314271 
L 351.116928 172.876881 
L 351.274385 165.208976 
L 351.303604 165.508093 
L 351.383145 169.508909 
L 351.522746 190.188144 
L 351.759744 266.368801 
L 351.821428 280.979344 
L 351.874996 268.911027 
L 352.267828 171.297749 
L 352.404183 165.556502 
L 352.441519 166.000638 
L 352.529175 170.963475 
L 352.678516 194.716332 
L 352.965836 283.960733 
L 353.056739 257.429347 
L 353.391133 174.479492 
L 353.5632 165.209089 
L 353.585926 165.373586 
L 353.654103 168.102819 
L 353.782342 184.040137 
L 353.988497 243.509848 
L 354.110243 280.980478 
L 354.165434 268.729867 
L 354.556643 171.390742 
L 354.694621 165.55638 
L 354.730333 165.974175 
L 354.816367 170.719516 
L 354.964084 193.718992 
L 355.222185 277.882088 
L 355.256273 283.957558 
L 355.309841 270.942048 
L 355.69618 172.932335 
L 355.853638 165.208934 
L 355.882857 165.496545 
L 355.960774 169.330597 
L 356.098752 189.361177 
L 356.33088 263.201623 
L 356.400681 280.981665 
L 356.455872 268.548242 
L 356.845457 171.484554 
L 356.985059 165.556436 
L 357.020771 165.986746 
L 357.106804 170.766174 
L 357.254522 193.838679 
L 357.515869 279.004302 
L 357.545088 283.95997 
L 357.598656 271.330587 
L 357.986618 172.881351 
L 358.144076 165.208964 
L 358.173295 165.507152 
L 358.251212 169.372925 
L 358.38919 189.474127 
L 358.621318 263.39535 
L 358.691119 280.979671 
L 358.744687 268.92692 
L 359.137519 171.301645 
L 359.273873 165.556521 
L 359.311209 165.999508 
L 359.398865 170.959283 
L 359.548207 194.70563 
L 359.835526 283.960835 
L 359.926429 257.446488 
L 360.260823 174.484451 
L 360.43289 165.209111 
L 360.455616 165.372892 
L 360.523793 168.099757 
L 360.652032 184.031498 
L 360.858188 243.492688 
L 360.979933 280.980222 
L 361.035124 268.745801 
L 361.426333 171.394673 
L 361.564311 165.556383 
L 361.600023 165.97308 
L 361.686057 170.715428 
L 361.833775 193.708491 
L 362.091875 277.867956 
L 362.125964 283.957985 
L 362.179532 270.95843 
L 362.565871 172.936823 
L 362.723328 165.20894 
L 362.752547 165.495623 
L 362.830464 169.32689 
L 362.968442 189.351268 
L 363.20057 263.184592 
L 363.270371 280.981688 
L 363.325562 268.564217 
L 363.715148 171.488519 
L 363.854749 165.556424 
L 363.890461 165.985634 
L 363.976495 170.762066 
L 364.124212 193.828153 
L 364.385559 278.990971 
L 364.414778 283.959717 
L 364.468346 271.3469 
L 364.856308 172.885823 
L 365.013766 165.208954 
L 365.042985 165.506212 
L 365.120902 169.369197 
L 365.25888 189.464193 
L 365.491008 263.37834 
L 365.560809 280.979974 
L 365.614377 268.942809 
L 366.007209 171.305543 
L 366.143564 165.556542 
L 366.180899 165.998379 
L 366.268556 170.955093 
L 366.417897 194.69493 
L 366.705216 283.960908 
L 366.796119 257.463628 
L 367.130513 174.489413 
L 367.30258 165.209135 
L 367.325306 165.372198 
L 367.393484 168.096696 
L 367.521722 184.022862 
L 367.727878 243.475529 
L 367.849623 280.979941 
L 367.904815 268.761732 
L 368.296023 171.398606 
L 368.434001 165.556388 
L 368.469713 165.971986 
L 368.555747 170.711342 
L 368.703465 193.697991 
L 368.961565 277.853815 
L 368.995654 283.958384 
L 369.049222 270.974809 
L 369.435561 172.941312 
L 369.593018 165.208948 
L 369.622237 165.494702 
L 369.700154 169.323184 
L 369.838132 189.341361 
L 370.07026 263.16756 
L 370.140061 280.981687 
L 370.195252 268.580188 
L 370.586461 171.353931 
L 370.724439 165.556413 
L 370.760151 165.984524 
L 370.846185 170.757959 
L 370.993903 193.81763 
L 371.255249 278.977629 
L 371.284468 283.959435 
L 371.338036 271.363209 
L 371.725999 172.890296 
L 371.883456 165.208945 
L 371.912675 165.505274 
L 371.990592 169.365471 
L 372.12857 189.45426 
L 372.360698 263.361328 
L 372.430499 280.980252 
L 372.484067 268.958694 
L 372.876899 171.309443 
L 373.013254 165.556564 
L 373.050589 165.997251 
L 373.138246 170.950904 
L 373.287587 194.684232 
L 373.574906 283.960952 
L 373.665809 257.480769 
L 374.000204 174.494375 
L 374.173894 165.209128 
L 374.194996 165.371507 
L 374.263174 168.093636 
L 374.391412 184.014227 
L 374.597568 243.458371 
L 374.719313 280.979636 
L 374.774505 268.777659 
L 375.165713 171.40254 
L 375.303692 165.556395 
L 375.339404 165.970894 
L 375.425437 170.707257 
L 375.573155 193.687494 
L 375.831255 277.839665 
L 375.865344 283.958755 
L 375.918912 270.991185 
L 376.305251 172.945802 
L 376.462708 165.208957 
L 376.491927 165.493782 
L 376.569844 169.31948 
L 376.707823 189.331456 
L 376.939951 263.150526 
L 377.009751 280.981661 
L 377.064943 268.596156 
L 377.456151 171.357848 
L 377.594129 165.556404 
L 377.629841 165.983414 
L 377.715875 170.753855 
L 377.863593 193.807108 
L 378.123316 278.488335 
L 378.154159 283.959124 
L 378.207727 271.379516 
L 378.597312 172.738338 
L 378.753146 165.208938 
L 378.782365 165.504337 
L 378.860282 169.361746 
L 378.99826 189.44433 
L 379.230388 263.344314 
L 379.300189 280.980505 
L 379.353757 268.974576 
L 379.746589 171.313344 
L 379.884567 165.556591 
L 379.920279 165.996126 
L 380.007936 170.946717 
L 380.157277 194.673536 
L 380.444596 283.960967 
L 380.5355 257.49791 
L 380.869894 174.49934 
L 381.043584 165.209105 
L 381.064687 165.370816 
L 381.132864 168.090579 
L 381.261103 184.005595 
L 381.467258 243.441214 
L 381.589004 280.979306 
L 381.644195 268.793583 
L 382.037027 171.269027 
L 382.173382 165.556402 
L 382.210717 166.009028 
L 382.298374 170.99448 
L 382.447715 194.79541 
L 382.735034 283.959097 
L 382.825937 257.302812 
L 383.160332 174.442921 
L 383.332399 165.208967 
L 383.355124 165.378761 
L 383.424925 168.234689 
L 383.554787 184.717905 
L 383.764189 246.058269 
L 383.879441 280.98161 
L 383.934633 268.61212 
L 384.325841 171.361767 
L 384.46382 165.556396 
L 384.499532 165.982307 
L 384.585565 170.749752 
L 384.733283 193.796588 
L 384.993007 278.474611 
L 385.023849 283.958785 
L 385.077417 271.39582 
L 385.467002 172.742765 
L 385.622836 165.208932 
L 385.653679 165.537179 
L 385.734842 169.760597 
L 385.876067 191.213229 
L 386.122804 271.367252 
L 386.169879 280.980734 
L 386.223447 268.990454 
L 386.617903 171.180952 
L 386.754257 165.556567 
L 386.789969 165.995001 
L 386.877626 170.942532 
L 387.026967 194.662842 
L 387.314287 283.960954 
L 387.40519 257.515052 
L 387.739584 174.504305 
L 387.913274 165.209083 
L 387.934377 165.370128 
L 388.002554 168.087523 
L 388.130793 183.996966 
L 388.336948 243.424058 
L 388.458694 280.978952 
L 388.513885 268.809502 
L 388.906717 171.272913 
L 389.043072 165.556412 
L 389.080407 166.007886 
L 389.168064 170.990275 
L 389.317405 194.784692 
L 389.604724 283.95941 
L 389.695628 257.319951 
L 390.030022 174.44787 
L 390.202089 165.208979 
L 390.224815 165.378055 
L 390.294615 168.231553 
L 390.424477 184.709095 
L 390.633879 246.040989 
L 390.749132 280.981535 
L 390.804323 268.62808 
L 391.195532 171.365687 
L 391.33351 165.556389 
L 391.369222 165.981201 
L 391.455255 170.745651 
L 391.602973 193.786071 
L 391.862697 278.460877 
L 391.893539 283.958417 
L 391.947107 271.41212 
L 392.336692 172.747193 
L 392.492527 165.208928 
L 392.523369 165.536192 
L 392.602909 169.620296 
L 392.742511 190.483307 
L 392.982755 268.005649 
L 393.039569 280.980938 
L 393.094761 268.446199 
L 393.484346 171.459279 
L 393.623948 165.556545 
L 393.65966 165.993878 
L 393.745693 170.792437 
L 393.893411 193.905913 
L 394.156381 279.548119 
L 394.183977 283.960912 
L 394.235921 271.798599 
L 394.62713 172.696871 
L 394.782964 165.209062 
L 394.812183 165.513185 
L 394.891724 169.529361 
L 395.031325 190.242508 
L 395.269946 267.039635 
L 395.328384 280.978573 
L 395.383575 268.825419 
L 395.776407 171.2768 
L 395.912762 165.556422 
L 395.950097 166.006747 
L 396.037754 170.986071 
L 396.187095 194.773976 
L 396.474415 283.959694 
L 396.565318 257.33709 
L 396.899712 174.45282 
L 397.071779 165.208993 
L 397.094505 165.377351 
L 397.164305 168.228417 
L 397.294167 184.700288 
L 397.503569 246.023711 
L 397.618822 280.981436 
L 397.674013 268.644037 
L 398.065222 171.369609 
L 398.2032 165.556384 
L 398.238912 165.980096 
L 398.324945 170.741551 
L 398.472663 193.775556 
L 398.487273 197.208203 
L 398.487273 197.208203 
" style="fill:none;stroke:#1f77b4;stroke-linecap:square;stroke-width:1.5;"/>
   </g>
   <g id="patch_3">
    <path d="M 57.6 307.584 
L 57.6 41.472 
" style="fill:none;stroke:#000000;stroke-linecap:square;stroke-linejoin:miter;stroke-width:0.8;"/>
   </g>
   <g id="patch_4">
    <path d="M 414.72 307.584 
L 414.72 41.472 
" style="fill:none;stroke:#000000;stroke-linecap:square;stroke-linejoin:miter;stroke-width:0.8;"/>
   </g>
   <g id="patch_5">
    <path d="M 57.6 307.584 
L 414.72 307.584 
" style="fill:none;stroke:#000000;stroke-linecap:square;stroke-linejoin:miter;stroke-width:0.8;"/>
   </g>
   <g id="patch_6">
    <path d="M 57.6 41.472 
L 414.72 41.472 
" style="fill:none;stroke:#000000;stroke-linecap:square;stroke-linejoin:miter;stroke-width:0.8;"/>
   </g>
  </g>
 </g>
 <defs>
  <clipPath id="p364b0837b1">
   <rect height="266.112" width="357.12" x="57.6" y="41.472"/>
  </clipPath>
 </defs>
</svg>
