<?xml version="1.0" encoding="utf-8" standalone="no"?>
<!DOCTYPE svg PUBLIC "-//W3C//DTD SVG 1.1//EN"
  "http://www.w3.org/Graphics/SVG/1.1/DTD/svg11.dtd">
<!-- Created with matplotlib (https://matplotlib.org/) -->
<svg height="345.6pt" version="1.1" viewBox="0 0 460.8 345.6" width="460.8pt" xmlns="http://www.w3.org/2000/svg" xmlns:xlink="http://www.w3.org/1999/xlink">
 <metadata>
  <rdf:RDF xmlns:cc="http://creativecommons.org/ns#" xmlns:dc="http://purl.org/dc/elements/1.1/" xmlns:rdf="http://www.w3.org/1999/02/22-rdf-syntax-ns#">
   <cc:Work>
    <dc:type rdf:resource="http://purl.org/dc/dcmitype/StillImage"/>
    <dc:date>2020-07-28T17:23:54.355513</dc:date>
    <dc:format>image/svg+xml</dc:format>
    <dc:creator>
     <cc:Agent>
      <dc:title>Matplotlib v3.3.0, https://matplotlib.org/</dc:title>
     </cc:Agent>
    </dc:creator>
   </cc:Work>
  </rdf:RDF>
 </metadata>
 <defs>
  <style type="text/css">*{stroke-linecap:butt;stroke-linejoin:round;}</style>
 </defs>
 <g id="figure_1">
  <g id="patch_1">
   <path d="M 0 345.6 
L 460.8 345.6 
L 460.8 0 
L 0 0 
z
" style="fill:#ffffff;"/>
  </g>
  <g id="axes_1">
   <g id="patch_2">
    <path d="M 57.6 307.584 
L 414.72 307.584 
L 414.72 41.472 
L 57.6 41.472 
z
" style="fill:#ffffff;"/>
   </g>
   <g id="matplotlib.axis_1">
    <g id="xtick_1">
     <g id="line2d_1">
      <defs>
       <path d="M 0 0 
L 0 3.5 
" id="m211e54fc3d" style="stroke:#000000;stroke-width:0.8;"/>
      </defs>
      <g>
       <use style="stroke:#000000;stroke-width:0.8;" x="73.832727" xlink:href="#m211e54fc3d" y="307.584"/>
      </g>
     </g>
     <g id="text_1">
      <!-- $\mathdefault{0}$ -->
      <g transform="translate(71.34206 321.502498)scale(0.1 -0.1)">
       <defs>
        <path d="M 42 31.640625 
C 42 37.75 41.90625 48.125 37.703125 56.109375 
C 34 63.109375 28.09375 65.59375 22.90625 65.59375 
C 18.09375 65.59375 12 63.40625 8.203125 56.203125 
C 4.203125 48.71875 3.796875 39.4375 3.796875 31.640625 
C 3.796875 25.953125 3.90625 17.28125 7 9.671875 
C 11.296875 -0.609375 19 -2 22.90625 -2 
C 27.5 -2 34.5 -0.109375 38.59375 9.375 
C 41.59375 16.28125 42 24.359375 42 31.640625 
z
M 22.90625 -0.40625 
C 16.5 -0.40625 12.703125 5.078125 11.296875 12.6875 
C 10.203125 18.5625 10.203125 27.15625 10.203125 32.75 
C 10.203125 40.4375 10.203125 46.828125 11.5 52.921875 
C 13.40625 61.390625 19 64 22.90625 64 
C 27 64 32.296875 61.296875 34.203125 53.125 
C 35.5 47.4375 35.59375 40.734375 35.59375 32.75 
C 35.59375 26.25 35.59375 18.265625 34.40625 12.375 
C 32.296875 1.484375 26.40625 -0.40625 22.90625 -0.40625 
z
" id="CMR17-48"/>
       </defs>
       <use transform="scale(0.996264)" xlink:href="#CMR17-48"/>
      </g>
     </g>
    </g>
    <g id="xtick_2">
     <g id="line2d_2">
      <g>
       <use style="stroke:#000000;stroke-width:0.8;" x="114.414545" xlink:href="#m211e54fc3d" y="307.584"/>
      </g>
     </g>
     <g id="text_2">
      <!-- $\mathdefault{25000}$ -->
      <g transform="translate(101.961207 321.502498)scale(0.1 -0.1)">
       <defs>
        <path d="M 41.703125 15.453125 
L 39.90625 15.453125 
C 38.90625 8.375 38.09375 7.171875 37.703125 6.5625 
C 37.203125 5.765625 30 5.765625 28.59375 5.765625 
L 9.40625 5.765625 
C 13 9.671875 20 16.75 28.5 24.953125 
C 34.59375 30.734375 41.703125 37.53125 41.703125 47.421875 
C 41.703125 59.21875 32.296875 66 21.796875 66 
C 10.796875 66 4.09375 56.3125 4.09375 47.34375 
C 4.09375 43.4375 7 42.9375 8.203125 42.9375 
C 9.203125 42.9375 12.203125 43.546875 12.203125 47.03125 
C 12.203125 50.109375 9.59375 51 8.203125 51 
C 7.59375 51 7 50.90625 6.59375 50.703125 
C 8.5 59.21875 14.296875 63.40625 20.40625 63.40625 
C 29.09375 63.40625 34.796875 56.515625 34.796875 47.421875 
C 34.796875 38.734375 29.703125 31.25 24 24.75 
L 4.09375 2.28125 
L 4.09375 0 
L 39.296875 0 
z
" id="CMR17-50"/>
        <path d="M 11.40625 57.6875 
C 12.40625 57.28125 16.5 56 20.703125 56 
C 30 56 35.09375 61.109375 38 64.0625 
C 38 64.953125 38 65.5 37.40625 65.5 
C 37.296875 65.5 37.09375 65.5 36.296875 65.046875 
C 32.796875 63.40625 28.703125 62.078125 23.703125 62.078125 
C 20.703125 62.078125 16.203125 62.484375 11.296875 64.671875 
C 10.203125 65.171875 10 65.171875 9.90625 65.171875 
C 9.40625 65.171875 9.296875 65.0625 9.296875 63.078125 
L 9.296875 34.421875 
C 9.296875 32.640625 9.296875 32.140625 10.296875 32.140625 
C 10.796875 32.140625 11 32.34375 11.5 33.03125 
C 14.703125 37.515625 19.09375 39.40625 24.09375 39.40625 
C 27.59375 39.40625 35.09375 37.21875 35.09375 20.140625 
C 35.09375 16.953125 35.09375 11.171875 32.09375 6.578125 
C 29.59375 2.484375 25.703125 0.390625 21.40625 0.390625 
C 14.796875 0.390625 8.09375 5 6.296875 12.71875 
C 6.703125 12.609375 7.5 12.421875 7.90625 12.421875 
C 9.203125 12.421875 11.703125 13.125 11.703125 16.21875 
C 11.703125 18.90625 9.796875 20 7.90625 20 
C 5.59375 20 4.09375 18.59375 4.09375 15.796875 
C 4.09375 7.09375 11 -2 21.59375 -2 
C 31.90625 -2 41.703125 6.875 41.703125 19.75 
C 41.703125 31.71875 33.90625 41 24.203125 41 
C 19.09375 41 14.796875 39.109375 11.40625 35.53125 
z
" id="CMR17-53"/>
       </defs>
       <use transform="scale(0.996264)" xlink:href="#CMR17-50"/>
       <use transform="translate(45.690477 0)scale(0.996264)" xlink:href="#CMR17-53"/>
       <use transform="translate(91.380954 0)scale(0.996264)" xlink:href="#CMR17-48"/>
       <use transform="translate(137.071431 0)scale(0.996264)" xlink:href="#CMR17-48"/>
       <use transform="translate(182.761908 0)scale(0.996264)" xlink:href="#CMR17-48"/>
      </g>
     </g>
    </g>
    <g id="xtick_3">
     <g id="line2d_3">
      <g>
       <use style="stroke:#000000;stroke-width:0.8;" x="154.996364" xlink:href="#m211e54fc3d" y="307.584"/>
      </g>
     </g>
     <g id="text_3">
      <!-- $\mathdefault{50000}$ -->
      <g transform="translate(142.543026 321.502498)scale(0.1 -0.1)">
       <use transform="scale(0.996264)" xlink:href="#CMR17-53"/>
       <use transform="translate(45.690477 0)scale(0.996264)" xlink:href="#CMR17-48"/>
       <use transform="translate(91.380954 0)scale(0.996264)" xlink:href="#CMR17-48"/>
       <use transform="translate(137.071431 0)scale(0.996264)" xlink:href="#CMR17-48"/>
       <use transform="translate(182.761908 0)scale(0.996264)" xlink:href="#CMR17-48"/>
      </g>
     </g>
    </g>
    <g id="xtick_4">
     <g id="line2d_4">
      <g>
       <use style="stroke:#000000;stroke-width:0.8;" x="195.578182" xlink:href="#m211e54fc3d" y="307.584"/>
      </g>
     </g>
     <g id="text_4">
      <!-- $\mathdefault{75000}$ -->
      <g transform="translate(183.124844 321.502498)scale(0.1 -0.1)">
       <defs>
        <path d="M 45.09375 61.578125 
L 45.09375 63.765625 
L 21.59375 63.765625 
C 9.90625 63.765625 9.703125 65.078125 9.296875 67 
L 7.5 67 
L 4.59375 48.34375 
L 6.40625 48.34375 
C 6.703125 50.234375 7.40625 55.3125 8.59375 57.203125 
C 9.203125 58 16.59375 58 18.296875 58 
L 40.296875 58 
L 29.203125 41.578125 
C 21.796875 30.53125 16.703125 15.609375 16.703125 2.578125 
C 16.703125 1.390625 16.703125 -2 20.296875 -2 
C 23.90625 -2 23.90625 1.390625 23.90625 2.671875 
L 23.90625 7.265625 
C 23.90625 23.5625 26.703125 34.3125 31.296875 41.1875 
z
" id="CMR17-55"/>
       </defs>
       <use transform="scale(0.996264)" xlink:href="#CMR17-55"/>
       <use transform="translate(45.690477 0)scale(0.996264)" xlink:href="#CMR17-53"/>
       <use transform="translate(91.380954 0)scale(0.996264)" xlink:href="#CMR17-48"/>
       <use transform="translate(137.071431 0)scale(0.996264)" xlink:href="#CMR17-48"/>
       <use transform="translate(182.761908 0)scale(0.996264)" xlink:href="#CMR17-48"/>
      </g>
     </g>
    </g>
    <g id="xtick_5">
     <g id="line2d_5">
      <g>
       <use style="stroke:#000000;stroke-width:0.8;" x="236.16" xlink:href="#m211e54fc3d" y="307.584"/>
      </g>
     </g>
     <g id="text_5">
      <!-- $\mathdefault{100000}$ -->
      <g transform="translate(221.215994 321.502498)scale(0.1 -0.1)">
       <defs>
        <path d="M 26.59375 63.40625 
C 26.59375 65.5 26.5 65.5 25.09375 65.5 
C 21.203125 61.1875 15.296875 59.796875 9.703125 59.796875 
C 9.40625 59.796875 8.90625 59.796875 8.796875 59.5 
C 8.703125 59.296875 8.703125 59.09375 8.703125 57 
C 11.796875 57 17 57.59375 21 59.984375 
L 21 7.203125 
C 21 3.6875 20.796875 2.5 12.203125 2.5 
L 9.203125 2.5 
L 9.203125 0 
C 14 0 19 0 23.796875 0 
C 28.59375 0 33.59375 0 38.40625 0 
L 38.40625 2.5 
L 35.40625 2.5 
C 26.796875 2.5 26.59375 3.59375 26.59375 7.15625 
z
" id="CMR17-49"/>
       </defs>
       <use transform="scale(0.996264)" xlink:href="#CMR17-49"/>
       <use transform="translate(45.690477 0)scale(0.996264)" xlink:href="#CMR17-48"/>
       <use transform="translate(91.380954 0)scale(0.996264)" xlink:href="#CMR17-48"/>
       <use transform="translate(137.071431 0)scale(0.996264)" xlink:href="#CMR17-48"/>
       <use transform="translate(182.761908 0)scale(0.996264)" xlink:href="#CMR17-48"/>
       <use transform="translate(228.452386 0)scale(0.996264)" xlink:href="#CMR17-48"/>
      </g>
     </g>
    </g>
    <g id="xtick_6">
     <g id="line2d_6">
      <g>
       <use style="stroke:#000000;stroke-width:0.8;" x="276.741818" xlink:href="#m211e54fc3d" y="307.584"/>
      </g>
     </g>
     <g id="text_6">
      <!-- $\mathdefault{125000}$ -->
      <g transform="translate(261.797812 321.502498)scale(0.1 -0.1)">
       <use transform="scale(0.996264)" xlink:href="#CMR17-49"/>
       <use transform="translate(45.690477 0)scale(0.996264)" xlink:href="#CMR17-50"/>
       <use transform="translate(91.380954 0)scale(0.996264)" xlink:href="#CMR17-53"/>
       <use transform="translate(137.071431 0)scale(0.996264)" xlink:href="#CMR17-48"/>
       <use transform="translate(182.761908 0)scale(0.996264)" xlink:href="#CMR17-48"/>
       <use transform="translate(228.452386 0)scale(0.996264)" xlink:href="#CMR17-48"/>
      </g>
     </g>
    </g>
    <g id="xtick_7">
     <g id="line2d_7">
      <g>
       <use style="stroke:#000000;stroke-width:0.8;" x="317.323636" xlink:href="#m211e54fc3d" y="307.584"/>
      </g>
     </g>
     <g id="text_7">
      <!-- $\mathdefault{150000}$ -->
      <g transform="translate(302.379631 321.502498)scale(0.1 -0.1)">
       <use transform="scale(0.996264)" xlink:href="#CMR17-49"/>
       <use transform="translate(45.690477 0)scale(0.996264)" xlink:href="#CMR17-53"/>
       <use transform="translate(91.380954 0)scale(0.996264)" xlink:href="#CMR17-48"/>
       <use transform="translate(137.071431 0)scale(0.996264)" xlink:href="#CMR17-48"/>
       <use transform="translate(182.761908 0)scale(0.996264)" xlink:href="#CMR17-48"/>
       <use transform="translate(228.452386 0)scale(0.996264)" xlink:href="#CMR17-48"/>
      </g>
     </g>
    </g>
    <g id="xtick_8">
     <g id="line2d_8">
      <g>
       <use style="stroke:#000000;stroke-width:0.8;" x="357.905455" xlink:href="#m211e54fc3d" y="307.584"/>
      </g>
     </g>
     <g id="text_8">
      <!-- $\mathdefault{175000}$ -->
      <g transform="translate(342.961449 321.502498)scale(0.1 -0.1)">
       <use transform="scale(0.996264)" xlink:href="#CMR17-49"/>
       <use transform="translate(45.690477 0)scale(0.996264)" xlink:href="#CMR17-55"/>
       <use transform="translate(91.380954 0)scale(0.996264)" xlink:href="#CMR17-53"/>
       <use transform="translate(137.071431 0)scale(0.996264)" xlink:href="#CMR17-48"/>
       <use transform="translate(182.761908 0)scale(0.996264)" xlink:href="#CMR17-48"/>
       <use transform="translate(228.452386 0)scale(0.996264)" xlink:href="#CMR17-48"/>
      </g>
     </g>
    </g>
    <g id="xtick_9">
     <g id="line2d_9">
      <g>
       <use style="stroke:#000000;stroke-width:0.8;" x="398.487273" xlink:href="#m211e54fc3d" y="307.584"/>
      </g>
     </g>
     <g id="text_9">
      <!-- $\mathdefault{200000}$ -->
      <g transform="translate(383.543267 321.502498)scale(0.1 -0.1)">
       <use transform="scale(0.996264)" xlink:href="#CMR17-50"/>
       <use transform="translate(45.690477 0)scale(0.996264)" xlink:href="#CMR17-48"/>
       <use transform="translate(91.380954 0)scale(0.996264)" xlink:href="#CMR17-48"/>
       <use transform="translate(137.071431 0)scale(0.996264)" xlink:href="#CMR17-48"/>
       <use transform="translate(182.761908 0)scale(0.996264)" xlink:href="#CMR17-48"/>
       <use transform="translate(228.452386 0)scale(0.996264)" xlink:href="#CMR17-48"/>
      </g>
     </g>
    </g>
   </g>
   <g id="matplotlib.axis_2">
    <g id="ytick_1">
     <g id="line2d_10">
      <defs>
       <path d="M 0 0 
L -3.5 0 
" id="mf4c492aa6f" style="stroke:#000000;stroke-width:0.8;"/>
      </defs>
      <g>
       <use style="stroke:#000000;stroke-width:0.8;" x="57.6" xlink:href="#mf4c492aa6f" y="297.087487"/>
      </g>
     </g>
     <g id="text_10">
      <!-- $\mathdefault{0.00}$ -->
      <g transform="translate(32.888586 300.546736)scale(0.1 -0.1)">
       <defs>
        <path d="M 18.40625 4.796875 
C 18.40625 7.6875 16 9.671875 13.59375 9.671875 
C 10.703125 9.671875 8.703125 7.28125 8.703125 4.890625 
C 8.703125 2 11.09375 0 13.5 0 
C 16.40625 0 18.40625 2.390625 18.40625 4.796875 
z
" id="CMMI12-58"/>
       </defs>
       <use transform="scale(0.996264)" xlink:href="#CMR17-48"/>
       <use transform="translate(45.690477 0)scale(0.996264)" xlink:href="#CMMI12-58"/>
       <use transform="translate(72.787654 0)scale(0.996264)" xlink:href="#CMR17-48"/>
       <use transform="translate(118.478131 0)scale(0.996264)" xlink:href="#CMR17-48"/>
      </g>
     </g>
    </g>
    <g id="ytick_2">
     <g id="line2d_11">
      <g>
       <use style="stroke:#000000;stroke-width:0.8;" x="57.6" xlink:href="#mf4c492aa6f" y="263.526333"/>
      </g>
     </g>
     <g id="text_11">
      <!-- $\mathdefault{0.02}$ -->
      <g transform="translate(32.888586 266.985582)scale(0.1 -0.1)">
       <use transform="scale(0.996264)" xlink:href="#CMR17-48"/>
       <use transform="translate(45.690477 0)scale(0.996264)" xlink:href="#CMMI12-58"/>
       <use transform="translate(72.787654 0)scale(0.996264)" xlink:href="#CMR17-48"/>
       <use transform="translate(118.478131 0)scale(0.996264)" xlink:href="#CMR17-50"/>
      </g>
     </g>
    </g>
    <g id="ytick_3">
     <g id="line2d_12">
      <g>
       <use style="stroke:#000000;stroke-width:0.8;" x="57.6" xlink:href="#mf4c492aa6f" y="229.965179"/>
      </g>
     </g>
     <g id="text_12">
      <!-- $\mathdefault{0.04}$ -->
      <g transform="translate(32.888586 233.424428)scale(0.1 -0.1)">
       <defs>
        <path d="M 33.59375 64.40625 
C 33.59375 66.5 33.5 66.5 31.703125 66.5 
L 2 19.59375 
L 2 17 
L 27.796875 17 
L 27.796875 7.140625 
C 27.796875 3.5 27.59375 2.5 20.59375 2.5 
L 18.703125 2.5 
L 18.703125 0 
C 21.90625 0 27.296875 0 30.703125 0 
C 34.09375 0 39.5 0 42.703125 0 
L 42.703125 2.5 
L 40.796875 2.5 
C 33.796875 2.5 33.59375 3.5 33.59375 7.140625 
L 33.59375 17 
L 43.796875 17 
L 43.796875 19.59375 
L 33.59375 19.59375 
z
M 28.09375 57.859375 
L 28.09375 19.59375 
L 4 19.59375 
z
" id="CMR17-52"/>
       </defs>
       <use transform="scale(0.996264)" xlink:href="#CMR17-48"/>
       <use transform="translate(45.690477 0)scale(0.996264)" xlink:href="#CMMI12-58"/>
       <use transform="translate(72.787654 0)scale(0.996264)" xlink:href="#CMR17-48"/>
       <use transform="translate(118.478131 0)scale(0.996264)" xlink:href="#CMR17-52"/>
      </g>
     </g>
    </g>
    <g id="ytick_4">
     <g id="line2d_13">
      <g>
       <use style="stroke:#000000;stroke-width:0.8;" x="57.6" xlink:href="#mf4c492aa6f" y="196.404025"/>
      </g>
     </g>
     <g id="text_13">
      <!-- $\mathdefault{0.06}$ -->
      <g transform="translate(32.888586 199.863274)scale(0.1 -0.1)">
       <defs>
        <path d="M 10.59375 34 
C 10.59375 57.65625 21.796875 63 28.296875 63 
C 30.40625 63 35.5 62.640625 37.5 59 
C 35.90625 59 32.90625 59 32.90625 55.515625 
C 32.90625 52.828125 35.09375 51.921875 36.5 51.921875 
C 37.40625 51.921875 40.09375 52.3125 40.09375 55.625 
C 40.09375 61.78125 35.09375 65.296875 28.203125 65.296875 
C 16.296875 65.296875 3.796875 52.96875 3.796875 31 
C 3.796875 3.953125 15.09375 -2 23.09375 -2 
C 32.796875 -2 42 6.671875 42 20.046875 
C 42 32.515625 33.90625 41.59375 23.703125 41.59375 
C 17.59375 41.59375 13.09375 37.609375 10.59375 30.625 
z
M 23.09375 0.390625 
C 10.796875 0.390625 10.796875 18.75 10.796875 22.4375 
C 10.796875 29.625 14.203125 40 23.5 40 
C 25.203125 40 30.09375 40 33.40625 33.125 
C 35.203125 29.21875 35.203125 25.140625 35.203125 20.140625 
C 35.203125 14.75 35.203125 10.78125 33.09375 6.78125 
C 30.90625 2.671875 27.703125 0.390625 23.09375 0.390625 
z
" id="CMR17-54"/>
       </defs>
       <use transform="scale(0.996264)" xlink:href="#CMR17-48"/>
       <use transform="translate(45.690477 0)scale(0.996264)" xlink:href="#CMMI12-58"/>
       <use transform="translate(72.787654 0)scale(0.996264)" xlink:href="#CMR17-48"/>
       <use transform="translate(118.478131 0)scale(0.996264)" xlink:href="#CMR17-54"/>
      </g>
     </g>
    </g>
    <g id="ytick_5">
     <g id="line2d_14">
      <g>
       <use style="stroke:#000000;stroke-width:0.8;" x="57.6" xlink:href="#mf4c492aa6f" y="162.842871"/>
      </g>
     </g>
     <g id="text_14">
      <!-- $\mathdefault{0.08}$ -->
      <g transform="translate(32.888586 166.30212)scale(0.1 -0.1)">
       <defs>
        <path d="M 27.203125 35.375 
C 33.5 38.546875 39.90625 43.328125 39.90625 50.984375 
C 39.90625 60.015625 31.09375 65.296875 23 65.296875 
C 13.90625 65.296875 5.90625 58.734375 5.90625 49.6875 
C 5.90625 47.203125 6.5 42.921875 10.40625 39.140625 
C 11.40625 38.15625 15.59375 35.171875 18.296875 33.28125 
C 13.796875 30.984375 3.296875 25.53125 3.296875 14.59375 
C 3.296875 4.359375 13.09375 -2 22.796875 -2 
C 33.5 -2 42.5 5.65625 42.5 15.78125 
C 42.5 24.84375 36.40625 29.015625 32.40625 31.703125 
z
M 14.09375 44.09375 
C 13.296875 44.59375 9.296875 47.671875 9.296875 52.359375 
C 9.296875 58.421875 15.59375 63 22.796875 63 
C 30.703125 63 36.5 57.4375 36.5 50.96875 
C 36.5 41.703125 26.09375 36.421875 25.59375 36.421875 
C 25.5 36.421875 25.40625 36.421875 24.59375 37.03125 
z
M 32.5 23.734375 
C 34 22.640625 38.796875 19.375 38.796875 13.296875 
C 38.796875 5.953125 31.40625 0.390625 23 0.390625 
C 13.90625 0.390625 7 6.84375 7 14.6875 
C 7 22.546875 13.09375 29.09375 20 32.1875 
z
" id="CMR17-56"/>
       </defs>
       <use transform="scale(0.996264)" xlink:href="#CMR17-48"/>
       <use transform="translate(45.690477 0)scale(0.996264)" xlink:href="#CMMI12-58"/>
       <use transform="translate(72.787654 0)scale(0.996264)" xlink:href="#CMR17-48"/>
       <use transform="translate(118.478131 0)scale(0.996264)" xlink:href="#CMR17-56"/>
      </g>
     </g>
    </g>
    <g id="ytick_6">
     <g id="line2d_15">
      <g>
       <use style="stroke:#000000;stroke-width:0.8;" x="57.6" xlink:href="#mf4c492aa6f" y="129.281717"/>
      </g>
     </g>
     <g id="text_15">
      <!-- $\mathdefault{0.10}$ -->
      <g transform="translate(32.888586 132.740966)scale(0.1 -0.1)">
       <use transform="scale(0.996264)" xlink:href="#CMR17-48"/>
       <use transform="translate(45.690477 0)scale(0.996264)" xlink:href="#CMMI12-58"/>
       <use transform="translate(72.787654 0)scale(0.996264)" xlink:href="#CMR17-49"/>
       <use transform="translate(118.478131 0)scale(0.996264)" xlink:href="#CMR17-48"/>
      </g>
     </g>
    </g>
    <g id="ytick_7">
     <g id="line2d_16">
      <g>
       <use style="stroke:#000000;stroke-width:0.8;" x="57.6" xlink:href="#mf4c492aa6f" y="95.720562"/>
      </g>
     </g>
     <g id="text_16">
      <!-- $\mathdefault{0.12}$ -->
      <g transform="translate(32.888586 99.179812)scale(0.1 -0.1)">
       <use transform="scale(0.996264)" xlink:href="#CMR17-48"/>
       <use transform="translate(45.690477 0)scale(0.996264)" xlink:href="#CMMI12-58"/>
       <use transform="translate(72.787654 0)scale(0.996264)" xlink:href="#CMR17-49"/>
       <use transform="translate(118.478131 0)scale(0.996264)" xlink:href="#CMR17-50"/>
      </g>
     </g>
    </g>
    <g id="ytick_8">
     <g id="line2d_17">
      <g>
       <use style="stroke:#000000;stroke-width:0.8;" x="57.6" xlink:href="#mf4c492aa6f" y="62.159408"/>
      </g>
     </g>
     <g id="text_17">
      <!-- $\mathdefault{0.14}$ -->
      <g transform="translate(32.888586 65.618658)scale(0.1 -0.1)">
       <use transform="scale(0.996264)" xlink:href="#CMR17-48"/>
       <use transform="translate(45.690477 0)scale(0.996264)" xlink:href="#CMMI12-58"/>
       <use transform="translate(72.787654 0)scale(0.996264)" xlink:href="#CMR17-49"/>
       <use transform="translate(118.478131 0)scale(0.996264)" xlink:href="#CMR17-52"/>
      </g>
     </g>
    </g>
   </g>
   <g id="line2d_18">
    <path clip-path="url(#p5dae6283b5)" d="M 73.832727 120.891428 
L 74.298607 120.995879 
L 74.318086 124.415908 
L 74.366784 165.471295 
L 74.421975 121.238067 
L 74.449571 117.927457 
L 74.495023 127.896104 
L 74.561577 142.639254 
L 74.597289 124.59024 
L 74.618391 119.660272 
L 74.709295 123.021766 
L 74.894348 127.847652 
L 74.904087 127.530504 
L 75.01934 113.556325 
L 75.072908 122.617932 
L 75.115113 124.84477 
L 75.180044 122.305106 
L 75.19303 121.990926 
L 75.227119 123.028979 
L 75.228742 122.981341 
L 75.269324 123.824352 
L 75.322892 122.491048 
L 75.337501 122.883025 
L 75.339124 122.823856 
L 75.408925 124.313412 
L 75.410548 124.227646 
L 75.418665 124.325065 
L 75.493335 122.70875 
L 75.537164 121.573289 
L 75.610211 122.223496 
L 75.692998 124.085076 
L 75.764422 123.196122 
L 75.782278 123.107593 
L 75.845585 123.758661 
L 75.847209 123.733351 
L 75.852079 123.765861 
L 75.928372 123.218986 
L 75.929996 123.250198 
L 76.032262 122.82112 
L 76.051741 122.89667 
L 76.1605 124.455026 
L 76.196212 124.2133 
L 76.26926 123.675497 
L 76.317958 123.717539 
L 76.319581 123.759688 
L 76.408861 123.556831 
L 76.423471 123.601538 
L 76.425094 123.562112 
L 76.514374 124.036797 
L 76.515997 124.016607 
L 76.644236 124.704105 
L 76.645859 124.67216 
L 76.663715 124.718806 
L 76.746502 124.459273 
L 76.748125 124.48852 
L 76.856884 124.440068 
L 76.803316 124.497318 
L 76.860131 124.440578 
L 77.046807 125.818019 
L 77.119855 125.749774 
L 77.066287 125.867762 
L 77.15232 125.846432 
L 77.303284 126.577071 
L 77.304908 126.566822 
L 77.371462 126.829504 
L 77.373085 126.816039 
L 77.76754 130.622287 
L 77.824355 131.223121 
L 78.290234 137.427118 
L 78.478534 139.979397 
L 79.084015 150.679782 
L 80.462173 182.717482 
L 80.89721 196.834525 
L 81.582231 223.330412 
L 82.742871 281.873336 
L 83.007465 295.488 
L 83.062656 293.529937 
L 83.867799 245.586412 
L 85.072268 181.044478 
L 85.999156 145.199781 
L 86.650089 127.95251 
L 87.348096 115.190878 
L 88.021754 107.700291 
L 88.448675 104.861369 
L 88.924294 103.208814 
L 89.153175 103.011002 
L 89.190511 103.040767 
L 89.47296 103.275914 
L 89.73593 104.089092 
L 89.997277 105.311281 
L 90.484259 109.100915 
L 91.157917 117.427912 
L 92.002019 131.253114 
L 93.011695 151.451716 
L 94.117143 178.277495 
L 95.634903 215.240908 
L 96.375116 227.429856 
L 96.941638 232.698081 
L 97.287395 234.275492 
L 97.631529 234.793966 
L 97.633152 234.793247 
L 97.751651 234.759324 
L 97.753274 234.757026 
L 97.87015 234.648136 
L 97.978909 234.451236 
L 98.629841 232.226926 
L 98.964236 230.517322 
L 99.47232 227.321293 
L 100.462516 218.754327 
L 101.653999 204.445693 
L 102.636079 193.044374 
L 103.288634 188.07022 
L 103.778863 186.112949 
L 104.168448 185.559611 
L 104.486609 185.673724 
L 104.976838 186.58434 
L 105.872884 189.673064 
L 107.647121 196.952736 
L 108.182801 199.423606 
L 108.676276 202.27366 
L 109.246045 206.405261 
L 110.661539 217.21507 
L 111.08846 219.096361 
L 111.465059 219.811189 
L 111.718289 219.768151 
L 112.038074 219.151889 
L 112.330263 218.125709 
L 112.783156 215.969579 
L 113.628881 211.927709 
L 114.151575 210.53494 
L 114.567133 210.168558 
L 115.666089 210.038528 
L 116.080023 209.33764 
L 116.398185 208.379797 
L 116.821859 206.594043 
L 118.420783 199.086281 
L 118.797382 198.468207 
L 119.042496 198.494279 
L 119.221056 198.731843 
L 119.462924 199.332813 
L 119.953152 201.350649 
L 121.248524 207.420717 
L 121.605644 208.189915 
L 121.855628 208.372987 
L 122.042304 208.326893 
L 122.397801 207.873725 
L 122.76953 207.066667 
L 123.397737 205.741998 
L 123.75161 205.484125 
L 124.003217 205.660558 
L 124.222359 206.089044 
L 124.621684 207.506319 
L 125.370013 211.519257 
L 126.059904 214.627994 
L 126.368326 215.221476 
L 126.556625 215.262369 
L 126.710836 215.105201 
L 126.991663 214.383027 
L 127.321187 212.891697 
L 128.03705 208.242622 
L 128.759407 204.176619 
L 129.093801 203.318433 
L 129.30158 203.209854 
L 129.457414 203.341579 
L 129.668439 203.789442 
L 129.989847 204.95748 
L 131.442676 210.587406 
L 131.640716 210.632234 
L 131.804666 210.46871 
L 132.085492 209.769584 
L 132.424756 208.291834 
L 133.202304 203.510447 
L 133.801292 200.570528 
L 134.098351 199.980229 
L 134.28665 199.991634 
L 134.489559 200.354772 
L 134.746036 201.31847 
L 135.124259 203.619304 
L 136.43424 212.379105 
L 136.700457 212.754553 
L 136.883887 212.654341 
L 137.099782 212.250887 
L 137.544559 210.811876 
L 137.958493 208.632882 
L 138.323729 205.363739 
L 139.054202 198.573939 
L 139.120756 198.526893 
L 139.166208 198.59262 
L 139.289577 199.189135 
L 139.505472 201.631661 
L 140.076864 208.965009 
L 140.110953 208.919243 
L 140.196986 208.366735 
L 140.364183 205.490647 
L 140.745652 193.798015 
L 141.021609 188.914339 
L 141.036218 188.91133 
L 141.068684 189.023596 
L 141.159587 190.278324 
L 141.318668 196.202974 
L 141.568652 215.394184 
L 141.989079 249.311233 
L 142.023168 248.874069 
L 142.110825 243.739012 
L 142.313734 215.529178 
L 142.860777 139.506405 
L 142.8624 139.507156 
L 142.886749 139.758713 
L 142.982522 143.856627 
L 143.549044 181.178828 
L 143.969472 252.985705 
L 144.055505 244.13437 
L 144.263284 181.279675 
L 144.574953 110.827514 
L 144.695075 107.746002 
L 145.073297 83.271825 
L 145.164201 86.181834 
L 145.300556 102.966779 
L 145.776175 193.0108 
L 145.867078 183.402622 
L 146.409251 93.616563 
L 146.896233 66.772513 
L 146.899479 66.777633 
L 146.931945 67.252365 
L 147.009862 72.529702 
L 147.154333 101.660974 
L 147.491974 183.383873 
L 147.543919 179.213841 
L 147.677027 140.433755 
L 147.925388 91.384358 
L 148.563334 57.313706 
L 148.642874 60.356937 
L 148.758127 79.38589 
L 149.108753 172.20493 
L 149.19641 160.412221 
L 149.649303 72.117432 
L 149.934999 58.88381 
L 150.126545 53.568 
L 150.152518 53.730799 
L 150.217449 56.091319 
L 150.322961 69.926335 
L 150.509638 132.877891 
L 150.644369 163.442964 
L 150.689821 159.851306 
L 150.821306 121.697065 
L 151.084276 66.770527 
L 151.17518 65.98731 
L 151.223878 66.022232 
L 151.262836 66.004882 
L 151.287185 65.934429 
L 151.384582 65.064252 
L 151.545286 63.65831 
L 151.590737 63.836016 
L 151.673524 65.428787 
L 151.782284 72.719849 
L 151.908899 100.056348 
L 152.154013 179.088279 
L 152.225437 168.838649 
L 152.642618 67.059628 
L 152.715665 67.925016 
L 153.189661 78.154173 
L 153.30816 92.88052 
L 153.468864 150.304235 
L 153.645801 208.347016 
L 153.691252 202.905884 
L 153.864943 138.030501 
L 154.145769 72.870019 
L 154.20583 71.634739 
L 154.269137 72.271377 
L 154.47854 77.573431 
L 154.64249 87.205554 
L 154.772352 112.9315 
L 155.00448 217.875473 
L 155.101876 247.959148 
L 155.153821 237.631306 
L 155.700864 82.31567 
L 155.785274 80.967861 
L 155.840465 81.218195 
L 155.960588 83.050327 
L 156.056361 89.252505 
L 156.191092 116.918656 
L 156.415104 219.86014 
L 156.53198 271.289205 
L 156.585548 254.343717 
L 157.004352 102.033172 
L 157.194275 91.361086 
L 157.200768 91.372137 
L 157.24622 91.903884 
L 157.367965 96.45253 
L 157.502697 110.909362 
L 157.67801 159.73978 
L 157.944227 291.867614 
L 158.023767 252.653088 
L 158.366278 128.990073 
L 158.587043 109.92947 
L 158.614639 109.738307 
L 158.66496 110.333668 
L 158.775343 115.443417 
L 158.92306 134.345717 
L 159.124346 195.317545 
L 159.338618 290.691547 
L 159.403549 264.639053 
L 159.763916 147.807196 
L 159.983057 130.878838 
L 159.99929 130.813194 
L 160.039872 131.293126 
L 160.138892 136.131014 
L 160.299596 156.48141 
L 160.521984 218.747792 
L 160.71353 286.343587 
L 160.771968 270.552704 
L 161.172916 163.350429 
L 161.388812 150.322513 
L 161.393681 150.324527 
L 161.409914 150.424705 
L 161.476468 152.344517 
L 161.607953 163.835851 
L 161.802746 203.95247 
L 162.06734 283.937562 
L 162.138764 267.745997 
L 162.539712 174.178609 
L 162.737751 164.077978 
L 162.745868 164.096897 
L 162.791319 164.842636 
L 162.898455 171.09625 
L 163.072145 196.629484 
L 163.369204 281.341401 
L 163.408163 288.858236 
L 163.463354 276.665276 
L 163.887028 180.582314 
L 164.104547 168.762749 
L 164.107793 168.764334 
L 164.137012 169.032583 
L 164.219799 172.38636 
L 164.36914 189.334173 
L 164.599645 245.894492 
L 164.748986 288.806346 
L 164.805801 275.923938 
L 165.226228 179.543053 
L 165.446993 167.746319 
L 165.468096 167.85118 
L 165.53465 169.744671 
L 165.666135 181.151463 
L 165.869044 221.834846 
L 166.102796 293.27226 
L 166.16935 273.84599 
L 166.562182 180.527311 
L 166.800803 164.61875 
L 166.818659 164.534063 
L 166.862487 165.046137 
L 166.95826 169.961138 
L 167.118964 191.958698 
L 167.373818 264.119066 
L 167.464721 291.208662 
L 167.519913 276.441456 
L 167.924108 177.706611 
L 168.156236 163.114041 
L 168.169222 163.069184 
L 168.20818 163.467109 
L 168.299084 167.661131 
L 168.456541 187.185987 
L 168.696785 250.24476 
L 168.829894 293.523485 
L 168.886708 276.880883 
L 169.28441 178.785001 
L 169.526278 161.949706 
L 169.54738 161.838609 
L 169.592832 162.414758 
L 169.691852 167.767145 
L 169.854179 190.805588 
L 170.113903 266.185227 
L 170.196689 290.457207 
L 170.251881 276.1167 
L 170.657699 176.408909 
L 170.88658 162.066821 
L 170.899567 162.021396 
L 170.938525 162.416246 
L 171.029428 166.586404 
L 171.186886 186.033689 
L 171.425507 248.53466 
L 171.563485 292.46496 
L 171.6203 276.374944 
L 172.021248 177.988331 
L 172.259869 161.862464 
L 172.277725 161.780667 
L 172.321553 162.303442 
L 172.41895 167.364763 
L 172.579654 189.550228 
L 172.834508 262.268112 
L 172.928657 289.716823 
L 172.983849 275.784312 
L 173.392913 176.185672 
L 173.620172 162.515383 
L 173.629911 162.492143 
L 173.664 162.801646 
L 173.750033 166.415045 
L 173.902621 184.066758 
L 174.133126 241.613585 
L 174.292207 292.237041 
L 174.350644 276.123056 
L 174.751593 178.375832 
L 174.988591 162.542755 
L 175.006447 162.462886 
L 175.048652 162.952826 
L 175.144425 167.820971 
L 175.303505 189.384908 
L 175.556736 260.601025 
L 175.655756 289.774267 
L 175.710947 276.044672 
L 176.121635 176.573752 
L 176.34727 163.082209 
L 176.357009 163.059049 
L 176.391098 163.368974 
L 176.477132 166.983169 
L 176.629719 184.616174 
L 176.860224 242.014067 
L 177.019305 292.422401 
L 177.076119 276.580547 
L 177.477068 178.825119 
L 177.715689 162.818418 
L 177.733545 162.742156 
L 177.77575 163.241483 
L 177.871523 168.129807 
L 178.032227 190.017792 
L 178.285457 261.473581 
L 178.382854 289.919526 
L 178.438045 275.888958 
L 178.84711 176.763393 
L 179.074368 163.111829 
L 179.084108 163.08882 
L 179.118196 163.39885 
L 179.20423 167.012327 
L 179.356817 184.653556 
L 179.587322 242.095637 
L 179.746403 292.512373 
L 179.803217 276.50334 
L 180.204166 178.729608 
L 180.442787 162.720261 
L 180.460643 162.642361 
L 180.502848 163.136974 
L 180.598621 168.012799 
L 180.757702 189.578101 
L 181.009309 260.270781 
L 181.109952 289.963367 
L 181.165143 275.951812 
L 181.574208 176.695238 
L 181.801466 162.994847 
L 181.811206 162.969958 
L 181.846918 163.303728 
L 181.934575 167.092464 
L 182.088785 185.313391 
L 182.322537 244.513193 
L 182.473501 292.50877 
L 182.530316 276.644469 
L 182.931264 178.717474 
L 183.169885 162.64143 
L 183.187741 162.558901 
L 183.231569 163.080966 
L 183.328966 168.156361 
L 183.48967 190.362991 
L 183.746147 263.402675 
L 183.83705 289.940047 
L 183.892241 276.129321 
L 184.301306 176.722865 
L 184.528564 162.964501 
L 184.539927 162.937457 
L 184.574016 163.261784 
L 184.661673 167.024052 
L 184.815884 185.186961 
L 185.049635 244.310398 
L 185.200599 292.478519 
L 185.259037 276.292496 
L 185.659985 178.580675 
L 185.896983 162.649606 
L 185.914839 162.562387 
L 185.958668 163.072191 
L 186.054441 167.984578 
L 186.215145 189.938349 
L 186.469999 262.096623 
L 186.565772 289.919113 
L 186.61934 276.305919 
L 187.030028 176.605301 
L 187.257286 162.974194 
L 187.267025 162.952423 
L 187.301114 163.267274 
L 187.387148 166.89538 
L 187.539735 184.568057 
L 187.77024 242.072349 
L 187.929321 292.476457 
L 187.986135 276.454362 
L 188.387084 178.654123 
L 188.625705 162.65528 
L 188.643561 162.57888 
L 188.685766 163.077554 
L 188.781539 167.964527 
L 188.94062 189.54966 
L 189.192227 260.271417 
L 189.29287 289.925264 
L 189.348061 275.913565 
L 189.757126 176.668736 
L 189.984384 162.988837 
L 189.994124 162.965033 
L 190.028212 163.272598 
L 190.114246 166.880714 
L 190.266833 184.508808 
L 190.497338 241.94496 
L 190.656419 292.483816 
L 190.713233 276.595512 
L 191.114182 178.712664 
L 191.352803 162.664664 
L 191.370659 162.584391 
L 191.412864 163.073622 
L 191.508637 167.936871 
L 191.667718 189.472328 
L 191.919325 260.131839 
L 192.019968 289.929475 
L 192.075159 276.051626 
L 192.484224 176.717598 
L 192.711482 162.991177 
L 192.721222 162.965185 
L 192.756934 163.294533 
L 192.844591 167.070059 
L 192.998801 185.262499 
L 193.232553 244.421128 
L 193.383517 292.48402 
L 193.440332 276.738545 
L 193.842903 178.560093 
L 194.079901 162.666317 
L 194.097757 162.581954 
L 194.141585 163.09907 
L 194.237359 168.029691 
L 194.398063 190.021253 
L 194.652916 262.219485 
L 194.747066 289.928317 
L 194.802257 276.19578 
L 195.212945 176.576226 
L 195.440204 162.98234 
L 195.449943 162.962307 
L 195.482409 163.254102 
L 195.566819 166.7137 
L 195.717783 183.821237 
L 195.946665 240.115882 
L 196.112239 292.477128 
L 196.169053 276.339067 
L 196.570001 178.613401 
L 196.806999 162.668259 
L 196.824855 162.579774 
L 196.868684 163.086472 
L 196.964457 167.992286 
L 197.125161 189.93261 
L 197.378391 261.506255 
L 197.475788 289.925827 
L 197.529356 276.341992 
L 197.940044 176.626784 
L 198.167302 162.983782 
L 198.177041 162.961554 
L 198.21113 163.274744 
L 198.297164 166.897965 
L 198.449751 184.558683 
L 198.680256 242.045311 
L 198.839337 292.483561 
L 198.896151 276.488223 
L 199.2971 178.669026 
L 199.535721 162.657514 
L 199.553577 162.580139 
L 199.595782 163.076422 
L 199.691555 167.957159 
L 199.850636 189.528862 
L 200.102243 260.236181 
L 200.202886 289.929092 
L 200.258077 275.949455 
L 200.667142 176.678975 
L 200.8944 162.98626 
L 200.90414 162.961804 
L 200.939852 163.296966 
L 201.027508 167.087904 
L 201.181719 185.312142 
L 201.415471 244.51757 
L 201.566435 292.484958 
L 201.623249 276.636139 
L 202.024198 178.724722 
L 202.262819 162.661864 
L 202.280675 162.580365 
L 202.32288 163.066598 
L 202.418653 167.922517 
L 202.577734 189.443863 
L 202.829341 260.085318 
L 202.929984 289.929296 
L 202.985175 276.095123 
L 203.39424 176.730918 
L 203.621498 162.988842 
L 203.632861 162.962524 
L 203.66695 163.289139 
L 203.754607 167.058436 
L 203.908817 185.237328 
L 204.142569 244.376051 
L 204.293533 292.481374 
L 204.351971 276.236933 
L 204.752919 178.575681 
L 204.989917 162.666107 
L 205.007773 162.580492 
L 205.051601 163.09445 
L 205.147375 168.017538 
L 205.308079 189.993351 
L 205.562932 262.171967 
L 205.657082 289.925914 
L 205.712273 276.240503 
L 206.122961 176.591522 
L 206.35022 162.982985 
L 206.359959 162.962286 
L 206.392425 163.251785 
L 206.476835 166.70489 
L 206.627799 183.798833 
L 206.856681 240.073252 
L 207.022255 292.479342 
L 207.079069 276.38457 
L 207.480017 178.630718 
L 207.717015 162.670249 
L 207.734871 162.580517 
L 207.7787 163.084047 
L 207.874473 167.982278 
L 208.035177 189.907174 
L 208.288407 261.460872 
L 208.385804 289.927089 
L 208.440995 275.846982 
L 208.85006 176.642967 
L 209.077318 162.984973 
L 209.087057 162.962074 
L 209.121146 163.272867 
L 209.20718 166.889744 
L 209.359767 184.537272 
L 209.590272 242.003613 
L 209.749353 292.484573 
L 209.806167 276.532223 
L 210.207116 178.685849 
L 210.445737 162.659058 
L 210.463593 162.580455 
L 210.505798 163.073749 
L 210.601571 167.947116 
L 210.760652 189.503833 
L 211.012259 260.19146 
L 211.112902 289.929656 
L 211.168093 275.992726 
L 211.577158 176.694491 
L 211.804416 162.987158 
L 211.814156 162.962058 
L 211.849868 163.294791 
L 211.937524 167.079296 
L 212.091735 185.289978 
L 212.325487 244.47563 
L 212.476451 292.484563 
L 212.533265 276.679978 
L 212.934214 178.741186 
L 213.172835 162.663108 
L 213.190691 162.580382 
L 213.234519 163.101664 
L 213.331916 168.173986 
L 213.49262 190.374563 
L 213.749097 263.399013 
L 213.84 289.928697 
L 213.895191 276.138388 
L 214.305879 176.55546 
L 214.533137 162.981493 
L 214.542877 162.962341 
L 214.575343 163.257123 
L 214.661376 166.831468 
L 214.813964 184.389943 
L 215.044468 241.72288 
L 215.203549 292.479282 
L 215.261987 276.280951 
L 215.662935 178.592018 
L 215.899933 162.667249 
L 215.917789 162.580405 
L 215.961617 163.091253 
L 216.057391 168.006927 
L 216.218095 189.967557 
L 216.472948 262.126759 
L 216.567098 289.924222 
L 216.622289 276.283949 
L 217.032977 176.606846 
L 217.260236 162.983519 
L 217.269975 162.962165 
L 217.304064 163.278501 
L 217.390097 166.910284 
L 217.542685 184.589048 
L 217.77319 242.102147 
L 217.932271 292.481428 
L 217.989085 276.428652 
L 218.390033 178.647144 
L 218.628655 162.656311 
L 218.646511 162.5806 
L 218.688716 163.080941 
L 218.784489 167.971743 
L 218.945193 189.881411 
L 219.198423 261.415697 
L 219.29582 289.928203 
L 219.351011 275.890508 
L 219.760076 176.658327 
L 219.987334 162.985627 
L 219.997073 162.96207 
L 220.031162 163.270502 
L 220.117196 166.881013 
L 220.269783 184.515231 
L 220.500288 241.96169 
L 220.659369 292.485119 
L 220.716183 276.576352 
L 221.117132 178.702379 
L 221.355753 162.660274 
L 221.373609 162.580441 
L 221.415814 163.070735 
L 221.511587 167.936685 
L 221.670668 189.478368 
L 221.922275 260.146423 
L 222.022918 289.929739 
L 222.078109 276.03621 
L 222.487174 176.709927 
L 222.714432 162.987832 
L 222.724172 162.962074 
L 222.759884 163.292335 
L 222.84754 167.070365 
L 223.001751 185.267561 
L 223.235503 244.433272 
L 223.386467 292.483537 
L 223.443281 276.724039 
L 223.845853 178.553403 
L 224.082851 162.664338 
L 224.100707 162.580384 
L 224.144535 163.098552 
L 224.240308 168.031683 
L 224.401012 190.028085 
L 224.655866 262.232923 
L 224.750016 289.927736 
L 224.805207 276.181832 
L 225.215895 176.570782 
L 225.443153 162.982094 
L 225.452893 162.962285 
L 225.485359 163.254824 
L 225.569769 166.716347 
L 225.720733 183.82797 
L 225.949615 240.129307 
L 226.113565 292.476695 
L 226.172003 276.325028 
L 226.572951 178.608458 
L 226.809949 162.668503 
L 226.827805 162.58043 
L 226.871633 163.088164 
L 226.967407 167.996414 
L 227.128111 189.941835 
L 227.382964 262.081615 
L 227.478737 289.925019 
L 227.532305 276.327365 
L 227.942993 176.622194 
L 228.170252 162.984133 
L 228.179991 162.962121 
L 228.21408 163.276098 
L 228.300113 166.901531 
L 228.452701 184.567003 
L 228.683206 242.060218 
L 228.842287 292.483081 
L 228.899101 276.472729 
L 229.300049 178.663615 
L 229.538671 162.657481 
L 229.556527 162.58054 
L 229.598732 163.077883 
L 229.694505 167.961268 
L 229.853585 189.5383 
L 230.105193 260.252305 
L 230.205836 289.929032 
L 230.261027 275.933999 
L 230.670092 176.673715 
L 230.89735 162.986274 
L 230.907089 162.96206 
L 230.942801 163.29813 
L 231.030458 167.091397 
L 231.184669 185.320326 
L 231.41842 244.532857 
L 231.569385 292.485198 
L 231.626199 276.620426 
L 232.027148 178.718879 
L 232.265769 162.661476 
L 232.283625 162.580412 
L 232.32583 163.067708 
L 232.421603 167.926244 
L 232.580684 189.452892 
L 232.832291 260.101387 
L 232.932934 289.92951 
L 232.988125 276.079677 
L 233.39719 176.725346 
L 233.624448 162.988512 
L 233.634188 162.962097 
L 233.6699 163.289887 
L 233.757556 167.061435 
L 233.911767 185.245137 
L 234.145519 244.390925 
L 234.296483 292.482046 
L 234.353297 276.768114 
L 234.755869 178.569823 
L 234.992867 162.665571 
L 235.010723 162.580387 
L 235.054551 163.095441 
L 235.150324 168.021146 
L 235.311028 190.002332 
L 235.565882 262.187767 
L 235.660032 289.926454 
L 235.715223 276.225271 
L 236.125911 176.586114 
L 236.353169 162.982692 
L 236.362909 162.962225 
L 236.395375 163.252519 
L 236.479785 166.70783 
L 236.630749 183.806362 
L 236.859631 240.087759 
L 237.025204 292.478455 
L 237.082019 276.369105 
L 237.482967 178.624906 
L 237.719965 162.669766 
L 237.737821 162.580464 
L 237.781649 163.085085 
L 237.877423 167.985913 
L 238.038127 189.916124 
L 238.291357 261.476645 
L 238.388753 289.926586 
L 238.443945 275.831745 
L 238.853009 176.637557 
L 239.080268 162.984762 
L 239.090007 162.962093 
L 239.124096 163.273712 
L 239.210129 166.892797 
L 239.362717 184.544972 
L 239.593222 242.018303 
L 239.752303 292.484264 
L 239.809117 276.516806 
L 240.210065 178.680096 
L 240.448687 162.658663 
L 240.466543 162.580491 
L 240.508748 163.074835 
L 240.604521 167.950803 
L 240.763601 189.512797 
L 241.015209 260.207264 
L 241.115852 289.929545 
L 241.171043 275.977481 
L 241.580108 176.689111 
L 241.807366 162.986931 
L 241.817105 162.96206 
L 241.852817 163.295659 
L 241.940474 167.082443 
L 242.094685 185.297873 
L 242.328436 244.490492 
L 242.479401 292.484809 
L 242.536215 276.6645 
L 242.937164 178.735392 
L 243.175785 162.662687 
L 243.193641 162.580394 
L 243.237469 163.10277 
L 243.334865 168.177749 
L 243.495569 190.383675 
L 243.752047 263.414885 
L 243.84295 289.928968 
L 243.898141 276.123135 
L 244.307206 176.740775 
L 244.534464 162.989199 
L 244.545827 162.962378 
L 244.579916 163.287447 
L 244.667572 167.052517 
L 244.821783 185.222725 
L 245.055535 244.348585 
L 245.206499 292.480085 
L 245.264937 276.265478 
L 245.665885 178.58625 
L 245.902883 162.666812 
L 245.920739 162.5804 
L 245.964567 163.092339 
L 246.06034 168.010619 
L 246.221044 189.97659 
L 246.475898 262.142612 
L 246.570048 289.924857 
L 246.625239 276.268703 
L 247.035927 176.601454 
L 247.263185 162.983299 
L 247.272925 162.962175 
L 247.307014 163.279339 
L 247.393047 166.913348 
L 247.545635 184.596785 
L 247.777763 242.637561 
L 247.93522 292.480739 
L 247.992035 276.413183 
L 248.392983 178.641365 
L 248.631604 162.655899 
L 248.64946 162.58062 
L 248.691665 163.082015 
L 248.787439 167.975422 
L 248.948143 189.890427 
L 249.201373 261.431529 
L 249.298769 289.927839 
L 249.353961 275.875245 
L 249.763025 176.652931 
L 249.990284 162.985399 
L 250.000023 162.962073 
L 250.034112 163.271334 
L 250.120145 166.884073 
L 250.272733 184.522954 
L 250.503238 241.976394 
L 250.662319 292.484978 
L 250.719133 276.560882 
L 251.120081 178.696586 
L 251.358703 162.659853 
L 251.376559 162.580451 
L 251.418764 163.071797 
L 251.514537 167.940349 
L 251.673617 189.487307 
L 251.925225 260.162226 
L 252.025868 289.929743 
L 252.081059 276.020956 
L 252.490124 176.704517 
L 252.717382 162.987598 
L 252.727121 162.96207 
L 252.762833 163.293198 
L 252.85049 167.0735 
L 253.004701 185.275433 
L 253.238452 244.448135 
L 253.389417 292.48395 
L 253.446231 276.708574 
L 253.84718 178.751914 
L 254.085801 162.663908 
L 254.103657 162.580385 
L 254.147485 163.099646 
L 254.243258 168.035385 
L 254.403962 190.037128 
L 254.658816 262.248771 
L 254.752966 289.928111 
L 254.808157 276.166585 
L 255.218845 176.565405 
L 255.446103 162.981885 
L 255.455843 162.962307 
L 255.488308 163.255634 
L 255.574342 166.825866 
L 255.726929 184.375714 
L 255.957434 241.69573 
L 256.116515 292.477657 
L 256.174953 276.309557 
L 256.575901 178.602687 
L 256.812899 162.668063 
L 256.830755 162.580421 
L 256.874583 163.089247 
L 256.970356 168.000102 
L 257.13106 189.950861 
L 257.385914 262.09746 
L 257.481687 289.924395 
L 257.535255 276.312127 
L 257.945943 176.616805 
L 258.173201 162.983916 
L 258.182941 162.962134 
L 258.21703 163.276939 
L 258.303063 166.9046 
L 258.455651 184.574737 
L 258.686156 242.074932 
L 258.845236 292.482555 
L 258.902051 276.457261 
L 259.302999 178.657833 
L 259.54162 162.657068 
L 259.559476 162.580559 
L 259.601681 163.078955 
L 259.697455 167.964943 
L 259.856535 189.547253 
L 260.108143 260.268113 
L 260.208785 289.928777 
L 260.263977 275.918737 
L 260.673041 176.668314 
L 260.9003 162.986045 
L 260.910039 162.962062 
L 260.944128 163.268965 
L 261.030161 166.875359 
L 261.182749 184.500949 
L 261.413254 241.934493 
L 261.572335 292.485223 
L 261.630772 276.058218 
L 262.030097 178.713086 
L 262.268719 162.661053 
L 262.286575 162.580421 
L 262.32878 163.068769 
L 262.424553 167.929906 
L 262.583633 189.46183 
L 262.835241 260.117191 
L 262.935884 289.929626 
L 262.991075 276.064424 
L 263.40014 176.719933 
L 263.627398 162.988273 
L 263.637137 162.962088 
L 263.672849 163.290745 
L 263.760506 167.064568 
L 263.914717 185.253005 
L 264.148468 244.405785 
L 264.299433 292.482623 
L 264.356247 276.752647 
L 264.758819 178.56406 
L 264.995817 162.665137 
L 265.013673 162.580385 
L 265.057501 163.096532 
L 265.153274 168.024843 
L 265.313978 190.011369 
L 265.568832 262.203614 
L 265.662982 289.92694 
L 265.718173 276.210027 
L 266.128861 176.580733 
L 266.356119 162.982481 
L 266.365859 162.962245 
L 266.398324 163.253327 
L 266.482735 166.710818 
L 266.633699 183.813944 
L 266.86258 240.102339 
L 267.028154 292.477543 
L 267.084969 276.353636 
L 267.485917 178.619133 
L 267.722915 162.669322 
L 267.740771 162.580451 
L 267.784599 163.086164 
L 267.880372 167.989597 
L 268.041076 189.925146 
L 268.294307 261.492479 
L 268.391703 289.926072 
L 268.446895 275.816478 
L 268.855959 176.632165 
L 269.083217 162.984541 
L 269.092957 162.962102 
L 269.127046 163.274548 
L 269.213079 166.895861 
L 269.365667 184.552702 
L 269.596172 242.033012 
L 269.755252 292.483902 
L 269.812067 276.501338 
L 270.213015 178.674311 
L 270.451636 162.658247 
L 270.469492 162.580507 
L 270.511697 163.075904 
L 270.607471 167.954474 
L 270.766551 189.521746 
L 271.018159 260.223071 
L 271.118801 289.929401 
L 271.173993 275.962222 
L 271.583057 176.683707 
L 271.810316 162.986699 
L 271.820055 162.962059 
L 271.855767 163.296525 
L 271.943424 167.085584 
L 272.097635 185.305752 
L 272.331386 244.505358 
L 272.482351 292.484999 
L 272.539165 276.649033 
L 272.940113 178.729596 
L 273.178735 162.662261 
L 273.196591 162.5804 
L 273.240419 163.103869 
L 273.337815 168.181503 
L 273.498519 190.39278 
L 273.754996 263.430751 
L 273.8459 289.929195 
L 273.901091 276.107884 
L 274.310156 176.735359 
L 274.537414 162.988956 
L 274.548777 162.962405 
L 274.582865 163.288302 
L 274.670522 167.055645 
L 274.824733 185.230589 
L 275.058484 244.363443 
L 275.209449 292.480827 
L 275.267887 276.250009 
L 275.668835 178.580484 
L 275.905833 162.666376 
L 275.923689 162.580394 
L 275.967517 163.093427 
L 276.06329 168.014312 
L 276.223994 189.985622 
L 276.478848 262.158459 
L 276.572998 289.925453 
L 276.628189 276.253462 
L 277.038877 176.59607 
L 277.266135 162.983085 
L 277.275875 162.962192 
L 277.309964 163.280183 
L 277.39762 167.025821 
L 277.551831 185.155567 
L 277.785583 244.221611 
L 277.93817 292.479991 
L 277.994985 276.397714 
L 278.395933 178.635588 
L 278.632931 162.67059 
L 278.65241 162.580644 
L 278.694615 163.083091 
L 278.790388 167.979103 
L 278.951092 189.899443 
L 279.204323 261.447362 
L 279.301719 289.927435 
L 279.356911 275.85998 
L 279.765975 176.647534 
L 279.993233 162.985175 
L 280.002973 162.962079 
L 280.037062 163.272167 
L 280.123095 166.887134 
L 280.275683 184.53068 
L 280.506188 241.991101 
L 280.665268 292.484781 
L 280.722083 276.545414 
L 281.123031 178.690798 
L 281.361652 162.659434 
L 281.379508 162.580464 
L 281.421713 163.072862 
L 281.517487 167.944016 
L 281.676567 189.496251 
L 281.928175 260.178032 
L 282.028817 289.929709 
L 282.084009 276.0057 
L 282.493073 176.69911 
L 282.720332 162.987363 
L 282.730071 162.962066 
L 282.765783 163.29406 
L 282.85344 167.076638 
L 283.007651 185.283307 
L 283.241402 244.462999 
L 283.392367 292.484305 
L 283.449181 276.693107 
L 283.850129 178.746115 
L 284.088751 162.663478 
L 284.106607 162.580387 
L 284.150435 163.100741 
L 284.247831 168.170809 
L 284.408535 190.366839 
L 284.665012 263.385542 
L 284.755916 289.928448 
L 284.811107 276.151337 
L 285.221795 176.560029 
L 285.449053 162.981678 
L 285.458793 162.962331 
L 285.491258 163.256446 
L 285.577292 166.828902 
L 285.729879 184.38341 
L 285.960384 241.710418 
L 286.119465 292.478563 
L 286.177903 276.294088 
L 286.578851 178.596917 
L 286.815849 162.667623 
L 286.833705 162.580412 
L 286.877533 163.090331 
L 286.973306 168.003792 
L 287.13401 189.959889 
L 287.388864 262.113306 
L 287.484637 289.923732 
L 287.538205 276.296889 
L 287.948893 176.611416 
L 288.176151 162.983698 
L 288.185891 162.962148 
L 288.21998 163.27778 
L 288.306013 166.907669 
L 288.458601 184.582473 
L 288.689105 242.089645 
L 288.848186 292.481971 
L 288.905001 276.441792 
L 289.305949 178.652053 
L 289.54457 162.656657 
L 289.562426 162.580579 
L 289.604631 163.080027 
L 289.700404 167.968619 
L 289.859485 189.556208 
L 290.111092 260.283921 
L 290.211735 289.928484 
L 290.266927 275.903474 
L 290.675991 176.662914 
L 290.903249 162.985817 
L 290.912989 162.962065 
L 290.947078 163.269795 
L 291.033111 166.878416 
L 291.185699 184.50867 
L 291.416204 241.949197 
L 291.575284 292.485191 
L 291.632099 276.58949 
L 292.033047 178.707295 
L 292.271668 162.660631 
L 292.289524 162.580431 
L 292.331729 163.06983 
L 292.427503 167.93357 
L 292.586583 189.470769 
L 292.838191 260.132995 
L 292.938833 289.929703 
L 292.994025 276.04917 
L 293.403089 176.714522 
L 293.630348 162.988035 
L 293.640087 162.962081 
L 293.675799 163.291605 
L 293.763456 167.067702 
L 293.917667 185.260874 
L 294.151418 244.420647 
L 294.302383 292.483142 
L 294.359197 276.73718 
L 294.761769 178.558299 
L 294.998767 162.664705 
L 295.016623 162.580384 
L 295.060451 163.097624 
L 295.156224 168.028541 
L 295.316928 190.020407 
L 295.571782 262.219461 
L 295.665932 289.927387 
L 295.721123 276.194782 
L 296.131811 176.575352 
L 296.359069 162.982271 
L 296.368809 162.962266 
L 296.401274 163.254136 
L 296.485684 166.713807 
L 296.636649 183.821527 
L 296.86553 240.116919 
L 297.031104 292.476574 
L 297.087919 276.338167 
L 297.488867 178.61336 
L 297.725865 162.668879 
L 297.743721 162.58044 
L 297.787549 163.087245 
L 297.883322 167.993282 
L 298.044026 189.934169 
L 298.29888 262.068155 
L 298.394653 289.925519 
L 298.448221 276.340308 
L 298.858909 176.626773 
L 299.086167 162.98432 
L 299.095907 162.962113 
L 299.129996 163.275386 
L 299.216029 166.898927 
L 299.368617 184.560434 
L 299.599121 242.047723 
L 299.758202 292.483483 
L 299.815017 276.485869 
L 300.215965 178.668527 
L 300.454586 162.657832 
L 300.472442 162.580524 
L 300.514647 163.076973 
L 300.61042 167.958147 
L 300.769501 189.530696 
L 301.021108 260.238878 
L 301.121751 289.929218 
L 301.176943 275.946962 
L 301.586007 176.678304 
L 301.813265 162.986469 
L 301.823005 162.962059 
L 301.858717 163.297392 
L 301.946374 167.088726 
L 302.100585 185.313631 
L 302.334336 244.520226 
L 302.4853 292.485131 
L 302.542115 276.633565 
L 302.943063 178.723801 
L 303.181684 162.661836 
L 303.19954 162.580406 
L 303.241745 163.066808 
L 303.337519 167.923134 
L 303.496599 189.445301 
L 303.748207 260.087962 
L 303.848849 289.929382 
L 303.904041 276.092633 
L 304.313105 176.729944 
L 304.540364 162.988715 
L 304.551727 162.962433 
L 304.585815 163.289159 
L 304.673472 167.058776 
L 304.827683 185.238454 
L 305.061434 244.378302 
L 305.212399 292.48151 
L 305.270836 276.234539 
L 305.671785 178.574719 
L 305.908783 162.66594 
L 305.926639 162.58039 
L 305.970467 163.094515 
L 306.06624 168.018006 
L 306.226944 189.994656 
L 306.481798 262.174305 
L 306.575948 289.926011 
L 306.631139 276.23822 
L 307.041827 176.590686 
L 307.269085 162.982872 
L 307.278825 162.96221 
L 307.31129 163.251834 
L 307.3957 166.705293 
L 307.546665 183.799922 
L 307.775546 240.075375 
L 307.94112 292.479185 
L 307.997935 276.382245 
L 308.398883 178.629812 
L 308.635881 162.670144 
L 308.653737 162.580476 
L 308.697565 163.084169 
L 308.793338 167.982784 
L 308.954042 189.908462 
L 309.207273 261.463195 
L 309.304669 289.926993 
L 309.35986 275.844714 
L 309.768925 176.642139 
L 309.996183 162.984951 
L 310.005923 162.962086 
L 310.040012 163.273002 
L 310.126045 166.890195 
L 310.278633 184.538407 
L 310.509137 242.005809 
L 310.668218 292.484526 
L 310.725033 276.529946 
L 311.125981 178.685011 
L 311.364602 162.659017 
L 311.382458 162.580478 
L 311.424663 163.073929 
L 311.520436 167.947685 
L 311.679517 189.505197 
L 311.931124 260.193837 
L 312.031767 289.929637 
L 312.086959 275.990442 
L 312.496023 176.693703 
L 312.723281 162.987129 
L 312.733021 162.962062 
L 312.768733 163.294924 
L 312.85639 167.079776 
L 313.010601 185.291182 
L 313.244352 244.477864 
L 313.395316 292.484602 
L 313.452131 276.677639 
L 313.853079 178.740316 
L 314.0917 162.66305 
L 314.109556 162.580391 
L 314.153385 163.101838 
L 314.250781 168.174561 
L 314.411485 190.375942 
L 314.667962 263.401408 
L 314.758865 289.928746 
L 314.814057 276.136088 
L 315.224745 176.554653 
L 315.452003 162.981472 
L 315.461743 162.962356 
L 315.494208 163.257259 
L 315.580241 166.83194 
L 315.732829 184.391108 
L 315.963334 241.725107 
L 316.122415 292.47941 
L 316.180852 276.278619 
L 316.581801 178.591149 
L 316.818799 162.667184 
L 316.836655 162.580405 
L 316.880483 163.091416 
L 316.976256 168.007482 
L 317.13696 189.968918 
L 317.391814 262.129151 
L 317.485964 289.92432 
L 317.541155 276.281649 
L 317.951843 176.606029 
L 318.179101 162.983482 
L 318.188841 162.962162 
L 318.222929 163.278622 
L 318.308963 166.910739 
L 318.461551 184.590211 
L 318.692055 242.104359 
L 318.851136 292.481329 
L 318.907951 276.426323 
L 319.308899 178.646274 
L 319.54752 162.656247 
L 319.565376 162.580601 
L 319.607581 163.081102 
L 319.703354 167.972297 
L 319.864058 189.882768 
L 320.117289 261.418079 
L 320.214685 289.928152 
L 320.269876 275.888211 
L 320.678941 176.657516 
L 320.906199 162.985591 
L 320.915939 162.962069 
L 320.950028 163.270626 
L 321.036061 166.881474 
L 321.188649 184.516393 
L 321.419153 241.963902 
L 321.578234 292.4851 
L 321.635049 276.574022 
L 322.035997 178.701504 
L 322.274618 162.66021 
L 322.292474 162.580441 
L 322.334679 163.070893 
L 322.430452 167.937235 
L 322.589533 189.479711 
L 322.84114 260.1488 
L 322.941783 289.929741 
L 322.996975 276.033915 
L 323.406039 176.709112 
L 323.633297 162.987798 
L 323.643037 162.962075 
L 323.678749 163.292466 
L 323.766406 167.070836 
L 323.920617 185.268745 
L 324.154368 244.435509 
L 324.305332 292.483603 
L 324.362147 276.721713 
L 324.764719 178.552538 
L 325.001716 162.664273 
L 325.019572 162.580384 
L 325.063401 163.098717 
L 325.159174 168.032241 
L 325.319878 190.029447 
L 325.574732 262.235309 
L 325.668881 289.927795 
L 325.724073 276.179536 
L 326.134761 176.569974 
L 326.362019 162.982062 
L 326.371759 162.962288 
L 326.404224 163.254945 
L 326.488634 166.716797 
L 326.639599 183.829113 
L 326.86848 240.131501 
L 327.032431 292.476843 
L 327.090868 276.322698 
L 327.491817 178.607588 
L 327.728815 162.668437 
L 327.746671 162.580429 
L 327.790499 163.088327 
L 327.886272 167.996969 
L 328.046976 189.943194 
L 328.30183 262.084 
L 328.397603 289.924928 
L 328.451171 276.325071 
L 328.861859 176.621383 
L 329.089117 162.984101 
L 329.098857 162.962124 
L 329.132945 163.276225 
L 329.218979 166.901994 
L 329.371567 184.568167 
L 329.602071 242.062434 
L 329.761152 292.483006 
L 329.817967 276.470401 
L 330.218915 178.662745 
L 330.457536 162.657419 
L 330.475392 162.580543 
L 330.517597 163.078044 
L 330.61337 167.961821 
L 330.772451 189.539648 
L 331.024058 260.254685 
L 331.124701 289.928996 
L 331.179892 275.931701 
L 331.588957 176.672902 
L 331.816215 162.986239 
L 331.825955 162.96206 
L 331.861667 163.298261 
L 331.949324 167.09187 
L 332.103535 185.321513 
L 332.337286 244.535095 
L 332.48825 292.485205 
L 332.545065 276.618097 
L 332.946013 178.718007 
L 333.184634 162.661412 
L 333.20249 162.580414 
L 333.244695 163.067868 
L 333.340468 167.926795 
L 333.499549 189.454238 
L 333.751156 260.103766 
L 333.851799 289.92953 
L 333.906991 276.077381 
L 334.316055 176.724531 
L 334.543313 162.988476 
L 334.553053 162.962096 
L 334.588765 163.290016 
L 334.676422 167.061907 
L 334.830633 185.246321 
L 335.064384 244.393162 
L 335.215348 292.482136 
L 335.272163 276.765786 
L 335.674735 178.568955 
L 335.911732 162.665505 
L 335.929588 162.580387 
L 335.973417 163.095605 
L 336.06919 168.021702 
L 336.229894 190.003692 
L 336.484748 262.190152 
L 336.578897 289.926529 
L 336.634089 276.222977 
L 337.044777 176.585304 
L 337.272035 162.98266 
L 337.281775 162.962228 
L 337.31424 163.252641 
L 337.39865 166.70828 
L 337.549615 183.807503 
L 337.778496 240.089954 
L 337.94407 292.478322 
L 338.000884 276.366776 
L 338.401833 178.624037 
L 338.638831 162.669699 
L 338.656687 162.580462 
L 338.700515 163.085247 
L 338.796288 167.986467 
L 338.956992 189.917482 
L 339.210223 261.479029 
L 339.307619 289.926511 
L 339.36281 275.829447 
L 339.771875 176.636746 
L 339.999133 162.984729 
L 340.008873 162.962094 
L 340.042961 163.273838 
L 340.128995 166.893259 
L 340.281583 184.546136 
L 340.512087 242.020517 
L 340.671168 292.484213 
L 340.727983 276.514478 
L 341.128931 178.679225 
L 341.367552 162.6586 
L 341.385408 162.580493 
L 341.427613 163.074996 
L 341.523386 167.951355 
L 341.682467 189.514144 
L 341.934074 260.209644 
L 342.034717 289.929526 
L 342.089908 275.975184 
L 342.498973 176.688298 
L 342.726231 162.986896 
L 342.735971 162.96206 
L 342.771683 163.29579 
L 342.85934 167.082916 
L 343.013551 185.299059 
L 343.247302 244.49273 
L 343.398266 292.484841 
L 343.455081 276.662172 
L 343.856029 178.734519 
L 344.09465 162.662623 
L 344.112506 162.580395 
L 344.156335 163.102936 
L 344.253731 168.178314 
L 344.414435 190.385045 
L 344.670912 263.417273 
L 344.761815 289.929005 
L 344.817007 276.120839 
L 345.226071 176.73996 
L 345.453329 162.989162 
L 345.464692 162.962382 
L 345.498781 163.287576 
L 345.586438 167.052988 
L 345.740649 185.223909 
L 345.9744 244.350822 
L 346.125364 292.480201 
L 346.183802 276.26315 
L 346.584751 178.585382 
L 346.821748 162.666746 
L 346.839604 162.580399 
L 346.883433 163.092503 
L 346.979206 168.011174 
L 347.13991 189.977949 
L 347.394764 262.144998 
L 347.488913 289.924949 
L 347.544105 276.266409 
L 347.954793 176.600644 
L 348.182051 162.983267 
L 348.191791 162.962178 
L 348.225879 163.279466 
L 348.311913 166.91381 
L 348.4645 184.59795 
L 348.696628 242.639781 
L 348.854086 292.48063 
L 348.9109 276.410855 
L 349.311849 178.640495 
L 349.55047 162.655837 
L 349.568326 162.580624 
L 349.610531 163.082177 
L 349.706304 167.975976 
L 349.867008 189.891784 
L 350.120239 261.433912 
L 350.217635 289.927781 
L 350.272826 275.872947 
L 350.681891 176.652118 
L 350.909149 162.985365 
L 350.918889 162.962074 
L 350.952977 163.271459 
L 351.039011 166.884534 
L 351.191599 184.524117 
L 351.422103 241.978608 
L 351.581184 292.484952 
L 351.637999 276.558554 
L 352.038947 178.695715 
L 352.277568 162.65979 
L 352.295424 162.580453 
L 352.337629 163.071957 
L 352.433402 167.940901 
L 352.592483 189.488653 
L 352.84409 260.164605 
L 352.944733 289.92974 
L 352.999924 276.018659 
L 353.408989 176.703703 
L 353.636247 162.987562 
L 353.645987 162.962069 
L 353.681699 163.293328 
L 353.769356 167.073973 
L 353.923567 185.276618 
L 354.157318 244.450372 
L 354.308282 292.484007 
L 354.365097 276.706246 
L 354.766045 178.751041 
L 355.004666 162.663843 
L 355.022522 162.580385 
L 355.066351 163.099811 
L 355.162124 168.035942 
L 355.322828 190.038489 
L 355.577681 262.251157 
L 355.671831 289.928165 
L 355.727023 276.164289 
L 356.137711 176.564596 
L 356.364969 162.981854 
L 356.374708 162.962311 
L 356.407174 163.255756 
L 356.493207 166.826323 
L 356.645795 184.376872 
L 356.8763 241.697941 
L 357.03538 292.477797 
L 357.093818 276.307229 
L 357.494767 178.601818 
L 357.731764 162.667996 
L 357.74962 162.58042 
L 357.793449 163.08941 
L 357.889222 168.000658 
L 358.049926 189.95222 
L 358.30478 262.099845 
L 358.400553 289.924298 
L 358.454121 276.309834 
L 358.864809 176.615993 
L 359.092067 162.983883 
L 359.101807 162.962136 
L 359.135895 163.277065 
L 359.221929 166.905061 
L 359.374516 184.575902 
L 359.605021 242.077146 
L 359.764102 292.482471 
L 359.820916 276.454932 
L 360.221865 178.656963 
L 360.460486 162.657006 
L 360.478342 162.580562 
L 360.520547 163.079116 
L 360.61632 167.965496 
L 360.775401 189.548601 
L 361.027008 260.270493 
L 361.127651 289.928735 
L 361.182842 275.916439 
L 361.591907 176.667501 
L 361.819165 162.986011 
L 361.828905 162.962062 
L 361.862993 163.26909 
L 361.949027 166.875819 
L 362.101615 184.502111 
L 362.332119 241.936707 
L 362.4912 292.485222 
L 362.549638 276.05589 
L 362.948963 178.712214 
L 363.187584 162.660989 
L 363.20544 162.580422 
L 363.247645 163.068928 
L 363.343418 167.930457 
L 363.502499 189.463176 
L 363.754106 260.11957 
L 363.854749 289.92964 
L 363.90994 276.062128 
L 364.319005 176.719119 
L 364.546263 162.988237 
L 364.556003 162.962087 
L 364.591715 163.290875 
L 364.679372 167.06504 
L 364.833583 185.254189 
L 365.067334 244.408022 
L 365.218298 292.482705 
L 365.275113 276.750319 
L 365.677684 178.563193 
L 365.914682 162.665072 
L 365.932538 162.580385 
L 365.976367 163.096696 
L 366.07214 168.0254 
L 366.232844 190.012729 
L 366.487697 262.205999 
L 366.581847 289.927009 
L 366.637039 276.207732 
L 367.047727 176.579923 
L 367.274985 162.982449 
L 367.284724 162.962248 
L 367.31719 163.253449 
L 367.4016 166.711268 
L 367.552564 183.815085 
L 367.781446 240.104534 
L 367.94702 292.477401 
L 368.003834 276.351307 
L 368.404783 178.618263 
L 368.64178 162.669255 
L 368.659636 162.58045 
L 368.703465 163.086327 
L 368.799238 167.990152 
L 368.959942 189.926504 
L 369.213172 261.494863 
L 369.310569 289.925991 
L 369.36576 275.81418 
L 369.774825 176.631353 
L 370.002083 162.984508 
L 370.011823 162.962104 
L 370.045911 163.274674 
L 370.131945 166.896323 
L 370.284532 184.553866 
L 370.515037 242.035227 
L 370.674118 292.483843 
L 370.730932 276.499009 
L 371.131881 178.67344 
L 371.370502 162.658184 
L 371.388358 162.58051 
L 371.430563 163.076065 
L 371.526336 167.955027 
L 371.685417 189.523093 
L 371.937024 260.22545 
L 372.037667 289.929376 
L 372.092858 275.959925 
L 372.501923 176.682893 
L 372.729181 162.986665 
L 372.738921 162.962059 
L 372.774633 163.296656 
L 372.862289 167.086057 
L 373.0165 185.306938 
L 373.250252 244.507597 
L 373.401216 292.485022 
L 373.458031 276.646704 
L 373.858979 178.728723 
L 374.0976 162.662197 
L 374.115456 162.5804 
L 374.159284 163.104034 
L 374.256681 168.182068 
L 374.417385 190.394151 
L 374.673862 263.43314 
L 374.764765 289.929225 
L 374.819956 276.105588 
L 375.229021 176.734544 
L 375.456279 162.98892 
L 375.467642 162.962409 
L 375.501731 163.288431 
L 375.589388 167.056117 
L 375.743599 185.231773 
L 375.97735 244.36568 
L 376.128314 292.480933 
L 376.186752 276.24768 
L 376.5877 178.579616 
L 376.824698 162.66631 
L 376.842554 162.580393 
L 376.886383 163.09359 
L 376.982156 168.014868 
L 377.14286 189.986982 
L 377.397713 262.160844 
L 377.491863 289.92554 
L 377.547055 276.251167 
L 377.957743 176.595259 
L 378.185001 162.983053 
L 378.19474 162.962195 
L 378.228829 163.28031 
L 378.316486 167.026291 
L 378.470697 185.156748 
L 378.704448 244.223847 
L 378.857036 292.479873 
L 378.91385 276.395386 
L 379.314799 178.634718 
L 379.551796 162.670523 
L 379.571276 162.580647 
L 379.613481 163.083253 
L 379.709254 167.979657 
L 379.869958 189.900801 
L 380.123188 261.449745 
L 380.220585 289.927371 
L 380.275776 275.857682 
L 380.684841 176.646722 
L 380.912099 162.985141 
L 380.921839 162.96208 
L 380.955927 163.272293 
L 381.041961 166.887594 
L 381.194548 184.531843 
L 381.425053 241.993315 
L 381.584134 292.484746 
L 381.640948 276.543085 
L 382.041897 178.689927 
L 382.280518 162.659371 
L 382.298374 162.580466 
L 382.340579 163.073023 
L 382.436352 167.944569 
L 382.595433 189.497598 
L 382.84704 260.180411 
L 382.947683 289.929701 
L 383.002874 276.003403 
L 383.411939 176.698296 
L 383.639197 162.987327 
L 383.648937 162.962065 
L 383.684649 163.29419 
L 383.772305 167.07711 
L 383.926516 185.284492 
L 384.160268 244.465237 
L 384.311232 292.484353 
L 384.368047 276.690778 
L 384.768995 178.745242 
L 385.007616 162.663414 
L 385.025472 162.580388 
L 385.0693 163.100906 
L 385.166697 168.171374 
L 385.327401 190.36821 
L 385.583878 263.38793 
L 385.674781 289.928495 
L 385.729972 276.149042 
L 386.14066 176.559219 
L 386.367919 162.981647 
L 386.377658 162.962335 
L 386.410124 163.256568 
L 386.496157 166.82936 
L 386.648745 184.384569 
L 386.879249 241.71263 
L 387.03833 292.478694 
L 387.096768 276.291759 
L 387.497716 178.596049 
L 387.734714 162.667557 
L 387.75257 162.580411 
L 387.796399 163.090494 
L 387.892172 168.004347 
L 388.052876 189.961248 
L 388.307729 262.115691 
L 388.401879 289.923756 
L 388.457071 276.294595 
L 388.867759 176.610605 
L 389.095017 162.983666 
L 389.104756 162.96215 
L 389.138845 163.277907 
L 389.224879 166.908131 
L 389.377466 184.583638 
L 389.607971 242.09186 
L 389.767052 292.481878 
L 389.823866 276.439463 
L 390.224815 178.651183 
L 390.463436 162.656595 
L 390.481292 162.580583 
L 390.523497 163.080189 
L 390.61927 167.969173 
L 390.778351 189.557557 
L 391.029958 260.286301 
L 391.130601 289.928436 
L 391.185792 275.901177 
L 391.594857 176.662101 
L 391.822115 162.985783 
L 391.831855 162.962065 
L 391.865943 163.26992 
L 391.951977 166.878876 
L 392.104564 184.509833 
L 392.335069 241.951411 
L 392.49415 292.485181 
L 392.550964 276.587161 
L 392.951913 178.706423 
L 393.190534 162.660567 
L 393.20839 162.580432 
L 393.250595 163.06999 
L 393.346368 167.934121 
L 393.505449 189.472115 
L 393.757056 260.135375 
L 393.857699 289.929711 
L 393.91289 276.046873 
L 394.321955 176.713708 
L 394.549213 162.987999 
L 394.558953 162.96208 
L 394.594665 163.291734 
L 394.682321 167.068173 
L 394.836532 185.262059 
L 395.070284 244.422884 
L 395.221248 292.483215 
L 395.278063 276.734851 
L 395.680634 178.557431 
L 395.917632 162.66464 
L 395.935488 162.580384 
L 395.979316 163.097788 
L 396.075089 168.029098 
L 396.235793 190.021768 
L 396.490647 262.221847 
L 396.584797 289.927451 
L 396.639988 276.192487 
L 397.050676 176.574543 
L 397.277935 162.982239 
L 397.287674 162.962269 
L 397.32014 163.254257 
L 397.40455 166.714257 
L 397.555514 183.822669 
L 397.784396 240.119114 
L 397.949969 292.476423 
L 398.006784 276.335838 
L 398.407732 178.612491 
L 398.487273 170.265489 
L 398.487273 170.265489 
" style="fill:none;stroke:#1f77b4;stroke-linecap:square;stroke-width:1.5;"/>
   </g>
   <g id="patch_3">
    <path d="M 57.6 307.584 
L 57.6 41.472 
" style="fill:none;stroke:#000000;stroke-linecap:square;stroke-linejoin:miter;stroke-width:0.8;"/>
   </g>
   <g id="patch_4">
    <path d="M 414.72 307.584 
L 414.72 41.472 
" style="fill:none;stroke:#000000;stroke-linecap:square;stroke-linejoin:miter;stroke-width:0.8;"/>
   </g>
   <g id="patch_5">
    <path d="M 57.6 307.584 
L 414.72 307.584 
" style="fill:none;stroke:#000000;stroke-linecap:square;stroke-linejoin:miter;stroke-width:0.8;"/>
   </g>
   <g id="patch_6">
    <path d="M 57.6 41.472 
L 414.72 41.472 
" style="fill:none;stroke:#000000;stroke-linecap:square;stroke-linejoin:miter;stroke-width:0.8;"/>
   </g>
  </g>
 </g>
 <defs>
  <clipPath id="p5dae6283b5">
   <rect height="266.112" width="357.12" x="57.6" y="41.472"/>
  </clipPath>
 </defs>
</svg>
