<?xml version="1.0" encoding="utf-8" standalone="no"?>
<!DOCTYPE svg PUBLIC "-//W3C//DTD SVG 1.1//EN"
  "http://www.w3.org/Graphics/SVG/1.1/DTD/svg11.dtd">
<!-- Created with matplotlib (https://matplotlib.org/) -->
<svg height="345.6pt" version="1.1" viewBox="0 0 460.8 345.6" width="460.8pt" xmlns="http://www.w3.org/2000/svg" xmlns:xlink="http://www.w3.org/1999/xlink">
 <metadata>
  <rdf:RDF xmlns:cc="http://creativecommons.org/ns#" xmlns:dc="http://purl.org/dc/elements/1.1/" xmlns:rdf="http://www.w3.org/1999/02/22-rdf-syntax-ns#">
   <cc:Work>
    <dc:type rdf:resource="http://purl.org/dc/dcmitype/StillImage"/>
    <dc:date>2020-07-25T22:28:46.676802</dc:date>
    <dc:format>image/svg+xml</dc:format>
    <dc:creator>
     <cc:Agent>
      <dc:title>Matplotlib v3.3.0, https://matplotlib.org/</dc:title>
     </cc:Agent>
    </dc:creator>
   </cc:Work>
  </rdf:RDF>
 </metadata>
 <defs>
  <style type="text/css">*{stroke-linecap:butt;stroke-linejoin:round;}</style>
 </defs>
 <g id="figure_1">
  <g id="patch_1">
   <path d="M 0 345.6 
L 460.8 345.6 
L 460.8 0 
L 0 0 
z
" style="fill:#ffffff;"/>
  </g>
  <g id="axes_1">
   <g id="patch_2">
    <path d="M 57.6 307.584 
L 414.72 307.584 
L 414.72 41.472 
L 57.6 41.472 
z
" style="fill:#ffffff;"/>
   </g>
   <g id="matplotlib.axis_1">
    <g id="xtick_1">
     <g id="line2d_1">
      <defs>
       <path d="M 0 0 
L 0 3.5 
" id="md9998b8285" style="stroke:#000000;stroke-width:0.8;"/>
      </defs>
      <g>
       <use style="stroke:#000000;stroke-width:0.8;" x="73.832727" xlink:href="#md9998b8285" y="307.584"/>
      </g>
     </g>
     <g id="text_1">
      <!-- $\mathdefault{0}$ -->
      <g transform="translate(71.34206 321.502498)scale(0.1 -0.1)">
       <defs>
        <path d="M 42 31.640625 
C 42 37.75 41.90625 48.125 37.703125 56.109375 
C 34 63.109375 28.09375 65.59375 22.90625 65.59375 
C 18.09375 65.59375 12 63.40625 8.203125 56.203125 
C 4.203125 48.71875 3.796875 39.4375 3.796875 31.640625 
C 3.796875 25.953125 3.90625 17.28125 7 9.671875 
C 11.296875 -0.609375 19 -2 22.90625 -2 
C 27.5 -2 34.5 -0.109375 38.59375 9.375 
C 41.59375 16.28125 42 24.359375 42 31.640625 
z
M 22.90625 -0.40625 
C 16.5 -0.40625 12.703125 5.078125 11.296875 12.6875 
C 10.203125 18.5625 10.203125 27.15625 10.203125 32.75 
C 10.203125 40.4375 10.203125 46.828125 11.5 52.921875 
C 13.40625 61.390625 19 64 22.90625 64 
C 27 64 32.296875 61.296875 34.203125 53.125 
C 35.5 47.4375 35.59375 40.734375 35.59375 32.75 
C 35.59375 26.25 35.59375 18.265625 34.40625 12.375 
C 32.296875 1.484375 26.40625 -0.40625 22.90625 -0.40625 
z
" id="CMR17-48"/>
       </defs>
       <use transform="scale(0.996264)" xlink:href="#CMR17-48"/>
      </g>
     </g>
    </g>
    <g id="xtick_2">
     <g id="line2d_2">
      <g>
       <use style="stroke:#000000;stroke-width:0.8;" x="114.414545" xlink:href="#md9998b8285" y="307.584"/>
      </g>
     </g>
     <g id="text_2">
      <!-- $\mathdefault{25000}$ -->
      <g transform="translate(101.961207 321.502498)scale(0.1 -0.1)">
       <defs>
        <path d="M 41.703125 15.453125 
L 39.90625 15.453125 
C 38.90625 8.375 38.09375 7.171875 37.703125 6.5625 
C 37.203125 5.765625 30 5.765625 28.59375 5.765625 
L 9.40625 5.765625 
C 13 9.671875 20 16.75 28.5 24.953125 
C 34.59375 30.734375 41.703125 37.53125 41.703125 47.421875 
C 41.703125 59.21875 32.296875 66 21.796875 66 
C 10.796875 66 4.09375 56.3125 4.09375 47.34375 
C 4.09375 43.4375 7 42.9375 8.203125 42.9375 
C 9.203125 42.9375 12.203125 43.546875 12.203125 47.03125 
C 12.203125 50.109375 9.59375 51 8.203125 51 
C 7.59375 51 7 50.90625 6.59375 50.703125 
C 8.5 59.21875 14.296875 63.40625 20.40625 63.40625 
C 29.09375 63.40625 34.796875 56.515625 34.796875 47.421875 
C 34.796875 38.734375 29.703125 31.25 24 24.75 
L 4.09375 2.28125 
L 4.09375 0 
L 39.296875 0 
z
" id="CMR17-50"/>
        <path d="M 11.40625 57.6875 
C 12.40625 57.28125 16.5 56 20.703125 56 
C 30 56 35.09375 61.109375 38 64.0625 
C 38 64.953125 38 65.5 37.40625 65.5 
C 37.296875 65.5 37.09375 65.5 36.296875 65.046875 
C 32.796875 63.40625 28.703125 62.078125 23.703125 62.078125 
C 20.703125 62.078125 16.203125 62.484375 11.296875 64.671875 
C 10.203125 65.171875 10 65.171875 9.90625 65.171875 
C 9.40625 65.171875 9.296875 65.0625 9.296875 63.078125 
L 9.296875 34.421875 
C 9.296875 32.640625 9.296875 32.140625 10.296875 32.140625 
C 10.796875 32.140625 11 32.34375 11.5 33.03125 
C 14.703125 37.515625 19.09375 39.40625 24.09375 39.40625 
C 27.59375 39.40625 35.09375 37.21875 35.09375 20.140625 
C 35.09375 16.953125 35.09375 11.171875 32.09375 6.578125 
C 29.59375 2.484375 25.703125 0.390625 21.40625 0.390625 
C 14.796875 0.390625 8.09375 5 6.296875 12.71875 
C 6.703125 12.609375 7.5 12.421875 7.90625 12.421875 
C 9.203125 12.421875 11.703125 13.125 11.703125 16.21875 
C 11.703125 18.90625 9.796875 20 7.90625 20 
C 5.59375 20 4.09375 18.59375 4.09375 15.796875 
C 4.09375 7.09375 11 -2 21.59375 -2 
C 31.90625 -2 41.703125 6.875 41.703125 19.75 
C 41.703125 31.71875 33.90625 41 24.203125 41 
C 19.09375 41 14.796875 39.109375 11.40625 35.53125 
z
" id="CMR17-53"/>
       </defs>
       <use transform="scale(0.996264)" xlink:href="#CMR17-50"/>
       <use transform="translate(45.690477 0)scale(0.996264)" xlink:href="#CMR17-53"/>
       <use transform="translate(91.380954 0)scale(0.996264)" xlink:href="#CMR17-48"/>
       <use transform="translate(137.071431 0)scale(0.996264)" xlink:href="#CMR17-48"/>
       <use transform="translate(182.761908 0)scale(0.996264)" xlink:href="#CMR17-48"/>
      </g>
     </g>
    </g>
    <g id="xtick_3">
     <g id="line2d_3">
      <g>
       <use style="stroke:#000000;stroke-width:0.8;" x="154.996364" xlink:href="#md9998b8285" y="307.584"/>
      </g>
     </g>
     <g id="text_3">
      <!-- $\mathdefault{50000}$ -->
      <g transform="translate(142.543026 321.502498)scale(0.1 -0.1)">
       <use transform="scale(0.996264)" xlink:href="#CMR17-53"/>
       <use transform="translate(45.690477 0)scale(0.996264)" xlink:href="#CMR17-48"/>
       <use transform="translate(91.380954 0)scale(0.996264)" xlink:href="#CMR17-48"/>
       <use transform="translate(137.071431 0)scale(0.996264)" xlink:href="#CMR17-48"/>
       <use transform="translate(182.761908 0)scale(0.996264)" xlink:href="#CMR17-48"/>
      </g>
     </g>
    </g>
    <g id="xtick_4">
     <g id="line2d_4">
      <g>
       <use style="stroke:#000000;stroke-width:0.8;" x="195.578182" xlink:href="#md9998b8285" y="307.584"/>
      </g>
     </g>
     <g id="text_4">
      <!-- $\mathdefault{75000}$ -->
      <g transform="translate(183.124844 321.502498)scale(0.1 -0.1)">
       <defs>
        <path d="M 45.09375 61.578125 
L 45.09375 63.765625 
L 21.59375 63.765625 
C 9.90625 63.765625 9.703125 65.078125 9.296875 67 
L 7.5 67 
L 4.59375 48.34375 
L 6.40625 48.34375 
C 6.703125 50.234375 7.40625 55.3125 8.59375 57.203125 
C 9.203125 58 16.59375 58 18.296875 58 
L 40.296875 58 
L 29.203125 41.578125 
C 21.796875 30.53125 16.703125 15.609375 16.703125 2.578125 
C 16.703125 1.390625 16.703125 -2 20.296875 -2 
C 23.90625 -2 23.90625 1.390625 23.90625 2.671875 
L 23.90625 7.265625 
C 23.90625 23.5625 26.703125 34.3125 31.296875 41.1875 
z
" id="CMR17-55"/>
       </defs>
       <use transform="scale(0.996264)" xlink:href="#CMR17-55"/>
       <use transform="translate(45.690477 0)scale(0.996264)" xlink:href="#CMR17-53"/>
       <use transform="translate(91.380954 0)scale(0.996264)" xlink:href="#CMR17-48"/>
       <use transform="translate(137.071431 0)scale(0.996264)" xlink:href="#CMR17-48"/>
       <use transform="translate(182.761908 0)scale(0.996264)" xlink:href="#CMR17-48"/>
      </g>
     </g>
    </g>
    <g id="xtick_5">
     <g id="line2d_5">
      <g>
       <use style="stroke:#000000;stroke-width:0.8;" x="236.16" xlink:href="#md9998b8285" y="307.584"/>
      </g>
     </g>
     <g id="text_5">
      <!-- $\mathdefault{100000}$ -->
      <g transform="translate(221.215994 321.502498)scale(0.1 -0.1)">
       <defs>
        <path d="M 26.59375 63.40625 
C 26.59375 65.5 26.5 65.5 25.09375 65.5 
C 21.203125 61.1875 15.296875 59.796875 9.703125 59.796875 
C 9.40625 59.796875 8.90625 59.796875 8.796875 59.5 
C 8.703125 59.296875 8.703125 59.09375 8.703125 57 
C 11.796875 57 17 57.59375 21 59.984375 
L 21 7.203125 
C 21 3.6875 20.796875 2.5 12.203125 2.5 
L 9.203125 2.5 
L 9.203125 0 
C 14 0 19 0 23.796875 0 
C 28.59375 0 33.59375 0 38.40625 0 
L 38.40625 2.5 
L 35.40625 2.5 
C 26.796875 2.5 26.59375 3.59375 26.59375 7.15625 
z
" id="CMR17-49"/>
       </defs>
       <use transform="scale(0.996264)" xlink:href="#CMR17-49"/>
       <use transform="translate(45.690477 0)scale(0.996264)" xlink:href="#CMR17-48"/>
       <use transform="translate(91.380954 0)scale(0.996264)" xlink:href="#CMR17-48"/>
       <use transform="translate(137.071431 0)scale(0.996264)" xlink:href="#CMR17-48"/>
       <use transform="translate(182.761908 0)scale(0.996264)" xlink:href="#CMR17-48"/>
       <use transform="translate(228.452386 0)scale(0.996264)" xlink:href="#CMR17-48"/>
      </g>
     </g>
    </g>
    <g id="xtick_6">
     <g id="line2d_6">
      <g>
       <use style="stroke:#000000;stroke-width:0.8;" x="276.741818" xlink:href="#md9998b8285" y="307.584"/>
      </g>
     </g>
     <g id="text_6">
      <!-- $\mathdefault{125000}$ -->
      <g transform="translate(261.797812 321.502498)scale(0.1 -0.1)">
       <use transform="scale(0.996264)" xlink:href="#CMR17-49"/>
       <use transform="translate(45.690477 0)scale(0.996264)" xlink:href="#CMR17-50"/>
       <use transform="translate(91.380954 0)scale(0.996264)" xlink:href="#CMR17-53"/>
       <use transform="translate(137.071431 0)scale(0.996264)" xlink:href="#CMR17-48"/>
       <use transform="translate(182.761908 0)scale(0.996264)" xlink:href="#CMR17-48"/>
       <use transform="translate(228.452386 0)scale(0.996264)" xlink:href="#CMR17-48"/>
      </g>
     </g>
    </g>
    <g id="xtick_7">
     <g id="line2d_7">
      <g>
       <use style="stroke:#000000;stroke-width:0.8;" x="317.323636" xlink:href="#md9998b8285" y="307.584"/>
      </g>
     </g>
     <g id="text_7">
      <!-- $\mathdefault{150000}$ -->
      <g transform="translate(302.379631 321.502498)scale(0.1 -0.1)">
       <use transform="scale(0.996264)" xlink:href="#CMR17-49"/>
       <use transform="translate(45.690477 0)scale(0.996264)" xlink:href="#CMR17-53"/>
       <use transform="translate(91.380954 0)scale(0.996264)" xlink:href="#CMR17-48"/>
       <use transform="translate(137.071431 0)scale(0.996264)" xlink:href="#CMR17-48"/>
       <use transform="translate(182.761908 0)scale(0.996264)" xlink:href="#CMR17-48"/>
       <use transform="translate(228.452386 0)scale(0.996264)" xlink:href="#CMR17-48"/>
      </g>
     </g>
    </g>
    <g id="xtick_8">
     <g id="line2d_8">
      <g>
       <use style="stroke:#000000;stroke-width:0.8;" x="357.905455" xlink:href="#md9998b8285" y="307.584"/>
      </g>
     </g>
     <g id="text_8">
      <!-- $\mathdefault{175000}$ -->
      <g transform="translate(342.961449 321.502498)scale(0.1 -0.1)">
       <use transform="scale(0.996264)" xlink:href="#CMR17-49"/>
       <use transform="translate(45.690477 0)scale(0.996264)" xlink:href="#CMR17-55"/>
       <use transform="translate(91.380954 0)scale(0.996264)" xlink:href="#CMR17-53"/>
       <use transform="translate(137.071431 0)scale(0.996264)" xlink:href="#CMR17-48"/>
       <use transform="translate(182.761908 0)scale(0.996264)" xlink:href="#CMR17-48"/>
       <use transform="translate(228.452386 0)scale(0.996264)" xlink:href="#CMR17-48"/>
      </g>
     </g>
    </g>
    <g id="xtick_9">
     <g id="line2d_9">
      <g>
       <use style="stroke:#000000;stroke-width:0.8;" x="398.487273" xlink:href="#md9998b8285" y="307.584"/>
      </g>
     </g>
     <g id="text_9">
      <!-- $\mathdefault{200000}$ -->
      <g transform="translate(383.543267 321.502498)scale(0.1 -0.1)">
       <use transform="scale(0.996264)" xlink:href="#CMR17-50"/>
       <use transform="translate(45.690477 0)scale(0.996264)" xlink:href="#CMR17-48"/>
       <use transform="translate(91.380954 0)scale(0.996264)" xlink:href="#CMR17-48"/>
       <use transform="translate(137.071431 0)scale(0.996264)" xlink:href="#CMR17-48"/>
       <use transform="translate(182.761908 0)scale(0.996264)" xlink:href="#CMR17-48"/>
       <use transform="translate(228.452386 0)scale(0.996264)" xlink:href="#CMR17-48"/>
      </g>
     </g>
    </g>
   </g>
   <g id="matplotlib.axis_2">
    <g id="ytick_1">
     <g id="line2d_10">
      <defs>
       <path d="M 0 0 
L -3.5 0 
" id="m78dba7fdf5" style="stroke:#000000;stroke-width:0.8;"/>
      </defs>
      <g>
       <use style="stroke:#000000;stroke-width:0.8;" x="57.6" xlink:href="#m78dba7fdf5" y="297.326045"/>
      </g>
     </g>
     <g id="text_10">
      <!-- $\mathdefault{0.00}$ -->
      <g transform="translate(32.888586 300.785294)scale(0.1 -0.1)">
       <defs>
        <path d="M 18.40625 4.796875 
C 18.40625 7.6875 16 9.671875 13.59375 9.671875 
C 10.703125 9.671875 8.703125 7.28125 8.703125 4.890625 
C 8.703125 2 11.09375 0 13.5 0 
C 16.40625 0 18.40625 2.390625 18.40625 4.796875 
z
" id="CMMI12-58"/>
       </defs>
       <use transform="scale(0.996264)" xlink:href="#CMR17-48"/>
       <use transform="translate(45.690477 0)scale(0.996264)" xlink:href="#CMMI12-58"/>
       <use transform="translate(72.787654 0)scale(0.996264)" xlink:href="#CMR17-48"/>
       <use transform="translate(118.478131 0)scale(0.996264)" xlink:href="#CMR17-48"/>
      </g>
     </g>
    </g>
    <g id="ytick_2">
     <g id="line2d_11">
      <g>
       <use style="stroke:#000000;stroke-width:0.8;" x="57.6" xlink:href="#m78dba7fdf5" y="252.11856"/>
      </g>
     </g>
     <g id="text_11">
      <!-- $\mathdefault{0.05}$ -->
      <g transform="translate(32.888586 255.577809)scale(0.1 -0.1)">
       <use transform="scale(0.996264)" xlink:href="#CMR17-48"/>
       <use transform="translate(45.690477 0)scale(0.996264)" xlink:href="#CMMI12-58"/>
       <use transform="translate(72.787654 0)scale(0.996264)" xlink:href="#CMR17-48"/>
       <use transform="translate(118.478131 0)scale(0.996264)" xlink:href="#CMR17-53"/>
      </g>
     </g>
    </g>
    <g id="ytick_3">
     <g id="line2d_12">
      <g>
       <use style="stroke:#000000;stroke-width:0.8;" x="57.6" xlink:href="#m78dba7fdf5" y="206.911075"/>
      </g>
     </g>
     <g id="text_12">
      <!-- $\mathdefault{0.10}$ -->
      <g transform="translate(32.888586 210.370324)scale(0.1 -0.1)">
       <use transform="scale(0.996264)" xlink:href="#CMR17-48"/>
       <use transform="translate(45.690477 0)scale(0.996264)" xlink:href="#CMMI12-58"/>
       <use transform="translate(72.787654 0)scale(0.996264)" xlink:href="#CMR17-49"/>
       <use transform="translate(118.478131 0)scale(0.996264)" xlink:href="#CMR17-48"/>
      </g>
     </g>
    </g>
    <g id="ytick_4">
     <g id="line2d_13">
      <g>
       <use style="stroke:#000000;stroke-width:0.8;" x="57.6" xlink:href="#m78dba7fdf5" y="161.70359"/>
      </g>
     </g>
     <g id="text_13">
      <!-- $\mathdefault{0.15}$ -->
      <g transform="translate(32.888586 165.162839)scale(0.1 -0.1)">
       <use transform="scale(0.996264)" xlink:href="#CMR17-48"/>
       <use transform="translate(45.690477 0)scale(0.996264)" xlink:href="#CMMI12-58"/>
       <use transform="translate(72.787654 0)scale(0.996264)" xlink:href="#CMR17-49"/>
       <use transform="translate(118.478131 0)scale(0.996264)" xlink:href="#CMR17-53"/>
      </g>
     </g>
    </g>
    <g id="ytick_5">
     <g id="line2d_14">
      <g>
       <use style="stroke:#000000;stroke-width:0.8;" x="57.6" xlink:href="#m78dba7fdf5" y="116.496105"/>
      </g>
     </g>
     <g id="text_14">
      <!-- $\mathdefault{0.20}$ -->
      <g transform="translate(32.888586 119.955354)scale(0.1 -0.1)">
       <use transform="scale(0.996264)" xlink:href="#CMR17-48"/>
       <use transform="translate(45.690477 0)scale(0.996264)" xlink:href="#CMMI12-58"/>
       <use transform="translate(72.787654 0)scale(0.996264)" xlink:href="#CMR17-50"/>
       <use transform="translate(118.478131 0)scale(0.996264)" xlink:href="#CMR17-48"/>
      </g>
     </g>
    </g>
    <g id="ytick_6">
     <g id="line2d_15">
      <g>
       <use style="stroke:#000000;stroke-width:0.8;" x="57.6" xlink:href="#m78dba7fdf5" y="71.28862"/>
      </g>
     </g>
     <g id="text_15">
      <!-- $\mathdefault{0.25}$ -->
      <g transform="translate(32.888586 74.747869)scale(0.1 -0.1)">
       <use transform="scale(0.996264)" xlink:href="#CMR17-48"/>
       <use transform="translate(45.690477 0)scale(0.996264)" xlink:href="#CMMI12-58"/>
       <use transform="translate(72.787654 0)scale(0.996264)" xlink:href="#CMR17-50"/>
       <use transform="translate(118.478131 0)scale(0.996264)" xlink:href="#CMR17-53"/>
      </g>
     </g>
    </g>
   </g>
   <g id="line2d_16">
    <path clip-path="url(#p83932fa6d9)" d="M 73.832727 139.099847 
L 74.256401 139.179783 
L 74.275881 142.43584 
L 74.329449 174.838791 
L 74.381393 140.530004 
L 74.404119 138.342735 
L 74.449571 145.978896 
L 74.524241 155.575705 
L 74.555084 144.560232 
L 74.574563 139.311856 
L 74.668713 142.87445 
L 74.792081 144.31215 
L 74.983628 133.628406 
L 74.857012 145.300623 
L 75.037196 139.426826 
L 75.092387 142.241591 
L 75.155695 139.983153 
L 75.264454 141.599745 
L 75.171927 139.817422 
L 75.397562 141.293984 
L 75.568006 139.993294 
L 75.452753 141.629395 
L 75.587485 140.163454 
L 75.683258 143.12578 
L 75.751436 142.143385 
L 75.759552 142.095872 
L 75.824483 142.862271 
L 75.861818 143.195749 
L 75.925126 142.637025 
L 75.926749 142.650777 
L 75.928372 142.63486 
L 75.980317 143.202539 
L 76.235171 146.598452 
L 76.304972 147.426795 
L 77.136087 161.798995 
L 77.892532 185.756189 
L 78.238289 200.894161 
L 78.725271 231.12705 
L 79.369711 289.037532 
L 79.444381 295.488 
L 79.499572 291.058266 
L 81.166673 140.211161 
L 81.8939 113.146164 
L 82.673071 97.028084 
L 83.137327 91.311966 
L 83.333743 89.559139 
L 83.728198 87.028638 
L 83.765533 87.089989 
L 83.961949 87.842513 
L 85.070644 97.147107 
L 85.523537 103.463563 
L 86.312448 119.454244 
L 86.901696 136.778625 
L 87.822092 172.983723 
L 89.5525 238.727789 
L 89.955072 246.715731 
L 90.27161 249.429371 
L 90.388486 249.668522 
L 90.438807 249.610464 
L 90.606004 249.257985 
L 90.90631 247.774875 
L 91.380305 243.793454 
L 91.732556 239.236191 
L 92.258496 229.242079 
L 94.630097 178.34018 
L 94.863849 177.603881 
L 95.074874 177.609646 
L 95.300509 177.616884 
L 95.914106 177.775117 
L 96.078057 178.298026 
L 96.415697 180.359404 
L 96.991959 186.358082 
L 98.051956 199.094675 
L 98.422063 211.621825 
L 99.160652 236.815225 
L 99.457711 240.688434 
L 99.530758 240.846374 
L 99.582703 240.749479 
L 99.710941 239.794977 
L 99.921967 236.293592 
L 100.725487 222.015757 
L 101.43161 216.771353 
L 101.44622 216.780949 
L 101.509527 216.989227 
L 101.644259 218.440245 
L 101.87314 223.771576 
L 102.442909 237.211037 
L 102.51758 237.434291 
L 102.569524 237.308109 
L 102.69127 236.139436 
L 102.889309 231.731703 
L 103.173382 219.989295 
L 103.608419 191.087814 
L 104.12462 160.995543 
L 104.39246 155.815722 
L 104.564527 155.208324 
L 104.579136 155.213258 
L 104.668416 155.385713 
L 104.848599 156.358378 
L 105.09209 159.002559 
L 105.379409 164.766454 
L 105.791721 178.361155 
L 106.411811 197.849673 
L 106.497844 198.297606 
L 106.549789 198.124406 
L 106.658548 196.626941 
L 106.854964 190.231336 
L 107.298118 166.263242 
L 107.729908 148.56923 
L 108.007488 144.680455 
L 108.090275 144.442534 
L 108.138973 144.561998 
L 108.234746 145.588765 
L 108.374348 149.969657 
L 108.565894 164.383755 
L 109.054499 219.631384 
L 109.151895 214.093901 
L 109.325585 181.568706 
L 109.606412 135.554229 
L 109.630761 136.096081 
L 110.0171 158.35838 
L 110.213516 218.701175 
L 110.310912 238.670601 
L 110.35961 231.175748 
L 110.911523 98.633918 
L 110.986193 93.617313 
L 111.036515 97.043673 
L 111.143651 129.326302 
L 111.385519 211.005785 
L 111.434217 202.614656 
L 111.958534 59.895903 
L 112.023465 53.568 
L 112.07054 59.234727 
L 112.236113 129.379374 
L 112.32864 152.242004 
L 112.380585 142.749094 
L 112.525056 99.414874 
L 112.607843 100.560947 
L 112.635439 100.583992 
L 112.706863 100.51089 
L 112.762054 99.980099 
L 112.85945 96.038889 
L 112.989312 88.648551 
L 113.036387 91.883736 
L 113.124044 122.503821 
L 113.283124 200.265424 
L 113.344809 182.827278 
L 113.622388 97.535093 
L 113.800948 95.242653 
L 113.823674 95.351392 
L 113.895098 97.173333 
L 114.028207 106.60969 
L 114.125603 140.923649 
L 114.263581 212.489934 
L 114.325265 191.390963 
L 114.599599 96.227922 
L 114.752186 94.948248 
L 114.763549 94.96883 
L 114.812247 95.600786 
L 114.896657 99.829986 
L 114.971328 120.904284 
L 115.122292 215.798395 
L 115.196963 180.799299 
L 115.429091 76.262342 
L 115.45344 76.893061 
L 115.709917 94.705246 
L 115.792704 109.264922 
L 115.914449 193.271148 
L 115.992367 240.625614 
L 116.047558 214.912119 
L 116.326761 88.897402 
L 116.347863 88.348153 
L 116.409548 90.375919 
L 116.601094 102.686573 
L 116.717969 160.671143 
L 116.859194 283.877607 
L 116.920879 231.877693 
L 117.170863 100.207712 
L 117.367279 84.575456 
L 117.377018 84.638841 
L 117.424093 86.94958 
L 117.50688 103.844892 
L 117.631872 190.357414 
L 117.722775 291.051472 
L 117.77959 230.361506 
L 118.010095 98.410992 
L 118.068532 95.5997 
L 118.128593 97.593585 
L 118.269818 112.973177 
L 118.406173 157.210915 
L 118.581487 273.788209 
L 118.652911 228.525147 
L 118.894778 126.941614 
L 118.974319 123.289931 
L 119.02951 124.417526 
L 119.12366 132.728884 
L 119.253521 168.902373 
L 119.433705 265.826941 
L 119.506752 231.935105 
L 119.753489 145.970172 
L 119.811927 143.870075 
L 119.868742 145.612818 
L 119.980748 159.13716 
L 120.143075 210.977876 
L 120.281053 270.523186 
L 120.341114 251.707557 
L 120.630057 166.020026 
L 120.703104 163.170707 
L 120.755049 164.743357 
L 120.854068 177.717048 
L 121.022889 236.498501 
L 121.117039 268.534631 
L 121.17223 255.062796 
L 121.480652 175.544474 
L 121.522857 174.626405 
L 121.576425 176.108536 
L 121.677068 188.078619 
L 121.842641 240.668914 
L 121.949777 279.083603 
L 122.004969 263.76909 
L 122.311767 182.733452 
L 122.379945 180.31647 
L 122.433513 181.810584 
L 122.529286 193.857255 
L 122.698106 250.459689 
L 122.782516 278.356255 
L 122.836084 263.412667 
L 123.142883 181.474477 
L 123.214307 178.993155 
L 123.267875 180.461858 
L 123.363648 192.145206 
L 123.525975 245.90153 
L 123.623372 282.84155 
L 123.678563 265.006441 
L 123.980492 179.41406 
L 124.074641 175.084323 
L 124.12334 176.423321 
L 124.215866 188.086885 
L 124.37657 243.48213 
L 124.472343 280.063205 
L 124.527535 262.247829 
L 124.826217 176.016457 
L 124.913873 172.104513 
L 124.964195 173.504317 
L 125.058345 185.440162 
L 125.220672 241.008154 
L 125.322938 281.92472 
L 125.378129 263.389221 
L 125.678435 174.514163 
L 125.772585 169.965322 
L 125.821283 171.391429 
L 125.915433 183.718253 
L 126.079383 241.53572 
L 126.175156 278.189412 
L 126.230348 260.692145 
L 126.532276 172.703953 
L 126.611817 169.446833 
L 126.663761 171.033532 
L 126.762781 184.14049 
L 126.929978 242.769648 
L 127.025751 279.813108 
L 127.080943 262.127864 
L 127.384495 172.926444 
L 127.470528 168.995823 
L 127.520849 170.434331 
L 127.616623 182.93492 
L 127.782196 241.040757 
L 127.876346 276.183068 
L 127.931537 259.879093 
L 128.236713 172.547273 
L 128.308137 169.901811 
L 128.361705 171.455878 
L 128.460724 184.268398 
L 128.627921 241.915245 
L 128.725318 279.229681 
L 128.780509 262.240568 
L 129.085684 174.037929 
L 129.170095 170.392312 
L 129.220416 171.865977 
L 129.316189 184.448117 
L 129.481763 242.503393 
L 129.574289 276.28682 
L 129.629481 259.944895 
L 129.933033 174.110977 
L 130.00608 171.374094 
L 130.059648 172.922009 
L 130.157044 185.47653 
L 130.324241 242.918436 
L 130.421638 279.854295 
L 130.476829 262.573735 
L 130.780381 175.27625 
L 130.866415 171.406344 
L 130.916736 172.829881 
L 131.010886 185.078957 
L 131.17646 242.898044 
L 131.268986 276.80606 
L 131.324177 260.569525 
L 131.629353 174.522656 
L 131.7024 171.779177 
L 131.755968 173.351034 
L 131.854988 186.366988 
L 132.023808 245.196013 
L 132.116335 280.300828 
L 132.171526 263.182348 
L 132.476701 175.207282 
L 132.562735 171.362194 
L 132.613056 172.82132 
L 132.707206 185.16776 
L 132.87278 243.141972 
L 132.965306 276.994766 
L 133.020497 260.480484 
L 133.324049 174.3458 
L 133.39872 171.518263 
L 133.450665 173.020977 
L 133.548061 185.475735 
L 133.713635 241.983998 
L 133.812655 280.359879 
L 133.867846 263.217582 
L 134.173021 174.932475 
L 134.259055 171.079248 
L 134.309376 172.525246 
L 134.403526 184.808209 
L 134.5691 242.719587 
L 134.661626 276.962382 
L 134.716817 260.627254 
L 135.020369 174.149013 
L 135.09504 171.269438 
L 135.148608 172.822468 
L 135.246004 185.400455 
L 135.413201 242.965595 
L 135.510598 280.208192 
L 135.565789 262.693466 
L 135.869341 174.837104 
L 135.956998 170.913344 
L 136.007319 172.411207 
L 136.103092 185.172064 
L 136.270289 244.523271 
L 136.359569 276.849207 
L 136.413137 260.921847 
L 136.719936 173.902213 
L 136.792983 171.199738 
L 136.844928 172.708117 
L 136.942324 185.195659 
L 137.107898 241.831019 
L 137.206918 280.104966 
L 137.262109 262.998933 
L 137.567284 174.762197 
L 137.653318 170.934443 
L 137.703639 172.402122 
L 137.799412 185.081746 
L 137.966609 244.240673 
L 138.055889 276.818223 
L 138.111081 260.489617 
L 138.416256 174.012534 
L 138.489303 171.280038 
L 138.542871 172.860949 
L 138.641891 185.849678 
L 138.810711 244.651491 
L 138.904861 280.116978 
L 138.960052 262.509987 
L 139.263604 174.884785 
L 139.349638 171.024761 
L 139.399959 172.465532 
L 139.494109 184.731111 
L 139.659683 242.573634 
L 139.752209 276.849433 
L 139.807401 260.692414 
L 140.112576 174.108832 
L 140.185623 171.346539 
L 140.239191 172.89785 
L 140.336588 185.478305 
L 140.503785 243.001683 
L 140.601181 280.159434 
L 140.656372 262.694855 
L 140.959924 174.950862 
L 141.047581 171.047532 
L 141.097903 172.556685 
L 141.193676 185.341175 
L 141.360873 244.687767 
L 141.448529 276.870079 
L 141.503721 260.874256 
L 141.808896 174.137137 
L 141.883567 171.336495 
L 141.935511 172.859368 
L 142.032908 185.378737 
L 142.198481 242.056758 
L 142.297501 280.167972 
L 142.352692 262.89036 
L 142.657868 174.823874 
L 142.743901 171.02216 
L 142.794223 172.505445 
L 142.889996 185.226392 
L 143.057193 244.464196 
L 143.146473 276.872445 
L 143.201664 260.356684 
L 143.505216 174.147903 
L 143.579887 171.313652 
L 143.631831 172.811779 
L 143.729228 185.268016 
L 143.894801 241.82465 
L 143.993821 280.160119 
L 144.049012 263.105215 
L 144.354188 174.85045 
L 144.440221 171.009864 
L 144.490543 172.465717 
L 144.584692 184.773413 
L 144.750266 242.70567 
L 144.842793 276.865596 
L 144.897984 260.567382 
L 145.203159 174.056008 
L 145.276207 171.310105 
L 145.329775 172.877118 
L 145.428794 185.833945 
L 145.597615 244.602801 
L 145.691764 280.154542 
L 145.746956 262.586505 
L 146.050508 174.895076 
L 146.136541 171.011243 
L 146.188486 172.535106 
L 146.284259 185.354464 
L 146.451456 244.759353 
L 146.539113 276.858822 
L 146.594304 260.777839 
L 146.899479 174.095297 
L 146.97415 171.312506 
L 147.026095 172.849522 
L 147.123491 185.399707 
L 147.290688 242.875769 
L 147.388084 280.156348 
L 147.443276 262.802162 
L 147.746828 174.940598 
L 147.834484 171.013657 
L 147.884806 172.508704 
L 147.980579 185.257463 
L 148.147776 244.541282 
L 148.237056 276.859822 
L 148.292247 260.267397 
L 148.595799 174.133424 
L 148.67047 171.314894 
L 148.722415 172.824463 
L 148.819811 185.307735 
L 148.985385 241.912681 
L 149.084404 280.156916 
L 149.139596 263.015246 
L 149.444771 174.83995 
L 149.530804 171.016354 
L 149.581126 172.483778 
L 149.676899 185.162276 
L 149.844096 244.324893 
L 149.933376 276.864284 
L 149.988567 260.475724 
L 150.292119 174.170421 
L 150.36679 171.316914 
L 150.418735 172.799022 
L 150.516131 185.214471 
L 150.681705 241.698979 
L 150.780724 280.154341 
L 150.837539 262.490455 
L 151.141091 174.881587 
L 151.227124 171.016915 
L 151.277446 172.455944 
L 151.371596 184.723381 
L 151.537169 242.587293 
L 151.629696 276.863895 
L 151.684887 260.682649 
L 151.990063 174.082398 
L 152.06311 171.316232 
L 152.116678 172.866716 
L 152.214074 185.449254 
L 152.381271 242.981578 
L 152.478668 280.157839 
L 152.533859 262.702576 
L 152.837411 174.921992 
L 152.925068 171.015368 
L 152.975389 172.523907 
L 153.071162 185.306023 
L 153.238359 244.646458 
L 153.327639 276.859873 
L 153.381207 260.890886 
L 153.686383 174.116524 
L 153.761053 171.314722 
L 153.812998 172.837191 
L 153.910394 185.351848 
L 154.075968 242.013241 
L 154.174988 280.158522 
L 154.230179 262.915808 
L 154.535354 174.819411 
L 154.621388 171.014653 
L 154.671709 172.494984 
L 154.767482 185.206082 
L 154.934679 244.425315 
L 155.023959 276.863472 
L 155.079151 260.379105 
L 155.382703 174.152195 
L 155.457373 171.314834 
L 155.509318 172.809564 
L 155.606714 185.25612 
L 155.772288 241.796466 
L 155.871308 280.155904 
L 155.926499 263.128445 
L 156.231674 174.861163 
L 156.317708 171.015202 
L 156.368029 172.467178 
L 156.462179 184.766565 
L 156.627753 242.685956 
L 156.720279 276.863975 
L 156.775471 260.587715 
L 157.080646 174.065569 
L 157.153693 171.31538 
L 157.207261 172.879046 
L 157.306281 185.829391 
L 157.475101 244.588072 
L 157.569251 280.155244 
L 157.624442 262.605697 
L 157.927994 174.90295 
L 158.014028 171.015576 
L 158.065972 172.53731 
L 158.161745 185.351918 
L 158.328943 244.746858 
L 158.416599 276.860987 
L 158.471791 260.79594 
L 158.776966 174.100831 
L 158.851636 171.31546 
L 158.903581 172.850678 
L 159.000977 185.396406 
L 159.168175 242.862837 
L 159.265571 280.158467 
L 159.320762 262.818494 
L 159.624314 174.944605 
L 159.711971 171.015323 
L 159.762292 172.50858 
L 159.858065 185.252144 
L 160.025263 244.526669 
L 160.114543 276.862239 
L 160.169734 260.283233 
L 160.473286 174.136245 
L 160.547956 171.31522 
L 160.599901 172.822657 
L 160.697297 185.300372 
L 160.862871 241.896134 
L 160.961891 280.157768 
L 161.017082 263.030987 
L 161.322257 174.842341 
L 161.408291 171.015254 
L 161.458612 172.480198 
L 161.554385 185.152678 
L 161.721583 244.306491 
L 161.810863 276.8643 
L 161.866054 260.491982 
L 162.169606 174.171988 
L 162.244276 171.315238 
L 162.296221 172.79487 
L 162.393617 185.204582 
L 162.559191 241.679791 
L 162.658211 280.153129 
L 162.715025 262.50799 
L 163.018577 174.883752 
L 163.104611 171.015352 
L 163.154932 172.451996 
L 163.249082 184.71375 
L 163.414656 242.567593 
L 163.507183 276.862839 
L 163.562374 260.700431 
L 163.867549 174.084529 
L 163.940596 171.315422 
L 163.994164 172.86358 
L 164.091561 185.440552 
L 164.258758 242.962412 
L 164.356154 280.157481 
L 164.411345 262.720911 
L 164.714897 174.925369 
L 164.802554 171.015399 
L 164.852876 172.521655 
L 164.948649 185.297803 
L 165.115846 244.627577 
L 165.205126 276.860138 
L 165.258694 260.908574 
L 165.563869 174.11991 
L 165.63854 171.315246 
L 165.690484 172.835421 
L 165.787881 185.344303 
L 165.953455 241.995298 
L 166.052474 280.158545 
L 166.107665 262.933574 
L 166.412841 174.823409 
L 166.498874 171.015227 
L 166.549196 172.49314 
L 166.644969 185.198182 
L 166.812166 244.407372 
L 166.901446 276.863758 
L 166.956637 260.396308 
L 167.260189 174.155566 
L 167.33486 171.315186 
L 167.386804 172.807553 
L 167.484201 185.248419 
L 167.649775 241.778924 
L 167.748794 280.155716 
L 167.803985 263.14594 
L 168.109161 174.864742 
L 168.195194 171.015271 
L 168.245516 172.46488 
L 168.339665 184.758556 
L 168.505239 242.668083 
L 168.597766 276.863921 
L 168.652957 260.60491 
L 168.958132 174.068403 
L 169.03118 171.315315 
L 169.084748 172.876631 
L 169.183767 185.821316 
L 169.352588 244.570096 
L 169.446737 280.1557 
L 169.501929 262.623323 
L 169.805481 174.906271 
L 169.891514 171.015526 
L 169.943459 172.534885 
L 170.039232 185.343665 
L 170.206429 244.728622 
L 170.294086 276.86062 
L 170.349277 260.813182 
L 170.654452 174.103672 
L 170.729123 171.315386 
L 170.781068 172.848322 
L 170.878464 185.388415 
L 171.045661 242.844784 
L 171.143057 280.158552 
L 171.198249 262.836083 
L 171.501801 174.948034 
L 171.589457 171.01529 
L 171.639779 172.506194 
L 171.735552 185.243828 
L 171.902749 244.508351 
L 171.992029 276.862536 
L 172.04722 260.300526 
L 172.350772 174.139192 
L 172.425443 171.315189 
L 172.477388 172.8203 
L 172.574784 185.292342 
L 172.740358 241.878127 
L 172.839377 280.157502 
L 172.894569 263.048583 
L 173.199744 174.845757 
L 173.285777 171.015215 
L 173.336099 172.477795 
L 173.431872 185.144375 
L 173.599069 244.288192 
L 173.688349 276.864273 
L 173.74354 260.509295 
L 174.047092 174.174946 
L 174.121763 171.315218 
L 174.173708 172.792545 
L 174.271104 185.196635 
L 174.436678 241.66184 
L 174.537321 280.153085 
L 174.592512 262.525687 
L 174.896064 174.887193 
L 174.982097 171.015373 
L 175.032419 172.449683 
L 175.126569 184.705683 
L 175.292143 242.549423 
L 175.384669 276.862559 
L 175.43986 260.717725 
L 175.745036 174.087467 
L 175.818083 171.315478 
L 175.871651 172.861268 
L 175.969047 185.432594 
L 176.136244 242.944409 
L 176.233641 280.157728 
L 176.288832 262.738554 
L 176.592384 174.928856 
L 176.680041 171.015408 
L 176.730362 172.519315 
L 176.826135 185.28956 
L 176.993332 244.609341 
L 177.082612 276.860586 
L 177.13618 260.9258 
L 177.441356 174.122877 
L 177.516026 171.315252 
L 177.567971 172.833117 
L 177.665367 185.33635 
L 177.830941 241.977372 
L 177.929961 280.158468 
L 177.985152 262.951173 
L 178.290327 174.826832 
L 178.376361 171.01522 
L 178.426682 172.490781 
L 178.522455 185.189931 
L 178.689652 244.389133 
L 178.778932 276.863905 
L 178.834124 260.413605 
L 179.137676 174.158523 
L 179.212346 171.315176 
L 179.264291 172.805238 
L 179.361687 185.240475 
L 179.527261 241.760995 
L 179.626281 280.155303 
L 179.683095 262.427999 
L 179.986647 174.868164 
L 180.072681 171.01527 
L 180.123002 172.462538 
L 180.217152 184.750448 
L 180.382726 242.649908 
L 180.475252 276.863774 
L 180.530444 260.622193 
L 180.835619 174.071309 
L 180.908666 171.31533 
L 180.962234 172.874271 
L 181.059631 185.476854 
L 181.226828 243.044076 
L 181.324224 280.156083 
L 181.379415 262.640974 
L 181.682967 174.909723 
L 181.770624 171.015576 
L 181.820945 172.532498 
L 181.916719 185.335375 
L 182.083916 244.710353 
L 182.171572 276.860192 
L 182.226764 260.830432 
L 182.531939 174.106611 
L 182.606609 171.315365 
L 182.658554 172.845992 
L 182.755951 185.380436 
L 182.921524 242.076656 
L 183.020544 280.158614 
L 183.075735 262.853707 
L 183.379287 174.951511 
L 183.466944 171.015277 
L 183.517265 172.503829 
L 183.613039 185.235568 
L 183.780236 244.490096 
L 183.869516 276.862811 
L 183.924707 260.317844 
L 184.228259 174.142148 
L 184.302929 171.315182 
L 184.354874 172.817988 
L 184.452271 185.284392 
L 184.617844 241.86019 
L 184.716864 280.157239 
L 184.772055 263.066188 
L 185.077231 174.849183 
L 185.163264 171.015217 
L 185.213585 172.475452 
L 185.309359 185.136148 
L 185.476556 244.269946 
L 185.565836 276.864262 
L 185.621027 260.526588 
L 185.924579 174.177919 
L 185.999249 171.315231 
L 186.051194 172.790257 
L 186.148591 185.18872 
L 186.314164 241.643919 
L 186.414807 280.153618 
L 186.469999 262.543344 
L 186.773551 174.890638 
L 186.859584 171.015398 
L 186.909905 172.447367 
L 187.004055 184.697602 
L 187.169629 242.53126 
L 187.262156 276.862263 
L 187.317347 260.734988 
L 187.622522 174.090394 
L 187.697193 171.315526 
L 187.749137 172.858925 
L 187.846534 185.424602 
L 188.013731 242.926396 
L 188.111127 280.157938 
L 188.166319 262.756189 
L 188.469871 174.932321 
L 188.557527 171.015384 
L 188.607849 172.516939 
L 188.703622 185.281286 
L 188.870819 244.591082 
L 188.960099 276.860993 
L 189.013667 260.943032 
L 189.320465 174.004285 
L 189.393513 171.315237 
L 189.445457 172.830795 
L 189.542854 185.328387 
L 189.708428 241.959427 
L 189.807447 280.158354 
L 189.862639 262.968787 
L 190.167814 174.830249 
L 190.253847 171.015214 
L 190.304169 172.488428 
L 190.399942 185.181689 
L 190.567139 244.370882 
L 190.656419 276.864025 
L 190.71161 260.430911 
L 191.015162 174.161487 
L 191.089833 171.315179 
L 191.141777 172.802939 
L 191.239174 185.232544 
L 191.404748 241.743066 
L 191.503767 280.154865 
L 191.560582 262.445664 
L 191.864134 174.8716 
L 191.950167 171.015285 
L 192.000489 172.460209 
L 192.094639 184.74235 
L 192.260212 242.631739 
L 192.352739 276.863608 
L 192.40793 260.639469 
L 192.713105 174.074226 
L 192.786153 171.315354 
L 192.839721 172.871916 
L 192.937117 185.468847 
L 193.104314 243.026055 
L 193.201711 280.156442 
L 193.256902 262.658619 
L 193.560454 174.913179 
L 193.648111 171.015543 
L 193.698432 172.530111 
L 193.794205 185.327086 
L 193.961402 244.69209 
L 194.049059 276.859741 
L 194.10425 260.847678 
L 194.409425 174.109548 
L 194.484096 171.315341 
L 194.536041 172.84366 
L 194.633437 185.37246 
L 194.799011 242.058704 
L 194.898031 280.158648 
L 194.953222 262.871332 
L 195.256774 174.954985 
L 195.344431 171.015262 
L 195.394752 172.501465 
L 195.490525 185.227311 
L 195.657722 244.471841 
L 195.747002 276.863063 
L 195.802193 260.335162 
L 196.105745 174.145104 
L 196.180416 171.315177 
L 196.232361 172.815678 
L 196.329757 185.276446 
L 196.495331 241.842254 
L 196.594351 280.15695 
L 196.649542 263.083792 
L 196.954717 174.852611 
L 197.040751 171.015223 
L 197.091072 172.473113 
L 197.186845 185.127924 
L 197.354042 244.251701 
L 197.443322 276.864227 
L 197.498513 260.543878 
L 197.803689 174.058108 
L 197.876736 171.315245 
L 197.930304 172.884965 
L 198.029324 185.85 
L 198.198144 244.634089 
L 198.292294 280.154125 
L 198.347485 262.560998 
L 198.651037 174.894085 
L 198.737071 171.015424 
L 198.787392 172.445052 
L 198.881542 184.689521 
L 199.047116 242.513098 
L 199.139642 276.861942 
L 199.194833 260.752248 
L 199.500009 174.093322 
L 199.574679 171.315494 
L 199.626624 172.856583 
L 199.72402 185.416612 
L 199.891217 242.908383 
L 199.988614 280.158121 
L 200.043805 262.773823 
L 200.347357 174.935787 
L 200.435014 171.015361 
L 200.485335 172.514564 
L 200.581108 185.273015 
L 200.748305 244.572823 
L 200.837585 276.861375 
L 200.891153 260.960263 
L 201.197952 174.007165 
L 201.270999 171.315223 
L 201.322944 172.828475 
L 201.42034 185.320427 
L 201.585914 241.941483 
L 201.684934 280.158213 
L 201.740125 262.9864 
L 202.0453 174.833669 
L 202.131334 171.015211 
L 202.181655 172.486078 
L 202.277428 185.173449 
L 202.444625 244.352633 
L 202.533905 276.864121 
L 202.589097 260.448213 
L 202.892649 174.164454 
L 202.967319 171.315185 
L 203.019264 172.800642 
L 203.11666 185.224615 
L 203.282234 241.725138 
L 203.381254 280.1544 
L 203.438068 262.463326 
L 203.74162 174.875039 
L 203.827654 171.015302 
L 203.877975 172.457883 
L 203.972125 184.734254 
L 204.137699 242.613572 
L 204.230225 276.863418 
L 204.285417 260.656743 
L 204.590592 174.077146 
L 204.663639 171.315379 
L 204.717207 172.869563 
L 204.814604 185.460842 
L 204.981801 243.008035 
L 205.079197 280.156773 
L 205.134388 262.676262 
L 205.43794 174.916636 
L 205.525597 171.01551 
L 205.575919 172.527725 
L 205.671692 185.3188 
L 205.838889 244.673827 
L 205.926545 276.859265 
L 205.981737 260.864923 
L 206.286912 174.112487 
L 206.361583 171.315318 
L 206.413527 172.84133 
L 206.510924 185.364486 
L 206.676497 242.040753 
L 206.775517 280.158656 
L 206.830708 262.888954 
L 207.135884 174.814774 
L 207.221917 171.01525 
L 207.272239 172.499104 
L 207.368012 185.219057 
L 207.535209 244.453587 
L 207.624489 276.86329 
L 207.67968 260.352477 
L 207.983232 174.148063 
L 208.057903 171.315174 
L 208.109847 172.813371 
L 208.207244 185.268504 
L 208.372817 241.824319 
L 208.471837 280.156634 
L 208.527028 263.101393 
L 208.832204 174.85604 
L 208.918237 171.01523 
L 208.968559 172.470775 
L 209.062708 184.779068 
L 209.228282 242.714075 
L 209.320809 276.864169 
L 209.376 260.561165 
L 209.681175 174.061018 
L 209.754223 171.315261 
L 209.807791 172.882602 
L 209.90681 185.841874 
L 210.075631 244.615964 
L 210.16978 280.154604 
L 210.224972 262.57865 
L 210.528524 174.897533 
L 210.614557 171.015451 
L 210.664879 172.442739 
L 210.759028 184.681442 
L 210.924602 242.494937 
L 211.017129 276.861598 
L 211.07232 260.769506 
L 211.377495 174.096252 
L 211.452166 171.315462 
L 211.504111 172.854242 
L 211.601507 185.408624 
L 211.768704 242.890371 
L 211.8661 280.158277 
L 211.921292 262.791455 
L 212.224844 174.939254 
L 212.3125 171.015339 
L 212.362822 172.512192 
L 212.458595 185.264746 
L 212.625792 244.554565 
L 212.715072 276.861734 
L 212.770263 260.256671 
L 213.073815 174.13172 
L 213.148486 171.315211 
L 213.200431 172.826157 
L 213.297827 185.31247 
L 213.463401 241.923541 
L 213.56242 280.158046 
L 213.617612 263.004011 
L 213.922787 174.83709 
L 214.00882 171.015209 
L 214.059142 172.483729 
L 214.154915 185.165213 
L 214.322112 244.334384 
L 214.411392 276.864194 
L 214.466583 260.465513 
L 214.770135 174.167423 
L 214.844806 171.315192 
L 214.896751 172.798347 
L 214.994147 185.216689 
L 215.159721 241.707212 
L 215.25874 280.153909 
L 215.315555 262.480988 
L 215.619107 174.878478 
L 215.70514 171.01532 
L 215.755462 172.455559 
L 215.849612 184.726161 
L 216.015185 242.595405 
L 216.107712 276.863205 
L 216.162903 260.674015 
L 216.468079 174.080067 
L 216.541126 171.315405 
L 216.594694 172.867212 
L 216.69209 185.45284 
L 216.859287 242.990016 
L 216.956684 280.157077 
L 217.011875 262.693903 
L 217.315427 174.920095 
L 217.403084 171.015479 
L 217.453405 172.525341 
L 217.549178 185.310517 
L 217.716375 244.655566 
L 217.805655 276.859453 
L 217.859223 260.882165 
L 218.164399 174.115427 
L 218.239069 171.315298 
L 218.291014 172.839002 
L 218.38841 185.356515 
L 218.553984 242.022803 
L 218.653004 280.158637 
L 218.708195 262.906575 
L 219.01337 174.818187 
L 219.099404 171.015239 
L 219.149725 172.496744 
L 219.245498 185.210806 
L 219.412695 244.435334 
L 219.501975 276.863494 
L 219.557167 260.36979 
L 219.860719 174.151022 
L 219.935389 171.315172 
L 219.987334 172.811065 
L 220.08473 185.260563 
L 220.250304 241.806386 
L 220.349324 280.156291 
L 220.404515 263.118992 
L 220.70969 174.859471 
L 220.795724 171.01524 
L 220.846045 172.46844 
L 220.940195 184.77096 
L 221.105769 242.695903 
L 221.198295 276.864087 
L 221.253487 260.578449 
L 221.558662 174.06393 
L 221.631709 171.315279 
L 221.685277 172.88024 
L 221.784297 185.833751 
L 221.953117 244.597841 
L 222.047267 280.155057 
L 222.102458 262.596301 
L 222.40601 174.900983 
L 222.492044 171.01548 
L 222.543988 172.538552 
L 222.639761 185.356369 
L 222.806959 244.756588 
L 222.894615 276.86123 
L 222.949807 260.786762 
L 223.254982 174.099184 
L 223.329652 171.315433 
L 223.381597 172.851904 
L 223.478993 185.400639 
L 223.646191 242.872361 
L 223.743587 280.158406 
L 223.798778 262.809085 
L 224.10233 174.942723 
L 224.189987 171.015319 
L 224.240308 172.509821 
L 224.336081 185.25648 
L 224.503279 244.536308 
L 224.592559 276.862069 
L 224.64775 260.273997 
L 224.951302 174.134671 
L 225.025972 171.315201 
L 225.077917 172.823841 
L 225.175313 185.304516 
L 225.340887 241.9056 
L 225.439907 280.157851 
L 225.495098 263.021621 
L 225.800273 174.840512 
L 225.886307 171.01521 
L 225.936628 172.481383 
L 226.032401 185.156979 
L 226.199599 244.316136 
L 226.288879 276.864243 
L 226.34407 260.482811 
L 226.647622 174.170393 
L 226.722292 171.315201 
L 226.774237 172.796053 
L 226.871633 185.208766 
L 227.037207 241.689287 
L 227.136227 280.153391 
L 227.193041 262.498647 
L 227.496593 174.88192 
L 227.582627 171.01534 
L 227.632948 172.453237 
L 227.727098 184.71807 
L 227.892672 242.57724 
L 227.985199 276.862968 
L 228.04039 260.691284 
L 228.345565 174.082989 
L 228.418612 171.315433 
L 228.47218 172.864863 
L 228.569577 185.444841 
L 228.736774 242.971999 
L 228.83417 280.157355 
L 228.889361 262.711543 
L 229.192913 174.923555 
L 229.28057 171.01545 
L 229.330892 172.522959 
L 229.426665 185.302236 
L 229.593862 244.637304 
L 229.683142 276.859919 
L 229.73671 260.899404 
L 230.041885 174.118369 
L 230.116556 171.315278 
L 230.1685 172.836675 
L 230.265897 185.348547 
L 230.431471 242.004855 
L 230.53049 280.158591 
L 230.585681 262.924194 
L 230.890857 174.8216 
L 230.97689 171.01523 
L 231.027212 172.494387 
L 231.122985 185.202557 
L 231.290182 244.417082 
L 231.379462 276.863675 
L 231.434653 260.387101 
L 231.738205 174.153984 
L 231.812876 171.315172 
L 231.86482 172.808762 
L 231.962217 185.252626 
L 232.127791 241.788453 
L 232.22681 280.155921 
L 232.282001 263.13659 
L 232.587177 174.862904 
L 232.67321 171.01525 
L 232.723532 172.466107 
L 232.817681 184.762855 
L 232.983255 242.677732 
L 233.075782 276.863981 
L 233.130973 260.595732 
L 233.436148 174.066844 
L 233.509196 171.315298 
L 233.562764 172.877881 
L 233.661783 185.82563 
L 233.830604 244.579719 
L 233.924753 280.155483 
L 233.979945 262.61395 
L 234.283497 174.904435 
L 234.36953 171.015511 
L 234.421475 172.536159 
L 234.517248 185.348074 
L 234.684445 244.738323 
L 234.772102 276.860838 
L 234.827293 260.804015 
L 235.132468 174.102117 
L 235.207139 171.315405 
L 235.259084 172.849567 
L 235.35648 185.392656 
L 235.523677 242.854352 
L 235.621073 280.158509 
L 235.676265 262.826714 
L 235.979817 174.946193 
L 236.067473 171.015301 
L 236.117795 172.507452 
L 236.213568 185.248217 
L 236.380765 244.518052 
L 236.470045 276.86238 
L 236.525236 260.29132 
L 236.828788 174.137624 
L 236.903459 171.315192 
L 236.955404 172.821527 
L 237.0528 185.296564 
L 237.218374 241.88766 
L 237.317393 280.15763 
L 237.372585 263.039228 
L 237.67776 174.843936 
L 237.763793 171.015211 
L 237.814115 172.479038 
L 237.909888 185.148748 
L 238.077085 244.297888 
L 238.166365 276.864269 
L 238.221556 260.500107 
L 238.525108 174.173365 
L 238.599779 171.315212 
L 238.651724 172.793762 
L 238.74912 185.200845 
L 238.914694 241.671364 
L 239.013713 280.152846 
L 239.070528 262.516306 
L 239.37408 174.885363 
L 239.460113 171.015362 
L 239.510435 172.450917 
L 239.604585 184.709982 
L 239.770159 242.559075 
L 239.862685 276.862708 
L 239.917876 260.708551 
L 240.223052 174.085913 
L 240.296099 171.315463 
L 240.349667 172.862516 
L 240.447063 185.436844 
L 240.61426 242.953983 
L 240.711657 280.157606 
L 240.766848 262.729181 
L 241.0704 174.927017 
L 241.158057 171.015423 
L 241.208378 172.520579 
L 241.304151 185.293958 
L 241.471348 244.619044 
L 241.560628 276.860361 
L 241.614196 260.916641 
L 241.919372 174.121313 
L 241.994042 171.315261 
L 242.045987 172.834351 
L 242.143383 185.340581 
L 242.308957 241.986908 
L 242.407977 280.158518 
L 242.463168 262.941812 
L 242.768343 174.825016 
L 242.854377 171.015223 
L 242.904698 172.492031 
L 243.000471 185.194311 
L 243.167668 244.398831 
L 243.256948 276.863831 
L 243.31214 260.404409 
L 243.615692 174.156947 
L 243.690362 171.315174 
L 243.742307 172.80646 
L 243.839703 185.244691 
L 244.005277 241.770522 
L 244.104297 280.155524 
L 244.161111 262.418612 
L 244.464663 174.866338 
L 244.550697 171.015263 
L 244.601018 172.463776 
L 244.695168 184.754753 
L 244.860742 242.659563 
L 244.953268 276.863852 
L 245.00846 260.613012 
L 245.313635 174.069759 
L 245.386682 171.315319 
L 245.44025 172.875523 
L 245.53927 185.817512 
L 245.70809 244.561598 
L 245.80224 280.155882 
L 245.857431 262.631597 
L 246.160983 174.907888 
L 246.247017 171.015544 
L 246.298961 172.533768 
L 246.394735 185.339781 
L 246.561932 244.720059 
L 246.649588 276.860423 
L 246.70478 260.821266 
L 247.009955 174.105051 
L 247.084625 171.315378 
L 247.13657 172.847232 
L 247.233967 185.384676 
L 247.401164 242.836344 
L 247.49856 280.158584 
L 247.553751 262.844341 
L 247.857303 174.949665 
L 247.94496 171.015285 
L 247.995281 172.505086 
L 248.091055 185.239956 
L 248.258252 244.499796 
L 248.347532 276.862668 
L 248.402723 260.308641 
L 248.706275 174.140578 
L 248.780945 171.315185 
L 248.83289 172.819215 
L 248.930287 185.288615 
L 249.09586 241.869722 
L 249.19488 280.157382 
L 249.250071 263.056834 
L 249.555247 174.847362 
L 249.64128 171.015215 
L 249.691601 172.476696 
L 249.787375 185.140519 
L 249.954572 244.279642 
L 250.043852 276.864271 
L 250.099043 260.5174 
L 250.402595 174.176339 
L 250.477265 171.315224 
L 250.52921 172.791473 
L 250.626607 185.192926 
L 250.79218 241.653442 
L 250.892823 280.153338 
L 250.948015 262.533962 
L 251.251567 174.888807 
L 251.3376 171.015385 
L 251.387921 172.448599 
L 251.482071 184.701897 
L 251.647645 242.540911 
L 251.740172 276.862423 
L 251.795363 260.725815 
L 252.100538 174.088839 
L 252.173585 171.315494 
L 252.227153 172.860171 
L 252.32455 185.428849 
L 252.491747 242.935968 
L 252.589143 280.15783 
L 252.644335 262.746818 
L 252.947887 174.93048 
L 253.035543 171.015397 
L 253.085865 172.518202 
L 253.181638 185.285682 
L 253.348835 244.600784 
L 253.438115 276.86078 
L 253.491683 260.933875 
L 253.798481 174.002755 
L 253.871529 171.315245 
L 253.923473 172.832028 
L 254.02087 185.332617 
L 254.186444 241.968962 
L 254.285463 280.158418 
L 254.340655 262.959427 
L 254.64583 174.828433 
L 254.731863 171.015217 
L 254.782185 172.489678 
L 254.877958 185.186068 
L 255.045155 244.38058 
L 255.134435 276.863964 
L 255.189626 260.421715 
L 255.493178 174.159911 
L 255.567849 171.315177 
L 255.619793 172.80416 
L 255.71719 185.236758 
L 255.882764 241.752593 
L 255.981783 280.155101 
L 256.038598 262.436277 
L 256.34215 174.869774 
L 256.428183 171.015277 
L 256.478505 172.461446 
L 256.572655 184.746653 
L 256.738228 242.641394 
L 256.830755 276.863699 
L 256.885946 260.630289 
L 257.191121 174.072676 
L 257.264169 171.315341 
L 257.317737 172.873167 
L 257.415133 185.473101 
L 257.58233 243.035631 
L 257.679727 280.156255 
L 257.734918 262.649243 
L 258.03847 174.911343 
L 258.126127 171.01556 
L 258.176448 172.531379 
L 258.272221 185.33149 
L 258.439418 244.701795 
L 258.527075 276.859984 
L 258.582266 260.838514 
L 258.887441 174.107987 
L 258.962112 171.315353 
L 259.014057 172.844899 
L 259.111453 185.376698 
L 259.277027 242.068243 
L 259.376047 280.158633 
L 259.431238 262.861966 
L 259.73479 174.953139 
L 259.822447 171.01527 
L 259.872768 172.502721 
L 259.968541 185.231698 
L 260.135738 244.481541 
L 260.225018 276.862932 
L 260.280209 260.32596 
L 260.583761 174.143533 
L 260.658432 171.315179 
L 260.710377 172.816905 
L 260.807773 185.280668 
L 260.973347 241.851785 
L 261.072367 280.157107 
L 261.127558 263.074438 
L 261.432733 174.850789 
L 261.518767 171.01522 
L 261.569088 172.474356 
L 261.664861 185.132294 
L 261.832058 244.261396 
L 261.921338 276.864249 
L 261.976529 260.53469 
L 262.281705 174.056562 
L 262.354752 171.315237 
L 262.40832 172.886222 
L 262.50734 185.854319 
L 262.67616 244.64372 
L 262.77031 280.153859 
L 262.825501 262.551617 
L 263.129053 174.892253 
L 263.215087 171.01541 
L 263.265408 172.446282 
L 263.359558 184.693814 
L 263.525132 242.522749 
L 263.617658 276.862115 
L 263.672849 260.743077 
L 263.978025 174.091766 
L 264.052695 171.315511 
L 264.10464 172.857827 
L 264.202036 185.420858 
L 264.369233 242.917955 
L 264.46663 280.158027 
L 264.521821 262.764453 
L 264.825373 174.933945 
L 264.91303 171.015373 
L 264.963351 172.515826 
L 265.059124 185.27741 
L 265.226321 244.582525 
L 265.315601 276.861175 
L 265.369169 260.951107 
L 265.675968 174.005634 
L 265.749015 171.31523 
L 265.80096 172.829707 
L 265.898356 185.324656 
L 266.06393 241.951018 
L 266.16295 280.158291 
L 266.218141 262.977041 
L 266.523316 174.831851 
L 266.60935 171.015213 
L 266.659671 172.487326 
L 266.755444 185.177827 
L 266.922641 244.36233 
L 267.011921 276.864073 
L 267.067113 260.439019 
L 267.370665 174.162877 
L 267.445335 171.315182 
L 267.49728 172.801862 
L 267.594676 185.228828 
L 267.76025 241.734665 
L 267.85927 280.154651 
L 267.916084 262.453941 
L 268.219636 174.873211 
L 268.30567 171.015293 
L 268.355991 172.459119 
L 268.450141 184.738555 
L 268.615715 242.623226 
L 268.708241 276.863522 
L 268.763433 260.647565 
L 269.068608 174.075594 
L 269.141655 171.315365 
L 269.195223 172.870813 
L 269.29262 185.465096 
L 269.459817 243.01761 
L 269.557213 280.1566 
L 269.612404 262.666887 
L 269.915956 174.914799 
L 270.003613 171.015527 
L 270.053935 172.528992 
L 270.149708 185.323203 
L 270.316905 244.683532 
L 270.404561 276.859521 
L 270.459753 260.85576 
L 270.764928 174.110925 
L 270.839599 171.31533 
L 270.891543 172.842568 
L 270.98894 185.368723 
L 271.154513 242.050291 
L 271.253533 280.158655 
L 271.308724 262.87959 
L 271.612276 174.956614 
L 271.699933 171.015256 
L 271.750255 172.500358 
L 271.846028 185.223443 
L 272.013225 244.463287 
L 272.102505 276.863172 
L 272.157696 260.343277 
L 272.461248 174.14649 
L 272.535919 171.315175 
L 272.587863 172.814597 
L 272.68526 185.272724 
L 272.850833 241.833849 
L 272.949853 280.156805 
L 273.005044 263.09204 
L 273.31022 174.854218 
L 273.396253 171.015226 
L 273.446575 172.472017 
L 273.542348 185.12407 
L 273.709545 244.243151 
L 273.798825 276.864203 
L 273.854016 260.551979 
L 274.159191 174.059472 
L 274.232239 171.315252 
L 274.285807 172.883858 
L 274.384826 185.846192 
L 274.553647 244.625595 
L 274.647796 280.154353 
L 274.702988 262.56927 
L 275.00654 174.895701 
L 275.092573 171.015437 
L 275.142895 172.443968 
L 275.237044 184.685735 
L 275.402618 242.504587 
L 275.495145 276.861784 
L 275.550336 260.760336 
L 275.855511 174.094695 
L 275.930182 171.315479 
L 275.982127 172.855486 
L 276.079523 185.412868 
L 276.24672 242.899942 
L 276.344116 280.158197 
L 276.399308 262.782086 
L 276.70286 174.937411 
L 276.790516 171.015351 
L 276.840838 172.513452 
L 276.936611 185.269139 
L 277.103808 244.564267 
L 277.193088 276.861546 
L 277.248279 260.247464 
L 277.551831 174.130153 
L 277.626502 171.315217 
L 277.678447 172.827389 
L 277.775843 185.316698 
L 277.941417 241.933075 
L 278.040436 280.158138 
L 278.095628 262.994653 
L 278.400803 174.835271 
L 278.486836 171.01521 
L 278.537158 172.484977 
L 278.632931 185.169589 
L 278.800128 244.344081 
L 278.889408 276.864159 
L 278.944599 260.45632 
L 279.248151 174.165845 
L 279.322822 171.315188 
L 279.374767 172.799566 
L 279.472163 185.220901 
L 279.637737 241.716738 
L 279.736756 280.154173 
L 279.793571 262.471603 
L 280.097123 174.87665 
L 280.183156 171.01531 
L 280.233478 172.456794 
L 280.327628 184.730461 
L 280.493201 242.605059 
L 280.585728 276.863321 
L 280.640919 260.664837 
L 280.946095 174.078514 
L 281.019142 171.315391 
L 281.07271 172.868461 
L 281.170106 185.457092 
L 281.337303 242.999591 
L 281.4347 280.156919 
L 281.489891 262.684529 
L 281.793443 174.918257 
L 281.8811 171.015496 
L 281.931421 172.526607 
L 282.027194 185.314918 
L 282.194391 244.66527 
L 282.283671 276.859196 
L 282.337239 260.873003 
L 282.642415 174.113865 
L 282.717085 171.315308 
L 282.76903 172.840238 
L 282.866426 185.360751 
L 283.032 242.032341 
L 283.13102 280.15865 
L 283.186211 262.897212 
L 283.491386 174.816373 
L 283.57742 171.015245 
L 283.627741 172.497998 
L 283.723514 185.21519 
L 283.890711 244.445034 
L 283.979991 276.863389 
L 284.035183 260.360591 
L 284.338735 174.149449 
L 284.413405 171.315173 
L 284.46535 172.81229 
L 284.562746 185.264782 
L 284.72832 241.815915 
L 284.82734 280.156476 
L 284.882531 263.10964 
L 285.187706 174.857648 
L 285.27374 171.015235 
L 285.324061 172.469681 
L 285.418211 184.775269 
L 285.583785 242.705559 
L 285.676311 276.864134 
L 285.731503 260.569265 
L 286.036678 174.062383 
L 286.109725 171.315269 
L 286.163293 172.881495 
L 286.262313 185.838067 
L 286.431133 244.607471 
L 286.525283 280.15482 
L 286.580474 262.586922 
L 286.884026 174.89915 
L 286.97006 171.015465 
L 287.022004 172.539824 
L 287.117777 185.360778 
L 287.284975 244.766294 
L 287.372631 276.861428 
L 287.427823 260.777593 
L 287.732998 174.097626 
L 287.807668 171.315448 
L 287.859613 172.853146 
L 287.957009 185.404882 
L 288.124207 242.881931 
L 288.221603 280.158341 
L 288.276794 262.799717 
L 288.580346 174.94088 
L 288.668003 171.01533 
L 288.718324 172.51108 
L 288.814097 185.260872 
L 288.981295 244.54601 
L 289.070575 276.861894 
L 289.125766 260.264791 
L 289.429318 174.133103 
L 289.503988 171.315206 
L 289.555933 172.825072 
L 289.653329 185.308742 
L 289.818903 241.915133 
L 289.917923 280.157958 
L 289.973114 263.012263 
L 290.278289 174.838693 
L 290.364323 171.015209 
L 290.414644 172.482629 
L 290.510417 185.161354 
L 290.677615 244.325832 
L 290.766895 276.86422 
L 290.822086 260.47362 
L 291.125638 174.168815 
L 291.200308 171.315196 
L 291.252253 172.797272 
L 291.349649 185.212976 
L 291.515223 241.698812 
L 291.614243 280.15367 
L 291.671057 262.489264 
L 291.974609 174.880091 
L 292.060643 171.015329 
L 292.110964 172.454471 
L 292.205114 184.722369 
L 292.370688 242.586893 
L 292.463215 276.863097 
L 292.518406 260.682108 
L 292.823581 174.081436 
L 292.896628 171.315418 
L 292.950196 172.866111 
L 293.047593 185.449091 
L 293.21479 242.981573 
L 293.312186 280.157211 
L 293.367377 262.70217 
L 293.670929 174.921716 
L 293.758586 171.015466 
L 293.808908 172.524225 
L 293.904681 185.306636 
L 294.071878 244.647008 
L 294.161158 276.859674 
L 294.214726 260.890244 
L 294.519901 174.116806 
L 294.594572 171.315288 
L 294.646516 172.837911 
L 294.743913 185.352781 
L 294.909487 242.014392 
L 295.008506 280.158618 
L 295.063697 262.914832 
L 295.368873 174.819786 
L 295.454906 171.015235 
L 295.505228 172.495639 
L 295.601001 185.20694 
L 295.768198 244.426781 
L 295.857478 276.863582 
L 295.912669 260.377903 
L 296.216221 174.15241 
L 296.290892 171.315172 
L 296.342836 172.809985 
L 296.440233 185.256843 
L 296.605807 241.797982 
L 296.704826 280.156121 
L 296.760017 263.127239 
L 297.065193 174.86108 
L 297.151226 171.015244 
L 297.201548 172.467347 
L 297.295697 184.767162 
L 297.461271 242.687388 
L 297.553798 276.86404 
L 297.608989 260.586548 
L 297.914164 174.065295 
L 297.987212 171.315288 
L 298.04078 172.879134 
L 298.139799 185.829945 
L 298.30862 244.589349 
L 298.402769 280.15526 
L 298.457961 262.604571 
L 298.761513 174.902601 
L 298.847546 171.015495 
L 298.899491 172.53743 
L 298.995264 185.352481 
L 299.162461 244.748029 
L 299.250118 276.861049 
L 299.305309 260.794847 
L 299.610484 174.100558 
L 299.685155 171.315419 
L 299.7371 172.850808 
L 299.834496 185.396898 
L 300.001693 242.863921 
L 300.099089 280.158458 
L 300.154281 262.817347 
L 300.457833 174.944349 
L 300.545489 171.015311 
L 300.595811 172.508711 
L 300.691584 185.252607 
L 300.858781 244.527753 
L 300.948061 276.862218 
L 301.003252 260.282115 
L 301.306804 174.136054 
L 301.381475 171.315197 
L 301.43342 172.822757 
L 301.530816 185.300789 
L 301.69639 241.897193 
L 301.795409 280.157751 
L 301.850601 263.029872 
L 302.155776 174.842116 
L 302.241809 171.01521 
L 302.292131 172.480284 
L 302.387904 185.153122 
L 302.555101 244.307585 
L 302.644381 276.864258 
L 302.699572 260.490916 
L 303.003124 174.171786 
L 303.077795 171.315206 
L 303.12974 172.79498 
L 303.227136 185.205054 
L 303.39271 241.680888 
L 303.491729 280.153139 
L 303.548544 262.506922 
L 303.852096 174.883533 
L 303.938129 171.01535 
L 303.988451 172.452149 
L 304.082601 184.71428 
L 304.248175 242.568727 
L 304.340701 276.862849 
L 304.395892 260.699376 
L 304.701068 174.084359 
L 304.774115 171.315447 
L 304.827683 172.863763 
L 304.925079 185.441093 
L 305.092276 242.963556 
L 305.189673 280.157476 
L 305.244864 262.719809 
L 305.548416 174.925177 
L 305.636073 171.015437 
L 305.686394 172.521844 
L 305.782167 185.298356 
L 305.949364 244.628747 
L 306.038644 276.860129 
L 306.092212 260.907482 
L 306.397388 174.119748 
L 306.472058 171.31527 
L 306.524003 172.835586 
L 306.621399 185.344813 
L 306.786973 241.996445 
L 306.885993 280.15856 
L 306.941184 262.93245 
L 307.246359 174.823201 
L 307.332393 171.015226 
L 307.382714 172.493283 
L 307.478487 185.198693 
L 307.645684 244.408529 
L 307.734964 276.863751 
L 307.790156 260.395212 
L 308.093708 174.155372 
L 308.168378 171.315173 
L 308.220323 172.807683 
L 308.317719 185.248907 
L 308.483293 241.78005 
L 308.582313 280.155738 
L 308.637504 263.144836 
L 308.942679 174.864513 
L 309.028713 171.015256 
L 309.079034 172.465014 
L 309.173184 184.759058 
L 309.338758 242.669218 
L 309.431284 276.863924 
L 309.486476 260.60383 
L 309.791651 174.06821 
L 309.864698 171.315308 
L 309.918266 172.876776 
L 310.017286 185.821825 
L 310.186106 244.571227 
L 310.280256 280.155673 
L 310.335447 262.62222 
L 310.638999 174.906053 
L 310.725033 171.015526 
L 310.776977 172.535038 
L 310.872751 185.344187 
L 311.039948 244.729764 
L 311.127604 276.860647 
L 311.182796 260.812099 
L 311.487971 174.103492 
L 311.562641 171.315392 
L 311.614586 172.848472 
L 311.711983 185.388916 
L 311.87918 242.845913 
L 311.976576 280.158548 
L 312.031767 262.834975 
L 312.335319 174.94782 
L 312.422976 171.015293 
L 312.473297 172.506343 
L 312.569071 185.244345 
L 312.736268 244.509497 
L 312.825548 276.862518 
L 312.880739 260.299437 
L 313.184291 174.139008 
L 313.258961 171.315188 
L 313.310906 172.820444 
L 313.408303 185.292839 
L 313.573876 241.879254 
L 313.672896 280.157517 
L 313.728087 263.047479 
L 314.033263 174.845541 
L 314.119296 171.015213 
L 314.169617 172.47794 
L 314.265391 185.144892 
L 314.432588 244.289338 
L 314.521868 276.864273 
L 314.577059 260.508211 
L 314.880611 174.174758 
L 314.955281 171.315217 
L 315.007226 172.792689 
L 315.104623 185.197134 
L 315.270196 241.662965 
L 315.370839 280.153051 
L 315.426031 262.52458 
L 315.729583 174.886977 
L 315.815616 171.015373 
L 315.865937 172.44983 
L 315.960087 184.706193 
L 316.125661 242.550563 
L 316.218188 276.862577 
L 316.273379 260.716641 
L 316.578554 174.087284 
L 316.651601 171.315477 
L 316.705169 172.861417 
L 316.802566 185.433097 
L 316.969763 242.945541 
L 317.067159 280.157714 
L 317.122351 262.737446 
L 317.425903 174.92864 
L 317.513559 171.015411 
L 317.563881 172.519465 
L 317.659654 185.29008 
L 317.826851 244.610487 
L 317.916131 276.860561 
L 317.969699 260.924717 
L 318.274874 174.122693 
L 318.349545 171.315253 
L 318.401489 172.833262 
L 318.498886 185.336849 
L 318.66446 241.978498 
L 318.763479 280.158474 
L 318.818671 262.950067 
L 319.123846 174.826617 
L 319.209879 171.01522 
L 319.260201 172.490928 
L 319.355974 185.190448 
L 319.523171 244.390278 
L 319.612451 276.863896 
L 319.667642 260.412519 
L 319.971194 174.158336 
L 320.045865 171.315175 
L 320.097809 172.805382 
L 320.195206 185.240973 
L 320.36078 241.76212 
L 320.459799 280.155329 
L 320.516614 262.42689 
L 320.820166 174.867948 
L 320.906199 171.015269 
L 320.956521 172.462684 
L 321.050671 184.750957 
L 321.216244 242.651048 
L 321.308771 276.863783 
L 321.363962 260.621109 
L 321.669137 174.071126 
L 321.742185 171.315329 
L 321.795753 172.874419 
L 321.893149 185.477357 
L 322.060346 243.045207 
L 322.157743 280.15606 
L 322.212934 262.639866 
L 322.516486 174.909507 
L 322.602519 171.015559 
L 322.654464 172.532648 
L 322.750237 185.335895 
L 322.917434 244.7115 
L 323.005091 276.86022 
L 323.060282 260.829349 
L 323.365457 174.106427 
L 323.440128 171.315366 
L 323.492073 172.846138 
L 323.589469 185.380937 
L 323.755043 242.077783 
L 323.854063 280.158611 
L 323.909254 262.852601 
L 324.212806 174.951293 
L 324.300463 171.015277 
L 324.350784 172.503977 
L 324.446557 185.236086 
L 324.613754 244.491242 
L 324.703034 276.862795 
L 324.758225 260.316757 
L 325.061777 174.141962 
L 325.136448 171.315182 
L 325.188393 172.818132 
L 325.285789 185.284891 
L 325.451363 241.861316 
L 325.550383 280.157256 
L 325.605574 263.065084 
L 325.910749 174.848967 
L 325.996783 171.015217 
L 326.047104 172.475599 
L 326.142877 185.136664 
L 326.310074 244.271092 
L 326.399354 276.864263 
L 326.454545 260.525503 
L 326.758097 174.177733 
L 326.832768 171.31523 
L 326.884713 172.790401 
L 326.982109 185.189217 
L 327.147683 241.645044 
L 327.248326 280.153585 
L 327.303517 262.542235 
L 327.607069 174.890422 
L 327.693103 171.015397 
L 327.743424 172.447513 
L 327.837574 184.698109 
L 328.003148 242.5324 
L 328.095674 276.862282 
L 328.150865 260.733904 
L 328.456041 174.09021 
L 328.530711 171.315529 
L 328.582656 172.859072 
L 328.680052 185.425104 
L 328.847249 242.927527 
L 328.944646 280.157926 
L 328.999837 262.755082 
L 329.303389 174.932104 
L 329.391046 171.015386 
L 329.441367 172.517088 
L 329.53714 185.281805 
L 329.704337 244.592228 
L 329.793617 276.860968 
L 329.847185 260.941951 
L 330.153984 174.004104 
L 330.227031 171.315238 
L 330.278976 172.83094 
L 330.376372 185.328886 
L 330.541946 241.960553 
L 330.640966 280.158362 
L 330.696157 262.967681 
L 331.001332 174.830035 
L 331.087366 171.015215 
L 331.137687 172.488576 
L 331.23346 185.182206 
L 331.400657 244.372028 
L 331.489937 276.864018 
L 331.545129 260.429824 
L 331.848681 174.161301 
L 331.923351 171.315179 
L 331.975296 172.803083 
L 332.072692 185.233042 
L 332.238266 241.744191 
L 332.337286 280.154893 
L 332.3941 262.444555 
L 332.697652 174.871385 
L 332.783686 171.015284 
L 332.834007 172.460356 
L 332.928157 184.742858 
L 333.093731 242.63288 
L 333.186257 276.863619 
L 333.241449 260.638385 
L 333.546624 174.074043 
L 333.619671 171.315352 
L 333.673239 172.872064 
L 333.770636 185.46935 
L 333.937833 243.027186 
L 334.035229 280.15642 
L 334.09042 262.657511 
L 334.393972 174.912962 
L 334.481629 171.015545 
L 334.531951 172.53026 
L 334.627724 185.327607 
L 334.794921 244.693237 
L 334.882577 276.85977 
L 334.937769 260.846596 
L 335.242944 174.109364 
L 335.317615 171.315342 
L 335.369559 172.843806 
L 335.466956 185.372961 
L 335.632529 242.059831 
L 335.731549 280.158647 
L 335.78674 262.870225 
L 336.090292 174.954767 
L 336.177949 171.015263 
L 336.228271 172.501614 
L 336.324044 185.227829 
L 336.491241 244.472987 
L 336.580521 276.863048 
L 336.635712 260.334075 
L 336.939264 174.144919 
L 337.013935 171.315177 
L 337.065879 172.815823 
L 337.163276 185.276945 
L 337.328849 241.84338 
L 337.427869 280.156969 
L 337.48306 263.082687 
L 337.788236 174.852395 
L 337.874269 171.015222 
L 337.924591 172.47326 
L 338.020364 185.12844 
L 338.187561 244.252846 
L 338.276841 276.86423 
L 338.332032 260.542792 
L 338.637207 174.057925 
L 338.710255 171.315244 
L 338.763823 172.885114 
L 338.862842 185.850511 
L 339.031663 244.635227 
L 339.125812 280.154094 
L 339.181004 262.559889 
L 339.484556 174.893869 
L 339.570589 171.015422 
L 339.620911 172.445198 
L 339.71506 184.690028 
L 339.880634 242.514238 
L 339.973161 276.861963 
L 340.028352 260.751165 
L 340.333527 174.093139 
L 340.408198 171.315496 
L 340.460143 172.85673 
L 340.557539 185.417114 
L 340.724736 242.909514 
L 340.822132 280.15811 
L 340.877324 262.772716 
L 341.180876 174.935569 
L 341.268532 171.015362 
L 341.318854 172.514713 
L 341.414627 185.273534 
L 341.581824 244.573969 
L 341.671104 276.861352 
L 341.724672 260.959181 
L 342.031471 174.006984 
L 342.104518 171.315224 
L 342.156463 172.828621 
L 342.253859 185.320927 
L 342.419433 241.94261 
L 342.518452 280.158223 
L 342.573644 262.985294 
L 342.878819 174.833454 
L 342.964852 171.015211 
L 343.015174 172.486225 
L 343.110947 185.173967 
L 343.278144 244.353778 
L 343.367424 276.864116 
L 343.422615 260.447127 
L 343.726167 174.164268 
L 343.800838 171.315185 
L 343.852783 172.800786 
L 343.950179 185.225113 
L 344.115753 241.726264 
L 344.214772 280.15443 
L 344.271587 262.462218 
L 344.575139 174.874823 
L 344.661172 171.015301 
L 344.711494 172.458029 
L 344.805644 184.734762 
L 344.971217 242.614712 
L 345.063744 276.863431 
L 345.118935 260.655659 
L 345.424111 174.076962 
L 345.497158 171.315377 
L 345.550726 172.869711 
L 345.648122 185.461345 
L 345.815319 243.009166 
L 345.912716 280.156753 
L 345.967907 262.675154 
L 346.271459 174.916419 
L 346.359116 171.015512 
L 346.409437 172.527874 
L 346.50521 185.31932 
L 346.672407 244.674974 
L 346.760064 276.859296 
L 346.815255 260.86384 
L 347.120431 174.112302 
L 347.195101 171.31532 
L 347.247046 172.841476 
L 347.344442 185.364987 
L 347.510016 242.04188 
L 347.609036 280.158656 
L 347.664227 262.887848 
L 347.969402 174.81456 
L 348.055436 171.015251 
L 348.105757 172.499252 
L 348.20153 185.219575 
L 348.368727 244.454733 
L 348.458007 276.863277 
L 348.513199 260.35139 
L 348.816751 174.147877 
L 348.891421 171.315174 
L 348.943366 172.813515 
L 349.040762 185.269002 
L 349.206336 241.825445 
L 349.305356 280.156654 
L 349.360547 263.100288 
L 349.665722 174.855825 
L 349.751756 171.01523 
L 349.802077 172.470922 
L 349.896227 184.779577 
L 350.061801 242.715216 
L 350.154327 276.864173 
L 350.209519 260.560079 
L 350.514694 174.060836 
L 350.587741 171.31526 
L 350.641309 172.88275 
L 350.740329 185.842384 
L 350.909149 244.617102 
L 351.003299 280.154575 
L 351.05849 262.577542 
L 351.362042 174.897317 
L 351.448076 171.01545 
L 351.498397 172.442885 
L 351.592547 184.681949 
L 351.758121 242.496077 
L 351.850647 276.86162 
L 351.905839 260.768423 
L 352.211014 174.096068 
L 352.285684 171.315464 
L 352.337629 172.854389 
L 352.435025 185.409126 
L 352.602223 242.891502 
L 352.699619 280.158268 
L 352.75481 262.790348 
L 353.058362 174.939036 
L 353.146019 171.015341 
L 353.19634 172.51234 
L 353.292113 185.265265 
L 353.459311 244.555711 
L 353.548591 276.861712 
L 353.603782 260.255584 
L 353.907334 174.131535 
L 353.982004 171.315212 
L 354.033949 172.826303 
L 354.131345 185.31297 
L 354.296919 241.924667 
L 354.395939 280.158057 
L 354.45113 263.002906 
L 354.756305 174.836875 
L 354.842339 171.01521 
L 354.89266 172.483876 
L 354.988433 185.16573 
L 355.155631 244.335529 
L 355.244911 276.86419 
L 355.300102 260.464427 
L 355.603654 174.167237 
L 355.678324 171.315192 
L 355.730269 172.798491 
L 355.827665 185.217187 
L 355.993239 241.708338 
L 356.092259 280.153941 
L 356.149073 262.479879 
L 356.452625 174.878262 
L 356.538659 171.015319 
L 356.58898 172.455705 
L 356.68313 184.726669 
L 356.848704 242.596546 
L 356.941231 276.863219 
L 356.996422 260.672931 
L 357.301597 174.079883 
L 357.374644 171.315403 
L 357.428212 172.86736 
L 357.525609 185.453343 
L 357.692806 242.991148 
L 357.790202 280.157059 
L 357.845393 262.692796 
L 358.148945 174.919878 
L 358.236602 171.015481 
L 358.286924 172.525491 
L 358.382697 185.311037 
L 358.549894 244.656712 
L 358.639174 276.859423 
L 358.692742 260.881082 
L 358.997917 174.115243 
L 359.072588 171.315299 
L 359.124532 172.839148 
L 359.221929 185.357016 
L 359.387503 242.02393 
L 359.486522 280.158639 
L 359.541713 262.905469 
L 359.846889 174.817972 
L 359.932922 171.01524 
L 359.983244 172.496892 
L 360.079017 185.211324 
L 360.246214 244.43648 
L 360.335494 276.863482 
L 360.390685 260.368703 
L 360.694237 174.150836 
L 360.768908 171.315172 
L 360.820852 172.81121 
L 360.918249 185.261062 
L 361.083823 241.807511 
L 361.182842 280.156313 
L 361.238033 263.117887 
L 361.543209 174.859256 
L 361.629242 171.015239 
L 361.679564 172.468587 
L 361.773713 184.771469 
L 361.939287 242.697044 
L 362.031814 276.864093 
L 362.087005 260.577364 
L 362.39218 174.063747 
L 362.465228 171.315278 
L 362.518796 172.880389 
L 362.617815 185.834261 
L 362.786636 244.598979 
L 362.880785 280.155029 
L 362.935977 262.595193 
L 363.239529 174.900767 
L 363.325562 171.015479 
L 363.377507 172.538702 
L 363.47328 185.35689 
L 363.640477 244.757735 
L 363.728134 276.861254 
L 363.783325 260.785679 
L 364.0885 174.098999 
L 364.163171 171.315435 
L 364.215116 172.85205 
L 364.312512 185.40114 
L 364.479709 242.873491 
L 364.577105 280.158399 
L 364.632297 262.807979 
L 364.935849 174.942505 
L 365.023505 171.015321 
L 365.073827 172.50997 
L 365.1696 185.256999 
L 365.336797 244.537454 
L 365.426077 276.862049 
L 365.481268 260.272909 
L 365.78482 174.134486 
L 365.859491 171.315201 
L 365.911436 172.823987 
L 366.008832 185.305015 
L 366.174406 241.906726 
L 366.273425 280.157864 
L 366.328617 263.020515 
L 366.633792 174.840297 
L 366.719825 171.015209 
L 366.770147 172.48153 
L 366.86592 185.157496 
L 367.033117 244.317281 
L 367.122397 276.864241 
L 367.177588 260.481725 
L 367.48114 174.170207 
L 367.555811 171.3152 
L 367.607756 172.796197 
L 367.705152 185.209263 
L 367.870726 241.690413 
L 367.969745 280.153424 
L 368.02656 262.497539 
L 368.330112 174.881704 
L 368.416145 171.015339 
L 368.466467 172.453383 
L 368.560617 184.718578 
L 368.726191 242.57838 
L 368.818717 276.862984 
L 368.873908 260.6902 
L 369.179084 174.082806 
L 369.252131 171.315431 
L 369.305699 172.865011 
L 369.403095 185.445343 
L 369.570292 242.97313 
L 369.667689 280.157338 
L 369.72288 262.710436 
L 370.026432 174.923338 
L 370.114089 171.015452 
L 370.16441 172.523109 
L 370.260183 185.302756 
L 370.42738 244.638451 
L 370.51666 276.85989 
L 370.570228 260.898322 
L 370.875404 174.118184 
L 370.950074 171.315279 
L 371.002019 172.836821 
L 371.099415 185.349047 
L 371.264989 242.005982 
L 371.364009 280.158594 
L 371.4192 262.923088 
L 371.724375 174.821386 
L 371.810409 171.015231 
L 371.86073 172.494535 
L 371.956503 185.203075 
L 372.1237 244.418228 
L 372.21298 276.863664 
L 372.268172 260.386014 
L 372.571724 174.153798 
L 372.646394 171.315172 
L 372.698339 172.808906 
L 372.795735 185.253124 
L 372.961309 241.789579 
L 373.060329 280.155945 
L 373.11552 263.135485 
L 373.420695 174.862688 
L 373.506729 171.01525 
L 373.55705 172.466253 
L 373.6512 184.763364 
L 373.816774 242.678873 
L 373.9093 276.863989 
L 373.964492 260.594647 
L 374.269667 174.066661 
L 374.342714 171.315297 
L 374.396282 172.878029 
L 374.495302 185.82614 
L 374.664122 244.580857 
L 374.758272 280.155457 
L 374.813463 262.612842 
L 375.117015 174.904218 
L 375.203049 171.015509 
L 375.254993 172.536309 
L 375.350767 185.348594 
L 375.517964 244.73947 
L 375.60562 276.860864 
L 375.660812 260.802932 
L 375.965987 174.101932 
L 376.040657 171.315406 
L 376.092602 172.849713 
L 376.189999 185.393157 
L 376.357196 242.855482 
L 376.454592 280.158503 
L 376.509783 262.825607 
L 376.813335 174.945976 
L 376.900992 171.015302 
L 376.951313 172.507601 
L 377.047087 185.248735 
L 377.214284 244.519198 
L 377.303564 276.862362 
L 377.358755 260.290233 
L 377.662307 174.137438 
L 377.736977 171.315193 
L 377.788922 172.821673 
L 377.886319 185.297063 
L 378.051892 241.888787 
L 378.150912 280.157644 
L 378.206103 263.038123 
L 378.511279 174.843721 
L 378.597312 171.015211 
L 378.647633 172.479185 
L 378.743407 185.149265 
L 378.910604 244.299034 
L 378.999884 276.864268 
L 379.055075 260.499021 
L 379.358627 174.173178 
L 379.433297 171.315211 
L 379.485242 172.793906 
L 379.582639 185.201342 
L 379.748212 241.672489 
L 379.847232 280.152881 
L 379.904047 262.515197 
L 380.207599 174.885146 
L 380.293632 171.01536 
L 380.343953 172.451062 
L 380.438103 184.71049 
L 380.603677 242.560216 
L 380.696204 276.862725 
L 380.751395 260.707467 
L 381.05657 174.08573 
L 381.129617 171.315461 
L 381.183185 172.862663 
L 381.280582 185.437346 
L 381.447779 242.955114 
L 381.545175 280.157591 
L 381.600367 262.728074 
L 381.903919 174.926799 
L 381.991575 171.015425 
L 382.041897 172.520729 
L 382.13767 185.294477 
L 382.304867 244.62019 
L 382.394147 276.860334 
L 382.447715 260.915559 
L 382.75289 174.121128 
L 382.827561 171.315262 
L 382.879505 172.834497 
L 382.976902 185.341081 
L 383.142476 241.988035 
L 383.241495 280.158523 
L 383.296687 262.940705 
L 383.601862 174.824801 
L 383.687895 171.015223 
L 383.738217 172.492179 
L 383.83399 185.194829 
L 384.001187 244.399977 
L 384.090467 276.863822 
L 384.145658 260.403323 
L 384.44921 174.156761 
L 384.523881 171.315174 
L 384.575825 172.806604 
L 384.673222 185.245189 
L 384.838796 241.771648 
L 384.937815 280.15555 
L 384.99463 262.417503 
L 385.298182 174.866123 
L 385.384215 171.015262 
L 385.434537 172.463922 
L 385.528687 184.755261 
L 385.69426 242.660703 
L 385.786787 276.863861 
L 385.841978 260.611927 
L 386.147153 174.069576 
L 386.220201 171.315317 
L 386.273769 172.875671 
L 386.372788 185.818022 
L 386.541609 244.562735 
L 386.635759 280.155858 
L 386.69095 262.630489 
L 386.994502 174.907671 
L 387.080535 171.015542 
L 387.13248 172.533918 
L 387.228253 185.340301 
L 387.39545 244.721205 
L 387.483107 276.86045 
L 387.538298 260.820183 
L 387.843473 174.104867 
L 387.918144 171.31538 
L 387.970089 172.847378 
L 388.067485 185.385177 
L 388.234682 242.837474 
L 388.332079 280.15858 
L 388.38727 262.843234 
L 388.690822 174.949447 
L 388.778479 171.015286 
L 388.8288 172.505234 
L 388.924573 185.240474 
L 389.09177 244.500942 
L 389.18105 276.862651 
L 389.236241 260.307554 
L 389.539793 174.140392 
L 389.614464 171.315185 
L 389.666409 172.81936 
L 389.763805 185.289114 
L 389.929379 241.870848 
L 390.028399 280.157398 
L 390.08359 263.055729 
L 390.388765 174.847147 
L 390.474799 171.015214 
L 390.52512 172.476843 
L 390.620893 185.141036 
L 390.78809 244.280787 
L 390.87737 276.864271 
L 390.932561 260.516314 
L 391.236113 174.176152 
L 391.310784 171.315223 
L 391.362729 172.791616 
L 391.460125 185.193423 
L 391.625699 241.654567 
L 391.726342 280.153305 
L 391.781533 262.532853 
L 392.085085 174.888591 
L 392.171119 171.015384 
L 392.22144 172.448744 
L 392.31559 184.702405 
L 392.481164 242.542052 
L 392.57369 276.862442 
L 392.628881 260.724731 
L 392.934057 174.088655 
L 393.007104 171.315492 
L 393.060672 172.860318 
L 393.158068 185.429351 
L 393.325265 242.937099 
L 393.422662 280.157817 
L 393.477853 262.745711 
L 393.781405 174.930263 
L 393.869062 171.015399 
L 393.919383 172.518351 
L 394.015156 185.286202 
L 394.182353 244.601931 
L 394.271633 276.860754 
L 394.325201 260.932793 
L 394.632 174.002574 
L 394.705047 171.315246 
L 394.756992 172.832174 
L 394.854388 185.333117 
L 395.019962 241.970089 
L 395.118982 280.158425 
L 395.174173 262.958321 
L 395.479348 174.828218 
L 395.565382 171.015217 
L 395.615703 172.489825 
L 395.711476 185.186585 
L 395.878673 244.381726 
L 395.967953 276.863956 
L 396.023145 260.420629 
L 396.326697 174.159725 
L 396.401367 171.315177 
L 396.453312 172.804304 
L 396.550708 185.237256 
L 396.716282 241.753719 
L 396.815302 280.155128 
L 396.872116 262.435168 
L 397.175668 174.869558 
L 397.261702 171.015276 
L 397.312023 172.461593 
L 397.406173 184.747161 
L 397.571747 242.642534 
L 397.664273 276.863709 
L 397.719465 260.629205 
L 398.02464 174.072493 
L 398.097687 171.31534 
L 398.151255 172.873315 
L 398.248652 185.473604 
L 398.415849 243.036762 
L 398.487273 275.15693 
L 398.487273 275.15693 
" style="fill:none;stroke:#1f77b4;stroke-linecap:square;stroke-width:1.5;"/>
   </g>
   <g id="patch_3">
    <path d="M 57.6 307.584 
L 57.6 41.472 
" style="fill:none;stroke:#000000;stroke-linecap:square;stroke-linejoin:miter;stroke-width:0.8;"/>
   </g>
   <g id="patch_4">
    <path d="M 414.72 307.584 
L 414.72 41.472 
" style="fill:none;stroke:#000000;stroke-linecap:square;stroke-linejoin:miter;stroke-width:0.8;"/>
   </g>
   <g id="patch_5">
    <path d="M 57.6 307.584 
L 414.72 307.584 
" style="fill:none;stroke:#000000;stroke-linecap:square;stroke-linejoin:miter;stroke-width:0.8;"/>
   </g>
   <g id="patch_6">
    <path d="M 57.6 41.472 
L 414.72 41.472 
" style="fill:none;stroke:#000000;stroke-linecap:square;stroke-linejoin:miter;stroke-width:0.8;"/>
   </g>
  </g>
 </g>
 <defs>
  <clipPath id="p83932fa6d9">
   <rect height="266.112" width="357.12" x="57.6" y="41.472"/>
  </clipPath>
 </defs>
</svg>
