<?xml version="1.0" encoding="utf-8" standalone="no"?>
<!DOCTYPE svg PUBLIC "-//W3C//DTD SVG 1.1//EN"
  "http://www.w3.org/Graphics/SVG/1.1/DTD/svg11.dtd">
<!-- Created with matplotlib (https://matplotlib.org/) -->
<svg height="345.6pt" version="1.1" viewBox="0 0 460.8 345.6" width="460.8pt" xmlns="http://www.w3.org/2000/svg" xmlns:xlink="http://www.w3.org/1999/xlink">
 <metadata>
  <rdf:RDF xmlns:cc="http://creativecommons.org/ns#" xmlns:dc="http://purl.org/dc/elements/1.1/" xmlns:rdf="http://www.w3.org/1999/02/22-rdf-syntax-ns#">
   <cc:Work>
    <dc:type rdf:resource="http://purl.org/dc/dcmitype/StillImage"/>
    <dc:date>2020-07-23T22:07:16.523882</dc:date>
    <dc:format>image/svg+xml</dc:format>
    <dc:creator>
     <cc:Agent>
      <dc:title>Matplotlib v3.3.0, https://matplotlib.org/</dc:title>
     </cc:Agent>
    </dc:creator>
   </cc:Work>
  </rdf:RDF>
 </metadata>
 <defs>
  <style type="text/css">*{stroke-linecap:butt;stroke-linejoin:round;}</style>
 </defs>
 <g id="figure_1">
  <g id="patch_1">
   <path d="M 0 345.6 
L 460.8 345.6 
L 460.8 0 
L 0 0 
z
" style="fill:#ffffff;"/>
  </g>
  <g id="axes_1">
   <g id="patch_2">
    <path d="M 57.6 307.584 
L 414.72 307.584 
L 414.72 41.472 
L 57.6 41.472 
z
" style="fill:#ffffff;"/>
   </g>
   <g id="matplotlib.axis_1">
    <g id="xtick_1">
     <g id="line2d_1">
      <defs>
       <path d="M 0 0 
L 0 3.5 
" id="m6acbdde95a" style="stroke:#000000;stroke-width:0.8;"/>
      </defs>
      <g>
       <use style="stroke:#000000;stroke-width:0.8;" x="73.832727" xlink:href="#m6acbdde95a" y="307.584"/>
      </g>
     </g>
     <g id="text_1">
      <!-- $\mathdefault{0}$ -->
      <g transform="translate(71.34206 321.502498)scale(0.1 -0.1)">
       <defs>
        <path d="M 42 31.640625 
C 42 37.75 41.90625 48.125 37.703125 56.109375 
C 34 63.109375 28.09375 65.59375 22.90625 65.59375 
C 18.09375 65.59375 12 63.40625 8.203125 56.203125 
C 4.203125 48.71875 3.796875 39.4375 3.796875 31.640625 
C 3.796875 25.953125 3.90625 17.28125 7 9.671875 
C 11.296875 -0.609375 19 -2 22.90625 -2 
C 27.5 -2 34.5 -0.109375 38.59375 9.375 
C 41.59375 16.28125 42 24.359375 42 31.640625 
z
M 22.90625 -0.40625 
C 16.5 -0.40625 12.703125 5.078125 11.296875 12.6875 
C 10.203125 18.5625 10.203125 27.15625 10.203125 32.75 
C 10.203125 40.4375 10.203125 46.828125 11.5 52.921875 
C 13.40625 61.390625 19 64 22.90625 64 
C 27 64 32.296875 61.296875 34.203125 53.125 
C 35.5 47.4375 35.59375 40.734375 35.59375 32.75 
C 35.59375 26.25 35.59375 18.265625 34.40625 12.375 
C 32.296875 1.484375 26.40625 -0.40625 22.90625 -0.40625 
z
" id="CMR17-48"/>
       </defs>
       <use transform="scale(0.996264)" xlink:href="#CMR17-48"/>
      </g>
     </g>
    </g>
    <g id="xtick_2">
     <g id="line2d_2">
      <g>
       <use style="stroke:#000000;stroke-width:0.8;" x="114.414545" xlink:href="#m6acbdde95a" y="307.584"/>
      </g>
     </g>
     <g id="text_2">
      <!-- $\mathdefault{25000}$ -->
      <g transform="translate(101.961207 321.502498)scale(0.1 -0.1)">
       <defs>
        <path d="M 41.703125 15.453125 
L 39.90625 15.453125 
C 38.90625 8.375 38.09375 7.171875 37.703125 6.5625 
C 37.203125 5.765625 30 5.765625 28.59375 5.765625 
L 9.40625 5.765625 
C 13 9.671875 20 16.75 28.5 24.953125 
C 34.59375 30.734375 41.703125 37.53125 41.703125 47.421875 
C 41.703125 59.21875 32.296875 66 21.796875 66 
C 10.796875 66 4.09375 56.3125 4.09375 47.34375 
C 4.09375 43.4375 7 42.9375 8.203125 42.9375 
C 9.203125 42.9375 12.203125 43.546875 12.203125 47.03125 
C 12.203125 50.109375 9.59375 51 8.203125 51 
C 7.59375 51 7 50.90625 6.59375 50.703125 
C 8.5 59.21875 14.296875 63.40625 20.40625 63.40625 
C 29.09375 63.40625 34.796875 56.515625 34.796875 47.421875 
C 34.796875 38.734375 29.703125 31.25 24 24.75 
L 4.09375 2.28125 
L 4.09375 0 
L 39.296875 0 
z
" id="CMR17-50"/>
        <path d="M 11.40625 57.6875 
C 12.40625 57.28125 16.5 56 20.703125 56 
C 30 56 35.09375 61.109375 38 64.0625 
C 38 64.953125 38 65.5 37.40625 65.5 
C 37.296875 65.5 37.09375 65.5 36.296875 65.046875 
C 32.796875 63.40625 28.703125 62.078125 23.703125 62.078125 
C 20.703125 62.078125 16.203125 62.484375 11.296875 64.671875 
C 10.203125 65.171875 10 65.171875 9.90625 65.171875 
C 9.40625 65.171875 9.296875 65.0625 9.296875 63.078125 
L 9.296875 34.421875 
C 9.296875 32.640625 9.296875 32.140625 10.296875 32.140625 
C 10.796875 32.140625 11 32.34375 11.5 33.03125 
C 14.703125 37.515625 19.09375 39.40625 24.09375 39.40625 
C 27.59375 39.40625 35.09375 37.21875 35.09375 20.140625 
C 35.09375 16.953125 35.09375 11.171875 32.09375 6.578125 
C 29.59375 2.484375 25.703125 0.390625 21.40625 0.390625 
C 14.796875 0.390625 8.09375 5 6.296875 12.71875 
C 6.703125 12.609375 7.5 12.421875 7.90625 12.421875 
C 9.203125 12.421875 11.703125 13.125 11.703125 16.21875 
C 11.703125 18.90625 9.796875 20 7.90625 20 
C 5.59375 20 4.09375 18.59375 4.09375 15.796875 
C 4.09375 7.09375 11 -2 21.59375 -2 
C 31.90625 -2 41.703125 6.875 41.703125 19.75 
C 41.703125 31.71875 33.90625 41 24.203125 41 
C 19.09375 41 14.796875 39.109375 11.40625 35.53125 
z
" id="CMR17-53"/>
       </defs>
       <use transform="scale(0.996264)" xlink:href="#CMR17-50"/>
       <use transform="translate(45.690477 0)scale(0.996264)" xlink:href="#CMR17-53"/>
       <use transform="translate(91.380954 0)scale(0.996264)" xlink:href="#CMR17-48"/>
       <use transform="translate(137.071431 0)scale(0.996264)" xlink:href="#CMR17-48"/>
       <use transform="translate(182.761908 0)scale(0.996264)" xlink:href="#CMR17-48"/>
      </g>
     </g>
    </g>
    <g id="xtick_3">
     <g id="line2d_3">
      <g>
       <use style="stroke:#000000;stroke-width:0.8;" x="154.996364" xlink:href="#m6acbdde95a" y="307.584"/>
      </g>
     </g>
     <g id="text_3">
      <!-- $\mathdefault{50000}$ -->
      <g transform="translate(142.543026 321.502498)scale(0.1 -0.1)">
       <use transform="scale(0.996264)" xlink:href="#CMR17-53"/>
       <use transform="translate(45.690477 0)scale(0.996264)" xlink:href="#CMR17-48"/>
       <use transform="translate(91.380954 0)scale(0.996264)" xlink:href="#CMR17-48"/>
       <use transform="translate(137.071431 0)scale(0.996264)" xlink:href="#CMR17-48"/>
       <use transform="translate(182.761908 0)scale(0.996264)" xlink:href="#CMR17-48"/>
      </g>
     </g>
    </g>
    <g id="xtick_4">
     <g id="line2d_4">
      <g>
       <use style="stroke:#000000;stroke-width:0.8;" x="195.578182" xlink:href="#m6acbdde95a" y="307.584"/>
      </g>
     </g>
     <g id="text_4">
      <!-- $\mathdefault{75000}$ -->
      <g transform="translate(183.124844 321.502498)scale(0.1 -0.1)">
       <defs>
        <path d="M 45.09375 61.578125 
L 45.09375 63.765625 
L 21.59375 63.765625 
C 9.90625 63.765625 9.703125 65.078125 9.296875 67 
L 7.5 67 
L 4.59375 48.34375 
L 6.40625 48.34375 
C 6.703125 50.234375 7.40625 55.3125 8.59375 57.203125 
C 9.203125 58 16.59375 58 18.296875 58 
L 40.296875 58 
L 29.203125 41.578125 
C 21.796875 30.53125 16.703125 15.609375 16.703125 2.578125 
C 16.703125 1.390625 16.703125 -2 20.296875 -2 
C 23.90625 -2 23.90625 1.390625 23.90625 2.671875 
L 23.90625 7.265625 
C 23.90625 23.5625 26.703125 34.3125 31.296875 41.1875 
z
" id="CMR17-55"/>
       </defs>
       <use transform="scale(0.996264)" xlink:href="#CMR17-55"/>
       <use transform="translate(45.690477 0)scale(0.996264)" xlink:href="#CMR17-53"/>
       <use transform="translate(91.380954 0)scale(0.996264)" xlink:href="#CMR17-48"/>
       <use transform="translate(137.071431 0)scale(0.996264)" xlink:href="#CMR17-48"/>
       <use transform="translate(182.761908 0)scale(0.996264)" xlink:href="#CMR17-48"/>
      </g>
     </g>
    </g>
    <g id="xtick_5">
     <g id="line2d_5">
      <g>
       <use style="stroke:#000000;stroke-width:0.8;" x="236.16" xlink:href="#m6acbdde95a" y="307.584"/>
      </g>
     </g>
     <g id="text_5">
      <!-- $\mathdefault{100000}$ -->
      <g transform="translate(221.215994 321.502498)scale(0.1 -0.1)">
       <defs>
        <path d="M 26.59375 63.40625 
C 26.59375 65.5 26.5 65.5 25.09375 65.5 
C 21.203125 61.1875 15.296875 59.796875 9.703125 59.796875 
C 9.40625 59.796875 8.90625 59.796875 8.796875 59.5 
C 8.703125 59.296875 8.703125 59.09375 8.703125 57 
C 11.796875 57 17 57.59375 21 59.984375 
L 21 7.203125 
C 21 3.6875 20.796875 2.5 12.203125 2.5 
L 9.203125 2.5 
L 9.203125 0 
C 14 0 19 0 23.796875 0 
C 28.59375 0 33.59375 0 38.40625 0 
L 38.40625 2.5 
L 35.40625 2.5 
C 26.796875 2.5 26.59375 3.59375 26.59375 7.15625 
z
" id="CMR17-49"/>
       </defs>
       <use transform="scale(0.996264)" xlink:href="#CMR17-49"/>
       <use transform="translate(45.690477 0)scale(0.996264)" xlink:href="#CMR17-48"/>
       <use transform="translate(91.380954 0)scale(0.996264)" xlink:href="#CMR17-48"/>
       <use transform="translate(137.071431 0)scale(0.996264)" xlink:href="#CMR17-48"/>
       <use transform="translate(182.761908 0)scale(0.996264)" xlink:href="#CMR17-48"/>
       <use transform="translate(228.452386 0)scale(0.996264)" xlink:href="#CMR17-48"/>
      </g>
     </g>
    </g>
    <g id="xtick_6">
     <g id="line2d_6">
      <g>
       <use style="stroke:#000000;stroke-width:0.8;" x="276.741818" xlink:href="#m6acbdde95a" y="307.584"/>
      </g>
     </g>
     <g id="text_6">
      <!-- $\mathdefault{125000}$ -->
      <g transform="translate(261.797812 321.502498)scale(0.1 -0.1)">
       <use transform="scale(0.996264)" xlink:href="#CMR17-49"/>
       <use transform="translate(45.690477 0)scale(0.996264)" xlink:href="#CMR17-50"/>
       <use transform="translate(91.380954 0)scale(0.996264)" xlink:href="#CMR17-53"/>
       <use transform="translate(137.071431 0)scale(0.996264)" xlink:href="#CMR17-48"/>
       <use transform="translate(182.761908 0)scale(0.996264)" xlink:href="#CMR17-48"/>
       <use transform="translate(228.452386 0)scale(0.996264)" xlink:href="#CMR17-48"/>
      </g>
     </g>
    </g>
    <g id="xtick_7">
     <g id="line2d_7">
      <g>
       <use style="stroke:#000000;stroke-width:0.8;" x="317.323636" xlink:href="#m6acbdde95a" y="307.584"/>
      </g>
     </g>
     <g id="text_7">
      <!-- $\mathdefault{150000}$ -->
      <g transform="translate(302.379631 321.502498)scale(0.1 -0.1)">
       <use transform="scale(0.996264)" xlink:href="#CMR17-49"/>
       <use transform="translate(45.690477 0)scale(0.996264)" xlink:href="#CMR17-53"/>
       <use transform="translate(91.380954 0)scale(0.996264)" xlink:href="#CMR17-48"/>
       <use transform="translate(137.071431 0)scale(0.996264)" xlink:href="#CMR17-48"/>
       <use transform="translate(182.761908 0)scale(0.996264)" xlink:href="#CMR17-48"/>
       <use transform="translate(228.452386 0)scale(0.996264)" xlink:href="#CMR17-48"/>
      </g>
     </g>
    </g>
    <g id="xtick_8">
     <g id="line2d_8">
      <g>
       <use style="stroke:#000000;stroke-width:0.8;" x="357.905455" xlink:href="#m6acbdde95a" y="307.584"/>
      </g>
     </g>
     <g id="text_8">
      <!-- $\mathdefault{175000}$ -->
      <g transform="translate(342.961449 321.502498)scale(0.1 -0.1)">
       <use transform="scale(0.996264)" xlink:href="#CMR17-49"/>
       <use transform="translate(45.690477 0)scale(0.996264)" xlink:href="#CMR17-55"/>
       <use transform="translate(91.380954 0)scale(0.996264)" xlink:href="#CMR17-53"/>
       <use transform="translate(137.071431 0)scale(0.996264)" xlink:href="#CMR17-48"/>
       <use transform="translate(182.761908 0)scale(0.996264)" xlink:href="#CMR17-48"/>
       <use transform="translate(228.452386 0)scale(0.996264)" xlink:href="#CMR17-48"/>
      </g>
     </g>
    </g>
    <g id="xtick_9">
     <g id="line2d_9">
      <g>
       <use style="stroke:#000000;stroke-width:0.8;" x="398.487273" xlink:href="#m6acbdde95a" y="307.584"/>
      </g>
     </g>
     <g id="text_9">
      <!-- $\mathdefault{200000}$ -->
      <g transform="translate(383.543267 321.502498)scale(0.1 -0.1)">
       <use transform="scale(0.996264)" xlink:href="#CMR17-50"/>
       <use transform="translate(45.690477 0)scale(0.996264)" xlink:href="#CMR17-48"/>
       <use transform="translate(91.380954 0)scale(0.996264)" xlink:href="#CMR17-48"/>
       <use transform="translate(137.071431 0)scale(0.996264)" xlink:href="#CMR17-48"/>
       <use transform="translate(182.761908 0)scale(0.996264)" xlink:href="#CMR17-48"/>
       <use transform="translate(228.452386 0)scale(0.996264)" xlink:href="#CMR17-48"/>
      </g>
     </g>
    </g>
   </g>
   <g id="matplotlib.axis_2">
    <g id="ytick_1">
     <g id="line2d_10">
      <defs>
       <path d="M 0 0 
L -3.5 0 
" id="m2d1c8dd831" style="stroke:#000000;stroke-width:0.8;"/>
      </defs>
      <g>
       <use style="stroke:#000000;stroke-width:0.8;" x="57.6" xlink:href="#m2d1c8dd831" y="274.469124"/>
      </g>
     </g>
     <g id="text_10">
      <!-- $\mathdefault{0.02}$ -->
      <g transform="translate(32.888586 277.928373)scale(0.1 -0.1)">
       <defs>
        <path d="M 18.40625 4.796875 
C 18.40625 7.6875 16 9.671875 13.59375 9.671875 
C 10.703125 9.671875 8.703125 7.28125 8.703125 4.890625 
C 8.703125 2 11.09375 0 13.5 0 
C 16.40625 0 18.40625 2.390625 18.40625 4.796875 
z
" id="CMMI12-58"/>
       </defs>
       <use transform="scale(0.996264)" xlink:href="#CMR17-48"/>
       <use transform="translate(45.690477 0)scale(0.996264)" xlink:href="#CMMI12-58"/>
       <use transform="translate(72.787654 0)scale(0.996264)" xlink:href="#CMR17-48"/>
       <use transform="translate(118.478131 0)scale(0.996264)" xlink:href="#CMR17-50"/>
      </g>
     </g>
    </g>
    <g id="ytick_2">
     <g id="line2d_11">
      <g>
       <use style="stroke:#000000;stroke-width:0.8;" x="57.6" xlink:href="#m2d1c8dd831" y="222.764592"/>
      </g>
     </g>
     <g id="text_11">
      <!-- $\mathdefault{0.04}$ -->
      <g transform="translate(32.888586 226.223841)scale(0.1 -0.1)">
       <defs>
        <path d="M 33.59375 64.40625 
C 33.59375 66.5 33.5 66.5 31.703125 66.5 
L 2 19.59375 
L 2 17 
L 27.796875 17 
L 27.796875 7.140625 
C 27.796875 3.5 27.59375 2.5 20.59375 2.5 
L 18.703125 2.5 
L 18.703125 0 
C 21.90625 0 27.296875 0 30.703125 0 
C 34.09375 0 39.5 0 42.703125 0 
L 42.703125 2.5 
L 40.796875 2.5 
C 33.796875 2.5 33.59375 3.5 33.59375 7.140625 
L 33.59375 17 
L 43.796875 17 
L 43.796875 19.59375 
L 33.59375 19.59375 
z
M 28.09375 57.859375 
L 28.09375 19.59375 
L 4 19.59375 
z
" id="CMR17-52"/>
       </defs>
       <use transform="scale(0.996264)" xlink:href="#CMR17-48"/>
       <use transform="translate(45.690477 0)scale(0.996264)" xlink:href="#CMMI12-58"/>
       <use transform="translate(72.787654 0)scale(0.996264)" xlink:href="#CMR17-48"/>
       <use transform="translate(118.478131 0)scale(0.996264)" xlink:href="#CMR17-52"/>
      </g>
     </g>
    </g>
    <g id="ytick_3">
     <g id="line2d_12">
      <g>
       <use style="stroke:#000000;stroke-width:0.8;" x="57.6" xlink:href="#m2d1c8dd831" y="171.060061"/>
      </g>
     </g>
     <g id="text_12">
      <!-- $\mathdefault{0.06}$ -->
      <g transform="translate(32.888586 174.51931)scale(0.1 -0.1)">
       <defs>
        <path d="M 10.59375 34 
C 10.59375 57.65625 21.796875 63 28.296875 63 
C 30.40625 63 35.5 62.640625 37.5 59 
C 35.90625 59 32.90625 59 32.90625 55.515625 
C 32.90625 52.828125 35.09375 51.921875 36.5 51.921875 
C 37.40625 51.921875 40.09375 52.3125 40.09375 55.625 
C 40.09375 61.78125 35.09375 65.296875 28.203125 65.296875 
C 16.296875 65.296875 3.796875 52.96875 3.796875 31 
C 3.796875 3.953125 15.09375 -2 23.09375 -2 
C 32.796875 -2 42 6.671875 42 20.046875 
C 42 32.515625 33.90625 41.59375 23.703125 41.59375 
C 17.59375 41.59375 13.09375 37.609375 10.59375 30.625 
z
M 23.09375 0.390625 
C 10.796875 0.390625 10.796875 18.75 10.796875 22.4375 
C 10.796875 29.625 14.203125 40 23.5 40 
C 25.203125 40 30.09375 40 33.40625 33.125 
C 35.203125 29.21875 35.203125 25.140625 35.203125 20.140625 
C 35.203125 14.75 35.203125 10.78125 33.09375 6.78125 
C 30.90625 2.671875 27.703125 0.390625 23.09375 0.390625 
z
" id="CMR17-54"/>
       </defs>
       <use transform="scale(0.996264)" xlink:href="#CMR17-48"/>
       <use transform="translate(45.690477 0)scale(0.996264)" xlink:href="#CMMI12-58"/>
       <use transform="translate(72.787654 0)scale(0.996264)" xlink:href="#CMR17-48"/>
       <use transform="translate(118.478131 0)scale(0.996264)" xlink:href="#CMR17-54"/>
      </g>
     </g>
    </g>
    <g id="ytick_4">
     <g id="line2d_13">
      <g>
       <use style="stroke:#000000;stroke-width:0.8;" x="57.6" xlink:href="#m2d1c8dd831" y="119.35553"/>
      </g>
     </g>
     <g id="text_13">
      <!-- $\mathdefault{0.08}$ -->
      <g transform="translate(32.888586 122.814779)scale(0.1 -0.1)">
       <defs>
        <path d="M 27.203125 35.375 
C 33.5 38.546875 39.90625 43.328125 39.90625 50.984375 
C 39.90625 60.015625 31.09375 65.296875 23 65.296875 
C 13.90625 65.296875 5.90625 58.734375 5.90625 49.6875 
C 5.90625 47.203125 6.5 42.921875 10.40625 39.140625 
C 11.40625 38.15625 15.59375 35.171875 18.296875 33.28125 
C 13.796875 30.984375 3.296875 25.53125 3.296875 14.59375 
C 3.296875 4.359375 13.09375 -2 22.796875 -2 
C 33.5 -2 42.5 5.65625 42.5 15.78125 
C 42.5 24.84375 36.40625 29.015625 32.40625 31.703125 
z
M 14.09375 44.09375 
C 13.296875 44.59375 9.296875 47.671875 9.296875 52.359375 
C 9.296875 58.421875 15.59375 63 22.796875 63 
C 30.703125 63 36.5 57.4375 36.5 50.96875 
C 36.5 41.703125 26.09375 36.421875 25.59375 36.421875 
C 25.5 36.421875 25.40625 36.421875 24.59375 37.03125 
z
M 32.5 23.734375 
C 34 22.640625 38.796875 19.375 38.796875 13.296875 
C 38.796875 5.953125 31.40625 0.390625 23 0.390625 
C 13.90625 0.390625 7 6.84375 7 14.6875 
C 7 22.546875 13.09375 29.09375 20 32.1875 
z
" id="CMR17-56"/>
       </defs>
       <use transform="scale(0.996264)" xlink:href="#CMR17-48"/>
       <use transform="translate(45.690477 0)scale(0.996264)" xlink:href="#CMMI12-58"/>
       <use transform="translate(72.787654 0)scale(0.996264)" xlink:href="#CMR17-48"/>
       <use transform="translate(118.478131 0)scale(0.996264)" xlink:href="#CMR17-56"/>
      </g>
     </g>
    </g>
    <g id="ytick_5">
     <g id="line2d_14">
      <g>
       <use style="stroke:#000000;stroke-width:0.8;" x="57.6" xlink:href="#m2d1c8dd831" y="67.650998"/>
      </g>
     </g>
     <g id="text_14">
      <!-- $\mathdefault{0.10}$ -->
      <g transform="translate(32.888586 71.110248)scale(0.1 -0.1)">
       <use transform="scale(0.996264)" xlink:href="#CMR17-48"/>
       <use transform="translate(45.690477 0)scale(0.996264)" xlink:href="#CMMI12-58"/>
       <use transform="translate(72.787654 0)scale(0.996264)" xlink:href="#CMR17-49"/>
       <use transform="translate(118.478131 0)scale(0.996264)" xlink:href="#CMR17-48"/>
      </g>
     </g>
    </g>
   </g>
   <g id="line2d_15">
    <path clip-path="url(#pefe63bf1b1)" d="M 73.832727 67.650998 
L 74.280751 67.746485 
L 74.303476 70.404547 
L 74.366784 116.589262 
L 74.421975 73.175305 
L 74.456064 65.984361 
L 74.508009 82.239239 
L 74.556707 96.190008 
L 74.605405 76.59637 
L 74.655727 66.867226 
L 74.727151 70.507187 
L 74.891101 77.691797 
L 74.917073 76.311999 
L 75.029079 62.152215 
L 75.064791 66.326261 
L 75.134592 73.342633 
L 75.186537 72.023903 
L 75.204393 71.415355 
L 75.2677 72.390122 
L 75.296919 72.176493 
L 75.314775 71.945324 
L 75.392692 73.597727 
L 75.475479 72.525439 
L 75.418665 73.854534 
L 75.477103 72.581547 
L 75.563136 70.308203 
L 75.602095 70.81615 
L 75.704361 73.633802 
L 75.73358 73.459997 
L 75.787148 72.948696 
L 75.845585 73.310905 
L 75.879674 73.519048 
L 75.952721 73.090183 
L 76.004666 72.842341 
L 76.123165 74.616137 
L 76.329321 75.188605 
L 76.330944 75.184558 
L 76.378019 75.344821 
L 76.379642 75.34027 
L 76.938048 83.128985 
L 78.376268 147.400699 
L 79.397306 203.059593 
L 80.923183 268.103514 
L 81.817606 287.781133 
L 82.160116 291.807706 
L 82.841891 295.216395 
L 82.843514 295.212198 
L 82.926301 295.301881 
L 82.927924 295.297003 
L 83.059409 295.382131 
L 83.061033 295.377503 
L 83.14382 295.467046 
L 83.145443 295.462379 
L 83.199011 295.487054 
L 83.254202 295.443525 
L 83.427892 295.139287 
L 83.429516 295.142158 
L 83.48633 295.027509 
L 83.487953 295.030195 
L 83.642164 294.797187 
L 83.643788 294.801034 
L 83.713588 294.685829 
L 83.715212 294.688085 
L 83.94734 294.006858 
L 83.948963 294.007648 
L 83.983052 293.903141 
L 83.984675 293.903952 
L 84.161612 293.488427 
L 84.163235 293.490607 
L 84.213556 293.375528 
L 84.21518 293.376795 
L 84.460294 292.611597 
L 84.497629 292.50882 
L 84.677812 292.102296 
L 84.679436 292.1041 
L 84.729757 291.994329 
L 84.73138 291.995347 
L 84.768716 291.895891 
L 84.770339 291.896251 
L 84.986234 291.303292 
L 85.030063 291.206203 
L 85.200506 290.917734 
L 85.202129 290.919635 
L 85.258944 290.817246 
L 85.260567 290.818314 
L 85.473216 290.360448 
L 85.474839 290.36151 
L 85.525161 290.268473 
L 85.526784 290.269767 
L 85.687488 290.072449 
L 85.689111 290.074822 
L 85.762159 289.990195 
L 85.763782 289.991756 
L 85.963444 289.672195 
L 85.965068 289.673564 
L 86.028375 289.588835 
L 86.033245 289.586624 
L 86.184209 289.462366 
L 86.221545 289.444619 
L 86.275113 289.398596 
L 86.276736 289.400321 
L 86.346537 289.315306 
L 86.34816 289.316479 
L 86.52185 289.119443 
L 86.523473 289.121106 
L 86.674438 289.026403 
L 86.770211 288.988095 
L 86.776704 288.983692 
L 86.969873 288.797644 
L 87.059153 288.732209 
L 87.206871 288.666745 
L 87.309137 288.619693 
L 87.502307 288.44818 
L 87.601327 288.385127 
L 87.755537 288.322862 
L 87.851311 288.261145 
L 88.047727 288.091991 
L 88.156486 288.030674 
L 88.339916 287.93527 
L 88.432442 287.854837 
L 88.625612 287.708945 
L 88.750604 287.653879 
L 89.005457 287.463818 
L 89.133696 287.383315 
L 89.323619 287.297947 
L 89.435625 287.220826 
L 89.638534 287.096637 
L 89.795991 287.045929 
L 90.057338 286.907045 
L 90.247261 286.854479 
L 90.511855 286.764591 
L 90.743983 286.721521 
L 91.011823 286.672033 
L 91.299142 286.659451 
L 91.592954 286.633443 
L 91.89326 286.657319 
L 92.157853 286.653165 
L 92.451665 286.68676 
L 92.708143 286.69852 
L 93.070132 286.728487 
L 93.49056 286.769694 
L 93.792489 286.789924 
L 94.323299 286.820704 
L 94.673926 286.82848 
L 95.143052 286.844526 
L 95.667369 286.857235 
L 96.328041 286.874901 
L 97.342586 286.892225 
L 98.090915 286.902665 
L 98.991831 286.91252 
L 100.428428 286.9138 
L 103.324346 286.906293 
L 108.272081 286.904869 
L 119.625251 286.90517 
L 250.022749 286.770164 
L 250.709393 286.685885 
L 253.486813 286.833315 
L 254.003014 286.438884 
L 254.434804 286.238683 
L 254.774068 286.337635 
L 255.44448 286.578747 
L 255.79673 286.38712 
L 256.295075 286.15159 
L 256.571031 286.289196 
L 257.246313 286.722999 
L 257.457338 286.494396 
L 257.801472 285.708942 
L 258.257612 284.830159 
L 258.454028 284.825223 
L 258.6683 285.099718 
L 259.272157 285.957336 
L 259.434484 285.792223 
L 259.692585 285.125858 
L 260.194176 283.898172 
L 260.34514 283.941071 
L 260.526947 284.315522 
L 261.140544 285.96293 
L 261.195735 285.916648 
L 261.33696 285.536638 
L 261.578828 284.099603 
L 262.215151 280.179449 
L 262.31417 280.14246 
L 262.348259 280.179205 
L 262.48786 280.578489 
L 262.768687 282.23602 
L 263.130676 283.923856 
L 263.198854 283.908614 
L 263.226449 283.861295 
L 263.356311 283.315236 
L 263.598179 281.114289 
L 264.130612 276.395208 
L 264.215023 276.302652 
L 264.262097 276.359212 
L 264.383843 276.857565 
L 264.614348 278.949583 
L 265.075357 282.912711 
L 265.138665 282.815831 
L 265.252294 282.028857 
L 265.463319 278.675003 
L 266.154833 266.822377 
L 266.221388 266.715538 
L 266.273332 266.805607 
L 266.391831 267.561133 
L 266.615843 270.738112 
L 267.096332 277.449233 
L 267.101201 277.448134 
L 267.151523 277.30195 
L 267.263529 276.077504 
L 267.482671 270.658951 
L 268.060556 256.201779 
L 268.159575 255.81638 
L 268.20665 255.914899 
L 268.315409 256.821383 
L 268.518319 260.775993 
L 269.042636 272.641076 
L 269.086464 272.476071 
L 269.187107 270.865074 
L 269.386769 263.255262 
L 270.044195 236.628279 
L 270.169187 235.805488 
L 270.209769 235.899279 
L 270.308788 236.86339 
L 270.492218 241.275481 
L 271.050624 259.706437 
L 271.138281 258.761999 
L 271.284375 253.099507 
L 272.115491 214.326328 
L 272.133347 214.335675 
L 272.159319 214.426149 
L 272.253469 215.525443 
L 272.425536 220.679314 
L 272.758307 239.120762 
L 273.001798 247.579535 
L 273.014784 247.546553 
L 273.071599 246.659297 
L 273.20146 240.258695 
L 273.604032 204.255739 
L 273.948166 185.554956 
L 274.123479 182.955904 
L 274.147828 183.010572 
L 274.222499 183.878088 
L 274.36697 188.714537 
L 274.620201 206.257058 
L 274.980567 227.894753 
L 274.98706 227.883591 
L 275.027642 227.329202 
L 275.133155 222.08583 
L 275.399372 194.284491 
L 275.797073 161.92148 
L 276.038941 155.790167 
L 276.048681 155.790272 
L 276.074653 155.897872 
L 276.15744 157.332472 
L 276.311651 164.691086 
L 276.590854 191.114115 
L 276.894406 212.937395 
L 276.900899 212.921537 
L 276.943104 212.139171 
L 277.051863 204.958799 
L 277.399244 160.679136 
L 277.767727 130.563129 
L 277.964143 125.602622 
L 277.980375 125.64436 
L 278.043683 126.554438 
L 278.173545 132.341622 
L 278.397556 154.304987 
L 278.809868 195.428585 
L 278.832593 195.213905 
L 278.907264 191.674859 
L 279.089071 169.640396 
L 279.561443 115.9751 
L 279.816297 106.401299 
L 279.830906 106.373105 
L 279.869865 106.62319 
L 279.962391 109.225274 
L 280.127965 121.400391 
L 280.449373 165.867045 
L 280.671761 184.548481 
L 280.689617 184.394875 
L 280.756172 181.296835 
L 280.921745 160.404224 
L 281.42009 98.81785 
L 281.681437 87.931734 
L 281.699293 87.883823 
L 281.741498 88.192943 
L 281.837271 91.255461 
L 282.006092 105.32591 
L 282.359965 159.593953 
L 282.530409 172.755587 
L 282.561251 172.288766 
L 282.647284 166.211394 
L 282.916748 125.243335 
L 283.281984 87.117392 
L 283.523852 78.682647 
L 283.543331 78.737582 
L 283.549824 78.784436 
L 283.622871 80.349388 
L 283.762473 89.167099 
L 283.992977 120.757131 
L 284.350097 166.786383 
L 284.367953 166.607304 
L 284.434508 163.010249 
L 284.611444 137.899733 
L 285.048105 82.227556 
L 285.325684 69.220867 
L 285.354903 69.074681 
L 285.405225 69.511598 
L 285.505868 73.297514 
L 285.676311 89.733698 
L 286.16654 159.58329 
L 286.265559 154.361517 
L 286.486324 120.422171 
L 286.859677 76.985876 
L 287.125894 65.737659 
L 287.146996 65.669107 
L 287.190825 66.011351 
L 287.286598 69.292131 
L 287.450548 84.212079 
L 287.775203 140.449251 
L 287.953763 157.076797 
L 287.982982 156.586771 
L 288.069015 149.828002 
L 288.927727 60.630068 
L 288.945583 60.57596 
L 288.989411 60.913964 
L 289.083561 64.167335 
L 289.244265 79.001861 
L 289.560803 135.112862 
L 289.742609 152.694118 
L 289.770205 152.235961 
L 289.854615 145.671823 
L 290.688977 59.917675 
L 290.711703 59.839123 
L 290.757155 60.210504 
L 290.852928 63.597753 
L 291.015255 78.840329 
L 291.348026 138.097744 
L 291.507107 152.162668 
L 291.541196 151.478575 
L 291.635345 143.0815 
L 292.388544 58.407733 
L 292.49081 56.792057 
L 292.537885 57.199973 
L 292.635281 60.832645 
L 292.799232 76.988106 
L 293.278097 149.283689 
L 293.381987 143.055712 
L 293.667683 97.953706 
L 294.010193 64.565798 
L 294.239075 57.213873 
L 294.245568 57.220218 
L 294.28615 57.59245 
L 294.381923 61.009887 
L 294.542627 76.249441 
L 294.873775 135.969475 
L 295.029609 149.762446 
L 295.065321 148.999233 
L 295.162717 139.910563 
L 295.875334 57.725076 
L 296.006819 55.079463 
L 296.047401 55.369984 
L 296.138304 58.360243 
L 296.294138 72.452918 
L 296.579834 124.060728 
L 296.789236 147.63208 
L 296.811962 147.337088 
L 296.886633 142.188099 
L 297.125254 104.483987 
L 297.477504 65.927078 
L 297.735604 56.031555 
L 297.748591 56.007599 
L 297.785926 56.259004 
L 297.873583 58.935734 
L 298.024547 71.728902 
L 298.285894 117.423044 
L 298.535878 148.603831 
L 298.552111 148.425198 
L 298.617041 144.618644 
L 298.802095 116.692424 
L 299.194927 67.539065 
L 299.475753 54.468585 
L 299.509841 54.286512 
L 299.560163 54.75377 
L 299.660806 58.739985 
L 299.828003 76.117395 
L 300.289012 146.836817 
L 300.383162 141.714075 
L 300.608797 106.240623 
L 300.964294 66.093798 
L 301.227264 55.495379 
L 301.24512 55.441577 
L 301.288948 55.769928 
L 301.383098 58.982872 
L 301.540556 73.532371 
L 301.837615 127.528247 
L 302.030784 148.045901 
L 302.056756 147.642957 
L 302.13792 141.431548 
L 302.469068 89.471715 
L 302.811578 59.284065 
L 303.003124 53.911996 
L 303.024227 53.986833 
L 303.090781 55.311245 
L 303.21902 63.319281 
L 303.423552 92.912461 
L 303.783919 146.453433 
L 303.813137 145.900679 
L 303.900794 138.519228 
L 304.665356 55.994406 
L 304.738403 55.172502 
L 304.790348 55.65545 
L 304.892614 59.716506 
L 305.059811 77.029233 
L 305.522444 147.77642 
L 305.618217 142.4137 
L 305.850345 105.486749 
L 306.209088 64.845513 
L 306.475305 53.793442 
L 306.494784 53.733326 
L 306.538612 54.082066 
L 306.632762 57.405992 
L 306.791843 72.587717 
L 307.118121 132.345503 
L 307.273955 146.268304 
L 307.308044 145.528276 
L 307.403817 136.653172 
L 308.096954 57.593669 
L 308.226816 55.04358 
L 308.269021 55.342898 
L 308.359924 58.313563 
L 308.514135 72.072314 
L 308.791715 121.979366 
L 309.01248 147.646042 
L 309.031959 147.400075 
L 309.10176 142.879671 
L 309.311162 110.105648 
L 309.681268 65.969433 
L 309.957225 53.759791 
L 309.983197 53.647552 
L 310.030272 54.041757 
L 310.127668 57.665109 
L 310.289996 73.793496 
L 310.762368 146.178847 
L 310.866257 139.839453 
L 311.174679 91.418363 
L 311.510697 60.939935 
L 311.715229 54.981661 
L 311.731462 55.023197 
L 311.7899 55.9571 
L 311.908399 62.215729 
L 312.096698 86.254827 
L 312.500893 147.582867 
L 312.551215 145.995147 
L 312.674583 131.418007 
L 313.211887 62.947701 
L 313.465117 53.612553 
L 313.473233 53.607071 
L 313.500829 53.76032 
L 313.578746 55.768353 
L 313.719971 66.436345 
L 313.952099 104.69703 
L 314.249158 146.135301 
L 314.265391 145.985853 
L 314.327075 142.56461 
L 314.502388 116.769577 
L 314.898467 67.307766 
L 315.174423 55.089683 
L 315.203642 54.951826 
L 315.25234 55.366105 
L 315.35136 59.071788 
L 315.515311 75.360144 
L 315.987683 147.552679 
L 316.091572 141.271156 
L 316.378892 95.412195 
L 316.724649 61.333991 
L 316.9584 53.586521 
L 316.96327 53.590034 
L 316.998982 53.872624 
L 317.088262 56.777309 
L 317.242473 70.618779 
L 317.521676 121.218037 
L 317.737571 146.114651 
L 317.758673 145.832846 
L 317.831721 140.864966 
L 318.062225 104.488172 
L 318.414476 65.259407 
L 318.675823 54.97521 
L 318.692055 54.937672 
L 318.732637 55.237642 
L 318.82354 58.211531 
L 318.977751 71.984322 
L 319.255331 121.928946 
L 319.474473 147.537608 
L 319.495575 147.281853 
L 319.566999 142.561308 
L 319.784518 108.273697 
L 320.149754 65.485675 
L 320.422464 53.670178 
L 320.446813 53.577031 
L 320.492265 53.955582 
L 320.588038 57.447616 
L 320.748742 73.14908 
L 321.224361 146.104506 
L 321.33312 139.273341 
L 322.151249 55.049382 
L 322.178845 54.930606 
L 322.22592 55.325321 
L 322.323316 58.889604 
L 322.485644 74.728555 
L 322.962886 147.530779 
L 323.070022 140.807499 
L 323.91737 53.615134 
L 323.933603 53.572335 
L 323.975808 53.891747 
L 324.068335 57.054394 
L 324.224169 71.538283 
L 324.521228 125.955026 
L 324.711151 146.099333 
L 324.738746 145.653406 
L 324.821533 139.127174 
L 325.631546 55.113636 
L 325.665635 54.927204 
L 325.715956 55.371185 
L 325.814976 59.147434 
L 325.978927 75.57656 
L 326.449676 147.527433 
L 326.551942 141.413727 
L 326.826275 97.521668 
L 327.173655 62.108624 
L 327.418769 53.570606 
L 327.430132 53.58602 
L 327.444742 53.67238 
L 327.516166 55.262936 
L 327.649274 64.280223 
L 327.863546 97.098165 
L 328.199564 146.097171 
L 328.222289 145.763351 
L 328.298583 140.290213 
L 328.558307 99.046002 
L 328.900817 63.622838 
L 329.149178 54.927567 
L 329.155671 54.927125 
L 329.178397 55.038755 
L 329.251444 56.695149 
L 329.386176 65.870353 
L 329.602071 98.897248 
L 329.936465 147.525667 
L 329.959191 147.2175 
L 330.033862 141.994175 
L 330.274106 103.650188 
L 330.629603 64.178438 
L 330.892573 53.607438 
L 330.908806 53.569228 
L 330.949388 53.876628 
L 331.040291 56.921893 
L 331.196125 71.217382 
L 331.486691 124.291154 
L 331.686353 146.096169 
L 331.710703 145.725457 
L 331.78862 139.967577 
L 332.072692 95.000228 
L 332.410333 62.255578 
L 332.639215 54.924854 
L 332.645708 54.930663 
L 332.684666 55.273691 
L 332.778816 58.543297 
L 332.937897 73.456073 
L 333.246319 129.806163 
L 333.423255 147.52459 
L 333.454097 146.967111 
L 333.541754 139.557596 
L 334.324172 54.370911 
L 334.395596 53.568588 
L 334.44754 54.064306 
L 334.549807 58.228534 
L 334.717004 75.94884 
L 335.173143 146.095586 
L 335.264047 141.232419 
L 335.479942 107.485796 
L 335.838685 66.063868 
L 336.106525 54.992798 
L 336.127628 54.924497 
L 336.171456 55.267599 
L 336.265606 58.523061 
L 336.424687 73.407235 
L 336.731485 129.452749 
L 336.911668 147.52444 
L 336.940887 146.979956 
L 337.028544 139.602632 
L 337.814208 54.308224 
L 337.882385 53.568264 
L 337.93433 54.057158 
L 338.034973 58.102811 
L 338.20217 75.654566 
L 338.659933 146.095126 
L 338.75246 141.101757 
L 338.973225 106.466312 
L 339.330345 65.746982 
L 339.594938 54.984469 
L 339.614417 54.924254 
L 339.658246 55.261812 
L 339.752396 58.503293 
L 339.909853 73.142917 
L 340.210159 127.92207 
L 340.398458 147.524387 
L 340.426054 147.049604 
L 340.510464 140.248862 
L 341.328593 53.838975 
L 341.369175 53.568114 
L 341.42112 54.050242 
L 341.521763 58.080296 
L 341.68896 75.601715 
L 342.148346 146.094962 
L 342.240873 140.969509 
L 342.466508 105.455133 
L 342.820381 65.546142 
L 343.083351 54.976733 
L 343.101207 54.924148 
L 343.145036 55.256197 
L 343.239185 58.483782 
L 343.396643 73.095546 
L 343.695325 127.559371 
L 343.885248 147.524271 
L 343.912844 147.061565 
L 343.995631 140.487752 
L 344.825123 53.729304 
L 344.855965 53.568071 
L 344.906287 54.013429 
L 345.005306 57.857721 
L 345.169257 74.602319 
L 345.635136 146.095112 
L 345.734156 140.308466 
L 345.992256 99.320571 
L 346.33639 63.632674 
L 346.584751 54.926302 
L 346.591244 54.925472 
L 346.613969 55.035693 
L 346.687017 56.687003 
L 346.821748 65.850856 
L 347.037644 98.861164 
L 347.372038 147.524045 
L 347.394764 147.22077 
L 347.469434 142.011542 
L 347.708055 103.939215 
L 348.063552 64.302188 
L 348.328145 53.607319 
L 348.344378 53.568183 
L 348.38496 53.873095 
L 348.475863 56.911865 
L 348.631697 71.19409 
L 348.92064 123.951389 
L 349.121926 146.095136 
L 349.146275 145.729427 
L 349.224192 139.985357 
L 349.506641 95.257798 
L 349.845905 62.264492 
L 350.074787 54.924176 
L 350.08128 54.929628 
L 350.120239 55.270386 
L 350.214388 58.533597 
L 350.373469 73.433482 
L 350.681891 129.776673 
L 350.860451 147.523953 
L 350.88967 146.972321 
L 350.977327 139.577189 
L 351.761367 54.338478 
L 351.831168 53.568075 
L 351.883113 54.060768 
L 351.985379 58.217906 
L 352.152576 75.924714 
L 352.608716 146.095018 
L 352.699619 141.248073 
L 352.913891 107.782693 
L 353.274257 66.074561 
L 353.542097 54.993495 
L 353.5632 54.924121 
L 353.607028 55.264801 
L 353.701178 58.514159 
L 353.860259 73.386 
L 354.167057 129.42463 
L 354.347241 147.524164 
L 354.37646 146.985247 
L 354.464116 139.621786 
L 355.24978 54.311271 
L 355.317958 53.568016 
L 355.371526 54.085395 
L 355.473792 58.299054 
L 355.642612 76.356755 
L 356.095505 146.094751 
L 356.184785 141.448745 
L 356.392564 109.206082 
L 356.757801 66.330375 
L 357.027264 55.007339 
L 357.04999 54.924075 
L 357.095441 55.284951 
L 357.191215 58.6742 
L 357.351919 73.994956 
L 357.681443 134.069181 
L 357.834031 147.524225 
L 357.869743 146.740188 
L 357.967139 137.53246 
L 358.665146 56.532132 
L 358.804748 53.568004 
L 358.843706 53.834267 
L 358.932986 56.686952 
L 359.085574 70.213857 
L 359.358284 119.341912 
L 359.583919 146.094954 
L 359.603398 145.847264 
L 359.674822 141.154085 
L 359.893964 106.819236 
L 360.251084 65.895865 
L 360.5173 54.987507 
L 360.53678 54.924073 
L 360.582231 55.279255 
L 360.676381 58.564325 
L 360.835462 73.50844 
L 361.145507 130.16263 
L 361.32082 147.524131 
L 361.351663 146.951598 
L 361.440943 139.30054 
L 362.211997 54.58857 
L 362.291537 53.568037 
L 362.343482 54.04058 
L 362.444125 58.048532 
L 362.609699 75.288375 
L 363.070708 146.095097 
L 363.164858 140.851612 
L 363.395363 104.477298 
L 363.747613 65.246089 
L 364.00896 54.961858 
L 364.025193 54.924263 
L 364.065775 55.224079 
L 364.156678 58.19767 
L 364.310889 71.970807 
L 364.588468 121.919102 
L 364.80761 147.523881 
L 364.828713 147.267248 
L 364.900137 142.543782 
L 365.117655 108.253257 
L 365.482892 65.470998 
L 365.755601 53.660678 
L 365.779951 53.568112 
L 365.825402 53.94785 
L 365.921175 57.442935 
L 366.081879 73.151277 
L 366.557498 146.095084 
L 366.666257 139.251268 
L 367.484387 55.041776 
L 367.511983 54.924155 
L 367.559057 55.321035 
L 367.656454 58.890671 
L 367.818781 74.740782 
L 368.296023 147.524046 
L 368.403159 140.782894 
L 369.248884 53.618911 
L 369.26674 53.568035 
L 369.308945 53.890027 
L 369.401472 57.059339 
L 369.558929 71.773666 
L 369.862481 127.467427 
L 370.044288 146.094914 
L 370.073507 145.587092 
L 370.15954 138.508967 
L 370.938711 55.489356 
L 370.998772 54.924089 
L 371.05234 55.432143 
L 371.154607 59.554493 
L 371.323427 77.244704 
L 371.782813 147.524202 
L 371.87534 142.448585 
L 372.096105 107.555504 
L 372.459718 65.286537 
L 372.730804 53.653686 
L 372.75353 53.568001 
L 372.798982 53.936072 
L 372.894755 57.402196 
L 373.055459 73.052806 
L 373.532701 146.094796 
L 373.64146 139.142677 
L 374.453097 55.094938 
L 374.485562 54.924065 
L 374.535884 55.365235 
L 374.634903 59.134951 
L 374.798854 75.551532 
L 375.269603 147.524201 
L 375.371869 141.427053 
L 375.644579 97.784144 
L 375.991959 62.218165 
L 376.238697 53.568601 
L 376.248436 53.578616 
L 376.264669 53.669117 
L 376.336093 55.255784 
L 376.469201 64.264362 
L 376.683473 97.069696 
L 377.019491 146.095031 
L 377.042217 145.764866 
L 377.118511 140.302368 
L 377.378234 99.063563 
L 377.720745 63.629157 
L 377.969105 54.926196 
L 377.975599 54.925485 
L 377.998324 55.036137 
L 378.071372 56.689003 
L 378.206103 65.856349 
L 378.421999 98.871853 
L 378.756393 147.524043 
L 378.779119 147.219227 
L 378.853789 142.005546 
L 379.094033 103.667816 
L 379.44953 64.185375 
L 379.7125 53.607011 
L 379.728733 53.568175 
L 379.769315 53.873892 
L 379.860218 56.914766 
L 380.016052 71.201316 
L 380.304995 123.961808 
L 380.506281 146.095109 
L 380.53063 145.727745 
L 380.608547 139.979094 
L 380.890996 95.249781 
L 381.23026 62.26122 
L 381.459142 54.924144 
L 381.465635 54.929716 
L 381.504593 55.271239 
L 381.598743 58.536607 
L 381.757824 73.440862 
L 382.066246 129.786462 
L 382.244806 147.523884 
L 382.274025 146.970271 
L 382.361681 139.570206 
L 383.145722 54.337269 
L 383.215523 53.568074 
L 383.267468 54.061817 
L 383.369734 58.221419 
L 383.536931 75.932935 
L 383.993071 146.095031 
L 384.083974 141.242385 
L 384.299869 107.502317 
L 384.660236 65.956185 
L 384.926452 54.993116 
L 384.947555 54.924122 
L 384.991383 55.26566 
L 385.085533 58.517182 
L 385.244614 73.393406 
L 385.551412 129.434519 
L 385.731596 147.524131 
L 385.760815 146.983224 
L 385.848471 139.614807 
L 386.634135 54.310085 
L 386.702313 53.568015 
L 386.755881 54.086481 
L 386.858147 58.302616 
L 387.026967 76.36508 
L 387.47986 146.094796 
L 387.56914 141.443156 
L 387.776919 109.196702 
L 388.142156 66.326406 
L 388.411619 55.006929 
L 388.434345 54.924074 
L 388.479796 55.285843 
L 388.575569 58.677306 
L 388.736273 74.002506 
L 389.067421 134.339709 
L 389.218385 147.52422 
L 389.254097 146.737762 
L 389.351494 137.524828 
L 390.049501 56.529903 
L 390.189103 53.568 
L 390.228061 53.835039 
L 390.317341 56.689793 
L 390.469929 70.220953 
L 390.742639 119.35288 
L 390.968273 146.094914 
L 390.987753 145.845885 
L 391.059177 141.148342 
L 391.278319 106.810011 
L 391.635439 65.891963 
L 391.901655 54.987149 
L 391.921135 54.924068 
L 391.964963 55.25464 
L 392.059113 58.478503 
L 392.21657 73.082806 
L 392.515252 127.541779 
L 392.705175 147.524153 
L 392.732771 147.064678 
L 392.815558 140.499083 
L 393.646673 53.714005 
L 393.675892 53.568027 
L 393.726214 54.011648 
L 393.825233 57.851882 
L 393.989184 74.588574 
L 394.455063 146.095083 
L 394.554083 140.318874 
L 394.812183 99.335052 
L 395.156317 63.638635 
L 395.404678 54.926378 
L 395.411171 54.925343 
L 395.43552 55.049547 
L 395.510191 56.806297 
L 395.646545 66.33837 
L 395.867311 100.757169 
L 396.191965 147.523929 
L 396.213068 147.265846 
L 396.284492 142.538013 
L 396.50201 108.243906 
L 396.867247 65.466942 
L 397.139956 53.660244 
L 397.164305 53.568127 
L 397.209757 53.948781 
L 397.30553 57.446139 
L 397.466234 73.159009 
L 397.941853 146.095095 
L 398.050612 139.244681 
L 398.487273 76.049391 
L 398.487273 76.049391 
" style="fill:none;stroke:#1f77b4;stroke-linecap:square;stroke-width:1.5;"/>
   </g>
   <g id="patch_3">
    <path d="M 57.6 307.584 
L 57.6 41.472 
" style="fill:none;stroke:#000000;stroke-linecap:square;stroke-linejoin:miter;stroke-width:0.8;"/>
   </g>
   <g id="patch_4">
    <path d="M 414.72 307.584 
L 414.72 41.472 
" style="fill:none;stroke:#000000;stroke-linecap:square;stroke-linejoin:miter;stroke-width:0.8;"/>
   </g>
   <g id="patch_5">
    <path d="M 57.6 307.584 
L 414.72 307.584 
" style="fill:none;stroke:#000000;stroke-linecap:square;stroke-linejoin:miter;stroke-width:0.8;"/>
   </g>
   <g id="patch_6">
    <path d="M 57.6 41.472 
L 414.72 41.472 
" style="fill:none;stroke:#000000;stroke-linecap:square;stroke-linejoin:miter;stroke-width:0.8;"/>
   </g>
  </g>
 </g>
 <defs>
  <clipPath id="pefe63bf1b1">
   <rect height="266.112" width="357.12" x="57.6" y="41.472"/>
  </clipPath>
 </defs>
</svg>
