<?xml version="1.0" encoding="utf-8" standalone="no"?>
<!DOCTYPE svg PUBLIC "-//W3C//DTD SVG 1.1//EN"
  "http://www.w3.org/Graphics/SVG/1.1/DTD/svg11.dtd">
<!-- Created with matplotlib (https://matplotlib.org/) -->
<svg height="345.6pt" version="1.1" viewBox="0 0 460.8 345.6" width="460.8pt" xmlns="http://www.w3.org/2000/svg" xmlns:xlink="http://www.w3.org/1999/xlink">
 <metadata>
  <rdf:RDF xmlns:cc="http://creativecommons.org/ns#" xmlns:dc="http://purl.org/dc/elements/1.1/" xmlns:rdf="http://www.w3.org/1999/02/22-rdf-syntax-ns#">
   <cc:Work>
    <dc:type rdf:resource="http://purl.org/dc/dcmitype/StillImage"/>
    <dc:date>2020-07-23T22:07:16.969675</dc:date>
    <dc:format>image/svg+xml</dc:format>
    <dc:creator>
     <cc:Agent>
      <dc:title>Matplotlib v3.3.0, https://matplotlib.org/</dc:title>
     </cc:Agent>
    </dc:creator>
   </cc:Work>
  </rdf:RDF>
 </metadata>
 <defs>
  <style type="text/css">*{stroke-linecap:butt;stroke-linejoin:round;}</style>
 </defs>
 <g id="figure_1">
  <g id="patch_1">
   <path d="M 0 345.6 
L 460.8 345.6 
L 460.8 0 
L 0 0 
z
" style="fill:#ffffff;"/>
  </g>
  <g id="axes_1">
   <g id="patch_2">
    <path d="M 57.6 307.584 
L 414.72 307.584 
L 414.72 41.472 
L 57.6 41.472 
z
" style="fill:#ffffff;"/>
   </g>
   <g id="matplotlib.axis_1">
    <g id="xtick_1">
     <g id="line2d_1">
      <defs>
       <path d="M 0 0 
L 0 3.5 
" id="m182fc447dc" style="stroke:#000000;stroke-width:0.8;"/>
      </defs>
      <g>
       <use style="stroke:#000000;stroke-width:0.8;" x="73.832727" xlink:href="#m182fc447dc" y="307.584"/>
      </g>
     </g>
     <g id="text_1">
      <!-- $\mathdefault{0}$ -->
      <g transform="translate(71.34206 321.502498)scale(0.1 -0.1)">
       <defs>
        <path d="M 42 31.640625 
C 42 37.75 41.90625 48.125 37.703125 56.109375 
C 34 63.109375 28.09375 65.59375 22.90625 65.59375 
C 18.09375 65.59375 12 63.40625 8.203125 56.203125 
C 4.203125 48.71875 3.796875 39.4375 3.796875 31.640625 
C 3.796875 25.953125 3.90625 17.28125 7 9.671875 
C 11.296875 -0.609375 19 -2 22.90625 -2 
C 27.5 -2 34.5 -0.109375 38.59375 9.375 
C 41.59375 16.28125 42 24.359375 42 31.640625 
z
M 22.90625 -0.40625 
C 16.5 -0.40625 12.703125 5.078125 11.296875 12.6875 
C 10.203125 18.5625 10.203125 27.15625 10.203125 32.75 
C 10.203125 40.4375 10.203125 46.828125 11.5 52.921875 
C 13.40625 61.390625 19 64 22.90625 64 
C 27 64 32.296875 61.296875 34.203125 53.125 
C 35.5 47.4375 35.59375 40.734375 35.59375 32.75 
C 35.59375 26.25 35.59375 18.265625 34.40625 12.375 
C 32.296875 1.484375 26.40625 -0.40625 22.90625 -0.40625 
z
" id="CMR17-48"/>
       </defs>
       <use transform="scale(0.996264)" xlink:href="#CMR17-48"/>
      </g>
     </g>
    </g>
    <g id="xtick_2">
     <g id="line2d_2">
      <g>
       <use style="stroke:#000000;stroke-width:0.8;" x="114.414545" xlink:href="#m182fc447dc" y="307.584"/>
      </g>
     </g>
     <g id="text_2">
      <!-- $\mathdefault{25000}$ -->
      <g transform="translate(101.961207 321.502498)scale(0.1 -0.1)">
       <defs>
        <path d="M 41.703125 15.453125 
L 39.90625 15.453125 
C 38.90625 8.375 38.09375 7.171875 37.703125 6.5625 
C 37.203125 5.765625 30 5.765625 28.59375 5.765625 
L 9.40625 5.765625 
C 13 9.671875 20 16.75 28.5 24.953125 
C 34.59375 30.734375 41.703125 37.53125 41.703125 47.421875 
C 41.703125 59.21875 32.296875 66 21.796875 66 
C 10.796875 66 4.09375 56.3125 4.09375 47.34375 
C 4.09375 43.4375 7 42.9375 8.203125 42.9375 
C 9.203125 42.9375 12.203125 43.546875 12.203125 47.03125 
C 12.203125 50.109375 9.59375 51 8.203125 51 
C 7.59375 51 7 50.90625 6.59375 50.703125 
C 8.5 59.21875 14.296875 63.40625 20.40625 63.40625 
C 29.09375 63.40625 34.796875 56.515625 34.796875 47.421875 
C 34.796875 38.734375 29.703125 31.25 24 24.75 
L 4.09375 2.28125 
L 4.09375 0 
L 39.296875 0 
z
" id="CMR17-50"/>
        <path d="M 11.40625 57.6875 
C 12.40625 57.28125 16.5 56 20.703125 56 
C 30 56 35.09375 61.109375 38 64.0625 
C 38 64.953125 38 65.5 37.40625 65.5 
C 37.296875 65.5 37.09375 65.5 36.296875 65.046875 
C 32.796875 63.40625 28.703125 62.078125 23.703125 62.078125 
C 20.703125 62.078125 16.203125 62.484375 11.296875 64.671875 
C 10.203125 65.171875 10 65.171875 9.90625 65.171875 
C 9.40625 65.171875 9.296875 65.0625 9.296875 63.078125 
L 9.296875 34.421875 
C 9.296875 32.640625 9.296875 32.140625 10.296875 32.140625 
C 10.796875 32.140625 11 32.34375 11.5 33.03125 
C 14.703125 37.515625 19.09375 39.40625 24.09375 39.40625 
C 27.59375 39.40625 35.09375 37.21875 35.09375 20.140625 
C 35.09375 16.953125 35.09375 11.171875 32.09375 6.578125 
C 29.59375 2.484375 25.703125 0.390625 21.40625 0.390625 
C 14.796875 0.390625 8.09375 5 6.296875 12.71875 
C 6.703125 12.609375 7.5 12.421875 7.90625 12.421875 
C 9.203125 12.421875 11.703125 13.125 11.703125 16.21875 
C 11.703125 18.90625 9.796875 20 7.90625 20 
C 5.59375 20 4.09375 18.59375 4.09375 15.796875 
C 4.09375 7.09375 11 -2 21.59375 -2 
C 31.90625 -2 41.703125 6.875 41.703125 19.75 
C 41.703125 31.71875 33.90625 41 24.203125 41 
C 19.09375 41 14.796875 39.109375 11.40625 35.53125 
z
" id="CMR17-53"/>
       </defs>
       <use transform="scale(0.996264)" xlink:href="#CMR17-50"/>
       <use transform="translate(45.690477 0)scale(0.996264)" xlink:href="#CMR17-53"/>
       <use transform="translate(91.380954 0)scale(0.996264)" xlink:href="#CMR17-48"/>
       <use transform="translate(137.071431 0)scale(0.996264)" xlink:href="#CMR17-48"/>
       <use transform="translate(182.761908 0)scale(0.996264)" xlink:href="#CMR17-48"/>
      </g>
     </g>
    </g>
    <g id="xtick_3">
     <g id="line2d_3">
      <g>
       <use style="stroke:#000000;stroke-width:0.8;" x="154.996364" xlink:href="#m182fc447dc" y="307.584"/>
      </g>
     </g>
     <g id="text_3">
      <!-- $\mathdefault{50000}$ -->
      <g transform="translate(142.543026 321.502498)scale(0.1 -0.1)">
       <use transform="scale(0.996264)" xlink:href="#CMR17-53"/>
       <use transform="translate(45.690477 0)scale(0.996264)" xlink:href="#CMR17-48"/>
       <use transform="translate(91.380954 0)scale(0.996264)" xlink:href="#CMR17-48"/>
       <use transform="translate(137.071431 0)scale(0.996264)" xlink:href="#CMR17-48"/>
       <use transform="translate(182.761908 0)scale(0.996264)" xlink:href="#CMR17-48"/>
      </g>
     </g>
    </g>
    <g id="xtick_4">
     <g id="line2d_4">
      <g>
       <use style="stroke:#000000;stroke-width:0.8;" x="195.578182" xlink:href="#m182fc447dc" y="307.584"/>
      </g>
     </g>
     <g id="text_4">
      <!-- $\mathdefault{75000}$ -->
      <g transform="translate(183.124844 321.502498)scale(0.1 -0.1)">
       <defs>
        <path d="M 45.09375 61.578125 
L 45.09375 63.765625 
L 21.59375 63.765625 
C 9.90625 63.765625 9.703125 65.078125 9.296875 67 
L 7.5 67 
L 4.59375 48.34375 
L 6.40625 48.34375 
C 6.703125 50.234375 7.40625 55.3125 8.59375 57.203125 
C 9.203125 58 16.59375 58 18.296875 58 
L 40.296875 58 
L 29.203125 41.578125 
C 21.796875 30.53125 16.703125 15.609375 16.703125 2.578125 
C 16.703125 1.390625 16.703125 -2 20.296875 -2 
C 23.90625 -2 23.90625 1.390625 23.90625 2.671875 
L 23.90625 7.265625 
C 23.90625 23.5625 26.703125 34.3125 31.296875 41.1875 
z
" id="CMR17-55"/>
       </defs>
       <use transform="scale(0.996264)" xlink:href="#CMR17-55"/>
       <use transform="translate(45.690477 0)scale(0.996264)" xlink:href="#CMR17-53"/>
       <use transform="translate(91.380954 0)scale(0.996264)" xlink:href="#CMR17-48"/>
       <use transform="translate(137.071431 0)scale(0.996264)" xlink:href="#CMR17-48"/>
       <use transform="translate(182.761908 0)scale(0.996264)" xlink:href="#CMR17-48"/>
      </g>
     </g>
    </g>
    <g id="xtick_5">
     <g id="line2d_5">
      <g>
       <use style="stroke:#000000;stroke-width:0.8;" x="236.16" xlink:href="#m182fc447dc" y="307.584"/>
      </g>
     </g>
     <g id="text_5">
      <!-- $\mathdefault{100000}$ -->
      <g transform="translate(221.215994 321.502498)scale(0.1 -0.1)">
       <defs>
        <path d="M 26.59375 63.40625 
C 26.59375 65.5 26.5 65.5 25.09375 65.5 
C 21.203125 61.1875 15.296875 59.796875 9.703125 59.796875 
C 9.40625 59.796875 8.90625 59.796875 8.796875 59.5 
C 8.703125 59.296875 8.703125 59.09375 8.703125 57 
C 11.796875 57 17 57.59375 21 59.984375 
L 21 7.203125 
C 21 3.6875 20.796875 2.5 12.203125 2.5 
L 9.203125 2.5 
L 9.203125 0 
C 14 0 19 0 23.796875 0 
C 28.59375 0 33.59375 0 38.40625 0 
L 38.40625 2.5 
L 35.40625 2.5 
C 26.796875 2.5 26.59375 3.59375 26.59375 7.15625 
z
" id="CMR17-49"/>
       </defs>
       <use transform="scale(0.996264)" xlink:href="#CMR17-49"/>
       <use transform="translate(45.690477 0)scale(0.996264)" xlink:href="#CMR17-48"/>
       <use transform="translate(91.380954 0)scale(0.996264)" xlink:href="#CMR17-48"/>
       <use transform="translate(137.071431 0)scale(0.996264)" xlink:href="#CMR17-48"/>
       <use transform="translate(182.761908 0)scale(0.996264)" xlink:href="#CMR17-48"/>
       <use transform="translate(228.452386 0)scale(0.996264)" xlink:href="#CMR17-48"/>
      </g>
     </g>
    </g>
    <g id="xtick_6">
     <g id="line2d_6">
      <g>
       <use style="stroke:#000000;stroke-width:0.8;" x="276.741818" xlink:href="#m182fc447dc" y="307.584"/>
      </g>
     </g>
     <g id="text_6">
      <!-- $\mathdefault{125000}$ -->
      <g transform="translate(261.797812 321.502498)scale(0.1 -0.1)">
       <use transform="scale(0.996264)" xlink:href="#CMR17-49"/>
       <use transform="translate(45.690477 0)scale(0.996264)" xlink:href="#CMR17-50"/>
       <use transform="translate(91.380954 0)scale(0.996264)" xlink:href="#CMR17-53"/>
       <use transform="translate(137.071431 0)scale(0.996264)" xlink:href="#CMR17-48"/>
       <use transform="translate(182.761908 0)scale(0.996264)" xlink:href="#CMR17-48"/>
       <use transform="translate(228.452386 0)scale(0.996264)" xlink:href="#CMR17-48"/>
      </g>
     </g>
    </g>
    <g id="xtick_7">
     <g id="line2d_7">
      <g>
       <use style="stroke:#000000;stroke-width:0.8;" x="317.323636" xlink:href="#m182fc447dc" y="307.584"/>
      </g>
     </g>
     <g id="text_7">
      <!-- $\mathdefault{150000}$ -->
      <g transform="translate(302.379631 321.502498)scale(0.1 -0.1)">
       <use transform="scale(0.996264)" xlink:href="#CMR17-49"/>
       <use transform="translate(45.690477 0)scale(0.996264)" xlink:href="#CMR17-53"/>
       <use transform="translate(91.380954 0)scale(0.996264)" xlink:href="#CMR17-48"/>
       <use transform="translate(137.071431 0)scale(0.996264)" xlink:href="#CMR17-48"/>
       <use transform="translate(182.761908 0)scale(0.996264)" xlink:href="#CMR17-48"/>
       <use transform="translate(228.452386 0)scale(0.996264)" xlink:href="#CMR17-48"/>
      </g>
     </g>
    </g>
    <g id="xtick_8">
     <g id="line2d_8">
      <g>
       <use style="stroke:#000000;stroke-width:0.8;" x="357.905455" xlink:href="#m182fc447dc" y="307.584"/>
      </g>
     </g>
     <g id="text_8">
      <!-- $\mathdefault{175000}$ -->
      <g transform="translate(342.961449 321.502498)scale(0.1 -0.1)">
       <use transform="scale(0.996264)" xlink:href="#CMR17-49"/>
       <use transform="translate(45.690477 0)scale(0.996264)" xlink:href="#CMR17-55"/>
       <use transform="translate(91.380954 0)scale(0.996264)" xlink:href="#CMR17-53"/>
       <use transform="translate(137.071431 0)scale(0.996264)" xlink:href="#CMR17-48"/>
       <use transform="translate(182.761908 0)scale(0.996264)" xlink:href="#CMR17-48"/>
       <use transform="translate(228.452386 0)scale(0.996264)" xlink:href="#CMR17-48"/>
      </g>
     </g>
    </g>
    <g id="xtick_9">
     <g id="line2d_9">
      <g>
       <use style="stroke:#000000;stroke-width:0.8;" x="398.487273" xlink:href="#m182fc447dc" y="307.584"/>
      </g>
     </g>
     <g id="text_9">
      <!-- $\mathdefault{200000}$ -->
      <g transform="translate(383.543267 321.502498)scale(0.1 -0.1)">
       <use transform="scale(0.996264)" xlink:href="#CMR17-50"/>
       <use transform="translate(45.690477 0)scale(0.996264)" xlink:href="#CMR17-48"/>
       <use transform="translate(91.380954 0)scale(0.996264)" xlink:href="#CMR17-48"/>
       <use transform="translate(137.071431 0)scale(0.996264)" xlink:href="#CMR17-48"/>
       <use transform="translate(182.761908 0)scale(0.996264)" xlink:href="#CMR17-48"/>
       <use transform="translate(228.452386 0)scale(0.996264)" xlink:href="#CMR17-48"/>
      </g>
     </g>
    </g>
   </g>
   <g id="matplotlib.axis_2">
    <g id="ytick_1">
     <g id="line2d_10">
      <defs>
       <path d="M 0 0 
L -3.5 0 
" id="m7656d72cf9" style="stroke:#000000;stroke-width:0.8;"/>
      </defs>
      <g>
       <use style="stroke:#000000;stroke-width:0.8;" x="57.6" xlink:href="#m7656d72cf9" y="297.102909"/>
      </g>
     </g>
     <g id="text_10">
      <!-- $\mathdefault{0.00}$ -->
      <g transform="translate(32.888586 300.562158)scale(0.1 -0.1)">
       <defs>
        <path d="M 18.40625 4.796875 
C 18.40625 7.6875 16 9.671875 13.59375 9.671875 
C 10.703125 9.671875 8.703125 7.28125 8.703125 4.890625 
C 8.703125 2 11.09375 0 13.5 0 
C 16.40625 0 18.40625 2.390625 18.40625 4.796875 
z
" id="CMMI12-58"/>
       </defs>
       <use transform="scale(0.996264)" xlink:href="#CMR17-48"/>
       <use transform="translate(45.690477 0)scale(0.996264)" xlink:href="#CMMI12-58"/>
       <use transform="translate(72.787654 0)scale(0.996264)" xlink:href="#CMR17-48"/>
       <use transform="translate(118.478131 0)scale(0.996264)" xlink:href="#CMR17-48"/>
      </g>
     </g>
    </g>
    <g id="ytick_2">
     <g id="line2d_11">
      <g>
       <use style="stroke:#000000;stroke-width:0.8;" x="57.6" xlink:href="#m7656d72cf9" y="261.687782"/>
      </g>
     </g>
     <g id="text_11">
      <!-- $\mathdefault{0.02}$ -->
      <g transform="translate(32.888586 265.147031)scale(0.1 -0.1)">
       <use transform="scale(0.996264)" xlink:href="#CMR17-48"/>
       <use transform="translate(45.690477 0)scale(0.996264)" xlink:href="#CMMI12-58"/>
       <use transform="translate(72.787654 0)scale(0.996264)" xlink:href="#CMR17-48"/>
       <use transform="translate(118.478131 0)scale(0.996264)" xlink:href="#CMR17-50"/>
      </g>
     </g>
    </g>
    <g id="ytick_3">
     <g id="line2d_12">
      <g>
       <use style="stroke:#000000;stroke-width:0.8;" x="57.6" xlink:href="#m7656d72cf9" y="226.272654"/>
      </g>
     </g>
     <g id="text_12">
      <!-- $\mathdefault{0.04}$ -->
      <g transform="translate(32.888586 229.731903)scale(0.1 -0.1)">
       <defs>
        <path d="M 33.59375 64.40625 
C 33.59375 66.5 33.5 66.5 31.703125 66.5 
L 2 19.59375 
L 2 17 
L 27.796875 17 
L 27.796875 7.140625 
C 27.796875 3.5 27.59375 2.5 20.59375 2.5 
L 18.703125 2.5 
L 18.703125 0 
C 21.90625 0 27.296875 0 30.703125 0 
C 34.09375 0 39.5 0 42.703125 0 
L 42.703125 2.5 
L 40.796875 2.5 
C 33.796875 2.5 33.59375 3.5 33.59375 7.140625 
L 33.59375 17 
L 43.796875 17 
L 43.796875 19.59375 
L 33.59375 19.59375 
z
M 28.09375 57.859375 
L 28.09375 19.59375 
L 4 19.59375 
z
" id="CMR17-52"/>
       </defs>
       <use transform="scale(0.996264)" xlink:href="#CMR17-48"/>
       <use transform="translate(45.690477 0)scale(0.996264)" xlink:href="#CMMI12-58"/>
       <use transform="translate(72.787654 0)scale(0.996264)" xlink:href="#CMR17-48"/>
       <use transform="translate(118.478131 0)scale(0.996264)" xlink:href="#CMR17-52"/>
      </g>
     </g>
    </g>
    <g id="ytick_4">
     <g id="line2d_13">
      <g>
       <use style="stroke:#000000;stroke-width:0.8;" x="57.6" xlink:href="#m7656d72cf9" y="190.857527"/>
      </g>
     </g>
     <g id="text_13">
      <!-- $\mathdefault{0.06}$ -->
      <g transform="translate(32.888586 194.316776)scale(0.1 -0.1)">
       <defs>
        <path d="M 10.59375 34 
C 10.59375 57.65625 21.796875 63 28.296875 63 
C 30.40625 63 35.5 62.640625 37.5 59 
C 35.90625 59 32.90625 59 32.90625 55.515625 
C 32.90625 52.828125 35.09375 51.921875 36.5 51.921875 
C 37.40625 51.921875 40.09375 52.3125 40.09375 55.625 
C 40.09375 61.78125 35.09375 65.296875 28.203125 65.296875 
C 16.296875 65.296875 3.796875 52.96875 3.796875 31 
C 3.796875 3.953125 15.09375 -2 23.09375 -2 
C 32.796875 -2 42 6.671875 42 20.046875 
C 42 32.515625 33.90625 41.59375 23.703125 41.59375 
C 17.59375 41.59375 13.09375 37.609375 10.59375 30.625 
z
M 23.09375 0.390625 
C 10.796875 0.390625 10.796875 18.75 10.796875 22.4375 
C 10.796875 29.625 14.203125 40 23.5 40 
C 25.203125 40 30.09375 40 33.40625 33.125 
C 35.203125 29.21875 35.203125 25.140625 35.203125 20.140625 
C 35.203125 14.75 35.203125 10.78125 33.09375 6.78125 
C 30.90625 2.671875 27.703125 0.390625 23.09375 0.390625 
z
" id="CMR17-54"/>
       </defs>
       <use transform="scale(0.996264)" xlink:href="#CMR17-48"/>
       <use transform="translate(45.690477 0)scale(0.996264)" xlink:href="#CMMI12-58"/>
       <use transform="translate(72.787654 0)scale(0.996264)" xlink:href="#CMR17-48"/>
       <use transform="translate(118.478131 0)scale(0.996264)" xlink:href="#CMR17-54"/>
      </g>
     </g>
    </g>
    <g id="ytick_5">
     <g id="line2d_14">
      <g>
       <use style="stroke:#000000;stroke-width:0.8;" x="57.6" xlink:href="#m7656d72cf9" y="155.442399"/>
      </g>
     </g>
     <g id="text_14">
      <!-- $\mathdefault{0.08}$ -->
      <g transform="translate(32.888586 158.901649)scale(0.1 -0.1)">
       <defs>
        <path d="M 27.203125 35.375 
C 33.5 38.546875 39.90625 43.328125 39.90625 50.984375 
C 39.90625 60.015625 31.09375 65.296875 23 65.296875 
C 13.90625 65.296875 5.90625 58.734375 5.90625 49.6875 
C 5.90625 47.203125 6.5 42.921875 10.40625 39.140625 
C 11.40625 38.15625 15.59375 35.171875 18.296875 33.28125 
C 13.796875 30.984375 3.296875 25.53125 3.296875 14.59375 
C 3.296875 4.359375 13.09375 -2 22.796875 -2 
C 33.5 -2 42.5 5.65625 42.5 15.78125 
C 42.5 24.84375 36.40625 29.015625 32.40625 31.703125 
z
M 14.09375 44.09375 
C 13.296875 44.59375 9.296875 47.671875 9.296875 52.359375 
C 9.296875 58.421875 15.59375 63 22.796875 63 
C 30.703125 63 36.5 57.4375 36.5 50.96875 
C 36.5 41.703125 26.09375 36.421875 25.59375 36.421875 
C 25.5 36.421875 25.40625 36.421875 24.59375 37.03125 
z
M 32.5 23.734375 
C 34 22.640625 38.796875 19.375 38.796875 13.296875 
C 38.796875 5.953125 31.40625 0.390625 23 0.390625 
C 13.90625 0.390625 7 6.84375 7 14.6875 
C 7 22.546875 13.09375 29.09375 20 32.1875 
z
" id="CMR17-56"/>
       </defs>
       <use transform="scale(0.996264)" xlink:href="#CMR17-48"/>
       <use transform="translate(45.690477 0)scale(0.996264)" xlink:href="#CMMI12-58"/>
       <use transform="translate(72.787654 0)scale(0.996264)" xlink:href="#CMR17-48"/>
       <use transform="translate(118.478131 0)scale(0.996264)" xlink:href="#CMR17-56"/>
      </g>
     </g>
    </g>
    <g id="ytick_6">
     <g id="line2d_15">
      <g>
       <use style="stroke:#000000;stroke-width:0.8;" x="57.6" xlink:href="#m7656d72cf9" y="120.027272"/>
      </g>
     </g>
     <g id="text_15">
      <!-- $\mathdefault{0.10}$ -->
      <g transform="translate(32.888586 123.486521)scale(0.1 -0.1)">
       <use transform="scale(0.996264)" xlink:href="#CMR17-48"/>
       <use transform="translate(45.690477 0)scale(0.996264)" xlink:href="#CMMI12-58"/>
       <use transform="translate(72.787654 0)scale(0.996264)" xlink:href="#CMR17-49"/>
       <use transform="translate(118.478131 0)scale(0.996264)" xlink:href="#CMR17-48"/>
      </g>
     </g>
    </g>
    <g id="ytick_7">
     <g id="line2d_16">
      <g>
       <use style="stroke:#000000;stroke-width:0.8;" x="57.6" xlink:href="#m7656d72cf9" y="84.612145"/>
      </g>
     </g>
     <g id="text_16">
      <!-- $\mathdefault{0.12}$ -->
      <g transform="translate(32.888586 88.071394)scale(0.1 -0.1)">
       <use transform="scale(0.996264)" xlink:href="#CMR17-48"/>
       <use transform="translate(45.690477 0)scale(0.996264)" xlink:href="#CMMI12-58"/>
       <use transform="translate(72.787654 0)scale(0.996264)" xlink:href="#CMR17-49"/>
       <use transform="translate(118.478131 0)scale(0.996264)" xlink:href="#CMR17-50"/>
      </g>
     </g>
    </g>
    <g id="ytick_8">
     <g id="line2d_17">
      <g>
       <use style="stroke:#000000;stroke-width:0.8;" x="57.6" xlink:href="#m7656d72cf9" y="49.197017"/>
      </g>
     </g>
     <g id="text_17">
      <!-- $\mathdefault{0.14}$ -->
      <g transform="translate(32.888586 52.656266)scale(0.1 -0.1)">
       <use transform="scale(0.996264)" xlink:href="#CMR17-48"/>
       <use transform="translate(45.690477 0)scale(0.996264)" xlink:href="#CMMI12-58"/>
       <use transform="translate(72.787654 0)scale(0.996264)" xlink:href="#CMR17-49"/>
       <use transform="translate(118.478131 0)scale(0.996264)" xlink:href="#CMR17-52"/>
      </g>
     </g>
    </g>
   </g>
   <g id="line2d_18">
    <path clip-path="url(#paf3d1fbd53)" d="M 73.832727 120.027272 
L 74.301853 120.121676 
L 74.321332 123.413392 
L 74.370031 165.545101 
L 74.425222 120.235732 
L 74.454441 116.780176 
L 74.498269 126.841479 
L 74.564823 142.152336 
L 74.600535 123.446926 
L 74.621638 118.573885 
L 74.712541 121.957904 
L 74.897594 127.023029 
L 74.907334 126.728613 
L 75.022586 112.538759 
L 75.077777 121.98434 
L 75.118359 124.035231 
L 75.18329 121.416633 
L 75.19303 121.153353 
L 75.259584 122.85961 
L 75.322892 121.592553 
L 75.36672 122.987919 
L 75.368343 122.914801 
L 75.418665 123.552266 
L 75.472233 122.4958 
L 75.473856 122.533654 
L 75.537164 120.643009 
L 75.598848 121.058227 
L 75.694621 123.172127 
L 75.749812 122.442862 
L 75.782278 122.199587 
L 75.834223 122.774141 
L 75.852079 122.877097 
L 75.921879 122.382455 
L 75.923503 122.400125 
L 76.032262 121.849818 
L 76.051741 121.925741 
L 76.1605 123.473379 
L 76.197836 123.174668 
L 76.199459 123.205332 
L 76.266013 122.694999 
L 76.283869 122.75978 
L 76.309841 122.79148 
L 76.399121 122.558729 
L 76.408861 122.555477 
L 76.530607 123.150001 
L 76.53223 123.124743 
L 76.61177 123.575579 
L 76.613393 123.53801 
L 76.660468 123.627258 
L 76.717283 123.402496 
L 76.718906 123.431314 
L 76.834159 123.235384 
L 76.835782 123.267532 
L 76.850391 123.229486 
L 76.942918 123.324656 
L 76.944541 123.299799 
L 77.059793 124.493815 
L 77.101999 124.364833 
L 77.123101 124.296277 
L 77.202641 124.554644 
L 77.204265 124.532878 
L 77.338996 124.94023 
L 77.34062 124.921781 
L 77.433146 125.101301 
L 77.434769 125.090526 
L 77.634432 126.691514 
L 77.636055 126.682461 
L 77.68313 127.033282 
L 77.684753 127.031123 
L 77.881169 128.622951 
L 77.882793 128.619442 
L 79.879418 159.746657 
L 81.007593 187.965619 
L 81.567622 206.637276 
L 82.893836 264.809236 
L 83.494447 295.488 
L 83.561001 293.144809 
L 84.711901 228.066791 
L 85.750796 176.904039 
L 86.570548 146.725485 
L 87.375692 125.914958 
L 88.089932 113.743163 
L 88.770083 106.451143 
L 89.158045 103.952531 
L 89.670999 102.098957 
L 90.029743 101.779533 
L 90.169344 101.899181 
L 90.657949 103.259043 
L 91.125452 106.105115 
L 91.566982 110.349671 
L 92.06208 116.716801 
L 92.979229 131.460823 
L 94.032733 152.145023 
L 95.71282 192.223955 
L 96.897809 217.793071 
L 97.625036 227.888697 
L 98.163962 231.939014 
L 98.605492 233.279008 
L 98.907421 233.356368 
L 99.394403 232.383739 
L 100.17682 228.929896 
L 101.189743 222.017224 
L 102.196172 212.22888 
L 104.108387 191.493555 
L 104.622964 188.075896 
L 105.135919 186.155668 
L 105.531997 185.625839 
L 105.871261 185.720493 
L 106.035212 185.923451 
L 106.61959 187.271989 
L 107.759127 191.49558 
L 108.713612 195.323418 
L 110.310912 202.810801 
L 112.713356 217.841372 
L 113.020154 218.453518 
L 113.322083 218.538896 
L 113.640244 218.100742 
L 114.115863 216.600221 
L 114.617455 214.36122 
L 115.393379 211.0172 
L 115.831663 209.802585 
L 116.174173 209.283247 
L 116.737449 209.009356 
L 117.670831 208.479132 
L 117.935424 208.001803 
L 118.511686 206.301181 
L 119.045743 204.09935 
L 120.019706 200.047401 
L 120.445004 198.953681 
L 120.732323 198.625131 
L 121.011526 198.66742 
L 121.33618 199.169317 
L 121.803683 200.637581 
L 123.525975 207.29689 
L 123.933417 207.755339 
L 124.147689 207.75482 
L 124.353844 207.61701 
L 124.92686 206.763138 
L 125.774208 205.635667 
L 126.085876 205.699702 
L 126.420271 206.194203 
L 126.87154 207.542694 
L 128.494813 213.475197 
L 128.731811 213.627035 
L 128.900631 213.545673 
L 129.092177 213.260993 
L 129.355148 212.551795 
L 129.731747 210.991341 
L 130.450857 207.125684 
L 131.056337 204.395905 
L 131.462156 203.479773 
L 131.725126 203.377974 
L 131.973487 203.629763 
L 132.241327 204.228644 
L 132.854924 206.371123 
L 133.520465 208.558749 
L 133.862976 209.120539 
L 134.132439 209.173495 
L 134.397033 208.87153 
L 134.669743 208.213474 
L 135.067444 206.745789 
L 136.445603 201.165569 
L 136.747532 200.828666 
L 136.942324 200.93884 
L 137.189062 201.474054 
L 137.559168 203.021975 
L 138.878889 209.375002 
L 139.888564 212.397471 
L 139.917783 212.381159 
L 140.049268 212.100291 
L 140.226205 211.102921 
L 140.511901 207.951287 
L 141.208285 199.805286 
L 141.269969 199.749103 
L 141.318668 199.828511 
L 141.44366 200.533304 
L 141.670918 203.366211 
L 142.073489 207.921807 
L 142.079983 207.918575 
L 142.136797 207.713331 
L 142.250426 206.260738 
L 142.446842 200.361081 
L 143.126993 174.638987 
L 143.188678 175.070243 
L 143.300684 178.30507 
L 143.484113 191.341328 
L 143.816884 234.719622 
L 144.143162 275.555484 
L 144.185367 273.903639 
L 144.310359 255.897472 
L 145.016483 126.477118 
L 145.097647 128.711175 
L 145.261597 133.158306 
L 145.303802 133.004532 
L 145.384966 132.61989 
L 145.432041 132.887012 
L 145.519697 135.305466 
L 145.662545 146.778689 
L 145.899543 187.693022 
L 146.199849 238.275293 
L 146.238807 236.5939 
L 146.33945 218.169623 
L 146.862144 110.171994 
L 147.071546 91.991819 
L 147.370228 74.41925 
L 147.371852 74.419928 
L 147.396201 74.627472 
L 147.469248 77.731768 
L 147.605603 95.166342 
L 148.081222 189.090525 
L 148.173748 179.398208 
L 148.717545 89.136922 
L 149.235369 60.868726 
L 149.241862 60.885924 
L 149.28082 61.735578 
L 149.3701 69.851954 
L 149.550284 112.351504 
L 149.845719 178.205982 
L 149.878185 176.678273 
L 149.970711 157.346701 
L 150.319715 84.966278 
L 150.975517 53.568 
L 151.061551 56.816783 
L 151.180049 76.275902 
L 151.5323 168.360196 
L 151.619956 157.108329 
L 152.085836 70.057416 
L 152.296861 62.17455 
L 152.554961 55.912287 
L 152.572817 55.878471 
L 152.613399 56.108776 
L 152.686447 58.328685 
L 152.790336 70.154023 
L 152.957533 122.357382 
L 153.132847 166.459428 
L 153.173428 163.65208 
L 153.291927 132.835706 
L 153.595479 66.205757 
L 153.66041 65.616095 
L 153.725341 65.754211 
L 153.75943 65.786161 
L 153.804881 65.665556 
L 154.062982 64.084294 
L 154.145769 64.536906 
L 154.244788 67.024526 
L 154.353548 76.737611 
L 154.493149 115.06131 
L 154.707421 180.618738 
L 154.757743 175.699263 
L 154.9152 124.743959 
L 155.184663 65.691672 
L 155.225245 65.180744 
L 155.290176 65.841466 
L 155.600221 72.653695 
L 155.827479 83.809635 
L 155.950848 105.987292 
L 156.269009 218.711503 
L 156.372899 195.423445 
L 156.806313 74.911778 
L 156.898839 72.662097 
L 156.949161 72.996668 
L 157.168303 76.827039 
L 157.290048 82.423442 
L 157.408547 102.005724 
L 157.614703 184.020063 
L 157.786769 250.605851 
L 157.838714 240.711634 
L 158.40686 81.905589 
L 158.4864 80.267102 
L 158.541591 80.76638 
L 158.681193 84.953266 
L 158.812678 96.046333 
L 158.970135 134.330538 
L 159.283427 277.680208 
L 159.377577 239.377052 
L 159.734697 111.403039 
L 159.955462 93.73415 
L 159.99442 93.442385 
L 160.051235 93.929384 
L 160.164864 97.658531 
L 160.294726 110.630231 
L 160.471663 156.47441 
L 160.762228 293.816454 
L 160.846639 252.246561 
L 161.192396 131.978769 
L 161.419654 112.103969 
L 161.452119 111.819037 
L 161.505687 112.536896 
L 161.622563 118.536438 
L 161.788137 139.950666 
L 162.007279 203.579113 
L 162.219927 289.52182 
L 162.283235 267.656288 
L 162.667951 151.647259 
L 162.898455 133.614251 
L 162.926051 133.417484 
L 162.976372 134.024325 
L 163.083508 139.34648 
L 163.244212 160.307566 
L 163.48121 226.781458 
L 163.658147 283.679299 
L 163.714961 271.000313 
L 164.151622 162.765995 
L 164.356154 152.441326 
L 164.361024 152.44614 
L 164.396736 152.843413 
L 164.490886 157.032774 
L 164.653213 176.130035 
L 164.899951 236.480834 
L 165.075264 286.086102 
L 165.132079 274.902242 
L 165.581725 175.566276 
L 165.792751 165.076112 
L 165.79762 165.080672 
L 165.831709 165.442024 
L 165.922612 169.344948 
L 166.081693 187.672955 
L 166.328431 247.048851 
L 166.477772 286.04837 
L 166.532963 275.994757 
L 166.998842 177.936464 
L 167.198505 169.161265 
L 167.208244 169.184718 
L 167.256943 169.97414 
L 167.367325 176.227498 
L 167.545885 201.454271 
L 167.844567 282.757692 
L 167.885149 291.480388 
L 167.94034 278.616819 
L 168.372131 181.699386 
L 168.613999 166.742259 
L 168.633478 166.651103 
L 168.677306 167.134727 
L 168.773079 171.744145 
L 168.93703 192.503644 
L 169.193507 259.039603 
L 169.305513 290.247139 
L 169.360704 277.395993 
L 169.789248 178.702501 
L 170.026246 164.238496 
L 170.045725 164.155277 
L 170.089553 164.65281 
L 170.18695 169.339784 
L 170.354147 190.071975 
L 170.605754 254.158131 
L 170.733993 293.169411 
L 170.790807 277.865108 
L 171.207988 179.430691 
L 171.456349 162.263646 
L 171.487191 162.044112 
L 171.535889 162.663493 
L 171.638156 168.064026 
L 171.806976 190.949366 
L 172.071569 263.614813 
L 172.167343 290.251339 
L 172.220911 277.247984 
L 172.649455 176.356296 
L 172.886452 161.849483 
L 172.905932 161.759527 
L 172.94976 162.236602 
L 173.047156 166.874593 
L 173.21273 187.382806 
L 173.464337 251.535053 
L 173.599069 292.220783 
L 173.655884 277.420996 
L 174.074688 178.280031 
L 174.321425 161.434439 
L 174.349021 161.243029 
L 174.399343 161.875917 
L 174.503232 167.453468 
L 174.673676 190.920275 
L 174.941516 265.06936 
L 175.030796 289.219798 
L 175.085987 276.643432 
L 175.519401 175.594274 
L 175.751529 161.957908 
L 175.767761 161.900467 
L 175.808343 162.315887 
L 175.902493 166.530387 
L 176.06482 185.699172 
L 176.309935 246.228306 
L 176.462522 291.611313 
L 176.519337 277.077076 
L 176.941388 178.154576 
L 177.186502 162.035506 
L 177.210851 161.897917 
L 177.257926 162.472858 
L 177.358569 167.660387 
L 177.525766 189.899843 
L 177.787113 260.407455 
L 177.891002 289.070526 
L 177.946193 276.685715 
L 178.381231 176.035485 
L 178.613359 162.665209 
L 178.626345 162.625922 
L 178.665303 163.00136 
L 178.75783 167.018569 
L 178.918534 185.550051 
L 179.160401 244.080696 
L 179.319482 291.744863 
L 179.37792 277.085042 
L 179.798348 178.801644 
L 180.043462 162.583873 
L 180.067811 162.433317 
L 180.116509 163.01938 
L 180.217152 168.225823 
L 180.384349 190.482225 
L 180.647319 261.458753 
L 180.749585 289.24672 
L 180.803153 276.968392 
L 181.238191 176.353612 
L 181.470319 162.898185 
L 181.484928 162.850001 
L 181.52551 163.261616 
L 181.61966 167.48552 
L 181.781987 186.671901 
L 182.027101 246.961866 
L 182.178065 291.908732 
L 182.23488 277.343512 
L 182.655308 178.921898 
L 182.900422 162.564069 
L 182.926394 162.398705 
L 182.975092 162.996572 
L 183.077359 168.361259 
L 183.246179 191.152388 
L 183.512396 263.737575 
L 183.606545 289.335544 
L 183.661737 276.8355 
L 184.095151 176.389066 
L 184.327279 162.779431 
L 184.343511 162.721622 
L 184.384093 163.137775 
L 184.478243 167.366344 
L 184.64057 186.55349 
L 184.885684 246.915901 
L 185.036649 291.92252 
L 185.093463 277.335575 
L 185.513891 178.816142 
L 185.759005 162.438737 
L 185.784977 162.270715 
L 185.833676 162.864071 
L 185.935942 168.221318 
L 186.104762 191.006006 
L 186.370979 263.610099 
L 186.465129 289.317442 
L 186.52032 276.90878 
L 186.953734 176.351067 
L 187.185862 162.703204 
L 187.202095 162.643488 
L 187.242676 163.055568 
L 187.336826 167.276844 
L 187.499153 186.442237 
L 187.744268 246.773549 
L 187.895232 291.893371 
L 187.952047 277.437387 
L 188.372474 178.830648 
L 188.617588 162.424709 
L 188.643561 162.253201 
L 188.692259 162.839155 
L 188.792902 168.047498 
L 188.960099 190.311402 
L 189.223069 261.366616 
L 189.325335 289.293781 
L 189.378903 277.004631 
L 189.81394 176.209156 
L 190.046068 162.706379 
L 190.060678 162.656119 
L 190.10126 163.061851 
L 190.195409 167.268272 
L 190.357737 186.411593 
L 190.602851 246.697865 
L 190.753815 291.881672 
L 190.81063 277.51873 
L 191.232681 178.681773 
L 191.477795 162.428713 
L 191.503767 162.275506 
L 191.550842 162.856915 
L 191.651485 168.054529 
L 191.818682 190.293544 
L 192.080029 260.779637 
L 192.183919 289.293147 
L 192.23911 276.559112 
L 192.6709 176.426798 
L 192.904652 162.727232 
L 192.919261 162.67599 
L 192.959843 163.078641 
L 193.053993 167.275807 
L 193.21632 186.399171 
L 193.461434 246.660152 
L 193.612399 291.883268 
L 193.669213 277.569255 
L 194.091264 178.710157 
L 194.336378 162.440141 
L 194.362351 162.284785 
L 194.409425 162.862336 
L 194.510068 168.051899 
L 194.677265 190.275043 
L 194.938612 260.737205 
L 195.042502 289.298429 
L 195.097693 276.604083 
L 195.529484 176.446828 
L 195.763235 162.730092 
L 195.777844 162.67783 
L 195.818426 163.077694 
L 195.910953 167.155797 
L 196.07328 186.104013 
L 196.316771 245.607459 
L 196.470982 291.885141 
L 196.527796 277.61507 
L 196.949847 178.726484 
L 197.194961 162.440772 
L 197.220934 162.283385 
L 197.268009 162.856993 
L 197.368652 168.037337 
L 197.535849 190.243697 
L 197.797196 260.686102 
L 197.901085 289.300971 
L 197.956276 276.653239 
L 198.388067 176.46198 
L 198.621818 162.728132 
L 198.636428 162.674645 
L 198.677009 163.070988 
L 198.769536 167.140797 
L 198.931863 186.073751 
L 199.175354 245.554176 
L 199.331188 291.883208 
L 199.388003 277.152117 
L 199.808431 178.744514 
L 200.053545 162.439943 
L 200.079517 162.280526 
L 200.126592 162.850267 
L 200.227235 168.021319 
L 200.394432 190.208749 
L 200.655779 260.62887 
L 200.759668 289.300616 
L 200.81486 276.706435 
L 201.248273 176.297769 
L 201.480401 162.727849 
L 201.496634 162.673421 
L 201.537216 163.098912 
L 201.631366 167.353343 
L 201.795316 186.865896 
L 202.042054 248.026994 
L 202.189772 291.884927 
L 202.244963 277.722992 
L 202.667014 178.765161 
L 202.912128 162.441406 
L 202.9381 162.279769 
L 202.986799 162.885163 
L 203.089065 168.268496 
L 203.257885 191.103573 
L 203.524102 263.762737 
L 203.618252 289.299724 
L 203.673443 276.760074 
L 204.106857 176.31729 
L 204.338985 162.729289 
L 204.355217 162.673551 
L 204.395799 163.095662 
L 204.489949 167.341725 
L 204.652276 186.561194 
L 204.897391 246.95996 
L 205.048355 291.886702 
L 205.105169 277.261843 
L 205.525597 178.786294 
L 205.770711 162.444336 
L 205.796684 162.280521 
L 205.845382 162.881625 
L 205.947648 168.255202 
L 206.116468 191.071563 
L 206.382685 263.707347 
L 206.476835 289.299075 
L 206.532026 276.812842 
L 206.96544 176.336726 
L 207.197568 162.731088 
L 207.213801 162.674027 
L 207.254383 163.092709 
L 207.348532 167.330304 
L 207.51086 186.53318 
L 207.755974 246.907609 
L 207.906938 291.888292 
L 207.963753 277.315379 
L 208.38418 178.807076 
L 208.629295 162.446736 
L 208.655267 162.280816 
L 208.703965 162.877782 
L 208.806231 168.241815 
L 208.975052 191.039362 
L 209.241268 263.652296 
L 209.335418 289.298085 
L 209.390609 276.865164 
L 209.824023 176.355552 
L 210.056151 162.732377 
L 210.072384 162.674013 
L 210.112966 163.089308 
L 210.207116 167.318447 
L 210.369443 186.504564 
L 210.614557 246.85512 
L 210.765521 291.889089 
L 210.822336 277.368989 
L 211.242764 178.827564 
L 211.487878 162.448711 
L 211.51385 162.280647 
L 211.562548 162.873434 
L 211.664815 168.227979 
L 211.833635 191.006855 
L 212.099852 263.596819 
L 212.194001 289.296557 
L 212.249193 276.917616 
L 212.682607 176.374362 
L 212.914735 162.733517 
L 212.930967 162.673849 
L 212.971549 163.08576 
L 213.065699 167.30649 
L 213.228026 186.475853 
L 213.47314 246.802365 
L 213.624105 291.889214 
L 213.680919 277.422723 
L 214.101347 178.848088 
L 214.346461 162.450848 
L 214.372433 162.280635 
L 214.421132 162.869207 
L 214.521775 168.083305 
L 214.688972 190.355544 
L 214.951942 261.413342 
L 215.054208 289.295639 
L 215.107776 276.97019 
L 215.542813 176.21225 
L 215.774941 162.723056 
L 215.789551 162.673803 
L 215.830132 163.082315 
L 215.924282 167.294602 
L 216.086609 186.447239 
L 216.331724 246.749609 
L 216.482688 291.888719 
L 216.539503 277.476486 
L 216.961553 178.671518 
L 217.206668 162.432693 
L 217.231017 162.280692 
L 217.279715 162.865077 
L 217.380358 168.069764 
L 217.547555 190.32346 
L 217.810525 261.357919 
L 217.912791 289.297385 
L 217.966359 277.022726 
L 218.401396 176.231069 
L 218.633524 162.72423 
L 218.648134 162.673798 
L 218.688716 163.078915 
L 218.782865 167.282756 
L 218.945193 186.418642 
L 219.190307 246.696915 
L 219.341271 291.887585 
L 219.398086 277.530242 
L 219.820137 178.692035 
L 220.065251 162.434749 
L 220.091223 162.280805 
L 220.138298 162.860935 
L 220.238941 168.056239 
L 220.406138 190.291433 
L 220.667485 260.771185 
L 220.771375 289.29871 
L 220.826566 276.570956 
L 221.258356 176.431242 
L 221.492108 162.725417 
L 221.506717 162.673808 
L 221.547299 163.075533 
L 221.639825 167.158282 
L 221.802153 186.11703 
L 222.045644 245.635709 
L 222.199855 291.885843 
L 222.256669 277.583968 
L 222.67872 178.712547 
L 222.923834 162.436838 
L 222.949807 162.280748 
L 222.996881 162.85682 
L 223.097524 168.042723 
L 223.264721 190.259434 
L 223.526068 260.715818 
L 223.629958 289.299608 
L 223.685149 276.623597 
L 224.11694 176.450231 
L 224.350691 162.726612 
L 224.3653 162.673825 
L 224.405882 163.072159 
L 224.498409 167.146627 
L 224.660736 186.088673 
L 224.904227 245.583251 
L 225.058438 291.883477 
L 225.116876 277.122145 
L 225.537303 178.733069 
L 225.782417 162.438928 
L 225.80839 162.280696 
L 225.855465 162.852715 
L 225.956108 168.029222 
L 226.123305 190.227434 
L 226.384652 260.660453 
L 226.488541 289.300061 
L 226.543732 276.676223 
L 226.977146 176.287599 
L 227.209274 162.727812 
L 227.223884 162.673847 
L 227.266089 163.101653 
L 227.360239 167.361143 
L 227.524189 186.883608 
L 227.770927 248.058351 
L 227.918644 291.883424 
L 227.973836 277.691405 
L 228.395887 178.753608 
L 228.641001 162.441025 
L 228.666973 162.28065 
L 228.714048 162.848617 
L 228.814691 168.015735 
L 228.981888 190.195455 
L 229.243235 260.605083 
L 229.347124 289.300077 
L 229.402316 276.728834 
L 229.835729 176.306468 
L 230.067857 162.72903 
L 230.08409 162.67406 
L 230.124672 163.098164 
L 230.218822 167.349208 
L 230.382772 186.854735 
L 230.62951 248.005407 
L 230.777228 291.885806 
L 230.832419 277.745121 
L 231.25447 178.774163 
L 231.499584 162.443144 
L 231.525556 162.280626 
L 231.574255 162.884271 
L 231.676521 168.263582 
L 231.845341 191.091021 
L 232.111558 263.740608 
L 232.205708 289.299658 
L 232.260899 276.781428 
L 232.694313 176.325355 
L 232.926441 162.730263 
L 232.942673 162.673984 
L 232.983255 163.094692 
L 233.077405 167.337293 
L 233.239732 186.550079 
L 233.484847 246.938968 
L 233.635811 291.887564 
L 233.692625 277.283432 
L 234.113053 178.794732 
L 234.358167 162.445276 
L 234.38414 162.280617 
L 234.432838 162.880066 
L 234.535104 168.249808 
L 234.703924 191.058512 
L 234.970141 263.685108 
L 235.064291 289.298801 
L 235.119482 276.834004 
L 235.552896 176.344256 
L 235.785024 162.731508 
L 235.801257 162.67392 
L 235.841839 163.091232 
L 235.935988 167.32539 
L 236.098316 186.521425 
L 236.34343 246.886242 
L 236.494394 291.888695 
L 236.551209 277.337184 
L 236.971636 178.815316 
L 237.216751 162.447419 
L 237.242723 162.280619 
L 237.291421 162.875874 
L 237.393687 168.23605 
L 237.562508 191.026023 
L 237.828724 263.629608 
L 237.922874 289.297507 
L 237.978065 276.886562 
L 238.411479 176.363171 
L 238.643607 162.732767 
L 238.65984 162.673871 
L 238.700422 163.087787 
L 238.794572 167.313505 
L 238.956899 186.492791 
L 239.202013 246.833526 
L 239.352977 291.8892 
L 239.409792 277.390932 
L 239.83022 178.835914 
L 240.075334 162.449578 
L 240.101306 162.280636 
L 240.150004 162.871698 
L 240.250647 168.091361 
L 240.417844 190.374524 
L 240.680815 261.446148 
L 240.781457 289.295778 
L 240.836649 276.939102 
L 241.271686 176.201131 
L 241.503814 162.722391 
L 241.518423 162.673835 
L 241.559005 163.084357 
L 241.653155 167.301635 
L 241.815482 186.464176 
L 242.060596 246.780822 
L 242.211561 291.889079 
L 242.268375 277.444675 
L 242.690426 178.659405 
L 242.93554 162.431482 
L 242.959889 162.280668 
L 243.008588 162.867536 
L 243.109231 168.077799 
L 243.276428 190.342457 
L 243.539398 261.390736 
L 243.641664 289.296397 
L 243.695232 276.991625 
L 244.130269 176.219934 
L 244.362397 162.723547 
L 244.377007 162.673813 
L 244.417588 163.080941 
L 244.511738 167.289781 
L 244.674065 186.435579 
L 244.91918 246.728127 
L 245.070144 291.88833 
L 245.126959 277.498413 
L 245.549009 178.679893 
L 245.794124 162.433535 
L 245.818473 162.280714 
L 245.867171 162.86339 
L 245.967814 168.064253 
L 246.135011 190.31041 
L 246.397981 261.335326 
L 246.500247 289.297983 
L 246.555439 276.539771 
L 246.987229 176.420008 
L 247.22098 162.724717 
L 247.23559 162.673805 
L 247.276172 163.07754 
L 247.370321 167.277943 
L 247.532649 186.407002 
L 247.777763 246.675443 
L 247.928727 291.886955 
L 247.985542 277.552146 
L 248.407593 178.700396 
L 248.652707 162.435603 
L 248.678679 162.280784 
L 248.725754 162.859258 
L 248.826397 168.050725 
L 248.993594 190.278383 
L 249.254941 260.74861 
L 249.358831 289.299132 
L 249.414022 276.592425 
L 249.845812 176.438983 
L 250.079564 162.7259 
L 250.094173 162.673811 
L 250.134755 163.074153 
L 250.227281 167.153525 
L 250.389609 186.105462 
L 250.6331 245.614313 
L 250.787311 291.884954 
L 250.844125 277.605874 
L 251.266176 178.720913 
L 251.51129 162.437685 
L 251.537263 162.280722 
L 251.584337 162.855142 
L 251.68498 168.037213 
L 251.852177 190.246376 
L 252.113524 260.693237 
L 252.217414 289.299844 
L 252.272605 276.645062 
L 252.704396 176.457973 
L 252.938147 162.727097 
L 252.952756 162.67383 
L 252.993338 163.070781 
L 253.085865 167.14187 
L 253.248192 186.077104 
L 253.491683 245.561854 
L 253.645894 291.882328 
L 253.704332 277.144076 
L 254.124759 178.741444 
L 254.369873 162.43978 
L 254.395846 162.280674 
L 254.442921 162.85104 
L 254.543564 168.023718 
L 254.710761 190.214389 
L 254.972108 260.637868 
L 255.075997 289.30012 
L 255.131188 276.697683 
L 255.564602 176.295293 
L 255.79673 162.728308 
L 255.81134 162.673863 
L 255.853545 163.100229 
L 255.947695 167.356274 
L 256.111645 186.871831 
L 256.358383 248.036757 
L 256.5061 291.884471 
L 256.561292 277.713314 
L 256.983343 178.76199 
L 257.228457 162.441889 
L 257.254429 162.28064 
L 257.303127 162.88677 
L 257.405393 168.271747 
L 257.574214 191.110279 
L 257.840431 263.773475 
L 257.93458 289.299959 
L 257.989772 276.750286 
L 258.423185 176.31417 
L 258.655313 162.729531 
L 258.671546 162.674028 
L 258.712128 163.096746 
L 258.806278 167.344347 
L 258.968605 186.567054 
L 259.213719 246.970195 
L 259.364684 291.886599 
L 259.421498 277.2516 
L 259.841926 178.782551 
L 260.08704 162.444012 
L 260.113012 162.280621 
L 260.161711 162.882554 
L 260.263977 168.257962 
L 260.432797 191.07776 
L 260.699014 263.717973 
L 260.793164 289.299361 
L 260.848355 276.802872 
L 261.281769 176.333062 
L 261.513897 162.730769 
L 261.530129 162.673956 
L 261.570711 163.093278 
L 261.664861 167.332436 
L 261.827188 186.53839 
L 262.072303 246.917463 
L 262.223267 291.888101 
L 262.280081 277.305355 
L 262.700509 178.803125 
L 262.945623 162.446148 
L 262.971596 162.280616 
L 263.020294 162.878354 
L 263.12256 168.244195 
L 263.29138 191.04526 
L 263.557597 263.662472 
L 263.651747 289.298326 
L 263.706938 276.855441 
L 264.140352 176.351969 
L 264.37248 162.73202 
L 264.388713 162.673898 
L 264.429295 163.089825 
L 264.523444 167.320541 
L 264.685772 186.509745 
L 264.930886 246.864741 
L 265.08185 291.888977 
L 265.138665 277.359106 
L 265.559092 178.823715 
L 265.804207 162.448298 
L 265.830179 162.280624 
L 265.878877 162.874169 
L 265.981143 168.230444 
L 266.149964 191.01278 
L 266.41618 263.606973 
L 266.51033 289.296855 
L 266.565521 276.907992 
L 266.998935 176.37089 
L 267.231063 162.733284 
L 267.247296 162.673855 
L 267.287878 163.086386 
L 267.382028 167.308662 
L 267.544355 186.481118 
L 267.789469 246.81203 
L 267.940433 291.889226 
L 267.997248 277.412851 
L 268.417676 178.844319 
L 268.66279 162.450462 
L 268.688762 162.280648 
L 268.73746 162.869999 
L 268.838103 168.085828 
L 269.0053 190.361443 
L 269.268271 261.423549 
L 269.370537 289.295252 
L 269.424105 276.960525 
L 269.859142 176.208798 
L 270.09127 162.722861 
L 270.105879 162.673824 
L 270.146461 163.082962 
L 270.240611 167.296798 
L 270.402938 186.452511 
L 270.648052 246.759329 
L 270.799017 291.888849 
L 270.855831 277.466592 
L 271.277882 178.667759 
L 271.522996 162.432317 
L 271.547345 162.280685 
L 271.596044 162.865843 
L 271.696687 168.072273 
L 271.863884 190.329385 
L 272.126854 261.368137 
L 272.22912 289.297096 
L 272.282688 277.01304 
L 272.717725 176.227607 
L 272.949853 162.724022 
L 272.964463 162.673808 
L 273.005044 163.079552 
L 273.099194 167.284951 
L 273.261521 186.423922 
L 273.506636 246.706639 
L 273.6576 291.887845 
L 273.714415 277.520328 
L 274.136465 178.688253 
L 274.38158 162.434377 
L 274.407552 162.280827 
L 274.454627 162.861703 
L 274.55527 168.058734 
L 274.722467 190.297346 
L 274.983814 260.781401 
L 275.087703 289.298504 
L 275.142895 276.561247 
L 275.574685 176.427745 
L 275.808436 162.725198 
L 275.823046 162.673806 
L 275.863628 163.076157 
L 275.956154 167.160433 
L 276.118481 186.122264 
L 276.361972 245.645382 
L 276.516183 291.886215 
L 276.572998 277.574059 
L 276.995049 178.708761 
L 277.240163 162.43645 
L 277.266135 162.280757 
L 277.31321 162.857578 
L 277.413853 168.045212 
L 277.58105 190.265327 
L 277.842397 260.726026 
L 277.946287 289.299475 
L 278.001478 276.613895 
L 278.433268 176.446726 
L 278.66702 162.726387 
L 278.681629 162.673817 
L 278.722211 163.072776 
L 278.814737 167.14877 
L 278.977065 186.093894 
L 279.220556 245.592917 
L 279.374767 291.883959 
L 279.433204 277.112237 
L 279.853632 178.729284 
L 280.098746 162.438538 
L 280.124719 162.280701 
L 280.171793 162.853467 
L 280.272436 168.031707 
L 280.439633 190.233328 
L 280.70098 260.670655 
L 280.80487 289.30001 
L 280.860061 276.666525 
L 281.293475 176.284122 
L 281.525603 162.727589 
L 281.540212 162.673842 
L 281.582417 163.102298 
L 281.676567 167.363344 
L 281.840518 186.888932 
L 282.087255 248.06811 
L 282.234973 291.882916 
L 282.290164 277.681505 
L 282.712215 178.749822 
L 282.957329 162.440638 
L 282.983302 162.280659 
L 283.030377 162.849371 
L 283.13102 168.018219 
L 283.298217 190.201349 
L 283.559564 260.615287 
L 283.663453 289.300107 
L 283.718644 276.719139 
L 284.152058 176.30299 
L 284.384186 162.728805 
L 284.400419 162.674076 
L 284.441001 163.098807 
L 284.535151 167.351408 
L 284.699101 186.860056 
L 284.945839 248.015165 
L 285.093556 291.885414 
L 285.148748 277.735221 
L 285.570799 178.770374 
L 285.815913 162.442753 
L 285.841885 162.280631 
L 285.890583 162.885049 
L 285.992849 168.266123 
L 286.16167 191.097014 
L 286.427887 263.750839 
L 286.522036 289.299768 
L 286.577228 276.771735 
L 287.010641 176.321873 
L 287.242769 162.730034 
L 287.259002 162.673997 
L 287.299584 163.09533 
L 287.393734 167.339488 
L 287.556061 186.555362 
L 287.801175 246.948687 
L 287.95214 291.887287 
L 288.008954 277.273524 
L 288.429382 178.79094 
L 288.674496 162.444881 
L 288.700468 162.280617 
L 288.749167 162.88084 
L 288.851433 168.252345 
L 289.020253 191.064502 
L 289.28647 263.695338 
L 289.38062 289.298992 
L 289.435811 276.824314 
L 289.869225 176.340771 
L 290.101353 162.731277 
L 290.117585 162.673931 
L 290.158167 163.091868 
L 290.252317 167.327583 
L 290.414644 186.526705 
L 290.659759 246.895959 
L 290.810723 291.888534 
L 290.867537 277.327277 
L 291.287965 178.811521 
L 291.533079 162.447023 
L 291.559052 162.280618 
L 291.60775 162.876646 
L 291.710016 168.238584 
L 291.878836 191.032011 
L 292.145053 263.639837 
L 292.239203 289.297779 
L 292.294394 276.876875 
L 292.727808 176.359684 
L 292.959936 162.732534 
L 292.976169 162.673879 
L 293.016751 163.088421 
L 293.1109 167.315694 
L 293.273228 186.498067 
L 293.518342 246.843242 
L 293.669306 291.889154 
L 293.726121 277.381026 
L 294.146548 178.832116 
L 294.391663 162.449179 
L 294.417635 162.280632 
L 294.466333 162.872466 
L 294.568599 168.22484 
L 294.73742 190.999539 
L 295.003636 263.584338 
L 295.097786 289.296129 
L 295.152977 276.929419 
L 295.588015 176.197667 
L 295.820143 162.722179 
L 295.834752 162.673841 
L 295.875334 163.084988 
L 295.969484 167.303822 
L 296.131811 186.469449 
L 296.376925 246.790535 
L 296.527889 291.889148 
L 296.584704 277.43477 
L 297.005132 178.852726 
L 297.250246 162.451348 
L 297.276218 162.280661 
L 297.324916 162.868302 
L 297.425559 168.080297 
L 297.592756 190.348366 
L 297.855727 261.400949 
L 297.957993 289.296057 
L 298.011561 276.981945 
L 298.446598 176.216467 
L 298.678726 162.723333 
L 298.693335 162.673816 
L 298.733917 163.081569 
L 298.828067 167.291965 
L 298.990394 186.440849 
L 299.235508 246.737839 
L 299.386473 291.888515 
L 299.443287 277.488509 
L 299.865338 178.676116 
L 300.110452 162.433156 
L 300.134801 162.280704 
L 300.1835 162.864153 
L 300.284143 168.066749 
L 300.45134 190.316316 
L 300.71431 261.345539 
L 300.816576 289.297723 
L 300.871767 276.530064 
L 301.303558 176.416512 
L 301.537309 162.7245 
L 301.551919 162.673805 
L 301.5925 163.078165 
L 301.68665 167.280124 
L 301.848977 186.412268 
L 302.094092 246.685153 
L 302.245056 291.887256 
L 302.301871 277.542243 
L 302.723921 178.696615 
L 302.969036 162.435221 
L 302.995008 162.280797 
L 303.042083 162.860019 
L 303.142726 168.053217 
L 303.309923 190.284285 
L 303.57127 260.758816 
L 303.675159 289.298953 
L 303.730351 276.582721 
L 304.162141 176.435484 
L 304.395892 162.725681 
L 304.410502 162.673809 
L 304.451084 163.074776 
L 304.54361 167.155674 
L 304.705937 186.110692 
L 304.949428 245.623984 
L 305.103639 291.88537 
L 305.160454 277.595971 
L 305.582505 178.71713 
L 305.827619 162.4373 
L 305.853591 162.280732 
L 305.900666 162.855899 
L 306.001309 168.039702 
L 306.168506 190.252274 
L 306.429853 260.703443 
L 306.533743 289.299746 
L 306.588934 276.635361 
L 307.020724 176.454472 
L 307.254476 162.726876 
L 307.269085 162.673825 
L 307.309667 163.071401 
L 307.402193 167.144017 
L 307.564521 186.082329 
L 307.808012 245.571523 
L 307.962223 291.882859 
L 308.02066 277.134166 
L 308.441088 178.737659 
L 308.686202 162.439393 
L 308.712175 162.280682 
L 308.759249 162.851795 
L 308.859892 168.026204 
L 309.027089 190.220283 
L 309.288436 260.648073 
L 309.392326 289.300102 
L 309.447517 276.687985 
L 309.880931 176.291815 
L 310.113059 162.728083 
L 310.127668 162.673856 
L 310.169873 163.100872 
L 310.264023 167.358474 
L 310.427974 186.877153 
L 310.674711 248.046516 
L 310.822429 291.88401 
L 310.87762 277.703413 
L 311.299671 178.758202 
L 311.544785 162.441499 
L 311.570758 162.280645 
L 311.617833 162.847705 
L 311.718476 168.012723 
L 311.885673 190.188312 
L 312.14702 260.592707 
L 312.250909 289.300022 
L 312.3061 276.740592 
L 312.739514 176.310689 
L 312.971642 162.729305 
L 312.987875 162.674042 
L 313.028457 163.097387 
L 313.122607 167.346544 
L 313.286557 186.848285 
L 313.533295 247.993575 
L 313.681012 291.886253 
L 313.736204 277.757126 
L 314.158255 178.77876 
L 314.403369 162.443619 
L 314.429341 162.280623 
L 314.478039 162.88333 
L 314.580305 168.260502 
L 314.749126 191.083752 
L 315.015343 263.728203 
L 315.109492 289.299504 
L 315.164684 276.793181 
L 315.598097 176.329578 
L 315.830225 162.73054 
L 315.846458 162.673968 
L 315.88704 163.093917 
L 315.98119 167.33463 
L 316.143517 186.543672 
L 316.388631 246.927181 
L 316.539596 291.887871 
L 316.59641 277.295447 
L 317.016838 178.799332 
L 317.261952 162.445753 
L 317.287924 162.280615 
L 317.336623 162.879127 
L 317.438889 168.246731 
L 317.607709 191.051248 
L 317.873926 263.672702 
L 317.968076 289.29855 
L 318.023267 276.845753 
L 318.456681 176.348482 
L 318.688809 162.731788 
L 318.705041 162.673908 
L 318.745623 163.090461 
L 318.839773 167.322732 
L 319.0021 186.515023 
L 319.247215 246.874458 
L 319.398179 291.888863 
L 319.454993 277.349199 
L 319.875421 178.819919 
L 320.120535 162.447901 
L 320.146508 162.280622 
L 320.195206 162.874939 
L 320.297472 168.232977 
L 320.466292 191.018765 
L 320.732509 263.617203 
L 320.826659 289.297159 
L 320.88185 276.898307 
L 321.315264 176.367401 
L 321.547392 162.73305 
L 321.563625 162.673862 
L 321.604207 163.087019 
L 321.698356 167.31085 
L 321.860684 186.486393 
L 322.105798 246.821745 
L 322.256762 291.889228 
L 322.313577 277.402945 
L 322.734004 178.84052 
L 322.979119 162.450062 
L 323.005091 162.280642 
L 323.053789 162.870766 
L 323.154432 168.088328 
L 323.321629 190.367355 
L 323.584599 261.433762 
L 323.685242 289.295331 
L 323.740433 276.950843 
L 324.175471 176.205333 
L 324.407599 162.722648 
L 324.422208 162.673829 
L 324.46279 163.083592 
L 324.55694 167.298984 
L 324.719267 186.457782 
L 324.964381 246.769042 
L 325.115345 291.888966 
L 325.17216 277.456687 
L 325.594211 178.663983 
L 325.839325 162.431939 
L 325.863674 162.280677 
L 325.912372 162.866608 
L 326.013015 168.07477 
L 326.180212 190.335292 
L 326.443183 261.37835 
L 326.545449 289.296789 
L 326.599017 277.003362 
L 327.034054 176.224139 
L 327.266182 162.723807 
L 327.280791 162.67381 
L 327.321373 163.080179 
L 327.415523 167.287134 
L 327.57785 186.42919 
L 327.822964 246.71635 
L 327.973929 291.888077 
L 328.030743 277.510424 
L 328.452794 178.684475 
L 328.697908 162.433996 
L 328.723881 162.280842 
L 328.770956 162.862465 
L 328.871599 168.061228 
L 329.038796 190.30325 
L 329.300143 260.791608 
L 329.404032 289.298277 
L 329.459223 276.551542 
L 329.891014 176.424248 
L 330.124765 162.72498 
L 330.139375 162.673805 
L 330.179956 163.076781 
L 330.274106 167.275299 
L 330.436433 186.400617 
L 330.681548 246.663668 
L 330.832512 291.886562 
L 330.889327 277.564156 
L 331.311377 178.70498 
L 331.556492 162.436067 
L 331.582464 162.280769 
L 331.629539 162.858337 
L 331.730182 168.047703 
L 331.897379 190.271227 
L 332.158726 260.736232 
L 332.262615 289.299329 
L 332.317807 276.604192 
L 332.749597 176.443226 
L 332.983348 162.726167 
L 332.997958 162.673814 
L 333.03854 163.073398 
L 333.131066 167.150918 
L 333.293393 186.099122 
L 333.536884 245.602587 
L 333.691095 291.884421 
L 333.74791 277.617883 
L 334.169961 178.725501 
L 334.415075 162.438152 
L 334.441047 162.28071 
L 334.488122 162.854224 
L 334.588765 168.034195 
L 334.755962 190.239224 
L 335.017309 260.680861 
L 335.121199 289.299944 
L 335.17639 276.656825 
L 335.609804 176.280646 
L 335.841932 162.727367 
L 335.856541 162.673836 
L 335.897123 163.070029 
L 335.989649 167.139267 
L 336.151977 186.070767 
L 336.395468 245.55013 
L 336.551302 291.882388 
L 336.608116 277.156094 
L 337.028544 178.746035 
L 337.273658 162.44025 
L 337.299631 162.280665 
L 337.346705 162.850125 
L 337.447348 168.020704 
L 337.614545 190.207242 
L 337.875892 260.625492 
L 337.979782 289.300122 
L 338.034973 276.709442 
L 338.468387 176.299511 
L 338.700515 162.72858 
L 338.716748 162.674093 
L 338.757329 163.099449 
L 338.851479 167.353607 
L 339.01543 186.865377 
L 339.262167 248.024923 
L 339.409885 291.885001 
L 339.465076 277.72532 
L 339.887127 178.766584 
L 340.132241 162.442362 
L 340.158214 162.280635 
L 340.206912 162.885826 
L 340.309178 168.268664 
L 340.477999 191.103009 
L 340.744215 263.761069 
L 340.838365 289.299863 
L 340.893556 276.762042 
L 341.32697 176.318391 
L 341.559098 162.729807 
L 341.575331 162.67401 
L 341.615913 163.09597 
L 341.710063 167.341683 
L 341.87239 186.560646 
L 342.117504 246.958407 
L 342.268468 291.886989 
L 342.325283 277.263616 
L 342.745711 178.787148 
L 342.990825 162.444488 
L 343.016797 162.280618 
L 343.065495 162.881614 
L 343.167761 168.254884 
L 343.336582 191.070493 
L 343.602799 263.705568 
L 343.696948 289.299168 
L 343.75214 276.814624 
L 344.185553 176.337286 
L 344.417681 162.731047 
L 344.433914 162.673942 
L 344.474496 163.092505 
L 344.568646 167.329776 
L 344.730973 186.531986 
L 344.976087 246.905677 
L 345.127052 291.888351 
L 345.183866 277.31737 
L 345.604294 178.807726 
L 345.849408 162.446627 
L 345.87538 162.280616 
L 345.924079 162.877417 
L 346.026345 168.24112 
L 346.195165 191.037998 
L 346.461382 263.650067 
L 346.555532 289.298035 
L 346.610723 276.867189 
L 347.044137 176.356197 
L 347.276265 162.732301 
L 347.292497 162.673887 
L 347.333079 163.089055 
L 347.427229 167.317884 
L 347.589556 186.503345 
L 347.834671 246.852958 
L 347.985635 291.889087 
L 348.042449 277.371119 
L 348.462877 178.828319 
L 348.707991 162.44878 
L 348.733964 162.280628 
L 348.782662 162.873236 
L 348.884928 168.227372 
L 349.053748 191.005522 
L 349.319965 263.594568 
L 349.414115 289.296466 
L 349.469306 276.919736 
L 349.904343 176.194204 
L 350.136471 162.721968 
L 350.151081 162.673847 
L 350.191663 163.08562 
L 350.285812 167.306009 
L 350.44814 186.474722 
L 350.693254 246.800249 
L 350.844218 291.889196 
L 350.901033 277.424864 
L 351.32146 178.848926 
L 351.566575 162.450947 
L 351.592547 162.280655 
L 351.641245 162.869069 
L 351.741888 168.082797 
L 351.909085 190.354276 
L 352.172055 261.411163 
L 352.274321 289.295702 
L 352.327889 276.972265 
L 352.762927 176.213001 
L 352.995055 162.723119 
L 353.009664 162.67382 
L 353.050246 163.082198 
L 353.144396 167.294149 
L 353.306723 186.446119 
L 353.551837 246.747551 
L 353.702801 291.888679 
L 353.759616 277.478604 
L 354.181667 178.672339 
L 354.426781 162.432777 
L 354.45113 162.280695 
L 354.499828 162.864917 
L 354.600471 168.069245 
L 354.767668 190.322222 
L 355.030639 261.355752 
L 355.132905 289.297449 
L 355.186473 277.024776 
L 355.62151 176.231813 
L 355.853638 162.724284 
L 355.868247 162.673806 
L 355.908829 163.078792 
L 356.002979 167.282305 
L 356.165306 186.417534 
L 356.41042 246.694863 
L 356.561385 291.887535 
L 356.618199 277.532339 
L 357.04025 178.692836 
L 357.285364 162.434839 
L 357.311337 162.28081 
L 357.358412 162.86078 
L 357.459055 168.05571 
L 357.626252 190.290187 
L 357.887599 260.769023 
L 357.991488 289.298759 
L 358.046679 276.573016 
L 358.47847 176.431986 
L 358.712221 162.725462 
L 358.726831 162.673807 
L 358.767412 163.0754 
L 358.859939 167.157825 
L 359.022266 186.115921 
L 359.265757 245.633654 
L 359.419968 291.885765 
L 359.476783 277.586068 
L 359.898833 178.713347 
L 360.143948 162.436916 
L 360.16992 162.280743 
L 360.216995 162.856657 
L 360.317638 168.042192 
L 360.484835 190.258173 
L 360.746182 260.713649 
L 360.850071 289.299633 
L 360.905263 276.62566 
L 361.337053 176.450971 
L 361.570804 162.726654 
L 361.585414 162.673821 
L 361.625996 163.072022 
L 361.718522 167.146165 
L 361.880849 186.087556 
L 362.12434 245.581192 
L 362.278551 291.883369 
L 362.336989 277.124255 
L 362.757417 178.733874 
L 363.002531 162.439006 
L 363.028503 162.28069 
L 363.075578 162.85255 
L 363.176221 168.028691 
L 363.343418 190.226178 
L 363.604765 260.658279 
L 363.708655 289.300069 
L 363.763846 276.678287 
L 364.19726 176.288338 
L 364.429388 162.72786 
L 364.443997 162.673849 
L 364.486202 163.101516 
L 364.580352 167.360675 
L 364.744303 186.882476 
L 364.99104 248.056275 
L 365.138758 291.883529 
L 365.193949 277.693512 
L 365.616 178.754414 
L 365.861114 162.44111 
L 365.887087 162.280651 
L 365.934161 162.848458 
L 366.034804 168.015207 
L 366.202001 190.194203 
L 366.463348 260.602912 
L 366.567238 289.300069 
L 366.622429 276.730896 
L 367.055843 176.307209 
L 367.287971 162.729079 
L 367.304204 162.674057 
L 367.344785 163.098028 
L 367.438935 167.348742 
L 367.602886 186.853605 
L 367.849623 248.003332 
L 367.997341 291.885887 
L 368.052532 277.747226 
L 368.474583 178.774969 
L 368.719697 162.443227 
L 368.74567 162.280626 
L 368.794368 162.884107 
L 368.896634 168.263042 
L 369.065455 191.089745 
L 369.331671 263.738433 
L 369.425821 289.299632 
L 369.481012 276.783489 
L 369.914426 176.326096 
L 370.146554 162.730311 
L 370.162787 162.673981 
L 370.203369 163.094555 
L 370.297519 167.336825 
L 370.459846 186.548955 
L 370.70496 246.936901 
L 370.855924 291.88762 
L 370.912739 277.285539 
L 371.333167 178.795539 
L 371.578281 162.445359 
L 371.604253 162.280616 
L 371.652951 162.879901 
L 371.755217 168.249268 
L 371.924038 191.057238 
L 372.190255 263.682932 
L 372.284404 289.298759 
L 372.339596 276.836064 
L 372.773009 176.344997 
L 373.005137 162.731557 
L 373.02137 162.673918 
L 373.061952 163.091096 
L 373.156102 167.324924 
L 373.318429 186.520302 
L 373.563543 246.884175 
L 373.714508 291.888727 
L 373.771322 277.339291 
L 374.19175 178.816123 
L 374.436864 162.447504 
L 374.462836 162.28062 
L 374.511535 162.87571 
L 374.613801 168.235511 
L 374.782621 191.024751 
L 375.048838 263.627432 
L 375.142988 289.297448 
L 375.198179 276.888621 
L 375.631593 176.363913 
L 375.863721 162.732816 
L 375.879953 162.673869 
L 375.920535 163.087652 
L 376.014685 167.313039 
L 376.177012 186.491669 
L 376.422127 246.83146 
L 376.573091 291.889207 
L 376.629905 277.393039 
L 377.050333 178.836722 
L 377.295447 162.449663 
L 377.32142 162.280637 
L 377.370118 162.871534 
L 377.470761 168.090829 
L 377.637958 190.373267 
L 377.900928 261.443976 
L 378.001571 289.295701 
L 378.056762 276.941161 
L 378.491799 176.201868 
L 378.723927 162.722436 
L 378.738537 162.673834 
L 378.779119 163.084223 
L 378.873268 167.30117 
L 379.035596 186.463054 
L 379.28071 246.778756 
L 379.431674 291.889061 
L 379.488489 277.446782 
L 379.91054 178.660208 
L 380.155654 162.431562 
L 380.180003 162.280669 
L 380.228701 162.867374 
L 380.329344 168.077268 
L 380.496541 190.341201 
L 380.759511 261.388564 
L 380.861777 289.296467 
L 380.915345 276.993683 
L 381.350383 176.220671 
L 381.582511 162.723593 
L 381.59712 162.673813 
L 381.637702 163.080807 
L 381.731852 167.289317 
L 381.894179 186.434459 
L 382.139293 246.726062 
L 382.290257 291.888288 
L 382.347072 277.50052 
L 382.769123 178.680696 
L 383.014237 162.433616 
L 383.038586 162.280716 
L 383.087284 162.863228 
L 383.187927 168.063723 
L 383.355124 190.309154 
L 383.618095 261.333154 
L 383.720361 289.298036 
L 383.775552 276.541835 
L 384.207343 176.420751 
L 384.441094 162.724763 
L 384.455703 162.673805 
L 384.496285 163.077407 
L 384.590435 167.277479 
L 384.752762 186.405882 
L 384.997876 246.673378 
L 385.148841 291.886889 
L 385.205655 277.554252 
L 385.627706 178.7012 
L 385.87282 162.435685 
L 385.898793 162.280781 
L 385.945868 162.859097 
L 386.046511 168.050195 
L 386.213708 190.277128 
L 386.475055 260.746439 
L 386.578944 289.299168 
L 386.634135 276.594488 
L 387.065926 176.439727 
L 387.299677 162.725947 
L 387.314287 162.673811 
L 387.354868 163.07402 
L 387.447395 167.153067 
L 387.609722 186.10435 
L 387.853213 245.612257 
L 388.007424 291.884863 
L 388.064239 277.60798 
L 388.486289 178.721717 
L 388.731404 162.437767 
L 388.757376 162.28072 
L 388.804451 162.854981 
L 388.905094 168.036684 
L 389.072291 190.245122 
L 389.333638 260.691067 
L 389.437527 289.299864 
L 389.492719 276.647125 
L 389.924509 176.458718 
L 390.15826 162.727144 
L 390.17287 162.673831 
L 390.213452 163.070649 
L 390.305978 167.141414 
L 390.468305 186.075992 
L 390.711796 245.559798 
L 390.866007 291.882212 
L 390.924445 277.146183 
L 391.344873 178.742249 
L 391.589987 162.439862 
L 391.615959 162.280672 
L 391.663034 162.85088 
L 391.763677 168.023189 
L 391.930874 190.213135 
L 392.192221 260.635698 
L 392.296111 289.300122 
L 392.351302 276.699745 
L 392.784716 176.296033 
L 393.016844 162.728355 
L 393.031453 162.673865 
L 393.073658 163.100092 
L 393.167808 167.355806 
L 393.331759 186.870699 
L 393.578496 248.034682 
L 393.726214 291.884566 
L 393.781405 277.71542 
L 394.203456 178.762796 
L 394.44857 162.441972 
L 394.474543 162.280639 
L 394.523241 162.886604 
L 394.625507 168.271206 
L 394.794327 191.109004 
L 395.060544 263.7713 
L 395.154694 289.299944 
L 395.209885 276.752348 
L 395.643299 176.31491 
L 395.875427 162.72958 
L 395.89166 162.674025 
L 395.932241 163.09661 
L 396.026391 167.34388 
L 396.188719 186.56593 
L 396.433833 246.968127 
L 396.584797 291.886669 
L 396.641612 277.253707 
L 397.062039 178.783357 
L 397.307153 162.444095 
L 397.333126 162.28062 
L 397.381824 162.88239 
L 397.48409 168.257422 
L 397.652911 191.076485 
L 397.919127 263.715798 
L 398.013277 289.299329 
L 398.068468 276.804933 
L 398.487273 178.021551 
L 398.487273 178.021551 
" style="fill:none;stroke:#1f77b4;stroke-linecap:square;stroke-width:1.5;"/>
   </g>
   <g id="patch_3">
    <path d="M 57.6 307.584 
L 57.6 41.472 
" style="fill:none;stroke:#000000;stroke-linecap:square;stroke-linejoin:miter;stroke-width:0.8;"/>
   </g>
   <g id="patch_4">
    <path d="M 414.72 307.584 
L 414.72 41.472 
" style="fill:none;stroke:#000000;stroke-linecap:square;stroke-linejoin:miter;stroke-width:0.8;"/>
   </g>
   <g id="patch_5">
    <path d="M 57.6 307.584 
L 414.72 307.584 
" style="fill:none;stroke:#000000;stroke-linecap:square;stroke-linejoin:miter;stroke-width:0.8;"/>
   </g>
   <g id="patch_6">
    <path d="M 57.6 41.472 
L 414.72 41.472 
" style="fill:none;stroke:#000000;stroke-linecap:square;stroke-linejoin:miter;stroke-width:0.8;"/>
   </g>
  </g>
 </g>
 <defs>
  <clipPath id="paf3d1fbd53">
   <rect height="266.112" width="357.12" x="57.6" y="41.472"/>
  </clipPath>
 </defs>
</svg>
