<?xml version="1.0" encoding="utf-8" standalone="no"?>
<!DOCTYPE svg PUBLIC "-//W3C//DTD SVG 1.1//EN"
  "http://www.w3.org/Graphics/SVG/1.1/DTD/svg11.dtd">
<!-- Created with matplotlib (https://matplotlib.org/) -->
<svg height="345.6pt" version="1.1" viewBox="0 0 460.8 345.6" width="460.8pt" xmlns="http://www.w3.org/2000/svg" xmlns:xlink="http://www.w3.org/1999/xlink">
 <metadata>
  <rdf:RDF xmlns:cc="http://creativecommons.org/ns#" xmlns:dc="http://purl.org/dc/elements/1.1/" xmlns:rdf="http://www.w3.org/1999/02/22-rdf-syntax-ns#">
   <cc:Work>
    <dc:type rdf:resource="http://purl.org/dc/dcmitype/StillImage"/>
    <dc:date>2020-07-23T21:21:18.763547</dc:date>
    <dc:format>image/svg+xml</dc:format>
    <dc:creator>
     <cc:Agent>
      <dc:title>Matplotlib v3.3.0, https://matplotlib.org/</dc:title>
     </cc:Agent>
    </dc:creator>
   </cc:Work>
  </rdf:RDF>
 </metadata>
 <defs>
  <style type="text/css">*{stroke-linecap:butt;stroke-linejoin:round;}</style>
 </defs>
 <g id="figure_1">
  <g id="patch_1">
   <path d="M 0 345.6 
L 460.8 345.6 
L 460.8 0 
L 0 0 
z
" style="fill:#ffffff;"/>
  </g>
  <g id="axes_1">
   <g id="patch_2">
    <path d="M 57.6 307.584 
L 414.72 307.584 
L 414.72 41.472 
L 57.6 41.472 
z
" style="fill:#ffffff;"/>
   </g>
   <g id="matplotlib.axis_1">
    <g id="xtick_1">
     <g id="line2d_1">
      <defs>
       <path d="M 0 0 
L 0 3.5 
" id="m3d44e0209c" style="stroke:#000000;stroke-width:0.8;"/>
      </defs>
      <g>
       <use style="stroke:#000000;stroke-width:0.8;" x="73.832727" xlink:href="#m3d44e0209c" y="307.584"/>
      </g>
     </g>
     <g id="text_1">
      <!-- $\mathdefault{0}$ -->
      <g transform="translate(71.34206 321.502498)scale(0.1 -0.1)">
       <defs>
        <path d="M 42 31.640625 
C 42 37.75 41.90625 48.125 37.703125 56.109375 
C 34 63.109375 28.09375 65.59375 22.90625 65.59375 
C 18.09375 65.59375 12 63.40625 8.203125 56.203125 
C 4.203125 48.71875 3.796875 39.4375 3.796875 31.640625 
C 3.796875 25.953125 3.90625 17.28125 7 9.671875 
C 11.296875 -0.609375 19 -2 22.90625 -2 
C 27.5 -2 34.5 -0.109375 38.59375 9.375 
C 41.59375 16.28125 42 24.359375 42 31.640625 
z
M 22.90625 -0.40625 
C 16.5 -0.40625 12.703125 5.078125 11.296875 12.6875 
C 10.203125 18.5625 10.203125 27.15625 10.203125 32.75 
C 10.203125 40.4375 10.203125 46.828125 11.5 52.921875 
C 13.40625 61.390625 19 64 22.90625 64 
C 27 64 32.296875 61.296875 34.203125 53.125 
C 35.5 47.4375 35.59375 40.734375 35.59375 32.75 
C 35.59375 26.25 35.59375 18.265625 34.40625 12.375 
C 32.296875 1.484375 26.40625 -0.40625 22.90625 -0.40625 
z
" id="CMR17-48"/>
       </defs>
       <use transform="scale(0.996264)" xlink:href="#CMR17-48"/>
      </g>
     </g>
    </g>
    <g id="xtick_2">
     <g id="line2d_2">
      <g>
       <use style="stroke:#000000;stroke-width:0.8;" x="138.763636" xlink:href="#m3d44e0209c" y="307.584"/>
      </g>
     </g>
     <g id="text_2">
      <!-- $\mathdefault{20000}$ -->
      <g transform="translate(126.310298 321.502498)scale(0.1 -0.1)">
       <defs>
        <path d="M 41.703125 15.453125 
L 39.90625 15.453125 
C 38.90625 8.375 38.09375 7.171875 37.703125 6.5625 
C 37.203125 5.765625 30 5.765625 28.59375 5.765625 
L 9.40625 5.765625 
C 13 9.671875 20 16.75 28.5 24.953125 
C 34.59375 30.734375 41.703125 37.53125 41.703125 47.421875 
C 41.703125 59.21875 32.296875 66 21.796875 66 
C 10.796875 66 4.09375 56.3125 4.09375 47.34375 
C 4.09375 43.4375 7 42.9375 8.203125 42.9375 
C 9.203125 42.9375 12.203125 43.546875 12.203125 47.03125 
C 12.203125 50.109375 9.59375 51 8.203125 51 
C 7.59375 51 7 50.90625 6.59375 50.703125 
C 8.5 59.21875 14.296875 63.40625 20.40625 63.40625 
C 29.09375 63.40625 34.796875 56.515625 34.796875 47.421875 
C 34.796875 38.734375 29.703125 31.25 24 24.75 
L 4.09375 2.28125 
L 4.09375 0 
L 39.296875 0 
z
" id="CMR17-50"/>
       </defs>
       <use transform="scale(0.996264)" xlink:href="#CMR17-50"/>
       <use transform="translate(45.690477 0)scale(0.996264)" xlink:href="#CMR17-48"/>
       <use transform="translate(91.380954 0)scale(0.996264)" xlink:href="#CMR17-48"/>
       <use transform="translate(137.071431 0)scale(0.996264)" xlink:href="#CMR17-48"/>
       <use transform="translate(182.761908 0)scale(0.996264)" xlink:href="#CMR17-48"/>
      </g>
     </g>
    </g>
    <g id="xtick_3">
     <g id="line2d_3">
      <g>
       <use style="stroke:#000000;stroke-width:0.8;" x="203.694545" xlink:href="#m3d44e0209c" y="307.584"/>
      </g>
     </g>
     <g id="text_3">
      <!-- $\mathdefault{40000}$ -->
      <g transform="translate(191.241207 321.502498)scale(0.1 -0.1)">
       <defs>
        <path d="M 33.59375 64.40625 
C 33.59375 66.5 33.5 66.5 31.703125 66.5 
L 2 19.59375 
L 2 17 
L 27.796875 17 
L 27.796875 7.140625 
C 27.796875 3.5 27.59375 2.5 20.59375 2.5 
L 18.703125 2.5 
L 18.703125 0 
C 21.90625 0 27.296875 0 30.703125 0 
C 34.09375 0 39.5 0 42.703125 0 
L 42.703125 2.5 
L 40.796875 2.5 
C 33.796875 2.5 33.59375 3.5 33.59375 7.140625 
L 33.59375 17 
L 43.796875 17 
L 43.796875 19.59375 
L 33.59375 19.59375 
z
M 28.09375 57.859375 
L 28.09375 19.59375 
L 4 19.59375 
z
" id="CMR17-52"/>
       </defs>
       <use transform="scale(0.996264)" xlink:href="#CMR17-52"/>
       <use transform="translate(45.690477 0)scale(0.996264)" xlink:href="#CMR17-48"/>
       <use transform="translate(91.380954 0)scale(0.996264)" xlink:href="#CMR17-48"/>
       <use transform="translate(137.071431 0)scale(0.996264)" xlink:href="#CMR17-48"/>
       <use transform="translate(182.761908 0)scale(0.996264)" xlink:href="#CMR17-48"/>
      </g>
     </g>
    </g>
    <g id="xtick_4">
     <g id="line2d_4">
      <g>
       <use style="stroke:#000000;stroke-width:0.8;" x="268.625455" xlink:href="#m3d44e0209c" y="307.584"/>
      </g>
     </g>
     <g id="text_4">
      <!-- $\mathdefault{60000}$ -->
      <g transform="translate(256.172116 321.502498)scale(0.1 -0.1)">
       <defs>
        <path d="M 10.59375 34 
C 10.59375 57.65625 21.796875 63 28.296875 63 
C 30.40625 63 35.5 62.640625 37.5 59 
C 35.90625 59 32.90625 59 32.90625 55.515625 
C 32.90625 52.828125 35.09375 51.921875 36.5 51.921875 
C 37.40625 51.921875 40.09375 52.3125 40.09375 55.625 
C 40.09375 61.78125 35.09375 65.296875 28.203125 65.296875 
C 16.296875 65.296875 3.796875 52.96875 3.796875 31 
C 3.796875 3.953125 15.09375 -2 23.09375 -2 
C 32.796875 -2 42 6.671875 42 20.046875 
C 42 32.515625 33.90625 41.59375 23.703125 41.59375 
C 17.59375 41.59375 13.09375 37.609375 10.59375 30.625 
z
M 23.09375 0.390625 
C 10.796875 0.390625 10.796875 18.75 10.796875 22.4375 
C 10.796875 29.625 14.203125 40 23.5 40 
C 25.203125 40 30.09375 40 33.40625 33.125 
C 35.203125 29.21875 35.203125 25.140625 35.203125 20.140625 
C 35.203125 14.75 35.203125 10.78125 33.09375 6.78125 
C 30.90625 2.671875 27.703125 0.390625 23.09375 0.390625 
z
" id="CMR17-54"/>
       </defs>
       <use transform="scale(0.996264)" xlink:href="#CMR17-54"/>
       <use transform="translate(45.690477 0)scale(0.996264)" xlink:href="#CMR17-48"/>
       <use transform="translate(91.380954 0)scale(0.996264)" xlink:href="#CMR17-48"/>
       <use transform="translate(137.071431 0)scale(0.996264)" xlink:href="#CMR17-48"/>
       <use transform="translate(182.761908 0)scale(0.996264)" xlink:href="#CMR17-48"/>
      </g>
     </g>
    </g>
    <g id="xtick_5">
     <g id="line2d_5">
      <g>
       <use style="stroke:#000000;stroke-width:0.8;" x="333.556364" xlink:href="#m3d44e0209c" y="307.584"/>
      </g>
     </g>
     <g id="text_5">
      <!-- $\mathdefault{80000}$ -->
      <g transform="translate(321.103026 321.502498)scale(0.1 -0.1)">
       <defs>
        <path d="M 27.203125 35.375 
C 33.5 38.546875 39.90625 43.328125 39.90625 50.984375 
C 39.90625 60.015625 31.09375 65.296875 23 65.296875 
C 13.90625 65.296875 5.90625 58.734375 5.90625 49.6875 
C 5.90625 47.203125 6.5 42.921875 10.40625 39.140625 
C 11.40625 38.15625 15.59375 35.171875 18.296875 33.28125 
C 13.796875 30.984375 3.296875 25.53125 3.296875 14.59375 
C 3.296875 4.359375 13.09375 -2 22.796875 -2 
C 33.5 -2 42.5 5.65625 42.5 15.78125 
C 42.5 24.84375 36.40625 29.015625 32.40625 31.703125 
z
M 14.09375 44.09375 
C 13.296875 44.59375 9.296875 47.671875 9.296875 52.359375 
C 9.296875 58.421875 15.59375 63 22.796875 63 
C 30.703125 63 36.5 57.4375 36.5 50.96875 
C 36.5 41.703125 26.09375 36.421875 25.59375 36.421875 
C 25.5 36.421875 25.40625 36.421875 24.59375 37.03125 
z
M 32.5 23.734375 
C 34 22.640625 38.796875 19.375 38.796875 13.296875 
C 38.796875 5.953125 31.40625 0.390625 23 0.390625 
C 13.90625 0.390625 7 6.84375 7 14.6875 
C 7 22.546875 13.09375 29.09375 20 32.1875 
z
" id="CMR17-56"/>
       </defs>
       <use transform="scale(0.996264)" xlink:href="#CMR17-56"/>
       <use transform="translate(45.690477 0)scale(0.996264)" xlink:href="#CMR17-48"/>
       <use transform="translate(91.380954 0)scale(0.996264)" xlink:href="#CMR17-48"/>
       <use transform="translate(137.071431 0)scale(0.996264)" xlink:href="#CMR17-48"/>
       <use transform="translate(182.761908 0)scale(0.996264)" xlink:href="#CMR17-48"/>
      </g>
     </g>
    </g>
    <g id="xtick_6">
     <g id="line2d_6">
      <g>
       <use style="stroke:#000000;stroke-width:0.8;" x="398.487273" xlink:href="#m3d44e0209c" y="307.584"/>
      </g>
     </g>
     <g id="text_6">
      <!-- $\mathdefault{100000}$ -->
      <g transform="translate(383.543267 321.502498)scale(0.1 -0.1)">
       <defs>
        <path d="M 26.59375 63.40625 
C 26.59375 65.5 26.5 65.5 25.09375 65.5 
C 21.203125 61.1875 15.296875 59.796875 9.703125 59.796875 
C 9.40625 59.796875 8.90625 59.796875 8.796875 59.5 
C 8.703125 59.296875 8.703125 59.09375 8.703125 57 
C 11.796875 57 17 57.59375 21 59.984375 
L 21 7.203125 
C 21 3.6875 20.796875 2.5 12.203125 2.5 
L 9.203125 2.5 
L 9.203125 0 
C 14 0 19 0 23.796875 0 
C 28.59375 0 33.59375 0 38.40625 0 
L 38.40625 2.5 
L 35.40625 2.5 
C 26.796875 2.5 26.59375 3.59375 26.59375 7.15625 
z
" id="CMR17-49"/>
       </defs>
       <use transform="scale(0.996264)" xlink:href="#CMR17-49"/>
       <use transform="translate(45.690477 0)scale(0.996264)" xlink:href="#CMR17-48"/>
       <use transform="translate(91.380954 0)scale(0.996264)" xlink:href="#CMR17-48"/>
       <use transform="translate(137.071431 0)scale(0.996264)" xlink:href="#CMR17-48"/>
       <use transform="translate(182.761908 0)scale(0.996264)" xlink:href="#CMR17-48"/>
       <use transform="translate(228.452386 0)scale(0.996264)" xlink:href="#CMR17-48"/>
      </g>
     </g>
    </g>
   </g>
   <g id="matplotlib.axis_2">
    <g id="ytick_1">
     <g id="line2d_7">
      <defs>
       <path d="M 0 0 
L -3.5 0 
" id="m796ce4ccda" style="stroke:#000000;stroke-width:0.8;"/>
      </defs>
      <g>
       <use style="stroke:#000000;stroke-width:0.8;" x="57.6" xlink:href="#m796ce4ccda" y="297.102909"/>
      </g>
     </g>
     <g id="text_7">
      <!-- $\mathdefault{0.00}$ -->
      <g transform="translate(32.888586 300.562158)scale(0.1 -0.1)">
       <defs>
        <path d="M 18.40625 4.796875 
C 18.40625 7.6875 16 9.671875 13.59375 9.671875 
C 10.703125 9.671875 8.703125 7.28125 8.703125 4.890625 
C 8.703125 2 11.09375 0 13.5 0 
C 16.40625 0 18.40625 2.390625 18.40625 4.796875 
z
" id="CMMI12-58"/>
       </defs>
       <use transform="scale(0.996264)" xlink:href="#CMR17-48"/>
       <use transform="translate(45.690477 0)scale(0.996264)" xlink:href="#CMMI12-58"/>
       <use transform="translate(72.787654 0)scale(0.996264)" xlink:href="#CMR17-48"/>
       <use transform="translate(118.478131 0)scale(0.996264)" xlink:href="#CMR17-48"/>
      </g>
     </g>
    </g>
    <g id="ytick_2">
     <g id="line2d_8">
      <g>
       <use style="stroke:#000000;stroke-width:0.8;" x="57.6" xlink:href="#m796ce4ccda" y="261.687782"/>
      </g>
     </g>
     <g id="text_8">
      <!-- $\mathdefault{0.02}$ -->
      <g transform="translate(32.888586 265.147031)scale(0.1 -0.1)">
       <use transform="scale(0.996264)" xlink:href="#CMR17-48"/>
       <use transform="translate(45.690477 0)scale(0.996264)" xlink:href="#CMMI12-58"/>
       <use transform="translate(72.787654 0)scale(0.996264)" xlink:href="#CMR17-48"/>
       <use transform="translate(118.478131 0)scale(0.996264)" xlink:href="#CMR17-50"/>
      </g>
     </g>
    </g>
    <g id="ytick_3">
     <g id="line2d_9">
      <g>
       <use style="stroke:#000000;stroke-width:0.8;" x="57.6" xlink:href="#m796ce4ccda" y="226.272654"/>
      </g>
     </g>
     <g id="text_9">
      <!-- $\mathdefault{0.04}$ -->
      <g transform="translate(32.888586 229.731903)scale(0.1 -0.1)">
       <use transform="scale(0.996264)" xlink:href="#CMR17-48"/>
       <use transform="translate(45.690477 0)scale(0.996264)" xlink:href="#CMMI12-58"/>
       <use transform="translate(72.787654 0)scale(0.996264)" xlink:href="#CMR17-48"/>
       <use transform="translate(118.478131 0)scale(0.996264)" xlink:href="#CMR17-52"/>
      </g>
     </g>
    </g>
    <g id="ytick_4">
     <g id="line2d_10">
      <g>
       <use style="stroke:#000000;stroke-width:0.8;" x="57.6" xlink:href="#m796ce4ccda" y="190.857527"/>
      </g>
     </g>
     <g id="text_10">
      <!-- $\mathdefault{0.06}$ -->
      <g transform="translate(32.888586 194.316776)scale(0.1 -0.1)">
       <use transform="scale(0.996264)" xlink:href="#CMR17-48"/>
       <use transform="translate(45.690477 0)scale(0.996264)" xlink:href="#CMMI12-58"/>
       <use transform="translate(72.787654 0)scale(0.996264)" xlink:href="#CMR17-48"/>
       <use transform="translate(118.478131 0)scale(0.996264)" xlink:href="#CMR17-54"/>
      </g>
     </g>
    </g>
    <g id="ytick_5">
     <g id="line2d_11">
      <g>
       <use style="stroke:#000000;stroke-width:0.8;" x="57.6" xlink:href="#m796ce4ccda" y="155.442399"/>
      </g>
     </g>
     <g id="text_11">
      <!-- $\mathdefault{0.08}$ -->
      <g transform="translate(32.888586 158.901649)scale(0.1 -0.1)">
       <use transform="scale(0.996264)" xlink:href="#CMR17-48"/>
       <use transform="translate(45.690477 0)scale(0.996264)" xlink:href="#CMMI12-58"/>
       <use transform="translate(72.787654 0)scale(0.996264)" xlink:href="#CMR17-48"/>
       <use transform="translate(118.478131 0)scale(0.996264)" xlink:href="#CMR17-56"/>
      </g>
     </g>
    </g>
    <g id="ytick_6">
     <g id="line2d_12">
      <g>
       <use style="stroke:#000000;stroke-width:0.8;" x="57.6" xlink:href="#m796ce4ccda" y="120.027272"/>
      </g>
     </g>
     <g id="text_12">
      <!-- $\mathdefault{0.10}$ -->
      <g transform="translate(32.888586 123.486521)scale(0.1 -0.1)">
       <use transform="scale(0.996264)" xlink:href="#CMR17-48"/>
       <use transform="translate(45.690477 0)scale(0.996264)" xlink:href="#CMMI12-58"/>
       <use transform="translate(72.787654 0)scale(0.996264)" xlink:href="#CMR17-49"/>
       <use transform="translate(118.478131 0)scale(0.996264)" xlink:href="#CMR17-48"/>
      </g>
     </g>
    </g>
    <g id="ytick_7">
     <g id="line2d_13">
      <g>
       <use style="stroke:#000000;stroke-width:0.8;" x="57.6" xlink:href="#m796ce4ccda" y="84.612145"/>
      </g>
     </g>
     <g id="text_13">
      <!-- $\mathdefault{0.12}$ -->
      <g transform="translate(32.888586 88.071394)scale(0.1 -0.1)">
       <use transform="scale(0.996264)" xlink:href="#CMR17-48"/>
       <use transform="translate(45.690477 0)scale(0.996264)" xlink:href="#CMMI12-58"/>
       <use transform="translate(72.787654 0)scale(0.996264)" xlink:href="#CMR17-49"/>
       <use transform="translate(118.478131 0)scale(0.996264)" xlink:href="#CMR17-50"/>
      </g>
     </g>
    </g>
    <g id="ytick_8">
     <g id="line2d_14">
      <g>
       <use style="stroke:#000000;stroke-width:0.8;" x="57.6" xlink:href="#m796ce4ccda" y="49.197017"/>
      </g>
     </g>
     <g id="text_14">
      <!-- $\mathdefault{0.14}$ -->
      <g transform="translate(32.888586 52.656266)scale(0.1 -0.1)">
       <use transform="scale(0.996264)" xlink:href="#CMR17-48"/>
       <use transform="translate(45.690477 0)scale(0.996264)" xlink:href="#CMMI12-58"/>
       <use transform="translate(72.787654 0)scale(0.996264)" xlink:href="#CMR17-49"/>
       <use transform="translate(118.478131 0)scale(0.996264)" xlink:href="#CMR17-52"/>
      </g>
     </g>
    </g>
   </g>
   <g id="line2d_15">
    <path clip-path="url(#p92e0147cc9)" d="M 73.832727 120.027272 
L 74.770979 120.121676 
L 74.800198 121.71243 
L 74.858636 144.954509 
L 74.907334 165.545101 
L 74.946292 135.374639 
L 75.076154 116.780176 
L 75.079401 116.801553 
L 75.115113 118.88517 
L 75.296919 142.152336 
L 75.345617 132.726941 
L 75.410548 118.573885 
L 75.485219 119.416677 
L 75.572876 121.366071 
L 75.780655 124.455531 
L 75.929996 126.497134 
L 75.962461 127.023029 
L 76.00142 125.622404 
L 76.212445 112.538759 
L 76.244911 114.851112 
L 76.403991 124.035231 
L 76.429964 123.885655 
L 76.553332 121.153353 
L 76.62151 122.085158 
L 76.624756 122.084344 
L 76.628003 122.176584 
L 76.631249 122.171161 
L 76.70592 122.936378 
L 76.751372 122.569611 
L 76.813056 121.592553 
L 76.865001 122.233148 
L 76.998109 123.552214 
L 77.163683 121.616374 
L 77.166929 121.645175 
L 77.196148 121.053728 
L 77.199395 121.078704 
L 77.2416 120.643009 
L 77.309777 121.072841 
L 77.345489 121.023198 
L 77.397434 121.370524 
L 77.556515 123.172127 
L 77.575994 123.129082 
L 77.731828 122.199587 
L 77.78702 122.440832 
L 77.877923 122.876305 
L 77.9461 122.649638 
L 77.949347 122.657301 
L 77.985059 122.474491 
L 77.988305 122.487357 
L 78.1344 122.024866 
L 78.137647 122.053489 
L 78.225303 121.850749 
L 78.22855 121.891077 
L 78.231796 121.849818 
L 78.306467 122.185393 
L 78.309713 122.166904 
L 78.475287 123.460116 
L 78.488273 123.473379 
L 78.627875 122.842066 
L 78.631121 122.878183 
L 78.699299 122.694999 
L 78.728518 122.754414 
L 78.786956 122.79148 
L 78.842147 122.70281 
L 78.845393 122.745071 
L 78.939543 122.574547 
L 78.94279 122.616993 
L 78.991488 122.555848 
L 79.056419 122.577787 
L 79.19602 122.984051 
L 79.199267 122.958909 
L 79.260951 123.300052 
L 79.264198 123.272576 
L 79.390813 123.575579 
L 79.39406 123.53801 
L 79.481716 123.627046 
L 79.497949 123.587289 
L 79.501196 123.623979 
L 79.588852 123.434424 
L 79.592099 123.463109 
L 79.712221 123.273136 
L 79.74144 123.306446 
L 79.816111 123.244296 
L 79.819357 123.276249 
L 79.874548 123.230009 
L 79.932986 123.25028 
L 80.046615 123.315451 
L 80.049862 123.289449 
L 80.118039 123.56541 
L 80.121286 123.556009 
L 80.293353 124.493587 
L 80.413475 124.296277 
L 80.426461 124.299859 
L 80.566063 124.549881 
L 80.569309 124.528299 
L 80.663459 124.629762 
L 80.666705 124.611389 
L 80.8128 124.904869 
L 80.816047 124.887573 
L 80.910196 124.977571 
L 80.913443 124.958266 
L 81.053044 125.161646 
L 81.056291 125.154321 
L 81.092003 125.345924 
L 81.108236 125.429072 
L 81.312768 126.619807 
L 81.380945 126.610188 
L 81.416657 126.655574 
L 81.419904 126.643905 
L 81.689367 127.720308 
L 81.712093 127.807143 
L 81.903639 128.54191 
L 81.906886 128.538197 
L 81.942598 128.664079 
L 81.945844 128.660855 
L 82.501004 131.971724 
L 82.614633 132.74295 
L 82.903575 134.481511 
L 82.984739 134.873308 
L 83.994415 142.299422 
L 84.163235 143.71002 
L 85.218362 152.826876 
L 85.81248 158.610824 
L 86.302708 163.713386 
L 87.075386 172.734851 
L 88.075322 186.467511 
L 89.029807 201.907824 
L 90.218042 224.361568 
L 91.435497 251.952115 
L 93.156166 295.488 
L 93.22759 294.599205 
L 93.581463 284.886907 
L 96.8832 194.851802 
L 98.272721 164.725211 
L 99.55186 143.061135 
L 100.350511 132.3478 
L 101.577705 119.691785 
L 102.272465 114.239573 
L 103.116567 109.201639 
L 103.915217 105.662477 
L 104.9184 102.886752 
L 105.54823 102.072544 
L 106.064431 101.774358 
L 106.755945 102.061503 
L 106.934505 102.248516 
L 107.648745 103.683529 
L 108.213644 105.370794 
L 108.950609 108.448693 
L 109.674589 112.596767 
L 110.778415 120.320645 
L 112.008855 130.406535 
L 113.352925 143.012469 
L 114.518435 155.254077 
L 116.745565 181.779949 
L 118.618822 204.293124 
L 119.995357 218.069659 
L 121.095936 226.095337 
L 121.729012 229.348201 
L 122.482211 231.90728 
L 123.176972 233.097326 
L 123.839267 233.391648 
L 124.514548 232.968329 
L 125.585908 231.216531 
L 127.22866 226.807703 
L 128.933097 220.368298 
L 129.699281 216.767746 
L 130.695971 211.466882 
L 133.57241 195.166549 
L 134.461964 191.184487 
L 135.166464 188.767585 
L 135.994333 186.813253 
L 136.478068 186.111201 
L 137.159843 185.643776 
L 137.864343 185.701258 
L 138.169519 185.874478 
L 138.549364 186.190083 
L 139.783052 187.873548 
L 143.126993 194.400193 
L 144.396393 196.928173 
L 145.159331 198.545695 
L 146.798836 202.841488 
L 147.646185 205.630072 
L 150.246668 214.807922 
L 151.253097 217.279705 
L 151.986816 218.295347 
L 152.571194 218.566797 
L 153.142586 218.376244 
L 153.824361 217.611004 
L 154.775599 215.806178 
L 155.681385 213.701888 
L 156.622883 211.632095 
L 157.288425 210.479793 
L 158.148759 209.51883 
L 158.629248 209.229875 
L 159.10649 209.079133 
L 160.697297 208.871113 
L 161.151814 208.69795 
L 161.580358 208.426003 
L 162.025135 208.015785 
L 162.96014 206.708573 
L 164.297716 204.012717 
L 165.748922 200.870847 
L 166.774831 199.243237 
L 167.469591 198.680961 
L 168.03449 198.618707 
L 168.596143 198.925861 
L 169.005207 199.370823 
L 169.495436 200.121301 
L 170.592768 202.396775 
L 172.011508 205.521337 
L 172.985472 207.050434 
L 173.719191 207.652172 
L 174.37824 207.767082 
L 174.777565 207.660372 
L 175.699584 207.045667 
L 176.975476 205.968867 
L 177.800099 205.623583 
L 178.413696 205.732842 
L 178.809775 206.000609 
L 179.248058 206.481353 
L 180.043462 207.797198 
L 180.868084 209.558673 
L 182.491357 212.780458 
L 183.156899 213.475197 
L 183.543238 213.622338 
L 184.02048 213.519039 
L 184.374353 213.238095 
L 184.968471 212.394616 
L 185.530124 211.23058 
L 186.812509 207.824482 
L 188.081908 204.748134 
L 188.656547 203.8602 
L 189.205213 203.424796 
L 189.572073 203.371361 
L 190.046068 203.576271 
L 190.620707 204.188736 
L 191.214825 205.13252 
L 193.156259 208.496134 
L 193.682199 209.002955 
L 194.10425 209.183961 
L 194.47111 209.163202 
L 194.977571 208.857092 
L 195.581428 208.098907 
L 196.406051 206.521537 
L 198.691619 201.626761 
L 199.211066 201.027179 
L 199.603898 200.835363 
L 199.99673 200.906768 
L 200.331124 201.187631 
L 200.818106 201.95173 
L 201.496634 203.583358 
L 203.502999 208.639194 
L 205.730129 212.338414 
L 206.012579 212.376726 
L 206.220358 212.174933 
L 206.470342 211.616401 
L 206.820969 210.195407 
L 207.324183 207.006318 
L 208.359831 200.330855 
L 208.635788 199.760566 
L 208.788375 199.807778 
L 208.953949 200.164251 
L 209.223412 201.38966 
L 209.681175 204.716023 
L 210.171404 207.711851 
L 210.327238 207.918575 
L 210.35321 207.900055 
L 210.470086 207.606938 
L 210.655139 206.383166 
L 210.924602 202.866847 
L 211.3499 193.862882 
L 212.197248 175.90431 
L 212.42126 174.638987 
L 212.424506 174.639346 
L 212.486191 174.755749 
L 212.606313 175.629943 
L 212.797859 178.981851 
L 213.070569 188.322259 
L 213.469894 210.935032 
L 214.453597 275.555484 
L 214.528268 274.253623 
L 214.680855 265.205115 
L 215.093167 223.927521 
L 216.041158 129.589978 
L 216.200239 126.477118 
L 216.226211 126.548642 
L 216.313868 127.688267 
L 216.690467 133.158306 
L 216.7067 133.151495 
L 216.804096 132.910394 
L 216.940451 132.620428 
L 216.985903 132.688003 
L 217.083299 133.306933 
L 217.235887 136.014464 
L 217.453405 144.590558 
L 217.75858 166.922754 
L 218.56697 238.275293 
L 218.635148 236.989067 
L 218.765009 227.686643 
L 219.053952 186.577429 
L 219.583139 117.014582 
L 219.797411 112.240988 
L 219.969478 107.577722 
L 220.907729 74.41925 
L 220.946688 74.535127 
L 221.037591 75.789371 
L 221.196672 81.794399 
L 221.440163 101.158285 
L 222.329716 189.090525 
L 222.394647 187.924938 
L 222.514769 179.398208 
L 222.787479 139.500567 
L 223.13486 100.950767 
L 223.375104 95.598215 
L 223.634828 88.019377 
L 224.472436 62.78544 
L 224.63801 60.868726 
L 224.670476 60.973514 
L 224.751639 62.257389 
L 224.894487 68.934558 
L 225.124992 92.378609 
L 225.858711 178.205982 
L 225.891177 177.81363 
L 225.978833 173.061244 
L 226.17038 147.461204 
L 226.618403 90.618842 
L 226.891113 83.055754 
L 227.365108 69.226532 
L 227.907281 56.106006 
L 228.121553 53.5681 
L 228.147526 53.636814 
L 228.222196 54.631546 
L 228.352058 60.041629 
L 228.556591 79.960144 
L 229.231872 168.360196 
L 229.319529 165.404828 
L 229.475363 147.666378 
L 230.062988 73.884715 
L 230.303232 70.47671 
L 230.579188 66.105085 
L 231.16032 56.444573 
L 231.312908 55.878471 
L 231.345373 55.913469 
L 231.426537 56.356731 
L 231.546659 58.510353 
L 231.699247 66.069334 
L 231.900532 89.280138 
L 232.432966 166.459428 
L 232.491404 164.967468 
L 232.621265 152.864108 
L 233.393943 65.880958 
L 233.49134 65.616275 
L 233.540038 65.653371 
L 233.712105 65.772242 
L 233.74457 65.731748 
L 233.890665 65.266701 
L 234.277004 64.085215 
L 234.367907 64.171103 
L 234.488029 64.731973 
L 234.640617 66.684675 
L 234.802944 72.178791 
L 234.981504 87.307922 
L 235.241228 133.008629 
L 235.575622 180.595726 
L 235.582115 180.618738 
L 235.608087 180.277405 
L 235.689251 175.075086 
L 235.89703 143.455245 
L 236.406737 69.966108 
L 236.60153 65.19809 
L 236.621009 65.181266 
L 236.666461 65.3008 
L 236.841775 66.649982 
L 237.309277 71.723468 
L 237.698863 79.393835 
L 237.890409 87.653074 
L 238.081955 107.881512 
L 238.390377 170.597641 
L 238.705292 218.711503 
L 238.708538 218.699544 
L 238.74425 217.662408 
L 238.851386 206.033556 
L 239.805871 74.218506 
L 239.964951 72.662097 
L 239.981184 72.674346 
L 240.065594 72.996668 
L 240.36103 75.369513 
L 240.627247 78.769699 
L 240.789574 84.472016 
L 240.974627 100.772593 
L 241.247337 148.719578 
L 241.740812 250.605851 
L 241.802496 246.876816 
L 241.971316 213.693843 
L 242.513489 111.852097 
L 242.857623 86.065152 
L 243.094621 80.381621 
L 243.143319 80.267459 
L 243.198511 80.418634 
L 243.338112 81.683926 
L 243.571863 86.000098 
L 243.763409 94.094802 
L 243.977681 114.499092 
L 244.269871 167.156039 
L 244.734127 277.680208 
L 244.812044 266.942926 
L 245.604201 114.156023 
L 245.909376 96.822443 
L 246.130141 93.474706 
L 246.162607 93.443572 
L 246.211305 93.560989 
L 246.334673 94.60118 
L 246.519727 98.301287 
L 246.711273 107.288568 
L 246.948271 130.958828 
L 247.272925 189.35956 
L 247.691729 293.816454 
L 247.769647 275.929692 
L 248.331299 156.730415 
L 248.685172 122.508577 
L 248.967622 112.553568 
L 249.071511 111.819037 
L 249.120209 111.970246 
L 249.230592 113.367787 
L 249.428631 119.178225 
L 249.672122 133.621135 
L 249.961065 166.131737 
L 250.357143 239.82206 
L 250.607127 289.52182 
L 250.662319 282.411515 
L 251.402531 160.211905 
L 251.743418 138.399481 
L 251.986909 133.486501 
L 252.022621 133.417837 
L 252.071319 133.578523 
L 252.181702 134.988427 
L 252.366755 140.672204 
L 252.606999 155.907107 
L 252.918668 192.211039 
L 253.483567 283.679299 
L 253.580963 273.637446 
L 254.327668 171.794746 
L 254.655569 155.516733 
L 254.879581 152.441326 
L 254.921786 152.547437 
L 255.019183 153.648507 
L 255.191249 158.625305 
L 255.437987 173.225404 
L 255.769135 208.006264 
L 256.317801 286.086102 
L 256.411951 277.688429 
L 257.194368 183.582111 
L 257.535255 167.90853 
L 257.752774 165.076112 
L 257.75602 165.07634 
L 257.801472 165.216043 
L 257.905361 166.515037 
L 258.083921 172.120007 
L 258.337152 188.213667 
L 258.681286 226.457341 
L 259.122816 286.04837 
L 259.190993 281.424194 
L 260.194176 176.684747 
L 260.476625 169.587378 
L 260.564282 169.161265 
L 260.61298 169.302689 
L 260.71687 170.553659 
L 260.89543 175.948982 
L 261.145414 191.23956 
L 261.483055 227.473309 
L 261.937571 291.480388 
L 262.015488 283.442374 
L 262.745961 192.892483 
L 263.119313 172.260157 
L 263.388777 166.775185 
L 263.434228 166.651103 
L 263.486173 166.820182 
L 263.593309 168.264955 
L 263.775116 174.342811 
L 264.031593 191.630555 
L 264.378973 232.350619 
L 264.778298 290.247139 
L 264.846476 283.749597 
L 265.635386 185.804169 
L 265.992506 168.1529 
L 266.239244 164.17402 
L 266.261969 164.156644 
L 266.300928 164.274493 
L 266.401571 165.46916 
L 266.576884 170.758769 
L 266.830115 186.22753 
L 267.161263 221.989439 
L 267.635258 293.169411 
L 267.719668 282.550233 
L 268.378717 194.998228 
L 268.765056 170.061962 
L 269.060492 162.428118 
L 269.141655 162.044112 
L 269.1936 162.224252 
L 269.303983 163.759034 
L 269.489036 170.071674 
L 269.745513 187.615158 
L 270.089647 228.735991 
L 270.501958 290.251339 
L 270.570135 283.277799 
L 271.339567 184.759227 
L 271.69344 166.362475 
L 271.949917 161.810044 
L 271.982383 161.760259 
L 272.027834 161.906171 
L 272.131724 163.220475 
L 272.310284 168.847868 
L 272.563514 184.873158 
L 272.901155 222.404329 
L 273.365411 292.220783 
L 273.446575 282.607487 
L 274.128349 192.320852 
L 274.511441 168.478658 
L 274.797137 161.533126 
L 274.865315 161.243029 
L 274.920506 161.42997 
L 275.030889 162.982851 
L 275.215942 169.33913 
L 275.472419 186.948422 
L 275.816553 228.084984 
L 276.228864 289.219798 
L 276.297041 283.011378 
L 277.121664 180.810988 
L 277.465798 165.058202 
L 277.696303 161.901924 
L 277.722275 161.926537 
L 277.741754 161.998717 
L 277.839151 163.069794 
L 278.011217 167.999359 
L 278.257955 182.524915 
L 278.582609 216.646923 
L 279.092317 291.611313 
L 279.179974 281.17999 
L 279.858502 192.177317 
L 280.238348 168.89097 
L 280.524044 162.145152 
L 280.588975 161.897917 
L 280.640919 162.075416 
L 280.751302 163.608136 
L 280.936355 169.936346 
L 281.192832 187.499863 
L 281.540212 228.928697 
L 281.949277 289.070526 
L 282.017455 282.987057 
L 282.84857 180.967425 
L 283.189457 165.652756 
L 283.416716 162.626416 
L 283.458921 162.719876 
L 283.553071 163.729196 
L 283.721891 168.451931 
L 283.965382 182.451337 
L 284.28679 215.469888 
L 284.806237 291.744863 
L 284.900387 280.669055 
L 285.569175 193.152015 
L 285.949021 169.62582 
L 286.234717 162.724087 
L 286.306141 162.433599 
L 286.358086 162.617277 
L 286.468468 164.161619 
L 286.653521 170.505859 
L 286.909999 188.081887 
L 287.257379 229.494566 
L 287.666444 289.24672 
L 287.731375 283.261598 
L 288.565737 181.078821 
L 288.906624 165.854679 
L 289.133882 162.850318 
L 289.176087 162.945965 
L 289.270237 163.960241 
L 289.439057 168.698758 
L 289.682548 182.747578 
L 290.007203 216.248577 
L 290.523404 291.908732 
L 290.614307 280.933315 
L 291.283095 193.317072 
L 291.662941 169.694696 
L 291.951884 162.68251 
L 292.020061 162.398705 
L 292.075252 162.589143 
L 292.185635 164.147834 
L 292.370688 170.517155 
L 292.627165 188.12886 
L 292.974545 229.600738 
L 293.380364 289.335544 
L 293.448541 283.163522 
L 294.269917 181.801314 
L 294.614051 165.967462 
L 294.847802 162.72313 
L 294.873775 162.747624 
L 294.893254 162.819875 
L 294.99065 163.893998 
L 295.162717 168.839814 
L 295.409455 183.381554 
L 295.734109 217.428794 
L 296.24057 291.92252 
L 296.328227 281.43866 
L 297.003508 192.933678 
L 297.383354 169.456345 
L 297.66905 162.558036 
L 297.737228 162.270715 
L 297.792419 162.458515 
L 297.902801 164.012566 
L 298.087855 170.375798 
L 298.344332 187.982693 
L 298.691712 229.458649 
L 299.09753 289.317442 
L 299.165708 283.231972 
L 299.993577 181.333316 
L 300.337711 165.736257 
L 300.568215 162.643793 
L 300.61042 162.739668 
L 300.70457 163.75428 
L 300.873391 168.488609 
L 301.116881 182.52064 
L 301.438289 215.60777 
L 301.957737 291.893371 
L 302.051887 280.518985 
L 302.714182 193.540676 
L 303.097274 169.585909 
L 303.386217 162.545027 
L 303.457641 162.253456 
L 303.509585 162.436934 
L 303.619968 163.981915 
L 303.805021 170.328095 
L 304.061498 187.909902 
L 304.408879 229.355533 
L 304.817943 289.293781 
L 304.886121 282.854061 
L 305.697757 182.260574 
L 306.045137 166.020965 
L 306.278889 162.661557 
L 306.298368 162.662099 
L 306.327587 162.749306 
L 306.421737 163.756365 
L 306.590557 168.477671 
L 306.834048 182.493384 
L 307.155456 215.553481 
L 307.674903 291.881672 
L 307.769053 280.598896 
L 308.431348 193.601493 
L 308.814441 169.623718 
L 309.103383 162.570151 
L 309.174807 162.275506 
L 309.226752 162.456658 
L 309.337135 163.996329 
L 309.522188 170.331857 
L 309.778665 187.894228 
L 310.126045 229.311515 
L 310.53511 289.293147 
L 310.603287 282.90663 
L 311.41817 182.07885 
L 311.762304 166.047918 
L 311.996055 162.681763 
L 312.015535 162.681629 
L 312.048 162.783805 
L 312.145396 163.88186 
L 312.317463 168.874447 
L 312.564201 183.490126 
L 312.892102 218.058282 
L 313.39207 291.883268 
L 313.479727 281.666559 
L 314.158255 192.782226 
L 314.5381 169.390797 
L 314.823796 162.555542 
L 314.891974 162.284785 
L 314.943919 162.463798 
L 315.054301 163.999016 
L 315.239354 170.327071 
L 315.495831 187.877129 
L 315.843212 229.275815 
L 316.252276 289.298429 
L 316.320454 282.94848 
L 317.135337 182.102387 
L 317.479471 166.058456 
L 317.713222 162.683942 
L 317.732701 162.683132 
L 317.765167 162.784189 
L 317.862563 163.878933 
L 318.03463 168.865435 
L 318.281367 183.469831 
L 318.609268 218.020575 
L 319.109236 291.885141 
L 319.20014 281.20374 
L 319.872175 193.090018 
L 320.25202 169.528484 
L 320.537716 162.583742 
L 320.60914 162.283385 
L 320.661085 162.460259 
L 320.771468 163.990652 
L 320.956521 170.309997 
L 321.212998 187.847107 
L 321.560378 229.229648 
L 321.969443 289.300971 
L 322.03762 282.993872 
L 322.85575 181.899516 
L 323.199884 165.97714 
L 323.433635 162.677731 
L 323.453114 162.68371 
L 323.479087 162.763404 
L 323.573236 163.759166 
L 323.742057 168.458091 
L 323.985548 182.436348 
L 324.306956 215.444897 
L 324.829649 291.883208 
L 324.920553 280.746374 
L 325.586095 193.402445 
L 325.96594 169.667498 
L 326.254883 162.583657 
L 326.326307 162.280526 
L 326.378252 162.455298 
L 326.488634 163.980956 
L 326.673687 170.291295 
L 326.930164 187.813702 
L 327.277545 229.17781 
L 327.686609 289.300616 
L 327.754787 283.042369 
L 328.572916 181.921261 
L 328.91705 165.984549 
L 329.150801 162.676543 
L 329.170281 162.681731 
L 329.1995 162.775999 
L 329.296896 163.862176 
L 329.468963 168.832674 
L 329.7157 183.412178 
L 330.043601 217.928555 
L 330.546816 291.884927 
L 330.634473 281.310438 
L 331.306508 193.147249 
L 331.686353 169.552132 
L 331.972049 162.585939 
L 332.043473 162.279769 
L 332.095418 162.452274 
L 332.202554 163.905235 
L 332.384361 169.968806 
L 332.637591 186.914961 
L 332.978479 226.779796 
L 333.403776 289.299724 
L 333.4752 282.628551 
L 334.277097 182.842794 
L 334.624477 166.260259 
L 334.864721 162.680768 
L 334.884201 162.677551 
L 334.916666 162.774524 
L 335.014063 163.856551 
L 335.186129 168.819215 
L 335.432867 183.38577 
L 335.760768 217.883672 
L 336.263983 291.886702 
L 336.351639 281.363944 
L 337.023674 193.177562 
L 337.40352 169.566207 
L 337.692463 162.562313 
L 337.76064 162.280521 
L 337.812585 162.450768 
L 337.919721 163.898863 
L 338.101527 169.953521 
L 338.354758 186.885608 
L 338.695645 226.731641 
L 339.120943 289.299075 
L 339.192367 282.67721 
L 339.99751 182.640157 
L 340.34489 166.18031 
L 340.581888 162.681776 
L 340.601367 162.677759 
L 340.633833 162.773374 
L 340.731229 163.851181 
L 340.903296 168.805957 
L 341.150033 183.3599 
L 341.474688 217.414716 
L 341.981149 291.888292 
L 342.068806 281.416741 
L 342.744087 192.923629 
L 343.123933 169.451804 
L 343.409629 162.565356 
L 343.477807 162.280816 
L 343.532998 162.470713 
L 343.64338 164.028591 
L 343.828433 170.397952 
L 344.084911 188.01472 
L 344.432291 229.50245 
L 344.838109 289.298085 
L 344.906287 283.186754 
L 345.734156 181.333223 
L 346.078289 165.755725 
L 346.308794 162.674185 
L 346.350999 162.771757 
L 346.445149 163.790044 
L 346.613969 168.531824 
L 346.85746 182.579404 
L 347.178868 215.686385 
L 347.698316 291.889089 
L 347.789219 280.960741 
L 348.458007 193.236949 
L 348.837853 169.59304 
L 349.126796 162.567986 
L 349.194973 162.280647 
L 349.250164 162.4682 
L 349.360547 164.021201 
L 349.5456 170.381663 
L 349.802077 187.984123 
L 350.149457 229.453001 
L 350.555276 289.296557 
L 350.623453 283.234408 
L 351.451322 181.355771 
L 351.795456 165.764357 
L 352.025961 162.674152 
L 352.068166 162.769989 
L 352.162316 163.784251 
L 352.331136 168.518335 
L 352.574627 182.553396 
L 352.896035 215.642721 
L 353.415482 291.889214 
L 353.509632 280.503746 
L 354.171927 193.55226 
L 354.55502 169.606407 
L 354.843962 162.570779 
L 354.915386 162.280973 
L 354.967331 162.465826 
L 355.077713 164.013896 
L 355.262767 170.365368 
L 355.519244 187.95352 
L 355.866624 229.403568 
L 356.275689 289.295639 
L 356.34062 283.282109 
L 357.171735 181.161634 
L 357.515869 165.689446 
L 357.743127 162.674238 
L 357.785332 162.768333 
L 357.879482 163.778549 
L 358.048303 168.504913 
L 358.291793 182.527476 
L 358.613201 215.599148 
L 359.132649 291.888719 
L 359.226799 280.55701 
L 359.889094 193.582176 
L 360.272186 169.619823 
L 360.561129 162.573622 
L 360.632553 162.280894 
L 360.684497 162.463539 
L 360.79488 164.006704 
L 360.979933 170.349186 
L 361.23641 187.922963 
L 361.583791 229.35418 
L 361.992855 289.297385 
L 362.061033 282.870361 
L 362.872669 182.283951 
L 363.220049 166.039977 
L 363.453801 162.679296 
L 363.47328 162.679717 
L 363.505745 162.782857 
L 363.603142 163.884088 
L 363.775209 168.883004 
L 364.021946 183.508237 
L 364.349847 218.088435 
L 364.849815 291.887585 
L 364.937472 281.628444 
L 365.616 192.758646 
L 365.995846 169.377596 
L 366.281542 162.549712 
L 366.349719 162.280805 
L 366.401664 162.461238 
L 366.512047 163.999504 
L 366.6971 170.333031 
L 366.953577 187.892464 
L 367.300957 229.30481 
L 367.710022 289.29871 
L 367.778199 282.918539 
L 368.593082 182.084181 
L 368.937216 166.04913 
L 369.170967 162.679701 
L 369.190447 162.679328 
L 369.222912 162.781124 
L 369.320308 163.878168 
L 369.492375 168.869188 
L 369.739113 183.481662 
L 370.067014 218.043956 
L 370.566982 291.885843 
L 370.654639 281.681346 
L 371.333167 192.788068 
L 371.713012 169.390824 
L 371.998708 162.552456 
L 372.066886 162.280748 
L 372.118831 162.458967 
L 372.229213 163.992323 
L 372.414266 170.316883 
L 372.670743 187.861989 
L 373.018124 229.255479 
L 373.427188 289.299608 
L 373.495366 282.966654 
L 374.310249 182.107374 
L 374.654383 166.058292 
L 374.888134 162.680113 
L 374.907613 162.678948 
L 374.940079 162.779399 
L 375.037475 163.872255 
L 375.209542 168.855381 
L 375.456279 183.455105 
L 375.78418 217.999494 
L 376.284148 291.883477 
L 376.375052 281.226185 
L 377.047087 193.100772 
L 377.426932 169.531563 
L 377.712628 162.582211 
L 377.784052 162.280696 
L 377.835997 162.456705 
L 377.94638 163.985158 
L 378.131433 170.300749 
L 378.38791 187.831515 
L 378.73529 229.206153 
L 379.144355 289.300061 
L 379.212532 283.014701 
L 380.030662 181.908656 
L 380.374796 165.979987 
L 380.608547 162.67704 
L 380.628026 162.682695 
L 380.657245 162.777678 
L 380.754641 163.866348 
L 380.926708 168.841579 
L 381.173446 183.428552 
L 381.501347 217.955038 
L 382.004561 291.883424 
L 382.092218 281.279224 
L 382.764253 193.130388 
L 383.144099 169.544919 
L 383.429795 162.585092 
L 383.501219 162.28065 
L 383.553164 162.454448 
L 383.6603 163.910167 
L 383.842106 169.978836 
L 384.095337 186.933341 
L 384.436224 226.809268 
L 384.861521 289.300077 
L 384.932945 282.599712 
L 385.734842 182.829053 
L 386.082223 166.255144 
L 386.322467 162.680967 
L 386.341946 162.678216 
L 386.374412 162.775977 
L 386.471808 163.860461 
L 386.643875 168.827798 
L 386.890612 183.402022 
L 387.218513 217.910601 
L 387.721728 291.885806 
L 387.809385 281.332247 
L 388.48142 193.160023 
L 388.861265 169.558291 
L 389.150208 162.560725 
L 389.218385 162.280626 
L 389.27033 162.452213 
L 389.377466 163.903177 
L 389.559273 169.963072 
L 389.812503 186.903484 
L 390.153391 226.760694 
L 390.578688 289.299658 
L 390.650112 282.648255 
L 391.452009 182.852765 
L 391.799389 166.264571 
L 392.039633 162.681418 
L 392.059113 162.677874 
L 392.091578 162.774292 
L 392.188975 163.85459 
L 392.361041 168.814036 
L 392.607779 183.375513 
L 392.93568 217.866183 
L 393.438895 291.887564 
L 393.526551 281.385251 
L 394.201833 192.905936 
L 394.581679 169.443809 
L 394.867375 162.563511 
L 394.935552 162.280617 
L 394.987497 162.449993 
L 395.094633 163.896204 
L 395.276439 169.947325 
L 395.52967 186.873645 
L 395.870557 226.712136 
L 396.295855 289.298801 
L 396.367279 282.696735 
L 397.172422 182.64958 
L 397.519802 166.183972 
L 397.7568 162.681882 
L 397.776279 162.677545 
L 397.808745 162.772619 
L 397.906141 163.848733 
L 398.078208 168.800287 
L 398.324945 183.349021 
L 398.487273 198.223009 
L 398.487273 198.223009 
" style="fill:none;stroke:#1f77b4;stroke-linecap:square;stroke-width:1.5;"/>
   </g>
   <g id="patch_3">
    <path d="M 57.6 307.584 
L 57.6 41.472 
" style="fill:none;stroke:#000000;stroke-linecap:square;stroke-linejoin:miter;stroke-width:0.8;"/>
   </g>
   <g id="patch_4">
    <path d="M 414.72 307.584 
L 414.72 41.472 
" style="fill:none;stroke:#000000;stroke-linecap:square;stroke-linejoin:miter;stroke-width:0.8;"/>
   </g>
   <g id="patch_5">
    <path d="M 57.6 307.584 
L 414.72 307.584 
" style="fill:none;stroke:#000000;stroke-linecap:square;stroke-linejoin:miter;stroke-width:0.8;"/>
   </g>
   <g id="patch_6">
    <path d="M 57.6 41.472 
L 414.72 41.472 
" style="fill:none;stroke:#000000;stroke-linecap:square;stroke-linejoin:miter;stroke-width:0.8;"/>
   </g>
  </g>
 </g>
 <defs>
  <clipPath id="p92e0147cc9">
   <rect height="266.112" width="357.12" x="57.6" y="41.472"/>
  </clipPath>
 </defs>
</svg>
