<?xml version="1.0" encoding="utf-8" standalone="no"?>
<!DOCTYPE svg PUBLIC "-//W3C//DTD SVG 1.1//EN"
  "http://www.w3.org/Graphics/SVG/1.1/DTD/svg11.dtd">
<!-- Created with matplotlib (https://matplotlib.org/) -->
<svg height="345.6pt" version="1.1" viewBox="0 0 460.8 345.6" width="460.8pt" xmlns="http://www.w3.org/2000/svg" xmlns:xlink="http://www.w3.org/1999/xlink">
 <metadata>
  <rdf:RDF xmlns:cc="http://creativecommons.org/ns#" xmlns:dc="http://purl.org/dc/elements/1.1/" xmlns:rdf="http://www.w3.org/1999/02/22-rdf-syntax-ns#">
   <cc:Work>
    <dc:type rdf:resource="http://purl.org/dc/dcmitype/StillImage"/>
    <dc:date>2020-07-23T21:21:18.966224</dc:date>
    <dc:format>image/svg+xml</dc:format>
    <dc:creator>
     <cc:Agent>
      <dc:title>Matplotlib v3.3.0, https://matplotlib.org/</dc:title>
     </cc:Agent>
    </dc:creator>
   </cc:Work>
  </rdf:RDF>
 </metadata>
 <defs>
  <style type="text/css">*{stroke-linecap:butt;stroke-linejoin:round;}</style>
 </defs>
 <g id="figure_1">
  <g id="patch_1">
   <path d="M 0 345.6 
L 460.8 345.6 
L 460.8 0 
L 0 0 
z
" style="fill:#ffffff;"/>
  </g>
  <g id="axes_1">
   <g id="patch_2">
    <path d="M 57.6 307.584 
L 414.72 307.584 
L 414.72 41.472 
L 57.6 41.472 
z
" style="fill:#ffffff;"/>
   </g>
   <g id="matplotlib.axis_1">
    <g id="xtick_1">
     <g id="line2d_1">
      <defs>
       <path d="M 0 0 
L 0 3.5 
" id="m7f557e8654" style="stroke:#000000;stroke-width:0.8;"/>
      </defs>
      <g>
       <use style="stroke:#000000;stroke-width:0.8;" x="73.832727" xlink:href="#m7f557e8654" y="307.584"/>
      </g>
     </g>
     <g id="text_1">
      <!-- $\mathdefault{0}$ -->
      <g transform="translate(71.34206 321.502498)scale(0.1 -0.1)">
       <defs>
        <path d="M 42 31.640625 
C 42 37.75 41.90625 48.125 37.703125 56.109375 
C 34 63.109375 28.09375 65.59375 22.90625 65.59375 
C 18.09375 65.59375 12 63.40625 8.203125 56.203125 
C 4.203125 48.71875 3.796875 39.4375 3.796875 31.640625 
C 3.796875 25.953125 3.90625 17.28125 7 9.671875 
C 11.296875 -0.609375 19 -2 22.90625 -2 
C 27.5 -2 34.5 -0.109375 38.59375 9.375 
C 41.59375 16.28125 42 24.359375 42 31.640625 
z
M 22.90625 -0.40625 
C 16.5 -0.40625 12.703125 5.078125 11.296875 12.6875 
C 10.203125 18.5625 10.203125 27.15625 10.203125 32.75 
C 10.203125 40.4375 10.203125 46.828125 11.5 52.921875 
C 13.40625 61.390625 19 64 22.90625 64 
C 27 64 32.296875 61.296875 34.203125 53.125 
C 35.5 47.4375 35.59375 40.734375 35.59375 32.75 
C 35.59375 26.25 35.59375 18.265625 34.40625 12.375 
C 32.296875 1.484375 26.40625 -0.40625 22.90625 -0.40625 
z
" id="CMR17-48"/>
       </defs>
       <use transform="scale(0.996264)" xlink:href="#CMR17-48"/>
      </g>
     </g>
    </g>
    <g id="xtick_2">
     <g id="line2d_2">
      <g>
       <use style="stroke:#000000;stroke-width:0.8;" x="138.763636" xlink:href="#m7f557e8654" y="307.584"/>
      </g>
     </g>
     <g id="text_2">
      <!-- $\mathdefault{20000}$ -->
      <g transform="translate(126.310298 321.502498)scale(0.1 -0.1)">
       <defs>
        <path d="M 41.703125 15.453125 
L 39.90625 15.453125 
C 38.90625 8.375 38.09375 7.171875 37.703125 6.5625 
C 37.203125 5.765625 30 5.765625 28.59375 5.765625 
L 9.40625 5.765625 
C 13 9.671875 20 16.75 28.5 24.953125 
C 34.59375 30.734375 41.703125 37.53125 41.703125 47.421875 
C 41.703125 59.21875 32.296875 66 21.796875 66 
C 10.796875 66 4.09375 56.3125 4.09375 47.34375 
C 4.09375 43.4375 7 42.9375 8.203125 42.9375 
C 9.203125 42.9375 12.203125 43.546875 12.203125 47.03125 
C 12.203125 50.109375 9.59375 51 8.203125 51 
C 7.59375 51 7 50.90625 6.59375 50.703125 
C 8.5 59.21875 14.296875 63.40625 20.40625 63.40625 
C 29.09375 63.40625 34.796875 56.515625 34.796875 47.421875 
C 34.796875 38.734375 29.703125 31.25 24 24.75 
L 4.09375 2.28125 
L 4.09375 0 
L 39.296875 0 
z
" id="CMR17-50"/>
       </defs>
       <use transform="scale(0.996264)" xlink:href="#CMR17-50"/>
       <use transform="translate(45.690477 0)scale(0.996264)" xlink:href="#CMR17-48"/>
       <use transform="translate(91.380954 0)scale(0.996264)" xlink:href="#CMR17-48"/>
       <use transform="translate(137.071431 0)scale(0.996264)" xlink:href="#CMR17-48"/>
       <use transform="translate(182.761908 0)scale(0.996264)" xlink:href="#CMR17-48"/>
      </g>
     </g>
    </g>
    <g id="xtick_3">
     <g id="line2d_3">
      <g>
       <use style="stroke:#000000;stroke-width:0.8;" x="203.694545" xlink:href="#m7f557e8654" y="307.584"/>
      </g>
     </g>
     <g id="text_3">
      <!-- $\mathdefault{40000}$ -->
      <g transform="translate(191.241207 321.502498)scale(0.1 -0.1)">
       <defs>
        <path d="M 33.59375 64.40625 
C 33.59375 66.5 33.5 66.5 31.703125 66.5 
L 2 19.59375 
L 2 17 
L 27.796875 17 
L 27.796875 7.140625 
C 27.796875 3.5 27.59375 2.5 20.59375 2.5 
L 18.703125 2.5 
L 18.703125 0 
C 21.90625 0 27.296875 0 30.703125 0 
C 34.09375 0 39.5 0 42.703125 0 
L 42.703125 2.5 
L 40.796875 2.5 
C 33.796875 2.5 33.59375 3.5 33.59375 7.140625 
L 33.59375 17 
L 43.796875 17 
L 43.796875 19.59375 
L 33.59375 19.59375 
z
M 28.09375 57.859375 
L 28.09375 19.59375 
L 4 19.59375 
z
" id="CMR17-52"/>
       </defs>
       <use transform="scale(0.996264)" xlink:href="#CMR17-52"/>
       <use transform="translate(45.690477 0)scale(0.996264)" xlink:href="#CMR17-48"/>
       <use transform="translate(91.380954 0)scale(0.996264)" xlink:href="#CMR17-48"/>
       <use transform="translate(137.071431 0)scale(0.996264)" xlink:href="#CMR17-48"/>
       <use transform="translate(182.761908 0)scale(0.996264)" xlink:href="#CMR17-48"/>
      </g>
     </g>
    </g>
    <g id="xtick_4">
     <g id="line2d_4">
      <g>
       <use style="stroke:#000000;stroke-width:0.8;" x="268.625455" xlink:href="#m7f557e8654" y="307.584"/>
      </g>
     </g>
     <g id="text_4">
      <!-- $\mathdefault{60000}$ -->
      <g transform="translate(256.172116 321.502498)scale(0.1 -0.1)">
       <defs>
        <path d="M 10.59375 34 
C 10.59375 57.65625 21.796875 63 28.296875 63 
C 30.40625 63 35.5 62.640625 37.5 59 
C 35.90625 59 32.90625 59 32.90625 55.515625 
C 32.90625 52.828125 35.09375 51.921875 36.5 51.921875 
C 37.40625 51.921875 40.09375 52.3125 40.09375 55.625 
C 40.09375 61.78125 35.09375 65.296875 28.203125 65.296875 
C 16.296875 65.296875 3.796875 52.96875 3.796875 31 
C 3.796875 3.953125 15.09375 -2 23.09375 -2 
C 32.796875 -2 42 6.671875 42 20.046875 
C 42 32.515625 33.90625 41.59375 23.703125 41.59375 
C 17.59375 41.59375 13.09375 37.609375 10.59375 30.625 
z
M 23.09375 0.390625 
C 10.796875 0.390625 10.796875 18.75 10.796875 22.4375 
C 10.796875 29.625 14.203125 40 23.5 40 
C 25.203125 40 30.09375 40 33.40625 33.125 
C 35.203125 29.21875 35.203125 25.140625 35.203125 20.140625 
C 35.203125 14.75 35.203125 10.78125 33.09375 6.78125 
C 30.90625 2.671875 27.703125 0.390625 23.09375 0.390625 
z
" id="CMR17-54"/>
       </defs>
       <use transform="scale(0.996264)" xlink:href="#CMR17-54"/>
       <use transform="translate(45.690477 0)scale(0.996264)" xlink:href="#CMR17-48"/>
       <use transform="translate(91.380954 0)scale(0.996264)" xlink:href="#CMR17-48"/>
       <use transform="translate(137.071431 0)scale(0.996264)" xlink:href="#CMR17-48"/>
       <use transform="translate(182.761908 0)scale(0.996264)" xlink:href="#CMR17-48"/>
      </g>
     </g>
    </g>
    <g id="xtick_5">
     <g id="line2d_5">
      <g>
       <use style="stroke:#000000;stroke-width:0.8;" x="333.556364" xlink:href="#m7f557e8654" y="307.584"/>
      </g>
     </g>
     <g id="text_5">
      <!-- $\mathdefault{80000}$ -->
      <g transform="translate(321.103026 321.502498)scale(0.1 -0.1)">
       <defs>
        <path d="M 27.203125 35.375 
C 33.5 38.546875 39.90625 43.328125 39.90625 50.984375 
C 39.90625 60.015625 31.09375 65.296875 23 65.296875 
C 13.90625 65.296875 5.90625 58.734375 5.90625 49.6875 
C 5.90625 47.203125 6.5 42.921875 10.40625 39.140625 
C 11.40625 38.15625 15.59375 35.171875 18.296875 33.28125 
C 13.796875 30.984375 3.296875 25.53125 3.296875 14.59375 
C 3.296875 4.359375 13.09375 -2 22.796875 -2 
C 33.5 -2 42.5 5.65625 42.5 15.78125 
C 42.5 24.84375 36.40625 29.015625 32.40625 31.703125 
z
M 14.09375 44.09375 
C 13.296875 44.59375 9.296875 47.671875 9.296875 52.359375 
C 9.296875 58.421875 15.59375 63 22.796875 63 
C 30.703125 63 36.5 57.4375 36.5 50.96875 
C 36.5 41.703125 26.09375 36.421875 25.59375 36.421875 
C 25.5 36.421875 25.40625 36.421875 24.59375 37.03125 
z
M 32.5 23.734375 
C 34 22.640625 38.796875 19.375 38.796875 13.296875 
C 38.796875 5.953125 31.40625 0.390625 23 0.390625 
C 13.90625 0.390625 7 6.84375 7 14.6875 
C 7 22.546875 13.09375 29.09375 20 32.1875 
z
" id="CMR17-56"/>
       </defs>
       <use transform="scale(0.996264)" xlink:href="#CMR17-56"/>
       <use transform="translate(45.690477 0)scale(0.996264)" xlink:href="#CMR17-48"/>
       <use transform="translate(91.380954 0)scale(0.996264)" xlink:href="#CMR17-48"/>
       <use transform="translate(137.071431 0)scale(0.996264)" xlink:href="#CMR17-48"/>
       <use transform="translate(182.761908 0)scale(0.996264)" xlink:href="#CMR17-48"/>
      </g>
     </g>
    </g>
    <g id="xtick_6">
     <g id="line2d_6">
      <g>
       <use style="stroke:#000000;stroke-width:0.8;" x="398.487273" xlink:href="#m7f557e8654" y="307.584"/>
      </g>
     </g>
     <g id="text_6">
      <!-- $\mathdefault{100000}$ -->
      <g transform="translate(383.543267 321.502498)scale(0.1 -0.1)">
       <defs>
        <path d="M 26.59375 63.40625 
C 26.59375 65.5 26.5 65.5 25.09375 65.5 
C 21.203125 61.1875 15.296875 59.796875 9.703125 59.796875 
C 9.40625 59.796875 8.90625 59.796875 8.796875 59.5 
C 8.703125 59.296875 8.703125 59.09375 8.703125 57 
C 11.796875 57 17 57.59375 21 59.984375 
L 21 7.203125 
C 21 3.6875 20.796875 2.5 12.203125 2.5 
L 9.203125 2.5 
L 9.203125 0 
C 14 0 19 0 23.796875 0 
C 28.59375 0 33.59375 0 38.40625 0 
L 38.40625 2.5 
L 35.40625 2.5 
C 26.796875 2.5 26.59375 3.59375 26.59375 7.15625 
z
" id="CMR17-49"/>
       </defs>
       <use transform="scale(0.996264)" xlink:href="#CMR17-49"/>
       <use transform="translate(45.690477 0)scale(0.996264)" xlink:href="#CMR17-48"/>
       <use transform="translate(91.380954 0)scale(0.996264)" xlink:href="#CMR17-48"/>
       <use transform="translate(137.071431 0)scale(0.996264)" xlink:href="#CMR17-48"/>
       <use transform="translate(182.761908 0)scale(0.996264)" xlink:href="#CMR17-48"/>
       <use transform="translate(228.452386 0)scale(0.996264)" xlink:href="#CMR17-48"/>
      </g>
     </g>
    </g>
   </g>
   <g id="matplotlib.axis_2">
    <g id="ytick_1">
     <g id="line2d_7">
      <defs>
       <path d="M 0 0 
L -3.5 0 
" id="mb03500c131" style="stroke:#000000;stroke-width:0.8;"/>
      </defs>
      <g>
       <use style="stroke:#000000;stroke-width:0.8;" x="57.6" xlink:href="#mb03500c131" y="296.654592"/>
      </g>
     </g>
     <g id="text_7">
      <!-- $\mathdefault{0.00}$ -->
      <g transform="translate(32.888586 300.113841)scale(0.1 -0.1)">
       <defs>
        <path d="M 18.40625 4.796875 
C 18.40625 7.6875 16 9.671875 13.59375 9.671875 
C 10.703125 9.671875 8.703125 7.28125 8.703125 4.890625 
C 8.703125 2 11.09375 0 13.5 0 
C 16.40625 0 18.40625 2.390625 18.40625 4.796875 
z
" id="CMMI12-58"/>
       </defs>
       <use transform="scale(0.996264)" xlink:href="#CMR17-48"/>
       <use transform="translate(45.690477 0)scale(0.996264)" xlink:href="#CMMI12-58"/>
       <use transform="translate(72.787654 0)scale(0.996264)" xlink:href="#CMR17-48"/>
       <use transform="translate(118.478131 0)scale(0.996264)" xlink:href="#CMR17-48"/>
      </g>
     </g>
    </g>
    <g id="ytick_2">
     <g id="line2d_8">
      <g>
       <use style="stroke:#000000;stroke-width:0.8;" x="57.6" xlink:href="#mb03500c131" y="256.368538"/>
      </g>
     </g>
     <g id="text_8">
      <!-- $\mathdefault{0.02}$ -->
      <g transform="translate(32.888586 259.827787)scale(0.1 -0.1)">
       <use transform="scale(0.996264)" xlink:href="#CMR17-48"/>
       <use transform="translate(45.690477 0)scale(0.996264)" xlink:href="#CMMI12-58"/>
       <use transform="translate(72.787654 0)scale(0.996264)" xlink:href="#CMR17-48"/>
       <use transform="translate(118.478131 0)scale(0.996264)" xlink:href="#CMR17-50"/>
      </g>
     </g>
    </g>
    <g id="ytick_3">
     <g id="line2d_9">
      <g>
       <use style="stroke:#000000;stroke-width:0.8;" x="57.6" xlink:href="#mb03500c131" y="216.082484"/>
      </g>
     </g>
     <g id="text_9">
      <!-- $\mathdefault{0.04}$ -->
      <g transform="translate(32.888586 219.541733)scale(0.1 -0.1)">
       <use transform="scale(0.996264)" xlink:href="#CMR17-48"/>
       <use transform="translate(45.690477 0)scale(0.996264)" xlink:href="#CMMI12-58"/>
       <use transform="translate(72.787654 0)scale(0.996264)" xlink:href="#CMR17-48"/>
       <use transform="translate(118.478131 0)scale(0.996264)" xlink:href="#CMR17-52"/>
      </g>
     </g>
    </g>
    <g id="ytick_4">
     <g id="line2d_10">
      <g>
       <use style="stroke:#000000;stroke-width:0.8;" x="57.6" xlink:href="#mb03500c131" y="175.796429"/>
      </g>
     </g>
     <g id="text_10">
      <!-- $\mathdefault{0.06}$ -->
      <g transform="translate(32.888586 179.255679)scale(0.1 -0.1)">
       <use transform="scale(0.996264)" xlink:href="#CMR17-48"/>
       <use transform="translate(45.690477 0)scale(0.996264)" xlink:href="#CMMI12-58"/>
       <use transform="translate(72.787654 0)scale(0.996264)" xlink:href="#CMR17-48"/>
       <use transform="translate(118.478131 0)scale(0.996264)" xlink:href="#CMR17-54"/>
      </g>
     </g>
    </g>
    <g id="ytick_5">
     <g id="line2d_11">
      <g>
       <use style="stroke:#000000;stroke-width:0.8;" x="57.6" xlink:href="#mb03500c131" y="135.510375"/>
      </g>
     </g>
     <g id="text_11">
      <!-- $\mathdefault{0.08}$ -->
      <g transform="translate(32.888586 138.969624)scale(0.1 -0.1)">
       <use transform="scale(0.996264)" xlink:href="#CMR17-48"/>
       <use transform="translate(45.690477 0)scale(0.996264)" xlink:href="#CMMI12-58"/>
       <use transform="translate(72.787654 0)scale(0.996264)" xlink:href="#CMR17-48"/>
       <use transform="translate(118.478131 0)scale(0.996264)" xlink:href="#CMR17-56"/>
      </g>
     </g>
    </g>
    <g id="ytick_6">
     <g id="line2d_12">
      <g>
       <use style="stroke:#000000;stroke-width:0.8;" x="57.6" xlink:href="#mb03500c131" y="95.224321"/>
      </g>
     </g>
     <g id="text_12">
      <!-- $\mathdefault{0.10}$ -->
      <g transform="translate(32.888586 98.68357)scale(0.1 -0.1)">
       <use transform="scale(0.996264)" xlink:href="#CMR17-48"/>
       <use transform="translate(45.690477 0)scale(0.996264)" xlink:href="#CMMI12-58"/>
       <use transform="translate(72.787654 0)scale(0.996264)" xlink:href="#CMR17-49"/>
       <use transform="translate(118.478131 0)scale(0.996264)" xlink:href="#CMR17-48"/>
      </g>
     </g>
    </g>
    <g id="ytick_7">
     <g id="line2d_13">
      <g>
       <use style="stroke:#000000;stroke-width:0.8;" x="57.6" xlink:href="#mb03500c131" y="54.938267"/>
      </g>
     </g>
     <g id="text_13">
      <!-- $\mathdefault{0.12}$ -->
      <g transform="translate(32.888586 58.397516)scale(0.1 -0.1)">
       <use transform="scale(0.996264)" xlink:href="#CMR17-48"/>
       <use transform="translate(45.690477 0)scale(0.996264)" xlink:href="#CMMI12-58"/>
       <use transform="translate(72.787654 0)scale(0.996264)" xlink:href="#CMR17-49"/>
       <use transform="translate(118.478131 0)scale(0.996264)" xlink:href="#CMR17-50"/>
      </g>
     </g>
    </g>
   </g>
   <g id="line2d_14">
    <path clip-path="url(#pafc310a951)" d="M 73.832727 95.224321 
L 74.7515 95.311814 
L 74.783965 96.754251 
L 74.842403 115.808508 
L 74.904087 139.497619 
L 74.949539 116.101961 
L 75.079401 92.293985 
L 75.095633 92.733714 
L 75.163811 102.838814 
L 75.28718 119.105684 
L 75.329385 114.333199 
L 75.44626 94.100677 
L 75.514438 94.823846 
L 75.955968 103.032878 
L 75.994927 101.994537 
L 76.218938 88.97217 
L 76.257897 90.992437 
L 76.416977 99.77848 
L 76.420224 99.527525 
L 76.423471 99.77892 
L 76.511127 98.10272 
L 76.514374 98.231101 
L 76.563072 97.364298 
L 76.628003 97.931918 
L 76.702673 98.600053 
L 76.748125 98.349591 
L 76.813056 97.833486 
L 76.861754 98.293069 
L 76.865001 98.280927 
L 76.881233 98.59442 
L 76.88448 98.576898 
L 77.004602 99.6661 
L 77.020835 99.535171 
L 77.024081 99.628076 
L 77.098752 98.749501 
L 77.101999 98.803733 
L 77.254586 96.587457 
L 77.267572 96.577061 
L 77.387695 97.26143 
L 77.390941 97.229108 
L 77.426653 97.847245 
L 77.4299 97.83561 
L 77.563008 99.286696 
L 77.575994 99.268263 
L 77.735075 98.440464 
L 77.900649 98.971897 
L 77.913635 98.963148 
L 78.205824 98.133505 
L 78.283741 98.397037 
L 78.488273 99.859719 
L 78.50126 99.866662 
L 78.634368 99.454072 
L 78.637615 99.486277 
L 78.705792 99.365539 
L 78.735011 99.408508 
L 78.767476 99.414425 
L 78.84864 99.344962 
L 78.851887 99.38397 
L 78.913571 99.31316 
L 78.955776 99.362178 
L 78.959023 99.323237 
L 79.053172 99.463015 
L 79.056419 99.428107 
L 79.2155 100.112014 
L 79.218746 100.094525 
L 79.267444 100.440034 
L 79.270691 100.421153 
L 79.403799 100.903087 
L 79.407046 100.870494 
L 79.527168 100.978136 
L 79.530415 100.944087 
L 79.631057 100.995436 
L 79.634304 100.962898 
L 79.754426 101.095903 
L 79.757673 101.067644 
L 79.845329 101.2211 
L 79.848576 101.19563 
L 79.994671 101.589952 
L 79.997917 101.572256 
L 80.053108 101.845151 
L 80.056355 101.834644 
L 80.299846 103.769303 
L 80.303092 103.758122 
L 80.351791 103.956376 
L 80.355037 103.940536 
L 80.533597 104.691149 
L 80.536844 104.686132 
L 80.559569 104.841159 
L 80.562816 104.836926 
L 80.786828 106.324521 
L 80.80306 106.415068 
L 81.066031 108.462091 
L 81.147194 109.485812 
L 81.397178 112.267796 
L 81.465356 112.881935 
L 81.962077 118.76803 
L 82.101679 120.737516 
L 82.488017 126.419247 
L 82.770467 130.641756 
L 83.890525 148.855817 
L 84.280111 155.964089 
L 85.146938 172.314352 
L 88.448675 248.035798 
L 90.451793 295.488 
L 90.484259 295.244753 
L 90.724503 290.363017 
L 92.139997 261.374642 
L 93.208111 243.774496 
L 94.308689 230.206791 
L 95.009943 223.972065 
L 95.626787 220.003307 
L 96.078057 218.098866 
L 96.724119 216.37328 
L 97.013062 216.110067 
L 97.40914 216.071362 
L 97.850671 216.394012 
L 98.805155 218.622713 
L 100.298566 224.80718 
L 101.905606 232.665192 
L 103.655494 240.418169 
L 104.632704 243.849097 
L 106.853341 249.137739 
L 107.466938 250.197712 
L 107.931194 250.864075 
L 108.655174 251.885241 
L 109.444084 252.891541 
L 110.103133 253.673813 
L 110.63232 254.300022 
L 111.148521 254.859167 
L 111.664721 255.402319 
L 112.219881 255.917632 
L 112.706863 256.320143 
L 113.281501 256.708202 
L 114.852829 257.211543 
L 116.820236 256.678031 
L 121.368646 253.388115 
L 123.900951 252.308266 
L 126.667008 251.837454 
L 133.724998 251.564211 
L 141.61735 252.234397 
L 149.581126 252.287706 
L 156.804689 252.20062 
L 165.683991 252.182169 
L 215.550929 252.195207 
L 240.318825 252.063085 
L 241.513553 252.147108 
L 242.464791 252.127447 
L 243.539398 251.821429 
L 244.159488 251.781356 
L 244.652963 251.979441 
L 245.334737 252.536934 
L 245.961321 252.945412 
L 246.308701 252.920462 
L 246.639849 252.655746 
L 247.068393 251.987483 
L 248.136506 250.2093 
L 248.405969 250.173184 
L 248.652707 250.384371 
L 248.974115 250.999786 
L 249.626671 252.886511 
L 250.035735 253.692149 
L 250.240268 253.72659 
L 250.418828 253.487322 
L 250.665565 252.71332 
L 251.035671 250.694551 
L 252.094045 244.517636 
L 252.295331 244.343446 
L 252.428439 244.534803 
L 252.626479 245.306281 
L 252.912175 247.459588 
L 253.337472 252.630551 
L 254.136122 262.385858 
L 254.259491 262.657775 
L 254.298449 262.617332 
L 254.405585 262.172085 
L 254.590639 260.237718 
L 254.895814 254.268513 
L 256.220404 225.175016 
L 256.376239 224.709077 
L 256.405457 224.733069 
L 256.502854 225.072273 
L 256.674921 226.649815 
L 256.941137 231.483626 
L 257.32423 243.036148 
L 257.85991 266.657778 
L 258.320919 286.069526 
L 258.350138 285.899177 
L 258.437795 283.419832 
L 258.704012 267.444852 
L 259.911727 191.117825 
L 260.213655 184.689793 
L 260.382476 183.923788 
L 260.401955 183.933704 
L 260.492858 184.184818 
L 260.694144 185.582583 
L 261.028538 189.579119 
L 261.32722 196.032191 
L 261.658368 208.65589 
L 262.177815 238.933274 
L 262.489484 250.863207 
L 262.50247 250.89117 
L 262.541428 250.665033 
L 262.635578 248.160255 
L 262.827124 235.596103 
L 263.330339 182.674474 
L 263.788102 145.897823 
L 264.116003 135.443576 
L 264.762065 123.45841 
L 264.859462 123.117777 
L 264.90816 123.221782 
L 265.015296 124.166686 
L 265.193856 128.166358 
L 265.450333 139.739439 
L 265.830179 168.680108 
L 266.388585 208.847065 
L 266.43079 209.184403 
L 266.482735 208.694944 
L 266.593117 204.323546 
L 266.813882 184.497254 
L 267.554095 113.160603 
L 268.222883 86.240694 
L 268.576756 78.278784 
L 268.690385 77.7021 
L 268.732591 77.802033 
L 268.829987 78.762144 
L 268.995561 83.036442 
L 269.235805 96.026719 
L 269.589679 129.363577 
L 270.141591 178.873607 
L 270.187043 179.301196 
L 270.238988 178.661624 
L 270.352617 173.186048 
L 270.599354 147.646503 
L 271.105815 99.019375 
L 271.570071 79.48257 
L 272.102505 64.025419 
L 272.349242 61.561333 
L 272.39794 61.684827 
L 272.498583 62.790161 
L 272.660911 67.497413 
L 272.891415 81.694219 
L 273.242042 119.518971 
L 273.716038 165.499018 
L 273.761489 166.009963 
L 273.813434 165.320224 
L 273.927063 159.308747 
L 274.19328 130.009679 
L 274.631564 89.308963 
L 275.050368 72.185193 
L 275.618513 56.645087 
L 275.89447 53.576825 
L 275.917196 53.572003 
L 275.952908 53.669145 
L 276.047057 54.632676 
L 276.199645 58.926354 
L 276.413917 72.262138 
L 276.738572 109.118285 
L 277.196335 156.181331 
L 277.235293 156.618442 
L 277.290484 155.826494 
L 277.40736 149.062103 
L 277.706042 114.461972 
L 278.095628 80.233898 
L 278.455994 67.491095 
L 278.985181 56.075607 
L 279.254644 53.874229 
L 279.283863 53.876842 
L 279.316329 53.955847 
L 279.413725 54.768466 
L 279.563066 58.275181 
L 279.764352 69.268369 
L 280.043555 99.11536 
L 280.582481 156.54829 
L 280.595468 156.592983 
L 280.63118 156.218371 
L 280.725329 151.896889 
L 280.939601 129.128251 
L 281.446063 77.884443 
L 281.773964 66.509326 
L 282.280425 56.756657 
L 282.536902 54.959979 
L 282.57586 54.98385 
L 282.598586 55.044336 
L 282.699229 55.801366 
L 282.851817 59.022616 
L 283.046609 68.790166 
L 283.303087 95.026284 
L 283.874479 158.079432 
L 283.890711 158.007039 
L 283.952396 156.306248 
L 284.09849 144.554686 
L 284.89714 68.708059 
L 285.234781 61.931672 
L 285.598394 58.27086 
L 285.692544 58.070887 
L 285.741242 58.145778 
L 285.845132 58.817647 
L 285.997719 61.541275 
L 286.189265 69.566321 
L 286.426263 90.322189 
L 287.075572 165.004151 
L 287.156736 162.943991 
L 287.309324 149.62624 
L 288.088495 70.775956 
L 288.403409 63.71017 
L 288.744297 60.284449 
L 288.851433 60.042059 
L 288.893638 60.103073 
L 288.991034 60.678186 
L 289.140375 63.199387 
L 289.328675 70.909883 
L 289.562426 91.307596 
L 290.218228 168.718542 
L 290.309132 165.995467 
L 290.474705 149.835838 
L 291.185699 72.771082 
L 291.468148 65.500456 
L 291.770077 62.672258 
L 291.890199 62.398777 
L 291.932404 62.45022 
L 292.029801 62.945752 
L 292.179142 65.116346 
L 292.364195 71.60899 
L 292.591453 88.823136 
L 292.925847 134.802073 
L 293.286214 174.044563 
L 293.312186 174.259079 
L 293.357638 173.529373 
L 293.46802 166.410965 
L 293.75047 129.058874 
L 294.195247 80.415241 
L 294.490682 69.045493 
L 294.795857 64.846703 
L 294.993897 64.046739 
L 295.010129 64.055685 
L 295.0848 64.285224 
L 295.211415 65.59057 
L 295.380236 70.130561 
L 295.584768 82.658548 
L 295.860724 115.693508 
L 296.370432 175.449027 
L 296.373679 175.452957 
L 296.393158 175.32351 
L 296.461335 172.866673 
L 296.623663 156.888095 
L 297.360628 75.269057 
L 297.643078 67.894747 
L 297.912541 65.584629 
L 297.990458 65.474491 
L 298.039156 65.55165 
L 298.146292 66.202297 
L 298.302127 68.783593 
L 298.493673 76.273648 
L 298.727424 95.691133 
L 299.110516 151.107399 
L 299.402705 178.512613 
L 299.415692 178.57648 
L 299.45465 178.0694 
L 299.552047 172.525546 
L 299.789044 142.717041 
L 300.305245 82.881623 
L 300.600681 71.244957 
L 300.899363 67.07121 
L 301.074676 66.384419 
L 301.097402 66.403287 
L 301.178566 66.729812 
L 301.311674 68.410523 
L 301.486988 73.988595 
L 301.704506 89.375723 
L 302.012928 130.285484 
L 302.425239 177.95066 
L 302.447965 178.1299 
L 302.493417 177.41465 
L 302.600553 170.53789 
L 302.873263 134.319801 
L 303.334272 82.441192 
L 303.623215 71.140904 
L 303.902417 67.571443 
L 304.048512 67.110177 
L 304.080977 67.140703 
L 304.171881 67.539575 
L 304.314729 69.389022 
L 304.496535 75.125807 
L 304.7173 90.381011 
L 305.022476 129.992139 
L 305.45102 179.9507 
L 305.473745 180.126179 
L 305.519197 179.407786 
L 305.626333 172.547361 
L 305.899043 136.442217 
L 306.363299 84.136423 
L 306.658735 72.316601 
L 306.957417 68.08015 
L 307.122991 67.431799 
L 307.152209 67.459168 
L 307.23662 67.843574 
L 307.372975 69.728182 
L 307.551535 75.852141 
L 307.7723 92.414524 
L 308.100201 137.480603 
L 308.470307 178.803895 
L 308.496279 179.030665 
L 308.544977 178.197773 
L 308.658607 170.470962 
L 308.957289 129.936622 
L 309.389079 82.79353 
L 309.678022 71.659695 
L 309.957225 68.155938 
L 310.096826 67.740368 
L 310.132538 67.781395 
L 310.226688 68.242251 
L 310.372783 70.300607 
L 310.557836 76.598857 
L 310.781847 93.082949 
L 311.106502 136.963544 
L 311.492841 180.396921 
L 311.515567 180.592174 
L 311.564265 179.811949 
L 311.674647 172.52777 
L 311.960343 134.26229 
L 312.408367 84.463928 
L 312.703802 72.657835 
L 313.002484 68.417415 
L 313.164812 67.785538 
L 313.194031 67.813177 
L 313.278441 68.20156 
L 313.414796 70.103043 
L 313.593356 76.266089 
L 313.814121 92.883877 
L 314.142022 137.965078 
L 314.512128 179.07579 
L 314.5381 179.280187 
L 314.583552 178.515354 
L 314.693935 171.239962 
L 314.979631 132.901796 
L 315.427654 83.166626 
L 315.716596 71.911034 
L 315.995799 68.363927 
L 316.135401 67.934484 
L 316.171113 67.972029 
L 316.265263 68.423559 
L 316.411357 70.466266 
L 316.59641 76.739121 
L 316.820422 93.176608 
L 317.14183 136.471423 
L 317.531415 180.502699 
L 317.557388 180.71155 
L 317.602839 179.959099 
L 317.713222 172.732121 
L 317.995671 135.002512 
L 318.446941 84.647178 
L 318.742377 72.788734 
L 319.041059 68.522661 
L 319.203386 67.882664 
L 319.232605 67.909197 
L 319.317015 68.294897 
L 319.45337 70.192878 
L 319.63193 76.349227 
L 319.852695 92.948528 
L 320.180596 137.994164 
L 320.550703 179.129977 
L 320.576675 179.339391 
L 320.622127 178.58353 
L 320.732509 171.328448 
L 321.014959 133.494467 
L 321.466228 83.248816 
L 321.755171 71.971701 
L 322.034374 68.417244 
L 322.173975 67.985189 
L 322.209687 68.022049 
L 322.300591 68.446695 
L 322.443439 70.377189 
L 322.628492 76.467922 
L 322.852503 92.571559 
L 323.170665 134.968648 
L 323.56999 180.528081 
L 323.595962 180.737758 
L 323.641414 179.986972 
L 323.751796 172.764453 
L 324.034246 135.041759 
L 324.488762 84.475088 
L 324.784198 72.744358 
L 325.08288 68.522331 
L 325.241961 67.90512 
L 325.27118 67.931539 
L 325.35559 68.317243 
L 325.491945 70.216195 
L 325.670505 76.374731 
L 325.89127 92.9755 
L 326.219171 138.017457 
L 326.589277 179.142223 
L 326.615249 179.350752 
L 326.660701 178.593475 
L 326.771084 171.33609 
L 327.053533 133.50325 
L 327.504803 83.26005 
L 327.793745 71.982672 
L 328.072948 68.428585 
L 328.21255 67.99656 
L 328.248262 68.033408 
L 328.339165 68.458044 
L 328.482013 70.388831 
L 328.667066 76.481109 
L 328.891078 92.588406 
L 329.209239 134.988646 
L 329.608564 180.533985 
L 329.634537 180.742232 
L 329.679988 179.989067 
L 329.790371 172.761955 
L 330.07282 135.036138 
L 330.52409 84.683294 
L 330.819526 72.822188 
L 331.118208 68.55076 
L 331.280535 67.90917 
L 331.309754 67.93567 
L 331.394164 68.321804 
L 331.530519 70.222138 
L 331.709079 76.383667 
L 331.929844 92.98888 
L 332.257745 138.03375 
L 332.627852 179.145128 
L 332.653824 179.352076 
L 332.699276 178.59211 
L 332.809658 171.329362 
L 333.095354 133.014432 
L 333.543377 83.256997 
L 333.83232 71.982754 
L 334.111523 68.430191 
L 334.251124 67.998691 
L 334.286836 68.035666 
L 334.37774 68.460657 
L 334.520588 70.392267 
L 334.705641 76.486613 
L 334.929652 92.598199 
L 335.247814 135.003389 
L 335.647139 180.535902 
L 335.673111 180.742598 
L 335.718563 179.986788 
L 335.828945 172.754325 
L 336.111395 135.024139 
L 336.562665 84.678645 
L 336.8581 72.821322 
L 337.156783 68.550761 
L 337.31911 67.909539 
L 337.348329 67.936152 
L 337.432739 68.32274 
L 337.569094 70.224303 
L 337.747654 76.388508 
L 337.968419 92.998189 
L 338.29632 138.047112 
L 338.666426 179.146409 
L 338.692399 179.351843 
L 338.73785 178.58928 
L 338.848233 171.321239 
L 339.133929 133.002353 
L 339.581952 83.251918 
L 339.870895 71.981029 
L 340.150097 68.429937 
L 340.289699 67.999001 
L 340.325411 68.036126 
L 340.419561 68.486656 
L 340.565655 70.528966 
L 340.750708 76.805043 
L 340.97472 93.25092 
L 341.296128 136.548176 
L 341.685713 180.5372 
L 341.711686 180.742437 
L 341.757137 179.984128 
L 341.86752 172.746557 
L 342.149969 135.012125 
L 342.601239 84.67342 
L 342.896675 72.819633 
L 343.195357 68.550169 
L 343.357684 67.909431 
L 343.386903 67.936164 
L 343.471313 68.323193 
L 343.607668 70.22587 
L 343.786228 76.392496 
L 344.006993 93.006429 
L 344.334895 138.059568 
L 344.705001 179.147572 
L 344.730973 179.35157 
L 344.776425 178.586541 
L 344.886807 171.313447 
L 345.172503 132.990594 
L 345.620527 83.246845 
L 345.909469 71.979207 
L 346.188672 68.429436 
L 346.328273 67.999038 
L 346.363985 68.036313 
L 346.458135 68.487294 
L 346.60423 70.530593 
L 346.789283 76.80878 
L 347.013295 93.25864 
L 347.334703 136.560471 
L 347.724288 180.538462 
L 347.75026 180.74229 
L 347.795712 179.981566 
L 347.906095 172.739047 
L 348.188544 135.000529 
L 348.639814 84.668326 
L 348.935249 72.81787 
L 349.233932 68.549557 
L 349.396259 67.909354 
L 349.425478 67.936212 
L 349.509888 68.32368 
L 349.646243 70.22742 
L 349.824803 76.396347 
L 350.045568 93.014407 
L 350.373469 138.071796 
L 350.743575 179.148794 
L 350.766301 179.351759 
L 350.814999 178.583948 
L 350.925382 171.305912 
L 351.211078 132.97911 
L 351.659101 83.24191 
L 351.948044 71.977475 
L 352.227247 68.428939 
L 352.366848 67.999052 
L 352.40256 68.036475 
L 352.49671 68.487911 
L 352.642804 70.532215 
L 352.827857 76.812518 
L 353.051869 93.266312 
L 353.376524 137.083865 
L 353.762863 180.539741 
L 353.785588 180.742461 
L 353.834287 179.979068 
L 353.944669 172.731658 
L 354.227119 134.989124 
L 354.678388 84.663336 
L 354.973824 72.816117 
L 355.272506 68.54897 
L 355.434833 67.909329 
L 355.464052 67.936313 
L 355.548463 68.324223 
L 355.684817 70.229012 
L 355.863377 76.400189 
L 356.084143 93.022324 
L 356.412044 138.083979 
L 356.78215 179.150056 
L 356.804876 179.3518 
L 356.853574 178.581422 
L 356.963956 171.298478 
L 357.249652 132.967731 
L 357.697676 83.237038 
L 357.986618 71.975801 
L 358.265821 68.428456 
L 358.405423 67.999067 
L 358.441135 68.036636 
L 358.535284 68.488527 
L 358.681379 70.533847 
L 358.866432 76.816279 
L 359.090444 93.273994 
L 359.415098 137.095989 
L 359.801437 180.541028 
L 359.824163 180.742534 
L 359.872861 179.976588 
L 359.983244 172.724301 
L 360.26894 134.499839 
L 360.720209 84.451827 
L 361.015645 72.740923 
L 361.314327 68.524062 
L 361.473408 67.909326 
L 361.502627 67.936439 
L 361.587037 68.324795 
L 361.723392 70.230631 
L 361.901952 76.404039 
L 362.122717 93.030225 
L 362.450618 138.096157 
L 362.820724 179.151332 
L 362.84345 179.351859 
L 362.892148 178.578917 
L 363.002531 171.291076 
L 363.288227 132.956382 
L 363.73625 83.232185 
L 364.025193 71.974152 
L 364.304396 68.427981 
L 364.443997 67.999081 
L 364.479709 68.036796 
L 364.573859 68.489141 
L 364.719953 70.535481 
L 364.905007 76.820052 
L 365.129018 93.28169 
L 365.453673 137.108109 
L 365.840012 180.542314 
L 365.862737 180.742608 
L 365.911436 179.974109 
L 366.021818 172.716946 
L 366.307514 134.488517 
L 366.758784 84.446948 
L 367.05422 72.739194 
L 367.352902 68.523494 
L 367.511983 67.909331 
L 367.541201 67.936575 
L 367.625612 68.32538 
L 367.761967 70.232262 
L 367.940527 76.407896 
L 368.161292 93.038123 
L 368.489193 138.108335 
L 368.859299 179.152613 
L 368.882025 179.351921 
L 368.930723 178.576416 
L 369.041105 171.283681 
L 369.326801 132.945039 
L 369.774825 83.227335 
L 370.063767 71.972513 
L 370.34297 68.427509 
L 370.482572 67.999093 
L 370.518284 68.036953 
L 370.612433 68.489752 
L 370.758528 70.537115 
L 370.943581 76.823831 
L 371.167593 93.289394 
L 371.492247 137.120229 
L 371.878586 180.543596 
L 371.901312 180.742677 
L 371.95001 179.971627 
L 372.060393 172.709588 
L 372.346089 134.477196 
L 372.797359 84.442076 
L 373.092794 72.737464 
L 373.391476 68.522925 
L 373.550557 67.909338 
L 373.579776 67.936713 
L 373.664186 68.325968 
L 373.800541 70.233898 
L 373.979101 76.411756 
L 374.199866 93.04602 
L 374.527767 138.120514 
L 374.897873 179.153892 
L 374.920599 179.351983 
L 374.969297 178.573915 
L 375.07968 171.276287 
L 375.365376 132.933698 
L 375.813399 83.222486 
L 376.102342 71.97088 
L 376.381545 68.427039 
L 376.521146 67.999105 
L 376.556858 68.037108 
L 376.651008 68.490361 
L 376.797103 70.538748 
L 376.982156 76.827612 
L 377.206167 93.297104 
L 377.530822 137.132351 
L 377.917161 180.544875 
L 377.939887 180.742743 
L 377.988585 179.96914 
L 378.098967 172.702227 
L 378.384663 134.465874 
L 378.835933 84.437206 
L 379.131369 72.735733 
L 379.430051 68.522356 
L 379.589132 67.909346 
L 379.618351 67.936852 
L 379.702761 68.326559 
L 379.839116 70.235537 
L 380.017676 76.415618 
L 380.238441 93.053918 
L 380.566342 138.132692 
L 380.936448 179.155169 
L 380.959174 179.352041 
L 381.007872 178.571411 
L 381.118255 171.268891 
L 381.403951 132.922357 
L 381.851974 83.217637 
L 382.140916 71.969249 
L 382.420119 68.42657 
L 382.559721 67.999116 
L 382.595433 68.037263 
L 382.689583 68.490969 
L 382.835677 70.540381 
L 383.02073 76.831395 
L 383.244742 93.304816 
L 383.569396 137.144473 
L 383.955735 180.546149 
L 383.978461 180.742804 
L 384.027159 179.966649 
L 384.137542 172.694861 
L 384.423238 134.454552 
L 384.874508 84.432338 
L 385.169943 72.734003 
L 385.468625 68.521785 
L 385.627706 67.909354 
L 385.656925 67.936991 
L 385.741335 68.32715 
L 385.87769 70.237178 
L 386.05625 76.419483 
L 386.277015 93.061817 
L 386.604916 138.144871 
L 386.975023 179.156442 
L 386.997748 179.352096 
L 387.046447 178.568904 
L 387.156829 171.261493 
L 387.442525 132.911017 
L 387.890548 83.212789 
L 388.179491 71.967619 
L 388.458694 68.426102 
L 388.598295 67.999127 
L 388.634007 68.037418 
L 388.728157 68.491576 
L 388.874252 70.542014 
L 389.059305 76.835179 
L 389.283316 93.312532 
L 389.607971 137.156595 
L 389.99431 180.54742 
L 390.017036 180.742861 
L 390.065734 179.964154 
L 390.176116 172.687493 
L 390.461812 134.443229 
L 390.913082 84.427471 
L 391.208518 72.732274 
L 391.5072 68.521215 
L 391.666281 67.909362 
L 391.6955 67.937131 
L 391.77991 68.327742 
L 391.916265 70.238821 
L 392.094825 76.423349 
L 392.31559 93.069717 
L 392.643491 138.157049 
L 393.013597 179.157712 
L 393.036323 179.352147 
L 393.085021 178.566393 
L 393.195404 171.254093 
L 393.4811 132.899678 
L 393.929123 83.207942 
L 394.218065 71.96599 
L 394.497268 68.425634 
L 394.63687 67.999139 
L 394.672582 68.037574 
L 394.766732 68.492184 
L 394.912826 70.543647 
L 395.097879 76.838964 
L 395.321891 93.320248 
L 395.646545 137.168717 
L 396.032884 180.548686 
L 396.05561 180.742914 
L 396.104308 179.961656 
L 396.214691 172.680122 
L 396.500387 134.431907 
L 396.94841 84.628863 
L 397.243846 72.803875 
L 397.542528 68.544913 
L 397.704855 67.90937 
L 397.734074 67.937271 
L 397.818484 68.328334 
L 397.954839 70.240464 
L 398.133399 76.427217 
L 398.354164 93.077619 
L 398.487273 108.942516 
L 398.487273 108.942516 
" style="fill:none;stroke:#1f77b4;stroke-linecap:square;stroke-width:1.5;"/>
   </g>
   <g id="patch_3">
    <path d="M 57.6 307.584 
L 57.6 41.472 
" style="fill:none;stroke:#000000;stroke-linecap:square;stroke-linejoin:miter;stroke-width:0.8;"/>
   </g>
   <g id="patch_4">
    <path d="M 414.72 307.584 
L 414.72 41.472 
" style="fill:none;stroke:#000000;stroke-linecap:square;stroke-linejoin:miter;stroke-width:0.8;"/>
   </g>
   <g id="patch_5">
    <path d="M 57.6 307.584 
L 414.72 307.584 
" style="fill:none;stroke:#000000;stroke-linecap:square;stroke-linejoin:miter;stroke-width:0.8;"/>
   </g>
   <g id="patch_6">
    <path d="M 57.6 41.472 
L 414.72 41.472 
" style="fill:none;stroke:#000000;stroke-linecap:square;stroke-linejoin:miter;stroke-width:0.8;"/>
   </g>
  </g>
 </g>
 <defs>
  <clipPath id="pafc310a951">
   <rect height="266.112" width="357.12" x="57.6" y="41.472"/>
  </clipPath>
 </defs>
</svg>
