<?xml version="1.0" encoding="utf-8" standalone="no"?>
<!DOCTYPE svg PUBLIC "-//W3C//DTD SVG 1.1//EN"
  "http://www.w3.org/Graphics/SVG/1.1/DTD/svg11.dtd">
<!-- Created with matplotlib (https://matplotlib.org/) -->
<svg height="345.6pt" version="1.1" viewBox="0 0 460.8 345.6" width="460.8pt" xmlns="http://www.w3.org/2000/svg" xmlns:xlink="http://www.w3.org/1999/xlink">
 <metadata>
  <rdf:RDF xmlns:cc="http://creativecommons.org/ns#" xmlns:dc="http://purl.org/dc/elements/1.1/" xmlns:rdf="http://www.w3.org/1999/02/22-rdf-syntax-ns#">
   <cc:Work>
    <dc:type rdf:resource="http://purl.org/dc/dcmitype/StillImage"/>
    <dc:date>2020-07-23T21:21:18.853131</dc:date>
    <dc:format>image/svg+xml</dc:format>
    <dc:creator>
     <cc:Agent>
      <dc:title>Matplotlib v3.3.0, https://matplotlib.org/</dc:title>
     </cc:Agent>
    </dc:creator>
   </cc:Work>
  </rdf:RDF>
 </metadata>
 <defs>
  <style type="text/css">*{stroke-linecap:butt;stroke-linejoin:round;}</style>
 </defs>
 <g id="figure_1">
  <g id="patch_1">
   <path d="M 0 345.6 
L 460.8 345.6 
L 460.8 0 
L 0 0 
z
" style="fill:#ffffff;"/>
  </g>
  <g id="axes_1">
   <g id="patch_2">
    <path d="M 57.6 307.584 
L 414.72 307.584 
L 414.72 41.472 
L 57.6 41.472 
z
" style="fill:#ffffff;"/>
   </g>
   <g id="matplotlib.axis_1">
    <g id="xtick_1">
     <g id="line2d_1">
      <defs>
       <path d="M 0 0 
L 0 3.5 
" id="md97a051648" style="stroke:#000000;stroke-width:0.8;"/>
      </defs>
      <g>
       <use style="stroke:#000000;stroke-width:0.8;" x="73.832727" xlink:href="#md97a051648" y="307.584"/>
      </g>
     </g>
     <g id="text_1">
      <!-- $\mathdefault{0}$ -->
      <g transform="translate(71.34206 321.502498)scale(0.1 -0.1)">
       <defs>
        <path d="M 42 31.640625 
C 42 37.75 41.90625 48.125 37.703125 56.109375 
C 34 63.109375 28.09375 65.59375 22.90625 65.59375 
C 18.09375 65.59375 12 63.40625 8.203125 56.203125 
C 4.203125 48.71875 3.796875 39.4375 3.796875 31.640625 
C 3.796875 25.953125 3.90625 17.28125 7 9.671875 
C 11.296875 -0.609375 19 -2 22.90625 -2 
C 27.5 -2 34.5 -0.109375 38.59375 9.375 
C 41.59375 16.28125 42 24.359375 42 31.640625 
z
M 22.90625 -0.40625 
C 16.5 -0.40625 12.703125 5.078125 11.296875 12.6875 
C 10.203125 18.5625 10.203125 27.15625 10.203125 32.75 
C 10.203125 40.4375 10.203125 46.828125 11.5 52.921875 
C 13.40625 61.390625 19 64 22.90625 64 
C 27 64 32.296875 61.296875 34.203125 53.125 
C 35.5 47.4375 35.59375 40.734375 35.59375 32.75 
C 35.59375 26.25 35.59375 18.265625 34.40625 12.375 
C 32.296875 1.484375 26.40625 -0.40625 22.90625 -0.40625 
z
" id="CMR17-48"/>
       </defs>
       <use transform="scale(0.996264)" xlink:href="#CMR17-48"/>
      </g>
     </g>
    </g>
    <g id="xtick_2">
     <g id="line2d_2">
      <g>
       <use style="stroke:#000000;stroke-width:0.8;" x="138.763636" xlink:href="#md97a051648" y="307.584"/>
      </g>
     </g>
     <g id="text_2">
      <!-- $\mathdefault{20000}$ -->
      <g transform="translate(126.310298 321.502498)scale(0.1 -0.1)">
       <defs>
        <path d="M 41.703125 15.453125 
L 39.90625 15.453125 
C 38.90625 8.375 38.09375 7.171875 37.703125 6.5625 
C 37.203125 5.765625 30 5.765625 28.59375 5.765625 
L 9.40625 5.765625 
C 13 9.671875 20 16.75 28.5 24.953125 
C 34.59375 30.734375 41.703125 37.53125 41.703125 47.421875 
C 41.703125 59.21875 32.296875 66 21.796875 66 
C 10.796875 66 4.09375 56.3125 4.09375 47.34375 
C 4.09375 43.4375 7 42.9375 8.203125 42.9375 
C 9.203125 42.9375 12.203125 43.546875 12.203125 47.03125 
C 12.203125 50.109375 9.59375 51 8.203125 51 
C 7.59375 51 7 50.90625 6.59375 50.703125 
C 8.5 59.21875 14.296875 63.40625 20.40625 63.40625 
C 29.09375 63.40625 34.796875 56.515625 34.796875 47.421875 
C 34.796875 38.734375 29.703125 31.25 24 24.75 
L 4.09375 2.28125 
L 4.09375 0 
L 39.296875 0 
z
" id="CMR17-50"/>
       </defs>
       <use transform="scale(0.996264)" xlink:href="#CMR17-50"/>
       <use transform="translate(45.690477 0)scale(0.996264)" xlink:href="#CMR17-48"/>
       <use transform="translate(91.380954 0)scale(0.996264)" xlink:href="#CMR17-48"/>
       <use transform="translate(137.071431 0)scale(0.996264)" xlink:href="#CMR17-48"/>
       <use transform="translate(182.761908 0)scale(0.996264)" xlink:href="#CMR17-48"/>
      </g>
     </g>
    </g>
    <g id="xtick_3">
     <g id="line2d_3">
      <g>
       <use style="stroke:#000000;stroke-width:0.8;" x="203.694545" xlink:href="#md97a051648" y="307.584"/>
      </g>
     </g>
     <g id="text_3">
      <!-- $\mathdefault{40000}$ -->
      <g transform="translate(191.241207 321.502498)scale(0.1 -0.1)">
       <defs>
        <path d="M 33.59375 64.40625 
C 33.59375 66.5 33.5 66.5 31.703125 66.5 
L 2 19.59375 
L 2 17 
L 27.796875 17 
L 27.796875 7.140625 
C 27.796875 3.5 27.59375 2.5 20.59375 2.5 
L 18.703125 2.5 
L 18.703125 0 
C 21.90625 0 27.296875 0 30.703125 0 
C 34.09375 0 39.5 0 42.703125 0 
L 42.703125 2.5 
L 40.796875 2.5 
C 33.796875 2.5 33.59375 3.5 33.59375 7.140625 
L 33.59375 17 
L 43.796875 17 
L 43.796875 19.59375 
L 33.59375 19.59375 
z
M 28.09375 57.859375 
L 28.09375 19.59375 
L 4 19.59375 
z
" id="CMR17-52"/>
       </defs>
       <use transform="scale(0.996264)" xlink:href="#CMR17-52"/>
       <use transform="translate(45.690477 0)scale(0.996264)" xlink:href="#CMR17-48"/>
       <use transform="translate(91.380954 0)scale(0.996264)" xlink:href="#CMR17-48"/>
       <use transform="translate(137.071431 0)scale(0.996264)" xlink:href="#CMR17-48"/>
       <use transform="translate(182.761908 0)scale(0.996264)" xlink:href="#CMR17-48"/>
      </g>
     </g>
    </g>
    <g id="xtick_4">
     <g id="line2d_4">
      <g>
       <use style="stroke:#000000;stroke-width:0.8;" x="268.625455" xlink:href="#md97a051648" y="307.584"/>
      </g>
     </g>
     <g id="text_4">
      <!-- $\mathdefault{60000}$ -->
      <g transform="translate(256.172116 321.502498)scale(0.1 -0.1)">
       <defs>
        <path d="M 10.59375 34 
C 10.59375 57.65625 21.796875 63 28.296875 63 
C 30.40625 63 35.5 62.640625 37.5 59 
C 35.90625 59 32.90625 59 32.90625 55.515625 
C 32.90625 52.828125 35.09375 51.921875 36.5 51.921875 
C 37.40625 51.921875 40.09375 52.3125 40.09375 55.625 
C 40.09375 61.78125 35.09375 65.296875 28.203125 65.296875 
C 16.296875 65.296875 3.796875 52.96875 3.796875 31 
C 3.796875 3.953125 15.09375 -2 23.09375 -2 
C 32.796875 -2 42 6.671875 42 20.046875 
C 42 32.515625 33.90625 41.59375 23.703125 41.59375 
C 17.59375 41.59375 13.09375 37.609375 10.59375 30.625 
z
M 23.09375 0.390625 
C 10.796875 0.390625 10.796875 18.75 10.796875 22.4375 
C 10.796875 29.625 14.203125 40 23.5 40 
C 25.203125 40 30.09375 40 33.40625 33.125 
C 35.203125 29.21875 35.203125 25.140625 35.203125 20.140625 
C 35.203125 14.75 35.203125 10.78125 33.09375 6.78125 
C 30.90625 2.671875 27.703125 0.390625 23.09375 0.390625 
z
" id="CMR17-54"/>
       </defs>
       <use transform="scale(0.996264)" xlink:href="#CMR17-54"/>
       <use transform="translate(45.690477 0)scale(0.996264)" xlink:href="#CMR17-48"/>
       <use transform="translate(91.380954 0)scale(0.996264)" xlink:href="#CMR17-48"/>
       <use transform="translate(137.071431 0)scale(0.996264)" xlink:href="#CMR17-48"/>
       <use transform="translate(182.761908 0)scale(0.996264)" xlink:href="#CMR17-48"/>
      </g>
     </g>
    </g>
    <g id="xtick_5">
     <g id="line2d_5">
      <g>
       <use style="stroke:#000000;stroke-width:0.8;" x="333.556364" xlink:href="#md97a051648" y="307.584"/>
      </g>
     </g>
     <g id="text_5">
      <!-- $\mathdefault{80000}$ -->
      <g transform="translate(321.103026 321.502498)scale(0.1 -0.1)">
       <defs>
        <path d="M 27.203125 35.375 
C 33.5 38.546875 39.90625 43.328125 39.90625 50.984375 
C 39.90625 60.015625 31.09375 65.296875 23 65.296875 
C 13.90625 65.296875 5.90625 58.734375 5.90625 49.6875 
C 5.90625 47.203125 6.5 42.921875 10.40625 39.140625 
C 11.40625 38.15625 15.59375 35.171875 18.296875 33.28125 
C 13.796875 30.984375 3.296875 25.53125 3.296875 14.59375 
C 3.296875 4.359375 13.09375 -2 22.796875 -2 
C 33.5 -2 42.5 5.65625 42.5 15.78125 
C 42.5 24.84375 36.40625 29.015625 32.40625 31.703125 
z
M 14.09375 44.09375 
C 13.296875 44.59375 9.296875 47.671875 9.296875 52.359375 
C 9.296875 58.421875 15.59375 63 22.796875 63 
C 30.703125 63 36.5 57.4375 36.5 50.96875 
C 36.5 41.703125 26.09375 36.421875 25.59375 36.421875 
C 25.5 36.421875 25.40625 36.421875 24.59375 37.03125 
z
M 32.5 23.734375 
C 34 22.640625 38.796875 19.375 38.796875 13.296875 
C 38.796875 5.953125 31.40625 0.390625 23 0.390625 
C 13.90625 0.390625 7 6.84375 7 14.6875 
C 7 22.546875 13.09375 29.09375 20 32.1875 
z
" id="CMR17-56"/>
       </defs>
       <use transform="scale(0.996264)" xlink:href="#CMR17-56"/>
       <use transform="translate(45.690477 0)scale(0.996264)" xlink:href="#CMR17-48"/>
       <use transform="translate(91.380954 0)scale(0.996264)" xlink:href="#CMR17-48"/>
       <use transform="translate(137.071431 0)scale(0.996264)" xlink:href="#CMR17-48"/>
       <use transform="translate(182.761908 0)scale(0.996264)" xlink:href="#CMR17-48"/>
      </g>
     </g>
    </g>
    <g id="xtick_6">
     <g id="line2d_6">
      <g>
       <use style="stroke:#000000;stroke-width:0.8;" x="398.487273" xlink:href="#md97a051648" y="307.584"/>
      </g>
     </g>
     <g id="text_6">
      <!-- $\mathdefault{100000}$ -->
      <g transform="translate(383.543267 321.502498)scale(0.1 -0.1)">
       <defs>
        <path d="M 26.59375 63.40625 
C 26.59375 65.5 26.5 65.5 25.09375 65.5 
C 21.203125 61.1875 15.296875 59.796875 9.703125 59.796875 
C 9.40625 59.796875 8.90625 59.796875 8.796875 59.5 
C 8.703125 59.296875 8.703125 59.09375 8.703125 57 
C 11.796875 57 17 57.59375 21 59.984375 
L 21 7.203125 
C 21 3.6875 20.796875 2.5 12.203125 2.5 
L 9.203125 2.5 
L 9.203125 0 
C 14 0 19 0 23.796875 0 
C 28.59375 0 33.59375 0 38.40625 0 
L 38.40625 2.5 
L 35.40625 2.5 
C 26.796875 2.5 26.59375 3.59375 26.59375 7.15625 
z
" id="CMR17-49"/>
       </defs>
       <use transform="scale(0.996264)" xlink:href="#CMR17-49"/>
       <use transform="translate(45.690477 0)scale(0.996264)" xlink:href="#CMR17-48"/>
       <use transform="translate(91.380954 0)scale(0.996264)" xlink:href="#CMR17-48"/>
       <use transform="translate(137.071431 0)scale(0.996264)" xlink:href="#CMR17-48"/>
       <use transform="translate(182.761908 0)scale(0.996264)" xlink:href="#CMR17-48"/>
       <use transform="translate(228.452386 0)scale(0.996264)" xlink:href="#CMR17-48"/>
      </g>
     </g>
    </g>
   </g>
   <g id="matplotlib.axis_2">
    <g id="ytick_1">
     <g id="line2d_7">
      <defs>
       <path d="M 0 0 
L -3.5 0 
" id="mc8a2ec071e" style="stroke:#000000;stroke-width:0.8;"/>
      </defs>
      <g>
       <use style="stroke:#000000;stroke-width:0.8;" x="57.6" xlink:href="#mc8a2ec071e" y="297.324524"/>
      </g>
     </g>
     <g id="text_7">
      <!-- $\mathdefault{0.00}$ -->
      <g transform="translate(32.888586 300.783773)scale(0.1 -0.1)">
       <defs>
        <path d="M 18.40625 4.796875 
C 18.40625 7.6875 16 9.671875 13.59375 9.671875 
C 10.703125 9.671875 8.703125 7.28125 8.703125 4.890625 
C 8.703125 2 11.09375 0 13.5 0 
C 16.40625 0 18.40625 2.390625 18.40625 4.796875 
z
" id="CMMI12-58"/>
       </defs>
       <use transform="scale(0.996264)" xlink:href="#CMR17-48"/>
       <use transform="translate(45.690477 0)scale(0.996264)" xlink:href="#CMMI12-58"/>
       <use transform="translate(72.787654 0)scale(0.996264)" xlink:href="#CMR17-48"/>
       <use transform="translate(118.478131 0)scale(0.996264)" xlink:href="#CMR17-48"/>
      </g>
     </g>
    </g>
    <g id="ytick_2">
     <g id="line2d_8">
      <g>
       <use style="stroke:#000000;stroke-width:0.8;" x="57.6" xlink:href="#mc8a2ec071e" y="263.561903"/>
      </g>
     </g>
     <g id="text_8">
      <!-- $\mathdefault{0.02}$ -->
      <g transform="translate(32.888586 267.021152)scale(0.1 -0.1)">
       <use transform="scale(0.996264)" xlink:href="#CMR17-48"/>
       <use transform="translate(45.690477 0)scale(0.996264)" xlink:href="#CMMI12-58"/>
       <use transform="translate(72.787654 0)scale(0.996264)" xlink:href="#CMR17-48"/>
       <use transform="translate(118.478131 0)scale(0.996264)" xlink:href="#CMR17-50"/>
      </g>
     </g>
    </g>
    <g id="ytick_3">
     <g id="line2d_9">
      <g>
       <use style="stroke:#000000;stroke-width:0.8;" x="57.6" xlink:href="#mc8a2ec071e" y="229.799281"/>
      </g>
     </g>
     <g id="text_9">
      <!-- $\mathdefault{0.04}$ -->
      <g transform="translate(32.888586 233.25853)scale(0.1 -0.1)">
       <use transform="scale(0.996264)" xlink:href="#CMR17-48"/>
       <use transform="translate(45.690477 0)scale(0.996264)" xlink:href="#CMMI12-58"/>
       <use transform="translate(72.787654 0)scale(0.996264)" xlink:href="#CMR17-48"/>
       <use transform="translate(118.478131 0)scale(0.996264)" xlink:href="#CMR17-52"/>
      </g>
     </g>
    </g>
    <g id="ytick_4">
     <g id="line2d_10">
      <g>
       <use style="stroke:#000000;stroke-width:0.8;" x="57.6" xlink:href="#mc8a2ec071e" y="196.03666"/>
      </g>
     </g>
     <g id="text_10">
      <!-- $\mathdefault{0.06}$ -->
      <g transform="translate(32.888586 199.495909)scale(0.1 -0.1)">
       <use transform="scale(0.996264)" xlink:href="#CMR17-48"/>
       <use transform="translate(45.690477 0)scale(0.996264)" xlink:href="#CMMI12-58"/>
       <use transform="translate(72.787654 0)scale(0.996264)" xlink:href="#CMR17-48"/>
       <use transform="translate(118.478131 0)scale(0.996264)" xlink:href="#CMR17-54"/>
      </g>
     </g>
    </g>
    <g id="ytick_5">
     <g id="line2d_11">
      <g>
       <use style="stroke:#000000;stroke-width:0.8;" x="57.6" xlink:href="#mc8a2ec071e" y="162.274038"/>
      </g>
     </g>
     <g id="text_11">
      <!-- $\mathdefault{0.08}$ -->
      <g transform="translate(32.888586 165.733288)scale(0.1 -0.1)">
       <use transform="scale(0.996264)" xlink:href="#CMR17-48"/>
       <use transform="translate(45.690477 0)scale(0.996264)" xlink:href="#CMMI12-58"/>
       <use transform="translate(72.787654 0)scale(0.996264)" xlink:href="#CMR17-48"/>
       <use transform="translate(118.478131 0)scale(0.996264)" xlink:href="#CMR17-56"/>
      </g>
     </g>
    </g>
    <g id="ytick_6">
     <g id="line2d_12">
      <g>
       <use style="stroke:#000000;stroke-width:0.8;" x="57.6" xlink:href="#mc8a2ec071e" y="128.511417"/>
      </g>
     </g>
     <g id="text_12">
      <!-- $\mathdefault{0.10}$ -->
      <g transform="translate(32.888586 131.970666)scale(0.1 -0.1)">
       <use transform="scale(0.996264)" xlink:href="#CMR17-48"/>
       <use transform="translate(45.690477 0)scale(0.996264)" xlink:href="#CMMI12-58"/>
       <use transform="translate(72.787654 0)scale(0.996264)" xlink:href="#CMR17-49"/>
       <use transform="translate(118.478131 0)scale(0.996264)" xlink:href="#CMR17-48"/>
      </g>
     </g>
    </g>
    <g id="ytick_7">
     <g id="line2d_13">
      <g>
       <use style="stroke:#000000;stroke-width:0.8;" x="57.6" xlink:href="#mc8a2ec071e" y="94.748795"/>
      </g>
     </g>
     <g id="text_13">
      <!-- $\mathdefault{0.12}$ -->
      <g transform="translate(32.888586 98.208045)scale(0.1 -0.1)">
       <use transform="scale(0.996264)" xlink:href="#CMR17-48"/>
       <use transform="translate(45.690477 0)scale(0.996264)" xlink:href="#CMMI12-58"/>
       <use transform="translate(72.787654 0)scale(0.996264)" xlink:href="#CMR17-49"/>
       <use transform="translate(118.478131 0)scale(0.996264)" xlink:href="#CMR17-50"/>
      </g>
     </g>
    </g>
    <g id="ytick_8">
     <g id="line2d_14">
      <g>
       <use style="stroke:#000000;stroke-width:0.8;" x="57.6" xlink:href="#mc8a2ec071e" y="60.986174"/>
      </g>
     </g>
     <g id="text_14">
      <!-- $\mathdefault{0.14}$ -->
      <g transform="translate(32.888586 64.445423)scale(0.1 -0.1)">
       <use transform="scale(0.996264)" xlink:href="#CMR17-48"/>
       <use transform="translate(45.690477 0)scale(0.996264)" xlink:href="#CMMI12-58"/>
       <use transform="translate(72.787654 0)scale(0.996264)" xlink:href="#CMR17-49"/>
       <use transform="translate(118.478131 0)scale(0.996264)" xlink:href="#CMR17-52"/>
      </g>
     </g>
    </g>
   </g>
   <g id="line2d_15">
    <path clip-path="url(#pe26ff15b05)" d="M 73.832727 128.511417 
L 74.777472 128.60529 
L 74.806691 130.385896 
L 74.871622 159.391475 
L 74.91058 174.698847 
L 74.946292 139.639136 
L 75.072908 125.265932 
L 75.082647 125.371899 
L 75.137839 130.196648 
L 75.303412 149.951719 
L 75.335878 144.975889 
L 75.400809 126.854228 
L 75.488465 128.062552 
L 75.572876 129.960144 
L 75.767668 132.61574 
L 75.942982 134.937243 
L 75.965708 135.2418 
L 76.00142 133.892546 
L 76.209199 120.459497 
L 76.235171 122.476799 
L 76.397498 132.363933 
L 76.429964 132.122204 
L 76.553332 129.230716 
L 76.644236 130.602775 
L 76.70592 131.286613 
L 76.757865 130.754733 
L 76.813056 129.721369 
L 76.871494 130.608045 
L 76.998109 131.718025 
L 77.004602 131.71858 
L 77.150697 130.116253 
L 77.153943 130.153099 
L 77.189655 129.446586 
L 77.192902 129.457372 
L 77.235107 128.851109 
L 77.303284 129.46979 
L 77.358476 129.308818 
L 77.397434 129.620238 
L 77.556515 131.373925 
L 77.572748 131.339598 
L 77.738321 130.36836 
L 77.809745 130.855906 
L 77.864937 131.1082 
L 77.923375 130.95223 
L 78.082455 130.323804 
L 78.085702 130.348027 
L 78.166865 130.160221 
L 78.170112 130.189859 
L 78.244783 130.012771 
L 78.283741 130.109517 
L 78.475287 131.597859 
L 78.488273 131.607417 
L 78.640861 130.86058 
L 78.644108 130.894315 
L 78.699299 130.740583 
L 78.747997 130.840139 
L 78.793449 130.884169 
L 78.861626 130.770494 
L 78.864873 130.808589 
L 78.959023 130.616161 
L 78.962269 130.654695 
L 78.997981 130.598393 
L 79.075898 130.616775 
L 79.228486 131.158474 
L 79.231732 131.134134 
L 79.306403 131.409129 
L 79.309649 131.378315 
L 79.429772 131.535944 
L 79.488209 131.599014 
L 79.543401 131.489794 
L 79.546647 131.516458 
L 79.621318 131.243781 
L 79.624564 131.269181 
L 79.712221 131.141388 
L 79.744687 131.144658 
L 79.747933 131.177244 
L 79.848576 131.081249 
L 79.851823 131.11105 
L 79.965452 131.078721 
L 79.968698 131.106651 
L 80.036876 131.030646 
L 80.072588 131.085909 
L 80.075834 131.064016 
L 80.137519 131.388525 
L 80.140765 131.385542 
L 80.150505 131.489662 
L 80.153751 131.488905 
L 80.273873 132.144167 
L 80.299846 132.110046 
L 80.413475 131.800984 
L 80.436201 131.845589 
L 80.439447 131.827352 
L 80.514118 132.020772 
L 80.517364 132.001967 
L 80.546583 132.038696 
L 80.621254 131.962652 
L 80.6245 131.982988 
L 80.647226 131.958241 
L 80.721897 132.054687 
L 80.725143 132.039071 
L 80.838772 132.15751 
L 80.848512 132.136004 
L 80.851759 132.15461 
L 80.945908 132.079494 
L 80.949155 132.095746 
L 81.017332 132.048572 
L 81.056291 132.091376 
L 81.286796 133.200559 
L 81.306275 133.186449 
L 81.419904 132.973861 
L 81.445876 132.997305 
L 81.617943 133.365697 
L 81.62119 133.358555 
L 81.676381 133.494007 
L 81.679628 133.488204 
L 81.838708 133.795013 
L 81.841955 133.785694 
L 81.929612 133.86217 
L 81.932858 133.852066 
L 82.332183 135.402365 
L 82.390621 135.376999 
L 82.393868 135.367385 
L 82.458799 135.496082 
L 82.721769 136.520251 
L 82.77696 136.716771 
L 82.962013 137.203635 
L 82.96526 137.201893 
L 84.608012 145.416822 
L 85.065775 147.829184 
L 85.224855 148.775408 
L 85.637167 151.397042 
L 85.997533 153.62319 
L 87.331863 163.516488 
L 88.175965 170.965447 
L 88.455168 174.069291 
L 89.445364 184.857437 
L 91.334854 210.903202 
L 93.312 249.340427 
L 94.513222 279.102557 
L 95.18201 295.488 
L 95.214476 295.26826 
L 95.363817 291.946951 
L 96.616983 255.389988 
L 98.944756 189.371529 
L 100.366743 155.575919 
L 101.814703 128.198324 
L 102.967226 111.386354 
L 104.168448 97.736696 
L 105.174877 88.749833 
L 106.207279 81.404172 
L 107.174749 75.929213 
L 108.249356 71.209379 
L 109.012294 68.639621 
L 110.015476 66.497979 
L 110.541417 66.060794 
L 111.018659 66.139277 
L 111.502394 66.881251 
L 111.921199 67.992482 
L 112.453632 69.896003 
L 113.512006 74.185959 
L 115.115799 81.370337 
L 116.904646 91.381603 
L 117.644858 96.420013 
L 118.674013 104.680299 
L 120.050548 118.27672 
L 121.303715 133.276613 
L 123.793815 167.900596 
L 126.027439 197.984977 
L 127.410467 212.805504 
L 128.40391 220.75257 
L 129.244765 225.471488 
L 129.799924 227.594213 
L 130.566109 229.359645 
L 131.212172 229.938454 
L 131.488128 229.984244 
L 132.147177 229.669651 
L 132.390668 229.39234 
L 133.293207 227.76518 
L 134.354828 224.394829 
L 134.942452 221.814534 
L 136.182633 214.853613 
L 139.64345 192.700745 
L 140.497292 188.571251 
L 141.461516 185.176656 
L 141.932265 184.071059 
L 142.646505 183.068586 
L 143.458141 182.807996 
L 144.425612 183.341585 
L 146.016419 185.440126 
L 148.633135 191.029953 
L 150.720663 197.080193 
L 151.269329 199.318872 
L 152.269265 204.699293 
L 153.470487 213.462126 
L 154.713914 222.861665 
L 155.502825 227.035404 
L 155.89241 228.192256 
L 156.17486 228.597243 
L 156.480035 228.590825 
L 156.811183 228.060669 
L 157.268945 226.47344 
L 157.694243 224.220131 
L 158.694179 217.120322 
L 159.690868 210.136041 
L 160.411601 206.652878 
L 160.944035 205.248437 
L 161.349853 204.856654 
L 161.560879 204.870064 
L 161.950464 205.252587 
L 162.482897 206.414553 
L 163.632175 210.180087 
L 164.20032 211.770504 
L 164.713274 212.528989 
L 165.060655 212.543285 
L 165.242461 212.373998 
L 165.456733 212.003292 
L 165.732689 211.257697 
L 166.261876 208.956147 
L 166.739119 205.937416 
L 167.6027 198.638866 
L 169.271424 183.590233 
L 169.859049 180.076203 
L 170.349277 178.394051 
L 170.634973 178.004541 
L 170.823273 178.003604 
L 170.99534 178.180475 
L 171.303761 178.935583 
L 171.634909 180.356473 
L 172.0667 183.095461 
L 172.797172 189.490404 
L 175.615174 215.427548 
L 176.072937 217.297248 
L 176.303441 217.585012 
L 176.488495 217.452229 
L 176.654068 217.043837 
L 176.965737 215.509421 
L 177.381295 211.91176 
L 177.936454 204.595732 
L 178.696145 191.389961 
L 179.959052 170.182803 
L 180.436294 165.533989 
L 180.767441 164.106263 
L 180.929769 164.003563 
L 180.946001 164.015902 
L 181.072617 164.245726 
L 181.296628 165.241722 
L 181.598557 167.710652 
L 182.069306 173.708767 
L 182.903668 187.741799 
L 183.799715 201.437661 
L 184.630831 210.741788 
L 185.286633 216.315289 
L 185.682711 218.218175 
L 185.932695 218.649888 
L 186.104762 218.574805 
L 186.263843 218.232259 
L 186.552785 216.924051 
L 186.883933 214.320984 
L 187.309231 209.251635 
L 187.883869 199.390943 
L 188.588369 183.161136 
L 190.604474 134.295339 
L 191.003799 130.088009 
L 191.260276 129.17603 
L 191.370659 129.194067 
L 191.386892 129.216462 
L 191.532986 129.627799 
L 191.786217 131.147756 
L 192.195281 135.231784 
L 194.263331 158.489626 
L 195.847645 170.306805 
L 196.16256 171.047622 
L 196.324887 171.048643 
L 196.474228 170.793911 
L 196.691747 169.955434 
L 197.022895 167.622667 
L 197.529356 162.101273 
L 198.444881 152.009723 
L 198.714345 151.018619 
L 198.811741 151.040026 
L 198.827974 151.064978 
L 198.961082 151.501192 
L 199.181847 153.145429 
L 199.529228 157.760838 
L 200.379823 169.528296 
L 200.503191 169.795347 
L 200.54215 169.751384 
L 200.652532 169.272526 
L 200.840832 167.202141 
L 201.123281 161.149071 
L 201.538839 146.745565 
L 202.652404 105.866115 
L 202.707596 105.678303 
L 202.75954 105.868396 
L 202.866676 107.514397 
L 203.04199 114.355479 
L 203.301713 134.6759 
L 204.288663 222.192374 
L 204.697728 236.929877 
L 204.830836 238.147354 
L 204.866548 238.03869 
L 204.950959 236.959564 
L 205.103546 231.717501 
L 205.330804 214.813127 
L 205.655459 171.042919 
L 206.155427 107.260812 
L 206.24633 105.976379 
L 206.298275 106.19343 
L 206.392425 106.661745 
L 206.444369 106.432191 
L 206.557999 104.395984 
L 206.976803 90.850811 
L 207.437812 79.327715 
L 207.499497 79.05487 
L 207.551441 79.284536 
L 207.652084 81.20982 
L 207.817658 89.64947 
L 208.083875 117.262676 
L 208.866292 202.905245 
L 208.911744 203.492218 
L 208.963689 202.668355 
L 209.070825 195.647365 
L 209.301329 162.038731 
L 209.687668 114.520275 
L 210.791494 64.244401 
L 211.109655 53.574878 
L 211.119395 53.569312 
L 211.145367 53.698392 
L 211.223284 55.466699 
L 211.372625 65.121936 
L 211.778444 112.130421 
L 212.418013 175.827517 
L 212.427753 175.79674 
L 212.476451 174.653662 
L 212.593327 165.298984 
L 212.869283 119.695501 
L 213.158225 88.639655 
L 213.38873 84.402429 
L 213.778316 76.158572 
L 214.697088 54.097224 
L 214.752279 54.44202 
L 214.849676 57.330377 
L 215.008756 70.276865 
L 215.333411 120.290229 
L 215.748969 173.636324 
L 215.771695 173.815163 
L 215.8139 173.039551 
L 215.917789 165.242296 
L 216.141801 127.411719 
L 216.505414 76.196713 
L 216.680727 73.378121 
L 216.917725 72.682119 
L 217.096285 70.526756 
L 217.713129 62.1092 
L 217.823511 62.027496 
L 217.859223 62.056799 
L 217.969606 62.361003 
L 218.076742 63.486215 
L 218.203357 67.776053 
L 218.368931 82.631167 
L 218.635148 131.337463 
L 218.969542 180.176936 
L 218.976035 180.198855 
L 219.002007 179.860697 
L 219.083171 174.802615 
L 219.28121 145.066451 
L 219.768192 73.572406 
L 219.949999 70.968969 
L 220.011683 70.965028 
L 220.057135 71.007024 
L 220.154531 71.011971 
L 220.180503 70.97178 
L 220.310365 70.470323 
L 220.787607 68.437569 
L 220.872017 68.535959 
L 221.005126 69.201088 
L 221.177193 71.318221 
L 221.33952 76.607083 
L 221.511587 91.215445 
L 221.748585 134.979095 
L 222.073239 186.513425 
L 222.082979 186.44338 
L 222.134924 184.0977 
L 222.277772 164.805646 
L 222.927081 68.266054 
L 223.011491 67.464267 
L 223.063436 67.661125 
L 223.462761 71.143094 
L 223.741964 74.779217 
L 224.232192 84.527774 
L 224.401012 91.655074 
L 224.569833 110.893057 
L 224.855529 176.584735 
L 225.137978 224.691376 
L 225.150964 224.569421 
L 225.209402 220.862348 
L 225.378223 191.497986 
L 225.965847 89.558519 
L 226.24505 70.135753 
L 226.309981 69.601859 
L 226.368419 69.901676 
L 226.563212 72.856407 
L 227.264465 86.829266 
L 227.433286 102.39473 
L 227.702749 152.471848 
L 228.196224 266.138267 
L 228.267648 258.591634 
L 228.598796 175.289088 
L 228.988381 108.835278 
L 229.326022 86.435425 
L 229.592239 78.89644 
L 229.709114 78.526787 
L 229.748073 78.555256 
L 229.881181 78.911877 
L 230.011043 79.927359 
L 230.153891 83.308291 
L 230.348684 94.409783 
L 230.582435 122.369323 
L 230.890857 190.919295 
L 231.238237 295.024267 
L 231.306415 275.728022 
L 231.877807 131.465598 
L 232.212201 94.32229 
L 232.462185 86.06881 
L 232.653731 84.850448 
L 232.656977 84.850801 
L 232.731648 84.982161 
L 232.900468 85.870281 
L 233.053056 87.9919 
L 233.234863 94.416592 
L 233.462121 111.278524 
L 233.731584 150.649388 
L 234.179607 256.386533 
L 234.283497 270.442049 
L 234.332195 266.648953 
L 234.530234 221.320175 
L 234.99449 133.693314 
L 235.315898 108.527277 
L 235.556143 102.880993 
L 235.604841 102.735331 
L 235.660032 102.912798 
L 235.780154 104.397182 
L 236.004166 110.443348 
L 236.276876 124.511184 
L 236.578804 152.720776 
L 236.939171 211.460062 
L 237.267072 257.724792 
L 237.289798 257.374058 
L 237.367715 251.296676 
L 237.666397 202.804584 
L 238.111174 147.643969 
L 238.419596 132.314841 
L 238.637114 129.543701 
L 238.65984 129.544198 
L 238.692305 129.630486 
L 238.796195 130.573233 
L 238.971508 134.603609 
L 239.208506 145.96634 
L 239.516928 172.881195 
L 240.026636 241.938612 
L 240.205196 254.589421 
L 240.237661 254.150443 
L 240.328564 248.412068 
L 240.643479 208.464379 
L 241.07527 167.119551 
L 241.390185 154.697647 
L 241.562252 153.047362 
L 241.584977 153.076114 
L 241.659648 153.577553 
L 241.805743 156.418003 
L 242.036247 166.040189 
L 242.354409 189.928618 
L 242.831651 245.796185 
L 243.081635 264.940087 
L 243.097868 264.826921 
L 243.166045 262.210604 
L 243.364084 243.157339 
L 243.980928 185.44966 
L 244.299089 173.524974 
L 244.484143 171.794578 
L 244.500375 171.807323 
L 244.565306 172.128025 
L 244.698415 174.187854 
L 244.906193 181.48633 
L 245.188643 200.43325 
L 245.620433 247.361742 
L 245.909376 270.577361 
L 245.925609 270.459865 
L 245.993786 267.785093 
L 246.198319 248.072298 
L 246.802176 192.448241 
L 247.133324 179.938868 
L 247.357335 177.610328 
L 247.406033 177.730007 
L 247.509923 178.825857 
L 247.685236 183.564076 
L 247.93522 197.361053 
L 248.29234 231.342225 
L 248.750103 278.835356 
L 248.798801 277.414447 
L 248.948143 262.74994 
L 249.642903 192.170239 
L 250.016256 175.362589 
L 250.26624 171.543079 
L 250.292212 171.516109 
L 250.337664 171.652142 
L 250.441553 172.867854 
L 250.620113 178.053336 
L 250.873344 192.806035 
L 251.220724 227.885694 
L 251.655761 274.989965 
L 251.701213 273.83462 
L 251.831075 261.688141 
L 252.600506 182.174195 
L 252.94464 168.322858 
L 253.171898 165.650267 
L 253.204364 165.688645 
L 253.220596 165.749332 
L 253.321239 166.756347 
L 253.496553 171.219443 
L 253.740044 183.935028 
L 254.061452 214.116365 
L 254.603625 276.761305 
L 254.675049 273.669289 
L 254.895814 246.835814 
L 255.450973 186.865879 
L 255.827572 167.489341 
L 256.100282 162.265476 
L 256.14898 162.140955 
L 256.200925 162.300771 
L 256.311308 163.661038 
L 256.496361 169.189549 
L 256.752838 184.542302 
L 257.096972 220.482684 
L 257.554735 271.882611 
L 257.600186 270.794434 
L 257.726801 259.124524 
L 258.515712 176.817096 
L 258.84686 164.2376 
L 259.048145 162.127428 
L 259.057885 162.132048 
L 259.113076 162.352206 
L 259.233199 163.984826 
L 259.431238 170.217227 
L 259.697455 186.539305 
L 260.051328 224.05956 
L 260.499351 274.368956 
L 260.541556 273.397153 
L 260.661679 262.55935 
L 261.486301 177.219437 
L 261.827188 164.432005 
L 262.028474 162.277191 
L 262.04146 162.287332 
L 262.103145 162.594762 
L 262.233007 164.664998 
L 262.437539 172.083132 
L 262.713495 191.370847 
L 263.106327 236.95838 
L 263.437475 269.904595 
L 263.460201 269.661577 
L 263.538118 265.275823 
L 263.814074 232.052689 
L 264.310796 182.79672 
L 264.661423 166.831509 
L 264.904913 163.361793 
L 264.927639 163.349081 
L 264.966598 163.458093 
L 265.067241 164.519285 
L 265.245801 169.225947 
L 265.499031 182.615275 
L 265.830179 213.641455 
L 266.369105 273.787261 
L 266.434036 271.580332 
L 266.60935 252.749924 
L 267.245673 185.265741 
L 267.609286 168.15128 
L 267.862516 164.120016 
L 267.891735 164.083604 
L 267.937187 164.216443 
L 268.044323 165.460567 
L 268.226129 170.681161 
L 268.47936 185.258511 
L 268.823494 219.852756 
L 269.297489 270.68054 
L 269.339695 269.750221 
L 269.459817 259.73819 
L 270.316905 175.929124 
L 270.63182 166.144058 
L 270.781161 164.965499 
L 270.813626 165.020925 
L 270.901283 165.757142 
L 271.06361 169.446627 
L 271.303855 180.804196 
L 271.618769 207.657301 
L 272.222627 274.867018 
L 272.31353 270.464501 
L 272.602473 235.365163 
L 273.105687 185.721608 
L 273.4693 168.822994 
L 273.722531 164.874204 
L 273.748503 164.847454 
L 273.793955 164.982779 
L 273.901091 166.237187 
L 274.082897 171.491291 
L 274.339375 186.382726 
L 274.683508 221.235322 
L 275.147764 271.381245 
L 275.189969 270.509818 
L 275.306845 260.854626 
L 276.180166 175.603386 
L 276.495081 166.055487 
L 276.641175 164.953866 
L 276.673641 165.013422 
L 276.761297 165.758257 
L 276.923625 169.461398 
L 277.163869 180.88502 
L 277.478784 207.942437 
L 278.079395 275.100408 
L 278.167052 270.904679 
L 278.443008 237.325978 
L 278.952716 186.10841 
L 279.319575 168.611708 
L 279.576052 164.400379 
L 279.608518 164.35579 
L 279.653969 164.491867 
L 279.761105 165.746468 
L 279.942912 170.993947 
L 280.196143 185.640656 
L 280.540276 220.411951 
L 281.007779 271.27589 
L 281.053231 270.293734 
L 281.176599 259.673435 
L 282.007715 176.754426 
L 282.329123 165.992113 
L 282.50119 164.465833 
L 282.523916 164.493936 
L 282.598586 164.985052 
L 282.744681 167.764578 
L 282.968692 176.986659 
L 283.264128 199.590385 
L 283.708905 254.001069 
L 283.942656 274.858311 
L 283.971875 274.317205 
L 284.069271 266.901016 
L 285.062714 172.459717 
L 285.367889 164.621061 
L 285.468532 164.086523 
L 285.513984 164.212531 
L 285.617873 165.385158 
L 285.796433 170.381089 
L 286.046417 184.463126 
L 286.384058 217.855783 
L 286.874287 271.088604 
L 286.919738 269.974144 
L 287.046353 258.795801 
L 287.854743 177.507641 
L 288.179398 166.153182 
L 288.364451 164.424598 
L 288.380684 164.442335 
L 288.448861 164.831716 
L 288.588463 167.256438 
L 288.805981 175.621232 
L 289.094924 196.550525 
L 289.507235 245.381851 
L 289.802671 274.759851 
L 289.831889 274.304669 
L 289.926039 267.442622 
L 290.958441 171.235515 
L 291.25063 164.513821 
L 291.328547 164.18141 
L 291.380492 164.334944 
L 291.490874 165.685112 
L 291.675927 171.199855 
L 291.932404 186.417828 
L 292.279785 222.143854 
L 292.734301 271.076032 
L 292.77326 270.304487 
L 292.883642 261.531067 
L 293.799168 173.638449 
L 294.104343 165.28595 
L 294.224465 164.540075 
L 294.266671 164.640802 
L 294.367313 165.677772 
L 294.542627 170.249061 
L 294.792611 183.382839 
L 295.123759 214.243192 
L 295.665932 274.806126 
L 295.730863 272.401288 
L 295.919162 251.483089 
L 296.529513 186.584214 
L 296.896372 168.756902 
L 297.156096 164.328489 
L 297.191808 164.267594 
L 297.240506 164.415005 
L 297.347642 165.693942 
L 297.532695 171.117121 
L 297.789172 186.189825 
L 298.136553 221.722808 
L 298.594316 271.128995 
L 298.633274 270.377043 
L 298.743657 261.635268 
L 299.662429 173.569246 
L 299.964358 165.330104 
L 300.08448 164.570228 
L 300.126685 164.665993 
L 300.224081 165.640943 
L 300.399395 170.130153 
L 300.649379 183.13609 
L 300.97728 213.434634 
L 301.525946 274.844011 
L 301.594124 272.251547 
L 301.788916 250.316215 
L 302.386281 186.861348 
L 302.75314 168.870465 
L 303.016111 164.322205 
L 303.051823 164.257519 
L 303.103767 164.418599 
L 303.21415 165.78574 
L 303.399203 171.334858 
L 303.65568 186.612657 
L 304.006307 222.823278 
L 304.45433 271.141498 
L 304.493289 270.423643 
L 304.603671 261.737981 
L 305.52569 173.446714 
L 305.827619 165.277212 
L 305.947741 164.543877 
L 305.989946 164.64924 
L 306.090589 165.698355 
L 306.269149 170.416135 
L 306.52238 183.940603 
L 306.856774 215.550615 
L 307.385961 274.837753 
L 307.450892 272.545028 
L 307.632698 252.555796 
L 308.252788 186.463375 
L 308.619648 168.68377 
L 308.879372 164.289106 
L 308.915084 164.233013 
L 308.963782 164.386897 
L 309.074164 165.739534 
L 309.259217 171.26129 
L 309.515695 186.496365 
L 309.863075 222.24766 
L 310.317591 271.129872 
L 310.35655 270.332919 
L 310.470179 261.150707 
L 311.366225 174.335466 
L 311.674647 165.44671 
L 311.807756 164.531364 
L 311.846714 164.616934 
L 311.944111 165.566292 
L 312.116177 169.891503 
L 312.362915 182.495879 
L 312.687569 212.031089 
L 313.245975 274.825389 
L 313.320646 271.933468 
L 313.528425 248.057497 
L 314.10631 186.997897 
L 314.476416 168.812615 
L 314.739386 164.291952 
L 314.775098 164.231501 
L 314.823796 164.379338 
L 314.930932 165.658375 
L 315.115985 171.080009 
L 315.372463 186.153527 
L 315.719843 221.695501 
L 316.177606 271.124166 
L 316.216564 270.373186 
L 316.326947 261.629692 
L 317.245719 173.534582 
L 317.547648 165.29722 
L 317.66777 164.537155 
L 317.709975 164.632447 
L 317.807372 165.605503 
L 317.982685 170.089641 
L 318.232669 183.091493 
L 318.56057 213.392339 
L 319.109236 274.825994 
L 319.177414 272.248816 
L 319.372207 250.323063 
L 319.969571 186.85329 
L 320.336431 168.852528 
L 320.599401 164.302582 
L 320.635113 164.237814 
L 320.687057 164.398717 
L 320.79744 165.765013 
L 320.982493 171.310621 
L 321.23897 186.581422 
L 321.589597 222.785295 
L 322.040867 271.125429 
L 322.076579 270.41615 
L 322.183715 262.097138 
L 323.125213 172.769371 
L 323.423895 165.124351 
L 323.531031 164.5416 
L 323.576483 164.663091 
L 323.680372 165.802306 
L 323.862179 170.77623 
L 324.118656 184.858753 
L 324.456297 217.453525 
L 324.969251 274.829195 
L 325.027689 272.96522 
L 325.190016 255.911926 
L 325.855558 185.147463 
L 326.219171 168.226198 
L 326.472401 164.266471 
L 326.498374 164.239587 
L 326.543825 164.374719 
L 326.650961 165.627212 
L 326.832768 170.869243 
L 327.085999 185.498399 
L 327.430132 220.225801 
L 327.900881 271.128534 
L 327.943087 270.200592 
L 328.063209 260.071543 
L 328.913804 176.025801 
L 329.231965 165.842605 
L 329.391046 164.540381 
L 329.420265 164.589077 
L 329.504675 165.258822 
L 329.663756 168.718477 
L 329.900753 179.568503 
L 330.209175 205.285789 
L 330.829265 274.828711 
L 330.929908 269.774342 
L 331.261056 228.908659 
L 331.738298 183.724222 
L 332.098665 167.725695 
L 332.342156 164.247567 
L 332.361635 164.239095 
L 332.400593 164.350033 
L 332.501236 165.43845 
L 332.67655 170.190157 
L 332.926534 183.962688 
L 333.260928 216.529893 
L 333.760896 271.128207 
L 333.812841 269.798284 
L 333.949196 257.179528 
L 334.708887 179.52658 
L 335.043281 166.765379 
L 335.25106 164.538974 
L 335.2608 164.543746 
L 335.315991 164.766391 
L 335.436113 166.427867 
L 335.634153 172.826783 
L 335.903616 189.692859 
L 336.267229 228.455397 
L 336.692527 274.828877 
L 336.731485 273.938886 
L 336.848361 263.741843 
L 337.695709 178.074139 
L 338.03335 166.04823 
L 338.218403 164.236809 
L 338.237882 164.261351 
L 338.312553 164.75385 
L 338.458647 167.585193 
L 338.679412 176.915274 
L 338.974848 200.230365 
L 339.624157 271.126548 
L 339.731293 265.652619 
L 340.068934 224.509258 
L 340.53319 181.71034 
L 340.877324 167.367758 
L 341.107828 164.540243 
L 341.140294 164.580903 
L 341.15328 164.629335 
L 341.250676 165.590349 
L 341.422743 169.936776 
L 341.669481 182.57394 
L 341.994135 212.154733 
L 342.552541 274.828846 
L 342.627212 271.858123 
L 342.838237 247.501001 
L 343.409629 187.158947 
L 343.779735 168.885683 
L 344.042705 164.306379 
L 344.081664 164.237852 
L 344.130362 164.39135 
L 344.240745 165.743211 
L 344.425798 171.263281 
L 344.682275 186.493903 
L 345.029655 222.238295 
L 345.484172 271.127694 
L 345.52313 270.334904 
L 345.636759 261.161563 
L 346.532806 174.347258 
L 346.841228 165.455463 
L 346.974336 164.539519 
L 347.013295 164.624978 
L 347.110691 165.574108 
L 347.282758 169.898655 
L 347.529495 182.500222 
L 347.85415 212.031111 
L 348.412556 274.827825 
L 348.487226 271.939491 
L 348.695005 248.067971 
L 349.27289 187.007278 
L 349.642996 168.821212 
L 349.905967 164.2984 
L 349.941679 164.237675 
L 349.990377 164.385182 
L 350.097513 165.663695 
L 350.282566 171.084866 
L 350.539043 186.157134 
L 350.886423 221.696336 
L 351.344186 271.127752 
L 351.383145 270.377593 
L 351.493527 261.635451 
L 352.4123 173.539731 
L 352.714228 165.300423 
L 352.834351 164.539533 
L 352.876556 164.634585 
L 352.973952 165.607215 
L 353.149265 170.090924 
L 353.399249 183.091725 
L 353.727151 213.389948 
L 354.275817 274.828847 
L 354.343994 272.253243 
L 354.538787 250.328646 
L 355.136151 186.855891 
L 355.503011 168.853918 
L 355.765981 164.302378 
L 355.801693 164.237321 
L 355.853638 164.397798 
L 355.96402 165.763231 
L 356.149073 171.307664 
L 356.405551 186.577091 
L 356.756177 222.778879 
L 357.207447 271.126743 
L 357.243159 270.419113 
L 357.350295 262.10289 
L 358.291793 172.770038 
L 358.590476 165.123184 
L 358.697612 164.539581 
L 358.743063 164.660693 
L 358.846953 165.799061 
L 359.028759 170.771684 
L 359.285236 184.852504 
L 359.622877 217.444393 
L 360.135831 274.829021 
L 360.194269 272.968911 
L 360.356596 255.919368 
L 361.022138 185.150039 
L 361.385751 168.226165 
L 361.638982 164.26494 
L 361.664954 164.237852 
L 361.710406 164.372605 
L 361.817542 165.624126 
L 361.999348 170.864379 
L 362.252579 185.491139 
L 362.596713 220.21559 
L 363.067462 271.127839 
L 363.109667 270.203037 
L 363.229789 260.079153 
L 364.080384 176.028078 
L 364.398545 165.842732 
L 364.557626 164.539405 
L 364.586845 164.587868 
L 364.671255 165.256902 
L 364.830336 168.715124 
L 365.067334 179.562966 
L 365.375756 205.277387 
L 365.995846 274.827812 
L 366.096489 269.780547 
L 366.427636 228.917256 
L 366.904879 183.728605 
L 367.265245 167.727216 
L 367.508736 164.247612 
L 367.528215 164.239004 
L 367.567174 164.349664 
L 367.667817 165.437304 
L 367.84313 170.187434 
L 368.093114 183.957355 
L 368.427508 216.521346 
L 368.927476 271.127714 
L 368.979421 269.801473 
L 369.115776 257.1878 
L 369.875468 179.530758 
L 370.209862 166.767117 
L 370.417641 164.539417 
L 370.42738 164.544123 
L 370.482572 164.766382 
L 370.602694 166.426958 
L 370.800733 172.824213 
L 371.070196 189.687744 
L 371.433809 228.447206 
L 371.859107 274.828835 
L 371.898065 273.941741 
L 372.014941 263.749591 
L 372.862289 178.078135 
L 373.19993 166.049901 
L 373.384983 164.237285 
L 373.404463 164.261697 
L 373.475887 164.719053 
L 373.618735 167.404427 
L 373.836253 176.361281 
L 374.128442 198.929739 
L 374.592698 255.84731 
L 374.790737 271.126764 
L 374.819956 270.643318 
L 374.914106 264.115067 
L 375.975727 169.20254 
L 376.238697 164.626769 
L 376.280902 164.53959 
L 376.332847 164.696319 
L 376.443229 166.026468 
L 376.631529 171.53705 
L 376.894499 186.782763 
L 377.241879 221.770215 
L 377.719121 274.828994 
L 377.76782 273.525412 
L 377.904175 260.393738 
L 378.65088 182.23108 
L 379.004753 167.286889 
L 379.238505 164.239281 
L 379.261231 164.252567 
L 379.287203 164.338945 
L 379.387846 165.401303 
L 379.563159 170.104833 
L 379.809897 183.562828 
L 380.141044 215.482923 
L 380.650752 271.127854 
L 380.702697 269.747634 
L 380.842298 256.67274 
L 381.589004 180.030586 
L 381.926644 166.8824 
L 382.140916 164.53944 
L 382.147409 164.542182 
L 382.199354 164.72962 
L 382.31623 166.252102 
L 382.511023 172.304 
L 382.777239 188.46656 
L 383.134359 225.686818 
L 383.579136 274.827765 
L 383.624588 273.743581 
L 383.751203 262.096599 
L 384.54336 180.359081 
L 384.89074 166.702841 
L 385.105012 164.237191 
L 385.111505 164.239006 
L 385.16345 164.424572 
L 385.277079 165.907626 
L 385.468625 171.903907 
L 385.731596 188.211313 
L 386.088716 226.20471 
L 386.510767 271.127699 
L 386.543232 270.609665 
L 386.640628 263.684513 
L 387.67303 169.987518 
L 387.94574 164.704024 
L 388.004177 164.539839 
L 388.056122 164.702592 
L 388.166505 166.045921 
L 388.354804 171.580133 
L 388.617775 186.863737 
L 388.965155 221.900955 
L 389.442397 274.828862 
L 389.491095 273.469318 
L 389.630697 259.864943 
L 390.367663 182.567101 
L 390.721536 167.422181 
L 390.958534 164.241035 
L 390.978013 164.244111 
L 391.007232 164.328719 
L 391.104628 165.314123 
L 391.276695 169.782762 
L 391.520186 182.711963 
L 391.848087 213.689152 
L 392.374028 271.126813 
L 392.432465 269.336239 
L 392.5883 253.768245 
L 393.273321 182.322897 
L 393.617455 167.604459 
L 393.851206 164.546221 
L 393.870685 164.543058 
L 393.906397 164.64423 
L 394.00704 165.691217 
L 394.1856 170.403451 
L 394.438831 183.917766 
L 394.769978 215.137409 
L 395.302412 274.828975 
L 395.367343 272.556186 
L 395.549149 252.588126 
L 396.169239 186.483605 
L 396.536099 168.694986 
L 396.795823 164.294653 
L 396.831535 164.237868 
L 396.880233 164.390842 
L 396.990615 165.741511 
L 397.175668 171.259467 
L 397.432145 186.486602 
L 397.779526 222.226437 
L 398.234042 271.127865 
L 398.273001 270.338766 
L 398.38663 261.172079 
L 398.487273 248.994294 
L 398.487273 248.994294 
" style="fill:none;stroke:#1f77b4;stroke-linecap:square;stroke-width:1.5;"/>
   </g>
   <g id="patch_3">
    <path d="M 57.6 307.584 
L 57.6 41.472 
" style="fill:none;stroke:#000000;stroke-linecap:square;stroke-linejoin:miter;stroke-width:0.8;"/>
   </g>
   <g id="patch_4">
    <path d="M 414.72 307.584 
L 414.72 41.472 
" style="fill:none;stroke:#000000;stroke-linecap:square;stroke-linejoin:miter;stroke-width:0.8;"/>
   </g>
   <g id="patch_5">
    <path d="M 57.6 307.584 
L 414.72 307.584 
" style="fill:none;stroke:#000000;stroke-linecap:square;stroke-linejoin:miter;stroke-width:0.8;"/>
   </g>
   <g id="patch_6">
    <path d="M 57.6 41.472 
L 414.72 41.472 
" style="fill:none;stroke:#000000;stroke-linecap:square;stroke-linejoin:miter;stroke-width:0.8;"/>
   </g>
  </g>
 </g>
 <defs>
  <clipPath id="pe26ff15b05">
   <rect height="266.112" width="357.12" x="57.6" y="41.472"/>
  </clipPath>
 </defs>
</svg>
