<?xml version="1.0" encoding="utf-8" standalone="no"?>
<!DOCTYPE svg PUBLIC "-//W3C//DTD SVG 1.1//EN"
  "http://www.w3.org/Graphics/SVG/1.1/DTD/svg11.dtd">
<!-- Created with matplotlib (https://matplotlib.org/) -->
<svg height="345.6pt" version="1.1" viewBox="0 0 460.8 345.6" width="460.8pt" xmlns="http://www.w3.org/2000/svg" xmlns:xlink="http://www.w3.org/1999/xlink">
 <metadata>
  <rdf:RDF xmlns:cc="http://creativecommons.org/ns#" xmlns:dc="http://purl.org/dc/elements/1.1/" xmlns:rdf="http://www.w3.org/1999/02/22-rdf-syntax-ns#">
   <cc:Work>
    <dc:type rdf:resource="http://purl.org/dc/dcmitype/StillImage"/>
    <dc:date>2020-07-23T21:13:52.329828</dc:date>
    <dc:format>image/svg+xml</dc:format>
    <dc:creator>
     <cc:Agent>
      <dc:title>Matplotlib v3.3.0, https://matplotlib.org/</dc:title>
     </cc:Agent>
    </dc:creator>
   </cc:Work>
  </rdf:RDF>
 </metadata>
 <defs>
  <style type="text/css">*{stroke-linecap:butt;stroke-linejoin:round;}</style>
 </defs>
 <g id="figure_1">
  <g id="patch_1">
   <path d="M 0 345.6 
L 460.8 345.6 
L 460.8 0 
L 0 0 
z
" style="fill:#ffffff;"/>
  </g>
  <g id="axes_1">
   <g id="patch_2">
    <path d="M 57.6 307.584 
L 414.72 307.584 
L 414.72 41.472 
L 57.6 41.472 
z
" style="fill:#ffffff;"/>
   </g>
   <g id="matplotlib.axis_1">
    <g id="xtick_1">
     <g id="line2d_1">
      <defs>
       <path d="M 0 0 
L 0 3.5 
" id="m1a1b587251" style="stroke:#000000;stroke-width:0.8;"/>
      </defs>
      <g>
       <use style="stroke:#000000;stroke-width:0.8;" x="73.832727" xlink:href="#m1a1b587251" y="307.584"/>
      </g>
     </g>
     <g id="text_1">
      <!-- $\mathdefault{0}$ -->
      <g transform="translate(71.34206 321.502498)scale(0.1 -0.1)">
       <defs>
        <path d="M 42 31.640625 
C 42 37.75 41.90625 48.125 37.703125 56.109375 
C 34 63.109375 28.09375 65.59375 22.90625 65.59375 
C 18.09375 65.59375 12 63.40625 8.203125 56.203125 
C 4.203125 48.71875 3.796875 39.4375 3.796875 31.640625 
C 3.796875 25.953125 3.90625 17.28125 7 9.671875 
C 11.296875 -0.609375 19 -2 22.90625 -2 
C 27.5 -2 34.5 -0.109375 38.59375 9.375 
C 41.59375 16.28125 42 24.359375 42 31.640625 
z
M 22.90625 -0.40625 
C 16.5 -0.40625 12.703125 5.078125 11.296875 12.6875 
C 10.203125 18.5625 10.203125 27.15625 10.203125 32.75 
C 10.203125 40.4375 10.203125 46.828125 11.5 52.921875 
C 13.40625 61.390625 19 64 22.90625 64 
C 27 64 32.296875 61.296875 34.203125 53.125 
C 35.5 47.4375 35.59375 40.734375 35.59375 32.75 
C 35.59375 26.25 35.59375 18.265625 34.40625 12.375 
C 32.296875 1.484375 26.40625 -0.40625 22.90625 -0.40625 
z
" id="CMR17-48"/>
       </defs>
       <use transform="scale(0.996264)" xlink:href="#CMR17-48"/>
      </g>
     </g>
    </g>
    <g id="xtick_2">
     <g id="line2d_2">
      <g>
       <use style="stroke:#000000;stroke-width:0.8;" x="138.763636" xlink:href="#m1a1b587251" y="307.584"/>
      </g>
     </g>
     <g id="text_2">
      <!-- $\mathdefault{20000}$ -->
      <g transform="translate(126.310298 321.502498)scale(0.1 -0.1)">
       <defs>
        <path d="M 41.703125 15.453125 
L 39.90625 15.453125 
C 38.90625 8.375 38.09375 7.171875 37.703125 6.5625 
C 37.203125 5.765625 30 5.765625 28.59375 5.765625 
L 9.40625 5.765625 
C 13 9.671875 20 16.75 28.5 24.953125 
C 34.59375 30.734375 41.703125 37.53125 41.703125 47.421875 
C 41.703125 59.21875 32.296875 66 21.796875 66 
C 10.796875 66 4.09375 56.3125 4.09375 47.34375 
C 4.09375 43.4375 7 42.9375 8.203125 42.9375 
C 9.203125 42.9375 12.203125 43.546875 12.203125 47.03125 
C 12.203125 50.109375 9.59375 51 8.203125 51 
C 7.59375 51 7 50.90625 6.59375 50.703125 
C 8.5 59.21875 14.296875 63.40625 20.40625 63.40625 
C 29.09375 63.40625 34.796875 56.515625 34.796875 47.421875 
C 34.796875 38.734375 29.703125 31.25 24 24.75 
L 4.09375 2.28125 
L 4.09375 0 
L 39.296875 0 
z
" id="CMR17-50"/>
       </defs>
       <use transform="scale(0.996264)" xlink:href="#CMR17-50"/>
       <use transform="translate(45.690477 0)scale(0.996264)" xlink:href="#CMR17-48"/>
       <use transform="translate(91.380954 0)scale(0.996264)" xlink:href="#CMR17-48"/>
       <use transform="translate(137.071431 0)scale(0.996264)" xlink:href="#CMR17-48"/>
       <use transform="translate(182.761908 0)scale(0.996264)" xlink:href="#CMR17-48"/>
      </g>
     </g>
    </g>
    <g id="xtick_3">
     <g id="line2d_3">
      <g>
       <use style="stroke:#000000;stroke-width:0.8;" x="203.694545" xlink:href="#m1a1b587251" y="307.584"/>
      </g>
     </g>
     <g id="text_3">
      <!-- $\mathdefault{40000}$ -->
      <g transform="translate(191.241207 321.502498)scale(0.1 -0.1)">
       <defs>
        <path d="M 33.59375 64.40625 
C 33.59375 66.5 33.5 66.5 31.703125 66.5 
L 2 19.59375 
L 2 17 
L 27.796875 17 
L 27.796875 7.140625 
C 27.796875 3.5 27.59375 2.5 20.59375 2.5 
L 18.703125 2.5 
L 18.703125 0 
C 21.90625 0 27.296875 0 30.703125 0 
C 34.09375 0 39.5 0 42.703125 0 
L 42.703125 2.5 
L 40.796875 2.5 
C 33.796875 2.5 33.59375 3.5 33.59375 7.140625 
L 33.59375 17 
L 43.796875 17 
L 43.796875 19.59375 
L 33.59375 19.59375 
z
M 28.09375 57.859375 
L 28.09375 19.59375 
L 4 19.59375 
z
" id="CMR17-52"/>
       </defs>
       <use transform="scale(0.996264)" xlink:href="#CMR17-52"/>
       <use transform="translate(45.690477 0)scale(0.996264)" xlink:href="#CMR17-48"/>
       <use transform="translate(91.380954 0)scale(0.996264)" xlink:href="#CMR17-48"/>
       <use transform="translate(137.071431 0)scale(0.996264)" xlink:href="#CMR17-48"/>
       <use transform="translate(182.761908 0)scale(0.996264)" xlink:href="#CMR17-48"/>
      </g>
     </g>
    </g>
    <g id="xtick_4">
     <g id="line2d_4">
      <g>
       <use style="stroke:#000000;stroke-width:0.8;" x="268.625455" xlink:href="#m1a1b587251" y="307.584"/>
      </g>
     </g>
     <g id="text_4">
      <!-- $\mathdefault{60000}$ -->
      <g transform="translate(256.172116 321.502498)scale(0.1 -0.1)">
       <defs>
        <path d="M 10.59375 34 
C 10.59375 57.65625 21.796875 63 28.296875 63 
C 30.40625 63 35.5 62.640625 37.5 59 
C 35.90625 59 32.90625 59 32.90625 55.515625 
C 32.90625 52.828125 35.09375 51.921875 36.5 51.921875 
C 37.40625 51.921875 40.09375 52.3125 40.09375 55.625 
C 40.09375 61.78125 35.09375 65.296875 28.203125 65.296875 
C 16.296875 65.296875 3.796875 52.96875 3.796875 31 
C 3.796875 3.953125 15.09375 -2 23.09375 -2 
C 32.796875 -2 42 6.671875 42 20.046875 
C 42 32.515625 33.90625 41.59375 23.703125 41.59375 
C 17.59375 41.59375 13.09375 37.609375 10.59375 30.625 
z
M 23.09375 0.390625 
C 10.796875 0.390625 10.796875 18.75 10.796875 22.4375 
C 10.796875 29.625 14.203125 40 23.5 40 
C 25.203125 40 30.09375 40 33.40625 33.125 
C 35.203125 29.21875 35.203125 25.140625 35.203125 20.140625 
C 35.203125 14.75 35.203125 10.78125 33.09375 6.78125 
C 30.90625 2.671875 27.703125 0.390625 23.09375 0.390625 
z
" id="CMR17-54"/>
       </defs>
       <use transform="scale(0.996264)" xlink:href="#CMR17-54"/>
       <use transform="translate(45.690477 0)scale(0.996264)" xlink:href="#CMR17-48"/>
       <use transform="translate(91.380954 0)scale(0.996264)" xlink:href="#CMR17-48"/>
       <use transform="translate(137.071431 0)scale(0.996264)" xlink:href="#CMR17-48"/>
       <use transform="translate(182.761908 0)scale(0.996264)" xlink:href="#CMR17-48"/>
      </g>
     </g>
    </g>
    <g id="xtick_5">
     <g id="line2d_5">
      <g>
       <use style="stroke:#000000;stroke-width:0.8;" x="333.556364" xlink:href="#m1a1b587251" y="307.584"/>
      </g>
     </g>
     <g id="text_5">
      <!-- $\mathdefault{80000}$ -->
      <g transform="translate(321.103026 321.502498)scale(0.1 -0.1)">
       <defs>
        <path d="M 27.203125 35.375 
C 33.5 38.546875 39.90625 43.328125 39.90625 50.984375 
C 39.90625 60.015625 31.09375 65.296875 23 65.296875 
C 13.90625 65.296875 5.90625 58.734375 5.90625 49.6875 
C 5.90625 47.203125 6.5 42.921875 10.40625 39.140625 
C 11.40625 38.15625 15.59375 35.171875 18.296875 33.28125 
C 13.796875 30.984375 3.296875 25.53125 3.296875 14.59375 
C 3.296875 4.359375 13.09375 -2 22.796875 -2 
C 33.5 -2 42.5 5.65625 42.5 15.78125 
C 42.5 24.84375 36.40625 29.015625 32.40625 31.703125 
z
M 14.09375 44.09375 
C 13.296875 44.59375 9.296875 47.671875 9.296875 52.359375 
C 9.296875 58.421875 15.59375 63 22.796875 63 
C 30.703125 63 36.5 57.4375 36.5 50.96875 
C 36.5 41.703125 26.09375 36.421875 25.59375 36.421875 
C 25.5 36.421875 25.40625 36.421875 24.59375 37.03125 
z
M 32.5 23.734375 
C 34 22.640625 38.796875 19.375 38.796875 13.296875 
C 38.796875 5.953125 31.40625 0.390625 23 0.390625 
C 13.90625 0.390625 7 6.84375 7 14.6875 
C 7 22.546875 13.09375 29.09375 20 32.1875 
z
" id="CMR17-56"/>
       </defs>
       <use transform="scale(0.996264)" xlink:href="#CMR17-56"/>
       <use transform="translate(45.690477 0)scale(0.996264)" xlink:href="#CMR17-48"/>
       <use transform="translate(91.380954 0)scale(0.996264)" xlink:href="#CMR17-48"/>
       <use transform="translate(137.071431 0)scale(0.996264)" xlink:href="#CMR17-48"/>
       <use transform="translate(182.761908 0)scale(0.996264)" xlink:href="#CMR17-48"/>
      </g>
     </g>
    </g>
    <g id="xtick_6">
     <g id="line2d_6">
      <g>
       <use style="stroke:#000000;stroke-width:0.8;" x="398.487273" xlink:href="#m1a1b587251" y="307.584"/>
      </g>
     </g>
     <g id="text_6">
      <!-- $\mathdefault{100000}$ -->
      <g transform="translate(383.543267 321.502498)scale(0.1 -0.1)">
       <defs>
        <path d="M 26.59375 63.40625 
C 26.59375 65.5 26.5 65.5 25.09375 65.5 
C 21.203125 61.1875 15.296875 59.796875 9.703125 59.796875 
C 9.40625 59.796875 8.90625 59.796875 8.796875 59.5 
C 8.703125 59.296875 8.703125 59.09375 8.703125 57 
C 11.796875 57 17 57.59375 21 59.984375 
L 21 7.203125 
C 21 3.6875 20.796875 2.5 12.203125 2.5 
L 9.203125 2.5 
L 9.203125 0 
C 14 0 19 0 23.796875 0 
C 28.59375 0 33.59375 0 38.40625 0 
L 38.40625 2.5 
L 35.40625 2.5 
C 26.796875 2.5 26.59375 3.59375 26.59375 7.15625 
z
" id="CMR17-49"/>
       </defs>
       <use transform="scale(0.996264)" xlink:href="#CMR17-49"/>
       <use transform="translate(45.690477 0)scale(0.996264)" xlink:href="#CMR17-48"/>
       <use transform="translate(91.380954 0)scale(0.996264)" xlink:href="#CMR17-48"/>
       <use transform="translate(137.071431 0)scale(0.996264)" xlink:href="#CMR17-48"/>
       <use transform="translate(182.761908 0)scale(0.996264)" xlink:href="#CMR17-48"/>
       <use transform="translate(228.452386 0)scale(0.996264)" xlink:href="#CMR17-48"/>
      </g>
     </g>
    </g>
   </g>
   <g id="matplotlib.axis_2">
    <g id="ytick_1">
     <g id="line2d_7">
      <defs>
       <path d="M 0 0 
L -3.5 0 
" id="m6784ffb749" style="stroke:#000000;stroke-width:0.8;"/>
      </defs>
      <g>
       <use style="stroke:#000000;stroke-width:0.8;" x="57.6" xlink:href="#m6784ffb749" y="296.92473"/>
      </g>
     </g>
     <g id="text_7">
      <!-- $\mathdefault{0.00}$ -->
      <g transform="translate(32.888586 300.383979)scale(0.1 -0.1)">
       <defs>
        <path d="M 18.40625 4.796875 
C 18.40625 7.6875 16 9.671875 13.59375 9.671875 
C 10.703125 9.671875 8.703125 7.28125 8.703125 4.890625 
C 8.703125 2 11.09375 0 13.5 0 
C 16.40625 0 18.40625 2.390625 18.40625 4.796875 
z
" id="CMMI12-58"/>
       </defs>
       <use transform="scale(0.996264)" xlink:href="#CMR17-48"/>
       <use transform="translate(45.690477 0)scale(0.996264)" xlink:href="#CMMI12-58"/>
       <use transform="translate(72.787654 0)scale(0.996264)" xlink:href="#CMR17-48"/>
       <use transform="translate(118.478131 0)scale(0.996264)" xlink:href="#CMR17-48"/>
      </g>
     </g>
    </g>
    <g id="ytick_2">
     <g id="line2d_8">
      <g>
       <use style="stroke:#000000;stroke-width:0.8;" x="57.6" xlink:href="#m6784ffb749" y="257.75285"/>
      </g>
     </g>
     <g id="text_8">
      <!-- $\mathdefault{0.02}$ -->
      <g transform="translate(32.888586 261.212099)scale(0.1 -0.1)">
       <use transform="scale(0.996264)" xlink:href="#CMR17-48"/>
       <use transform="translate(45.690477 0)scale(0.996264)" xlink:href="#CMMI12-58"/>
       <use transform="translate(72.787654 0)scale(0.996264)" xlink:href="#CMR17-48"/>
       <use transform="translate(118.478131 0)scale(0.996264)" xlink:href="#CMR17-50"/>
      </g>
     </g>
    </g>
    <g id="ytick_3">
     <g id="line2d_9">
      <g>
       <use style="stroke:#000000;stroke-width:0.8;" x="57.6" xlink:href="#m6784ffb749" y="218.580969"/>
      </g>
     </g>
     <g id="text_9">
      <!-- $\mathdefault{0.04}$ -->
      <g transform="translate(32.888586 222.040219)scale(0.1 -0.1)">
       <use transform="scale(0.996264)" xlink:href="#CMR17-48"/>
       <use transform="translate(45.690477 0)scale(0.996264)" xlink:href="#CMMI12-58"/>
       <use transform="translate(72.787654 0)scale(0.996264)" xlink:href="#CMR17-48"/>
       <use transform="translate(118.478131 0)scale(0.996264)" xlink:href="#CMR17-52"/>
      </g>
     </g>
    </g>
    <g id="ytick_4">
     <g id="line2d_10">
      <g>
       <use style="stroke:#000000;stroke-width:0.8;" x="57.6" xlink:href="#m6784ffb749" y="179.409089"/>
      </g>
     </g>
     <g id="text_10">
      <!-- $\mathdefault{0.06}$ -->
      <g transform="translate(32.888586 182.868338)scale(0.1 -0.1)">
       <use transform="scale(0.996264)" xlink:href="#CMR17-48"/>
       <use transform="translate(45.690477 0)scale(0.996264)" xlink:href="#CMMI12-58"/>
       <use transform="translate(72.787654 0)scale(0.996264)" xlink:href="#CMR17-48"/>
       <use transform="translate(118.478131 0)scale(0.996264)" xlink:href="#CMR17-54"/>
      </g>
     </g>
    </g>
    <g id="ytick_5">
     <g id="line2d_11">
      <g>
       <use style="stroke:#000000;stroke-width:0.8;" x="57.6" xlink:href="#m6784ffb749" y="140.237209"/>
      </g>
     </g>
     <g id="text_11">
      <!-- $\mathdefault{0.08}$ -->
      <g transform="translate(32.888586 143.696458)scale(0.1 -0.1)">
       <use transform="scale(0.996264)" xlink:href="#CMR17-48"/>
       <use transform="translate(45.690477 0)scale(0.996264)" xlink:href="#CMMI12-58"/>
       <use transform="translate(72.787654 0)scale(0.996264)" xlink:href="#CMR17-48"/>
       <use transform="translate(118.478131 0)scale(0.996264)" xlink:href="#CMR17-56"/>
      </g>
     </g>
    </g>
    <g id="ytick_6">
     <g id="line2d_12">
      <g>
       <use style="stroke:#000000;stroke-width:0.8;" x="57.6" xlink:href="#m6784ffb749" y="101.065329"/>
      </g>
     </g>
     <g id="text_12">
      <!-- $\mathdefault{0.10}$ -->
      <g transform="translate(32.888586 104.524578)scale(0.1 -0.1)">
       <use transform="scale(0.996264)" xlink:href="#CMR17-48"/>
       <use transform="translate(45.690477 0)scale(0.996264)" xlink:href="#CMMI12-58"/>
       <use transform="translate(72.787654 0)scale(0.996264)" xlink:href="#CMR17-49"/>
       <use transform="translate(118.478131 0)scale(0.996264)" xlink:href="#CMR17-48"/>
      </g>
     </g>
    </g>
    <g id="ytick_7">
     <g id="line2d_13">
      <g>
       <use style="stroke:#000000;stroke-width:0.8;" x="57.6" xlink:href="#m6784ffb749" y="61.893449"/>
      </g>
     </g>
     <g id="text_13">
      <!-- $\mathdefault{0.12}$ -->
      <g transform="translate(32.888586 65.352698)scale(0.1 -0.1)">
       <use transform="scale(0.996264)" xlink:href="#CMR17-48"/>
       <use transform="translate(45.690477 0)scale(0.996264)" xlink:href="#CMMI12-58"/>
       <use transform="translate(72.787654 0)scale(0.996264)" xlink:href="#CMR17-49"/>
       <use transform="translate(118.478131 0)scale(0.996264)" xlink:href="#CMR17-50"/>
      </g>
     </g>
    </g>
   </g>
   <g id="line2d_14">
    <path clip-path="url(#p97e474ca78)" d="M 73.832727 101.065329 
L 74.761239 101.146159 
L 74.790458 102.425476 
L 74.845649 121.649602 
L 74.904087 147.939883 
L 74.949539 118.519913 
L 75.079401 97.63704 
L 75.08914 97.715855 
L 75.241728 103.063451 
L 75.332631 112.246122 
L 75.443014 118.89838 
L 75.478726 116.801546 
L 75.585862 100.466761 
L 75.689751 101.514177 
L 75.936489 105.036713 
L 75.965708 104.799519 
L 76.027392 101.28331 
L 76.050118 100.589121 
L 76.115049 102.605333 
L 76.209199 103.827048 
L 76.241664 103.381995 
L 76.316335 99.743836 
L 76.371526 101.992249 
L 76.426717 104.786187 
L 76.494895 106.476717 
L 76.546839 105.72235 
L 76.71566 102.191336 
L 76.722153 102.200162 
L 76.952657 104.050941 
L 77.004602 104.120471 
L 77.066287 103.824597 
L 77.069533 103.914076 
L 77.15719 103.410516 
L 77.160436 103.509797 
L 77.163683 103.410011 
L 77.257833 103.742042 
L 77.261079 103.685637 
L 77.394188 104.533322 
L 77.397434 104.481405 
L 77.491584 104.648981 
L 77.494831 104.615555 
L 77.530543 104.690107 
L 77.592227 104.477239 
L 77.595473 104.477477 
L 77.77728 103.320472 
L 77.78702 103.325417 
L 77.855197 103.522486 
L 78.14414 105.332972 
L 78.215564 105.050507 
L 78.329193 104.540759 
L 78.355165 104.556213 
L 78.494767 104.969424 
L 78.498013 104.937433 
L 78.58567 105.158035 
L 78.588916 105.11448 
L 78.598656 105.160641 
L 78.67982 105.082871 
L 78.696052 105.129509 
L 78.741504 105.140791 
L 78.809681 105.018027 
L 78.812928 105.055987 
L 78.887599 104.717718 
L 78.890845 104.750049 
L 78.978502 104.467338 
L 79.010967 104.519771 
L 79.221993 106.327532 
L 79.273937 106.47282 
L 79.342115 106.223415 
L 79.345361 106.247991 
L 79.407046 105.887222 
L 79.410292 105.913822 
L 79.484963 105.720923 
L 79.527168 105.807516 
L 79.530415 105.775333 
L 79.611578 106.028769 
L 79.614825 106.000167 
L 79.74144 106.287583 
L 79.744687 106.255253 
L 79.799878 106.318138 
L 79.848576 106.284961 
L 79.975191 106.468944 
L 79.978438 106.442525 
L 80.066095 106.597319 
L 80.069341 106.568758 
L 80.195956 106.762274 
L 80.199203 106.743175 
L 80.254394 107.03948 
L 80.257641 107.03094 
L 80.442694 108.203186 
L 80.475159 108.235268 
L 80.562816 108.134323 
L 80.588788 108.121762 
L 80.702417 108.343817 
L 80.705664 108.331197 
L 80.754362 108.558891 
L 80.757609 108.550011 
L 80.936169 109.369086 
L 80.939415 109.359539 
L 80.98162 109.542075 
L 80.984867 109.532512 
L 81.163427 110.251712 
L 81.166673 110.244247 
L 81.202385 110.405441 
L 81.205632 110.398284 
L 81.429644 111.55775 
L 81.471849 111.88142 
L 81.69586 113.48953 
L 81.699107 113.488343 
L 81.71534 113.582643 
L 81.718586 113.581441 
L 82.046487 115.736649 
L 82.114665 116.219283 
L 82.436073 118.713232 
L 82.523729 119.349086 
L 82.962013 123.230051 
L 83.088628 124.318808 
L 83.474967 127.725903 
L 83.747677 130.187555 
L 83.984675 132.631824 
L 84.526848 138.140626 
L 84.906694 142.195388 
L 86.039738 155.405947 
L 86.627363 163.037159 
L 89.721321 212.117657 
L 91.198499 240.839525 
L 93.312 286.175015 
L 93.792489 295.488 
L 93.834694 295.209665 
L 94.029487 291.349676 
L 96.720873 233.925144 
L 98.626595 199.210734 
L 99.90898 179.986489 
L 101.194612 164.301364 
L 102.395834 152.787092 
L 103.470441 144.897529 
L 104.311296 140.185162 
L 105.187863 136.517186 
L 105.827433 134.61253 
L 106.450769 133.336413 
L 106.846848 132.827185 
L 107.262406 132.515125 
L 107.593553 132.452629 
L 107.927948 132.507838 
L 108.58375 133.09381 
L 109.233059 134.223617 
L 110.073914 136.504227 
L 110.713484 138.821605 
L 111.706927 143.446545 
L 112.960093 150.982306 
L 114.531421 162.716887 
L 116.846208 182.86132 
L 120.845952 217.309167 
L 122.329623 227.062428 
L 123.138013 231.211696 
L 124.176908 235.182789 
L 125.053475 237.332879 
L 125.842385 238.351309 
L 126.186519 238.543083 
L 126.475462 238.586923 
L 127.215674 238.265126 
L 128.082502 237.166583 
L 128.537018 236.314604 
L 129.069452 235.111504 
L 129.705775 233.419798 
L 130.475206 231.062324 
L 132.481571 223.781724 
L 135.919663 210.302992 
L 137.711756 204.36281 
L 139.036346 200.955299 
L 140.17913 198.794836 
L 141.185559 197.501301 
L 142.127057 196.783756 
L 143.03609 196.51337 
L 143.980835 196.625051 
L 144.555473 196.870218 
L 145.707997 197.71584 
L 146.441716 198.467701 
L 147.276079 199.495217 
L 149.204527 202.424553 
L 152.850397 209.092738 
L 155.743069 214.030052 
L 156.778717 215.42311 
L 158.187718 216.859098 
L 159.437638 217.648811 
L 160.164864 217.898796 
L 160.875857 218.002375 
L 162.14201 217.87443 
L 163.615942 217.307686 
L 165.547636 216.077708 
L 166.855994 215.042784 
L 171.729059 210.876843 
L 173.92697 209.415295 
L 175.076247 208.873685 
L 176.167087 208.520302 
L 177.241693 208.325451 
L 178.959116 208.305955 
L 180.173324 208.476359 
L 181.527133 208.805932 
L 184.663296 209.929392 
L 189.068858 211.733504 
L 192.000489 212.631871 
L 193.549091 212.905914 
L 195.837905 213.030406 
L 197.552081 212.932933 
L 199.568186 212.669715 
L 210.213609 210.879505 
L 213.447168 210.782622 
L 217.476131 211.005823 
L 223.758196 211.574978 
L 227.748201 211.832396 
L 231.692753 211.830843 
L 238.458554 211.614881 
L 240.870737 211.395872 
L 242.617379 211.351331 
L 244.782825 210.977954 
L 245.321751 211.295821 
L 246.824902 212.358577 
L 247.156049 212.220015 
L 247.516416 211.796042 
L 248.000151 210.833828 
L 249.055279 208.655887 
L 249.347468 208.5193 
L 249.574726 208.661183 
L 249.847436 209.141289 
L 250.227281 210.333495 
L 251.447983 214.551398 
L 251.61031 214.513411 
L 251.785623 214.16859 
L 252.035607 213.092241 
L 252.392727 210.414717 
L 253.084241 203.07759 
L 253.619921 198.56188 
L 253.882892 197.775785 
L 253.993274 197.84001 
L 254.136122 198.314286 
L 254.353641 199.949448 
L 254.658816 204.19034 
L 255.08736 213.696851 
L 256.129501 238.063859 
L 256.226897 238.384304 
L 256.275596 238.298245 
L 256.382732 237.501515 
L 256.571031 234.064818 
L 256.876207 223.655231 
L 257.49305 193.032837 
L 258.13262 165.608746 
L 258.424809 160.474994 
L 258.496233 160.263771 
L 258.548177 160.387059 
L 258.661807 161.466996 
L 258.869585 166.071242 
L 259.291636 181.670377 
L 259.944192 213.195196 
L 260.463639 250.993937 
L 260.89543 281.621498 
L 260.931142 281.105111 
L 261.035031 274.892116 
L 261.392151 235.650876 
L 262.392087 126.516701 
L 262.632332 120.07155 
L 263.093341 114.529049 
L 263.599802 106.020771 
L 263.651747 105.930196 
L 263.700445 106.051146 
L 263.807581 107.08584 
L 263.986141 111.436459 
L 264.245865 124.182761 
L 264.638697 156.305497 
L 265.310732 209.999824 
L 265.365923 210.546205 
L 265.417868 210.017857 
L 265.52825 205.459731 
L 265.742522 185.301407 
L 266.518447 105.353305 
L 267.625519 72.430246 
L 267.865763 69.978702 
L 267.869009 69.979367 
L 267.917708 70.126274 
L 268.021597 71.399773 
L 268.190417 76.803356 
L 268.437155 93.106122 
L 268.862452 139.170414 
L 269.342941 183.615717 
L 269.407872 184.572159 
L 269.459817 183.914292 
L 269.570199 178.289789 
L 269.803951 152.058013 
L 270.310412 98.111889 
L 270.648052 86.659465 
L 271.774604 56.403607 
L 271.872 55.864174 
L 271.917452 56.017041 
L 272.014848 57.408041 
L 272.177175 63.539424 
L 272.423913 82.887981 
L 272.891415 141.829854 
L 273.225809 170.836746 
L 273.258275 171.151761 
L 273.31022 170.431819 
L 273.420602 164.023614 
L 273.66734 133.214342 
L 274.102377 85.906403 
L 274.401059 75.651368 
L 275.280873 56.454324 
L 275.582801 53.568305 
L 275.628253 53.661875 
L 275.719156 54.60072 
L 275.865251 58.915242 
L 276.07303 72.88008 
L 276.384698 111.795547 
L 276.868433 168.138316 
L 276.900899 168.453323 
L 276.949597 167.685712 
L 277.05998 160.741115 
L 277.316457 126.641159 
L 277.745001 78.200127 
L 278.020957 68.735435 
L 278.663773 57.565841 
L 278.981935 55.038727 
L 279.056605 54.938029 
L 279.105303 55.020485 
L 279.205946 55.688081 
L 279.352041 58.482085 
L 279.533847 67.123946 
L 279.764352 90.584766 
L 280.381196 169.950193 
L 280.449373 168.369437 
L 280.585728 156.555759 
L 281.452556 64.904078 
L 281.718772 61.815247 
L 282.082385 59.959531 
L 282.186275 59.87131 
L 282.225233 59.911006 
L 282.338863 60.307271 
L 282.50119 61.856122 
L 282.689489 66.101391 
L 282.890775 76.52 
L 283.127773 102.345212 
L 283.734877 186.500748 
L 283.803055 184.578325 
L 283.942656 170.627659 
L 284.799744 68.29809 
L 285.036742 64.640212 
L 285.264 63.868108 
L 285.361396 63.88996 
L 285.377629 63.913967 
L 285.510737 64.352252 
L 285.689297 65.826908 
L 285.877597 69.503662 
L 286.07239 78.442541 
L 286.296401 100.906569 
L 286.663261 165.984621 
L 286.978176 205.239561 
L 286.984669 205.268289 
L 287.017135 204.802964 
L 287.108038 198.487361 
L 287.345036 161.631241 
L 287.880716 85.677522 
L 288.166412 70.66307 
L 288.377437 68.21364 
L 288.429382 68.164429 
L 288.481327 68.247014 
L 288.617681 68.947073 
L 288.831953 71.356189 
L 289.039732 76.489998 
L 289.244265 88.000997 
L 289.491002 116.834563 
L 289.961751 206.725354 
L 290.153297 225.650164 
L 290.17927 225.305696 
L 290.260433 219.555123 
L 290.484445 182.664148 
L 291.029865 99.992985 
L 291.351273 79.574662 
L 291.588271 75.425139 
L 291.685667 75.164389 
L 291.734365 75.231741 
L 291.847994 75.840153 
L 292.016815 78.164654 
L 292.201868 84.298731 
L 292.412893 100.004453 
L 292.692096 140.305331 
L 293.256995 235.515986 
L 293.312186 233.564109 
L 293.445295 216.659207 
L 294.266671 96.023186 
L 294.552367 83.798306 
L 294.72768 82.291015 
L 294.740666 82.298963 
L 294.808844 82.550721 
L 294.954938 84.151729 
L 295.152977 89.044633 
L 295.367249 100.748866 
L 295.62048 128.900079 
L 296.016559 203.179507 
L 296.318487 245.94295 
L 296.331473 245.820555 
L 296.389911 242.560785 
L 296.561978 216.585651 
L 297.214534 116.157115 
L 297.548928 94.883578 
L 297.782679 90.761483 
L 297.831377 90.665339 
L 297.886569 90.802221 
L 298.003444 91.905341 
L 298.182004 96.078022 
L 298.389783 106.936393 
L 298.643014 133.746547 
L 299.02286 202.203254 
L 299.357254 251.645762 
L 299.37024 251.507816 
L 299.431924 247.791569 
L 299.620224 218.409467 
L 300.230575 125.821907 
L 300.574708 102.865527 
L 300.805213 98.553533 
L 300.840925 98.500864 
L 300.889623 98.645099 
L 301.003252 99.871337 
L 301.191552 104.71892 
L 301.41881 117.167466 
L 301.688273 146.064407 
L 302.100585 219.127798 
L 302.386281 258.197734 
L 302.409007 257.860812 
L 302.486924 251.690077 
L 302.77262 203.873412 
L 303.282327 133.869535 
L 303.636201 110.867795 
L 303.869952 106.481602 
L 303.908911 106.415965 
L 303.957609 106.56266 
L 304.067991 107.806677 
L 304.246551 112.759013 
L 304.470563 126.044401 
L 304.753012 158.242947 
L 305.405568 262.202303 
L 305.515951 254.298024 
L 305.915276 187.873311 
L 306.376285 133.337715 
L 306.707433 115.499781 
L 306.905472 112.899784 
L 306.911965 112.90171 
L 306.960663 113.075165 
L 307.074292 114.530292 
L 307.262592 120.28314 
L 307.502836 135.365583 
L 307.804765 170.637445 
L 308.424855 265.743048 
L 308.515759 260.267369 
L 308.791715 216.763402 
L 309.320902 147.206866 
L 309.691008 123.364448 
L 309.928006 118.863445 
L 309.957225 118.820089 
L 310.005923 118.974644 
L 310.116305 120.358971 
L 310.298112 125.999486 
L 310.53511 141.348384 
L 310.840285 177.839153 
L 311.434403 268.398541 
L 311.518813 263.352717 
L 311.78503 221.698534 
L 312.317463 151.890859 
L 312.690816 127.79527 
L 312.927814 123.212874 
L 312.953786 123.180428 
L 312.999238 123.329637 
L 313.106374 124.690579 
L 313.291427 130.451402 
L 313.538164 146.180711 
L 313.853079 182.799828 
L 314.447197 269.690271 
L 314.525114 265.413646 
L 314.765359 229.831239 
L 315.330257 156.506347 
L 315.71335 131.613438 
L 315.953594 126.717996 
L 315.989306 126.650235 
L 316.038004 126.815679 
L 316.148387 128.282721 
L 316.330193 134.209734 
L 316.573684 150.531698 
L 316.891846 189.104861 
L 317.450252 271.238238 
L 317.521676 267.439018 
L 317.745687 234.397248 
L 318.317079 159.276639 
L 318.703418 133.947505 
L 318.946909 128.867632 
L 318.979375 128.806927 
L 319.028073 128.9723 
L 319.138455 130.463 
L 319.323508 136.521312 
L 319.573492 153.034288 
L 319.898147 191.443847 
L 320.456553 271.163107 
L 320.527977 267.786029 
L 320.735756 238.682193 
L 321.339613 160.565162 
L 321.729199 135.323124 
L 321.972689 130.280074 
L 322.008401 130.208608 
L 322.0571 130.372626 
L 322.164236 131.789046 
L 322.346042 137.703677 
L 322.589533 153.972468 
L 322.910941 192.628986 
L 323.459607 272.11597 
L 323.527785 268.773419 
L 323.735564 239.08027 
L 324.329681 161.410343 
L 324.719267 136.08073 
L 324.962758 130.979481 
L 324.995223 130.913064 
L 325.047168 131.092238 
L 325.157551 132.61864 
L 325.34585 138.916954 
L 325.599081 156.011483 
L 325.930228 195.793579 
L 326.469155 271.513746 
L 326.530839 268.843766 
L 326.712646 244.636509 
L 327.361955 160.749306 
L 327.748294 136.210229 
L 327.991785 131.32435 
L 328.02425 131.271115 
L 328.072948 131.442894 
L 328.183331 132.945386 
L 328.365137 138.987335 
L 328.611875 155.758055 
L 328.939776 195.785134 
L 329.472209 272.287104 
L 329.53714 269.172199 
L 329.738426 240.819002 
L 330.342284 161.92117 
L 330.731869 136.6239 
L 330.97536 131.482936 
L 331.011072 131.410463 
L 331.05977 131.579103 
L 331.170153 133.083911 
L 331.355206 139.193473 
L 331.60519 155.796372 
L 331.933091 194.61301 
L 332.481757 271.566967 
L 332.546688 268.633876 
L 332.738234 242.733626 
L 333.371311 161.281942 
L 333.760896 136.434324 
L 334.004387 131.513579 
L 334.036852 131.455517 
L 334.085551 131.620028 
L 334.192687 133.039484 
L 334.374493 138.964341 
L 334.617984 155.240407 
L 334.942639 194.306096 
L 335.484812 272.312175 
L 335.552989 268.97128 
L 335.764015 238.911469 
L 336.354886 162.076582 
L 336.744471 136.731475 
L 336.991209 131.537064 
L 337.023674 131.472885 
L 337.072372 131.633697 
L 337.179508 133.054571 
L 337.364561 139.047864 
L 337.614545 155.454188 
L 337.942447 194.001619 
L 338.494359 271.579685 
L 338.562537 268.46575 
L 338.763823 240.902342 
L 339.380666 161.704845 
L 339.770252 136.622651 
L 340.013743 131.550914 
L 340.049455 131.473726 
L 340.101399 131.651435 
L 340.211782 133.164346 
L 340.396835 139.374819 
L 340.643572 156.31074 
L 340.971473 196.550866 
L 341.497414 272.323003 
L 341.562345 269.392764 
L 341.757137 242.246024 
L 342.370735 161.91992 
L 342.76032 136.673204 
L 343.003811 131.55667 
L 343.039523 131.487381 
L 343.088221 131.660212 
L 343.198604 133.173928 
L 343.386903 139.447582 
L 343.640134 156.496851 
L 343.971281 196.188312 
L 344.510208 271.591744 
L 344.571892 268.868712 
L 344.756945 244.165702 
L 345.399761 161.266204 
L 345.789347 136.449316 
L 346.032838 131.547165 
L 346.065303 131.491617 
L 346.114001 131.659926 
L 346.224384 133.154071 
L 346.406191 139.177502 
L 346.649681 155.614535 
L 346.974336 194.89429 
L 347.513263 272.337608 
L 347.578193 269.240256 
L 347.779479 240.922907 
L 348.383337 162.065596 
L 348.772922 136.746771 
L 349.01966 131.569365 
L 349.052125 131.507495 
L 349.100823 131.671809 
L 349.211206 133.166706 
L 349.396259 139.256373 
L 349.646243 155.819944 
L 349.974144 194.575628 
L 350.52281 271.602395 
L 350.587741 268.720812 
L 350.779287 242.870256 
L 351.412364 161.407082 
L 351.801949 136.519975 
L 352.04544 131.572181 
L 352.077905 131.511013 
L 352.126604 131.671047 
L 352.23374 133.08091 
L 352.415546 138.98674 
L 352.659037 155.224478 
L 352.980445 193.745867 
L 353.525865 272.34537 
L 353.594042 269.07499 
L 353.801821 239.587574 
L 354.399185 161.908359 
L 354.788771 136.690982 
L 355.032262 131.591661 
L 355.064727 131.524085 
L 355.116672 131.701279 
L 355.227055 133.223323 
L 355.415354 139.512916 
L 355.668585 156.586474 
L 355.999732 196.303047 
L 356.535412 271.605837 
L 356.600343 268.834505 
L 356.788643 243.58498 
L 357.428212 161.247011 
L 357.817798 136.461315 
L 358.061289 131.577229 
L 358.093754 131.524077 
L 358.142452 131.696032 
L 358.252835 133.198897 
L 358.437888 139.391115 
L 358.684625 156.292404 
L 359.012527 196.47556 
L 359.541713 272.349411 
L 359.603398 269.481188 
L 359.794944 242.906937 
L 360.415034 161.740773 
L 360.80462 136.626258 
L 361.048111 131.592337 
L 361.080576 131.533014 
L 361.129274 131.701145 
L 361.239657 133.204877 
L 361.42471 139.311069 
L 361.674694 155.901509 
L 362.002595 194.689337 
L 362.551261 271.609499 
L 362.616192 268.672438 
L 362.810985 242.270779 
L 363.437568 161.658115 
L 363.827153 136.636318 
L 364.070644 131.60083 
L 364.106356 131.528945 
L 364.155055 131.692871 
L 364.262191 133.111553 
L 364.443997 139.034524 
L 364.687488 155.300773 
L 365.012143 194.340222 
L 365.554316 272.351362 
L 365.622493 269.018746 
L 365.833519 238.968281 
L 366.42439 162.155001 
L 366.813975 136.802719 
L 367.060713 131.600743 
L 367.093178 131.535884 
L 367.145123 131.717381 
L 367.255505 133.248598 
L 367.443805 139.555423 
L 367.697036 156.657606 
L 368.028183 196.410532 
L 368.563863 271.609631 
L 368.625548 269.046277 
L 368.804108 245.500559 
L 369.45991 160.906621 
L 369.846249 136.444418 
L 370.08974 131.581857 
L 370.118959 131.530384 
L 370.167657 131.686321 
L 370.274793 133.087368 
L 370.456599 138.977149 
L 370.70009 155.187523 
L 371.021498 193.668365 
L 371.570164 272.349794 
L 371.638342 268.837362 
L 371.85586 237.619273 
L 372.440239 161.978071 
L 372.829824 136.728712 
L 373.073315 131.607086 
L 373.109027 131.537272 
L 373.157725 131.709537 
L 373.268108 133.222576 
L 373.456407 139.496102 
L 373.709638 156.542784 
L 374.040785 196.221029 
L 374.579712 271.609524 
L 374.641396 268.887729 
L 374.826449 244.188962 
L 375.469265 161.310082 
L 375.858851 136.492554 
L 376.102342 131.587098 
L 376.134807 131.531275 
L 376.183505 131.699289 
L 376.293888 133.193269 
L 376.475695 139.217365 
L 376.722432 155.947526 
L 377.050333 195.899219 
L 377.582767 272.351857 
L 377.647697 269.25206 
L 377.848983 240.935223 
L 378.452841 162.095225 
L 378.842426 136.778319 
L 379.089164 131.599151 
L 379.121629 131.53712 
L 379.170327 131.701268 
L 379.28071 133.196144 
L 379.465763 139.286626 
L 379.715747 155.850951 
L 380.043648 194.602455 
L 380.592314 271.610401 
L 380.657245 268.725176 
L 380.848791 242.873834 
L 381.481868 161.425202 
L 381.871453 136.54058 
L 382.114944 131.592247 
L 382.147409 131.531054 
L 382.196108 131.691101 
L 382.303244 133.101239 
L 382.48505 139.008221 
L 382.728541 155.247673 
L 383.053196 194.250074 
L 383.595369 272.351263 
L 383.663546 269.075708 
L 383.871325 239.585922 
L 384.468689 161.917721 
L 384.858275 136.703602 
L 385.101766 131.604581 
L 385.134231 131.537049 
L 385.186176 131.714345 
L 385.296559 133.236764 
L 385.484858 139.527537 
L 385.738089 156.603078 
L 386.069236 196.320084 
L 386.604916 271.608806 
L 386.669847 268.832698 
L 386.858147 243.580069 
L 387.497716 161.250617 
L 387.887302 136.468038 
L 388.130793 131.584794 
L 388.163258 131.53175 
L 388.211956 131.703883 
L 388.322339 133.20726 
L 388.507392 139.400767 
L 388.754129 156.304333 
L 389.082031 196.489271 
L 389.611217 272.35124 
L 389.672902 269.478256 
L 389.864448 242.900364 
L 390.484538 161.740696 
L 390.874124 136.629377 
L 391.117615 131.596638 
L 391.15008 131.537455 
L 391.198778 131.705803 
L 391.309161 133.210076 
L 391.494214 139.317469 
L 391.744198 155.910111 
L 392.072099 194.70028 
L 392.620765 271.610341 
L 392.685696 268.66877 
L 392.880489 242.263612 
L 393.507072 161.655951 
L 393.896657 136.637145 
L 394.140148 131.603036 
L 394.17586 131.531331 
L 394.224559 131.695506 
L 394.331695 133.114768 
L 394.513501 139.038972 
L 394.756992 155.307467 
L 395.081647 194.349694 
L 395.62382 272.351963 
L 395.691997 269.014567 
L 395.903023 238.96073 
L 396.493894 162.151692 
L 396.883479 136.802338 
L 397.130217 131.601889 
L 397.162682 131.53721 
L 397.214627 131.718991 
L 397.325009 133.250819 
L 397.513309 139.558866 
L 397.76654 156.663249 
L 398.097687 196.418984 
L 398.487273 258.873314 
L 398.487273 258.873314 
" style="fill:none;stroke:#1f77b4;stroke-linecap:square;stroke-width:1.5;"/>
   </g>
   <g id="patch_3">
    <path d="M 57.6 307.584 
L 57.6 41.472 
" style="fill:none;stroke:#000000;stroke-linecap:square;stroke-linejoin:miter;stroke-width:0.8;"/>
   </g>
   <g id="patch_4">
    <path d="M 414.72 307.584 
L 414.72 41.472 
" style="fill:none;stroke:#000000;stroke-linecap:square;stroke-linejoin:miter;stroke-width:0.8;"/>
   </g>
   <g id="patch_5">
    <path d="M 57.6 307.584 
L 414.72 307.584 
" style="fill:none;stroke:#000000;stroke-linecap:square;stroke-linejoin:miter;stroke-width:0.8;"/>
   </g>
   <g id="patch_6">
    <path d="M 57.6 41.472 
L 414.72 41.472 
" style="fill:none;stroke:#000000;stroke-linecap:square;stroke-linejoin:miter;stroke-width:0.8;"/>
   </g>
  </g>
 </g>
 <defs>
  <clipPath id="p97e474ca78">
   <rect height="266.112" width="357.12" x="57.6" y="41.472"/>
  </clipPath>
 </defs>
</svg>
