<?xml version="1.0" encoding="utf-8" standalone="no"?>
<!DOCTYPE svg PUBLIC "-//W3C//DTD SVG 1.1//EN"
  "http://www.w3.org/Graphics/SVG/1.1/DTD/svg11.dtd">
<!-- Created with matplotlib (https://matplotlib.org/) -->
<svg height="345.6pt" version="1.1" viewBox="0 0 460.8 345.6" width="460.8pt" xmlns="http://www.w3.org/2000/svg" xmlns:xlink="http://www.w3.org/1999/xlink">
 <metadata>
  <rdf:RDF xmlns:cc="http://creativecommons.org/ns#" xmlns:dc="http://purl.org/dc/elements/1.1/" xmlns:rdf="http://www.w3.org/1999/02/22-rdf-syntax-ns#">
   <cc:Work>
    <dc:type rdf:resource="http://purl.org/dc/dcmitype/StillImage"/>
    <dc:date>2020-07-23T21:13:51.884353</dc:date>
    <dc:format>image/svg+xml</dc:format>
    <dc:creator>
     <cc:Agent>
      <dc:title>Matplotlib v3.3.0, https://matplotlib.org/</dc:title>
     </cc:Agent>
    </dc:creator>
   </cc:Work>
  </rdf:RDF>
 </metadata>
 <defs>
  <style type="text/css">*{stroke-linecap:butt;stroke-linejoin:round;}</style>
 </defs>
 <g id="figure_1">
  <g id="patch_1">
   <path d="M 0 345.6 
L 460.8 345.6 
L 460.8 0 
L 0 0 
z
" style="fill:#ffffff;"/>
  </g>
  <g id="axes_1">
   <g id="patch_2">
    <path d="M 57.6 307.584 
L 414.72 307.584 
L 414.72 41.472 
L 57.6 41.472 
z
" style="fill:#ffffff;"/>
   </g>
   <g id="matplotlib.axis_1">
    <g id="xtick_1">
     <g id="line2d_1">
      <defs>
       <path d="M 0 0 
L 0 3.5 
" id="m96544b4676" style="stroke:#000000;stroke-width:0.8;"/>
      </defs>
      <g>
       <use style="stroke:#000000;stroke-width:0.8;" x="73.832727" xlink:href="#m96544b4676" y="307.584"/>
      </g>
     </g>
     <g id="text_1">
      <!-- $\mathdefault{0}$ -->
      <g transform="translate(71.34206 321.502498)scale(0.1 -0.1)">
       <defs>
        <path d="M 42 31.640625 
C 42 37.75 41.90625 48.125 37.703125 56.109375 
C 34 63.109375 28.09375 65.59375 22.90625 65.59375 
C 18.09375 65.59375 12 63.40625 8.203125 56.203125 
C 4.203125 48.71875 3.796875 39.4375 3.796875 31.640625 
C 3.796875 25.953125 3.90625 17.28125 7 9.671875 
C 11.296875 -0.609375 19 -2 22.90625 -2 
C 27.5 -2 34.5 -0.109375 38.59375 9.375 
C 41.59375 16.28125 42 24.359375 42 31.640625 
z
M 22.90625 -0.40625 
C 16.5 -0.40625 12.703125 5.078125 11.296875 12.6875 
C 10.203125 18.5625 10.203125 27.15625 10.203125 32.75 
C 10.203125 40.4375 10.203125 46.828125 11.5 52.921875 
C 13.40625 61.390625 19 64 22.90625 64 
C 27 64 32.296875 61.296875 34.203125 53.125 
C 35.5 47.4375 35.59375 40.734375 35.59375 32.75 
C 35.59375 26.25 35.59375 18.265625 34.40625 12.375 
C 32.296875 1.484375 26.40625 -0.40625 22.90625 -0.40625 
z
" id="CMR17-48"/>
       </defs>
       <use transform="scale(0.996264)" xlink:href="#CMR17-48"/>
      </g>
     </g>
    </g>
    <g id="xtick_2">
     <g id="line2d_2">
      <g>
       <use style="stroke:#000000;stroke-width:0.8;" x="138.763636" xlink:href="#m96544b4676" y="307.584"/>
      </g>
     </g>
     <g id="text_2">
      <!-- $\mathdefault{20000}$ -->
      <g transform="translate(126.310298 321.502498)scale(0.1 -0.1)">
       <defs>
        <path d="M 41.703125 15.453125 
L 39.90625 15.453125 
C 38.90625 8.375 38.09375 7.171875 37.703125 6.5625 
C 37.203125 5.765625 30 5.765625 28.59375 5.765625 
L 9.40625 5.765625 
C 13 9.671875 20 16.75 28.5 24.953125 
C 34.59375 30.734375 41.703125 37.53125 41.703125 47.421875 
C 41.703125 59.21875 32.296875 66 21.796875 66 
C 10.796875 66 4.09375 56.3125 4.09375 47.34375 
C 4.09375 43.4375 7 42.9375 8.203125 42.9375 
C 9.203125 42.9375 12.203125 43.546875 12.203125 47.03125 
C 12.203125 50.109375 9.59375 51 8.203125 51 
C 7.59375 51 7 50.90625 6.59375 50.703125 
C 8.5 59.21875 14.296875 63.40625 20.40625 63.40625 
C 29.09375 63.40625 34.796875 56.515625 34.796875 47.421875 
C 34.796875 38.734375 29.703125 31.25 24 24.75 
L 4.09375 2.28125 
L 4.09375 0 
L 39.296875 0 
z
" id="CMR17-50"/>
       </defs>
       <use transform="scale(0.996264)" xlink:href="#CMR17-50"/>
       <use transform="translate(45.690477 0)scale(0.996264)" xlink:href="#CMR17-48"/>
       <use transform="translate(91.380954 0)scale(0.996264)" xlink:href="#CMR17-48"/>
       <use transform="translate(137.071431 0)scale(0.996264)" xlink:href="#CMR17-48"/>
       <use transform="translate(182.761908 0)scale(0.996264)" xlink:href="#CMR17-48"/>
      </g>
     </g>
    </g>
    <g id="xtick_3">
     <g id="line2d_3">
      <g>
       <use style="stroke:#000000;stroke-width:0.8;" x="203.694545" xlink:href="#m96544b4676" y="307.584"/>
      </g>
     </g>
     <g id="text_3">
      <!-- $\mathdefault{40000}$ -->
      <g transform="translate(191.241207 321.502498)scale(0.1 -0.1)">
       <defs>
        <path d="M 33.59375 64.40625 
C 33.59375 66.5 33.5 66.5 31.703125 66.5 
L 2 19.59375 
L 2 17 
L 27.796875 17 
L 27.796875 7.140625 
C 27.796875 3.5 27.59375 2.5 20.59375 2.5 
L 18.703125 2.5 
L 18.703125 0 
C 21.90625 0 27.296875 0 30.703125 0 
C 34.09375 0 39.5 0 42.703125 0 
L 42.703125 2.5 
L 40.796875 2.5 
C 33.796875 2.5 33.59375 3.5 33.59375 7.140625 
L 33.59375 17 
L 43.796875 17 
L 43.796875 19.59375 
L 33.59375 19.59375 
z
M 28.09375 57.859375 
L 28.09375 19.59375 
L 4 19.59375 
z
" id="CMR17-52"/>
       </defs>
       <use transform="scale(0.996264)" xlink:href="#CMR17-52"/>
       <use transform="translate(45.690477 0)scale(0.996264)" xlink:href="#CMR17-48"/>
       <use transform="translate(91.380954 0)scale(0.996264)" xlink:href="#CMR17-48"/>
       <use transform="translate(137.071431 0)scale(0.996264)" xlink:href="#CMR17-48"/>
       <use transform="translate(182.761908 0)scale(0.996264)" xlink:href="#CMR17-48"/>
      </g>
     </g>
    </g>
    <g id="xtick_4">
     <g id="line2d_4">
      <g>
       <use style="stroke:#000000;stroke-width:0.8;" x="268.625455" xlink:href="#m96544b4676" y="307.584"/>
      </g>
     </g>
     <g id="text_4">
      <!-- $\mathdefault{60000}$ -->
      <g transform="translate(256.172116 321.502498)scale(0.1 -0.1)">
       <defs>
        <path d="M 10.59375 34 
C 10.59375 57.65625 21.796875 63 28.296875 63 
C 30.40625 63 35.5 62.640625 37.5 59 
C 35.90625 59 32.90625 59 32.90625 55.515625 
C 32.90625 52.828125 35.09375 51.921875 36.5 51.921875 
C 37.40625 51.921875 40.09375 52.3125 40.09375 55.625 
C 40.09375 61.78125 35.09375 65.296875 28.203125 65.296875 
C 16.296875 65.296875 3.796875 52.96875 3.796875 31 
C 3.796875 3.953125 15.09375 -2 23.09375 -2 
C 32.796875 -2 42 6.671875 42 20.046875 
C 42 32.515625 33.90625 41.59375 23.703125 41.59375 
C 17.59375 41.59375 13.09375 37.609375 10.59375 30.625 
z
M 23.09375 0.390625 
C 10.796875 0.390625 10.796875 18.75 10.796875 22.4375 
C 10.796875 29.625 14.203125 40 23.5 40 
C 25.203125 40 30.09375 40 33.40625 33.125 
C 35.203125 29.21875 35.203125 25.140625 35.203125 20.140625 
C 35.203125 14.75 35.203125 10.78125 33.09375 6.78125 
C 30.90625 2.671875 27.703125 0.390625 23.09375 0.390625 
z
" id="CMR17-54"/>
       </defs>
       <use transform="scale(0.996264)" xlink:href="#CMR17-54"/>
       <use transform="translate(45.690477 0)scale(0.996264)" xlink:href="#CMR17-48"/>
       <use transform="translate(91.380954 0)scale(0.996264)" xlink:href="#CMR17-48"/>
       <use transform="translate(137.071431 0)scale(0.996264)" xlink:href="#CMR17-48"/>
       <use transform="translate(182.761908 0)scale(0.996264)" xlink:href="#CMR17-48"/>
      </g>
     </g>
    </g>
    <g id="xtick_5">
     <g id="line2d_5">
      <g>
       <use style="stroke:#000000;stroke-width:0.8;" x="333.556364" xlink:href="#m96544b4676" y="307.584"/>
      </g>
     </g>
     <g id="text_5">
      <!-- $\mathdefault{80000}$ -->
      <g transform="translate(321.103026 321.502498)scale(0.1 -0.1)">
       <defs>
        <path d="M 27.203125 35.375 
C 33.5 38.546875 39.90625 43.328125 39.90625 50.984375 
C 39.90625 60.015625 31.09375 65.296875 23 65.296875 
C 13.90625 65.296875 5.90625 58.734375 5.90625 49.6875 
C 5.90625 47.203125 6.5 42.921875 10.40625 39.140625 
C 11.40625 38.15625 15.59375 35.171875 18.296875 33.28125 
C 13.796875 30.984375 3.296875 25.53125 3.296875 14.59375 
C 3.296875 4.359375 13.09375 -2 22.796875 -2 
C 33.5 -2 42.5 5.65625 42.5 15.78125 
C 42.5 24.84375 36.40625 29.015625 32.40625 31.703125 
z
M 14.09375 44.09375 
C 13.296875 44.59375 9.296875 47.671875 9.296875 52.359375 
C 9.296875 58.421875 15.59375 63 22.796875 63 
C 30.703125 63 36.5 57.4375 36.5 50.96875 
C 36.5 41.703125 26.09375 36.421875 25.59375 36.421875 
C 25.5 36.421875 25.40625 36.421875 24.59375 37.03125 
z
M 32.5 23.734375 
C 34 22.640625 38.796875 19.375 38.796875 13.296875 
C 38.796875 5.953125 31.40625 0.390625 23 0.390625 
C 13.90625 0.390625 7 6.84375 7 14.6875 
C 7 22.546875 13.09375 29.09375 20 32.1875 
z
" id="CMR17-56"/>
       </defs>
       <use transform="scale(0.996264)" xlink:href="#CMR17-56"/>
       <use transform="translate(45.690477 0)scale(0.996264)" xlink:href="#CMR17-48"/>
       <use transform="translate(91.380954 0)scale(0.996264)" xlink:href="#CMR17-48"/>
       <use transform="translate(137.071431 0)scale(0.996264)" xlink:href="#CMR17-48"/>
       <use transform="translate(182.761908 0)scale(0.996264)" xlink:href="#CMR17-48"/>
      </g>
     </g>
    </g>
    <g id="xtick_6">
     <g id="line2d_6">
      <g>
       <use style="stroke:#000000;stroke-width:0.8;" x="398.487273" xlink:href="#m96544b4676" y="307.584"/>
      </g>
     </g>
     <g id="text_6">
      <!-- $\mathdefault{100000}$ -->
      <g transform="translate(383.543267 321.502498)scale(0.1 -0.1)">
       <defs>
        <path d="M 26.59375 63.40625 
C 26.59375 65.5 26.5 65.5 25.09375 65.5 
C 21.203125 61.1875 15.296875 59.796875 9.703125 59.796875 
C 9.40625 59.796875 8.90625 59.796875 8.796875 59.5 
C 8.703125 59.296875 8.703125 59.09375 8.703125 57 
C 11.796875 57 17 57.59375 21 59.984375 
L 21 7.203125 
C 21 3.6875 20.796875 2.5 12.203125 2.5 
L 9.203125 2.5 
L 9.203125 0 
C 14 0 19 0 23.796875 0 
C 28.59375 0 33.59375 0 38.40625 0 
L 38.40625 2.5 
L 35.40625 2.5 
C 26.796875 2.5 26.59375 3.59375 26.59375 7.15625 
z
" id="CMR17-49"/>
       </defs>
       <use transform="scale(0.996264)" xlink:href="#CMR17-49"/>
       <use transform="translate(45.690477 0)scale(0.996264)" xlink:href="#CMR17-48"/>
       <use transform="translate(91.380954 0)scale(0.996264)" xlink:href="#CMR17-48"/>
       <use transform="translate(137.071431 0)scale(0.996264)" xlink:href="#CMR17-48"/>
       <use transform="translate(182.761908 0)scale(0.996264)" xlink:href="#CMR17-48"/>
       <use transform="translate(228.452386 0)scale(0.996264)" xlink:href="#CMR17-48"/>
      </g>
     </g>
    </g>
   </g>
   <g id="matplotlib.axis_2">
    <g id="ytick_1">
     <g id="line2d_7">
      <defs>
       <path d="M 0 0 
L -3.5 0 
" id="m78bebcc3ad" style="stroke:#000000;stroke-width:0.8;"/>
      </defs>
      <g>
       <use style="stroke:#000000;stroke-width:0.8;" x="57.6" xlink:href="#m78bebcc3ad" y="296.954447"/>
      </g>
     </g>
     <g id="text_7">
      <!-- $\mathdefault{0.00}$ -->
      <g transform="translate(32.888586 300.413697)scale(0.1 -0.1)">
       <defs>
        <path d="M 18.40625 4.796875 
C 18.40625 7.6875 16 9.671875 13.59375 9.671875 
C 10.703125 9.671875 8.703125 7.28125 8.703125 4.890625 
C 8.703125 2 11.09375 0 13.5 0 
C 16.40625 0 18.40625 2.390625 18.40625 4.796875 
z
" id="CMMI12-58"/>
       </defs>
       <use transform="scale(0.996264)" xlink:href="#CMR17-48"/>
       <use transform="translate(45.690477 0)scale(0.996264)" xlink:href="#CMMI12-58"/>
       <use transform="translate(72.787654 0)scale(0.996264)" xlink:href="#CMR17-48"/>
       <use transform="translate(118.478131 0)scale(0.996264)" xlink:href="#CMR17-48"/>
      </g>
     </g>
    </g>
    <g id="ytick_2">
     <g id="line2d_8">
      <g>
       <use style="stroke:#000000;stroke-width:0.8;" x="57.6" xlink:href="#m78bebcc3ad" y="257.07818"/>
      </g>
     </g>
     <g id="text_8">
      <!-- $\mathdefault{0.02}$ -->
      <g transform="translate(32.888586 260.537429)scale(0.1 -0.1)">
       <use transform="scale(0.996264)" xlink:href="#CMR17-48"/>
       <use transform="translate(45.690477 0)scale(0.996264)" xlink:href="#CMMI12-58"/>
       <use transform="translate(72.787654 0)scale(0.996264)" xlink:href="#CMR17-48"/>
       <use transform="translate(118.478131 0)scale(0.996264)" xlink:href="#CMR17-50"/>
      </g>
     </g>
    </g>
    <g id="ytick_3">
     <g id="line2d_9">
      <g>
       <use style="stroke:#000000;stroke-width:0.8;" x="57.6" xlink:href="#m78bebcc3ad" y="217.201913"/>
      </g>
     </g>
     <g id="text_9">
      <!-- $\mathdefault{0.04}$ -->
      <g transform="translate(32.888586 220.661162)scale(0.1 -0.1)">
       <use transform="scale(0.996264)" xlink:href="#CMR17-48"/>
       <use transform="translate(45.690477 0)scale(0.996264)" xlink:href="#CMMI12-58"/>
       <use transform="translate(72.787654 0)scale(0.996264)" xlink:href="#CMR17-48"/>
       <use transform="translate(118.478131 0)scale(0.996264)" xlink:href="#CMR17-52"/>
      </g>
     </g>
    </g>
    <g id="ytick_4">
     <g id="line2d_10">
      <g>
       <use style="stroke:#000000;stroke-width:0.8;" x="57.6" xlink:href="#m78bebcc3ad" y="177.325646"/>
      </g>
     </g>
     <g id="text_10">
      <!-- $\mathdefault{0.06}$ -->
      <g transform="translate(32.888586 180.784895)scale(0.1 -0.1)">
       <use transform="scale(0.996264)" xlink:href="#CMR17-48"/>
       <use transform="translate(45.690477 0)scale(0.996264)" xlink:href="#CMMI12-58"/>
       <use transform="translate(72.787654 0)scale(0.996264)" xlink:href="#CMR17-48"/>
       <use transform="translate(118.478131 0)scale(0.996264)" xlink:href="#CMR17-54"/>
      </g>
     </g>
    </g>
    <g id="ytick_5">
     <g id="line2d_11">
      <g>
       <use style="stroke:#000000;stroke-width:0.8;" x="57.6" xlink:href="#m78bebcc3ad" y="137.449378"/>
      </g>
     </g>
     <g id="text_11">
      <!-- $\mathdefault{0.08}$ -->
      <g transform="translate(32.888586 140.908628)scale(0.1 -0.1)">
       <use transform="scale(0.996264)" xlink:href="#CMR17-48"/>
       <use transform="translate(45.690477 0)scale(0.996264)" xlink:href="#CMMI12-58"/>
       <use transform="translate(72.787654 0)scale(0.996264)" xlink:href="#CMR17-48"/>
       <use transform="translate(118.478131 0)scale(0.996264)" xlink:href="#CMR17-56"/>
      </g>
     </g>
    </g>
    <g id="ytick_6">
     <g id="line2d_12">
      <g>
       <use style="stroke:#000000;stroke-width:0.8;" x="57.6" xlink:href="#m78bebcc3ad" y="97.573111"/>
      </g>
     </g>
     <g id="text_12">
      <!-- $\mathdefault{0.10}$ -->
      <g transform="translate(32.888586 101.03236)scale(0.1 -0.1)">
       <use transform="scale(0.996264)" xlink:href="#CMR17-48"/>
       <use transform="translate(45.690477 0)scale(0.996264)" xlink:href="#CMMI12-58"/>
       <use transform="translate(72.787654 0)scale(0.996264)" xlink:href="#CMR17-49"/>
       <use transform="translate(118.478131 0)scale(0.996264)" xlink:href="#CMR17-48"/>
      </g>
     </g>
    </g>
    <g id="ytick_7">
     <g id="line2d_13">
      <g>
       <use style="stroke:#000000;stroke-width:0.8;" x="57.6" xlink:href="#m78bebcc3ad" y="57.696844"/>
      </g>
     </g>
     <g id="text_13">
      <!-- $\mathdefault{0.12}$ -->
      <g transform="translate(32.888586 61.156093)scale(0.1 -0.1)">
       <use transform="scale(0.996264)" xlink:href="#CMR17-48"/>
       <use transform="translate(45.690477 0)scale(0.996264)" xlink:href="#CMMI12-58"/>
       <use transform="translate(72.787654 0)scale(0.996264)" xlink:href="#CMR17-49"/>
       <use transform="translate(118.478131 0)scale(0.996264)" xlink:href="#CMR17-50"/>
      </g>
     </g>
    </g>
   </g>
   <g id="line2d_14">
    <path clip-path="url(#p2add906353)" d="M 73.832727 97.573111 
L 74.761239 97.655395 
L 74.790458 98.957717 
L 74.845649 118.52753 
L 74.904087 145.290561 
L 74.949539 115.341563 
L 75.079401 94.083175 
L 75.08914 94.163407 
L 75.452753 103.950199 
L 75.608588 110.957571 
L 75.6443 109.784873 
L 75.757929 97.797484 
L 75.881297 99.041202 
L 75.955968 100.177535 
L 75.99168 99.20584 
L 76.050118 96.123591 
L 76.118295 98.220733 
L 76.326074 101.756857 
L 76.384512 100.009372 
L 76.439703 97.843219 
L 76.498141 99.265232 
L 76.640989 101.279136 
L 76.770851 102.098418 
L 76.796823 102.040836 
L 76.949411 100.897919 
L 76.952657 100.994075 
L 77.033821 100.180117 
L 77.037068 100.282577 
L 77.0533 100.136619 
L 77.140957 100.437111 
L 77.144204 100.330854 
L 77.14745 100.439301 
L 77.2416 99.996312 
L 77.244847 100.086962 
L 77.248093 99.994161 
L 77.33575 100.563781 
L 77.338996 100.51379 
L 77.472105 101.203561 
L 77.585734 101.088863 
L 77.478598 101.20426 
L 77.58898 101.119402 
L 77.592227 101.092361 
L 77.666897 101.392378 
L 77.689623 101.498279 
L 77.838964 101.869981 
L 77.920128 101.984757 
L 77.975319 102.042661 
L 78.024017 101.95759 
L 78.027264 101.970281 
L 78.179852 101.535435 
L 78.293481 101.659374 
L 78.299974 101.657236 
L 78.439575 101.279537 
L 78.446068 101.275107 
L 78.709039 103.141097 
L 78.735011 103.175298 
L 78.861626 102.67353 
L 78.864873 102.707547 
L 78.93305 102.553258 
L 78.962269 102.604332 
L 78.965516 102.561462 
L 79.059665 102.739437 
L 79.062912 102.702021 
L 79.19602 103.063442 
L 79.199267 103.026284 
L 79.293417 103.199288 
L 79.296663 103.160429 
L 79.423279 103.399751 
L 79.426525 103.366313 
L 79.514182 103.598389 
L 79.517428 103.563762 
L 79.559633 103.632812 
L 79.621318 103.505938 
L 79.624564 103.535667 
L 79.757673 103.201879 
L 79.764166 103.201239 
L 79.903767 103.603579 
L 79.907014 103.588672 
L 79.942726 103.873417 
L 79.945972 103.866003 
L 80.124532 105.120183 
L 80.131025 105.123221 
L 80.270627 104.769615 
L 80.296599 104.752679 
L 80.416721 105.050473 
L 80.419968 105.034318 
L 80.481652 105.282911 
L 80.484899 105.267455 
L 80.637487 105.785326 
L 80.640733 105.7696 
L 80.708911 105.988872 
L 80.712157 105.973225 
L 80.780335 106.185171 
L 80.783581 106.170413 
L 80.968634 106.938719 
L 80.971881 106.932832 
L 81.0011 107.096673 
L 81.004346 107.089414 
L 81.143948 107.431409 
L 81.147194 107.412709 
L 81.228358 107.561769 
L 81.231604 107.552315 
L 81.591971 110.006417 
L 81.595217 109.998721 
L 81.643916 110.169098 
L 81.647162 110.162312 
L 81.682874 110.308917 
L 81.686121 110.304452 
L 82.020515 112.40548 
L 82.069213 112.717261 
L 82.345169 114.60012 
L 82.432826 115.303946 
L 82.663331 116.81837 
L 82.712029 117.119744 
L 83.14382 120.727694 
L 83.270435 121.701366 
L 83.656774 124.770753 
L 83.854813 126.493579 
L 84.254138 129.969809 
L 84.666449 134.091146 
L 85.474839 142.221553 
L 85.939095 147.149047 
L 86.728006 155.976913 
L 87.357836 163.788885 
L 89.003834 186.630926 
L 91.052404 219.210774 
L 92.711389 248.923286 
L 95.211229 295.488 
L 95.243695 295.357349 
L 95.380049 293.3447 
L 97.633152 250.563277 
L 99.129809 224.110728 
L 100.597248 200.83132 
L 101.915345 182.561114 
L 103.386031 165.197422 
L 104.681402 152.486552 
L 106.061184 141.473145 
L 107.216954 134.077487 
L 108.158452 129.156497 
L 109.103197 125.210754 
L 110.184297 121.768805 
L 110.827113 120.295546 
L 111.427724 119.270848 
L 112.125731 118.520206 
L 112.664657 118.264601 
L 113.145146 118.320443 
L 113.463308 118.498327 
L 113.927564 118.947652 
L 114.414545 119.723064 
L 115.076841 121.224522 
L 115.911203 123.950878 
L 116.586484 126.81956 
L 117.440326 131.251114 
L 118.589603 138.484721 
L 120.160931 150.506499 
L 122.008215 167.353758 
L 123.706159 184.753272 
L 126.511174 213.770451 
L 127.754601 224.912164 
L 129.043479 234.251591 
L 129.835636 238.636325 
L 130.523904 241.551837 
L 131.111529 243.371692 
L 131.822522 244.776108 
L 132.202368 245.184634 
L 132.799732 245.374243 
L 133.390604 245.04992 
L 134.065885 244.115102 
L 134.919727 242.17921 
L 135.539817 240.310386 
L 136.763764 235.677169 
L 137.77344 231.105182 
L 139.870708 220.198229 
L 142.844544 204.284216 
L 144.221079 197.90958 
L 145.370356 193.428491 
L 146.363799 190.24738 
L 147.266339 187.934696 
L 148.090961 186.293113 
L 148.831174 185.191768 
L 149.493469 184.493908 
L 150.097327 184.087018 
L 150.645993 183.9021 
L 151.431657 183.933884 
L 152.253033 184.330344 
L 152.817932 184.811433 
L 153.428282 185.516617 
L 154.113303 186.528617 
L 155.288553 188.777084 
L 156.7008 192.247114 
L 157.872803 195.651424 
L 160.427834 204.076494 
L 163.658147 214.456276 
L 164.794438 217.412378 
L 165.761908 219.489491 
L 166.61575 220.948261 
L 167.661137 222.235121 
L 168.605882 222.927563 
L 169.193507 223.139716 
L 170.076567 223.159394 
L 171.005079 222.817796 
L 172.050467 222.030767 
L 173.271168 220.642797 
L 174.790551 218.345667 
L 177.079366 214.13556 
L 181.15378 206.697572 
L 182.345263 204.998531 
L 183.780236 203.390517 
L 185.072361 202.382092 
L 186.286569 201.818037 
L 187.474804 201.616142 
L 188.682519 201.74851 
L 189.968151 202.236356 
L 191.406371 203.161778 
L 192.484224 204.080539 
L 193.727651 205.331288 
L 197.461178 209.665878 
L 199.165615 211.535515 
L 201.094063 213.269182 
L 202.681623 214.283542 
L 203.707532 214.718325 
L 204.700975 214.971686 
L 205.684678 215.063794 
L 207.155363 214.923401 
L 208.226723 214.630217 
L 209.38574 214.155456 
L 211.479761 212.973079 
L 213.369251 211.690395 
L 218.024797 208.687758 
L 220.083107 207.799597 
L 221.956364 207.326739 
L 223.271215 207.191231 
L 225.160704 207.267648 
L 227.228753 207.677154 
L 228.877999 208.198915 
L 230.926569 209.003875 
L 235.020463 210.68358 
L 237.793012 211.524914 
L 240.137018 211.912337 
L 242.438819 211.981522 
L 244.214679 211.839776 
L 247.110598 211.324425 
L 255.554863 209.425144 
L 258.486493 209.146186 
L 260.625967 209.141159 
L 264.5413 209.436676 
L 269.966278 210.203886 
L 273.492026 210.673999 
L 275.868497 210.60425 
L 277.946287 210.812774 
L 278.637801 210.517418 
L 280.124719 209.800278 
L 280.572742 209.902733 
L 281.046737 210.265152 
L 281.868113 211.264651 
L 282.423273 211.755476 
L 282.744681 211.777119 
L 283.03687 211.559763 
L 283.381004 210.984561 
L 283.848506 209.701255 
L 285.205562 205.6718 
L 285.475025 205.513199 
L 285.679558 205.648439 
L 285.929542 206.132163 
L 286.276922 207.364896 
L 286.838575 210.332427 
L 287.504116 213.515747 
L 287.767087 213.93552 
L 287.903441 213.851085 
L 288.078755 213.396503 
L 288.331985 212.01508 
L 288.692352 208.639681 
L 289.315689 200.261056 
L 290.036422 191.50367 
L 290.35783 189.768142 
L 290.481199 189.651944 
L 290.516911 189.68247 
L 290.640279 190.022471 
L 290.835072 191.344903 
L 291.111028 194.978856 
L 291.484381 203.220514 
L 292.055773 221.571952 
L 292.744041 241.946772 
L 292.945327 243.59975 
L 292.958313 243.59231 
L 293.023244 243.331868 
L 293.156352 241.618954 
L 293.38361 235.235879 
L 293.773196 216.853474 
L 295.104279 149.509428 
L 295.351017 146.340761 
L 295.380236 146.315078 
L 295.425687 146.423868 
L 295.53607 147.413548 
L 295.753588 151.84057 
L 296.454842 172.896947 
L 296.883386 191.358386 
L 297.350889 222.50165 
L 298.032663 269.245493 
L 298.055389 269.105671 
L 298.133306 266.747871 
L 298.318359 252.506862 
L 298.854039 188.935374 
L 299.506595 120.461228 
L 299.769565 111.609442 
L 300.292259 102.193004 
L 300.821446 90.786853 
L 300.938321 90.265049 
L 300.980527 90.351219 
L 301.081169 91.215748 
L 301.24999 94.986277 
L 301.496727 106.266436 
L 301.866833 135.033308 
L 302.688209 200.722716 
L 302.730415 201.03884 
L 302.782359 200.574088 
L 302.889495 196.567232 
L 303.097274 178.526426 
L 303.908911 99.630659 
L 305.015983 68.266048 
L 305.324404 63.973599 
L 305.360116 63.923918 
L 305.408815 64.07096 
L 305.512704 65.3407 
L 305.681524 70.719496 
L 305.931508 87.110047 
L 306.366545 133.588441 
L 306.850281 177.809623 
L 306.924951 179.03434 
L 306.976896 178.450764 
L 307.087279 173.251461 
L 307.314537 149.288262 
L 307.859956 92.99391 
L 308.184611 82.843252 
L 309.447517 53.729878 
L 309.483229 53.659664 
L 309.531927 53.817642 
L 309.63257 55.221776 
L 309.798144 61.286157 
L 310.044881 79.90227 
L 310.483165 133.776553 
L 310.856518 168.262637 
L 310.905216 168.844061 
L 310.957161 168.094589 
L 311.07079 161.65201 
L 311.320774 131.338657 
L 311.772044 82.887452 
L 312.05774 73.383975 
L 312.960279 56.311231 
L 313.262208 53.580131 
L 313.291427 53.573116 
L 313.327139 53.661065 
L 313.421289 54.513175 
L 313.57063 58.350728 
L 313.775162 70.437051 
L 314.067351 103.362937 
L 314.648483 169.367124 
L 314.654976 169.380172 
L 314.680948 169.17371 
L 314.762112 165.925963 
L 314.940672 147.425033 
L 315.602967 72.863688 
L 315.885417 65.807392 
L 316.563945 56.440379 
L 316.797696 55.339339 
L 316.800943 55.339817 
L 316.865873 55.466316 
L 316.979503 56.33714 
L 317.14183 59.653894 
L 317.339869 69.10373 
L 317.58336 93.351157 
L 318.226176 174.600534 
L 318.294353 172.989875 
L 318.430708 161.05958 
L 319.330001 64.270905 
L 319.570246 61.936664 
L 320.037748 60.034193 
L 320.105926 60.01065 
L 320.144884 60.066415 
L 320.255267 60.57356 
L 320.414348 62.578794 
L 320.602647 68.287526 
L 320.816919 82.777242 
L 321.092876 119.434199 
L 321.648035 194.71627 
L 321.654528 194.694514 
L 321.69998 193.583959 
L 321.816855 183.785986 
L 322.144756 130.965868 
L 322.579793 76.347778 
L 322.836271 66.303433 
L 323.03431 64.934123 
L 323.190144 64.900332 
L 323.4661 65.133807 
L 323.602455 65.662451 
L 323.74855 67.345502 
L 323.910877 72.333653 
L 324.10567 86.439842 
L 324.375133 125.237496 
L 324.946525 212.93626 
L 324.966004 212.75331 
L 325.037428 209.111896 
L 325.215988 185.191021 
L 325.936721 81.725537 
L 326.209431 69.814517 
L 326.368512 68.602546 
L 326.387991 68.619542 
L 326.475648 68.976988 
L 326.686673 71.012878 
L 326.949644 75.699968 
L 327.154176 83.918175 
L 327.378188 103.579789 
L 327.689856 154.379104 
L 328.173591 231.730285 
L 328.186577 231.61847 
L 328.248262 228.500297 
L 328.413836 205.354023 
L 329.134569 97.633824 
L 329.45273 79.557757 
L 329.683235 76.126094 
L 329.741673 76.026548 
L 329.793617 76.127607 
L 329.910493 76.966062 
L 330.085807 80.09193 
L 330.287092 88.309708 
L 330.520844 108.673988 
L 330.842252 159.669096 
L 331.338973 240.570465 
L 331.364945 240.111626 
L 331.449356 233.228646 
L 331.718819 186.094229 
L 332.222033 111.855394 
L 332.562921 89.22899 
L 332.806412 84.399652 
L 332.874589 84.210697 
L 332.92978 84.337507 
L 333.046656 85.369095 
L 333.228463 89.308935 
L 333.439488 99.433417 
L 333.689472 123.808384 
L 334.049839 184.703688 
L 334.475136 251.143545 
L 334.491369 250.950898 
L 334.559546 246.522533 
L 334.767325 213.388728 
L 335.367936 122.728121 
L 335.715316 99.243424 
L 335.958807 94.21475 
L 336.026985 94.017129 
L 336.078929 94.145768 
L 336.192559 95.221256 
L 336.371119 99.397226 
L 336.585391 110.368858 
L 336.848361 137.184595 
L 337.2347 203.771587 
L 337.598313 258.096525 
L 337.617792 257.8003 
L 337.692463 252.137232 
L 337.955433 208.531732 
L 338.491113 132.799265 
L 338.851479 108.444165 
L 339.091724 103.480211 
L 339.133929 103.384526 
L 339.185873 103.539949 
L 339.299503 104.869689 
L 339.487802 110.136167 
L 339.728047 124.023739 
L 340.020236 155.763849 
L 340.484492 235.755135 
L 340.724736 265.639506 
L 340.753955 265.026706 
L 340.848105 255.932848 
L 341.922711 122.802112 
L 342.201914 114.490295 
L 342.299311 113.958124 
L 342.348009 114.097407 
L 342.455145 115.330803 
L 342.633705 120.43043 
L 342.867456 134.395061 
L 343.169385 167.880842 
L 343.847913 271.630527 
L 343.955049 263.521169 
L 345.068614 131.529102 
L 345.334831 124.578635 
L 345.403008 124.310513 
L 345.454953 124.486071 
L 345.568582 125.971586 
L 345.760128 131.945741 
L 346.013359 147.742749 
L 346.338013 183.958244 
L 346.974336 276.396517 
L 347.065239 270.292952 
L 347.523002 203.145938 
L 348.003491 154.025953 
L 348.354118 136.875073 
L 348.552157 134.358103 
L 348.561897 134.362812 
L 348.617088 134.609372 
L 348.73721 136.427206 
L 348.935249 143.415156 
L 349.19822 161.648312 
L 349.552093 203.942881 
L 350.09102 281.020272 
L 350.162444 276.67596 
L 350.503331 227.153784 
L 351.019532 169.469648 
L 351.405871 147.599638 
L 351.646115 143.31073 
L 351.668841 143.283831 
L 351.714292 143.423487 
L 351.818182 144.702794 
L 351.999988 150.17576 
L 352.259712 165.731354 
L 352.603846 201.638694 
L 353.21095 282.310447 
L 353.29536 276.805714 
L 354.470609 157.136727 
L 354.743319 150.437875 
L 354.80825 150.190075 
L 354.860195 150.36503 
L 354.970577 151.838619 
L 355.158877 157.908347 
L 355.421847 174.626122 
L 355.782214 213.918138 
L 356.317894 284.944462 
L 356.389318 280.36061 
L 357.574307 161.687741 
L 357.850263 155.096653 
L 357.911948 154.869839 
L 357.967139 155.060248 
L 358.080768 156.625021 
L 358.272314 162.896531 
L 358.545024 180.203232 
L 358.918377 220.136185 
L 359.431331 283.76624 
L 359.493015 280.653722 
L 359.772218 245.195042 
L 360.34361 184.959448 
L 360.752675 162.138488 
L 361.009152 157.143535 
L 361.044864 157.069628 
L 361.096809 157.238598 
L 361.207191 158.694932 
L 361.395491 164.727485 
L 361.661708 181.486035 
L 362.028567 220.678684 
L 362.538275 285.446937 
L 362.606452 281.430338 
L 363.064215 222.558896 
L 363.55769 177.97605 
L 363.931043 161.154926 
L 364.145315 158.43365 
L 364.148561 158.434086 
L 364.194013 158.572801 
L 364.301149 159.885102 
L 364.486202 165.476716 
L 364.752419 181.339522 
L 365.116032 218.231949 
L 365.654959 283.650072 
L 365.726383 279.951822 
L 366.05753 238.408847 
L 366.606196 183.752575 
L 367.008768 162.701229 
L 367.255505 158.452819 
L 367.281478 158.423586 
L 367.326929 158.567783 
L 367.434065 159.900313 
L 367.619119 165.582296 
L 367.882089 181.57721 
L 368.242455 218.995251 
L 368.771642 285.30011 
L 368.843066 280.848655 
L 370.047535 165.251014 
L 370.323491 158.967953 
L 370.381929 158.763669 
L 370.43712 158.944042 
L 370.550749 160.468702 
L 370.742295 166.636276 
L 371.015005 183.686265 
L 371.391604 223.287151 
L 371.891572 283.527113 
L 371.953257 280.682387 
L 372.206487 249.546694 
L 372.797359 187.137843 
L 373.212916 163.775188 
L 373.475887 158.47413 
L 373.518092 158.37738 
L 373.570036 158.551629 
L 373.680419 160.008064 
L 373.868719 166.011817 
L 374.134935 182.662606 
L 374.501795 221.563717 
L 375.008256 285.247417 
L 375.076433 281.368216 
L 375.485498 228.703114 
L 375.995206 180.56575 
L 376.378298 162.111407 
L 376.612049 158.656513 
L 376.631529 158.657201 
L 376.663994 158.75886 
L 376.764637 159.877448 
L 376.943197 164.907106 
L 377.202921 179.563643 
L 377.556794 214.01827 
L 378.131433 283.519252 
L 378.20935 279.223715 
L 378.615168 228.490994 
L 379.134615 180.089656 
L 379.520954 161.584714 
L 379.751459 158.311216 
L 379.777431 158.3364 
L 379.796911 158.408483 
L 379.894307 159.457805 
L 380.066374 164.185634 
L 380.316358 178.055041 
L 380.657245 211.012244 
L 381.248116 285.255045 
L 381.33902 279.010116 
L 382.381161 171.787149 
L 382.715555 159.910549 
L 382.861649 158.645919 
L 382.894115 158.707409 
L 382.981772 159.50361 
L 383.144099 163.442826 
L 383.38759 175.640339 
L 383.718737 204.997385 
L 384.371293 283.53418 
L 384.475183 276.601914 
L 385.53031 170.865673 
L 385.861457 159.432084 
L 385.997812 158.340388 
L 386.033524 158.420892 
L 386.127674 159.371799 
L 386.296495 163.822278 
L 386.543232 177.099159 
L 386.880873 209.037557 
L 387.491223 285.27163 
L 387.582127 278.733289 
L 388.601542 172.915378 
L 388.945676 160.137662 
L 389.10151 158.687694 
L 389.130729 158.734949 
L 389.211892 159.402054 
L 389.367727 162.921552 
L 389.604724 174.165736 
L 389.926132 201.449028 
L 390.448826 268.715719 
L 390.6144 283.544054 
L 390.656605 282.051611 
L 390.818932 263.807475 
L 391.513693 187.515289 
L 391.929251 163.949443 
L 392.192221 158.500814 
L 392.237673 158.378708 
L 392.292864 158.563405 
L 392.406493 160.106427 
L 392.598039 166.36998 
L 392.867503 183.582018 
L 393.240855 223.830317 
L 393.731084 285.278484 
L 393.796015 281.60268 
L 394.169367 233.355791 
L 394.692061 182.318814 
L 395.084893 162.605717 
L 395.325137 158.734243 
L 395.347863 158.716598 
L 395.390068 158.847027 
L 395.493958 160.078323 
L 395.675764 165.410388 
L 395.938735 180.689214 
L 396.299101 216.554695 
L 396.85426 283.546517 
L 396.925684 279.752556 
L 397.266572 237.053581 
L 397.811991 183.227972 
L 398.211316 162.58122 
L 398.454807 158.426712 
L 398.48078 158.395258 
L 398.487273 158.400018 
" style="fill:none;stroke:#1f77b4;stroke-linecap:square;stroke-width:1.5;"/>
   </g>
   <g id="patch_3">
    <path d="M 57.6 307.584 
L 57.6 41.472 
" style="fill:none;stroke:#000000;stroke-linecap:square;stroke-linejoin:miter;stroke-width:0.8;"/>
   </g>
   <g id="patch_4">
    <path d="M 414.72 307.584 
L 414.72 41.472 
" style="fill:none;stroke:#000000;stroke-linecap:square;stroke-linejoin:miter;stroke-width:0.8;"/>
   </g>
   <g id="patch_5">
    <path d="M 57.6 307.584 
L 414.72 307.584 
" style="fill:none;stroke:#000000;stroke-linecap:square;stroke-linejoin:miter;stroke-width:0.8;"/>
   </g>
   <g id="patch_6">
    <path d="M 57.6 41.472 
L 414.72 41.472 
" style="fill:none;stroke:#000000;stroke-linecap:square;stroke-linejoin:miter;stroke-width:0.8;"/>
   </g>
  </g>
 </g>
 <defs>
  <clipPath id="p2add906353">
   <rect height="266.112" width="357.12" x="57.6" y="41.472"/>
  </clipPath>
 </defs>
</svg>
