<?xml version="1.0" encoding="utf-8" standalone="no"?>
<!DOCTYPE svg PUBLIC "-//W3C//DTD SVG 1.1//EN"
  "http://www.w3.org/Graphics/SVG/1.1/DTD/svg11.dtd">
<!-- Created with matplotlib (https://matplotlib.org/) -->
<svg height="345.6pt" version="1.1" viewBox="0 0 460.8 345.6" width="460.8pt" xmlns="http://www.w3.org/2000/svg" xmlns:xlink="http://www.w3.org/1999/xlink">
 <metadata>
  <rdf:RDF xmlns:cc="http://creativecommons.org/ns#" xmlns:dc="http://purl.org/dc/elements/1.1/" xmlns:rdf="http://www.w3.org/1999/02/22-rdf-syntax-ns#">
   <cc:Work>
    <dc:type rdf:resource="http://purl.org/dc/dcmitype/StillImage"/>
    <dc:date>2020-07-27T16:06:50.399140</dc:date>
    <dc:format>image/svg+xml</dc:format>
    <dc:creator>
     <cc:Agent>
      <dc:title>Matplotlib v3.3.0, https://matplotlib.org/</dc:title>
     </cc:Agent>
    </dc:creator>
   </cc:Work>
  </rdf:RDF>
 </metadata>
 <defs>
  <style type="text/css">*{stroke-linecap:butt;stroke-linejoin:round;}</style>
 </defs>
 <g id="figure_1">
  <g id="patch_1">
   <path d="M 0 345.6 
L 460.8 345.6 
L 460.8 0 
L 0 0 
z
" style="fill:#ffffff;"/>
  </g>
  <g id="axes_1">
   <g id="patch_2">
    <path d="M 57.6 307.584 
L 414.72 307.584 
L 414.72 41.472 
L 57.6 41.472 
z
" style="fill:#ffffff;"/>
   </g>
   <g id="matplotlib.axis_1">
    <g id="xtick_1">
     <g id="line2d_1">
      <defs>
       <path d="M 0 0 
L 0 3.5 
" id="ma1cb704111" style="stroke:#000000;stroke-width:0.8;"/>
      </defs>
      <g>
       <use style="stroke:#000000;stroke-width:0.8;" x="73.832727" xlink:href="#ma1cb704111" y="307.584"/>
      </g>
     </g>
     <g id="text_1">
      <!-- $\mathdefault{0}$ -->
      <g transform="translate(71.34206 321.502498)scale(0.1 -0.1)">
       <defs>
        <path d="M 42 31.640625 
C 42 37.75 41.90625 48.125 37.703125 56.109375 
C 34 63.109375 28.09375 65.59375 22.90625 65.59375 
C 18.09375 65.59375 12 63.40625 8.203125 56.203125 
C 4.203125 48.71875 3.796875 39.4375 3.796875 31.640625 
C 3.796875 25.953125 3.90625 17.28125 7 9.671875 
C 11.296875 -0.609375 19 -2 22.90625 -2 
C 27.5 -2 34.5 -0.109375 38.59375 9.375 
C 41.59375 16.28125 42 24.359375 42 31.640625 
z
M 22.90625 -0.40625 
C 16.5 -0.40625 12.703125 5.078125 11.296875 12.6875 
C 10.203125 18.5625 10.203125 27.15625 10.203125 32.75 
C 10.203125 40.4375 10.203125 46.828125 11.5 52.921875 
C 13.40625 61.390625 19 64 22.90625 64 
C 27 64 32.296875 61.296875 34.203125 53.125 
C 35.5 47.4375 35.59375 40.734375 35.59375 32.75 
C 35.59375 26.25 35.59375 18.265625 34.40625 12.375 
C 32.296875 1.484375 26.40625 -0.40625 22.90625 -0.40625 
z
" id="CMR17-48"/>
       </defs>
       <use transform="scale(0.996264)" xlink:href="#CMR17-48"/>
      </g>
     </g>
    </g>
    <g id="xtick_2">
     <g id="line2d_2">
      <g>
       <use style="stroke:#000000;stroke-width:0.8;" x="138.763636" xlink:href="#ma1cb704111" y="307.584"/>
      </g>
     </g>
     <g id="text_2">
      <!-- $\mathdefault{20000}$ -->
      <g transform="translate(126.310298 321.502498)scale(0.1 -0.1)">
       <defs>
        <path d="M 41.703125 15.453125 
L 39.90625 15.453125 
C 38.90625 8.375 38.09375 7.171875 37.703125 6.5625 
C 37.203125 5.765625 30 5.765625 28.59375 5.765625 
L 9.40625 5.765625 
C 13 9.671875 20 16.75 28.5 24.953125 
C 34.59375 30.734375 41.703125 37.53125 41.703125 47.421875 
C 41.703125 59.21875 32.296875 66 21.796875 66 
C 10.796875 66 4.09375 56.3125 4.09375 47.34375 
C 4.09375 43.4375 7 42.9375 8.203125 42.9375 
C 9.203125 42.9375 12.203125 43.546875 12.203125 47.03125 
C 12.203125 50.109375 9.59375 51 8.203125 51 
C 7.59375 51 7 50.90625 6.59375 50.703125 
C 8.5 59.21875 14.296875 63.40625 20.40625 63.40625 
C 29.09375 63.40625 34.796875 56.515625 34.796875 47.421875 
C 34.796875 38.734375 29.703125 31.25 24 24.75 
L 4.09375 2.28125 
L 4.09375 0 
L 39.296875 0 
z
" id="CMR17-50"/>
       </defs>
       <use transform="scale(0.996264)" xlink:href="#CMR17-50"/>
       <use transform="translate(45.690477 0)scale(0.996264)" xlink:href="#CMR17-48"/>
       <use transform="translate(91.380954 0)scale(0.996264)" xlink:href="#CMR17-48"/>
       <use transform="translate(137.071431 0)scale(0.996264)" xlink:href="#CMR17-48"/>
       <use transform="translate(182.761908 0)scale(0.996264)" xlink:href="#CMR17-48"/>
      </g>
     </g>
    </g>
    <g id="xtick_3">
     <g id="line2d_3">
      <g>
       <use style="stroke:#000000;stroke-width:0.8;" x="203.694545" xlink:href="#ma1cb704111" y="307.584"/>
      </g>
     </g>
     <g id="text_3">
      <!-- $\mathdefault{40000}$ -->
      <g transform="translate(191.241207 321.502498)scale(0.1 -0.1)">
       <defs>
        <path d="M 33.59375 64.40625 
C 33.59375 66.5 33.5 66.5 31.703125 66.5 
L 2 19.59375 
L 2 17 
L 27.796875 17 
L 27.796875 7.140625 
C 27.796875 3.5 27.59375 2.5 20.59375 2.5 
L 18.703125 2.5 
L 18.703125 0 
C 21.90625 0 27.296875 0 30.703125 0 
C 34.09375 0 39.5 0 42.703125 0 
L 42.703125 2.5 
L 40.796875 2.5 
C 33.796875 2.5 33.59375 3.5 33.59375 7.140625 
L 33.59375 17 
L 43.796875 17 
L 43.796875 19.59375 
L 33.59375 19.59375 
z
M 28.09375 57.859375 
L 28.09375 19.59375 
L 4 19.59375 
z
" id="CMR17-52"/>
       </defs>
       <use transform="scale(0.996264)" xlink:href="#CMR17-52"/>
       <use transform="translate(45.690477 0)scale(0.996264)" xlink:href="#CMR17-48"/>
       <use transform="translate(91.380954 0)scale(0.996264)" xlink:href="#CMR17-48"/>
       <use transform="translate(137.071431 0)scale(0.996264)" xlink:href="#CMR17-48"/>
       <use transform="translate(182.761908 0)scale(0.996264)" xlink:href="#CMR17-48"/>
      </g>
     </g>
    </g>
    <g id="xtick_4">
     <g id="line2d_4">
      <g>
       <use style="stroke:#000000;stroke-width:0.8;" x="268.625455" xlink:href="#ma1cb704111" y="307.584"/>
      </g>
     </g>
     <g id="text_4">
      <!-- $\mathdefault{60000}$ -->
      <g transform="translate(256.172116 321.502498)scale(0.1 -0.1)">
       <defs>
        <path d="M 10.59375 34 
C 10.59375 57.65625 21.796875 63 28.296875 63 
C 30.40625 63 35.5 62.640625 37.5 59 
C 35.90625 59 32.90625 59 32.90625 55.515625 
C 32.90625 52.828125 35.09375 51.921875 36.5 51.921875 
C 37.40625 51.921875 40.09375 52.3125 40.09375 55.625 
C 40.09375 61.78125 35.09375 65.296875 28.203125 65.296875 
C 16.296875 65.296875 3.796875 52.96875 3.796875 31 
C 3.796875 3.953125 15.09375 -2 23.09375 -2 
C 32.796875 -2 42 6.671875 42 20.046875 
C 42 32.515625 33.90625 41.59375 23.703125 41.59375 
C 17.59375 41.59375 13.09375 37.609375 10.59375 30.625 
z
M 23.09375 0.390625 
C 10.796875 0.390625 10.796875 18.75 10.796875 22.4375 
C 10.796875 29.625 14.203125 40 23.5 40 
C 25.203125 40 30.09375 40 33.40625 33.125 
C 35.203125 29.21875 35.203125 25.140625 35.203125 20.140625 
C 35.203125 14.75 35.203125 10.78125 33.09375 6.78125 
C 30.90625 2.671875 27.703125 0.390625 23.09375 0.390625 
z
" id="CMR17-54"/>
       </defs>
       <use transform="scale(0.996264)" xlink:href="#CMR17-54"/>
       <use transform="translate(45.690477 0)scale(0.996264)" xlink:href="#CMR17-48"/>
       <use transform="translate(91.380954 0)scale(0.996264)" xlink:href="#CMR17-48"/>
       <use transform="translate(137.071431 0)scale(0.996264)" xlink:href="#CMR17-48"/>
       <use transform="translate(182.761908 0)scale(0.996264)" xlink:href="#CMR17-48"/>
      </g>
     </g>
    </g>
    <g id="xtick_5">
     <g id="line2d_5">
      <g>
       <use style="stroke:#000000;stroke-width:0.8;" x="333.556364" xlink:href="#ma1cb704111" y="307.584"/>
      </g>
     </g>
     <g id="text_5">
      <!-- $\mathdefault{80000}$ -->
      <g transform="translate(321.103026 321.502498)scale(0.1 -0.1)">
       <defs>
        <path d="M 27.203125 35.375 
C 33.5 38.546875 39.90625 43.328125 39.90625 50.984375 
C 39.90625 60.015625 31.09375 65.296875 23 65.296875 
C 13.90625 65.296875 5.90625 58.734375 5.90625 49.6875 
C 5.90625 47.203125 6.5 42.921875 10.40625 39.140625 
C 11.40625 38.15625 15.59375 35.171875 18.296875 33.28125 
C 13.796875 30.984375 3.296875 25.53125 3.296875 14.59375 
C 3.296875 4.359375 13.09375 -2 22.796875 -2 
C 33.5 -2 42.5 5.65625 42.5 15.78125 
C 42.5 24.84375 36.40625 29.015625 32.40625 31.703125 
z
M 14.09375 44.09375 
C 13.296875 44.59375 9.296875 47.671875 9.296875 52.359375 
C 9.296875 58.421875 15.59375 63 22.796875 63 
C 30.703125 63 36.5 57.4375 36.5 50.96875 
C 36.5 41.703125 26.09375 36.421875 25.59375 36.421875 
C 25.5 36.421875 25.40625 36.421875 24.59375 37.03125 
z
M 32.5 23.734375 
C 34 22.640625 38.796875 19.375 38.796875 13.296875 
C 38.796875 5.953125 31.40625 0.390625 23 0.390625 
C 13.90625 0.390625 7 6.84375 7 14.6875 
C 7 22.546875 13.09375 29.09375 20 32.1875 
z
" id="CMR17-56"/>
       </defs>
       <use transform="scale(0.996264)" xlink:href="#CMR17-56"/>
       <use transform="translate(45.690477 0)scale(0.996264)" xlink:href="#CMR17-48"/>
       <use transform="translate(91.380954 0)scale(0.996264)" xlink:href="#CMR17-48"/>
       <use transform="translate(137.071431 0)scale(0.996264)" xlink:href="#CMR17-48"/>
       <use transform="translate(182.761908 0)scale(0.996264)" xlink:href="#CMR17-48"/>
      </g>
     </g>
    </g>
    <g id="xtick_6">
     <g id="line2d_6">
      <g>
       <use style="stroke:#000000;stroke-width:0.8;" x="398.487273" xlink:href="#ma1cb704111" y="307.584"/>
      </g>
     </g>
     <g id="text_6">
      <!-- $\mathdefault{100000}$ -->
      <g transform="translate(383.543267 321.502498)scale(0.1 -0.1)">
       <defs>
        <path d="M 26.59375 63.40625 
C 26.59375 65.5 26.5 65.5 25.09375 65.5 
C 21.203125 61.1875 15.296875 59.796875 9.703125 59.796875 
C 9.40625 59.796875 8.90625 59.796875 8.796875 59.5 
C 8.703125 59.296875 8.703125 59.09375 8.703125 57 
C 11.796875 57 17 57.59375 21 59.984375 
L 21 7.203125 
C 21 3.6875 20.796875 2.5 12.203125 2.5 
L 9.203125 2.5 
L 9.203125 0 
C 14 0 19 0 23.796875 0 
C 28.59375 0 33.59375 0 38.40625 0 
L 38.40625 2.5 
L 35.40625 2.5 
C 26.796875 2.5 26.59375 3.59375 26.59375 7.15625 
z
" id="CMR17-49"/>
       </defs>
       <use transform="scale(0.996264)" xlink:href="#CMR17-49"/>
       <use transform="translate(45.690477 0)scale(0.996264)" xlink:href="#CMR17-48"/>
       <use transform="translate(91.380954 0)scale(0.996264)" xlink:href="#CMR17-48"/>
       <use transform="translate(137.071431 0)scale(0.996264)" xlink:href="#CMR17-48"/>
       <use transform="translate(182.761908 0)scale(0.996264)" xlink:href="#CMR17-48"/>
       <use transform="translate(228.452386 0)scale(0.996264)" xlink:href="#CMR17-48"/>
      </g>
     </g>
    </g>
   </g>
   <g id="matplotlib.axis_2">
    <g id="ytick_1">
     <g id="line2d_7">
      <defs>
       <path d="M 0 0 
L -3.5 0 
" id="m5054f22bd4" style="stroke:#000000;stroke-width:0.8;"/>
      </defs>
      <g>
       <use style="stroke:#000000;stroke-width:0.8;" x="57.6" xlink:href="#m5054f22bd4" y="296.726937"/>
      </g>
     </g>
     <g id="text_7">
      <!-- $\mathdefault{0.000}$ -->
      <g transform="translate(27.907251 300.186186)scale(0.1 -0.1)">
       <defs>
        <path d="M 18.40625 4.796875 
C 18.40625 7.6875 16 9.671875 13.59375 9.671875 
C 10.703125 9.671875 8.703125 7.28125 8.703125 4.890625 
C 8.703125 2 11.09375 0 13.5 0 
C 16.40625 0 18.40625 2.390625 18.40625 4.796875 
z
" id="CMMI12-58"/>
       </defs>
       <use transform="scale(0.996264)" xlink:href="#CMR17-48"/>
       <use transform="translate(45.690477 0)scale(0.996264)" xlink:href="#CMMI12-58"/>
       <use transform="translate(72.787654 0)scale(0.996264)" xlink:href="#CMR17-48"/>
       <use transform="translate(118.478131 0)scale(0.996264)" xlink:href="#CMR17-48"/>
       <use transform="translate(164.168608 0)scale(0.996264)" xlink:href="#CMR17-48"/>
      </g>
     </g>
    </g>
    <g id="ytick_2">
     <g id="line2d_8">
      <g>
       <use style="stroke:#000000;stroke-width:0.8;" x="57.6" xlink:href="#m5054f22bd4" y="264.379728"/>
      </g>
     </g>
     <g id="text_8">
      <!-- $\mathdefault{0.025}$ -->
      <g transform="translate(27.907251 267.838977)scale(0.1 -0.1)">
       <defs>
        <path d="M 11.40625 57.6875 
C 12.40625 57.28125 16.5 56 20.703125 56 
C 30 56 35.09375 61.109375 38 64.0625 
C 38 64.953125 38 65.5 37.40625 65.5 
C 37.296875 65.5 37.09375 65.5 36.296875 65.046875 
C 32.796875 63.40625 28.703125 62.078125 23.703125 62.078125 
C 20.703125 62.078125 16.203125 62.484375 11.296875 64.671875 
C 10.203125 65.171875 10 65.171875 9.90625 65.171875 
C 9.40625 65.171875 9.296875 65.0625 9.296875 63.078125 
L 9.296875 34.421875 
C 9.296875 32.640625 9.296875 32.140625 10.296875 32.140625 
C 10.796875 32.140625 11 32.34375 11.5 33.03125 
C 14.703125 37.515625 19.09375 39.40625 24.09375 39.40625 
C 27.59375 39.40625 35.09375 37.21875 35.09375 20.140625 
C 35.09375 16.953125 35.09375 11.171875 32.09375 6.578125 
C 29.59375 2.484375 25.703125 0.390625 21.40625 0.390625 
C 14.796875 0.390625 8.09375 5 6.296875 12.71875 
C 6.703125 12.609375 7.5 12.421875 7.90625 12.421875 
C 9.203125 12.421875 11.703125 13.125 11.703125 16.21875 
C 11.703125 18.90625 9.796875 20 7.90625 20 
C 5.59375 20 4.09375 18.59375 4.09375 15.796875 
C 4.09375 7.09375 11 -2 21.59375 -2 
C 31.90625 -2 41.703125 6.875 41.703125 19.75 
C 41.703125 31.71875 33.90625 41 24.203125 41 
C 19.09375 41 14.796875 39.109375 11.40625 35.53125 
z
" id="CMR17-53"/>
       </defs>
       <use transform="scale(0.996264)" xlink:href="#CMR17-48"/>
       <use transform="translate(45.690477 0)scale(0.996264)" xlink:href="#CMMI12-58"/>
       <use transform="translate(72.787654 0)scale(0.996264)" xlink:href="#CMR17-48"/>
       <use transform="translate(118.478131 0)scale(0.996264)" xlink:href="#CMR17-50"/>
       <use transform="translate(164.168608 0)scale(0.996264)" xlink:href="#CMR17-53"/>
      </g>
     </g>
    </g>
    <g id="ytick_3">
     <g id="line2d_9">
      <g>
       <use style="stroke:#000000;stroke-width:0.8;" x="57.6" xlink:href="#m5054f22bd4" y="232.032519"/>
      </g>
     </g>
     <g id="text_9">
      <!-- $\mathdefault{0.050}$ -->
      <g transform="translate(27.907251 235.491768)scale(0.1 -0.1)">
       <use transform="scale(0.996264)" xlink:href="#CMR17-48"/>
       <use transform="translate(45.690477 0)scale(0.996264)" xlink:href="#CMMI12-58"/>
       <use transform="translate(72.787654 0)scale(0.996264)" xlink:href="#CMR17-48"/>
       <use transform="translate(118.478131 0)scale(0.996264)" xlink:href="#CMR17-53"/>
       <use transform="translate(164.168608 0)scale(0.996264)" xlink:href="#CMR17-48"/>
      </g>
     </g>
    </g>
    <g id="ytick_4">
     <g id="line2d_10">
      <g>
       <use style="stroke:#000000;stroke-width:0.8;" x="57.6" xlink:href="#m5054f22bd4" y="199.68531"/>
      </g>
     </g>
     <g id="text_10">
      <!-- $\mathdefault{0.075}$ -->
      <g transform="translate(27.907251 203.144559)scale(0.1 -0.1)">
       <defs>
        <path d="M 45.09375 61.578125 
L 45.09375 63.765625 
L 21.59375 63.765625 
C 9.90625 63.765625 9.703125 65.078125 9.296875 67 
L 7.5 67 
L 4.59375 48.34375 
L 6.40625 48.34375 
C 6.703125 50.234375 7.40625 55.3125 8.59375 57.203125 
C 9.203125 58 16.59375 58 18.296875 58 
L 40.296875 58 
L 29.203125 41.578125 
C 21.796875 30.53125 16.703125 15.609375 16.703125 2.578125 
C 16.703125 1.390625 16.703125 -2 20.296875 -2 
C 23.90625 -2 23.90625 1.390625 23.90625 2.671875 
L 23.90625 7.265625 
C 23.90625 23.5625 26.703125 34.3125 31.296875 41.1875 
z
" id="CMR17-55"/>
       </defs>
       <use transform="scale(0.996264)" xlink:href="#CMR17-48"/>
       <use transform="translate(45.690477 0)scale(0.996264)" xlink:href="#CMMI12-58"/>
       <use transform="translate(72.787654 0)scale(0.996264)" xlink:href="#CMR17-48"/>
       <use transform="translate(118.478131 0)scale(0.996264)" xlink:href="#CMR17-55"/>
       <use transform="translate(164.168608 0)scale(0.996264)" xlink:href="#CMR17-53"/>
      </g>
     </g>
    </g>
    <g id="ytick_5">
     <g id="line2d_11">
      <g>
       <use style="stroke:#000000;stroke-width:0.8;" x="57.6" xlink:href="#m5054f22bd4" y="167.338101"/>
      </g>
     </g>
     <g id="text_11">
      <!-- $\mathdefault{0.100}$ -->
      <g transform="translate(27.907251 170.79735)scale(0.1 -0.1)">
       <use transform="scale(0.996264)" xlink:href="#CMR17-48"/>
       <use transform="translate(45.690477 0)scale(0.996264)" xlink:href="#CMMI12-58"/>
       <use transform="translate(72.787654 0)scale(0.996264)" xlink:href="#CMR17-49"/>
       <use transform="translate(118.478131 0)scale(0.996264)" xlink:href="#CMR17-48"/>
       <use transform="translate(164.168608 0)scale(0.996264)" xlink:href="#CMR17-48"/>
      </g>
     </g>
    </g>
    <g id="ytick_6">
     <g id="line2d_12">
      <g>
       <use style="stroke:#000000;stroke-width:0.8;" x="57.6" xlink:href="#m5054f22bd4" y="134.990892"/>
      </g>
     </g>
     <g id="text_12">
      <!-- $\mathdefault{0.125}$ -->
      <g transform="translate(27.907251 138.450142)scale(0.1 -0.1)">
       <use transform="scale(0.996264)" xlink:href="#CMR17-48"/>
       <use transform="translate(45.690477 0)scale(0.996264)" xlink:href="#CMMI12-58"/>
       <use transform="translate(72.787654 0)scale(0.996264)" xlink:href="#CMR17-49"/>
       <use transform="translate(118.478131 0)scale(0.996264)" xlink:href="#CMR17-50"/>
       <use transform="translate(164.168608 0)scale(0.996264)" xlink:href="#CMR17-53"/>
      </g>
     </g>
    </g>
    <g id="ytick_7">
     <g id="line2d_13">
      <g>
       <use style="stroke:#000000;stroke-width:0.8;" x="57.6" xlink:href="#m5054f22bd4" y="102.643683"/>
      </g>
     </g>
     <g id="text_13">
      <!-- $\mathdefault{0.150}$ -->
      <g transform="translate(27.907251 106.102933)scale(0.1 -0.1)">
       <use transform="scale(0.996264)" xlink:href="#CMR17-48"/>
       <use transform="translate(45.690477 0)scale(0.996264)" xlink:href="#CMMI12-58"/>
       <use transform="translate(72.787654 0)scale(0.996264)" xlink:href="#CMR17-49"/>
       <use transform="translate(118.478131 0)scale(0.996264)" xlink:href="#CMR17-53"/>
       <use transform="translate(164.168608 0)scale(0.996264)" xlink:href="#CMR17-48"/>
      </g>
     </g>
    </g>
    <g id="ytick_8">
     <g id="line2d_14">
      <g>
       <use style="stroke:#000000;stroke-width:0.8;" x="57.6" xlink:href="#m5054f22bd4" y="70.296474"/>
      </g>
     </g>
     <g id="text_14">
      <!-- $\mathdefault{0.175}$ -->
      <g transform="translate(27.907251 73.755724)scale(0.1 -0.1)">
       <use transform="scale(0.996264)" xlink:href="#CMR17-48"/>
       <use transform="translate(45.690477 0)scale(0.996264)" xlink:href="#CMMI12-58"/>
       <use transform="translate(72.787654 0)scale(0.996264)" xlink:href="#CMR17-49"/>
       <use transform="translate(118.478131 0)scale(0.996264)" xlink:href="#CMR17-55"/>
       <use transform="translate(164.168608 0)scale(0.996264)" xlink:href="#CMR17-53"/>
      </g>
     </g>
    </g>
   </g>
   <g id="line2d_15">
    <path clip-path="url(#p71a539074d)" d="M 73.832727 167.338101 
L 74.767732 167.448268 
L 74.800198 169.14939 
L 74.878115 193.050932 
L 74.91058 199.887121 
L 74.956032 191.445219 
L 75.007977 199.783505 
L 75.033949 201.602827 
L 75.069661 194.736776 
L 75.163811 163.051606 
L 75.231988 168.82263 
L 75.381329 183.205802 
L 75.420288 179.730691 
L 75.485219 173.129247 
L 75.566383 173.455568 
L 75.585862 173.41064 
L 75.618327 173.690523 
L 75.809873 177.264026 
L 75.852079 176.019738 
L 76.050118 165.720771 
L 76.08583 168.157026 
L 76.17024 173.659165 
L 76.225431 171.508842 
L 76.290362 168.707955 
L 76.361786 170.161495 
L 76.514374 172.481789 
L 76.660468 171.653423 
L 76.553332 172.684621 
L 76.676701 171.73463 
L 76.783837 172.863612 
L 76.848768 172.358115 
L 76.949411 170.606147 
L 77.001356 170.884324 
L 77.134464 171.601572 
L 77.137711 171.567542 
L 77.186409 171.781433 
L 77.228614 171.74605 
L 77.296791 171.997526 
L 77.342243 171.787849 
L 77.488337 170.633534 
L 77.524049 170.687458 
L 77.624692 171.145745 
L 77.78702 172.546823 
L 77.87143 172.088718 
L 78.037004 171.176497 
L 78.095441 171.129104 
L 78.157126 171.287126 
L 78.160372 171.268421 
L 78.202577 171.604294 
L 78.205824 171.597998 
L 78.325946 172.431844 
L 78.351919 172.383512 
L 78.530479 171.371741 
L 78.582423 171.309217 
L 78.644108 171.41622 
L 78.647354 171.391978 
L 78.709039 171.735977 
L 78.712285 171.726682 
L 78.871366 172.628445 
L 78.877859 172.6311 
L 79.056419 171.941448 
L 79.059665 171.953346 
L 79.114857 171.74525 
L 79.118103 171.769097 
L 79.127843 171.736835 
L 79.202513 171.96854 
L 79.20576 171.959565 
L 79.397306 173.066561 
L 79.56288 172.661545 
L 79.566127 172.677933 
L 79.627811 172.595211 
L 79.670016 172.644809 
L 79.673263 172.630022 
L 79.728454 172.840551 
L 79.7317 172.836897 
L 79.942726 173.97874 
L 80.043369 173.973789 
L 79.968698 173.998259 
L 80.056355 173.978323 
L 80.764102 178.665333 
L 81.806243 197.036895 
L 82.260759 210.153807 
L 82.760727 227.990017 
L 83.445748 257.381785 
L 84.263878 295.488 
L 84.322316 293.624136 
L 85.601455 241.419203 
L 86.215052 225.207024 
L 86.838388 215.076166 
L 87.41952 210.402364 
L 87.805859 209.186029 
L 87.987665 209.178293 
L 88.244143 209.448824 
L 88.338292 209.54776 
L 88.611002 210.488067 
L 90.776448 222.4984 
L 91.711453 227.557859 
L 91.909492 228.538355 
L 92.227654 229.914507 
L 92.990592 232.515514 
L 93.886639 234.53319 
L 93.889885 234.531568 
L 94.47751 235.312746 
L 94.480756 235.310061 
L 95.967674 237.547867 
L 96.204672 237.983174 
L 96.298822 238.180713 
L 96.840995 239.740694 
L 96.993583 240.289342 
L 97.327977 241.419522 
L 97.487057 241.967155 
L 97.902615 243.49917 
L 98.626595 246.020807 
L 100.00313 249.387807 
L 100.214156 249.567169 
L 100.54855 249.937547 
L 100.81152 249.966238 
L 101.061504 250.071626 
L 101.519267 249.890687 
L 101.658868 249.852517 
L 102.07118 249.465554 
L 102.204288 249.378975 
L 102.68153 248.809697 
L 102.808145 248.684246 
L 103.213964 248.135086 
L 103.366551 247.984282 
L 103.772369 247.456616 
L 103.937943 247.311039 
L 104.321036 246.881487 
L 104.759319 246.513042 
L 105.197603 246.290476 
L 105.434601 246.172318 
L 105.678092 246.146281 
L 105.960541 246.060987 
L 106.281949 246.090953 
L 106.531933 246.070665 
L 106.859834 246.145971 
L 107.109818 246.154019 
L 107.424733 246.236934 
L 107.694196 246.246151 
L 107.989632 246.303284 
L 108.291561 246.289056 
L 108.554531 246.301494 
L 108.888925 246.240363 
L 109.132416 246.205681 
L 109.486289 246.090156 
L 109.716794 246.015539 
L 110.077161 245.857062 
L 110.314159 245.748242 
L 110.661539 245.577263 
L 110.911523 245.448064 
L 111.245917 245.289443 
L 111.51538 245.154239 
L 111.836788 245.029429 
L 112.132224 244.903948 
L 112.450385 244.825492 
L 112.934121 244.714325 
L 113.275008 244.664642 
L 113.58343 244.669645 
L 114.184041 244.706735 
L 114.658036 244.77575 
L 115.414481 244.945641 
L 116.508567 245.216019 
L 117.148137 245.331857 
L 117.995485 245.417177 
L 124.082758 245.412465 
L 125.624867 245.513839 
L 127.627985 245.492737 
L 128.871412 245.436958 
L 131.140748 245.380472 
L 133.371124 245.411526 
L 145.276207 245.329431 
L 146.668975 245.294393 
L 147.091025 245.693884 
L 147.681897 246.206927 
L 147.899415 246.115142 
L 148.12992 245.733314 
L 148.467561 244.660043 
L 149.133103 242.532989 
L 149.288937 242.538502 
L 149.441524 242.866279 
L 149.672029 243.993324 
L 150.434967 248.87079 
L 150.516131 248.731093 
L 150.652486 247.87334 
L 150.870004 244.798663 
L 151.282316 234.988184 
L 151.717353 226.693238 
L 151.824489 226.25113 
L 151.86994 226.337874 
L 151.970583 227.163318 
L 152.149143 230.884433 
L 152.428346 242.219785 
L 152.863383 270.230217 
L 153.136093 287.053928 
L 153.181545 285.941285 
L 153.327639 273.797146 
L 154.37952 175.414532 
L 154.395753 175.403639 
L 154.437958 175.515396 
L 154.597039 176.128373 
L 154.655476 175.987685 
L 154.902214 174.684018 
L 154.980131 175.023576 
L 155.100253 177.090637 
L 155.285306 184.865139 
L 155.577495 208.438623 
L 155.908643 231.640951 
L 155.924876 231.556473 
L 155.98656 229.48607 
L 156.126161 215.140821 
L 156.739759 143.033535 
L 157.116358 114.990539 
L 157.580614 87.067442 
L 157.674764 85.822115 
L 157.723462 86.167519 
L 157.824105 89.35416 
L 157.999418 103.585611 
L 158.31758 151.89013 
L 158.596783 181.272338 
L 158.600029 181.270209 
L 158.632495 180.761481 
L 158.736384 174.479826 
L 159.434391 107.186847 
L 159.966825 55.14623 
L 160.064221 53.568 
L 160.112919 53.976473 
L 160.223302 57.615064 
L 160.434327 73.349811 
L 160.720023 112.657525 
L 161.112855 166.154063 
L 161.129088 166.052596 
L 161.197265 163.747433 
L 161.411537 146.551646 
L 162.327063 71.430091 
L 162.417967 69.698781 
L 162.466665 70.184294 
L 162.577047 74.65071 
L 162.814045 95.498648 
L 163.576983 165.778277 
L 163.583476 165.786814 
L 163.609449 165.622766 
L 163.706845 162.991982 
L 164.226292 139.892893 
L 164.843136 87.329746 
L 164.878848 87.585929 
L 164.972998 90.713765 
L 165.17753 106.787247 
L 166.034618 181.510259 
L 166.076823 181.564785 
L 166.148247 181.503713 
L 166.242397 181.578991 
L 166.281356 181.596538 
L 166.313821 181.50946 
L 166.388492 180.540038 
L 166.505367 175.215591 
L 166.7099 152.846372 
L 167.174156 104.262357 
L 167.281292 102.568457 
L 167.326743 102.833125 
L 167.430633 105.373474 
L 167.599453 115.998552 
L 167.875409 150.727855 
L 168.239023 188.235015 
L 168.420829 190.673148 
L 168.514979 190.685222 
L 168.540951 190.653077 
L 168.615622 190.298591 
L 168.713018 188.346619 
L 168.85262 179.693628 
L 169.122083 144.493708 
L 169.475956 109.369752 
L 169.661009 105.034077 
L 169.680489 105.079891 
L 169.74542 106.010838 
L 169.875281 111.808305 
L 170.089553 133.459023 
L 170.625233 189.798971 
L 170.794054 191.626734 
L 170.80704 191.616717 
L 170.865478 191.31276 
L 170.966121 189.332868 
L 171.108969 181.117971 
L 171.358953 150.335961 
L 171.768017 107.393944 
L 171.995276 100.914118 
L 172.011508 100.936929 
L 172.024495 101.005595 
L 172.102412 102.399811 
L 172.248506 109.95907 
L 172.49849 137.11154 
L 172.933527 180.006651 
L 173.131567 183.796519 
L 173.13806 183.791797 
L 173.180265 183.518363 
L 173.271168 181.122027 
L 173.420509 169.872761 
L 174.232145 93.688285 
L 174.258118 93.608819 
L 174.306816 93.86622 
L 174.410705 96.236683 
L 174.592512 106.536961 
L 174.91392 140.335773 
L 175.284026 170.89316 
L 175.387916 172.528175 
L 175.433367 172.168245 
L 175.527517 168.855853 
L 175.693091 153.224698 
L 176.303441 89.336094 
L 176.43655 87.247591 
L 176.472262 87.404275 
L 176.566412 89.178099 
L 176.748218 97.730464 
L 177.06638 125.253984 
L 177.556608 164.521276 
L 177.585827 164.700667 
L 177.634525 164.192847 
L 177.741661 159.538265 
L 177.955933 138.040713 
L 178.47538 87.68856 
L 178.644201 84.081572 
L 178.666927 84.145105 
L 178.741597 85.213822 
L 178.900678 91.43894 
L 179.186374 113.030945 
L 179.803217 161.199476 
L 179.812957 161.179561 
L 179.864902 160.406515 
L 179.988271 154.265462 
L 180.257734 126.414047 
L 180.696017 87.602514 
L 180.861591 84.127257 
L 180.887564 84.208703 
L 180.965481 85.431507 
L 181.127808 92.23062 
L 181.432983 116.199234 
L 182.020608 161.857539 
L 182.023855 161.857153 
L 182.053073 161.650485 
L 182.14073 158.912888 
L 182.322537 144.657652 
L 183.010804 85.121761 
L 183.091968 84.353648 
L 183.143913 84.69355 
L 183.257542 87.589096 
L 183.471814 99.953746 
L 183.93607 143.00456 
L 184.228259 160.219804 
L 184.244492 160.272215 
L 184.286697 159.902462 
L 184.38734 156.198571 
L 184.595119 138.332903 
L 185.189236 85.830672 
L 185.306112 84.132458 
L 185.348317 84.337956 
L 185.44896 86.487289 
L 185.640506 96.361219 
L 186.020352 130.078769 
L 186.442403 161.343686 
L 186.468375 161.478165 
L 186.513827 161.023137 
L 186.620963 156.676521 
L 186.844975 136.201701 
L 187.396887 86.598221 
L 187.536489 84.235654 
L 187.572201 84.396876 
L 187.666351 86.231211 
L 187.851404 95.191067 
L 188.205277 125.497614 
L 188.666287 160.149964 
L 188.692259 160.272635 
L 188.737711 159.81845 
L 188.844847 155.556929 
L 189.065612 135.702312 
L 189.620771 86.304653 
L 189.753879 84.134059 
L 189.789591 84.295982 
L 189.883741 86.150654 
L 190.068794 95.210521 
L 190.425914 126.112063 
L 190.89017 161.466627 
L 190.912896 161.582665 
L 190.958348 161.152554 
L 191.062237 157.04446 
L 191.279756 137.529825 
L 191.847901 86.513969 
L 191.981009 84.309749 
L 192.019968 84.484974 
L 192.117364 86.45753 
L 192.305664 95.817692 
L 192.672524 127.661049 
L 193.107561 160.086661 
L 193.13678 160.257339 
L 193.185478 159.759837 
L 193.29586 155.214617 
L 193.523119 134.382341 
L 194.062045 86.455156 
L 194.1984 84.132893 
L 194.234112 84.283826 
L 194.328262 86.111715 
L 194.510068 94.92094 
L 194.860695 125.020261 
L 195.337937 161.488933 
L 195.360663 161.585944 
L 195.406115 161.11872 
L 195.513251 156.736595 
L 195.737263 136.229808 
L 196.289175 86.674434 
L 196.428777 84.316388 
L 196.464489 84.479513 
L 196.558639 86.323461 
L 196.743692 95.308283 
L 197.100812 125.919643 
L 197.555328 160.096623 
L 197.5813 160.244412 
L 197.629999 159.772587 
L 197.737135 155.478418 
L 197.9579 135.604013 
L 198.513059 86.274624 
L 198.646167 84.127619 
L 198.681879 84.295085 
L 198.776029 86.16427 
L 198.961082 95.255605 
L 199.318202 126.178642 
L 199.782458 161.477139 
L 199.805184 161.587107 
L 199.850636 161.145253 
L 199.957772 156.817761 
L 200.181783 136.378433 
L 200.733696 86.72025 
L 200.873297 84.316339 
L 200.909009 84.468154 
L 201.003159 86.28343 
L 201.184966 95.010788 
L 201.535593 124.827723 
L 202.003095 160.116271 
L 202.029068 160.24323 
L 202.074519 159.797046 
L 202.181655 155.556053 
L 202.40242 135.749308 
L 202.95758 86.317474 
L 203.090688 84.126359 
L 203.129647 84.311911 
L 203.227043 86.324147 
L 203.415343 95.815612 
L 203.782202 127.994216 
L 204.226979 161.464104 
L 204.249705 161.587136 
L 204.298403 161.107887 
L 204.405539 156.701374 
L 204.629551 136.163087 
L 205.178217 86.766626 
L 205.317818 84.316507 
L 205.35353 84.457062 
L 205.444433 86.149455 
L 205.622993 94.511602 
L 205.963881 123.104539 
L 206.450863 160.134904 
L 206.473588 160.24317 
L 206.51904 159.821547 
L 206.622929 155.822984 
L 206.837201 136.967945 
L 207.41184 86.046212 
L 207.535209 84.126377 
L 207.577414 84.330324 
L 207.678057 86.49022 
L 207.869603 96.387297 
L 208.249449 130.143653 
L 208.6715 161.449951 
L 208.697472 161.587248 
L 208.742924 161.134036 
L 208.85006 156.781994 
L 209.074071 136.311709 
L 209.625984 86.699551 
L 209.765585 84.316287 
L 209.801297 84.473168 
L 209.895447 86.301205 
L 210.0805 95.259741 
L 210.43762 125.847413 
L 210.895383 160.121888 
L 210.921356 160.242413 
L 210.966807 159.785223 
L 211.073943 155.52026 
L 211.294708 135.682954 
L 211.849868 86.297512 
L 211.982976 84.12634 
L 212.018688 84.287683 
L 212.112838 86.141521 
L 212.297891 95.207011 
L 212.655011 126.106237 
L 213.119267 161.470135 
L 213.141993 161.587309 
L 213.190691 161.095803 
L 213.301073 156.463909 
L 213.531578 134.997926 
L 214.067258 86.860479 
L 214.210106 84.316325 
L 214.245818 84.461959 
L 214.336721 86.166677 
L 214.515281 94.549399 
L 214.859415 123.480742 
L 215.343151 160.140464 
L 215.365876 160.243067 
L 215.411328 159.810371 
L 215.518464 155.598694 
L 215.735983 136.188286 
L 216.297635 86.234255 
L 216.427497 84.126268 
L 216.466455 84.305017 
L 216.563852 86.301114 
L 216.752151 95.766714 
L 217.119011 127.921333 
L 217.563788 161.456433 
L 217.58976 161.587016 
L 217.635212 161.122324 
L 217.742348 156.745683 
L 217.966359 136.244618 
L 218.518272 86.678888 
L 218.657873 84.31641 
L 218.693585 84.478367 
L 218.787735 86.319141 
L 218.972788 95.298698 
L 219.329908 125.906529 
L 219.784425 160.09381 
L 219.810397 160.242978 
L 219.859095 159.773648 
L 219.966231 155.484633 
L 220.186996 135.616662 
L 220.742156 86.277728 
L 220.875264 84.126515 
L 220.910976 84.292985 
L 221.005126 86.159697 
L 221.190179 95.246419 
L 221.547299 126.165904 
L 222.011555 161.476088 
L 222.034281 161.587394 
L 222.079732 161.14811 
L 222.186868 156.825951 
L 222.407633 136.756462 
L 222.966039 86.613091 
L 223.102394 84.316256 
L 223.138106 84.466971 
L 223.232256 86.27953 
L 223.414063 95.002422 
L 223.764689 124.814993 
L 224.232192 160.114493 
L 224.258164 160.242866 
L 224.303616 159.799101 
L 224.410752 155.563341 
L 224.631517 135.763362 
L 225.186676 86.321648 
L 225.319785 84.126249 
L 225.358743 84.310587 
L 225.45614 86.319957 
L 225.644439 95.806924 
L 226.011299 127.981279 
L 226.456076 161.462718 
L 226.478801 161.58702 
L 226.5275 161.110437 
L 226.634636 156.709224 
L 226.858647 136.177493 
L 227.407313 86.771079 
L 227.546915 84.316523 
L 227.582627 84.455988 
L 227.67353 86.145729 
L 227.85209 94.503475 
L 228.192977 123.091937 
L 228.679959 160.133634 
L 228.702685 160.243106 
L 228.748137 159.823856 
L 228.852026 155.830329 
L 229.066298 136.981933 
L 229.640937 86.050178 
L 229.764305 84.126408 
L 229.806511 84.329063 
L 229.907153 86.486031 
L 230.0987 96.378523 
L 230.478545 130.130755 
L 230.900596 161.44859 
L 230.926569 161.587316 
L 230.975267 161.071241 
L 231.085649 156.38897 
L 231.316154 134.862519 
L 231.848588 86.934398 
L 231.994682 84.316274 
L 232.027148 84.445416 
L 232.118051 86.107814 
L 232.296611 94.419937 
L 232.637498 122.962482 
L 233.127727 160.15123 
L 233.150452 160.24252 
L 233.192657 159.84791 
L 233.296547 155.906314 
L 233.510819 137.126882 
L 234.085457 86.091691 
L 234.212073 84.126317 
L 234.251031 84.316242 
L 234.348428 86.338879 
L 234.536727 95.847188 
L 234.906833 128.366784 
L 235.345117 161.433702 
L 235.371089 161.587282 
L 235.419788 161.098404 
L 235.53017 156.471899 
L 235.760675 135.012398 
L 236.296355 86.86506 
L 236.439203 84.31635 
L 236.474915 84.460898 
L 236.565818 86.16298 
L 236.744378 94.541302 
L 237.088512 123.468218 
L 237.572247 160.139274 
L 237.594973 160.243088 
L 237.640425 159.812761 
L 237.747561 155.606238 
L 237.965079 136.202398 
L 238.526732 86.238436 
L 238.656593 84.126284 
L 238.695552 84.303836 
L 238.792948 86.297095 
L 238.981248 95.758125 
L 239.348108 127.908516 
L 239.792884 161.455066 
L 239.818857 161.587084 
L 239.864308 161.124845 
L 239.971444 156.753463 
L 240.195456 136.258969 
L 240.747369 86.683299 
L 240.88697 84.316377 
L 240.922682 84.477248 
L 241.016832 86.315299 
L 241.201885 95.290363 
L 241.559005 125.893886 
L 242.013521 160.092378 
L 242.039494 160.242929 
L 242.088192 159.776136 
L 242.195328 155.492261 
L 242.416093 135.630839 
L 242.971252 86.28195 
L 243.104361 84.126471 
L 243.140073 84.291846 
L 243.234223 86.155806 
L 243.419276 95.237987 
L 243.776396 126.153147 
L 244.240652 161.47483 
L 244.263377 161.587391 
L 244.308829 161.150562 
L 244.415965 156.833672 
L 244.63673 136.770756 
L 245.195136 86.61744 
L 245.331491 84.316263 
L 245.367203 84.465892 
L 245.461353 86.275724 
L 245.643159 94.99418 
L 245.993786 124.802399 
L 246.461289 160.113165 
L 246.487261 160.242921 
L 246.532713 159.801523 
L 246.639849 155.570911 
L 246.860614 135.777522 
L 247.415773 86.325914 
L 247.548881 84.126246 
L 247.58784 84.309389 
L 247.685236 86.315921 
L 247.873536 95.798321 
L 248.240396 127.96846 
L 248.685172 161.461387 
L 248.711145 161.586698 
L 248.756596 161.112991 
L 248.863732 156.71703 
L 249.087744 136.191849 
L 249.63641 86.775577 
L 249.779258 84.316567 
L 249.811724 84.454949 
L 249.902627 86.14205 
L 250.081187 94.495393 
L 250.422074 123.07943 
L 250.909056 160.132408 
L 250.931782 160.243091 
L 250.977233 159.82621 
L 251.081123 155.837695 
L 251.295395 136.995942 
L 251.870033 86.054168 
L 251.993402 84.126446 
L 252.035607 84.327807 
L 252.13625 86.481852 
L 252.327796 96.369753 
L 252.707642 130.117887 
L 253.129693 161.447185 
L 253.155665 161.587345 
L 253.204364 161.073896 
L 253.314746 156.397006 
L 253.545251 134.877001 
L 254.077684 86.939044 
L 254.223779 84.316263 
L 254.256244 84.444417 
L 254.343901 86.012928 
L 254.519215 94.00657 
L 254.853609 121.684641 
L 255.36007 160.176493 
L 255.379549 160.242606 
L 255.421754 159.850196 
L 255.525644 155.913621 
L 255.736669 137.495337 
L 256.317801 85.994638 
L 256.441169 84.126295 
L 256.480128 84.315026 
L 256.577524 86.334826 
L 256.765824 95.838574 
L 257.13593 128.353954 
L 257.574214 161.432223 
L 257.600186 161.587239 
L 257.648884 161.100989 
L 257.759267 156.479876 
L 257.989772 135.026867 
L 258.525452 86.869644 
L 258.6683 84.31638 
L 258.704012 84.459841 
L 258.794915 86.159285 
L 258.973475 94.533209 
L 259.317609 123.45569 
L 259.801344 160.138081 
L 259.82407 160.243104 
L 259.869521 159.815145 
L 259.976657 155.613776 
L 260.194176 136.216506 
L 260.755828 86.242619 
L 260.88569 84.126303 
L 260.924649 84.30266 
L 261.022045 86.293079 
L 261.210345 95.749537 
L 261.577204 127.895699 
L 262.021981 161.453694 
L 262.047953 161.587146 
L 262.093405 161.12736 
L 262.200541 156.761237 
L 262.424553 136.273317 
L 262.976465 86.687714 
L 263.116067 84.316348 
L 263.151779 84.476134 
L 263.245929 86.31146 
L 263.430982 95.28203 
L 263.788102 125.881246 
L 264.242618 160.09094 
L 264.268591 160.242876 
L 264.317289 159.778619 
L 264.424425 155.499884 
L 264.64519 135.645014 
L 265.200349 86.286177 
L 265.333457 84.126431 
L 265.369169 84.290709 
L 265.463319 86.151918 
L 265.648372 95.229558 
L 266.005492 126.140391 
L 266.469748 161.473565 
L 266.492474 161.587381 
L 266.537926 161.153008 
L 266.645062 156.841386 
L 266.865827 136.785048 
L 267.424233 86.621792 
L 267.560588 84.316275 
L 267.5963 84.464817 
L 267.687203 86.176597 
L 267.869009 94.777661 
L 268.21639 124.151242 
L 268.693632 160.143604 
L 268.716358 160.242969 
L 268.761809 159.803938 
L 268.868945 155.578475 
L 269.089711 135.79168 
L 269.64487 86.330184 
L 269.777978 84.126247 
L 269.816937 84.308194 
L 269.914333 86.311889 
L 270.102633 95.789722 
L 270.469492 127.955642 
L 270.914269 161.460048 
L 270.940241 161.586793 
L 270.985693 161.115538 
L 271.092829 156.724831 
L 271.316841 136.206204 
L 271.868753 86.667101 
L 272.008355 84.316519 
L 272.044067 84.48138 
L 272.138217 86.329444 
L 272.32327 95.321023 
L 272.68039 125.940365 
L 273.134906 160.097606 
L 273.160879 160.243069 
L 273.209577 159.766953 
L 273.316713 155.464185 
L 273.537478 135.578707 
L 274.092637 86.266446 
L 274.222499 84.126488 
L 274.261457 84.296056 
L 274.355607 86.170131 
L 274.54066 95.269002 
L 274.89778 126.200049 
L 275.362036 161.479421 
L 275.384762 161.587368 
L 275.430214 161.141512 
L 275.53735 156.805258 
L 275.761361 136.354736 
L 276.313274 86.712858 
L 276.452876 84.316256 
L 276.488588 84.469878 
L 276.582737 86.289734 
L 276.764544 95.024498 
L 277.115171 124.848707 
L 277.582673 160.118015 
L 277.608646 160.242686 
L 277.654097 159.792588 
L 277.761233 155.543051 
L 277.981999 135.725452 
L 278.537158 86.31025 
L 278.670266 84.126277 
L 278.705978 84.284333 
L 278.800128 86.129915 
L 278.985181 95.181757 
L 279.342301 126.067993 
L 279.806557 161.466248 
L 279.829283 161.587189 
L 279.877981 161.103568 
L 279.985117 156.6883 
L 280.209129 136.139059 
L 280.757795 86.759061 
L 280.897396 84.316414 
L 280.933108 84.458788 
L 281.024012 86.155593 
L 281.202572 94.525118 
L 281.543459 123.125418 
L 282.030441 160.13688 
L 282.053167 160.243114 
L 282.098618 159.817523 
L 282.205754 155.621308 
L 282.423273 136.230612 
L 282.984925 86.246807 
L 283.114787 84.126326 
L 283.153745 84.301487 
L 283.251142 86.289067 
L 283.439441 95.740952 
L 283.806301 127.882883 
L 284.251078 161.452315 
L 284.27705 161.587202 
L 284.322502 161.129869 
L 284.429638 156.769005 
L 284.653649 136.287663 
L 285.205562 86.692134 
L 285.345164 84.316322 
L 285.380876 84.475023 
L 285.475025 86.307624 
L 285.660079 95.273699 
L 286.017199 125.868606 
L 286.471715 160.089495 
L 286.497687 160.242815 
L 286.546385 159.781095 
L 286.653521 155.507502 
L 286.874287 135.659188 
L 287.429446 86.290408 
L 287.562554 84.126394 
L 287.598266 84.289577 
L 287.692416 86.148033 
L 287.877469 95.221131 
L 288.234589 126.127637 
L 288.698845 161.472292 
L 288.721571 161.587363 
L 288.767023 161.155446 
L 288.870912 157.042843 
L 289.088431 137.522669 
L 289.656576 86.51685 
L 289.789684 84.31629 
L 289.828643 84.492125 
L 289.926039 86.465444 
L 290.114339 95.827309 
L 290.481199 127.667331 
L 290.916236 160.074136 
L 290.945455 160.24301 
L 290.994153 159.743193 
L 291.104535 155.195154 
L 291.331793 134.360482 
L 291.867473 86.556966 
L 292.007075 84.126251 
L 292.042787 84.278083 
L 292.136937 86.108028 
L 292.318743 94.921713 
L 292.66937 125.026327 
L 293.146612 161.49067 
L 293.169338 161.586882 
L 293.211543 161.180299 
L 293.315433 157.1208 
L 293.532951 137.669648 
L 294.104343 86.453398 
L 294.237452 84.316475 
L 294.273164 84.480251 
L 294.367313 86.325592 
L 294.552367 95.31268 
L 294.909487 125.927723 
L 295.364003 160.096193 
L 295.389975 160.24304 
L 295.438673 159.769459 
L 295.545809 155.471829 
L 295.766575 135.592888 
L 296.321734 86.270657 
L 296.454842 84.126598 
L 296.490554 84.294906 
L 296.584704 86.16623 
L 296.769757 95.260563 
L 297.126877 126.187291 
L 297.591133 161.478182 
L 297.613859 161.587384 
L 297.659311 161.143983 
L 297.766447 156.812994 
L 297.990458 136.369073 
L 298.542371 86.717301 
L 298.681972 84.316252 
L 298.717684 84.468789 
L 298.811834 86.285919 
L 298.993641 95.016248 
L 299.344268 124.836111 
L 299.81177 160.116705 
L 299.837743 160.242759 
L 299.883194 159.795027 
L 299.99033 155.550636 
L 300.211095 135.739616 
L 300.766255 86.314505 
L 300.899363 84.126263 
L 300.938321 84.312605 
L 301.035718 86.326732 
L 301.224017 95.821353 
L 301.594124 128.328296 
L 302.032407 161.429246 
L 302.05838 161.587132 
L 302.107078 161.10614 
L 302.214214 156.696122 
L 302.438225 136.153419 
L 302.986892 86.763548 
L 303.126493 84.316451 
L 303.162205 84.457738 
L 303.253108 86.151905 
L 303.431668 94.51703 
L 303.772556 123.112909 
L 304.259537 160.135673 
L 304.282263 160.243117 
L 304.327715 159.819895 
L 304.431604 155.817966 
L 304.645876 136.95844 
L 305.220515 86.043497 
L 305.343884 84.126354 
L 305.386089 84.331178 
L 305.486732 86.493047 
L 305.678278 96.393231 
L 306.058124 130.15233 
L 306.480175 161.450929 
L 306.506147 161.58725 
L 306.551599 161.132371 
L 306.658735 156.776768 
L 306.882746 136.302008 
L 307.434659 86.696557 
L 307.57426 84.316301 
L 307.609972 84.473916 
L 307.704122 86.303792 
L 307.889175 95.265371 
L 308.246295 125.855967 
L 308.700812 160.088044 
L 308.726784 160.242748 
L 308.775482 159.783564 
L 308.882618 155.515114 
L 309.103383 135.67336 
L 309.658543 86.294643 
L 309.791651 84.126362 
L 309.827363 84.288449 
L 309.921513 86.144152 
L 310.106566 95.212707 
L 310.463686 126.114882 
L 310.927942 161.471013 
L 310.950668 161.587339 
L 310.996119 161.157878 
L 311.100009 157.0504 
L 311.317527 137.536873 
L 311.885673 86.521105 
L 312.018781 84.316309 
L 312.05774 84.490961 
L 312.155136 86.461469 
L 312.343436 95.818812 
L 312.710295 127.654631 
L 313.145332 160.072613 
L 313.174551 160.243045 
L 313.223249 159.74576 
L 313.333632 155.202994 
L 313.56089 134.374792 
L 314.099817 86.448745 
L 314.236172 84.12626 
L 314.271884 84.276994 
L 314.366033 86.104184 
L 314.54784 94.913383 
L 314.898467 125.01362 
L 315.375709 161.489497 
L 315.398435 161.586963 
L 315.443887 161.120612 
L 315.551023 156.740416 
L 315.775034 136.234909 
L 316.326947 86.675905 
L 316.466548 84.316435 
L 316.50226 84.479126 
L 316.59641 86.321743 
L 316.781463 95.30434 
L 317.138583 125.915081 
L 317.5931 160.094773 
L 317.619072 160.243004 
L 317.66777 159.771959 
L 317.774906 155.479467 
L 317.995671 135.607068 
L 318.550831 86.274873 
L 318.683939 84.126548 
L 318.719651 84.293759 
L 318.813801 86.162332 
L 318.998854 95.252126 
L 319.355974 126.174535 
L 319.82023 161.476936 
L 319.842956 161.587392 
L 319.888407 161.146446 
L 319.995543 156.820724 
L 320.219555 136.383409 
L 320.771468 86.721748 
L 320.911069 84.316253 
L 320.946781 84.467704 
L 321.040931 86.282107 
L 321.222737 95.008001 
L 321.573364 124.823516 
L 322.040867 160.115389 
L 322.066839 160.242825 
L 322.112291 159.797459 
L 322.219427 155.558215 
L 322.440192 135.753779 
L 322.995351 86.318763 
L 323.12846 84.126253 
L 323.167418 84.3114 
L 323.264815 86.32269 
L 323.453114 95.812746 
L 323.819974 127.989953 
L 324.264751 161.463616 
L 324.287476 161.587068 
L 324.336175 161.108705 
L 324.443311 156.703938 
L 324.667322 136.167778 
L 325.215988 86.768038 
L 325.35559 84.316493 
L 325.391302 84.456693 
L 325.482205 86.14822 
L 325.660765 94.508944 
L 326.001652 123.100401 
L 326.488634 160.134459 
L 326.51136 160.243113 
L 326.556812 159.822259 
L 326.660701 155.825342 
L 326.874973 136.972452 
L 327.449612 86.04748 
L 327.57298 84.126385 
L 327.615185 84.329915 
L 327.715828 86.488861 
L 327.907375 96.384458 
L 328.28722 130.139462 
L 328.709271 161.449536 
L 328.735244 161.587292 
L 328.780695 161.134866 
L 328.887831 156.784524 
L 329.111843 136.316351 
L 329.663756 86.700985 
L 329.803357 84.316283 
L 329.839069 84.472812 
L 329.933219 86.299964 
L 330.118272 95.257046 
L 330.475392 125.843328 
L 330.933155 160.121488 
L 330.959127 160.242457 
L 331.004579 159.786027 
L 331.111715 155.52272 
L 331.33248 135.68753 
L 331.887639 86.298882 
L 332.020748 84.126334 
L 332.05646 84.287324 
L 332.150609 86.140275 
L 332.335663 95.204286 
L 332.692783 126.102128 
L 333.157039 161.469726 
L 333.179764 161.587308 
L 333.228463 161.096651 
L 333.338845 156.466497 
L 333.56935 135.002607 
L 334.10503 86.861961 
L 334.247878 84.316332 
L 334.28359 84.461615 
L 334.374493 86.165483 
L 334.553053 94.54678 
L 334.897187 123.476695 
L 335.380922 160.140078 
L 335.403648 160.243073 
L 335.4491 159.811144 
L 335.556236 155.601134 
L 335.773754 136.192851 
L 336.335407 86.235608 
L 336.465268 84.126273 
L 336.504227 84.304634 
L 336.601623 86.299814 
L 336.789923 95.763938 
L 337.156783 127.917189 
L 337.601559 161.45599 
L 337.627532 161.587037 
L 337.672983 161.123139 
L 337.780119 156.748199 
L 338.004131 136.24926 
L 338.556044 86.680314 
L 338.695645 84.316399 
L 338.731357 84.478005 
L 338.825507 86.317898 
L 339.01056 95.296003 
L 339.36768 125.90244 
L 339.822196 160.093347 
L 339.848169 160.242962 
L 339.896867 159.774453 
L 340.004003 155.4871 
L 340.224768 135.621246 
L 340.779927 86.279092 
L 340.913036 84.126501 
L 340.948748 84.292616 
L 341.042897 86.158438 
L 341.227951 95.243693 
L 341.585071 126.161778 
L 342.049327 161.475682 
L 342.072052 161.587394 
L 342.117504 161.148903 
L 342.22464 156.828448 
L 342.445405 136.761084 
L 343.003811 86.614497 
L 343.140166 84.316258 
L 343.175878 84.466622 
L 343.270028 86.278299 
L 343.451834 94.999757 
L 343.802461 124.810921 
L 344.269964 160.114065 
L 344.295936 160.242885 
L 344.341388 159.799885 
L 344.448524 155.565789 
L 344.669289 135.76794 
L 345.224448 86.323027 
L 345.357556 84.126248 
L 345.396515 84.310199 
L 345.493911 86.318652 
L 345.682211 95.804142 
L 346.049071 127.977134 
L 346.493847 161.462289 
L 346.516573 161.586996 
L 346.565271 161.111264 
L 346.672407 156.711749 
L 346.896419 136.182135 
L 347.445085 86.772533 
L 347.587933 84.316601 
L 347.620399 84.455651 
L 347.711302 86.144539 
L 347.889862 94.500861 
L 348.230749 123.087893 
L 348.717731 160.133238 
L 348.740457 160.243102 
L 348.785908 159.824618 
L 348.889798 155.832712 
L 349.10407 136.986462 
L 349.678708 86.051467 
L 349.802077 84.12642 
L 349.844282 84.328656 
L 349.944925 86.48468 
L 350.136471 96.375687 
L 350.516317 130.126594 
L 350.938368 161.448136 
L 350.96434 161.587326 
L 351.013039 161.0721 
L 351.123421 156.391569 
L 351.353926 134.867202 
L 351.886359 86.9359 
L 352.032454 84.31627 
L 352.064919 84.445093 
L 352.155823 86.106636 
L 352.334383 94.417333 
L 352.67527 122.95844 
L 353.165498 160.150867 
L 353.188224 160.242548 
L 353.230429 159.848649 
L 353.334319 155.908677 
L 353.545344 137.485904 
L 354.126476 85.99198 
L 354.249844 84.126309 
L 354.288803 84.315848 
L 354.386199 86.337568 
L 354.574499 95.844402 
L 354.944605 128.362635 
L 355.382889 161.433224 
L 355.408861 161.587269 
L 355.457559 161.099241 
L 355.567942 156.474479 
L 355.798447 135.017077 
L 356.334127 86.866542 
L 356.476975 84.316359 
L 356.512687 84.460556 
L 356.60359 86.161785 
L 356.78215 94.538685 
L 357.126284 123.464167 
L 357.610019 160.138889 
L 357.632745 160.243094 
L 357.678196 159.813533 
L 357.785332 155.608676 
L 358.002851 136.20696 
L 358.564503 86.239788 
L 358.694365 84.126289 
L 358.733324 84.303455 
L 358.83072 86.295796 
L 359.01902 95.755348 
L 359.385879 127.904372 
L 359.830656 161.454623 
L 359.856628 161.587105 
L 359.90208 161.125659 
L 360.009216 156.755977 
L 360.233228 136.263608 
L 360.78514 86.684726 
L 360.924742 84.316367 
L 360.960454 84.476888 
L 361.054604 86.314057 
L 361.239657 95.287668 
L 361.596777 125.889799 
L 362.051293 160.091914 
L 362.077265 160.242913 
L 362.125964 159.77694 
L 362.2331 155.494727 
L 362.453865 135.635422 
L 363.009024 86.283316 
L 363.142132 84.126458 
L 363.177844 84.291478 
L 363.271994 86.154548 
L 363.457047 95.235262 
L 363.814167 126.149023 
L 364.278423 161.474422 
L 364.301149 161.587388 
L 364.346601 161.151353 
L 364.453737 156.836167 
L 364.674502 136.775377 
L 365.232908 86.618846 
L 365.369263 84.316267 
L 365.404975 84.465544 
L 365.499124 86.274494 
L 365.680931 94.991515 
L 366.031558 124.798327 
L 366.49906 160.112734 
L 366.525033 160.242937 
L 366.570484 159.802305 
L 366.67762 155.573357 
L 366.898385 135.7821 
L 367.453545 86.327294 
L 367.586653 84.126246 
L 367.625612 84.309002 
L 367.723008 86.314617 
L 367.911308 95.79554 
L 368.278167 127.964316 
L 368.722944 161.460955 
L 368.748916 161.58673 
L 368.794368 161.113815 
L 368.901504 156.719553 
L 369.125516 136.196491 
L 369.674182 86.777032 
L 369.81703 84.316551 
L 369.849495 84.454613 
L 369.940399 86.140861 
L 370.118959 94.492781 
L 370.459846 123.075387 
L 370.946828 160.132011 
L 370.969553 160.243084 
L 371.015005 159.826969 
L 371.118895 155.840076 
L 371.333167 137.000471 
L 371.907805 86.055459 
L 372.031174 84.126459 
L 372.073379 84.327401 
L 372.174022 86.480502 
L 372.365568 96.366918 
L 372.745414 130.113727 
L 373.167465 161.446729 
L 373.193437 161.587353 
L 373.242135 161.074753 
L 373.352518 156.399604 
L 373.583023 134.881684 
L 374.115456 86.940548 
L 374.261551 84.31626 
L 374.294016 84.444095 
L 374.381673 86.011781 
L 374.556986 94.004011 
L 374.89138 121.680624 
L 375.397841 160.176184 
L 375.417321 160.242633 
L 375.459526 159.850933 
L 375.563415 155.915982 
L 375.774441 137.499844 
L 376.355572 85.995909 
L 376.478941 84.126289 
L 376.5179 84.314633 
L 376.615296 86.333517 
L 376.803596 95.835789 
L 377.173702 128.349806 
L 377.611985 161.431744 
L 377.637958 161.587224 
L 377.686656 161.101824 
L 377.793792 156.683004 
L 378.017804 136.129341 
L 378.56647 86.756028 
L 378.706071 84.31639 
L 378.741783 84.4595 
L 378.832687 86.158091 
L 379.011247 94.530592 
L 379.352134 123.133883 
L 379.839116 160.137693 
L 379.861841 160.243108 
L 379.907293 159.815915 
L 380.014429 155.616212 
L 380.231948 136.221067 
L 380.7936 86.243973 
L 380.923462 84.12631 
L 380.96242 84.30228 
L 381.059817 86.291781 
L 381.248116 95.746761 
L 381.614976 127.891555 
L 382.059753 161.453249 
L 382.085725 161.587165 
L 382.131177 161.128172 
L 382.238313 156.763749 
L 382.462324 136.277956 
L 383.014237 86.689143 
L 383.153839 84.316339 
L 383.189551 84.475774 
L 383.2837 86.310219 
L 383.468753 95.279336 
L 383.825873 125.877159 
L 384.28039 160.090474 
L 384.306362 160.242857 
L 384.35506 159.77942 
L 384.462196 155.502348 
L 384.682961 135.649597 
L 385.238121 86.287544 
L 385.371229 84.126419 
L 385.406941 84.290343 
L 385.501091 86.150661 
L 385.686144 95.226833 
L 386.043264 126.136267 
L 386.50752 161.473154 
L 386.530246 161.587376 
L 386.575697 161.153797 
L 386.682833 156.84388 
L 386.903599 136.789669 
L 387.462004 86.6232 
L 387.598359 84.316279 
L 387.634071 84.464471 
L 387.724975 86.175398 
L 387.906781 94.775019 
L 388.254161 124.14718 
L 388.731404 160.143227 
L 388.754129 160.242983 
L 388.799581 159.804717 
L 388.906717 155.58092 
L 389.127482 135.796258 
L 389.682641 86.331565 
L 389.81575 84.126248 
L 389.854708 84.307809 
L 389.952105 86.310586 
L 390.140404 95.786941 
L 390.507264 127.951497 
L 390.952041 161.459614 
L 390.978013 161.586823 
L 391.023465 161.11636 
L 391.130601 156.727352 
L 391.354612 136.210845 
L 391.906525 86.668523 
L 392.046127 84.316504 
L 392.081839 84.481015 
L 392.175988 86.328198 
L 392.361041 95.318325 
L 392.718161 125.936277 
L 393.172678 160.09715 
L 393.19865 160.24306 
L 393.247348 159.767764 
L 393.354484 155.466657 
L 393.575249 135.583292 
L 394.130409 86.267807 
L 394.260271 84.126503 
L 394.299229 84.295684 
L 394.393379 86.168869 
L 394.578432 95.266273 
L 394.935552 126.195924 
L 395.399808 161.479021 
L 395.422534 161.587374 
L 395.467985 161.142312 
L 395.575121 156.80776 
L 395.799133 136.359372 
L 396.351046 86.714294 
L 396.490647 84.316254 
L 396.526359 84.469525 
L 396.620509 86.2885 
L 396.802316 95.02183 
L 397.152943 124.844634 
L 397.620445 160.117593 
L 397.646417 160.24271 
L 397.691869 159.793377 
L 397.799005 155.545504 
L 398.01977 135.730032 
L 398.487273 90.212438 
L 398.487273 90.212438 
" style="fill:none;stroke:#1f77b4;stroke-linecap:square;stroke-width:1.5;"/>
   </g>
   <g id="patch_3">
    <path d="M 57.6 307.584 
L 57.6 41.472 
" style="fill:none;stroke:#000000;stroke-linecap:square;stroke-linejoin:miter;stroke-width:0.8;"/>
   </g>
   <g id="patch_4">
    <path d="M 414.72 307.584 
L 414.72 41.472 
" style="fill:none;stroke:#000000;stroke-linecap:square;stroke-linejoin:miter;stroke-width:0.8;"/>
   </g>
   <g id="patch_5">
    <path d="M 57.6 307.584 
L 414.72 307.584 
" style="fill:none;stroke:#000000;stroke-linecap:square;stroke-linejoin:miter;stroke-width:0.8;"/>
   </g>
   <g id="patch_6">
    <path d="M 57.6 41.472 
L 414.72 41.472 
" style="fill:none;stroke:#000000;stroke-linecap:square;stroke-linejoin:miter;stroke-width:0.8;"/>
   </g>
  </g>
 </g>
 <defs>
  <clipPath id="p71a539074d">
   <rect height="266.112" width="357.12" x="57.6" y="41.472"/>
  </clipPath>
 </defs>
</svg>
