<?xml version="1.0" encoding="utf-8" standalone="no"?>
<!DOCTYPE svg PUBLIC "-//W3C//DTD SVG 1.1//EN"
  "http://www.w3.org/Graphics/SVG/1.1/DTD/svg11.dtd">
<!-- Created with matplotlib (https://matplotlib.org/) -->
<svg height="345.6pt" version="1.1" viewBox="0 0 460.8 345.6" width="460.8pt" xmlns="http://www.w3.org/2000/svg" xmlns:xlink="http://www.w3.org/1999/xlink">
 <metadata>
  <rdf:RDF xmlns:cc="http://creativecommons.org/ns#" xmlns:dc="http://purl.org/dc/elements/1.1/" xmlns:rdf="http://www.w3.org/1999/02/22-rdf-syntax-ns#">
   <cc:Work>
    <dc:type rdf:resource="http://purl.org/dc/dcmitype/StillImage"/>
    <dc:date>2020-07-23T21:13:52.162827</dc:date>
    <dc:format>image/svg+xml</dc:format>
    <dc:creator>
     <cc:Agent>
      <dc:title>Matplotlib v3.3.0, https://matplotlib.org/</dc:title>
     </cc:Agent>
    </dc:creator>
   </cc:Work>
  </rdf:RDF>
 </metadata>
 <defs>
  <style type="text/css">*{stroke-linecap:butt;stroke-linejoin:round;}</style>
 </defs>
 <g id="figure_1">
  <g id="patch_1">
   <path d="M 0 345.6 
L 460.8 345.6 
L 460.8 0 
L 0 0 
z
" style="fill:#ffffff;"/>
  </g>
  <g id="axes_1">
   <g id="patch_2">
    <path d="M 57.6 307.584 
L 414.72 307.584 
L 414.72 41.472 
L 57.6 41.472 
z
" style="fill:#ffffff;"/>
   </g>
   <g id="matplotlib.axis_1">
    <g id="xtick_1">
     <g id="line2d_1">
      <defs>
       <path d="M 0 0 
L 0 3.5 
" id="mcdd580ca86" style="stroke:#000000;stroke-width:0.8;"/>
      </defs>
      <g>
       <use style="stroke:#000000;stroke-width:0.8;" x="73.832727" xlink:href="#mcdd580ca86" y="307.584"/>
      </g>
     </g>
     <g id="text_1">
      <!-- $\mathdefault{0}$ -->
      <g transform="translate(71.34206 321.502498)scale(0.1 -0.1)">
       <defs>
        <path d="M 42 31.640625 
C 42 37.75 41.90625 48.125 37.703125 56.109375 
C 34 63.109375 28.09375 65.59375 22.90625 65.59375 
C 18.09375 65.59375 12 63.40625 8.203125 56.203125 
C 4.203125 48.71875 3.796875 39.4375 3.796875 31.640625 
C 3.796875 25.953125 3.90625 17.28125 7 9.671875 
C 11.296875 -0.609375 19 -2 22.90625 -2 
C 27.5 -2 34.5 -0.109375 38.59375 9.375 
C 41.59375 16.28125 42 24.359375 42 31.640625 
z
M 22.90625 -0.40625 
C 16.5 -0.40625 12.703125 5.078125 11.296875 12.6875 
C 10.203125 18.5625 10.203125 27.15625 10.203125 32.75 
C 10.203125 40.4375 10.203125 46.828125 11.5 52.921875 
C 13.40625 61.390625 19 64 22.90625 64 
C 27 64 32.296875 61.296875 34.203125 53.125 
C 35.5 47.4375 35.59375 40.734375 35.59375 32.75 
C 35.59375 26.25 35.59375 18.265625 34.40625 12.375 
C 32.296875 1.484375 26.40625 -0.40625 22.90625 -0.40625 
z
" id="CMR17-48"/>
       </defs>
       <use transform="scale(0.996264)" xlink:href="#CMR17-48"/>
      </g>
     </g>
    </g>
    <g id="xtick_2">
     <g id="line2d_2">
      <g>
       <use style="stroke:#000000;stroke-width:0.8;" x="138.763636" xlink:href="#mcdd580ca86" y="307.584"/>
      </g>
     </g>
     <g id="text_2">
      <!-- $\mathdefault{20000}$ -->
      <g transform="translate(126.310298 321.502498)scale(0.1 -0.1)">
       <defs>
        <path d="M 41.703125 15.453125 
L 39.90625 15.453125 
C 38.90625 8.375 38.09375 7.171875 37.703125 6.5625 
C 37.203125 5.765625 30 5.765625 28.59375 5.765625 
L 9.40625 5.765625 
C 13 9.671875 20 16.75 28.5 24.953125 
C 34.59375 30.734375 41.703125 37.53125 41.703125 47.421875 
C 41.703125 59.21875 32.296875 66 21.796875 66 
C 10.796875 66 4.09375 56.3125 4.09375 47.34375 
C 4.09375 43.4375 7 42.9375 8.203125 42.9375 
C 9.203125 42.9375 12.203125 43.546875 12.203125 47.03125 
C 12.203125 50.109375 9.59375 51 8.203125 51 
C 7.59375 51 7 50.90625 6.59375 50.703125 
C 8.5 59.21875 14.296875 63.40625 20.40625 63.40625 
C 29.09375 63.40625 34.796875 56.515625 34.796875 47.421875 
C 34.796875 38.734375 29.703125 31.25 24 24.75 
L 4.09375 2.28125 
L 4.09375 0 
L 39.296875 0 
z
" id="CMR17-50"/>
       </defs>
       <use transform="scale(0.996264)" xlink:href="#CMR17-50"/>
       <use transform="translate(45.690477 0)scale(0.996264)" xlink:href="#CMR17-48"/>
       <use transform="translate(91.380954 0)scale(0.996264)" xlink:href="#CMR17-48"/>
       <use transform="translate(137.071431 0)scale(0.996264)" xlink:href="#CMR17-48"/>
       <use transform="translate(182.761908 0)scale(0.996264)" xlink:href="#CMR17-48"/>
      </g>
     </g>
    </g>
    <g id="xtick_3">
     <g id="line2d_3">
      <g>
       <use style="stroke:#000000;stroke-width:0.8;" x="203.694545" xlink:href="#mcdd580ca86" y="307.584"/>
      </g>
     </g>
     <g id="text_3">
      <!-- $\mathdefault{40000}$ -->
      <g transform="translate(191.241207 321.502498)scale(0.1 -0.1)">
       <defs>
        <path d="M 33.59375 64.40625 
C 33.59375 66.5 33.5 66.5 31.703125 66.5 
L 2 19.59375 
L 2 17 
L 27.796875 17 
L 27.796875 7.140625 
C 27.796875 3.5 27.59375 2.5 20.59375 2.5 
L 18.703125 2.5 
L 18.703125 0 
C 21.90625 0 27.296875 0 30.703125 0 
C 34.09375 0 39.5 0 42.703125 0 
L 42.703125 2.5 
L 40.796875 2.5 
C 33.796875 2.5 33.59375 3.5 33.59375 7.140625 
L 33.59375 17 
L 43.796875 17 
L 43.796875 19.59375 
L 33.59375 19.59375 
z
M 28.09375 57.859375 
L 28.09375 19.59375 
L 4 19.59375 
z
" id="CMR17-52"/>
       </defs>
       <use transform="scale(0.996264)" xlink:href="#CMR17-52"/>
       <use transform="translate(45.690477 0)scale(0.996264)" xlink:href="#CMR17-48"/>
       <use transform="translate(91.380954 0)scale(0.996264)" xlink:href="#CMR17-48"/>
       <use transform="translate(137.071431 0)scale(0.996264)" xlink:href="#CMR17-48"/>
       <use transform="translate(182.761908 0)scale(0.996264)" xlink:href="#CMR17-48"/>
      </g>
     </g>
    </g>
    <g id="xtick_4">
     <g id="line2d_4">
      <g>
       <use style="stroke:#000000;stroke-width:0.8;" x="268.625455" xlink:href="#mcdd580ca86" y="307.584"/>
      </g>
     </g>
     <g id="text_4">
      <!-- $\mathdefault{60000}$ -->
      <g transform="translate(256.172116 321.502498)scale(0.1 -0.1)">
       <defs>
        <path d="M 10.59375 34 
C 10.59375 57.65625 21.796875 63 28.296875 63 
C 30.40625 63 35.5 62.640625 37.5 59 
C 35.90625 59 32.90625 59 32.90625 55.515625 
C 32.90625 52.828125 35.09375 51.921875 36.5 51.921875 
C 37.40625 51.921875 40.09375 52.3125 40.09375 55.625 
C 40.09375 61.78125 35.09375 65.296875 28.203125 65.296875 
C 16.296875 65.296875 3.796875 52.96875 3.796875 31 
C 3.796875 3.953125 15.09375 -2 23.09375 -2 
C 32.796875 -2 42 6.671875 42 20.046875 
C 42 32.515625 33.90625 41.59375 23.703125 41.59375 
C 17.59375 41.59375 13.09375 37.609375 10.59375 30.625 
z
M 23.09375 0.390625 
C 10.796875 0.390625 10.796875 18.75 10.796875 22.4375 
C 10.796875 29.625 14.203125 40 23.5 40 
C 25.203125 40 30.09375 40 33.40625 33.125 
C 35.203125 29.21875 35.203125 25.140625 35.203125 20.140625 
C 35.203125 14.75 35.203125 10.78125 33.09375 6.78125 
C 30.90625 2.671875 27.703125 0.390625 23.09375 0.390625 
z
" id="CMR17-54"/>
       </defs>
       <use transform="scale(0.996264)" xlink:href="#CMR17-54"/>
       <use transform="translate(45.690477 0)scale(0.996264)" xlink:href="#CMR17-48"/>
       <use transform="translate(91.380954 0)scale(0.996264)" xlink:href="#CMR17-48"/>
       <use transform="translate(137.071431 0)scale(0.996264)" xlink:href="#CMR17-48"/>
       <use transform="translate(182.761908 0)scale(0.996264)" xlink:href="#CMR17-48"/>
      </g>
     </g>
    </g>
    <g id="xtick_5">
     <g id="line2d_5">
      <g>
       <use style="stroke:#000000;stroke-width:0.8;" x="333.556364" xlink:href="#mcdd580ca86" y="307.584"/>
      </g>
     </g>
     <g id="text_5">
      <!-- $\mathdefault{80000}$ -->
      <g transform="translate(321.103026 321.502498)scale(0.1 -0.1)">
       <defs>
        <path d="M 27.203125 35.375 
C 33.5 38.546875 39.90625 43.328125 39.90625 50.984375 
C 39.90625 60.015625 31.09375 65.296875 23 65.296875 
C 13.90625 65.296875 5.90625 58.734375 5.90625 49.6875 
C 5.90625 47.203125 6.5 42.921875 10.40625 39.140625 
C 11.40625 38.15625 15.59375 35.171875 18.296875 33.28125 
C 13.796875 30.984375 3.296875 25.53125 3.296875 14.59375 
C 3.296875 4.359375 13.09375 -2 22.796875 -2 
C 33.5 -2 42.5 5.65625 42.5 15.78125 
C 42.5 24.84375 36.40625 29.015625 32.40625 31.703125 
z
M 14.09375 44.09375 
C 13.296875 44.59375 9.296875 47.671875 9.296875 52.359375 
C 9.296875 58.421875 15.59375 63 22.796875 63 
C 30.703125 63 36.5 57.4375 36.5 50.96875 
C 36.5 41.703125 26.09375 36.421875 25.59375 36.421875 
C 25.5 36.421875 25.40625 36.421875 24.59375 37.03125 
z
M 32.5 23.734375 
C 34 22.640625 38.796875 19.375 38.796875 13.296875 
C 38.796875 5.953125 31.40625 0.390625 23 0.390625 
C 13.90625 0.390625 7 6.84375 7 14.6875 
C 7 22.546875 13.09375 29.09375 20 32.1875 
z
" id="CMR17-56"/>
       </defs>
       <use transform="scale(0.996264)" xlink:href="#CMR17-56"/>
       <use transform="translate(45.690477 0)scale(0.996264)" xlink:href="#CMR17-48"/>
       <use transform="translate(91.380954 0)scale(0.996264)" xlink:href="#CMR17-48"/>
       <use transform="translate(137.071431 0)scale(0.996264)" xlink:href="#CMR17-48"/>
       <use transform="translate(182.761908 0)scale(0.996264)" xlink:href="#CMR17-48"/>
      </g>
     </g>
    </g>
    <g id="xtick_6">
     <g id="line2d_6">
      <g>
       <use style="stroke:#000000;stroke-width:0.8;" x="398.487273" xlink:href="#mcdd580ca86" y="307.584"/>
      </g>
     </g>
     <g id="text_6">
      <!-- $\mathdefault{100000}$ -->
      <g transform="translate(383.543267 321.502498)scale(0.1 -0.1)">
       <defs>
        <path d="M 26.59375 63.40625 
C 26.59375 65.5 26.5 65.5 25.09375 65.5 
C 21.203125 61.1875 15.296875 59.796875 9.703125 59.796875 
C 9.40625 59.796875 8.90625 59.796875 8.796875 59.5 
C 8.703125 59.296875 8.703125 59.09375 8.703125 57 
C 11.796875 57 17 57.59375 21 59.984375 
L 21 7.203125 
C 21 3.6875 20.796875 2.5 12.203125 2.5 
L 9.203125 2.5 
L 9.203125 0 
C 14 0 19 0 23.796875 0 
C 28.59375 0 33.59375 0 38.40625 0 
L 38.40625 2.5 
L 35.40625 2.5 
C 26.796875 2.5 26.59375 3.59375 26.59375 7.15625 
z
" id="CMR17-49"/>
       </defs>
       <use transform="scale(0.996264)" xlink:href="#CMR17-49"/>
       <use transform="translate(45.690477 0)scale(0.996264)" xlink:href="#CMR17-48"/>
       <use transform="translate(91.380954 0)scale(0.996264)" xlink:href="#CMR17-48"/>
       <use transform="translate(137.071431 0)scale(0.996264)" xlink:href="#CMR17-48"/>
       <use transform="translate(182.761908 0)scale(0.996264)" xlink:href="#CMR17-48"/>
       <use transform="translate(228.452386 0)scale(0.996264)" xlink:href="#CMR17-48"/>
      </g>
     </g>
    </g>
   </g>
   <g id="matplotlib.axis_2">
    <g id="ytick_1">
     <g id="line2d_7">
      <defs>
       <path d="M 0 0 
L -3.5 0 
" id="mca44a8950f" style="stroke:#000000;stroke-width:0.8;"/>
      </defs>
      <g>
       <use style="stroke:#000000;stroke-width:0.8;" x="57.6" xlink:href="#mca44a8950f" y="296.841507"/>
      </g>
     </g>
     <g id="text_7">
      <!-- $\mathdefault{0.00}$ -->
      <g transform="translate(32.888586 300.300756)scale(0.1 -0.1)">
       <defs>
        <path d="M 18.40625 4.796875 
C 18.40625 7.6875 16 9.671875 13.59375 9.671875 
C 10.703125 9.671875 8.703125 7.28125 8.703125 4.890625 
C 8.703125 2 11.09375 0 13.5 0 
C 16.40625 0 18.40625 2.390625 18.40625 4.796875 
z
" id="CMMI12-58"/>
       </defs>
       <use transform="scale(0.996264)" xlink:href="#CMR17-48"/>
       <use transform="translate(45.690477 0)scale(0.996264)" xlink:href="#CMMI12-58"/>
       <use transform="translate(72.787654 0)scale(0.996264)" xlink:href="#CMR17-48"/>
       <use transform="translate(118.478131 0)scale(0.996264)" xlink:href="#CMR17-48"/>
      </g>
     </g>
    </g>
    <g id="ytick_2">
     <g id="line2d_8">
      <g>
       <use style="stroke:#000000;stroke-width:0.8;" x="57.6" xlink:href="#mca44a8950f" y="264.01411"/>
      </g>
     </g>
     <g id="text_8">
      <!-- $\mathdefault{0.02}$ -->
      <g transform="translate(32.888586 267.473359)scale(0.1 -0.1)">
       <use transform="scale(0.996264)" xlink:href="#CMR17-48"/>
       <use transform="translate(45.690477 0)scale(0.996264)" xlink:href="#CMMI12-58"/>
       <use transform="translate(72.787654 0)scale(0.996264)" xlink:href="#CMR17-48"/>
       <use transform="translate(118.478131 0)scale(0.996264)" xlink:href="#CMR17-50"/>
      </g>
     </g>
    </g>
    <g id="ytick_3">
     <g id="line2d_9">
      <g>
       <use style="stroke:#000000;stroke-width:0.8;" x="57.6" xlink:href="#mca44a8950f" y="231.186713"/>
      </g>
     </g>
     <g id="text_9">
      <!-- $\mathdefault{0.04}$ -->
      <g transform="translate(32.888586 234.645962)scale(0.1 -0.1)">
       <use transform="scale(0.996264)" xlink:href="#CMR17-48"/>
       <use transform="translate(45.690477 0)scale(0.996264)" xlink:href="#CMMI12-58"/>
       <use transform="translate(72.787654 0)scale(0.996264)" xlink:href="#CMR17-48"/>
       <use transform="translate(118.478131 0)scale(0.996264)" xlink:href="#CMR17-52"/>
      </g>
     </g>
    </g>
    <g id="ytick_4">
     <g id="line2d_10">
      <g>
       <use style="stroke:#000000;stroke-width:0.8;" x="57.6" xlink:href="#mca44a8950f" y="198.359316"/>
      </g>
     </g>
     <g id="text_10">
      <!-- $\mathdefault{0.06}$ -->
      <g transform="translate(32.888586 201.818565)scale(0.1 -0.1)">
       <use transform="scale(0.996264)" xlink:href="#CMR17-48"/>
       <use transform="translate(45.690477 0)scale(0.996264)" xlink:href="#CMMI12-58"/>
       <use transform="translate(72.787654 0)scale(0.996264)" xlink:href="#CMR17-48"/>
       <use transform="translate(118.478131 0)scale(0.996264)" xlink:href="#CMR17-54"/>
      </g>
     </g>
    </g>
    <g id="ytick_5">
     <g id="line2d_11">
      <g>
       <use style="stroke:#000000;stroke-width:0.8;" x="57.6" xlink:href="#mca44a8950f" y="165.531919"/>
      </g>
     </g>
     <g id="text_11">
      <!-- $\mathdefault{0.08}$ -->
      <g transform="translate(32.888586 168.991168)scale(0.1 -0.1)">
       <use transform="scale(0.996264)" xlink:href="#CMR17-48"/>
       <use transform="translate(45.690477 0)scale(0.996264)" xlink:href="#CMMI12-58"/>
       <use transform="translate(72.787654 0)scale(0.996264)" xlink:href="#CMR17-48"/>
       <use transform="translate(118.478131 0)scale(0.996264)" xlink:href="#CMR17-56"/>
      </g>
     </g>
    </g>
    <g id="ytick_6">
     <g id="line2d_12">
      <g>
       <use style="stroke:#000000;stroke-width:0.8;" x="57.6" xlink:href="#mca44a8950f" y="132.704522"/>
      </g>
     </g>
     <g id="text_12">
      <!-- $\mathdefault{0.10}$ -->
      <g transform="translate(32.888586 136.163771)scale(0.1 -0.1)">
       <use transform="scale(0.996264)" xlink:href="#CMR17-48"/>
       <use transform="translate(45.690477 0)scale(0.996264)" xlink:href="#CMMI12-58"/>
       <use transform="translate(72.787654 0)scale(0.996264)" xlink:href="#CMR17-49"/>
       <use transform="translate(118.478131 0)scale(0.996264)" xlink:href="#CMR17-48"/>
      </g>
     </g>
    </g>
    <g id="ytick_7">
     <g id="line2d_13">
      <g>
       <use style="stroke:#000000;stroke-width:0.8;" x="57.6" xlink:href="#mca44a8950f" y="99.877124"/>
      </g>
     </g>
     <g id="text_13">
      <!-- $\mathdefault{0.12}$ -->
      <g transform="translate(32.888586 103.336374)scale(0.1 -0.1)">
       <use transform="scale(0.996264)" xlink:href="#CMR17-48"/>
       <use transform="translate(45.690477 0)scale(0.996264)" xlink:href="#CMMI12-58"/>
       <use transform="translate(72.787654 0)scale(0.996264)" xlink:href="#CMR17-49"/>
       <use transform="translate(118.478131 0)scale(0.996264)" xlink:href="#CMR17-50"/>
      </g>
     </g>
    </g>
    <g id="ytick_8">
     <g id="line2d_14">
      <g>
       <use style="stroke:#000000;stroke-width:0.8;" x="57.6" xlink:href="#mca44a8950f" y="67.049727"/>
      </g>
     </g>
     <g id="text_14">
      <!-- $\mathdefault{0.14}$ -->
      <g transform="translate(32.888586 70.508977)scale(0.1 -0.1)">
       <use transform="scale(0.996264)" xlink:href="#CMR17-48"/>
       <use transform="translate(45.690477 0)scale(0.996264)" xlink:href="#CMMI12-58"/>
       <use transform="translate(72.787654 0)scale(0.996264)" xlink:href="#CMR17-49"/>
       <use transform="translate(118.478131 0)scale(0.996264)" xlink:href="#CMR17-52"/>
      </g>
     </g>
    </g>
   </g>
   <g id="line2d_15">
    <path clip-path="url(#p8ef0d46714)" d="M 73.832727 132.704522 
L 74.764486 132.802506 
L 74.796951 134.546405 
L 74.865129 159.273778 
L 74.904087 171.987063 
L 74.949539 147.358892 
L 75.001484 137.125853 
L 75.059921 145.664394 
L 75.157318 159.550314 
L 75.196276 151.526655 
L 75.280687 130.021248 
L 75.352111 131.40763 
L 75.520931 137.554704 
L 75.702737 145.185158 
L 75.744943 143.725638 
L 75.90727 135.783724 
L 75.949475 135.988806 
L 75.962461 135.969759 
L 75.968954 135.900455 
L 76.043625 132.373986 
L 76.121542 127.275596 
L 76.176733 131.388443 
L 76.306595 138.723462 
L 76.361786 137.575915 
L 76.365033 137.602528 
L 76.387759 136.905365 
L 76.391005 136.95586 
L 76.5371 132.9295 
L 76.563072 133.257966 
L 76.744879 136.266214 
L 76.748125 136.233663 
L 76.829289 136.566167 
L 76.868247 136.397915 
L 76.988369 135.019399 
L 77.014342 135.113851 
L 77.089012 135.479873 
L 77.134464 135.432018 
L 77.274065 134.322032 
L 77.287052 134.341799 
L 77.439639 135.681221 
L 77.459119 135.650791 
L 77.559761 135.270672 
L 77.592227 135.331023 
L 77.715596 135.958345 
L 77.76754 135.833847 
L 77.972073 135.106861 
L 77.978566 135.109127 
L 78.131153 135.493018 
L 78.1344 135.46987 
L 78.196084 135.819703 
L 78.199331 135.7999 
L 78.293481 136.136643 
L 78.325946 136.100239 
L 78.452561 135.814178 
L 78.455808 135.852343 
L 78.543465 135.603314 
L 78.546711 135.635929 
L 78.666833 135.349333 
L 78.673327 135.350575 
L 78.793449 135.50471 
L 78.796695 135.470411 
L 78.871366 135.857432 
L 78.874612 135.838049 
L 78.916817 136.193502 
L 78.920064 136.177588 
L 79.033693 136.731919 
L 79.053172 136.715044 
L 79.192774 136.300375 
L 79.19602 136.330603 
L 79.277184 136.079059 
L 79.280431 136.104804 
L 79.381073 135.875295 
L 79.403799 135.924012 
L 79.407046 135.893276 
L 79.494703 136.099559 
L 79.497949 136.074424 
L 79.663523 136.801101 
L 79.666769 136.789408 
L 79.708975 137.045306 
L 79.712221 137.02982 
L 79.799878 137.24323 
L 79.83559 137.195102 
L 79.838836 137.220601 
L 79.932986 137.104938 
L 79.936233 137.129922 
L 80.049862 137.048883 
L 80.056355 137.050192 
L 80.189463 137.25188 
L 80.19271 137.234362 
L 80.260887 137.447357 
L 80.264134 137.436026 
L 80.514118 138.978879 
L 80.517364 138.971428 
L 80.559569 139.134242 
L 80.562816 139.122241 
L 80.715404 139.487865 
L 80.71865 139.477963 
L 80.767348 139.648395 
L 80.770595 139.640479 
L 80.98162 140.557426 
L 81.004346 140.669474 
L 81.410164 143.973941 
L 81.471849 144.415921 
L 82.182842 151.687209 
L 82.406854 154.31946 
L 84.231412 181.947314 
L 85.796247 216.180854 
L 87.036428 252.110785 
L 88.383744 295.488 
L 88.455168 293.928018 
L 91.217978 212.000224 
L 92.14649 194.649939 
L 92.883456 185.017305 
L 93.698339 178.495899 
L 94.324922 175.860222 
L 94.915793 175.221372 
L 95.136559 175.423197 
L 95.90599 177.309363 
L 96.61049 180.54341 
L 97.672111 187.481651 
L 101.129681 212.14859 
L 102.100399 217.203089 
L 104.359994 225.999437 
L 104.720361 227.301064 
L 105.236561 229.12254 
L 105.629393 230.64281 
L 106.268963 232.991007 
L 108.561024 240.644185 
L 109.707055 242.831777 
L 109.976518 243.040464 
L 110.207023 243.193671 
L 110.457007 243.313799 
L 111.388765 242.852154 
L 111.671215 242.478426 
L 113.018531 239.881668 
L 113.898345 237.683494 
L 114.518435 236.185146 
L 115.901463 233.413794 
L 117.411107 231.819057 
L 118.070156 231.508019 
L 118.65778 231.366109 
L 119.018147 231.314636 
L 119.375267 231.256747 
L 120.320012 231.062025 
L 121.238784 230.75883 
L 121.741999 230.544288 
L 122.329623 230.243983 
L 122.85881 229.923497 
L 123.904198 229.365883 
L 124.65415 229.044987 
L 126.303395 228.896823 
L 127.725382 229.457091 
L 129.819404 230.900811 
L 131.864727 231.903554 
L 133.254249 232.036212 
L 135.71513 231.750305 
L 136.961804 231.684051 
L 137.85785 231.739257 
L 139.02336 231.912794 
L 140.607674 232.149855 
L 141.669295 232.201775 
L 143.863959 231.942456 
L 146.256663 231.451795 
L 148.175372 231.314238 
L 149.707741 231.405338 
L 154.184727 231.579281 
L 159.483089 231.484789 
L 163.229603 231.679418 
L 165.950208 231.606705 
L 170.670685 231.566876 
L 175.741789 231.610513 
L 180.63758 231.527787 
L 182.783546 231.726236 
L 183.510772 231.302634 
L 184.11463 231.054712 
L 184.504215 231.134136 
L 184.961978 231.484243 
L 185.624273 231.962996 
L 185.89049 231.88772 
L 186.159953 231.548292 
L 186.53006 230.663914 
L 187.354682 228.611949 
L 187.536489 228.614558 
L 187.708556 228.899892 
L 187.9488 229.813103 
L 188.299427 232.17155 
L 189.146775 238.163937 
L 189.231185 238.198851 
L 189.270144 238.150667 
L 189.396759 237.691619 
L 189.598045 235.960628 
L 189.909713 231.029084 
L 190.945361 213.038353 
L 191.020032 212.92474 
L 191.06873 213.005757 
L 191.182359 213.699142 
L 191.370659 216.485399 
L 191.653108 224.501376 
L 192.101132 244.686564 
L 192.636812 266.533254 
L 192.669277 266.663958 
L 192.721222 266.333817 
L 192.831604 263.412892 
L 193.055616 250.186901 
L 194.250345 169.584305 
L 194.286057 169.502826 
L 194.338001 169.685508 
L 194.47111 171.330151 
L 195.26002 186.121844 
L 195.545716 200.62836 
L 196.233984 247.193932 
L 196.33138 244.809989 
L 196.490461 231.234142 
L 196.906019 170.312699 
L 197.259892 133.83818 
L 197.535849 126.457636 
L 197.883229 113.982852 
L 198.217623 105.823245 
L 198.279308 105.568894 
L 198.334499 105.781436 
L 198.441635 107.519843 
L 198.620195 114.820571 
L 198.886412 136.542389 
L 199.54546 200.036373 
L 199.597405 199.178759 
L 199.711034 191.64828 
L 199.983744 154.017345 
L 200.324631 119.224487 
L 201.259636 78.974346 
L 201.558319 72.697203 
L 201.587537 72.63642 
L 201.636236 72.84543 
L 201.736879 74.710959 
L 201.899206 82.706009 
L 202.14919 108.268966 
L 202.717335 172.152601 
L 202.746554 171.880289 
L 202.827718 168.021187 
L 203.029004 144.615029 
L 203.39911 108.674309 
L 204.035433 83.387133 
L 204.665263 63.411801 
L 204.756166 62.664068 
L 204.804864 62.916708 
L 204.90226 65.208438 
L 205.064588 75.473868 
L 205.330804 109.417815 
L 205.765841 159.929645 
L 205.769088 159.934815 
L 205.788567 159.79323 
L 205.856745 157.045094 
L 206.032058 138.384417 
L 206.421644 102.025755 
L 207.083939 75.642335 
L 207.765713 53.786492 
L 207.811165 53.568 
L 207.86311 53.915421 
L 207.963753 56.831727 
L 208.129327 69.4298 
L 208.411776 111.679139 
L 208.749417 151.339227 
L 208.759156 151.373708 
L 208.791622 150.918875 
L 208.885772 145.144577 
L 209.603258 89.41308 
L 210.470086 58.944832 
L 210.684358 56.678063 
L 210.707084 56.712127 
L 210.775261 57.337134 
L 210.895383 61.02235 
L 211.070697 74.695673 
L 211.359639 118.978814 
L 211.664815 153.203399 
L 211.668061 153.207847 
L 211.684294 153.089718 
L 211.749225 150.383685 
L 211.927785 130.607763 
L 212.284905 98.160512 
L 212.979665 69.181836 
L 213.187444 67.209757 
L 213.236143 67.244678 
L 213.258868 67.297367 
L 213.479633 68.233326 
L 213.635468 69.609065 
L 213.775069 73.474778 
L 213.943889 85.651199 
L 214.20686 124.697079 
L 214.531514 163.171057 
L 214.534761 163.17094 
L 214.56398 162.71452 
L 214.651636 156.747423 
L 215.427561 87.531241 
L 215.791174 77.636042 
L 215.885324 77.232264 
L 215.934022 77.343418 
L 216.063884 78.384647 
L 216.378799 83.069023 
L 216.567098 89.24965 
L 216.755398 104.380497 
L 217.034601 149.313654 
L 217.349516 188.243471 
L 217.352762 188.233692 
L 217.388474 187.385887 
L 217.492364 177.881759 
L 218.216343 95.044184 
L 218.579956 85.286027 
L 218.625408 85.158778 
L 218.677353 85.339439 
L 218.803968 86.918112 
L 219.096157 93.883282 
L 219.323415 104.468258 
L 219.547427 127.383759 
L 219.943505 198.575551 
L 220.118819 214.841461 
L 220.148038 214.327267 
L 220.235695 207.141043 
L 220.505158 159.589587 
L 220.878511 110.740099 
L 221.157713 99.079079 
L 221.336273 97.037029 
L 221.358999 97.076346 
L 221.436916 97.744679 
L 221.599244 101.569996 
L 221.888186 114.509272 
L 222.167389 136.964528 
L 222.469318 182.967446 
L 222.842671 235.251507 
L 222.858903 235.065813 
L 222.927081 231.015724 
L 223.118627 202.105693 
L 223.638074 128.162019 
L 223.920524 115.095891 
L 224.063372 113.546405 
L 224.099084 113.636139 
L 224.189987 114.714394 
L 224.368547 120.069847 
L 224.657489 136.31474 
L 224.946432 165.789178 
L 225.511331 245.240432 
L 225.605481 240.282688 
L 225.829492 206.782269 
L 226.335953 139.528553 
L 226.61191 126.58179 
L 226.735279 125.405458 
L 226.774237 125.523168 
L 226.871633 126.784147 
L 227.05344 132.611883 
L 227.329396 149.629207 
L 227.647558 184.256879 
L 228.150772 247.916833 
L 228.202717 246.469025 
L 228.332579 233.35005 
L 229.144215 138.183369 
L 229.37472 132.759856 
L 229.403939 132.701624 
L 229.452637 132.885947 
L 229.56302 134.541089 
L 229.761059 141.521596 
L 230.033769 159.901677 
L 230.358423 198.853347 
L 230.777228 249.610479 
L 230.806447 249.190851 
L 230.894103 243.12799 
L 231.189539 200.879493 
L 231.663535 146.970023 
L 231.939491 135.477517 
L 232.033641 134.773811 
L 232.082339 134.962357 
L 232.192721 136.67276 
L 232.394007 143.938542 
L 232.67321 162.914885 
L 233.007604 202.821647 
L 233.410176 247.951508 
L 233.426409 247.806159 
L 233.494586 244.605134 
L 233.682886 221.938498 
L 234.299729 148.442075 
L 234.578932 136.747208 
L 234.682822 135.916924 
L 234.728273 136.082868 
L 234.835409 137.654511 
L 235.033449 144.510445 
L 235.306159 162.454425 
L 235.627567 200.385727 
L 236.043124 248.857738 
L 236.06585 248.587873 
L 236.143767 244.067286 
L 236.374272 213.324339 
L 236.906705 149.630508 
L 237.192401 136.600294 
L 237.312524 135.479883 
L 237.354729 135.623518 
L 237.458618 137.095821 
L 237.650164 143.66319 
L 237.929367 161.874226 
L 238.260515 199.943269 
L 238.679319 247.178933 
L 238.702045 246.952878 
L 238.776716 243.050333 
L 238.987741 216.69346 
L 239.56238 148.817334 
L 239.844829 136.693428 
L 239.958458 135.687255 
L 240.00391 135.832486 
L 240.107799 137.27205 
L 240.299345 143.681278 
L 240.572055 161.272203 
L 240.890217 198.074196 
L 241.318761 248.43275 
L 241.34798 247.998707 
L 241.438883 241.806368 
L 241.737565 199.923961 
L 242.208314 147.241078 
L 242.484271 135.825975 
L 242.58816 135.008727 
L 242.633612 135.17229 
L 242.740748 136.736546 
L 242.93554 143.516739 
L 243.214743 162.032818 
L 243.549137 201.130797 
L 243.958202 247.073412 
L 243.977681 246.898962 
L 244.049105 243.39444 
L 244.247145 219.201854 
L 244.847756 147.911854 
L 245.126959 136.21068 
L 245.237341 135.306638 
L 245.279546 135.448852 
L 245.383436 136.875145 
L 245.574982 143.216623 
L 245.844445 160.397572 
L 246.15936 196.495833 
L 246.597644 248.466395 
L 246.626863 248.037476 
L 246.714519 242.159334 
L 247.000215 202.189786 
L 247.480704 147.525883 
L 247.759907 135.683105 
L 247.863796 134.817288 
L 247.912495 134.988031 
L 248.019631 136.577489 
L 248.214423 143.408143 
L 248.493626 161.942733 
L 248.824774 200.635204 
L 249.237085 247.158944 
L 249.256564 246.983508 
L 249.327988 243.468917 
L 249.526028 219.221296 
L 250.123392 148.112211 
L 250.405841 136.180565 
L 250.516224 135.272297 
L 250.558429 135.415417 
L 250.662319 136.85178 
L 250.853865 143.233319 
L 251.123328 160.458733 
L 251.438243 196.583682 
L 251.876527 248.535629 
L 251.905745 248.090847 
L 251.996649 241.841551 
L 252.298577 199.299001 
L 252.76608 147.067872 
L 253.042036 135.663376 
L 253.142679 134.858649 
L 253.191377 135.031852 
L 253.298513 136.62597 
L 253.493306 143.474124 
L 253.772509 162.064332 
L 254.106903 201.263875 
L 254.515968 247.196591 
L 254.535447 247.005056 
L 254.606871 243.436948 
L 254.808157 218.661913 
L 255.402275 148.090298 
L 255.684724 136.214564 
L 255.79186 135.324231 
L 255.837312 135.473369 
L 255.941201 136.919744 
L 256.132748 143.315613 
L 256.402211 160.586397 
L 256.720372 197.239115 
L 257.152163 248.551252 
L 257.184628 248.075469 
L 257.275532 241.749379 
L 257.583953 198.228325 
L 258.048209 146.811395 
L 258.324166 135.628143 
L 258.421562 134.893496 
L 258.47026 135.075858 
L 258.580643 136.762326 
L 258.778682 143.873705 
L 259.057885 162.761238 
L 259.392279 202.385117 
L 259.791604 247.199197 
L 259.811084 247.046116 
L 259.879261 243.85043 
L 260.067561 221.333163 
L 260.687651 147.591603 
L 260.966854 136.160011 
L 261.070743 135.341428 
L 261.116195 135.498744 
L 261.223331 137.033196 
L 261.418124 143.687526 
L 261.690833 161.536406 
L 262.012241 199.291486 
L 262.431046 248.551358 
L 262.457018 248.224236 
L 262.538182 243.231651 
L 262.784919 209.620414 
L 263.30112 148.573228 
L 263.583569 135.947232 
L 263.700445 134.900353 
L 263.74265 135.0444 
L 263.84654 136.504399 
L 264.038086 143.010585 
L 264.314042 160.88466 
L 264.641943 198.369845 
L 265.070487 247.196968 
L 265.093213 246.960016 
L 265.17113 242.726161 
L 265.391895 214.532514 
L 265.950301 148.643167 
L 266.232751 136.364531 
L 266.349626 135.342323 
L 266.391831 135.484572 
L 266.495721 136.916981 
L 266.687267 143.289453 
L 266.95673 160.515102 
L 267.271645 196.637112 
L 267.709929 248.548121 
L 267.739148 248.101562 
L 267.830051 241.849573 
L 268.13198 199.322585 
L 268.599482 147.109778 
L 268.875439 135.702171 
L 268.976081 134.898852 
L 269.02478 135.072955 
L 269.131916 136.668624 
L 269.326708 143.515324 
L 269.605911 162.099542 
L 269.937059 200.83341 
L 270.34937 247.194878 
L 270.368849 247.001445 
L 270.440273 243.428492 
L 270.641559 218.652719 
L 271.235677 148.107188 
L 271.518127 136.230056 
L 271.625263 135.340348 
L 271.670714 135.49017 
L 271.774604 136.938589 
L 271.96615 143.336813 
L 272.235613 160.604505 
L 272.553775 197.25668 
L 272.985565 248.54696 
L 273.018031 248.068569 
L 273.108934 241.738259 
L 273.417356 198.218497 
L 273.881612 146.813147 
L 274.157568 135.632433 
L 274.254964 134.89723 
L 274.303663 135.079336 
L 274.414045 136.765679 
L 274.612084 143.878673 
L 274.894534 163.057391 
L 275.232175 203.328652 
L 275.625007 247.19475 
L 275.641239 247.091099 
L 275.702924 244.533389 
L 275.871744 225.496137 
L 276.547025 145.889214 
L 276.816489 135.918715 
L 276.904145 135.339498 
L 276.95609 135.543547 
L 277.069719 137.322554 
L 277.271005 144.613179 
L 277.546961 163.560815 
L 277.874863 203.59329 
L 278.264448 248.548203 
L 278.283927 248.365102 
L 278.355351 244.651684 
L 278.559884 218.43605 
L 279.134522 148.56755 
L 279.416972 135.943525 
L 279.533847 134.897343 
L 279.576052 135.041508 
L 279.679942 136.501471 
L 279.871488 143.006898 
L 280.147444 160.881162 
L 280.475345 198.367881 
L 280.903889 247.195662 
L 280.926615 246.958729 
L 281.004532 242.724737 
L 281.225297 214.530402 
L 281.783703 148.640147 
L 282.066153 136.361524 
L 282.183028 135.33993 
L 282.225233 135.482381 
L 282.329123 136.915085 
L 282.520669 143.28719 
L 282.790132 160.512201 
L 283.105047 196.635367 
L 283.543331 248.548005 
L 283.57255 248.101637 
L 283.663453 241.849947 
L 283.965382 199.322148 
L 284.432884 147.109057 
L 284.708841 135.700703 
L 284.809484 134.897342 
L 284.858182 135.071494 
L 284.965318 136.667382 
L 285.160111 143.514456 
L 285.439313 162.098276 
L 285.770461 200.832212 
L 286.182772 247.195387 
L 286.202252 247.002056 
L 286.273676 243.42941 
L 286.474961 218.653587 
L 287.069079 148.107454 
L 287.351529 136.229753 
L 287.458665 135.339784 
L 287.504116 135.489547 
L 287.608006 136.937976 
L 287.799552 143.336548 
L 288.069015 160.604263 
L 288.387177 197.256006 
L 288.818967 248.54736 
L 288.851433 248.069062 
L 288.942336 241.738959 
L 289.250758 198.219159 
L 289.715014 146.81336 
L 289.99097 135.63266 
L 290.088367 134.897359 
L 290.137065 135.079401 
L 290.247447 136.765602 
L 290.445487 143.878526 
L 290.727936 163.057493 
L 291.065577 203.328529 
L 291.458409 247.194925 
L 291.474641 247.091293 
L 291.536326 244.53364 
L 291.705146 225.496526 
L 292.380428 145.889325 
L 292.649891 135.919019 
L 292.737548 135.339815 
L 292.789492 135.543842 
L 292.903121 137.322743 
L 293.104407 144.613196 
L 293.380364 163.560989 
L 293.708265 203.593441 
L 294.09785 248.54827 
L 294.117329 248.365175 
L 294.188753 244.651766 
L 294.393286 218.436163 
L 294.967924 148.567741 
L 295.250374 135.943665 
L 295.367249 134.897536 
L 295.409455 135.041722 
L 295.513344 136.501721 
L 295.70489 143.007115 
L 295.980847 160.881273 
L 296.308748 198.368096 
L 296.737292 247.195689 
L 296.760017 246.958751 
L 296.837935 242.724743 
L 297.0587 214.530363 
L 297.617105 148.640321 
L 297.899555 136.36158 
L 298.016431 135.340008 
L 298.058636 135.482478 
L 298.162525 136.915237 
L 298.354071 143.287389 
L 298.623535 160.512299 
L 298.938449 196.635494 
L 299.376733 248.548015 
L 299.405952 248.101636 
L 299.496855 241.849927 
L 299.798784 199.322099 
L 300.266287 147.109129 
L 300.542243 135.700756 
L 300.642886 134.897376 
L 300.691584 135.071522 
L 300.79872 136.66741 
L 300.993513 143.514524 
L 301.272716 162.098364 
L 301.603863 200.832245 
L 302.016175 247.195378 
L 302.035654 247.00204 
L 302.107078 243.429378 
L 302.308364 218.653564 
L 302.902481 148.107436 
L 303.184931 136.229783 
L 303.292067 135.339794 
L 303.337519 135.489545 
L 303.441408 136.937954 
L 303.632954 143.336536 
L 303.902417 160.604305 
L 304.220579 197.256011 
L 304.652369 248.547341 
L 304.684835 248.069035 
L 304.775738 241.738916 
L 305.08416 198.219131 
L 305.548416 146.813313 
L 305.824372 135.632653 
L 305.921769 134.89736 
L 305.970467 135.079402 
L 306.080849 136.765597 
L 306.278889 143.878504 
L 306.561338 163.057488 
L 306.898979 203.328543 
L 307.291811 247.194908 
L 307.308044 247.091275 
L 307.369728 244.533612 
L 307.538548 225.496484 
L 308.21383 145.889288 
L 308.483293 135.919001 
L 308.57095 135.33981 
L 308.622895 135.543843 
L 308.736524 137.322749 
L 308.937809 144.613186 
L 309.213766 163.560977 
L 309.541667 203.593459 
L 309.931252 248.548265 
L 309.950732 248.365168 
L 310.022156 244.651754 
L 310.226688 218.436137 
L 310.801327 148.567733 
L 311.083776 135.94365 
L 311.200652 134.897524 
L 311.242857 135.041713 
L 311.346746 136.501719 
L 311.538292 143.007122 
L 311.814249 160.881273 
L 312.14215 198.368103 
L 312.570694 247.195693 
L 312.59342 246.958754 
L 312.671337 242.724742 
L 312.892102 214.53035 
L 313.450508 148.640322 
L 313.732957 136.361574 
L 313.849833 135.339998 
L 313.892038 135.482469 
L 313.995927 136.915231 
L 314.187473 143.287396 
L 314.456937 160.512307 
L 314.771852 196.635499 
L 315.210135 248.548018 
L 315.239354 248.101636 
L 315.330257 241.849923 
L 315.632186 199.322088 
L 316.099689 147.109122 
L 316.375645 135.700757 
L 316.476288 134.897375 
L 316.524986 135.07152 
L 316.632122 136.667408 
L 316.826915 143.514524 
L 317.106118 162.098373 
L 317.437265 200.832254 
L 317.849577 247.195378 
L 317.869056 247.002038 
L 317.94048 243.429371 
L 318.141766 218.653554 
L 318.735884 148.107426 
L 319.018333 136.229784 
L 319.125469 135.339797 
L 319.170921 135.489548 
L 319.27481 136.937955 
L 319.466356 143.336536 
L 319.73582 160.604313 
L 320.053981 197.256025 
L 320.485772 248.547341 
L 320.518237 248.069032 
L 320.60914 241.738906 
L 320.917562 198.21912 
L 321.381818 146.813306 
L 321.657775 135.632651 
L 321.755171 134.897361 
L 321.803869 135.079404 
L 321.914252 136.765601 
L 322.112291 143.878509 
L 322.39474 163.057495 
L 322.732381 203.328559 
L 323.125213 247.194909 
L 323.141446 247.091273 
L 323.20313 244.533606 
L 323.371951 225.49647 
L 324.047232 145.889284 
L 324.316695 135.918999 
L 324.404352 135.33981 
L 324.456297 135.543845 
L 324.569926 137.322753 
L 324.771212 144.613193 
L 325.047168 163.560985 
L 325.375069 203.593474 
L 325.764655 248.548265 
L 325.784134 248.365167 
L 325.855558 244.651747 
L 326.06009 218.436123 
L 326.634729 148.567728 
L 326.917178 135.943649 
L 327.034054 134.897524 
L 327.076259 135.041713 
L 327.180148 136.501721 
L 327.371695 143.007127 
L 327.647651 160.881282 
L 327.975552 198.368116 
L 328.404096 247.195694 
L 328.426822 246.958752 
L 328.504739 242.724734 
L 328.725504 214.530337 
L 329.28391 148.640316 
L 329.566359 136.361574 
L 329.683235 135.339998 
L 329.72544 135.482469 
L 329.829329 136.915232 
L 330.020876 143.287399 
L 330.290339 160.512316 
L 330.605254 196.635512 
L 331.043537 248.548018 
L 331.072756 248.101633 
L 331.16366 241.849913 
L 331.465588 199.322075 
L 331.933091 147.109116 
L 332.209047 135.700755 
L 332.30969 134.897375 
L 332.358388 135.071521 
L 332.465524 136.66741 
L 332.660317 143.514528 
L 332.93952 162.098381 
L 333.270668 200.832268 
L 333.682979 247.195377 
L 333.702458 247.002036 
L 333.773882 243.429364 
L 333.975168 218.65354 
L 334.569286 148.107419 
L 334.851735 136.229783 
L 334.958871 135.339797 
L 335.004323 135.489549 
L 335.108212 136.937958 
L 335.299759 143.33654 
L 335.569222 160.60432 
L 335.887383 197.256039 
L 336.319174 248.547341 
L 336.351639 248.069029 
L 336.442543 241.738896 
L 336.750964 198.219106 
L 337.21522 146.8133 
L 337.491177 135.63265 
L 337.588573 134.897361 
L 337.637271 135.079405 
L 337.747654 136.765604 
L 337.945693 143.878514 
L 338.228143 163.057504 
L 338.565783 203.328572 
L 338.958615 247.194909 
L 338.974848 247.091272 
L 339.036532 244.5336 
L 339.205353 225.496457 
L 339.880634 145.889278 
L 340.150097 135.918997 
L 340.237754 135.33981 
L 340.289699 135.543845 
L 340.403328 137.322755 
L 340.604614 144.613198 
L 340.88057 163.560993 
L 341.208471 203.593488 
L 341.598057 248.548265 
L 341.617536 248.365165 
L 341.68896 244.65174 
L 341.893492 218.436109 
L 342.468131 148.567721 
L 342.75058 135.943647 
L 342.867456 134.897524 
L 342.909661 135.041714 
L 343.013551 136.501723 
L 343.205097 143.007131 
L 343.481053 160.88129 
L 343.808954 198.368129 
L 344.237498 247.195694 
L 344.260224 246.95875 
L 344.338141 242.724726 
L 344.558906 214.530323 
L 345.117312 148.640309 
L 345.399761 136.361572 
L 345.516637 135.339998 
L 345.558842 135.48247 
L 345.662732 136.915234 
L 345.854278 143.287404 
L 346.123741 160.512324 
L 346.438656 196.635526 
L 346.87694 248.548018 
L 346.906159 248.101631 
L 346.997062 241.849903 
L 347.298991 199.322061 
L 347.766493 147.109109 
L 348.042449 135.700754 
L 348.143092 134.897375 
L 348.191791 135.071522 
L 348.298927 136.667412 
L 348.493719 143.514533 
L 348.772922 162.098389 
L 349.10407 200.832281 
L 349.516381 247.195377 
L 349.53586 247.002035 
L 349.607284 243.429356 
L 349.80857 218.653526 
L 350.402688 148.107412 
L 350.685137 136.229781 
L 350.792273 135.339797 
L 350.837725 135.48955 
L 350.941615 136.93796 
L 351.133161 143.336544 
L 351.402624 160.604328 
L 351.720785 197.256052 
L 352.152576 248.547341 
L 352.185041 248.069026 
L 352.275945 241.738887 
L 352.584367 198.219092 
L 353.048623 146.813294 
L 353.324579 135.632648 
L 353.421975 134.897361 
L 353.470673 135.079406 
L 353.581056 136.765606 
L 353.779095 143.878519 
L 354.061545 163.057512 
L 354.399185 203.328586 
L 354.792017 247.194909 
L 354.80825 247.091271 
L 354.869935 244.533594 
L 355.038755 225.496444 
L 355.714036 145.889272 
L 355.9835 135.918996 
L 356.071156 135.33981 
L 356.123101 135.543846 
L 356.23673 137.322757 
L 356.438016 144.613202 
L 356.713972 163.561002 
L 357.041873 203.593502 
L 357.431459 248.548265 
L 357.450938 248.365164 
L 357.522362 244.651732 
L 357.726895 218.436095 
L 358.301533 148.567714 
L 358.583983 135.943645 
L 358.700858 134.897524 
L 358.743063 135.041714 
L 358.846953 136.501725 
L 359.038499 143.007136 
L 359.314455 160.881298 
L 359.642356 198.368142 
L 360.0709 247.195694 
L 360.093626 246.958748 
L 360.171543 242.724718 
L 360.392308 214.530309 
L 360.950714 148.640302 
L 361.233164 136.36157 
L 361.350039 135.339998 
L 361.392244 135.48247 
L 361.496134 136.915236 
L 361.68768 143.287408 
L 361.957143 160.512332 
L 362.272058 196.635539 
L 362.710342 248.548018 
L 362.739561 248.101628 
L 362.830464 241.849894 
L 363.132393 199.322048 
L 363.599895 147.109103 
L 363.875852 135.700752 
L 363.976495 134.897375 
L 364.025193 135.071523 
L 364.132329 136.667414 
L 364.327121 143.514537 
L 364.606324 162.098398 
L 364.937472 200.832294 
L 365.349783 247.195377 
L 365.369263 247.002033 
L 365.440687 243.429349 
L 365.641972 218.653513 
L 366.23609 148.107406 
L 366.51854 136.229779 
L 366.625676 135.339797 
L 366.671127 135.48955 
L 366.775017 136.937962 
L 366.966563 143.336548 
L 367.236026 160.604336 
L 367.554188 197.256065 
L 367.985978 248.547341 
L 368.018444 248.069023 
L 368.109347 241.738877 
L 368.417769 198.219079 
L 368.882025 146.813287 
L 369.157981 135.632647 
L 369.255377 134.897361 
L 369.304076 135.079406 
L 369.414458 136.765608 
L 369.612497 143.878523 
L 369.894947 163.05752 
L 370.232588 203.328599 
L 370.62542 247.194909 
L 370.641652 247.09127 
L 370.703337 244.533588 
L 370.872157 225.496431 
L 371.547439 145.889267 
L 371.816902 135.918995 
L 371.904559 135.33981 
L 371.956503 135.543847 
L 372.070132 137.32276 
L 372.271418 144.613207 
L 372.547375 163.56101 
L 372.875276 203.593516 
L 373.264861 248.548265 
L 373.28434 248.365162 
L 373.355764 244.651724 
L 373.560297 218.436081 
L 374.134935 148.567707 
L 374.417385 135.943643 
L 374.53426 134.897524 
L 374.576465 135.041715 
L 374.680355 136.501727 
L 374.871901 143.00714 
L 375.147857 160.881306 
L 375.475759 198.368155 
L 375.904303 247.195694 
L 375.927028 246.958746 
L 376.004945 242.72471 
L 376.225711 214.530296 
L 376.784116 148.640296 
L 377.066566 136.361569 
L 377.183441 135.339998 
L 377.225647 135.482471 
L 377.329536 136.915238 
L 377.521082 143.287412 
L 377.790545 160.51234 
L 378.10546 196.635552 
L 378.543744 248.548018 
L 378.572963 248.101625 
L 378.663866 241.849884 
L 378.965795 199.322034 
L 379.433297 147.109096 
L 379.709254 135.700751 
L 379.809897 134.897375 
L 379.858595 135.071523 
L 379.965731 136.667416 
L 380.160524 143.514542 
L 380.439727 162.098406 
L 380.770874 200.832308 
L 381.183185 247.195377 
L 381.202665 247.002031 
L 381.274089 243.429342 
L 381.475375 218.653499 
L 382.069492 148.107399 
L 382.351942 136.229778 
L 382.459078 135.339797 
L 382.504529 135.489551 
L 382.608419 136.937964 
L 382.799965 143.336552 
L 383.069428 160.604344 
L 383.38759 197.256079 
L 383.81938 248.547341 
L 383.851846 248.06902 
L 383.942749 241.738868 
L 384.251171 198.219065 
L 384.715427 146.813281 
L 384.991383 135.632645 
L 385.08878 134.897361 
L 385.137478 135.079407 
L 385.24786 136.76561 
L 385.4459 143.878528 
L 385.728349 163.057529 
L 386.06599 203.328613 
L 386.458822 247.194909 
L 386.475055 247.091268 
L 386.536739 244.533581 
L 386.705559 225.496418 
L 387.380841 145.889261 
L 387.650304 135.918994 
L 387.737961 135.33981 
L 387.789905 135.543847 
L 387.903535 137.322762 
L 388.10482 144.613212 
L 388.380777 163.561019 
L 388.708678 203.59353 
L 389.098263 248.548265 
L 389.117743 248.36516 
L 389.189167 244.651717 
L 389.393699 218.436067 
L 389.968337 148.5677 
L 390.250787 135.943642 
L 390.367663 134.897524 
L 390.409868 135.041715 
L 390.513757 136.501729 
L 390.705303 143.007144 
L 390.98126 160.881314 
L 391.309161 198.368168 
L 391.737705 247.195694 
L 391.760431 246.958744 
L 391.838348 242.724703 
L 392.059113 214.530282 
L 392.617519 148.640289 
L 392.899968 136.361567 
L 393.016844 135.339998 
L 393.059049 135.482471 
L 393.162938 136.91524 
L 393.354484 143.287416 
L 393.623948 160.512348 
L 393.938863 196.635566 
L 394.377146 248.548018 
L 394.406365 248.101622 
L 394.497268 241.849875 
L 394.799197 199.32202 
L 395.2667 147.10909 
L 395.542656 135.700749 
L 395.643299 134.897375 
L 395.691997 135.071524 
L 395.799133 136.667418 
L 395.993926 143.514546 
L 396.273129 162.098414 
L 396.604276 200.832321 
L 397.016588 247.195377 
L 397.036067 247.002029 
L 397.107491 243.429334 
L 397.308777 218.653486 
L 397.902895 148.107393 
L 398.185344 136.229776 
L 398.29248 135.339797 
L 398.337932 135.489551 
L 398.441821 136.937966 
L 398.487273 138.032249 
L 398.487273 138.032249 
" style="fill:none;stroke:#1f77b4;stroke-linecap:square;stroke-width:1.5;"/>
   </g>
   <g id="patch_3">
    <path d="M 57.6 307.584 
L 57.6 41.472 
" style="fill:none;stroke:#000000;stroke-linecap:square;stroke-linejoin:miter;stroke-width:0.8;"/>
   </g>
   <g id="patch_4">
    <path d="M 414.72 307.584 
L 414.72 41.472 
" style="fill:none;stroke:#000000;stroke-linecap:square;stroke-linejoin:miter;stroke-width:0.8;"/>
   </g>
   <g id="patch_5">
    <path d="M 57.6 307.584 
L 414.72 307.584 
" style="fill:none;stroke:#000000;stroke-linecap:square;stroke-linejoin:miter;stroke-width:0.8;"/>
   </g>
   <g id="patch_6">
    <path d="M 57.6 41.472 
L 414.72 41.472 
" style="fill:none;stroke:#000000;stroke-linecap:square;stroke-linejoin:miter;stroke-width:0.8;"/>
   </g>
  </g>
 </g>
 <defs>
  <clipPath id="p8ef0d46714">
   <rect height="266.112" width="357.12" x="57.6" y="41.472"/>
  </clipPath>
 </defs>
</svg>
