<?xml version="1.0" encoding="utf-8" standalone="no"?>
<!DOCTYPE svg PUBLIC "-//W3C//DTD SVG 1.1//EN"
  "http://www.w3.org/Graphics/SVG/1.1/DTD/svg11.dtd">
<!-- Created with matplotlib (https://matplotlib.org/) -->
<svg height="345.6pt" version="1.1" viewBox="0 0 460.8 345.6" width="460.8pt" xmlns="http://www.w3.org/2000/svg" xmlns:xlink="http://www.w3.org/1999/xlink">
 <metadata>
  <rdf:RDF xmlns:cc="http://creativecommons.org/ns#" xmlns:dc="http://purl.org/dc/elements/1.1/" xmlns:rdf="http://www.w3.org/1999/02/22-rdf-syntax-ns#">
   <cc:Work>
    <dc:type rdf:resource="http://purl.org/dc/dcmitype/StillImage"/>
    <dc:date>2020-07-27T16:06:50.202035</dc:date>
    <dc:format>image/svg+xml</dc:format>
    <dc:creator>
     <cc:Agent>
      <dc:title>Matplotlib v3.3.0, https://matplotlib.org/</dc:title>
     </cc:Agent>
    </dc:creator>
   </cc:Work>
  </rdf:RDF>
 </metadata>
 <defs>
  <style type="text/css">*{stroke-linecap:butt;stroke-linejoin:round;}</style>
 </defs>
 <g id="figure_1">
  <g id="patch_1">
   <path d="M 0 345.6 
L 460.8 345.6 
L 460.8 0 
L 0 0 
z
" style="fill:#ffffff;"/>
  </g>
  <g id="axes_1">
   <g id="patch_2">
    <path d="M 57.6 307.584 
L 414.72 307.584 
L 414.72 41.472 
L 57.6 41.472 
z
" style="fill:#ffffff;"/>
   </g>
   <g id="matplotlib.axis_1">
    <g id="xtick_1">
     <g id="line2d_1">
      <defs>
       <path d="M 0 0 
L 0 3.5 
" id="m4b98fd5650" style="stroke:#000000;stroke-width:0.8;"/>
      </defs>
      <g>
       <use style="stroke:#000000;stroke-width:0.8;" x="73.832727" xlink:href="#m4b98fd5650" y="307.584"/>
      </g>
     </g>
     <g id="text_1">
      <!-- $\mathdefault{0}$ -->
      <g transform="translate(71.34206 321.502498)scale(0.1 -0.1)">
       <defs>
        <path d="M 42 31.640625 
C 42 37.75 41.90625 48.125 37.703125 56.109375 
C 34 63.109375 28.09375 65.59375 22.90625 65.59375 
C 18.09375 65.59375 12 63.40625 8.203125 56.203125 
C 4.203125 48.71875 3.796875 39.4375 3.796875 31.640625 
C 3.796875 25.953125 3.90625 17.28125 7 9.671875 
C 11.296875 -0.609375 19 -2 22.90625 -2 
C 27.5 -2 34.5 -0.109375 38.59375 9.375 
C 41.59375 16.28125 42 24.359375 42 31.640625 
z
M 22.90625 -0.40625 
C 16.5 -0.40625 12.703125 5.078125 11.296875 12.6875 
C 10.203125 18.5625 10.203125 27.15625 10.203125 32.75 
C 10.203125 40.4375 10.203125 46.828125 11.5 52.921875 
C 13.40625 61.390625 19 64 22.90625 64 
C 27 64 32.296875 61.296875 34.203125 53.125 
C 35.5 47.4375 35.59375 40.734375 35.59375 32.75 
C 35.59375 26.25 35.59375 18.265625 34.40625 12.375 
C 32.296875 1.484375 26.40625 -0.40625 22.90625 -0.40625 
z
" id="CMR17-48"/>
       </defs>
       <use transform="scale(0.996264)" xlink:href="#CMR17-48"/>
      </g>
     </g>
    </g>
    <g id="xtick_2">
     <g id="line2d_2">
      <g>
       <use style="stroke:#000000;stroke-width:0.8;" x="138.763636" xlink:href="#m4b98fd5650" y="307.584"/>
      </g>
     </g>
     <g id="text_2">
      <!-- $\mathdefault{20000}$ -->
      <g transform="translate(126.310298 321.502498)scale(0.1 -0.1)">
       <defs>
        <path d="M 41.703125 15.453125 
L 39.90625 15.453125 
C 38.90625 8.375 38.09375 7.171875 37.703125 6.5625 
C 37.203125 5.765625 30 5.765625 28.59375 5.765625 
L 9.40625 5.765625 
C 13 9.671875 20 16.75 28.5 24.953125 
C 34.59375 30.734375 41.703125 37.53125 41.703125 47.421875 
C 41.703125 59.21875 32.296875 66 21.796875 66 
C 10.796875 66 4.09375 56.3125 4.09375 47.34375 
C 4.09375 43.4375 7 42.9375 8.203125 42.9375 
C 9.203125 42.9375 12.203125 43.546875 12.203125 47.03125 
C 12.203125 50.109375 9.59375 51 8.203125 51 
C 7.59375 51 7 50.90625 6.59375 50.703125 
C 8.5 59.21875 14.296875 63.40625 20.40625 63.40625 
C 29.09375 63.40625 34.796875 56.515625 34.796875 47.421875 
C 34.796875 38.734375 29.703125 31.25 24 24.75 
L 4.09375 2.28125 
L 4.09375 0 
L 39.296875 0 
z
" id="CMR17-50"/>
       </defs>
       <use transform="scale(0.996264)" xlink:href="#CMR17-50"/>
       <use transform="translate(45.690477 0)scale(0.996264)" xlink:href="#CMR17-48"/>
       <use transform="translate(91.380954 0)scale(0.996264)" xlink:href="#CMR17-48"/>
       <use transform="translate(137.071431 0)scale(0.996264)" xlink:href="#CMR17-48"/>
       <use transform="translate(182.761908 0)scale(0.996264)" xlink:href="#CMR17-48"/>
      </g>
     </g>
    </g>
    <g id="xtick_3">
     <g id="line2d_3">
      <g>
       <use style="stroke:#000000;stroke-width:0.8;" x="203.694545" xlink:href="#m4b98fd5650" y="307.584"/>
      </g>
     </g>
     <g id="text_3">
      <!-- $\mathdefault{40000}$ -->
      <g transform="translate(191.241207 321.502498)scale(0.1 -0.1)">
       <defs>
        <path d="M 33.59375 64.40625 
C 33.59375 66.5 33.5 66.5 31.703125 66.5 
L 2 19.59375 
L 2 17 
L 27.796875 17 
L 27.796875 7.140625 
C 27.796875 3.5 27.59375 2.5 20.59375 2.5 
L 18.703125 2.5 
L 18.703125 0 
C 21.90625 0 27.296875 0 30.703125 0 
C 34.09375 0 39.5 0 42.703125 0 
L 42.703125 2.5 
L 40.796875 2.5 
C 33.796875 2.5 33.59375 3.5 33.59375 7.140625 
L 33.59375 17 
L 43.796875 17 
L 43.796875 19.59375 
L 33.59375 19.59375 
z
M 28.09375 57.859375 
L 28.09375 19.59375 
L 4 19.59375 
z
" id="CMR17-52"/>
       </defs>
       <use transform="scale(0.996264)" xlink:href="#CMR17-52"/>
       <use transform="translate(45.690477 0)scale(0.996264)" xlink:href="#CMR17-48"/>
       <use transform="translate(91.380954 0)scale(0.996264)" xlink:href="#CMR17-48"/>
       <use transform="translate(137.071431 0)scale(0.996264)" xlink:href="#CMR17-48"/>
       <use transform="translate(182.761908 0)scale(0.996264)" xlink:href="#CMR17-48"/>
      </g>
     </g>
    </g>
    <g id="xtick_4">
     <g id="line2d_4">
      <g>
       <use style="stroke:#000000;stroke-width:0.8;" x="268.625455" xlink:href="#m4b98fd5650" y="307.584"/>
      </g>
     </g>
     <g id="text_4">
      <!-- $\mathdefault{60000}$ -->
      <g transform="translate(256.172116 321.502498)scale(0.1 -0.1)">
       <defs>
        <path d="M 10.59375 34 
C 10.59375 57.65625 21.796875 63 28.296875 63 
C 30.40625 63 35.5 62.640625 37.5 59 
C 35.90625 59 32.90625 59 32.90625 55.515625 
C 32.90625 52.828125 35.09375 51.921875 36.5 51.921875 
C 37.40625 51.921875 40.09375 52.3125 40.09375 55.625 
C 40.09375 61.78125 35.09375 65.296875 28.203125 65.296875 
C 16.296875 65.296875 3.796875 52.96875 3.796875 31 
C 3.796875 3.953125 15.09375 -2 23.09375 -2 
C 32.796875 -2 42 6.671875 42 20.046875 
C 42 32.515625 33.90625 41.59375 23.703125 41.59375 
C 17.59375 41.59375 13.09375 37.609375 10.59375 30.625 
z
M 23.09375 0.390625 
C 10.796875 0.390625 10.796875 18.75 10.796875 22.4375 
C 10.796875 29.625 14.203125 40 23.5 40 
C 25.203125 40 30.09375 40 33.40625 33.125 
C 35.203125 29.21875 35.203125 25.140625 35.203125 20.140625 
C 35.203125 14.75 35.203125 10.78125 33.09375 6.78125 
C 30.90625 2.671875 27.703125 0.390625 23.09375 0.390625 
z
" id="CMR17-54"/>
       </defs>
       <use transform="scale(0.996264)" xlink:href="#CMR17-54"/>
       <use transform="translate(45.690477 0)scale(0.996264)" xlink:href="#CMR17-48"/>
       <use transform="translate(91.380954 0)scale(0.996264)" xlink:href="#CMR17-48"/>
       <use transform="translate(137.071431 0)scale(0.996264)" xlink:href="#CMR17-48"/>
       <use transform="translate(182.761908 0)scale(0.996264)" xlink:href="#CMR17-48"/>
      </g>
     </g>
    </g>
    <g id="xtick_5">
     <g id="line2d_5">
      <g>
       <use style="stroke:#000000;stroke-width:0.8;" x="333.556364" xlink:href="#m4b98fd5650" y="307.584"/>
      </g>
     </g>
     <g id="text_5">
      <!-- $\mathdefault{80000}$ -->
      <g transform="translate(321.103026 321.502498)scale(0.1 -0.1)">
       <defs>
        <path d="M 27.203125 35.375 
C 33.5 38.546875 39.90625 43.328125 39.90625 50.984375 
C 39.90625 60.015625 31.09375 65.296875 23 65.296875 
C 13.90625 65.296875 5.90625 58.734375 5.90625 49.6875 
C 5.90625 47.203125 6.5 42.921875 10.40625 39.140625 
C 11.40625 38.15625 15.59375 35.171875 18.296875 33.28125 
C 13.796875 30.984375 3.296875 25.53125 3.296875 14.59375 
C 3.296875 4.359375 13.09375 -2 22.796875 -2 
C 33.5 -2 42.5 5.65625 42.5 15.78125 
C 42.5 24.84375 36.40625 29.015625 32.40625 31.703125 
z
M 14.09375 44.09375 
C 13.296875 44.59375 9.296875 47.671875 9.296875 52.359375 
C 9.296875 58.421875 15.59375 63 22.796875 63 
C 30.703125 63 36.5 57.4375 36.5 50.96875 
C 36.5 41.703125 26.09375 36.421875 25.59375 36.421875 
C 25.5 36.421875 25.40625 36.421875 24.59375 37.03125 
z
M 32.5 23.734375 
C 34 22.640625 38.796875 19.375 38.796875 13.296875 
C 38.796875 5.953125 31.40625 0.390625 23 0.390625 
C 13.90625 0.390625 7 6.84375 7 14.6875 
C 7 22.546875 13.09375 29.09375 20 32.1875 
z
" id="CMR17-56"/>
       </defs>
       <use transform="scale(0.996264)" xlink:href="#CMR17-56"/>
       <use transform="translate(45.690477 0)scale(0.996264)" xlink:href="#CMR17-48"/>
       <use transform="translate(91.380954 0)scale(0.996264)" xlink:href="#CMR17-48"/>
       <use transform="translate(137.071431 0)scale(0.996264)" xlink:href="#CMR17-48"/>
       <use transform="translate(182.761908 0)scale(0.996264)" xlink:href="#CMR17-48"/>
      </g>
     </g>
    </g>
    <g id="xtick_6">
     <g id="line2d_6">
      <g>
       <use style="stroke:#000000;stroke-width:0.8;" x="398.487273" xlink:href="#m4b98fd5650" y="307.584"/>
      </g>
     </g>
     <g id="text_6">
      <!-- $\mathdefault{100000}$ -->
      <g transform="translate(383.543267 321.502498)scale(0.1 -0.1)">
       <defs>
        <path d="M 26.59375 63.40625 
C 26.59375 65.5 26.5 65.5 25.09375 65.5 
C 21.203125 61.1875 15.296875 59.796875 9.703125 59.796875 
C 9.40625 59.796875 8.90625 59.796875 8.796875 59.5 
C 8.703125 59.296875 8.703125 59.09375 8.703125 57 
C 11.796875 57 17 57.59375 21 59.984375 
L 21 7.203125 
C 21 3.6875 20.796875 2.5 12.203125 2.5 
L 9.203125 2.5 
L 9.203125 0 
C 14 0 19 0 23.796875 0 
C 28.59375 0 33.59375 0 38.40625 0 
L 38.40625 2.5 
L 35.40625 2.5 
C 26.796875 2.5 26.59375 3.59375 26.59375 7.15625 
z
" id="CMR17-49"/>
       </defs>
       <use transform="scale(0.996264)" xlink:href="#CMR17-49"/>
       <use transform="translate(45.690477 0)scale(0.996264)" xlink:href="#CMR17-48"/>
       <use transform="translate(91.380954 0)scale(0.996264)" xlink:href="#CMR17-48"/>
       <use transform="translate(137.071431 0)scale(0.996264)" xlink:href="#CMR17-48"/>
       <use transform="translate(182.761908 0)scale(0.996264)" xlink:href="#CMR17-48"/>
       <use transform="translate(228.452386 0)scale(0.996264)" xlink:href="#CMR17-48"/>
      </g>
     </g>
    </g>
   </g>
   <g id="matplotlib.axis_2">
    <g id="ytick_1">
     <g id="line2d_7">
      <defs>
       <path d="M 0 0 
L -3.5 0 
" id="mae1b4f0c04" style="stroke:#000000;stroke-width:0.8;"/>
      </defs>
      <g>
       <use style="stroke:#000000;stroke-width:0.8;" x="57.6" xlink:href="#mae1b4f0c04" y="297.725092"/>
      </g>
     </g>
     <g id="text_7">
      <!-- $\mathdefault{0.000}$ -->
      <g transform="translate(27.907251 301.184341)scale(0.1 -0.1)">
       <defs>
        <path d="M 18.40625 4.796875 
C 18.40625 7.6875 16 9.671875 13.59375 9.671875 
C 10.703125 9.671875 8.703125 7.28125 8.703125 4.890625 
C 8.703125 2 11.09375 0 13.5 0 
C 16.40625 0 18.40625 2.390625 18.40625 4.796875 
z
" id="CMMI12-58"/>
       </defs>
       <use transform="scale(0.996264)" xlink:href="#CMR17-48"/>
       <use transform="translate(45.690477 0)scale(0.996264)" xlink:href="#CMMI12-58"/>
       <use transform="translate(72.787654 0)scale(0.996264)" xlink:href="#CMR17-48"/>
       <use transform="translate(118.478131 0)scale(0.996264)" xlink:href="#CMR17-48"/>
       <use transform="translate(164.168608 0)scale(0.996264)" xlink:href="#CMR17-48"/>
      </g>
     </g>
    </g>
    <g id="ytick_2">
     <g id="line2d_8">
      <g>
       <use style="stroke:#000000;stroke-width:0.8;" x="57.6" xlink:href="#mae1b4f0c04" y="265.549041"/>
      </g>
     </g>
     <g id="text_8">
      <!-- $\mathdefault{0.025}$ -->
      <g transform="translate(27.907251 269.00829)scale(0.1 -0.1)">
       <defs>
        <path d="M 11.40625 57.6875 
C 12.40625 57.28125 16.5 56 20.703125 56 
C 30 56 35.09375 61.109375 38 64.0625 
C 38 64.953125 38 65.5 37.40625 65.5 
C 37.296875 65.5 37.09375 65.5 36.296875 65.046875 
C 32.796875 63.40625 28.703125 62.078125 23.703125 62.078125 
C 20.703125 62.078125 16.203125 62.484375 11.296875 64.671875 
C 10.203125 65.171875 10 65.171875 9.90625 65.171875 
C 9.40625 65.171875 9.296875 65.0625 9.296875 63.078125 
L 9.296875 34.421875 
C 9.296875 32.640625 9.296875 32.140625 10.296875 32.140625 
C 10.796875 32.140625 11 32.34375 11.5 33.03125 
C 14.703125 37.515625 19.09375 39.40625 24.09375 39.40625 
C 27.59375 39.40625 35.09375 37.21875 35.09375 20.140625 
C 35.09375 16.953125 35.09375 11.171875 32.09375 6.578125 
C 29.59375 2.484375 25.703125 0.390625 21.40625 0.390625 
C 14.796875 0.390625 8.09375 5 6.296875 12.71875 
C 6.703125 12.609375 7.5 12.421875 7.90625 12.421875 
C 9.203125 12.421875 11.703125 13.125 11.703125 16.21875 
C 11.703125 18.90625 9.796875 20 7.90625 20 
C 5.59375 20 4.09375 18.59375 4.09375 15.796875 
C 4.09375 7.09375 11 -2 21.59375 -2 
C 31.90625 -2 41.703125 6.875 41.703125 19.75 
C 41.703125 31.71875 33.90625 41 24.203125 41 
C 19.09375 41 14.796875 39.109375 11.40625 35.53125 
z
" id="CMR17-53"/>
       </defs>
       <use transform="scale(0.996264)" xlink:href="#CMR17-48"/>
       <use transform="translate(45.690477 0)scale(0.996264)" xlink:href="#CMMI12-58"/>
       <use transform="translate(72.787654 0)scale(0.996264)" xlink:href="#CMR17-48"/>
       <use transform="translate(118.478131 0)scale(0.996264)" xlink:href="#CMR17-50"/>
       <use transform="translate(164.168608 0)scale(0.996264)" xlink:href="#CMR17-53"/>
      </g>
     </g>
    </g>
    <g id="ytick_3">
     <g id="line2d_9">
      <g>
       <use style="stroke:#000000;stroke-width:0.8;" x="57.6" xlink:href="#mae1b4f0c04" y="233.37299"/>
      </g>
     </g>
     <g id="text_9">
      <!-- $\mathdefault{0.050}$ -->
      <g transform="translate(27.907251 236.832239)scale(0.1 -0.1)">
       <use transform="scale(0.996264)" xlink:href="#CMR17-48"/>
       <use transform="translate(45.690477 0)scale(0.996264)" xlink:href="#CMMI12-58"/>
       <use transform="translate(72.787654 0)scale(0.996264)" xlink:href="#CMR17-48"/>
       <use transform="translate(118.478131 0)scale(0.996264)" xlink:href="#CMR17-53"/>
       <use transform="translate(164.168608 0)scale(0.996264)" xlink:href="#CMR17-48"/>
      </g>
     </g>
    </g>
    <g id="ytick_4">
     <g id="line2d_10">
      <g>
       <use style="stroke:#000000;stroke-width:0.8;" x="57.6" xlink:href="#mae1b4f0c04" y="201.196939"/>
      </g>
     </g>
     <g id="text_10">
      <!-- $\mathdefault{0.075}$ -->
      <g transform="translate(27.907251 204.656188)scale(0.1 -0.1)">
       <defs>
        <path d="M 45.09375 61.578125 
L 45.09375 63.765625 
L 21.59375 63.765625 
C 9.90625 63.765625 9.703125 65.078125 9.296875 67 
L 7.5 67 
L 4.59375 48.34375 
L 6.40625 48.34375 
C 6.703125 50.234375 7.40625 55.3125 8.59375 57.203125 
C 9.203125 58 16.59375 58 18.296875 58 
L 40.296875 58 
L 29.203125 41.578125 
C 21.796875 30.53125 16.703125 15.609375 16.703125 2.578125 
C 16.703125 1.390625 16.703125 -2 20.296875 -2 
C 23.90625 -2 23.90625 1.390625 23.90625 2.671875 
L 23.90625 7.265625 
C 23.90625 23.5625 26.703125 34.3125 31.296875 41.1875 
z
" id="CMR17-55"/>
       </defs>
       <use transform="scale(0.996264)" xlink:href="#CMR17-48"/>
       <use transform="translate(45.690477 0)scale(0.996264)" xlink:href="#CMMI12-58"/>
       <use transform="translate(72.787654 0)scale(0.996264)" xlink:href="#CMR17-48"/>
       <use transform="translate(118.478131 0)scale(0.996264)" xlink:href="#CMR17-55"/>
       <use transform="translate(164.168608 0)scale(0.996264)" xlink:href="#CMR17-53"/>
      </g>
     </g>
    </g>
    <g id="ytick_5">
     <g id="line2d_11">
      <g>
       <use style="stroke:#000000;stroke-width:0.8;" x="57.6" xlink:href="#mae1b4f0c04" y="169.020888"/>
      </g>
     </g>
     <g id="text_11">
      <!-- $\mathdefault{0.100}$ -->
      <g transform="translate(27.907251 172.480137)scale(0.1 -0.1)">
       <use transform="scale(0.996264)" xlink:href="#CMR17-48"/>
       <use transform="translate(45.690477 0)scale(0.996264)" xlink:href="#CMMI12-58"/>
       <use transform="translate(72.787654 0)scale(0.996264)" xlink:href="#CMR17-49"/>
       <use transform="translate(118.478131 0)scale(0.996264)" xlink:href="#CMR17-48"/>
       <use transform="translate(164.168608 0)scale(0.996264)" xlink:href="#CMR17-48"/>
      </g>
     </g>
    </g>
    <g id="ytick_6">
     <g id="line2d_12">
      <g>
       <use style="stroke:#000000;stroke-width:0.8;" x="57.6" xlink:href="#mae1b4f0c04" y="136.844837"/>
      </g>
     </g>
     <g id="text_12">
      <!-- $\mathdefault{0.125}$ -->
      <g transform="translate(27.907251 140.304087)scale(0.1 -0.1)">
       <use transform="scale(0.996264)" xlink:href="#CMR17-48"/>
       <use transform="translate(45.690477 0)scale(0.996264)" xlink:href="#CMMI12-58"/>
       <use transform="translate(72.787654 0)scale(0.996264)" xlink:href="#CMR17-49"/>
       <use transform="translate(118.478131 0)scale(0.996264)" xlink:href="#CMR17-50"/>
       <use transform="translate(164.168608 0)scale(0.996264)" xlink:href="#CMR17-53"/>
      </g>
     </g>
    </g>
    <g id="ytick_7">
     <g id="line2d_13">
      <g>
       <use style="stroke:#000000;stroke-width:0.8;" x="57.6" xlink:href="#mae1b4f0c04" y="104.668786"/>
      </g>
     </g>
     <g id="text_13">
      <!-- $\mathdefault{0.150}$ -->
      <g transform="translate(27.907251 108.128036)scale(0.1 -0.1)">
       <use transform="scale(0.996264)" xlink:href="#CMR17-48"/>
       <use transform="translate(45.690477 0)scale(0.996264)" xlink:href="#CMMI12-58"/>
       <use transform="translate(72.787654 0)scale(0.996264)" xlink:href="#CMR17-49"/>
       <use transform="translate(118.478131 0)scale(0.996264)" xlink:href="#CMR17-53"/>
       <use transform="translate(164.168608 0)scale(0.996264)" xlink:href="#CMR17-48"/>
      </g>
     </g>
    </g>
    <g id="ytick_8">
     <g id="line2d_14">
      <g>
       <use style="stroke:#000000;stroke-width:0.8;" x="57.6" xlink:href="#mae1b4f0c04" y="72.492735"/>
      </g>
     </g>
     <g id="text_14">
      <!-- $\mathdefault{0.175}$ -->
      <g transform="translate(27.907251 75.951985)scale(0.1 -0.1)">
       <use transform="scale(0.996264)" xlink:href="#CMR17-48"/>
       <use transform="translate(45.690477 0)scale(0.996264)" xlink:href="#CMMI12-58"/>
       <use transform="translate(72.787654 0)scale(0.996264)" xlink:href="#CMR17-49"/>
       <use transform="translate(118.478131 0)scale(0.996264)" xlink:href="#CMR17-55"/>
       <use transform="translate(164.168608 0)scale(0.996264)" xlink:href="#CMR17-53"/>
      </g>
     </g>
    </g>
   </g>
   <g id="line2d_15">
    <path clip-path="url(#pd60e526d15)" d="M 73.832727 169.020888 
L 74.764486 169.099636 
L 74.796951 170.551895 
L 74.855389 189.636272 
L 74.962525 235.494593 
L 75.011223 214.781708 
L 75.150825 188.829376 
L 75.173551 185.410527 
L 75.238481 194.841568 
L 75.309905 202.054473 
L 75.355357 196.492717 
L 75.407302 189.966313 
L 75.475479 194.384601 
L 75.559889 198.894092 
L 75.605341 196.361665 
L 75.647546 194.189725 
L 75.715724 196.080909 
L 75.826106 197.613747 
L 75.855325 197.064445 
L 76.066351 192.911245 
L 76.150761 189.453456 
L 76.196212 187.23652 
L 76.267636 188.91422 
L 76.313088 189.845765 
L 76.429964 193.233853 
L 76.485155 192.050198 
L 76.556579 189.418223 
L 76.628003 191.019738 
L 76.71566 192.836325 
L 76.761111 192.016002 
L 76.832535 190.214903 
L 76.89422 191.047583 
L 77.011095 192.433668 
L 77.076026 191.677843 
L 77.15719 190.630949 
L 77.209135 190.802224 
L 77.225367 190.877609 
L 77.300038 190.425151 
L 77.303284 190.441567 
L 77.345489 190.208262 
L 77.387695 190.324881 
L 77.390941 190.296661 
L 77.475351 190.508128 
L 77.647418 191.743361 
L 77.663651 191.717624 
L 77.69287 191.582875 
L 77.783773 191.045601 
L 77.835718 191.272497 
L 78.020771 191.935425 
L 78.108428 191.888519 
L 78.027264 191.938507 
L 78.140893 191.927333 
L 78.235043 192.075279 
L 78.274001 192.067897 
L 78.277248 192.052985 
L 78.358412 192.146216 
L 78.374644 192.121497 
L 78.377891 192.134413 
L 78.439575 191.947546 
L 78.442822 191.953652 
L 78.498013 191.82553 
L 78.546711 191.967045 
L 78.549958 191.966825 
L 78.780463 194.003524 
L 78.832407 193.893073 
L 78.868119 193.811494 
L 78.920064 194.020903 
L 79.426525 202.448867 
L 79.725207 214.752375 
L 80.046615 239.392628 
L 80.520611 292.504173 
L 80.559569 295.488 
L 80.614761 290.907437 
L 81.212125 237.370517 
L 81.582231 220.229781 
L 81.903639 213.039575 
L 82.234787 210.390834 
L 82.481524 210.368242 
L 82.741248 211.291476 
L 83.432762 215.090882 
L 83.552884 215.633691 
L 83.85806 217.123532 
L 84.140509 218.194888 
L 84.143756 218.191556 
L 84.387247 218.770817 
L 84.413219 218.802547 
L 84.500876 218.80295 
L 84.672943 218.936841 
L 84.692422 218.95211 
L 84.896954 218.758005 
L 84.903447 218.754636 
L 85.017076 218.763999 
L 85.247581 218.432991 
L 85.348224 218.412777 
L 85.254074 218.429233 
L 85.354717 218.409444 
L 85.565743 218.102536 
L 85.578729 218.094526 
L 85.679372 218.085556 
L 85.870918 217.871162 
L 85.883904 217.862487 
L 85.997533 217.871939 
L 86.156614 217.77488 
L 86.176093 217.760754 
L 86.276736 217.766132 
L 86.315695 217.787347 
L 86.377379 217.800675 
L 86.484515 217.777843 
L 86.559185 217.770187 
L 86.594897 217.798247 
L 86.598144 217.793172 
L 86.679308 217.8662 
L 86.682554 217.860931 
L 86.809169 217.894138 
L 86.864361 217.897944 
L 86.909812 217.927101 
L 87.068893 218.071607 
L 87.176029 218.097071 
L 87.361082 218.271638 
L 87.367575 218.276653 
L 87.461725 218.31412 
L 87.633792 218.448574 
L 87.653271 218.468425 
L 87.721449 218.515648 
L 87.86105 218.581697 
L 87.877283 218.585802 
L 87.94546 218.650753 
L 87.948707 218.647336 
L 88.101295 218.751695 
L 88.208431 218.785589 
L 88.367511 218.90018 
L 88.370758 218.895364 
L 88.503866 218.932621 
L 88.604509 218.975598 
L 88.744111 219.035667 
L 88.864233 219.047254 
L 89.01682 219.119043 
L 89.136943 219.130814 
L 89.302516 219.209578 
L 89.409652 219.247146 
L 89.581719 219.347558 
L 89.669376 219.41522 
L 89.847936 219.562735 
L 89.922607 219.647401 
L 90.127139 219.90354 
L 90.195316 219.999432 
L 90.438807 220.409445 
L 90.506985 220.528487 
L 90.782941 221.079643 
L 90.864105 221.24723 
L 91.133568 221.818117 
L 91.227718 222.020412 
L 91.490688 222.551444 
L 91.591331 222.752275 
L 91.841315 223.192142 
L 91.941958 223.362111 
L 92.172463 223.69137 
L 92.273105 223.827786 
L 92.484131 224.058724 
L 92.578281 224.157846 
L 92.769827 224.314667 
L 92.87047 224.390554 
L 93.055523 224.506447 
L 93.169152 224.559985 
L 93.347712 224.645129 
L 93.350959 224.642701 
L 93.536012 224.704579 
L 93.688599 224.741746 
L 93.873652 224.779973 
L 94.039226 224.80068 
L 94.224279 224.826046 
L 94.402839 224.833239 
L 94.594385 224.854206 
L 94.779439 224.852067 
L 94.970985 224.869965 
L 95.156038 224.866242 
L 95.341091 224.879472 
L 95.519651 224.878115 
L 95.704704 224.887305 
L 95.883264 224.889155 
L 96.068317 224.894836 
L 96.25337 224.89968 
L 96.444916 224.902344 
L 96.642956 224.909273 
L 96.853981 224.911859 
L 97.077993 224.915708 
L 97.321484 224.924741 
L 97.558481 224.92535 
L 97.788986 224.930731 
L 98.025984 224.93571 
L 98.288954 224.940266 
L 98.571404 224.939579 
L 98.834374 224.94008 
L 99.123316 224.935751 
L 99.431738 224.928616 
L 99.746653 224.912856 
L 100.074554 224.892634 
L 100.428428 224.863093 
L 100.80178 224.831185 
L 101.175133 224.799056 
L 101.61991 224.771388 
L 102.0517 224.757588 
L 102.522449 224.753994 
L 104.324282 224.419099 
L 104.850223 224.611438 
L 105.00281 224.440802 
L 105.233315 223.747156 
L 105.72679 221.859377 
L 105.788474 221.958503 
L 105.902103 222.620663 
L 106.080663 225.297546 
L 106.350127 233.366206 
L 106.652055 241.157856 
L 106.671535 241.100202 
L 106.739712 239.919057 
L 106.87282 232.631738 
L 107.129297 202.991518 
L 107.51239 165.415093 
L 107.723415 158.173424 
L 108.151959 124.883498 
L 108.236369 127.143685 
L 108.375971 140.78444 
L 108.697379 180.751166 
L 108.759063 178.702443 
L 108.908404 161.859877 
L 109.164881 139.818401 
L 109.21358 139.882288 
L 109.268771 139.592387 
L 109.366167 136.706071 
L 109.635631 119.995913 
L 109.947299 97.322565 
L 110.00249 98.912319 
L 110.112873 112.034091 
L 110.36935 177.115045 
L 110.655046 226.034217 
L 110.736209 227.622362 
L 110.788154 227.076702 
L 110.888797 222.653452 
L 111.038138 204.013141 
L 111.343313 128.043764 
L 111.654982 79.906818 
L 111.953664 56.646723 
L 111.963404 56.620842 
L 111.995869 56.971782 
L 112.083526 61.401113 
L 112.255593 84.283387 
L 112.852957 177.090785 
L 112.878929 176.997893 
L 113.180858 174.113714 
L 113.294487 163.99241 
L 113.57369 110.225818 
L 113.774976 91.116017 
L 113.787962 91.207792 
L 113.852893 93.664322 
L 114.01522 110.549403 
L 114.687255 207.134622 
L 114.774912 202.969988 
L 114.924253 177.49406 
L 115.554083 56.734828 
L 115.644986 53.568 
L 115.696931 54.57449 
L 115.807313 63.34337 
L 116.034572 103.388467 
L 116.563759 195.770486 
L 116.592977 196.042185 
L 116.641676 195.231349 
L 116.752058 188.031337 
L 116.933865 158.856624 
L 117.420847 77.16735 
L 117.430586 77.139046 
L 117.463052 77.543073 
L 117.553955 82.549707 
L 117.742255 108.233638 
L 118.355852 202.566469 
L 118.378577 202.301829 
L 118.453248 197.778198 
L 118.612329 170.891576 
L 119.11879 80.260707 
L 119.209693 77.776856 
L 119.258391 78.510568 
L 119.368774 85.298587 
L 119.573306 114.54997 
L 120.070028 196.223775 
L 120.112233 195.222816 
L 120.212876 184.598523 
L 120.914129 81.321598 
L 120.975814 82.488445 
L 121.095936 91.104719 
L 121.323194 126.967224 
L 121.748492 194.200174 
L 121.771217 193.847022 
L 121.849135 187.913173 
L 122.063407 148.760539 
L 122.482211 83.237524 
L 122.566621 80.900534 
L 122.618566 81.762145 
L 122.732195 89.395272 
L 122.939974 121.20714 
L 123.384751 194.278068 
L 123.400983 194.112684 
L 123.465914 190.222425 
L 123.628241 163.313102 
L 124.095744 86.66231 
L 124.183401 84.114629 
L 124.235345 84.868079 
L 124.329495 90.648729 
L 124.556753 124.055383 
L 124.965818 194.100115 
L 124.991791 194.539392 
L 125.037242 193.065238 
L 125.154118 177.224649 
L 125.777455 86.198786 
L 125.783948 86.19009 
L 125.806673 86.414025 
L 125.881344 90.170391 
L 126.095616 117.192513 
L 126.566365 195.294052 
L 126.569612 195.31232 
L 126.592337 194.881041 
L 126.673501 186.70491 
L 126.981923 125.843707 
L 127.290345 87.79436 
L 127.348783 86.802792 
L 127.397481 87.759976 
L 127.507863 96.785369 
L 127.722135 129.718472 
L 128.134447 195.815963 
L 128.179898 193.672093 
L 128.329239 170.76201 
L 128.851933 89.443337 
L 128.926604 88.673696 
L 128.968809 89.263504 
L 129.053219 94.903247 
L 129.283724 130.677294 
L 129.696035 195.719341 
L 129.73824 193.995429 
L 129.877841 173.611565 
L 130.445987 89.126698 
L 130.497932 88.481283 
L 130.543383 89.372796 
L 130.637533 97.731313 
L 130.962188 149.774999 
L 131.264116 195.356927 
L 131.299828 194.184532 
L 131.419951 178.402834 
L 132.053027 88.595172 
L 132.05952 88.584438 
L 132.082246 88.761724 
L 132.150423 91.989118 
L 132.358202 117.485508 
L 132.838691 195.413019 
L 132.848431 195.315018 
L 132.900375 191.830028 
L 133.098415 157.759764 
L 133.530205 90.426099 
L 133.624355 88.591253 
L 133.66656 89.095642 
L 133.75097 94.634349 
L 134.01394 134.685409 
L 134.410019 195.488305 
L 134.455471 193.460227 
L 134.604812 170.870215 
L 135.140492 89.299792 
L 135.202176 88.617019 
L 135.247628 89.326574 
L 135.341777 96.610998 
L 135.646953 145.135723 
L 135.981347 195.399423 
L 136.039785 192.32708 
L 136.221591 162.134808 
L 136.685847 89.979158 
L 136.770257 88.521407 
L 136.815709 89.155668 
L 136.906612 95.840057 
L 137.198801 141.620326 
L 137.555921 195.464572 
L 137.611113 192.469205 
L 137.789673 162.999804 
L 138.257175 90.132941 
L 138.348079 88.595275 
L 138.390284 89.248948 
L 138.481187 95.979728 
L 138.776623 142.585474 
L 139.127249 195.397755 
L 139.182441 192.556217 
L 139.357754 163.925808 
L 139.834996 89.831978 
L 139.91616 88.529226 
L 139.961612 89.18642 
L 140.052515 95.928933 
L 140.344704 141.759737 
L 140.698577 195.470737 
L 140.757015 192.390655 
L 140.938822 162.183369 
L 141.403078 90.084164 
L 141.490735 88.58643 
L 141.53294 89.171534 
L 141.623843 95.710898 
L 141.916032 141.629967 
L 142.273152 195.392626 
L 142.325097 192.784359 
L 142.493917 165.702034 
L 142.984145 89.696668 
L 143.062063 88.539702 
L 143.107514 89.218 
L 143.198417 96.017539 
L 143.490607 141.902099 
L 143.84448 195.476548 
L 143.899671 192.640031 
L 144.074985 163.99289 
L 144.552227 89.930024 
L 144.636637 88.58184 
L 144.678842 89.193792 
L 144.769745 95.803413 
L 145.061935 141.766423 
L 145.419055 195.387628 
L 145.470999 192.699155 
L 145.643066 164.88699 
L 146.126801 89.785044 
L 146.207965 88.542695 
L 146.253417 89.246075 
L 146.34432 96.11158 
L 146.639756 142.585999 
L 146.990383 195.478366 
L 147.04882 192.233124 
L 147.23712 160.520532 
L 147.68839 90.272084 
L 147.78254 88.578509 
L 147.824745 89.219486 
L 147.915648 95.89864 
L 148.211084 142.452383 
L 148.561711 195.387056 
L 148.616902 192.615804 
L 148.792215 164.069354 
L 149.269457 89.874279 
L 149.350621 88.546109 
L 149.396073 89.168134 
L 149.486976 95.835168 
L 149.779165 141.637118 
L 150.136285 195.478609 
L 150.191476 192.483997 
L 150.370036 163.006288 
L 150.837539 90.105124 
L 150.925196 88.576534 
L 150.970647 89.246224 
L 151.064797 96.365556 
L 151.363479 143.674994 
L 151.707613 195.386491 
L 151.766051 192.204349 
L 151.951104 161.269015 
L 152.408867 90.093849 
L 152.496524 88.547861 
L 152.541975 89.19536 
L 152.632879 95.927986 
L 152.925068 141.776715 
L 153.278941 195.481386 
L 153.337379 192.402855 
L 153.519185 162.17929 
L 153.983441 90.071563 
L 154.071098 88.574814 
L 154.113303 89.166957 
L 154.204207 95.71775 
L 154.496396 141.632283 
L 154.853516 195.385001 
L 154.90546 192.766071 
L 155.074281 165.684342 
L 155.564509 89.706742 
L 155.642426 88.549042 
L 155.687878 89.222858 
L 155.778781 96.021327 
L 156.074217 142.459529 
L 156.424844 195.482932 
L 156.483281 192.320087 
L 156.668335 161.348548 
L 157.126097 90.16574 
L 157.217001 88.573885 
L 157.259206 89.192822 
L 157.350109 95.8114 
L 157.642298 141.771496 
L 157.996172 195.3825 
L 158.051363 192.685993 
L 158.22343 164.872408 
L 158.707165 89.790554 
L 158.788329 88.550143 
L 158.83378 89.250807 
L 158.924684 96.11496 
L 159.220119 142.597518 
L 159.570746 195.482976 
L 159.629184 192.23588 
L 159.817484 160.514227 
L 160.268753 90.264057 
L 160.362903 88.573625 
L 160.405108 89.21942 
L 160.496012 95.905229 
L 160.788201 141.910619 
L 161.142074 195.383968 
L 161.197265 192.605223 
L 161.372579 164.056162 
L 161.849821 89.877744 
L 161.930985 88.551103 
L 161.976436 89.171641 
L 162.06734 95.839254 
L 162.359529 141.647639 
L 162.716649 195.481488 
L 162.77184 192.484375 
L 162.9504 162.99884 
L 163.417903 90.099239 
L 163.505559 88.572974 
L 163.551011 89.246664 
L 163.645161 96.371902 
L 163.943843 143.68124 
L 164.287977 195.384299 
L 164.346415 192.195278 
L 164.531468 161.256943 
L 164.989231 90.095235 
L 165.076887 88.551092 
L 165.122339 89.198222 
L 165.213242 95.932628 
L 165.505431 141.786414 
L 165.859305 195.483495 
L 165.917743 192.401455 
L 166.099549 162.171095 
L 166.560559 90.195429 
L 166.651462 88.572441 
L 166.693667 89.16762 
L 166.78457 95.723838 
L 167.076759 141.639476 
L 167.433879 195.383364 
L 167.485824 192.758865 
L 167.654644 165.673164 
L 168.144873 89.707455 
L 168.22279 88.55126 
L 168.268241 89.225343 
L 168.359145 96.026249 
L 168.65458 142.4687 
L 169.005207 195.484343 
L 169.063645 192.317416 
L 169.248698 161.339738 
L 169.706461 90.161971 
L 169.797364 88.572332 
L 169.839569 89.19383 
L 169.930473 95.817289 
L 170.222662 141.779005 
L 170.576535 195.381698 
L 170.631727 192.67952 
L 170.803793 164.861684 
L 171.287529 89.790443 
L 171.368692 88.551651 
L 171.414144 89.253001 
L 171.505047 96.120095 
L 171.800483 142.606347 
L 172.15111 195.483783 
L 172.209548 192.232481 
L 172.397847 160.504952 
L 172.849117 90.260813 
L 172.943267 88.572606 
L 172.985472 89.220652 
L 173.076375 95.91101 
L 173.368564 141.918348 
L 173.722438 195.383396 
L 173.777629 192.599225 
L 173.952943 164.045717 
L 174.430185 89.877033 
L 174.511348 88.552085 
L 174.5568 89.173601 
L 174.647703 95.844476 
L 174.939892 141.656283 
L 175.293766 195.482088 
L 175.352204 192.480581 
L 175.530764 162.989521 
L 175.998266 90.096511 
L 176.085923 88.57224 
L 176.131375 89.248059 
L 176.225524 96.377632 
L 176.524207 143.688944 
L 176.86834 195.383784 
L 176.926778 192.189496 
L 177.111831 161.246555 
L 177.569594 90.093962 
L 177.657251 88.551755 
L 177.702703 89.200073 
L 177.793606 95.937955 
L 178.085795 141.794896 
L 178.439668 195.484012 
L 178.498106 192.397187 
L 178.679913 162.161558 
L 179.140922 90.192911 
L 179.231825 88.571948 
L 179.274031 89.168974 
L 179.364934 95.729455 
L 179.657123 141.647486 
L 180.014243 195.382992 
L 180.066188 192.753685 
L 180.235008 165.663221 
L 180.725236 89.706314 
L 180.803153 88.551719 
L 180.848605 89.22712 
L 180.939508 96.031647 
L 181.234944 142.47702 
L 181.585571 195.484569 
L 181.644009 192.312954 
L 181.829062 161.330009 
L 182.286825 90.159641 
L 182.377728 88.572015 
L 182.419933 89.195278 
L 182.510836 95.822882 
L 182.803025 141.787061 
L 183.156899 195.381664 
L 183.21209 192.674407 
L 183.384157 164.851774 
L 183.867892 89.789088 
L 183.949056 88.551966 
L 183.994508 89.254754 
L 184.085411 96.125549 
L 184.380847 142.614584 
L 184.731473 195.483917 
L 184.789911 192.227786 
L 184.978211 160.49514 
L 185.429481 90.258549 
L 185.523631 88.572433 
L 185.565836 89.222174 
L 185.656739 95.916583 
L 185.948928 141.926451 
L 186.302801 195.383269 
L 186.357993 192.594285 
L 186.533306 164.035809 
L 187.010548 89.87547 
L 187.091712 88.552265 
L 187.137164 89.175233 
L 187.228067 95.84992 
L 187.520256 141.664556 
L 187.874129 195.482385 
L 187.932567 192.475861 
L 188.114374 162.319596 
L 188.57863 90.094453 
L 188.666287 88.572072 
L 188.711738 89.249653 
L 188.805888 96.383259 
L 189.10457 143.696944 
L 189.448704 195.383697 
L 189.507142 192.18433 
L 189.695441 160.572108 
L 190.146711 90.22561 
L 190.237615 88.551895 
L 190.27982 89.100737 
L 190.367476 95.21375 
L 190.649926 139.035499 
L 191.020032 195.484109 
L 191.071977 193.024491 
L 191.234304 167.365739 
L 191.737519 89.614334 
L 191.812189 88.571845 
L 191.857641 89.277712 
L 191.951791 96.478352 
L 192.250473 143.833812 
L 192.594607 195.382879 
L 192.649798 192.430992 
L 192.828358 163.049089 
L 193.299107 89.934539 
L 193.383517 88.551809 
L 193.428969 89.228763 
L 193.519872 96.037149 
L 193.815308 142.48516 
L 194.165935 195.484642 
L 194.224372 192.308081 
L 194.409425 161.320134 
L 194.867188 90.157624 
L 194.958092 88.571969 
L 195.000297 89.196815 
L 195.0912 95.828407 
L 195.383389 141.795236 
L 195.737263 195.381704 
L 195.792454 192.669689 
L 195.964521 164.842019 
L 196.448256 89.787456 
L 196.52942 88.552038 
L 196.574871 89.256419 
L 196.665775 96.131076 
L 196.96121 142.622692 
L 197.311837 195.483919 
L 197.370275 192.22274 
L 197.558575 160.48523 
L 198.009844 90.256487 
L 198.103994 88.572419 
L 198.146199 89.223762 
L 198.240349 96.293958 
L 198.539031 143.56796 
L 198.883165 195.383321 
L 198.941603 192.264124 
L 199.126656 161.394867 
L 199.584419 90.123428 
L 199.672076 88.55229 
L 199.717527 89.176792 
L 199.808431 95.855403 
L 200.10062 141.672747 
L 200.454493 195.482493 
L 200.512931 192.471059 
L 200.694737 162.309711 
L 201.158993 90.092517 
L 201.24665 88.572023 
L 201.292102 89.251285 
L 201.386252 96.388859 
L 201.684934 143.705002 
L 202.029068 195.383697 
L 202.087505 192.179214 
L 202.275805 160.562165 
L 202.727075 90.223603 
L 202.817978 88.551913 
L 202.860183 89.102198 
L 202.94784 95.219125 
L 203.230289 139.043897 
L 203.600396 195.48421 
L 203.65234 193.020026 
L 203.817914 166.714258 
L 204.314636 89.715262 
L 204.392553 88.571834 
L 204.438004 89.279375 
L 204.532154 96.483948 
L 204.830836 143.841868 
L 205.17497 195.382723 
L 205.230161 192.42616 
L 205.408721 163.039239 
L 205.879471 89.932735 
L 205.963881 88.551828 
L 206.009332 89.230388 
L 206.100236 96.042674 
L 206.395671 142.493269 
L 206.746298 195.484682 
L 206.804736 192.303042 
L 206.989789 161.310232 
L 207.447552 90.155673 
L 207.538455 88.571964 
L 207.58066 89.198377 
L 207.671564 95.833925 
L 207.963753 141.80343 
L 208.317626 195.381848 
L 208.372817 192.664979 
L 208.544884 164.832332 
L 209.02862 89.785772 
L 209.109783 88.552078 
L 209.155235 89.258064 
L 209.249385 96.508577 
L 209.548067 143.709218 
L 209.892201 195.48379 
L 209.950639 192.217732 
L 210.138938 160.475246 
L 210.590208 90.25445 
L 210.684358 88.572435 
L 210.726563 89.225362 
L 210.820713 96.299549 
L 211.119395 143.576014 
L 211.463529 195.383408 
L 211.521967 192.259075 
L 211.70702 161.384981 
L 212.164783 90.121483 
L 212.252439 88.552263 
L 212.297891 89.17834 
L 212.388794 95.860901 
L 212.680983 141.680914 
L 213.034857 195.482654 
L 213.093295 192.466195 
L 213.275101 162.299844 
L 213.739357 90.090624 
L 213.827014 88.572009 
L 213.872465 89.25292 
L 213.966615 96.394445 
L 214.265297 143.713069 
L 214.609431 195.383622 
L 214.667869 192.174225 
L 214.856169 160.55219 
L 215.307439 90.221554 
L 215.398342 88.551905 
L 215.440547 89.103651 
L 215.528204 95.224503 
L 215.810653 139.052296 
L 216.180759 195.484309 
L 216.232704 193.015485 
L 216.398278 166.704642 
L 216.894999 89.713692 
L 216.972916 88.57183 
L 217.018368 89.281051 
L 217.112518 96.489556 
L 217.4112 143.849934 
L 217.755334 195.382635 
L 217.810525 192.42131 
L 217.989085 163.029435 
L 218.459834 89.930924 
L 218.544244 88.551846 
L 218.589696 89.232 
L 218.680599 96.048188 
L 218.976035 142.501383 
L 219.326662 195.484616 
L 219.3851 192.298082 
L 219.570153 161.300278 
L 220.027916 90.153716 
L 220.118819 88.571971 
L 220.161024 89.199953 
L 220.251927 95.839442 
L 220.544116 141.811636 
L 220.89799 195.382006 
L 220.953181 192.660216 
L 221.125248 164.822636 
L 221.608983 89.784095 
L 221.690147 88.552097 
L 221.735599 89.259709 
L 221.829748 96.51415 
L 222.128431 143.717239 
L 222.472564 195.483712 
L 222.531002 192.212709 
L 222.719302 160.465279 
L 223.170572 90.252437 
L 223.264721 88.572473 
L 223.306927 89.226962 
L 223.401076 96.305131 
L 223.699759 143.584076 
L 224.043892 195.383408 
L 224.10233 192.254135 
L 224.287383 161.375051 
L 224.745146 90.119514 
L 224.832803 88.552226 
L 224.878255 89.179884 
L 224.969158 95.866407 
L 225.261347 141.689071 
L 225.61522 195.482824 
L 225.673658 192.461238 
L 225.855465 162.28998 
L 226.319721 90.088743 
L 226.407377 88.571987 
L 226.452829 89.254563 
L 226.546979 96.400043 
L 226.845661 143.721136 
L 227.189795 195.383608 
L 227.248233 192.169224 
L 227.436532 160.542244 
L 227.887802 90.219515 
L 227.978705 88.551905 
L 228.020911 89.105097 
L 228.108567 95.229874 
L 228.391017 139.060683 
L 228.761123 195.484311 
L 228.813068 193.011035 
L 228.978641 166.695014 
L 229.475363 89.712109 
L 229.55328 88.571829 
L 229.598732 89.282732 
L 229.692881 96.495164 
L 229.991564 143.858003 
L 230.335697 195.382577 
L 230.390889 192.416383 
L 230.569449 163.019632 
L 231.040198 89.929122 
L 231.124608 88.551853 
L 231.17006 89.233618 
L 231.260963 96.053716 
L 231.556399 142.509492 
L 231.907025 195.484607 
L 231.965463 192.293113 
L 232.150516 161.290349 
L 232.608279 90.151777 
L 232.699183 88.571998 
L 232.741388 89.201523 
L 232.832291 95.844947 
L 233.12448 141.819854 
L 233.478353 195.382073 
L 233.533545 192.655563 
L 233.705612 164.812917 
L 234.189347 89.7824 
L 234.270511 88.552112 
L 234.312716 89.15539 
L 234.400372 95.413401 
L 234.686068 139.902857 
L 235.052928 195.483666 
L 235.104873 192.855963 
L 235.273693 165.721457 
L 235.763921 89.764773 
L 235.841839 88.572386 
L 235.88729 89.228565 
L 235.98144 96.310716 
L 236.280122 143.592138 
L 236.624256 195.383467 
L 236.682694 192.249181 
L 236.867747 161.365156 
L 237.32551 90.11755 
L 237.413167 88.552203 
L 237.458618 89.181428 
L 237.549521 95.871909 
L 237.841711 141.697226 
L 238.195584 195.482897 
L 238.254022 192.456369 
L 238.435828 162.280078 
L 238.900084 90.086847 
L 238.987741 88.571962 
L 239.029946 89.150739 
L 239.120849 95.663742 
L 239.409792 140.996298 
L 239.770159 195.383623 
L 239.822103 192.808791 
L 239.990924 165.77861 
L 240.484399 89.619616 
L 240.559069 88.551896 
L 240.604521 89.208052 
L 240.695424 95.965459 
L 240.99086 142.379997 
L 241.341487 195.484373 
L 241.399924 192.372723 
L 241.581731 162.112165 
L 242.04274 90.182935 
L 242.133644 88.571843 
L 242.175849 89.176628 
L 242.266752 95.756944 
L 242.558941 141.688591 
L 242.916061 195.382424 
L 242.968006 192.730346 
L 243.140073 164.967842 
L 243.627055 89.698361 
L 243.704972 88.551861 
L 243.750423 89.235244 
L 243.841327 96.059246 
L 244.136762 142.517602 
L 244.487389 195.484627 
L 244.545827 192.28805 
L 244.73088 161.28043 
L 245.188643 90.149851 
L 245.279546 88.57202 
L 245.321751 89.203102 
L 245.412655 95.850464 
L 245.704844 141.828069 
L 246.058717 195.382201 
L 246.113908 192.650872 
L 246.285975 164.803227 
L 246.769711 89.780709 
L 246.850874 88.552143 
L 246.893079 89.156903 
L 246.980736 95.418816 
L 247.266432 139.911175 
L 247.633292 195.483518 
L 247.685236 192.851384 
L 247.854057 165.711762 
L 248.344285 89.763143 
L 248.422202 88.572341 
L 248.467654 89.230176 
L 248.561804 96.316309 
L 248.860486 143.600196 
L 249.20462 195.383552 
L 249.263057 192.244131 
L 249.448111 161.355282 
L 249.905873 90.115594 
L 249.99353 88.552171 
L 250.038982 89.182976 
L 250.129885 95.877413 
L 250.422074 141.705378 
L 250.775948 195.483032 
L 250.834385 192.451492 
L 251.016192 162.270205 
L 251.480448 90.084962 
L 251.568105 88.57195 
L 251.61031 89.152242 
L 251.701213 95.669221 
L 251.990156 141.004569 
L 252.350522 195.383543 
L 252.402467 192.80424 
L 252.571287 165.768961 
L 253.064762 89.61807 
L 253.139433 88.551884 
L 253.184884 89.20964 
L 253.275788 95.970982 
L 253.571223 142.388102 
L 253.92185 195.484465 
L 253.980288 192.367705 
L 254.162095 162.10229 
L 254.623104 90.180985 
L 254.714007 88.571848 
L 254.756212 89.178176 
L 254.847116 95.762445 
L 255.139305 141.696816 
L 255.496425 195.382316 
L 255.548369 192.725707 
L 255.720436 164.958166 
L 256.207418 89.696747 
L 256.285335 88.551884 
L 256.330787 89.236866 
L 256.42169 96.064764 
L 256.717126 142.525713 
L 257.067753 195.484548 
L 257.126191 192.28307 
L 257.311244 161.270469 
L 257.769007 90.147907 
L 257.85991 88.572042 
L 257.902115 89.204687 
L 257.993018 95.85598 
L 258.285207 141.836287 
L 258.639081 195.382352 
L 258.694272 192.646105 
L 258.866339 164.793528 
L 259.350074 89.779034 
L 259.431238 88.552171 
L 259.473443 89.158422 
L 259.5611 95.424243 
L 259.846796 139.919488 
L 260.213655 195.483415 
L 260.2656 192.846777 
L 260.43442 165.702092 
L 260.924649 89.761515 
L 261.002566 88.572314 
L 261.048017 89.231783 
L 261.142167 96.321889 
L 261.440849 143.608269 
L 261.784983 195.383541 
L 261.843421 192.239179 
L 262.028474 161.345353 
L 262.486237 90.113624 
L 262.573894 88.552135 
L 262.619345 89.184529 
L 262.710249 95.882924 
L 263.002438 141.713527 
L 263.356311 195.483194 
L 263.414749 192.446521 
L 263.596556 162.26034 
L 264.060812 90.083088 
L 264.148468 88.571928 
L 264.190673 89.153749 
L 264.281577 95.674704 
L 264.570519 141.012835 
L 264.930886 195.383509 
L 264.982831 192.799651 
L 265.151651 165.759342 
L 265.645126 89.616522 
L 265.719796 88.551881 
L 265.765248 89.211223 
L 265.856151 95.976497 
L 266.151587 142.396204 
L 266.502214 195.484458 
L 266.560652 192.362767 
L 266.742458 162.092376 
L 267.203468 90.179018 
L 267.294371 88.571847 
L 267.336576 89.179721 
L 267.427479 95.767947 
L 267.719668 141.705036 
L 268.076788 195.382252 
L 268.128733 192.720991 
L 268.3008 164.948481 
L 268.784535 89.806132 
L 268.865699 88.551898 
L 268.911151 89.238491 
L 269.002054 96.070296 
L 269.297489 142.53382 
L 269.648116 195.484515 
L 269.706554 192.278098 
L 269.891607 161.260535 
L 270.34937 90.145974 
L 270.440273 88.572077 
L 270.482479 89.206265 
L 270.573382 95.861482 
L 270.865571 141.844507 
L 271.219444 195.382408 
L 271.274636 192.641439 
L 271.446703 164.783806 
L 271.930438 89.777344 
L 272.011601 88.552196 
L 272.053807 89.159951 
L 272.141463 95.42967 
L 272.427159 139.92781 
L 272.794019 195.483357 
L 272.845964 192.84209 
L 273.014784 165.692404 
L 273.505012 89.759911 
L 273.582929 88.57228 
L 273.628381 89.233398 
L 273.722531 96.327475 
L 274.021213 143.616344 
L 274.365347 195.383577 
L 274.423785 192.23423 
L 274.608838 161.335445 
L 275.066601 90.111665 
L 275.154257 88.552113 
L 275.199709 89.186079 
L 275.290612 95.888426 
L 275.582801 141.721689 
L 275.936675 195.483256 
L 275.995113 192.441637 
L 276.176919 162.250436 
L 276.641175 90.081194 
L 276.728832 88.571903 
L 276.771037 89.155259 
L 276.86194 95.680193 
L 277.150883 141.0211 
L 277.511249 195.383517 
L 277.563194 192.794984 
L 277.732015 165.749717 
L 278.225489 89.614999 
L 278.30016 88.551866 
L 278.345612 89.212807 
L 278.436515 95.982014 
L 278.731951 142.404304 
L 279.082577 195.4845 
L 279.141015 192.357839 
L 279.326068 161.41924 
L 279.783831 90.177061 
L 279.874735 88.571858 
L 279.91694 89.181263 
L 280.007843 95.773442 
L 280.300032 141.713252 
L 280.657152 195.382092 
L 280.709097 192.716372 
L 280.881164 164.938771 
L 281.364899 89.804425 
L 281.446063 88.551901 
L 281.491514 89.240116 
L 281.582417 96.075828 
L 281.877853 142.541922 
L 282.22848 195.484528 
L 282.286918 192.273023 
L 282.471971 161.250625 
L 282.929734 90.144052 
L 283.020637 88.572105 
L 283.062842 89.207853 
L 283.153745 95.867001 
L 283.445935 141.852722 
L 283.799808 195.382514 
L 283.854999 192.636749 
L 284.030313 164.123337 
L 284.507555 89.891444 
L 284.591965 88.552234 
L 284.63417 89.161474 
L 284.721827 95.435081 
L 285.007523 139.936134 
L 285.374383 195.4832 
L 285.426327 192.837496 
L 285.595148 165.682698 
L 286.085376 89.758292 
L 286.163293 88.572247 
L 286.208745 89.235023 
L 286.302895 96.333065 
L 286.601577 143.624418 
L 286.945711 195.383651 
L 287.004148 192.229177 
L 287.189201 161.325562 
L 287.646964 90.109717 
L 287.734621 88.552087 
L 287.780073 89.187633 
L 287.870976 95.893931 
L 288.163165 141.729848 
L 288.517039 195.483369 
L 288.575476 192.436764 
L 288.757283 162.240559 
L 289.221539 90.079306 
L 289.309196 88.571895 
L 289.351401 89.156767 
L 289.442304 95.685674 
L 289.731247 141.029373 
L 290.091613 195.383428 
L 290.143558 192.790419 
L 290.312378 165.740069 
L 290.802607 89.719424 
L 290.880524 88.551846 
L 290.925975 89.214396 
L 291.016879 95.987541 
L 291.312314 142.412394 
L 291.662941 195.484585 
L 291.721379 192.352808 
L 291.906432 161.409339 
L 292.364195 90.175116 
L 292.455098 88.571861 
L 292.497303 89.182812 
L 292.588207 95.778946 
L 292.880396 141.721463 
L 293.237516 195.381965 
L 293.28946 192.711729 
L 293.461527 164.929091 
L 293.945263 89.802717 
L 294.026426 88.551919 
L 294.071878 89.241737 
L 294.162781 96.081352 
L 294.458217 142.55002 
L 294.808844 195.484442 
L 294.867281 192.268018 
L 295.052335 161.240668 
L 295.506851 90.274641 
L 295.601001 88.572126 
L 295.643206 89.209442 
L 295.734109 95.872524 
L 296.026298 141.860938 
L 296.380172 195.382657 
L 296.435363 192.631969 
L 296.610676 164.113601 
L 297.087919 89.889676 
L 297.172329 88.552269 
L 297.214534 89.163005 
L 297.302191 95.440511 
L 297.587887 139.94445 
L 297.954746 195.483073 
L 298.006691 192.832889 
L 298.175511 165.673022 
L 298.66574 89.75667 
L 298.743657 88.572229 
L 298.789108 89.236641 
L 298.883258 96.338641 
L 299.18194 143.632499 
L 299.526074 195.383629 
L 299.584512 192.224212 
L 299.769565 161.315632 
L 300.227328 90.10775 
L 300.314985 88.55206 
L 300.360436 89.1892 
L 300.45134 95.899441 
L 300.743529 141.738009 
L 301.097402 195.48352 
L 301.15584 192.431789 
L 301.337647 162.23069 
L 301.801903 90.077437 
L 301.889559 88.571878 
L 301.931764 89.15828 
L 302.022668 95.691159 
L 302.31161 141.037643 
L 302.671977 195.383372 
L 302.723921 192.785832 
L 302.892742 165.730442 
L 303.38297 89.717786 
L 303.460887 88.551845 
L 303.506339 89.215986 
L 303.597242 95.99306 
L 303.892678 142.420494 
L 304.243305 195.484569 
L 304.301743 192.34785 
L 304.486796 161.399395 
L 304.944559 90.173152 
L 305.035462 88.571854 
L 305.077667 89.184362 
L 305.16857 95.784457 
L 305.460759 141.729668 
L 305.817879 195.381892 
L 305.869824 192.706995 
L 306.041891 164.919413 
L 306.525626 89.801023 
L 306.60679 88.551932 
L 306.652241 89.243365 
L 306.743145 96.086885 
L 307.03858 142.558114 
L 307.389207 195.48439 
L 307.447645 192.263038 
L 307.632698 161.230731 
L 308.087215 90.272612 
L 308.181364 88.57216 
L 308.223569 89.211026 
L 308.314473 95.878037 
L 308.606662 141.869149 
L 308.960535 195.382706 
L 309.015727 192.627279 
L 309.19104 164.103834 
L 309.668282 89.887897 
L 309.752692 88.552299 
L 309.794897 89.164536 
L 309.882554 95.445943 
L 310.16825 139.952773 
L 310.53511 195.483006 
L 310.587055 192.828192 
L 310.755875 165.663339 
L 311.246103 89.755069 
L 311.32402 88.572204 
L 311.369472 89.238265 
L 311.463622 96.344228 
L 311.762304 143.640581 
L 312.106438 195.383642 
L 312.164876 192.219265 
L 312.349929 161.305716 
L 312.807692 90.105794 
L 312.895348 88.552048 
L 312.9408 89.19076 
L 313.031703 95.904937 
L 313.323892 141.746181 
L 313.677766 195.483571 
L 313.736204 192.426891 
L 313.91801 162.220776 
L 314.382266 90.075551 
L 314.469923 88.571859 
L 314.512128 89.159806 
L 314.603031 95.696649 
L 314.891974 141.045917 
L 315.25234 195.383368 
L 315.304285 192.781157 
L 315.473105 165.720809 
L 315.963334 89.716168 
L 316.041251 88.551838 
L 316.086703 89.217576 
L 316.177606 95.998577 
L 316.473041 142.428595 
L 316.823668 195.484589 
L 316.882106 192.342921 
L 317.067159 161.38947 
L 317.524922 90.171194 
L 317.615825 88.571863 
L 317.658031 89.18591 
L 317.748934 95.78996 
L 318.041123 141.737877 
L 318.398243 195.381726 
L 318.450188 192.702354 
L 318.622255 164.909709 
L 319.10599 89.799314 
L 319.187153 88.551936 
L 319.232605 89.244994 
L 319.323508 96.092427 
L 319.618944 142.566195 
L 319.969571 195.484395 
L 320.028009 192.25795 
L 320.213062 161.220826 
L 320.667578 90.270595 
L 320.761728 88.572188 
L 320.803933 89.212614 
L 320.894836 95.883558 
L 321.187025 141.877352 
L 321.540899 195.382792 
L 321.59609 192.622582 
L 321.771404 164.094094 
L 322.248646 89.88612 
L 322.333056 88.552342 
L 322.375261 89.166061 
L 322.466164 95.817013 
L 322.758353 141.615714 
L 323.115473 195.482842 
L 323.170665 192.505125 
L 323.349225 163.03869 
L 323.816727 90.105752 
L 323.904384 88.572175 
L 323.949836 89.239895 
L 324.043985 96.349821 
L 324.342668 143.648662 
L 324.686801 195.383706 
L 324.745239 192.214208 
L 324.930292 161.29583 
L 325.388055 90.103855 
L 325.475712 88.55203 
L 325.521164 89.192324 
L 325.612067 95.910444 
L 325.904256 141.754348 
L 326.258129 195.483659 
L 326.316567 192.422019 
L 326.498374 162.210886 
L 326.96263 90.07367 
L 327.050287 88.571858 
L 327.092492 89.161325 
L 327.183395 95.702128 
L 327.472337 141.0542 
L 327.832704 195.383269 
L 327.884649 192.776579 
L 328.053469 165.711153 
L 328.543697 89.714535 
L 328.621615 88.551824 
L 328.667066 89.219178 
L 328.757969 96.004105 
L 329.053405 142.436692 
L 329.404032 195.484663 
L 329.46247 192.337886 
L 329.647523 161.379568 
L 330.105286 90.169252 
L 330.196189 88.571868 
L 330.238394 89.18746 
L 330.329297 95.795463 
L 330.621487 141.746085 
L 330.978607 195.381577 
L 331.030551 192.69771 
L 331.202618 164.900026 
L 331.686353 89.797606 
L 331.767517 88.551951 
L 331.812969 89.246621 
L 331.903872 96.09796 
L 332.199308 142.574279 
L 332.549935 195.484303 
L 332.608372 192.252922 
L 332.793425 161.210876 
L 333.247942 90.268561 
L 333.342092 88.572206 
L 333.384297 89.214202 
L 333.4752 95.889085 
L 333.767389 141.885547 
L 334.121263 195.382929 
L 334.176454 192.617786 
L 334.351767 164.084366 
L 334.829009 89.884357 
L 334.91342 88.552377 
L 334.955625 89.167594 
L 335.046528 95.82251 
L 335.338717 141.623884 
L 335.695837 195.482695 
L 335.751028 192.500299 
L 335.929588 163.028849 
L 336.397091 90.103849 
L 336.484748 88.572159 
L 336.530199 89.241517 
L 336.624349 96.355403 
L 336.923031 143.656741 
L 337.267165 195.383677 
L 337.325603 192.20922 
L 337.510656 161.285901 
L 337.968419 90.101897 
L 338.056076 88.55201 
L 338.101527 89.193899 
L 338.192431 95.915955 
L 338.48462 141.762518 
L 338.838493 195.4838 
L 338.896931 192.417042 
L 339.078737 162.201019 
L 339.542993 90.071804 
L 339.63065 88.571855 
L 339.672855 89.162849 
L 339.763759 95.707616 
L 340.052701 141.062477 
L 340.413068 195.383189 
L 340.465012 192.771995 
L 340.633833 165.70152 
L 341.124061 89.712896 
L 341.201978 88.551829 
L 341.24743 89.220776 
L 341.338333 96.009621 
L 341.633769 142.444803 
L 341.984396 195.484638 
L 342.042833 192.332917 
L 342.227887 161.369617 
L 342.685649 90.167295 
L 342.776553 88.571869 
L 342.818758 89.18902 
L 342.909661 95.800976 
L 343.20185 141.754292 
L 343.55897 195.381492 
L 343.610915 192.692968 
L 343.782982 164.890342 
L 344.266717 89.79592 
L 344.347881 88.551961 
L 344.393332 89.248247 
L 344.484236 96.10349 
L 344.779671 142.582365 
L 345.130298 195.484229 
L 345.188736 192.24794 
L 345.373789 161.200934 
L 345.828305 90.266531 
L 345.922455 88.572238 
L 345.96466 89.215788 
L 346.055564 95.894606 
L 346.347753 141.893741 
L 346.701626 195.382972 
L 346.756817 192.613073 
L 346.932131 164.074606 
L 347.409373 89.882578 
L 347.493783 88.552398 
L 347.535988 89.169129 
L 347.626892 95.828014 
L 347.919081 141.632048 
L 348.276201 195.482618 
L 348.331392 192.495366 
L 348.509952 163.019024 
L 348.977455 90.101962 
L 349.065111 88.572136 
L 349.110563 89.243146 
L 349.204713 96.360994 
L 349.503395 143.664815 
L 349.847529 195.383669 
L 349.905967 192.204266 
L 350.09102 161.275985 
L 350.548783 90.099942 
L 350.636439 88.552005 
L 350.681891 89.195468 
L 350.772794 95.921456 
L 351.064983 141.770691 
L 351.418857 195.483843 
L 351.477295 192.412126 
L 351.659101 162.191109 
L 352.123357 90.069923 
L 352.211014 88.571847 
L 352.253219 89.164383 
L 352.344122 95.713106 
L 352.636311 141.622926 
L 352.993431 195.383172 
L 353.045376 192.767315 
L 353.214196 165.691883 
L 353.704425 89.711285 
L 353.782342 88.551833 
L 353.827793 89.222378 
L 353.918697 96.01514 
L 354.214132 142.452913 
L 354.564759 195.484633 
L 354.623197 192.32799 
L 354.80825 161.359677 
L 355.266013 90.165342 
L 355.356916 88.571887 
L 355.399121 89.190575 
L 355.490025 95.806477 
L 355.782214 141.762509 
L 356.139334 195.381317 
L 356.191279 192.688315 
L 356.363345 164.880629 
L 356.847081 89.794218 
L 356.928244 88.551966 
L 356.973696 89.249884 
L 357.064599 96.109033 
L 357.360035 142.590445 
L 357.710662 195.484224 
L 357.7691 192.242847 
L 357.957399 160.524942 
L 358.408669 90.264516 
L 358.502819 88.572265 
L 358.545024 89.217378 
L 358.635927 95.900128 
L 358.928116 141.901934 
L 359.28199 195.383038 
L 359.337181 192.608373 
L 359.512495 164.064867 
L 359.989737 89.880798 
L 360.074147 88.552435 
L 360.116352 89.170659 
L 360.207255 95.83351 
L 360.499444 141.64021 
L 360.856564 195.48245 
L 360.911756 192.490493 
L 361.090316 163.009164 
L 361.557818 90.100059 
L 361.645475 88.572104 
L 361.690927 89.244776 
L 361.785076 96.36659 
L 362.083759 143.672879 
L 362.427892 195.383725 
L 362.48633 192.199198 
L 362.671383 161.266105 
L 363.129146 90.098006 
L 363.216803 88.551993 
L 363.262255 89.19704 
L 363.353158 95.926967 
L 363.645347 141.778855 
L 363.99922 195.48391 
L 364.057658 192.407246 
L 364.239465 162.181214 
L 364.703721 90.068047 
L 364.791377 88.571852 
L 364.833583 89.165908 
L 364.924486 95.718583 
L 365.216675 141.631164 
L 365.573795 195.383065 
L 365.62574 192.76272 
L 365.79456 165.682222 
L 366.284788 89.709661 
L 366.362705 88.551831 
L 366.408157 89.223991 
L 366.49906 96.020666 
L 366.794496 142.461025 
L 367.145123 195.484694 
L 367.203561 192.322955 
L 367.388614 161.349773 
L 367.846377 90.163404 
L 367.93728 88.571901 
L 367.979485 89.192137 
L 368.070388 95.811981 
L 368.362577 141.770725 
L 368.716451 195.381286 
L 368.771642 192.683674 
L 368.943709 164.87094 
L 369.427444 89.792508 
L 369.508608 88.551988 
L 369.55406 89.25152 
L 369.644963 96.114566 
L 369.940399 142.598539 
L 370.291025 195.484123 
L 370.349463 192.237804 
L 370.537763 160.514961 
L 370.989033 90.262487 
L 371.083183 88.572282 
L 371.125388 89.218975 
L 371.216291 95.905662 
L 371.50848 141.910122 
L 371.862353 195.383165 
L 371.917545 192.603566 
L 372.092858 164.055136 
L 372.5701 89.879042 
L 372.654511 88.552471 
L 372.696716 89.172189 
L 372.787619 95.839005 
L 373.079808 141.64837 
L 373.436928 195.482283 
L 373.492119 192.485661 
L 373.670679 162.999322 
L 374.138182 90.098158 
L 374.225839 88.572085 
L 374.27129 89.246404 
L 374.36544 96.372178 
L 374.664122 143.680936 
L 375.008256 195.383691 
L 375.066694 192.194185 
L 375.251747 161.25618 
L 375.70951 90.09606 
L 375.797167 88.551968 
L 375.842618 89.198611 
L 375.933521 95.932482 
L 376.225711 141.787012 
L 376.579584 195.484042 
L 376.638022 192.402259 
L 376.819828 162.171347 
L 377.280838 90.194703 
L 377.371741 88.571853 
L 377.413946 89.16744 
L 377.504849 95.724075 
L 377.797039 141.639396 
L 378.154159 195.382965 
L 378.206103 192.758133 
L 378.374924 165.672586 
L 378.865152 89.708028 
L 378.943069 88.55184 
L 378.988521 89.225596 
L 379.079424 96.026179 
L 379.37486 142.469145 
L 379.725487 195.484662 
L 379.783924 192.317969 
L 379.968977 161.339826 
L 380.42674 90.16145 
L 380.517644 88.57191 
L 380.559849 89.193711 
L 380.650752 95.817493 
L 380.942941 141.778945 
L 381.296815 195.381479 
L 381.352006 192.678929 
L 381.524073 164.861253 
L 382.007808 89.790824 
L 382.088972 88.552009 
L 382.134423 89.253156 
L 382.225327 96.120094 
L 382.520762 142.606636 
L 382.871389 195.484026 
L 382.929827 192.23282 
L 383.118127 160.504973 
L 383.569396 90.260462 
L 383.663546 88.572316 
L 383.705751 89.22057 
L 383.796655 95.911185 
L 384.088844 141.918322 
L 384.442717 195.383199 
L 384.497908 192.598836 
L 384.673222 164.045369 
L 385.150464 89.877272 
L 385.231628 88.552334 
L 385.277079 89.173726 
L 385.367983 95.844512 
L 385.660172 141.656522 
L 386.014045 195.482285 
L 386.072483 192.48072 
L 386.251043 162.989499 
L 386.718545 90.096273 
L 386.806202 88.572061 
L 386.851654 89.248032 
L 386.945804 96.377769 
L 387.244486 143.688997 
L 387.58862 195.383664 
L 387.647057 192.189224 
L 387.832111 161.246258 
L 388.289873 90.094112 
L 388.37753 88.551955 
L 388.422982 89.20018 
L 388.513885 95.937988 
L 388.806074 141.795164 
L 389.159948 195.484082 
L 389.218385 192.397317 
L 389.400192 162.161443 
L 389.861201 90.192729 
L 389.952105 88.571844 
L 389.99431 89.168976 
L 390.085213 95.729573 
L 390.377402 141.647626 
L 390.734522 195.382937 
L 390.786467 192.753441 
L 390.955287 165.662954 
L 391.445516 89.706417 
L 391.523433 88.551849 
L 391.568884 89.227204 
L 391.659788 96.031702 
L 391.955223 142.477259 
L 392.30585 195.484635 
L 392.364288 192.313037 
L 392.549341 161.32988 
L 393.007104 90.159501 
L 393.098007 88.571935 
L 393.140212 89.195277 
L 393.231116 95.822993 
L 393.523305 141.787175 
L 393.877178 195.381579 
L 393.932369 192.67426 
L 394.104436 164.851533 
L 394.588172 89.789131 
L 394.669335 88.552023 
L 394.714787 89.254806 
L 394.80569 96.125636 
L 395.101126 142.614731 
L 395.451753 195.484006 
L 395.510191 192.22773 
L 395.69849 160.495032 
L 396.14976 90.258452 
L 396.24391 88.572352 
L 396.286115 89.222167 
L 396.377018 95.916706 
L 396.669207 141.926523 
L 397.023081 195.383242 
L 397.078272 192.594137 
L 397.253585 164.035624 
L 397.730828 89.875491 
L 397.811991 88.552305 
L 397.857443 89.175264 
L 397.948346 95.850011 
L 398.240535 141.664683 
L 398.487273 187.701871 
L 398.487273 187.701871 
" style="fill:none;stroke:#1f77b4;stroke-linecap:square;stroke-width:1.5;"/>
   </g>
   <g id="patch_3">
    <path d="M 57.6 307.584 
L 57.6 41.472 
" style="fill:none;stroke:#000000;stroke-linecap:square;stroke-linejoin:miter;stroke-width:0.8;"/>
   </g>
   <g id="patch_4">
    <path d="M 414.72 307.584 
L 414.72 41.472 
" style="fill:none;stroke:#000000;stroke-linecap:square;stroke-linejoin:miter;stroke-width:0.8;"/>
   </g>
   <g id="patch_5">
    <path d="M 57.6 307.584 
L 414.72 307.584 
" style="fill:none;stroke:#000000;stroke-linecap:square;stroke-linejoin:miter;stroke-width:0.8;"/>
   </g>
   <g id="patch_6">
    <path d="M 57.6 41.472 
L 414.72 41.472 
" style="fill:none;stroke:#000000;stroke-linecap:square;stroke-linejoin:miter;stroke-width:0.8;"/>
   </g>
  </g>
 </g>
 <defs>
  <clipPath id="pd60e526d15">
   <rect height="266.112" width="357.12" x="57.6" y="41.472"/>
  </clipPath>
 </defs>
</svg>
