<?xml version="1.0" encoding="utf-8" standalone="no"?>
<!DOCTYPE svg PUBLIC "-//W3C//DTD SVG 1.1//EN"
  "http://www.w3.org/Graphics/SVG/1.1/DTD/svg11.dtd">
<!-- Created with matplotlib (https://matplotlib.org/) -->
<svg height="312.723353pt" version="1.1" viewBox="0 0 404.838347 312.723353" width="404.838347pt" xmlns="http://www.w3.org/2000/svg" xmlns:xlink="http://www.w3.org/1999/xlink">
 <defs>
  <style type="text/css">
*{stroke-linecap:butt;stroke-linejoin:round;}
  </style>
 </defs>
 <g id="figure_1">
  <g id="patch_1">
   <path d="M 0 312.723353 
L 404.838347 312.723353 
L 404.838347 0 
L 0 0 
z
" style="fill:#ffffff;"/>
  </g>
  <g id="axes_1">
   <g id="patch_2">
    <path d="M 37.018347 276.812 
L 394.138347 276.812 
L 394.138347 10.7 
L 37.018347 10.7 
z
" style="fill:#ffffff;"/>
   </g>
   <g id="Quiver_1">
    <path clip-path="url(#p911d9dbd4b)" d="M 52.804674 262.2968 
L 53.027874 262.683394 
L 53.474274 262.683394 
L 53.697474 262.2968 
L 53.474274 261.910206 
L 53.027874 261.910206 
L 52.804674 262.2968 
L 53.027874 262.683394 
" style="fill:#0000ff;"/>
   </g>
   <g id="Quiver_2">
    <path clip-path="url(#p911d9dbd4b)" d="M 53.251074 257.012 
L 344.37397 257.012 
L 343.92757 256.1192 
L 348.39157 257.4584 
L 343.92757 258.7976 
L 344.37397 257.9048 
L 53.251074 257.9048 
L 53.251074 257.012 
" style="fill:#0000ff;"/>
   </g>
   <g id="Quiver_3">
    <path clip-path="url(#p911d9dbd4b)" d="M 53.251074 252.1736 
L 278.569123 252.1736 
L 278.122723 251.2808 
L 282.586723 252.62 
L 278.122723 253.9592 
L 278.569123 253.0664 
L 53.251074 253.0664 
L 53.251074 252.1736 
" style="fill:#0000ff;"/>
   </g>
   <g id="Quiver_4">
    <path clip-path="url(#p911d9dbd4b)" d="M 53.251074 247.3352 
L 307.984305 247.3352 
L 307.537905 246.4424 
L 312.001905 247.7816 
L 307.537905 249.1208 
L 307.984305 248.228 
L 53.251074 248.228 
L 53.251074 247.3352 
" style="fill:#0000ff;"/>
   </g>
   <g id="Quiver_5">
    <path clip-path="url(#p911d9dbd4b)" d="M 53.251074 242.4968 
L 282.92197 242.4968 
L 282.47557 241.604 
L 286.93957 242.9432 
L 282.47557 244.2824 
L 282.92197 243.3896 
L 53.251074 243.3896 
L 53.251074 242.4968 
" style="fill:#0000ff;"/>
   </g>
   <g id="Quiver_6">
    <path clip-path="url(#p911d9dbd4b)" d="M 53.251074 237.6584 
L 289.027446 237.6584 
L 288.581046 236.7656 
L 293.045046 238.1048 
L 288.581046 239.444 
L 289.027446 238.5512 
L 53.251074 238.5512 
L 53.251074 237.6584 
" style="fill:#0000ff;"/>
   </g>
   <g id="Quiver_7">
    <path clip-path="url(#p911d9dbd4b)" d="M 53.251074 232.82 
L 277.301117 232.82 
L 276.854717 231.9272 
L 281.318717 233.2664 
L 276.854717 234.6056 
L 277.301117 233.7128 
L 53.251074 233.7128 
L 53.251074 232.82 
" style="fill:#0000ff;"/>
   </g>
   <g id="Quiver_8">
    <path clip-path="url(#p911d9dbd4b)" d="M 53.251074 227.9816 
L 275.776765 227.9816 
L 275.330365 227.0888 
L 279.794365 228.428 
L 275.330365 229.7672 
L 275.776765 228.8744 
L 53.251074 228.8744 
L 53.251074 227.9816 
" style="fill:#0000ff;"/>
   </g>
   <g id="Quiver_9">
    <path clip-path="url(#p911d9dbd4b)" d="M 53.251074 223.1432 
L 268.415632 223.1432 
L 267.969232 222.2504 
L 272.433232 223.5896 
L 267.969232 224.9288 
L 268.415632 224.036 
L 53.251074 224.036 
L 53.251074 223.1432 
" style="fill:#0000ff;"/>
   </g>
   <g id="Quiver_10">
    <path clip-path="url(#p911d9dbd4b)" d="M 53.251074 218.3048 
L 264.393853 218.3048 
L 263.947453 217.412 
L 268.411453 218.7512 
L 263.947453 220.0904 
L 264.393853 219.1976 
L 53.251074 219.1976 
L 53.251074 218.3048 
" style="fill:#0000ff;"/>
   </g>
   <g id="Quiver_11">
    <path clip-path="url(#p911d9dbd4b)" d="M 53.251074 213.4664 
L 258.461554 213.4664 
L 258.015154 212.5736 
L 262.479154 213.9128 
L 258.015154 215.252 
L 258.461554 214.3592 
L 53.251074 214.3592 
L 53.251074 213.4664 
" style="fill:#0000ff;"/>
   </g>
   <g id="Quiver_12">
    <path clip-path="url(#p911d9dbd4b)" d="M 53.251074 208.628 
L 253.622307 208.628 
L 253.175907 207.7352 
L 257.639907 209.0744 
L 253.175907 210.4136 
L 253.622307 209.5208 
L 53.251074 209.5208 
L 53.251074 208.628 
" style="fill:#0000ff;"/>
   </g>
   <g id="Quiver_13">
    <path clip-path="url(#p911d9dbd4b)" d="M 53.251074 203.7896 
L 248.1577 203.7896 
L 247.7113 202.8968 
L 252.1753 204.236 
L 247.7113 205.5752 
L 248.1577 204.6824 
L 53.251074 204.6824 
L 53.251074 203.7896 
" style="fill:#0000ff;"/>
   </g>
   <g id="Quiver_14">
    <path clip-path="url(#p911d9dbd4b)" d="M 53.251074 198.9512 
L 243.050876 198.9512 
L 242.604476 198.0584 
L 247.068476 199.3976 
L 242.604476 200.7368 
L 243.050876 199.844 
L 53.251074 199.844 
L 53.251074 198.9512 
" style="fill:#0000ff;"/>
   </g>
   <g id="Quiver_15">
    <path clip-path="url(#p911d9dbd4b)" d="M 53.251074 194.1128 
L 237.739356 194.1128 
L 237.292956 193.22 
L 241.756956 194.5592 
L 237.292956 195.8984 
L 237.739356 195.0056 
L 53.251074 195.0056 
L 53.251074 194.1128 
" style="fill:#0000ff;"/>
   </g>
   <g id="Quiver_16">
    <path clip-path="url(#p911d9dbd4b)" d="M 53.251074 189.2744 
L 232.544947 189.2744 
L 232.098547 188.3816 
L 236.562547 189.7208 
L 232.098547 191.06 
L 232.544947 190.1672 
L 53.251074 190.1672 
L 53.251074 189.2744 
" style="fill:#0000ff;"/>
   </g>
   <g id="Quiver_17">
    <path clip-path="url(#p911d9dbd4b)" d="M 53.251074 184.436 
L 227.283537 184.436 
L 226.837137 183.5432 
L 231.301137 184.8824 
L 226.837137 186.2216 
L 227.283537 185.3288 
L 53.251074 185.3288 
L 53.251074 184.436 
" style="fill:#0000ff;"/>
   </g>
   <g id="Quiver_18">
    <path clip-path="url(#p911d9dbd4b)" d="M 53.251074 179.5976 
L 222.060459 179.5976 
L 221.614059 178.7048 
L 226.078059 180.044 
L 221.614059 181.3832 
L 222.060459 180.4904 
L 53.251074 180.4904 
L 53.251074 179.5976 
" style="fill:#0000ff;"/>
   </g>
   <g id="Quiver_19">
    <path clip-path="url(#p911d9dbd4b)" d="M 53.251074 174.7592 
L 216.81545 174.7592 
L 216.36905 173.8664 
L 220.83305 175.2056 
L 216.36905 176.5448 
L 216.81545 175.652 
L 53.251074 175.652 
L 53.251074 174.7592 
" style="fill:#0000ff;"/>
   </g>
   <g id="Quiver_20">
    <path clip-path="url(#p911d9dbd4b)" d="M 53.251074 169.9208 
L 211.582989 169.9208 
L 211.136589 169.028 
L 215.600589 170.3672 
L 211.136589 171.7064 
L 211.582989 170.8136 
L 53.251074 170.8136 
L 53.251074 169.9208 
" style="fill:#0000ff;"/>
   </g>
   <g id="Quiver_21">
    <path clip-path="url(#p911d9dbd4b)" d="M 53.251074 165.0824 
L 206.343349 165.0824 
L 205.896949 164.1896 
L 210.360949 165.5288 
L 205.896949 166.868 
L 206.343349 165.9752 
L 53.251074 165.9752 
L 53.251074 165.0824 
" style="fill:#0000ff;"/>
   </g>
   <g id="Quiver_22">
    <path clip-path="url(#p911d9dbd4b)" d="M 53.251074 160.244 
L 201.107816 160.244 
L 200.661416 159.3512 
L 205.125416 160.6904 
L 200.661416 162.0296 
L 201.107816 161.1368 
L 53.251074 161.1368 
L 53.251074 160.244 
" style="fill:#0000ff;"/>
   </g>
   <g id="Quiver_23">
    <path clip-path="url(#p911d9dbd4b)" d="M 53.251074 155.4056 
L 195.869933 155.4056 
L 195.423533 154.5128 
L 199.887533 155.852 
L 195.423533 157.1912 
L 195.869933 156.2984 
L 53.251074 156.2984 
L 53.251074 155.4056 
" style="fill:#0000ff;"/>
   </g>
   <g id="Quiver_24">
    <path clip-path="url(#p911d9dbd4b)" d="M 53.251074 150.5672 
L 190.633395 150.5672 
L 190.186995 149.6744 
L 194.650995 151.0136 
L 190.186995 152.3528 
L 190.633395 151.46 
L 53.251074 151.46 
L 53.251074 150.5672 
" style="fill:#0000ff;"/>
   </g>
   <g id="Quiver_25">
    <path clip-path="url(#p911d9dbd4b)" d="M 53.251074 145.7288 
L 185.396088 145.7288 
L 184.949688 144.836 
L 189.413688 146.1752 
L 184.949688 147.5144 
L 185.396088 146.6216 
L 53.251074 146.6216 
L 53.251074 145.7288 
" style="fill:#0000ff;"/>
   </g>
   <g id="Quiver_26">
    <path clip-path="url(#p911d9dbd4b)" d="M 53.251074 140.8904 
L 180.15922 140.8904 
L 179.71282 139.9976 
L 184.17682 141.3368 
L 179.71282 142.676 
L 180.15922 141.7832 
L 53.251074 141.7832 
L 53.251074 140.8904 
" style="fill:#0000ff;"/>
   </g>
   <g id="Quiver_27">
    <path clip-path="url(#p911d9dbd4b)" d="M 53.251074 136.052 
L 174.922101 136.052 
L 174.475701 135.1592 
L 178.939701 136.4984 
L 174.475701 137.8376 
L 174.922101 136.9448 
L 53.251074 136.9448 
L 53.251074 136.052 
" style="fill:#0000ff;"/>
   </g>
   <g id="Quiver_28">
    <path clip-path="url(#p911d9dbd4b)" d="M 53.251074 131.2136 
L 169.685126 131.2136 
L 169.238726 130.3208 
L 173.702726 131.66 
L 169.238726 132.9992 
L 169.685126 132.1064 
L 53.251074 132.1064 
L 53.251074 131.2136 
" style="fill:#0000ff;"/>
   </g>
   <g id="Quiver_29">
    <path clip-path="url(#p911d9dbd4b)" d="M 53.251074 126.3752 
L 164.448068 126.3752 
L 164.001668 125.4824 
L 168.465668 126.8216 
L 164.001668 128.1608 
L 164.448068 127.268 
L 53.251074 127.268 
L 53.251074 126.3752 
" style="fill:#0000ff;"/>
   </g>
   <g id="Quiver_30">
    <path clip-path="url(#p911d9dbd4b)" d="M 53.251074 121.5368 
L 159.211058 121.5368 
L 158.764658 120.644 
L 163.228658 121.9832 
L 158.764658 123.3224 
L 159.211058 122.4296 
L 53.251074 122.4296 
L 53.251074 121.5368 
" style="fill:#0000ff;"/>
   </g>
   <g id="Quiver_31">
    <path clip-path="url(#p911d9dbd4b)" d="M 53.251074 116.6984 
L 153.974021 116.6984 
L 153.527621 115.8056 
L 157.991621 117.1448 
L 153.527621 118.484 
L 153.974021 117.5912 
L 53.251074 117.5912 
L 53.251074 116.6984 
" style="fill:#0000ff;"/>
   </g>
   <g id="Quiver_32">
    <path clip-path="url(#p911d9dbd4b)" d="M 53.251074 111.86 
L 148.736999 111.86 
L 148.290599 110.9672 
L 152.754599 112.3064 
L 148.290599 113.6456 
L 148.736999 112.7528 
L 53.251074 112.7528 
L 53.251074 111.86 
" style="fill:#0000ff;"/>
   </g>
   <g id="Quiver_33">
    <path clip-path="url(#p911d9dbd4b)" d="M 53.251074 107.0216 
L 143.499968 107.0216 
L 143.053568 106.1288 
L 147.517568 107.468 
L 143.053568 108.8072 
L 143.499968 107.9144 
L 53.251074 107.9144 
L 53.251074 107.0216 
" style="fill:#0000ff;"/>
   </g>
   <g id="Quiver_34">
    <path clip-path="url(#p911d9dbd4b)" d="M 53.251074 102.1832 
L 138.262942 102.1832 
L 137.816542 101.2904 
L 142.280542 102.6296 
L 137.816542 103.9688 
L 138.262942 103.076 
L 53.251074 103.076 
L 53.251074 102.1832 
" style="fill:#0000ff;"/>
   </g>
   <g id="Quiver_35">
    <path clip-path="url(#p911d9dbd4b)" d="M 53.251074 97.3448 
L 133.025914 97.3448 
L 132.579514 96.452 
L 137.043514 97.7912 
L 132.579514 99.1304 
L 133.025914 98.2376 
L 53.251074 98.2376 
L 53.251074 97.3448 
" style="fill:#0000ff;"/>
   </g>
   <g id="Quiver_36">
    <path clip-path="url(#p911d9dbd4b)" d="M 53.251074 92.5064 
L 127.788887 92.5064 
L 127.342487 91.6136 
L 131.806487 92.9528 
L 127.342487 94.292 
L 127.788887 93.3992 
L 53.251074 93.3992 
L 53.251074 92.5064 
" style="fill:#0000ff;"/>
   </g>
   <g id="Quiver_37">
    <path clip-path="url(#p911d9dbd4b)" d="M 53.251074 87.668 
L 122.551859 87.668 
L 122.105459 86.7752 
L 126.569459 88.1144 
L 122.105459 89.4536 
L 122.551859 88.5608 
L 53.251074 88.5608 
L 53.251074 87.668 
" style="fill:#0000ff;"/>
   </g>
   <g id="Quiver_38">
    <path clip-path="url(#p911d9dbd4b)" d="M 53.251074 82.8296 
L 117.314832 82.8296 
L 116.868432 81.9368 
L 121.332432 83.276 
L 116.868432 84.6152 
L 117.314832 83.7224 
L 53.251074 83.7224 
L 53.251074 82.8296 
" style="fill:#0000ff;"/>
   </g>
   <g id="Quiver_39">
    <path clip-path="url(#p911d9dbd4b)" d="M 53.251074 77.9912 
L 112.077804 77.9912 
L 111.631404 77.0984 
L 116.095404 78.4376 
L 111.631404 79.7768 
L 112.077804 78.884 
L 53.251074 78.884 
L 53.251074 77.9912 
" style="fill:#0000ff;"/>
   </g>
   <g id="Quiver_40">
    <path clip-path="url(#p911d9dbd4b)" d="M 53.251074 73.1528 
L 106.840777 73.1528 
L 106.394377 72.26 
L 110.858377 73.5992 
L 106.394377 74.9384 
L 106.840777 74.0456 
L 53.251074 74.0456 
L 53.251074 73.1528 
" style="fill:#0000ff;"/>
   </g>
   <g id="Quiver_41">
    <path clip-path="url(#p911d9dbd4b)" d="M 53.251074 68.3144 
L 101.603749 68.3144 
L 101.157349 67.4216 
L 105.621349 68.7608 
L 101.157349 70.1 
L 101.603749 69.2072 
L 53.251074 69.2072 
L 53.251074 68.3144 
" style="fill:#0000ff;"/>
   </g>
   <g id="Quiver_42">
    <path clip-path="url(#p911d9dbd4b)" d="M 53.251074 63.476 
L 96.366722 63.476 
L 95.920322 62.5832 
L 100.384322 63.9224 
L 95.920322 65.2616 
L 96.366722 64.3688 
L 53.251074 64.3688 
L 53.251074 63.476 
" style="fill:#0000ff;"/>
   </g>
   <g id="Quiver_43">
    <path clip-path="url(#p911d9dbd4b)" d="M 53.251074 58.6376 
L 91.129694 58.6376 
L 90.683294 57.7448 
L 95.147294 59.084 
L 90.683294 60.4232 
L 91.129694 59.5304 
L 53.251074 59.5304 
L 53.251074 58.6376 
" style="fill:#0000ff;"/>
   </g>
   <g id="Quiver_44">
    <path clip-path="url(#p911d9dbd4b)" d="M 53.251074 53.7992 
L 85.892667 53.7992 
L 85.446267 52.9064 
L 89.910267 54.2456 
L 85.446267 55.5848 
L 85.892667 54.692 
L 53.251074 54.692 
L 53.251074 53.7992 
" style="fill:#0000ff;"/>
   </g>
   <g id="Quiver_45">
    <path clip-path="url(#p911d9dbd4b)" d="M 53.251074 48.9608 
L 80.655639 48.9608 
L 80.209239 48.068 
L 84.673239 49.4072 
L 80.209239 50.7464 
L 80.655639 49.8536 
L 53.251074 49.8536 
L 53.251074 48.9608 
" style="fill:#0000ff;"/>
   </g>
   <g id="Quiver_46">
    <path clip-path="url(#p911d9dbd4b)" d="M 53.251074 44.1224 
L 75.418612 44.1224 
L 74.972212 43.2296 
L 79.436212 44.5688 
L 74.972212 45.908 
L 75.418612 45.0152 
L 53.251074 45.0152 
L 53.251074 44.1224 
" style="fill:#0000ff;"/>
   </g>
   <g id="Quiver_47">
    <path clip-path="url(#p911d9dbd4b)" d="M 53.251074 39.284 
L 70.181584 39.284 
L 69.735184 38.3912 
L 74.199184 39.7304 
L 69.735184 41.0696 
L 70.181584 40.1768 
L 53.251074 40.1768 
L 53.251074 39.284 
" style="fill:#0000ff;"/>
   </g>
   <g id="Quiver_48">
    <path clip-path="url(#p911d9dbd4b)" d="M 53.251074 34.4456 
L 64.944557 34.4456 
L 64.498157 33.5528 
L 68.962157 34.892 
L 64.498157 36.2312 
L 64.944557 35.3384 
L 53.251074 35.3384 
L 53.251074 34.4456 
" style="fill:#0000ff;"/>
   </g>
   <g id="Quiver_49">
    <path clip-path="url(#p911d9dbd4b)" d="M 53.251074 29.6072 
L 59.707529 29.6072 
L 59.261129 28.7144 
L 63.725129 30.0536 
L 59.261129 31.3928 
L 59.707529 30.5 
L 53.251074 30.5 
L 53.251074 29.6072 
" style="fill:#0000ff;"/>
   </g>
   <g id="Quiver_50">
    <path clip-path="url(#p911d9dbd4b)" d="M 53.697474 25.2152 
L 53.474274 24.828606 
L 53.027874 24.828606 
L 52.804674 25.2152 
L 53.027874 25.601794 
L 53.474274 25.601794 
L 53.697474 25.2152 
L 53.474274 24.828606 
" style="fill:#0000ff;"/>
   </g>
   <g id="matplotlib.axis_1">
    <g id="xtick_1">
     <g id="line2d_1">
      <defs>
       <path d="M 0 0 
L 0 3.5 
" id="m2a87f72dd2" style="stroke:#000000;stroke-width:0.8;"/>
      </defs>
      <g>
       <use style="stroke:#000000;stroke-width:0.8;" x="53.251074" xlink:href="#m2a87f72dd2" y="276.812"/>
      </g>
     </g>
     <g id="text_1">
      <!-- 0.0 -->
      <defs>
       <path d="M 31.78125 66.40625 
Q 24.171875 66.40625 20.328125 58.90625 
Q 16.5 51.421875 16.5 36.375 
Q 16.5 21.390625 20.328125 13.890625 
Q 24.171875 6.390625 31.78125 6.390625 
Q 39.453125 6.390625 43.28125 13.890625 
Q 47.125 21.390625 47.125 36.375 
Q 47.125 51.421875 43.28125 58.90625 
Q 39.453125 66.40625 31.78125 66.40625 
z
M 31.78125 74.21875 
Q 44.046875 74.21875 50.515625 64.515625 
Q 56.984375 54.828125 56.984375 36.375 
Q 56.984375 17.96875 50.515625 8.265625 
Q 44.046875 -1.421875 31.78125 -1.421875 
Q 19.53125 -1.421875 13.0625 8.265625 
Q 6.59375 17.96875 6.59375 36.375 
Q 6.59375 54.828125 13.0625 64.515625 
Q 19.53125 74.21875 31.78125 74.21875 
z
" id="DejaVuSans-48"/>
       <path d="M 10.6875 12.40625 
L 21 12.40625 
L 21 0 
L 10.6875 0 
z
" id="DejaVuSans-46"/>
      </defs>
      <g transform="translate(46.886035 290.730498)scale(0.1 -0.1)">
       <use xlink:href="#DejaVuSans-48"/>
       <use x="63.623047" xlink:href="#DejaVuSans-46"/>
       <use x="95.410156" xlink:href="#DejaVuSans-48"/>
      </g>
     </g>
    </g>
    <g id="xtick_2">
     <g id="line2d_2">
      <g>
       <use style="stroke:#000000;stroke-width:0.8;" x="106.668755" xlink:href="#m2a87f72dd2" y="276.812"/>
      </g>
     </g>
     <g id="text_2">
      <!-- 0.1 -->
      <defs>
       <path d="M 42 31.84375 
C 42 37.96875 41.90625 48.421875 37.703125 56.453125 
C 34 63.484375 28.09375 66 22.90625 66 
C 18.09375 66 12 63.78125 8.203125 56.5625 
C 4.203125 49.015625 3.796875 39.671875 3.796875 31.84375 
C 3.796875 26.109375 3.90625 17.375 7 9.734375 
C 11.296875 -0.609375 19 -2 22.90625 -2 
C 27.5 -2 34.5 -0.109375 38.59375 9.4375 
C 41.59375 16.375 42 24.5 42 31.84375 
z
M 22.90625 -0.40625 
C 16.5 -0.40625 12.703125 5.125 11.296875 12.75 
C 10.203125 18.6875 10.203125 27.328125 10.203125 32.953125 
C 10.203125 40.6875 10.203125 47.109375 11.5 53.234375 
C 13.40625 61.78125 19 64.390625 22.90625 64.390625 
C 27 64.390625 32.296875 61.671875 34.203125 53.4375 
C 35.5 47.71875 35.59375 40.984375 35.59375 32.953125 
C 35.59375 26.421875 35.59375 18.375 34.40625 12.453125 
C 32.296875 1.5 26.40625 -0.40625 22.90625 -0.40625 
z
" id="CMR17-48"/>
       <path d="M 16.59375 4.09375 
C 16.59375 6.59375 14.59375 8.1875 12.5 8.1875 
C 10.5 8.1875 8.40625 6.59375 8.40625 4.09375 
C 8.40625 1.59375 10.40625 0 12.5 0 
C 14.5 0 16.59375 1.59375 16.59375 4.09375 
z
" id="CMR17-46"/>
       <path d="M 26.59375 63.796875 
C 26.59375 65.890625 26.5 66 25.09375 66 
C 21.203125 61.359375 15.296875 59.890625 9.703125 59.6875 
C 9.40625 59.6875 8.90625 59.6875 8.796875 59.5 
C 8.703125 59.296875 8.703125 59.09375 8.703125 57 
C 11.796875 57 17 57.59375 21 59.984375 
L 21 7.296875 
C 21 3.796875 20.796875 2.59375 12.203125 2.59375 
L 9.203125 2.59375 
L 9.203125 0 
C 14 0.09375 19 0.1875 23.796875 0.1875 
C 28.59375 0.1875 33.59375 0.09375 38.40625 0 
L 38.40625 2.59375 
L 35.40625 2.59375 
C 26.796875 2.59375 26.59375 3.6875 26.59375 7.296875 
z
" id="CMR17-49"/>
      </defs>
      <g transform="translate(100.303716 290.730498)scale(0.1 -0.1)">
       <use transform="scale(0.996264)" xlink:href="#CMR17-48"/>
       <use transform="translate(45.690477 0)scale(0.996264)" xlink:href="#CMR17-46"/>
       <use transform="translate(70.561536 0)scale(0.996264)" xlink:href="#CMR17-49"/>
      </g>
     </g>
    </g>
    <g id="xtick_3">
     <g id="line2d_3">
      <g>
       <use style="stroke:#000000;stroke-width:0.8;" x="160.086436" xlink:href="#m2a87f72dd2" y="276.812"/>
      </g>
     </g>
     <g id="text_3">
      <!-- 0.2 -->
      <defs>
       <path d="M 41.703125 15.46875 
L 39.90625 15.46875 
C 38.90625 8.390625 38.09375 7.1875 37.703125 6.59375 
C 37.203125 5.796875 30 5.796875 28.59375 5.796875 
L 9.40625 5.796875 
C 13 9.6875 20 16.765625 28.5 24.9375 
C 34.59375 30.71875 41.703125 37.5 41.703125 47.390625 
C 41.703125 59.1875 32.296875 66 21.796875 66 
C 10.796875 66 4.09375 56.296875 4.09375 47.296875 
C 4.09375 43.390625 7 42.890625 8.203125 42.890625 
C 9.203125 42.890625 12.203125 43.484375 12.203125 46.984375 
C 12.203125 50.09375 9.59375 51 8.203125 51 
C 7.59375 51 7 50.890625 6.59375 50.6875 
C 8.5 59.1875 14.296875 63.390625 20.40625 63.390625 
C 29.09375 63.390625 34.796875 56.5 34.796875 47.390625 
C 34.796875 38.703125 29.703125 31.21875 24 24.734375 
L 4.09375 2.296875 
L 4.09375 0 
L 39.296875 0 
z
" id="CMR17-50"/>
      </defs>
      <g transform="translate(153.721397 290.730498)scale(0.1 -0.1)">
       <use transform="scale(0.996264)" xlink:href="#CMR17-48"/>
       <use transform="translate(45.690477 0)scale(0.996264)" xlink:href="#CMR17-46"/>
       <use transform="translate(70.561536 0)scale(0.996264)" xlink:href="#CMR17-50"/>
      </g>
     </g>
    </g>
    <g id="xtick_4">
     <g id="line2d_4">
      <g>
       <use style="stroke:#000000;stroke-width:0.8;" x="213.504117" xlink:href="#m2a87f72dd2" y="276.812"/>
      </g>
     </g>
     <g id="text_4">
      <!-- 0.3 -->
      <defs>
       <path d="M 22.09375 34 
C 31 34 34.90625 26.140625 34.90625 17.09375 
C 34.90625 5.03125 28.5 0.390625 22.703125 0.390625 
C 17.40625 0.390625 8.796875 3.015625 6.09375 10.796875 
C 6.59375 10.59375 7.09375 10.59375 7.59375 10.59375 
C 10 10.59375 11.796875 12.1875 11.796875 14.796875 
C 11.796875 17.6875 9.59375 19 7.59375 19 
C 5.90625 19 3.296875 18.1875 3.296875 14.484375 
C 3.296875 5.234375 12.296875 -2 22.90625 -2 
C 34 -2 42.5 6.75 42.5 16.984375 
C 42.5 26.84375 34.5 34 25 35.09375 
C 32.59375 36.671875 39.90625 43.375 39.90625 52.390625 
C 39.90625 60.25 32 66 23 66 
C 13.90625 66 5.90625 60.34375 5.90625 52.296875 
C 5.90625 48.796875 8.5 48.1875 9.796875 48.1875 
C 11.90625 48.1875 13.703125 49.484375 13.703125 52.09375 
C 13.703125 54.6875 11.90625 56 9.796875 56 
C 9.40625 56 8.90625 56 8.5 55.796875 
C 11.40625 62.484375 19.296875 63.6875 22.796875 63.6875 
C 26.296875 63.6875 32.90625 61.96875 32.90625 52.296875 
C 32.90625 49.484375 32.5 44.546875 29.09375 40.21875 
C 26.09375 36.390625 22.703125 36.1875 19.40625 35.890625 
C 18.90625 35.890625 16.59375 35.6875 16.203125 35.6875 
C 15.5 35.59375 15.09375 35.5 15.09375 34.796875 
C 15.09375 34.09375 15.203125 34 17.203125 34 
z
" id="CMR17-51"/>
      </defs>
      <g transform="translate(207.139078 290.730498)scale(0.1 -0.1)">
       <use transform="scale(0.996264)" xlink:href="#CMR17-48"/>
       <use transform="translate(45.690477 0)scale(0.996264)" xlink:href="#CMR17-46"/>
       <use transform="translate(70.561536 0)scale(0.996264)" xlink:href="#CMR17-51"/>
      </g>
     </g>
    </g>
    <g id="xtick_5">
     <g id="line2d_5">
      <g>
       <use style="stroke:#000000;stroke-width:0.8;" x="266.921798" xlink:href="#m2a87f72dd2" y="276.812"/>
      </g>
     </g>
     <g id="text_5">
      <!-- 0.4 -->
      <defs>
       <path d="M 33.59375 64.796875 
C 33.59375 66.890625 33.5 67 31.703125 67 
L 2 19.59375 
L 2 17 
L 27.796875 17 
L 27.796875 7.1875 
C 27.796875 3.59375 27.59375 2.59375 20.59375 2.59375 
L 18.703125 2.59375 
L 18.703125 0 
C 21.90625 0.1875 27.296875 0.1875 30.703125 0.1875 
C 34.09375 0.1875 39.5 0.1875 42.703125 0 
L 42.703125 2.59375 
L 40.796875 2.59375 
C 33.796875 2.59375 33.59375 3.59375 33.59375 7.1875 
L 33.59375 17 
L 43.796875 17 
L 43.796875 19.59375 
L 33.59375 19.59375 
z
M 28.09375 58.171875 
L 28.09375 19.59375 
L 4 19.59375 
z
" id="CMR17-52"/>
      </defs>
      <g transform="translate(260.556759 290.730498)scale(0.1 -0.1)">
       <use transform="scale(0.996264)" xlink:href="#CMR17-48"/>
       <use transform="translate(45.690477 0)scale(0.996264)" xlink:href="#CMR17-46"/>
       <use transform="translate(70.561536 0)scale(0.996264)" xlink:href="#CMR17-52"/>
      </g>
     </g>
    </g>
    <g id="xtick_6">
     <g id="line2d_6">
      <g>
       <use style="stroke:#000000;stroke-width:0.8;" x="320.339479" xlink:href="#m2a87f72dd2" y="276.812"/>
      </g>
     </g>
     <g id="text_6">
      <!-- 0.5 -->
      <defs>
       <path d="M 11.40625 58.59375 
C 12.40625 58.1875 16.5 56.890625 20.703125 56.890625 
C 30 56.890625 35.09375 61.890625 38 64.6875 
C 38 65.484375 38 66 37.40625 66 
C 37.296875 66 37.09375 66 36.296875 65.59375 
C 32.796875 64.09375 28.703125 63 23.703125 63 
C 20.703125 63 16.203125 63.359375 11.296875 65.484375 
C 10.203125 66 10 66 9.90625 66 
C 9.40625 66 9.296875 65.890625 9.296875 63.90625 
L 9.296875 34.859375 
C 9.296875 33.015625 9.296875 32.5 10.296875 32.5 
C 10.796875 32.5 11 32.703125 11.5 33.421875 
C 14.703125 38.046875 19.09375 40 24.09375 40 
C 27.59375 40 35.09375 37.734375 35.09375 20.203125 
C 35.09375 16.984375 35.09375 11.1875 32.09375 6.59375 
C 29.59375 2.484375 25.703125 0.390625 21.40625 0.390625 
C 14.796875 0.390625 8.09375 4.984375 6.296875 12.6875 
C 6.703125 12.59375 7.5 12.390625 7.90625 12.390625 
C 9.203125 12.390625 11.703125 13.09375 11.703125 16.1875 
C 11.703125 18.890625 9.796875 20 7.90625 20 
C 5.59375 20 4.09375 18.59375 4.09375 15.796875 
C 4.09375 7.09375 11 -2 21.59375 -2 
C 31.90625 -2 41.703125 6.890625 41.703125 19.796875 
C 41.703125 32.09375 33.90625 41.59375 24.203125 41.59375 
C 19.09375 41.59375 14.796875 39.6875 11.40625 36 
z
" id="CMR17-53"/>
      </defs>
      <g transform="translate(313.97444 290.730498)scale(0.1 -0.1)">
       <use transform="scale(0.996264)" xlink:href="#CMR17-48"/>
       <use transform="translate(45.690477 0)scale(0.996264)" xlink:href="#CMR17-46"/>
       <use transform="translate(70.561536 0)scale(0.996264)" xlink:href="#CMR17-53"/>
      </g>
     </g>
    </g>
    <g id="xtick_7">
     <g id="line2d_7">
      <g>
       <use style="stroke:#000000;stroke-width:0.8;" x="373.75716" xlink:href="#m2a87f72dd2" y="276.812"/>
      </g>
     </g>
     <g id="text_7">
      <!-- 0.6 -->
      <defs>
       <path d="M 10.59375 34.34375 
C 10.59375 58 21.796875 63.6875 28.296875 63.6875 
C 30.40625 63.6875 35.5 63.265625 37.5 59.09375 
C 35.90625 59.09375 32.90625 59.09375 32.90625 55.59375 
C 32.90625 52.890625 35.09375 52 36.5 52 
C 37.40625 52 40.09375 52.390625 40.09375 55.796875 
C 40.09375 62.296875 35.09375 66 28.203125 66 
C 16.296875 66 3.796875 53.296875 3.796875 31.421875 
C 3.796875 4.015625 15.09375 -2 23.09375 -2 
C 32.796875 -2 42 6.734375 42 20.234375 
C 42 32.828125 33.90625 42 23.703125 42 
C 17.59375 42 13.09375 37.96875 10.59375 30.921875 
z
M 23.09375 0.390625 
C 10.796875 0.390625 10.796875 18.9375 10.796875 22.65625 
C 10.796875 29.90625 14.203125 40.390625 23.5 40.390625 
C 25.203125 40.390625 30.09375 40.390625 33.40625 33.4375 
C 35.203125 29.515625 35.203125 25.375 35.203125 20.34375 
C 35.203125 14.90625 35.203125 10.875 33.09375 6.84375 
C 30.90625 2.703125 27.703125 0.390625 23.09375 0.390625 
z
" id="CMR17-54"/>
      </defs>
      <g transform="translate(367.392121 290.730498)scale(0.1 -0.1)">
       <use transform="scale(0.996264)" xlink:href="#CMR17-48"/>
       <use transform="translate(45.690477 0)scale(0.996264)" xlink:href="#CMR17-46"/>
       <use transform="translate(70.561536 0)scale(0.996264)" xlink:href="#CMR17-54"/>
      </g>
     </g>
    </g>
    <g id="text_8">
     <!-- velocity in y-direction -->
     <defs>
      <path d="M 2.984375 54.6875 
L 12.5 54.6875 
L 29.59375 8.796875 
L 46.6875 54.6875 
L 56.203125 54.6875 
L 35.6875 0 
L 23.484375 0 
z
" id="DejaVuSans-118"/>
      <path d="M 56.203125 29.59375 
L 56.203125 25.203125 
L 14.890625 25.203125 
Q 15.484375 15.921875 20.484375 11.0625 
Q 25.484375 6.203125 34.421875 6.203125 
Q 39.59375 6.203125 44.453125 7.46875 
Q 49.3125 8.734375 54.109375 11.28125 
L 54.109375 2.78125 
Q 49.265625 0.734375 44.1875 -0.34375 
Q 39.109375 -1.421875 33.890625 -1.421875 
Q 20.796875 -1.421875 13.15625 6.1875 
Q 5.515625 13.8125 5.515625 26.8125 
Q 5.515625 40.234375 12.765625 48.109375 
Q 20.015625 56 32.328125 56 
Q 43.359375 56 49.78125 48.890625 
Q 56.203125 41.796875 56.203125 29.59375 
z
M 47.21875 32.234375 
Q 47.125 39.59375 43.09375 43.984375 
Q 39.0625 48.390625 32.421875 48.390625 
Q 24.90625 48.390625 20.390625 44.140625 
Q 15.875 39.890625 15.1875 32.171875 
z
" id="DejaVuSans-101"/>
      <path d="M 9.421875 75.984375 
L 18.40625 75.984375 
L 18.40625 0 
L 9.421875 0 
z
" id="DejaVuSans-108"/>
      <path d="M 30.609375 48.390625 
Q 23.390625 48.390625 19.1875 42.75 
Q 14.984375 37.109375 14.984375 27.296875 
Q 14.984375 17.484375 19.15625 11.84375 
Q 23.34375 6.203125 30.609375 6.203125 
Q 37.796875 6.203125 41.984375 11.859375 
Q 46.1875 17.53125 46.1875 27.296875 
Q 46.1875 37.015625 41.984375 42.703125 
Q 37.796875 48.390625 30.609375 48.390625 
z
M 30.609375 56 
Q 42.328125 56 49.015625 48.375 
Q 55.71875 40.765625 55.71875 27.296875 
Q 55.71875 13.875 49.015625 6.21875 
Q 42.328125 -1.421875 30.609375 -1.421875 
Q 18.84375 -1.421875 12.171875 6.21875 
Q 5.515625 13.875 5.515625 27.296875 
Q 5.515625 40.765625 12.171875 48.375 
Q 18.84375 56 30.609375 56 
z
" id="DejaVuSans-111"/>
      <path d="M 48.78125 52.59375 
L 48.78125 44.1875 
Q 44.96875 46.296875 41.140625 47.34375 
Q 37.3125 48.390625 33.40625 48.390625 
Q 24.65625 48.390625 19.8125 42.84375 
Q 14.984375 37.3125 14.984375 27.296875 
Q 14.984375 17.28125 19.8125 11.734375 
Q 24.65625 6.203125 33.40625 6.203125 
Q 37.3125 6.203125 41.140625 7.25 
Q 44.96875 8.296875 48.78125 10.40625 
L 48.78125 2.09375 
Q 45.015625 0.34375 40.984375 -0.53125 
Q 36.96875 -1.421875 32.421875 -1.421875 
Q 20.0625 -1.421875 12.78125 6.34375 
Q 5.515625 14.109375 5.515625 27.296875 
Q 5.515625 40.671875 12.859375 48.328125 
Q 20.21875 56 33.015625 56 
Q 37.15625 56 41.109375 55.140625 
Q 45.0625 54.296875 48.78125 52.59375 
z
" id="DejaVuSans-99"/>
      <path d="M 9.421875 54.6875 
L 18.40625 54.6875 
L 18.40625 0 
L 9.421875 0 
z
M 9.421875 75.984375 
L 18.40625 75.984375 
L 18.40625 64.59375 
L 9.421875 64.59375 
z
" id="DejaVuSans-105"/>
      <path d="M 18.3125 70.21875 
L 18.3125 54.6875 
L 36.8125 54.6875 
L 36.8125 47.703125 
L 18.3125 47.703125 
L 18.3125 18.015625 
Q 18.3125 11.328125 20.140625 9.421875 
Q 21.96875 7.515625 27.59375 7.515625 
L 36.8125 7.515625 
L 36.8125 0 
L 27.59375 0 
Q 17.1875 0 13.234375 3.875 
Q 9.28125 7.765625 9.28125 18.015625 
L 9.28125 47.703125 
L 2.6875 47.703125 
L 2.6875 54.6875 
L 9.28125 54.6875 
L 9.28125 70.21875 
z
" id="DejaVuSans-116"/>
      <path d="M 32.171875 -5.078125 
Q 28.375 -14.84375 24.75 -17.8125 
Q 21.140625 -20.796875 15.09375 -20.796875 
L 7.90625 -20.796875 
L 7.90625 -13.28125 
L 13.1875 -13.28125 
Q 16.890625 -13.28125 18.9375 -11.515625 
Q 21 -9.765625 23.484375 -3.21875 
L 25.09375 0.875 
L 2.984375 54.6875 
L 12.5 54.6875 
L 29.59375 11.921875 
L 46.6875 54.6875 
L 56.203125 54.6875 
z
" id="DejaVuSans-121"/>
      <path id="DejaVuSans-32"/>
      <path d="M 54.890625 33.015625 
L 54.890625 0 
L 45.90625 0 
L 45.90625 32.71875 
Q 45.90625 40.484375 42.875 44.328125 
Q 39.84375 48.1875 33.796875 48.1875 
Q 26.515625 48.1875 22.3125 43.546875 
Q 18.109375 38.921875 18.109375 30.90625 
L 18.109375 0 
L 9.078125 0 
L 9.078125 54.6875 
L 18.109375 54.6875 
L 18.109375 46.1875 
Q 21.34375 51.125 25.703125 53.5625 
Q 30.078125 56 35.796875 56 
Q 45.21875 56 50.046875 50.171875 
Q 54.890625 44.34375 54.890625 33.015625 
z
" id="DejaVuSans-110"/>
      <path d="M 4.890625 31.390625 
L 31.203125 31.390625 
L 31.203125 23.390625 
L 4.890625 23.390625 
z
" id="DejaVuSans-45"/>
      <path d="M 45.40625 46.390625 
L 45.40625 75.984375 
L 54.390625 75.984375 
L 54.390625 0 
L 45.40625 0 
L 45.40625 8.203125 
Q 42.578125 3.328125 38.25 0.953125 
Q 33.9375 -1.421875 27.875 -1.421875 
Q 17.96875 -1.421875 11.734375 6.484375 
Q 5.515625 14.40625 5.515625 27.296875 
Q 5.515625 40.1875 11.734375 48.09375 
Q 17.96875 56 27.875 56 
Q 33.9375 56 38.25 53.625 
Q 42.578125 51.265625 45.40625 46.390625 
z
M 14.796875 27.296875 
Q 14.796875 17.390625 18.875 11.75 
Q 22.953125 6.109375 30.078125 6.109375 
Q 37.203125 6.109375 41.296875 11.75 
Q 45.40625 17.390625 45.40625 27.296875 
Q 45.40625 37.203125 41.296875 42.84375 
Q 37.203125 48.484375 30.078125 48.484375 
Q 22.953125 48.484375 18.875 42.84375 
Q 14.796875 37.203125 14.796875 27.296875 
z
" id="DejaVuSans-100"/>
      <path d="M 41.109375 46.296875 
Q 39.59375 47.171875 37.8125 47.578125 
Q 36.03125 48 33.890625 48 
Q 26.265625 48 22.1875 43.046875 
Q 18.109375 38.09375 18.109375 28.8125 
L 18.109375 0 
L 9.078125 0 
L 9.078125 54.6875 
L 18.109375 54.6875 
L 18.109375 46.1875 
Q 20.953125 51.171875 25.484375 53.578125 
Q 30.03125 56 36.53125 56 
Q 37.453125 56 38.578125 55.875 
Q 39.703125 55.765625 41.0625 55.515625 
z
" id="DejaVuSans-114"/>
     </defs>
     <g transform="translate(167.965133 303.586175)scale(0.1 -0.1)">
      <use xlink:href="#DejaVuSans-118"/>
      <use x="59.179688" xlink:href="#DejaVuSans-101"/>
      <use x="120.703125" xlink:href="#DejaVuSans-108"/>
      <use x="148.486328" xlink:href="#DejaVuSans-111"/>
      <use x="209.667969" xlink:href="#DejaVuSans-99"/>
      <use x="264.648438" xlink:href="#DejaVuSans-105"/>
      <use x="292.431641" xlink:href="#DejaVuSans-116"/>
      <use x="331.640625" xlink:href="#DejaVuSans-121"/>
      <use x="390.820312" xlink:href="#DejaVuSans-32"/>
      <use x="422.607422" xlink:href="#DejaVuSans-105"/>
      <use x="450.390625" xlink:href="#DejaVuSans-110"/>
      <use x="513.769531" xlink:href="#DejaVuSans-32"/>
      <use x="545.556641" xlink:href="#DejaVuSans-121"/>
      <use x="604.720703" xlink:href="#DejaVuSans-45"/>
      <use x="640.804688" xlink:href="#DejaVuSans-100"/>
      <use x="704.28125" xlink:href="#DejaVuSans-105"/>
      <use x="732.064453" xlink:href="#DejaVuSans-114"/>
      <use x="773.146484" xlink:href="#DejaVuSans-101"/>
      <use x="834.669922" xlink:href="#DejaVuSans-99"/>
      <use x="889.650391" xlink:href="#DejaVuSans-116"/>
      <use x="928.859375" xlink:href="#DejaVuSans-105"/>
      <use x="956.642578" xlink:href="#DejaVuSans-111"/>
      <use x="1017.824219" xlink:href="#DejaVuSans-110"/>
     </g>
    </g>
   </g>
   <g id="matplotlib.axis_2">
    <g id="ytick_1">
     <g id="line2d_8">
      <defs>
       <path d="M 0 0 
L -3.5 0 
" id="m43972021ce" style="stroke:#000000;stroke-width:0.8;"/>
      </defs>
      <g>
       <use style="stroke:#000000;stroke-width:0.8;" x="37.018347" xlink:href="#m43972021ce" y="262.2968"/>
      </g>
     </g>
     <g id="text_9">
      <!-- 0 -->
      <g transform="translate(25.037012 265.756049)scale(0.1 -0.1)">
       <use xlink:href="#DejaVuSans-48"/>
      </g>
     </g>
    </g>
    <g id="ytick_2">
     <g id="line2d_9">
      <g>
       <use style="stroke:#000000;stroke-width:0.8;" x="37.018347" xlink:href="#m43972021ce" y="213.9128"/>
      </g>
     </g>
     <g id="text_10">
      <!-- 10 -->
      <g transform="translate(20.055677 217.372049)scale(0.1 -0.1)">
       <use transform="scale(0.996264)" xlink:href="#CMR17-49"/>
       <use transform="translate(45.690477 0)scale(0.996264)" xlink:href="#CMR17-48"/>
      </g>
     </g>
    </g>
    <g id="ytick_3">
     <g id="line2d_10">
      <g>
       <use style="stroke:#000000;stroke-width:0.8;" x="37.018347" xlink:href="#m43972021ce" y="165.5288"/>
      </g>
     </g>
     <g id="text_11">
      <!-- 20 -->
      <g transform="translate(20.055677 168.988049)scale(0.1 -0.1)">
       <use transform="scale(0.996264)" xlink:href="#CMR17-50"/>
       <use transform="translate(45.690477 0)scale(0.996264)" xlink:href="#CMR17-48"/>
      </g>
     </g>
    </g>
    <g id="ytick_4">
     <g id="line2d_11">
      <g>
       <use style="stroke:#000000;stroke-width:0.8;" x="37.018347" xlink:href="#m43972021ce" y="117.1448"/>
      </g>
     </g>
     <g id="text_12">
      <!-- 30 -->
      <g transform="translate(20.055677 120.604049)scale(0.1 -0.1)">
       <use transform="scale(0.996264)" xlink:href="#CMR17-51"/>
       <use transform="translate(45.690477 0)scale(0.996264)" xlink:href="#CMR17-48"/>
      </g>
     </g>
    </g>
    <g id="ytick_5">
     <g id="line2d_12">
      <g>
       <use style="stroke:#000000;stroke-width:0.8;" x="37.018347" xlink:href="#m43972021ce" y="68.7608"/>
      </g>
     </g>
     <g id="text_13">
      <!-- 40 -->
      <g transform="translate(20.055677 72.220049)scale(0.1 -0.1)">
       <use transform="scale(0.996264)" xlink:href="#CMR17-52"/>
       <use transform="translate(45.690477 0)scale(0.996264)" xlink:href="#CMR17-48"/>
      </g>
     </g>
    </g>
    <g id="ytick_6">
     <g id="line2d_13">
      <g>
       <use style="stroke:#000000;stroke-width:0.8;" x="37.018347" xlink:href="#m43972021ce" y="20.3768"/>
      </g>
     </g>
     <g id="text_14">
      <!-- 50 -->
      <g transform="translate(20.055677 23.836049)scale(0.1 -0.1)">
       <use transform="scale(0.996264)" xlink:href="#CMR17-53"/>
       <use transform="translate(45.690477 0)scale(0.996264)" xlink:href="#CMR17-48"/>
      </g>
     </g>
    </g>
    <g id="text_15">
     <!-- y coordinate -->
     <defs>
      <path d="M 34.28125 27.484375 
Q 23.390625 27.484375 19.1875 25 
Q 14.984375 22.515625 14.984375 16.5 
Q 14.984375 11.71875 18.140625 8.90625 
Q 21.296875 6.109375 26.703125 6.109375 
Q 34.1875 6.109375 38.703125 11.40625 
Q 43.21875 16.703125 43.21875 25.484375 
L 43.21875 27.484375 
z
M 52.203125 31.203125 
L 52.203125 0 
L 43.21875 0 
L 43.21875 8.296875 
Q 40.140625 3.328125 35.546875 0.953125 
Q 30.953125 -1.421875 24.3125 -1.421875 
Q 15.921875 -1.421875 10.953125 3.296875 
Q 6 8.015625 6 15.921875 
Q 6 25.140625 12.171875 29.828125 
Q 18.359375 34.515625 30.609375 34.515625 
L 43.21875 34.515625 
L 43.21875 35.40625 
Q 43.21875 41.609375 39.140625 45 
Q 35.0625 48.390625 27.6875 48.390625 
Q 23 48.390625 18.546875 47.265625 
Q 14.109375 46.140625 10.015625 43.890625 
L 10.015625 52.203125 
Q 14.9375 54.109375 19.578125 55.046875 
Q 24.21875 56 28.609375 56 
Q 40.484375 56 46.34375 49.84375 
Q 52.203125 43.703125 52.203125 31.203125 
z
" id="DejaVuSans-97"/>
     </defs>
     <g transform="translate(14.118498 170.890421)rotate(-90)scale(0.1 -0.1)">
      <use xlink:href="#DejaVuSans-121"/>
      <use x="59.179688" xlink:href="#DejaVuSans-32"/>
      <use x="90.966797" xlink:href="#DejaVuSans-99"/>
      <use x="145.947266" xlink:href="#DejaVuSans-111"/>
      <use x="207.128906" xlink:href="#DejaVuSans-111"/>
      <use x="268.310547" xlink:href="#DejaVuSans-114"/>
      <use x="309.408203" xlink:href="#DejaVuSans-100"/>
      <use x="372.884766" xlink:href="#DejaVuSans-105"/>
      <use x="400.667969" xlink:href="#DejaVuSans-110"/>
      <use x="464.046875" xlink:href="#DejaVuSans-97"/>
      <use x="525.326172" xlink:href="#DejaVuSans-116"/>
      <use x="564.535156" xlink:href="#DejaVuSans-101"/>
     </g>
    </g>
   </g>
   <g id="line2d_14">
    <path clip-path="url(#p911d9dbd4b)" d="M 53.251074 262.2968 
L 348.39157 257.4584 
L 282.586723 252.62 
L 312.001905 247.7816 
L 286.93957 242.9432 
L 293.045046 238.1048 
L 281.318717 233.2664 
L 279.794365 228.428 
L 272.433232 223.5896 
L 268.411453 218.7512 
L 262.479154 213.9128 
L 257.639907 209.0744 
L 252.1753 204.236 
L 247.068476 199.3976 
L 241.756956 194.5592 
L 236.562547 189.7208 
L 231.301137 184.8824 
L 226.078059 180.044 
L 220.83305 175.2056 
L 215.600589 170.3672 
L 210.360949 165.5288 
L 205.125416 160.6904 
L 199.887533 155.852 
L 194.650995 151.0136 
L 189.413688 146.1752 
L 184.17682 141.3368 
L 178.939701 136.4984 
L 173.702726 131.66 
L 168.465668 126.8216 
L 163.228658 121.9832 
L 157.991621 117.1448 
L 152.754599 112.3064 
L 147.517568 107.468 
L 142.280542 102.6296 
L 137.043514 97.7912 
L 131.806487 92.9528 
L 126.569459 88.1144 
L 121.332432 83.276 
L 116.095404 78.4376 
L 110.858377 73.5992 
L 105.621349 68.7608 
L 100.384322 63.9224 
L 95.147294 59.084 
L 89.910267 54.2456 
L 84.673239 49.4072 
L 79.436212 44.5688 
L 74.199184 39.7304 
L 68.962157 34.892 
L 63.725129 30.0536 
L 53.251074 25.2152 
" style="fill:none;stroke:#0000ff;stroke-dasharray:1,1.65;stroke-dashoffset:0;"/>
   </g>
   <g id="line2d_15">
    <path clip-path="url(#p911d9dbd4b)" d="M 314.997711 262.2968 
L 309.655943 257.4584 
L 304.314175 252.62 
L 298.972407 247.7816 
L 293.630639 242.9432 
L 288.288871 238.1048 
L 282.947102 233.2664 
L 277.605334 228.428 
L 272.263566 223.5896 
L 266.921798 218.7512 
L 261.58003 213.9128 
L 256.238262 209.0744 
L 250.896494 204.236 
L 245.554726 199.3976 
L 240.212958 194.5592 
L 234.87119 189.7208 
L 229.529422 184.8824 
L 224.187653 180.044 
L 218.845885 175.2056 
L 213.504117 170.3672 
L 208.162349 165.5288 
L 202.820581 160.6904 
L 197.478813 155.852 
L 192.137045 151.0136 
L 186.795277 146.1752 
L 181.453509 141.3368 
L 176.111741 136.4984 
L 170.769973 131.66 
L 165.428204 126.8216 
L 160.086436 121.9832 
L 154.744668 117.1448 
L 149.4029 112.3064 
L 144.061132 107.468 
L 138.719364 102.6296 
L 133.377596 97.7912 
L 128.035828 92.9528 
L 122.69406 88.1144 
L 117.352292 83.276 
L 112.010523 78.4376 
L 106.668755 73.5992 
L 101.326987 68.7608 
L 95.985219 63.9224 
L 90.643451 59.084 
L 85.301683 54.2456 
L 79.959915 49.4072 
L 74.618147 44.5688 
L 69.276379 39.7304 
L 63.934611 34.892 
L 58.592843 30.0536 
L 53.251074 25.2152 
" style="fill:none;stroke:#ff0000;stroke-dasharray:5.55,2.4;stroke-dashoffset:0;stroke-width:1.5;"/>
   </g>
   <g id="line2d_16">
    <path clip-path="url(#p911d9dbd4b)" d="M 53.251074 22.796 
L 56.530413 22.796 
L 59.809752 22.796 
L 63.089091 22.796 
L 66.36843 22.796 
L 69.647769 22.796 
L 72.927108 22.796 
L 76.206446 22.796 
L 79.485785 22.796 
L 82.765124 22.796 
L 86.044463 22.796 
L 89.323802 22.796 
L 92.603141 22.796 
L 95.882479 22.796 
L 99.161818 22.796 
L 102.441157 22.796 
L 105.720496 22.796 
L 108.999835 22.796 
L 112.279174 22.796 
L 115.558513 22.796 
L 118.837851 22.796 
L 122.11719 22.796 
L 125.396529 22.796 
L 128.675868 22.796 
L 131.955207 22.796 
L 135.234546 22.796 
L 138.513884 22.796 
L 141.793223 22.796 
L 145.072562 22.796 
L 148.351901 22.796 
L 151.63124 22.796 
L 154.910579 22.796 
L 158.189917 22.796 
L 161.469256 22.796 
L 164.748595 22.796 
L 168.027934 22.796 
L 171.307273 22.796 
L 174.586612 22.796 
L 177.865951 22.796 
L 181.145289 22.796 
L 184.424628 22.796 
L 187.703967 22.796 
L 190.983306 22.796 
L 194.262645 22.796 
L 197.541984 22.796 
L 200.821322 22.796 
L 204.100661 22.796 
L 207.38 22.796 
L 210.659339 22.796 
L 213.938678 22.796 
L 217.218017 22.796 
L 220.497355 22.796 
L 223.776694 22.796 
L 227.056033 22.796 
L 230.335372 22.796 
L 233.614711 22.796 
L 236.89405 22.796 
L 240.173389 22.796 
L 243.452727 22.796 
L 246.732066 22.796 
L 250.011405 22.796 
L 253.290744 22.796 
L 256.570083 22.796 
L 259.849422 22.796 
L 263.12876 22.796 
L 266.408099 22.796 
L 269.687438 22.796 
L 272.966777 22.796 
L 276.246116 22.796 
L 279.525455 22.796 
L 282.804793 22.796 
L 286.084132 22.796 
L 289.363471 22.796 
L 292.64281 22.796 
L 295.922149 22.796 
L 299.201488 22.796 
L 302.480827 22.796 
L 305.760165 22.796 
L 309.039504 22.796 
L 312.318843 22.796 
L 315.598182 22.796 
L 318.877521 22.796 
L 322.15686 22.796 
L 325.436198 22.796 
L 328.715537 22.796 
L 331.994876 22.796 
L 335.274215 22.796 
L 338.553554 22.796 
L 341.832893 22.796 
L 345.112232 22.796 
L 348.39157 22.796 
L 351.670909 22.796 
L 354.950248 22.796 
L 358.229587 22.796 
L 361.508926 22.796 
L 364.788265 22.796 
L 368.067603 22.796 
L 371.346942 22.796 
L 374.626281 22.796 
L 377.90562 22.796 
" style="fill:none;stroke:#ffa500;stroke-dasharray:9.6,2.4,1.5,2.4;stroke-dashoffset:0;stroke-width:1.5;"/>
   </g>
   <g id="line2d_17">
    <path clip-path="url(#p911d9dbd4b)" d="M 53.251074 264.716 
L 56.530413 264.716 
L 59.809752 264.716 
L 63.089091 264.716 
L 66.36843 264.716 
L 69.647769 264.716 
L 72.927108 264.716 
L 76.206446 264.716 
L 79.485785 264.716 
L 82.765124 264.716 
L 86.044463 264.716 
L 89.323802 264.716 
L 92.603141 264.716 
L 95.882479 264.716 
L 99.161818 264.716 
L 102.441157 264.716 
L 105.720496 264.716 
L 108.999835 264.716 
L 112.279174 264.716 
L 115.558513 264.716 
L 118.837851 264.716 
L 122.11719 264.716 
L 125.396529 264.716 
L 128.675868 264.716 
L 131.955207 264.716 
L 135.234546 264.716 
L 138.513884 264.716 
L 141.793223 264.716 
L 145.072562 264.716 
L 148.351901 264.716 
L 151.63124 264.716 
L 154.910579 264.716 
L 158.189917 264.716 
L 161.469256 264.716 
L 164.748595 264.716 
L 168.027934 264.716 
L 171.307273 264.716 
L 174.586612 264.716 
L 177.865951 264.716 
L 181.145289 264.716 
L 184.424628 264.716 
L 187.703967 264.716 
L 190.983306 264.716 
L 194.262645 264.716 
L 197.541984 264.716 
L 200.821322 264.716 
L 204.100661 264.716 
L 207.38 264.716 
L 210.659339 264.716 
L 213.938678 264.716 
L 217.218017 264.716 
L 220.497355 264.716 
L 223.776694 264.716 
L 227.056033 264.716 
L 230.335372 264.716 
L 233.614711 264.716 
L 236.89405 264.716 
L 240.173389 264.716 
L 243.452727 264.716 
L 246.732066 264.716 
L 250.011405 264.716 
L 253.290744 264.716 
L 256.570083 264.716 
L 259.849422 264.716 
L 263.12876 264.716 
L 266.408099 264.716 
L 269.687438 264.716 
L 272.966777 264.716 
L 276.246116 264.716 
L 279.525455 264.716 
L 282.804793 264.716 
L 286.084132 264.716 
L 289.363471 264.716 
L 292.64281 264.716 
L 295.922149 264.716 
L 299.201488 264.716 
L 302.480827 264.716 
L 305.760165 264.716 
L 309.039504 264.716 
L 312.318843 264.716 
L 315.598182 264.716 
L 318.877521 264.716 
L 322.15686 264.716 
L 325.436198 264.716 
L 328.715537 264.716 
L 331.994876 264.716 
L 335.274215 264.716 
L 338.553554 264.716 
L 341.832893 264.716 
L 345.112232 264.716 
L 348.39157 264.716 
L 351.670909 264.716 
L 354.950248 264.716 
L 358.229587 264.716 
L 361.508926 264.716 
L 364.788265 264.716 
L 368.067603 264.716 
L 371.346942 264.716 
L 374.626281 264.716 
L 377.90562 264.716 
" style="fill:none;stroke:#008000;stroke-linecap:square;stroke-width:1.5;"/>
   </g>
   <g id="patch_3">
    <path d="M 37.018347 276.812 
L 37.018347 10.7 
" style="fill:none;stroke:#000000;stroke-linecap:square;stroke-linejoin:miter;stroke-width:0.8;"/>
   </g>
   <g id="patch_4">
    <path d="M 394.138347 276.812 
L 394.138347 10.7 
" style="fill:none;stroke:#000000;stroke-linecap:square;stroke-linejoin:miter;stroke-width:0.8;"/>
   </g>
   <g id="patch_5">
    <path d="M 37.018347 276.812 
L 394.138347 276.812 
" style="fill:none;stroke:#000000;stroke-linecap:square;stroke-linejoin:miter;stroke-width:0.8;"/>
   </g>
   <g id="patch_6">
    <path d="M 37.018347 10.7 
L 394.138347 10.7 
" style="fill:none;stroke:#000000;stroke-linecap:square;stroke-linejoin:miter;stroke-width:0.8;"/>
   </g>
   <g id="legend_1">
    <g id="patch_7">
     <path d="M 299.513475 173.130357 
L 387.138347 173.130357 
Q 389.138347 173.130357 389.138347 171.130357 
L 389.138347 116.381643 
Q 389.138347 114.381643 387.138347 114.381643 
L 299.513475 114.381643 
Q 297.513475 114.381643 297.513475 116.381643 
L 297.513475 171.130357 
Q 297.513475 173.130357 299.513475 173.130357 
z
" style="fill:#ffffff;opacity:0.8;stroke:#cccccc;stroke-linejoin:miter;"/>
    </g>
    <g id="line2d_18">
     <path d="M 301.513475 121.881643 
L 321.513475 121.881643 
" style="fill:none;stroke:#0000ff;stroke-dasharray:1,1.65;stroke-dashoffset:0;"/>
    </g>
    <g id="line2d_19"/>
    <g id="text_16">
     <!-- Simul. Sol. -->
     <defs>
      <path d="M 53.515625 70.515625 
L 53.515625 60.890625 
Q 47.90625 63.578125 42.921875 64.890625 
Q 37.9375 66.21875 33.296875 66.21875 
Q 25.25 66.21875 20.875 63.09375 
Q 16.5 59.96875 16.5 54.203125 
Q 16.5 49.359375 19.40625 46.890625 
Q 22.3125 44.4375 30.421875 42.921875 
L 36.375 41.703125 
Q 47.40625 39.59375 52.65625 34.296875 
Q 57.90625 29 57.90625 20.125 
Q 57.90625 9.515625 50.796875 4.046875 
Q 43.703125 -1.421875 29.984375 -1.421875 
Q 24.8125 -1.421875 18.96875 -0.25 
Q 13.140625 0.921875 6.890625 3.21875 
L 6.890625 13.375 
Q 12.890625 10.015625 18.65625 8.296875 
Q 24.421875 6.59375 29.984375 6.59375 
Q 38.421875 6.59375 43.015625 9.90625 
Q 47.609375 13.234375 47.609375 19.390625 
Q 47.609375 24.75 44.3125 27.78125 
Q 41.015625 30.8125 33.5 32.328125 
L 27.484375 33.5 
Q 16.453125 35.6875 11.515625 40.375 
Q 6.59375 45.0625 6.59375 53.421875 
Q 6.59375 63.09375 13.40625 68.65625 
Q 20.21875 74.21875 32.171875 74.21875 
Q 37.3125 74.21875 42.625 73.28125 
Q 47.953125 72.359375 53.515625 70.515625 
z
" id="DejaVuSans-83"/>
      <path d="M 52 44.1875 
Q 55.375 50.25 60.0625 53.125 
Q 64.75 56 71.09375 56 
Q 79.640625 56 84.28125 50.015625 
Q 88.921875 44.046875 88.921875 33.015625 
L 88.921875 0 
L 79.890625 0 
L 79.890625 32.71875 
Q 79.890625 40.578125 77.09375 44.375 
Q 74.3125 48.1875 68.609375 48.1875 
Q 61.625 48.1875 57.5625 43.546875 
Q 53.515625 38.921875 53.515625 30.90625 
L 53.515625 0 
L 44.484375 0 
L 44.484375 32.71875 
Q 44.484375 40.625 41.703125 44.40625 
Q 38.921875 48.1875 33.109375 48.1875 
Q 26.21875 48.1875 22.15625 43.53125 
Q 18.109375 38.875 18.109375 30.90625 
L 18.109375 0 
L 9.078125 0 
L 9.078125 54.6875 
L 18.109375 54.6875 
L 18.109375 46.1875 
Q 21.1875 51.21875 25.484375 53.609375 
Q 29.78125 56 35.6875 56 
Q 41.65625 56 45.828125 52.96875 
Q 50 49.953125 52 44.1875 
z
" id="DejaVuSans-109"/>
      <path d="M 8.5 21.578125 
L 8.5 54.6875 
L 17.484375 54.6875 
L 17.484375 21.921875 
Q 17.484375 14.15625 20.5 10.265625 
Q 23.53125 6.390625 29.59375 6.390625 
Q 36.859375 6.390625 41.078125 11.03125 
Q 45.3125 15.671875 45.3125 23.6875 
L 45.3125 54.6875 
L 54.296875 54.6875 
L 54.296875 0 
L 45.3125 0 
L 45.3125 8.40625 
Q 42.046875 3.421875 37.71875 1 
Q 33.40625 -1.421875 27.6875 -1.421875 
Q 18.265625 -1.421875 13.375 4.4375 
Q 8.5 10.296875 8.5 21.578125 
z
M 31.109375 56 
z
" id="DejaVuSans-117"/>
     </defs>
     <g transform="translate(329.513475 125.381643)scale(0.1 -0.1)">
      <use xlink:href="#DejaVuSans-83"/>
      <use x="63.476562" xlink:href="#DejaVuSans-105"/>
      <use x="91.259766" xlink:href="#DejaVuSans-109"/>
      <use x="188.671875" xlink:href="#DejaVuSans-117"/>
      <use x="252.050781" xlink:href="#DejaVuSans-108"/>
      <use x="279.833984" xlink:href="#DejaVuSans-46"/>
      <use x="311.621094" xlink:href="#DejaVuSans-32"/>
      <use x="343.408203" xlink:href="#DejaVuSans-83"/>
      <use x="406.884766" xlink:href="#DejaVuSans-111"/>
      <use x="468.066406" xlink:href="#DejaVuSans-108"/>
      <use x="495.849609" xlink:href="#DejaVuSans-46"/>
     </g>
    </g>
    <g id="line2d_20">
     <path d="M 301.513475 135.818822 
L 321.513475 135.818822 
" style="fill:none;stroke:#ff0000;stroke-dasharray:5.55,2.4;stroke-dashoffset:0;stroke-width:1.5;"/>
    </g>
    <g id="line2d_21"/>
    <g id="text_17">
     <!-- Analyt. Sol. -->
     <defs>
      <path d="M 34.1875 63.1875 
L 20.796875 26.90625 
L 47.609375 26.90625 
z
M 28.609375 72.90625 
L 39.796875 72.90625 
L 67.578125 0 
L 57.328125 0 
L 50.6875 18.703125 
L 17.828125 18.703125 
L 11.1875 0 
L 0.78125 0 
z
" id="DejaVuSans-65"/>
     </defs>
     <g transform="translate(329.513475 139.318822)scale(0.1 -0.1)">
      <use xlink:href="#DejaVuSans-65"/>
      <use x="68.408203" xlink:href="#DejaVuSans-110"/>
      <use x="131.787109" xlink:href="#DejaVuSans-97"/>
      <use x="193.066406" xlink:href="#DejaVuSans-108"/>
      <use x="220.849609" xlink:href="#DejaVuSans-121"/>
      <use x="280.029297" xlink:href="#DejaVuSans-116"/>
      <use x="319.238281" xlink:href="#DejaVuSans-46"/>
      <use x="351.025391" xlink:href="#DejaVuSans-32"/>
      <use x="382.8125" xlink:href="#DejaVuSans-83"/>
      <use x="446.289062" xlink:href="#DejaVuSans-111"/>
      <use x="507.470703" xlink:href="#DejaVuSans-108"/>
      <use x="535.253906" xlink:href="#DejaVuSans-46"/>
     </g>
    </g>
    <g id="line2d_22">
     <path d="M 301.513475 149.756 
L 321.513475 149.756 
" style="fill:none;stroke:#ffa500;stroke-dasharray:9.6,2.4,1.5,2.4;stroke-dashoffset:0;stroke-width:1.5;"/>
    </g>
    <g id="line2d_23"/>
    <g id="text_18">
     <!-- Rigid Wall -->
     <defs>
      <path d="M 44.390625 34.1875 
Q 47.5625 33.109375 50.5625 29.59375 
Q 53.5625 26.078125 56.59375 19.921875 
L 66.609375 0 
L 56 0 
L 46.6875 18.703125 
Q 43.0625 26.03125 39.671875 28.421875 
Q 36.28125 30.8125 30.421875 30.8125 
L 19.671875 30.8125 
L 19.671875 0 
L 9.8125 0 
L 9.8125 72.90625 
L 32.078125 72.90625 
Q 44.578125 72.90625 50.734375 67.671875 
Q 56.890625 62.453125 56.890625 51.90625 
Q 56.890625 45.015625 53.6875 40.46875 
Q 50.484375 35.9375 44.390625 34.1875 
z
M 19.671875 64.796875 
L 19.671875 38.921875 
L 32.078125 38.921875 
Q 39.203125 38.921875 42.84375 42.21875 
Q 46.484375 45.515625 46.484375 51.90625 
Q 46.484375 58.296875 42.84375 61.546875 
Q 39.203125 64.796875 32.078125 64.796875 
z
" id="DejaVuSans-82"/>
      <path d="M 45.40625 27.984375 
Q 45.40625 37.75 41.375 43.109375 
Q 37.359375 48.484375 30.078125 48.484375 
Q 22.859375 48.484375 18.828125 43.109375 
Q 14.796875 37.75 14.796875 27.984375 
Q 14.796875 18.265625 18.828125 12.890625 
Q 22.859375 7.515625 30.078125 7.515625 
Q 37.359375 7.515625 41.375 12.890625 
Q 45.40625 18.265625 45.40625 27.984375 
z
M 54.390625 6.78125 
Q 54.390625 -7.171875 48.1875 -13.984375 
Q 42 -20.796875 29.203125 -20.796875 
Q 24.46875 -20.796875 20.265625 -20.09375 
Q 16.0625 -19.390625 12.109375 -17.921875 
L 12.109375 -9.1875 
Q 16.0625 -11.328125 19.921875 -12.34375 
Q 23.78125 -13.375 27.78125 -13.375 
Q 36.625 -13.375 41.015625 -8.765625 
Q 45.40625 -4.15625 45.40625 5.171875 
L 45.40625 9.625 
Q 42.625 4.78125 38.28125 2.390625 
Q 33.9375 0 27.875 0 
Q 17.828125 0 11.671875 7.65625 
Q 5.515625 15.328125 5.515625 27.984375 
Q 5.515625 40.671875 11.671875 48.328125 
Q 17.828125 56 27.875 56 
Q 33.9375 56 38.28125 53.609375 
Q 42.625 51.21875 45.40625 46.390625 
L 45.40625 54.6875 
L 54.390625 54.6875 
z
" id="DejaVuSans-103"/>
      <path d="M 3.328125 72.90625 
L 13.28125 72.90625 
L 28.609375 11.28125 
L 43.890625 72.90625 
L 54.984375 72.90625 
L 70.3125 11.28125 
L 85.59375 72.90625 
L 95.609375 72.90625 
L 77.296875 0 
L 64.890625 0 
L 49.515625 63.28125 
L 33.984375 0 
L 21.578125 0 
z
" id="DejaVuSans-87"/>
     </defs>
     <g transform="translate(329.513475 153.256)scale(0.1 -0.1)">
      <use xlink:href="#DejaVuSans-82"/>
      <use x="69.482422" xlink:href="#DejaVuSans-105"/>
      <use x="97.265625" xlink:href="#DejaVuSans-103"/>
      <use x="160.742188" xlink:href="#DejaVuSans-105"/>
      <use x="188.525391" xlink:href="#DejaVuSans-100"/>
      <use x="252.001953" xlink:href="#DejaVuSans-32"/>
      <use x="283.789062" xlink:href="#DejaVuSans-87"/>
      <use x="382.572266" xlink:href="#DejaVuSans-97"/>
      <use x="443.851562" xlink:href="#DejaVuSans-108"/>
      <use x="471.634766" xlink:href="#DejaVuSans-108"/>
     </g>
    </g>
    <g id="line2d_24">
     <path d="M 301.513475 163.693178 
L 321.513475 163.693178 
" style="fill:none;stroke:#008000;stroke-linecap:square;stroke-width:1.5;"/>
    </g>
    <g id="line2d_25"/>
    <g id="text_19">
     <!-- Moving Wall -->
     <defs>
      <path d="M 9.8125 72.90625 
L 24.515625 72.90625 
L 43.109375 23.296875 
L 61.8125 72.90625 
L 76.515625 72.90625 
L 76.515625 0 
L 66.890625 0 
L 66.890625 64.015625 
L 48.09375 14.015625 
L 38.1875 14.015625 
L 19.390625 64.015625 
L 19.390625 0 
L 9.8125 0 
z
" id="DejaVuSans-77"/>
     </defs>
     <g transform="translate(329.513475 167.193178)scale(0.1 -0.1)">
      <use xlink:href="#DejaVuSans-77"/>
      <use x="86.279297" xlink:href="#DejaVuSans-111"/>
      <use x="147.460938" xlink:href="#DejaVuSans-118"/>
      <use x="206.640625" xlink:href="#DejaVuSans-105"/>
      <use x="234.423828" xlink:href="#DejaVuSans-110"/>
      <use x="297.802734" xlink:href="#DejaVuSans-103"/>
      <use x="361.279297" xlink:href="#DejaVuSans-32"/>
      <use x="393.066406" xlink:href="#DejaVuSans-87"/>
      <use x="491.849609" xlink:href="#DejaVuSans-97"/>
      <use x="553.128906" xlink:href="#DejaVuSans-108"/>
      <use x="580.912109" xlink:href="#DejaVuSans-108"/>
     </g>
    </g>
   </g>
  </g>
 </g>
 <defs>
  <clipPath id="p911d9dbd4b">
   <rect height="266.112" width="357.12" x="37.018347" y="10.7"/>
  </clipPath>
 </defs>
</svg>
