<?xml version="1.0" encoding="utf-8" standalone="no"?>
<!DOCTYPE svg PUBLIC "-//W3C//DTD SVG 1.1//EN"
  "http://www.w3.org/Graphics/SVG/1.1/DTD/svg11.dtd">
<!-- Created with matplotlib (https://matplotlib.org/) -->
<svg height="312.568734pt" version="1.1" viewBox="0 0 402.445311 312.568734" width="402.445311pt" xmlns="http://www.w3.org/2000/svg" xmlns:xlink="http://www.w3.org/1999/xlink">
 <metadata>
  <rdf:RDF xmlns:cc="http://creativecommons.org/ns#" xmlns:dc="http://purl.org/dc/elements/1.1/" xmlns:rdf="http://www.w3.org/1999/02/22-rdf-syntax-ns#">
   <cc:Work>
    <dc:type rdf:resource="http://purl.org/dc/dcmitype/StillImage"/>
    <dc:date>2020-07-23T17:34:08.946947</dc:date>
    <dc:format>image/svg+xml</dc:format>
    <dc:creator>
     <cc:Agent>
      <dc:title>Matplotlib v3.3.0, https://matplotlib.org/</dc:title>
     </cc:Agent>
    </dc:creator>
   </cc:Work>
  </rdf:RDF>
 </metadata>
 <defs>
  <style type="text/css">*{stroke-linecap:butt;stroke-linejoin:round;}</style>
 </defs>
 <g id="figure_1">
  <g id="patch_1">
   <path d="M 0 312.568734 
L 402.445311 312.568734 
L 402.445311 0 
L 0 0 
z
" style="fill:#ffffff;"/>
  </g>
  <g id="axes_1">
   <g id="patch_2">
    <path d="M 38.125311 273.312 
L 395.245311 273.312 
L 395.245311 7.2 
L 38.125311 7.2 
z
" style="fill:#ffffff;"/>
   </g>
   <g id="Quiver_1">
    <path clip-path="url(#pf1a93fe2c6)" d="M 54.358038 256.7376 
L 369.582911 256.7376 
L 369.136511 255.8448 
L 373.600511 257.184 
L 369.136511 258.5232 
L 369.582911 257.6304 
L 54.358038 257.6304 
L 54.358038 256.7376 
" style="fill:#0000ff;"/>
   </g>
   <g id="Quiver_2">
    <path clip-path="url(#pf1a93fe2c6)" d="M 54.358038 248.6736 
L 358.758781 248.6736 
L 358.312381 247.7808 
L 362.776381 249.12 
L 358.312381 250.4592 
L 358.758781 249.5664 
L 54.358038 249.5664 
L 54.358038 248.6736 
" style="fill:#0000ff;"/>
   </g>
   <g id="Quiver_3">
    <path clip-path="url(#pf1a93fe2c6)" d="M 54.358038 240.6096 
L 347.934688 240.6096 
L 347.488288 239.7168 
L 351.952288 241.056 
L 347.488288 242.3952 
L 347.934688 241.5024 
L 54.358038 241.5024 
L 54.358038 240.6096 
" style="fill:#0000ff;"/>
   </g>
   <g id="Quiver_4">
    <path clip-path="url(#pf1a93fe2c6)" d="M 54.358038 232.5456 
L 337.110658 232.5456 
L 336.664258 231.6528 
L 341.128258 232.992 
L 336.664258 234.3312 
L 337.110658 233.4384 
L 54.358038 233.4384 
L 54.358038 232.5456 
" style="fill:#0000ff;"/>
   </g>
   <g id="Quiver_5">
    <path clip-path="url(#pf1a93fe2c6)" d="M 54.358038 224.4816 
L 326.286715 224.4816 
L 325.840315 223.5888 
L 330.304315 224.928 
L 325.840315 226.2672 
L 326.286715 225.3744 
L 54.358038 225.3744 
L 54.358038 224.4816 
" style="fill:#0000ff;"/>
   </g>
   <g id="Quiver_6">
    <path clip-path="url(#pf1a93fe2c6)" d="M 54.358038 216.4176 
L 315.462883 216.4176 
L 315.016483 215.5248 
L 319.480483 216.864 
L 315.016483 218.2032 
L 315.462883 217.3104 
L 54.358038 217.3104 
L 54.358038 216.4176 
" style="fill:#0000ff;"/>
   </g>
   <g id="Quiver_7">
    <path clip-path="url(#pf1a93fe2c6)" d="M 54.358038 208.3536 
L 304.639183 208.3536 
L 304.192783 207.4608 
L 308.656783 208.8 
L 304.192783 210.1392 
L 304.639183 209.2464 
L 54.358038 209.2464 
L 54.358038 208.3536 
" style="fill:#0000ff;"/>
   </g>
   <g id="Quiver_8">
    <path clip-path="url(#pf1a93fe2c6)" d="M 54.358038 200.2896 
L 293.815637 200.2896 
L 293.369237 199.3968 
L 297.833237 200.736 
L 293.369237 202.0752 
L 293.815637 201.1824 
L 54.358038 201.1824 
L 54.358038 200.2896 
" style="fill:#0000ff;"/>
   </g>
   <g id="Quiver_9">
    <path clip-path="url(#pf1a93fe2c6)" d="M 54.358038 192.2256 
L 282.992263 192.2256 
L 282.545863 191.3328 
L 287.009863 192.672 
L 282.545863 194.0112 
L 282.992263 193.1184 
L 54.358038 193.1184 
L 54.358038 192.2256 
" style="fill:#0000ff;"/>
   </g>
   <g id="Quiver_10">
    <path clip-path="url(#pf1a93fe2c6)" d="M 54.358038 184.1616 
L 272.169078 184.1616 
L 271.722678 183.2688 
L 276.186678 184.608 
L 271.722678 185.9472 
L 272.169078 185.0544 
L 54.358038 185.0544 
L 54.358038 184.1616 
" style="fill:#0000ff;"/>
   </g>
   <g id="Quiver_11">
    <path clip-path="url(#pf1a93fe2c6)" d="M 54.358038 176.0976 
L 261.346097 176.0976 
L 260.899697 175.2048 
L 265.363697 176.544 
L 260.899697 177.8832 
L 261.346097 176.9904 
L 54.358038 176.9904 
L 54.358038 176.0976 
" style="fill:#0000ff;"/>
   </g>
   <g id="Quiver_12">
    <path clip-path="url(#pf1a93fe2c6)" d="M 54.358038 168.0336 
L 250.523333 168.0336 
L 250.076933 167.1408 
L 254.540933 168.48 
L 250.076933 169.8192 
L 250.523333 168.9264 
L 54.358038 168.9264 
L 54.358038 168.0336 
" style="fill:#0000ff;"/>
   </g>
   <g id="Quiver_13">
    <path clip-path="url(#pf1a93fe2c6)" d="M 54.358038 159.9696 
L 239.700796 159.9696 
L 239.254396 159.0768 
L 243.718396 160.416 
L 239.254396 161.7552 
L 239.700796 160.8624 
L 54.358038 160.8624 
L 54.358038 159.9696 
" style="fill:#0000ff;"/>
   </g>
   <g id="Quiver_14">
    <path clip-path="url(#pf1a93fe2c6)" d="M 54.358038 151.9056 
L 228.878494 151.9056 
L 228.432094 151.0128 
L 232.896094 152.352 
L 228.432094 153.6912 
L 228.878494 152.7984 
L 54.358038 152.7984 
L 54.358038 151.9056 
" style="fill:#0000ff;"/>
   </g>
   <g id="Quiver_15">
    <path clip-path="url(#pf1a93fe2c6)" d="M 54.358038 143.8416 
L 218.056433 143.8416 
L 217.610033 142.9488 
L 222.074033 144.288 
L 217.610033 145.6272 
L 218.056433 144.7344 
L 54.358038 144.7344 
L 54.358038 143.8416 
" style="fill:#0000ff;"/>
   </g>
   <g id="Quiver_16">
    <path clip-path="url(#pf1a93fe2c6)" d="M 54.358038 135.7776 
L 207.234615 135.7776 
L 206.788215 134.8848 
L 211.252215 136.224 
L 206.788215 137.5632 
L 207.234615 136.6704 
L 54.358038 136.6704 
L 54.358038 135.7776 
" style="fill:#0000ff;"/>
   </g>
   <g id="Quiver_17">
    <path clip-path="url(#pf1a93fe2c6)" d="M 54.358038 127.7136 
L 196.41304 127.7136 
L 195.96664 126.8208 
L 200.43064 128.16 
L 195.96664 129.4992 
L 196.41304 128.6064 
L 54.358038 128.6064 
L 54.358038 127.7136 
" style="fill:#0000ff;"/>
   </g>
   <g id="Quiver_18">
    <path clip-path="url(#pf1a93fe2c6)" d="M 54.358038 119.6496 
L 185.591705 119.6496 
L 185.145305 118.7568 
L 189.609305 120.096 
L 185.145305 121.4352 
L 185.591705 120.5424 
L 54.358038 120.5424 
L 54.358038 119.6496 
" style="fill:#0000ff;"/>
   </g>
   <g id="Quiver_19">
    <path clip-path="url(#pf1a93fe2c6)" d="M 54.358038 111.5856 
L 174.770605 111.5856 
L 174.324205 110.6928 
L 178.788205 112.032 
L 174.324205 113.3712 
L 174.770605 112.4784 
L 54.358038 112.4784 
L 54.358038 111.5856 
" style="fill:#0000ff;"/>
   </g>
   <g id="Quiver_20">
    <path clip-path="url(#pf1a93fe2c6)" d="M 54.358038 103.5216 
L 163.949733 103.5216 
L 163.503333 102.6288 
L 167.967333 103.968 
L 163.503333 105.3072 
L 163.949733 104.4144 
L 54.358038 104.4144 
L 54.358038 103.5216 
" style="fill:#0000ff;"/>
   </g>
   <g id="Quiver_21">
    <path clip-path="url(#pf1a93fe2c6)" d="M 54.358038 95.4576 
L 153.129078 95.4576 
L 152.682678 94.5648 
L 157.146678 95.904 
L 152.682678 97.2432 
L 153.129078 96.3504 
L 54.358038 96.3504 
L 54.358038 95.4576 
" style="fill:#0000ff;"/>
   </g>
   <g id="Quiver_22">
    <path clip-path="url(#pf1a93fe2c6)" d="M 54.358038 87.3936 
L 142.308626 87.3936 
L 141.862226 86.5008 
L 146.326226 87.84 
L 141.862226 89.1792 
L 142.308626 88.2864 
L 54.358038 88.2864 
L 54.358038 87.3936 
" style="fill:#0000ff;"/>
   </g>
   <g id="Quiver_23">
    <path clip-path="url(#pf1a93fe2c6)" d="M 54.358038 79.3296 
L 131.488364 79.3296 
L 131.041964 78.4368 
L 135.505964 79.776 
L 131.041964 81.1152 
L 131.488364 80.2224 
L 54.358038 80.2224 
L 54.358038 79.3296 
" style="fill:#0000ff;"/>
   </g>
   <g id="Quiver_24">
    <path clip-path="url(#pf1a93fe2c6)" d="M 54.358038 71.2656 
L 120.668274 71.2656 
L 120.221874 70.3728 
L 124.685874 71.712 
L 120.221874 73.0512 
L 120.668274 72.1584 
L 54.358038 72.1584 
L 54.358038 71.2656 
" style="fill:#0000ff;"/>
   </g>
   <g id="Quiver_25">
    <path clip-path="url(#pf1a93fe2c6)" d="M 54.358038 63.2016 
L 109.848337 63.2016 
L 109.401937 62.3088 
L 113.865937 63.648 
L 109.401937 64.9872 
L 109.848337 64.0944 
L 54.358038 64.0944 
L 54.358038 63.2016 
" style="fill:#0000ff;"/>
   </g>
   <g id="Quiver_26">
    <path clip-path="url(#pf1a93fe2c6)" d="M 54.358038 55.1376 
L 99.028533 55.1376 
L 98.582133 54.2448 
L 103.046133 55.584 
L 98.582133 56.9232 
L 99.028533 56.0304 
L 54.358038 56.0304 
L 54.358038 55.1376 
" style="fill:#0000ff;"/>
   </g>
   <g id="Quiver_27">
    <path clip-path="url(#pf1a93fe2c6)" d="M 54.358038 47.0736 
L 88.20884 47.0736 
L 87.76244 46.1808 
L 92.22644 47.52 
L 87.76244 48.8592 
L 88.20884 47.9664 
L 54.358038 47.9664 
L 54.358038 47.0736 
" style="fill:#0000ff;"/>
   </g>
   <g id="Quiver_28">
    <path clip-path="url(#pf1a93fe2c6)" d="M 54.358038 39.0096 
L 77.389233 39.0096 
L 76.942833 38.1168 
L 81.406833 39.456 
L 76.942833 40.7952 
L 77.389233 39.9024 
L 54.358038 39.9024 
L 54.358038 39.0096 
" style="fill:#0000ff;"/>
   </g>
   <g id="Quiver_29">
    <path clip-path="url(#pf1a93fe2c6)" d="M 54.358038 30.9456 
L 66.56969 30.9456 
L 66.12329 30.0528 
L 70.58729 31.392 
L 66.12329 32.7312 
L 66.56969 31.8384 
L 54.358038 31.8384 
L 54.358038 30.9456 
" style="fill:#0000ff;"/>
   </g>
   <g id="Quiver_30">
    <path clip-path="url(#pf1a93fe2c6)" d="M 54.358038 22.8816 
L 55.750184 22.8816 
L 55.303784 21.9888 
L 59.767784 23.328 
L 55.303784 24.6672 
L 55.750184 23.7744 
L 54.358038 23.7744 
L 54.358038 22.8816 
" style="fill:#0000ff;"/>
   </g>
   <g id="matplotlib.axis_1">
    <g id="xtick_1">
     <g id="line2d_1">
      <defs>
       <path d="M 0 0 
L 0 3.5 
" id="m557ea6d5da" style="stroke:#000000;stroke-width:0.8;"/>
      </defs>
      <g>
       <use style="stroke:#000000;stroke-width:0.8;" x="54.358038" xlink:href="#m557ea6d5da" y="273.312"/>
      </g>
     </g>
     <g id="text_1">
      <!-- $\mathdefault{0.00}$ -->
      <g transform="translate(45.502331 287.230498)scale(0.1 -0.1)">
       <defs>
        <path d="M 42 31.640625 
C 42 37.75 41.90625 48.125 37.703125 56.109375 
C 34 63.109375 28.09375 65.59375 22.90625 65.59375 
C 18.09375 65.59375 12 63.40625 8.203125 56.203125 
C 4.203125 48.71875 3.796875 39.4375 3.796875 31.640625 
C 3.796875 25.953125 3.90625 17.28125 7 9.671875 
C 11.296875 -0.609375 19 -2 22.90625 -2 
C 27.5 -2 34.5 -0.109375 38.59375 9.375 
C 41.59375 16.28125 42 24.359375 42 31.640625 
z
M 22.90625 -0.40625 
C 16.5 -0.40625 12.703125 5.078125 11.296875 12.6875 
C 10.203125 18.5625 10.203125 27.15625 10.203125 32.75 
C 10.203125 40.4375 10.203125 46.828125 11.5 52.921875 
C 13.40625 61.390625 19 64 22.90625 64 
C 27 64 32.296875 61.296875 34.203125 53.125 
C 35.5 47.4375 35.59375 40.734375 35.59375 32.75 
C 35.59375 26.25 35.59375 18.265625 34.40625 12.375 
C 32.296875 1.484375 26.40625 -0.40625 22.90625 -0.40625 
z
" id="CMR17-48"/>
        <path d="M 18.40625 4.796875 
C 18.40625 7.6875 16 9.671875 13.59375 9.671875 
C 10.703125 9.671875 8.703125 7.28125 8.703125 4.890625 
C 8.703125 2 11.09375 0 13.5 0 
C 16.40625 0 18.40625 2.390625 18.40625 4.796875 
z
" id="CMMI12-58"/>
       </defs>
       <use transform="scale(0.996264)" xlink:href="#CMR17-48"/>
       <use transform="translate(45.690477 0)scale(0.996264)" xlink:href="#CMMI12-58"/>
       <use transform="translate(72.787654 0)scale(0.996264)" xlink:href="#CMR17-48"/>
       <use transform="translate(118.478131 0)scale(0.996264)" xlink:href="#CMR17-48"/>
      </g>
     </g>
    </g>
    <g id="xtick_2">
     <g id="line2d_2">
      <g>
       <use style="stroke:#000000;stroke-width:0.8;" x="119.288947" xlink:href="#m557ea6d5da" y="273.312"/>
      </g>
     </g>
     <g id="text_2">
      <!-- $\mathdefault{0.01}$ -->
      <g transform="translate(110.43324 287.230498)scale(0.1 -0.1)">
       <defs>
        <path d="M 26.59375 63.40625 
C 26.59375 65.5 26.5 65.5 25.09375 65.5 
C 21.203125 61.1875 15.296875 59.796875 9.703125 59.796875 
C 9.40625 59.796875 8.90625 59.796875 8.796875 59.5 
C 8.703125 59.296875 8.703125 59.09375 8.703125 57 
C 11.796875 57 17 57.59375 21 59.984375 
L 21 7.203125 
C 21 3.6875 20.796875 2.5 12.203125 2.5 
L 9.203125 2.5 
L 9.203125 0 
C 14 0 19 0 23.796875 0 
C 28.59375 0 33.59375 0 38.40625 0 
L 38.40625 2.5 
L 35.40625 2.5 
C 26.796875 2.5 26.59375 3.59375 26.59375 7.15625 
z
" id="CMR17-49"/>
       </defs>
       <use transform="scale(0.996264)" xlink:href="#CMR17-48"/>
       <use transform="translate(45.690477 0)scale(0.996264)" xlink:href="#CMMI12-58"/>
       <use transform="translate(72.787654 0)scale(0.996264)" xlink:href="#CMR17-48"/>
       <use transform="translate(118.478131 0)scale(0.996264)" xlink:href="#CMR17-49"/>
      </g>
     </g>
    </g>
    <g id="xtick_3">
     <g id="line2d_3">
      <g>
       <use style="stroke:#000000;stroke-width:0.8;" x="184.219856" xlink:href="#m557ea6d5da" y="273.312"/>
      </g>
     </g>
     <g id="text_3">
      <!-- $\mathdefault{0.02}$ -->
      <g transform="translate(175.364149 287.230498)scale(0.1 -0.1)">
       <defs>
        <path d="M 41.703125 15.453125 
L 39.90625 15.453125 
C 38.90625 8.375 38.09375 7.171875 37.703125 6.5625 
C 37.203125 5.765625 30 5.765625 28.59375 5.765625 
L 9.40625 5.765625 
C 13 9.671875 20 16.75 28.5 24.953125 
C 34.59375 30.734375 41.703125 37.53125 41.703125 47.421875 
C 41.703125 59.21875 32.296875 66 21.796875 66 
C 10.796875 66 4.09375 56.3125 4.09375 47.34375 
C 4.09375 43.4375 7 42.9375 8.203125 42.9375 
C 9.203125 42.9375 12.203125 43.546875 12.203125 47.03125 
C 12.203125 50.109375 9.59375 51 8.203125 51 
C 7.59375 51 7 50.90625 6.59375 50.703125 
C 8.5 59.21875 14.296875 63.40625 20.40625 63.40625 
C 29.09375 63.40625 34.796875 56.515625 34.796875 47.421875 
C 34.796875 38.734375 29.703125 31.25 24 24.75 
L 4.09375 2.28125 
L 4.09375 0 
L 39.296875 0 
z
" id="CMR17-50"/>
       </defs>
       <use transform="scale(0.996264)" xlink:href="#CMR17-48"/>
       <use transform="translate(45.690477 0)scale(0.996264)" xlink:href="#CMMI12-58"/>
       <use transform="translate(72.787654 0)scale(0.996264)" xlink:href="#CMR17-48"/>
       <use transform="translate(118.478131 0)scale(0.996264)" xlink:href="#CMR17-50"/>
      </g>
     </g>
    </g>
    <g id="xtick_4">
     <g id="line2d_4">
      <g>
       <use style="stroke:#000000;stroke-width:0.8;" x="249.150765" xlink:href="#m557ea6d5da" y="273.312"/>
      </g>
     </g>
     <g id="text_4">
      <!-- $\mathdefault{0.03}$ -->
      <g transform="translate(240.295058 287.230498)scale(0.1 -0.1)">
       <defs>
        <path d="M 22.09375 33.703125 
C 31 33.703125 34.90625 25.96875 34.90625 17.03125 
C 34.90625 5 28.5 0.390625 22.703125 0.390625 
C 17.40625 0.390625 8.796875 3.03125 6.09375 10.828125 
C 6.59375 10.625 7.09375 10.625 7.59375 10.625 
C 10 10.625 11.796875 12.21875 11.796875 14.8125 
C 11.796875 17.703125 9.59375 19 7.59375 19 
C 5.90625 19 3.296875 18.203125 3.296875 14.46875 
C 3.296875 5.234375 12.296875 -2 22.90625 -2 
C 34 -2 42.5 6.71875 42.5 16.953125 
C 42.5 26.671875 34.5 33.703125 25 34.796875 
C 32.59375 36.375 39.90625 43.0625 39.90625 52.015625 
C 39.90625 59.6875 32 65.296875 23 65.296875 
C 13.90625 65.296875 5.90625 59.828125 5.90625 52.015625 
C 5.90625 48.59375 8.5 48 9.796875 48 
C 11.90625 48 13.703125 49.296875 13.703125 51.890625 
C 13.703125 54.46875 11.90625 55.765625 9.796875 55.765625 
C 9.40625 55.765625 8.90625 55.765625 8.5 55.578125 
C 11.40625 61.859375 19.296875 63 22.796875 63 
C 26.296875 63 32.90625 61.328125 32.90625 51.875 
C 32.90625 49.109375 32.5 44.1875 29.09375 39.84375 
C 26.09375 36 22.703125 36 19.40625 35.6875 
C 18.90625 35.6875 16.59375 35.453125 16.203125 35.453125 
C 15.5 35.359375 15.09375 35.265625 15.09375 34.5 
C 15.09375 33.796875 15.203125 33.703125 17.203125 33.703125 
z
" id="CMR17-51"/>
       </defs>
       <use transform="scale(0.996264)" xlink:href="#CMR17-48"/>
       <use transform="translate(45.690477 0)scale(0.996264)" xlink:href="#CMMI12-58"/>
       <use transform="translate(72.787654 0)scale(0.996264)" xlink:href="#CMR17-48"/>
       <use transform="translate(118.478131 0)scale(0.996264)" xlink:href="#CMR17-51"/>
      </g>
     </g>
    </g>
    <g id="xtick_5">
     <g id="line2d_5">
      <g>
       <use style="stroke:#000000;stroke-width:0.8;" x="314.081674" xlink:href="#m557ea6d5da" y="273.312"/>
      </g>
     </g>
     <g id="text_5">
      <!-- $\mathdefault{0.04}$ -->
      <g transform="translate(305.225967 287.230498)scale(0.1 -0.1)">
       <defs>
        <path d="M 33.59375 64.40625 
C 33.59375 66.5 33.5 66.5 31.703125 66.5 
L 2 19.59375 
L 2 17 
L 27.796875 17 
L 27.796875 7.140625 
C 27.796875 3.5 27.59375 2.5 20.59375 2.5 
L 18.703125 2.5 
L 18.703125 0 
C 21.90625 0 27.296875 0 30.703125 0 
C 34.09375 0 39.5 0 42.703125 0 
L 42.703125 2.5 
L 40.796875 2.5 
C 33.796875 2.5 33.59375 3.5 33.59375 7.140625 
L 33.59375 17 
L 43.796875 17 
L 43.796875 19.59375 
L 33.59375 19.59375 
z
M 28.09375 57.859375 
L 28.09375 19.59375 
L 4 19.59375 
z
" id="CMR17-52"/>
       </defs>
       <use transform="scale(0.996264)" xlink:href="#CMR17-48"/>
       <use transform="translate(45.690477 0)scale(0.996264)" xlink:href="#CMMI12-58"/>
       <use transform="translate(72.787654 0)scale(0.996264)" xlink:href="#CMR17-48"/>
       <use transform="translate(118.478131 0)scale(0.996264)" xlink:href="#CMR17-52"/>
      </g>
     </g>
    </g>
    <g id="xtick_6">
     <g id="line2d_6">
      <g>
       <use style="stroke:#000000;stroke-width:0.8;" x="379.012583" xlink:href="#m557ea6d5da" y="273.312"/>
      </g>
     </g>
     <g id="text_6">
      <!-- $\mathdefault{0.05}$ -->
      <g transform="translate(370.156876 287.230498)scale(0.1 -0.1)">
       <defs>
        <path d="M 11.40625 57.6875 
C 12.40625 57.28125 16.5 56 20.703125 56 
C 30 56 35.09375 61.109375 38 64.0625 
C 38 64.953125 38 65.5 37.40625 65.5 
C 37.296875 65.5 37.09375 65.5 36.296875 65.046875 
C 32.796875 63.40625 28.703125 62.078125 23.703125 62.078125 
C 20.703125 62.078125 16.203125 62.484375 11.296875 64.671875 
C 10.203125 65.171875 10 65.171875 9.90625 65.171875 
C 9.40625 65.171875 9.296875 65.0625 9.296875 63.078125 
L 9.296875 34.421875 
C 9.296875 32.640625 9.296875 32.140625 10.296875 32.140625 
C 10.796875 32.140625 11 32.34375 11.5 33.03125 
C 14.703125 37.515625 19.09375 39.40625 24.09375 39.40625 
C 27.59375 39.40625 35.09375 37.21875 35.09375 20.140625 
C 35.09375 16.953125 35.09375 11.171875 32.09375 6.578125 
C 29.59375 2.484375 25.703125 0.390625 21.40625 0.390625 
C 14.796875 0.390625 8.09375 5 6.296875 12.71875 
C 6.703125 12.609375 7.5 12.421875 7.90625 12.421875 
C 9.203125 12.421875 11.703125 13.125 11.703125 16.21875 
C 11.703125 18.90625 9.796875 20 7.90625 20 
C 5.59375 20 4.09375 18.59375 4.09375 15.796875 
C 4.09375 7.09375 11 -2 21.59375 -2 
C 31.90625 -2 41.703125 6.875 41.703125 19.75 
C 41.703125 31.71875 33.90625 41 24.203125 41 
C 19.09375 41 14.796875 39.109375 11.40625 35.53125 
z
" id="CMR17-53"/>
       </defs>
       <use transform="scale(0.996264)" xlink:href="#CMR17-48"/>
       <use transform="translate(45.690477 0)scale(0.996264)" xlink:href="#CMMI12-58"/>
       <use transform="translate(72.787654 0)scale(0.996264)" xlink:href="#CMR17-48"/>
       <use transform="translate(118.478131 0)scale(0.996264)" xlink:href="#CMR17-53"/>
      </g>
     </g>
    </g>
    <g id="text_7">
     <!-- velocity in x-direction $\mathbf{u}_x$ [$\frac{lu}{s}$] -->
     <g transform="translate(152.462721 301.933222)scale(0.1 -0.1)">
      <defs>
       <path d="M 39.09375 33.796875 
C 40 36 41.59375 40 47.40625 40 
L 47.40625 42.59375 
C 45.5 42.59375 43 42.59375 41.09375 42.59375 
C 39 42.59375 35.703125 42.59375 33.703125 42.6875 
L 33.703125 40.09375 
C 36.203125 39.890625 37.59375 38.703125 37.59375 36.109375 
C 37.59375 35.203125 37.59375 35 37 33.609375 
L 26 5.890625 
L 14.09375 35.71875 
C 13.5 37.015625 13.5 37.203125 13.5 37.609375 
C 13.5 40 16.796875 40 18.296875 40 
L 18.296875 42.6875 
C 15.90625 42.59375 11.5 42.59375 9 42.59375 
C 6.296875 42.59375 3.203125 42.59375 1 42.6875 
L 1 40 
C 4.796875 40 6.90625 40 8.09375 36.90625 
L 22.59375 0.6875 
C 23.203125 -0.796875 23.296875 -1 24.203125 -1 
C 25.09375 -1 25.203125 -0.796875 25.796875 0.6875 
z
" id="CMR17-118"/>
       <path d="M 38.09375 23 
C 38.5 23.40625 38.5 23.609375 38.5 24.625 
C 38.5 34.96875 33.09375 44 21.703125 44 
C 11.09375 44 2.703125 33.890625 2.703125 21.609375 
C 2.703125 8.609375 12.203125 -1 22.796875 -1 
C 34 -1 38.40625 9.484375 38.40625 11.5625 
C 38.40625 12.25 37.796875 12.25 37.59375 12.25 
C 36.90625 12.25 36.796875 12.046875 36.40625 10.875 
C 34.203125 4.140625 28.703125 0.796875 23.5 0.796875 
C 19.203125 0.796875 14.90625 3.171875 12.203125 7.5 
C 9.09375 12.546875 9.09375 18.375 9.09375 23 
z
M 9.203125 24.5 
C 9.90625 39.140625 17.59375 42.40625 21.59375 42.40625 
C 28.40625 42.40625 33 35.890625 33.09375 24.5 
z
" id="CMR17-101"/>
       <path d="M 15.296875 68.6875 
L 3.40625 67.59375 
L 3.40625 65 
C 9.296875 65 10.203125 64.40625 10.203125 59.640625 
L 10.203125 6.65625 
C 10.203125 2.875 9.796875 2.390625 3.40625 2.390625 
L 3.40625 -0.203125 
C 5.796875 0 10.203125 0 12.703125 0 
C 15.296875 0 19.703125 0 22.09375 -0.203125 
L 22.09375 2.390625 
C 15.703125 2.390625 15.296875 2.78125 15.296875 6.65625 
z
" id="CMR17-108"/>
       <path d="M 43.09375 21.1875 
C 43.09375 34 33.796875 44 22.90625 44 
C 12 44 2.703125 34 2.703125 21.1875 
C 2.703125 8.609375 12 -1 22.90625 -1 
C 33.796875 -1 43.09375 8.609375 43.09375 21.1875 
z
M 22.90625 0.796875 
C 18.203125 0.796875 14.203125 3.59375 11.90625 7.5 
C 9.40625 11.984375 9.09375 17.59375 9.09375 22 
C 9.09375 26.203125 9.296875 31.40625 11.90625 35.90625 
C 13.90625 39.203125 17.796875 42.40625 22.90625 42.40625 
C 27.40625 42.40625 31.203125 39.90625 33.59375 36.40625 
C 36.703125 31.703125 36.703125 25.109375 36.703125 22 
C 36.703125 18.09375 36.5 12.109375 33.796875 7.296875 
C 31 2.703125 26.703125 0.796875 22.90625 0.796875 
z
" id="CMR17-111"/>
       <path d="M 34.90625 35 
C 33 35 30.203125 35 30.203125 31.515625 
C 30.203125 28.71875 32.5 27.921875 33.796875 27.921875 
C 34.5 27.921875 37.40625 28.234375 37.40625 31.625 
C 37.40625 38.546875 30.59375 43.796875 22.90625 43.796875 
C 12.296875 43.796875 3.296875 34.03125 3.296875 21.296875 
C 3.296875 8.0625 12.703125 -1 22.90625 -1 
C 35.296875 -1 38.40625 10.578125 38.40625 11.6875 
C 38.40625 12.09375 38.296875 12.390625 37.59375 12.390625 
C 36.90625 12.390625 36.796875 12.296875 36.40625 10.984375 
C 33.796875 2.8125 28.09375 0.796875 23.796875 0.796875 
C 17.40625 0.796875 9.703125 6.671875 9.703125 21.390625 
C 9.703125 36.53125 17.09375 42 23 42 
C 26.90625 42 32.703125 40.203125 34.90625 35 
z
" id="CMR17-99"/>
       <path d="M 15.5 61.078125 
C 15.5 63.265625 13.703125 65.15625 11.40625 65.15625 
C 9.203125 65.15625 7.296875 63.375 7.296875 61.078125 
C 7.296875 58.890625 9.09375 57 11.40625 57 
C 13.59375 57 15.5 58.796875 15.5 61.078125 
z
M 3.796875 42.28125 
L 3.796875 39.703125 
C 9.40625 39.703125 10.203125 39.09375 10.203125 34.328125 
L 10.203125 6.671875 
C 10.203125 2.875 9.796875 2.390625 3.40625 2.390625 
L 3.40625 -0.203125 
C 5.796875 0 10.09375 0 12.59375 0 
C 15 0 19.09375 0 21.40625 -0.203125 
L 21.40625 2.390625 
C 15.5 2.390625 15.296875 2.984375 15.296875 6.5625 
L 15.296875 43.375 
z
" id="CMR17-105"/>
       <path d="M 15.09375 40 
L 29.09375 40 
L 29.09375 42.578125 
L 15.09375 42.578125 
L 15.09375 61 
L 13.296875 61 
C 13.09375 50.703125 9.59375 41.6875 1.09375 41.6875 
L 1.09375 40 
L 9.796875 40 
L 9.796875 12.046875 
C 9.796875 10.15625 9.796875 -1 21.40625 -1 
C 27.296875 -1 30.703125 4.78125 30.703125 12.140625 
L 30.703125 17.8125 
L 28.90625 17.8125 
L 28.90625 12.234375 
C 28.90625 5.375 26.203125 0.796875 22 0.796875 
C 19.09375 0.796875 15.09375 2.78125 15.09375 11.84375 
z
" id="CMR17-116"/>
       <path d="M 39 34.328125 
C 41.5 40.40625 46 40.40625 47.40625 40.40625 
L 47.40625 43 
C 45.5 43 43 43 41.09375 43 
C 39 43 35.703125 43 33.703125 43.09375 
L 33.703125 40.5 
C 37.5 40.203125 37.59375 37.40625 37.59375 36.609375 
C 37.59375 35.625 37.40625 35.125 36.90625 33.921875 
L 26 7.015625 
L 14.09375 36.03125 
C 13.59375 37.21875 13.59375 37.90625 13.59375 38.015625 
C 13.59375 40.203125 15.90625 40.40625 18.296875 40.40625 
L 18.296875 43.09375 
C 15.90625 43 11.59375 43 9.09375 43 
C 6.40625 43 3.203125 43 1 43.09375 
L 1 40.40625 
C 6.40625 40.40625 7 39.90625 8.296875 36.71875 
L 23.203125 0.234375 
C 18.703125 -11.53125 16.09375 -18.40625 9.796875 -18.40625 
C 8.703125 -18.40625 6.203125 -18.109375 4.40625 -16.3125 
C 6.703125 -16.109375 7.703125 -14.71875 7.703125 -13.015625 
C 7.703125 -11.328125 6.5 -9.828125 4.5 -9.828125 
C 2.296875 -9.828125 1.203125 -11.328125 1.203125 -13.125 
C 1.203125 -17.109375 5.296875 -20 9.796875 -20 
C 15.59375 -20 19.203125 -14.40625 21.203125 -9.4375 
z
" id="CMR17-121"/>
       <path d="M 41.5 30.203125 
C 41.5 35.296875 40.5 43.59375 28.703125 43.59375 
C 20.796875 43.59375 16.703125 37.5 15.203125 33.5 
L 15.09375 33.5 
L 15.09375 43.59375 
L 3.296875 42.5 
L 3.296875 39.90625 
C 9.203125 39.90625 10.09375 39.296875 10.09375 34.5 
L 10.09375 6.6875 
C 10.09375 2.875 9.703125 2.390625 3.296875 2.390625 
L 3.296875 -0.203125 
C 5.703125 0 10.09375 0 12.703125 0 
C 15.296875 0 19.796875 0 22.203125 -0.203125 
L 22.203125 2.390625 
C 15.796875 2.390625 15.40625 2.78125 15.40625 6.6875 
L 15.40625 25.90625 
C 15.40625 35.109375 21 42 28 42 
C 35.40625 42 36.203125 35.40625 36.203125 30.59375 
L 36.203125 6.6875 
C 36.203125 2.875 35.796875 2.390625 29.40625 2.390625 
L 29.40625 -0.203125 
C 31.796875 0 36.203125 0 38.796875 0 
C 41.40625 0 45.90625 0 48.296875 -0.203125 
L 48.296875 2.390625 
C 41.90625 2.390625 41.5 2.78125 41.5 6.6875 
z
" id="CMR17-110"/>
       <path d="M 26 23.078125 
C 29 26.96875 32.40625 31.34375 35.203125 34.625 
C 38.5 38.40625 42.296875 40 46.703125 40 
L 46.703125 42.59375 
C 45 42.59375 41.5 42.59375 39.703125 42.59375 
C 37 42.59375 33.90625 42.59375 31.59375 42.6875 
L 31.59375 40.09375 
C 33 39.890625 33.796875 38.890625 33.796875 37.5 
C 33.796875 35.703125 32.796875 34.609375 32.296875 33.921875 
L 24.90625 24.578125 
L 16.09375 36.03125 
C 15.203125 37.125 15.203125 37.3125 15.203125 37.8125 
C 15.203125 39.015625 16.203125 40 17.90625 40 
L 17.90625 42.6875 
C 15.5 42.59375 11.203125 42.59375 8.703125 42.59375 
C 6 42.59375 2.796875 42.59375 0.59375 42.6875 
L 0.59375 40 
C 6 40 7.203125 39.59375 9.59375 36.609375 
L 21.09375 21.796875 
C 21.296875 21.59375 21.796875 21 21.796875 20.703125 
C 21.796875 20.296875 13.09375 9.671875 12 8.28125 
C 7.5 2.890625 2.796875 2.5 0.09375 2.5 
L 0.09375 0 
C 1.796875 0 5.296875 0 7.09375 0 
C 9.09375 0 13.5 0 15.296875 -0.09375 
L 15.296875 2.5 
C 14.703125 2.59375 13.09375 2.796875 13.09375 5.078125 
C 13.09375 6.875 13.90625 7.96875 14.796875 9.15625 
L 23.09375 19.3125 
L 31.796875 8 
C 32.59375 6.90625 33.796875 5.40625 33.796875 4.703125 
C 33.796875 3.296875 32.59375 2.5 31 2.5 
L 31 -0.09375 
C 33.40625 0 37.703125 0 40.203125 0 
C 42.90625 0 46.09375 0 48.296875 -0.09375 
L 48.296875 2.5 
C 43.296875 2.5 41.796875 2.6875 39.40625 5.78125 
z
" id="CMR17-120"/>
       <path d="M 25.5 19 
L 25.5 23.375 
L 0.40625 23.375 
L 0.40625 19 
z
" id="CMR17-45"/>
       <path d="M 29.203125 67.59375 
L 29.203125 65 
C 35.09375 65 36 64.40625 36 59.6875 
L 36 36.640625 
C 35.59375 37.140625 31.5 43.59375 23.40625 43.59375 
C 13.203125 43.59375 3.296875 34.5 3.296875 21.3125 
C 3.296875 8.203125 12.59375 -1 22.40625 -1 
C 30.90625 -1 35.296875 5.265625 35.796875 5.9375 
L 35.796875 -0.984375 
L 47.90625 -0.984375 
L 47.90625 2 
C 42 2 41.09375 2.59375 41.09375 7.390625 
L 41.09375 68.6875 
z
M 35.796875 11.796875 
C 35.796875 8.796875 34 6.09375 31.703125 4.09375 
C 28.296875 1.09375 24.90625 0.59375 23 0.59375 
C 20.09375 0.59375 9.703125 2.09375 9.703125 21.1875 
C 9.703125 40.8125 21.296875 42 23.90625 42 
C 28.5 42 32.203125 39.40625 34.5 35.796875 
C 35.796875 33.703125 35.796875 33.40625 35.796875 31.609375 
z
" id="CMR17-100"/>
       <path d="M 15 23.390625 
C 15 33 19.09375 42 26.59375 42 
C 27.296875 42 28 41.90625 28.703125 41.59375 
C 28.703125 41.59375 26.5 40.890625 26.5 38.3125 
C 26.5 35.90625 28.40625 34.90625 29.90625 34.90625 
C 31.09375 34.90625 33.296875 35.609375 33.296875 38.40625 
C 33.296875 41.609375 30.09375 43.59375 26.703125 43.59375 
C 19.09375 43.59375 15.796875 36.203125 14.796875 32.703125 
L 14.703125 32.703125 
L 14.703125 43.59375 
L 3.09375 42.5 
L 3.09375 39.90625 
C 9 39.90625 9.90625 39.296875 9.90625 34.5 
L 9.90625 6.6875 
C 9.90625 2.875 9.5 2.390625 3.09375 2.390625 
L 3.09375 -0.203125 
C 5.5 0 10.09375 0 12.703125 0 
C 15.59375 0 20.703125 0 23.40625 -0.203125 
L 23.40625 2.390625 
C 16.203125 2.390625 15 2.390625 15 6.875 
z
" id="CMR17-114"/>
       <path d="M 35.296875 44.671875 
L 35.296875 40 
C 41.5 40 42.203125 40 42.203125 36.125 
L 42.203125 16.5 
C 42.203125 8.890625 37.703125 2.78125 29.90625 2.78125 
C 22.40625 2.78125 22 5.265625 22 10.6875 
L 22 44.671875 
L 4.203125 44.671875 
L 4.203125 40 
C 10.40625 40 11.09375 40 11.09375 36.125 
L 11.09375 12.40625 
C 11.09375 2.390625 17.796875 -0.5 28.5 -0.5 
C 30.90625 -0.5 38.296875 -0.5 42.59375 7.75 
L 42.703125 7.75 
L 42.703125 0 
L 60 0 
L 60 4.5625 
C 53.796875 4.5625 53.09375 4.5625 53.09375 8.4375 
L 53.09375 44.671875 
z
" id="CMBX12-117"/>
       <path d="M 47.40625 40.71875 
C 44.203125 40.109375 43 37.71875 43 35.828125 
C 43 33.421875 44.90625 32.625 46.296875 32.625 
C 49.296875 32.625 51.40625 35.21875 51.40625 37.921875 
C 51.40625 42.109375 46.59375 44 42.40625 44 
C 36.296875 44 32.90625 38.015625 32 36.125 
C 29.703125 44 23.5 44 21.703125 44 
C 11.5 44 6.09375 30.9375 6.09375 28.734375 
C 6.09375 28.34375 6.5 27.84375 7.203125 27.84375 
C 8 27.84375 8.203125 28.4375 8.40625 28.84375 
C 11.796875 39.921875 18.5 42.015625 21.40625 42.015625 
C 25.90625 42.015625 26.796875 37.8125 26.796875 35.421875 
C 26.796875 33.234375 26.203125 30.9375 25 26.140625 
L 21.59375 12.46875 
C 20.09375 6.484375 17.203125 1 11.90625 1 
C 11.40625 1 8.90625 1 6.796875 2.296875 
C 10.40625 3 11.203125 5.984375 11.203125 7.1875 
C 11.203125 9.1875 9.703125 10.375 7.796875 10.375 
C 5.40625 10.375 2.796875 8.28125 2.796875 5.09375 
C 2.796875 0.890625 7.5 -1 11.796875 -1 
C 16.59375 -1 20 2.796875 22.09375 6.890625 
C 23.703125 1 28.703125 -1 32.40625 -1 
C 42.59375 -1 48 12.078125 48 14.265625 
C 48 14.765625 47.59375 15.171875 47 15.171875 
C 46.09375 15.171875 46 14.671875 45.703125 13.875 
C 43 5.09375 37.203125 1 32.703125 1 
C 29.203125 1 27.296875 3.59375 27.296875 7.6875 
C 27.296875 9.875 27.703125 11.46875 29.296875 18.0625 
L 32.796875 31.625 
C 34.296875 37.625 37.703125 42.015625 42.296875 42.015625 
C 42.5 42.015625 45.296875 42.015625 47.40625 40.71875 
z
" id="CMMI12-120"/>
       <path d="M 23.5 -25 
L 23.5 -21.515625 
L 14.09375 -21.515625 
L 14.09375 71 
L 23.5 71 
L 23.5 74.484375 
L 10.59375 74.484375 
L 10.59375 -25 
z
" id="CMR17-91"/>
       <path d="M 25.40625 66.515625 
C 25.5 66.90625 25.703125 67.5 25.703125 68 
C 25.703125 69 24.703125 69 24.5 69 
C 24.40625 69 20.796875 68.640625 19 68.390625 
C 17.296875 68.390625 15.796875 68.09375 14 68.09375 
C 11.59375 67.890625 10.90625 67.796875 10.90625 66 
C 10.90625 65 11.90625 65 12.90625 65 
C 18 65 18 64.09375 18 63.109375 
C 18 62.71875 18 62.515625 17.5 60.734375 
L 5.09375 11.421875 
C 4.796875 10.328125 4.59375 9.53125 4.59375 7.953125 
C 4.59375 2.984375 8.296875 -1 13.40625 -1 
C 16.703125 -1 18.90625 1.1875 20.5 4.28125 
C 22.203125 7.546875 23.59375 13.8125 23.59375 14.203125 
C 23.59375 14.703125 23.203125 15.109375 22.59375 15.109375 
C 21.703125 15.109375 21.59375 14.609375 21.203125 13.125 
C 19.40625 6.265625 17.59375 1 13.59375 1 
C 10.59375 1 10.59375 4.171875 10.59375 5.578125 
C 10.59375 5.96875 10.59375 8.046875 11.296875 10.84375 
z
" id="CMMI12-108"/>
       <path d="M 34.09375 5.78125 
C 35.40625 0.203125 40.203125 -1 42.59375 -1 
C 45.796875 -1 48.203125 1.09375 49.796875 4.484375 
C 51.5 8.078125 52.796875 13.96875 52.796875 14.265625 
C 52.796875 14.765625 52.40625 15.171875 51.796875 15.171875 
C 50.90625 15.171875 50.796875 14.671875 50.40625 13.171875 
C 48.59375 6.28125 46.796875 1 42.796875 1 
C 39.796875 1 39.796875 4.296875 39.796875 5.59375 
C 39.796875 7.890625 40.09375 8.875 41.09375 13.078125 
C 41.796875 15.765625 42.5 18.453125 43.09375 21.25 
L 47.203125 37.515625 
C 47.90625 40.015625 47.90625 40.21875 47.90625 40.515625 
C 47.90625 42.015625 46.703125 43.015625 45.203125 43.015625 
C 42.296875 43.015625 41.59375 40.515625 41 38.015625 
C 40 34.125 34.59375 12.671875 33.90625 9.1875 
C 33.796875 9.1875 29.90625 1 22.59375 1 
C 17.40625 1 16.40625 5.484375 16.40625 9.1875 
C 16.40625 14.875 19.203125 22.84375 21.796875 29.53125 
C 23 32.734375 23.5 34.03125 23.5 36.015625 
C 23.5 40.3125 20.40625 44 15.59375 44 
C 6.40625 44 2.703125 29.53125 2.703125 28.734375 
C 2.703125 28.34375 3.09375 27.84375 3.796875 27.84375 
C 4.703125 27.84375 4.796875 28.234375 5.203125 29.625 
C 7.59375 38.140625 11.5 41.90625 15.296875 41.90625 
C 16.296875 41.90625 17.90625 41.90625 17.90625 38.71875 
C 17.90625 36.125 16.796875 33.234375 15.296875 29.4375 
C 10.90625 17.5625 10.40625 13.765625 10.40625 10.78125 
C 10.40625 0.59375 18.09375 -1 22.203125 -1 
C 28.59375 -1 32.09375 3.390625 34.09375 5.78125 
z
" id="CMMI12-117"/>
       <path d="M 22.796875 20 
C 24.5 19.703125 27.203125 19.109375 27.796875 19 
C 29.09375 18.625 33.59375 17.03125 33.59375 12.234375 
C 33.59375 9.15625 30.796875 1.09375 19.203125 1.09375 
C 17.09375 1.09375 9.59375 1.09375 7.59375 6.8125 
C 11.59375 6.3125 13.59375 9.421875 13.59375 11.640625 
C 13.59375 13.75 12.203125 14.84375 10.203125 14.84375 
C 8 14.84375 5.09375 13.140625 5.09375 8.625 
C 5.09375 2.703125 11.09375 -1 19.09375 -1 
C 34.296875 -1 38.796875 10.171875 38.796875 15.375 
C 38.796875 16.859375 38.796875 19.65625 35.59375 22.84375 
C 33.09375 25.25 30.703125 25.75 25.296875 26.84375 
C 22.59375 27.4375 18.296875 28.34375 18.296875 32.828125 
C 18.296875 34.828125 20.09375 42.015625 29.59375 42.015625 
C 33.796875 42.015625 37.90625 40.453125 38.90625 37 
C 34.5 37 34.296875 33.203125 34.296875 33.109375 
C 34.296875 31 36.203125 30.40625 37.09375 30.40625 
C 38.5 30.40625 41.296875 31.484375 41.296875 35.640625 
C 41.296875 39.765625 37.5 44 29.703125 44 
C 16.59375 44 13.09375 33.75 13.09375 29.671875 
C 13.09375 22.09375 20.5 20.5 22.796875 20 
z
" id="CMMI12-115"/>
       <path d="M 14.296875 74.484375 
L 1.40625 74.484375 
L 1.40625 71 
L 10.796875 71 
L 10.796875 -21.515625 
L 1.40625 -21.515625 
L 1.40625 -25 
L 14.296875 -25 
z
" id="CMR17-93"/>
      </defs>
      <use transform="scale(0.996264)" xlink:href="#CMR17-118"/>
      <use transform="translate(45.690462 0)scale(0.996264)" xlink:href="#CMR17-101"/>
      <use transform="translate(86.176122 0)scale(0.996264)" xlink:href="#CMR17-108"/>
      <use transform="translate(111.047181 0)scale(0.996264)" xlink:href="#CMR17-111"/>
      <use transform="translate(159.340097 0)scale(0.996264)" xlink:href="#CMR17-99"/>
      <use transform="translate(199.825757 0)scale(0.996264)" xlink:href="#CMR17-105"/>
      <use transform="translate(224.696816 0)scale(0.996264)" xlink:href="#CMR17-116"/>
      <use transform="translate(257.37513 0)scale(0.996264)" xlink:href="#CMR17-121"/>
      <use transform="translate(335.744012 0)scale(0.996264)" xlink:href="#CMR17-105"/>
      <use transform="translate(360.61507 0)scale(0.996264)" xlink:href="#CMR17-110"/>
      <use transform="translate(441.586406 0)scale(0.996264)" xlink:href="#CMR17-120"/>
      <use transform="translate(489.879322 0)scale(0.996264)" xlink:href="#CMR17-45"/>
      <use transform="translate(519.955289 0)scale(0.996264)" xlink:href="#CMR17-100"/>
      <use transform="translate(570.850658 0)scale(0.996264)" xlink:href="#CMR17-105"/>
      <use transform="translate(595.721717 0)scale(0.996264)" xlink:href="#CMR17-114"/>
      <use transform="translate(631.002485 0)scale(0.996264)" xlink:href="#CMR17-101"/>
      <use transform="translate(671.488145 0)scale(0.996264)" xlink:href="#CMR17-99"/>
      <use transform="translate(711.973806 0)scale(0.996264)" xlink:href="#CMR17-116"/>
      <use transform="translate(747.254573 0)scale(0.996264)" xlink:href="#CMR17-105"/>
      <use transform="translate(772.125632 0)scale(0.996264)" xlink:href="#CMR17-111"/>
      <use transform="translate(817.816109 0)scale(0.996264)" xlink:href="#CMR17-110"/>
      <use transform="translate(898.787445 0)scale(0.996264)" xlink:href="#CMBX12-117"/>
      <use transform="translate(961.053946 -14.943915)scale(0.697382)" xlink:href="#CMMI12-120"/>
      <use transform="translate(1030.431703 0)scale(0.996264)" xlink:href="#CMR17-91"/>
      <use transform="translate(1056.498276 39.226102)scale(0.697382)" xlink:href="#CMMI12-108"/>
      <use transform="translate(1078.372059 39.226102)scale(0.697382)" xlink:href="#CMMI12-117"/>
      <use transform="translate(1070.784759 -34.355253)scale(0.697382)" xlink:href="#CMMI12-115"/>
      <use transform="translate(1118.431629 0)scale(0.996264)" xlink:href="#CMR17-93"/>
      <path d="M 1056.498276 22.914133 
L 1117.236115 22.914133 
L 1117.236115 26.899083 
L 1056.498276 26.899083 
L 1056.498276 22.914133 
z
"/>
     </g>
    </g>
   </g>
   <g id="matplotlib.axis_2">
    <g id="ytick_1">
     <g id="line2d_7">
      <defs>
       <path d="M 0 0 
L -3.5 0 
" id="m8c9febaf99" style="stroke:#000000;stroke-width:0.8;"/>
      </defs>
      <g>
       <use style="stroke:#000000;stroke-width:0.8;" x="38.125311" xlink:href="#m8c9febaf99" y="257.184"/>
      </g>
     </g>
     <g id="text_8">
      <!-- $\mathdefault{0}$ -->
      <g transform="translate(26.143975 260.643249)scale(0.1 -0.1)">
       <use transform="scale(0.996264)" xlink:href="#CMR17-48"/>
      </g>
     </g>
    </g>
    <g id="ytick_2">
     <g id="line2d_8">
      <g>
       <use style="stroke:#000000;stroke-width:0.8;" x="38.125311" xlink:href="#m8c9febaf99" y="216.864"/>
      </g>
     </g>
     <g id="text_9">
      <!-- $\mathdefault{5}$ -->
      <g transform="translate(26.143975 220.323249)scale(0.1 -0.1)">
       <use transform="scale(0.996264)" xlink:href="#CMR17-53"/>
      </g>
     </g>
    </g>
    <g id="ytick_3">
     <g id="line2d_9">
      <g>
       <use style="stroke:#000000;stroke-width:0.8;" x="38.125311" xlink:href="#m8c9febaf99" y="176.544"/>
      </g>
     </g>
     <g id="text_10">
      <!-- $\mathdefault{10}$ -->
      <g transform="translate(21.16264 180.003249)scale(0.1 -0.1)">
       <use transform="scale(0.996264)" xlink:href="#CMR17-49"/>
       <use transform="translate(45.690477 0)scale(0.996264)" xlink:href="#CMR17-48"/>
      </g>
     </g>
    </g>
    <g id="ytick_4">
     <g id="line2d_10">
      <g>
       <use style="stroke:#000000;stroke-width:0.8;" x="38.125311" xlink:href="#m8c9febaf99" y="136.224"/>
      </g>
     </g>
     <g id="text_11">
      <!-- $\mathdefault{15}$ -->
      <g transform="translate(21.16264 139.683249)scale(0.1 -0.1)">
       <use transform="scale(0.996264)" xlink:href="#CMR17-49"/>
       <use transform="translate(45.690477 0)scale(0.996264)" xlink:href="#CMR17-53"/>
      </g>
     </g>
    </g>
    <g id="ytick_5">
     <g id="line2d_11">
      <g>
       <use style="stroke:#000000;stroke-width:0.8;" x="38.125311" xlink:href="#m8c9febaf99" y="95.904"/>
      </g>
     </g>
     <g id="text_12">
      <!-- $\mathdefault{20}$ -->
      <g transform="translate(21.16264 99.363249)scale(0.1 -0.1)">
       <use transform="scale(0.996264)" xlink:href="#CMR17-50"/>
       <use transform="translate(45.690477 0)scale(0.996264)" xlink:href="#CMR17-48"/>
      </g>
     </g>
    </g>
    <g id="ytick_6">
     <g id="line2d_12">
      <g>
       <use style="stroke:#000000;stroke-width:0.8;" x="38.125311" xlink:href="#m8c9febaf99" y="55.584"/>
      </g>
     </g>
     <g id="text_13">
      <!-- $\mathdefault{25}$ -->
      <g transform="translate(21.16264 59.043249)scale(0.1 -0.1)">
       <use transform="scale(0.996264)" xlink:href="#CMR17-50"/>
       <use transform="translate(45.690477 0)scale(0.996264)" xlink:href="#CMR17-53"/>
      </g>
     </g>
    </g>
    <g id="ytick_7">
     <g id="line2d_13">
      <g>
       <use style="stroke:#000000;stroke-width:0.8;" x="38.125311" xlink:href="#m8c9febaf99" y="15.264"/>
      </g>
     </g>
     <g id="text_14">
      <!-- $\mathdefault{30}$ -->
      <g transform="translate(21.16264 18.723249)scale(0.1 -0.1)">
       <use transform="scale(0.996264)" xlink:href="#CMR17-51"/>
       <use transform="translate(45.690477 0)scale(0.996264)" xlink:href="#CMR17-48"/>
      </g>
     </g>
    </g>
    <g id="text_15">
     <!-- y position [lu] -->
     <g transform="translate(14.67198 170.448412)rotate(-90)scale(0.1 -0.1)">
      <defs>
       <path d="M 22 -16.609375 
C 15.59375 -16.609375 15.203125 -16.203125 15.203125 -12.328125 
L 15.203125 6.28125 
C 18.09375 2.09375 22.296875 -0.59375 27.59375 -0.59375 
C 37.59375 -0.59375 47.703125 8.171875 47.703125 21.6875 
C 47.703125 34.234375 39 43.78125 28.703125 43.78125 
C 22.703125 43.78125 17.796875 40.5 15 36.53125 
L 15 43.78125 
L 3.09375 42.6875 
L 3.09375 40.109375 
C 9 40.109375 9.90625 39.5 9.90625 34.734375 
L 9.90625 -12.328125 
C 9.90625 -16.109375 9.5 -16.609375 3.09375 -16.609375 
L 3.09375 -19.1875 
C 5.5 -19 9.90625 -19 12.5 -19 
C 15.09375 -19 19.59375 -19 22 -19.1875 
z
M 15.203125 31.4375 
C 15.203125 32.84375 15.203125 34.921875 19.09375 38.609375 
C 19.59375 39.015625 23 42 28 42 
C 35.296875 42 41.296875 32.9375 41.296875 21.59375 
C 41.296875 10.25 34.90625 1 27 1 
C 23.40625 1 19.5 2.6875 16.5 7.375 
C 15.203125 9.5625 15.203125 10.15625 15.203125 11.75 
z
" id="CMR17-112"/>
       <path d="M 30.90625 42.140625 
C 30.90625 43.953125 30.796875 44.046875 30.203125 44.046875 
C 29.796875 44.046875 29.703125 43.953125 28.5 42.453125 
C 28.203125 42.046875 27.296875 41.03125 27 40.640625 
C 23.796875 44.046875 19.296875 44.046875 17.59375 44.046875 
C 6.5 44.046875 2.5 38.234375 2.5 32.4375 
C 2.5 23.40625 12.703125 21.328125 15.59375 20.703125 
C 21.90625 19.421875 24.09375 19.015625 26.203125 17.203125 
C 27.5 16.015625 29.703125 13.8125 29.703125 10.21875 
C 29.703125 6 27.296875 0.59375 18.09375 0.59375 
C 9.40625 0.59375 6.296875 7.1875 4.5 15.953125 
C 4.203125 17.34375 4.203125 17.453125 3.40625 17.453125 
C 2.59375 17.453125 2.5 17.34375 2.5 15.359375 
L 2.5 0.984375 
C 2.5 -0.796875 2.59375 -0.90625 3.203125 -0.90625 
C 3.703125 -0.90625 3.796875 -0.796875 4.296875 0 
C 4.90625 0.890625 6.40625 3.296875 7 4.3125 
C 9 1.609375 12.5 -1 18.09375 -1 
C 28 -1 33.296875 4.421875 33.296875 12.25 
C 33.296875 17.375 30.59375 20.078125 29.296875 21.28125 
C 26.296875 24.390625 22.796875 25.09375 18.59375 25.890625 
C 13.09375 27.109375 6.09375 28.515625 6.09375 34.640625 
C 6.09375 37.234375 7.5 42.765625 17.59375 42.765625 
C 28.296875 42.765625 28.90625 32.71875 29.09375 29.5 
C 29.203125 29 29.703125 28.890625 30 28.890625 
C 30.90625 28.890625 30.90625 29.203125 30.90625 30.90625 
z
" id="CMR17-115"/>
       <path d="M 29.40625 42.078125 
L 29.40625 39.5 
C 35.296875 39.5 36.203125 38.890625 36.203125 34.15625 
L 36.203125 16.125 
C 36.203125 7.8125 31.703125 0.59375 24.296875 0.59375 
C 16.09375 0.59375 15.40625 5.4375 15.40625 10.59375 
L 15.40625 43.171875 
L 3.296875 42.078125 
L 3.296875 39.5 
C 7.296875 39.5 10 39.5 10.09375 35.53125 
L 10.09375 16.53125 
C 10.09375 9.890625 10.09375 5.640625 12.703125 2.859375 
C 14 1.578125 16.5 -1 23.703125 -1 
C 32.203125 -1 35.5 5.890625 36.296875 7.90625 
L 36.40625 7.90625 
L 36.40625 -0.984375 
L 48.296875 -0.984375 
L 48.296875 2 
C 42.40625 2 41.5 2.59375 41.5 7.390625 
L 41.5 43.171875 
z
" id="CMR17-117"/>
      </defs>
      <use transform="scale(0.996264)" xlink:href="#CMR17-121"/>
      <use transform="translate(78.368882 0)scale(0.996264)" xlink:href="#CMR17-112"/>
      <use transform="translate(131.866691 0)scale(0.996264)" xlink:href="#CMR17-111"/>
      <use transform="translate(177.557168 0)scale(0.996264)" xlink:href="#CMR17-115"/>
      <use transform="translate(213.358505 0)scale(0.996264)" xlink:href="#CMR17-105"/>
      <use transform="translate(238.229564 0)scale(0.996264)" xlink:href="#CMR17-116"/>
      <use transform="translate(273.510332 0)scale(0.996264)" xlink:href="#CMR17-105"/>
      <use transform="translate(298.38139 0)scale(0.996264)" xlink:href="#CMR17-111"/>
      <use transform="translate(344.071867 0)scale(0.996264)" xlink:href="#CMR17-110"/>
      <use transform="translate(425.043203 0)scale(0.996264)" xlink:href="#CMR17-91"/>
      <use transform="translate(449.914262 0)scale(0.996264)" xlink:href="#CMR17-108"/>
      <use transform="translate(474.78532 0)scale(0.996264)" xlink:href="#CMR17-117"/>
      <use transform="translate(525.68069 0)scale(0.996264)" xlink:href="#CMR17-93"/>
     </g>
    </g>
   </g>
   <g id="line2d_14">
    <path clip-path="url(#pf1a93fe2c6)" d="M 373.600511 257.184 
L 362.776381 249.12 
L 351.952288 241.056 
L 341.128258 232.992 
L 330.304315 224.928 
L 319.480483 216.864 
L 308.656783 208.8 
L 297.833237 200.736 
L 287.009863 192.672 
L 276.186678 184.608 
L 265.363697 176.544 
L 254.540933 168.48 
L 243.718396 160.416 
L 232.896094 152.352 
L 222.074033 144.288 
L 211.252215 136.224 
L 200.43064 128.16 
L 189.609305 120.096 
L 178.788205 112.032 
L 167.967333 103.968 
L 157.146678 95.904 
L 146.326226 87.84 
L 135.505964 79.776 
L 124.685874 71.712 
L 113.865937 63.648 
L 103.046133 55.584 
L 92.22644 47.52 
L 81.406833 39.456 
L 70.58729 31.392 
L 59.767784 23.328 
" style="fill:none;stroke:#0000ff;stroke-dasharray:1,1.65;stroke-dashoffset:0;"/>
   </g>
   <g id="line2d_15">
    <path clip-path="url(#pf1a93fe2c6)" d="M 379.012583 261.216 
L 368.190765 253.152 
L 357.368947 245.088 
L 346.547129 237.024 
L 335.725311 228.96 
L 324.903492 220.896 
L 314.081674 212.832 
L 303.259856 204.768 
L 292.438038 196.704 
L 281.61622 188.64 
L 270.794402 180.576 
L 259.972583 172.512 
L 249.150765 164.448 
L 238.328947 156.384 
L 227.507129 148.32 
L 216.685311 140.256 
L 205.863492 132.192 
L 195.041674 124.128 
L 184.219856 116.064 
L 173.398038 108 
L 162.57622 99.936 
L 151.754402 91.872 
L 140.932583 83.808 
L 130.110765 75.744 
L 119.288947 67.68 
L 108.467129 59.616 
L 97.645311 51.552 
L 86.823492 43.488 
L 76.001674 35.424 
L 65.179856 27.36 
L 54.358038 19.296 
" style="fill:none;stroke:#ff0000;stroke-dasharray:5.55,2.4;stroke-dashoffset:0;stroke-width:1.5;"/>
   </g>
   <g id="line2d_16">
    <path clip-path="url(#pf1a93fe2c6)" d="M 54.358038 19.296 
L 57.637377 19.296 
L 60.916716 19.296 
L 64.196054 19.296 
L 67.475393 19.296 
L 70.754732 19.296 
L 74.034071 19.296 
L 77.31341 19.296 
L 80.592749 19.296 
L 83.872087 19.296 
L 87.151426 19.296 
L 90.430765 19.296 
L 93.710104 19.296 
L 96.989443 19.296 
L 100.268782 19.296 
L 103.548121 19.296 
L 106.827459 19.296 
L 110.106798 19.296 
L 113.386137 19.296 
L 116.665476 19.296 
L 119.944815 19.296 
L 123.224154 19.296 
L 126.503492 19.296 
L 129.782831 19.296 
L 133.06217 19.296 
L 136.341509 19.296 
L 139.620848 19.296 
L 142.900187 19.296 
L 146.179525 19.296 
L 149.458864 19.296 
L 152.738203 19.296 
L 156.017542 19.296 
L 159.296881 19.296 
L 162.57622 19.296 
L 165.855559 19.296 
L 169.134897 19.296 
L 172.414236 19.296 
L 175.693575 19.296 
L 178.972914 19.296 
L 182.252253 19.296 
L 185.531592 19.296 
L 188.81093 19.296 
L 192.090269 19.296 
L 195.369608 19.296 
L 198.648947 19.296 
L 201.928286 19.296 
L 205.207625 19.296 
L 208.486963 19.296 
L 211.766302 19.296 
L 215.045641 19.296 
L 218.32498 19.296 
L 221.604319 19.296 
L 224.883658 19.296 
L 228.162997 19.296 
L 231.442335 19.296 
L 234.721674 19.296 
L 238.001013 19.296 
L 241.280352 19.296 
L 244.559691 19.296 
L 247.83903 19.296 
L 251.118368 19.296 
L 254.397707 19.296 
L 257.677046 19.296 
L 260.956385 19.296 
L 264.235724 19.296 
L 267.515063 19.296 
L 270.794402 19.296 
L 274.07374 19.296 
L 277.353079 19.296 
L 280.632418 19.296 
L 283.911757 19.296 
L 287.191096 19.296 
L 290.470435 19.296 
L 293.749773 19.296 
L 297.029112 19.296 
L 300.308451 19.296 
L 303.58779 19.296 
L 306.867129 19.296 
L 310.146468 19.296 
L 313.425806 19.296 
L 316.705145 19.296 
L 319.984484 19.296 
L 323.263823 19.296 
L 326.543162 19.296 
L 329.822501 19.296 
L 333.10184 19.296 
L 336.381178 19.296 
L 339.660517 19.296 
L 342.939856 19.296 
L 346.219195 19.296 
L 349.498534 19.296 
L 352.777873 19.296 
L 356.057211 19.296 
L 359.33655 19.296 
L 362.615889 19.296 
L 365.895228 19.296 
L 369.174567 19.296 
L 372.453906 19.296 
L 375.733244 19.296 
L 379.012583 19.296 
" style="fill:none;stroke:#ffa500;stroke-dasharray:9.6,2.4,1.5,2.4;stroke-dashoffset:0;stroke-width:1.5;"/>
   </g>
   <g id="line2d_17">
    <path clip-path="url(#pf1a93fe2c6)" d="M 54.358038 261.216 
L 57.637377 261.216 
L 60.916716 261.216 
L 64.196054 261.216 
L 67.475393 261.216 
L 70.754732 261.216 
L 74.034071 261.216 
L 77.31341 261.216 
L 80.592749 261.216 
L 83.872087 261.216 
L 87.151426 261.216 
L 90.430765 261.216 
L 93.710104 261.216 
L 96.989443 261.216 
L 100.268782 261.216 
L 103.548121 261.216 
L 106.827459 261.216 
L 110.106798 261.216 
L 113.386137 261.216 
L 116.665476 261.216 
L 119.944815 261.216 
L 123.224154 261.216 
L 126.503492 261.216 
L 129.782831 261.216 
L 133.06217 261.216 
L 136.341509 261.216 
L 139.620848 261.216 
L 142.900187 261.216 
L 146.179525 261.216 
L 149.458864 261.216 
L 152.738203 261.216 
L 156.017542 261.216 
L 159.296881 261.216 
L 162.57622 261.216 
L 165.855559 261.216 
L 169.134897 261.216 
L 172.414236 261.216 
L 175.693575 261.216 
L 178.972914 261.216 
L 182.252253 261.216 
L 185.531592 261.216 
L 188.81093 261.216 
L 192.090269 261.216 
L 195.369608 261.216 
L 198.648947 261.216 
L 201.928286 261.216 
L 205.207625 261.216 
L 208.486963 261.216 
L 211.766302 261.216 
L 215.045641 261.216 
L 218.32498 261.216 
L 221.604319 261.216 
L 224.883658 261.216 
L 228.162997 261.216 
L 231.442335 261.216 
L 234.721674 261.216 
L 238.001013 261.216 
L 241.280352 261.216 
L 244.559691 261.216 
L 247.83903 261.216 
L 251.118368 261.216 
L 254.397707 261.216 
L 257.677046 261.216 
L 260.956385 261.216 
L 264.235724 261.216 
L 267.515063 261.216 
L 270.794402 261.216 
L 274.07374 261.216 
L 277.353079 261.216 
L 280.632418 261.216 
L 283.911757 261.216 
L 287.191096 261.216 
L 290.470435 261.216 
L 293.749773 261.216 
L 297.029112 261.216 
L 300.308451 261.216 
L 303.58779 261.216 
L 306.867129 261.216 
L 310.146468 261.216 
L 313.425806 261.216 
L 316.705145 261.216 
L 319.984484 261.216 
L 323.263823 261.216 
L 326.543162 261.216 
L 329.822501 261.216 
L 333.10184 261.216 
L 336.381178 261.216 
L 339.660517 261.216 
L 342.939856 261.216 
L 346.219195 261.216 
L 349.498534 261.216 
L 352.777873 261.216 
L 356.057211 261.216 
L 359.33655 261.216 
L 362.615889 261.216 
L 365.895228 261.216 
L 369.174567 261.216 
L 372.453906 261.216 
L 375.733244 261.216 
L 379.012583 261.216 
" style="fill:none;stroke:#008000;stroke-linecap:square;stroke-width:1.5;"/>
   </g>
   <g id="patch_3">
    <path d="M 38.125311 273.312 
L 38.125311 7.2 
" style="fill:none;stroke:#000000;stroke-linecap:square;stroke-linejoin:miter;stroke-width:0.8;"/>
   </g>
   <g id="patch_4">
    <path d="M 395.245311 273.312 
L 395.245311 7.2 
" style="fill:none;stroke:#000000;stroke-linecap:square;stroke-linejoin:miter;stroke-width:0.8;"/>
   </g>
   <g id="patch_5">
    <path d="M 38.125311 273.312 
L 395.245311 273.312 
" style="fill:none;stroke:#000000;stroke-linecap:square;stroke-linejoin:miter;stroke-width:0.8;"/>
   </g>
   <g id="patch_6">
    <path d="M 38.125311 7.2 
L 395.245311 7.2 
" style="fill:none;stroke:#000000;stroke-linecap:square;stroke-linejoin:miter;stroke-width:0.8;"/>
   </g>
   <g id="legend_1">
    <g id="patch_7">
     <path d="M 303.111114 171.040995 
L 388.245311 171.040995 
Q 390.245311 171.040995 390.245311 169.040995 
L 390.245311 111.471005 
Q 390.245311 109.471005 388.245311 109.471005 
L 303.111114 109.471005 
Q 301.111114 109.471005 301.111114 111.471005 
L 301.111114 169.040995 
Q 301.111114 171.040995 303.111114 171.040995 
z
" style="fill:#ffffff;opacity:0.8;stroke:#cccccc;stroke-linejoin:miter;"/>
    </g>
    <g id="line2d_18">
     <path d="M 305.111114 117.569442 
L 325.111114 117.569442 
" style="fill:none;stroke:#0000ff;stroke-dasharray:1,1.65;stroke-dashoffset:0;"/>
    </g>
    <g id="line2d_19"/>
    <g id="text_16">
     <!-- Simul. sol. -->
     <g transform="translate(333.111114 121.069442)scale(0.1 -0.1)">
      <defs>
       <path d="M 43.796875 67.03125 
C 43.796875 68.8125 43.703125 68.921875 43.09375 68.921875 
C 42.5 68.921875 42.296875 68.515625 41.90625 67.625 
L 38.90625 61.046875 
C 35.09375 66.515625 29.296875 69 23 69 
C 12.796875 69 4.59375 60.953125 4.59375 50.828125 
C 4.59375 47.75 5.296875 43.375 8.703125 39.21875 
C 12.40625 34.65625 15.90625 33.859375 23.90625 31.765625 
C 26.90625 30.96875 31.90625 29.671875 32.90625 29.28125 
C 38.59375 26.90625 41.59375 20.953125 41.59375 15.390625 
C 41.59375 8.234375 36.5 0.59375 27.796875 0.59375 
C 17.09375 0.59375 7.09375 6.546875 6.40625 20.484375 
C 6.296875 22.078125 6.203125 22.171875 5.5 22.171875 
C 4.703125 22.171875 4.59375 22.078125 4.59375 20.078125 
L 4.59375 -0.015625 
C 4.59375 -1.796875 4.703125 -1.90625 5.296875 -1.90625 
C 6 -1.90625 6.203125 -1.40625 7.59375 1.6875 
C 7.703125 1.984375 7.703125 2.1875 9.59375 5.953125 
C 14.59375 -0.609375 23 -2 27.796875 -2 
C 38.703125 -2 46.40625 7.046875 46.40625 17.5625 
C 46.40625 22.71875 44.5 26.6875 43.40625 28.484375 
C 39.203125 34.84375 34.703125 36.03125 29.90625 37.21875 
C 29.203125 37.53125 29 37.53125 23.40625 38.90625 
C 18 40.296875 15.703125 41 13.203125 43.6875 
C 10.40625 46.75 9.40625 49.9375 9.40625 53.109375 
C 9.40625 59.5625 14.59375 66.609375 23.09375 66.609375 
C 33.703125 66.609375 40.296875 59.15625 41.796875 46.765625 
C 42.09375 44.96875 42.203125 44.875 42.90625 44.875 
C 43.796875 44.875 43.796875 45.171875 43.796875 46.859375 
z
" id="CMR17-83"/>
       <path d="M 67.59375 30.203125 
C 67.59375 35.1875 66.703125 43.59375 54.796875 43.59375 
C 48 43.59375 43.296875 39 41.5 33.609375 
L 41.40625 33.609375 
C 40.203125 41.8125 34.296875 43.59375 28.703125 43.59375 
C 20.796875 43.59375 16.703125 37.5 15.203125 33.5 
L 15.09375 33.5 
L 15.09375 43.59375 
L 3.296875 42.5 
L 3.296875 39.90625 
C 9.203125 39.90625 10.09375 39.296875 10.09375 34.5 
L 10.09375 6.6875 
C 10.09375 2.875 9.703125 2.390625 3.296875 2.390625 
L 3.296875 -0.203125 
C 5.703125 0 10.09375 0 12.703125 0 
C 15.296875 0 19.796875 0 22.203125 -0.203125 
L 22.203125 2.390625 
C 15.796875 2.390625 15.40625 2.78125 15.40625 6.6875 
L 15.40625 25.90625 
C 15.40625 35.109375 21 42 28 42 
C 35.40625 42 36.203125 35.40625 36.203125 30.59375 
L 36.203125 6.6875 
C 36.203125 2.875 35.796875 2.390625 29.40625 2.390625 
L 29.40625 -0.203125 
C 31.796875 0 36.203125 0 38.796875 0 
C 41.40625 0 45.90625 0 48.296875 -0.203125 
L 48.296875 2.390625 
C 41.90625 2.390625 41.5 2.78125 41.5 6.6875 
L 41.5 25.90625 
C 41.5 35.109375 47.09375 42 54.09375 42 
C 61.5 42 62.296875 35.40625 62.296875 30.59375 
L 62.296875 6.6875 
C 62.296875 2.875 61.90625 2.390625 55.5 2.390625 
L 55.5 -0.203125 
C 57.90625 0 62.296875 0 64.90625 0 
C 67.5 0 72 0 74.40625 -0.203125 
L 74.40625 2.390625 
C 68 2.390625 67.59375 2.78125 67.59375 6.6875 
z
" id="CMR17-109"/>
       <path d="M 16.59375 4.078125 
C 16.59375 6.5625 14.59375 8.15625 12.5 8.15625 
C 10.5 8.15625 8.40625 6.5625 8.40625 4.078125 
C 8.40625 1.59375 10.40625 0 12.5 0 
C 14.5 0 16.59375 1.59375 16.59375 4.078125 
z
" id="CMR17-46"/>
      </defs>
      <use transform="scale(0.996264)" xlink:href="#CMR17-83"/>
      <use transform="translate(50.89537 0)scale(0.996264)" xlink:href="#CMR17-105"/>
      <use transform="translate(75.766428 0)scale(0.996264)" xlink:href="#CMR17-109"/>
      <use transform="translate(150.083564 0)scale(0.996264)" xlink:href="#CMR17-117"/>
      <use transform="translate(200.978934 0)scale(0.996264)" xlink:href="#CMR17-108"/>
      <use transform="translate(225.849992 0)scale(0.996264)" xlink:href="#CMR17-46"/>
      <use transform="translate(291.206711 0)scale(0.996264)" xlink:href="#CMR17-115"/>
      <use transform="translate(327.008049 0)scale(0.996264)" xlink:href="#CMR17-111"/>
      <use transform="translate(372.698526 0)scale(0.996264)" xlink:href="#CMR17-108"/>
      <use transform="translate(397.569585 0)scale(0.996264)" xlink:href="#CMR17-46"/>
     </g>
    </g>
    <g id="line2d_20">
     <path d="M 305.111114 132.247567 
L 325.111114 132.247567 
" style="fill:none;stroke:#ff0000;stroke-dasharray:5.55,2.4;stroke-dashoffset:0;stroke-width:1.5;"/>
    </g>
    <g id="line2d_21"/>
    <g id="text_17">
     <!-- Analyt. sol. -->
     <g transform="translate(333.111114 135.747567)scale(0.1 -0.1)">
      <defs>
       <path d="M 36.296875 68.40625 
C 35.796875 69.703125 35.59375 70 34.59375 70 
C 33.59375 70 33.40625 69.703125 32.90625 68.40625 
L 11.703125 8.84375 
C 9.796875 3.484375 5.796875 2.390625 2.296875 2.390625 
L 2.296875 -0.203125 
C 4.09375 0 8.09375 0 10 0 
C 12.5 0 16.5 0 18.90625 -0.203125 
L 18.90625 2.390625 
C 14.203125 2.390625 13.5 5.640625 13.5 6.859375 
C 13.5 7.765625 13.703125 8.28125 13.90625 8.890625 
L 19.203125 24 
L 45.40625 24 
L 51.40625 6.90625 
C 51.90625 5.703125 51.90625 5.5 51.90625 5.109375 
C 51.90625 2.390625 47.59375 2.390625 45.703125 2.390625 
L 45.703125 0 
C 48.59375 0 53.796875 0 56.90625 0 
C 59.5 0 64.5 0 66.90625 -0.203125 
L 66.90625 2.390625 
C 61.59375 2.390625 59.796875 2.390625 58.5 6.046875 
z
M 32.296875 60.828125 
L 44.5 26.59375 
L 20.09375 26.59375 
z
" id="CMR17-65"/>
       <path d="M 36 25.828125 
C 36 32.375 36 35.84375 31.796875 39.734375 
C 28.09375 43 23.796875 44 20.40625 44 
C 12.5 44 6.796875 37.609375 6.796875 30.796875 
C 6.796875 27 9.796875 27 10.40625 27 
C 11.703125 27 14 27.78125 14 30.53125 
C 14 33 12.09375 34.078125 10.40625 34.078125 
C 10 34.078125 9.5 33.96875 9.203125 33.875 
C 11.296875 40.5 16.703125 42.40625 20.203125 42.40625 
C 25.203125 42.40625 30.703125 37.953125 30.703125 29.453125 
L 30.703125 25 
C 24.796875 25 17.703125 24.203125 12.09375 21.203125 
C 5.796875 17.703125 4 12.703125 4 8.90625 
C 4 1.203125 13 -1 18.296875 -1 
C 23.796875 -1 28.90625 2.171875 31.09375 7.984375 
C 31.296875 3.640625 34.09375 -0.28125 38.5 -0.28125 
C 40.59375 -0.28125 45.90625 1.09375 45.90625 8.859375 
L 45.90625 14.375 
L 44.09375 14.375 
L 44.09375 8.78125 
C 44.09375 2.78125 41.40625 2 40.09375 2 
C 36 2 36 7.15625 36 11.53125 
z
M 30.703125 13.59375 
C 30.703125 4.953125 24.5 0.59375 19 0.59375 
C 14 0.59375 10.09375 4.296875 10.09375 8.90625 
C 10.09375 11.890625 11.40625 17.1875 17.203125 20.390625 
C 22 23.09375 27.5 23.5 30.703125 23.5 
z
" id="CMR17-97"/>
      </defs>
      <use transform="scale(0.996264)" xlink:href="#CMR17-65"/>
      <use transform="translate(69.07243 0)scale(0.996264)" xlink:href="#CMR17-110"/>
      <use transform="translate(119.9678 0)scale(0.996264)" xlink:href="#CMR17-97"/>
      <use transform="translate(165.658277 0)scale(0.996264)" xlink:href="#CMR17-108"/>
      <use transform="translate(190.529335 0)scale(0.996264)" xlink:href="#CMR17-121"/>
      <use transform="translate(238.822251 0)scale(0.996264)" xlink:href="#CMR17-116"/>
      <use transform="translate(274.103019 0)scale(0.996264)" xlink:href="#CMR17-46"/>
      <use transform="translate(339.459738 0)scale(0.996264)" xlink:href="#CMR17-115"/>
      <use transform="translate(375.261075 0)scale(0.996264)" xlink:href="#CMR17-111"/>
      <use transform="translate(420.951553 0)scale(0.996264)" xlink:href="#CMR17-108"/>
      <use transform="translate(445.822611 0)scale(0.996264)" xlink:href="#CMR17-46"/>
     </g>
    </g>
    <g id="line2d_22">
     <path d="M 305.111114 146.925692 
L 325.111114 146.925692 
" style="fill:none;stroke:#ffa500;stroke-dasharray:9.6,2.4,1.5,2.4;stroke-dashoffset:0;stroke-width:1.5;"/>
    </g>
    <g id="line2d_23"/>
    <g id="text_18">
     <!-- Rigid wall -->
     <g transform="translate(333.111114 150.425692)scale(0.1 -0.1)">
      <defs>
       <path d="M 39.203125 33.53125 
C 48.703125 35.4375 56.703125 41.8125 56.703125 49.78125 
C 56.703125 59.140625 46.09375 67.59375 32.09375 67.59375 
L 5.203125 67.59375 
L 5.203125 65 
C 12.09375 65 13.203125 65 13.203125 60.515625 
L 13.203125 6.484375 
C 13.203125 2 12.09375 2 5.203125 2 
L 5.203125 -0.40625 
C 8.09375 -0.40625 13.296875 -0.40625 16.40625 -0.40625 
C 19.5 -0.40625 24.703125 -0.40625 27.59375 -0.40625 
L 27.59375 2 
C 20.703125 2 19.59375 2 19.59375 6.515625 
L 19.59375 33 
L 31.296875 33 
C 37 33 40.203125 30.6875 41.59375 29.390625 
C 45.59375 25.5 45.59375 22.796875 45.59375 16 
C 45.59375 9.296875 45.59375 5.890625 48.59375 2.5 
C 52.40625 -1.59375 57.5 -2 59.703125 -2 
C 67.09375 -2 68.203125 6.1875 68.203125 7.859375 
C 68.203125 8.4375 68.203125 9.140625 67.296875 9.140625 
C 66.5 9.140625 66.40625 8.546875 66.40625 8.15625 
C 65.90625 1.75 63 -0.40625 59.90625 -0.40625 
C 54.40625 -0.40625 53.796875 5.859375 53.203125 11.9375 
C 52.90625 14.03125 52.703125 15.515625 52.5 17.703125 
C 51.90625 22.6875 51.09375 29.953125 39.203125 33.53125 
z
M 31 34.59375 
L 19.59375 34.59375 
L 19.59375 61.140625 
C 19.59375 64.515625 19.796875 65 23.796875 65 
L 31.09375 65 
C 39.40625 65 49.09375 62.140625 49.09375 49.84375 
C 49.09375 37.0625 38.5 34.59375 31 34.59375 
z
" id="CMR17-82"/>
       <path d="M 11.09375 18.1875 
C 13 16.6875 16.296875 15 20.296875 15 
C 28.203125 15 35 21.203125 35 29.5 
C 35 32.09375 34.203125 36.09375 31.203125 39.203125 
C 34 42.0625 38.09375 43 40.40625 43 
C 40.796875 43 41.40625 43 41.90625 42.71875 
C 41.5 42.625 40.59375 42.234375 40.59375 40.703125 
C 40.59375 39.484375 41.5 38.609375 42.796875 38.609375 
C 44.296875 38.609375 45.09375 39.578125 45.09375 40.84375 
C 45.09375 42.671875 43.59375 44.59375 40.40625 44.59375 
C 36.40625 44.59375 32.90625 42.78125 30.09375 40.3125 
C 27.09375 43.015625 23.5 44 20.296875 44 
C 12.40625 44 5.59375 37.796875 5.59375 29.5 
C 5.59375 23.78125 8.90625 20.1875 9.90625 19.1875 
C 6.90625 15.6875 6.90625 11.609375 6.90625 11.109375 
C 6.90625 8.515625 7.90625 4.71875 11.296875 2.625 
C 6.09375 1.328125 2 -2.640625 2 -7.59375 
C 2 -14.734375 11.5 -20 22.90625 -20 
C 33.90625 -20 43.796875 -14.9375 43.796875 -7.484375 
C 43.796875 6 29 6 21.296875 6 
C 19 6 14.90625 6 14.40625 6.109375 
C 11.296875 6.609375 9.203125 9.40625 9.203125 12.90625 
C 9.203125 13.796875 9.203125 16 11.09375 18.1875 
z
M 20.296875 16.6875 
C 11.5 16.6875 11.5 27.5 11.5 29.515625 
C 11.5 31.5 11.5 42.3125 20.296875 42.3125 
C 29.09375 42.3125 29.09375 31.5 29.09375 29.515625 
C 29.09375 27.5 29.09375 16.6875 20.296875 16.6875 
z
M 22.90625 -18.296875 
C 12.90625 -18.296875 6 -13.046875 6 -7.59375 
C 6 -4.515625 7.703125 -1.640625 9.90625 -0.0625 
C 12.40625 1.625 13.40625 1.625 20.203125 1.625 
C 28.40625 1.625 39.796875 1.625 39.796875 -7.59375 
C 39.796875 -13.046875 32.90625 -18.296875 22.90625 -18.296875 
z
" id="CMR17-103"/>
       <path d="M 58.203125 34.109375 
C 60.203125 40 64.203125 40 65.703125 40 
L 65.703125 42.6875 
C 63.703125 42.6875 61.703125 42.6875 59.703125 42.6875 
C 57.796875 42.6875 53.5 42.6875 51.796875 42.78125 
L 51.796875 40 
C 54.90625 40 56.59375 38.203125 56.59375 35.71875 
C 56.59375 35.015625 56.40625 34.125 56.203125 33.4375 
L 46.796875 6.359375 
L 36.59375 35.546875 
C 36.40625 36.234375 36.09375 37.03125 36.09375 37.421875 
C 36.09375 40 39.5 40 41.09375 40 
L 41.09375 42.78125 
C 38.796875 42.6875 34.59375 42.6875 32.203125 42.6875 
C 29.703125 42.6875 27.09375 42.6875 24.796875 42.78125 
L 24.796875 40 
C 30.296875 40 30.296875 39.796875 32.40625 33.578125 
L 23.203125 7.046875 
L 13.296875 35.640625 
C 12.796875 36.921875 12.796875 37.125 12.796875 37.421875 
C 12.796875 40 16.203125 40 17.796875 40 
L 17.796875 42.78125 
C 15.40625 42.6875 11.203125 42.6875 8.703125 42.6875 
C 6.5 42.6875 3.09375 42.6875 1 42.78125 
L 1 40 
C 5.40625 40 6.5 39.703125 7.59375 36.421875 
L 19.90625 0.765625 
C 20.296875 -0.515625 20.59375 -0.8125 21.40625 -0.8125 
C 22.09375 -0.8125 22.5 -0.609375 23 0.875 
L 33.296875 30.9375 
L 43.703125 0.875 
C 44.203125 -0.609375 44.59375 -0.8125 45.296875 -0.8125 
C 46.09375 -0.8125 46.40625 -0.515625 46.796875 0.78125 
z
" id="CMR17-119"/>
      </defs>
      <use transform="scale(0.996264)" xlink:href="#CMR17-82"/>
      <use transform="translate(67.791102 0)scale(0.996264)" xlink:href="#CMR17-105"/>
      <use transform="translate(92.66216 0)scale(0.996264)" xlink:href="#CMR17-103"/>
      <use transform="translate(138.352638 0)scale(0.996264)" xlink:href="#CMR17-105"/>
      <use transform="translate(163.223696 0)scale(0.996264)" xlink:href="#CMR17-100"/>
      <use transform="translate(244.195032 0)scale(0.996264)" xlink:href="#CMR17-119"/>
      <use transform="translate(308.102459 0)scale(0.996264)" xlink:href="#CMR17-97"/>
      <use transform="translate(353.792936 0)scale(0.996264)" xlink:href="#CMR17-108"/>
      <use transform="translate(378.663994 0)scale(0.996264)" xlink:href="#CMR17-108"/>
     </g>
    </g>
    <g id="line2d_24">
     <path d="M 305.111114 161.603817 
L 325.111114 161.603817 
" style="fill:none;stroke:#008000;stroke-linecap:square;stroke-width:1.5;"/>
    </g>
    <g id="line2d_25"/>
    <g id="text_19">
     <!-- Moving wall -->
     <g transform="translate(333.111114 165.103817)scale(0.1 -0.1)">
      <defs>
       <path d="M 20.90625 66 
C 20.296875 67.5 20.203125 67.5 18.09375 67.5 
L 5.296875 67.5 
L 5.296875 65 
C 12.203125 65 13.296875 65 13.296875 60.546875 
L 13.296875 9.53125 
C 13.296875 7.046875 13.296875 2.390625 5.296875 2.390625 
L 5.296875 -0.203125 
C 7.59375 0 11.796875 0 14.296875 0 
C 16.796875 0 21 0 23.296875 -0.203125 
L 23.296875 2.390625 
C 15.296875 2.390625 15.296875 7.046875 15.296875 9.53125 
L 15.296875 64.609375 
L 15.40625 64.609375 
L 38.90625 1.390625 
C 39.296875 0.390625 39.5 -0.203125 40.296875 -0.203125 
C 41.09375 -0.203125 41.296875 0.390625 41.703125 1.390625 
L 65.40625 65.09375 
L 65.5 65.09375 
L 65.5 6.84375 
C 65.5 2.390625 64.40625 2.390625 57.5 2.390625 
L 57.5 -0.203125 
C 60.203125 0 65.59375 0 68.5 0 
C 71.40625 0 76.90625 0 79.59375 -0.203125 
L 79.59375 2.390625 
C 72.703125 2.390625 71.59375 2.390625 71.59375 6.84375 
L 71.59375 60.546875 
C 71.59375 65 72.703125 65 79.59375 65 
L 79.59375 67.5 
L 66.90625 67.5 
C 64.796875 67.5 64.703125 67.40625 64.09375 65.90625 
L 42.5 7.84375 
z
" id="CMR17-77"/>
      </defs>
      <use transform="scale(0.996264)" xlink:href="#CMR17-77"/>
      <use transform="translate(84.686941 0)scale(0.996264)" xlink:href="#CMR17-111"/>
      <use transform="translate(127.774964 0)scale(0.996264)" xlink:href="#CMR17-118"/>
      <use transform="translate(176.06788 0)scale(0.996264)" xlink:href="#CMR17-105"/>
      <use transform="translate(200.938938 0)scale(0.996264)" xlink:href="#CMR17-110"/>
      <use transform="translate(251.834308 0)scale(0.996264)" xlink:href="#CMR17-103"/>
      <use transform="translate(327.600751 0)scale(0.996264)" xlink:href="#CMR17-119"/>
      <use transform="translate(391.508178 0)scale(0.996264)" xlink:href="#CMR17-97"/>
      <use transform="translate(437.198655 0)scale(0.996264)" xlink:href="#CMR17-108"/>
      <use transform="translate(462.069714 0)scale(0.996264)" xlink:href="#CMR17-108"/>
     </g>
    </g>
   </g>
  </g>
 </g>
 <defs>
  <clipPath id="pf1a93fe2c6">
   <rect height="266.112" width="357.12" x="38.125311" y="7.2"/>
  </clipPath>
 </defs>
</svg>
