<?xml version="1.0" encoding="utf-8" standalone="no"?>
<!DOCTYPE svg PUBLIC "-//W3C//DTD SVG 1.1//EN"
  "http://www.w3.org/Graphics/SVG/1.1/DTD/svg11.dtd">
<!-- Created with matplotlib (https://matplotlib.org/) -->
<svg height="309.223353pt" version="1.1" viewBox="0 0 401.338347 309.223353" width="401.338347pt" xmlns="http://www.w3.org/2000/svg" xmlns:xlink="http://www.w3.org/1999/xlink">
 <defs>
  <style type="text/css">
*{stroke-linecap:butt;stroke-linejoin:round;}
  </style>
 </defs>
 <g id="figure_1">
  <g id="patch_1">
   <path d="M 0 309.223353 
L 401.338347 309.223353 
L 401.338347 0 
L 0 0 
z
" style="fill:#ffffff;"/>
  </g>
  <g id="axes_1">
   <g id="patch_2">
    <path d="M 37.018347 273.312 
L 394.138347 273.312 
L 394.138347 7.2 
L 37.018347 7.2 
z
" style="fill:#ffffff;"/>
   </g>
   <g id="Quiver_1">
    <path clip-path="url(#p8e1483dbdc)" d="M 53.251074 256.7376 
L 368.469879 256.7376 
L 368.023479 255.8448 
L 372.487479 257.184 
L 368.023479 258.5232 
L 368.469879 257.6304 
L 53.251074 257.6304 
L 53.251074 256.7376 
" style="fill:#0000ff;"/>
   </g>
   <g id="Quiver_2">
    <path clip-path="url(#p8e1483dbdc)" d="M 53.251074 248.6736 
L 357.633676 248.6736 
L 357.187276 247.7808 
L 361.651276 249.12 
L 357.187276 250.4592 
L 357.633676 249.5664 
L 53.251074 249.5664 
L 53.251074 248.6736 
" style="fill:#0000ff;"/>
   </g>
   <g id="Quiver_3">
    <path clip-path="url(#p8e1483dbdc)" d="M 53.251074 240.6096 
L 346.79771 240.6096 
L 346.35131 239.7168 
L 350.81531 241.056 
L 346.35131 242.3952 
L 346.79771 241.5024 
L 53.251074 241.5024 
L 53.251074 240.6096 
" style="fill:#0000ff;"/>
   </g>
   <g id="Quiver_4">
    <path clip-path="url(#p8e1483dbdc)" d="M 53.251074 232.5456 
L 335.962136 232.5456 
L 335.515736 231.6528 
L 339.979736 232.992 
L 335.515736 234.3312 
L 335.962136 233.4384 
L 53.251074 233.4384 
L 53.251074 232.5456 
" style="fill:#0000ff;"/>
   </g>
   <g id="Quiver_5">
    <path clip-path="url(#p8e1483dbdc)" d="M 53.251074 224.4816 
L 325.127105 224.4816 
L 324.680705 223.5888 
L 329.144705 224.928 
L 324.680705 226.2672 
L 325.127105 225.3744 
L 53.251074 225.3744 
L 53.251074 224.4816 
" style="fill:#0000ff;"/>
   </g>
   <g id="Quiver_6">
    <path clip-path="url(#p8e1483dbdc)" d="M 53.251074 216.4176 
L 314.29276 216.4176 
L 313.84636 215.5248 
L 318.31036 216.864 
L 313.84636 218.2032 
L 314.29276 217.3104 
L 53.251074 217.3104 
L 53.251074 216.4176 
" style="fill:#0000ff;"/>
   </g>
   <g id="Quiver_7">
    <path clip-path="url(#p8e1483dbdc)" d="M 53.251074 208.3536 
L 303.459241 208.3536 
L 303.012841 207.4608 
L 307.476841 208.8 
L 303.012841 210.1392 
L 303.459241 209.2464 
L 53.251074 209.2464 
L 53.251074 208.3536 
" style="fill:#0000ff;"/>
   </g>
   <g id="Quiver_8">
    <path clip-path="url(#p8e1483dbdc)" d="M 53.251074 200.2896 
L 292.626674 200.2896 
L 292.180274 199.3968 
L 296.644274 200.736 
L 292.180274 202.0752 
L 292.626674 201.1824 
L 53.251074 201.1824 
L 53.251074 200.2896 
" style="fill:#0000ff;"/>
   </g>
   <g id="Quiver_9">
    <path clip-path="url(#p8e1483dbdc)" d="M 53.251074 192.2256 
L 281.795177 192.2256 
L 281.348777 191.3328 
L 285.812777 192.672 
L 281.348777 194.0112 
L 281.795177 193.1184 
L 53.251074 193.1184 
L 53.251074 192.2256 
" style="fill:#0000ff;"/>
   </g>
   <g id="Quiver_10">
    <path clip-path="url(#p8e1483dbdc)" d="M 53.251074 184.1616 
L 270.964858 184.1616 
L 270.518458 183.2688 
L 274.982458 184.608 
L 270.518458 185.9472 
L 270.964858 185.0544 
L 53.251074 185.0544 
L 53.251074 184.1616 
" style="fill:#0000ff;"/>
   </g>
   <g id="Quiver_11">
    <path clip-path="url(#p8e1483dbdc)" d="M 53.251074 176.0976 
L 260.135808 176.0976 
L 259.689408 175.2048 
L 264.153408 176.544 
L 259.689408 177.8832 
L 260.135808 176.9904 
L 53.251074 176.9904 
L 53.251074 176.0976 
" style="fill:#0000ff;"/>
   </g>
   <g id="Quiver_12">
    <path clip-path="url(#p8e1483dbdc)" d="M 53.251074 168.0336 
L 249.308106 168.0336 
L 248.861706 167.1408 
L 253.325706 168.48 
L 248.861706 169.8192 
L 249.308106 168.9264 
L 53.251074 168.9264 
L 53.251074 168.0336 
" style="fill:#0000ff;"/>
   </g>
   <g id="Quiver_13">
    <path clip-path="url(#p8e1483dbdc)" d="M 53.251074 159.9696 
L 238.481819 159.9696 
L 238.035419 159.0768 
L 242.499419 160.416 
L 238.035419 161.7552 
L 238.481819 160.8624 
L 53.251074 160.8624 
L 53.251074 159.9696 
" style="fill:#0000ff;"/>
   </g>
   <g id="Quiver_14">
    <path clip-path="url(#p8e1483dbdc)" d="M 53.251074 151.9056 
L 227.656993 151.9056 
L 227.210593 151.0128 
L 231.674593 152.352 
L 227.210593 153.6912 
L 227.656993 152.7984 
L 53.251074 152.7984 
L 53.251074 151.9056 
" style="fill:#0000ff;"/>
   </g>
   <g id="Quiver_15">
    <path clip-path="url(#p8e1483dbdc)" d="M 53.251074 143.8416 
L 216.833663 143.8416 
L 216.387263 142.9488 
L 220.851263 144.288 
L 216.387263 145.6272 
L 216.833663 144.7344 
L 53.251074 144.7344 
L 53.251074 143.8416 
" style="fill:#0000ff;"/>
   </g>
   <g id="Quiver_16">
    <path clip-path="url(#p8e1483dbdc)" d="M 53.251074 135.7776 
L 206.011845 135.7776 
L 205.565445 134.8848 
L 210.029445 136.224 
L 205.565445 137.5632 
L 206.011845 136.6704 
L 53.251074 136.6704 
L 53.251074 135.7776 
" style="fill:#0000ff;"/>
   </g>
   <g id="Quiver_17">
    <path clip-path="url(#p8e1483dbdc)" d="M 53.251074 127.7136 
L 195.191539 127.7136 
L 194.745139 126.8208 
L 199.209139 128.16 
L 194.745139 129.4992 
L 195.191539 128.6064 
L 53.251074 128.6064 
L 53.251074 127.7136 
" style="fill:#0000ff;"/>
   </g>
   <g id="Quiver_18">
    <path clip-path="url(#p8e1483dbdc)" d="M 53.251074 119.6496 
L 184.372728 119.6496 
L 183.926328 118.7568 
L 188.390328 120.096 
L 183.926328 121.4352 
L 184.372728 120.5424 
L 53.251074 120.5424 
L 53.251074 119.6496 
" style="fill:#0000ff;"/>
   </g>
   <g id="Quiver_19">
    <path clip-path="url(#p8e1483dbdc)" d="M 53.251074 111.5856 
L 173.555379 111.5856 
L 173.108979 110.6928 
L 177.572979 112.032 
L 173.108979 113.3712 
L 173.555379 112.4784 
L 53.251074 112.4784 
L 53.251074 111.5856 
" style="fill:#0000ff;"/>
   </g>
   <g id="Quiver_20">
    <path clip-path="url(#p8e1483dbdc)" d="M 53.251074 103.5216 
L 162.739444 103.5216 
L 162.293044 102.6288 
L 166.757044 103.968 
L 162.293044 105.3072 
L 162.739444 104.4144 
L 53.251074 104.4144 
L 53.251074 103.5216 
" style="fill:#0000ff;"/>
   </g>
   <g id="Quiver_21">
    <path clip-path="url(#p8e1483dbdc)" d="M 53.251074 95.4576 
L 151.924858 95.4576 
L 151.478458 94.5648 
L 155.942458 95.904 
L 151.478458 97.2432 
L 151.924858 96.3504 
L 53.251074 96.3504 
L 53.251074 95.4576 
" style="fill:#0000ff;"/>
   </g>
   <g id="Quiver_22">
    <path clip-path="url(#p8e1483dbdc)" d="M 53.251074 87.3936 
L 141.111541 87.3936 
L 140.665141 86.5008 
L 145.129141 87.84 
L 140.665141 89.1792 
L 141.111541 88.2864 
L 53.251074 88.2864 
L 53.251074 87.3936 
" style="fill:#0000ff;"/>
   </g>
   <g id="Quiver_23">
    <path clip-path="url(#p8e1483dbdc)" d="M 53.251074 79.3296 
L 130.299401 79.3296 
L 129.853001 78.4368 
L 134.317001 79.776 
L 129.853001 81.1152 
L 130.299401 80.2224 
L 53.251074 80.2224 
L 53.251074 79.3296 
" style="fill:#0000ff;"/>
   </g>
   <g id="Quiver_24">
    <path clip-path="url(#p8e1483dbdc)" d="M 53.251074 71.2656 
L 119.488332 71.2656 
L 119.041932 70.3728 
L 123.505932 71.712 
L 119.041932 73.0512 
L 119.488332 72.1584 
L 53.251074 72.1584 
L 53.251074 71.2656 
" style="fill:#0000ff;"/>
   </g>
   <g id="Quiver_25">
    <path clip-path="url(#p8e1483dbdc)" d="M 53.251074 63.2016 
L 108.678215 63.2016 
L 108.231815 62.3088 
L 112.695815 63.648 
L 108.231815 64.9872 
L 108.678215 64.0944 
L 53.251074 64.0944 
L 53.251074 63.2016 
" style="fill:#0000ff;"/>
   </g>
   <g id="Quiver_26">
    <path clip-path="url(#p8e1483dbdc)" d="M 53.251074 55.1376 
L 97.868923 55.1376 
L 97.422523 54.2448 
L 101.886523 55.584 
L 97.422523 56.9232 
L 97.868923 56.0304 
L 53.251074 56.0304 
L 53.251074 55.1376 
" style="fill:#0000ff;"/>
   </g>
   <g id="Quiver_27">
    <path clip-path="url(#p8e1483dbdc)" d="M 53.251074 47.0736 
L 87.060318 47.0736 
L 86.613918 46.1808 
L 91.077918 47.52 
L 86.613918 48.8592 
L 87.060318 47.9664 
L 53.251074 47.9664 
L 53.251074 47.0736 
" style="fill:#0000ff;"/>
   </g>
   <g id="Quiver_28">
    <path clip-path="url(#p8e1483dbdc)" d="M 53.251074 39.0096 
L 76.252256 39.0096 
L 75.805856 38.1168 
L 80.269856 39.456 
L 75.805856 40.7952 
L 76.252256 39.9024 
L 53.251074 39.9024 
L 53.251074 39.0096 
" style="fill:#0000ff;"/>
   </g>
   <g id="Quiver_29">
    <path clip-path="url(#p8e1483dbdc)" d="M 53.251074 30.9456 
L 65.444585 30.9456 
L 64.998185 30.0528 
L 69.462185 31.392 
L 64.998185 32.7312 
L 65.444585 31.8384 
L 53.251074 31.8384 
L 53.251074 30.9456 
" style="fill:#0000ff;"/>
   </g>
   <g id="Quiver_30">
    <path clip-path="url(#p8e1483dbdc)" d="M 53.251074 22.8816 
L 54.637152 22.8816 
L 54.190752 21.9888 
L 58.654752 23.328 
L 54.190752 24.6672 
L 54.637152 23.7744 
L 53.251074 23.7744 
L 53.251074 22.8816 
" style="fill:#0000ff;"/>
   </g>
   <g id="matplotlib.axis_1">
    <g id="xtick_1">
     <g id="line2d_1">
      <defs>
       <path d="M 0 0 
L 0 3.5 
" id="m158641adfd" style="stroke:#000000;stroke-width:0.8;"/>
      </defs>
      <g>
       <use style="stroke:#000000;stroke-width:0.8;" x="53.251074" xlink:href="#m158641adfd" y="273.312"/>
      </g>
     </g>
     <g id="text_1">
      <!-- 0.00 -->
      <defs>
       <path d="M 31.78125 66.40625 
Q 24.171875 66.40625 20.328125 58.90625 
Q 16.5 51.421875 16.5 36.375 
Q 16.5 21.390625 20.328125 13.890625 
Q 24.171875 6.390625 31.78125 6.390625 
Q 39.453125 6.390625 43.28125 13.890625 
Q 47.125 21.390625 47.125 36.375 
Q 47.125 51.421875 43.28125 58.90625 
Q 39.453125 66.40625 31.78125 66.40625 
z
M 31.78125 74.21875 
Q 44.046875 74.21875 50.515625 64.515625 
Q 56.984375 54.828125 56.984375 36.375 
Q 56.984375 17.96875 50.515625 8.265625 
Q 44.046875 -1.421875 31.78125 -1.421875 
Q 19.53125 -1.421875 13.0625 8.265625 
Q 6.59375 17.96875 6.59375 36.375 
Q 6.59375 54.828125 13.0625 64.515625 
Q 19.53125 74.21875 31.78125 74.21875 
z
" id="DejaVuSans-48"/>
       <path d="M 10.6875 12.40625 
L 21 12.40625 
L 21 0 
L 10.6875 0 
z
" id="DejaVuSans-46"/>
      </defs>
      <g transform="translate(44.395367 287.230498)scale(0.1 -0.1)">
       <use xlink:href="#DejaVuSans-48"/>
       <use x="63.623047" xlink:href="#DejaVuSans-46"/>
       <use x="95.410156" xlink:href="#DejaVuSans-48"/>
       <use x="159.033203" xlink:href="#DejaVuSans-48"/>
      </g>
     </g>
    </g>
    <g id="xtick_2">
     <g id="line2d_2">
      <g>
       <use style="stroke:#000000;stroke-width:0.8;" x="118.181984" xlink:href="#m158641adfd" y="273.312"/>
      </g>
     </g>
     <g id="text_2">
      <!-- 0.01 -->
      <defs>
       <path d="M 42 31.640625 
C 42 37.75 41.90625 48.125 37.703125 56.109375 
C 34 63.109375 28.09375 65.59375 22.90625 65.59375 
C 18.09375 65.59375 12 63.40625 8.203125 56.203125 
C 4.203125 48.71875 3.796875 39.4375 3.796875 31.640625 
C 3.796875 25.953125 3.90625 17.28125 7 9.671875 
C 11.296875 -0.609375 19 -2 22.90625 -2 
C 27.5 -2 34.5 -0.109375 38.59375 9.375 
C 41.59375 16.28125 42 24.359375 42 31.640625 
z
M 22.90625 -0.40625 
C 16.5 -0.40625 12.703125 5.078125 11.296875 12.6875 
C 10.203125 18.5625 10.203125 27.15625 10.203125 32.75 
C 10.203125 40.4375 10.203125 46.828125 11.5 52.921875 
C 13.40625 61.390625 19 64 22.90625 64 
C 27 64 32.296875 61.296875 34.203125 53.125 
C 35.5 47.4375 35.59375 40.734375 35.59375 32.75 
C 35.59375 26.25 35.59375 18.265625 34.40625 12.375 
C 32.296875 1.484375 26.40625 -0.40625 22.90625 -0.40625 
z
" id="CMR17-48"/>
       <path d="M 16.59375 4.078125 
C 16.59375 6.5625 14.59375 8.15625 12.5 8.15625 
C 10.5 8.15625 8.40625 6.5625 8.40625 4.078125 
C 8.40625 1.59375 10.40625 0 12.5 0 
C 14.5 0 16.59375 1.59375 16.59375 4.078125 
z
" id="CMR17-46"/>
       <path d="M 26.59375 63.40625 
C 26.59375 65.5 26.5 65.5 25.09375 65.5 
C 21.203125 61.1875 15.296875 59.796875 9.703125 59.796875 
C 9.40625 59.796875 8.90625 59.796875 8.796875 59.5 
C 8.703125 59.296875 8.703125 59.09375 8.703125 57 
C 11.796875 57 17 57.59375 21 59.984375 
L 21 7.203125 
C 21 3.6875 20.796875 2.5 12.203125 2.5 
L 9.203125 2.5 
L 9.203125 0 
C 14 0 19 0 23.796875 0 
C 28.59375 0 33.59375 0 38.40625 0 
L 38.40625 2.5 
L 35.40625 2.5 
C 26.796875 2.5 26.59375 3.59375 26.59375 7.15625 
z
" id="CMR17-49"/>
      </defs>
      <g transform="translate(109.326276 287.230498)scale(0.1 -0.1)">
       <use transform="scale(0.996264)" xlink:href="#CMR17-48"/>
       <use transform="translate(45.690477 0)scale(0.996264)" xlink:href="#CMR17-46"/>
       <use transform="translate(70.561536 0)scale(0.996264)" xlink:href="#CMR17-48"/>
       <use transform="translate(116.252013 0)scale(0.996264)" xlink:href="#CMR17-49"/>
      </g>
     </g>
    </g>
    <g id="xtick_3">
     <g id="line2d_3">
      <g>
       <use style="stroke:#000000;stroke-width:0.8;" x="183.112893" xlink:href="#m158641adfd" y="273.312"/>
      </g>
     </g>
     <g id="text_3">
      <!-- 0.02 -->
      <defs>
       <path d="M 41.703125 15.453125 
L 39.90625 15.453125 
C 38.90625 8.375 38.09375 7.171875 37.703125 6.5625 
C 37.203125 5.765625 30 5.765625 28.59375 5.765625 
L 9.40625 5.765625 
C 13 9.671875 20 16.75 28.5 24.953125 
C 34.59375 30.734375 41.703125 37.53125 41.703125 47.421875 
C 41.703125 59.21875 32.296875 66 21.796875 66 
C 10.796875 66 4.09375 56.3125 4.09375 47.34375 
C 4.09375 43.4375 7 42.9375 8.203125 42.9375 
C 9.203125 42.9375 12.203125 43.546875 12.203125 47.03125 
C 12.203125 50.109375 9.59375 51 8.203125 51 
C 7.59375 51 7 50.90625 6.59375 50.703125 
C 8.5 59.21875 14.296875 63.40625 20.40625 63.40625 
C 29.09375 63.40625 34.796875 56.515625 34.796875 47.421875 
C 34.796875 38.734375 29.703125 31.25 24 24.75 
L 4.09375 2.28125 
L 4.09375 0 
L 39.296875 0 
z
" id="CMR17-50"/>
      </defs>
      <g transform="translate(174.257186 287.230498)scale(0.1 -0.1)">
       <use transform="scale(0.996264)" xlink:href="#CMR17-48"/>
       <use transform="translate(45.690477 0)scale(0.996264)" xlink:href="#CMR17-46"/>
       <use transform="translate(70.561536 0)scale(0.996264)" xlink:href="#CMR17-48"/>
       <use transform="translate(116.252013 0)scale(0.996264)" xlink:href="#CMR17-50"/>
      </g>
     </g>
    </g>
    <g id="xtick_4">
     <g id="line2d_4">
      <g>
       <use style="stroke:#000000;stroke-width:0.8;" x="248.043802" xlink:href="#m158641adfd" y="273.312"/>
      </g>
     </g>
     <g id="text_4">
      <!-- 0.03 -->
      <defs>
       <path d="M 22.09375 33.703125 
C 31 33.703125 34.90625 25.96875 34.90625 17.03125 
C 34.90625 5 28.5 0.390625 22.703125 0.390625 
C 17.40625 0.390625 8.796875 3.03125 6.09375 10.828125 
C 6.59375 10.625 7.09375 10.625 7.59375 10.625 
C 10 10.625 11.796875 12.21875 11.796875 14.8125 
C 11.796875 17.703125 9.59375 19 7.59375 19 
C 5.90625 19 3.296875 18.203125 3.296875 14.46875 
C 3.296875 5.234375 12.296875 -2 22.90625 -2 
C 34 -2 42.5 6.71875 42.5 16.953125 
C 42.5 26.671875 34.5 33.703125 25 34.796875 
C 32.59375 36.375 39.90625 43.0625 39.90625 52.015625 
C 39.90625 59.6875 32 65.296875 23 65.296875 
C 13.90625 65.296875 5.90625 59.828125 5.90625 52.015625 
C 5.90625 48.59375 8.5 48 9.796875 48 
C 11.90625 48 13.703125 49.296875 13.703125 51.890625 
C 13.703125 54.46875 11.90625 55.765625 9.796875 55.765625 
C 9.40625 55.765625 8.90625 55.765625 8.5 55.578125 
C 11.40625 61.859375 19.296875 63 22.796875 63 
C 26.296875 63 32.90625 61.328125 32.90625 51.875 
C 32.90625 49.109375 32.5 44.1875 29.09375 39.84375 
C 26.09375 36 22.703125 36 19.40625 35.6875 
C 18.90625 35.6875 16.59375 35.453125 16.203125 35.453125 
C 15.5 35.359375 15.09375 35.265625 15.09375 34.5 
C 15.09375 33.796875 15.203125 33.703125 17.203125 33.703125 
z
" id="CMR17-51"/>
      </defs>
      <g transform="translate(239.188095 287.230498)scale(0.1 -0.1)">
       <use transform="scale(0.996264)" xlink:href="#CMR17-48"/>
       <use transform="translate(45.690477 0)scale(0.996264)" xlink:href="#CMR17-46"/>
       <use transform="translate(70.561536 0)scale(0.996264)" xlink:href="#CMR17-48"/>
       <use transform="translate(116.252013 0)scale(0.996264)" xlink:href="#CMR17-51"/>
      </g>
     </g>
    </g>
    <g id="xtick_5">
     <g id="line2d_5">
      <g>
       <use style="stroke:#000000;stroke-width:0.8;" x="312.974711" xlink:href="#m158641adfd" y="273.312"/>
      </g>
     </g>
     <g id="text_5">
      <!-- 0.04 -->
      <defs>
       <path d="M 33.59375 64.40625 
C 33.59375 66.5 33.5 66.5 31.703125 66.5 
L 2 19.59375 
L 2 17 
L 27.796875 17 
L 27.796875 7.140625 
C 27.796875 3.5 27.59375 2.5 20.59375 2.5 
L 18.703125 2.5 
L 18.703125 0 
C 21.90625 0 27.296875 0 30.703125 0 
C 34.09375 0 39.5 0 42.703125 0 
L 42.703125 2.5 
L 40.796875 2.5 
C 33.796875 2.5 33.59375 3.5 33.59375 7.140625 
L 33.59375 17 
L 43.796875 17 
L 43.796875 19.59375 
L 33.59375 19.59375 
z
M 28.09375 57.859375 
L 28.09375 19.59375 
L 4 19.59375 
z
" id="CMR17-52"/>
      </defs>
      <g transform="translate(304.119004 287.230498)scale(0.1 -0.1)">
       <use transform="scale(0.996264)" xlink:href="#CMR17-48"/>
       <use transform="translate(45.690477 0)scale(0.996264)" xlink:href="#CMR17-46"/>
       <use transform="translate(70.561536 0)scale(0.996264)" xlink:href="#CMR17-48"/>
       <use transform="translate(116.252013 0)scale(0.996264)" xlink:href="#CMR17-52"/>
      </g>
     </g>
    </g>
    <g id="xtick_6">
     <g id="line2d_6">
      <g>
       <use style="stroke:#000000;stroke-width:0.8;" x="377.90562" xlink:href="#m158641adfd" y="273.312"/>
      </g>
     </g>
     <g id="text_6">
      <!-- 0.05 -->
      <defs>
       <path d="M 11.40625 57.6875 
C 12.40625 57.28125 16.5 56 20.703125 56 
C 30 56 35.09375 61.109375 38 64.0625 
C 38 64.953125 38 65.5 37.40625 65.5 
C 37.296875 65.5 37.09375 65.5 36.296875 65.046875 
C 32.796875 63.40625 28.703125 62.078125 23.703125 62.078125 
C 20.703125 62.078125 16.203125 62.484375 11.296875 64.671875 
C 10.203125 65.171875 10 65.171875 9.90625 65.171875 
C 9.40625 65.171875 9.296875 65.0625 9.296875 63.078125 
L 9.296875 34.421875 
C 9.296875 32.640625 9.296875 32.140625 10.296875 32.140625 
C 10.796875 32.140625 11 32.34375 11.5 33.03125 
C 14.703125 37.515625 19.09375 39.40625 24.09375 39.40625 
C 27.59375 39.40625 35.09375 37.21875 35.09375 20.140625 
C 35.09375 16.953125 35.09375 11.171875 32.09375 6.578125 
C 29.59375 2.484375 25.703125 0.390625 21.40625 0.390625 
C 14.796875 0.390625 8.09375 5 6.296875 12.71875 
C 6.703125 12.609375 7.5 12.421875 7.90625 12.421875 
C 9.203125 12.421875 11.703125 13.125 11.703125 16.21875 
C 11.703125 18.90625 9.796875 20 7.90625 20 
C 5.59375 20 4.09375 18.59375 4.09375 15.796875 
C 4.09375 7.09375 11 -2 21.59375 -2 
C 31.90625 -2 41.703125 6.875 41.703125 19.75 
C 41.703125 31.71875 33.90625 41 24.203125 41 
C 19.09375 41 14.796875 39.109375 11.40625 35.53125 
z
" id="CMR17-53"/>
      </defs>
      <g transform="translate(369.049913 287.230498)scale(0.1 -0.1)">
       <use transform="scale(0.996264)" xlink:href="#CMR17-48"/>
       <use transform="translate(45.690477 0)scale(0.996264)" xlink:href="#CMR17-46"/>
       <use transform="translate(70.561536 0)scale(0.996264)" xlink:href="#CMR17-48"/>
       <use transform="translate(116.252013 0)scale(0.996264)" xlink:href="#CMR17-53"/>
      </g>
     </g>
    </g>
    <g id="text_7">
     <!-- velocity in y-direction -->
     <defs>
      <path d="M 2.984375 54.6875 
L 12.5 54.6875 
L 29.59375 8.796875 
L 46.6875 54.6875 
L 56.203125 54.6875 
L 35.6875 0 
L 23.484375 0 
z
" id="DejaVuSans-118"/>
      <path d="M 56.203125 29.59375 
L 56.203125 25.203125 
L 14.890625 25.203125 
Q 15.484375 15.921875 20.484375 11.0625 
Q 25.484375 6.203125 34.421875 6.203125 
Q 39.59375 6.203125 44.453125 7.46875 
Q 49.3125 8.734375 54.109375 11.28125 
L 54.109375 2.78125 
Q 49.265625 0.734375 44.1875 -0.34375 
Q 39.109375 -1.421875 33.890625 -1.421875 
Q 20.796875 -1.421875 13.15625 6.1875 
Q 5.515625 13.8125 5.515625 26.8125 
Q 5.515625 40.234375 12.765625 48.109375 
Q 20.015625 56 32.328125 56 
Q 43.359375 56 49.78125 48.890625 
Q 56.203125 41.796875 56.203125 29.59375 
z
M 47.21875 32.234375 
Q 47.125 39.59375 43.09375 43.984375 
Q 39.0625 48.390625 32.421875 48.390625 
Q 24.90625 48.390625 20.390625 44.140625 
Q 15.875 39.890625 15.1875 32.171875 
z
" id="DejaVuSans-101"/>
      <path d="M 9.421875 75.984375 
L 18.40625 75.984375 
L 18.40625 0 
L 9.421875 0 
z
" id="DejaVuSans-108"/>
      <path d="M 30.609375 48.390625 
Q 23.390625 48.390625 19.1875 42.75 
Q 14.984375 37.109375 14.984375 27.296875 
Q 14.984375 17.484375 19.15625 11.84375 
Q 23.34375 6.203125 30.609375 6.203125 
Q 37.796875 6.203125 41.984375 11.859375 
Q 46.1875 17.53125 46.1875 27.296875 
Q 46.1875 37.015625 41.984375 42.703125 
Q 37.796875 48.390625 30.609375 48.390625 
z
M 30.609375 56 
Q 42.328125 56 49.015625 48.375 
Q 55.71875 40.765625 55.71875 27.296875 
Q 55.71875 13.875 49.015625 6.21875 
Q 42.328125 -1.421875 30.609375 -1.421875 
Q 18.84375 -1.421875 12.171875 6.21875 
Q 5.515625 13.875 5.515625 27.296875 
Q 5.515625 40.765625 12.171875 48.375 
Q 18.84375 56 30.609375 56 
z
" id="DejaVuSans-111"/>
      <path d="M 48.78125 52.59375 
L 48.78125 44.1875 
Q 44.96875 46.296875 41.140625 47.34375 
Q 37.3125 48.390625 33.40625 48.390625 
Q 24.65625 48.390625 19.8125 42.84375 
Q 14.984375 37.3125 14.984375 27.296875 
Q 14.984375 17.28125 19.8125 11.734375 
Q 24.65625 6.203125 33.40625 6.203125 
Q 37.3125 6.203125 41.140625 7.25 
Q 44.96875 8.296875 48.78125 10.40625 
L 48.78125 2.09375 
Q 45.015625 0.34375 40.984375 -0.53125 
Q 36.96875 -1.421875 32.421875 -1.421875 
Q 20.0625 -1.421875 12.78125 6.34375 
Q 5.515625 14.109375 5.515625 27.296875 
Q 5.515625 40.671875 12.859375 48.328125 
Q 20.21875 56 33.015625 56 
Q 37.15625 56 41.109375 55.140625 
Q 45.0625 54.296875 48.78125 52.59375 
z
" id="DejaVuSans-99"/>
      <path d="M 9.421875 54.6875 
L 18.40625 54.6875 
L 18.40625 0 
L 9.421875 0 
z
M 9.421875 75.984375 
L 18.40625 75.984375 
L 18.40625 64.59375 
L 9.421875 64.59375 
z
" id="DejaVuSans-105"/>
      <path d="M 18.3125 70.21875 
L 18.3125 54.6875 
L 36.8125 54.6875 
L 36.8125 47.703125 
L 18.3125 47.703125 
L 18.3125 18.015625 
Q 18.3125 11.328125 20.140625 9.421875 
Q 21.96875 7.515625 27.59375 7.515625 
L 36.8125 7.515625 
L 36.8125 0 
L 27.59375 0 
Q 17.1875 0 13.234375 3.875 
Q 9.28125 7.765625 9.28125 18.015625 
L 9.28125 47.703125 
L 2.6875 47.703125 
L 2.6875 54.6875 
L 9.28125 54.6875 
L 9.28125 70.21875 
z
" id="DejaVuSans-116"/>
      <path d="M 32.171875 -5.078125 
Q 28.375 -14.84375 24.75 -17.8125 
Q 21.140625 -20.796875 15.09375 -20.796875 
L 7.90625 -20.796875 
L 7.90625 -13.28125 
L 13.1875 -13.28125 
Q 16.890625 -13.28125 18.9375 -11.515625 
Q 21 -9.765625 23.484375 -3.21875 
L 25.09375 0.875 
L 2.984375 54.6875 
L 12.5 54.6875 
L 29.59375 11.921875 
L 46.6875 54.6875 
L 56.203125 54.6875 
z
" id="DejaVuSans-121"/>
      <path id="DejaVuSans-32"/>
      <path d="M 54.890625 33.015625 
L 54.890625 0 
L 45.90625 0 
L 45.90625 32.71875 
Q 45.90625 40.484375 42.875 44.328125 
Q 39.84375 48.1875 33.796875 48.1875 
Q 26.515625 48.1875 22.3125 43.546875 
Q 18.109375 38.921875 18.109375 30.90625 
L 18.109375 0 
L 9.078125 0 
L 9.078125 54.6875 
L 18.109375 54.6875 
L 18.109375 46.1875 
Q 21.34375 51.125 25.703125 53.5625 
Q 30.078125 56 35.796875 56 
Q 45.21875 56 50.046875 50.171875 
Q 54.890625 44.34375 54.890625 33.015625 
z
" id="DejaVuSans-110"/>
      <path d="M 4.890625 31.390625 
L 31.203125 31.390625 
L 31.203125 23.390625 
L 4.890625 23.390625 
z
" id="DejaVuSans-45"/>
      <path d="M 45.40625 46.390625 
L 45.40625 75.984375 
L 54.390625 75.984375 
L 54.390625 0 
L 45.40625 0 
L 45.40625 8.203125 
Q 42.578125 3.328125 38.25 0.953125 
Q 33.9375 -1.421875 27.875 -1.421875 
Q 17.96875 -1.421875 11.734375 6.484375 
Q 5.515625 14.40625 5.515625 27.296875 
Q 5.515625 40.1875 11.734375 48.09375 
Q 17.96875 56 27.875 56 
Q 33.9375 56 38.25 53.625 
Q 42.578125 51.265625 45.40625 46.390625 
z
M 14.796875 27.296875 
Q 14.796875 17.390625 18.875 11.75 
Q 22.953125 6.109375 30.078125 6.109375 
Q 37.203125 6.109375 41.296875 11.75 
Q 45.40625 17.390625 45.40625 27.296875 
Q 45.40625 37.203125 41.296875 42.84375 
Q 37.203125 48.484375 30.078125 48.484375 
Q 22.953125 48.484375 18.875 42.84375 
Q 14.796875 37.203125 14.796875 27.296875 
z
" id="DejaVuSans-100"/>
      <path d="M 41.109375 46.296875 
Q 39.59375 47.171875 37.8125 47.578125 
Q 36.03125 48 33.890625 48 
Q 26.265625 48 22.1875 43.046875 
Q 18.109375 38.09375 18.109375 28.8125 
L 18.109375 0 
L 9.078125 0 
L 9.078125 54.6875 
L 18.109375 54.6875 
L 18.109375 46.1875 
Q 20.953125 51.171875 25.484375 53.578125 
Q 30.03125 56 36.53125 56 
Q 37.453125 56 38.578125 55.875 
Q 39.703125 55.765625 41.0625 55.515625 
z
" id="DejaVuSans-114"/>
     </defs>
     <g transform="translate(167.965133 300.086175)scale(0.1 -0.1)">
      <use xlink:href="#DejaVuSans-118"/>
      <use x="59.179688" xlink:href="#DejaVuSans-101"/>
      <use x="120.703125" xlink:href="#DejaVuSans-108"/>
      <use x="148.486328" xlink:href="#DejaVuSans-111"/>
      <use x="209.667969" xlink:href="#DejaVuSans-99"/>
      <use x="264.648438" xlink:href="#DejaVuSans-105"/>
      <use x="292.431641" xlink:href="#DejaVuSans-116"/>
      <use x="331.640625" xlink:href="#DejaVuSans-121"/>
      <use x="390.820312" xlink:href="#DejaVuSans-32"/>
      <use x="422.607422" xlink:href="#DejaVuSans-105"/>
      <use x="450.390625" xlink:href="#DejaVuSans-110"/>
      <use x="513.769531" xlink:href="#DejaVuSans-32"/>
      <use x="545.556641" xlink:href="#DejaVuSans-121"/>
      <use x="602.986328" xlink:href="#DejaVuSans-45"/>
      <use x="639.070312" xlink:href="#DejaVuSans-100"/>
      <use x="702.546875" xlink:href="#DejaVuSans-105"/>
      <use x="730.330078" xlink:href="#DejaVuSans-114"/>
      <use x="769.193359" xlink:href="#DejaVuSans-101"/>
      <use x="830.716797" xlink:href="#DejaVuSans-99"/>
      <use x="885.697266" xlink:href="#DejaVuSans-116"/>
      <use x="924.90625" xlink:href="#DejaVuSans-105"/>
      <use x="952.689453" xlink:href="#DejaVuSans-111"/>
      <use x="1013.871094" xlink:href="#DejaVuSans-110"/>
     </g>
    </g>
   </g>
   <g id="matplotlib.axis_2">
    <g id="ytick_1">
     <g id="line2d_7">
      <defs>
       <path d="M 0 0 
L -3.5 0 
" id="meccf05f9c1" style="stroke:#000000;stroke-width:0.8;"/>
      </defs>
      <g>
       <use style="stroke:#000000;stroke-width:0.8;" x="37.018347" xlink:href="#meccf05f9c1" y="257.184"/>
      </g>
     </g>
     <g id="text_8">
      <!-- 0 -->
      <g transform="translate(25.037012 260.643249)scale(0.1 -0.1)">
       <use xlink:href="#DejaVuSans-48"/>
      </g>
     </g>
    </g>
    <g id="ytick_2">
     <g id="line2d_8">
      <g>
       <use style="stroke:#000000;stroke-width:0.8;" x="37.018347" xlink:href="#meccf05f9c1" y="216.864"/>
      </g>
     </g>
     <g id="text_9">
      <!-- 5 -->
      <g transform="translate(25.037012 220.323249)scale(0.1 -0.1)">
       <use transform="scale(0.996264)" xlink:href="#CMR17-53"/>
      </g>
     </g>
    </g>
    <g id="ytick_3">
     <g id="line2d_9">
      <g>
       <use style="stroke:#000000;stroke-width:0.8;" x="37.018347" xlink:href="#meccf05f9c1" y="176.544"/>
      </g>
     </g>
     <g id="text_10">
      <!-- 10 -->
      <g transform="translate(20.055677 180.003249)scale(0.1 -0.1)">
       <use transform="scale(0.996264)" xlink:href="#CMR17-49"/>
       <use transform="translate(45.690477 0)scale(0.996264)" xlink:href="#CMR17-48"/>
      </g>
     </g>
    </g>
    <g id="ytick_4">
     <g id="line2d_10">
      <g>
       <use style="stroke:#000000;stroke-width:0.8;" x="37.018347" xlink:href="#meccf05f9c1" y="136.224"/>
      </g>
     </g>
     <g id="text_11">
      <!-- 15 -->
      <g transform="translate(20.055677 139.683249)scale(0.1 -0.1)">
       <use transform="scale(0.996264)" xlink:href="#CMR17-49"/>
       <use transform="translate(45.690477 0)scale(0.996264)" xlink:href="#CMR17-53"/>
      </g>
     </g>
    </g>
    <g id="ytick_5">
     <g id="line2d_11">
      <g>
       <use style="stroke:#000000;stroke-width:0.8;" x="37.018347" xlink:href="#meccf05f9c1" y="95.904"/>
      </g>
     </g>
     <g id="text_12">
      <!-- 20 -->
      <g transform="translate(20.055677 99.363249)scale(0.1 -0.1)">
       <use transform="scale(0.996264)" xlink:href="#CMR17-50"/>
       <use transform="translate(45.690477 0)scale(0.996264)" xlink:href="#CMR17-48"/>
      </g>
     </g>
    </g>
    <g id="ytick_6">
     <g id="line2d_12">
      <g>
       <use style="stroke:#000000;stroke-width:0.8;" x="37.018347" xlink:href="#meccf05f9c1" y="55.584"/>
      </g>
     </g>
     <g id="text_13">
      <!-- 25 -->
      <g transform="translate(20.055677 59.043249)scale(0.1 -0.1)">
       <use transform="scale(0.996264)" xlink:href="#CMR17-50"/>
       <use transform="translate(45.690477 0)scale(0.996264)" xlink:href="#CMR17-53"/>
      </g>
     </g>
    </g>
    <g id="ytick_7">
     <g id="line2d_13">
      <g>
       <use style="stroke:#000000;stroke-width:0.8;" x="37.018347" xlink:href="#meccf05f9c1" y="15.264"/>
      </g>
     </g>
     <g id="text_14">
      <!-- 30 -->
      <g transform="translate(20.055677 18.723249)scale(0.1 -0.1)">
       <use transform="scale(0.996264)" xlink:href="#CMR17-51"/>
       <use transform="translate(45.690477 0)scale(0.996264)" xlink:href="#CMR17-48"/>
      </g>
     </g>
    </g>
    <g id="text_15">
     <!-- y coordinate -->
     <defs>
      <path d="M 34.28125 27.484375 
Q 23.390625 27.484375 19.1875 25 
Q 14.984375 22.515625 14.984375 16.5 
Q 14.984375 11.71875 18.140625 8.90625 
Q 21.296875 6.109375 26.703125 6.109375 
Q 34.1875 6.109375 38.703125 11.40625 
Q 43.21875 16.703125 43.21875 25.484375 
L 43.21875 27.484375 
z
M 52.203125 31.203125 
L 52.203125 0 
L 43.21875 0 
L 43.21875 8.296875 
Q 40.140625 3.328125 35.546875 0.953125 
Q 30.953125 -1.421875 24.3125 -1.421875 
Q 15.921875 -1.421875 10.953125 3.296875 
Q 6 8.015625 6 15.921875 
Q 6 25.140625 12.171875 29.828125 
Q 18.359375 34.515625 30.609375 34.515625 
L 43.21875 34.515625 
L 43.21875 35.40625 
Q 43.21875 41.609375 39.140625 45 
Q 35.0625 48.390625 27.6875 48.390625 
Q 23 48.390625 18.546875 47.265625 
Q 14.109375 46.140625 10.015625 43.890625 
L 10.015625 52.203125 
Q 14.9375 54.109375 19.578125 55.046875 
Q 24.21875 56 28.609375 56 
Q 40.484375 56 46.34375 49.84375 
Q 52.203125 43.703125 52.203125 31.203125 
z
" id="DejaVuSans-97"/>
     </defs>
     <g transform="translate(14.118498 167.390421)rotate(-90)scale(0.1 -0.1)">
      <use xlink:href="#DejaVuSans-121"/>
      <use x="59.179688" xlink:href="#DejaVuSans-32"/>
      <use x="90.966797" xlink:href="#DejaVuSans-99"/>
      <use x="145.947266" xlink:href="#DejaVuSans-111"/>
      <use x="207.128906" xlink:href="#DejaVuSans-111"/>
      <use x="268.310547" xlink:href="#DejaVuSans-114"/>
      <use x="307.673828" xlink:href="#DejaVuSans-100"/>
      <use x="371.150391" xlink:href="#DejaVuSans-105"/>
      <use x="398.933594" xlink:href="#DejaVuSans-110"/>
      <use x="462.3125" xlink:href="#DejaVuSans-97"/>
      <use x="523.591797" xlink:href="#DejaVuSans-116"/>
      <use x="562.800781" xlink:href="#DejaVuSans-101"/>
     </g>
    </g>
   </g>
   <g id="line2d_14">
    <path clip-path="url(#p8e1483dbdc)" d="M 372.487479 257.184 
L 361.651276 249.12 
L 350.81531 241.056 
L 339.979736 232.992 
L 329.144705 224.928 
L 318.31036 216.864 
L 307.476841 208.8 
L 296.644274 200.736 
L 285.812777 192.672 
L 274.982458 184.608 
L 264.153408 176.544 
L 253.325706 168.48 
L 242.499419 160.416 
L 231.674593 152.352 
L 220.851263 144.288 
L 210.029445 136.224 
L 199.209139 128.16 
L 188.390328 120.096 
L 177.572979 112.032 
L 166.757044 103.968 
L 155.942458 95.904 
L 145.129141 87.84 
L 134.317001 79.776 
L 123.505932 71.712 
L 112.695815 63.648 
L 101.886523 55.584 
L 91.077918 47.52 
L 80.269856 39.456 
L 69.462185 31.392 
L 58.654752 23.328 
" style="fill:none;stroke:#0000ff;stroke-dasharray:1,1.65;stroke-dashoffset:0;"/>
   </g>
   <g id="line2d_15">
    <path clip-path="url(#p8e1483dbdc)" d="M 377.90562 257.184 
L 366.710636 249.12 
L 355.515651 241.056 
L 344.320667 232.992 
L 333.125683 224.928 
L 321.930698 216.864 
L 310.735714 208.8 
L 299.54073 200.736 
L 288.345745 192.672 
L 277.150761 184.608 
L 265.955777 176.544 
L 254.760792 168.48 
L 243.565808 160.416 
L 232.370824 152.352 
L 221.175839 144.288 
L 209.980855 136.224 
L 198.785871 128.16 
L 187.590886 120.096 
L 176.395902 112.032 
L 165.200918 103.968 
L 154.005933 95.904 
L 142.810949 87.84 
L 131.615965 79.776 
L 120.42098 71.712 
L 109.225996 63.648 
L 98.031012 55.584 
L 86.836027 47.52 
L 75.641043 39.456 
L 64.446059 31.392 
L 53.251074 23.328 
" style="fill:none;stroke:#ff0000;stroke-dasharray:5.55,2.4;stroke-dashoffset:0;stroke-width:1.5;"/>
   </g>
   <g id="line2d_16">
    <path clip-path="url(#p8e1483dbdc)" d="M 53.251074 19.296 
L 56.530413 19.296 
L 59.809752 19.296 
L 63.089091 19.296 
L 66.36843 19.296 
L 69.647769 19.296 
L 72.927108 19.296 
L 76.206446 19.296 
L 79.485785 19.296 
L 82.765124 19.296 
L 86.044463 19.296 
L 89.323802 19.296 
L 92.603141 19.296 
L 95.882479 19.296 
L 99.161818 19.296 
L 102.441157 19.296 
L 105.720496 19.296 
L 108.999835 19.296 
L 112.279174 19.296 
L 115.558513 19.296 
L 118.837851 19.296 
L 122.11719 19.296 
L 125.396529 19.296 
L 128.675868 19.296 
L 131.955207 19.296 
L 135.234546 19.296 
L 138.513884 19.296 
L 141.793223 19.296 
L 145.072562 19.296 
L 148.351901 19.296 
L 151.63124 19.296 
L 154.910579 19.296 
L 158.189917 19.296 
L 161.469256 19.296 
L 164.748595 19.296 
L 168.027934 19.296 
L 171.307273 19.296 
L 174.586612 19.296 
L 177.865951 19.296 
L 181.145289 19.296 
L 184.424628 19.296 
L 187.703967 19.296 
L 190.983306 19.296 
L 194.262645 19.296 
L 197.541984 19.296 
L 200.821322 19.296 
L 204.100661 19.296 
L 207.38 19.296 
L 210.659339 19.296 
L 213.938678 19.296 
L 217.218017 19.296 
L 220.497355 19.296 
L 223.776694 19.296 
L 227.056033 19.296 
L 230.335372 19.296 
L 233.614711 19.296 
L 236.89405 19.296 
L 240.173389 19.296 
L 243.452727 19.296 
L 246.732066 19.296 
L 250.011405 19.296 
L 253.290744 19.296 
L 256.570083 19.296 
L 259.849422 19.296 
L 263.12876 19.296 
L 266.408099 19.296 
L 269.687438 19.296 
L 272.966777 19.296 
L 276.246116 19.296 
L 279.525455 19.296 
L 282.804793 19.296 
L 286.084132 19.296 
L 289.363471 19.296 
L 292.64281 19.296 
L 295.922149 19.296 
L 299.201488 19.296 
L 302.480827 19.296 
L 305.760165 19.296 
L 309.039504 19.296 
L 312.318843 19.296 
L 315.598182 19.296 
L 318.877521 19.296 
L 322.15686 19.296 
L 325.436198 19.296 
L 328.715537 19.296 
L 331.994876 19.296 
L 335.274215 19.296 
L 338.553554 19.296 
L 341.832893 19.296 
L 345.112232 19.296 
L 348.39157 19.296 
L 351.670909 19.296 
L 354.950248 19.296 
L 358.229587 19.296 
L 361.508926 19.296 
L 364.788265 19.296 
L 368.067603 19.296 
L 371.346942 19.296 
L 374.626281 19.296 
L 377.90562 19.296 
" style="fill:none;stroke:#ffa500;stroke-dasharray:9.6,2.4,1.5,2.4;stroke-dashoffset:0;stroke-width:1.5;"/>
   </g>
   <g id="line2d_17">
    <path clip-path="url(#p8e1483dbdc)" d="M 53.251074 261.216 
L 56.530413 261.216 
L 59.809752 261.216 
L 63.089091 261.216 
L 66.36843 261.216 
L 69.647769 261.216 
L 72.927108 261.216 
L 76.206446 261.216 
L 79.485785 261.216 
L 82.765124 261.216 
L 86.044463 261.216 
L 89.323802 261.216 
L 92.603141 261.216 
L 95.882479 261.216 
L 99.161818 261.216 
L 102.441157 261.216 
L 105.720496 261.216 
L 108.999835 261.216 
L 112.279174 261.216 
L 115.558513 261.216 
L 118.837851 261.216 
L 122.11719 261.216 
L 125.396529 261.216 
L 128.675868 261.216 
L 131.955207 261.216 
L 135.234546 261.216 
L 138.513884 261.216 
L 141.793223 261.216 
L 145.072562 261.216 
L 148.351901 261.216 
L 151.63124 261.216 
L 154.910579 261.216 
L 158.189917 261.216 
L 161.469256 261.216 
L 164.748595 261.216 
L 168.027934 261.216 
L 171.307273 261.216 
L 174.586612 261.216 
L 177.865951 261.216 
L 181.145289 261.216 
L 184.424628 261.216 
L 187.703967 261.216 
L 190.983306 261.216 
L 194.262645 261.216 
L 197.541984 261.216 
L 200.821322 261.216 
L 204.100661 261.216 
L 207.38 261.216 
L 210.659339 261.216 
L 213.938678 261.216 
L 217.218017 261.216 
L 220.497355 261.216 
L 223.776694 261.216 
L 227.056033 261.216 
L 230.335372 261.216 
L 233.614711 261.216 
L 236.89405 261.216 
L 240.173389 261.216 
L 243.452727 261.216 
L 246.732066 261.216 
L 250.011405 261.216 
L 253.290744 261.216 
L 256.570083 261.216 
L 259.849422 261.216 
L 263.12876 261.216 
L 266.408099 261.216 
L 269.687438 261.216 
L 272.966777 261.216 
L 276.246116 261.216 
L 279.525455 261.216 
L 282.804793 261.216 
L 286.084132 261.216 
L 289.363471 261.216 
L 292.64281 261.216 
L 295.922149 261.216 
L 299.201488 261.216 
L 302.480827 261.216 
L 305.760165 261.216 
L 309.039504 261.216 
L 312.318843 261.216 
L 315.598182 261.216 
L 318.877521 261.216 
L 322.15686 261.216 
L 325.436198 261.216 
L 328.715537 261.216 
L 331.994876 261.216 
L 335.274215 261.216 
L 338.553554 261.216 
L 341.832893 261.216 
L 345.112232 261.216 
L 348.39157 261.216 
L 351.670909 261.216 
L 354.950248 261.216 
L 358.229587 261.216 
L 361.508926 261.216 
L 364.788265 261.216 
L 368.067603 261.216 
L 371.346942 261.216 
L 374.626281 261.216 
L 377.90562 261.216 
" style="fill:none;stroke:#008000;stroke-linecap:square;stroke-width:1.5;"/>
   </g>
   <g id="patch_3">
    <path d="M 37.018347 273.312 
L 37.018347 7.2 
" style="fill:none;stroke:#000000;stroke-linecap:square;stroke-linejoin:miter;stroke-width:0.8;"/>
   </g>
   <g id="patch_4">
    <path d="M 394.138347 273.312 
L 394.138347 7.2 
" style="fill:none;stroke:#000000;stroke-linecap:square;stroke-linejoin:miter;stroke-width:0.8;"/>
   </g>
   <g id="patch_5">
    <path d="M 37.018347 273.312 
L 394.138347 273.312 
" style="fill:none;stroke:#000000;stroke-linecap:square;stroke-linejoin:miter;stroke-width:0.8;"/>
   </g>
   <g id="patch_6">
    <path d="M 37.018347 7.2 
L 394.138347 7.2 
" style="fill:none;stroke:#000000;stroke-linecap:square;stroke-linejoin:miter;stroke-width:0.8;"/>
   </g>
   <g id="legend_1">
    <g id="patch_7">
     <path d="M 299.513475 169.630357 
L 387.138347 169.630357 
Q 389.138347 169.630357 389.138347 167.630357 
L 389.138347 112.881643 
Q 389.138347 110.881643 387.138347 110.881643 
L 299.513475 110.881643 
Q 297.513475 110.881643 297.513475 112.881643 
L 297.513475 167.630357 
Q 297.513475 169.630357 299.513475 169.630357 
z
" style="fill:#ffffff;opacity:0.8;stroke:#cccccc;stroke-linejoin:miter;"/>
    </g>
    <g id="line2d_18">
     <path d="M 301.513475 118.381643 
L 321.513475 118.381643 
" style="fill:none;stroke:#0000ff;stroke-dasharray:1,1.65;stroke-dashoffset:0;"/>
    </g>
    <g id="line2d_19"/>
    <g id="text_16">
     <!-- Simul. Sol. -->
     <defs>
      <path d="M 53.515625 70.515625 
L 53.515625 60.890625 
Q 47.90625 63.578125 42.921875 64.890625 
Q 37.9375 66.21875 33.296875 66.21875 
Q 25.25 66.21875 20.875 63.09375 
Q 16.5 59.96875 16.5 54.203125 
Q 16.5 49.359375 19.40625 46.890625 
Q 22.3125 44.4375 30.421875 42.921875 
L 36.375 41.703125 
Q 47.40625 39.59375 52.65625 34.296875 
Q 57.90625 29 57.90625 20.125 
Q 57.90625 9.515625 50.796875 4.046875 
Q 43.703125 -1.421875 29.984375 -1.421875 
Q 24.8125 -1.421875 18.96875 -0.25 
Q 13.140625 0.921875 6.890625 3.21875 
L 6.890625 13.375 
Q 12.890625 10.015625 18.65625 8.296875 
Q 24.421875 6.59375 29.984375 6.59375 
Q 38.421875 6.59375 43.015625 9.90625 
Q 47.609375 13.234375 47.609375 19.390625 
Q 47.609375 24.75 44.3125 27.78125 
Q 41.015625 30.8125 33.5 32.328125 
L 27.484375 33.5 
Q 16.453125 35.6875 11.515625 40.375 
Q 6.59375 45.0625 6.59375 53.421875 
Q 6.59375 63.09375 13.40625 68.65625 
Q 20.21875 74.21875 32.171875 74.21875 
Q 37.3125 74.21875 42.625 73.28125 
Q 47.953125 72.359375 53.515625 70.515625 
z
" id="DejaVuSans-83"/>
      <path d="M 52 44.1875 
Q 55.375 50.25 60.0625 53.125 
Q 64.75 56 71.09375 56 
Q 79.640625 56 84.28125 50.015625 
Q 88.921875 44.046875 88.921875 33.015625 
L 88.921875 0 
L 79.890625 0 
L 79.890625 32.71875 
Q 79.890625 40.578125 77.09375 44.375 
Q 74.3125 48.1875 68.609375 48.1875 
Q 61.625 48.1875 57.5625 43.546875 
Q 53.515625 38.921875 53.515625 30.90625 
L 53.515625 0 
L 44.484375 0 
L 44.484375 32.71875 
Q 44.484375 40.625 41.703125 44.40625 
Q 38.921875 48.1875 33.109375 48.1875 
Q 26.21875 48.1875 22.15625 43.53125 
Q 18.109375 38.875 18.109375 30.90625 
L 18.109375 0 
L 9.078125 0 
L 9.078125 54.6875 
L 18.109375 54.6875 
L 18.109375 46.1875 
Q 21.1875 51.21875 25.484375 53.609375 
Q 29.78125 56 35.6875 56 
Q 41.65625 56 45.828125 52.96875 
Q 50 49.953125 52 44.1875 
z
" id="DejaVuSans-109"/>
      <path d="M 8.5 21.578125 
L 8.5 54.6875 
L 17.484375 54.6875 
L 17.484375 21.921875 
Q 17.484375 14.15625 20.5 10.265625 
Q 23.53125 6.390625 29.59375 6.390625 
Q 36.859375 6.390625 41.078125 11.03125 
Q 45.3125 15.671875 45.3125 23.6875 
L 45.3125 54.6875 
L 54.296875 54.6875 
L 54.296875 0 
L 45.3125 0 
L 45.3125 8.40625 
Q 42.046875 3.421875 37.71875 1 
Q 33.40625 -1.421875 27.6875 -1.421875 
Q 18.265625 -1.421875 13.375 4.4375 
Q 8.5 10.296875 8.5 21.578125 
z
M 31.109375 56 
z
" id="DejaVuSans-117"/>
     </defs>
     <g transform="translate(329.513475 121.881643)scale(0.1 -0.1)">
      <use xlink:href="#DejaVuSans-83"/>
      <use x="63.476562" xlink:href="#DejaVuSans-105"/>
      <use x="91.259766" xlink:href="#DejaVuSans-109"/>
      <use x="188.671875" xlink:href="#DejaVuSans-117"/>
      <use x="252.050781" xlink:href="#DejaVuSans-108"/>
      <use x="279.833984" xlink:href="#DejaVuSans-46"/>
      <use x="311.621094" xlink:href="#DejaVuSans-32"/>
      <use x="343.408203" xlink:href="#DejaVuSans-83"/>
      <use x="406.884766" xlink:href="#DejaVuSans-111"/>
      <use x="468.066406" xlink:href="#DejaVuSans-108"/>
      <use x="495.849609" xlink:href="#DejaVuSans-46"/>
     </g>
    </g>
    <g id="line2d_20">
     <path d="M 301.513475 132.318822 
L 321.513475 132.318822 
" style="fill:none;stroke:#ff0000;stroke-dasharray:5.55,2.4;stroke-dashoffset:0;stroke-width:1.5;"/>
    </g>
    <g id="line2d_21"/>
    <g id="text_17">
     <!-- Analyt. Sol. -->
     <defs>
      <path d="M 34.1875 63.1875 
L 20.796875 26.90625 
L 47.609375 26.90625 
z
M 28.609375 72.90625 
L 39.796875 72.90625 
L 67.578125 0 
L 57.328125 0 
L 50.6875 18.703125 
L 17.828125 18.703125 
L 11.1875 0 
L 0.78125 0 
z
" id="DejaVuSans-65"/>
     </defs>
     <g transform="translate(329.513475 135.818822)scale(0.1 -0.1)">
      <use xlink:href="#DejaVuSans-65"/>
      <use x="68.408203" xlink:href="#DejaVuSans-110"/>
      <use x="131.787109" xlink:href="#DejaVuSans-97"/>
      <use x="193.066406" xlink:href="#DejaVuSans-108"/>
      <use x="220.849609" xlink:href="#DejaVuSans-121"/>
      <use x="280.029297" xlink:href="#DejaVuSans-116"/>
      <use x="319.238281" xlink:href="#DejaVuSans-46"/>
      <use x="351.025391" xlink:href="#DejaVuSans-32"/>
      <use x="382.8125" xlink:href="#DejaVuSans-83"/>
      <use x="446.289062" xlink:href="#DejaVuSans-111"/>
      <use x="507.470703" xlink:href="#DejaVuSans-108"/>
      <use x="535.253906" xlink:href="#DejaVuSans-46"/>
     </g>
    </g>
    <g id="line2d_22">
     <path d="M 301.513475 146.256 
L 321.513475 146.256 
" style="fill:none;stroke:#ffa500;stroke-dasharray:9.6,2.4,1.5,2.4;stroke-dashoffset:0;stroke-width:1.5;"/>
    </g>
    <g id="line2d_23"/>
    <g id="text_18">
     <!-- Rigid Wall -->
     <defs>
      <path d="M 44.390625 34.1875 
Q 47.5625 33.109375 50.5625 29.59375 
Q 53.5625 26.078125 56.59375 19.921875 
L 66.609375 0 
L 56 0 
L 46.6875 18.703125 
Q 43.0625 26.03125 39.671875 28.421875 
Q 36.28125 30.8125 30.421875 30.8125 
L 19.671875 30.8125 
L 19.671875 0 
L 9.8125 0 
L 9.8125 72.90625 
L 32.078125 72.90625 
Q 44.578125 72.90625 50.734375 67.671875 
Q 56.890625 62.453125 56.890625 51.90625 
Q 56.890625 45.015625 53.6875 40.46875 
Q 50.484375 35.9375 44.390625 34.1875 
z
M 19.671875 64.796875 
L 19.671875 38.921875 
L 32.078125 38.921875 
Q 39.203125 38.921875 42.84375 42.21875 
Q 46.484375 45.515625 46.484375 51.90625 
Q 46.484375 58.296875 42.84375 61.546875 
Q 39.203125 64.796875 32.078125 64.796875 
z
" id="DejaVuSans-82"/>
      <path d="M 45.40625 27.984375 
Q 45.40625 37.75 41.375 43.109375 
Q 37.359375 48.484375 30.078125 48.484375 
Q 22.859375 48.484375 18.828125 43.109375 
Q 14.796875 37.75 14.796875 27.984375 
Q 14.796875 18.265625 18.828125 12.890625 
Q 22.859375 7.515625 30.078125 7.515625 
Q 37.359375 7.515625 41.375 12.890625 
Q 45.40625 18.265625 45.40625 27.984375 
z
M 54.390625 6.78125 
Q 54.390625 -7.171875 48.1875 -13.984375 
Q 42 -20.796875 29.203125 -20.796875 
Q 24.46875 -20.796875 20.265625 -20.09375 
Q 16.0625 -19.390625 12.109375 -17.921875 
L 12.109375 -9.1875 
Q 16.0625 -11.328125 19.921875 -12.34375 
Q 23.78125 -13.375 27.78125 -13.375 
Q 36.625 -13.375 41.015625 -8.765625 
Q 45.40625 -4.15625 45.40625 5.171875 
L 45.40625 9.625 
Q 42.625 4.78125 38.28125 2.390625 
Q 33.9375 0 27.875 0 
Q 17.828125 0 11.671875 7.65625 
Q 5.515625 15.328125 5.515625 27.984375 
Q 5.515625 40.671875 11.671875 48.328125 
Q 17.828125 56 27.875 56 
Q 33.9375 56 38.28125 53.609375 
Q 42.625 51.21875 45.40625 46.390625 
L 45.40625 54.6875 
L 54.390625 54.6875 
z
" id="DejaVuSans-103"/>
      <path d="M 3.328125 72.90625 
L 13.28125 72.90625 
L 28.609375 11.28125 
L 43.890625 72.90625 
L 54.984375 72.90625 
L 70.3125 11.28125 
L 85.59375 72.90625 
L 95.609375 72.90625 
L 77.296875 0 
L 64.890625 0 
L 49.515625 63.28125 
L 33.984375 0 
L 21.578125 0 
z
" id="DejaVuSans-87"/>
     </defs>
     <g transform="translate(329.513475 149.756)scale(0.1 -0.1)">
      <use xlink:href="#DejaVuSans-82"/>
      <use x="69.482422" xlink:href="#DejaVuSans-105"/>
      <use x="97.265625" xlink:href="#DejaVuSans-103"/>
      <use x="160.742188" xlink:href="#DejaVuSans-105"/>
      <use x="188.525391" xlink:href="#DejaVuSans-100"/>
      <use x="252.001953" xlink:href="#DejaVuSans-32"/>
      <use x="283.789062" xlink:href="#DejaVuSans-87"/>
      <use x="376.291016" xlink:href="#DejaVuSans-97"/>
      <use x="437.570312" xlink:href="#DejaVuSans-108"/>
      <use x="465.353516" xlink:href="#DejaVuSans-108"/>
     </g>
    </g>
    <g id="line2d_24">
     <path d="M 301.513475 160.193178 
L 321.513475 160.193178 
" style="fill:none;stroke:#008000;stroke-linecap:square;stroke-width:1.5;"/>
    </g>
    <g id="line2d_25"/>
    <g id="text_19">
     <!-- Moving Wall -->
     <defs>
      <path d="M 9.8125 72.90625 
L 24.515625 72.90625 
L 43.109375 23.296875 
L 61.8125 72.90625 
L 76.515625 72.90625 
L 76.515625 0 
L 66.890625 0 
L 66.890625 64.015625 
L 48.09375 14.015625 
L 38.1875 14.015625 
L 19.390625 64.015625 
L 19.390625 0 
L 9.8125 0 
z
" id="DejaVuSans-77"/>
     </defs>
     <g transform="translate(329.513475 163.693178)scale(0.1 -0.1)">
      <use xlink:href="#DejaVuSans-77"/>
      <use x="86.279297" xlink:href="#DejaVuSans-111"/>
      <use x="147.460938" xlink:href="#DejaVuSans-118"/>
      <use x="206.640625" xlink:href="#DejaVuSans-105"/>
      <use x="234.423828" xlink:href="#DejaVuSans-110"/>
      <use x="297.802734" xlink:href="#DejaVuSans-103"/>
      <use x="361.279297" xlink:href="#DejaVuSans-32"/>
      <use x="393.066406" xlink:href="#DejaVuSans-87"/>
      <use x="485.568359" xlink:href="#DejaVuSans-97"/>
      <use x="546.847656" xlink:href="#DejaVuSans-108"/>
      <use x="574.630859" xlink:href="#DejaVuSans-108"/>
     </g>
    </g>
   </g>
  </g>
 </g>
 <defs>
  <clipPath id="p8e1483dbdc">
   <rect height="266.112" width="357.12" x="37.018347" y="7.2"/>
  </clipPath>
 </defs>
</svg>
