<?xml version="1.0" encoding="utf-8" standalone="no"?>
<!DOCTYPE svg PUBLIC "-//W3C//DTD SVG 1.1//EN"
  "http://www.w3.org/Graphics/SVG/1.1/DTD/svg11.dtd">
<!-- Created with matplotlib (https://matplotlib.org/) -->
<svg height="345.6pt" version="1.1" viewBox="0 0 460.8 345.6" width="460.8pt" xmlns="http://www.w3.org/2000/svg" xmlns:xlink="http://www.w3.org/1999/xlink">
 <metadata>
  <rdf:RDF xmlns:cc="http://creativecommons.org/ns#" xmlns:dc="http://purl.org/dc/elements/1.1/" xmlns:rdf="http://www.w3.org/1999/02/22-rdf-syntax-ns#">
   <cc:Work>
    <dc:type rdf:resource="http://purl.org/dc/dcmitype/StillImage"/>
    <dc:date>2020-07-23T22:10:26.746543</dc:date>
    <dc:format>image/svg+xml</dc:format>
    <dc:creator>
     <cc:Agent>
      <dc:title>Matplotlib v3.3.0, https://matplotlib.org/</dc:title>
     </cc:Agent>
    </dc:creator>
   </cc:Work>
  </rdf:RDF>
 </metadata>
 <defs>
  <style type="text/css">*{stroke-linecap:butt;stroke-linejoin:round;}</style>
 </defs>
 <g id="figure_1">
  <g id="patch_1">
   <path d="M 0 345.6 
L 460.8 345.6 
L 460.8 0 
L 0 0 
z
" style="fill:#ffffff;"/>
  </g>
  <g id="axes_1">
   <g id="patch_2">
    <path d="M 57.6 307.584 
L 414.72 307.584 
L 414.72 41.472 
L 57.6 41.472 
z
" style="fill:#ffffff;"/>
   </g>
   <g id="matplotlib.axis_1">
    <g id="xtick_1">
     <g id="line2d_1">
      <defs>
       <path d="M 0 0 
L 0 3.5 
" id="mb5f17dd65b" style="stroke:#000000;stroke-width:0.8;"/>
      </defs>
      <g>
       <use style="stroke:#000000;stroke-width:0.8;" x="73.832727" xlink:href="#mb5f17dd65b" y="307.584"/>
      </g>
     </g>
     <g id="text_1">
      <!-- $\mathdefault{0}$ -->
      <g transform="translate(71.34206 321.502498)scale(0.1 -0.1)">
       <defs>
        <path d="M 42 31.640625 
C 42 37.75 41.90625 48.125 37.703125 56.109375 
C 34 63.109375 28.09375 65.59375 22.90625 65.59375 
C 18.09375 65.59375 12 63.40625 8.203125 56.203125 
C 4.203125 48.71875 3.796875 39.4375 3.796875 31.640625 
C 3.796875 25.953125 3.90625 17.28125 7 9.671875 
C 11.296875 -0.609375 19 -2 22.90625 -2 
C 27.5 -2 34.5 -0.109375 38.59375 9.375 
C 41.59375 16.28125 42 24.359375 42 31.640625 
z
M 22.90625 -0.40625 
C 16.5 -0.40625 12.703125 5.078125 11.296875 12.6875 
C 10.203125 18.5625 10.203125 27.15625 10.203125 32.75 
C 10.203125 40.4375 10.203125 46.828125 11.5 52.921875 
C 13.40625 61.390625 19 64 22.90625 64 
C 27 64 32.296875 61.296875 34.203125 53.125 
C 35.5 47.4375 35.59375 40.734375 35.59375 32.75 
C 35.59375 26.25 35.59375 18.265625 34.40625 12.375 
C 32.296875 1.484375 26.40625 -0.40625 22.90625 -0.40625 
z
" id="CMR17-48"/>
       </defs>
       <use transform="scale(0.996264)" xlink:href="#CMR17-48"/>
      </g>
     </g>
    </g>
    <g id="xtick_2">
     <g id="line2d_2">
      <g>
       <use style="stroke:#000000;stroke-width:0.8;" x="114.414545" xlink:href="#mb5f17dd65b" y="307.584"/>
      </g>
     </g>
     <g id="text_2">
      <!-- $\mathdefault{25000}$ -->
      <g transform="translate(101.961207 321.502498)scale(0.1 -0.1)">
       <defs>
        <path d="M 41.703125 15.453125 
L 39.90625 15.453125 
C 38.90625 8.375 38.09375 7.171875 37.703125 6.5625 
C 37.203125 5.765625 30 5.765625 28.59375 5.765625 
L 9.40625 5.765625 
C 13 9.671875 20 16.75 28.5 24.953125 
C 34.59375 30.734375 41.703125 37.53125 41.703125 47.421875 
C 41.703125 59.21875 32.296875 66 21.796875 66 
C 10.796875 66 4.09375 56.3125 4.09375 47.34375 
C 4.09375 43.4375 7 42.9375 8.203125 42.9375 
C 9.203125 42.9375 12.203125 43.546875 12.203125 47.03125 
C 12.203125 50.109375 9.59375 51 8.203125 51 
C 7.59375 51 7 50.90625 6.59375 50.703125 
C 8.5 59.21875 14.296875 63.40625 20.40625 63.40625 
C 29.09375 63.40625 34.796875 56.515625 34.796875 47.421875 
C 34.796875 38.734375 29.703125 31.25 24 24.75 
L 4.09375 2.28125 
L 4.09375 0 
L 39.296875 0 
z
" id="CMR17-50"/>
        <path d="M 11.40625 57.6875 
C 12.40625 57.28125 16.5 56 20.703125 56 
C 30 56 35.09375 61.109375 38 64.0625 
C 38 64.953125 38 65.5 37.40625 65.5 
C 37.296875 65.5 37.09375 65.5 36.296875 65.046875 
C 32.796875 63.40625 28.703125 62.078125 23.703125 62.078125 
C 20.703125 62.078125 16.203125 62.484375 11.296875 64.671875 
C 10.203125 65.171875 10 65.171875 9.90625 65.171875 
C 9.40625 65.171875 9.296875 65.0625 9.296875 63.078125 
L 9.296875 34.421875 
C 9.296875 32.640625 9.296875 32.140625 10.296875 32.140625 
C 10.796875 32.140625 11 32.34375 11.5 33.03125 
C 14.703125 37.515625 19.09375 39.40625 24.09375 39.40625 
C 27.59375 39.40625 35.09375 37.21875 35.09375 20.140625 
C 35.09375 16.953125 35.09375 11.171875 32.09375 6.578125 
C 29.59375 2.484375 25.703125 0.390625 21.40625 0.390625 
C 14.796875 0.390625 8.09375 5 6.296875 12.71875 
C 6.703125 12.609375 7.5 12.421875 7.90625 12.421875 
C 9.203125 12.421875 11.703125 13.125 11.703125 16.21875 
C 11.703125 18.90625 9.796875 20 7.90625 20 
C 5.59375 20 4.09375 18.59375 4.09375 15.796875 
C 4.09375 7.09375 11 -2 21.59375 -2 
C 31.90625 -2 41.703125 6.875 41.703125 19.75 
C 41.703125 31.71875 33.90625 41 24.203125 41 
C 19.09375 41 14.796875 39.109375 11.40625 35.53125 
z
" id="CMR17-53"/>
       </defs>
       <use transform="scale(0.996264)" xlink:href="#CMR17-50"/>
       <use transform="translate(45.690477 0)scale(0.996264)" xlink:href="#CMR17-53"/>
       <use transform="translate(91.380954 0)scale(0.996264)" xlink:href="#CMR17-48"/>
       <use transform="translate(137.071431 0)scale(0.996264)" xlink:href="#CMR17-48"/>
       <use transform="translate(182.761908 0)scale(0.996264)" xlink:href="#CMR17-48"/>
      </g>
     </g>
    </g>
    <g id="xtick_3">
     <g id="line2d_3">
      <g>
       <use style="stroke:#000000;stroke-width:0.8;" x="154.996364" xlink:href="#mb5f17dd65b" y="307.584"/>
      </g>
     </g>
     <g id="text_3">
      <!-- $\mathdefault{50000}$ -->
      <g transform="translate(142.543026 321.502498)scale(0.1 -0.1)">
       <use transform="scale(0.996264)" xlink:href="#CMR17-53"/>
       <use transform="translate(45.690477 0)scale(0.996264)" xlink:href="#CMR17-48"/>
       <use transform="translate(91.380954 0)scale(0.996264)" xlink:href="#CMR17-48"/>
       <use transform="translate(137.071431 0)scale(0.996264)" xlink:href="#CMR17-48"/>
       <use transform="translate(182.761908 0)scale(0.996264)" xlink:href="#CMR17-48"/>
      </g>
     </g>
    </g>
    <g id="xtick_4">
     <g id="line2d_4">
      <g>
       <use style="stroke:#000000;stroke-width:0.8;" x="195.578182" xlink:href="#mb5f17dd65b" y="307.584"/>
      </g>
     </g>
     <g id="text_4">
      <!-- $\mathdefault{75000}$ -->
      <g transform="translate(183.124844 321.502498)scale(0.1 -0.1)">
       <defs>
        <path d="M 45.09375 61.578125 
L 45.09375 63.765625 
L 21.59375 63.765625 
C 9.90625 63.765625 9.703125 65.078125 9.296875 67 
L 7.5 67 
L 4.59375 48.34375 
L 6.40625 48.34375 
C 6.703125 50.234375 7.40625 55.3125 8.59375 57.203125 
C 9.203125 58 16.59375 58 18.296875 58 
L 40.296875 58 
L 29.203125 41.578125 
C 21.796875 30.53125 16.703125 15.609375 16.703125 2.578125 
C 16.703125 1.390625 16.703125 -2 20.296875 -2 
C 23.90625 -2 23.90625 1.390625 23.90625 2.671875 
L 23.90625 7.265625 
C 23.90625 23.5625 26.703125 34.3125 31.296875 41.1875 
z
" id="CMR17-55"/>
       </defs>
       <use transform="scale(0.996264)" xlink:href="#CMR17-55"/>
       <use transform="translate(45.690477 0)scale(0.996264)" xlink:href="#CMR17-53"/>
       <use transform="translate(91.380954 0)scale(0.996264)" xlink:href="#CMR17-48"/>
       <use transform="translate(137.071431 0)scale(0.996264)" xlink:href="#CMR17-48"/>
       <use transform="translate(182.761908 0)scale(0.996264)" xlink:href="#CMR17-48"/>
      </g>
     </g>
    </g>
    <g id="xtick_5">
     <g id="line2d_5">
      <g>
       <use style="stroke:#000000;stroke-width:0.8;" x="236.16" xlink:href="#mb5f17dd65b" y="307.584"/>
      </g>
     </g>
     <g id="text_5">
      <!-- $\mathdefault{100000}$ -->
      <g transform="translate(221.215994 321.502498)scale(0.1 -0.1)">
       <defs>
        <path d="M 26.59375 63.40625 
C 26.59375 65.5 26.5 65.5 25.09375 65.5 
C 21.203125 61.1875 15.296875 59.796875 9.703125 59.796875 
C 9.40625 59.796875 8.90625 59.796875 8.796875 59.5 
C 8.703125 59.296875 8.703125 59.09375 8.703125 57 
C 11.796875 57 17 57.59375 21 59.984375 
L 21 7.203125 
C 21 3.6875 20.796875 2.5 12.203125 2.5 
L 9.203125 2.5 
L 9.203125 0 
C 14 0 19 0 23.796875 0 
C 28.59375 0 33.59375 0 38.40625 0 
L 38.40625 2.5 
L 35.40625 2.5 
C 26.796875 2.5 26.59375 3.59375 26.59375 7.15625 
z
" id="CMR17-49"/>
       </defs>
       <use transform="scale(0.996264)" xlink:href="#CMR17-49"/>
       <use transform="translate(45.690477 0)scale(0.996264)" xlink:href="#CMR17-48"/>
       <use transform="translate(91.380954 0)scale(0.996264)" xlink:href="#CMR17-48"/>
       <use transform="translate(137.071431 0)scale(0.996264)" xlink:href="#CMR17-48"/>
       <use transform="translate(182.761908 0)scale(0.996264)" xlink:href="#CMR17-48"/>
       <use transform="translate(228.452386 0)scale(0.996264)" xlink:href="#CMR17-48"/>
      </g>
     </g>
    </g>
    <g id="xtick_6">
     <g id="line2d_6">
      <g>
       <use style="stroke:#000000;stroke-width:0.8;" x="276.741818" xlink:href="#mb5f17dd65b" y="307.584"/>
      </g>
     </g>
     <g id="text_6">
      <!-- $\mathdefault{125000}$ -->
      <g transform="translate(261.797812 321.502498)scale(0.1 -0.1)">
       <use transform="scale(0.996264)" xlink:href="#CMR17-49"/>
       <use transform="translate(45.690477 0)scale(0.996264)" xlink:href="#CMR17-50"/>
       <use transform="translate(91.380954 0)scale(0.996264)" xlink:href="#CMR17-53"/>
       <use transform="translate(137.071431 0)scale(0.996264)" xlink:href="#CMR17-48"/>
       <use transform="translate(182.761908 0)scale(0.996264)" xlink:href="#CMR17-48"/>
       <use transform="translate(228.452386 0)scale(0.996264)" xlink:href="#CMR17-48"/>
      </g>
     </g>
    </g>
    <g id="xtick_7">
     <g id="line2d_7">
      <g>
       <use style="stroke:#000000;stroke-width:0.8;" x="317.323636" xlink:href="#mb5f17dd65b" y="307.584"/>
      </g>
     </g>
     <g id="text_7">
      <!-- $\mathdefault{150000}$ -->
      <g transform="translate(302.379631 321.502498)scale(0.1 -0.1)">
       <use transform="scale(0.996264)" xlink:href="#CMR17-49"/>
       <use transform="translate(45.690477 0)scale(0.996264)" xlink:href="#CMR17-53"/>
       <use transform="translate(91.380954 0)scale(0.996264)" xlink:href="#CMR17-48"/>
       <use transform="translate(137.071431 0)scale(0.996264)" xlink:href="#CMR17-48"/>
       <use transform="translate(182.761908 0)scale(0.996264)" xlink:href="#CMR17-48"/>
       <use transform="translate(228.452386 0)scale(0.996264)" xlink:href="#CMR17-48"/>
      </g>
     </g>
    </g>
    <g id="xtick_8">
     <g id="line2d_8">
      <g>
       <use style="stroke:#000000;stroke-width:0.8;" x="357.905455" xlink:href="#mb5f17dd65b" y="307.584"/>
      </g>
     </g>
     <g id="text_8">
      <!-- $\mathdefault{175000}$ -->
      <g transform="translate(342.961449 321.502498)scale(0.1 -0.1)">
       <use transform="scale(0.996264)" xlink:href="#CMR17-49"/>
       <use transform="translate(45.690477 0)scale(0.996264)" xlink:href="#CMR17-55"/>
       <use transform="translate(91.380954 0)scale(0.996264)" xlink:href="#CMR17-53"/>
       <use transform="translate(137.071431 0)scale(0.996264)" xlink:href="#CMR17-48"/>
       <use transform="translate(182.761908 0)scale(0.996264)" xlink:href="#CMR17-48"/>
       <use transform="translate(228.452386 0)scale(0.996264)" xlink:href="#CMR17-48"/>
      </g>
     </g>
    </g>
    <g id="xtick_9">
     <g id="line2d_9">
      <g>
       <use style="stroke:#000000;stroke-width:0.8;" x="398.487273" xlink:href="#mb5f17dd65b" y="307.584"/>
      </g>
     </g>
     <g id="text_9">
      <!-- $\mathdefault{200000}$ -->
      <g transform="translate(383.543267 321.502498)scale(0.1 -0.1)">
       <use transform="scale(0.996264)" xlink:href="#CMR17-50"/>
       <use transform="translate(45.690477 0)scale(0.996264)" xlink:href="#CMR17-48"/>
       <use transform="translate(91.380954 0)scale(0.996264)" xlink:href="#CMR17-48"/>
       <use transform="translate(137.071431 0)scale(0.996264)" xlink:href="#CMR17-48"/>
       <use transform="translate(182.761908 0)scale(0.996264)" xlink:href="#CMR17-48"/>
       <use transform="translate(228.452386 0)scale(0.996264)" xlink:href="#CMR17-48"/>
      </g>
     </g>
    </g>
   </g>
   <g id="matplotlib.axis_2">
    <g id="ytick_1">
     <g id="line2d_10">
      <defs>
       <path d="M 0 0 
L -3.5 0 
" id="m658cbea7ce" style="stroke:#000000;stroke-width:0.8;"/>
      </defs>
      <g>
       <use style="stroke:#000000;stroke-width:0.8;" x="57.6" xlink:href="#m658cbea7ce" y="297.834609"/>
      </g>
     </g>
     <g id="text_10">
      <!-- $\mathdefault{0.00}$ -->
      <g transform="translate(32.888586 301.293858)scale(0.1 -0.1)">
       <defs>
        <path d="M 18.40625 4.796875 
C 18.40625 7.6875 16 9.671875 13.59375 9.671875 
C 10.703125 9.671875 8.703125 7.28125 8.703125 4.890625 
C 8.703125 2 11.09375 0 13.5 0 
C 16.40625 0 18.40625 2.390625 18.40625 4.796875 
z
" id="CMMI12-58"/>
       </defs>
       <use transform="scale(0.996264)" xlink:href="#CMR17-48"/>
       <use transform="translate(45.690477 0)scale(0.996264)" xlink:href="#CMMI12-58"/>
       <use transform="translate(72.787654 0)scale(0.996264)" xlink:href="#CMR17-48"/>
       <use transform="translate(118.478131 0)scale(0.996264)" xlink:href="#CMR17-48"/>
      </g>
     </g>
    </g>
    <g id="ytick_2">
     <g id="line2d_11">
      <g>
       <use style="stroke:#000000;stroke-width:0.8;" x="57.6" xlink:href="#m658cbea7ce" y="264.856207"/>
      </g>
     </g>
     <g id="text_11">
      <!-- $\mathdefault{0.02}$ -->
      <g transform="translate(32.888586 268.315456)scale(0.1 -0.1)">
       <use transform="scale(0.996264)" xlink:href="#CMR17-48"/>
       <use transform="translate(45.690477 0)scale(0.996264)" xlink:href="#CMMI12-58"/>
       <use transform="translate(72.787654 0)scale(0.996264)" xlink:href="#CMR17-48"/>
       <use transform="translate(118.478131 0)scale(0.996264)" xlink:href="#CMR17-50"/>
      </g>
     </g>
    </g>
    <g id="ytick_3">
     <g id="line2d_12">
      <g>
       <use style="stroke:#000000;stroke-width:0.8;" x="57.6" xlink:href="#m658cbea7ce" y="231.877805"/>
      </g>
     </g>
     <g id="text_12">
      <!-- $\mathdefault{0.04}$ -->
      <g transform="translate(32.888586 235.337055)scale(0.1 -0.1)">
       <defs>
        <path d="M 33.59375 64.40625 
C 33.59375 66.5 33.5 66.5 31.703125 66.5 
L 2 19.59375 
L 2 17 
L 27.796875 17 
L 27.796875 7.140625 
C 27.796875 3.5 27.59375 2.5 20.59375 2.5 
L 18.703125 2.5 
L 18.703125 0 
C 21.90625 0 27.296875 0 30.703125 0 
C 34.09375 0 39.5 0 42.703125 0 
L 42.703125 2.5 
L 40.796875 2.5 
C 33.796875 2.5 33.59375 3.5 33.59375 7.140625 
L 33.59375 17 
L 43.796875 17 
L 43.796875 19.59375 
L 33.59375 19.59375 
z
M 28.09375 57.859375 
L 28.09375 19.59375 
L 4 19.59375 
z
" id="CMR17-52"/>
       </defs>
       <use transform="scale(0.996264)" xlink:href="#CMR17-48"/>
       <use transform="translate(45.690477 0)scale(0.996264)" xlink:href="#CMMI12-58"/>
       <use transform="translate(72.787654 0)scale(0.996264)" xlink:href="#CMR17-48"/>
       <use transform="translate(118.478131 0)scale(0.996264)" xlink:href="#CMR17-52"/>
      </g>
     </g>
    </g>
    <g id="ytick_4">
     <g id="line2d_13">
      <g>
       <use style="stroke:#000000;stroke-width:0.8;" x="57.6" xlink:href="#m658cbea7ce" y="198.899404"/>
      </g>
     </g>
     <g id="text_13">
      <!-- $\mathdefault{0.06}$ -->
      <g transform="translate(32.888586 202.358653)scale(0.1 -0.1)">
       <defs>
        <path d="M 10.59375 34 
C 10.59375 57.65625 21.796875 63 28.296875 63 
C 30.40625 63 35.5 62.640625 37.5 59 
C 35.90625 59 32.90625 59 32.90625 55.515625 
C 32.90625 52.828125 35.09375 51.921875 36.5 51.921875 
C 37.40625 51.921875 40.09375 52.3125 40.09375 55.625 
C 40.09375 61.78125 35.09375 65.296875 28.203125 65.296875 
C 16.296875 65.296875 3.796875 52.96875 3.796875 31 
C 3.796875 3.953125 15.09375 -2 23.09375 -2 
C 32.796875 -2 42 6.671875 42 20.046875 
C 42 32.515625 33.90625 41.59375 23.703125 41.59375 
C 17.59375 41.59375 13.09375 37.609375 10.59375 30.625 
z
M 23.09375 0.390625 
C 10.796875 0.390625 10.796875 18.75 10.796875 22.4375 
C 10.796875 29.625 14.203125 40 23.5 40 
C 25.203125 40 30.09375 40 33.40625 33.125 
C 35.203125 29.21875 35.203125 25.140625 35.203125 20.140625 
C 35.203125 14.75 35.203125 10.78125 33.09375 6.78125 
C 30.90625 2.671875 27.703125 0.390625 23.09375 0.390625 
z
" id="CMR17-54"/>
       </defs>
       <use transform="scale(0.996264)" xlink:href="#CMR17-48"/>
       <use transform="translate(45.690477 0)scale(0.996264)" xlink:href="#CMMI12-58"/>
       <use transform="translate(72.787654 0)scale(0.996264)" xlink:href="#CMR17-48"/>
       <use transform="translate(118.478131 0)scale(0.996264)" xlink:href="#CMR17-54"/>
      </g>
     </g>
    </g>
    <g id="ytick_5">
     <g id="line2d_14">
      <g>
       <use style="stroke:#000000;stroke-width:0.8;" x="57.6" xlink:href="#m658cbea7ce" y="165.921002"/>
      </g>
     </g>
     <g id="text_14">
      <!-- $\mathdefault{0.08}$ -->
      <g transform="translate(32.888586 169.380251)scale(0.1 -0.1)">
       <defs>
        <path d="M 27.203125 35.375 
C 33.5 38.546875 39.90625 43.328125 39.90625 50.984375 
C 39.90625 60.015625 31.09375 65.296875 23 65.296875 
C 13.90625 65.296875 5.90625 58.734375 5.90625 49.6875 
C 5.90625 47.203125 6.5 42.921875 10.40625 39.140625 
C 11.40625 38.15625 15.59375 35.171875 18.296875 33.28125 
C 13.796875 30.984375 3.296875 25.53125 3.296875 14.59375 
C 3.296875 4.359375 13.09375 -2 22.796875 -2 
C 33.5 -2 42.5 5.65625 42.5 15.78125 
C 42.5 24.84375 36.40625 29.015625 32.40625 31.703125 
z
M 14.09375 44.09375 
C 13.296875 44.59375 9.296875 47.671875 9.296875 52.359375 
C 9.296875 58.421875 15.59375 63 22.796875 63 
C 30.703125 63 36.5 57.4375 36.5 50.96875 
C 36.5 41.703125 26.09375 36.421875 25.59375 36.421875 
C 25.5 36.421875 25.40625 36.421875 24.59375 37.03125 
z
M 32.5 23.734375 
C 34 22.640625 38.796875 19.375 38.796875 13.296875 
C 38.796875 5.953125 31.40625 0.390625 23 0.390625 
C 13.90625 0.390625 7 6.84375 7 14.6875 
C 7 22.546875 13.09375 29.09375 20 32.1875 
z
" id="CMR17-56"/>
       </defs>
       <use transform="scale(0.996264)" xlink:href="#CMR17-48"/>
       <use transform="translate(45.690477 0)scale(0.996264)" xlink:href="#CMMI12-58"/>
       <use transform="translate(72.787654 0)scale(0.996264)" xlink:href="#CMR17-48"/>
       <use transform="translate(118.478131 0)scale(0.996264)" xlink:href="#CMR17-56"/>
      </g>
     </g>
    </g>
    <g id="ytick_6">
     <g id="line2d_15">
      <g>
       <use style="stroke:#000000;stroke-width:0.8;" x="57.6" xlink:href="#m658cbea7ce" y="132.9426"/>
      </g>
     </g>
     <g id="text_15">
      <!-- $\mathdefault{0.10}$ -->
      <g transform="translate(32.888586 136.401849)scale(0.1 -0.1)">
       <use transform="scale(0.996264)" xlink:href="#CMR17-48"/>
       <use transform="translate(45.690477 0)scale(0.996264)" xlink:href="#CMMI12-58"/>
       <use transform="translate(72.787654 0)scale(0.996264)" xlink:href="#CMR17-49"/>
       <use transform="translate(118.478131 0)scale(0.996264)" xlink:href="#CMR17-48"/>
      </g>
     </g>
    </g>
    <g id="ytick_7">
     <g id="line2d_16">
      <g>
       <use style="stroke:#000000;stroke-width:0.8;" x="57.6" xlink:href="#m658cbea7ce" y="99.964198"/>
      </g>
     </g>
     <g id="text_16">
      <!-- $\mathdefault{0.12}$ -->
      <g transform="translate(32.888586 103.423447)scale(0.1 -0.1)">
       <use transform="scale(0.996264)" xlink:href="#CMR17-48"/>
       <use transform="translate(45.690477 0)scale(0.996264)" xlink:href="#CMMI12-58"/>
       <use transform="translate(72.787654 0)scale(0.996264)" xlink:href="#CMR17-49"/>
       <use transform="translate(118.478131 0)scale(0.996264)" xlink:href="#CMR17-50"/>
      </g>
     </g>
    </g>
    <g id="ytick_8">
     <g id="line2d_17">
      <g>
       <use style="stroke:#000000;stroke-width:0.8;" x="57.6" xlink:href="#m658cbea7ce" y="66.985796"/>
      </g>
     </g>
     <g id="text_17">
      <!-- $\mathdefault{0.14}$ -->
      <g transform="translate(32.888586 70.445046)scale(0.1 -0.1)">
       <use transform="scale(0.996264)" xlink:href="#CMR17-48"/>
       <use transform="translate(45.690477 0)scale(0.996264)" xlink:href="#CMMI12-58"/>
       <use transform="translate(72.787654 0)scale(0.996264)" xlink:href="#CMR17-49"/>
       <use transform="translate(118.478131 0)scale(0.996264)" xlink:href="#CMR17-52"/>
      </g>
     </g>
    </g>
   </g>
   <g id="line2d_18">
    <path clip-path="url(#pcd8660ad50)" d="M 73.832727 132.9426 
L 74.100567 133.011717 
L 74.1168 136.227108 
L 74.160628 192.424888 
L 74.225559 136.093269 
L 74.253155 132.597459 
L 74.326202 138.19444 
L 74.418729 147.167029 
L 74.467427 140.774769 
L 74.498269 130.880992 
L 74.585926 137.216867 
L 74.720657 142.525972 
L 74.631377 137.104785 
L 74.727151 142.486265 
L 74.832663 140.492739 
L 74.848896 140.65544 
L 74.902464 141.470309 
L 74.960902 140.716042 
L 75.274193 145.612032 
L 75.290426 145.533717 
L 75.326138 145.318314 
L 75.378083 145.745717 
L 75.965708 157.719604 
L 76.356916 170.71874 
L 76.478662 176.951725 
L 77.348736 237.500572 
L 78.04025 295.488 
L 78.103558 291.848085 
L 79.869679 162.353252 
L 80.616384 129.391351 
L 81.325754 109.232068 
L 81.749428 102.043644 
L 82.134144 98.965875 
L 82.268876 98.862631 
L 82.270499 98.866193 
L 82.288355 98.869322 
L 82.345169 98.949836 
L 82.346793 98.949981 
L 82.67794 100.870179 
L 83.460358 111.367603 
L 84.21518 130.301508 
L 84.718394 147.945458 
L 85.424518 176.796702 
L 86.184209 206.584355 
L 86.659828 220.836933 
L 87.348096 232.417826 
L 87.460102 233.238672 
L 87.640285 234.012466 
L 87.641908 234.008103 
L 87.714956 234.125962 
L 87.716579 234.119452 
L 87.770147 234.147104 
L 87.823715 234.099295 
L 87.825338 234.10495 
L 88.559057 228.820554 
L 89.434001 216.217438 
L 89.757033 211.503521 
L 90.130385 206.749759 
L 90.440431 203.622355 
L 90.578409 202.528841 
L 90.813783 201.070404 
L 90.844625 200.929435 
L 91.034548 200.213731 
L 91.036172 200.216435 
L 91.086493 200.084565 
L 91.088116 200.088071 
L 91.232588 199.857587 
L 91.234211 199.863407 
L 91.336477 199.825527 
L 91.35271 199.829615 
L 91.493935 199.968378 
L 91.495558 199.963795 
L 91.562112 200.098367 
L 91.563735 200.094752 
L 91.769891 200.72518 
L 91.771514 200.724252 
L 91.795863 200.828075 
L 91.797487 200.827484 
L 92.068573 202.188781 
L 92.112401 202.445068 
L 92.441926 204.750935 
L 92.524713 205.39604 
L 92.876963 208.409885 
L 92.992215 209.436482 
L 93.337972 212.583112 
L 93.462964 213.689686 
L 93.776256 216.342224 
L 93.878522 217.134504 
L 94.149609 219.046523 
L 94.212916 219.433559 
L 94.448291 220.717477 
L 94.479133 220.854223 
L 94.682042 221.66664 
L 94.683665 221.665326 
L 94.863849 222.174515 
L 94.865472 222.171479 
L 94.922287 222.294912 
L 94.92391 222.291299 
L 95.071628 222.507706 
L 95.073251 222.502717 
L 95.165777 222.574898 
L 95.167401 222.569036 
L 95.282653 222.586775 
L 95.414138 222.506387 
L 95.415761 222.511365 
L 95.498548 222.41134 
L 95.500172 222.415596 
L 95.667369 222.121891 
L 95.668992 222.124849 
L 95.72256 221.999773 
L 95.724183 222.002333 
L 95.923846 221.456193 
L 95.925469 221.457494 
L 95.959558 221.344791 
L 95.961181 221.345884 
L 96.183569 220.562163 
L 96.211165 220.462951 
L 96.449786 219.485426 
L 96.483875 219.345324 
L 96.732236 218.242218 
L 96.769571 218.08011 
L 97.017932 216.956933 
L 97.055267 216.796686 
L 97.293888 215.757119 
L 97.327977 215.620693 
L 97.556858 214.705864 
L 97.5877 214.596504 
L 97.800349 213.850928 
L 97.801972 213.851548 
L 97.832815 213.747193 
L 97.834438 213.747943 
L 98.030854 213.172575 
L 98.032477 213.174141 
L 98.073059 213.06363 
L 98.074682 213.065388 
L 98.251619 212.65915 
L 98.253242 212.661725 
L 98.417193 212.367983 
L 98.418816 212.371362 
L 98.488617 212.267906 
L 98.49024 212.271626 
L 98.634711 212.111565 
L 98.636335 212.116008 
L 98.725615 212.047136 
L 98.727238 212.052011 
L 98.85223 211.998332 
L 98.967482 212.000768 
L 99.024297 212.007029 
L 99.072995 212.024467 
L 99.207727 212.111933 
L 99.20935 212.107424 
L 99.295383 212.189659 
L 99.297007 212.185504 
L 99.451217 212.373107 
L 99.452841 212.369541 
L 99.522641 212.474841 
L 99.524265 212.471518 
L 99.694708 212.761154 
L 99.696332 212.758367 
L 99.753146 212.870243 
L 99.754769 212.867611 
L 99.934953 213.242607 
L 99.936576 213.24041 
L 99.986897 213.35697 
L 99.988521 213.354874 
L 100.178444 213.802711 
L 100.180067 213.800928 
L 100.223895 213.913059 
L 100.225519 213.911329 
L 100.418688 214.399034 
L 100.420311 214.397478 
L 100.460893 214.506322 
L 100.462516 214.504786 
L 100.658932 215.012515 
L 100.660556 215.011017 
L 100.701137 215.120268 
L 100.702761 215.118764 
L 100.89593 215.610846 
L 100.897553 215.609255 
L 100.938135 215.715076 
L 100.939759 215.713454 
L 101.129681 216.173598 
L 101.131305 216.171784 
L 101.17838 216.285757 
L 101.180003 216.283882 
L 101.363433 216.691175 
L 101.365056 216.689023 
L 101.415377 216.798493 
L 101.417001 216.796253 
L 101.590691 217.136386 
L 101.592314 217.133813 
L 101.652375 217.245757 
L 101.653999 217.243059 
L 101.817949 217.512583 
L 101.819572 217.509516 
L 101.889373 217.615035 
L 101.890996 217.611804 
L 102.045207 217.810773 
L 102.046831 217.807161 
L 102.126371 217.897077 
L 102.127994 217.893264 
L 102.269219 218.022516 
L 102.270842 218.018338 
L 102.405574 218.110157 
L 102.407197 218.105631 
L 102.506217 218.154863 
L 102.50784 218.15008 
L 102.632832 218.187075 
L 102.748084 218.188506 
L 102.86009 218.180262 
L 102.985082 218.137696 
L 102.986705 218.142344 
L 103.085725 218.091479 
L 103.087348 218.095884 
L 103.225327 218.005318 
L 103.22695 218.009413 
L 103.31623 217.936435 
L 103.317853 217.940342 
L 103.465571 217.803788 
L 103.467194 217.807422 
L 103.546735 217.722594 
L 103.548358 217.726095 
L 103.702569 217.5514 
L 103.704192 217.554683 
L 103.780486 217.459381 
L 103.782109 217.462571 
L 103.942813 217.256786 
L 103.944436 217.259822 
L 104.014237 217.164032 
L 104.01586 217.167015 
L 104.179811 216.943306 
L 104.181434 216.946204 
L 104.251235 216.846645 
L 104.252858 216.849521 
L 104.416809 216.621785 
L 104.418432 216.624643 
L 104.488233 216.525382 
L 104.489856 216.528245 
L 104.65056 216.309797 
L 104.652183 216.312701 
L 104.721984 216.217281 
L 104.723607 216.220215 
L 104.884311 216.01422 
L 104.885935 216.017244 
L 104.958982 215.924878 
L 104.960605 215.927956 
L 105.114816 215.748165 
L 105.116439 215.751369 
L 105.192733 215.665319 
L 105.194356 215.668596 
L 105.345321 215.514913 
L 105.346944 215.518346 
L 105.429731 215.438903 
L 105.431354 215.44243 
L 105.575825 215.320349 
L 105.577449 215.324046 
L 105.666729 215.255227 
L 105.668352 215.259037 
L 105.80633 215.168725 
L 105.807953 215.172712 
L 105.903727 215.118235 
L 105.90535 215.12235 
L 106.036835 215.062652 
L 106.142348 215.034466 
L 106.26734 215.00309 
L 106.379345 214.995621 
L 106.497844 214.989334 
L 106.61959 215.00463 
L 106.731596 215.019747 
L 106.859834 215.058804 
L 106.958854 215.088306 
L 106.965347 215.090783 
L 107.096832 215.151352 
L 107.098455 215.147338 
L 107.194228 215.19917 
L 107.195852 215.195253 
L 107.33383 215.276281 
L 107.335453 215.272488 
L 107.42798 215.333262 
L 107.429603 215.329542 
L 107.570828 215.426161 
L 107.572451 215.422537 
L 107.661731 215.488587 
L 107.663354 215.485012 
L 107.807825 215.593013 
L 107.809449 215.589502 
L 107.898729 215.659796 
L 107.900352 215.656313 
L 108.044823 215.76875 
L 108.046447 215.765299 
L 108.13248 215.834424 
L 108.134103 215.830981 
L 108.278575 215.943211 
L 108.280198 215.939768 
L 108.369478 216.009859 
L 108.371101 216.006407 
L 108.515572 216.114222 
L 108.517196 216.110744 
L 108.606476 216.176918 
L 108.608099 216.173415 
L 108.749324 216.271091 
L 108.750947 216.267539 
L 108.843473 216.329811 
L 108.845097 216.326221 
L 108.983075 216.411291 
L 108.984698 216.407636 
L 109.080471 216.463839 
L 109.082095 216.460134 
L 109.216826 216.53096 
L 109.218449 216.52718 
L 109.294743 216.565777 
L 109.319092 216.571591 
L 109.450577 216.627292 
L 109.55609 216.65813 
L 109.684329 216.698503 
L 109.793088 216.718349 
L 109.91808 216.74378 
L 110.033332 216.752127 
L 110.155078 216.763336 
L 110.273577 216.759055 
L 110.388829 216.757666 
L 110.510575 216.741106 
L 110.62258 216.729074 
L 110.747572 216.700913 
L 110.856332 216.680189 
L 110.98457 216.641587 
L 111.090083 216.614291 
L 111.221568 216.566856 
L 111.327081 216.533991 
L 111.461812 216.479635 
L 111.564079 216.444367 
L 111.69881 216.386693 
L 111.801076 216.3498 
L 111.935808 216.29126 
L 112.038074 216.254552 
L 112.172806 216.197432 
L 112.278319 216.161336 
L 112.41305 216.107724 
L 112.518563 216.075046 
L 112.650048 216.027703 
L 112.755561 215.999588 
L 112.887046 215.958579 
L 112.995805 215.935127 
L 113.124044 215.90215 
L 113.236049 215.884332 
L 113.361041 215.859563 
L 113.476294 215.848096 
L 113.601286 215.831068 
L 113.716538 215.826689 
L 113.838284 215.817407 
L 113.956783 215.819823 
L 114.075281 215.817566 
L 114.197027 215.826707 
L 114.315526 215.830826 
L 114.440518 215.846447 
L 114.55577 215.855842 
L 114.680762 215.876868 
L 114.792768 215.890292 
L 114.921007 215.916201 
L 115.033012 215.933061 
L 115.161251 215.962246 
L 115.273257 215.981461 
L 115.401495 216.012654 
L 115.513501 216.033107 
L 115.644986 216.065744 
L 115.756992 216.086332 
L 115.888477 216.118444 
L 116.000483 216.138113 
L 116.128721 216.167888 
L 116.240727 216.185739 
L 116.368966 216.21293 
L 116.480972 216.228213 
L 116.60921 216.252061 
L 116.724463 216.264641 
L 116.849455 216.284159 
L 116.964707 216.293107 
L 117.089699 216.308501 
L 117.208198 216.313829 
L 117.33319 216.324909 
L 117.451689 216.326197 
L 117.573434 216.332961 
L 117.69518 216.33039 
L 117.816925 216.333206 
L 117.938671 216.326887 
L 118.057169 216.326233 
L 118.182161 216.316421 
L 118.30066 216.312686 
L 118.425652 216.299933 
L 118.544151 216.293637 
L 118.669143 216.278529 
L 118.787642 216.270254 
L 118.915881 216.253078 
L 119.03438 216.243437 
L 119.162618 216.225183 
L 119.281117 216.214834 
L 119.409356 216.196213 
L 119.527855 216.185803 
L 119.656093 216.167498 
L 119.774592 216.157635 
L 119.902831 216.140268 
L 120.021329 216.131491 
L 120.149568 216.115601 
L 120.268067 216.108359 
L 120.396305 216.094374 
L 120.514804 216.08901 
L 120.639796 216.077435 
L 120.761542 216.073978 
L 120.886534 216.064737 
L 121.008279 216.063556 
L 121.133271 216.056708 
L 121.255017 216.057805 
L 121.380009 216.053301 
L 121.505001 216.056594 
L 121.626746 216.054277 
L 121.751738 216.059628 
L 121.873484 216.05924 
L 121.998476 216.066397 
L 122.120221 216.067665 
L 122.245213 216.076325 
L 122.366959 216.078935 
L 122.495197 216.088937 
L 122.616943 216.092557 
L 122.745181 216.10339 
L 122.866927 216.107654 
L 122.995165 216.11893 
L 123.116911 216.123472 
L 123.245149 216.134809 
L 123.366895 216.139272 
L 123.495133 216.15031 
L 123.616879 216.154368 
L 123.745117 216.164781 
L 123.866863 216.168146 
L 123.995101 216.177658 
L 124.116847 216.180094 
L 124.245085 216.188488 
L 124.370077 216.189932 
L 124.498316 216.197041 
L 124.623308 216.197224 
L 124.751546 216.202968 
L 124.876538 216.201846 
L 125.00153 216.20619 
L 125.126522 216.203802 
L 125.251514 216.206874 
L 125.376506 216.203298 
L 125.501498 216.205201 
L 125.629737 216.200513 
L 125.754729 216.20138 
L 125.882967 216.195755 
L 126.007959 216.195764 
L 126.136198 216.189398 
L 126.26119 216.188747 
L 126.389428 216.18185 
L 126.51442 216.18075 
L 126.642659 216.173537 
L 126.767651 216.172197 
L 126.895889 216.164882 
L 127.020881 216.163506 
L 127.14912 216.156291 
L 127.274112 216.15507 
L 127.402351 216.148139 
L 127.527343 216.147242 
L 127.655581 216.140758 
L 127.780573 216.140327 
L 127.908812 216.134419 
L 128.03705 216.134501 
L 128.165289 216.129275 
L 128.293527 216.130038 
L 128.421766 216.125555 
L 128.550004 216.127039 
L 128.678243 216.123317 
L 128.806481 216.125524 
L 128.93472 216.122548 
L 129.062959 216.125443 
L 129.191197 216.123161 
L 129.319436 216.126678 
L 129.447674 216.125011 
L 129.579159 216.129099 
L 129.707398 216.127953 
L 129.838883 216.132481 
L 129.967121 216.13174 
L 130.098607 216.136584 
L 130.226845 216.136125 
L 130.35833 216.141158 
L 130.486569 216.140855 
L 130.618054 216.145951 
L 130.746292 216.145685 
L 130.877777 216.150726 
L 131.006016 216.150384 
L 131.137501 216.155262 
L 131.26574 216.154747 
L 131.397225 216.159369 
L 131.52871 216.158643 
L 131.660195 216.162928 
L 131.79168 216.16187 
L 131.923165 216.165762 
L 132.05465 216.164325 
L 132.186135 216.167791 
L 132.31762 216.165951 
L 132.449105 216.168978 
L 132.580591 216.166736 
L 132.712076 216.169334 
L 132.843561 216.166709 
L 132.975046 216.16891 
L 133.106531 216.165941 
L 133.238016 216.167791 
L 133.372748 216.164511 
L 133.504233 216.166066 
L 133.638964 216.162553 
L 133.770449 216.163882 
L 133.905181 216.160209 
L 134.036666 216.161387 
L 134.171398 216.157629 
L 134.302883 216.15873 
L 134.437615 216.154961 
L 134.572346 216.156021 
L 134.707078 216.15231 
L 134.841809 216.153428 
L 134.976541 216.149838 
L 135.111273 216.151071 
L 135.246004 216.147651 
L 135.380736 216.149045 
L 135.515468 216.145836 
L 135.650199 216.147424 
L 135.784931 216.144453 
L 135.919663 216.146256 
L 136.054394 216.143536 
L 136.189126 216.145562 
L 136.323857 216.143096 
L 136.458589 216.145339 
L 136.593321 216.143115 
L 136.731299 216.145565 
L 136.869277 216.14357 
L 137.007255 216.146203 
L 137.145233 216.144405 
L 137.283212 216.147184 
L 137.42119 216.145542 
L 137.559168 216.148425 
L 137.697146 216.146895 
L 137.835124 216.149836 
L 137.973103 216.148371 
L 138.111081 216.151325 
L 138.249059 216.149883 
L 138.387037 216.152808 
L 138.525015 216.151348 
L 138.662993 216.154207 
L 138.800972 216.152694 
L 138.93895 216.155455 
L 139.076928 216.15386 
L 139.214906 216.1565 
L 139.352884 216.154804 
L 139.494109 216.157313 
L 139.635334 216.155507 
L 139.776559 216.157862 
L 139.917783 216.15593 
L 140.059008 216.158129 
L 140.200233 216.156073 
L 140.341457 216.158123 
L 140.482682 216.155954 
L 140.623907 216.157868 
L 140.765132 216.155601 
L 140.906356 216.157398 
L 141.047581 216.155055 
L 141.188806 216.156759 
L 141.330031 216.154364 
L 141.471255 216.156 
L 141.61248 216.153579 
L 141.753705 216.155175 
L 141.898176 216.152744 
L 142.042647 216.154315 
L 142.187119 216.151911 
L 142.33159 216.153491 
L 142.476061 216.151135 
L 142.620532 216.152745 
L 142.765004 216.150458 
L 142.909475 216.152115 
L 143.053946 216.149908 
L 143.198417 216.151623 
L 143.342889 216.149507 
L 143.48736 216.151286 
L 143.631831 216.149263 
L 143.776303 216.151109 
L 143.920774 216.149178 
L 144.068492 216.151087 
L 144.216209 216.149246 
L 144.363927 216.151213 
L 144.511645 216.149452 
L 144.659363 216.151466 
L 144.807081 216.149772 
L 144.954799 216.151819 
L 145.102516 216.150178 
L 145.250234 216.152241 
L 145.397952 216.150636 
L 145.54567 216.1527 
L 145.693388 216.151115 
L 145.841105 216.153164 
L 145.988823 216.151584 
L 146.139788 216.153608 
L 146.290752 216.152024 
L 146.441716 216.154006 
L 146.592681 216.152401 
L 146.743645 216.154332 
L 146.894609 216.152699 
L 147.045574 216.154573 
L 147.196538 216.152907 
L 147.347503 216.15472 
L 147.498467 216.15302 
L 147.649431 216.154773 
L 147.800396 216.153041 
L 147.95136 216.154738 
L 148.105571 216.152976 
L 148.259782 216.15462 
L 148.413993 216.152837 
L 148.568204 216.154436 
L 148.722415 216.152638 
L 148.876625 216.154203 
L 149.030836 216.1524 
L 149.185047 216.153939 
L 149.339258 216.152143 
L 149.493469 216.153666 
L 149.64768 216.151884 
L 149.805137 216.153399 
L 149.962595 216.151638 
L 150.120052 216.153155 
L 150.27751 216.151426 
L 150.434967 216.152951 
L 150.592425 216.151258 
L 150.749882 216.152797 
L 150.90734 216.151143 
L 151.064797 216.152697 
L 151.222255 216.151084 
L 151.382959 216.152652 
L 151.543663 216.151079 
L 151.704367 216.152662 
L 151.865071 216.151127 
L 152.025775 216.15272 
L 152.186479 216.151218 
L 152.347183 216.152816 
L 152.507887 216.151342 
L 152.668591 216.152941 
L 152.829295 216.151488 
L 152.993245 216.153082 
L 153.157196 216.151647 
L 153.321146 216.153229 
L 153.485097 216.151803 
L 153.649047 216.153368 
L 153.812998 216.151947 
L 153.976948 216.153489 
L 154.140899 216.152068 
L 154.304849 216.153585 
L 154.472047 216.152162 
L 154.639244 216.153651 
L 154.806441 216.152223 
L 154.973638 216.153684 
L 155.140835 216.152251 
L 155.308032 216.153683 
L 155.475229 216.152247 
L 155.642426 216.153653 
L 155.81287 216.152214 
L 155.983313 216.153596 
L 156.153757 216.152159 
L 156.324201 216.153519 
L 156.494644 216.152088 
L 156.665088 216.153431 
L 156.835532 216.152008 
L 157.005975 216.153339 
L 157.179665 216.151928 
L 157.353356 216.153249 
L 157.527046 216.151853 
L 157.700736 216.153168 
L 157.874426 216.151792 
L 158.048116 216.153103 
L 158.221807 216.151747 
L 158.395497 216.153056 
L 158.572433 216.151722 
L 158.74937 216.153029 
L 158.926307 216.151717 
L 159.103244 216.153023 
L 159.28018 216.151731 
L 159.457117 216.153034 
L 159.6373 216.151762 
L 159.817484 216.153061 
L 159.997667 216.151806 
L 160.17785 216.153098 
L 160.358033 216.151858 
L 160.538217 216.153141 
L 160.7184 216.151913 
L 160.90183 216.153184 
L 161.08526 216.151966 
L 161.268689 216.153224 
L 161.452119 216.152014 
L 161.635549 216.153256 
L 161.818979 216.152052 
L 162.005655 216.153278 
L 162.192332 216.15208 
L 162.379008 216.153289 
L 162.565684 216.152096 
L 162.752361 216.153288 
L 162.939037 216.152101 
L 163.12896 216.153276 
L 163.318883 216.152095 
L 163.508806 216.153255 
L 163.698729 216.152081 
L 163.888652 216.153226 
L 164.081821 216.152061 
L 164.274991 216.153193 
L 164.46816 216.152037 
L 164.661329 216.153158 
L 164.854499 216.152014 
L 165.050915 216.153125 
L 165.247331 216.151994 
L 165.443747 216.153096 
L 165.640163 216.151979 
L 165.836579 216.153075 
L 166.036241 216.151973 
L 166.235904 216.153062 
L 166.435567 216.151976 
L 166.635229 216.153058 
L 166.834892 216.151986 
L 167.037801 216.153062 
L 167.24071 216.152003 
L 167.443619 216.15307 
L 167.646528 216.152024 
L 167.849437 216.153081 
L 168.055593 216.152045 
L 168.261748 216.153091 
L 168.467904 216.152065 
L 168.67406 216.153098 
L 168.883462 216.152081 
L 169.092864 216.153103 
L 169.302266 216.152095 
L 169.511668 216.153104 
L 169.724317 216.152106 
L 169.936966 216.153104 
L 170.149615 216.152116 
L 170.362263 216.153103 
L 170.578159 216.152124 
L 170.794054 216.153099 
L 171.009949 216.152129 
L 171.225844 216.153092 
L 171.444986 216.15213 
L 171.664128 216.153079 
L 171.88327 216.152125 
L 172.102412 216.153061 
L 172.3248 216.152115 
L 172.547188 216.15304 
L 172.769577 216.152104 
L 172.995212 216.153019 
L 173.220847 216.152097 
L 173.446481 216.153006 
L 173.675363 216.152098 
L 173.904244 216.153002 
L 174.133126 216.152111 
L 174.362007 216.153009 
L 174.594135 216.152131 
L 174.826263 216.15302 
L 175.058391 216.152151 
L 175.293766 216.153027 
L 175.52914 216.152163 
L 175.764515 216.153022 
L 176.003136 216.152162 
L 176.241757 216.153006 
L 176.480378 216.152153 
L 176.722246 216.152986 
L 176.964113 216.152145 
L 177.205981 216.152974 
L 177.451095 216.152151 
L 177.696209 216.152979 
L 177.94457 216.152175 
L 178.192931 216.153 
L 178.441292 216.152208 
L 178.692899 216.153021 
L 178.944506 216.152232 
L 179.196113 216.153022 
L 179.450967 216.152228 
L 179.705821 216.152993 
L 179.963921 216.152194 
L 180.222022 216.15294 
L 180.483369 216.152152 
L 180.744716 216.152896 
L 181.006063 216.152134 
L 181.270656 216.152892 
L 181.535249 216.152166 
L 181.803089 216.152938 
L 182.070929 216.152239 
L 182.342016 216.153004 
L 182.613103 216.152304 
L 182.887436 216.153034 
L 183.161769 216.152306 
L 183.439348 216.152986 
L 183.716928 216.152232 
L 183.997754 216.152879 
L 184.27858 216.152133 
L 184.562653 216.152793 
L 184.846726 216.152102 
L 185.134045 216.152812 
L 185.421364 216.152195 
L 185.71193 216.152947 
L 186.002496 216.152363 
L 186.296308 216.153092 
L 186.590121 216.152463 
L 186.88718 216.153094 
L 187.187485 216.15237 
L 187.487791 216.152898 
L 187.791343 216.152129 
L 188.094895 216.152651 
L 188.401693 216.151961 
L 188.711738 216.1526 
L 189.021783 216.152079 
L 189.335075 216.152861 
L 189.651613 216.152453 
L 189.968151 216.153235 
L 190.287936 216.152729 
L 190.610967 216.153291 
L 190.933999 216.15253 
L 191.260276 216.152842 
L 191.589801 216.151957 
L 191.919325 216.152292 
L 192.252096 216.151622 
L 192.588113 216.152288 
L 192.927377 216.152031 
L 193.269888 216.153037 
L 193.612399 216.152945 
L 193.958156 216.153793 
L 194.307159 216.153238 
L 194.659409 216.153398 
L 195.014906 216.152214 
L 195.373649 216.152033 
L 195.732393 216.150988 
L 196.097629 216.151367 
L 196.462865 216.151212 
L 196.834595 216.152579 
L 197.206324 216.153203 
L 197.5813 216.154659 
L 197.962769 216.154407 
L 198.344239 216.15414 
L 198.732201 216.15212 
L 199.120163 216.150957 
L 199.511372 216.14934 
L 199.909073 216.149571 
L 200.306775 216.150024 
L 200.71097 216.152668 
L 201.118412 216.155007 
L 201.525853 216.157202 
L 201.946281 216.155803 
L 202.360215 216.152804 
L 202.783889 216.148384 
L 203.214057 216.146191 
L 203.644224 216.144875 
L 204.084131 216.146643 
L 204.517545 216.151116 
L 204.963945 216.158842 
L 205.426577 216.161353 
L 205.863238 216.155474 
L 206.325871 216.144144 
L 206.801489 216.137998 
L 207.267369 216.135003 
L 207.742988 216.133081 
L 208.195881 216.139054 
L 208.710458 216.161281 
L 209.27698 216.166424 
L 209.720134 216.140116 
L 210.195753 216.11257 
L 210.768768 216.111726 
L 211.377495 216.092074 
L 212.184262 216.109142 
L 212.731305 216.17713 
L 213.091671 216.154247 
L 213.49262 216.057718 
L 213.908177 215.98634 
L 214.279907 216.007384 
L 214.719814 216.034544 
L 215.815523 215.847096 
L 216.654755 216.144449 
L 217.070313 215.833243 
L 217.534569 215.420018 
L 217.765073 215.415503 
L 218.010188 215.566185 
L 218.39328 215.786168 
L 218.58158 215.715851 
L 218.790982 215.451413 
L 219.404579 214.554082 
L 219.562036 214.618446 
L 219.834746 215.103649 
L 220.276276 215.922731 
L 220.411008 215.868737 
L 220.604177 215.412638 
L 220.914223 214.01075 
L 221.295692 212.630216 
L 221.43854 212.590031 
L 221.456396 212.607605 
L 221.591127 212.88688 
L 222.199855 214.852559 
L 222.290758 214.722917 
L 222.459578 213.943055 
L 222.795596 210.901473 
L 223.170572 208.321871 
L 223.243619 208.264056 
L 223.290694 208.324859 
L 223.405946 208.796361 
L 223.638074 210.929254 
L 224.105577 215.022866 
L 224.1072 215.022513 
L 224.164015 214.916969 
L 224.282513 214.024941 
L 224.488669 210.447779 
L 225.152588 197.989485 
L 225.181807 197.973909 
L 225.225635 198.07642 
L 225.332771 198.960747 
L 225.53081 202.772401 
L 226.047011 214.356199 
L 226.094086 214.179498 
L 226.193105 212.569226 
L 226.384652 204.969143 
L 227.090775 173.649409 
L 227.124864 173.769841 
L 227.209274 175.14271 
L 227.360239 181.898718 
L 227.610223 205.211404 
L 228.037143 244.454978 
L 228.058246 244.285155 
L 228.128047 241.266715 
L 228.29362 221.90184 
L 228.986758 124.531951 
L 229.032209 125.258197 
L 229.155578 132.74692 
L 229.512698 169.297001 
L 229.838976 238.164617 
L 230.033769 275.4866 
L 230.082467 270.863832 
L 230.25778 218.809355 
L 230.694441 104.456508 
L 231.122985 80.950393 
L 231.218758 84.278356 
L 231.361606 102.657718 
L 231.8843 208.388612 
L 231.983319 195.695086 
L 232.512506 90.814802 
L 232.858263 65.73484 
L 232.871249 65.802475 
L 232.924817 67.550321 
L 233.038447 80.188634 
L 233.272198 137.789843 
L 233.533545 196.859098 
L 233.574127 194.256795 
L 233.684509 165.088664 
L 233.988061 97.559465 
L 234.520495 56.204834 
L 234.539974 56.368361 
L 234.603281 59.313755 
L 234.728273 77.894658 
L 234.978257 156.899244 
L 235.122729 189.329742 
L 235.16818 185.297296 
L 235.299665 141.810744 
L 235.554519 85.080921 
L 236.06098 53.568 
L 236.064227 53.571931 
L 236.095069 53.952097 
L 236.174609 58.443996 
L 236.302848 81.145017 
L 236.528483 172.417166 
L 236.627503 195.800957 
L 236.677824 188.905842 
L 236.875863 108.246794 
L 237.086889 72.63532 
L 237.528419 54.625665 
L 237.549521 54.729268 
L 237.611206 56.544766 
L 237.713472 67.657758 
L 237.857943 113.687236 
L 238.078708 207.277762 
L 238.140393 194.413385 
L 238.591663 64.26892 
L 238.914694 58.365606 
L 238.987741 59.477187 
L 239.083514 66.636969 
L 239.213376 97.383578 
L 239.492579 221.864749 
L 239.583482 193.006835 
L 239.935732 67.775347 
L 240.114292 63.628537 
L 240.322071 61.188701 
L 240.374016 61.723712 
L 240.45518 66.098939 
L 240.570432 87.330268 
L 240.753862 173.360834 
L 240.885347 226.814584 
L 240.935668 215.941967 
L 241.42752 64.675264 
L 241.622313 63.764618 
L 241.645039 63.754793 
L 241.680751 63.869541 
L 241.750551 65.040739 
L 241.846324 71.544431 
L 241.97294 99.543486 
L 242.208314 218.511385 
L 242.265129 232.367577 
L 242.32032 219.622222 
L 242.791069 68.030475 
L 243.015081 65.333236 
L 243.054039 65.218947 
L 243.099491 65.476671 
L 243.174161 67.843495 
L 243.278051 80.18077 
L 243.425769 130.876296 
L 243.641664 232.194464 
L 243.706595 215.290563 
L 244.135139 68.208613 
L 244.305583 66.218145 
L 244.372137 66.094747 
L 244.417588 66.22639 
L 244.492259 67.40024 
L 244.589655 73.523697 
L 244.714647 99.232715 
L 244.922426 201.531954 
L 245.018199 234.939928 
L 245.070144 223.257795 
L 245.557126 69.356922 
L 245.784384 66.650044 
L 245.803863 66.624542 
L 245.841199 66.809104 
L 245.912623 68.717417 
L 246.013265 79.001336 
L 246.15449 122.141337 
L 246.393111 233.44837 
L 246.466159 212.438164 
L 246.867107 69.870344 
L 247.039174 66.957749 
L 247.121961 66.737372 
L 247.169036 66.87647 
L 247.243706 68.099917 
L 247.341103 74.367932 
L 247.467718 100.882313 
L 247.68199 207.09321 
L 247.768023 235.38807 
L 247.821591 223.262483 
L 248.30208 69.843372 
L 248.527715 66.950377 
L 248.552064 66.902748 
L 248.594269 67.126429 
L 248.667316 69.252405 
L 248.769583 80.419478 
L 248.914054 126.761004 
L 249.142935 233.623767 
L 249.211113 215.117922 
L 249.628294 69.555655 
L 249.801984 67.024187 
L 249.873408 66.855168 
L 249.920483 67.002199 
L 249.995153 68.261225 
L 250.09255 74.647069 
L 250.219165 101.442867 
L 250.43506 208.721853 
L 250.517847 235.442359 
L 250.571415 223.459052 
L 251.055151 69.83522 
L 251.280785 66.985692 
L 251.303511 66.948448 
L 251.34247 67.149174 
L 251.413894 69.114593 
L 251.51616 79.827125 
L 251.659008 124.397929 
L 251.894383 233.638925 
L 251.964183 213.767355 
L 252.371625 69.877045 
L 252.543692 67.079076 
L 252.623232 66.868842 
L 252.670307 67.012426 
L 252.744977 68.261509 
L 252.842374 74.61643 
L 252.968989 101.33118 
L 253.184884 208.524466 
L 253.269295 235.440429 
L 253.322863 222.948657 
L 253.800105 69.973561 
L 254.024116 67.01487 
L 254.053335 66.950019 
L 254.09554 67.183079 
L 254.168588 69.346386 
L 254.270854 80.630885 
L 254.416948 127.978384 
L 254.644207 233.638087 
L 254.710761 215.490737 
L 255.131188 69.480154 
L 255.304879 67.029089 
L 255.374679 66.868742 
L 255.420131 67.009385 
L 255.494801 68.249027 
L 255.592198 74.571934 
L 255.718813 101.20253 
L 255.933085 207.450439 
L 256.019119 235.440311 
L 256.072687 223.108331 
L 256.551552 69.940868 
L 256.775564 67.00882 
L 256.803159 66.949169 
L 256.845364 67.177646 
L 256.918412 69.324541 
L 257.020678 80.557886 
L 257.165149 127.031975 
L 257.394031 233.637729 
L 257.462208 214.911073 
L 257.877766 69.62711 
L 258.051456 67.044463 
L 258.124503 66.868076 
L 258.171578 67.016995 
L 258.246249 68.285967 
L 258.343645 74.709154 
L 258.47026 101.603141 
L 258.687779 209.818641 
L 258.768943 235.440131 
L 258.822511 223.270396 
L 259.302999 69.908808 
L 259.528634 66.996756 
L 259.552983 66.948685 
L 259.595188 67.17266 
L 259.668236 69.303243 
L 259.770502 80.485408 
L 259.914973 126.846821 
L 260.143855 233.636697 
L 260.212032 215.097826 
L 260.629213 69.576143 
L 260.802903 67.03884 
L 260.874327 66.8678 
L 260.921402 67.014127 
L 260.996073 68.273551 
L 261.093469 74.664198 
L 261.220084 101.473012 
L 261.437603 209.610691 
L 261.518767 235.438992 
L 261.572335 223.432347 
L 262.05607 69.836884 
L 262.281705 66.986148 
L 262.304431 66.948983 
L 262.343389 67.150064 
L 262.414813 69.117202 
L 262.517079 79.835655 
L 262.659927 124.419816 
L 262.893679 233.634478 
L 262.965103 213.7392 
L 263.372544 69.874105 
L 263.544611 67.077888 
L 263.624151 66.867696 
L 263.671226 67.011441 
L 263.745897 68.261366 
L 263.843293 74.619598 
L 263.969908 101.343362 
L 264.185804 208.545328 
L 264.270214 235.437232 
L 264.323782 222.927852 
L 264.799401 70.014294 
L 265.023412 67.020921 
L 265.054255 66.948815 
L 265.09646 67.182242 
L 265.169507 69.347055 
L 265.271773 80.636596 
L 265.417868 127.995602 
L 265.645126 233.636326 
L 265.71168 215.470535 
L 266.132108 69.477658 
L 266.305798 67.028167 
L 266.375599 66.867966 
L 266.42105 67.008814 
L 266.495721 68.249289 
L 266.593117 74.575227 
L 266.719732 101.214065 
L 266.934004 207.470336 
L 267.020038 235.439367 
L 267.073606 223.091564 
L 267.552471 69.939288 
L 267.776483 67.008171 
L 267.804079 66.948692 
L 267.846284 67.177597 
L 267.919331 69.32604 
L 268.021597 80.564287 
L 268.166068 127.049321 
L 268.39495 233.637301 
L 268.463127 214.892454 
L 268.878685 69.625187 
L 269.052375 67.044055 
L 269.125423 66.867862 
L 269.170874 67.00622 
L 269.245545 68.237293 
L 269.342941 74.531055 
L 269.469556 101.085089 
L 269.683828 207.258332 
L 269.769862 235.440004 
L 269.82343 223.254519 
L 270.303919 69.907705 
L 270.529553 66.996516 
L 270.553903 66.948601 
L 270.596108 67.173007 
L 270.669155 69.305154 
L 270.771421 80.492245 
L 270.915892 126.864552 
L 271.144774 233.636775 
L 271.212951 215.079714 
L 271.630132 69.574524 
L 271.803823 67.038634 
L 271.875247 66.867772 
L 271.922321 67.014349 
L 271.996992 68.274691 
L 272.094388 74.668471 
L 272.221004 101.485505 
L 272.438522 209.630761 
L 272.519686 235.439141 
L 272.573254 223.416707 
L 273.055366 69.876535 
L 273.281001 66.991847 
L 273.30535 66.948986 
L 273.345932 67.168473 
L 273.418979 69.284396 
L 273.521245 80.42047 
L 273.665716 126.68008 
L 273.894598 233.634749 
L 273.964399 214.498071 
L 274.37671 69.727899 
L 274.548777 67.062399 
L 274.625071 66.867698 
L 274.672145 67.011693 
L 274.746816 68.262534 
L 274.844212 74.623892 
L 274.970828 101.355869 
L 275.186723 208.565619 
L 275.271133 235.436947 
L 275.324701 222.911991 
L 275.80032 70.013269 
L 276.024332 67.020743 
L 276.055174 66.948828 
L 276.097379 67.182694 
L 276.170426 69.349093 
L 276.272692 80.643599 
L 276.418787 128.01362 
L 276.646045 233.636153 
L 276.712599 215.452574 
L 277.131404 69.540785 
L 277.305094 67.035004 
L 277.376518 66.867978 
L 277.421969 67.009066 
L 277.49664 68.250453 
L 277.594036 74.579508 
L 277.720652 101.226548 
L 277.934924 207.490808 
L 278.020957 235.439227 
L 278.074525 223.075775 
L 278.553391 69.938296 
L 278.777402 67.008008 
L 278.804998 66.948703 
L 278.847203 67.178044 
L 278.92025 69.328066 
L 279.022516 80.571265 
L 279.166988 127.067195 
L 279.395869 233.637273 
L 279.464047 214.874326 
L 279.879604 69.62359 
L 280.053295 67.043885 
L 280.126342 66.867871 
L 280.171793 67.00647 
L 280.246464 68.23845 
L 280.34386 74.535316 
L 280.470476 101.097542 
L 280.684748 207.278839 
L 280.770781 235.440008 
L 280.824349 223.238802 
L 281.304838 69.906726 
L 281.530473 66.996367 
L 281.554822 66.948608 
L 281.597027 67.173449 
L 281.670074 69.307167 
L 281.77234 80.499197 
L 281.916812 126.882398 
L 282.145693 233.636892 
L 282.213871 215.061638 
L 282.631052 69.572959 
L 282.804742 67.038466 
L 282.876166 66.86778 
L 282.923241 67.014607 
L 282.997911 68.27587 
L 283.095308 74.67279 
L 283.221923 101.498052 
L 283.439441 209.650863 
L 283.520605 235.43929 
L 283.574173 223.401064 
L 284.056285 69.875568 
L 284.28192 66.991705 
L 284.304646 66.948545 
L 284.346851 67.168909 
L 284.419898 69.286397 
L 284.522164 80.427396 
L 284.666636 126.697897 
L 284.895517 233.63501 
L 284.965318 214.479834 
L 285.377629 69.726239 
L 285.549696 67.062222 
L 285.62599 66.867705 
L 285.673065 67.011948 
L 285.747735 68.263705 
L 285.845132 74.628193 
L 285.971747 101.368386 
L 286.187642 208.585911 
L 286.270429 235.437071 
L 286.32562 222.89612 
L 286.801239 70.012246 
L 287.025251 67.020564 
L 287.056093 66.948842 
L 287.098298 67.183147 
L 287.171345 69.351132 
L 287.273612 80.650605 
L 287.419706 128.031642 
L 287.646964 233.635966 
L 287.713519 215.434606 
L 288.132323 69.539241 
L 288.306013 67.034837 
L 288.377437 66.867989 
L 288.422889 67.009319 
L 288.497559 68.251617 
L 288.594956 74.583789 
L 288.721571 101.239034 
L 288.937466 208.375805 
L 289.021876 235.439072 
L 289.075444 223.059978 
L 289.552687 69.979699 
L 289.776698 67.014957 
L 289.805917 66.948714 
L 289.848122 67.178491 
L 289.921169 69.330092 
L 290.023436 80.578245 
L 290.167907 127.085073 
L 290.396788 233.63723 
L 290.464966 214.856192 
L 290.880524 69.621995 
L 291.054214 67.043715 
L 291.127261 66.867881 
L 291.172713 67.006719 
L 291.247383 68.239606 
L 291.34478 74.539579 
L 291.471395 101.109997 
L 291.685667 207.299342 
L 291.7717 235.439998 
L 291.825268 223.223078 
L 292.305757 69.905748 
L 292.531392 66.996218 
L 292.555741 66.948616 
L 292.597946 67.17389 
L 292.670993 69.309181 
L 292.77326 80.506151 
L 292.917731 126.900247 
L 293.146612 233.636994 
L 293.21479 215.043558 
L 293.631971 69.571395 
L 293.805661 67.038298 
L 293.877085 66.867788 
L 293.92416 67.014865 
L 293.998831 68.27705 
L 294.096227 74.677111 
L 294.222842 101.510602 
L 294.440361 209.670962 
L 294.521524 235.439425 
L 294.575092 223.385414 
L 295.057204 69.874602 
L 295.282839 66.991562 
L 295.305565 66.94855 
L 295.34777 67.169345 
L 295.420817 69.288399 
L 295.523084 80.434324 
L 295.667555 126.715717 
L 295.896436 233.635258 
L 295.966237 214.461591 
L 296.378548 69.724581 
L 296.550615 67.062044 
L 296.626909 66.867711 
L 296.673984 67.012204 
L 296.748655 68.264878 
L 296.846051 74.632495 
L 296.972666 101.380905 
L 297.188561 208.606199 
L 297.271348 235.437351 
L 297.32654 222.880243 
L 297.802159 70.011224 
L 298.02617 67.020386 
L 298.057012 66.948856 
L 298.099217 67.1836 
L 298.172265 69.353173 
L 298.274531 80.657613 
L 298.420625 128.049667 
L 298.647884 233.635764 
L 298.714438 215.416633 
L 299.133242 69.537697 
L 299.306932 67.03467 
L 299.378356 66.868 
L 299.423808 67.009572 
L 299.498479 68.252782 
L 299.595875 74.588072 
L 299.72249 101.251523 
L 299.938385 208.396129 
L 300.022796 235.438903 
L 300.076364 223.044173 
L 300.553606 69.97869 
L 300.777617 67.014785 
L 300.806836 66.948725 
L 300.849041 67.178938 
L 300.922089 69.33212 
L 301.024355 80.585227 
L 301.168826 127.102953 
L 301.397708 233.637173 
L 301.465885 214.838053 
L 301.881443 69.6204 
L 302.055133 67.043545 
L 302.12818 66.867891 
L 302.173632 67.006969 
L 302.248303 68.240764 
L 302.345699 74.543844 
L 302.472314 101.122456 
L 302.686586 207.319841 
L 302.77262 235.439974 
L 302.826188 223.207347 
L 303.306676 69.904769 
L 303.532311 66.99607 
L 303.55666 66.948624 
L 303.598865 67.174333 
L 303.671913 69.311197 
L 303.774179 80.513108 
L 303.91865 126.918098 
L 304.147532 233.637083 
L 304.215709 215.025472 
L 304.63289 69.569831 
L 304.80658 67.03813 
L 304.878004 66.867797 
L 304.925079 67.015124 
L 304.99975 68.278231 
L 305.097146 74.681434 
L 305.223761 101.523154 
L 305.44128 209.691057 
L 305.522444 235.439546 
L 305.576012 223.369757 
L 306.058124 69.873637 
L 306.283759 66.991421 
L 306.306484 66.948555 
L 306.348689 67.169782 
L 306.421737 69.290402 
L 306.524003 80.441255 
L 306.668474 126.73354 
L 306.897356 233.635491 
L 306.967156 214.443343 
L 307.379468 69.722923 
L 307.551535 67.061867 
L 307.627828 66.867718 
L 307.674903 67.01246 
L 307.749574 68.266051 
L 307.84697 74.636799 
L 307.973585 101.393427 
L 308.189481 208.626484 
L 308.272268 235.437617 
L 308.327459 222.864358 
L 308.803078 70.010202 
L 309.027089 67.020209 
L 309.057932 66.948871 
L 309.100137 67.184053 
L 309.174807 69.442866 
L 309.278697 81.26802 
L 309.426415 130.382073 
L 309.648803 233.635548 
L 309.713734 216.156004 
L 310.139031 69.347577 
L 310.312721 67.013903 
L 310.379276 66.868011 
L 310.424727 67.009825 
L 310.499398 68.253948 
L 310.596794 74.592358 
L 310.723409 101.264014 
L 310.939305 208.416449 
L 311.023715 235.43872 
L 311.077283 223.028361 
L 311.554525 69.977681 
L 311.778537 67.014613 
L 311.807756 66.948736 
L 311.849961 67.179386 
L 311.923008 69.334149 
L 312.025274 80.592212 
L 312.169745 127.120835 
L 312.398627 233.637103 
L 312.466804 214.81991 
L 312.882362 69.618807 
L 313.056052 67.043375 
L 313.1291 66.867901 
L 313.174551 67.00722 
L 313.249222 68.241922 
L 313.346618 74.54811 
L 313.473233 101.134917 
L 313.687505 207.340338 
L 313.773539 235.439936 
L 313.827107 223.191609 
L 314.307596 69.903791 
L 314.533231 66.995922 
L 314.55758 66.948633 
L 314.599785 67.174775 
L 314.672832 69.313214 
L 314.775098 80.520067 
L 314.919569 126.935953 
L 315.148451 233.637157 
L 315.216628 215.007381 
L 315.632186 69.635341 
L 315.805876 67.045138 
L 315.878924 66.867805 
L 315.925999 67.015383 
L 316.000669 68.279412 
L 316.098065 74.685758 
L 316.224681 101.535709 
L 316.442199 209.711148 
L 316.523363 235.439653 
L 316.576931 223.354093 
L 317.059043 69.872671 
L 317.284678 66.991279 
L 317.307404 66.94856 
L 317.349609 67.170219 
L 317.422656 69.292406 
L 317.524922 80.448188 
L 317.669393 126.751366 
L 317.898275 233.63571 
L 317.968076 214.42509 
L 318.380387 69.721266 
L 318.552454 67.06169 
L 318.628748 66.867725 
L 318.675823 67.012716 
L 318.750493 68.267225 
L 318.847889 74.641104 
L 318.974505 101.405952 
L 319.1904 208.646765 
L 319.273187 235.437869 
L 319.328378 222.848467 
L 319.803997 70.00918 
L 320.028009 67.020031 
L 320.057228 66.948519 
L 320.101056 67.184507 
L 320.175727 69.444961 
L 320.279616 81.275246 
L 320.427334 130.400447 
L 320.649722 233.635319 
L 320.714653 216.138247 
L 321.139951 69.346151 
L 321.313641 67.013745 
L 321.380195 66.868023 
L 321.425647 67.010078 
L 321.500317 68.255115 
L 321.597713 74.596645 
L 321.724329 101.276509 
L 321.940224 208.436766 
L 322.024634 235.438523 
L 322.078202 223.012543 
L 322.555444 69.976673 
L 322.779456 67.014442 
L 322.808675 66.948748 
L 322.85088 67.179835 
L 322.923927 69.33618 
L 323.026193 80.599199 
L 323.170665 127.138721 
L 323.399546 233.637018 
L 323.467724 214.801761 
L 323.883281 69.617214 
L 324.056972 67.043205 
L 324.130019 66.867911 
L 324.175471 67.00747 
L 324.250141 68.243081 
L 324.347537 74.552378 
L 324.474153 101.147381 
L 324.688425 207.360831 
L 324.774458 235.439884 
L 324.828026 223.175863 
L 325.306892 69.944599 
L 325.530903 67.009052 
L 325.558499 66.948641 
L 325.600704 67.175219 
L 325.673751 69.315232 
L 325.776017 80.527028 
L 325.920489 126.95381 
L 326.14937 233.637217 
L 326.217548 214.989285 
L 326.633105 69.633739 
L 326.806796 67.044967 
L 326.879843 66.867814 
L 326.926918 67.015643 
L 327.001588 68.280594 
L 327.098985 74.690084 
L 327.2256 101.548268 
L 327.443119 209.731235 
L 327.524282 235.439745 
L 327.57785 223.338422 
L 328.059962 69.871707 
L 328.285597 66.991137 
L 328.308323 66.948566 
L 328.350528 67.170657 
L 328.423575 69.294412 
L 328.525841 80.455124 
L 328.670313 126.769194 
L 328.899194 233.635916 
L 328.968995 214.406832 
L 329.381306 69.719611 
L 329.553373 67.061512 
L 329.629667 66.867732 
L 329.676742 67.012973 
L 329.751412 68.268399 
L 329.848809 74.645412 
L 329.975424 101.41848 
L 330.191319 208.667043 
L 330.274106 235.438107 
L 330.327674 223.500211 
L 330.811409 69.841 
L 331.037044 66.986717 
L 331.05977 66.9489 
L 331.098729 67.148258 
L 331.170153 69.108943 
L 331.270796 79.524582 
L 331.413644 123.607067 
L 331.650641 233.635075 
L 331.720442 213.819286 
L 332.127884 69.881712 
L 332.299951 67.078681 
L 332.379491 66.867666 
L 332.426566 67.010332 
L 332.501236 68.256282 
L 332.598633 74.600933 
L 332.725248 101.289007 
L 332.941143 208.45708 
L 333.025553 235.438312 
L 333.079121 222.996717 
L 333.556364 69.975666 
L 333.780375 67.014271 
L 333.809594 66.94876 
L 333.851799 67.180284 
L 333.924847 69.338211 
L 334.027113 80.606189 
L 334.171584 127.156609 
L 334.400465 233.636919 
L 334.468643 214.783607 
L 334.882577 69.683947 
L 335.056268 67.050298 
L 335.130938 66.867921 
L 335.17639 67.007721 
L 335.25106 68.244241 
L 335.348457 74.556649 
L 335.475072 101.159848 
L 335.689344 207.381321 
L 335.775377 235.439818 
L 335.828945 223.16011 
L 336.307811 69.943605 
L 336.531823 67.008886 
L 336.559418 66.94865 
L 336.601623 67.175662 
L 336.674671 69.317251 
L 336.776937 80.533992 
L 336.921408 126.971669 
L 337.150289 233.637263 
L 337.218467 214.971183 
L 337.634025 69.632137 
L 337.807715 67.044796 
L 337.880762 66.867822 
L 337.927837 67.015902 
L 338.002508 68.281777 
L 338.099904 74.694412 
L 338.226519 101.560829 
L 338.444038 209.751319 
L 338.525201 235.439824 
L 338.578769 223.322743 
L 339.060881 69.870742 
L 339.286516 66.990996 
L 339.309242 66.948572 
L 339.349824 67.152959 
L 339.422871 69.212408 
L 339.525137 80.170161 
L 339.669609 126.033697 
L 339.900113 233.636107 
L 339.969914 214.38857 
L 340.382225 69.717956 
L 340.554292 67.061335 
L 340.630586 66.867739 
L 340.677661 67.013229 
L 340.752332 68.269575 
L 340.849728 74.649721 
L 340.976343 101.431011 
L 341.192239 208.687317 
L 341.275025 235.438331 
L 341.328593 223.484607 
L 341.812329 69.840048 
L 342.037964 66.986582 
L 342.060689 66.948916 
L 342.099648 67.148669 
L 342.171072 69.110838 
L 342.271715 79.531182 
L 342.414563 123.624394 
L 342.651561 233.634817 
L 342.721361 213.800867 
L 343.128803 69.879959 
L 343.30087 67.078497 
L 343.38041 66.867671 
L 343.427485 67.010586 
L 343.502156 68.25745 
L 343.599552 74.605224 
L 343.726167 101.301507 
L 343.942063 208.47739 
L 344.026473 235.438087 
L 344.080041 222.980884 
L 344.557283 69.974659 
L 344.781295 67.0141 
L 344.810513 66.948772 
L 344.852719 67.180734 
L 344.925766 69.340244 
L 345.028032 80.613181 
L 345.174127 127.935326 
L 345.401385 233.636806 
L 345.467939 215.530604 
L 345.888367 69.482703 
L 346.062057 67.028716 
L 346.131857 66.867931 
L 346.177309 67.007972 
L 346.25198 68.245401 
L 346.349376 74.560921 
L 346.475991 101.172318 
L 346.690263 207.401808 
L 346.776297 235.439738 
L 346.829865 223.144351 
L 347.30873 69.942611 
L 347.532742 67.008722 
L 347.560337 66.948659 
L 347.602543 67.176107 
L 347.67559 69.319271 
L 347.777856 80.540959 
L 347.922327 126.989532 
L 348.151209 233.637296 
L 348.219386 214.953077 
L 348.634944 69.630536 
L 348.808634 67.044626 
L 348.881681 66.867831 
L 348.928756 67.016162 
L 349.003427 68.282961 
L 349.100823 74.698742 
L 349.227439 101.573394 
L 349.444957 209.771399 
L 349.526121 235.439889 
L 349.579689 223.307057 
L 350.061801 69.869778 
L 350.287436 66.990855 
L 350.310161 66.948578 
L 350.350743 67.153376 
L 350.423791 69.214366 
L 350.526057 80.176997 
L 350.670528 126.051413 
L 350.901033 233.636284 
L 350.970833 214.370302 
L 351.383145 69.716303 
L 351.555212 67.061158 
L 351.631505 66.867747 
L 351.67858 67.013486 
L 351.753251 68.270751 
L 351.850647 74.654032 
L 351.977263 101.443545 
L 352.193158 208.707587 
L 352.275945 235.43854 
L 352.329513 223.468996 
L 352.813248 69.839096 
L 353.038883 66.986448 
L 353.061609 66.948931 
L 353.100567 67.149082 
L 353.171991 69.112734 
L 353.272634 79.537785 
L 353.415482 123.641724 
L 353.65248 233.634545 
L 353.722281 213.782443 
L 354.129722 69.878206 
L 354.301789 67.078314 
L 354.381329 66.867677 
L 354.428404 67.01084 
L 354.503075 68.258618 
L 354.600471 74.609516 
L 354.727087 101.314011 
L 354.942982 208.497697 
L 355.027392 235.437848 
L 355.08096 222.965044 
L 355.558202 69.973652 
L 355.782214 67.013929 
L 355.811433 66.948784 
L 355.853638 67.181184 
L 355.926685 69.342278 
L 356.028951 80.620176 
L 356.175046 127.953337 
L 356.402304 233.63668 
L 356.468858 215.512659 
L 356.889286 69.481194 
L 357.062976 67.028552 
L 357.132777 66.867942 
L 357.178228 67.008223 
L 357.252899 68.246563 
L 357.350295 74.565194 
L 357.476911 101.184791 
L 357.691183 207.422292 
L 357.777216 235.439644 
L 357.830784 223.128584 
L 358.309649 69.941617 
L 358.533661 67.008557 
L 358.561257 66.948669 
L 358.603462 67.176551 
L 358.676509 69.321293 
L 358.778775 80.547928 
L 358.923247 127.007397 
L 359.152128 233.637314 
L 359.220305 214.934965 
L 359.635863 69.628936 
L 359.809553 67.044455 
L 359.882601 66.86784 
L 359.929676 67.016423 
L 360.004346 68.284145 
L 360.101743 74.703074 
L 360.228358 101.585961 
L 360.445876 209.791476 
L 360.52704 235.43994 
L 360.580608 223.291364 
L 361.061097 69.910004 
L 361.286732 66.996866 
L 361.311081 66.948585 
L 361.353286 67.171974 
L 361.426333 69.300436 
L 361.528599 80.475946 
L 361.673071 126.822696 
L 361.901952 233.636448 
L 361.970129 215.122101 
L 362.387311 69.5782 
L 362.561001 67.039029 
L 362.632425 66.867754 
L 362.6795 67.013744 
L 362.75417 68.271928 
L 362.851567 74.658345 
L 362.978182 101.456081 
L 363.194077 208.727855 
L 363.276864 235.438736 
L 363.330432 223.453378 
L 363.814167 69.838145 
L 364.039802 66.986314 
L 364.062528 66.948947 
L 364.101487 67.149494 
L 364.172911 69.114632 
L 364.275177 79.826602 
L 364.418025 124.396298 
L 364.653399 233.63426 
L 364.7232 213.764014 
L 365.130641 69.876454 
L 365.302708 67.07813 
L 365.382249 66.867683 
L 365.429324 67.011095 
L 365.503994 68.259787 
L 365.601391 74.613811 
L 365.728006 101.326517 
L 365.943901 208.518 
L 366.028311 235.437595 
L 366.081879 222.949197 
L 366.559121 69.972645 
L 366.783133 67.013758 
L 366.812352 66.948797 
L 366.854557 67.181635 
L 366.927604 69.344313 
L 367.029871 80.627173 
L 367.175965 127.97135 
L 367.403223 233.636539 
L 367.469777 215.494708 
L 367.890205 69.479686 
L 368.063895 67.028388 
L 368.133696 66.867952 
L 368.179148 67.008475 
L 368.253818 68.247724 
L 368.351215 74.56947 
L 368.47783 101.197267 
L 368.692102 207.442772 
L 368.778135 235.439536 
L 368.831703 223.11281 
L 369.310569 69.940624 
L 369.53458 67.008393 
L 369.562176 66.948679 
L 369.604381 67.176997 
L 369.677428 69.323315 
L 369.779695 80.554899 
L 369.924166 127.025265 
L 370.153047 233.637318 
L 370.221225 214.916849 
L 370.636783 69.627338 
L 370.810473 67.044285 
L 370.88352 66.867849 
L 370.930595 67.016683 
L 371.005265 68.28533 
L 371.102662 74.707408 
L 371.229277 101.598531 
L 371.446796 209.811548 
L 371.527959 235.439977 
L 371.581527 223.275664 
L 372.062016 69.909024 
L 372.287651 66.996717 
L 372.312 66.948591 
L 372.354205 67.172414 
L 372.427252 69.302446 
L 372.529519 80.482892 
L 372.67399 126.840535 
L 372.902871 233.636597 
L 372.971049 215.104037 
L 373.38823 69.576633 
L 373.56192 67.03886 
L 373.633344 66.867762 
L 373.680419 67.014001 
L 373.755089 68.273105 
L 373.852486 74.66266 
L 373.979101 101.468621 
L 374.19662 209.603695 
L 374.277783 235.438918 
L 374.331351 223.437752 
L 374.815087 69.837194 
L 375.040721 66.98618 
L 375.063447 66.948963 
L 375.102406 67.149908 
L 375.17383 69.11653 
L 375.276096 79.833314 
L 375.418944 124.413753 
L 375.652695 233.634375 
L 375.724119 213.745581 
L 376.131561 69.874703 
L 376.303628 67.077946 
L 376.383168 66.86769 
L 376.430243 67.011349 
L 376.504913 68.260957 
L 376.60231 74.618107 
L 376.728925 101.339026 
L 376.94482 208.5383 
L 377.029231 235.437328 
L 377.082799 222.933343 
L 377.558417 70.014647 
L 377.782429 67.020983 
L 377.813271 66.94881 
L 377.855476 67.182086 
L 377.928524 69.34635 
L 378.03079 80.634173 
L 378.176884 127.989365 
L 378.404143 233.636384 
L 378.470697 215.476753 
L 378.891124 69.478179 
L 379.064815 67.028224 
L 379.134615 66.867963 
L 379.180067 67.008727 
L 379.254737 68.248887 
L 379.352134 74.573747 
L 379.478749 101.209746 
L 379.693021 207.463249 
L 379.779055 235.439414 
L 379.832623 223.097029 
L 380.311488 69.939631 
L 380.5355 67.008228 
L 380.563095 66.948689 
L 380.6053 67.177443 
L 380.678348 69.325339 
L 380.780614 80.561873 
L 380.925085 127.043136 
L 381.153967 233.637308 
L 381.222144 214.898727 
L 381.637702 69.62574 
L 381.811392 67.044114 
L 381.884439 66.867859 
L 381.929891 67.006134 
L 382.004561 68.236893 
L 382.101958 74.529581 
L 382.228573 101.080781 
L 382.442845 207.251235 
L 382.528879 235.44 
L 382.582447 223.259957 
L 383.062935 69.908044 
L 383.28857 66.996568 
L 383.312919 66.948598 
L 383.355124 67.172855 
L 383.428172 69.304458 
L 383.530438 80.48984 
L 383.674909 126.858377 
L 383.903791 233.636732 
L 383.971968 215.085968 
L 384.389149 69.575066 
L 384.562839 67.038692 
L 384.634263 66.86777 
L 384.681338 67.014259 
L 384.756009 68.274283 
L 384.853405 74.666977 
L 384.98002 101.481164 
L 385.197539 209.623803 
L 385.278703 235.439086 
L 385.332271 223.422119 
L 385.814383 69.876869 
L 386.040017 66.991896 
L 386.064367 66.94898 
L 386.104948 67.168322 
L 386.177996 69.283704 
L 386.280262 80.418074 
L 386.424733 126.673914 
L 386.653615 233.634655 
L 386.723415 214.504382 
L 387.135727 69.728473 
L 387.307793 67.062461 
L 387.384087 66.867696 
L 387.431162 67.011604 
L 387.505833 68.262128 
L 387.603229 74.622405 
L 387.729844 101.351539 
L 387.94574 208.558596 
L 388.03015 235.437047 
L 388.083718 222.917482 
L 388.559337 70.013624 
L 388.783348 67.020804 
L 388.814191 66.948824 
L 388.856396 67.182538 
L 388.929443 69.348387 
L 389.031709 80.641175 
L 389.177804 128.007384 
L 389.405062 233.636215 
L 389.471616 215.458792 
L 389.892044 69.476674 
L 390.065734 67.02806 
L 390.135535 66.867974 
L 390.180986 67.008979 
L 390.255657 68.25005 
L 390.353053 74.578026 
L 390.479668 101.222228 
L 390.69394 207.483723 
L 390.779974 235.439278 
L 390.833542 223.081241 
L 391.312407 69.938639 
L 391.536419 67.008064 
L 391.564015 66.948699 
L 391.60622 67.177889 
L 391.679267 69.327364 
L 391.781533 80.56885 
L 391.926004 127.061009 
L 392.154886 233.637284 
L 392.223063 214.8806 
L 392.638621 69.624143 
L 392.812311 67.043944 
L 392.885359 66.867868 
L 392.93081 67.006383 
L 393.005481 68.238049 
L 393.102877 74.533841 
L 393.229492 101.093232 
L 393.443764 207.271742 
L 393.529798 235.440009 
L 393.583366 223.244242 
L 394.063855 69.907065 
L 394.289489 66.996419 
L 394.313839 66.948606 
L 394.356044 67.173296 
L 394.429091 69.30647 
L 394.531357 80.496791 
L 394.675828 126.876222 
L 394.90471 233.636853 
L 394.972887 215.067894 
L 395.390068 69.5735 
L 395.563759 67.038524 
L 395.635183 66.867777 
L 395.682257 67.014517 
L 395.756928 68.275462 
L 395.854324 74.671295 
L 395.98094 101.49371 
L 396.198458 209.643907 
L 396.279622 235.43924 
L 396.33319 223.406479 
L 396.815302 69.875903 
L 397.040937 66.991754 
L 397.063663 66.948544 
L 397.105868 67.168758 
L 397.178915 69.285704 
L 397.281181 80.424999 
L 397.425652 126.691731 
L 397.654534 233.634921 
L 397.724335 214.486146 
L 398.136646 69.726813 
L 398.308713 67.062283 
L 398.385007 66.867702 
L 398.432081 67.01186 
L 398.487273 67.753776 
L 398.487273 67.753776 
" style="fill:none;stroke:#1f77b4;stroke-linecap:square;stroke-width:1.5;"/>
   </g>
   <g id="patch_3">
    <path d="M 57.6 307.584 
L 57.6 41.472 
" style="fill:none;stroke:#000000;stroke-linecap:square;stroke-linejoin:miter;stroke-width:0.8;"/>
   </g>
   <g id="patch_4">
    <path d="M 414.72 307.584 
L 414.72 41.472 
" style="fill:none;stroke:#000000;stroke-linecap:square;stroke-linejoin:miter;stroke-width:0.8;"/>
   </g>
   <g id="patch_5">
    <path d="M 57.6 307.584 
L 414.72 307.584 
" style="fill:none;stroke:#000000;stroke-linecap:square;stroke-linejoin:miter;stroke-width:0.8;"/>
   </g>
   <g id="patch_6">
    <path d="M 57.6 41.472 
L 414.72 41.472 
" style="fill:none;stroke:#000000;stroke-linecap:square;stroke-linejoin:miter;stroke-width:0.8;"/>
   </g>
  </g>
 </g>
 <defs>
  <clipPath id="pcd8660ad50">
   <rect height="266.112" width="357.12" x="57.6" y="41.472"/>
  </clipPath>
 </defs>
</svg>
