<?xml version="1.0" encoding="utf-8" standalone="no"?>
<!DOCTYPE svg PUBLIC "-//W3C//DTD SVG 1.1//EN"
  "http://www.w3.org/Graphics/SVG/1.1/DTD/svg11.dtd">
<!-- Created with matplotlib (https://matplotlib.org/) -->
<svg height="345.6pt" version="1.1" viewBox="0 0 460.8 345.6" width="460.8pt" xmlns="http://www.w3.org/2000/svg" xmlns:xlink="http://www.w3.org/1999/xlink">
 <metadata>
  <rdf:RDF xmlns:cc="http://creativecommons.org/ns#" xmlns:dc="http://purl.org/dc/elements/1.1/" xmlns:rdf="http://www.w3.org/1999/02/22-rdf-syntax-ns#">
   <cc:Work>
    <dc:type rdf:resource="http://purl.org/dc/dcmitype/StillImage"/>
    <dc:date>2020-07-27T11:56:41.018824</dc:date>
    <dc:format>image/svg+xml</dc:format>
    <dc:creator>
     <cc:Agent>
      <dc:title>Matplotlib v3.3.0, https://matplotlib.org/</dc:title>
     </cc:Agent>
    </dc:creator>
   </cc:Work>
  </rdf:RDF>
 </metadata>
 <defs>
  <style type="text/css">*{stroke-linecap:butt;stroke-linejoin:round;}</style>
 </defs>
 <g id="figure_1">
  <g id="patch_1">
   <path d="M 0 345.6 
L 460.8 345.6 
L 460.8 0 
L 0 0 
z
" style="fill:#ffffff;"/>
  </g>
  <g id="axes_1">
   <g id="patch_2">
    <path d="M 57.6 307.584 
L 414.72 307.584 
L 414.72 41.472 
L 57.6 41.472 
z
" style="fill:#ffffff;"/>
   </g>
   <g id="matplotlib.axis_1">
    <g id="xtick_1">
     <g id="line2d_1">
      <defs>
       <path d="M 0 0 
L 0 3.5 
" id="m0222fb7ed9" style="stroke:#000000;stroke-width:0.8;"/>
      </defs>
      <g>
       <use style="stroke:#000000;stroke-width:0.8;" x="73.832727" xlink:href="#m0222fb7ed9" y="307.584"/>
      </g>
     </g>
     <g id="text_1">
      <!-- $\mathdefault{0}$ -->
      <g transform="translate(71.34206 321.502498)scale(0.1 -0.1)">
       <defs>
        <path d="M 42 31.640625 
C 42 37.75 41.90625 48.125 37.703125 56.109375 
C 34 63.109375 28.09375 65.59375 22.90625 65.59375 
C 18.09375 65.59375 12 63.40625 8.203125 56.203125 
C 4.203125 48.71875 3.796875 39.4375 3.796875 31.640625 
C 3.796875 25.953125 3.90625 17.28125 7 9.671875 
C 11.296875 -0.609375 19 -2 22.90625 -2 
C 27.5 -2 34.5 -0.109375 38.59375 9.375 
C 41.59375 16.28125 42 24.359375 42 31.640625 
z
M 22.90625 -0.40625 
C 16.5 -0.40625 12.703125 5.078125 11.296875 12.6875 
C 10.203125 18.5625 10.203125 27.15625 10.203125 32.75 
C 10.203125 40.4375 10.203125 46.828125 11.5 52.921875 
C 13.40625 61.390625 19 64 22.90625 64 
C 27 64 32.296875 61.296875 34.203125 53.125 
C 35.5 47.4375 35.59375 40.734375 35.59375 32.75 
C 35.59375 26.25 35.59375 18.265625 34.40625 12.375 
C 32.296875 1.484375 26.40625 -0.40625 22.90625 -0.40625 
z
" id="CMR17-48"/>
       </defs>
       <use transform="scale(0.996264)" xlink:href="#CMR17-48"/>
      </g>
     </g>
    </g>
    <g id="xtick_2">
     <g id="line2d_2">
      <g>
       <use style="stroke:#000000;stroke-width:0.8;" x="114.414545" xlink:href="#m0222fb7ed9" y="307.584"/>
      </g>
     </g>
     <g id="text_2">
      <!-- $\mathdefault{25000}$ -->
      <g transform="translate(101.961207 321.502498)scale(0.1 -0.1)">
       <defs>
        <path d="M 41.703125 15.453125 
L 39.90625 15.453125 
C 38.90625 8.375 38.09375 7.171875 37.703125 6.5625 
C 37.203125 5.765625 30 5.765625 28.59375 5.765625 
L 9.40625 5.765625 
C 13 9.671875 20 16.75 28.5 24.953125 
C 34.59375 30.734375 41.703125 37.53125 41.703125 47.421875 
C 41.703125 59.21875 32.296875 66 21.796875 66 
C 10.796875 66 4.09375 56.3125 4.09375 47.34375 
C 4.09375 43.4375 7 42.9375 8.203125 42.9375 
C 9.203125 42.9375 12.203125 43.546875 12.203125 47.03125 
C 12.203125 50.109375 9.59375 51 8.203125 51 
C 7.59375 51 7 50.90625 6.59375 50.703125 
C 8.5 59.21875 14.296875 63.40625 20.40625 63.40625 
C 29.09375 63.40625 34.796875 56.515625 34.796875 47.421875 
C 34.796875 38.734375 29.703125 31.25 24 24.75 
L 4.09375 2.28125 
L 4.09375 0 
L 39.296875 0 
z
" id="CMR17-50"/>
        <path d="M 11.40625 57.6875 
C 12.40625 57.28125 16.5 56 20.703125 56 
C 30 56 35.09375 61.109375 38 64.0625 
C 38 64.953125 38 65.5 37.40625 65.5 
C 37.296875 65.5 37.09375 65.5 36.296875 65.046875 
C 32.796875 63.40625 28.703125 62.078125 23.703125 62.078125 
C 20.703125 62.078125 16.203125 62.484375 11.296875 64.671875 
C 10.203125 65.171875 10 65.171875 9.90625 65.171875 
C 9.40625 65.171875 9.296875 65.0625 9.296875 63.078125 
L 9.296875 34.421875 
C 9.296875 32.640625 9.296875 32.140625 10.296875 32.140625 
C 10.796875 32.140625 11 32.34375 11.5 33.03125 
C 14.703125 37.515625 19.09375 39.40625 24.09375 39.40625 
C 27.59375 39.40625 35.09375 37.21875 35.09375 20.140625 
C 35.09375 16.953125 35.09375 11.171875 32.09375 6.578125 
C 29.59375 2.484375 25.703125 0.390625 21.40625 0.390625 
C 14.796875 0.390625 8.09375 5 6.296875 12.71875 
C 6.703125 12.609375 7.5 12.421875 7.90625 12.421875 
C 9.203125 12.421875 11.703125 13.125 11.703125 16.21875 
C 11.703125 18.90625 9.796875 20 7.90625 20 
C 5.59375 20 4.09375 18.59375 4.09375 15.796875 
C 4.09375 7.09375 11 -2 21.59375 -2 
C 31.90625 -2 41.703125 6.875 41.703125 19.75 
C 41.703125 31.71875 33.90625 41 24.203125 41 
C 19.09375 41 14.796875 39.109375 11.40625 35.53125 
z
" id="CMR17-53"/>
       </defs>
       <use transform="scale(0.996264)" xlink:href="#CMR17-50"/>
       <use transform="translate(45.690477 0)scale(0.996264)" xlink:href="#CMR17-53"/>
       <use transform="translate(91.380954 0)scale(0.996264)" xlink:href="#CMR17-48"/>
       <use transform="translate(137.071431 0)scale(0.996264)" xlink:href="#CMR17-48"/>
       <use transform="translate(182.761908 0)scale(0.996264)" xlink:href="#CMR17-48"/>
      </g>
     </g>
    </g>
    <g id="xtick_3">
     <g id="line2d_3">
      <g>
       <use style="stroke:#000000;stroke-width:0.8;" x="154.996364" xlink:href="#m0222fb7ed9" y="307.584"/>
      </g>
     </g>
     <g id="text_3">
      <!-- $\mathdefault{50000}$ -->
      <g transform="translate(142.543026 321.502498)scale(0.1 -0.1)">
       <use transform="scale(0.996264)" xlink:href="#CMR17-53"/>
       <use transform="translate(45.690477 0)scale(0.996264)" xlink:href="#CMR17-48"/>
       <use transform="translate(91.380954 0)scale(0.996264)" xlink:href="#CMR17-48"/>
       <use transform="translate(137.071431 0)scale(0.996264)" xlink:href="#CMR17-48"/>
       <use transform="translate(182.761908 0)scale(0.996264)" xlink:href="#CMR17-48"/>
      </g>
     </g>
    </g>
    <g id="xtick_4">
     <g id="line2d_4">
      <g>
       <use style="stroke:#000000;stroke-width:0.8;" x="195.578182" xlink:href="#m0222fb7ed9" y="307.584"/>
      </g>
     </g>
     <g id="text_4">
      <!-- $\mathdefault{75000}$ -->
      <g transform="translate(183.124844 321.502498)scale(0.1 -0.1)">
       <defs>
        <path d="M 45.09375 61.578125 
L 45.09375 63.765625 
L 21.59375 63.765625 
C 9.90625 63.765625 9.703125 65.078125 9.296875 67 
L 7.5 67 
L 4.59375 48.34375 
L 6.40625 48.34375 
C 6.703125 50.234375 7.40625 55.3125 8.59375 57.203125 
C 9.203125 58 16.59375 58 18.296875 58 
L 40.296875 58 
L 29.203125 41.578125 
C 21.796875 30.53125 16.703125 15.609375 16.703125 2.578125 
C 16.703125 1.390625 16.703125 -2 20.296875 -2 
C 23.90625 -2 23.90625 1.390625 23.90625 2.671875 
L 23.90625 7.265625 
C 23.90625 23.5625 26.703125 34.3125 31.296875 41.1875 
z
" id="CMR17-55"/>
       </defs>
       <use transform="scale(0.996264)" xlink:href="#CMR17-55"/>
       <use transform="translate(45.690477 0)scale(0.996264)" xlink:href="#CMR17-53"/>
       <use transform="translate(91.380954 0)scale(0.996264)" xlink:href="#CMR17-48"/>
       <use transform="translate(137.071431 0)scale(0.996264)" xlink:href="#CMR17-48"/>
       <use transform="translate(182.761908 0)scale(0.996264)" xlink:href="#CMR17-48"/>
      </g>
     </g>
    </g>
    <g id="xtick_5">
     <g id="line2d_5">
      <g>
       <use style="stroke:#000000;stroke-width:0.8;" x="236.16" xlink:href="#m0222fb7ed9" y="307.584"/>
      </g>
     </g>
     <g id="text_5">
      <!-- $\mathdefault{100000}$ -->
      <g transform="translate(221.215994 321.502498)scale(0.1 -0.1)">
       <defs>
        <path d="M 26.59375 63.40625 
C 26.59375 65.5 26.5 65.5 25.09375 65.5 
C 21.203125 61.1875 15.296875 59.796875 9.703125 59.796875 
C 9.40625 59.796875 8.90625 59.796875 8.796875 59.5 
C 8.703125 59.296875 8.703125 59.09375 8.703125 57 
C 11.796875 57 17 57.59375 21 59.984375 
L 21 7.203125 
C 21 3.6875 20.796875 2.5 12.203125 2.5 
L 9.203125 2.5 
L 9.203125 0 
C 14 0 19 0 23.796875 0 
C 28.59375 0 33.59375 0 38.40625 0 
L 38.40625 2.5 
L 35.40625 2.5 
C 26.796875 2.5 26.59375 3.59375 26.59375 7.15625 
z
" id="CMR17-49"/>
       </defs>
       <use transform="scale(0.996264)" xlink:href="#CMR17-49"/>
       <use transform="translate(45.690477 0)scale(0.996264)" xlink:href="#CMR17-48"/>
       <use transform="translate(91.380954 0)scale(0.996264)" xlink:href="#CMR17-48"/>
       <use transform="translate(137.071431 0)scale(0.996264)" xlink:href="#CMR17-48"/>
       <use transform="translate(182.761908 0)scale(0.996264)" xlink:href="#CMR17-48"/>
       <use transform="translate(228.452386 0)scale(0.996264)" xlink:href="#CMR17-48"/>
      </g>
     </g>
    </g>
    <g id="xtick_6">
     <g id="line2d_6">
      <g>
       <use style="stroke:#000000;stroke-width:0.8;" x="276.741818" xlink:href="#m0222fb7ed9" y="307.584"/>
      </g>
     </g>
     <g id="text_6">
      <!-- $\mathdefault{125000}$ -->
      <g transform="translate(261.797812 321.502498)scale(0.1 -0.1)">
       <use transform="scale(0.996264)" xlink:href="#CMR17-49"/>
       <use transform="translate(45.690477 0)scale(0.996264)" xlink:href="#CMR17-50"/>
       <use transform="translate(91.380954 0)scale(0.996264)" xlink:href="#CMR17-53"/>
       <use transform="translate(137.071431 0)scale(0.996264)" xlink:href="#CMR17-48"/>
       <use transform="translate(182.761908 0)scale(0.996264)" xlink:href="#CMR17-48"/>
       <use transform="translate(228.452386 0)scale(0.996264)" xlink:href="#CMR17-48"/>
      </g>
     </g>
    </g>
    <g id="xtick_7">
     <g id="line2d_7">
      <g>
       <use style="stroke:#000000;stroke-width:0.8;" x="317.323636" xlink:href="#m0222fb7ed9" y="307.584"/>
      </g>
     </g>
     <g id="text_7">
      <!-- $\mathdefault{150000}$ -->
      <g transform="translate(302.379631 321.502498)scale(0.1 -0.1)">
       <use transform="scale(0.996264)" xlink:href="#CMR17-49"/>
       <use transform="translate(45.690477 0)scale(0.996264)" xlink:href="#CMR17-53"/>
       <use transform="translate(91.380954 0)scale(0.996264)" xlink:href="#CMR17-48"/>
       <use transform="translate(137.071431 0)scale(0.996264)" xlink:href="#CMR17-48"/>
       <use transform="translate(182.761908 0)scale(0.996264)" xlink:href="#CMR17-48"/>
       <use transform="translate(228.452386 0)scale(0.996264)" xlink:href="#CMR17-48"/>
      </g>
     </g>
    </g>
    <g id="xtick_8">
     <g id="line2d_8">
      <g>
       <use style="stroke:#000000;stroke-width:0.8;" x="357.905455" xlink:href="#m0222fb7ed9" y="307.584"/>
      </g>
     </g>
     <g id="text_8">
      <!-- $\mathdefault{175000}$ -->
      <g transform="translate(342.961449 321.502498)scale(0.1 -0.1)">
       <use transform="scale(0.996264)" xlink:href="#CMR17-49"/>
       <use transform="translate(45.690477 0)scale(0.996264)" xlink:href="#CMR17-55"/>
       <use transform="translate(91.380954 0)scale(0.996264)" xlink:href="#CMR17-53"/>
       <use transform="translate(137.071431 0)scale(0.996264)" xlink:href="#CMR17-48"/>
       <use transform="translate(182.761908 0)scale(0.996264)" xlink:href="#CMR17-48"/>
       <use transform="translate(228.452386 0)scale(0.996264)" xlink:href="#CMR17-48"/>
      </g>
     </g>
    </g>
    <g id="xtick_9">
     <g id="line2d_9">
      <g>
       <use style="stroke:#000000;stroke-width:0.8;" x="398.487273" xlink:href="#m0222fb7ed9" y="307.584"/>
      </g>
     </g>
     <g id="text_9">
      <!-- $\mathdefault{200000}$ -->
      <g transform="translate(383.543267 321.502498)scale(0.1 -0.1)">
       <use transform="scale(0.996264)" xlink:href="#CMR17-50"/>
       <use transform="translate(45.690477 0)scale(0.996264)" xlink:href="#CMR17-48"/>
       <use transform="translate(91.380954 0)scale(0.996264)" xlink:href="#CMR17-48"/>
       <use transform="translate(137.071431 0)scale(0.996264)" xlink:href="#CMR17-48"/>
       <use transform="translate(182.761908 0)scale(0.996264)" xlink:href="#CMR17-48"/>
       <use transform="translate(228.452386 0)scale(0.996264)" xlink:href="#CMR17-48"/>
      </g>
     </g>
    </g>
   </g>
   <g id="matplotlib.axis_2">
    <g id="ytick_1">
     <g id="line2d_10">
      <defs>
       <path d="M 0 0 
L -3.5 0 
" id="mce5833bbd5" style="stroke:#000000;stroke-width:0.8;"/>
      </defs>
      <g>
       <use style="stroke:#000000;stroke-width:0.8;" x="57.6" xlink:href="#mce5833bbd5" y="297.195876"/>
      </g>
     </g>
     <g id="text_10">
      <!-- $\mathdefault{0.00}$ -->
      <g transform="translate(32.888586 300.655125)scale(0.1 -0.1)">
       <defs>
        <path d="M 18.40625 4.796875 
C 18.40625 7.6875 16 9.671875 13.59375 9.671875 
C 10.703125 9.671875 8.703125 7.28125 8.703125 4.890625 
C 8.703125 2 11.09375 0 13.5 0 
C 16.40625 0 18.40625 2.390625 18.40625 4.796875 
z
" id="CMMI12-58"/>
       </defs>
       <use transform="scale(0.996264)" xlink:href="#CMR17-48"/>
       <use transform="translate(45.690477 0)scale(0.996264)" xlink:href="#CMMI12-58"/>
       <use transform="translate(72.787654 0)scale(0.996264)" xlink:href="#CMR17-48"/>
       <use transform="translate(118.478131 0)scale(0.996264)" xlink:href="#CMR17-48"/>
      </g>
     </g>
    </g>
    <g id="ytick_2">
     <g id="line2d_11">
      <g>
       <use style="stroke:#000000;stroke-width:0.8;" x="57.6" xlink:href="#mce5833bbd5" y="261.211736"/>
      </g>
     </g>
     <g id="text_11">
      <!-- $\mathdefault{0.02}$ -->
      <g transform="translate(32.888586 264.670985)scale(0.1 -0.1)">
       <use transform="scale(0.996264)" xlink:href="#CMR17-48"/>
       <use transform="translate(45.690477 0)scale(0.996264)" xlink:href="#CMMI12-58"/>
       <use transform="translate(72.787654 0)scale(0.996264)" xlink:href="#CMR17-48"/>
       <use transform="translate(118.478131 0)scale(0.996264)" xlink:href="#CMR17-50"/>
      </g>
     </g>
    </g>
    <g id="ytick_3">
     <g id="line2d_12">
      <g>
       <use style="stroke:#000000;stroke-width:0.8;" x="57.6" xlink:href="#mce5833bbd5" y="225.227596"/>
      </g>
     </g>
     <g id="text_12">
      <!-- $\mathdefault{0.04}$ -->
      <g transform="translate(32.888586 228.686845)scale(0.1 -0.1)">
       <defs>
        <path d="M 33.59375 64.40625 
C 33.59375 66.5 33.5 66.5 31.703125 66.5 
L 2 19.59375 
L 2 17 
L 27.796875 17 
L 27.796875 7.140625 
C 27.796875 3.5 27.59375 2.5 20.59375 2.5 
L 18.703125 2.5 
L 18.703125 0 
C 21.90625 0 27.296875 0 30.703125 0 
C 34.09375 0 39.5 0 42.703125 0 
L 42.703125 2.5 
L 40.796875 2.5 
C 33.796875 2.5 33.59375 3.5 33.59375 7.140625 
L 33.59375 17 
L 43.796875 17 
L 43.796875 19.59375 
L 33.59375 19.59375 
z
M 28.09375 57.859375 
L 28.09375 19.59375 
L 4 19.59375 
z
" id="CMR17-52"/>
       </defs>
       <use transform="scale(0.996264)" xlink:href="#CMR17-48"/>
       <use transform="translate(45.690477 0)scale(0.996264)" xlink:href="#CMMI12-58"/>
       <use transform="translate(72.787654 0)scale(0.996264)" xlink:href="#CMR17-48"/>
       <use transform="translate(118.478131 0)scale(0.996264)" xlink:href="#CMR17-52"/>
      </g>
     </g>
    </g>
    <g id="ytick_4">
     <g id="line2d_13">
      <g>
       <use style="stroke:#000000;stroke-width:0.8;" x="57.6" xlink:href="#mce5833bbd5" y="189.243456"/>
      </g>
     </g>
     <g id="text_13">
      <!-- $\mathdefault{0.06}$ -->
      <g transform="translate(32.888586 192.702705)scale(0.1 -0.1)">
       <defs>
        <path d="M 10.59375 34 
C 10.59375 57.65625 21.796875 63 28.296875 63 
C 30.40625 63 35.5 62.640625 37.5 59 
C 35.90625 59 32.90625 59 32.90625 55.515625 
C 32.90625 52.828125 35.09375 51.921875 36.5 51.921875 
C 37.40625 51.921875 40.09375 52.3125 40.09375 55.625 
C 40.09375 61.78125 35.09375 65.296875 28.203125 65.296875 
C 16.296875 65.296875 3.796875 52.96875 3.796875 31 
C 3.796875 3.953125 15.09375 -2 23.09375 -2 
C 32.796875 -2 42 6.671875 42 20.046875 
C 42 32.515625 33.90625 41.59375 23.703125 41.59375 
C 17.59375 41.59375 13.09375 37.609375 10.59375 30.625 
z
M 23.09375 0.390625 
C 10.796875 0.390625 10.796875 18.75 10.796875 22.4375 
C 10.796875 29.625 14.203125 40 23.5 40 
C 25.203125 40 30.09375 40 33.40625 33.125 
C 35.203125 29.21875 35.203125 25.140625 35.203125 20.140625 
C 35.203125 14.75 35.203125 10.78125 33.09375 6.78125 
C 30.90625 2.671875 27.703125 0.390625 23.09375 0.390625 
z
" id="CMR17-54"/>
       </defs>
       <use transform="scale(0.996264)" xlink:href="#CMR17-48"/>
       <use transform="translate(45.690477 0)scale(0.996264)" xlink:href="#CMMI12-58"/>
       <use transform="translate(72.787654 0)scale(0.996264)" xlink:href="#CMR17-48"/>
       <use transform="translate(118.478131 0)scale(0.996264)" xlink:href="#CMR17-54"/>
      </g>
     </g>
    </g>
    <g id="ytick_5">
     <g id="line2d_14">
      <g>
       <use style="stroke:#000000;stroke-width:0.8;" x="57.6" xlink:href="#mce5833bbd5" y="153.259316"/>
      </g>
     </g>
     <g id="text_14">
      <!-- $\mathdefault{0.08}$ -->
      <g transform="translate(32.888586 156.718565)scale(0.1 -0.1)">
       <defs>
        <path d="M 27.203125 35.375 
C 33.5 38.546875 39.90625 43.328125 39.90625 50.984375 
C 39.90625 60.015625 31.09375 65.296875 23 65.296875 
C 13.90625 65.296875 5.90625 58.734375 5.90625 49.6875 
C 5.90625 47.203125 6.5 42.921875 10.40625 39.140625 
C 11.40625 38.15625 15.59375 35.171875 18.296875 33.28125 
C 13.796875 30.984375 3.296875 25.53125 3.296875 14.59375 
C 3.296875 4.359375 13.09375 -2 22.796875 -2 
C 33.5 -2 42.5 5.65625 42.5 15.78125 
C 42.5 24.84375 36.40625 29.015625 32.40625 31.703125 
z
M 14.09375 44.09375 
C 13.296875 44.59375 9.296875 47.671875 9.296875 52.359375 
C 9.296875 58.421875 15.59375 63 22.796875 63 
C 30.703125 63 36.5 57.4375 36.5 50.96875 
C 36.5 41.703125 26.09375 36.421875 25.59375 36.421875 
C 25.5 36.421875 25.40625 36.421875 24.59375 37.03125 
z
M 32.5 23.734375 
C 34 22.640625 38.796875 19.375 38.796875 13.296875 
C 38.796875 5.953125 31.40625 0.390625 23 0.390625 
C 13.90625 0.390625 7 6.84375 7 14.6875 
C 7 22.546875 13.09375 29.09375 20 32.1875 
z
" id="CMR17-56"/>
       </defs>
       <use transform="scale(0.996264)" xlink:href="#CMR17-48"/>
       <use transform="translate(45.690477 0)scale(0.996264)" xlink:href="#CMMI12-58"/>
       <use transform="translate(72.787654 0)scale(0.996264)" xlink:href="#CMR17-48"/>
       <use transform="translate(118.478131 0)scale(0.996264)" xlink:href="#CMR17-56"/>
      </g>
     </g>
    </g>
    <g id="ytick_6">
     <g id="line2d_15">
      <g>
       <use style="stroke:#000000;stroke-width:0.8;" x="57.6" xlink:href="#mce5833bbd5" y="117.275176"/>
      </g>
     </g>
     <g id="text_15">
      <!-- $\mathdefault{0.10}$ -->
      <g transform="translate(32.888586 120.734425)scale(0.1 -0.1)">
       <use transform="scale(0.996264)" xlink:href="#CMR17-48"/>
       <use transform="translate(45.690477 0)scale(0.996264)" xlink:href="#CMMI12-58"/>
       <use transform="translate(72.787654 0)scale(0.996264)" xlink:href="#CMR17-49"/>
       <use transform="translate(118.478131 0)scale(0.996264)" xlink:href="#CMR17-48"/>
      </g>
     </g>
    </g>
    <g id="ytick_7">
     <g id="line2d_16">
      <g>
       <use style="stroke:#000000;stroke-width:0.8;" x="57.6" xlink:href="#mce5833bbd5" y="81.291036"/>
      </g>
     </g>
     <g id="text_16">
      <!-- $\mathdefault{0.12}$ -->
      <g transform="translate(32.888586 84.750285)scale(0.1 -0.1)">
       <use transform="scale(0.996264)" xlink:href="#CMR17-48"/>
       <use transform="translate(45.690477 0)scale(0.996264)" xlink:href="#CMMI12-58"/>
       <use transform="translate(72.787654 0)scale(0.996264)" xlink:href="#CMR17-49"/>
       <use transform="translate(118.478131 0)scale(0.996264)" xlink:href="#CMR17-50"/>
      </g>
     </g>
    </g>
    <g id="ytick_8">
     <g id="line2d_17">
      <g>
       <use style="stroke:#000000;stroke-width:0.8;" x="57.6" xlink:href="#mce5833bbd5" y="45.306896"/>
      </g>
     </g>
     <g id="text_17">
      <!-- $\mathdefault{0.14}$ -->
      <g transform="translate(32.888586 48.766145)scale(0.1 -0.1)">
       <use transform="scale(0.996264)" xlink:href="#CMR17-48"/>
       <use transform="translate(45.690477 0)scale(0.996264)" xlink:href="#CMMI12-58"/>
       <use transform="translate(72.787654 0)scale(0.996264)" xlink:href="#CMR17-49"/>
       <use transform="translate(118.478131 0)scale(0.996264)" xlink:href="#CMR17-52"/>
      </g>
     </g>
    </g>
   </g>
   <g id="line2d_18">
    <path clip-path="url(#p1acbe632fc)" d="M 73.832727 117.275176 
L 74.21582 117.350397 
L 74.233676 119.963275 
L 74.283997 167.047374 
L 74.340812 118.887547 
L 74.373277 114.688617 
L 74.431715 123.195541 
L 74.504762 136.327676 
L 74.540474 123.812672 
L 74.569693 117.223172 
L 74.65735 120.1474 
L 74.710918 121.843773 
L 74.74176 118.880349 
L 74.855389 116.083977 
L 74.805068 120.869342 
L 74.868375 116.805639 
L 74.938176 123.531633 
L 74.996614 120.371565 
L 75.033949 119.016317 
L 75.105373 120.54734 
L 75.147578 121.021833 
L 75.228742 120.739353 
L 75.233612 120.661579 
L 75.309905 121.565853 
L 75.321268 121.479499 
L 75.368343 121.624677 
L 75.415418 120.967494 
L 75.417041 120.9694 
L 75.467363 120.052571 
L 75.529047 120.810438 
L 75.610211 122.51903 
L 75.676765 121.852371 
L 75.766045 122.189567 
L 75.692998 121.796948 
L 75.767668 122.175137 
L 75.821236 122.432405 
L 75.879674 122.234094 
L 75.952721 121.851896 
L 75.98681 122.243745 
L 75.988433 122.236948 
L 76.077713 124.003428 
L 76.128035 123.546372 
L 76.1605 123.390497 
L 76.26926 124.036868 
L 76.270883 124.006428 
L 76.373149 124.114862 
L 76.374772 124.086653 
L 76.580928 126.411797 
L 76.602031 126.38475 
L 76.668585 126.748598 
L 76.670208 126.739302 
L 76.856884 128.855706 
L 76.858508 128.84969 
L 76.882857 129.148117 
L 76.88448 129.146845 
L 77.24647 135.849148 
L 77.355229 138.18038 
L 78.788579 185.954076 
L 79.37458 213.136331 
L 80.585542 282.733214 
L 80.816047 295.488 
L 80.864745 293.709345 
L 83.085382 174.975541 
L 83.697356 155.056988 
L 84.418089 139.285909 
L 85.000844 131.782104 
L 85.434257 128.775214 
L 85.794624 127.877769 
L 86.018636 127.992275 
L 86.362769 129.110446 
L 86.753978 131.780599 
L 87.177652 136.319365 
L 87.813975 146.091587 
L 89.005457 170.752785 
L 90.844625 212.174584 
L 91.760151 226.929141 
L 92.438679 232.916864 
L 92.95488 234.560122 
L 93.122077 234.602779 
L 93.201617 234.553423 
L 93.214604 234.54023 
L 93.795735 232.82004 
L 94.789178 226.198687 
L 96.716003 209.261751 
L 97.784116 202.487084 
L 98.512966 200.159049 
L 98.777559 199.783141 
L 99.371677 199.754864 
L 100.184937 201.187737 
L 100.443037 201.903494 
L 104.239872 215.414744 
L 105.18137 216.707416 
L 106.061184 216.580543 
L 107.716922 214.291747 
L 108.322403 213.236843 
L 108.768803 212.473366 
L 109.296367 211.623414 
L 109.888861 210.792211 
L 110.306042 210.316127 
L 111.656605 209.595905 
L 113.208454 210.189012 
L 113.784716 210.615565 
L 114.162938 210.912029 
L 114.690502 211.326403 
L 115.127162 211.654861 
L 115.617391 211.997149 
L 116.086516 212.2876 
L 116.640052 212.566793 
L 117.057233 212.723086 
L 119.105804 212.719709 
L 119.789201 212.507881 
L 120.2843 212.333183 
L 120.883287 212.120188 
L 121.488768 211.920732 
L 122.06503 211.753819 
L 122.800372 211.584765 
L 123.360401 211.495179 
L 124.543767 211.440216 
L 125.121652 211.477631 
L 125.740119 211.552328 
L 126.602077 211.688095 
L 127.418583 211.817552 
L 128.196131 211.923188 
L 129.259375 212.025744 
L 130.062895 212.066572 
L 131.60338 212.046606 
L 132.552995 211.986154 
L 133.703895 211.902366 
L 135.163217 211.825279 
L 136.330351 211.797231 
L 138.292887 211.815597 
L 139.791168 211.864679 
L 141.368989 211.905443 
L 143.062063 211.910866 
L 145.264844 211.911102 
L 147.532556 211.836436 
L 148.517882 211.891801 
L 149.3701 211.937336 
L 150.774231 211.767923 
L 151.282316 211.813588 
L 151.645929 211.579245 
L 152.196218 211.204635 
L 152.412113 211.34642 
L 152.676707 211.838668 
L 153.225373 212.868334 
L 153.358481 212.763496 
L 153.533795 212.269424 
L 153.8341 210.628805 
L 154.293487 208.393961 
L 154.381143 208.363888 
L 154.418479 208.408692 
L 154.546717 208.836548 
L 154.773975 210.550057 
L 155.285306 214.482951 
L 155.291799 214.480821 
L 155.359977 214.3176 
L 155.489839 213.243356 
L 155.712227 209.150883 
L 156.34855 196.45858 
L 156.358289 196.463421 
L 156.413481 196.695506 
L 156.530356 198.421769 
L 156.725149 205.263459 
L 157.143953 230.485595 
L 157.346863 236.770986 
L 157.367965 236.691573 
L 157.436143 235.283751 
L 157.582237 226.574379 
L 157.929617 188.483286 
L 158.291607 159.322109 
L 158.343552 158.718413 
L 158.39712 159.388842 
L 158.512372 165.046951 
L 158.825664 195.017331 
L 159.164928 245.840429 
L 159.38894 286.376509 
L 159.447377 278.735882 
L 159.82073 175.526006 
L 160.125905 120.84035 
L 160.591785 108.169065 
L 160.616134 108.304351 
L 160.687558 110.325161 
L 160.823913 121.969696 
L 161.06578 166.184663 
L 161.367709 217.146598 
L 161.400175 216.088507 
L 161.487831 202.725103 
L 162.051107 98.678582 
L 162.469911 72.886491 
L 162.500753 73.178242 
L 162.578671 76.851065 
L 162.724765 96.607237 
L 163.169542 191.463873 
L 163.266938 179.857192 
L 163.786385 87.044957 
L 164.258758 56.614091 
L 164.309079 57.507537 
L 164.408099 65.256998 
L 164.583412 100.443004 
L 164.899951 175.381335 
L 164.955142 171.03694 
L 165.10286 131.059232 
L 165.36583 82.95482 
L 165.90151 54.364306 
L 165.955078 53.568 
L 166.007023 54.513323 
L 166.102796 62.313654 
L 166.266746 98.016359 
L 166.547572 171.606374 
L 166.604387 166.531653 
L 166.771584 117.717714 
L 167.018321 75.726588 
L 167.300771 64.840015 
L 167.586467 56.443482 
L 167.653021 57.874419 
L 167.753664 67.906239 
L 167.915991 112.049638 
L 168.141626 175.754265 
L 168.187078 171.811655 
L 168.323433 130.364653 
L 168.599389 70.204568 
L 168.795805 65.210835 
L 168.907811 64.864029 
L 168.950016 64.8851 
L 169.102604 65.098001 
L 169.175651 66.514043 
L 169.274671 74.004361 
L 169.412649 105.821004 
L 169.683735 195.627743 
L 169.753536 185.288196 
L 170.292463 66.595261 
L 170.318435 66.547596 
L 170.372003 66.723137 
L 170.547316 68.416987 
L 170.673932 71.421198 
L 170.784314 81.381503 
L 170.928785 120.467134 
L 171.185263 213.911588 
L 171.250193 203.149623 
L 171.797236 68.966595 
L 171.805353 68.965883 
L 171.832948 69.088077 
L 171.944954 70.779493 
L 172.125137 76.778063 
L 172.253376 90.795478 
L 172.415703 139.868608 
L 172.652701 230.55311 
L 172.714385 219.636789 
L 173.263052 75.838576 
L 173.308503 75.56079 
L 173.368564 75.909605 
L 173.503296 78.438439 
L 173.625041 85.55203 
L 173.759773 110.322785 
L 173.988655 206.426194 
L 174.097414 237.725412 
L 174.147735 229.402131 
L 174.746723 80.255021 
L 174.748346 80.255359 
L 174.779188 80.402908 
L 174.878208 82.259415 
L 175.019433 89.463976 
L 175.159034 110.691015 
L 175.358697 184.44388 
L 175.527517 244.592798 
L 175.577839 236.325935 
L 176.183319 85.617446 
L 176.214161 85.496041 
L 176.267729 85.832866 
L 176.373242 88.467323 
L 176.498234 98.247137 
L 176.647575 131.743954 
L 176.949504 246.325436 
L 177.037161 224.617789 
L 177.470575 93.110086 
L 177.616669 87.868159 
L 177.641018 87.956843 
L 177.722182 89.337611 
L 177.853667 95.882466 
L 177.994892 116.400785 
L 178.192931 185.901319 
L 178.371491 249.229335 
L 178.423436 240.511965 
L 179.019177 90.904684 
L 179.071121 90.521681 
L 179.127936 90.921388 
L 179.230202 93.955562 
L 179.356817 105.75671 
L 179.517521 146.657761 
L 179.790231 249.128325 
L 179.864902 232.559255 
L 180.340521 94.493249 
L 180.465513 90.971363 
L 180.501225 91.168427 
L 180.596998 93.36951 
L 180.730106 102.33408 
L 180.881071 131.090124 
L 181.212218 250.584998 
L 181.312861 223.682854 
L 181.721926 100.257163 
L 181.906979 92.283497 
L 181.916719 92.276211 
L 181.949184 92.427703 
L 182.035217 94.194253 
L 182.15534 102.106918 
L 182.301434 129.995556 
L 182.630959 249.890295 
L 182.733225 222.160342 
L 183.13742 99.418085 
L 183.307863 91.925474 
L 183.317603 91.939397 
L 183.369548 92.468661 
L 183.483177 96.308952 
L 183.619532 109.721495 
L 183.788352 153.75006 
L 184.051322 250.912149 
L 184.121123 236.571493 
L 184.624337 95.866422 
L 184.757446 92.737063 
L 184.788288 92.866776 
L 184.871075 94.482725 
L 184.991197 102.061531 
L 185.135668 128.611105 
L 185.384029 228.153 
L 185.471686 250.057842 
L 185.525254 240.657873 
L 186.104762 92.521281 
L 186.150214 92.16296 
L 186.207028 92.639494 
L 186.319034 96.257701 
L 186.455389 109.162834 
L 186.622586 151.524188 
L 186.892049 250.977542 
L 186.965097 235.529889 
L 187.456948 96.47769 
L 187.598173 92.838419 
L 187.624145 92.927053 
L 187.700439 94.221704 
L 187.817315 100.70498 
L 187.95854 123.944617 
L 188.176058 206.558869 
L 188.312413 250.083037 
L 188.362735 241.735748 
L 188.966592 92.297567 
L 188.990941 92.200104 
L 189.041263 92.574365 
L 189.148399 95.721196 
L 189.28313 107.288285 
L 189.443834 144.707711 
L 189.7344 250.983561 
L 189.81394 232.597775 
L 190.278196 97.86772 
L 190.4389 92.851683 
L 190.45351 92.87953 
L 190.513571 93.571944 
L 190.62233 97.903283 
L 190.753815 113.868267 
L 190.933999 169.610109 
L 191.15314 250.085462 
L 191.209955 239.785285 
L 191.771607 92.873083 
L 191.831668 92.203914 
L 191.890106 92.698227 
L 192.002112 96.359102 
L 192.138467 109.381414 
L 192.305664 151.979552 
L 192.575127 250.984252 
L 192.646551 235.697063 
L 193.140026 96.419249 
L 193.279628 92.852296 
L 193.307223 92.949175 
L 193.38514 94.316724 
L 193.502016 100.977424 
L 193.643241 124.661575 
L 193.865629 210.062968 
L 193.993868 250.085504 
L 194.044189 241.874337 
L 194.651293 92.280843 
L 194.672396 92.204886 
L 194.721094 92.549216 
L 194.826607 95.552509 
L 194.961338 106.786986 
L 195.122042 143.475502 
L 195.415855 250.984755 
L 195.498641 231.534005 
L 195.953158 98.42961 
L 196.120355 92.852364 
L 196.130095 92.863538 
L 196.178793 93.284304 
L 196.279436 96.444416 
L 196.407674 108.986909 
L 196.573248 152.705856 
L 196.834595 250.084753 
L 196.904396 235.498089 
L 197.40274 94.850492 
L 197.513123 92.204261 
L 197.555328 92.462218 
L 197.654348 94.98299 
L 197.787456 104.896769 
L 197.94329 137.205114 
L 198.256582 250.984725 
L 198.349108 227.800956 
L 198.779276 99.761738 
L 198.961082 92.852117 
L 198.990301 92.95716 
L 199.069841 94.398875 
L 199.18834 101.397305 
L 199.331188 126.222046 
L 199.561693 216.454826 
L 199.675322 250.084015 
L 199.727267 241.527671 
L 200.326255 92.340208 
L 200.355473 92.204254 
L 200.407418 92.611467 
L 200.516177 95.912558 
L 200.650909 107.842667 
L 200.813236 146.594078 
L 201.097309 250.98453 
L 201.175226 233.563043 
L 201.647599 97.450153 
L 201.803433 92.852043 
L 201.821289 92.896659 
L 201.887843 93.792612 
L 201.999849 98.867912 
L 202.13458 117.285208 
L 202.326127 181.773726 
L 202.516049 250.082965 
L 202.569617 241.104319 
L 203.158865 92.437585 
L 203.196201 92.204244 
L 203.251392 92.657518 
L 203.361775 96.142921 
L 203.498129 108.750711 
L 203.663703 149.902822 
L 203.938036 250.983992 
L 204.012707 234.855448 
L 204.496442 96.897445 
L 204.64416 92.852006 
L 204.666886 92.921595 
L 204.739933 94.06473 
L 204.855185 100.01992 
L 204.993164 121.24049 
L 205.199319 196.269033 
L 205.3584 250.083386 
L 205.408721 241.669299 
L 206.010956 92.313989 
L 206.036928 92.204148 
L 206.088873 92.60452 
L 206.197632 95.889703 
L 206.332364 107.776014 
L 206.494691 146.433314 
L 206.778764 250.983046 
L 206.858304 233.129352 
L 207.325807 97.727547 
L 207.484887 92.851977 
L 207.499497 92.880591 
L 207.559558 93.57638 
L 207.668317 97.918362 
L 207.799802 113.910547 
L 207.979985 169.699587 
L 208.199127 250.08429 
L 208.255942 239.715319 
L 208.815971 92.907621 
L 208.877655 92.204122 
L 208.93447 92.675715 
L 209.046476 96.285346 
L 209.182831 109.166565 
L 209.350028 151.471638 
L 209.621114 250.982863 
L 209.692538 235.619477 
L 210.18439 96.506502 
L 210.325615 92.851974 
L 210.351587 92.939143 
L 210.427881 94.22881 
L 210.544756 100.695681 
L 210.685981 123.893617 
L 210.9035 206.454264 
L 211.039855 250.084795 
L 211.090176 241.810063 
L 211.695657 92.290751 
L 211.718383 92.204117 
L 211.768704 92.5742 
L 211.87584 95.712221 
L 212.010572 107.257239 
L 212.171276 144.626554 
L 212.461841 250.983861 
L 212.541382 232.693007 
L 213.005638 97.88867 
L 213.166342 92.851984 
L 213.180951 92.878812 
L 213.239389 93.535841 
L 213.348148 97.781091 
L 213.479633 113.512668 
L 213.658193 168.151531 
L 213.880582 250.084897 
L 213.93902 239.339952 
L 214.492556 93.047999 
L 214.55911 92.204119 
L 214.615924 92.668245 
L 214.726307 96.177653 
L 214.862662 108.852308 
L 215.028236 150.14494 
L 215.302569 250.984465 
L 215.375616 235.199746 
L 215.862598 96.744561 
L 216.007069 92.852008 
L 216.031418 92.925727 
L 216.104465 94.082737 
L 216.219718 100.078474 
L 216.357696 121.402219 
L 216.565475 197.322147 
L 216.721309 250.084605 
L 216.771631 241.949943 
L 217.380358 92.270395 
L 217.40146 92.204335 
L 217.448535 92.545017 
L 217.554048 95.54036 
L 217.68878 106.752118 
L 217.849484 143.390162 
L 218.143296 250.984675 
L 218.226083 231.632173 
L 218.682223 98.315889 
L 218.847796 92.852048 
L 218.859159 92.866741 
L 218.911104 93.355899 
L 219.014993 96.869167 
L 219.143232 110.259262 
L 219.312052 156.913128 
L 219.562036 250.083914 
L 219.628591 236.743918 
L 220.143168 94.200236 
L 220.240564 92.204187 
L 220.289263 92.541813 
L 220.394775 95.52968 
L 220.529507 106.720635 
L 220.690211 143.312579 
L 220.984023 250.984491 
L 221.06681 231.722493 
L 221.52295 98.335231 
L 221.690147 92.852026 
L 221.699887 92.866097 
L 221.751831 93.352098 
L 221.855721 96.855981 
L 221.983959 110.220169 
L 222.15278 156.822635 
L 222.402764 250.082825 
L 222.469318 236.826293 
L 222.983895 94.211213 
L 223.082915 92.204194 
L 223.12999 92.538623 
L 223.235503 95.519022 
L 223.370234 106.689206 
L 223.529315 142.701488 
L 223.824751 250.983913 
L 223.909161 231.187439 
L 224.362054 98.489829 
L 224.530874 92.851994 
L 224.540614 92.865468 
L 224.592559 93.348313 
L 224.696448 96.842826 
L 224.824687 110.181142 
L 224.993507 156.732204 
L 225.245114 250.083489 
L 225.310045 236.908514 
L 225.826246 94.146895 
L 225.923642 92.20415 
L 225.97234 92.557679 
L 226.077853 95.582313 
L 226.212585 106.875679 
L 226.373289 143.694056 
L 226.665478 250.982941 
L 226.748265 231.902836 
L 227.206028 98.240734 
L 227.371601 92.851977 
L 227.382964 92.869394 
L 227.436532 93.397976 
L 227.542045 97.107958 
L 227.671907 111.242904 
L 227.843974 160.439515 
L 228.085841 250.084353 
L 228.149149 237.553155 
L 228.673466 93.872846 
L 228.764369 92.204123 
L 228.814691 92.577237 
L 228.921827 95.722259 
L 229.056559 107.286661 
L 229.217263 144.698088 
L 229.507828 250.982971 
L 229.587369 232.611969 
L 230.051625 97.872078 
L 230.212329 92.851974 
L 230.226938 92.879613 
L 230.286999 93.571345 
L 230.395759 97.901397 
L 230.527244 113.861499 
L 230.707427 169.592324 
L 230.926569 250.084819 
L 230.983383 239.798186 
L 231.545036 92.874066 
L 231.605097 92.204113 
L 231.663535 92.697781 
L 231.77554 96.35671 
L 231.911895 109.374236 
L 232.079092 151.963693 
L 232.348556 250.983933 
L 232.41998 235.712402 
L 232.913455 96.421467 
L 233.053056 92.851985 
L 233.080652 92.948501 
L 233.158569 94.314832 
L 233.275444 100.97249 
L 233.416669 124.650016 
L 233.639057 210.0429 
L 233.767296 250.084888 
L 233.817617 241.88652 
L 234.424721 92.280371 
L 234.445824 92.204122 
L 234.494522 92.54794 
L 234.600035 95.550081 
L 234.734767 106.780762 
L 234.895471 143.460697 
L 235.189283 250.984501 
L 235.27207 231.550044 
L 235.726586 98.432636 
L 235.893783 92.852012 
L 235.903523 92.863092 
L 235.952221 93.28339 
L 236.052864 96.441963 
L 236.181103 108.979799 
L 236.346676 152.689543 
L 236.608023 250.084558 
L 236.677824 235.513467 
L 237.176169 94.852793 
L 237.286551 92.204148 
L 237.328756 92.461549 
L 237.427776 94.981042 
L 237.560884 104.89146 
L 237.716719 137.191916 
L 238.03001 250.984675 
L 238.122537 227.818126 
L 238.552704 99.765877 
L 238.734511 92.852053 
L 238.763729 92.956766 
L 238.84327 94.397502 
L 238.961769 101.393091 
L 239.104617 126.210677 
L 239.335121 216.435446 
L 239.448751 250.08383 
L 239.500695 241.540689 
L 240.099683 92.340636 
L 240.128902 92.20425 
L 240.180847 92.610844 
L 240.289606 95.91045 
L 240.424337 107.836489 
L 240.586665 146.579295 
L 240.870737 250.984455 
L 240.948655 233.579209 
L 241.421027 97.453284 
L 241.576861 92.852023 
L 241.594717 92.896437 
L 241.661271 93.791606 
L 241.773277 98.864631 
L 241.908009 117.276007 
L 242.099555 181.754728 
L 242.289478 250.082705 
L 242.343046 241.117534 
L 242.932294 92.438116 
L 242.969629 92.204189 
L 243.02482 92.656806 
L 243.135203 96.140725 
L 243.271558 108.744316 
L 243.437132 149.887558 
L 243.711465 250.983841 
L 243.786135 234.871241 
L 244.269871 96.900316 
L 244.417588 92.851992 
L 244.440314 92.921331 
L 244.513361 94.063599 
L 244.628614 100.016241 
L 244.766592 121.23031 
L 244.972748 196.24939 
L 245.131828 250.083585 
L 245.18215 241.682237 
L 245.784384 92.314381 
L 245.810356 92.204146 
L 245.862301 92.603885 
L 245.97106 95.887609 
L 246.105792 107.769926 
L 246.268119 146.418608 
L 246.552192 250.982833 
L 246.631732 233.145598 
L 247.099235 97.730832 
L 247.258316 92.851976 
L 247.272925 92.880426 
L 247.332986 93.575534 
L 247.441745 97.915513 
L 247.573231 113.90231 
L 247.753414 169.681572 
L 247.972556 250.084412 
L 248.02937 239.729248 
L 248.589399 92.908694 
L 248.651084 92.204121 
L 248.707898 92.675032 
L 248.819904 96.283112 
L 248.956259 109.16005 
L 249.123456 151.456171 
L 249.394543 250.983076 
L 249.465967 235.635089 
L 249.957818 96.509202 
L 250.099043 92.851974 
L 250.125015 92.938855 
L 250.201309 94.227592 
L 250.318185 100.691744 
L 250.459409 123.882811 
L 250.676928 206.434565 
L 250.813283 250.084842 
L 250.863604 241.822915 
L 251.469085 92.291086 
L 251.491811 92.204114 
L 251.542132 92.573585 
L 251.649268 95.710197 
L 251.784 107.251309 
L 251.944704 144.612127 
L 252.23527 250.984001 
L 252.31481 232.709344 
L 252.779066 97.892021 
L 252.93977 92.851987 
L 252.95438 92.878652 
L 253.012817 93.53502 
L 253.121577 97.778296 
L 253.253062 113.504541 
L 253.431622 168.133672 
L 253.65401 250.084874 
L 253.712448 239.354049 
L 254.265984 93.049193 
L 254.332538 92.204123 
L 254.389353 92.667564 
L 254.499735 96.175457 
L 254.63609 108.845891 
L 254.801664 150.129667 
L 255.075997 250.984533 
L 255.149044 235.215473 
L 255.637649 96.64211 
L 255.780497 92.852015 
L 255.80647 92.935751 
L 255.88114 94.169221 
L 255.998016 100.502284 
L 256.137617 122.959783 
L 256.351889 203.246375 
L 256.494737 250.084508 
L 256.545059 241.962716 
L 257.155409 92.260081 
L 257.174889 92.20432 
L 257.22034 92.522607 
L 257.32423 95.392811 
L 257.458961 106.31621 
L 257.618042 141.782621 
L 257.916724 250.984671 
L 258.001135 231.022244 
L 258.452404 98.590907 
L 258.622848 92.852064 
L 258.630964 92.862483 
L 258.679663 93.279566 
L 258.780305 96.428648 
L 258.906921 108.686062 
L 259.070871 151.392813 
L 259.335465 250.083744 
L 259.406889 235.018771 
L 259.900364 95.052361 
L 260.013993 92.204196 
L 260.056198 92.458491 
L 260.155217 94.970647 
L 260.288326 104.860601 
L 260.44416 137.113663 
L 260.757452 250.984415 
L 260.849978 227.920582 
L 261.280145 99.790629 
L 261.463575 92.852019 
L 261.494417 92.979766 
L 261.575581 94.540935 
L 261.69408 101.851501 
L 261.838551 127.878817 
L 262.080419 224.171418 
L 262.176192 250.082582 
L 262.22976 241.124153 
L 262.819008 92.438404 
L 262.856343 92.204185 
L 262.911535 92.656469 
L 263.021917 96.139634 
L 263.158272 108.741123 
L 263.323846 149.87994 
L 263.598179 250.983765 
L 263.672849 234.879149 
L 264.156585 96.901762 
L 264.304303 92.85199 
L 264.327028 92.921203 
L 264.400076 94.063034 
L 264.515328 100.014403 
L 264.653306 121.225226 
L 264.859462 196.239566 
L 265.018543 250.083677 
L 265.068864 241.688701 
L 265.671098 92.314573 
L 265.697071 92.204143 
L 265.749015 92.603567 
L 265.857775 95.886565 
L 265.992506 107.766882 
L 266.154833 146.411253 
L 266.438906 250.982721 
L 266.518447 233.153717 
L 266.985949 97.732472 
L 267.14503 92.851975 
L 267.159639 92.880343 
L 267.2197 93.575111 
L 267.32846 97.914088 
L 267.459945 113.898191 
L 267.640128 169.672568 
L 267.85927 250.084468 
L 267.916084 239.736209 
L 268.476113 92.90923 
L 268.537798 92.20412 
L 268.594612 92.674688 
L 268.706618 96.281995 
L 268.842973 109.156795 
L 269.01017 151.448438 
L 269.281257 250.983177 
L 269.352681 235.642893 
L 269.844532 96.510553 
L 269.985757 92.851975 
L 270.011729 92.938711 
L 270.088023 94.226984 
L 270.204899 100.689777 
L 270.346124 123.87741 
L 270.563642 206.424716 
L 270.699997 250.084862 
L 270.750319 241.829339 
L 271.355799 92.291255 
L 271.378525 92.204114 
L 271.428847 92.57328 
L 271.535983 95.709186 
L 271.670714 107.248345 
L 271.831418 144.604916 
L 272.121984 250.984066 
L 272.201524 232.717512 
L 272.66578 97.893697 
L 272.826484 92.851989 
L 272.841094 92.878572 
L 272.899532 93.53461 
L 273.006668 97.672363 
L 273.138153 113.195824 
L 273.316713 167.452818 
L 273.540724 250.084857 
L 273.599162 239.361094 
L 274.152698 93.04979 
L 274.219252 92.204125 
L 274.276067 92.667223 
L 274.386449 96.17436 
L 274.522804 108.842684 
L 274.688378 150.12203 
L 274.962711 250.984562 
L 275.035759 235.223335 
L 275.524364 96.643493 
L 275.667212 92.852018 
L 275.693184 92.935611 
L 275.767855 94.168628 
L 275.88473 100.500354 
L 276.024332 122.95449 
L 276.238604 203.236511 
L 276.381452 250.084454 
L 276.431773 241.9691 
L 277.042124 92.260216 
L 277.061603 92.204312 
L 277.107055 92.522322 
L 277.210944 95.391859 
L 277.345676 106.313391 
L 277.504756 141.775644 
L 277.803439 250.984664 
L 277.887849 231.030584 
L 278.339119 98.592737 
L 278.509562 92.852059 
L 278.517679 92.862432 
L 278.566377 93.279246 
L 278.66702 96.427532 
L 278.793635 108.682721 
L 278.957585 151.384889 
L 279.222179 250.083654 
L 279.293603 235.026601 
L 279.787078 95.053616 
L 279.900707 92.204201 
L 279.942912 92.458235 
L 280.041932 94.969776 
L 280.17504 104.858013 
L 280.330874 137.107099 
L 280.644166 250.984372 
L 280.736692 227.929179 
L 281.16686 99.792709 
L 281.350289 92.852016 
L 281.381132 92.979592 
L 281.462295 94.540248 
L 281.580794 101.849319 
L 281.725265 127.872967 
L 281.967133 224.162173 
L 282.064529 250.082614 
L 282.116474 241.13077 
L 282.705722 92.438692 
L 282.743057 92.20418 
L 282.798249 92.656132 
L 282.908631 96.138543 
L 283.044986 108.737932 
L 283.21056 149.872322 
L 283.484893 250.983685 
L 283.559564 234.887056 
L 284.043299 96.903208 
L 284.191017 92.851988 
L 284.213743 92.921074 
L 284.28679 94.06247 
L 284.402042 100.012565 
L 284.54002 121.220142 
L 284.746176 196.229743 
L 284.905257 250.083766 
L 284.955578 241.695163 
L 285.557812 92.314765 
L 285.583785 92.204141 
L 285.635729 92.60325 
L 285.744489 95.885521 
L 285.87922 107.763838 
L 286.041548 146.403898 
L 286.32562 250.982605 
L 286.405161 233.161835 
L 286.872663 97.734112 
L 287.031744 92.851974 
L 287.046353 92.880261 
L 287.106415 93.574688 
L 287.215174 97.912663 
L 287.346659 113.894072 
L 287.526842 169.663563 
L 287.745984 250.084521 
L 287.802799 239.743169 
L 288.364451 92.869949 
L 288.424512 92.204118 
L 288.481327 92.674345 
L 288.593332 96.280878 
L 288.729687 109.153541 
L 288.896884 151.440706 
L 289.167971 250.983275 
L 289.239395 235.650695 
L 289.731247 96.511904 
L 289.872471 92.851975 
L 289.898444 92.938568 
L 289.974737 94.226376 
L 290.091613 100.687811 
L 290.232838 123.872009 
L 290.450356 206.414866 
L 290.586711 250.084878 
L 290.637033 241.835762 
L 291.244137 92.279126 
L 291.265239 92.204114 
L 291.313937 92.550282 
L 291.41945 95.557854 
L 291.554182 106.80366 
L 291.714886 143.517043 
L 292.008698 250.984128 
L 292.089862 232.107479 
L 292.549248 98.152546 
L 292.713199 92.851991 
L 292.726185 92.87282 
L 292.782999 93.473885 
L 292.890135 97.466728 
L 293.02162 112.5924 
L 293.198557 165.443711 
L 293.427439 250.084837 
L 293.4875 238.832755 
L 294.032919 93.242022 
L 294.105967 92.204127 
L 294.161158 92.641545 
L 294.27154 96.091122 
L 294.407895 108.599064 
L 294.573469 149.540312 
L 294.849425 250.984588 
L 294.924096 234.635583 
L 295.406208 96.966695 
L 295.553926 92.852021 
L 295.576652 92.915596 
L 295.648076 93.996356 
L 295.763328 99.796251 
L 295.901306 120.619397 
L 296.105839 194.322061 
L 296.268166 250.084398 
L 296.320111 241.489157 
L 296.917475 92.355575 
L 296.948317 92.204304 
L 297.000262 92.613382 
L 297.109021 95.918754 
L 297.243753 107.860677 
L 297.40608 146.637621 
L 297.690153 250.984653 
L 297.76807 233.515321 
L 298.238819 97.560481 
L 298.396276 92.852054 
L 298.412509 92.889759 
L 298.475817 93.68829 
L 298.586199 98.403889 
L 298.719308 115.626373 
L 298.905984 176.162915 
L 299.108893 250.083561 
L 299.164084 240.560054 
L 299.740346 92.61503 
L 299.789044 92.204231 
L 299.845859 92.6853 
L 299.957865 96.31643 
L 300.09422 109.25707 
L 300.261417 151.686387 
L 300.53088 250.984325 
L 300.603927 235.402503 
L 301.094156 96.571218 
L 301.237004 92.852013 
L 301.262976 92.943173 
L 301.33927 94.245746 
L 301.456145 100.750397 
L 301.59737 124.043736 
L 301.816512 207.469629 
L 301.951244 250.082736 
L 302.001565 241.631018 
L 302.602176 92.327745 
L 302.629772 92.204176 
L 302.681716 92.606401 
L 302.790476 95.895879 
L 302.925207 107.794034 
L 303.087535 146.476834 
L 303.371607 250.983603 
L 303.451148 233.081314 
L 303.91865 97.717867 
L 304.077731 92.851986 
L 304.09234 92.881083 
L 304.152401 93.578887 
L 304.261161 97.926801 
L 304.392646 113.93493 
L 304.572829 169.752846 
L 304.791971 250.083852 
L 304.848785 239.674105 
L 305.408815 92.904455 
L 305.470499 92.204138 
L 305.527313 92.677754 
L 305.639319 96.29196 
L 305.775674 109.185824 
L 305.942871 151.51738 
L 306.212335 250.982487 
L 306.285382 235.573296 
L 306.777233 96.498524 
L 306.918458 92.851974 
L 306.944431 92.939994 
L 307.020724 94.232409 
L 307.1376 100.707318 
L 307.278825 123.925576 
L 307.496343 206.512507 
L 307.632698 250.08457 
L 307.68302 241.772012 
L 308.2885 92.289751 
L 308.311226 92.204117 
L 308.361548 92.576009 
L 308.468684 95.718207 
L 308.603415 107.274784 
L 308.764119 144.669217 
L 309.054685 250.983369 
L 309.134225 232.644677 
L 309.598481 97.878768 
L 309.759185 92.851976 
L 309.773795 92.879289 
L 309.833856 93.569658 
L 309.942615 97.895709 
L 310.0741 113.845048 
L 310.254284 169.556325 
L 310.473425 250.084891 
L 310.531863 239.29824 
L 311.085399 93.044478 
L 311.151953 92.204114 
L 311.208768 92.670265 
L 311.319151 96.184148 
L 311.455505 108.871292 
L 311.621079 150.190117 
L 311.895412 250.984187 
L 311.96846 235.153221 
L 312.455441 96.736239 
L 312.599913 92.851993 
L 312.624262 92.926511 
L 312.697309 94.08611 
L 312.812561 100.089423 
L 312.95054 121.432421 
L 313.158319 197.38031 
L 313.314153 250.084813 
L 313.364474 241.912132 
L 313.973201 92.26953 
L 313.992681 92.204129 
L 314.041379 92.546759 
L 314.146892 95.546157 
L 314.281623 106.769199 
L 314.442327 143.43223 
L 314.73614 250.98461 
L 314.818927 231.583192 
L 315.275066 98.305427 
L 315.44064 92.852025 
L 315.452003 92.867096 
L 315.503948 93.357964 
L 315.607837 96.876324 
L 315.736076 110.280471 
L 315.904896 156.962188 
L 316.15488 250.084338 
L 316.221434 236.699217 
L 316.734388 94.270765 
L 316.833408 92.204162 
L 316.882106 92.543548 
L 316.987619 95.535465 
L 317.122351 106.737688 
L 317.283055 143.354608 
L 317.576867 250.98464 
L 317.659654 231.673565 
L 318.115793 98.324744 
L 318.282991 92.85205 
L 318.29273 92.866444 
L 318.344675 93.354156 
L 318.448564 96.863122 
L 318.576803 110.241344 
L 318.745623 156.871661 
L 318.995607 250.083464 
L 319.062161 236.781677 
L 319.576739 94.20526 
L 319.675759 92.204225 
L 319.722833 92.54035 
L 319.828346 95.524794 
L 319.963078 106.70623 
L 320.123782 143.277057 
L 320.417594 250.984275 
L 320.500381 231.76384 
L 320.956521 98.344108 
L 321.123718 92.85201 
L 321.133457 92.865807 
L 321.185402 93.350362 
L 321.289292 96.84995 
L 321.41753 110.202281 
L 321.586351 156.781196 
L 321.837958 250.082855 
L 321.902889 236.863982 
L 322.419089 94.141061 
L 322.516486 92.204172 
L 322.565184 92.559451 
L 322.670697 95.588156 
L 322.805428 106.892874 
L 322.966132 143.736272 
L 323.258321 250.983517 
L 323.341108 231.854016 
L 323.798871 98.230371 
L 323.964445 92.851984 
L 323.975808 92.869779 
L 324.029376 93.400131 
L 324.134889 97.115411 
L 324.264751 111.26499 
L 324.436817 160.489853 
L 324.678685 250.083934 
L 324.741993 237.509308 
L 325.26631 93.867536 
L 325.357213 92.204135 
L 325.407535 92.579056 
L 325.514671 95.728257 
L 325.649402 107.304233 
L 325.810106 144.740787 
L 326.099049 250.982365 
L 326.180212 232.563589 
L 326.642845 97.98914 
L 326.805172 92.851973 
L 326.818159 92.874246 
L 326.874973 93.481645 
L 326.982109 97.493227 
L 327.113594 112.670471 
L 327.290531 165.618107 
L 327.519412 250.084616 
L 327.579473 238.690532 
L 328.121647 93.332572 
L 328.19794 92.204116 
L 328.253132 92.648142 
L 328.363514 96.112613 
L 328.499869 108.662022 
L 328.665443 149.690974 
L 328.941399 250.983461 
L 329.014447 235.075142 
L 329.501428 96.722313 
L 329.6459 92.851977 
L 329.670249 92.927835 
L 329.743296 94.091775 
L 329.858548 100.107805 
L 329.99815 121.870552 
L 330.207552 198.96212 
L 330.36014 250.0849 
L 330.410461 241.848601 
L 331.017565 92.27944 
L 331.038668 92.204115 
L 331.087366 92.54969 
L 331.192879 95.555888 
L 331.32761 106.79787 
L 331.488314 143.502799 
L 331.782127 250.984242 
L 331.86329 232.123941 
L 332.322676 98.156015 
L 332.486627 92.851995 
L 332.499613 92.872679 
L 332.556428 93.473105 
L 332.663564 97.464062 
L 332.795049 112.584537 
L 332.971985 165.42613 
L 333.200867 250.084786 
L 333.260928 238.847068 
L 333.806348 93.243371 
L 333.879395 92.204131 
L 333.934586 92.640882 
L 334.044969 96.088958 
L 334.181324 108.592724 
L 334.346897 149.525127 
L 334.622854 250.984629 
L 334.697524 234.651459 
L 335.179636 96.969619 
L 335.327354 92.852029 
L 335.35008 92.91535 
L 335.421504 93.995264 
L 335.536756 99.792659 
L 335.674735 120.60938 
L 335.879267 194.302466 
L 336.041594 250.084274 
L 336.093539 241.502191 
L 336.692527 92.339366 
L 336.721745 92.20429 
L 336.77369 92.61274 
L 336.882449 95.916654 
L 337.017181 107.854562 
L 337.179508 146.622877 
L 337.463581 250.984623 
L 337.541498 233.531473 
L 338.013871 97.44397 
L 338.169705 92.852046 
L 338.187561 92.897048 
L 338.254115 93.794499 
L 338.366121 98.874186 
L 338.500852 117.303107 
L 338.692399 181.810871 
L 338.882321 250.083364 
L 338.935889 241.078358 
L 339.523514 92.458612 
L 339.562473 92.20422 
L 339.617664 92.658801 
L 339.728047 96.14718 
L 339.864401 108.763203 
L 340.029975 149.932622 
L 340.304308 250.984222 
L 340.378979 234.824457 
L 340.862714 96.891771 
L 341.010432 92.852007 
L 341.033158 92.922092 
L 341.106205 94.066941 
L 341.221457 100.027119 
L 341.359436 121.260388 
L 341.565591 196.307484 
L 341.724672 250.08297 
L 341.774993 241.643973 
L 342.377228 92.313248 
L 342.4032 92.204167 
L 342.453521 92.582114 
L 342.560657 95.738326 
L 342.695389 107.333727 
L 342.857716 145.359022 
L 343.145036 250.983428 
L 343.224576 233.097566 
L 343.692079 97.721142 
L 343.851159 92.851983 
L 343.865769 92.880916 
L 343.92583 93.578039 
L 344.034589 97.923947 
L 344.166074 113.926682 
L 344.346257 169.73483 
L 344.565399 250.084013 
L 344.622214 239.688051 
L 345.182243 92.905525 
L 345.243927 92.204133 
L 345.300742 92.677065 
L 345.412748 96.289723 
L 345.549103 109.179307 
L 345.7163 151.501907 
L 345.987386 250.98241 
L 346.05881 235.588919 
L 346.550662 96.50122 
L 346.691887 92.851973 
L 346.717859 92.939705 
L 346.794153 94.23119 
L 346.911028 100.70338 
L 347.052253 123.914765 
L 347.269772 206.492809 
L 347.406127 250.084659 
L 347.456448 241.784888 
L 348.061929 92.290088 
L 348.084655 92.204115 
L 348.134976 92.575396 
L 348.242112 95.716181 
L 348.376844 107.268849 
L 348.537548 144.654786 
L 348.828113 250.983549 
L 348.907654 232.661026 
L 349.37191 97.882115 
L 349.532614 92.851978 
L 349.547223 92.879127 
L 349.607284 93.568816 
L 349.716044 97.892867 
L 349.847529 113.836826 
L 350.027712 169.538328 
L 350.246854 250.084906 
L 350.305292 239.312354 
L 350.858828 93.045668 
L 350.925382 92.204116 
L 350.982196 92.669581 
L 351.092579 96.181951 
L 351.228934 108.864869 
L 351.394508 150.174836 
L 351.668841 250.984294 
L 351.741888 235.16896 
L 352.22887 96.739052 
L 352.373341 92.851998 
L 352.39769 92.926245 
L 352.470737 94.084969 
L 352.58599 100.085719 
L 352.723968 121.422204 
L 352.931747 197.360639 
L 353.087581 250.084756 
L 353.137903 241.924927 
L 353.74663 92.269822 
L 353.767732 92.204368 
L 353.814807 92.54617 
L 353.92032 95.544196 
L 354.055052 106.763421 
L 354.215756 143.418 
L 354.509568 250.984645 
L 354.592355 231.599761 
L 355.048495 98.308964 
L 355.214068 92.852032 
L 355.225431 92.866975 
L 355.277376 93.357265 
L 355.381265 96.873903 
L 355.509504 110.273296 
L 355.678324 156.945593 
L 355.928308 250.084207 
L 355.994863 236.71434 
L 356.507817 94.272818 
L 356.606836 92.20417 
L 356.655535 92.54296 
L 356.761047 95.533508 
L 356.895779 106.731919 
L 357.056483 143.340391 
L 357.350295 250.984602 
L 357.433082 231.690116 
L 357.889222 98.328289 
L 358.056419 92.852042 
L 358.066159 92.866326 
L 358.118103 93.35346 
L 358.221993 96.860706 
L 358.350231 110.23418 
L 358.519052 156.855078 
L 358.769036 250.083261 
L 358.83559 236.796772 
L 359.350167 94.207272 
L 359.449187 92.204214 
L 359.496262 92.539766 
L 359.601775 95.522841 
L 359.736506 106.700471 
L 359.89721 143.262853 
L 360.191023 250.984166 
L 360.273809 231.780373 
L 360.729949 98.347661 
L 360.897146 92.852004 
L 360.906886 92.865692 
L 360.958831 93.349669 
L 361.06272 96.84754 
L 361.190959 110.19513 
L 361.359779 156.764625 
L 361.611386 250.083083 
L 361.676317 236.879048 
L 362.192518 94.143033 
L 362.289914 92.204164 
L 362.338612 92.558851 
L 362.444125 95.586179 
L 362.578857 106.887056 
L 362.739561 143.721992 
L 363.03175 250.983335 
L 363.114537 231.87053 
L 363.5723 98.233874 
L 363.737873 92.851981 
L 363.749236 92.869648 
L 363.802804 93.399401 
L 363.908317 97.112889 
L 364.038179 111.257518 
L 364.210246 160.472827 
L 364.452113 250.084089 
L 364.515421 237.524142 
L 365.039738 93.869331 
L 365.130641 92.20413 
L 365.180963 92.57844 
L 365.288099 95.726228 
L 365.422831 107.298289 
L 365.583535 144.726344 
L 365.8741 250.98253 
L 365.953641 232.579955 
L 366.416273 97.992536 
L 366.578601 92.851973 
L 366.591587 92.8741 
L 366.648401 93.48086 
L 366.755537 97.490549 
L 366.887023 112.662586 
L 367.063959 165.600507 
L 367.292841 250.084698 
L 367.352902 238.704905 
L 367.895075 93.333991 
L 367.971369 92.204115 
L 368.02656 92.647474 
L 368.136943 96.110441 
L 368.273297 108.655663 
L 368.438871 149.675766 
L 368.714828 250.983633 
L 368.789498 234.493889 
L 369.269987 97.051433 
L 369.419328 92.851979 
L 369.440431 92.908714 
L 369.510231 93.92502 
L 369.62386 99.429394 
L 369.760215 119.222964 
L 369.958255 188.617206 
L 370.133568 250.084909 
L 370.185513 241.372656 
L 370.781254 92.368983 
L 370.812096 92.204117 
L 370.865664 92.619125 
L 370.974423 95.937505 
L 371.109155 107.915273 
L 371.271482 146.769145 
L 371.555555 250.984342 
L 371.633472 233.371183 
L 372.104221 97.532 
L 372.260055 92.852 
L 372.277911 92.891471 
L 372.342842 93.731599 
L 372.454848 98.665152 
L 372.58958 116.707884 
L 372.779503 179.858313 
L 372.974295 250.084722 
L 373.027863 240.946563 
L 373.613865 92.475687 
L 373.652823 92.204136 
L 373.709638 92.665521 
L 373.82002 96.168876 
L 373.956375 108.826653 
L 374.121949 150.083857 
L 374.396282 250.984658 
L 374.470953 234.667331 
L 374.953065 96.972545 
L 375.100783 92.852036 
L 375.123508 92.915105 
L 375.194932 93.994172 
L 375.310185 99.789068 
L 375.448163 120.599366 
L 375.652695 194.282872 
L 375.815023 250.084137 
L 375.866967 241.515218 
L 376.465955 92.339795 
L 376.495174 92.204276 
L 376.547119 92.612098 
L 376.655878 95.914555 
L 376.790609 107.848448 
L 376.952937 146.608135 
L 377.237009 250.984579 
L 377.314927 233.547621 
L 377.787299 97.447118 
L 377.943133 92.852037 
L 377.960989 92.896841 
L 378.027543 93.79352 
L 378.139549 98.870953 
L 378.274281 117.293939 
L 378.465827 181.791882 
L 378.65575 250.083154 
L 378.709318 241.091615 
L 379.298566 92.436989 
L 379.335901 92.204209 
L 379.391092 92.658126 
L 379.501475 96.144996 
L 379.63783 108.756814 
L 379.803404 149.917379 
L 380.077737 250.984106 
L 380.152407 234.840283 
L 380.636143 96.894659 
L 380.78386 92.852001 
L 380.806586 92.921834 
L 380.879633 94.06581 
L 380.994886 100.023439 
L 381.132864 121.250213 
L 381.33902 196.287836 
L 381.4981 250.083191 
L 381.548422 241.656921 
L 382.150656 92.31363 
L 382.176628 92.20416 
L 382.22695 92.581496 
L 382.334086 95.736293 
L 382.468817 107.327773 
L 382.631145 145.34448 
L 382.918464 250.983239 
L 382.998004 233.113814 
L 383.465507 97.724418 
L 383.624588 92.85198 
L 383.639197 92.88075 
L 383.699258 93.577191 
L 383.808017 97.921093 
L 383.939503 113.918437 
L 384.119686 169.716817 
L 384.338828 250.084161 
L 384.395642 239.70199 
L 384.955671 92.906596 
L 385.017356 92.204128 
L 385.07417 92.676377 
L 385.186176 96.287486 
L 385.322531 109.172792 
L 385.489728 151.486437 
L 385.760815 250.982648 
L 385.832239 235.604538 
L 386.32409 96.503919 
L 386.465315 92.851973 
L 386.491287 92.939417 
L 386.567581 94.229973 
L 386.684457 100.699443 
L 386.825681 123.903955 
L 387.0432 206.473111 
L 387.179555 250.084734 
L 387.229876 241.797756 
L 387.835357 92.290425 
L 387.858083 92.204114 
L 387.908404 92.574783 
L 388.01554 95.714157 
L 388.150272 107.262915 
L 388.310976 144.640356 
L 388.601542 250.983715 
L 388.681082 232.677371 
L 389.145338 97.885464 
L 389.306042 92.851981 
L 389.320652 92.878966 
L 389.379089 93.536627 
L 389.487849 97.783768 
L 389.619334 113.520446 
L 389.797894 168.168621 
L 390.020282 250.084908 
L 390.07872 239.326461 
L 390.632256 93.046859 
L 390.69881 92.204118 
L 390.755625 92.668898 
L 390.866007 96.179754 
L 391.002362 108.858449 
L 391.167936 150.159557 
L 391.442269 250.984388 
L 391.515316 235.184695 
L 392.002298 96.741867 
L 392.146769 92.852003 
L 392.171119 92.92598 
L 392.244166 94.083828 
L 392.359418 100.082016 
L 392.497396 121.41199 
L 392.705175 197.340968 
L 392.861009 250.084685 
L 392.911331 241.937715 
L 393.520058 92.270114 
L 393.541161 92.204351 
L 393.588236 92.545581 
L 393.693748 95.542235 
L 393.82848 106.757644 
L 393.989184 143.403772 
L 394.282996 250.984667 
L 394.365783 231.616326 
L 394.821923 98.312502 
L 394.987497 92.85204 
L 394.99886 92.866855 
L 395.050804 93.356567 
L 395.154694 96.871482 
L 395.282932 110.266123 
L 395.451753 156.929001 
L 395.701737 250.084064 
L 395.768291 236.729458 
L 396.282868 94.198315 
L 396.380265 92.204178 
L 396.428963 92.542374 
L 396.534476 95.531551 
L 396.669207 106.726152 
L 396.829911 143.326177 
L 397.123724 250.984552 
L 397.206511 231.706664 
L 397.66265 98.331836 
L 397.829847 92.852034 
L 397.839587 92.866209 
L 397.891532 93.352764 
L 397.995421 96.858291 
L 398.12366 110.227019 
L 398.29248 156.838497 
L 398.487273 239.925158 
L 398.487273 239.925158 
" style="fill:none;stroke:#1f77b4;stroke-linecap:square;stroke-width:1.5;"/>
   </g>
   <g id="patch_3">
    <path d="M 57.6 307.584 
L 57.6 41.472 
" style="fill:none;stroke:#000000;stroke-linecap:square;stroke-linejoin:miter;stroke-width:0.8;"/>
   </g>
   <g id="patch_4">
    <path d="M 414.72 307.584 
L 414.72 41.472 
" style="fill:none;stroke:#000000;stroke-linecap:square;stroke-linejoin:miter;stroke-width:0.8;"/>
   </g>
   <g id="patch_5">
    <path d="M 57.6 307.584 
L 414.72 307.584 
" style="fill:none;stroke:#000000;stroke-linecap:square;stroke-linejoin:miter;stroke-width:0.8;"/>
   </g>
   <g id="patch_6">
    <path d="M 57.6 41.472 
L 414.72 41.472 
" style="fill:none;stroke:#000000;stroke-linecap:square;stroke-linejoin:miter;stroke-width:0.8;"/>
   </g>
  </g>
 </g>
 <defs>
  <clipPath id="p1acbe632fc">
   <rect height="266.112" width="357.12" x="57.6" y="41.472"/>
  </clipPath>
 </defs>
</svg>
