<?xml version="1.0" encoding="utf-8" standalone="no"?>
<!DOCTYPE svg PUBLIC "-//W3C//DTD SVG 1.1//EN"
  "http://www.w3.org/Graphics/SVG/1.1/DTD/svg11.dtd">
<!-- Created with matplotlib (https://matplotlib.org/) -->
<svg height="345.6pt" version="1.1" viewBox="0 0 460.8 345.6" width="460.8pt" xmlns="http://www.w3.org/2000/svg" xmlns:xlink="http://www.w3.org/1999/xlink">
 <metadata>
  <rdf:RDF xmlns:cc="http://creativecommons.org/ns#" xmlns:dc="http://purl.org/dc/elements/1.1/" xmlns:rdf="http://www.w3.org/1999/02/22-rdf-syntax-ns#">
   <cc:Work>
    <dc:type rdf:resource="http://purl.org/dc/dcmitype/StillImage"/>
    <dc:date>2020-07-23T23:08:24.993705</dc:date>
    <dc:format>image/svg+xml</dc:format>
    <dc:creator>
     <cc:Agent>
      <dc:title>Matplotlib v3.3.0, https://matplotlib.org/</dc:title>
     </cc:Agent>
    </dc:creator>
   </cc:Work>
  </rdf:RDF>
 </metadata>
 <defs>
  <style type="text/css">*{stroke-linecap:butt;stroke-linejoin:round;}</style>
 </defs>
 <g id="figure_1">
  <g id="patch_1">
   <path d="M 0 345.6 
L 460.8 345.6 
L 460.8 0 
L 0 0 
z
" style="fill:#ffffff;"/>
  </g>
  <g id="axes_1">
   <g id="patch_2">
    <path d="M 57.6 307.584 
L 414.72 307.584 
L 414.72 41.472 
L 57.6 41.472 
z
" style="fill:#ffffff;"/>
   </g>
   <g id="matplotlib.axis_1">
    <g id="xtick_1">
     <g id="line2d_1">
      <defs>
       <path d="M 0 0 
L 0 3.5 
" id="m47063d5da0" style="stroke:#000000;stroke-width:0.8;"/>
      </defs>
      <g>
       <use style="stroke:#000000;stroke-width:0.8;" x="73.832727" xlink:href="#m47063d5da0" y="307.584"/>
      </g>
     </g>
     <g id="text_1">
      <!-- $\mathdefault{0}$ -->
      <g transform="translate(71.34206 321.502498)scale(0.1 -0.1)">
       <defs>
        <path d="M 42 31.640625 
C 42 37.75 41.90625 48.125 37.703125 56.109375 
C 34 63.109375 28.09375 65.59375 22.90625 65.59375 
C 18.09375 65.59375 12 63.40625 8.203125 56.203125 
C 4.203125 48.71875 3.796875 39.4375 3.796875 31.640625 
C 3.796875 25.953125 3.90625 17.28125 7 9.671875 
C 11.296875 -0.609375 19 -2 22.90625 -2 
C 27.5 -2 34.5 -0.109375 38.59375 9.375 
C 41.59375 16.28125 42 24.359375 42 31.640625 
z
M 22.90625 -0.40625 
C 16.5 -0.40625 12.703125 5.078125 11.296875 12.6875 
C 10.203125 18.5625 10.203125 27.15625 10.203125 32.75 
C 10.203125 40.4375 10.203125 46.828125 11.5 52.921875 
C 13.40625 61.390625 19 64 22.90625 64 
C 27 64 32.296875 61.296875 34.203125 53.125 
C 35.5 47.4375 35.59375 40.734375 35.59375 32.75 
C 35.59375 26.25 35.59375 18.265625 34.40625 12.375 
C 32.296875 1.484375 26.40625 -0.40625 22.90625 -0.40625 
z
" id="CMR17-48"/>
       </defs>
       <use transform="scale(0.996264)" xlink:href="#CMR17-48"/>
      </g>
     </g>
    </g>
    <g id="xtick_2">
     <g id="line2d_2">
      <g>
       <use style="stroke:#000000;stroke-width:0.8;" x="138.763636" xlink:href="#m47063d5da0" y="307.584"/>
      </g>
     </g>
     <g id="text_2">
      <!-- $\mathdefault{20000}$ -->
      <g transform="translate(126.310298 321.502498)scale(0.1 -0.1)">
       <defs>
        <path d="M 41.703125 15.453125 
L 39.90625 15.453125 
C 38.90625 8.375 38.09375 7.171875 37.703125 6.5625 
C 37.203125 5.765625 30 5.765625 28.59375 5.765625 
L 9.40625 5.765625 
C 13 9.671875 20 16.75 28.5 24.953125 
C 34.59375 30.734375 41.703125 37.53125 41.703125 47.421875 
C 41.703125 59.21875 32.296875 66 21.796875 66 
C 10.796875 66 4.09375 56.3125 4.09375 47.34375 
C 4.09375 43.4375 7 42.9375 8.203125 42.9375 
C 9.203125 42.9375 12.203125 43.546875 12.203125 47.03125 
C 12.203125 50.109375 9.59375 51 8.203125 51 
C 7.59375 51 7 50.90625 6.59375 50.703125 
C 8.5 59.21875 14.296875 63.40625 20.40625 63.40625 
C 29.09375 63.40625 34.796875 56.515625 34.796875 47.421875 
C 34.796875 38.734375 29.703125 31.25 24 24.75 
L 4.09375 2.28125 
L 4.09375 0 
L 39.296875 0 
z
" id="CMR17-50"/>
       </defs>
       <use transform="scale(0.996264)" xlink:href="#CMR17-50"/>
       <use transform="translate(45.690477 0)scale(0.996264)" xlink:href="#CMR17-48"/>
       <use transform="translate(91.380954 0)scale(0.996264)" xlink:href="#CMR17-48"/>
       <use transform="translate(137.071431 0)scale(0.996264)" xlink:href="#CMR17-48"/>
       <use transform="translate(182.761908 0)scale(0.996264)" xlink:href="#CMR17-48"/>
      </g>
     </g>
    </g>
    <g id="xtick_3">
     <g id="line2d_3">
      <g>
       <use style="stroke:#000000;stroke-width:0.8;" x="203.694545" xlink:href="#m47063d5da0" y="307.584"/>
      </g>
     </g>
     <g id="text_3">
      <!-- $\mathdefault{40000}$ -->
      <g transform="translate(191.241207 321.502498)scale(0.1 -0.1)">
       <defs>
        <path d="M 33.59375 64.40625 
C 33.59375 66.5 33.5 66.5 31.703125 66.5 
L 2 19.59375 
L 2 17 
L 27.796875 17 
L 27.796875 7.140625 
C 27.796875 3.5 27.59375 2.5 20.59375 2.5 
L 18.703125 2.5 
L 18.703125 0 
C 21.90625 0 27.296875 0 30.703125 0 
C 34.09375 0 39.5 0 42.703125 0 
L 42.703125 2.5 
L 40.796875 2.5 
C 33.796875 2.5 33.59375 3.5 33.59375 7.140625 
L 33.59375 17 
L 43.796875 17 
L 43.796875 19.59375 
L 33.59375 19.59375 
z
M 28.09375 57.859375 
L 28.09375 19.59375 
L 4 19.59375 
z
" id="CMR17-52"/>
       </defs>
       <use transform="scale(0.996264)" xlink:href="#CMR17-52"/>
       <use transform="translate(45.690477 0)scale(0.996264)" xlink:href="#CMR17-48"/>
       <use transform="translate(91.380954 0)scale(0.996264)" xlink:href="#CMR17-48"/>
       <use transform="translate(137.071431 0)scale(0.996264)" xlink:href="#CMR17-48"/>
       <use transform="translate(182.761908 0)scale(0.996264)" xlink:href="#CMR17-48"/>
      </g>
     </g>
    </g>
    <g id="xtick_4">
     <g id="line2d_4">
      <g>
       <use style="stroke:#000000;stroke-width:0.8;" x="268.625455" xlink:href="#m47063d5da0" y="307.584"/>
      </g>
     </g>
     <g id="text_4">
      <!-- $\mathdefault{60000}$ -->
      <g transform="translate(256.172116 321.502498)scale(0.1 -0.1)">
       <defs>
        <path d="M 10.59375 34 
C 10.59375 57.65625 21.796875 63 28.296875 63 
C 30.40625 63 35.5 62.640625 37.5 59 
C 35.90625 59 32.90625 59 32.90625 55.515625 
C 32.90625 52.828125 35.09375 51.921875 36.5 51.921875 
C 37.40625 51.921875 40.09375 52.3125 40.09375 55.625 
C 40.09375 61.78125 35.09375 65.296875 28.203125 65.296875 
C 16.296875 65.296875 3.796875 52.96875 3.796875 31 
C 3.796875 3.953125 15.09375 -2 23.09375 -2 
C 32.796875 -2 42 6.671875 42 20.046875 
C 42 32.515625 33.90625 41.59375 23.703125 41.59375 
C 17.59375 41.59375 13.09375 37.609375 10.59375 30.625 
z
M 23.09375 0.390625 
C 10.796875 0.390625 10.796875 18.75 10.796875 22.4375 
C 10.796875 29.625 14.203125 40 23.5 40 
C 25.203125 40 30.09375 40 33.40625 33.125 
C 35.203125 29.21875 35.203125 25.140625 35.203125 20.140625 
C 35.203125 14.75 35.203125 10.78125 33.09375 6.78125 
C 30.90625 2.671875 27.703125 0.390625 23.09375 0.390625 
z
" id="CMR17-54"/>
       </defs>
       <use transform="scale(0.996264)" xlink:href="#CMR17-54"/>
       <use transform="translate(45.690477 0)scale(0.996264)" xlink:href="#CMR17-48"/>
       <use transform="translate(91.380954 0)scale(0.996264)" xlink:href="#CMR17-48"/>
       <use transform="translate(137.071431 0)scale(0.996264)" xlink:href="#CMR17-48"/>
       <use transform="translate(182.761908 0)scale(0.996264)" xlink:href="#CMR17-48"/>
      </g>
     </g>
    </g>
    <g id="xtick_5">
     <g id="line2d_5">
      <g>
       <use style="stroke:#000000;stroke-width:0.8;" x="333.556364" xlink:href="#m47063d5da0" y="307.584"/>
      </g>
     </g>
     <g id="text_5">
      <!-- $\mathdefault{80000}$ -->
      <g transform="translate(321.103026 321.502498)scale(0.1 -0.1)">
       <defs>
        <path d="M 27.203125 35.375 
C 33.5 38.546875 39.90625 43.328125 39.90625 50.984375 
C 39.90625 60.015625 31.09375 65.296875 23 65.296875 
C 13.90625 65.296875 5.90625 58.734375 5.90625 49.6875 
C 5.90625 47.203125 6.5 42.921875 10.40625 39.140625 
C 11.40625 38.15625 15.59375 35.171875 18.296875 33.28125 
C 13.796875 30.984375 3.296875 25.53125 3.296875 14.59375 
C 3.296875 4.359375 13.09375 -2 22.796875 -2 
C 33.5 -2 42.5 5.65625 42.5 15.78125 
C 42.5 24.84375 36.40625 29.015625 32.40625 31.703125 
z
M 14.09375 44.09375 
C 13.296875 44.59375 9.296875 47.671875 9.296875 52.359375 
C 9.296875 58.421875 15.59375 63 22.796875 63 
C 30.703125 63 36.5 57.4375 36.5 50.96875 
C 36.5 41.703125 26.09375 36.421875 25.59375 36.421875 
C 25.5 36.421875 25.40625 36.421875 24.59375 37.03125 
z
M 32.5 23.734375 
C 34 22.640625 38.796875 19.375 38.796875 13.296875 
C 38.796875 5.953125 31.40625 0.390625 23 0.390625 
C 13.90625 0.390625 7 6.84375 7 14.6875 
C 7 22.546875 13.09375 29.09375 20 32.1875 
z
" id="CMR17-56"/>
       </defs>
       <use transform="scale(0.996264)" xlink:href="#CMR17-56"/>
       <use transform="translate(45.690477 0)scale(0.996264)" xlink:href="#CMR17-48"/>
       <use transform="translate(91.380954 0)scale(0.996264)" xlink:href="#CMR17-48"/>
       <use transform="translate(137.071431 0)scale(0.996264)" xlink:href="#CMR17-48"/>
       <use transform="translate(182.761908 0)scale(0.996264)" xlink:href="#CMR17-48"/>
      </g>
     </g>
    </g>
    <g id="xtick_6">
     <g id="line2d_6">
      <g>
       <use style="stroke:#000000;stroke-width:0.8;" x="398.487273" xlink:href="#m47063d5da0" y="307.584"/>
      </g>
     </g>
     <g id="text_6">
      <!-- $\mathdefault{100000}$ -->
      <g transform="translate(383.543267 321.502498)scale(0.1 -0.1)">
       <defs>
        <path d="M 26.59375 63.40625 
C 26.59375 65.5 26.5 65.5 25.09375 65.5 
C 21.203125 61.1875 15.296875 59.796875 9.703125 59.796875 
C 9.40625 59.796875 8.90625 59.796875 8.796875 59.5 
C 8.703125 59.296875 8.703125 59.09375 8.703125 57 
C 11.796875 57 17 57.59375 21 59.984375 
L 21 7.203125 
C 21 3.6875 20.796875 2.5 12.203125 2.5 
L 9.203125 2.5 
L 9.203125 0 
C 14 0 19 0 23.796875 0 
C 28.59375 0 33.59375 0 38.40625 0 
L 38.40625 2.5 
L 35.40625 2.5 
C 26.796875 2.5 26.59375 3.59375 26.59375 7.15625 
z
" id="CMR17-49"/>
       </defs>
       <use transform="scale(0.996264)" xlink:href="#CMR17-49"/>
       <use transform="translate(45.690477 0)scale(0.996264)" xlink:href="#CMR17-48"/>
       <use transform="translate(91.380954 0)scale(0.996264)" xlink:href="#CMR17-48"/>
       <use transform="translate(137.071431 0)scale(0.996264)" xlink:href="#CMR17-48"/>
       <use transform="translate(182.761908 0)scale(0.996264)" xlink:href="#CMR17-48"/>
       <use transform="translate(228.452386 0)scale(0.996264)" xlink:href="#CMR17-48"/>
      </g>
     </g>
    </g>
   </g>
   <g id="matplotlib.axis_2">
    <g id="ytick_1">
     <g id="line2d_7">
      <defs>
       <path d="M 0 0 
L -3.5 0 
" id="m478a9d778f" style="stroke:#000000;stroke-width:0.8;"/>
      </defs>
      <g>
       <use style="stroke:#000000;stroke-width:0.8;" x="57.6" xlink:href="#m478a9d778f" y="296.920293"/>
      </g>
     </g>
     <g id="text_7">
      <!-- $\mathdefault{0.00}$ -->
      <g transform="translate(32.888586 300.379542)scale(0.1 -0.1)">
       <defs>
        <path d="M 18.40625 4.796875 
C 18.40625 7.6875 16 9.671875 13.59375 9.671875 
C 10.703125 9.671875 8.703125 7.28125 8.703125 4.890625 
C 8.703125 2 11.09375 0 13.5 0 
C 16.40625 0 18.40625 2.390625 18.40625 4.796875 
z
" id="CMMI12-58"/>
       </defs>
       <use transform="scale(0.996264)" xlink:href="#CMR17-48"/>
       <use transform="translate(45.690477 0)scale(0.996264)" xlink:href="#CMMI12-58"/>
       <use transform="translate(72.787654 0)scale(0.996264)" xlink:href="#CMR17-48"/>
       <use transform="translate(118.478131 0)scale(0.996264)" xlink:href="#CMR17-48"/>
      </g>
     </g>
    </g>
    <g id="ytick_2">
     <g id="line2d_8">
      <g>
       <use style="stroke:#000000;stroke-width:0.8;" x="57.6" xlink:href="#m478a9d778f" y="259.379141"/>
      </g>
     </g>
     <g id="text_8">
      <!-- $\mathdefault{0.02}$ -->
      <g transform="translate(32.888586 262.83839)scale(0.1 -0.1)">
       <use transform="scale(0.996264)" xlink:href="#CMR17-48"/>
       <use transform="translate(45.690477 0)scale(0.996264)" xlink:href="#CMMI12-58"/>
       <use transform="translate(72.787654 0)scale(0.996264)" xlink:href="#CMR17-48"/>
       <use transform="translate(118.478131 0)scale(0.996264)" xlink:href="#CMR17-50"/>
      </g>
     </g>
    </g>
    <g id="ytick_3">
     <g id="line2d_9">
      <g>
       <use style="stroke:#000000;stroke-width:0.8;" x="57.6" xlink:href="#m478a9d778f" y="221.83799"/>
      </g>
     </g>
     <g id="text_9">
      <!-- $\mathdefault{0.04}$ -->
      <g transform="translate(32.888586 225.297239)scale(0.1 -0.1)">
       <use transform="scale(0.996264)" xlink:href="#CMR17-48"/>
       <use transform="translate(45.690477 0)scale(0.996264)" xlink:href="#CMMI12-58"/>
       <use transform="translate(72.787654 0)scale(0.996264)" xlink:href="#CMR17-48"/>
       <use transform="translate(118.478131 0)scale(0.996264)" xlink:href="#CMR17-52"/>
      </g>
     </g>
    </g>
    <g id="ytick_4">
     <g id="line2d_10">
      <g>
       <use style="stroke:#000000;stroke-width:0.8;" x="57.6" xlink:href="#m478a9d778f" y="184.296838"/>
      </g>
     </g>
     <g id="text_10">
      <!-- $\mathdefault{0.06}$ -->
      <g transform="translate(32.888586 187.756087)scale(0.1 -0.1)">
       <use transform="scale(0.996264)" xlink:href="#CMR17-48"/>
       <use transform="translate(45.690477 0)scale(0.996264)" xlink:href="#CMMI12-58"/>
       <use transform="translate(72.787654 0)scale(0.996264)" xlink:href="#CMR17-48"/>
       <use transform="translate(118.478131 0)scale(0.996264)" xlink:href="#CMR17-54"/>
      </g>
     </g>
    </g>
    <g id="ytick_5">
     <g id="line2d_11">
      <g>
       <use style="stroke:#000000;stroke-width:0.8;" x="57.6" xlink:href="#m478a9d778f" y="146.755686"/>
      </g>
     </g>
     <g id="text_11">
      <!-- $\mathdefault{0.08}$ -->
      <g transform="translate(32.888586 150.214935)scale(0.1 -0.1)">
       <use transform="scale(0.996264)" xlink:href="#CMR17-48"/>
       <use transform="translate(45.690477 0)scale(0.996264)" xlink:href="#CMMI12-58"/>
       <use transform="translate(72.787654 0)scale(0.996264)" xlink:href="#CMR17-48"/>
       <use transform="translate(118.478131 0)scale(0.996264)" xlink:href="#CMR17-56"/>
      </g>
     </g>
    </g>
    <g id="ytick_6">
     <g id="line2d_12">
      <g>
       <use style="stroke:#000000;stroke-width:0.8;" x="57.6" xlink:href="#m478a9d778f" y="109.214534"/>
      </g>
     </g>
     <g id="text_12">
      <!-- $\mathdefault{0.10}$ -->
      <g transform="translate(32.888586 112.673784)scale(0.1 -0.1)">
       <use transform="scale(0.996264)" xlink:href="#CMR17-48"/>
       <use transform="translate(45.690477 0)scale(0.996264)" xlink:href="#CMMI12-58"/>
       <use transform="translate(72.787654 0)scale(0.996264)" xlink:href="#CMR17-49"/>
       <use transform="translate(118.478131 0)scale(0.996264)" xlink:href="#CMR17-48"/>
      </g>
     </g>
    </g>
    <g id="ytick_7">
     <g id="line2d_13">
      <g>
       <use style="stroke:#000000;stroke-width:0.8;" x="57.6" xlink:href="#m478a9d778f" y="71.673383"/>
      </g>
     </g>
     <g id="text_13">
      <!-- $\mathdefault{0.12}$ -->
      <g transform="translate(32.888586 75.132632)scale(0.1 -0.1)">
       <use transform="scale(0.996264)" xlink:href="#CMR17-48"/>
       <use transform="translate(45.690477 0)scale(0.996264)" xlink:href="#CMMI12-58"/>
       <use transform="translate(72.787654 0)scale(0.996264)" xlink:href="#CMR17-49"/>
       <use transform="translate(118.478131 0)scale(0.996264)" xlink:href="#CMR17-50"/>
      </g>
     </g>
    </g>
   </g>
   <g id="line2d_14">
    <path clip-path="url(#p2e334ab3c6)" d="M 73.832727 109.214534 
L 74.761239 109.292 
L 74.790458 110.518059 
L 74.845649 128.941883 
L 74.904087 154.137697 
L 74.949539 125.942483 
L 75.076154 106.016585 
L 75.08914 106.21823 
L 75.144332 112.489926 
L 75.293673 132.184958 
L 75.329385 127.963468 
L 75.426781 107.93432 
L 75.507945 108.780475 
L 75.962461 116.547305 
L 76.00142 115.132609 
L 76.212445 102.298181 
L 76.251404 104.500952 
L 76.410484 113.459099 
L 76.426717 113.285955 
L 76.429964 113.385514 
L 76.491648 112.188176 
L 76.494895 112.193536 
L 76.563072 110.783628 
L 76.618263 111.471532 
L 76.70592 112.293112 
L 76.764358 111.78838 
L 76.813056 111.227192 
L 76.868247 111.917055 
L 76.871494 111.88188 
L 77.004602 113.136063 
L 77.189655 110.660917 
L 77.192902 110.694051 
L 77.248093 110.150265 
L 77.25134 110.224476 
L 77.254586 110.154592 
L 77.348736 110.511944 
L 77.351983 110.468671 
L 77.41042 111.068535 
L 77.556515 112.740379 
L 77.572748 112.693751 
L 77.575994 112.705062 
L 77.614953 112.476808 
L 77.735075 111.815107 
L 77.76754 111.898489 
L 77.884416 112.419507 
L 77.949347 112.273426 
L 78.1344 111.617272 
L 78.137647 111.638629 
L 78.212317 111.469848 
L 78.222057 111.506397 
L 78.225303 111.471847 
L 78.299974 111.812042 
L 78.30322 111.796454 
L 78.475287 113.119427 
L 78.494767 113.137844 
L 78.621382 112.622344 
L 78.624628 112.657589 
L 78.705792 112.469079 
L 78.722025 112.518336 
L 78.773969 112.535109 
L 78.835654 112.455852 
L 78.8389 112.498649 
L 78.939543 112.357235 
L 78.94279 112.401305 
L 78.965516 112.354349 
L 79.046679 112.43811 
L 79.049926 112.396816 
L 79.189527 112.818958 
L 79.192774 112.794419 
L 79.247965 113.142495 
L 79.251212 113.118648 
L 79.38432 113.560717 
L 79.387567 113.524003 
L 79.475223 113.599143 
L 79.491456 113.561267 
L 79.494703 113.598755 
L 79.588852 113.475675 
L 79.592099 113.507665 
L 79.712221 113.388131 
L 79.82585 113.433343 
L 79.829097 113.400579 
L 79.92974 113.49719 
L 79.932986 113.468576 
L 80.066095 113.72526 
L 80.069341 113.707448 
L 80.118039 113.99474 
L 80.121286 113.987357 
L 80.299846 115.088053 
L 80.393996 115.069912 
L 80.325818 115.10744 
L 80.406982 115.074156 
L 80.559569 115.454476 
L 80.562816 115.438975 
L 80.630993 115.646319 
L 80.63424 115.631696 
L 80.799814 116.222547 
L 80.80306 116.211222 
L 80.858252 116.401614 
L 80.861498 116.38895 
L 81.033565 116.97225 
L 81.036812 116.969755 
L 81.053044 117.086058 
L 81.056291 117.086818 
L 81.33874 119.312088 
L 81.341987 119.305489 
L 81.384192 119.465281 
L 81.387439 119.459062 
L 81.851695 122.637023 
L 81.913379 123.029001 
L 82.715276 130.661522 
L 82.96526 132.954031 
L 85.724823 167.780107 
L 87.374068 196.024235 
L 89.925853 253.345537 
L 91.568605 295.488 
L 91.633536 294.714049 
L 92.065327 283.581023 
L 94.64633 218.973501 
L 95.860538 194.887481 
L 96.925405 178.033496 
L 97.847424 166.744913 
L 98.772689 158.375541 
L 99.671983 152.902573 
L 100.139485 151.052608 
L 100.616727 149.69561 
L 100.947875 149.126891 
L 101.477062 148.788988 
L 101.834182 148.790824 
L 102.233507 149.265648 
L 102.804899 150.391964 
L 103.49966 152.718526 
L 104.415185 156.832112 
L 105.915089 165.881989 
L 108.765556 187.411387 
L 111.307601 206.531398 
L 113.758743 222.030456 
L 114.726214 226.964115 
L 115.502138 230.28851 
L 116.771537 234.356848 
L 117.281245 235.459283 
L 118.148073 236.612553 
L 118.466234 236.830199 
L 118.76167 236.9188 
L 119.596032 236.636827 
L 119.871988 236.392181 
L 121.060224 234.556639 
L 123.027631 229.719109 
L 124.485329 225.611576 
L 127.640972 217.730119 
L 129.468777 214.365637 
L 130.407028 213.025768 
L 131.945891 211.444523 
L 133.244509 210.716386 
L 134.367814 210.536675 
L 135.582022 210.785078 
L 137.195555 211.702886 
L 138.016931 212.360922 
L 143.152966 217.080956 
L 144.260038 217.892498 
L 146.730659 219.253209 
L 147.727348 219.627158 
L 149.870068 220.0778 
L 151.843968 220.047396 
L 154.071098 219.558023 
L 159.775279 217.688369 
L 162.904948 217.125508 
L 166.60601 216.91233 
L 170.277853 217.10979 
L 173.170525 217.460185 
L 176.238511 217.79508 
L 180.848605 217.994609 
L 187.965033 217.87847 
L 194.584739 217.64906 
L 204.92174 217.671239 
L 211.664815 217.663683 
L 213.03161 217.723776 
L 214.00882 217.673224 
L 215.787927 217.43625 
L 216.271663 217.731291 
L 217.729361 218.813056 
L 218.021551 218.627297 
L 218.362438 218.112167 
L 218.875392 216.863069 
L 219.599372 215.209125 
L 219.875328 215.036562 
L 220.073367 215.16713 
L 220.316858 215.649413 
L 220.660992 216.903655 
L 221.764817 221.343729 
L 221.897926 221.271792 
L 222.0635 220.830353 
L 222.306991 219.427302 
L 222.667357 215.838249 
L 223.780922 203.82285 
L 223.901044 203.659596 
L 223.940003 203.693716 
L 224.053632 204.054718 
L 224.238685 205.531766 
L 224.508148 209.765683 
L 224.891241 219.818133 
L 225.933382 249.233332 
L 225.952861 249.23687 
L 225.988573 249.135279 
L 226.089216 248.076254 
L 226.271023 243.322827 
L 226.589184 228.052886 
L 227.780666 165.479948 
L 227.923514 164.341524 
L 227.95598 164.404916 
L 228.046883 165.197518 
L 228.231936 169.242705 
L 228.702685 186.132463 
L 229.228625 210.717905 
L 229.699375 245.449159 
L 230.095453 270.820432 
L 230.108439 270.764444 
L 230.166877 269.257852 
L 230.316218 257.875116 
L 230.741516 203.133485 
L 231.361606 131.418955 
L 231.605097 123.756946 
L 231.962217 117.69547 
L 232.517376 105.857111 
L 232.559581 105.782157 
L 232.608279 105.925379 
L 232.715415 107.184191 
L 232.893975 112.500414 
L 233.153699 128.009794 
L 233.578996 169.41964 
L 234.036759 207.115008 
L 234.085457 207.660352 
L 234.137402 207.03814 
L 234.247785 201.531352 
L 234.471796 176.446681 
L 235.065914 108.898773 
L 235.676265 87.011559 
L 236.172986 71.936845 
L 236.364532 70.135098 
L 236.384012 70.160925 
L 236.455436 70.669903 
L 236.588544 73.661544 
L 236.786583 84.135848 
L 237.085265 113.952141 
L 237.754054 182.544424 
L 237.760547 182.547514 
L 237.780026 182.412622 
L 237.85145 180.060966 
L 238.007284 165.878282 
L 238.705292 93.445888 
L 239.695488 61.2459 
L 240.023389 55.85878 
L 240.042868 55.846736 
L 240.07858 55.97034 
L 240.169484 57.272785 
L 240.322071 63.376203 
L 240.552576 83.267501 
L 241.292788 167.701738 
L 241.383692 164.958813 
L 241.542772 148.974343 
L 242.153123 81.842038 
L 242.562188 70.247644 
L 243.195264 56.143609 
L 243.47122 53.568037 
L 243.477713 53.571542 
L 243.529658 53.781765 
L 243.633548 55.434 
L 243.789382 62.239821 
L 244.010147 83.413156 
L 244.656209 163.095717 
L 244.727633 161.261587 
L 244.867235 148.616319 
L 245.584721 72.029212 
L 246.000279 64.441834 
L 246.503494 57.098334 
L 246.701533 56.343022 
L 246.717766 56.352958 
L 246.792436 56.600902 
L 246.909312 57.958809 
L 247.0619 62.930328 
L 247.253446 78.069517 
L 247.548881 123.505341 
L 247.889769 164.565448 
L 247.912495 164.755665 
L 247.957946 163.950302 
L 248.068329 156.033866 
L 248.347532 114.955923 
L 248.720884 72.465651 
L 248.951389 66.081298 
L 249.207866 64.543688 
L 249.642903 62.979273 
L 249.73056 63.105839 
L 249.863668 63.82331 
L 250.032489 66.169596 
L 250.214295 72.27396 
L 250.415581 87.938381 
L 250.694784 131.084451 
L 251.077876 182.284284 
L 251.090863 182.357989 
L 251.129821 181.690872 
L 251.230464 174.364765 
L 251.493434 133.997928 
L 251.931718 77.50812 
L 252.175209 68.925245 
L 252.395974 67.386161 
L 252.555055 67.192889 
L 252.57778 67.206104 
L 252.691409 67.443144 
L 252.873216 68.457864 
L 253.077748 70.993539 
L 253.259555 76.499891 
L 253.451101 90.400599 
L 253.707578 128.562422 
L 254.191313 202.014895 
L 254.207546 201.869413 
L 254.272477 198.692573 
L 254.438051 176.642446 
L 255.110086 80.56322 
L 255.356823 71.684797 
L 255.515904 70.778495 
L 255.535383 70.788996 
L 255.626287 71.052033 
L 255.817833 72.449391 
L 256.041844 75.803602 
L 256.24313 82.68069 
L 256.450909 98.893444 
L 256.723619 141.045409 
L 257.217094 222.751235 
L 257.249559 222.139223 
L 257.340463 214.248641 
L 257.629405 162.305066 
L 258.083921 97.656446 
L 258.382604 80.711489 
L 258.593629 78.020802 
L 258.632588 77.988229 
L 258.681286 78.083107 
L 258.807901 78.911777 
L 259.002694 81.853646 
L 259.200733 88.664265 
L 259.408512 104.854859 
L 259.681222 146.829989 
L 260.187683 233.986727 
L 260.229888 232.740089 
L 260.343517 219.652377 
L 261.236317 93.3158 
L 261.479808 86.712448 
L 261.564218 86.373718 
L 261.616163 86.488071 
L 261.736285 87.49946 
L 261.931078 91.33946 
L 262.14535 100.601744 
L 262.379101 122.042202 
L 262.697263 175.704039 
L 263.119313 244.907576 
L 263.142039 244.492304 
L 263.223203 237.625341 
L 263.502406 187.408182 
L 263.973155 119.392306 
L 264.294563 99.179122 
L 264.515328 95.677423 
L 264.547793 95.64326 
L 264.593245 95.757582 
L 264.703628 96.773399 
L 264.882188 100.828087 
L 265.093213 111.456332 
L 265.339951 137.200555 
L 265.703564 203.537717 
L 266.018479 250.21213 
L 266.034711 249.996039 
L 266.102889 245.215735 
L 266.320407 208.719286 
L 266.856087 127.881355 
L 267.187235 106.283726 
L 267.401507 102.827325 
L 267.424233 102.815186 
L 267.463191 102.921998 
L 267.570327 103.983572 
L 267.752134 108.388969 
L 267.972899 119.86069 
L 268.229376 146.641502 
L 268.615715 215.238963 
L 268.904657 254.729456 
L 268.924137 254.415097 
L 268.998807 248.693483 
L 269.258531 205.029661 
L 269.761745 134.049929 
L 270.099386 112.571828 
L 270.323398 108.865513 
L 270.34937 108.841252 
L 270.394822 108.971779 
L 270.501958 110.130355 
L 270.677271 114.880905 
L 270.89479 127.768491 
L 271.164253 159.260782 
L 271.771357 256.800368 
L 271.872 250.260976 
L 272.160943 201.367976 
L 272.644678 135.867938 
L 272.979072 115.302891 
L 273.190097 112.200504 
L 273.232303 112.299777 
L 273.332945 113.349816 
L 273.511505 118.019401 
L 273.735517 130.455766 
L 274.00498 159.759667 
L 274.478976 242.732615 
L 274.641303 258.149491 
L 274.677015 257.237037 
L 274.784151 246.020441 
L 275.732143 123.642075 
L 275.998359 115.260297 
L 276.092509 114.754348 
L 276.141207 114.898734 
L 276.25159 116.192206 
L 276.43015 121.397194 
L 276.650915 135.298508 
L 276.930118 169.322378 
L 277.50151 258.757408 
L 277.582673 254.406962 
L 277.796945 220.878036 
L 278.352105 142.0681 
L 278.699485 119.380619 
L 278.92025 115.574502 
L 278.939729 115.567189 
L 278.975441 115.674318 
L 279.076084 116.775562 
L 279.254644 121.658451 
L 279.481903 134.868162 
L 279.757859 165.922744 
L 280.368209 258.836635 
L 280.465606 252.797168 
L 280.741562 208.428522 
L 281.248023 141.168746 
L 281.592157 119.815032 
L 281.809676 116.324263 
L 281.829155 116.314736 
L 281.868113 116.427373 
L 281.972003 117.563559 
L 282.14407 122.311573 
L 282.361588 135.267001 
L 282.634298 166.85986 
L 283.228416 258.965127 
L 283.322566 253.279951 
L 283.582289 211.201558 
L 284.095244 141.417112 
L 284.439377 119.69289 
L 284.656896 116.212591 
L 284.676375 116.219829 
L 284.702348 116.300983 
L 284.799744 117.301715 
L 284.971811 121.772693 
L 285.195823 134.196806 
L 285.468532 163.766675 
L 286.095116 258.789808 
L 286.202252 251.817799 
L 286.520413 200.151799 
L 287.004148 138.908415 
L 287.338543 119.457088 
L 287.549568 116.452893 
L 287.57554 116.476435 
L 287.59502 116.544718 
L 287.692416 117.524497 
L 287.861236 121.912338 
L 288.075508 134.079111 
L 288.344972 164.15585 
L 288.958569 258.869665 
L 289.059212 252.380153 
L 289.354647 203.818772 
L 289.844876 139.596891 
L 290.182516 119.222753 
L 290.393542 116.155212 
L 290.435747 116.26399 
L 290.53639 117.357543 
L 290.711703 122.087676 
L 290.935715 134.880061 
L 291.211671 165.501236 
L 291.825268 258.726345 
L 291.925911 252.54892 
L 292.208361 207.173488 
L 292.714822 140.58975 
L 293.055709 119.776959 
L 293.273228 116.382809 
L 293.292707 116.378199 
L 293.328419 116.482593 
L 293.429062 117.543855 
L 293.601129 122.175223 
L 293.818647 134.960968 
L 294.091357 166.329678 
L 294.688721 258.835241 
L 294.782871 253.197606 
L 295.042595 211.162596 
L 295.555549 141.388422 
L 295.899683 119.604633 
L 296.117201 116.089646 
L 296.136681 116.094716 
L 296.1659 116.188598 
L 296.266543 117.268817 
L 296.441856 121.979028 
L 296.665868 134.738874 
L 296.941824 165.300869 
L 297.558668 258.71475 
L 297.656064 252.659853 
L 297.93202 208.422493 
L 298.441728 140.947352 
L 298.782615 119.87217 
L 299.00338 116.339542 
L 299.02286 116.332726 
L 299.058572 116.433375 
L 299.159215 117.485376 
L 299.331281 122.098521 
L 299.5488 134.839728 
L 299.82151 166.128691 
L 300.422121 258.834188 
L 300.516271 252.955859 
L 300.785734 209.104754 
L 301.292195 140.864858 
L 301.636329 119.410485 
L 301.850601 116.074854 
L 301.873327 116.091341 
L 301.896052 116.170186 
L 301.996695 117.236497 
L 302.172009 121.918648 
L 302.39602 134.632276 
L 302.66873 164.667566 
L 303.28882 258.718312 
L 303.389463 252.420531 
L 303.675159 206.417313 
L 304.178374 140.451823 
L 304.519261 119.699543 
L 304.73678 116.334241 
L 304.756259 116.332007 
L 304.788724 116.42498 
L 304.889367 117.463286 
L 305.058188 121.927372 
L 305.275706 134.489858 
L 305.545169 165.019586 
L 306.152273 258.837939 
L 306.24967 252.708958 
L 306.528873 207.054823 
L 307.028841 140.37386 
L 307.369728 119.341994 
L 307.584 116.076985 
L 307.626205 116.169316 
L 307.723601 117.173614 
L 307.895668 121.644335 
L 308.11968 134.054318 
L 308.39239 163.605362 
L 309.018973 258.722032 
L 309.126109 251.785792 
L 309.444271 200.120448 
L 309.928006 138.820309 
L 310.2624 119.342429 
L 310.473425 116.337547 
L 310.499398 116.360852 
L 310.518877 116.428833 
L 310.616273 117.404842 
L 310.785094 121.773904 
L 310.999366 133.898145 
L 311.268829 163.933509 
L 311.882426 258.841252 
L 311.986316 252.067693 
L 312.294737 201.167962 
L 312.775226 139.011751 
L 313.10962 119.078835 
L 313.317399 116.081226 
L 313.359604 116.184556 
L 313.460247 117.266106 
L 313.635561 121.977203 
L 313.859572 134.739776 
L 314.135529 165.31174 
L 314.752372 258.724363 
L 314.849769 252.659366 
L 315.125725 208.413601 
L 315.635433 140.942005 
L 315.97632 119.87702 
L 316.197085 116.347921 
L 316.216564 116.341245 
L 316.252276 116.442115 
L 316.352919 117.494721 
L 316.524986 122.110534 
L 316.742505 134.860773 
L 317.015215 166.163775 
L 317.615825 258.842372 
L 317.709975 252.945847 
L 317.979439 209.083869 
L 318.4859 140.863609 
L 318.830033 119.415707 
L 319.044305 116.085174 
L 319.067031 116.102324 
L 319.089757 116.181855 
L 319.1904 117.251408 
L 319.365713 121.93973 
L 319.589725 134.661776 
L 319.862435 164.707416 
L 320.482525 258.724887 
L 320.583168 252.402151 
L 320.872111 205.84508 
L 321.372079 140.443581 
L 321.712966 119.702975 
L 321.930484 116.345139 
L 321.949964 116.343505 
L 321.982429 116.437453 
L 322.083072 117.478621 
L 322.251892 121.947493 
L 322.469411 134.518305 
L 322.738874 165.062634 
L 323.345978 258.842808 
L 323.443375 252.686296 
L 323.722577 207.019756 
L 324.222545 140.360034 
L 324.563433 119.343314 
L 324.777705 116.084061 
L 324.81991 116.177289 
L 324.917306 117.183736 
L 325.089373 121.65965 
L 325.313385 134.080657 
L 325.586095 163.647482 
L 326.212678 258.724234 
L 326.319814 251.757384 
L 326.637975 200.081788 
L 327.121711 138.803421 
L 327.456105 119.338908 
L 327.66713 116.34062 
L 327.693103 116.364672 
L 327.712582 116.433214 
L 327.809978 117.412144 
L 327.978799 121.787389 
L 328.193071 133.92249 
L 328.462534 163.97339 
L 329.076131 258.842361 
L 329.18002 252.037033 
L 329.488442 201.126591 
L 329.968931 138.990066 
L 330.303325 119.072744 
L 330.511104 116.083363 
L 330.553309 116.187984 
L 330.653952 117.272282 
L 330.829265 121.988299 
L 331.053277 134.760771 
L 331.329233 165.349859 
L 331.946077 258.723914 
L 332.043473 252.630096 
L 332.322676 207.821221 
L 332.829137 140.918848 
L 333.170025 119.869518 
L 333.39079 116.348092 
L 333.410269 116.34196 
L 333.445981 116.443796 
L 333.546624 117.499087 
L 333.718691 122.12054 
L 333.936209 134.882061 
L 334.208919 166.202576 
L 334.80953 258.841617 
L 334.90368 252.916192 
L 335.173143 209.039172 
L 335.679604 140.840525 
L 336.023738 119.407258 
L 336.23801 116.084894 
L 336.263983 116.110492 
L 336.283462 116.183076 
L 336.384105 117.255797 
L 336.559418 121.949918 
L 336.78343 134.682058 
L 337.05614 164.743538 
L 337.67623 258.724832 
L 337.776873 252.372644 
L 338.065815 205.802402 
L 338.565783 140.420475 
L 338.906671 119.694945 
L 339.124189 116.344979 
L 339.143668 116.343934 
L 339.176134 116.438836 
L 339.276777 117.482876 
L 339.445597 121.957227 
L 339.663116 134.538524 
L 339.932579 165.09969 
L 340.539683 258.84277 
L 340.637079 252.656974 
L 340.919529 206.419802 
L 341.41625 140.336906 
L 341.757137 119.335432 
L 341.971409 116.083825 
L 342.013615 116.178292 
L 342.111011 117.187487 
L 342.286324 121.789723 
L 342.510336 134.350863 
L 342.783046 164.141144 
L 343.406383 258.724506 
L 343.510272 252.11129 
L 343.812201 203.257465 
L 344.305676 139.638078 
L 344.643316 119.525413 
L 344.857588 116.342677 
L 344.877068 116.34671 
L 344.906287 116.434213 
L 345.006929 117.466997 
L 345.17575 121.919283 
L 345.393268 134.458366 
L 345.662732 164.95382 
L 346.269836 258.842612 
L 346.370479 252.393759 
L 346.662668 204.374416 
L 347.152896 139.838478 
L 347.490537 119.26469 
L 347.701562 116.084187 
L 347.737274 116.145887 
L 347.743767 116.173563 
L 347.841164 117.171672 
L 348.013231 121.632005 
L 348.237242 134.023718 
L 348.509952 163.542963 
L 349.139782 258.723395 
L 349.243671 251.846002 
L 349.558586 200.737494 
L 350.045568 138.868392 
L 350.379962 119.360675 
L 350.594234 116.339369 
L 350.639686 116.444959 
L 350.740329 117.503085 
L 350.912396 122.130277 
L 351.129914 134.902681 
L 351.402624 166.240129 
L 352.003235 258.841045 
L 352.094138 253.254375 
L 352.350615 211.807406 
L 352.866816 141.418581 
L 353.21095 119.610503 
L 353.428468 116.087254 
L 353.447948 116.091586 
L 353.477167 116.184316 
L 353.577809 117.259994 
L 353.753123 121.959657 
L 353.977135 134.701971 
L 354.249844 164.779555 
L 354.869935 258.724737 
L 354.970577 252.343427 
L 355.25952 205.759959 
L 355.759488 140.397633 
L 356.100375 119.68706 
L 356.317894 116.344742 
L 356.337373 116.344269 
L 356.369839 116.440104 
L 356.470481 117.486992 
L 356.639302 121.966916 
L 356.85682 134.558906 
L 357.126284 165.136797 
L 357.733388 258.842622 
L 357.830784 252.627577 
L 358.113233 206.376449 
L 358.609955 140.313872 
L 358.950842 119.327474 
L 359.165114 116.08374 
L 359.207319 116.179489 
L 359.307962 117.243727 
L 359.483276 121.921728 
L 359.707287 134.623706 
L 359.979997 164.637534 
L 360.600087 258.724733 
L 360.703977 252.081597 
L 361.005905 203.215364 
L 361.49938 139.615611 
L 361.837021 119.517703 
L 362.051293 116.342443 
L 362.070772 116.347049 
L 362.099991 116.435393 
L 362.200634 117.471038 
L 362.369455 121.928922 
L 362.586973 134.478702 
L 362.856436 164.99083 
L 363.46354 258.842797 
L 363.560937 252.743274 
L 363.836893 207.661489 
L 364.336861 140.70224 
L 364.680995 119.359129 
L 364.895267 116.084093 
L 364.937472 116.174757 
L 365.034868 117.175671 
L 365.206935 121.641326 
L 365.430947 134.043113 
L 365.703657 163.578565 
L 366.33024 258.723353 
L 366.437376 251.815866 
L 366.752291 200.695789 
L 367.239273 138.846274 
L 367.573667 119.353194 
L 367.784692 116.340729 
L 367.810665 116.36332 
L 367.830144 116.430789 
L 367.92754 117.404422 
L 368.096361 121.769002 
L 368.310633 133.883857 
L 368.580096 163.902185 
L 369.193693 258.841548 
L 369.297583 252.096003 
L 369.602758 201.754744 
L 370.086493 139.033297 
L 370.424134 118.989945 
L 370.628666 116.083456 
L 370.631913 116.083638 
L 370.677364 116.220121 
L 370.7845 117.486858 
L 370.966307 122.739806 
L 371.193565 136.564791 
L 371.476015 169.559124 
L 372.063639 258.724527 
L 372.148049 254.084267 
L 372.372061 219.579291 
L 372.92722 142.771542 
L 373.277847 120.207518 
L 373.501859 116.361038 
L 373.524585 116.339641 
L 373.570036 116.474957 
L 373.677172 117.709595 
L 373.852486 122.750423 
L 374.073251 136.470653 
L 374.352454 170.04951 
L 374.927092 258.842357 
L 375.008256 254.376132 
L 375.225775 220.464472 
L 375.777687 142.713412 
L 376.128314 119.854605 
L 376.349079 116.092174 
L 376.368559 116.086904 
L 376.404271 116.196979 
L 376.50816 117.356077 
L 376.68672 122.308274 
L 376.913978 135.679834 
L 377.193181 167.487453 
L 377.793792 258.724866 
L 377.884695 253.510208 
L 378.128186 215.274288 
L 378.663866 142.25517 
L 379.011247 120.131744 
L 379.235258 116.356217 
L 379.257984 116.340796 
L 379.296943 116.452441 
L 379.400832 117.581174 
L 379.572899 122.316461 
L 379.790417 135.292499 
L 380.063127 166.946572 
L 380.657245 258.842888 
L 380.748148 253.447638 
L 380.998132 213.241227 
L 381.51758 141.885383 
L 381.86496 119.668431 
L 382.082479 116.089156 
L 382.098711 116.086035 
L 382.134423 116.191844 
L 382.235066 117.284792 
L 382.41038 122.017173 
L 382.634391 134.820377 
L 382.910348 165.458822 
L 383.523945 258.723832 
L 383.624588 252.543544 
L 383.907037 207.145015 
L 384.413498 140.554989 
L 384.754385 119.741788 
L 384.971904 116.346949 
L 384.991383 116.342534 
L 385.027095 116.447442 
L 385.127738 117.511278 
L 385.299805 122.14996 
L 385.517324 134.944012 
L 385.790033 166.315236 
L 386.387398 258.841999 
L 386.481548 253.197647 
L 386.741271 211.155438 
L 387.254225 141.371412 
L 387.598359 119.593728 
L 387.815878 116.086773 
L 387.835357 116.092323 
L 387.864576 116.186826 
L 387.965219 117.268328 
L 388.140532 121.979007 
L 388.364544 134.741797 
L 388.6405 165.31575 
L 389.257344 258.724223 
L 389.35474 252.657057 
L 389.630697 208.41025 
L 390.140404 140.940453 
L 390.481292 119.877154 
L 390.702057 116.348367 
L 390.721536 116.34169 
L 390.757248 116.442553 
L 390.857891 117.495147 
L 391.029958 122.111229 
L 391.247476 134.862702 
L 391.520186 166.16742 
L 392.120797 258.841997 
L 392.214947 252.943277 
L 392.48441 209.080142 
L 392.990871 140.862503 
L 393.335005 119.414789 
L 393.549277 116.08502 
L 393.572003 116.102282 
L 393.594729 116.181926 
L 393.695372 117.25198 
L 393.870685 121.940985 
L 394.094697 134.663433 
L 394.367407 164.709628 
L 394.987497 258.72491 
L 395.08814 252.40008 
L 395.377082 205.84237 
L 395.87705 140.441935 
L 396.217937 119.702444 
L 396.435456 116.345335 
L 396.454935 116.343752 
L 396.487401 116.437777 
L 396.588044 117.47913 
L 396.756864 121.948199 
L 396.974383 134.519404 
L 397.243846 165.064933 
L 397.85095 258.842888 
L 397.948346 252.684624 
L 398.227549 207.016961 
L 398.487273 167.151535 
L 398.487273 167.151535 
" style="fill:none;stroke:#1f77b4;stroke-linecap:square;stroke-width:1.5;"/>
   </g>
   <g id="patch_3">
    <path d="M 57.6 307.584 
L 57.6 41.472 
" style="fill:none;stroke:#000000;stroke-linecap:square;stroke-linejoin:miter;stroke-width:0.8;"/>
   </g>
   <g id="patch_4">
    <path d="M 414.72 307.584 
L 414.72 41.472 
" style="fill:none;stroke:#000000;stroke-linecap:square;stroke-linejoin:miter;stroke-width:0.8;"/>
   </g>
   <g id="patch_5">
    <path d="M 57.6 307.584 
L 414.72 307.584 
" style="fill:none;stroke:#000000;stroke-linecap:square;stroke-linejoin:miter;stroke-width:0.8;"/>
   </g>
   <g id="patch_6">
    <path d="M 57.6 41.472 
L 414.72 41.472 
" style="fill:none;stroke:#000000;stroke-linecap:square;stroke-linejoin:miter;stroke-width:0.8;"/>
   </g>
  </g>
 </g>
 <defs>
  <clipPath id="p2e334ab3c6">
   <rect height="266.112" width="357.12" x="57.6" y="41.472"/>
  </clipPath>
 </defs>
</svg>
