<?xml version="1.0" encoding="utf-8" standalone="no"?>
<!DOCTYPE svg PUBLIC "-//W3C//DTD SVG 1.1//EN"
  "http://www.w3.org/Graphics/SVG/1.1/DTD/svg11.dtd">
<!-- Created with matplotlib (https://matplotlib.org/) -->
<svg height="345.6pt" version="1.1" viewBox="0 0 460.8 345.6" width="460.8pt" xmlns="http://www.w3.org/2000/svg" xmlns:xlink="http://www.w3.org/1999/xlink">
 <metadata>
  <rdf:RDF xmlns:cc="http://creativecommons.org/ns#" xmlns:dc="http://purl.org/dc/elements/1.1/" xmlns:rdf="http://www.w3.org/1999/02/22-rdf-syntax-ns#">
   <cc:Work>
    <dc:type rdf:resource="http://purl.org/dc/dcmitype/StillImage"/>
    <dc:date>2020-07-23T21:24:49.906587</dc:date>
    <dc:format>image/svg+xml</dc:format>
    <dc:creator>
     <cc:Agent>
      <dc:title>Matplotlib v3.3.0, https://matplotlib.org/</dc:title>
     </cc:Agent>
    </dc:creator>
   </cc:Work>
  </rdf:RDF>
 </metadata>
 <defs>
  <style type="text/css">*{stroke-linecap:butt;stroke-linejoin:round;}</style>
 </defs>
 <g id="figure_1">
  <g id="patch_1">
   <path d="M 0 345.6 
L 460.8 345.6 
L 460.8 0 
L 0 0 
z
" style="fill:#ffffff;"/>
  </g>
  <g id="axes_1">
   <g id="patch_2">
    <path d="M 57.6 307.584 
L 414.72 307.584 
L 414.72 41.472 
L 57.6 41.472 
z
" style="fill:#ffffff;"/>
   </g>
   <g id="matplotlib.axis_1">
    <g id="xtick_1">
     <g id="line2d_1">
      <defs>
       <path d="M 0 0 
L 0 3.5 
" id="m48db73f9b6" style="stroke:#000000;stroke-width:0.8;"/>
      </defs>
      <g>
       <use style="stroke:#000000;stroke-width:0.8;" x="73.832727" xlink:href="#m48db73f9b6" y="307.584"/>
      </g>
     </g>
     <g id="text_1">
      <!-- $\mathdefault{0}$ -->
      <g transform="translate(71.34206 321.502498)scale(0.1 -0.1)">
       <defs>
        <path d="M 42 31.640625 
C 42 37.75 41.90625 48.125 37.703125 56.109375 
C 34 63.109375 28.09375 65.59375 22.90625 65.59375 
C 18.09375 65.59375 12 63.40625 8.203125 56.203125 
C 4.203125 48.71875 3.796875 39.4375 3.796875 31.640625 
C 3.796875 25.953125 3.90625 17.28125 7 9.671875 
C 11.296875 -0.609375 19 -2 22.90625 -2 
C 27.5 -2 34.5 -0.109375 38.59375 9.375 
C 41.59375 16.28125 42 24.359375 42 31.640625 
z
M 22.90625 -0.40625 
C 16.5 -0.40625 12.703125 5.078125 11.296875 12.6875 
C 10.203125 18.5625 10.203125 27.15625 10.203125 32.75 
C 10.203125 40.4375 10.203125 46.828125 11.5 52.921875 
C 13.40625 61.390625 19 64 22.90625 64 
C 27 64 32.296875 61.296875 34.203125 53.125 
C 35.5 47.4375 35.59375 40.734375 35.59375 32.75 
C 35.59375 26.25 35.59375 18.265625 34.40625 12.375 
C 32.296875 1.484375 26.40625 -0.40625 22.90625 -0.40625 
z
" id="CMR17-48"/>
       </defs>
       <use transform="scale(0.996264)" xlink:href="#CMR17-48"/>
      </g>
     </g>
    </g>
    <g id="xtick_2">
     <g id="line2d_2">
      <g>
       <use style="stroke:#000000;stroke-width:0.8;" x="138.763636" xlink:href="#m48db73f9b6" y="307.584"/>
      </g>
     </g>
     <g id="text_2">
      <!-- $\mathdefault{20000}$ -->
      <g transform="translate(126.310298 321.502498)scale(0.1 -0.1)">
       <defs>
        <path d="M 41.703125 15.453125 
L 39.90625 15.453125 
C 38.90625 8.375 38.09375 7.171875 37.703125 6.5625 
C 37.203125 5.765625 30 5.765625 28.59375 5.765625 
L 9.40625 5.765625 
C 13 9.671875 20 16.75 28.5 24.953125 
C 34.59375 30.734375 41.703125 37.53125 41.703125 47.421875 
C 41.703125 59.21875 32.296875 66 21.796875 66 
C 10.796875 66 4.09375 56.3125 4.09375 47.34375 
C 4.09375 43.4375 7 42.9375 8.203125 42.9375 
C 9.203125 42.9375 12.203125 43.546875 12.203125 47.03125 
C 12.203125 50.109375 9.59375 51 8.203125 51 
C 7.59375 51 7 50.90625 6.59375 50.703125 
C 8.5 59.21875 14.296875 63.40625 20.40625 63.40625 
C 29.09375 63.40625 34.796875 56.515625 34.796875 47.421875 
C 34.796875 38.734375 29.703125 31.25 24 24.75 
L 4.09375 2.28125 
L 4.09375 0 
L 39.296875 0 
z
" id="CMR17-50"/>
       </defs>
       <use transform="scale(0.996264)" xlink:href="#CMR17-50"/>
       <use transform="translate(45.690477 0)scale(0.996264)" xlink:href="#CMR17-48"/>
       <use transform="translate(91.380954 0)scale(0.996264)" xlink:href="#CMR17-48"/>
       <use transform="translate(137.071431 0)scale(0.996264)" xlink:href="#CMR17-48"/>
       <use transform="translate(182.761908 0)scale(0.996264)" xlink:href="#CMR17-48"/>
      </g>
     </g>
    </g>
    <g id="xtick_3">
     <g id="line2d_3">
      <g>
       <use style="stroke:#000000;stroke-width:0.8;" x="203.694545" xlink:href="#m48db73f9b6" y="307.584"/>
      </g>
     </g>
     <g id="text_3">
      <!-- $\mathdefault{40000}$ -->
      <g transform="translate(191.241207 321.502498)scale(0.1 -0.1)">
       <defs>
        <path d="M 33.59375 64.40625 
C 33.59375 66.5 33.5 66.5 31.703125 66.5 
L 2 19.59375 
L 2 17 
L 27.796875 17 
L 27.796875 7.140625 
C 27.796875 3.5 27.59375 2.5 20.59375 2.5 
L 18.703125 2.5 
L 18.703125 0 
C 21.90625 0 27.296875 0 30.703125 0 
C 34.09375 0 39.5 0 42.703125 0 
L 42.703125 2.5 
L 40.796875 2.5 
C 33.796875 2.5 33.59375 3.5 33.59375 7.140625 
L 33.59375 17 
L 43.796875 17 
L 43.796875 19.59375 
L 33.59375 19.59375 
z
M 28.09375 57.859375 
L 28.09375 19.59375 
L 4 19.59375 
z
" id="CMR17-52"/>
       </defs>
       <use transform="scale(0.996264)" xlink:href="#CMR17-52"/>
       <use transform="translate(45.690477 0)scale(0.996264)" xlink:href="#CMR17-48"/>
       <use transform="translate(91.380954 0)scale(0.996264)" xlink:href="#CMR17-48"/>
       <use transform="translate(137.071431 0)scale(0.996264)" xlink:href="#CMR17-48"/>
       <use transform="translate(182.761908 0)scale(0.996264)" xlink:href="#CMR17-48"/>
      </g>
     </g>
    </g>
    <g id="xtick_4">
     <g id="line2d_4">
      <g>
       <use style="stroke:#000000;stroke-width:0.8;" x="268.625455" xlink:href="#m48db73f9b6" y="307.584"/>
      </g>
     </g>
     <g id="text_4">
      <!-- $\mathdefault{60000}$ -->
      <g transform="translate(256.172116 321.502498)scale(0.1 -0.1)">
       <defs>
        <path d="M 10.59375 34 
C 10.59375 57.65625 21.796875 63 28.296875 63 
C 30.40625 63 35.5 62.640625 37.5 59 
C 35.90625 59 32.90625 59 32.90625 55.515625 
C 32.90625 52.828125 35.09375 51.921875 36.5 51.921875 
C 37.40625 51.921875 40.09375 52.3125 40.09375 55.625 
C 40.09375 61.78125 35.09375 65.296875 28.203125 65.296875 
C 16.296875 65.296875 3.796875 52.96875 3.796875 31 
C 3.796875 3.953125 15.09375 -2 23.09375 -2 
C 32.796875 -2 42 6.671875 42 20.046875 
C 42 32.515625 33.90625 41.59375 23.703125 41.59375 
C 17.59375 41.59375 13.09375 37.609375 10.59375 30.625 
z
M 23.09375 0.390625 
C 10.796875 0.390625 10.796875 18.75 10.796875 22.4375 
C 10.796875 29.625 14.203125 40 23.5 40 
C 25.203125 40 30.09375 40 33.40625 33.125 
C 35.203125 29.21875 35.203125 25.140625 35.203125 20.140625 
C 35.203125 14.75 35.203125 10.78125 33.09375 6.78125 
C 30.90625 2.671875 27.703125 0.390625 23.09375 0.390625 
z
" id="CMR17-54"/>
       </defs>
       <use transform="scale(0.996264)" xlink:href="#CMR17-54"/>
       <use transform="translate(45.690477 0)scale(0.996264)" xlink:href="#CMR17-48"/>
       <use transform="translate(91.380954 0)scale(0.996264)" xlink:href="#CMR17-48"/>
       <use transform="translate(137.071431 0)scale(0.996264)" xlink:href="#CMR17-48"/>
       <use transform="translate(182.761908 0)scale(0.996264)" xlink:href="#CMR17-48"/>
      </g>
     </g>
    </g>
    <g id="xtick_5">
     <g id="line2d_5">
      <g>
       <use style="stroke:#000000;stroke-width:0.8;" x="333.556364" xlink:href="#m48db73f9b6" y="307.584"/>
      </g>
     </g>
     <g id="text_5">
      <!-- $\mathdefault{80000}$ -->
      <g transform="translate(321.103026 321.502498)scale(0.1 -0.1)">
       <defs>
        <path d="M 27.203125 35.375 
C 33.5 38.546875 39.90625 43.328125 39.90625 50.984375 
C 39.90625 60.015625 31.09375 65.296875 23 65.296875 
C 13.90625 65.296875 5.90625 58.734375 5.90625 49.6875 
C 5.90625 47.203125 6.5 42.921875 10.40625 39.140625 
C 11.40625 38.15625 15.59375 35.171875 18.296875 33.28125 
C 13.796875 30.984375 3.296875 25.53125 3.296875 14.59375 
C 3.296875 4.359375 13.09375 -2 22.796875 -2 
C 33.5 -2 42.5 5.65625 42.5 15.78125 
C 42.5 24.84375 36.40625 29.015625 32.40625 31.703125 
z
M 14.09375 44.09375 
C 13.296875 44.59375 9.296875 47.671875 9.296875 52.359375 
C 9.296875 58.421875 15.59375 63 22.796875 63 
C 30.703125 63 36.5 57.4375 36.5 50.96875 
C 36.5 41.703125 26.09375 36.421875 25.59375 36.421875 
C 25.5 36.421875 25.40625 36.421875 24.59375 37.03125 
z
M 32.5 23.734375 
C 34 22.640625 38.796875 19.375 38.796875 13.296875 
C 38.796875 5.953125 31.40625 0.390625 23 0.390625 
C 13.90625 0.390625 7 6.84375 7 14.6875 
C 7 22.546875 13.09375 29.09375 20 32.1875 
z
" id="CMR17-56"/>
       </defs>
       <use transform="scale(0.996264)" xlink:href="#CMR17-56"/>
       <use transform="translate(45.690477 0)scale(0.996264)" xlink:href="#CMR17-48"/>
       <use transform="translate(91.380954 0)scale(0.996264)" xlink:href="#CMR17-48"/>
       <use transform="translate(137.071431 0)scale(0.996264)" xlink:href="#CMR17-48"/>
       <use transform="translate(182.761908 0)scale(0.996264)" xlink:href="#CMR17-48"/>
      </g>
     </g>
    </g>
    <g id="xtick_6">
     <g id="line2d_6">
      <g>
       <use style="stroke:#000000;stroke-width:0.8;" x="398.487273" xlink:href="#m48db73f9b6" y="307.584"/>
      </g>
     </g>
     <g id="text_6">
      <!-- $\mathdefault{100000}$ -->
      <g transform="translate(383.543267 321.502498)scale(0.1 -0.1)">
       <defs>
        <path d="M 26.59375 63.40625 
C 26.59375 65.5 26.5 65.5 25.09375 65.5 
C 21.203125 61.1875 15.296875 59.796875 9.703125 59.796875 
C 9.40625 59.796875 8.90625 59.796875 8.796875 59.5 
C 8.703125 59.296875 8.703125 59.09375 8.703125 57 
C 11.796875 57 17 57.59375 21 59.984375 
L 21 7.203125 
C 21 3.6875 20.796875 2.5 12.203125 2.5 
L 9.203125 2.5 
L 9.203125 0 
C 14 0 19 0 23.796875 0 
C 28.59375 0 33.59375 0 38.40625 0 
L 38.40625 2.5 
L 35.40625 2.5 
C 26.796875 2.5 26.59375 3.59375 26.59375 7.15625 
z
" id="CMR17-49"/>
       </defs>
       <use transform="scale(0.996264)" xlink:href="#CMR17-49"/>
       <use transform="translate(45.690477 0)scale(0.996264)" xlink:href="#CMR17-48"/>
       <use transform="translate(91.380954 0)scale(0.996264)" xlink:href="#CMR17-48"/>
       <use transform="translate(137.071431 0)scale(0.996264)" xlink:href="#CMR17-48"/>
       <use transform="translate(182.761908 0)scale(0.996264)" xlink:href="#CMR17-48"/>
       <use transform="translate(228.452386 0)scale(0.996264)" xlink:href="#CMR17-48"/>
      </g>
     </g>
    </g>
   </g>
   <g id="matplotlib.axis_2">
    <g id="ytick_1">
     <g id="line2d_7">
      <defs>
       <path d="M 0 0 
L -3.5 0 
" id="ma9f26a8eaf" style="stroke:#000000;stroke-width:0.8;"/>
      </defs>
      <g>
       <use style="stroke:#000000;stroke-width:0.8;" x="57.6" xlink:href="#ma9f26a8eaf" y="296.664524"/>
      </g>
     </g>
     <g id="text_7">
      <!-- $\mathdefault{0.00}$ -->
      <g transform="translate(32.888586 300.123773)scale(0.1 -0.1)">
       <defs>
        <path d="M 18.40625 4.796875 
C 18.40625 7.6875 16 9.671875 13.59375 9.671875 
C 10.703125 9.671875 8.703125 7.28125 8.703125 4.890625 
C 8.703125 2 11.09375 0 13.5 0 
C 16.40625 0 18.40625 2.390625 18.40625 4.796875 
z
" id="CMMI12-58"/>
       </defs>
       <use transform="scale(0.996264)" xlink:href="#CMR17-48"/>
       <use transform="translate(45.690477 0)scale(0.996264)" xlink:href="#CMMI12-58"/>
       <use transform="translate(72.787654 0)scale(0.996264)" xlink:href="#CMR17-48"/>
       <use transform="translate(118.478131 0)scale(0.996264)" xlink:href="#CMR17-48"/>
      </g>
     </g>
    </g>
    <g id="ytick_2">
     <g id="line2d_8">
      <g>
       <use style="stroke:#000000;stroke-width:0.8;" x="57.6" xlink:href="#ma9f26a8eaf" y="258.28997"/>
      </g>
     </g>
     <g id="text_8">
      <!-- $\mathdefault{0.02}$ -->
      <g transform="translate(32.888586 261.749219)scale(0.1 -0.1)">
       <use transform="scale(0.996264)" xlink:href="#CMR17-48"/>
       <use transform="translate(45.690477 0)scale(0.996264)" xlink:href="#CMMI12-58"/>
       <use transform="translate(72.787654 0)scale(0.996264)" xlink:href="#CMR17-48"/>
       <use transform="translate(118.478131 0)scale(0.996264)" xlink:href="#CMR17-50"/>
      </g>
     </g>
    </g>
    <g id="ytick_3">
     <g id="line2d_9">
      <g>
       <use style="stroke:#000000;stroke-width:0.8;" x="57.6" xlink:href="#ma9f26a8eaf" y="219.915417"/>
      </g>
     </g>
     <g id="text_9">
      <!-- $\mathdefault{0.04}$ -->
      <g transform="translate(32.888586 223.374666)scale(0.1 -0.1)">
       <use transform="scale(0.996264)" xlink:href="#CMR17-48"/>
       <use transform="translate(45.690477 0)scale(0.996264)" xlink:href="#CMMI12-58"/>
       <use transform="translate(72.787654 0)scale(0.996264)" xlink:href="#CMR17-48"/>
       <use transform="translate(118.478131 0)scale(0.996264)" xlink:href="#CMR17-52"/>
      </g>
     </g>
    </g>
    <g id="ytick_4">
     <g id="line2d_10">
      <g>
       <use style="stroke:#000000;stroke-width:0.8;" x="57.6" xlink:href="#ma9f26a8eaf" y="181.540863"/>
      </g>
     </g>
     <g id="text_10">
      <!-- $\mathdefault{0.06}$ -->
      <g transform="translate(32.888586 185.000112)scale(0.1 -0.1)">
       <use transform="scale(0.996264)" xlink:href="#CMR17-48"/>
       <use transform="translate(45.690477 0)scale(0.996264)" xlink:href="#CMMI12-58"/>
       <use transform="translate(72.787654 0)scale(0.996264)" xlink:href="#CMR17-48"/>
       <use transform="translate(118.478131 0)scale(0.996264)" xlink:href="#CMR17-54"/>
      </g>
     </g>
    </g>
    <g id="ytick_5">
     <g id="line2d_11">
      <g>
       <use style="stroke:#000000;stroke-width:0.8;" x="57.6" xlink:href="#ma9f26a8eaf" y="143.166309"/>
      </g>
     </g>
     <g id="text_11">
      <!-- $\mathdefault{0.08}$ -->
      <g transform="translate(32.888586 146.625559)scale(0.1 -0.1)">
       <use transform="scale(0.996264)" xlink:href="#CMR17-48"/>
       <use transform="translate(45.690477 0)scale(0.996264)" xlink:href="#CMMI12-58"/>
       <use transform="translate(72.787654 0)scale(0.996264)" xlink:href="#CMR17-48"/>
       <use transform="translate(118.478131 0)scale(0.996264)" xlink:href="#CMR17-56"/>
      </g>
     </g>
    </g>
    <g id="ytick_6">
     <g id="line2d_12">
      <g>
       <use style="stroke:#000000;stroke-width:0.8;" x="57.6" xlink:href="#ma9f26a8eaf" y="104.791756"/>
      </g>
     </g>
     <g id="text_12">
      <!-- $\mathdefault{0.10}$ -->
      <g transform="translate(32.888586 108.251005)scale(0.1 -0.1)">
       <use transform="scale(0.996264)" xlink:href="#CMR17-48"/>
       <use transform="translate(45.690477 0)scale(0.996264)" xlink:href="#CMMI12-58"/>
       <use transform="translate(72.787654 0)scale(0.996264)" xlink:href="#CMR17-49"/>
       <use transform="translate(118.478131 0)scale(0.996264)" xlink:href="#CMR17-48"/>
      </g>
     </g>
    </g>
    <g id="ytick_7">
     <g id="line2d_13">
      <g>
       <use style="stroke:#000000;stroke-width:0.8;" x="57.6" xlink:href="#ma9f26a8eaf" y="66.417202"/>
      </g>
     </g>
     <g id="text_13">
      <!-- $\mathdefault{0.12}$ -->
      <g transform="translate(32.888586 69.876452)scale(0.1 -0.1)">
       <use transform="scale(0.996264)" xlink:href="#CMR17-48"/>
       <use transform="translate(45.690477 0)scale(0.996264)" xlink:href="#CMMI12-58"/>
       <use transform="translate(72.787654 0)scale(0.996264)" xlink:href="#CMR17-49"/>
       <use transform="translate(118.478131 0)scale(0.996264)" xlink:href="#CMR17-50"/>
      </g>
     </g>
    </g>
   </g>
   <g id="line2d_14">
    <path clip-path="url(#p970877e757)" d="M 73.832727 104.791756 
L 74.949539 104.888637 
L 74.982004 106.325422 
L 75.043689 125.140354 
L 75.102127 144.773132 
L 75.144332 120.919341 
L 75.251468 102.170411 
L 75.27744 103.797959 
L 75.439767 131.122212 
L 75.491712 118.492149 
L 75.572876 102.450385 
L 75.63456 103.102226 
L 75.777408 107.09068 
L 76.157254 114.945012 
L 76.202705 113.972476 
L 76.459183 103.58648 
L 76.494895 104.154841 
L 76.507881 104.333438 
L 76.5371 103.516401 
L 76.602031 98.880899 
L 76.657222 102.865397 
L 76.787084 109.196874 
L 76.842275 108.600156 
L 76.845521 108.607277 
L 76.848768 108.466624 
L 76.852015 108.465848 
L 76.913699 107.330134 
L 76.96889 108.039143 
L 77.011095 108.429772 
L 77.059793 107.861386 
L 77.163683 105.159573 
L 77.261079 106.48033 
L 77.381201 107.094305 
L 77.384448 106.975304 
L 77.478598 107.479555 
L 77.481844 107.35916 
L 77.511063 107.516608 
L 77.585734 107.210284 
L 77.58898 107.300872 
L 77.722089 106.372968 
L 77.848704 106.919296 
L 77.851951 106.864287 
L 77.855197 106.91643 
L 77.942854 106.615242 
L 77.9461 106.63999 
L 77.994799 106.499162 
L 78.04999 106.722896 
L 78.053236 106.7192 
L 78.082455 106.850587 
L 78.085702 106.841618 
L 78.101935 106.870906 
L 78.183098 106.7499 
L 78.274001 106.692793 
L 78.280495 106.680495 
L 78.355165 106.568417 
L 78.400617 106.633691 
L 78.611642 107.394488 
L 78.614889 107.37367 
L 78.689559 107.562792 
L 78.699299 107.523464 
L 78.702545 107.559846 
L 78.783709 107.292578 
L 78.786956 107.320703 
L 78.920064 106.878554 
L 78.975255 106.927738 
L 79.023953 106.839019 
L 79.0272 106.88363 
L 79.153815 106.594011 
L 79.280431 106.867671 
L 79.283677 106.826007 
L 79.364841 107.186866 
L 79.368087 107.151762 
L 79.501196 107.67241 
L 79.533661 107.689077 
L 79.614825 107.59655 
L 79.618071 107.640358 
L 79.712221 107.407806 
L 79.715468 107.445546 
L 79.803124 107.212805 
L 79.806371 107.25358 
L 79.92 107.156802 
L 79.923247 107.198818 
L 80.023889 107.065826 
L 80.027136 107.102681 
L 80.127779 106.945675 
L 80.147258 106.953604 
L 80.325818 107.860608 
L 80.329065 107.846073 
L 80.37127 108.123897 
L 80.374516 108.100856 
L 80.416721 108.222719 
L 80.478406 108.058116 
L 80.481652 108.081135 
L 80.614761 107.741798 
L 80.715404 107.786253 
L 80.621254 107.741145 
L 80.72839 107.784575 
L 80.848512 107.665612 
L 80.851759 107.691587 
L 80.945908 107.558454 
L 80.949155 107.585124 
L 80.99136 107.54553 
L 81.053044 107.61189 
L 81.056291 107.587891 
L 81.228358 108.188561 
L 81.231604 108.183097 
L 81.25433 108.355972 
L 81.257577 108.35182 
L 81.403671 108.953116 
L 81.410164 108.950737 
L 81.543273 108.736068 
L 81.549766 108.735078 
L 81.682874 108.943805 
L 81.686121 108.928773 
L 81.754298 109.098486 
L 81.757545 109.084418 
L 81.897146 109.361886 
L 81.900393 109.345862 
L 81.988049 109.462341 
L 81.991296 109.446663 
L 82.358156 111.309683 
L 82.361402 111.305016 
L 82.397114 111.433828 
L 82.400361 111.425026 
L 82.552948 111.763546 
L 82.556195 111.757375 
L 82.591907 111.896796 
L 82.595153 111.893468 
L 82.858124 113.228649 
L 82.880849 113.315059 
L 83.351599 116.473654 
L 83.458735 117.087204 
L 83.884032 120.004234 
L 83.997661 120.736292 
L 84.617751 125.795378 
L 84.848256 127.582142 
L 85.533277 133.374147 
L 86.010519 137.400079 
L 88.636975 164.771104 
L 89.425885 174.739117 
L 92.05234 217.05757 
L 93.230836 240.350212 
L 94.659316 271.83813 
L 95.740416 295.488 
L 95.776128 295.22003 
L 96.00014 290.615778 
L 98.792169 231.042956 
L 100.123252 208.774213 
L 101.214092 194.538406 
L 102.246493 184.562653 
L 103.187991 178.341767 
L 103.921711 175.30923 
L 104.421679 174.207677 
L 105.155398 173.501797 
L 105.408628 173.667012 
L 106.217018 174.812855 
L 106.749452 176.357759 
L 107.152023 177.786424 
L 107.872756 181.038313 
L 108.541545 184.7133 
L 110.090147 194.337555 
L 112.752314 211.552331 
L 113.982755 218.015001 
L 115.404742 223.777606 
L 116.433897 226.825596 
L 117.083206 228.357959 
L 118.073402 230.316214 
L 118.725958 231.498224 
L 119.683689 233.148483 
L 121.063471 235.729805 
L 125.345664 244.241776 
L 126.368326 245.283654 
L 126.907252 245.549414 
L 127.251386 245.560426 
L 127.744861 245.439338 
L 128.101981 245.229129 
L 128.588963 244.747934 
L 129.098671 244.092284 
L 130.205743 242.037692 
L 131.364759 239.306415 
L 133.111401 235.028982 
L 134.143802 232.868711 
L 134.984657 231.487581 
L 135.971607 230.368953 
L 136.903366 229.78905 
L 137.695523 229.598563 
L 138.481187 229.626025 
L 139.208413 229.767419 
L 142.243933 230.23856 
L 143.175692 230.113626 
L 144.458077 229.716444 
L 148.305233 228.33543 
L 149.282444 228.312374 
L 150.402502 228.560989 
L 151.395945 229.013554 
L 152.662097 229.827181 
L 156.493021 232.2981 
L 157.632559 232.621877 
L 158.690932 232.698394 
L 159.898647 232.567504 
L 161.96345 232.080129 
L 163.914624 231.70828 
L 165.229475 231.651268 
L 166.901446 231.821856 
L 171.683607 232.418411 
L 173.134813 232.262879 
L 175.446353 231.73769 
L 177.998138 231.195868 
L 179.65063 231.06829 
L 181.533626 231.169812 
L 187.42286 231.710102 
L 189.958412 231.538277 
L 193.351052 231.339355 
L 196.117108 231.450819 
L 203.668573 231.842963 
L 204.752919 231.520026 
L 205.648966 231.343182 
L 206.346973 231.447091 
L 207.398854 231.619245 
L 207.856617 231.431196 
L 208.418269 230.926546 
L 209.158481 230.306334 
L 209.463657 230.320909 
L 209.74286 230.572402 
L 210.0805 231.213721 
L 210.593455 232.749333 
L 211.252503 234.562937 
L 211.492748 234.723873 
L 211.658321 234.573048 
L 211.87584 234.004139 
L 212.184262 232.468563 
L 212.693969 228.566907 
L 213.353018 223.952758 
L 213.609495 223.358395 
L 213.726371 223.440009 
L 213.882205 223.936635 
L 214.115956 225.561471 
L 214.450351 229.685242 
L 215.09966 241.259365 
L 215.492492 246.136648 
L 215.606121 246.447728 
L 215.651572 246.386524 
L 215.758708 245.790256 
L 215.943761 243.222297 
L 216.239197 235.474653 
L 217.005382 206.98829 
L 217.427433 196.570225 
L 217.641705 195.087814 
L 217.644951 195.088554 
L 217.706636 195.236667 
L 217.833251 196.328485 
L 218.054016 200.542931 
L 218.456588 213.328888 
L 219.053952 239.352865 
L 219.797411 281.874565 
L 219.9013 278.668 
L 220.131805 259.028084 
L 221.371985 144.255706 
L 221.586257 141.814453 
L 221.826502 140.355001 
L 222.365428 134.532038 
L 222.456332 134.857485 
L 222.592687 136.694257 
L 222.800465 143.079127 
L 223.095901 160.163996 
L 223.901044 217.33162 
L 223.972468 216.292903 
L 224.10233 209.309503 
L 224.3653 180.322056 
L 224.959418 115.876209 
L 225.475619 96.961143 
L 226.102202 75.011479 
L 226.296995 73.034216 
L 226.316474 73.056976 
L 226.384652 73.50895 
L 226.51776 76.253666 
L 226.722292 85.991084 
L 227.027468 113.111733 
L 227.712489 176.240922 
L 227.718982 176.245438 
L 227.741708 176.101355 
L 227.819625 173.723853 
L 227.985199 160.129043 
L 228.702685 93.219533 
L 229.855209 58.742577 
L 230.014289 57.465486 
L 230.046755 57.537099 
L 230.131165 58.383635 
L 230.280506 62.651596 
L 230.498025 76.413524 
L 230.832419 114.329591 
L 231.293428 161.271973 
L 231.32914 161.631269 
L 231.381085 160.892166 
L 231.494714 154.367395 
L 231.773917 121.484211 
L 232.150516 87.366395 
L 232.491404 76.463454 
L 233.393943 55.465521 
L 233.598476 53.568 
L 233.617955 53.588295 
L 233.686132 54.035283 
L 233.812748 56.725956 
L 234.001047 66.394262 
L 234.267264 93.560596 
L 234.838656 155.565018 
L 234.851642 155.520518 
L 234.906833 154.197765 
L 235.039942 144.320835 
L 235.845085 72.178043 
L 236.237917 65.2808 
L 236.994362 56.708375 
L 237.039814 56.788475 
L 237.04306 56.802185 
L 237.13721 57.746737 
L 237.286551 62.010533 
L 237.491084 75.478409 
L 237.789766 112.972534 
L 238.198831 158.14777 
L 238.224803 158.35088 
L 238.270255 157.646964 
L 238.380637 150.786774 
L 238.663087 114.803896 
L 239.049425 76.638923 
L 239.322135 68.303383 
L 239.617571 65.163861 
L 240.231168 62.137684 
L 240.283113 62.09236 
L 240.328564 62.178416 
L 240.425961 62.928393 
L 240.568809 66.182496 
L 240.750615 76.397239 
L 241.000599 105.608317 
L 241.513553 165.673187 
L 241.520047 165.668382 
L 241.533033 165.573151 
L 241.597964 163.431272 
L 241.753798 148.893965 
L 242.481024 71.620271 
L 242.718022 67.735259 
L 242.899828 67.246917 
L 242.906321 67.248356 
L 243.013457 67.395435 
L 243.224483 68.164239 
L 243.477713 69.922673 
L 243.666013 73.080961 
L 243.854313 80.742509 
L 244.075078 100.69129 
L 244.510115 168.01049 
L 244.734127 184.797867 
L 244.743866 184.754637 
L 244.799057 183.223412 
L 244.935412 171.429889 
L 245.850938 74.783982 
L 246.055471 72.954781 
L 246.117155 72.927631 
L 246.165853 72.987833 
L 246.331427 73.526749 
L 246.555439 75.063389 
L 246.743738 78.142796 
L 246.928791 85.512404 
L 247.149556 104.829078 
L 247.50343 160.116431 
L 247.857303 202.856081 
L 247.873536 202.981228 
L 247.915741 202.284382 
L 248.019631 194.837434 
L 248.305327 152.803957 
L 248.782569 94.462128 
L 249.065018 81.389089 
L 249.240332 79.882223 
L 249.253318 79.887574 
L 249.324742 80.109388 
L 249.490316 81.557253 
L 249.724067 85.699954 
L 249.938339 94.02506 
L 250.17209 113.352349 
L 250.499991 162.555489 
L 250.948015 223.263311 
L 250.97074 223.007015 
L 251.048657 218.558505 
L 251.249943 190.535321 
L 251.847308 108.827 
L 252.152483 93.085498 
L 252.363508 90.667772 
L 252.392727 90.660432 
L 252.434932 90.750756 
L 252.551808 91.561692 
L 252.730368 94.601706 
L 252.931654 102.451444 
L 253.171898 122.173695 
L 253.506292 171.285018 
L 253.964055 235.197769 
L 253.977041 235.099147 
L 254.035479 232.501139 
L 254.19456 212.463059 
L 254.895814 116.888323 
L 255.197743 102.773981 
L 255.363316 101.120434 
L 255.382796 101.144486 
L 255.460713 101.626296 
L 255.619793 104.354951 
L 255.840559 112.444274 
L 256.093789 130.961112 
L 256.418444 173.807869 
L 256.928151 245.634615 
L 256.963863 244.977279 
L 257.06126 237.009247 
L 257.415133 181.478011 
L 257.85991 129.510189 
L 258.168332 114.588457 
L 258.353385 112.557256 
L 258.366371 112.564712 
L 258.428055 112.835252 
L 258.557917 114.638373 
L 258.75271 120.90434 
L 258.992954 136.955194 
L 259.307869 175.479648 
L 259.859782 251.660275 
L 259.90848 250.272472 
L 260.035095 237.052932 
L 260.888937 131.897274 
L 261.171386 122.254726 
L 261.268783 121.639348 
L 261.317481 121.790192 
L 261.427863 123.188897 
L 261.616163 128.933487 
L 261.866147 144.262918 
L 262.184308 179.505213 
L 262.76544 256.003865 
L 262.830371 253.846894 
L 262.982959 236.582578 
L 263.723171 145.787327 
L 264.038086 131.549878 
L 264.197167 129.900517 
L 264.223139 129.943831 
L 264.304303 130.606134 
L 264.460137 134.084326 
L 264.684148 144.79448 
L 264.966598 170.439174 
L 265.421114 236.64602 
L 265.658112 259.177148 
L 265.677591 258.939149 
L 265.752262 254.566503 
L 265.986013 223.165652 
L 266.534679 156.815444 
L 266.875567 138.578831 
L 267.083345 135.642526 
L 267.089839 135.644152 
L 267.138537 135.829074 
L 267.252166 137.425311 
L 267.443712 143.86653 
L 267.703436 161.208628 
L 268.050816 201.544307 
L 268.541044 259.974492 
L 268.570263 259.535693 
L 268.661167 253.375778 
L 268.985821 209.531915 
L 269.469556 157.986667 
L 269.807197 141.64053 
L 269.989004 139.391354 
L 270.008483 139.413019 
L 270.07666 139.87678 
L 270.216262 142.698356 
L 270.430534 152.221216 
L 270.71623 176.290066 
L 271.151267 235.601366 
L 271.417484 261.354851 
L 271.433716 261.201231 
L 271.501894 257.797866 
L 271.706426 232.70696 
L 272.31353 161.629374 
L 272.657664 144.040045 
L 272.855703 141.383528 
L 272.865443 141.388634 
L 272.920634 141.649773 
L 273.044003 143.63727 
L 273.245289 151.125183 
L 273.514752 170.529365 
L 273.891351 216.401647 
L 274.293923 260.532488 
L 274.306909 260.453742 
L 274.365347 258.191161 
L 274.530921 240.498992 
L 275.2549 158.804367 
L 275.586048 143.987521 
L 275.754868 142.109368 
L 275.777594 142.140552 
L 275.852265 142.70771 
L 275.998359 145.895234 
L 276.219124 156.392338 
L 276.511313 182.451592 
L 277.170362 261.208053 
L 277.271005 256.455477 
L 277.517743 224.8614 
L 278.063162 163.039407 
L 278.413789 144.944113 
L 278.618321 142.159066 
L 278.624815 142.162754 
L 278.676759 142.390465 
L 278.793635 144.172316 
L 278.991674 151.25391 
L 279.261137 170.090337 
L 279.631244 214.178737 
L 280.050048 260.081895 
L 280.066281 259.946251 
L 280.134458 256.830692 
L 280.329251 234.439472 
L 280.972067 161.489545 
L 281.316201 144.477511 
L 281.510993 141.96412 
L 281.52398 141.973585 
L 281.582417 142.281536 
L 281.709033 144.429947 
L 281.910319 152.243273 
L 282.179782 172.594073 
L 282.566121 221.66107 
L 282.926487 260.810321 
L 282.94272 260.70436 
L 283.004404 258.037658 
L 283.182964 237.696998 
L 283.848506 160.627292 
L 284.189393 144.085329 
L 284.377693 141.722618 
L 284.393926 141.739561 
L 284.458857 142.147618 
L 284.595212 144.756725 
L 284.809484 153.844672 
L 285.09518 176.832971 
L 285.530217 233.619524 
L 285.80942 259.835027 
L 285.825652 259.723651 
L 285.890583 256.925402 
L 286.075636 236.124036 
L 286.741178 160.496525 
L 287.085312 143.819593 
L 287.273612 141.478808 
L 287.289844 141.495726 
L 287.354775 141.900589 
L 287.49113 144.500637 
L 287.702156 153.493346 
L 287.981359 176.228013 
L 288.403409 232.367645 
L 288.689105 260.685083 
L 288.705338 260.579221 
L 288.767023 257.905752 
L 288.945583 237.523123 
L 289.614371 160.068179 
L 289.952012 143.747685 
L 290.140311 141.412837 
L 290.153297 141.42539 
L 290.214982 141.78132 
L 290.34809 144.194531 
L 290.559116 152.788262 
L 290.838319 174.495055 
L 291.247383 226.89033 
L 291.575284 259.818826 
L 291.585024 259.76155 
L 291.640215 257.807104 
L 291.796049 241.846163 
L 292.558988 156.630181 
L 292.883642 142.883527 
L 293.039476 141.329283 
L 293.068695 141.389955 
L 293.156352 142.223178 
L 293.318679 146.378097 
L 293.552431 158.978676 
L 293.860852 189.40064 
L 294.45497 260.700847 
L 294.526394 258.234229 
L 294.695215 239.480113 
L 295.389975 159.192675 
L 295.724369 143.470141 
L 295.902929 141.342521 
L 295.922409 141.367317 
L 295.993833 141.876772 
L 296.139927 144.940226 
L 296.363939 155.168338 
L 296.656128 180.132452 
L 297.337903 259.855929 
L 297.445039 254.817756 
L 297.701516 222.449842 
L 298.246935 161.898229 
L 298.597562 144.068144 
L 298.802095 141.352113 
L 298.808588 141.35583 
L 298.860532 141.578924 
L 298.977408 143.329799 
L 299.172201 150.254841 
L 299.435171 168.821019 
L 299.798784 212.976204 
L 300.217588 260.741866 
L 300.237068 260.569316 
L 300.308492 256.925696 
L 300.522764 230.558321 
L 301.113635 162.138469 
L 301.461015 144.221854 
L 301.668794 141.387573 
L 301.672041 141.389037 
L 301.720739 141.574983 
L 301.834368 143.187927 
L 302.025914 149.687197 
L 302.288884 167.282142 
L 302.646004 208.557358 
L 303.100521 259.88021 
L 303.123247 259.653511 
L 303.201164 255.46901 
L 303.434915 226.662676 
L 304.006307 162.256528 
L 304.356934 144.220789 
L 304.564713 141.388224 
L 304.571206 141.391353 
L 304.623151 141.610417 
L 304.740026 143.355784 
L 304.931572 150.113564 
L 305.191296 168.205973 
L 305.548416 211.028465 
L 305.980207 260.758281 
L 306.002932 260.535216 
L 306.077603 256.464479 
L 306.308108 227.44493 
L 306.876253 162.221562 
L 307.223633 144.278873 
L 307.431412 141.433204 
L 307.434659 141.434438 
L 307.480111 141.59501 
L 307.587247 143.017271 
L 307.7723 148.952883 
L 308.028777 165.301108 
L 308.372911 203.605908 
L 308.863139 259.886997 
L 308.895604 259.433891 
L 308.989754 253.185031 
L 309.320902 209.798781 
L 309.807884 159.497697 
L 310.145524 143.595691 
L 310.327331 141.414133 
L 310.34681 141.437339 
L 310.418234 141.936146 
L 310.561082 144.885784 
L 310.778601 154.767224 
L 311.064297 179.311788 
L 311.541539 244.239755 
L 311.746071 260.758492 
L 311.772044 260.392743 
L 311.8597 254.75847 
L 312.158383 215.119626 
L 312.658351 160.831835 
L 312.999238 143.951394 
L 313.194031 141.441308 
L 313.20377 141.448614 
L 313.262208 141.749917 
L 313.388823 143.89502 
L 313.593356 151.78355 
L 313.869312 172.309041 
L 314.258897 220.850984 
L 314.629004 259.886388 
L 314.638743 259.829096 
L 314.693935 257.872408 
L 314.849769 241.903199 
L 315.612707 156.703638 
L 315.937361 142.962473 
L 316.089949 141.42171 
L 316.119168 141.473015 
L 316.203578 142.230638 
L 316.362659 146.14089 
L 316.593164 158.162422 
L 316.898339 187.525627 
L 317.508689 260.758334 
L 317.586607 257.815695 
L 317.77166 236.338546 
L 318.420969 160.872088 
L 318.765103 143.883061 
L 318.956649 141.438487 
L 318.969635 141.44976 
L 319.031319 141.800881 
L 319.164428 144.210448 
L 319.375453 152.807124 
L 319.654656 174.497522 
L 320.063721 226.847632 
L 320.391622 259.884954 
L 320.401361 259.832839 
L 320.453306 258.088936 
L 320.602647 243.228993 
L 321.398051 155.311237 
L 321.716212 142.656014 
L 321.855814 141.417056 
L 321.891526 141.507329 
L 321.985676 142.521638 
L 322.154496 147.205275 
L 322.39474 160.985119 
L 322.712902 193.957274 
L 323.271308 260.75789 
L 323.326499 259.267532 
L 323.462854 246.031053 
L 324.297216 153.495502 
L 324.602391 142.349764 
L 324.719267 141.439433 
L 324.761472 141.552761 
L 324.862115 142.743331 
L 325.040675 148.051196 
L 325.290659 163.048245 
L 325.621807 198.202647 
L 326.15424 259.884533 
L 326.196445 259.044268 
L 326.310074 249.954023 
L 327.345722 146.297497 
L 327.589213 141.465392 
L 327.618432 141.414912 
L 327.66713 141.574177 
L 327.774266 142.984443 
L 327.959319 148.956047 
L 328.21255 165.431507 
L 328.553437 204.318863 
L 329.033926 260.756694 
L 329.066391 260.250429 
L 329.160541 253.638065 
L 329.520908 205.171892 
L 329.985164 158.203946 
L 330.316311 143.282723 
L 330.481885 141.438205 
L 330.507857 141.479012 
L 330.585775 142.12201 
L 330.738362 145.619974 
L 330.968867 156.872873 
L 331.270796 184.156348 
L 331.916858 259.884789 
L 332.007761 256.219623 
L 332.21554 231.59317 
L 332.829137 161.762831 
L 333.176518 144.151646 
L 333.38105 141.41581 
L 333.387543 141.419042 
L 333.439488 141.63873 
L 333.556364 143.385068 
L 333.74791 150.148498 
L 334.007633 168.262521 
L 334.368 211.569654 
L 334.796544 260.756506 
L 334.81927 260.524053 
L 334.89394 256.427264 
L 335.124445 227.383 
L 335.692591 162.204104 
L 336.039971 144.273846 
L 336.24775 141.436929 
L 336.250996 141.438347 
L 336.299695 141.623484 
L 336.413324 143.233377 
L 336.60487 149.722663 
L 336.86784 167.298364 
L 337.22496 208.556811 
L 337.679476 259.884514 
L 337.702202 259.661264 
L 337.776873 255.754313 
L 338.000884 228.514284 
L 338.588509 162.048071 
L 338.939136 144.166527 
L 339.143668 141.415569 
L 339.150161 141.418354 
L 339.19886 141.610942 
L 339.312489 143.230597 
L 339.500788 149.652849 
L 339.757265 167.035569 
L 340.107892 208.248889 
L 340.562409 260.756302 
L 340.585135 260.46372 
L 340.666298 255.627818 
L 340.926022 221.918873 
L 341.458455 162.002208 
L 341.805836 144.2013 
L 342.010368 141.437884 
L 342.016861 141.441579 
L 342.068806 141.66757 
L 342.185681 143.434708 
L 342.380474 150.314495 
L 342.646691 168.694175 
L 343.010304 211.65133 
L 343.442095 259.883748 
L 343.461574 259.732794 
L 343.529751 256.55111 
L 343.727791 233.548003 
L 344.360867 161.370234 
L 344.708247 144.008468 
L 344.906287 141.415341 
L 344.916026 141.420801 
L 344.971217 141.680508 
L 345.094586 143.65953 
L 345.292625 151.071099 
L 345.558842 170.588621 
L 345.932195 217.041528 
L 346.325027 260.756858 
L 346.34126 260.609303 
L 346.409437 257.305593 
L 346.610723 233.089679 
L 347.22432 161.802136 
L 347.5717 144.128283 
L 347.772986 141.438181 
L 347.782726 141.445085 
L 347.837917 141.715876 
L 347.961286 143.724965 
L 348.162572 151.259959 
L 348.435281 171.044186 
L 348.815127 217.558446 
L 349.207959 259.884386 
L 349.220945 259.790741 
L 349.28263 257.273469 
L 349.457943 238.05481 
L 350.152704 159.322311 
L 350.490345 143.534285 
L 350.668905 141.415758 
L 350.688384 141.437359 
L 350.756561 141.893621 
L 350.896163 144.674392 
L 351.110435 154.123982 
L 351.392884 177.80784 
L 351.837661 237.848602 
L 352.087645 260.757238 
L 352.107124 260.560059 
L 352.178548 256.839314 
L 352.396067 229.944804 
L 352.980445 162.335678 
L 353.327825 144.322836 
L 353.535604 141.437614 
L 353.542097 141.440353 
L 353.590796 141.634964 
L 353.704425 143.266458 
L 353.895971 149.793703 
L 354.158941 167.431137 
L 354.516061 208.766995 
L 354.970577 259.884866 
L 354.990057 259.69551 
L 355.061481 256.148181 
L 355.272506 231.013851 
L 355.882857 161.694638 
L 356.230237 144.126176 
L 356.434769 141.415895 
L 356.441263 141.419924 
L 356.493207 141.645958 
L 356.610083 143.406593 
L 356.804876 150.355074 
L 357.067846 168.947279 
L 357.431459 213.10418 
L 357.850263 260.757407 
L 357.869743 260.571437 
L 357.941167 256.886193 
L 358.155439 230.489515 
L 358.74631 162.133498 
L 359.09369 144.248899 
L 359.298223 141.437789 
L 359.304716 141.440027 
L 359.353414 141.630905 
L 359.467043 143.253831 
L 359.658589 149.766184 
L 359.921559 167.380243 
L 360.278679 208.686778 
L 360.733196 259.884931 
L 360.755921 259.641835 
L 360.833839 255.412071 
L 361.070836 226.121412 
L 361.638982 162.221923 
L 361.989609 144.23041 
L 362.197388 141.415642 
L 362.200634 141.416739 
L 362.246086 141.573589 
L 362.353222 142.98067 
L 362.538275 148.945548 
L 362.791505 165.410504 
L 363.132393 204.287555 
L 363.612881 260.757095 
L 363.645347 260.258273 
L 363.739497 253.662443 
L 364.099863 205.201921 
L 364.564119 158.220081 
L 364.895267 143.288551 
L 365.060841 141.438041 
L 365.086813 141.477944 
L 365.16473 142.118351 
L 365.317318 145.611756 
L 365.547823 156.85804 
L 365.849751 184.130903 
L 366.495814 259.884774 
L 366.586717 256.237293 
L 366.794496 231.62464 
L 367.408093 161.780621 
L 367.755473 144.157597 
L 367.960006 141.41561 
L 367.966499 141.418669 
L 368.018444 141.637013 
L 368.135319 143.380434 
L 368.326865 150.13838 
L 368.586589 168.242037 
L 368.946956 211.536477 
L 369.3755 260.756467 
L 369.398225 260.529117 
L 369.472896 256.446628 
L 369.703401 227.416357 
L 370.271546 162.221083 
L 370.618927 144.2808 
L 370.826705 141.43792 
L 370.829952 141.439241 
L 370.87865 141.622903 
L 370.992279 143.229222 
L 371.183825 149.712023 
L 371.446796 167.278275 
L 371.803916 208.526029 
L 372.258432 259.884307 
L 372.281158 259.665957 
L 372.355828 255.772838 
L 372.57984 228.546153 
L 373.167465 162.065411 
L 373.518092 144.173308 
L 373.722624 141.415656 
L 373.729117 141.418235 
L 373.777815 141.609295 
L 373.891444 143.225504 
L 374.079744 149.642063 
L 374.336221 167.01594 
L 374.686848 208.216904 
L 375.141364 260.756482 
L 375.16409 260.469004 
L 375.245254 255.648044 
L 375.504977 221.950857 
L 376.037411 162.019678 
L 376.384791 144.207188 
L 376.589324 141.437825 
L 376.595817 141.441345 
L 376.647761 141.665953 
L 376.764637 143.43 
L 376.95943 150.303957 
L 377.225647 168.673568 
L 377.58926 211.619328 
L 378.024297 259.88392 
L 378.040529 259.736653 
L 378.108707 256.567795 
L 378.306746 233.579427 
L 378.943069 161.148808 
L 379.290449 143.929515 
L 379.485242 141.41566 
L 379.498228 141.425263 
L 379.556666 141.734721 
L 379.683281 143.893209 
L 379.884567 151.742669 
L 380.154031 172.144662 
L 380.540369 221.291812 
L 380.903983 260.757087 
L 380.916969 260.662947 
L 380.978653 258.033626 
L 381.157213 237.676317 
L 381.826001 160.153197 
L 382.166889 143.712943 
L 382.351942 141.437863 
L 382.368175 141.455724 
L 382.436352 141.901821 
L 382.575953 144.661377 
L 382.793472 154.114324 
L 383.079168 177.512119 
L 383.523945 236.112183 
L 383.786915 259.884572 
L 383.803148 259.746169 
L 383.871325 256.610253 
L 384.069364 233.659186 
L 384.705687 161.191129 
L 385.053068 143.944607 
L 385.24786 141.415719 
L 385.260847 141.424355 
L 385.319284 141.729498 
L 385.4459 143.878614 
L 385.647185 151.711624 
L 385.916649 172.087642 
L 386.302988 221.206634 
L 386.666601 260.757351 
L 386.679587 260.67071 
L 386.738025 258.292861 
L 386.906845 239.548092 
L 387.601606 159.274362 
L 387.936 143.568303 
L 388.11456 141.437819 
L 388.134039 141.461899 
L 388.205463 141.968512 
L 388.348311 144.92962 
L 388.569076 154.858948 
L 388.861265 179.529408 
L 389.351494 244.770742 
L 389.549533 259.884919 
L 389.575505 259.559116 
L 389.659916 254.540097 
L 389.929379 220.198785 
L 390.461812 161.711566 
L 390.809193 144.132346 
L 391.013725 141.415748 
L 391.020218 141.419584 
L 391.072163 141.6441 
L 391.189039 143.401368 
L 391.383831 150.34385 
L 391.646801 168.926351 
L 392.010415 213.071311 
L 392.429219 260.757294 
L 392.448698 260.575718 
L 392.520122 256.904375 
L 392.734394 230.521748 
L 393.325265 162.15067 
L 393.672646 144.255052 
L 393.877178 141.437841 
L 393.883671 141.439892 
L 393.932369 141.629384 
L 394.045999 143.249096 
L 394.237545 149.755614 
L 394.500515 167.360147 
L 394.857635 208.655244 
L 395.312151 259.884928 
L 395.334877 259.646679 
L 395.412794 255.430998 
L 395.649792 226.153154 
L 396.217937 162.23888 
L 396.568564 144.236726 
L 396.776343 141.41567 
L 396.782836 141.419025 
L 396.834781 141.639715 
L 396.951657 143.388386 
L 397.143203 150.15562 
L 397.402927 168.274189 
L 397.763293 211.586958 
L 398.191837 260.756898 
L 398.214563 260.521606 
L 398.29248 256.139457 
L 398.487273 231.987804 
L 398.487273 231.987804 
" style="fill:none;stroke:#1f77b4;stroke-linecap:square;stroke-width:1.5;"/>
   </g>
   <g id="patch_3">
    <path d="M 57.6 307.584 
L 57.6 41.472 
" style="fill:none;stroke:#000000;stroke-linecap:square;stroke-linejoin:miter;stroke-width:0.8;"/>
   </g>
   <g id="patch_4">
    <path d="M 414.72 307.584 
L 414.72 41.472 
" style="fill:none;stroke:#000000;stroke-linecap:square;stroke-linejoin:miter;stroke-width:0.8;"/>
   </g>
   <g id="patch_5">
    <path d="M 57.6 307.584 
L 414.72 307.584 
" style="fill:none;stroke:#000000;stroke-linecap:square;stroke-linejoin:miter;stroke-width:0.8;"/>
   </g>
   <g id="patch_6">
    <path d="M 57.6 41.472 
L 414.72 41.472 
" style="fill:none;stroke:#000000;stroke-linecap:square;stroke-linejoin:miter;stroke-width:0.8;"/>
   </g>
  </g>
 </g>
 <defs>
  <clipPath id="p970877e757">
   <rect height="266.112" width="357.12" x="57.6" y="41.472"/>
  </clipPath>
 </defs>
</svg>
