<?xml version="1.0" encoding="utf-8" standalone="no"?>
<!DOCTYPE svg PUBLIC "-//W3C//DTD SVG 1.1//EN"
  "http://www.w3.org/Graphics/SVG/1.1/DTD/svg11.dtd">
<!-- Created with matplotlib (https://matplotlib.org/) -->
<svg height="345.6pt" version="1.1" viewBox="0 0 460.8 345.6" width="460.8pt" xmlns="http://www.w3.org/2000/svg" xmlns:xlink="http://www.w3.org/1999/xlink">
 <metadata>
  <rdf:RDF xmlns:cc="http://creativecommons.org/ns#" xmlns:dc="http://purl.org/dc/elements/1.1/" xmlns:rdf="http://www.w3.org/1999/02/22-rdf-syntax-ns#">
   <cc:Work>
    <dc:type rdf:resource="http://purl.org/dc/dcmitype/StillImage"/>
    <dc:date>2020-07-27T11:56:41.271811</dc:date>
    <dc:format>image/svg+xml</dc:format>
    <dc:creator>
     <cc:Agent>
      <dc:title>Matplotlib v3.3.0, https://matplotlib.org/</dc:title>
     </cc:Agent>
    </dc:creator>
   </cc:Work>
  </rdf:RDF>
 </metadata>
 <defs>
  <style type="text/css">*{stroke-linecap:butt;stroke-linejoin:round;}</style>
 </defs>
 <g id="figure_1">
  <g id="patch_1">
   <path d="M 0 345.6 
L 460.8 345.6 
L 460.8 0 
L 0 0 
z
" style="fill:#ffffff;"/>
  </g>
  <g id="axes_1">
   <g id="patch_2">
    <path d="M 57.6 307.584 
L 414.72 307.584 
L 414.72 41.472 
L 57.6 41.472 
z
" style="fill:#ffffff;"/>
   </g>
   <g id="matplotlib.axis_1">
    <g id="xtick_1">
     <g id="line2d_1">
      <defs>
       <path d="M 0 0 
L 0 3.5 
" id="m08bb965bb2" style="stroke:#000000;stroke-width:0.8;"/>
      </defs>
      <g>
       <use style="stroke:#000000;stroke-width:0.8;" x="73.832727" xlink:href="#m08bb965bb2" y="307.584"/>
      </g>
     </g>
     <g id="text_1">
      <!-- $\mathdefault{0}$ -->
      <g transform="translate(71.34206 321.502498)scale(0.1 -0.1)">
       <defs>
        <path d="M 42 31.640625 
C 42 37.75 41.90625 48.125 37.703125 56.109375 
C 34 63.109375 28.09375 65.59375 22.90625 65.59375 
C 18.09375 65.59375 12 63.40625 8.203125 56.203125 
C 4.203125 48.71875 3.796875 39.4375 3.796875 31.640625 
C 3.796875 25.953125 3.90625 17.28125 7 9.671875 
C 11.296875 -0.609375 19 -2 22.90625 -2 
C 27.5 -2 34.5 -0.109375 38.59375 9.375 
C 41.59375 16.28125 42 24.359375 42 31.640625 
z
M 22.90625 -0.40625 
C 16.5 -0.40625 12.703125 5.078125 11.296875 12.6875 
C 10.203125 18.5625 10.203125 27.15625 10.203125 32.75 
C 10.203125 40.4375 10.203125 46.828125 11.5 52.921875 
C 13.40625 61.390625 19 64 22.90625 64 
C 27 64 32.296875 61.296875 34.203125 53.125 
C 35.5 47.4375 35.59375 40.734375 35.59375 32.75 
C 35.59375 26.25 35.59375 18.265625 34.40625 12.375 
C 32.296875 1.484375 26.40625 -0.40625 22.90625 -0.40625 
z
" id="CMR17-48"/>
       </defs>
       <use transform="scale(0.996264)" xlink:href="#CMR17-48"/>
      </g>
     </g>
    </g>
    <g id="xtick_2">
     <g id="line2d_2">
      <g>
       <use style="stroke:#000000;stroke-width:0.8;" x="138.763636" xlink:href="#m08bb965bb2" y="307.584"/>
      </g>
     </g>
     <g id="text_2">
      <!-- $\mathdefault{20000}$ -->
      <g transform="translate(126.310298 321.502498)scale(0.1 -0.1)">
       <defs>
        <path d="M 41.703125 15.453125 
L 39.90625 15.453125 
C 38.90625 8.375 38.09375 7.171875 37.703125 6.5625 
C 37.203125 5.765625 30 5.765625 28.59375 5.765625 
L 9.40625 5.765625 
C 13 9.671875 20 16.75 28.5 24.953125 
C 34.59375 30.734375 41.703125 37.53125 41.703125 47.421875 
C 41.703125 59.21875 32.296875 66 21.796875 66 
C 10.796875 66 4.09375 56.3125 4.09375 47.34375 
C 4.09375 43.4375 7 42.9375 8.203125 42.9375 
C 9.203125 42.9375 12.203125 43.546875 12.203125 47.03125 
C 12.203125 50.109375 9.59375 51 8.203125 51 
C 7.59375 51 7 50.90625 6.59375 50.703125 
C 8.5 59.21875 14.296875 63.40625 20.40625 63.40625 
C 29.09375 63.40625 34.796875 56.515625 34.796875 47.421875 
C 34.796875 38.734375 29.703125 31.25 24 24.75 
L 4.09375 2.28125 
L 4.09375 0 
L 39.296875 0 
z
" id="CMR17-50"/>
       </defs>
       <use transform="scale(0.996264)" xlink:href="#CMR17-50"/>
       <use transform="translate(45.690477 0)scale(0.996264)" xlink:href="#CMR17-48"/>
       <use transform="translate(91.380954 0)scale(0.996264)" xlink:href="#CMR17-48"/>
       <use transform="translate(137.071431 0)scale(0.996264)" xlink:href="#CMR17-48"/>
       <use transform="translate(182.761908 0)scale(0.996264)" xlink:href="#CMR17-48"/>
      </g>
     </g>
    </g>
    <g id="xtick_3">
     <g id="line2d_3">
      <g>
       <use style="stroke:#000000;stroke-width:0.8;" x="203.694545" xlink:href="#m08bb965bb2" y="307.584"/>
      </g>
     </g>
     <g id="text_3">
      <!-- $\mathdefault{40000}$ -->
      <g transform="translate(191.241207 321.502498)scale(0.1 -0.1)">
       <defs>
        <path d="M 33.59375 64.40625 
C 33.59375 66.5 33.5 66.5 31.703125 66.5 
L 2 19.59375 
L 2 17 
L 27.796875 17 
L 27.796875 7.140625 
C 27.796875 3.5 27.59375 2.5 20.59375 2.5 
L 18.703125 2.5 
L 18.703125 0 
C 21.90625 0 27.296875 0 30.703125 0 
C 34.09375 0 39.5 0 42.703125 0 
L 42.703125 2.5 
L 40.796875 2.5 
C 33.796875 2.5 33.59375 3.5 33.59375 7.140625 
L 33.59375 17 
L 43.796875 17 
L 43.796875 19.59375 
L 33.59375 19.59375 
z
M 28.09375 57.859375 
L 28.09375 19.59375 
L 4 19.59375 
z
" id="CMR17-52"/>
       </defs>
       <use transform="scale(0.996264)" xlink:href="#CMR17-52"/>
       <use transform="translate(45.690477 0)scale(0.996264)" xlink:href="#CMR17-48"/>
       <use transform="translate(91.380954 0)scale(0.996264)" xlink:href="#CMR17-48"/>
       <use transform="translate(137.071431 0)scale(0.996264)" xlink:href="#CMR17-48"/>
       <use transform="translate(182.761908 0)scale(0.996264)" xlink:href="#CMR17-48"/>
      </g>
     </g>
    </g>
    <g id="xtick_4">
     <g id="line2d_4">
      <g>
       <use style="stroke:#000000;stroke-width:0.8;" x="268.625455" xlink:href="#m08bb965bb2" y="307.584"/>
      </g>
     </g>
     <g id="text_4">
      <!-- $\mathdefault{60000}$ -->
      <g transform="translate(256.172116 321.502498)scale(0.1 -0.1)">
       <defs>
        <path d="M 10.59375 34 
C 10.59375 57.65625 21.796875 63 28.296875 63 
C 30.40625 63 35.5 62.640625 37.5 59 
C 35.90625 59 32.90625 59 32.90625 55.515625 
C 32.90625 52.828125 35.09375 51.921875 36.5 51.921875 
C 37.40625 51.921875 40.09375 52.3125 40.09375 55.625 
C 40.09375 61.78125 35.09375 65.296875 28.203125 65.296875 
C 16.296875 65.296875 3.796875 52.96875 3.796875 31 
C 3.796875 3.953125 15.09375 -2 23.09375 -2 
C 32.796875 -2 42 6.671875 42 20.046875 
C 42 32.515625 33.90625 41.59375 23.703125 41.59375 
C 17.59375 41.59375 13.09375 37.609375 10.59375 30.625 
z
M 23.09375 0.390625 
C 10.796875 0.390625 10.796875 18.75 10.796875 22.4375 
C 10.796875 29.625 14.203125 40 23.5 40 
C 25.203125 40 30.09375 40 33.40625 33.125 
C 35.203125 29.21875 35.203125 25.140625 35.203125 20.140625 
C 35.203125 14.75 35.203125 10.78125 33.09375 6.78125 
C 30.90625 2.671875 27.703125 0.390625 23.09375 0.390625 
z
" id="CMR17-54"/>
       </defs>
       <use transform="scale(0.996264)" xlink:href="#CMR17-54"/>
       <use transform="translate(45.690477 0)scale(0.996264)" xlink:href="#CMR17-48"/>
       <use transform="translate(91.380954 0)scale(0.996264)" xlink:href="#CMR17-48"/>
       <use transform="translate(137.071431 0)scale(0.996264)" xlink:href="#CMR17-48"/>
       <use transform="translate(182.761908 0)scale(0.996264)" xlink:href="#CMR17-48"/>
      </g>
     </g>
    </g>
    <g id="xtick_5">
     <g id="line2d_5">
      <g>
       <use style="stroke:#000000;stroke-width:0.8;" x="333.556364" xlink:href="#m08bb965bb2" y="307.584"/>
      </g>
     </g>
     <g id="text_5">
      <!-- $\mathdefault{80000}$ -->
      <g transform="translate(321.103026 321.502498)scale(0.1 -0.1)">
       <defs>
        <path d="M 27.203125 35.375 
C 33.5 38.546875 39.90625 43.328125 39.90625 50.984375 
C 39.90625 60.015625 31.09375 65.296875 23 65.296875 
C 13.90625 65.296875 5.90625 58.734375 5.90625 49.6875 
C 5.90625 47.203125 6.5 42.921875 10.40625 39.140625 
C 11.40625 38.15625 15.59375 35.171875 18.296875 33.28125 
C 13.796875 30.984375 3.296875 25.53125 3.296875 14.59375 
C 3.296875 4.359375 13.09375 -2 22.796875 -2 
C 33.5 -2 42.5 5.65625 42.5 15.78125 
C 42.5 24.84375 36.40625 29.015625 32.40625 31.703125 
z
M 14.09375 44.09375 
C 13.296875 44.59375 9.296875 47.671875 9.296875 52.359375 
C 9.296875 58.421875 15.59375 63 22.796875 63 
C 30.703125 63 36.5 57.4375 36.5 50.96875 
C 36.5 41.703125 26.09375 36.421875 25.59375 36.421875 
C 25.5 36.421875 25.40625 36.421875 24.59375 37.03125 
z
M 32.5 23.734375 
C 34 22.640625 38.796875 19.375 38.796875 13.296875 
C 38.796875 5.953125 31.40625 0.390625 23 0.390625 
C 13.90625 0.390625 7 6.84375 7 14.6875 
C 7 22.546875 13.09375 29.09375 20 32.1875 
z
" id="CMR17-56"/>
       </defs>
       <use transform="scale(0.996264)" xlink:href="#CMR17-56"/>
       <use transform="translate(45.690477 0)scale(0.996264)" xlink:href="#CMR17-48"/>
       <use transform="translate(91.380954 0)scale(0.996264)" xlink:href="#CMR17-48"/>
       <use transform="translate(137.071431 0)scale(0.996264)" xlink:href="#CMR17-48"/>
       <use transform="translate(182.761908 0)scale(0.996264)" xlink:href="#CMR17-48"/>
      </g>
     </g>
    </g>
    <g id="xtick_6">
     <g id="line2d_6">
      <g>
       <use style="stroke:#000000;stroke-width:0.8;" x="398.487273" xlink:href="#m08bb965bb2" y="307.584"/>
      </g>
     </g>
     <g id="text_6">
      <!-- $\mathdefault{100000}$ -->
      <g transform="translate(383.543267 321.502498)scale(0.1 -0.1)">
       <defs>
        <path d="M 26.59375 63.40625 
C 26.59375 65.5 26.5 65.5 25.09375 65.5 
C 21.203125 61.1875 15.296875 59.796875 9.703125 59.796875 
C 9.40625 59.796875 8.90625 59.796875 8.796875 59.5 
C 8.703125 59.296875 8.703125 59.09375 8.703125 57 
C 11.796875 57 17 57.59375 21 59.984375 
L 21 7.203125 
C 21 3.6875 20.796875 2.5 12.203125 2.5 
L 9.203125 2.5 
L 9.203125 0 
C 14 0 19 0 23.796875 0 
C 28.59375 0 33.59375 0 38.40625 0 
L 38.40625 2.5 
L 35.40625 2.5 
C 26.796875 2.5 26.59375 3.59375 26.59375 7.15625 
z
" id="CMR17-49"/>
       </defs>
       <use transform="scale(0.996264)" xlink:href="#CMR17-49"/>
       <use transform="translate(45.690477 0)scale(0.996264)" xlink:href="#CMR17-48"/>
       <use transform="translate(91.380954 0)scale(0.996264)" xlink:href="#CMR17-48"/>
       <use transform="translate(137.071431 0)scale(0.996264)" xlink:href="#CMR17-48"/>
       <use transform="translate(182.761908 0)scale(0.996264)" xlink:href="#CMR17-48"/>
       <use transform="translate(228.452386 0)scale(0.996264)" xlink:href="#CMR17-48"/>
      </g>
     </g>
    </g>
   </g>
   <g id="matplotlib.axis_2">
    <g id="ytick_1">
     <g id="line2d_7">
      <defs>
       <path d="M 0 0 
L -3.5 0 
" id="m78353d7b6f" style="stroke:#000000;stroke-width:0.8;"/>
      </defs>
      <g>
       <use style="stroke:#000000;stroke-width:0.8;" x="57.6" xlink:href="#m78353d7b6f" y="295.508201"/>
      </g>
     </g>
     <g id="text_7">
      <!-- $\mathdefault{0.00}$ -->
      <g transform="translate(32.888586 298.967451)scale(0.1 -0.1)">
       <defs>
        <path d="M 18.40625 4.796875 
C 18.40625 7.6875 16 9.671875 13.59375 9.671875 
C 10.703125 9.671875 8.703125 7.28125 8.703125 4.890625 
C 8.703125 2 11.09375 0 13.5 0 
C 16.40625 0 18.40625 2.390625 18.40625 4.796875 
z
" id="CMMI12-58"/>
       </defs>
       <use transform="scale(0.996264)" xlink:href="#CMR17-48"/>
       <use transform="translate(45.690477 0)scale(0.996264)" xlink:href="#CMMI12-58"/>
       <use transform="translate(72.787654 0)scale(0.996264)" xlink:href="#CMR17-48"/>
       <use transform="translate(118.478131 0)scale(0.996264)" xlink:href="#CMR17-48"/>
      </g>
     </g>
    </g>
    <g id="ytick_2">
     <g id="line2d_8">
      <g>
       <use style="stroke:#000000;stroke-width:0.8;" x="57.6" xlink:href="#m78353d7b6f" y="255.669096"/>
      </g>
     </g>
     <g id="text_8">
      <!-- $\mathdefault{0.02}$ -->
      <g transform="translate(32.888586 259.128345)scale(0.1 -0.1)">
       <use transform="scale(0.996264)" xlink:href="#CMR17-48"/>
       <use transform="translate(45.690477 0)scale(0.996264)" xlink:href="#CMMI12-58"/>
       <use transform="translate(72.787654 0)scale(0.996264)" xlink:href="#CMR17-48"/>
       <use transform="translate(118.478131 0)scale(0.996264)" xlink:href="#CMR17-50"/>
      </g>
     </g>
    </g>
    <g id="ytick_3">
     <g id="line2d_9">
      <g>
       <use style="stroke:#000000;stroke-width:0.8;" x="57.6" xlink:href="#m78353d7b6f" y="215.82999"/>
      </g>
     </g>
     <g id="text_9">
      <!-- $\mathdefault{0.04}$ -->
      <g transform="translate(32.888586 219.28924)scale(0.1 -0.1)">
       <use transform="scale(0.996264)" xlink:href="#CMR17-48"/>
       <use transform="translate(45.690477 0)scale(0.996264)" xlink:href="#CMMI12-58"/>
       <use transform="translate(72.787654 0)scale(0.996264)" xlink:href="#CMR17-48"/>
       <use transform="translate(118.478131 0)scale(0.996264)" xlink:href="#CMR17-52"/>
      </g>
     </g>
    </g>
    <g id="ytick_4">
     <g id="line2d_10">
      <g>
       <use style="stroke:#000000;stroke-width:0.8;" x="57.6" xlink:href="#m78353d7b6f" y="175.990885"/>
      </g>
     </g>
     <g id="text_10">
      <!-- $\mathdefault{0.06}$ -->
      <g transform="translate(32.888586 179.450134)scale(0.1 -0.1)">
       <use transform="scale(0.996264)" xlink:href="#CMR17-48"/>
       <use transform="translate(45.690477 0)scale(0.996264)" xlink:href="#CMMI12-58"/>
       <use transform="translate(72.787654 0)scale(0.996264)" xlink:href="#CMR17-48"/>
       <use transform="translate(118.478131 0)scale(0.996264)" xlink:href="#CMR17-54"/>
      </g>
     </g>
    </g>
    <g id="ytick_5">
     <g id="line2d_11">
      <g>
       <use style="stroke:#000000;stroke-width:0.8;" x="57.6" xlink:href="#m78353d7b6f" y="136.151779"/>
      </g>
     </g>
     <g id="text_11">
      <!-- $\mathdefault{0.08}$ -->
      <g transform="translate(32.888586 139.611029)scale(0.1 -0.1)">
       <use transform="scale(0.996264)" xlink:href="#CMR17-48"/>
       <use transform="translate(45.690477 0)scale(0.996264)" xlink:href="#CMMI12-58"/>
       <use transform="translate(72.787654 0)scale(0.996264)" xlink:href="#CMR17-48"/>
       <use transform="translate(118.478131 0)scale(0.996264)" xlink:href="#CMR17-56"/>
      </g>
     </g>
    </g>
    <g id="ytick_6">
     <g id="line2d_12">
      <g>
       <use style="stroke:#000000;stroke-width:0.8;" x="57.6" xlink:href="#m78353d7b6f" y="96.312674"/>
      </g>
     </g>
     <g id="text_12">
      <!-- $\mathdefault{0.10}$ -->
      <g transform="translate(32.888586 99.771923)scale(0.1 -0.1)">
       <use transform="scale(0.996264)" xlink:href="#CMR17-48"/>
       <use transform="translate(45.690477 0)scale(0.996264)" xlink:href="#CMMI12-58"/>
       <use transform="translate(72.787654 0)scale(0.996264)" xlink:href="#CMR17-49"/>
       <use transform="translate(118.478131 0)scale(0.996264)" xlink:href="#CMR17-48"/>
      </g>
     </g>
    </g>
    <g id="ytick_7">
     <g id="line2d_13">
      <g>
       <use style="stroke:#000000;stroke-width:0.8;" x="57.6" xlink:href="#m78353d7b6f" y="56.473568"/>
      </g>
     </g>
     <g id="text_13">
      <!-- $\mathdefault{0.12}$ -->
      <g transform="translate(32.888586 59.932817)scale(0.1 -0.1)">
       <use transform="scale(0.996264)" xlink:href="#CMR17-48"/>
       <use transform="translate(45.690477 0)scale(0.996264)" xlink:href="#CMMI12-58"/>
       <use transform="translate(72.787654 0)scale(0.996264)" xlink:href="#CMR17-49"/>
       <use transform="translate(118.478131 0)scale(0.996264)" xlink:href="#CMR17-50"/>
      </g>
     </g>
    </g>
   </g>
   <g id="line2d_14">
    <path clip-path="url(#p47609cb99f)" d="M 73.832727 96.312674 
L 76.124788 96.416011 
L 76.166993 97.507127 
L 76.241664 108.028897 
L 76.316335 120.349263 
L 76.365033 110.863041 
L 76.384512 108.848928 
L 76.436457 118.063865 
L 76.494895 127.574602 
L 76.5371 116.786212 
L 76.634496 89.757831 
L 76.692934 91.511057 
L 76.845521 103.41072 
L 76.96889 115.023014 
L 77.011095 110.839598 
L 77.127971 95.149812 
L 77.192902 95.942378 
L 77.627939 107.090967 
L 77.689623 104.414739 
L 77.800006 97.105414 
L 77.868183 97.809437 
L 78.066223 99.746902 
L 78.105181 99.677021 
L 78.163619 99.556437 
L 78.209071 99.716035 
L 78.296727 101.20483 
L 78.429836 103.747716 
L 78.478534 103.054034 
L 78.644108 98.739906 
L 78.718778 98.878303 
L 78.936297 99.474207 
L 78.972009 99.262491 
L 79.03694 97.014669 
L 79.114857 93.390795 
L 79.170048 95.689353 
L 79.273937 99.926843 
L 79.325882 98.803379 
L 79.442758 94.155503 
L 79.507689 95.574844 
L 79.692742 100.023168 
L 79.712221 99.927449 
L 79.884288 96.791191 
L 79.887535 96.943647 
L 79.955712 96.339059 
L 79.991424 96.725943 
L 79.994671 96.554389 
L 80.069341 98.075464 
L 80.072588 97.930318 
L 80.205696 100.06606 
L 80.225175 100.110917 
L 80.351791 97.837111 
L 80.355037 97.926251 
L 80.423215 96.890696 
L 80.426461 97.031714 
L 80.429708 96.886419 
L 80.523857 97.586704 
L 80.527104 97.488118 
L 80.647226 97.90859 
L 80.650473 97.830959 
L 80.738129 98.270139 
L 80.741376 98.222607 
L 80.842019 98.578759 
L 80.861498 98.567127 
L 80.994607 98.276102 
L 80.997853 98.288879 
L 81.066031 98.236184 
L 81.098496 98.237971 
L 81.25433 98.34914 
L 81.306275 98.2624 
L 81.426397 98.165307 
L 81.429644 98.198144 
L 81.497821 98.129444 
L 81.533533 98.184126 
L 81.53678 98.1458 
L 81.630929 98.346662 
L 81.634176 98.304246 
L 81.669888 98.367577 
L 81.738065 98.271455 
L 81.741312 98.319163 
L 81.854941 98.199783 
L 81.858188 98.243562 
L 81.939351 97.873024 
L 81.942598 97.915471 
L 81.984803 97.79525 
L 82.046487 97.958409 
L 82.049734 97.913076 
L 82.169856 98.177869 
L 82.195828 98.187094 
L 82.283485 98.043221 
L 82.286732 98.091015 
L 82.380881 97.940172 
L 82.390621 97.99412 
L 82.393868 97.943775 
L 82.488017 98.197493 
L 82.491264 98.156831 
L 82.617879 98.48277 
L 82.621126 98.439551 
L 82.695796 98.573935 
L 82.725015 98.506323 
L 82.728262 98.548467 
L 82.809425 98.231253 
L 82.812672 98.263967 
L 82.913315 97.975155 
L 82.936041 98.029997 
L 82.939287 97.988495 
L 83.026944 98.237877 
L 83.030191 98.204038 
L 83.14382 98.467652 
L 83.156806 98.462091 
L 83.283421 98.232503 
L 83.315887 98.219534 
L 83.39705 98.263905 
L 83.445748 98.222586 
L 83.50094 98.290033 
L 83.504186 98.25406 
L 83.630801 98.473193 
L 83.663267 98.487675 
L 83.744431 98.397619 
L 83.747677 98.430693 
L 83.841827 98.28844 
L 83.845073 98.320849 
L 83.965196 98.189384 
L 83.984675 98.185385 
L 84.085318 98.321432 
L 84.088564 98.294907 
L 84.169728 98.500193 
L 84.172975 98.473309 
L 84.241152 98.559108 
L 84.286604 98.530781 
L 84.413219 98.329053 
L 84.416465 98.355649 
L 84.517108 98.266855 
L 84.520355 98.295431 
L 84.614505 98.26446 
L 84.633984 98.267118 
L 84.747613 98.322697 
L 84.75086 98.296317 
L 84.851503 98.357418 
L 84.854749 98.332093 
L 84.974871 98.442262 
L 84.978118 98.42074 
L 85.065775 98.573236 
L 85.069021 98.552154 
L 85.124212 98.609563 
L 85.179404 98.54291 
L 85.18265 98.562506 
L 85.263814 98.388614 
L 85.26706 98.405863 
L 85.393676 98.232679 
L 85.400169 98.231668 
L 85.513798 98.298642 
L 85.517044 98.278587 
L 85.611194 98.351996 
L 85.614441 98.332508 
L 85.741056 98.445104 
L 85.744303 98.427027 
L 85.838452 98.530715 
L 85.841699 98.514484 
L 85.922863 98.656474 
L 85.926109 98.642135 
L 86.007273 98.73948 
L 86.046231 98.714668 
L 86.205312 98.352723 
L 86.208559 98.36475 
L 86.289722 98.241784 
L 86.292969 98.257246 
L 86.354653 98.224873 
L 86.406598 98.248851 
L 86.539706 98.374999 
L 86.542953 98.360654 
L 86.637103 98.435115 
L 86.640349 98.421237 
L 86.786444 98.617935 
L 86.78969 98.608397 
L 86.857868 98.75234 
L 86.861114 98.742799 
L 86.948771 98.838774 
L 86.981236 98.817593 
L 87.172783 98.363651 
L 87.176029 98.371857 
L 87.2507 98.277436 
L 87.253946 98.289821 
L 87.302644 98.273635 
L 87.361082 98.300206 
L 87.494191 98.403392 
L 87.497437 98.39257 
L 87.585094 98.461934 
L 87.58834 98.451828 
L 87.753914 98.704535 
L 87.757161 98.699019 
L 87.812352 98.811318 
L 87.815599 98.804185 
L 87.883776 98.85964 
L 87.929228 98.818205 
L 88.13376 98.34981 
L 88.179212 98.308022 
L 88.234403 98.314902 
L 88.237649 98.305365 
L 88.325306 98.38288 
L 88.328553 98.375746 
L 88.48114 98.540482 
L 88.484387 98.533569 
L 88.559057 98.620599 
L 88.562304 98.614528 
L 88.766836 99.009943 
L 88.770083 99.007176 
L 88.812288 99.086787 
L 88.828521 99.094666 
L 88.870726 99.116387 
L 88.925917 99.054912 
L 88.929164 99.058821 
L 89.114217 98.723515 
L 89.117463 98.729342 
L 89.192134 98.700892 
L 89.231092 98.719995 
L 89.403159 98.91531 
L 89.406406 98.911041 
L 89.474583 98.99755 
L 89.47783 98.993531 
L 89.779759 99.678939 
L 90.211549 99.683557 
L 90.792681 101.271156 
L 91.042665 101.505495 
L 91.763398 103.798639 
L 91.971177 104.233753 
L 93.555491 109.565134 
L 93.873652 110.701905 
L 99.022673 129.682892 
L 99.779119 132.796686 
L 100.571276 136.23413 
L 101.567965 140.771545 
L 103.769123 151.96097 
L 105.993007 165.413497 
L 108.720105 185.37388 
L 109.888861 195.372103 
L 112.038074 216.125565 
L 118.885039 289.577733 
L 119.634991 295.173705 
L 119.683689 295.050369 
L 120.073274 292.900351 
L 120.742063 289.481939 
L 121.579671 287.109626 
L 121.813423 286.967191 
L 122.462732 287.067201 
L 122.670511 287.392409 
L 123.004905 288.40574 
L 123.780829 291.36366 
L 124.498316 295.488 
L 124.563247 295.099082 
L 125.478772 288.448758 
L 128.423389 267.813711 
L 129.566173 263.092031 
L 130.582342 260.621904 
L 131.475142 259.514637 
L 132.082246 259.242941 
L 132.384175 259.166251 
L 133.741231 259.644575 
L 134.137309 259.800455 
L 134.520401 260.011272 
L 135.09504 260.403471 
L 135.517091 260.615068 
L 136.211852 261.036281 
L 136.568972 261.220372 
L 137.218281 261.563998 
L 137.601373 261.726 
L 138.260422 262.024673 
L 138.692212 262.205245 
L 139.28633 262.441747 
L 139.72786 262.617011 
L 140.276527 262.838983 
L 140.708317 262.984341 
L 141.325161 263.231053 
L 141.805649 263.405904 
L 142.351069 263.600601 
L 142.847791 263.768954 
L 143.435415 263.944512 
L 143.915904 264.110553 
L 144.425612 264.245899 
L 144.883375 264.368829 
L 145.458013 264.516395 
L 145.922269 264.629606 
L 146.500154 264.759378 
L 147.016355 264.889766 
L 147.600733 264.99366 
L 148.081222 265.137426 
L 148.691572 265.253971 
L 149.240239 265.465606 
L 151.509574 266.489266 
L 152.162129 266.92147 
L 153.720471 268.156429 
L 155.678138 269.377686 
L 156.603404 269.378447 
L 157.187782 269.041547 
L 157.710476 268.571944 
L 158.590289 267.283958 
L 159.427898 265.565273 
L 160.349917 263.335318 
L 162.654964 258.105981 
L 163.547764 256.806661 
L 164.362647 256.138529 
L 164.934039 256.010338 
L 165.466473 256.051282 
L 166.265123 256.471686 
L 166.846255 257.013479 
L 167.872163 258.20632 
L 172.034234 263.453162 
L 173.154292 264.332131 
L 174.365254 264.911011 
L 176.111895 265.206582 
L 177.215721 265.105027 
L 179.28377 264.582176 
L 182.257606 263.665765 
L 184.854842 263.179861 
L 186.143721 263.190779 
L 190.783034 263.823261 
L 192.85433 263.587537 
L 195.958028 262.360278 
L 196.928745 261.998958 
L 197.707916 261.797211 
L 198.967575 261.638479 
L 199.727267 261.675447 
L 201.42521 261.96318 
L 202.970566 262.602492 
L 205.197696 263.470125 
L 206.194385 263.758924 
L 207.872849 264.154283 
L 208.226723 263.899466 
L 208.720198 263.219385 
L 209.505862 261.70602 
L 210.038295 260.954046 
L 210.414895 260.752768 
L 210.707084 260.841331 
L 211.184326 261.292895 
L 211.61287 261.559691 
L 211.833635 261.461558 
L 212.0544 261.075013 
L 212.333603 260.059736 
L 212.729681 257.644888 
L 214.219846 247.605286 
L 214.473076 247.284499 
L 214.625664 247.384441 
L 214.830196 247.859479 
L 215.17433 249.343705 
L 215.700271 251.439642 
L 215.79442 251.449206 
L 215.823639 251.411131 
L 215.950255 250.982982 
L 216.141801 249.391092 
L 216.417757 244.904062 
L 216.862534 233.359838 
L 218.099468 200.159631 
L 218.596189 191.841602 
L 218.833187 190.591355 
L 218.907857 190.682571 
L 219.034473 191.387109 
L 219.251991 194.123903 
L 219.670796 202.931055 
L 220.040902 208.701103 
L 220.096093 208.819356 
L 220.148038 208.675124 
L 220.25842 207.465678 
L 220.44672 202.403984 
L 220.764881 186.624132 
L 221.660928 140.360127 
L 222.235567 120.748073 
L 222.514769 117.157014 
L 222.576454 117.036719 
L 222.628399 117.140689 
L 222.738781 118.01313 
L 222.927081 121.657638 
L 223.20953 132.229246 
L 224.011427 165.847289 
L 224.030906 165.812371 
L 224.099084 165.131434 
L 224.241932 160.940364 
L 224.508148 145.090678 
L 225.17369 104.717994 
L 225.832739 82.112614 
L 226.219078 75.055812 
L 226.378159 74.267367 
L 226.407377 74.302735 
L 226.491788 74.771972 
L 226.641129 77.14828 
L 226.855401 84.769096 
L 227.167069 105.28336 
L 227.715735 140.305948 
L 227.774173 140.757219 
L 227.826118 140.382086 
L 227.939747 137.146503 
L 228.179991 122.351824 
L 228.764369 87.175933 
L 229.446144 63.716641 
L 229.877935 54.726881 
L 230.069481 53.568 
L 230.085713 53.578157 
L 230.157137 53.854279 
L 230.290246 55.507894 
L 230.481792 61.152375 
L 230.735023 76.211596 
L 231.455756 128.422702 
L 231.5077 127.973937 
L 231.624576 124.053229 
L 231.929751 103.774418 
L 232.364788 81.354501 
L 232.809565 68.834806 
L 233.079028 66.104103 
L 233.150452 66.008898 
L 233.199151 66.083155 
L 233.322519 66.721266 
L 233.585489 69.543753 
L 234.091951 77.441197 
L 234.325702 85.715189 
L 234.627631 106.162282 
L 235.026956 129.444713 
L 235.062668 129.646961 
L 235.114612 129.205395 
L 235.231488 125.26938 
L 235.569129 103.172776 
L 235.929495 87.621116 
L 236.552832 72.433618 
L 236.70542 71.568972 
L 236.734639 71.599965 
L 236.825542 72.058698 
L 237.017088 74.451421 
L 237.429399 82.985698 
L 237.770287 94.121786 
L 238.098188 113.700309 
L 238.588416 141.416048 
L 238.630621 141.651916 
L 238.682566 141.240287 
L 238.796195 137.735528 
L 239.046179 121.254695 
L 239.572119 89.203991 
L 239.977937 76.916162 
L 240.188963 75.258178 
L 240.192209 75.258435 
L 240.250647 75.381209 
L 240.377263 76.339583 
L 240.611014 80.121194 
L 240.945408 89.483096 
L 241.299281 106.014164 
L 241.760291 140.278078 
L 242.104425 158.428048 
L 242.162863 158.869033 
L 242.214807 158.4731 
L 242.328436 155.130801 
L 242.562188 140.081677 
L 243.321879 88.202929 
L 243.604329 82.289412 
L 243.727697 81.774128 
L 243.766656 81.829584 
L 243.870545 82.4464 
L 244.058845 85.197213 
L 244.338048 93.043145 
L 244.675689 109.353397 
L 245.110726 143.028611 
L 245.532777 169.701074 
L 245.610694 170.569046 
L 245.662639 170.209874 
L 245.773021 167.051585 
L 245.997033 152.821937 
L 246.86386 92.593229 
L 247.126831 88.009092 
L 247.207994 87.769045 
L 247.259939 87.869106 
L 247.373568 88.753954 
L 247.568361 92.356573 
L 247.854057 102.368621 
L 248.20793 123.437588 
L 249.01632 176.291944 
L 249.029306 176.268906 
L 249.087744 175.59222 
L 249.220852 170.783424 
L 249.500055 150.689631 
L 250.155857 104.717377 
L 250.441553 97.533048 
L 250.558429 96.950769 
L 250.600634 97.031134 
L 250.704524 97.837735 
L 250.892823 101.378666 
L 251.172026 111.408102 
L 251.535639 133.42471 
L 252.366755 187.981542 
L 252.376495 187.970806 
L 252.425193 187.532316 
L 252.545315 183.86429 
L 252.795299 167.675626 
L 253.551744 116.925017 
L 253.824454 111.065099 
L 253.908864 110.756464 
L 253.960809 110.882533 
L 254.077684 111.982905 
L 254.282217 116.425988 
L 254.571159 128.127448 
L 254.941265 153.269975 
L 255.6133 199.345509 
L 255.661999 199.669941 
L 255.713943 199.290528 
L 255.827572 195.997114 
L 256.06457 181.153604 
L 256.869713 127.828269 
L 257.139177 122.315691 
L 257.213847 122.074325 
L 257.265792 122.203821 
L 257.382668 123.330905 
L 257.583953 127.861833 
L 257.863156 139.899026 
L 258.236509 167.116588 
L 258.843613 210.27135 
L 258.902051 210.755901 
L 258.953996 210.328081 
L 259.070871 206.592064 
L 259.317609 189.786671 
L 260.100026 134.469753 
L 260.392215 127.209667 
L 260.509091 126.618977 
L 260.551296 126.708403 
L 260.655185 127.612693 
L 260.830499 131.465644 
L 261.080483 142.600324 
L 261.440849 170.253233 
L 262.054447 216.52438 
L 262.096652 216.819616 
L 262.148596 216.345516 
L 262.262225 212.29502 
L 262.512209 193.490354 
L 263.239436 138.035675 
L 263.541364 129.447743 
L 263.661487 128.718115 
L 263.703692 128.810341 
L 263.804335 129.762144 
L 263.979648 133.97368 
L 264.232879 146.223831 
L 264.606231 176.850145 
L 265.174377 221.117296 
L 265.223075 221.554041 
L 265.278266 221.013994 
L 265.395142 216.495954 
L 265.661359 195.2211 
L 266.313914 144.43201 
L 266.619089 135.112288 
L 266.739212 134.302754 
L 266.781417 134.398817 
L 266.878813 135.38161 
L 267.054127 139.887015 
L 267.31385 153.212556 
L 267.709929 186.92634 
L 268.21639 225.878266 
L 268.274828 226.487197 
L 268.330019 225.928015 
L 268.450141 221.21202 
L 268.729344 199.009955 
L 269.323462 154.86129 
L 269.615651 146.69342 
L 269.709801 146.196585 
L 269.758499 146.344087 
L 269.865635 147.637294 
L 270.053935 153.138408 
L 270.336384 168.958167 
L 270.81038 210.653397 
L 271.183732 235.240351 
L 271.232431 235.679308 
L 271.287622 235.154894 
L 271.404497 230.768582 
L 271.6837 209.600031 
L 272.264832 168.728412 
L 272.550528 161.299444 
L 272.634938 160.911268 
L 272.683636 161.06152 
L 272.794019 162.417387 
L 272.985565 168.113654 
L 273.274508 184.406778 
L 274.112116 242.874017 
L 274.190033 241.825425 
L 274.339375 234.876888 
L 275.397748 174.65927 
L 275.475665 174.314436 
L 275.52761 174.462822 
L 275.637993 175.775632 
L 275.829539 181.227231 
L 276.124975 197.026088 
L 276.913885 246.693577 
L 276.969076 246.224509 
L 277.089199 242.16903 
L 277.378141 222.638785 
L 277.94304 187.919764 
L 278.222243 181.653327 
L 278.293667 181.395584 
L 278.345612 181.554689 
L 278.459241 182.919571 
L 278.654033 188.471432 
L 278.955962 204.475714 
L 279.689681 247.696083 
L 279.7189 247.566084 
L 279.803311 245.776331 
L 279.99161 235.877967 
L 280.868177 184.212617 
L 281.088943 181.596952 
L 281.134394 181.70118 
L 281.238284 182.757186 
L 281.423337 187.416685 
L 281.709033 201.17792 
L 282.49145 246.108044 
L 282.549888 245.60298 
L 282.673257 241.514187 
L 282.958953 222.585337 
L 283.566057 184.990695 
L 283.851753 178.423635 
L 283.92967 178.106079 
L 283.981615 178.250198 
L 284.091997 179.505763 
L 284.283543 184.744203 
L 284.575732 199.809698 
L 285.338671 245.445607 
L 285.387369 245.086881 
L 285.497751 241.737546 
L 285.747735 225.540593 
L 286.42951 181.559481 
L 286.711959 175.114487 
L 286.789876 174.807978 
L 286.841821 174.96037 
L 286.952204 176.233626 
L 287.14375 181.494368 
L 287.439185 196.773666 
L 288.218356 243.771505 
L 288.267055 243.397711 
L 288.377437 240.032352 
L 288.627421 223.829214 
L 289.318935 179.018539 
L 289.604631 172.49292 
L 289.679302 172.197216 
L 289.731247 172.340496 
L 289.841629 173.60055 
L 290.033175 178.877109 
L 290.322118 193.948513 
L 291.111028 243.173649 
L 291.172713 242.566428 
L 291.299328 237.879381 
L 291.604503 215.888318 
L 292.179142 178.425986 
L 292.471331 171.007715 
L 292.565481 170.534554 
L 292.614179 170.658386 
L 292.721315 171.818056 
L 292.909615 176.817591 
L 293.195311 191.355066 
L 294.0037 241.791144 
L 294.075124 241.028374 
L 294.211479 235.608078 
L 294.555613 210.170858 
L 295.0848 176.782621 
L 295.376989 169.562806 
L 295.464646 169.155141 
L 295.516591 169.302923 
L 295.626973 170.587441 
L 295.818519 175.965863 
L 296.107462 191.334014 
L 296.899619 241.594196 
L 296.958057 241.023878 
L 297.081425 236.533693 
L 297.376861 215.299012 
L 297.961239 176.857005 
L 298.250182 169.585112 
L 298.341085 169.152391 
L 298.389783 169.287199 
L 298.496919 170.48446 
L 298.685219 175.580177 
L 298.970915 190.286541 
L 299.782551 241.34529 
L 299.853975 240.564549 
L 299.99033 235.12293 
L 300.337711 209.519432 
L 300.857158 177.160512 
L 301.142854 170.316235 
L 301.224017 169.96005 
L 301.275962 170.104336 
L 301.386345 171.380245 
L 301.577891 176.729613 
L 301.866833 192.012372 
L 302.658991 242.037278 
L 302.720675 241.457604 
L 302.84729 236.843023 
L 303.152465 215.074647 
L 303.714118 179.025603 
L 304.00306 171.939267 
L 304.087471 171.552099 
L 304.139415 171.693963 
L 304.249798 172.957734 
L 304.441344 178.242224 
L 304.733533 193.451547 
L 305.52569 241.943814 
L 305.577635 241.538474 
L 305.691264 237.996322 
L 305.950988 221.060796 
L 306.603543 179.46252 
L 306.885993 173.041167 
L 306.960663 172.754602 
L 307.012608 172.906886 
L 307.122991 174.19069 
L 307.314537 179.505396 
L 307.606726 194.748861 
L 308.389143 242.330273 
L 308.437841 241.953399 
L 308.551471 238.467509 
L 308.807948 221.863234 
L 309.46375 180.215446 
L 309.742953 173.975521 
L 309.817623 173.696121 
L 309.869568 173.848252 
L 309.979951 175.11383 
L 310.174743 180.448412 
L 310.470179 195.653702 
L 311.24935 241.617955 
L 311.288308 241.381257 
L 311.388951 238.823954 
L 311.609716 226.028839 
L 312.385641 178.298802 
L 312.645364 173.589887 
L 312.690816 173.486446 
L 312.742761 173.634373 
L 312.853143 174.895907 
L 313.044689 180.141808 
L 313.336879 195.215408 
L 314.112803 241.733538 
L 314.161501 241.397977 
L 314.271884 238.170441 
L 314.518621 222.581476 
L 315.213382 178.448333 
L 315.492585 172.399906 
L 315.560762 172.157974 
L 315.615953 172.320071 
L 315.729583 173.66355 
L 315.924375 179.111191 
L 316.223057 194.722377 
L 316.995735 240.84226 
L 317.034694 240.605018 
L 317.135337 238.004608 
L 317.356102 224.943255 
L 318.148259 175.06022 
L 318.411229 170.209075 
L 318.459927 170.100424 
L 318.511872 170.259765 
L 318.625501 171.605235 
L 318.820294 177.109942 
L 319.115729 192.830635 
L 319.891654 240.918462 
L 319.940352 240.574081 
L 320.047488 237.386536 
L 320.287732 221.932748 
L 320.992233 175.928434 
L 321.271436 169.696319 
L 321.346106 169.417066 
L 321.398051 169.570431 
L 321.508433 170.846369 
L 321.69998 176.125756 
L 321.992169 191.325458 
L 322.790819 240.572332 
L 322.84601 240.111324 
L 322.962886 236.296342 
L 323.232349 218.215345 
L 323.871919 176.813524 
L 324.160861 169.926801 
L 324.245271 169.571319 
L 324.293969 169.711228 
L 324.404352 170.968143 
L 324.595898 176.25099 
L 324.884841 191.353206 
L 325.680244 241.112732 
L 325.741929 240.552931 
L 325.865297 236.188379 
L 326.157487 215.741944 
L 326.745111 177.84077 
L 327.034054 170.773123 
L 327.121711 170.375493 
L 327.170409 170.507185 
L 327.277545 171.683966 
L 327.465844 176.699638 
L 327.75154 191.17435 
L 328.563177 240.943203 
L 328.628108 240.300676 
L 328.757969 235.549235 
L 329.069638 213.623104 
L 329.634537 178.096048 
L 329.923479 171.136188 
L 330.007889 170.756914 
L 330.059834 170.900298 
L 330.170217 172.163936 
L 330.361763 177.457987 
L 330.653952 192.765221 
L 331.442863 241.44965 
L 331.494807 241.010429 
L 331.611683 237.202589 
L 331.881146 219.064832 
L 332.510976 178.339977 
L 332.796672 171.551921 
L 332.877836 171.197823 
L 332.92978 171.338663 
L 333.040163 172.590473 
L 333.231709 177.821316 
L 333.523898 192.887184 
L 334.319302 241.169753 
L 334.371247 240.740483 
L 334.488122 237.021822 
L 334.754339 219.461666 
L 335.400401 178.162639 
L 335.686097 171.56436 
L 335.764015 171.250337 
L 335.815959 171.398821 
L 335.926342 172.669466 
L 336.117888 177.96013 
L 336.410077 193.22433 
L 337.195741 241.625714 
L 337.250932 241.171103 
L 337.367808 237.348237 
L 337.637271 219.239868 
L 338.267101 178.605553 
L 338.552797 171.817875 
L 338.637207 171.456472 
L 338.685905 171.591015 
L 338.793041 172.771485 
L 338.981341 177.782912 
L 339.270284 192.404745 
L 340.075427 241.227376 
L 340.137111 240.646831 
L 340.263727 236.195121 
L 340.562409 215.603862 
L 341.146787 178.679859 
L 341.435729 171.676007 
L 341.523386 171.27683 
L 341.575331 171.424723 
L 341.685713 172.694206 
L 341.87726 177.982419 
L 342.169449 193.232009 
L 342.955113 241.575269 
L 343.010304 241.119468 
L 343.12718 237.29608 
L 343.396643 219.190411 
L 344.029719 178.364557 
L 344.315415 171.616283 
L 344.396579 171.265798 
L 344.448524 171.407193 
L 344.558906 172.656045 
L 344.750452 177.871453 
L 345.042641 192.903055 
L 345.838045 241.099241 
L 345.88999 240.669963 
L 346.006865 236.953631 
L 346.273082 219.384117 
L 346.919145 177.936283 
L 347.204841 171.210385 
L 347.289251 170.855371 
L 347.337949 170.993946 
L 347.448332 172.244225 
L 347.639878 177.505109 
L 347.932067 192.749302 
L 348.720977 241.431303 
L 348.776169 240.953539 
L 348.896291 236.916244 
L 349.172247 218.063608 
L 349.789091 178.081443 
L 350.078033 171.068151 
L 350.16569 170.679594 
L 350.214388 170.815805 
L 350.321524 172.002062 
L 350.509824 177.032807 
L 350.798767 191.717257 
L 351.60391 241.023815 
L 351.668841 240.403252 
L 351.798703 235.684613 
L 352.110371 213.753316 
L 352.678516 177.848033 
L 352.967459 170.803981 
L 353.055116 170.397692 
L 353.10706 170.542071 
L 353.217443 171.806151 
L 353.408989 177.096427 
L 353.701178 192.40437 
L 354.490089 241.426469 
L 354.54528 240.965794 
L 354.662156 237.104296 
L 354.931619 218.844339 
L 355.561449 177.925781 
L 355.847145 171.079415 
L 355.931555 170.70664 
L 355.9835 170.853164 
L 356.093882 172.116527 
L 356.285428 177.371175 
L 356.577617 192.503019 
L 357.373021 241.137112 
L 357.428212 240.670707 
L 357.548335 236.712454 
L 357.824291 218.139743 
L 358.447628 178.147546 
L 358.73657 171.248229 
L 358.82098 170.88695 
L 358.869679 171.023249 
L 358.976815 172.215785 
L 359.165114 177.290738 
L 359.45081 191.937069 
L 360.252707 241.583053 
L 360.317638 240.944519 
L 360.4475 236.135583 
L 360.762415 213.722949 
L 361.317574 178.635676 
L 361.606516 171.632481 
L 361.690927 171.250236 
L 361.742871 171.390835 
L 361.853254 172.640795 
L 362.0448 177.865862 
L 362.336989 192.925481 
L 363.132393 241.21341 
L 363.184337 240.783488 
L 363.301213 237.061321 
L 363.56743 219.483338 
L 364.213492 178.125719 
L 364.499188 171.484913 
L 364.580352 171.158073 
L 364.62905 171.297511 
L 364.739433 172.550444 
L 364.930979 177.815218 
L 365.223168 193.05539 
L 366.012079 241.590324 
L 366.064023 241.153514 
L 366.180899 237.356274 
L 366.447116 219.495922 
L 367.083439 178.332134 
L 367.369135 171.562609 
L 367.453545 171.208629 
L 367.502243 171.347942 
L 367.612625 172.595309 
L 367.804172 177.81594 
L 368.096361 192.870088 
L 368.891764 241.167785 
L 368.943709 240.742021 
L 369.060585 237.026622 
L 369.326801 219.445654 
L 369.972864 178.005074 
L 370.25856 171.307593 
L 370.339724 170.964435 
L 370.391668 171.111679 
L 370.502051 172.380525 
L 370.693597 177.672129 
L 370.985786 192.949802 
L 371.77145 241.534575 
L 371.826641 241.091764 
L 371.943517 237.279738 
L 372.21298 219.134265 
L 372.846057 178.171892 
L 373.131753 171.390573 
L 373.216163 171.033118 
L 373.264861 171.170255 
L 373.375244 172.412198 
L 373.56679 177.622958 
L 373.858979 192.670959 
L 374.654383 241.129259 
L 374.709574 240.670203 
L 374.826449 236.889275 
L 375.095913 218.973367 
L 375.735482 177.953451 
L 376.021178 171.212885 
L 376.105588 170.857377 
L 376.154287 170.996324 
L 376.264669 172.248776 
L 376.456215 177.515536 
L 376.748404 192.768018 
L 377.537315 241.502473 
L 377.592506 241.031237 
L 377.712628 237.008057 
L 377.988585 218.189665 
L 378.605428 178.30104 
L 378.894371 171.348882 
L 378.978781 170.979731 
L 379.030726 171.128131 
L 379.141108 172.394438 
L 379.332655 177.648865 
L 379.624844 192.75794 
L 380.417001 241.112659 
L 380.472192 240.673747 
L 380.589068 236.928278 
L 380.855284 219.294798 
L 381.501347 177.838773 
L 381.787043 171.165646 
L 381.868207 170.830132 
L 381.920151 170.982382 
L 382.030534 172.262375 
L 382.22208 177.576338 
L 382.514269 192.897347 
L 383.299933 241.501572 
L 383.355124 241.045393 
L 383.472 237.204448 
L 383.741463 219.013517 
L 384.371293 178.190878 
L 384.656989 171.343474 
L 384.741399 170.96782 
L 384.793344 171.112245 
L 384.903727 172.370371 
L 385.095273 177.612473 
L 385.387462 192.710055 
L 386.182865 241.129471 
L 386.23481 240.702189 
L 386.351686 236.977219 
L 386.617903 219.362204 
L 387.263965 177.888505 
L 387.549661 171.201921 
L 387.630825 170.863686 
L 387.682769 171.014465 
L 387.793152 172.291803 
L 387.984698 177.601177 
L 388.276887 192.911317 
L 389.062551 241.529009 
L 389.117743 241.079251 
L 389.234618 237.25175 
L 389.504081 219.084696 
L 390.133911 178.281336 
L 390.419607 171.440679 
L 390.504017 171.067272 
L 390.555962 171.212985 
L 390.666345 172.473328 
L 390.857891 177.716649 
L 391.15008 192.808737 
L 391.942237 241.155883 
L 391.997428 240.723417 
L 392.114304 236.992565 
L 392.380521 219.387333 
L 393.026583 177.976817 
L 393.312279 171.314768 
L 393.393443 170.982215 
L 393.445388 171.136433 
L 393.55577 172.420759 
L 393.747316 177.741579 
L 394.039505 193.063373 
L 394.825169 241.545274 
L 394.877114 241.130283 
L 394.990743 237.52394 
L 395.250467 220.30224 
L 395.903023 178.048819 
L 396.188719 171.43095 
L 396.266636 171.120223 
L 396.31858 171.270688 
L 396.428963 172.541137 
L 396.620509 177.801446 
L 396.912698 192.912162 
L 397.704855 241.145368 
L 397.7568 240.744822 
L 397.870429 237.225509 
L 398.126906 220.540841 
L 398.487273 193.713937 
L 398.487273 193.713937 
" style="fill:none;stroke:#1f77b4;stroke-linecap:square;stroke-width:1.5;"/>
   </g>
   <g id="patch_3">
    <path d="M 57.6 307.584 
L 57.6 41.472 
" style="fill:none;stroke:#000000;stroke-linecap:square;stroke-linejoin:miter;stroke-width:0.8;"/>
   </g>
   <g id="patch_4">
    <path d="M 414.72 307.584 
L 414.72 41.472 
" style="fill:none;stroke:#000000;stroke-linecap:square;stroke-linejoin:miter;stroke-width:0.8;"/>
   </g>
   <g id="patch_5">
    <path d="M 57.6 307.584 
L 414.72 307.584 
" style="fill:none;stroke:#000000;stroke-linecap:square;stroke-linejoin:miter;stroke-width:0.8;"/>
   </g>
   <g id="patch_6">
    <path d="M 57.6 41.472 
L 414.72 41.472 
" style="fill:none;stroke:#000000;stroke-linecap:square;stroke-linejoin:miter;stroke-width:0.8;"/>
   </g>
  </g>
 </g>
 <defs>
  <clipPath id="p47609cb99f">
   <rect height="266.112" width="357.12" x="57.6" y="41.472"/>
  </clipPath>
 </defs>
</svg>
