<?xml version="1.0" encoding="utf-8" standalone="no"?>
<!DOCTYPE svg PUBLIC "-//W3C//DTD SVG 1.1//EN"
  "http://www.w3.org/Graphics/SVG/1.1/DTD/svg11.dtd">
<!-- Created with matplotlib (https://matplotlib.org/) -->
<svg height="345.6pt" version="1.1" viewBox="0 0 460.8 345.6" width="460.8pt" xmlns="http://www.w3.org/2000/svg" xmlns:xlink="http://www.w3.org/1999/xlink">
 <metadata>
  <rdf:RDF xmlns:cc="http://creativecommons.org/ns#" xmlns:dc="http://purl.org/dc/elements/1.1/" xmlns:rdf="http://www.w3.org/1999/02/22-rdf-syntax-ns#">
   <cc:Work>
    <dc:type rdf:resource="http://purl.org/dc/dcmitype/StillImage"/>
    <dc:date>2020-07-27T11:51:53.696787</dc:date>
    <dc:format>image/svg+xml</dc:format>
    <dc:creator>
     <cc:Agent>
      <dc:title>Matplotlib v3.3.0, https://matplotlib.org/</dc:title>
     </cc:Agent>
    </dc:creator>
   </cc:Work>
  </rdf:RDF>
 </metadata>
 <defs>
  <style type="text/css">*{stroke-linecap:butt;stroke-linejoin:round;}</style>
 </defs>
 <g id="figure_1">
  <g id="patch_1">
   <path d="M 0 345.6 
L 460.8 345.6 
L 460.8 0 
L 0 0 
z
" style="fill:#ffffff;"/>
  </g>
  <g id="axes_1">
   <g id="patch_2">
    <path d="M 57.6 307.584 
L 414.72 307.584 
L 414.72 41.472 
L 57.6 41.472 
z
" style="fill:#ffffff;"/>
   </g>
   <g id="matplotlib.axis_1">
    <g id="xtick_1">
     <g id="line2d_1">
      <defs>
       <path d="M 0 0 
L 0 3.5 
" id="me4cd1059e9" style="stroke:#000000;stroke-width:0.8;"/>
      </defs>
      <g>
       <use style="stroke:#000000;stroke-width:0.8;" x="73.832727" xlink:href="#me4cd1059e9" y="307.584"/>
      </g>
     </g>
     <g id="text_1">
      <!-- $\mathdefault{0}$ -->
      <g transform="translate(71.34206 321.502498)scale(0.1 -0.1)">
       <defs>
        <path d="M 42 31.640625 
C 42 37.75 41.90625 48.125 37.703125 56.109375 
C 34 63.109375 28.09375 65.59375 22.90625 65.59375 
C 18.09375 65.59375 12 63.40625 8.203125 56.203125 
C 4.203125 48.71875 3.796875 39.4375 3.796875 31.640625 
C 3.796875 25.953125 3.90625 17.28125 7 9.671875 
C 11.296875 -0.609375 19 -2 22.90625 -2 
C 27.5 -2 34.5 -0.109375 38.59375 9.375 
C 41.59375 16.28125 42 24.359375 42 31.640625 
z
M 22.90625 -0.40625 
C 16.5 -0.40625 12.703125 5.078125 11.296875 12.6875 
C 10.203125 18.5625 10.203125 27.15625 10.203125 32.75 
C 10.203125 40.4375 10.203125 46.828125 11.5 52.921875 
C 13.40625 61.390625 19 64 22.90625 64 
C 27 64 32.296875 61.296875 34.203125 53.125 
C 35.5 47.4375 35.59375 40.734375 35.59375 32.75 
C 35.59375 26.25 35.59375 18.265625 34.40625 12.375 
C 32.296875 1.484375 26.40625 -0.40625 22.90625 -0.40625 
z
" id="CMR17-48"/>
       </defs>
       <use transform="scale(0.996264)" xlink:href="#CMR17-48"/>
      </g>
     </g>
    </g>
    <g id="xtick_2">
     <g id="line2d_2">
      <g>
       <use style="stroke:#000000;stroke-width:0.8;" x="138.763636" xlink:href="#me4cd1059e9" y="307.584"/>
      </g>
     </g>
     <g id="text_2">
      <!-- $\mathdefault{20000}$ -->
      <g transform="translate(126.310298 321.502498)scale(0.1 -0.1)">
       <defs>
        <path d="M 41.703125 15.453125 
L 39.90625 15.453125 
C 38.90625 8.375 38.09375 7.171875 37.703125 6.5625 
C 37.203125 5.765625 30 5.765625 28.59375 5.765625 
L 9.40625 5.765625 
C 13 9.671875 20 16.75 28.5 24.953125 
C 34.59375 30.734375 41.703125 37.53125 41.703125 47.421875 
C 41.703125 59.21875 32.296875 66 21.796875 66 
C 10.796875 66 4.09375 56.3125 4.09375 47.34375 
C 4.09375 43.4375 7 42.9375 8.203125 42.9375 
C 9.203125 42.9375 12.203125 43.546875 12.203125 47.03125 
C 12.203125 50.109375 9.59375 51 8.203125 51 
C 7.59375 51 7 50.90625 6.59375 50.703125 
C 8.5 59.21875 14.296875 63.40625 20.40625 63.40625 
C 29.09375 63.40625 34.796875 56.515625 34.796875 47.421875 
C 34.796875 38.734375 29.703125 31.25 24 24.75 
L 4.09375 2.28125 
L 4.09375 0 
L 39.296875 0 
z
" id="CMR17-50"/>
       </defs>
       <use transform="scale(0.996264)" xlink:href="#CMR17-50"/>
       <use transform="translate(45.690477 0)scale(0.996264)" xlink:href="#CMR17-48"/>
       <use transform="translate(91.380954 0)scale(0.996264)" xlink:href="#CMR17-48"/>
       <use transform="translate(137.071431 0)scale(0.996264)" xlink:href="#CMR17-48"/>
       <use transform="translate(182.761908 0)scale(0.996264)" xlink:href="#CMR17-48"/>
      </g>
     </g>
    </g>
    <g id="xtick_3">
     <g id="line2d_3">
      <g>
       <use style="stroke:#000000;stroke-width:0.8;" x="203.694545" xlink:href="#me4cd1059e9" y="307.584"/>
      </g>
     </g>
     <g id="text_3">
      <!-- $\mathdefault{40000}$ -->
      <g transform="translate(191.241207 321.502498)scale(0.1 -0.1)">
       <defs>
        <path d="M 33.59375 64.40625 
C 33.59375 66.5 33.5 66.5 31.703125 66.5 
L 2 19.59375 
L 2 17 
L 27.796875 17 
L 27.796875 7.140625 
C 27.796875 3.5 27.59375 2.5 20.59375 2.5 
L 18.703125 2.5 
L 18.703125 0 
C 21.90625 0 27.296875 0 30.703125 0 
C 34.09375 0 39.5 0 42.703125 0 
L 42.703125 2.5 
L 40.796875 2.5 
C 33.796875 2.5 33.59375 3.5 33.59375 7.140625 
L 33.59375 17 
L 43.796875 17 
L 43.796875 19.59375 
L 33.59375 19.59375 
z
M 28.09375 57.859375 
L 28.09375 19.59375 
L 4 19.59375 
z
" id="CMR17-52"/>
       </defs>
       <use transform="scale(0.996264)" xlink:href="#CMR17-52"/>
       <use transform="translate(45.690477 0)scale(0.996264)" xlink:href="#CMR17-48"/>
       <use transform="translate(91.380954 0)scale(0.996264)" xlink:href="#CMR17-48"/>
       <use transform="translate(137.071431 0)scale(0.996264)" xlink:href="#CMR17-48"/>
       <use transform="translate(182.761908 0)scale(0.996264)" xlink:href="#CMR17-48"/>
      </g>
     </g>
    </g>
    <g id="xtick_4">
     <g id="line2d_4">
      <g>
       <use style="stroke:#000000;stroke-width:0.8;" x="268.625455" xlink:href="#me4cd1059e9" y="307.584"/>
      </g>
     </g>
     <g id="text_4">
      <!-- $\mathdefault{60000}$ -->
      <g transform="translate(256.172116 321.502498)scale(0.1 -0.1)">
       <defs>
        <path d="M 10.59375 34 
C 10.59375 57.65625 21.796875 63 28.296875 63 
C 30.40625 63 35.5 62.640625 37.5 59 
C 35.90625 59 32.90625 59 32.90625 55.515625 
C 32.90625 52.828125 35.09375 51.921875 36.5 51.921875 
C 37.40625 51.921875 40.09375 52.3125 40.09375 55.625 
C 40.09375 61.78125 35.09375 65.296875 28.203125 65.296875 
C 16.296875 65.296875 3.796875 52.96875 3.796875 31 
C 3.796875 3.953125 15.09375 -2 23.09375 -2 
C 32.796875 -2 42 6.671875 42 20.046875 
C 42 32.515625 33.90625 41.59375 23.703125 41.59375 
C 17.59375 41.59375 13.09375 37.609375 10.59375 30.625 
z
M 23.09375 0.390625 
C 10.796875 0.390625 10.796875 18.75 10.796875 22.4375 
C 10.796875 29.625 14.203125 40 23.5 40 
C 25.203125 40 30.09375 40 33.40625 33.125 
C 35.203125 29.21875 35.203125 25.140625 35.203125 20.140625 
C 35.203125 14.75 35.203125 10.78125 33.09375 6.78125 
C 30.90625 2.671875 27.703125 0.390625 23.09375 0.390625 
z
" id="CMR17-54"/>
       </defs>
       <use transform="scale(0.996264)" xlink:href="#CMR17-54"/>
       <use transform="translate(45.690477 0)scale(0.996264)" xlink:href="#CMR17-48"/>
       <use transform="translate(91.380954 0)scale(0.996264)" xlink:href="#CMR17-48"/>
       <use transform="translate(137.071431 0)scale(0.996264)" xlink:href="#CMR17-48"/>
       <use transform="translate(182.761908 0)scale(0.996264)" xlink:href="#CMR17-48"/>
      </g>
     </g>
    </g>
    <g id="xtick_5">
     <g id="line2d_5">
      <g>
       <use style="stroke:#000000;stroke-width:0.8;" x="333.556364" xlink:href="#me4cd1059e9" y="307.584"/>
      </g>
     </g>
     <g id="text_5">
      <!-- $\mathdefault{80000}$ -->
      <g transform="translate(321.103026 321.502498)scale(0.1 -0.1)">
       <defs>
        <path d="M 27.203125 35.375 
C 33.5 38.546875 39.90625 43.328125 39.90625 50.984375 
C 39.90625 60.015625 31.09375 65.296875 23 65.296875 
C 13.90625 65.296875 5.90625 58.734375 5.90625 49.6875 
C 5.90625 47.203125 6.5 42.921875 10.40625 39.140625 
C 11.40625 38.15625 15.59375 35.171875 18.296875 33.28125 
C 13.796875 30.984375 3.296875 25.53125 3.296875 14.59375 
C 3.296875 4.359375 13.09375 -2 22.796875 -2 
C 33.5 -2 42.5 5.65625 42.5 15.78125 
C 42.5 24.84375 36.40625 29.015625 32.40625 31.703125 
z
M 14.09375 44.09375 
C 13.296875 44.59375 9.296875 47.671875 9.296875 52.359375 
C 9.296875 58.421875 15.59375 63 22.796875 63 
C 30.703125 63 36.5 57.4375 36.5 50.96875 
C 36.5 41.703125 26.09375 36.421875 25.59375 36.421875 
C 25.5 36.421875 25.40625 36.421875 24.59375 37.03125 
z
M 32.5 23.734375 
C 34 22.640625 38.796875 19.375 38.796875 13.296875 
C 38.796875 5.953125 31.40625 0.390625 23 0.390625 
C 13.90625 0.390625 7 6.84375 7 14.6875 
C 7 22.546875 13.09375 29.09375 20 32.1875 
z
" id="CMR17-56"/>
       </defs>
       <use transform="scale(0.996264)" xlink:href="#CMR17-56"/>
       <use transform="translate(45.690477 0)scale(0.996264)" xlink:href="#CMR17-48"/>
       <use transform="translate(91.380954 0)scale(0.996264)" xlink:href="#CMR17-48"/>
       <use transform="translate(137.071431 0)scale(0.996264)" xlink:href="#CMR17-48"/>
       <use transform="translate(182.761908 0)scale(0.996264)" xlink:href="#CMR17-48"/>
      </g>
     </g>
    </g>
    <g id="xtick_6">
     <g id="line2d_6">
      <g>
       <use style="stroke:#000000;stroke-width:0.8;" x="398.487273" xlink:href="#me4cd1059e9" y="307.584"/>
      </g>
     </g>
     <g id="text_6">
      <!-- $\mathdefault{100000}$ -->
      <g transform="translate(383.543267 321.502498)scale(0.1 -0.1)">
       <defs>
        <path d="M 26.59375 63.40625 
C 26.59375 65.5 26.5 65.5 25.09375 65.5 
C 21.203125 61.1875 15.296875 59.796875 9.703125 59.796875 
C 9.40625 59.796875 8.90625 59.796875 8.796875 59.5 
C 8.703125 59.296875 8.703125 59.09375 8.703125 57 
C 11.796875 57 17 57.59375 21 59.984375 
L 21 7.203125 
C 21 3.6875 20.796875 2.5 12.203125 2.5 
L 9.203125 2.5 
L 9.203125 0 
C 14 0 19 0 23.796875 0 
C 28.59375 0 33.59375 0 38.40625 0 
L 38.40625 2.5 
L 35.40625 2.5 
C 26.796875 2.5 26.59375 3.59375 26.59375 7.15625 
z
" id="CMR17-49"/>
       </defs>
       <use transform="scale(0.996264)" xlink:href="#CMR17-49"/>
       <use transform="translate(45.690477 0)scale(0.996264)" xlink:href="#CMR17-48"/>
       <use transform="translate(91.380954 0)scale(0.996264)" xlink:href="#CMR17-48"/>
       <use transform="translate(137.071431 0)scale(0.996264)" xlink:href="#CMR17-48"/>
       <use transform="translate(182.761908 0)scale(0.996264)" xlink:href="#CMR17-48"/>
       <use transform="translate(228.452386 0)scale(0.996264)" xlink:href="#CMR17-48"/>
      </g>
     </g>
    </g>
   </g>
   <g id="matplotlib.axis_2">
    <g id="ytick_1">
     <g id="line2d_7">
      <defs>
       <path d="M 0 0 
L -3.5 0 
" id="m507fcde384" style="stroke:#000000;stroke-width:0.8;"/>
      </defs>
      <g>
       <use style="stroke:#000000;stroke-width:0.8;" x="57.6" xlink:href="#m507fcde384" y="276.959285"/>
      </g>
     </g>
     <g id="text_7">
      <!-- $\mathdefault{0.02}$ -->
      <g transform="translate(32.888586 280.418535)scale(0.1 -0.1)">
       <defs>
        <path d="M 18.40625 4.796875 
C 18.40625 7.6875 16 9.671875 13.59375 9.671875 
C 10.703125 9.671875 8.703125 7.28125 8.703125 4.890625 
C 8.703125 2 11.09375 0 13.5 0 
C 16.40625 0 18.40625 2.390625 18.40625 4.796875 
z
" id="CMMI12-58"/>
       </defs>
       <use transform="scale(0.996264)" xlink:href="#CMR17-48"/>
       <use transform="translate(45.690477 0)scale(0.996264)" xlink:href="#CMMI12-58"/>
       <use transform="translate(72.787654 0)scale(0.996264)" xlink:href="#CMR17-48"/>
       <use transform="translate(118.478131 0)scale(0.996264)" xlink:href="#CMR17-50"/>
      </g>
     </g>
    </g>
    <g id="ytick_2">
     <g id="line2d_8">
      <g>
       <use style="stroke:#000000;stroke-width:0.8;" x="57.6" xlink:href="#m507fcde384" y="232.011454"/>
      </g>
     </g>
     <g id="text_8">
      <!-- $\mathdefault{0.04}$ -->
      <g transform="translate(32.888586 235.470703)scale(0.1 -0.1)">
       <use transform="scale(0.996264)" xlink:href="#CMR17-48"/>
       <use transform="translate(45.690477 0)scale(0.996264)" xlink:href="#CMMI12-58"/>
       <use transform="translate(72.787654 0)scale(0.996264)" xlink:href="#CMR17-48"/>
       <use transform="translate(118.478131 0)scale(0.996264)" xlink:href="#CMR17-52"/>
      </g>
     </g>
    </g>
    <g id="ytick_3">
     <g id="line2d_9">
      <g>
       <use style="stroke:#000000;stroke-width:0.8;" x="57.6" xlink:href="#m507fcde384" y="187.063622"/>
      </g>
     </g>
     <g id="text_9">
      <!-- $\mathdefault{0.06}$ -->
      <g transform="translate(32.888586 190.522871)scale(0.1 -0.1)">
       <use transform="scale(0.996264)" xlink:href="#CMR17-48"/>
       <use transform="translate(45.690477 0)scale(0.996264)" xlink:href="#CMMI12-58"/>
       <use transform="translate(72.787654 0)scale(0.996264)" xlink:href="#CMR17-48"/>
       <use transform="translate(118.478131 0)scale(0.996264)" xlink:href="#CMR17-54"/>
      </g>
     </g>
    </g>
    <g id="ytick_4">
     <g id="line2d_10">
      <g>
       <use style="stroke:#000000;stroke-width:0.8;" x="57.6" xlink:href="#m507fcde384" y="142.115791"/>
      </g>
     </g>
     <g id="text_10">
      <!-- $\mathdefault{0.08}$ -->
      <g transform="translate(32.888586 145.57504)scale(0.1 -0.1)">
       <use transform="scale(0.996264)" xlink:href="#CMR17-48"/>
       <use transform="translate(45.690477 0)scale(0.996264)" xlink:href="#CMMI12-58"/>
       <use transform="translate(72.787654 0)scale(0.996264)" xlink:href="#CMR17-48"/>
       <use transform="translate(118.478131 0)scale(0.996264)" xlink:href="#CMR17-56"/>
      </g>
     </g>
    </g>
    <g id="ytick_5">
     <g id="line2d_11">
      <g>
       <use style="stroke:#000000;stroke-width:0.8;" x="57.6" xlink:href="#m507fcde384" y="97.167959"/>
      </g>
     </g>
     <g id="text_11">
      <!-- $\mathdefault{0.10}$ -->
      <g transform="translate(32.888586 100.627208)scale(0.1 -0.1)">
       <use transform="scale(0.996264)" xlink:href="#CMR17-48"/>
       <use transform="translate(45.690477 0)scale(0.996264)" xlink:href="#CMMI12-58"/>
       <use transform="translate(72.787654 0)scale(0.996264)" xlink:href="#CMR17-49"/>
       <use transform="translate(118.478131 0)scale(0.996264)" xlink:href="#CMR17-48"/>
      </g>
     </g>
    </g>
    <g id="ytick_6">
     <g id="line2d_12">
      <g>
       <use style="stroke:#000000;stroke-width:0.8;" x="57.6" xlink:href="#m507fcde384" y="52.220127"/>
      </g>
     </g>
     <g id="text_12">
      <!-- $\mathdefault{0.12}$ -->
      <g transform="translate(32.888586 55.679377)scale(0.1 -0.1)">
       <use transform="scale(0.996264)" xlink:href="#CMR17-48"/>
       <use transform="translate(45.690477 0)scale(0.996264)" xlink:href="#CMMI12-58"/>
       <use transform="translate(72.787654 0)scale(0.996264)" xlink:href="#CMR17-49"/>
       <use transform="translate(118.478131 0)scale(0.996264)" xlink:href="#CMR17-50"/>
      </g>
     </g>
    </g>
   </g>
   <g id="line2d_13">
    <path clip-path="url(#p013a7527ca)" d="M 73.832727 97.167959 
L 76.712413 97.265248 
L 76.757865 98.234919 
L 76.832535 106.762927 
L 77.066287 131.230257 
L 77.076026 130.745476 
L 77.121478 111.355139 
L 77.199395 88.880278 
L 77.261079 92.014448 
L 77.462365 119.424638 
L 77.527296 106.92599 
L 77.621446 94.89249 
L 77.673391 95.539014 
L 77.87143 102.117348 
L 78.04025 113.032796 
L 78.095441 109.294118 
L 78.238289 96.947019 
L 78.286988 97.3786 
L 78.757737 106.61976 
L 78.819421 104.717067 
L 78.939543 99.406841 
L 79.004474 99.853851 
L 79.147322 100.910318 
L 79.202513 100.766502 
L 79.306403 100.434469 
L 79.348608 100.611001 
L 79.442758 102.452077 
L 79.56288 104.620765 
L 79.608332 104.05033 
L 79.777152 99.681105 
L 79.864809 100.09642 
L 80.144012 101.313771 
L 80.225175 101.461315 
L 80.260887 101.322049 
L 80.319325 99.80035 
L 80.410228 96.069672 
L 80.471913 97.610944 
L 80.510871 98.22398 
L 80.566063 97.214548 
L 80.666705 94.619884 
L 80.725143 95.560466 
L 80.89721 100.485813 
L 80.952401 100.048893 
L 80.955648 100.109984 
L 81.017332 99.310244 
L 81.020579 99.384528 
L 81.134208 97.906777 
L 81.153687 97.993119 
L 81.306275 100.743757 
L 81.33874 100.937653 
L 81.439383 99.16702 
L 81.44263 99.338122 
L 81.510807 98.356695 
L 81.540026 98.698639 
L 81.543273 98.485137 
L 81.617943 99.0683 
L 81.647162 98.76404 
L 81.650409 98.961318 
L 81.744559 98.185123 
L 81.747805 98.369406 
L 81.757545 98.174583 
L 81.845201 98.811124 
L 81.848448 98.675455 
L 81.96857 99.31227 
L 81.971817 99.191366 
L 82.07246 99.365628 
L 82.075706 99.277502 
L 82.215308 100.288722 
L 82.260759 100.414146 
L 82.387375 99.472641 
L 82.436073 99.02946 
L 82.578921 98.562397 
L 82.582167 98.569457 
L 82.591907 98.567236 
L 82.640605 98.662687 
L 82.643852 98.658432 
L 82.835398 99.419695 
L 82.848384 99.417398 
L 82.877603 99.375004 
L 82.94578 99.507525 
L 82.949027 99.47382 
L 83.095121 100.082608 
L 83.098368 100.043283 
L 83.166545 100.216507 
L 83.202257 100.107987 
L 83.205504 100.150794 
L 83.273681 99.661342 
L 83.276928 99.686786 
L 83.423023 98.662145 
L 83.569117 99.329395 
L 83.572364 99.285745 
L 83.66002 99.569314 
L 83.663267 99.515417 
L 83.776896 99.629907 
L 83.897018 99.41612 
L 83.900265 99.46434 
L 83.987921 99.193558 
L 83.991168 99.244881 
L 84.046359 99.150607 
L 84.104797 99.180691 
L 84.172975 99.270517 
L 84.218426 99.235881 
L 84.306083 99.084756 
L 84.332055 99.100045 
L 84.458671 99.427686 
L 84.504122 99.461651 
L 84.5723 99.356389 
L 84.575546 99.398917 
L 84.669696 99.201664 
L 84.672943 99.244124 
L 84.708655 99.180158 
L 84.776832 99.308242 
L 84.780079 99.272011 
L 84.91968 99.773436 
L 84.978118 99.84806 
L 85.033309 99.732385 
L 85.036556 99.76498 
L 85.111226 99.476826 
L 85.114473 99.506171 
L 85.234595 99.270576 
L 85.237841 99.310129 
L 85.241088 99.2718 
L 85.341731 99.380855 
L 85.344977 99.344884 
L 85.419648 99.403394 
L 85.458607 99.394905 
L 85.526784 99.345802 
L 85.572236 99.369739 
L 85.705344 99.661114 
L 85.708591 99.632261 
L 85.783261 99.738562 
L 85.805987 99.700326 
L 85.809233 99.733023 
L 85.903383 99.620722 
L 85.90663 99.65058 
L 86.033245 99.467042 
L 86.036492 99.495364 
L 86.130641 99.400837 
L 86.140381 99.431549 
L 86.156614 99.401324 
L 86.244271 99.454512 
L 86.247517 99.424879 
L 86.361146 99.475007 
L 86.364393 99.446403 
L 86.458543 99.548333 
L 86.461789 99.524038 
L 86.594897 99.760886 
L 86.627363 99.778784 
L 86.708527 99.708628 
L 86.711773 99.732184 
L 86.79943 99.600648 
L 86.802676 99.623172 
L 86.929292 99.458637 
L 86.932538 99.481288 
L 87.007209 99.415009 
L 87.036428 99.440514 
L 87.039674 99.416304 
L 87.140317 99.494439 
L 87.143564 99.472251 
L 87.263686 99.557997 
L 87.266932 99.536752 
L 87.354589 99.665883 
L 87.357836 99.648573 
L 87.490944 99.843417 
L 87.630545 99.624058 
L 87.633792 99.638846 
L 87.708463 99.495556 
L 87.711709 99.51275 
L 87.831831 99.438793 
L 87.94546 99.483112 
L 87.948707 99.464681 
L 88.04935 99.525975 
L 88.052596 99.508228 
L 88.172719 99.588796 
L 88.175965 99.573098 
L 88.257129 99.705849 
L 88.260375 99.694155 
L 88.40647 99.97101 
L 88.419456 99.975152 
L 88.565551 99.731546 
L 88.568797 99.739992 
L 88.623988 99.58533 
L 88.627235 99.594161 
L 88.766836 99.388974 
L 88.906438 99.520016 
L 88.909684 99.508718 
L 88.990848 99.610634 
L 88.994095 99.598476 
L 89.127203 99.730605 
L 89.130449 99.719778 
L 89.20512 99.828941 
L 89.208367 99.818964 
L 89.334982 99.924888 
L 89.481076 99.764993 
L 89.484323 99.773436 
L 89.5525 99.658088 
L 89.555747 99.666374 
L 89.695348 99.494163 
L 89.721321 99.482372 
L 89.815471 99.516232 
L 89.818717 99.50624 
L 89.906374 99.59568 
L 89.90962 99.586897 
L 89.990784 99.685939 
L 89.994031 99.678221 
L 90.159604 99.94038 
L 90.198563 99.973512 
L 90.279727 99.935628 
L 90.282973 99.943028 
L 90.351151 99.83562 
L 90.354397 99.841341 
L 90.500492 99.66052 
L 90.503738 99.668513 
L 90.591395 99.603441 
L 90.594641 99.611862 
L 90.721257 99.56736 
L 90.867351 99.667246 
L 90.870598 99.661149 
L 90.938775 99.754587 
L 90.942022 99.749738 
L 91.107596 99.984206 
L 91.120582 99.991135 
L 91.403031 99.602779 
L 91.429004 99.58402 
L 91.510167 99.568902 
L 91.630289 99.554928 
L 91.769891 99.617204 
L 91.773137 99.612319 
L 91.841315 99.702827 
L 91.844561 99.700147 
L 92.055587 100.083765 
L 92.06208 100.089107 
L 92.42894 99.7524 
L 92.58802 99.869435 
L 92.714636 99.869186 
L 93.04903 100.333897 
L 93.376931 100.103877 
L 93.600943 100.34013 
L 93.682106 100.408569 
L 94.042473 101.03402 
L 94.285964 100.982847 
L 94.935273 102.390762 
L 95.126819 102.720886 
L 95.130065 102.719207 
L 95.701457 104.018488 
L 96.094289 105.187142 
L 96.224151 105.393502 
L 96.328041 105.629618 
L 96.480628 106.114632 
L 96.990336 107.886607 
L 97.42862 108.938921 
L 98.058449 111.071982 
L 101.629649 122.201605 
L 102.178316 124.059108 
L 102.58738 125.367837 
L 104.785292 133.300911 
L 105.392396 135.549395 
L 106.051444 138.1959 
L 107.739648 145.181525 
L 112.236113 167.531527 
L 114.508695 181.639282 
L 116.274816 194.070484 
L 119.076585 217.172757 
L 121.280989 238.509626 
L 124.693108 273.92304 
L 125.884591 284.376163 
L 127.072826 291.875861 
L 127.946147 294.977436 
L 128.49806 295.430534 
L 128.718825 295.463566 
L 128.881152 295.241242 
L 129.205807 294.329154 
L 129.864855 292.044632 
L 130.686231 286.995554 
L 131.173213 283.101098 
L 133.799668 261.574971 
L 134.802851 255.546092 
L 135.815773 251.516798 
L 136.809216 249.315352 
L 137.146857 248.853611 
L 137.559168 248.39926 
L 137.880576 248.415668 
L 138.143546 248.317818 
L 138.523392 248.18267 
L 138.841553 248.406077 
L 139.149975 248.523609 
L 139.55904 248.603648 
L 139.938886 249.033292 
L 140.257047 249.206369 
L 140.62066 249.424858 
L 141.377105 250.152504 
L 141.669295 250.396354 
L 142.373795 251.094403 
L 142.721175 251.367108 
L 143.338019 251.944425 
L 143.721111 252.157002 
L 144.38016 252.658846 
L 144.776239 252.826743 
L 145.334644 253.18749 
L 145.841105 253.320974 
L 146.33458 253.575531 
L 146.896233 253.67296 
L 147.373475 253.862997 
L 147.909155 253.919193 
L 148.412369 254.091332 
L 148.925324 254.12289 
L 149.425292 254.28289 
L 149.973958 254.304187 
L 150.464186 254.428021 
L 150.993373 254.426247 
L 151.496588 254.529478 
L 152.022528 254.509357 
L 152.506263 254.596098 
L 153.04519 254.553706 
L 153.564637 254.617878 
L 154.048372 254.568712 
L 154.597039 254.630847 
L 155.077527 254.582398 
L 155.652166 254.631196 
L 156.119668 254.597329 
L 156.652102 254.648456 
L 157.165056 254.611357 
L 157.674764 254.65494 
L 158.184471 254.612041 
L 158.713658 254.648982 
L 159.216873 254.607142 
L 159.74606 254.635124 
L 160.249274 254.592474 
L 160.778461 254.613684 
L 161.281676 254.573542 
L 161.817356 254.59289 
L 162.310831 254.565223 
L 162.885469 254.591772 
L 163.349725 254.602742 
L 163.940596 254.667666 
L 164.36914 254.727715 
L 165.041175 254.885105 
L 165.45024 255.044561 
L 166.073577 255.306879 
L 166.495628 255.568561 
L 167.177402 256.00525 
L 167.670877 256.462787 
L 169.099357 257.716745 
L 169.751913 258.314098 
L 170.268113 258.626043 
L 171.261556 259.03761 
L 172.14137 258.94896 
L 173.108841 258.21551 
L 174.180201 256.65423 
L 176.374865 252.155251 
L 177.257926 250.483292 
L 177.933207 249.431776 
L 178.929897 248.346566 
L 179.864902 247.894252 
L 180.848605 247.991991 
L 181.965417 248.690278 
L 183.981521 250.795423 
L 185.289879 252.320481 
L 186.737839 253.71702 
L 188.240989 254.785386 
L 188.916271 255.053123 
L 189.854522 255.30549 
L 191.315468 255.404841 
L 192.14983 255.297412 
L 193.023151 255.124516 
L 195.126912 254.570309 
L 198.717591 253.745291 
L 200.967447 253.544303 
L 202.464105 253.490871 
L 203.438068 253.398696 
L 204.226979 253.146587 
L 205.834019 252.482766 
L 206.570985 252.51401 
L 207.463785 252.624801 
L 207.908561 252.421965 
L 208.298147 251.972379 
L 209.057839 250.642466 
L 209.687668 249.714562 
L 210.018816 249.585459 
L 210.336977 249.704227 
L 210.788247 250.157665 
L 211.158353 250.400563 
L 211.3499 250.276169 
L 211.564172 249.816766 
L 211.836881 248.628529 
L 212.187508 245.967606 
L 212.700463 240.083213 
L 213.888698 226.130186 
L 214.203613 224.713311 
L 214.343215 224.618865 
L 214.369187 224.638815 
L 214.505542 224.932982 
L 214.736047 226.083437 
L 215.434054 230.131844 
L 215.466519 230.109418 
L 215.567162 229.796342 
L 215.732736 228.37482 
L 215.979473 223.963479 
L 216.359319 212.467069 
L 217.989085 158.165575 
L 218.151412 157.437872 
L 218.177385 157.461167 
L 218.265041 157.817567 
L 218.433862 159.654362 
L 218.719558 165.647169 
L 219.424058 181.015775 
L 219.463017 181.081516 
L 219.514961 180.939626 
L 219.625344 179.710774 
L 219.813644 174.59112 
L 220.135052 158.551029 
L 221.037591 112.077226 
L 221.495354 98.326151 
L 221.784297 94.78981 
L 221.849228 94.670848 
L 221.901172 94.779045 
L 222.014801 95.691351 
L 222.199855 99.33316 
L 222.475811 109.880713 
L 223.271215 143.280599 
L 223.274461 143.280292 
L 223.31342 143.135615 
L 223.410816 141.649807 
L 223.602362 134.52849 
L 225.26784 57.542734 
L 225.553536 53.680415 
L 225.611974 53.568517 
L 225.663919 53.688756 
L 225.774301 54.689131 
L 225.952861 58.766054 
L 226.199599 70.409807 
L 226.615156 103.358739 
L 226.95929 122.722701 
L 227.037207 123.45585 
L 227.089152 123.125294 
L 227.209274 120.183144 
L 227.530682 104.852129 
L 228.033897 85.272262 
L 228.553344 73.339748 
L 228.774109 71.809596 
L 228.777356 71.809917 
L 228.83904 71.93841 
L 228.968902 72.914765 
L 229.222132 76.89788 
L 229.82599 90.808902 
L 230.140905 103.485136 
L 230.71879 127.910579 
L 230.722036 127.908623 
L 230.764241 127.666547 
L 230.871377 125.359578 
L 231.131101 113.515393 
L 231.910272 78.810716 
L 232.205708 73.122554 
L 232.32583 72.662016 
L 232.368035 72.723537 
L 232.475171 73.362578 
L 232.666717 76.112813 
L 232.971892 84.233506 
L 233.442641 103.421845 
L 234.306223 142.174994 
L 234.341935 142.041731 
L 234.436084 140.491741 
L 234.621137 132.89139 
L 235.695744 80.206576 
L 235.893783 78.982871 
L 235.900276 78.985268 
L 235.968454 79.162689 
L 236.104809 80.33536 
L 236.322327 84.496217 
L 236.630749 95.351835 
L 237.06254 119.419542 
L 237.754054 158.188931 
L 237.825478 158.68433 
L 237.877423 158.397514 
L 237.991052 155.935694 
L 238.20857 145.369777 
L 239.231232 88.524301 
L 239.448751 86.721061 
L 239.503942 86.828217 
L 239.620817 87.754771 
L 239.818857 91.437132 
L 240.104553 101.50302 
L 240.481152 123.643155 
L 241.270063 171.687768 
L 241.334993 172.127754 
L 241.386938 171.835756 
L 241.500567 169.265451 
L 241.724579 157.927081 
L 242.789446 96.814563 
L 243.026444 94.213456 
L 243.058909 94.196607 
L 243.101114 94.294377 
L 243.211497 95.194864 
L 243.399796 98.954641 
L 243.672506 109.575815 
L 244.078324 135.478177 
L 244.734127 176.142961 
L 244.831523 177.15607 
L 244.880221 176.878408 
L 244.990604 174.361075 
L 245.208122 163.090046 
L 246.260003 100.825538 
L 246.513233 97.616448 
L 246.558685 97.557666 
L 246.607383 97.670056 
L 246.721012 98.650029 
L 246.912559 102.626394 
L 247.198255 113.885918 
L 247.620305 140.558641 
L 248.224163 176.981118 
L 248.31182 177.84714 
L 248.363764 177.547648 
L 248.474147 174.975237 
L 248.694912 163.433812 
L 249.665629 106.164303 
L 249.922106 102.725144 
L 249.974051 102.642271 
L 250.025996 102.763175 
L 250.142871 103.779517 
L 250.340911 107.832628 
L 250.629853 118.955199 
L 251.019439 143.640095 
L 251.655761 183.381756 
L 251.736925 184.132467 
L 251.78887 183.82768 
L 251.902499 181.126743 
L 252.129757 169.142155 
L 253.025804 117.055466 
L 253.269295 113.953352 
L 253.308253 113.908195 
L 253.356951 114.012666 
L 253.47058 114.931499 
L 253.665373 118.684767 
L 253.938083 128.841679 
L 254.311436 152.311825 
L 254.989964 195.075626 
L 255.067881 195.768889 
L 255.119825 195.475328 
L 255.230208 192.92579 
L 255.450973 181.518126 
L 256.411951 125.721384 
L 256.658688 122.652894 
L 256.700893 122.605215 
L 256.749591 122.718897 
L 256.86322 123.701225 
L 257.05152 127.685641 
L 257.31449 138.699942 
L 257.700829 165.777978 
L 258.259235 202.351419 
L 258.356631 203.496 
L 258.405329 203.18718 
L 258.515712 200.374342 
L 258.733231 187.876505 
L 259.72992 123.259454 
L 260.00263 118.823862 
L 260.067561 118.659225 
L 260.119505 118.791275 
L 260.229888 119.898048 
L 260.414941 124.48082 
L 260.681158 137.47029 
L 261.109702 171.48384 
L 261.547985 200.273702 
L 261.632396 201.30338 
L 261.68434 200.931331 
L 261.794723 197.657507 
L 262.015488 183.007467 
L 262.937507 115.125836 
L 263.255668 107.505636 
L 263.375791 106.848582 
L 263.417996 106.942457 
L 263.518639 107.899286 
L 263.690705 112.108236 
L 263.943936 124.639739 
L 264.336768 157.127545 
L 264.817257 191.922215 
L 264.89842 192.933076 
L 264.950365 192.51812 
L 265.063994 188.821001 
L 265.294499 172.294206 
L 266.050944 114.88897 
L 266.369105 106.497083 
L 266.511953 105.574635 
L 266.547665 105.641923 
L 266.641815 106.431718 
L 266.807389 110.122821 
L 267.054127 121.483274 
L 267.41774 150.265473 
L 267.998871 194.44852 
L 268.070295 195.20657 
L 268.12224 194.766736 
L 268.235869 191.028618 
L 268.472867 174.065227 
L 269.170874 122.391017 
L 269.46631 115.14746 
L 269.579939 114.533993 
L 269.625391 114.634702 
L 269.726033 115.597815 
L 269.901347 119.871603 
L 270.157824 132.469764 
L 270.553903 164.932261 
L 271.070103 203.206982 
L 271.161007 204.439165 
L 271.212951 204.06217 
L 271.323334 200.777735 
L 271.553839 185.751631 
L 272.258339 137.919284 
L 272.505076 133.56722 
L 272.544035 133.499065 
L 272.592733 133.641697 
L 272.703116 134.897829 
L 272.891415 140.053919 
L 273.170618 154.713516 
L 273.634874 193.256497 
L 274.050432 220.585707 
L 274.144582 221.809434 
L 274.196527 221.467482 
L 274.310156 218.352551 
L 274.547153 204.201665 
L 275.241914 161.460504 
L 275.469172 158.130898 
L 275.488652 158.132699 
L 275.517871 158.217906 
L 275.615267 159.206637 
L 275.793827 163.76716 
L 276.069783 177.45522 
L 276.572998 216.241929 
L 276.949597 237.218282 
L 277.034007 238.06517 
L 277.085952 237.727939 
L 277.202828 234.755453 
L 277.452812 221.250155 
L 278.095628 186.667506 
L 278.322886 183.54128 
L 278.355351 183.586529 
L 278.368337 183.638857 
L 278.46898 184.699158 
L 278.654033 189.557018 
L 278.952716 204.336311 
L 279.787078 248.819264 
L 279.819543 248.714609 
L 279.9072 247.355961 
L 280.092253 240.24337 
L 281.014272 199.468472 
L 281.101929 199.059967 
L 281.153873 199.20039 
L 281.264256 200.434842 
L 281.462295 205.704611 
L 281.790196 221.538108 
L 282.3973 250.285158 
L 282.455738 250.62822 
L 282.510929 250.333645 
L 282.627805 247.812873 
L 282.864803 236.751979 
L 283.624495 199.408003 
L 283.848506 196.804381 
L 283.887465 196.862813 
L 283.897204 196.901225 
L 284.001094 197.900996 
L 284.186147 202.292095 
L 284.488076 215.706785 
L 285.153617 246.00421 
L 285.189329 246.123278 
L 285.238028 245.874707 
L 285.34841 243.597022 
L 285.565929 233.458034 
L 286.478208 186.15789 
L 286.663261 184.397061 
L 286.679494 184.409903 
L 286.744425 184.733072 
L 286.88078 186.824559 
L 287.104791 194.296913 
L 287.474897 215.453024 
L 287.974865 241.080158 
L 288.049536 241.709514 
L 288.101481 241.416025 
L 288.211863 238.850342 
L 288.435875 227.226556 
L 289.302703 177.834963 
L 289.526714 175.154272 
L 289.572166 175.260058 
L 289.676055 176.324317 
L 289.861108 181.019091 
L 290.150051 194.996729 
L 290.961687 238.868779 
L 290.981167 238.828551 
L 291.049344 237.992954 
L 291.198685 232.705764 
L 291.529833 210.89216 
L 292.097978 177.243257 
L 292.370688 171.498902 
L 292.432372 171.31161 
L 292.484317 171.473251 
L 292.597946 172.840684 
L 292.795985 178.500135 
L 293.101161 194.701951 
L 293.883578 238.987767 
L 293.893318 238.988843 
L 293.91929 238.879107 
L 294.0037 237.415092 
L 294.18226 229.509598 
L 295.266607 171.993438 
L 295.334784 171.742175 
L 295.386729 171.894913 
L 295.497111 173.199842 
L 295.691904 178.683507 
L 295.993833 194.47893 
L 296.792483 239.073595 
L 296.824948 238.947425 
L 296.912605 237.377876 
L 297.094412 229.247622 
L 298.149539 173.37055 
L 298.230703 173.003744 
L 298.282647 173.153153 
L 298.39303 174.461543 
L 298.587823 179.995225 
L 298.892998 196.151797 
L 299.662429 239.417426 
L 299.675415 239.432196 
L 299.711127 239.265681 
L 299.805277 237.412456 
L 300.00007 228.18704 
L 300.964294 175.68374 
L 301.100649 174.681995 
L 301.136361 174.760792 
L 301.230511 175.64368 
L 301.405824 179.851804 
L 301.68178 192.734989 
L 302.535622 239.58206 
L 302.581073 239.345327 
L 302.684963 237.064677 
L 302.899235 226.280214 
L 303.775802 177.365308 
L 303.967348 175.344681 
L 303.980335 175.353615 
L 304.042019 175.649229 
L 304.171881 177.630833 
L 304.389399 184.95653 
L 304.73678 205.432763 
L 305.330897 239.220498 
L 305.399075 239.74493 
L 305.45102 239.418586 
L 305.564649 236.611352 
L 305.7984 223.999958 
L 306.584064 178.988361 
L 306.814569 175.819401 
L 306.834048 175.817951 
L 306.866513 175.90775 
L 306.967156 176.915155 
L 307.148963 181.477299 
L 307.434659 195.191072 
L 308.259281 239.644447 
L 308.282007 239.584286 
L 308.356678 238.562344 
L 308.515759 232.612707 
L 308.898851 207.338242 
L 309.395572 180.381631 
L 309.655296 175.506616 
L 309.700748 175.401276 
L 309.752692 175.556068 
L 309.863075 176.857068 
L 310.057868 182.319106 
L 310.363043 198.191833 
L 311.119488 239.619969 
L 311.135721 239.640189 
L 311.171433 239.468536 
L 311.268829 237.534001 
L 311.466868 228.140695 
L 312.421353 176.318111 
L 312.567447 175.137127 
L 312.599913 175.190988 
L 312.687569 175.908701 
L 312.853143 179.510825 
L 313.116113 190.894532 
L 313.671273 227.744814 
L 313.966708 239.053202 
L 314.005667 239.23554 
L 314.057612 238.934435 
L 314.167994 236.31081 
L 314.395252 224.333955 
L 315.223121 177.034637 
L 315.45038 174.172186 
L 315.495831 174.270489 
L 315.596474 175.284626 
L 315.778281 179.863576 
L 316.063977 193.676656 
L 316.891846 238.978991 
L 316.917818 238.900459 
L 316.998982 237.656213 
L 317.167802 230.811117 
L 317.628812 199.546442 
L 318.060602 178.1437 
L 318.304093 174.303076 
L 318.330065 174.274416 
L 318.375517 174.40106 
L 318.482653 175.585238 
L 318.670953 180.620401 
L 318.966388 195.424689 
L 319.778025 239.443945 
L 319.781271 239.443318 
L 319.816983 239.278232 
L 319.91438 237.399246 
L 320.112419 228.277948 
L 321.050671 178.980333 
L 321.193519 177.897536 
L 321.225984 177.960044 
L 321.316887 178.739763 
L 321.485708 182.51121 
L 321.755171 194.345069 
L 322.628492 240.71777 
L 322.686929 240.346747 
L 322.807052 237.330194 
L 323.053789 224.180183 
L 323.781015 184.112816 
L 324.02126 180.594239 
L 324.043985 180.581217 
L 324.082944 180.687788 
L 324.186833 181.763293 
L 324.371887 186.461586 
L 324.667322 200.5814 
L 325.436753 239.719325 
L 325.446493 239.720392 
L 325.472465 239.620489 
L 325.556876 238.27975 
L 325.732189 231.128909 
L 326.212678 198.817917 
L 326.644468 177.795244 
L 326.891206 173.877314 
L 326.920425 173.841116 
L 326.969123 173.984562 
L 327.079505 175.254226 
L 327.271052 180.53519 
L 327.57298 196.068916 
L 328.322932 236.874342 
L 328.335919 236.889512 
L 328.371631 236.724888 
L 328.46578 234.872675 
L 328.657327 225.744452 
L 329.683235 168.792327 
L 329.80985 167.947613 
L 329.848809 168.03791 
L 329.946205 168.983021 
L 330.124765 173.357582 
L 330.403968 186.637559 
L 331.267549 235.390477 
L 331.316247 235.109503 
L 331.423383 232.578258 
L 331.644148 220.857312 
L 332.494743 171.464402 
L 332.712262 168.887639 
L 332.757713 169.003111 
L 332.861603 170.112755 
L 333.046656 174.967153 
L 333.335599 189.407182 
L 334.173207 236.881263 
L 334.19918 236.804876 
L 334.277097 235.628352 
L 334.442671 228.976679 
L 334.880954 199.118704 
L 335.322484 176.574497 
L 335.569222 172.555512 
L 335.598441 172.524029 
L 335.643892 172.661616 
L 335.751028 173.878403 
L 335.942575 179.108624 
L 336.241257 194.359687 
L 337.0464 238.452208 
L 337.078865 238.331897 
L 337.166522 236.815226 
L 337.348329 228.933256 
L 338.400209 174.93347 
L 338.478127 174.622488 
L 338.530071 174.784347 
L 338.6437 176.16282 
L 338.84174 181.852719 
L 339.153408 198.35689 
L 339.887127 238.893747 
L 339.9131 238.961016 
L 339.958551 238.703676 
L 340.065687 236.280583 
L 340.286452 224.973692 
L 341.130554 177.634302 
L 341.338333 175.257151 
L 341.344826 175.258769 
L 341.396771 175.437034 
L 341.513647 176.905876 
L 341.714932 182.809678 
L 342.033094 199.804117 
L 342.734348 238.373753 
L 342.773306 238.532917 
L 342.825251 238.208007 
L 342.93888 235.447539 
L 343.172631 223.009348 
L 343.974528 177.402769 
L 344.205033 174.31691 
L 344.224512 174.318883 
L 344.256977 174.413532 
L 344.35762 175.431356 
L 344.539427 180.01076 
L 344.825123 193.789288 
L 345.646499 238.189413 
L 345.665978 238.140019 
L 345.737402 237.214292 
L 345.893236 231.525529 
L 346.253603 207.766224 
L 346.769804 178.771511 
L 347.03602 173.556441 
L 347.084719 173.432763 
L 347.136663 173.584888 
L 347.247046 174.876454 
L 347.441839 180.301092 
L 347.747014 196.06999 
L 348.509952 237.774425 
L 348.526185 237.797415 
L 348.565143 237.604369 
L 348.665786 235.532614 
L 348.870319 225.606234 
L 349.805324 174.093863 
L 349.970897 172.611931 
L 349.99687 172.649028 
L 350.078033 173.235772 
L 350.233868 176.346807 
L 350.483852 186.555649 
L 350.922135 215.601821 
L 351.3312 237.054165 
L 351.412364 237.828441 
L 351.464308 237.516635 
L 351.577937 234.723533 
L 351.808442 222.25402 
L 352.610339 175.847766 
L 352.840844 172.729974 
L 352.860323 172.731989 
L 352.892788 172.827152 
L 352.993431 173.848112 
L 353.175238 178.428104 
L 353.460934 192.192462 
L 354.295296 237.801477 
L 354.321268 237.723488 
L 354.402432 236.486489 
L 354.571252 229.669138 
L 355.019276 199.227657 
L 355.464052 176.674696 
L 355.71079 172.59971 
L 355.743255 172.555348 
L 355.791953 172.704131 
L 355.902336 173.995067 
L 356.097129 179.447142 
L 356.402304 195.371014 
L 357.168489 237.790807 
L 357.181475 237.806956 
L 357.217187 237.647012 
L 357.311337 235.826889 
L 357.506129 226.692152 
L 358.486586 173.488244 
L 358.616448 172.552004 
L 358.655407 172.630998 
L 358.749556 173.503825 
L 358.92487 177.65935 
L 359.200826 190.413927 
L 360.064407 237.732051 
L 360.113105 237.440128 
L 360.223488 234.824827 
L 360.4475 223.039777 
L 361.278615 175.607166 
L 361.502627 172.880378 
L 361.548079 172.99326 
L 361.651968 174.093833 
L 361.837021 178.91528 
L 362.125964 193.194565 
L 362.94734 238.162839 
L 362.963572 238.126541 
L 363.03175 237.311191 
L 363.181091 232.11944 
L 363.518732 210.367108 
L 364.057658 179.760886 
L 364.320628 174.559936 
L 364.372573 174.422893 
L 364.424518 174.580257 
L 364.538147 175.943562 
L 364.736186 181.580541 
L 365.047855 197.924289 
L 365.78482 238.351807 
L 365.810793 238.423951 
L 365.856244 238.178874 
L 365.96338 235.798157 
L 366.180899 224.78791 
L 367.050973 176.232576 
L 367.252259 174.057466 
L 367.261999 174.063558 
L 367.320436 174.316282 
L 367.447052 176.130054 
L 367.661324 183.050457 
L 367.998964 202.409803 
L 368.622301 237.719192 
L 368.683985 238.140278 
L 368.73593 237.806154 
L 368.849559 234.969579 
L 369.083311 222.205883 
L 369.881961 175.605158 
L 370.115712 172.29853 
L 370.135191 172.291395 
L 370.17415 172.401005 
L 370.278039 173.497625 
L 370.463092 178.301591 
L 370.752035 192.521792 
L 371.573411 237.366018 
L 371.589644 237.32904 
L 371.657821 236.507986 
L 371.807162 231.276139 
L 372.13831 209.689763 
L 372.696716 177.138165 
L 372.966179 171.62634 
L 373.02137 171.467747 
L 373.073315 171.621742 
L 373.183697 172.922571 
L 373.37849 178.396889 
L 373.680419 194.181494 
L 374.45959 237.553057 
L 374.469329 237.560835 
L 374.501795 237.425383 
L 374.592698 235.758493 
L 374.780998 227.213212 
L 375.790673 173.611379 
L 375.897809 173.002335 
L 375.943261 173.123926 
L 376.047151 174.245607 
L 376.23545 179.209292 
L 376.530886 193.940317 
L 377.345769 238.271888 
L 377.352262 238.265357 
L 377.40096 237.907355 
L 377.517836 234.92971 
L 377.75808 221.785958 
L 378.524265 177.77212 
L 378.761263 174.295109 
L 378.783988 174.282045 
L 378.822947 174.390399 
L 378.926836 175.484142 
L 379.111889 180.285979 
L 379.404079 194.694707 
L 380.215715 238.748258 
L 380.228701 238.727987 
L 380.287139 238.156112 
L 380.420247 234.115273 
L 380.702697 217.086059 
L 381.342266 179.713514 
L 381.60199 174.786985 
L 381.647441 174.677648 
L 381.702633 174.84721 
L 381.816262 176.233695 
L 382.014301 181.907654 
L 382.325969 198.295176 
L 383.056442 238.319253 
L 383.082415 238.39861 
L 383.131113 238.130924 
L 383.238249 235.698894 
L 383.459014 224.387795 
L 384.316102 176.072742 
L 384.527127 173.645085 
L 384.53362 173.646839 
L 384.585565 173.825535 
L 384.702441 175.294676 
L 384.903727 181.221754 
L 385.218641 198.179789 
L 385.932881 237.925001 
L 385.9621 238.028555 
L 386.014045 237.72119 
L 386.124428 235.062864 
L 386.351686 222.957897 
L 387.169815 175.851529 
L 387.397073 172.916589 
L 387.426292 172.947263 
L 387.442525 173.004426 
L 387.539921 173.946807 
L 387.718481 178.302532 
L 388.000931 191.629786 
L 388.845033 237.685631 
L 388.880745 237.536412 
L 388.974895 235.76116 
L 389.166441 226.952967 
L 390.17287 173.169301 
L 390.289745 172.423676 
L 390.331951 172.519445 
L 390.432593 173.5279 
L 390.6144 178.100783 
L 390.900096 191.928145 
L 391.731212 237.81526 
L 391.760431 237.724343 
L 391.841594 236.438687 
L 392.013661 229.324815 
L 392.507136 195.730635 
L 392.919447 176.244539 
L 393.153199 172.915445 
L 393.172678 172.907523 
L 393.211636 173.015904 
L 393.315526 174.110602 
L 393.500579 178.909229 
L 393.792768 193.293302 
L 394.610897 237.960049 
L 394.62713 237.934731 
L 394.688815 237.285964 
L 394.828416 232.826655 
L 395.127098 214.294357 
L 395.737449 178.537597 
L 396.003665 173.284936 
L 396.05561 173.154278 
L 396.107555 173.317387 
L 396.221184 174.694636 
L 396.419223 180.380862 
L 396.727645 196.718292 
L 397.471104 238.098761 
L 397.49383 238.152804 
L 397.539281 237.898965 
L 397.646417 235.462298 
L 397.863936 224.250035 
L 398.487273 183.879819 
L 398.487273 183.879819 
" style="fill:none;stroke:#1f77b4;stroke-linecap:square;stroke-width:1.5;"/>
   </g>
   <g id="patch_3">
    <path d="M 57.6 307.584 
L 57.6 41.472 
" style="fill:none;stroke:#000000;stroke-linecap:square;stroke-linejoin:miter;stroke-width:0.8;"/>
   </g>
   <g id="patch_4">
    <path d="M 414.72 307.584 
L 414.72 41.472 
" style="fill:none;stroke:#000000;stroke-linecap:square;stroke-linejoin:miter;stroke-width:0.8;"/>
   </g>
   <g id="patch_5">
    <path d="M 57.6 307.584 
L 414.72 307.584 
" style="fill:none;stroke:#000000;stroke-linecap:square;stroke-linejoin:miter;stroke-width:0.8;"/>
   </g>
   <g id="patch_6">
    <path d="M 57.6 41.472 
L 414.72 41.472 
" style="fill:none;stroke:#000000;stroke-linecap:square;stroke-linejoin:miter;stroke-width:0.8;"/>
   </g>
  </g>
 </g>
 <defs>
  <clipPath id="p013a7527ca">
   <rect height="266.112" width="357.12" x="57.6" y="41.472"/>
  </clipPath>
 </defs>
</svg>
