<?xml version="1.0" encoding="utf-8" standalone="no"?>
<!DOCTYPE svg PUBLIC "-//W3C//DTD SVG 1.1//EN"
  "http://www.w3.org/Graphics/SVG/1.1/DTD/svg11.dtd">
<!-- Created with matplotlib (https://matplotlib.org/) -->
<svg height="345.6pt" version="1.1" viewBox="0 0 460.8 345.6" width="460.8pt" xmlns="http://www.w3.org/2000/svg" xmlns:xlink="http://www.w3.org/1999/xlink">
 <metadata>
  <rdf:RDF xmlns:cc="http://creativecommons.org/ns#" xmlns:dc="http://purl.org/dc/elements/1.1/" xmlns:rdf="http://www.w3.org/1999/02/22-rdf-syntax-ns#">
   <cc:Work>
    <dc:type rdf:resource="http://purl.org/dc/dcmitype/StillImage"/>
    <dc:date>2020-07-23T22:10:26.418639</dc:date>
    <dc:format>image/svg+xml</dc:format>
    <dc:creator>
     <cc:Agent>
      <dc:title>Matplotlib v3.3.0, https://matplotlib.org/</dc:title>
     </cc:Agent>
    </dc:creator>
   </cc:Work>
  </rdf:RDF>
 </metadata>
 <defs>
  <style type="text/css">*{stroke-linecap:butt;stroke-linejoin:round;}</style>
 </defs>
 <g id="figure_1">
  <g id="patch_1">
   <path d="M 0 345.6 
L 460.8 345.6 
L 460.8 0 
L 0 0 
z
" style="fill:#ffffff;"/>
  </g>
  <g id="axes_1">
   <g id="patch_2">
    <path d="M 57.6 307.584 
L 414.72 307.584 
L 414.72 41.472 
L 57.6 41.472 
z
" style="fill:#ffffff;"/>
   </g>
   <g id="matplotlib.axis_1">
    <g id="xtick_1">
     <g id="line2d_1">
      <defs>
       <path d="M 0 0 
L 0 3.5 
" id="m7232321665" style="stroke:#000000;stroke-width:0.8;"/>
      </defs>
      <g>
       <use style="stroke:#000000;stroke-width:0.8;" x="73.832727" xlink:href="#m7232321665" y="307.584"/>
      </g>
     </g>
     <g id="text_1">
      <!-- $\mathdefault{0}$ -->
      <g transform="translate(71.34206 321.502498)scale(0.1 -0.1)">
       <defs>
        <path d="M 42 31.640625 
C 42 37.75 41.90625 48.125 37.703125 56.109375 
C 34 63.109375 28.09375 65.59375 22.90625 65.59375 
C 18.09375 65.59375 12 63.40625 8.203125 56.203125 
C 4.203125 48.71875 3.796875 39.4375 3.796875 31.640625 
C 3.796875 25.953125 3.90625 17.28125 7 9.671875 
C 11.296875 -0.609375 19 -2 22.90625 -2 
C 27.5 -2 34.5 -0.109375 38.59375 9.375 
C 41.59375 16.28125 42 24.359375 42 31.640625 
z
M 22.90625 -0.40625 
C 16.5 -0.40625 12.703125 5.078125 11.296875 12.6875 
C 10.203125 18.5625 10.203125 27.15625 10.203125 32.75 
C 10.203125 40.4375 10.203125 46.828125 11.5 52.921875 
C 13.40625 61.390625 19 64 22.90625 64 
C 27 64 32.296875 61.296875 34.203125 53.125 
C 35.5 47.4375 35.59375 40.734375 35.59375 32.75 
C 35.59375 26.25 35.59375 18.265625 34.40625 12.375 
C 32.296875 1.484375 26.40625 -0.40625 22.90625 -0.40625 
z
" id="CMR17-48"/>
       </defs>
       <use transform="scale(0.996264)" xlink:href="#CMR17-48"/>
      </g>
     </g>
    </g>
    <g id="xtick_2">
     <g id="line2d_2">
      <g>
       <use style="stroke:#000000;stroke-width:0.8;" x="114.414545" xlink:href="#m7232321665" y="307.584"/>
      </g>
     </g>
     <g id="text_2">
      <!-- $\mathdefault{25000}$ -->
      <g transform="translate(101.961207 321.502498)scale(0.1 -0.1)">
       <defs>
        <path d="M 41.703125 15.453125 
L 39.90625 15.453125 
C 38.90625 8.375 38.09375 7.171875 37.703125 6.5625 
C 37.203125 5.765625 30 5.765625 28.59375 5.765625 
L 9.40625 5.765625 
C 13 9.671875 20 16.75 28.5 24.953125 
C 34.59375 30.734375 41.703125 37.53125 41.703125 47.421875 
C 41.703125 59.21875 32.296875 66 21.796875 66 
C 10.796875 66 4.09375 56.3125 4.09375 47.34375 
C 4.09375 43.4375 7 42.9375 8.203125 42.9375 
C 9.203125 42.9375 12.203125 43.546875 12.203125 47.03125 
C 12.203125 50.109375 9.59375 51 8.203125 51 
C 7.59375 51 7 50.90625 6.59375 50.703125 
C 8.5 59.21875 14.296875 63.40625 20.40625 63.40625 
C 29.09375 63.40625 34.796875 56.515625 34.796875 47.421875 
C 34.796875 38.734375 29.703125 31.25 24 24.75 
L 4.09375 2.28125 
L 4.09375 0 
L 39.296875 0 
z
" id="CMR17-50"/>
        <path d="M 11.40625 57.6875 
C 12.40625 57.28125 16.5 56 20.703125 56 
C 30 56 35.09375 61.109375 38 64.0625 
C 38 64.953125 38 65.5 37.40625 65.5 
C 37.296875 65.5 37.09375 65.5 36.296875 65.046875 
C 32.796875 63.40625 28.703125 62.078125 23.703125 62.078125 
C 20.703125 62.078125 16.203125 62.484375 11.296875 64.671875 
C 10.203125 65.171875 10 65.171875 9.90625 65.171875 
C 9.40625 65.171875 9.296875 65.0625 9.296875 63.078125 
L 9.296875 34.421875 
C 9.296875 32.640625 9.296875 32.140625 10.296875 32.140625 
C 10.796875 32.140625 11 32.34375 11.5 33.03125 
C 14.703125 37.515625 19.09375 39.40625 24.09375 39.40625 
C 27.59375 39.40625 35.09375 37.21875 35.09375 20.140625 
C 35.09375 16.953125 35.09375 11.171875 32.09375 6.578125 
C 29.59375 2.484375 25.703125 0.390625 21.40625 0.390625 
C 14.796875 0.390625 8.09375 5 6.296875 12.71875 
C 6.703125 12.609375 7.5 12.421875 7.90625 12.421875 
C 9.203125 12.421875 11.703125 13.125 11.703125 16.21875 
C 11.703125 18.90625 9.796875 20 7.90625 20 
C 5.59375 20 4.09375 18.59375 4.09375 15.796875 
C 4.09375 7.09375 11 -2 21.59375 -2 
C 31.90625 -2 41.703125 6.875 41.703125 19.75 
C 41.703125 31.71875 33.90625 41 24.203125 41 
C 19.09375 41 14.796875 39.109375 11.40625 35.53125 
z
" id="CMR17-53"/>
       </defs>
       <use transform="scale(0.996264)" xlink:href="#CMR17-50"/>
       <use transform="translate(45.690477 0)scale(0.996264)" xlink:href="#CMR17-53"/>
       <use transform="translate(91.380954 0)scale(0.996264)" xlink:href="#CMR17-48"/>
       <use transform="translate(137.071431 0)scale(0.996264)" xlink:href="#CMR17-48"/>
       <use transform="translate(182.761908 0)scale(0.996264)" xlink:href="#CMR17-48"/>
      </g>
     </g>
    </g>
    <g id="xtick_3">
     <g id="line2d_3">
      <g>
       <use style="stroke:#000000;stroke-width:0.8;" x="154.996364" xlink:href="#m7232321665" y="307.584"/>
      </g>
     </g>
     <g id="text_3">
      <!-- $\mathdefault{50000}$ -->
      <g transform="translate(142.543026 321.502498)scale(0.1 -0.1)">
       <use transform="scale(0.996264)" xlink:href="#CMR17-53"/>
       <use transform="translate(45.690477 0)scale(0.996264)" xlink:href="#CMR17-48"/>
       <use transform="translate(91.380954 0)scale(0.996264)" xlink:href="#CMR17-48"/>
       <use transform="translate(137.071431 0)scale(0.996264)" xlink:href="#CMR17-48"/>
       <use transform="translate(182.761908 0)scale(0.996264)" xlink:href="#CMR17-48"/>
      </g>
     </g>
    </g>
    <g id="xtick_4">
     <g id="line2d_4">
      <g>
       <use style="stroke:#000000;stroke-width:0.8;" x="195.578182" xlink:href="#m7232321665" y="307.584"/>
      </g>
     </g>
     <g id="text_4">
      <!-- $\mathdefault{75000}$ -->
      <g transform="translate(183.124844 321.502498)scale(0.1 -0.1)">
       <defs>
        <path d="M 45.09375 61.578125 
L 45.09375 63.765625 
L 21.59375 63.765625 
C 9.90625 63.765625 9.703125 65.078125 9.296875 67 
L 7.5 67 
L 4.59375 48.34375 
L 6.40625 48.34375 
C 6.703125 50.234375 7.40625 55.3125 8.59375 57.203125 
C 9.203125 58 16.59375 58 18.296875 58 
L 40.296875 58 
L 29.203125 41.578125 
C 21.796875 30.53125 16.703125 15.609375 16.703125 2.578125 
C 16.703125 1.390625 16.703125 -2 20.296875 -2 
C 23.90625 -2 23.90625 1.390625 23.90625 2.671875 
L 23.90625 7.265625 
C 23.90625 23.5625 26.703125 34.3125 31.296875 41.1875 
z
" id="CMR17-55"/>
       </defs>
       <use transform="scale(0.996264)" xlink:href="#CMR17-55"/>
       <use transform="translate(45.690477 0)scale(0.996264)" xlink:href="#CMR17-53"/>
       <use transform="translate(91.380954 0)scale(0.996264)" xlink:href="#CMR17-48"/>
       <use transform="translate(137.071431 0)scale(0.996264)" xlink:href="#CMR17-48"/>
       <use transform="translate(182.761908 0)scale(0.996264)" xlink:href="#CMR17-48"/>
      </g>
     </g>
    </g>
    <g id="xtick_5">
     <g id="line2d_5">
      <g>
       <use style="stroke:#000000;stroke-width:0.8;" x="236.16" xlink:href="#m7232321665" y="307.584"/>
      </g>
     </g>
     <g id="text_5">
      <!-- $\mathdefault{100000}$ -->
      <g transform="translate(221.215994 321.502498)scale(0.1 -0.1)">
       <defs>
        <path d="M 26.59375 63.40625 
C 26.59375 65.5 26.5 65.5 25.09375 65.5 
C 21.203125 61.1875 15.296875 59.796875 9.703125 59.796875 
C 9.40625 59.796875 8.90625 59.796875 8.796875 59.5 
C 8.703125 59.296875 8.703125 59.09375 8.703125 57 
C 11.796875 57 17 57.59375 21 59.984375 
L 21 7.203125 
C 21 3.6875 20.796875 2.5 12.203125 2.5 
L 9.203125 2.5 
L 9.203125 0 
C 14 0 19 0 23.796875 0 
C 28.59375 0 33.59375 0 38.40625 0 
L 38.40625 2.5 
L 35.40625 2.5 
C 26.796875 2.5 26.59375 3.59375 26.59375 7.15625 
z
" id="CMR17-49"/>
       </defs>
       <use transform="scale(0.996264)" xlink:href="#CMR17-49"/>
       <use transform="translate(45.690477 0)scale(0.996264)" xlink:href="#CMR17-48"/>
       <use transform="translate(91.380954 0)scale(0.996264)" xlink:href="#CMR17-48"/>
       <use transform="translate(137.071431 0)scale(0.996264)" xlink:href="#CMR17-48"/>
       <use transform="translate(182.761908 0)scale(0.996264)" xlink:href="#CMR17-48"/>
       <use transform="translate(228.452386 0)scale(0.996264)" xlink:href="#CMR17-48"/>
      </g>
     </g>
    </g>
    <g id="xtick_6">
     <g id="line2d_6">
      <g>
       <use style="stroke:#000000;stroke-width:0.8;" x="276.741818" xlink:href="#m7232321665" y="307.584"/>
      </g>
     </g>
     <g id="text_6">
      <!-- $\mathdefault{125000}$ -->
      <g transform="translate(261.797812 321.502498)scale(0.1 -0.1)">
       <use transform="scale(0.996264)" xlink:href="#CMR17-49"/>
       <use transform="translate(45.690477 0)scale(0.996264)" xlink:href="#CMR17-50"/>
       <use transform="translate(91.380954 0)scale(0.996264)" xlink:href="#CMR17-53"/>
       <use transform="translate(137.071431 0)scale(0.996264)" xlink:href="#CMR17-48"/>
       <use transform="translate(182.761908 0)scale(0.996264)" xlink:href="#CMR17-48"/>
       <use transform="translate(228.452386 0)scale(0.996264)" xlink:href="#CMR17-48"/>
      </g>
     </g>
    </g>
    <g id="xtick_7">
     <g id="line2d_7">
      <g>
       <use style="stroke:#000000;stroke-width:0.8;" x="317.323636" xlink:href="#m7232321665" y="307.584"/>
      </g>
     </g>
     <g id="text_7">
      <!-- $\mathdefault{150000}$ -->
      <g transform="translate(302.379631 321.502498)scale(0.1 -0.1)">
       <use transform="scale(0.996264)" xlink:href="#CMR17-49"/>
       <use transform="translate(45.690477 0)scale(0.996264)" xlink:href="#CMR17-53"/>
       <use transform="translate(91.380954 0)scale(0.996264)" xlink:href="#CMR17-48"/>
       <use transform="translate(137.071431 0)scale(0.996264)" xlink:href="#CMR17-48"/>
       <use transform="translate(182.761908 0)scale(0.996264)" xlink:href="#CMR17-48"/>
       <use transform="translate(228.452386 0)scale(0.996264)" xlink:href="#CMR17-48"/>
      </g>
     </g>
    </g>
    <g id="xtick_8">
     <g id="line2d_8">
      <g>
       <use style="stroke:#000000;stroke-width:0.8;" x="357.905455" xlink:href="#m7232321665" y="307.584"/>
      </g>
     </g>
     <g id="text_8">
      <!-- $\mathdefault{175000}$ -->
      <g transform="translate(342.961449 321.502498)scale(0.1 -0.1)">
       <use transform="scale(0.996264)" xlink:href="#CMR17-49"/>
       <use transform="translate(45.690477 0)scale(0.996264)" xlink:href="#CMR17-55"/>
       <use transform="translate(91.380954 0)scale(0.996264)" xlink:href="#CMR17-53"/>
       <use transform="translate(137.071431 0)scale(0.996264)" xlink:href="#CMR17-48"/>
       <use transform="translate(182.761908 0)scale(0.996264)" xlink:href="#CMR17-48"/>
       <use transform="translate(228.452386 0)scale(0.996264)" xlink:href="#CMR17-48"/>
      </g>
     </g>
    </g>
    <g id="xtick_9">
     <g id="line2d_9">
      <g>
       <use style="stroke:#000000;stroke-width:0.8;" x="398.487273" xlink:href="#m7232321665" y="307.584"/>
      </g>
     </g>
     <g id="text_9">
      <!-- $\mathdefault{200000}$ -->
      <g transform="translate(383.543267 321.502498)scale(0.1 -0.1)">
       <use transform="scale(0.996264)" xlink:href="#CMR17-50"/>
       <use transform="translate(45.690477 0)scale(0.996264)" xlink:href="#CMR17-48"/>
       <use transform="translate(91.380954 0)scale(0.996264)" xlink:href="#CMR17-48"/>
       <use transform="translate(137.071431 0)scale(0.996264)" xlink:href="#CMR17-48"/>
       <use transform="translate(182.761908 0)scale(0.996264)" xlink:href="#CMR17-48"/>
       <use transform="translate(228.452386 0)scale(0.996264)" xlink:href="#CMR17-48"/>
      </g>
     </g>
    </g>
   </g>
   <g id="matplotlib.axis_2">
    <g id="ytick_1">
     <g id="line2d_10">
      <defs>
       <path d="M 0 0 
L -3.5 0 
" id="m760fab3be2" style="stroke:#000000;stroke-width:0.8;"/>
      </defs>
      <g>
       <use style="stroke:#000000;stroke-width:0.8;" x="57.6" xlink:href="#m760fab3be2" y="295.843477"/>
      </g>
     </g>
     <g id="text_10">
      <!-- $\mathdefault{0.00}$ -->
      <g transform="translate(32.888586 299.302726)scale(0.1 -0.1)">
       <defs>
        <path d="M 18.40625 4.796875 
C 18.40625 7.6875 16 9.671875 13.59375 9.671875 
C 10.703125 9.671875 8.703125 7.28125 8.703125 4.890625 
C 8.703125 2 11.09375 0 13.5 0 
C 16.40625 0 18.40625 2.390625 18.40625 4.796875 
z
" id="CMMI12-58"/>
       </defs>
       <use transform="scale(0.996264)" xlink:href="#CMR17-48"/>
       <use transform="translate(45.690477 0)scale(0.996264)" xlink:href="#CMMI12-58"/>
       <use transform="translate(72.787654 0)scale(0.996264)" xlink:href="#CMR17-48"/>
       <use transform="translate(118.478131 0)scale(0.996264)" xlink:href="#CMR17-48"/>
      </g>
     </g>
    </g>
    <g id="ytick_2">
     <g id="line2d_11">
      <g>
       <use style="stroke:#000000;stroke-width:0.8;" x="57.6" xlink:href="#m760fab3be2" y="256.172171"/>
      </g>
     </g>
     <g id="text_11">
      <!-- $\mathdefault{0.02}$ -->
      <g transform="translate(32.888586 259.63142)scale(0.1 -0.1)">
       <use transform="scale(0.996264)" xlink:href="#CMR17-48"/>
       <use transform="translate(45.690477 0)scale(0.996264)" xlink:href="#CMMI12-58"/>
       <use transform="translate(72.787654 0)scale(0.996264)" xlink:href="#CMR17-48"/>
       <use transform="translate(118.478131 0)scale(0.996264)" xlink:href="#CMR17-50"/>
      </g>
     </g>
    </g>
    <g id="ytick_3">
     <g id="line2d_12">
      <g>
       <use style="stroke:#000000;stroke-width:0.8;" x="57.6" xlink:href="#m760fab3be2" y="216.500864"/>
      </g>
     </g>
     <g id="text_12">
      <!-- $\mathdefault{0.04}$ -->
      <g transform="translate(32.888586 219.960113)scale(0.1 -0.1)">
       <defs>
        <path d="M 33.59375 64.40625 
C 33.59375 66.5 33.5 66.5 31.703125 66.5 
L 2 19.59375 
L 2 17 
L 27.796875 17 
L 27.796875 7.140625 
C 27.796875 3.5 27.59375 2.5 20.59375 2.5 
L 18.703125 2.5 
L 18.703125 0 
C 21.90625 0 27.296875 0 30.703125 0 
C 34.09375 0 39.5 0 42.703125 0 
L 42.703125 2.5 
L 40.796875 2.5 
C 33.796875 2.5 33.59375 3.5 33.59375 7.140625 
L 33.59375 17 
L 43.796875 17 
L 43.796875 19.59375 
L 33.59375 19.59375 
z
M 28.09375 57.859375 
L 28.09375 19.59375 
L 4 19.59375 
z
" id="CMR17-52"/>
       </defs>
       <use transform="scale(0.996264)" xlink:href="#CMR17-48"/>
       <use transform="translate(45.690477 0)scale(0.996264)" xlink:href="#CMMI12-58"/>
       <use transform="translate(72.787654 0)scale(0.996264)" xlink:href="#CMR17-48"/>
       <use transform="translate(118.478131 0)scale(0.996264)" xlink:href="#CMR17-52"/>
      </g>
     </g>
    </g>
    <g id="ytick_4">
     <g id="line2d_13">
      <g>
       <use style="stroke:#000000;stroke-width:0.8;" x="57.6" xlink:href="#m760fab3be2" y="176.829557"/>
      </g>
     </g>
     <g id="text_13">
      <!-- $\mathdefault{0.06}$ -->
      <g transform="translate(32.888586 180.288806)scale(0.1 -0.1)">
       <defs>
        <path d="M 10.59375 34 
C 10.59375 57.65625 21.796875 63 28.296875 63 
C 30.40625 63 35.5 62.640625 37.5 59 
C 35.90625 59 32.90625 59 32.90625 55.515625 
C 32.90625 52.828125 35.09375 51.921875 36.5 51.921875 
C 37.40625 51.921875 40.09375 52.3125 40.09375 55.625 
C 40.09375 61.78125 35.09375 65.296875 28.203125 65.296875 
C 16.296875 65.296875 3.796875 52.96875 3.796875 31 
C 3.796875 3.953125 15.09375 -2 23.09375 -2 
C 32.796875 -2 42 6.671875 42 20.046875 
C 42 32.515625 33.90625 41.59375 23.703125 41.59375 
C 17.59375 41.59375 13.09375 37.609375 10.59375 30.625 
z
M 23.09375 0.390625 
C 10.796875 0.390625 10.796875 18.75 10.796875 22.4375 
C 10.796875 29.625 14.203125 40 23.5 40 
C 25.203125 40 30.09375 40 33.40625 33.125 
C 35.203125 29.21875 35.203125 25.140625 35.203125 20.140625 
C 35.203125 14.75 35.203125 10.78125 33.09375 6.78125 
C 30.90625 2.671875 27.703125 0.390625 23.09375 0.390625 
z
" id="CMR17-54"/>
       </defs>
       <use transform="scale(0.996264)" xlink:href="#CMR17-48"/>
       <use transform="translate(45.690477 0)scale(0.996264)" xlink:href="#CMMI12-58"/>
       <use transform="translate(72.787654 0)scale(0.996264)" xlink:href="#CMR17-48"/>
       <use transform="translate(118.478131 0)scale(0.996264)" xlink:href="#CMR17-54"/>
      </g>
     </g>
    </g>
    <g id="ytick_5">
     <g id="line2d_14">
      <g>
       <use style="stroke:#000000;stroke-width:0.8;" x="57.6" xlink:href="#m760fab3be2" y="137.158251"/>
      </g>
     </g>
     <g id="text_14">
      <!-- $\mathdefault{0.08}$ -->
      <g transform="translate(32.888586 140.6175)scale(0.1 -0.1)">
       <defs>
        <path d="M 27.203125 35.375 
C 33.5 38.546875 39.90625 43.328125 39.90625 50.984375 
C 39.90625 60.015625 31.09375 65.296875 23 65.296875 
C 13.90625 65.296875 5.90625 58.734375 5.90625 49.6875 
C 5.90625 47.203125 6.5 42.921875 10.40625 39.140625 
C 11.40625 38.15625 15.59375 35.171875 18.296875 33.28125 
C 13.796875 30.984375 3.296875 25.53125 3.296875 14.59375 
C 3.296875 4.359375 13.09375 -2 22.796875 -2 
C 33.5 -2 42.5 5.65625 42.5 15.78125 
C 42.5 24.84375 36.40625 29.015625 32.40625 31.703125 
z
M 14.09375 44.09375 
C 13.296875 44.59375 9.296875 47.671875 9.296875 52.359375 
C 9.296875 58.421875 15.59375 63 22.796875 63 
C 30.703125 63 36.5 57.4375 36.5 50.96875 
C 36.5 41.703125 26.09375 36.421875 25.59375 36.421875 
C 25.5 36.421875 25.40625 36.421875 24.59375 37.03125 
z
M 32.5 23.734375 
C 34 22.640625 38.796875 19.375 38.796875 13.296875 
C 38.796875 5.953125 31.40625 0.390625 23 0.390625 
C 13.90625 0.390625 7 6.84375 7 14.6875 
C 7 22.546875 13.09375 29.09375 20 32.1875 
z
" id="CMR17-56"/>
       </defs>
       <use transform="scale(0.996264)" xlink:href="#CMR17-48"/>
       <use transform="translate(45.690477 0)scale(0.996264)" xlink:href="#CMMI12-58"/>
       <use transform="translate(72.787654 0)scale(0.996264)" xlink:href="#CMR17-48"/>
       <use transform="translate(118.478131 0)scale(0.996264)" xlink:href="#CMR17-56"/>
      </g>
     </g>
    </g>
    <g id="ytick_6">
     <g id="line2d_15">
      <g>
       <use style="stroke:#000000;stroke-width:0.8;" x="57.6" xlink:href="#m760fab3be2" y="97.486944"/>
      </g>
     </g>
     <g id="text_15">
      <!-- $\mathdefault{0.10}$ -->
      <g transform="translate(32.888586 100.946193)scale(0.1 -0.1)">
       <use transform="scale(0.996264)" xlink:href="#CMR17-48"/>
       <use transform="translate(45.690477 0)scale(0.996264)" xlink:href="#CMMI12-58"/>
       <use transform="translate(72.787654 0)scale(0.996264)" xlink:href="#CMR17-49"/>
       <use transform="translate(118.478131 0)scale(0.996264)" xlink:href="#CMR17-48"/>
      </g>
     </g>
    </g>
    <g id="ytick_7">
     <g id="line2d_16">
      <g>
       <use style="stroke:#000000;stroke-width:0.8;" x="57.6" xlink:href="#m760fab3be2" y="57.815637"/>
      </g>
     </g>
     <g id="text_16">
      <!-- $\mathdefault{0.12}$ -->
      <g transform="translate(32.888586 61.274887)scale(0.1 -0.1)">
       <use transform="scale(0.996264)" xlink:href="#CMR17-48"/>
       <use transform="translate(45.690477 0)scale(0.996264)" xlink:href="#CMMI12-58"/>
       <use transform="translate(72.787654 0)scale(0.996264)" xlink:href="#CMR17-49"/>
       <use transform="translate(118.478131 0)scale(0.996264)" xlink:href="#CMR17-50"/>
      </g>
     </g>
    </g>
   </g>
   <g id="line2d_17">
    <path clip-path="url(#p56e0a7f11c)" d="M 73.832727 97.486944 
L 74.683322 97.574276 
L 74.707671 99.607253 
L 74.889478 128.787611 
L 74.907334 120.502026 
L 74.957655 92.497794 
L 75.040442 97.691952 
L 75.17842 112.757781 
L 75.222249 102.317825 
L 75.253091 98.101552 
L 75.337501 100.476247 
L 75.568006 105.236337 
L 75.587485 104.592205 
L 75.832599 92.80876 
L 75.845585 93.421877 
L 75.928372 101.613642 
L 76.003043 98.824566 
L 76.051741 96.638022 
L 76.108556 99.015071 
L 76.110179 98.977347 
L 76.192966 101.0407 
L 76.231924 100.193589 
L 76.288739 98.063774 
L 76.35367 98.342315 
L 76.468922 100.81498 
L 76.485155 100.741825 
L 76.619887 98.154909 
L 76.629626 98.185054 
L 76.741632 99.736242 
L 76.788707 99.659495 
L 76.89422 99.196063 
L 76.80494 99.666874 
L 76.933178 99.404746 
L 76.957527 99.539811 
L 77.024081 98.781477 
L 77.046807 98.669431 
L 77.16206 99.405004 
L 77.215628 99.352159 
L 77.265949 99.548844 
L 77.267572 99.503453 
L 77.386071 99.798779 
L 77.402304 99.821668 
L 77.524049 99.021557 
L 77.619823 99.361123 
L 77.642548 99.3416 
L 77.689623 99.23402 
L 77.746438 99.469327 
L 77.748061 99.434608 
L 77.853574 100.072552 
L 77.874676 99.977105 
L 77.8763 100.009749 
L 77.949347 99.251613 
L 77.95097 99.274549 
L 78.001292 98.984799 
L 78.062976 99.215344 
L 78.178228 99.39895 
L 78.179852 99.370701 
L 78.298351 100.15645 
L 78.321076 100.0989 
L 78.468794 99.187848 
L 78.59054 99.504335 
L 78.478534 99.180893 
L 78.597033 99.501286 
L 78.644108 99.419095 
L 78.694429 99.692652 
L 78.696052 99.684582 
L 78.772346 100.246781 
L 78.819421 99.998211 
L 78.821044 100.007563 
L 78.868119 99.639988 
L 78.869743 99.651297 
L 78.959023 99.392923 
L 78.991488 99.413559 
L 79.113233 99.563341 
L 79.114857 99.546818 
L 79.187904 99.925325 
L 79.189527 99.920707 
L 79.259328 100.27169 
L 79.309649 100.096029 
L 79.311273 100.104302 
L 79.368087 99.83198 
L 79.369711 99.842649 
L 79.426525 99.741563 
L 79.481716 99.809295 
L 79.648913 100.453495 
L 79.650537 100.451102 
L 79.671639 100.612458 
L 79.673263 100.610321 
L 79.749556 100.923978 
L 79.798255 100.850955 
L 79.858316 100.767186 
L 79.91026 100.83308 
L 80.223552 102.742213 
L 80.225175 102.738421 
L 80.278743 102.892502 
L 80.280367 102.886993 
L 82.338676 121.272943 
L 82.987985 127.848291 
L 84.546327 145.951328 
L 85.385559 158.06423 
L 86.503994 177.323559 
L 87.307514 194.01335 
L 88.83826 233.457094 
L 90.899817 295.146055 
L 90.930659 294.676817 
L 92.914298 249.000004 
L 93.367191 243.621021 
L 93.735674 240.873955 
L 94.154479 239.636122 
L 94.180451 239.650917 
L 94.394723 240.029668 
L 94.584646 240.544904 
L 94.803788 241.911954 
L 95.3557 246.947312 
L 96.147857 257.345712 
L 97.599063 277.069575 
L 98.287331 283.106586 
L 98.711005 285.481657 
L 99.251555 287.312837 
L 99.633024 287.999786 
L 99.91385 288.277715 
L 100.094033 288.32736 
L 100.389469 288.313928 
L 100.598871 288.252497 
L 101.632896 287.30119 
L 102.491607 285.944868 
L 102.736721 285.429824 
L 105.082351 279.94303 
L 106.0693 278.331748 
L 106.61472 278.280481 
L 107.080599 278.892547 
L 107.627642 280.558337 
L 108.411683 284.428797 
L 110.390452 294.658885 
L 110.848215 295.438663 
L 111.17287 295.48796 
L 111.377402 295.380685 
L 111.799453 294.740799 
L 112.252346 293.538345 
L 112.852957 291.498033 
L 114.427532 286.049771 
L 115.110929 284.338225 
L 115.677452 283.381862 
L 116.271569 282.784527 
L 117.224431 282.439923 
L 117.933801 282.589155 
L 118.85095 283.087331 
L 119.954775 284.396771 
L 122.589347 288.618547 
L 123.045487 288.81432 
L 123.345792 288.771743 
L 123.814918 288.514531 
L 124.512925 287.710956 
L 125.163857 286.689776 
L 126.597207 284.483963 
L 127.470528 283.709845 
L 128.03705 283.537254 
L 128.692852 283.63353 
L 129.64896 284.132819 
L 131.884207 285.762433 
L 133.476637 286.583736 
L 134.760646 286.841417 
L 135.400215 286.759399 
L 136.504041 286.444341 
L 137.013748 285.999892 
L 137.825385 285.220607 
L 138.361065 285.162795 
L 138.619165 285.015196 
L 138.904861 284.525136 
L 139.714874 282.897518 
L 139.734353 282.908271 
L 139.885318 283.142442 
L 140.128809 284.029667 
L 140.591441 285.758127 
L 140.614167 285.745236 
L 140.70994 285.499347 
L 140.880384 284.287285 
L 141.242374 279.655463 
L 141.651439 275.575794 
L 141.765068 275.343138 
L 141.807273 275.392685 
L 141.914409 275.876682 
L 142.096215 277.93164 
L 142.385158 284.183702 
L 142.638388 289.167007 
L 142.677347 288.94272 
L 142.781236 286.482188 
L 143.123747 271.215614 
L 143.628585 252.343977 
L 143.842857 250.185324 
L 143.846103 250.186179 
L 143.898048 250.334663 
L 144.0133 251.544825 
L 144.217833 256.482741 
L 144.547357 270.794489 
L 144.740527 277.128186 
L 144.777862 276.754673 
L 144.872012 272.502416 
L 145.113879 248.560804 
L 145.665792 197.216496 
L 146.029405 185.766338 
L 146.186863 183.602554 
L 146.224198 183.753625 
L 146.313478 185.446586 
L 146.477428 193.720818 
L 146.876753 221.292692 
L 146.949801 219.164362 
L 147.081286 204.734001 
L 147.78254 113.698184 
L 148.092585 97.59333 
L 148.128297 97.375046 
L 148.178618 97.849671 
L 148.279261 101.918252 
L 148.451328 119.800527 
L 148.850653 174.451371 
L 148.918831 171.462649 
L 149.061679 149.246836 
L 149.446394 93.409455 
L 149.952855 64.666619 
L 150.025903 63.823334 
L 150.077847 64.319229 
L 150.17362 68.48659 
L 150.329455 87.161882 
L 150.707677 150.287513 
L 150.782348 145.952345 
L 150.965777 112.697761 
L 151.241734 80.262387 
L 151.725469 56.869328 
L 151.886173 53.872995 
L 151.921885 54.098362 
L 152.001425 56.628206 
L 152.131287 69.559082 
L 152.520873 137.826298 
L 152.631255 128.317252 
L 153.114991 69.139868 
L 153.574377 54.049461 
L 153.640931 53.568 
L 153.692876 53.92455 
L 153.783779 56.905127 
L 153.916887 70.203965 
L 154.171741 126.076353 
L 154.303226 140.642437 
L 154.345431 139.022891 
L 154.45906 122.156275 
L 154.824297 70.85374 
L 155.212259 55.746624 
L 155.273943 55.390612 
L 155.329135 55.674973 
L 155.439517 57.95003 
L 155.580742 66.110541 
L 155.746316 91.838861 
L 156.051491 148.518743 
L 156.103436 146.071719 
L 156.233297 123.613828 
L 156.572561 72.363714 
L 156.851764 64.044159 
L 156.898839 63.831763 
L 156.954031 64.12403 
L 157.079023 66.549588 
L 157.249466 74.312116 
L 157.406924 94.199413 
L 157.759174 158.947316 
L 157.835468 153.782852 
L 158.03026 113.79011 
L 158.304593 77.799602 
L 158.543215 71.594599 
L 158.574057 71.506997 
L 158.624378 71.765914 
L 158.739631 74.024492 
L 158.906828 82.030257 
L 159.072401 103.402138 
L 159.437638 169.260068 
L 159.510685 164.57877 
L 159.692492 128.453446 
L 159.99929 84.507643 
L 160.189213 79.817191 
L 160.195706 79.821675 
L 160.237911 80.096198 
L 160.345047 82.613805 
L 160.520361 92.647253 
L 160.710284 118.662209 
L 161.090129 188.113391 
L 161.15993 183.949299 
L 161.330374 151.084337 
L 161.676131 97.818305 
L 161.840081 93.041688 
L 161.861184 93.116572 
L 161.934231 94.387641 
L 162.080326 101.518815 
L 162.267002 123.223214 
L 162.710156 205.361587 
L 162.815668 195.95099 
L 163.456861 106.7636 
L 163.464977 106.774463 
L 163.510429 107.287012 
L 163.620812 111.632072 
L 163.796125 128.769469 
L 164.050979 179.886704 
L 164.29447 221.612503 
L 164.326935 220.587756 
L 164.424332 207.183093 
L 164.979491 120.500007 
L 165.054161 119.305747 
L 165.107729 119.906869 
L 165.216489 124.872071 
L 165.393425 145.080675 
L 165.690484 211.025943 
L 165.846319 232.842602 
L 165.8869 231.094713 
L 166.003776 211.733065 
L 166.463162 135.883561 
L 166.588154 132.161683 
L 166.628736 132.542328 
L 166.724509 136.504023 
L 166.893329 154.42756 
L 167.172532 212.774004 
L 167.364079 242.370396 
L 167.401414 240.838479 
L 167.515043 222.987375 
L 167.977676 150.301437 
L 168.097798 146.898308 
L 168.140003 147.324795 
L 168.237399 151.618532 
L 168.409466 170.945391 
L 168.846127 249.847531 
L 168.954886 239.032922 
L 169.508422 162.133225 
L 169.56199 161.492504 
L 169.615558 162.171024 
L 169.724317 167.706759 
L 169.91424 190.874143 
L 170.298956 254.033041 
L 170.375249 248.982125 
L 170.685295 196.478013 
L 170.954758 173.958911 
L 171.009949 173.28905 
L 171.06514 173.974487 
L 171.175523 179.50897 
L 171.368692 202.551 
L 171.727436 256.99532 
L 171.79399 253.226305 
L 172.008262 218.240216 
L 172.331293 182.4006 
L 172.433559 180.166356 
L 172.482257 180.662931 
L 172.586147 185.108098 
L 172.7712 204.393825 
L 173.146176 255.712924 
L 173.2176 251.95056 
L 173.431872 219.261072 
L 173.761396 184.166765 
L 173.865286 181.942758 
L 173.912361 182.410828 
L 174.014627 186.678041 
L 174.198057 205.504666 
L 174.569786 256.274012 
L 174.642833 252.299099 
L 174.865222 217.666316 
L 175.189876 183.265022 
L 175.293766 181.026538 
L 175.342464 181.499891 
L 175.446353 185.802845 
L 175.63303 204.683105 
L 176.006383 254.005176 
L 176.077807 250.417372 
L 176.279092 220.267153 
L 176.624849 181.974633 
L 176.738479 179.330836 
L 176.78393 179.74145 
L 176.88295 183.63474 
L 177.06151 201.204899 
L 177.451095 254.654121 
L 177.530636 249.856724 
L 177.801722 206.96921 
L 178.097158 179.734179 
L 178.178321 178.380431 
L 178.231889 178.953598 
L 178.340649 183.787726 
L 178.532195 204.219519 
L 178.895808 252.711214 
L 178.959116 249.750316 
L 179.134429 224.202273 
L 179.504535 180.817204 
L 179.624657 177.85445 
L 179.668486 178.238539 
L 179.765882 181.98643 
L 179.941196 198.969961 
L 180.337274 253.609724 
L 180.421684 248.416235 
L 180.762572 196.257301 
L 181.020672 178.338833 
L 181.062877 177.988137 
L 181.116445 178.588499 
L 181.226828 183.574703 
L 181.419997 204.379723 
L 181.77874 251.910095 
L 181.840425 249.208661 
L 182.007622 225.521613 
L 182.387468 180.894604 
L 182.50759 178.002193 
L 182.549795 178.37724 
L 182.647191 182.092106 
L 182.822505 198.962661 
L 183.218583 252.956372 
L 183.302993 247.899083 
L 183.606545 201.071728 
L 183.884125 178.83975 
L 183.944186 178.114399 
L 183.999377 178.740893 
L 184.10976 183.771298 
L 184.304553 204.785244 
L 184.660049 251.43373 
L 184.720111 248.940747 
L 184.879191 227.001229 
L 185.272023 180.625716 
L 185.390522 177.804079 
L 185.434351 178.198744 
L 185.53337 182.043467 
L 185.710307 199.284718 
L 186.103139 252.81062 
L 186.184303 248.065091 
L 186.448896 206.684326 
L 186.747578 178.896844 
L 186.830365 177.492348 
L 186.88231 178.028319 
L 186.989446 182.660323 
L 187.179369 202.536345 
L 187.547852 251.631609 
L 187.614406 248.557803 
L 187.794589 222.290614 
L 188.161449 179.865266 
L 188.281571 176.989308 
L 188.323776 177.369454 
L 188.421172 181.100391 
L 188.596486 198.053315 
L 188.994188 253.079426 
L 189.080221 247.748208 
L 189.723037 177.045349 
L 189.789591 177.970372 
L 189.911337 184.438876 
L 190.122362 209.916563 
L 190.440524 251.8411 
L 190.487599 250.240495 
L 190.615837 234.095487 
L 191.06386 179.445341 
L 191.170996 177.098368 
L 191.218071 177.545992 
L 191.318714 181.636147 
L 191.498897 199.800207 
L 191.885236 253.193634 
L 191.963153 248.679964 
L 192.211514 209.474875 
L 192.518313 179.158459 
L 192.610839 177.411238 
L 192.661161 177.924668 
L 192.766673 182.415492 
L 192.95335 201.688837 
L 193.328326 251.888456 
L 193.398127 248.470879 
L 193.591296 219.738683 
L 193.943546 180.111509 
L 194.058799 177.431901 
L 194.102627 177.83023 
L 194.201647 181.701666 
L 194.378583 199.068678 
L 194.771415 253.219652 
L 194.854202 248.24578 
L 195.143145 202.990931 
L 195.427217 178.589827 
L 195.498641 177.573557 
L 195.552209 178.173521 
L 195.662592 183.167013 
L 195.855761 204.014058 
L 196.216128 251.891142 
L 196.277812 249.111814 
L 196.446633 224.977644 
L 196.824855 180.388687 
L 196.946601 177.427022 
L 196.988806 177.806616 
L 197.086202 181.536881 
L 197.261516 198.479105 
L 197.659217 253.22274 
L 197.743628 248.01012 
L 198.081268 196.275417 
L 198.342615 177.868452 
L 198.386444 177.491559 
L 198.440012 178.093804 
L 198.550394 183.090406 
L 198.743564 203.944658 
L 199.10393 251.904864 
L 199.165615 249.132209 
L 199.334435 224.972027 
L 199.712657 180.322326 
L 199.834403 177.343379 
L 199.876608 177.71695 
L 199.974004 181.435987 
L 200.149318 198.37159 
L 200.54702 253.238608 
L 200.63143 248.062883 
L 200.954461 198.118177 
L 201.222301 177.994101 
L 201.274246 177.45489 
L 201.327814 178.050857 
L 201.436573 182.927731 
L 201.628119 203.414599 
L 201.991732 251.913863 
L 202.05504 249.025505 
L 202.22873 223.944871 
L 202.60046 180.351793 
L 202.722205 177.371807 
L 202.76441 177.744639 
L 202.861807 181.460262 
L 203.03712 198.387986 
L 203.434822 253.230873 
L 203.519232 248.059796 
L 203.842263 198.148821 
L 204.110103 178.05003 
L 204.162048 177.515105 
L 204.215616 178.114846 
L 204.324375 182.998218 
L 204.517545 203.72679 
L 204.879535 251.895403 
L 204.941219 249.124076 
L 205.110039 224.984205 
L 205.488262 180.377111 
L 205.610007 177.415557 
L 205.652212 177.795375 
L 205.749609 181.527001 
L 205.924922 198.475074 
L 206.322624 253.217177 
L 206.407034 248.000484 
L 206.747921 195.881206 
L 207.007645 177.865862 
L 207.048227 177.520805 
L 207.101795 178.092847 
L 207.210554 182.916715 
L 207.4021 203.308709 
L 207.765713 251.887663 
L 207.830644 248.948276 
L 208.005958 223.570964 
L 208.376064 180.343708 
L 208.496186 177.390275 
L 208.540015 177.772704 
L 208.637411 181.511296 
L 208.812724 198.475686 
L 209.210426 253.21528 
L 209.294836 247.981671 
L 209.936029 177.489321 
L 210.00583 178.469206 
L 210.129199 185.165642 
L 210.343471 211.379696 
L 210.653516 251.890459 
L 210.698967 250.431435 
L 210.822336 235.33126 
L 211.283345 179.452984 
L 211.383988 177.37315 
L 211.432687 177.847277 
L 211.534953 182.091058 
L 211.716759 200.665983 
L 212.098228 253.218131 
L 212.172899 249.05505 
L 212.400157 213.398696 
L 212.721565 179.633776 
L 212.823831 177.488546 
L 212.872529 177.961037 
L 212.976419 182.25481 
L 213.161472 201.018307 
L 213.541318 251.89226 
L 213.614365 248.198831 
L 213.818897 217.410347 
L 214.159785 179.949091 
L 214.271791 177.381781 
L 214.317242 177.795586 
L 214.416262 181.703147 
L 214.594822 199.349913 
L 214.986031 253.218114 
L 215.065571 248.522894 
L 215.326918 207.331982 
L 215.627223 178.95999 
L 215.711633 177.499181 
L 215.763578 178.040621 
L 215.870714 182.692589 
L 216.060637 202.627526 
L 216.42912 251.890615 
L 216.495674 248.791422 
L 216.675857 222.461525 
L 217.041094 180.252319 
L 217.159593 177.387439 
L 217.203421 177.773764 
L 217.300817 181.521256 
L 217.476131 198.501839 
L 217.873833 253.216507 
L 217.958243 247.958577 
L 218.599436 177.498163 
L 218.669236 178.485492 
L 218.792605 185.195233 
L 219.006877 211.429406 
L 219.316922 251.890626 
L 219.362374 250.413517 
L 219.487366 235.029407 
L 219.945129 179.517313 
L 220.047395 177.383195 
L 220.096093 177.863588 
L 220.199983 182.224749 
L 220.383412 201.171752 
L 220.761635 253.217492 
L 220.834682 249.190068 
L 221.055447 214.6597 
L 221.381725 179.762537 
L 221.487238 177.493744 
L 221.534313 177.94109 
L 221.636579 182.077157 
L 221.820009 200.400807 
L 222.204724 251.892002 
L 222.279395 248.007805 
L 222.492044 215.784477 
L 222.826438 179.789535 
L 222.935197 177.381025 
L 222.982272 177.831263 
L 223.084538 182.021856 
L 223.266345 200.50226 
L 223.649437 253.218105 
L 223.724108 249.014023 
L 223.952989 213.078654 
L 224.272774 179.623046 
L 224.37504 177.494955 
L 224.423738 177.975708 
L 224.527628 182.287072 
L 224.712681 201.078932 
L 225.092527 251.891975 
L 225.163951 248.315287 
L 225.363613 218.402128 
L 225.70937 180.007057 
L 225.822999 177.383457 
L 225.868451 177.804447 
L 225.969094 181.827858 
L 226.149277 199.847862 
L 226.537239 253.217534 
L 226.615156 248.656111 
L 226.866764 208.994012 
L 227.171939 179.175378 
L 227.262842 177.49674 
L 227.313164 178.012434 
L 227.418676 182.503535 
L 227.605353 201.769023 
L 227.980329 251.891607 
L 228.050129 248.458427 
L 228.243299 219.715668 
L 228.595549 180.07766 
L 228.710801 177.384367 
L 228.75463 177.777513 
L 228.853649 181.637237 
L 229.030586 198.9819 
L 229.423418 253.217457 
L 229.506205 248.286302 
L 229.790278 203.697111 
L 230.077597 178.578147 
L 230.150644 177.496256 
L 230.204212 178.083044 
L 230.312972 182.938878 
L 230.504518 203.38701 
L 230.868131 251.891689 
L 230.931439 249.035937 
L 231.103505 224.270649 
L 231.478481 180.303208 
L 231.598604 177.383068 
L 231.640809 177.749236 
L 231.738205 181.44887 
L 231.913519 198.343744 
L 232.31122 253.217686 
L 232.397254 247.906664 
L 233.038447 177.495478 
L 233.105001 178.404775 
L 233.226746 184.841651 
L 233.437772 210.22137 
L 233.755933 251.891785 
L 233.803008 250.278501 
L 233.93287 233.914075 
L 234.37927 179.704011 
L 234.486406 177.382831 
L 234.533481 177.840375 
L 234.635747 182.047613 
L 234.817553 200.557614 
L 235.199023 253.217743 
L 235.275316 248.972674 
L 235.507444 212.499163 
L 235.825606 179.541121 
L 235.926249 177.495745 
L 235.974947 177.984259 
L 236.078836 182.312606 
L 236.263889 201.133237 
L 236.643735 251.891752 
L 236.715159 248.277542 
L 236.916445 218.073966 
L 237.260579 179.988996 
L 237.374208 177.383558 
L 237.418036 177.781838 
L 237.517056 181.65359 
L 237.693993 199.019347 
L 238.086825 253.217823 
L 238.169612 248.254731 
L 238.456931 203.19691 
L 238.742627 178.522273 
L 238.814051 177.496118 
L 238.867619 178.089148 
L 238.976378 182.957933 
L 239.167924 203.42745 
L 239.531537 251.891686 
L 239.594845 249.011381 
L 239.766912 224.223534 
L 240.140265 180.368751 
L 240.26201 177.383426 
L 240.304215 177.754528 
L 240.401612 181.465923 
L 240.576925 198.381914 
L 240.974627 253.21786 
L 241.059037 248.060029 
L 241.378822 198.572707 
L 241.648285 178.069738 
L 241.701853 177.495922 
L 241.755421 178.091046 
L 241.86418 182.964149 
L 242.055727 203.440861 
L 242.41934 251.891628 
L 242.482647 249.003128 
L 242.656337 223.937319 
L 243.02969 180.285084 
L 243.149812 177.383163 
L 243.192017 177.755841 
L 243.289414 181.4711 
L 243.464727 198.39432 
L 243.862429 253.217897 
L 243.946839 248.049218 
L 244.268247 198.351242 
L 244.536087 178.06755 
L 244.589655 177.495808 
L 244.643223 178.093029 
L 244.751983 182.970477 
L 244.943529 203.4543 
L 245.307142 251.89163 
L 245.370449 248.994894 
L 245.54414 223.921715 
L 245.915869 180.359362 
L 246.037615 177.383348 
L 246.07982 177.757694 
L 246.177216 181.476802 
L 246.352529 198.406898 
L 246.750231 253.217986 
L 246.834641 248.038409 
L 247.159296 197.923614 
L 247.427136 177.998012 
L 247.477457 177.495949 
L 247.531025 178.095259 
L 247.639785 182.977073 
L 247.832954 203.701181 
L 248.194944 251.891567 
L 248.258252 248.986548 
L 248.431942 223.905712 
L 248.803671 180.354722 
L 248.925417 177.383382 
L 248.967622 177.759435 
L 249.065018 181.482619 
L 249.240332 198.419715 
L 249.638033 253.217981 
L 249.722444 248.027452 
L 250.051968 197.295478 
L 250.316561 177.963967 
L 250.36526 177.496005 
L 250.418828 178.097404 
L 250.52921 183.094177 
L 250.72238 203.948854 
L 251.082746 251.891449 
L 251.144431 249.118581 
L 251.313251 224.97141 
L 251.691473 180.350076 
L 251.813219 177.383351 
L 251.855424 177.761029 
L 251.95282 181.488139 
L 252.128134 198.432402 
L 252.525836 253.217966 
L 252.610246 248.016486 
L 252.943017 196.877909 
L 253.205987 177.931023 
L 253.253062 177.495982 
L 253.30663 178.099492 
L 253.417012 183.10069 
L 253.610182 203.962565 
L 253.970548 251.891384 
L 254.032233 249.110418 
L 254.201053 224.955568 
L 254.579276 180.345386 
L 254.701021 177.383419 
L 254.743226 177.762766 
L 254.840623 181.493779 
L 255.015936 198.445 
L 255.413638 253.217991 
L 255.498048 248.005608 
L 255.835689 196.26522 
L 256.097036 177.870523 
L 256.140864 177.496007 
L 256.194432 178.101608 
L 256.304815 183.107238 
L 256.497984 203.976378 
L 256.858351 251.891287 
L 256.920035 249.102255 
L 257.088855 224.939628 
L 257.467078 180.340722 
L 257.588823 177.383421 
L 257.631028 177.764449 
L 257.728425 181.499472 
L 257.903738 198.457693 
L 258.30144 253.217958 
L 258.38585 247.994683 
L 258.733231 195.078798 
L 258.989708 177.789004 
L 259.028666 177.496064 
L 259.080611 178.068014 
L 259.18937 182.893229 
L 259.380916 203.290495 
L 259.744529 251.89131 
L 259.80946 248.953112 
L 259.984774 223.572002 
L 260.35488 180.336106 
L 260.475002 177.383376 
L 260.518831 177.766125 
L 260.616227 181.505085 
L 260.79154 198.470408 
L 261.189242 253.21791 
L 261.273652 247.983707 
L 261.914845 177.495942 
L 261.984646 178.477123 
L 262.108015 185.175781 
L 262.322287 211.394533 
L 262.632332 251.891421 
L 262.677783 250.428268 
L 262.801152 235.322467 
L 263.262161 179.459407 
L 263.362804 177.383385 
L 263.411503 177.859718 
L 263.513769 182.108571 
L 263.695575 200.690566 
L 264.077044 253.217873 
L 264.151715 249.042752 
L 264.378973 213.383826 
L 264.700381 179.635587 
L 264.802647 177.495908 
L 264.851345 177.971102 
L 264.955235 182.270422 
L 265.140288 201.041559 
L 265.520134 251.891508 
L 265.593181 248.185306 
L 265.797713 217.389868 
L 266.138601 179.945285 
L 266.250607 177.383333 
L 266.296058 177.799133 
L 266.395078 181.711271 
L 266.573638 199.367166 
L 266.964847 253.217801 
L 267.044387 248.509519 
L 267.307357 207.070244 
L 267.606039 178.953462 
L 267.690449 177.495894 
L 267.742394 178.039395 
L 267.84953 182.69602 
L 268.039453 202.639078 
L 268.407936 251.891571 
L 268.47449 248.783437 
L 268.656297 222.175957 
L 269.01991 180.243818 
L 269.138409 177.383312 
L 269.182237 177.771245 
L 269.279633 181.522064 
L 269.454947 198.508462 
L 269.852649 253.217719 
L 269.935436 248.136198 
L 270.238988 200.808223 
L 270.516567 178.274784 
L 270.578252 177.49589 
L 270.633443 178.112322 
L 270.743825 183.140013 
L 270.938618 204.280452 
L 271.295738 251.891638 
L 271.357423 249.199787 
L 271.522996 225.671876 
L 271.906089 180.317532 
L 272.026211 177.383323 
L 272.068416 177.744371 
L 272.164189 181.337191 
L 272.337879 197.877764 
L 272.740451 253.217631 
L 272.826484 247.751753 
L 273.466054 177.495874 
L 273.527738 178.26957 
L 273.644614 184.075905 
L 273.847523 207.426046 
L 274.18354 251.891681 
L 274.237108 249.838601 
L 274.38158 230.511958 
L 274.797137 180.157496 
L 274.914013 177.383296 
L 274.957841 177.77469 
L 275.056861 181.630476 
L 275.233798 198.96792 
L 275.628253 253.217517 
L 275.709417 248.297593 
L 275.991866 203.94243 
L 276.280809 178.58068 
L 276.353856 177.495869 
L 276.407424 178.080494 
L 276.516183 182.931811 
L 276.707729 203.372368 
L 277.071343 251.891708 
L 277.136273 248.902663 
L 277.31321 223.206758 
L 277.681693 180.308267 
L 277.801815 177.383286 
L 277.84402 177.747659 
L 277.939793 181.348258 
L 278.113484 197.902811 
L 278.514432 253.21753 
L 278.602089 247.729464 
L 279.241658 177.495872 
L 279.303343 178.274397 
L 279.420218 184.090087 
L 279.623127 207.45497 
L 279.959145 251.891731 
L 280.012713 249.82431 
L 280.157184 230.480459 
L 280.572742 180.1485 
L 280.689617 177.383296 
L 280.733446 177.77814 
L 280.832465 181.641958 
L 281.009402 198.993568 
L 281.402234 253.21764 
L 281.485021 248.276204 
L 281.770717 203.453368 
L 282.058036 178.527568 
L 282.12946 177.49587 
L 282.183028 178.084691 
L 282.291788 182.944715 
L 282.483334 203.399689 
L 282.846947 251.891733 
L 282.910255 249.028137 
L 283.082321 224.255594 
L 283.457297 180.299018 
L 283.57742 177.383288 
L 283.619625 177.75099 
L 283.717021 181.454339 
L 283.892335 198.356268 
L 284.290036 253.21773 
L 284.37607 247.895849 
L 285.017263 177.495877 
L 285.083817 178.407777 
L 285.205562 184.84957 
L 285.416588 210.236604 
L 285.734749 251.891722 
L 285.781824 250.271987 
L 285.911686 233.898637 
L 286.358086 179.700128 
L 286.465222 177.383292 
L 286.512297 177.842759 
L 286.614563 182.054144 
L 286.796369 200.571194 
L 287.177839 253.217809 
L 287.254132 248.962457 
L 287.48626 212.483798 
L 287.804422 179.537356 
L 287.905065 177.495889 
L 287.953763 177.986306 
L 288.057652 182.318798 
L 288.242705 201.146597 
L 288.622551 251.891702 
L 288.693975 248.268292 
L 288.895261 218.058112 
L 289.239395 179.984463 
L 289.353024 177.383306 
L 289.396852 177.783332 
L 289.495872 181.659219 
L 289.672809 199.032062 
L 290.065641 253.217875 
L 290.148428 248.244053 
L 290.43737 202.954765 
L 290.721443 178.519308 
L 290.792867 177.495899 
L 290.846435 178.091004 
L 290.955194 182.964076 
L 291.14674 203.440681 
L 291.510353 251.891664 
L 291.573661 249.003244 
L 291.747351 223.93761 
L 292.120704 180.285177 
L 292.240826 177.383314 
L 292.283031 177.756002 
L 292.380428 181.471207 
L 292.555741 198.394243 
L 292.953443 253.217922 
L 293.037853 248.049338 
L 293.359261 198.351392 
L 293.627101 178.067686 
L 293.680669 177.495918 
L 293.734237 178.093115 
L 293.842996 182.970532 
L 294.034543 203.45435 
L 294.398156 251.891613 
L 294.461463 248.994925 
L 294.635153 223.921723 
L 295.006883 180.359417 
L 295.128628 177.38333 
L 295.170833 177.75768 
L 295.26823 181.476837 
L 295.443543 198.40691 
L 295.841245 253.217958 
L 295.925655 248.038437 
L 296.25031 197.923617 
L 296.51815 177.998009 
L 296.568471 177.49594 
L 296.622039 178.095235 
L 296.730799 182.977003 
L 296.923968 203.701043 
L 297.285958 251.891551 
L 297.349265 248.986597 
L 297.522956 223.905834 
L 297.894685 180.354753 
L 298.016431 177.383352 
L 298.058636 177.759365 
L 298.156032 181.482474 
L 298.331345 198.419579 
L 298.729047 253.21798 
L 298.813457 248.02753 
L 299.142982 197.295605 
L 299.407575 177.963934 
L 299.456273 177.495962 
L 299.509841 178.097352 
L 299.620224 183.094103 
L 299.813393 203.948699 
L 300.17376 251.891472 
L 300.235444 249.118664 
L 300.404265 224.971579 
L 300.782487 180.35009 
L 300.904233 177.383373 
L 300.946438 177.761049 
L 301.043834 181.488113 
L 301.219148 198.43225 
L 301.616849 253.217985 
L 301.70126 248.016614 
L 302.034031 196.878023 
L 302.297001 177.931058 
L 302.344076 177.495991 
L 302.397644 178.099475 
L 302.508026 183.100639 
L 302.701196 203.962479 
L 303.061562 251.891381 
L 303.123247 249.110493 
L 303.292067 224.955674 
L 303.670289 180.345433 
L 303.792035 177.3834 
L 303.83424 177.762739 
L 303.931636 181.493756 
L 304.10695 198.444927 
L 304.504652 253.217978 
L 304.589062 248.005687 
L 304.926703 196.265286 
L 305.188049 177.870551 
L 305.231878 177.496024 
L 305.285446 178.101605 
L 305.395828 183.107185 
L 305.588998 203.976262 
L 305.949364 251.891277 
L 306.011049 249.102312 
L 306.179869 224.939766 
L 306.558092 180.340779 
L 306.679837 177.383432 
L 306.722042 177.764434 
L 306.819439 181.499404 
L 306.994752 198.457606 
L 307.392454 253.217956 
L 307.476864 247.994753 
L 307.824244 195.078909 
L 308.080721 177.789004 
L 308.11968 177.496058 
L 308.171625 178.068001 
L 308.280384 182.893192 
L 308.47193 203.290387 
L 308.835543 251.891318 
L 308.900474 248.953176 
L 309.075788 223.572132 
L 309.445894 180.336128 
L 309.566016 177.383387 
L 309.609844 177.76613 
L 309.707241 181.505054 
L 309.882554 198.470288 
L 310.280256 253.217919 
L 310.364666 247.983809 
L 311.005859 177.495934 
L 311.07566 178.477086 
L 311.199028 185.175712 
L 311.4133 211.394417 
L 311.723345 251.891418 
L 311.768797 250.428321 
L 311.892166 235.322586 
L 312.353175 179.459428 
L 312.453818 177.383363 
L 312.502516 177.859683 
L 312.604783 182.108521 
L 312.786589 200.690454 
L 313.168058 253.217868 
L 313.242729 249.042833 
L 313.469987 213.383959 
L 313.791395 179.635619 
L 313.893661 177.495914 
L 313.942359 177.971089 
L 314.046249 182.270364 
L 314.231302 201.041439 
L 314.611148 251.891504 
L 314.684195 248.185382 
L 314.888727 217.390003 
L 315.229615 179.945334 
L 315.34162 177.383341 
L 315.387072 177.79912 
L 315.486092 181.711213 
L 315.664652 199.367071 
L 316.05586 253.217802 
L 316.135401 248.509596 
L 316.398371 207.070378 
L 316.697053 178.953484 
L 316.781463 177.495897 
L 316.833408 178.039388 
L 316.940544 182.695986 
L 317.130467 202.638975 
L 317.49895 251.891576 
L 317.565504 248.783504 
L 317.747311 222.176085 
L 318.110924 180.243851 
L 318.229423 177.383323 
L 318.273251 177.771246 
L 318.370647 181.522031 
L 318.545961 198.508357 
L 318.943663 253.217722 
L 319.026449 248.13629 
L 319.330001 200.808317 
L 319.607581 178.274804 
L 319.669265 177.495885 
L 319.724457 178.112297 
L 319.834839 183.139956 
L 320.029632 204.280348 
L 320.386752 251.891634 
L 320.448436 249.199851 
L 320.61401 225.671997 
L 320.997103 180.317564 
L 321.117225 177.383309 
L 321.15943 177.744346 
L 321.255203 181.337143 
L 321.428893 197.877661 
L 321.831465 253.217628 
L 321.917498 247.751843 
L 322.557068 177.495876 
L 322.618752 178.26955 
L 322.735628 184.075838 
L 322.938537 207.425921 
L 323.274554 251.89168 
L 323.328122 249.838659 
L 323.472593 230.512093 
L 323.888151 180.157538 
L 324.005027 177.383299 
L 324.048855 177.774675 
L 324.147875 181.630423 
L 324.324812 198.967819 
L 324.719267 253.217519 
L 324.800431 248.297677 
L 325.08288 203.942553 
L 325.371823 178.5807 
L 325.44487 177.49587 
L 325.498438 178.080483 
L 325.607197 182.931768 
L 325.798743 203.37226 
L 326.162356 251.891711 
L 326.227287 248.902732 
L 326.404224 223.206886 
L 326.772707 180.308303 
L 326.892829 177.383292 
L 326.935034 177.747653 
L 327.030807 181.34822 
L 327.204497 197.902709 
L 327.605446 253.21753 
L 327.693103 247.729557 
L 328.332672 177.495869 
L 328.394356 178.274373 
L 328.511232 184.090028 
L 328.714141 207.454858 
L 329.050159 251.891729 
L 329.103727 249.824367 
L 329.248198 230.480583 
L 329.663756 180.148533 
L 329.780631 177.383289 
L 329.82446 177.77812 
L 329.923479 181.64191 
L 330.100416 198.993464 
L 330.493248 253.217637 
L 330.576035 248.276289 
L 330.860108 203.683952 
L 331.147427 178.57505 
L 331.220474 177.495872 
L 331.274042 178.084674 
L 331.382801 182.944658 
L 331.574348 203.399574 
L 331.937961 251.891733 
L 332.001268 249.028204 
L 332.173335 224.255726 
L 332.548311 180.299058 
L 332.668433 177.38329 
L 332.710639 177.750976 
L 332.808035 181.45429 
L 332.983348 198.356167 
L 333.38105 253.21773 
L 333.467084 247.895937 
L 334.108276 177.495877 
L 334.174831 178.407759 
L 334.296576 184.849515 
L 334.507601 210.236483 
L 334.825763 251.891724 
L 334.872838 250.27204 
L 335.0027 233.898761 
L 335.4491 179.700161 
L 335.556236 177.383295 
L 335.603311 177.842748 
L 335.705577 182.054099 
L 335.887383 200.571087 
L 336.268852 253.217809 
L 336.345146 248.96254 
L 336.577274 212.483915 
L 336.895436 179.53739 
L 336.996079 177.495887 
L 337.044777 177.986287 
L 337.148666 182.318747 
L 337.333719 201.146493 
L 337.713565 251.891701 
L 337.784989 248.268365 
L 337.986275 218.058236 
L 338.330409 179.984497 
L 338.444038 177.383303 
L 338.487866 177.783315 
L 338.586886 181.659171 
L 338.763823 199.031957 
L 339.156655 253.217873 
L 339.239441 248.244139 
L 339.528384 202.954873 
L 339.812457 178.519331 
L 339.883881 177.495901 
L 339.937449 178.090988 
L 340.046208 182.964021 
L 340.237754 203.440569 
L 340.601367 251.891664 
L 340.664675 249.003312 
L 340.838365 223.93774 
L 341.211718 180.285216 
L 341.33184 177.383315 
L 341.374045 177.755989 
L 341.471441 181.471161 
L 341.646755 198.394142 
L 342.044457 253.217923 
L 342.128867 248.049425 
L 342.450275 198.351495 
L 342.718115 178.067702 
L 342.771683 177.495918 
L 342.825251 178.0931 
L 342.93401 182.970483 
L 343.125556 203.45424 
L 343.489169 251.891614 
L 343.552477 248.994993 
L 343.726167 223.921851 
L 344.097897 180.359454 
L 344.219642 177.383331 
L 344.261847 177.757667 
L 344.359244 181.476792 
L 344.534557 198.406807 
L 344.932259 253.217958 
L 345.016669 248.038526 
L 345.341324 197.923714 
L 345.609164 177.998024 
L 345.659485 177.495939 
L 345.713053 178.095216 
L 345.821812 182.976949 
L 346.014982 203.700934 
L 346.376972 251.89155 
L 346.440279 248.986664 
L 346.613969 223.905962 
L 346.985699 180.354789 
L 347.107444 177.38335 
L 347.149649 177.75935 
L 347.247046 181.482428 
L 347.422359 198.419476 
L 347.820061 253.217979 
L 347.904471 248.027618 
L 348.232372 197.500017 
L 348.498589 177.96395 
L 348.547287 177.495963 
L 348.600855 178.097336 
L 348.711238 183.094049 
L 348.904407 203.948587 
L 349.264774 251.891473 
L 349.326458 249.11873 
L 349.495279 224.971708 
L 349.873501 180.350128 
L 349.995247 177.383373 
L 350.037452 177.761036 
L 350.134848 181.488067 
L 350.310161 198.432148 
L 350.707863 253.217986 
L 350.792273 248.016701 
L 351.125044 196.878121 
L 351.388015 177.931072 
L 351.435089 177.495991 
L 351.488657 178.099459 
L 351.59904 183.100588 
L 351.792209 203.962367 
L 352.152576 251.891382 
L 352.21426 249.110559 
L 352.383081 224.955801 
L 352.761303 180.34547 
L 352.883049 177.3834 
L 352.925254 177.762726 
L 353.02265 181.49371 
L 353.197964 198.444824 
L 353.595665 253.217978 
L 353.680076 248.005776 
L 354.017716 196.26538 
L 354.279063 177.870564 
L 354.322892 177.496023 
L 354.37646 178.101587 
L 354.486842 183.107131 
L 354.680012 203.976151 
L 355.040378 251.891278 
L 355.102063 249.102378 
L 355.270883 224.939895 
L 355.649105 180.340816 
L 355.770851 177.383431 
L 355.813056 177.76442 
L 355.910452 181.499358 
L 356.085766 198.457503 
L 356.483468 253.217956 
L 356.567878 247.994841 
L 356.915258 195.079 
L 357.171735 177.789017 
L 357.210694 177.496059 
L 357.262639 178.067985 
L 357.371398 182.89314 
L 357.562944 203.290277 
L 357.926557 251.891318 
L 357.991488 248.953244 
L 358.166801 223.57226 
L 358.536908 180.336166 
L 358.65703 177.383388 
L 358.700858 177.766117 
L 358.798255 181.505009 
L 358.973568 198.470186 
L 359.37127 253.217919 
L 359.45568 247.983897 
L 360.096873 177.495934 
L 360.166673 178.477065 
L 360.290042 185.175651 
L 360.504314 211.394295 
L 360.814359 251.891417 
L 360.859811 250.428371 
L 360.98318 235.322709 
L 361.444189 179.45946 
L 361.544832 177.383363 
L 361.59353 177.859668 
L 361.695796 182.108472 
L 361.877603 200.690347 
L 362.259072 253.217868 
L 362.333743 249.042914 
L 362.561001 213.384081 
L 362.882409 179.635651 
L 362.984675 177.495914 
L 363.033373 177.971073 
L 363.137263 182.270314 
L 363.322316 201.041333 
L 363.702161 251.891503 
L 363.775209 248.185457 
L 363.979741 217.390128 
L 364.320628 179.945369 
L 364.432634 177.383341 
L 364.478086 177.799105 
L 364.577105 181.711166 
L 364.755665 199.366966 
L 365.146874 253.217803 
L 365.226415 248.509681 
L 365.489385 207.070493 
L 365.788067 178.953511 
L 365.872477 177.495897 
L 365.924422 178.039372 
L 366.031558 182.695935 
L 366.221481 202.638866 
L 366.589964 251.891575 
L 366.656518 248.783574 
L 366.838324 222.176213 
L 367.201937 180.243888 
L 367.320436 177.383323 
L 367.364265 177.771232 
L 367.461661 181.521986 
L 367.636975 198.508255 
L 368.034676 253.217723 
L 368.117463 248.136377 
L 368.421015 200.808422 
L 368.698595 178.274823 
L 368.760279 177.495885 
L 368.815471 178.112279 
L 368.925853 183.139904 
L 369.120646 204.280236 
L 369.477766 251.891634 
L 369.53945 249.199917 
L 369.705024 225.672125 
L 370.088116 180.317601 
L 370.208239 177.383309 
L 370.250444 177.744332 
L 370.346217 181.337098 
L 370.519907 197.87756 
L 370.922479 253.217629 
L 371.008512 247.751933 
L 371.648081 177.495876 
L 371.709766 178.26953 
L 371.826641 184.07578 
L 372.029551 207.425804 
L 372.365568 251.891679 
L 372.419136 249.838717 
L 372.563607 230.51222 
L 372.979165 180.157574 
L 373.096041 177.383299 
L 373.139869 177.774661 
L 373.238889 181.630377 
L 373.415825 198.967715 
L 373.810281 253.21752 
L 373.891444 248.297763 
L 374.173894 203.942663 
L 374.462836 178.580723 
L 374.535884 177.495871 
L 374.589452 178.080466 
L 374.698211 182.931716 
L 374.889757 203.372149 
L 375.25337 251.891711 
L 375.318301 248.9028 
L 375.495238 223.207014 
L 375.863721 180.308341 
L 375.983843 177.383292 
L 376.026048 177.74764 
L 376.121821 181.348176 
L 376.295511 197.902608 
L 376.69646 253.217529 
L 376.784116 247.729647 
L 377.423686 177.495869 
L 377.48537 178.274353 
L 377.602246 184.089971 
L 377.805155 207.454741 
L 378.141172 251.891729 
L 378.19474 249.824425 
L 378.339212 230.48071 
L 378.754769 180.148569 
L 378.871645 177.383289 
L 378.915473 177.778106 
L 379.014493 181.641864 
L 379.19143 198.99336 
L 379.584262 253.217636 
L 379.667049 248.276376 
L 379.951121 203.684061 
L 380.238441 178.575073 
L 380.311488 177.495872 
L 380.365056 178.084657 
L 380.473815 182.944606 
L 380.665361 203.399464 
L 381.028975 251.891733 
L 381.092282 249.028271 
L 381.264349 224.255854 
L 381.639325 180.299095 
L 381.759447 177.38329 
L 381.801652 177.750963 
L 381.899049 181.454245 
L 382.074362 198.356065 
L 382.472064 253.21773 
L 382.558097 247.896026 
L 383.19929 177.495877 
L 383.265844 178.407738 
L 383.38759 184.849454 
L 383.598615 210.236363 
L 383.916777 251.891724 
L 383.963852 250.272091 
L 384.093713 233.898885 
L 384.540113 179.700195 
L 384.647249 177.383295 
L 384.694324 177.842733 
L 384.796591 182.05405 
L 384.978397 200.57098 
L 385.359866 253.217808 
L 385.43616 248.962622 
L 385.668288 212.484038 
L 385.986449 179.537421 
L 386.087092 177.495887 
L 386.135791 177.986271 
L 386.23968 182.318699 
L 386.424733 201.146387 
L 386.804579 251.891701 
L 386.876003 248.268439 
L 387.077289 218.058361 
L 387.421423 179.984532 
L 387.535052 177.383303 
L 387.57888 177.783301 
L 387.6779 181.659125 
L 387.854836 199.031854 
L 388.247668 253.217873 
L 388.330455 248.244226 
L 388.619398 202.954981 
L 388.903471 178.519354 
L 388.974895 177.4959 
L 389.028463 178.090971 
L 389.137222 182.963969 
L 389.328768 203.440459 
L 389.692381 251.891664 
L 389.755689 249.003379 
L 389.929379 223.937868 
L 390.302732 180.285253 
L 390.422854 177.383315 
L 390.465059 177.755975 
L 390.562455 181.471116 
L 390.737769 198.39404 
L 391.135471 253.217923 
L 391.219881 248.049513 
L 391.541289 198.351594 
L 391.809129 178.067719 
L 391.862697 177.495918 
L 391.916265 178.093083 
L 392.025024 182.970431 
L 392.21657 203.454129 
L 392.580183 251.891614 
L 392.643491 248.99506 
L 392.817181 223.921979 
L 393.188911 180.359492 
L 393.310656 177.38333 
L 393.352861 177.757654 
L 393.450257 181.476747 
L 393.625571 198.406705 
L 394.023273 253.217958 
L 394.107683 248.038614 
L 394.432337 197.923812 
L 394.700177 177.998039 
L 394.750499 177.495938 
L 394.804067 178.095199 
L 394.912826 182.976897 
L 395.105996 203.700823 
L 395.467985 251.891551 
L 395.531293 248.986731 
L 395.704983 223.90609 
L 396.076713 180.354827 
L 396.198458 177.38335 
L 396.240663 177.759336 
L 396.33806 181.482382 
L 396.513373 198.419374 
L 396.911075 253.217979 
L 396.995485 248.027706 
L 397.323386 197.500114 
L 397.589603 177.963965 
L 397.638301 177.495963 
L 397.691869 178.097319 
L 397.802252 183.093996 
L 397.995421 203.948476 
L 398.355788 251.891474 
L 398.417472 249.118795 
L 398.487273 240.831145 
L 398.487273 240.831145 
" style="fill:none;stroke:#1f77b4;stroke-linecap:square;stroke-width:1.5;"/>
   </g>
   <g id="patch_3">
    <path d="M 57.6 307.584 
L 57.6 41.472 
" style="fill:none;stroke:#000000;stroke-linecap:square;stroke-linejoin:miter;stroke-width:0.8;"/>
   </g>
   <g id="patch_4">
    <path d="M 414.72 307.584 
L 414.72 41.472 
" style="fill:none;stroke:#000000;stroke-linecap:square;stroke-linejoin:miter;stroke-width:0.8;"/>
   </g>
   <g id="patch_5">
    <path d="M 57.6 307.584 
L 414.72 307.584 
" style="fill:none;stroke:#000000;stroke-linecap:square;stroke-linejoin:miter;stroke-width:0.8;"/>
   </g>
   <g id="patch_6">
    <path d="M 57.6 41.472 
L 414.72 41.472 
" style="fill:none;stroke:#000000;stroke-linecap:square;stroke-linejoin:miter;stroke-width:0.8;"/>
   </g>
  </g>
 </g>
 <defs>
  <clipPath id="p56e0a7f11c">
   <rect height="266.112" width="357.12" x="57.6" y="41.472"/>
  </clipPath>
 </defs>
</svg>
