<?xml version="1.0" encoding="utf-8" standalone="no"?>
<!DOCTYPE svg PUBLIC "-//W3C//DTD SVG 1.1//EN"
  "http://www.w3.org/Graphics/SVG/1.1/DTD/svg11.dtd">
<!-- Created with matplotlib (https://matplotlib.org/) -->
<svg height="345.6pt" version="1.1" viewBox="0 0 460.8 345.6" width="460.8pt" xmlns="http://www.w3.org/2000/svg" xmlns:xlink="http://www.w3.org/1999/xlink">
 <metadata>
  <rdf:RDF xmlns:cc="http://creativecommons.org/ns#" xmlns:dc="http://purl.org/dc/elements/1.1/" xmlns:rdf="http://www.w3.org/1999/02/22-rdf-syntax-ns#">
   <cc:Work>
    <dc:type rdf:resource="http://purl.org/dc/dcmitype/StillImage"/>
    <dc:date>2020-07-23T21:24:49.738424</dc:date>
    <dc:format>image/svg+xml</dc:format>
    <dc:creator>
     <cc:Agent>
      <dc:title>Matplotlib v3.3.0, https://matplotlib.org/</dc:title>
     </cc:Agent>
    </dc:creator>
   </cc:Work>
  </rdf:RDF>
 </metadata>
 <defs>
  <style type="text/css">*{stroke-linecap:butt;stroke-linejoin:round;}</style>
 </defs>
 <g id="figure_1">
  <g id="patch_1">
   <path d="M 0 345.6 
L 460.8 345.6 
L 460.8 0 
L 0 0 
z
" style="fill:#ffffff;"/>
  </g>
  <g id="axes_1">
   <g id="patch_2">
    <path d="M 57.6 307.584 
L 414.72 307.584 
L 414.72 41.472 
L 57.6 41.472 
z
" style="fill:#ffffff;"/>
   </g>
   <g id="matplotlib.axis_1">
    <g id="xtick_1">
     <g id="line2d_1">
      <defs>
       <path d="M 0 0 
L 0 3.5 
" id="m60d3453c1b" style="stroke:#000000;stroke-width:0.8;"/>
      </defs>
      <g>
       <use style="stroke:#000000;stroke-width:0.8;" x="73.832727" xlink:href="#m60d3453c1b" y="307.584"/>
      </g>
     </g>
     <g id="text_1">
      <!-- $\mathdefault{0}$ -->
      <g transform="translate(71.34206 321.502498)scale(0.1 -0.1)">
       <defs>
        <path d="M 42 31.640625 
C 42 37.75 41.90625 48.125 37.703125 56.109375 
C 34 63.109375 28.09375 65.59375 22.90625 65.59375 
C 18.09375 65.59375 12 63.40625 8.203125 56.203125 
C 4.203125 48.71875 3.796875 39.4375 3.796875 31.640625 
C 3.796875 25.953125 3.90625 17.28125 7 9.671875 
C 11.296875 -0.609375 19 -2 22.90625 -2 
C 27.5 -2 34.5 -0.109375 38.59375 9.375 
C 41.59375 16.28125 42 24.359375 42 31.640625 
z
M 22.90625 -0.40625 
C 16.5 -0.40625 12.703125 5.078125 11.296875 12.6875 
C 10.203125 18.5625 10.203125 27.15625 10.203125 32.75 
C 10.203125 40.4375 10.203125 46.828125 11.5 52.921875 
C 13.40625 61.390625 19 64 22.90625 64 
C 27 64 32.296875 61.296875 34.203125 53.125 
C 35.5 47.4375 35.59375 40.734375 35.59375 32.75 
C 35.59375 26.25 35.59375 18.265625 34.40625 12.375 
C 32.296875 1.484375 26.40625 -0.40625 22.90625 -0.40625 
z
" id="CMR17-48"/>
       </defs>
       <use transform="scale(0.996264)" xlink:href="#CMR17-48"/>
      </g>
     </g>
    </g>
    <g id="xtick_2">
     <g id="line2d_2">
      <g>
       <use style="stroke:#000000;stroke-width:0.8;" x="138.763636" xlink:href="#m60d3453c1b" y="307.584"/>
      </g>
     </g>
     <g id="text_2">
      <!-- $\mathdefault{20000}$ -->
      <g transform="translate(126.310298 321.502498)scale(0.1 -0.1)">
       <defs>
        <path d="M 41.703125 15.453125 
L 39.90625 15.453125 
C 38.90625 8.375 38.09375 7.171875 37.703125 6.5625 
C 37.203125 5.765625 30 5.765625 28.59375 5.765625 
L 9.40625 5.765625 
C 13 9.671875 20 16.75 28.5 24.953125 
C 34.59375 30.734375 41.703125 37.53125 41.703125 47.421875 
C 41.703125 59.21875 32.296875 66 21.796875 66 
C 10.796875 66 4.09375 56.3125 4.09375 47.34375 
C 4.09375 43.4375 7 42.9375 8.203125 42.9375 
C 9.203125 42.9375 12.203125 43.546875 12.203125 47.03125 
C 12.203125 50.109375 9.59375 51 8.203125 51 
C 7.59375 51 7 50.90625 6.59375 50.703125 
C 8.5 59.21875 14.296875 63.40625 20.40625 63.40625 
C 29.09375 63.40625 34.796875 56.515625 34.796875 47.421875 
C 34.796875 38.734375 29.703125 31.25 24 24.75 
L 4.09375 2.28125 
L 4.09375 0 
L 39.296875 0 
z
" id="CMR17-50"/>
       </defs>
       <use transform="scale(0.996264)" xlink:href="#CMR17-50"/>
       <use transform="translate(45.690477 0)scale(0.996264)" xlink:href="#CMR17-48"/>
       <use transform="translate(91.380954 0)scale(0.996264)" xlink:href="#CMR17-48"/>
       <use transform="translate(137.071431 0)scale(0.996264)" xlink:href="#CMR17-48"/>
       <use transform="translate(182.761908 0)scale(0.996264)" xlink:href="#CMR17-48"/>
      </g>
     </g>
    </g>
    <g id="xtick_3">
     <g id="line2d_3">
      <g>
       <use style="stroke:#000000;stroke-width:0.8;" x="203.694545" xlink:href="#m60d3453c1b" y="307.584"/>
      </g>
     </g>
     <g id="text_3">
      <!-- $\mathdefault{40000}$ -->
      <g transform="translate(191.241207 321.502498)scale(0.1 -0.1)">
       <defs>
        <path d="M 33.59375 64.40625 
C 33.59375 66.5 33.5 66.5 31.703125 66.5 
L 2 19.59375 
L 2 17 
L 27.796875 17 
L 27.796875 7.140625 
C 27.796875 3.5 27.59375 2.5 20.59375 2.5 
L 18.703125 2.5 
L 18.703125 0 
C 21.90625 0 27.296875 0 30.703125 0 
C 34.09375 0 39.5 0 42.703125 0 
L 42.703125 2.5 
L 40.796875 2.5 
C 33.796875 2.5 33.59375 3.5 33.59375 7.140625 
L 33.59375 17 
L 43.796875 17 
L 43.796875 19.59375 
L 33.59375 19.59375 
z
M 28.09375 57.859375 
L 28.09375 19.59375 
L 4 19.59375 
z
" id="CMR17-52"/>
       </defs>
       <use transform="scale(0.996264)" xlink:href="#CMR17-52"/>
       <use transform="translate(45.690477 0)scale(0.996264)" xlink:href="#CMR17-48"/>
       <use transform="translate(91.380954 0)scale(0.996264)" xlink:href="#CMR17-48"/>
       <use transform="translate(137.071431 0)scale(0.996264)" xlink:href="#CMR17-48"/>
       <use transform="translate(182.761908 0)scale(0.996264)" xlink:href="#CMR17-48"/>
      </g>
     </g>
    </g>
    <g id="xtick_4">
     <g id="line2d_4">
      <g>
       <use style="stroke:#000000;stroke-width:0.8;" x="268.625455" xlink:href="#m60d3453c1b" y="307.584"/>
      </g>
     </g>
     <g id="text_4">
      <!-- $\mathdefault{60000}$ -->
      <g transform="translate(256.172116 321.502498)scale(0.1 -0.1)">
       <defs>
        <path d="M 10.59375 34 
C 10.59375 57.65625 21.796875 63 28.296875 63 
C 30.40625 63 35.5 62.640625 37.5 59 
C 35.90625 59 32.90625 59 32.90625 55.515625 
C 32.90625 52.828125 35.09375 51.921875 36.5 51.921875 
C 37.40625 51.921875 40.09375 52.3125 40.09375 55.625 
C 40.09375 61.78125 35.09375 65.296875 28.203125 65.296875 
C 16.296875 65.296875 3.796875 52.96875 3.796875 31 
C 3.796875 3.953125 15.09375 -2 23.09375 -2 
C 32.796875 -2 42 6.671875 42 20.046875 
C 42 32.515625 33.90625 41.59375 23.703125 41.59375 
C 17.59375 41.59375 13.09375 37.609375 10.59375 30.625 
z
M 23.09375 0.390625 
C 10.796875 0.390625 10.796875 18.75 10.796875 22.4375 
C 10.796875 29.625 14.203125 40 23.5 40 
C 25.203125 40 30.09375 40 33.40625 33.125 
C 35.203125 29.21875 35.203125 25.140625 35.203125 20.140625 
C 35.203125 14.75 35.203125 10.78125 33.09375 6.78125 
C 30.90625 2.671875 27.703125 0.390625 23.09375 0.390625 
z
" id="CMR17-54"/>
       </defs>
       <use transform="scale(0.996264)" xlink:href="#CMR17-54"/>
       <use transform="translate(45.690477 0)scale(0.996264)" xlink:href="#CMR17-48"/>
       <use transform="translate(91.380954 0)scale(0.996264)" xlink:href="#CMR17-48"/>
       <use transform="translate(137.071431 0)scale(0.996264)" xlink:href="#CMR17-48"/>
       <use transform="translate(182.761908 0)scale(0.996264)" xlink:href="#CMR17-48"/>
      </g>
     </g>
    </g>
    <g id="xtick_5">
     <g id="line2d_5">
      <g>
       <use style="stroke:#000000;stroke-width:0.8;" x="333.556364" xlink:href="#m60d3453c1b" y="307.584"/>
      </g>
     </g>
     <g id="text_5">
      <!-- $\mathdefault{80000}$ -->
      <g transform="translate(321.103026 321.502498)scale(0.1 -0.1)">
       <defs>
        <path d="M 27.203125 35.375 
C 33.5 38.546875 39.90625 43.328125 39.90625 50.984375 
C 39.90625 60.015625 31.09375 65.296875 23 65.296875 
C 13.90625 65.296875 5.90625 58.734375 5.90625 49.6875 
C 5.90625 47.203125 6.5 42.921875 10.40625 39.140625 
C 11.40625 38.15625 15.59375 35.171875 18.296875 33.28125 
C 13.796875 30.984375 3.296875 25.53125 3.296875 14.59375 
C 3.296875 4.359375 13.09375 -2 22.796875 -2 
C 33.5 -2 42.5 5.65625 42.5 15.78125 
C 42.5 24.84375 36.40625 29.015625 32.40625 31.703125 
z
M 14.09375 44.09375 
C 13.296875 44.59375 9.296875 47.671875 9.296875 52.359375 
C 9.296875 58.421875 15.59375 63 22.796875 63 
C 30.703125 63 36.5 57.4375 36.5 50.96875 
C 36.5 41.703125 26.09375 36.421875 25.59375 36.421875 
C 25.5 36.421875 25.40625 36.421875 24.59375 37.03125 
z
M 32.5 23.734375 
C 34 22.640625 38.796875 19.375 38.796875 13.296875 
C 38.796875 5.953125 31.40625 0.390625 23 0.390625 
C 13.90625 0.390625 7 6.84375 7 14.6875 
C 7 22.546875 13.09375 29.09375 20 32.1875 
z
" id="CMR17-56"/>
       </defs>
       <use transform="scale(0.996264)" xlink:href="#CMR17-56"/>
       <use transform="translate(45.690477 0)scale(0.996264)" xlink:href="#CMR17-48"/>
       <use transform="translate(91.380954 0)scale(0.996264)" xlink:href="#CMR17-48"/>
       <use transform="translate(137.071431 0)scale(0.996264)" xlink:href="#CMR17-48"/>
       <use transform="translate(182.761908 0)scale(0.996264)" xlink:href="#CMR17-48"/>
      </g>
     </g>
    </g>
    <g id="xtick_6">
     <g id="line2d_6">
      <g>
       <use style="stroke:#000000;stroke-width:0.8;" x="398.487273" xlink:href="#m60d3453c1b" y="307.584"/>
      </g>
     </g>
     <g id="text_6">
      <!-- $\mathdefault{100000}$ -->
      <g transform="translate(383.543267 321.502498)scale(0.1 -0.1)">
       <defs>
        <path d="M 26.59375 63.40625 
C 26.59375 65.5 26.5 65.5 25.09375 65.5 
C 21.203125 61.1875 15.296875 59.796875 9.703125 59.796875 
C 9.40625 59.796875 8.90625 59.796875 8.796875 59.5 
C 8.703125 59.296875 8.703125 59.09375 8.703125 57 
C 11.796875 57 17 57.59375 21 59.984375 
L 21 7.203125 
C 21 3.6875 20.796875 2.5 12.203125 2.5 
L 9.203125 2.5 
L 9.203125 0 
C 14 0 19 0 23.796875 0 
C 28.59375 0 33.59375 0 38.40625 0 
L 38.40625 2.5 
L 35.40625 2.5 
C 26.796875 2.5 26.59375 3.59375 26.59375 7.15625 
z
" id="CMR17-49"/>
       </defs>
       <use transform="scale(0.996264)" xlink:href="#CMR17-49"/>
       <use transform="translate(45.690477 0)scale(0.996264)" xlink:href="#CMR17-48"/>
       <use transform="translate(91.380954 0)scale(0.996264)" xlink:href="#CMR17-48"/>
       <use transform="translate(137.071431 0)scale(0.996264)" xlink:href="#CMR17-48"/>
       <use transform="translate(182.761908 0)scale(0.996264)" xlink:href="#CMR17-48"/>
       <use transform="translate(228.452386 0)scale(0.996264)" xlink:href="#CMR17-48"/>
      </g>
     </g>
    </g>
   </g>
   <g id="matplotlib.axis_2">
    <g id="ytick_1">
     <g id="line2d_7">
      <defs>
       <path d="M 0 0 
L -3.5 0 
" id="mf44b6eaa6c" style="stroke:#000000;stroke-width:0.8;"/>
      </defs>
      <g>
       <use style="stroke:#000000;stroke-width:0.8;" x="57.6" xlink:href="#mf44b6eaa6c" y="297.834609"/>
      </g>
     </g>
     <g id="text_7">
      <!-- $\mathdefault{0.00}$ -->
      <g transform="translate(32.888586 301.293858)scale(0.1 -0.1)">
       <defs>
        <path d="M 18.40625 4.796875 
C 18.40625 7.6875 16 9.671875 13.59375 9.671875 
C 10.703125 9.671875 8.703125 7.28125 8.703125 4.890625 
C 8.703125 2 11.09375 0 13.5 0 
C 16.40625 0 18.40625 2.390625 18.40625 4.796875 
z
" id="CMMI12-58"/>
       </defs>
       <use transform="scale(0.996264)" xlink:href="#CMR17-48"/>
       <use transform="translate(45.690477 0)scale(0.996264)" xlink:href="#CMMI12-58"/>
       <use transform="translate(72.787654 0)scale(0.996264)" xlink:href="#CMR17-48"/>
       <use transform="translate(118.478131 0)scale(0.996264)" xlink:href="#CMR17-48"/>
      </g>
     </g>
    </g>
    <g id="ytick_2">
     <g id="line2d_8">
      <g>
       <use style="stroke:#000000;stroke-width:0.8;" x="57.6" xlink:href="#mf44b6eaa6c" y="264.856207"/>
      </g>
     </g>
     <g id="text_8">
      <!-- $\mathdefault{0.02}$ -->
      <g transform="translate(32.888586 268.315456)scale(0.1 -0.1)">
       <use transform="scale(0.996264)" xlink:href="#CMR17-48"/>
       <use transform="translate(45.690477 0)scale(0.996264)" xlink:href="#CMMI12-58"/>
       <use transform="translate(72.787654 0)scale(0.996264)" xlink:href="#CMR17-48"/>
       <use transform="translate(118.478131 0)scale(0.996264)" xlink:href="#CMR17-50"/>
      </g>
     </g>
    </g>
    <g id="ytick_3">
     <g id="line2d_9">
      <g>
       <use style="stroke:#000000;stroke-width:0.8;" x="57.6" xlink:href="#mf44b6eaa6c" y="231.877805"/>
      </g>
     </g>
     <g id="text_9">
      <!-- $\mathdefault{0.04}$ -->
      <g transform="translate(32.888586 235.337055)scale(0.1 -0.1)">
       <use transform="scale(0.996264)" xlink:href="#CMR17-48"/>
       <use transform="translate(45.690477 0)scale(0.996264)" xlink:href="#CMMI12-58"/>
       <use transform="translate(72.787654 0)scale(0.996264)" xlink:href="#CMR17-48"/>
       <use transform="translate(118.478131 0)scale(0.996264)" xlink:href="#CMR17-52"/>
      </g>
     </g>
    </g>
    <g id="ytick_4">
     <g id="line2d_10">
      <g>
       <use style="stroke:#000000;stroke-width:0.8;" x="57.6" xlink:href="#mf44b6eaa6c" y="198.899404"/>
      </g>
     </g>
     <g id="text_10">
      <!-- $\mathdefault{0.06}$ -->
      <g transform="translate(32.888586 202.358653)scale(0.1 -0.1)">
       <use transform="scale(0.996264)" xlink:href="#CMR17-48"/>
       <use transform="translate(45.690477 0)scale(0.996264)" xlink:href="#CMMI12-58"/>
       <use transform="translate(72.787654 0)scale(0.996264)" xlink:href="#CMR17-48"/>
       <use transform="translate(118.478131 0)scale(0.996264)" xlink:href="#CMR17-54"/>
      </g>
     </g>
    </g>
    <g id="ytick_5">
     <g id="line2d_11">
      <g>
       <use style="stroke:#000000;stroke-width:0.8;" x="57.6" xlink:href="#mf44b6eaa6c" y="165.921002"/>
      </g>
     </g>
     <g id="text_11">
      <!-- $\mathdefault{0.08}$ -->
      <g transform="translate(32.888586 169.380251)scale(0.1 -0.1)">
       <use transform="scale(0.996264)" xlink:href="#CMR17-48"/>
       <use transform="translate(45.690477 0)scale(0.996264)" xlink:href="#CMMI12-58"/>
       <use transform="translate(72.787654 0)scale(0.996264)" xlink:href="#CMR17-48"/>
       <use transform="translate(118.478131 0)scale(0.996264)" xlink:href="#CMR17-56"/>
      </g>
     </g>
    </g>
    <g id="ytick_6">
     <g id="line2d_12">
      <g>
       <use style="stroke:#000000;stroke-width:0.8;" x="57.6" xlink:href="#mf44b6eaa6c" y="132.9426"/>
      </g>
     </g>
     <g id="text_12">
      <!-- $\mathdefault{0.10}$ -->
      <g transform="translate(32.888586 136.401849)scale(0.1 -0.1)">
       <use transform="scale(0.996264)" xlink:href="#CMR17-48"/>
       <use transform="translate(45.690477 0)scale(0.996264)" xlink:href="#CMMI12-58"/>
       <use transform="translate(72.787654 0)scale(0.996264)" xlink:href="#CMR17-49"/>
       <use transform="translate(118.478131 0)scale(0.996264)" xlink:href="#CMR17-48"/>
      </g>
     </g>
    </g>
    <g id="ytick_7">
     <g id="line2d_13">
      <g>
       <use style="stroke:#000000;stroke-width:0.8;" x="57.6" xlink:href="#mf44b6eaa6c" y="99.964198"/>
      </g>
     </g>
     <g id="text_13">
      <!-- $\mathdefault{0.12}$ -->
      <g transform="translate(32.888586 103.423447)scale(0.1 -0.1)">
       <use transform="scale(0.996264)" xlink:href="#CMR17-48"/>
       <use transform="translate(45.690477 0)scale(0.996264)" xlink:href="#CMMI12-58"/>
       <use transform="translate(72.787654 0)scale(0.996264)" xlink:href="#CMR17-49"/>
       <use transform="translate(118.478131 0)scale(0.996264)" xlink:href="#CMR17-50"/>
      </g>
     </g>
    </g>
    <g id="ytick_8">
     <g id="line2d_14">
      <g>
       <use style="stroke:#000000;stroke-width:0.8;" x="57.6" xlink:href="#mf44b6eaa6c" y="66.985796"/>
      </g>
     </g>
     <g id="text_14">
      <!-- $\mathdefault{0.14}$ -->
      <g transform="translate(32.888586 70.445046)scale(0.1 -0.1)">
       <use transform="scale(0.996264)" xlink:href="#CMR17-48"/>
       <use transform="translate(45.690477 0)scale(0.996264)" xlink:href="#CMMI12-58"/>
       <use transform="translate(72.787654 0)scale(0.996264)" xlink:href="#CMR17-49"/>
       <use transform="translate(118.478131 0)scale(0.996264)" xlink:href="#CMR17-52"/>
      </g>
     </g>
    </g>
   </g>
   <g id="line2d_15">
    <path clip-path="url(#p3ac83bef7a)" d="M 73.832727 132.9426 
L 74.368407 133.011717 
L 74.39438 134.756736 
L 74.446324 166.506149 
L 74.488529 192.424888 
L 74.537228 150.66322 
L 74.673583 132.597459 
L 74.693062 133.01682 
L 75.00473 147.167029 
L 75.076154 144.882355 
L 75.163811 130.880992 
L 75.274193 134.825233 
L 75.374836 138.095956 
L 75.420288 137.396225 
L 75.430028 137.104785 
L 75.498205 139.561118 
L 75.501452 139.440184 
L 75.608588 142.525972 
L 75.63456 142.39187 
L 75.761175 140.637637 
L 75.764422 140.776201 
L 75.832599 140.492739 
L 75.871558 140.725465 
L 75.972201 141.470309 
L 76.00142 141.385002 
L 76.082583 140.710781 
L 76.134528 141.181106 
L 76.319581 143.159339 
L 76.322828 143.126765 
L 76.397498 143.494082 
L 76.400745 143.483218 
L 76.429964 143.725484 
L 76.43321 143.71739 
L 76.618263 144.949933 
L 76.71566 145.612032 
L 76.793577 145.359346 
L 76.826042 145.319175 
L 76.87474 145.465752 
L 76.994863 146.347506 
L 77.283805 149.042604 
L 77.287052 149.037084 
L 77.313024 149.190447 
L 77.60846 151.705517 
L 77.689623 152.786419 
L 77.86169 154.029402 
L 77.864937 154.017622 
L 77.903895 154.245088 
L 79.010967 173.810152 
L 79.559633 189.021761 
L 81.163427 249.86894 
L 82.247773 295.488 
L 82.264006 295.402507 
L 82.341923 293.128563 
L 83.082135 261.668459 
L 84.708655 198.744572 
L 85.653399 169.343272 
L 86.763718 141.920368 
L 87.753914 123.456006 
L 88.49088 113.005615 
L 89.46809 103.341787 
L 89.977798 100.332103 
L 90.497245 98.908396 
L 90.500492 98.909747 
L 90.659572 98.863714 
L 91.097856 99.414719 
L 91.269923 99.932805 
L 92.068573 103.667697 
L 93.337972 113.84782 
L 93.714572 118.075047 
L 94.172335 123.995681 
L 95.64302 148.701387 
L 96.454656 165.033272 
L 97.50329 186.8965 
L 98.324666 202.870172 
L 99.788858 224.339008 
L 100.194676 228.197887 
L 101.227078 233.631007 
L 101.275776 233.731316 
L 101.447843 234.012466 
L 101.451089 234.008103 
L 101.52576 234.084 
L 101.529007 234.078452 
L 101.662115 234.145316 
L 101.795223 234.111353 
L 101.79847 234.117365 
L 101.879633 234.044341 
L 101.88288 234.048886 
L 102.080919 233.755306 
L 102.084166 233.757145 
L 102.126371 233.667858 
L 102.129617 233.669081 
L 102.412067 232.914555 
L 102.473751 232.713786 
L 102.847104 231.173477 
L 102.960733 230.616701 
L 103.450961 227.79113 
L 103.642508 226.543827 
L 104.191174 222.631844 
L 104.447651 220.708901 
L 104.950865 216.860097 
L 105.259287 214.548457 
L 105.710557 211.294585 
L 105.986513 209.44711 
L 106.372852 207.06061 
L 106.590371 205.849847 
L 106.924765 204.177138 
L 107.077353 203.50357 
L 107.366295 202.369392 
L 107.460445 202.051207 
L 107.710429 201.288023 
L 107.772113 201.134289 
L 107.989632 200.631841 
L 108.044823 200.531006 
L 108.236369 200.213731 
L 108.239616 200.216435 
L 108.3013 200.130044 
L 108.304547 200.133255 
L 108.470121 199.958364 
L 108.509079 199.928268 
L 108.557777 199.902985 
L 108.697379 199.835967 
L 108.817501 199.831173 
L 108.93113 199.842433 
L 109.077225 199.913581 
L 109.086964 199.912429 
L 109.161635 199.973613 
L 109.164881 199.96908 
L 109.343441 200.158106 
L 109.346688 200.154821 
L 109.408372 200.240159 
L 109.411619 200.23728 
L 109.616151 200.558398 
L 109.671343 200.650422 
L 109.90834 201.151546 
L 109.957039 201.257617 
L 110.220009 201.945308 
L 110.2752 202.0961 
L 110.564143 202.999055 
L 110.638813 203.241578 
L 110.953728 204.380469 
L 111.047878 204.731266 
L 111.382272 206.081307 
L 111.489408 206.522784 
L 111.836788 208.034649 
L 111.956911 208.562067 
L 112.304291 210.136621 
L 112.437399 210.735825 
L 112.78478 212.319311 
L 112.917888 212.911612 
L 113.252282 214.391544 
L 113.378897 214.928645 
L 113.693812 216.238171 
L 113.807441 216.682393 
L 114.102877 217.80423 
L 114.197027 218.133072 
L 114.472983 219.067235 
L 114.554147 219.314575 
L 114.810624 220.06865 
L 114.872308 220.228499 
L 115.109306 220.823788 
L 115.164497 220.942058 
L 115.382016 221.39933 
L 115.437207 221.495493 
L 115.635247 221.832041 
L 115.696931 221.915821 
L 115.881984 222.159814 
L 115.914449 222.196074 
L 115.956655 222.234087 
L 116.122228 222.388896 
L 116.216378 222.448021 
L 116.362473 222.531519 
L 116.469609 222.561385 
L 116.602717 222.589538 
L 116.729332 222.580606 
L 116.842961 222.566818 
L 116.989056 222.50931 
L 117.089699 222.464254 
L 117.24878 222.350947 
L 117.303971 222.313557 
L 117.336436 222.286212 
L 117.514996 222.1082 
L 117.563695 222.061583 
L 117.589667 222.032303 
L 117.781213 221.789666 
L 117.849391 221.703701 
L 118.060416 221.385797 
L 118.1221 221.293765 
L 118.346112 220.907302 
L 118.401303 220.814745 
L 118.631808 220.375031 
L 118.686999 220.272911 
L 118.93049 219.77269 
L 118.992175 219.649751 
L 119.242159 219.106742 
L 119.303843 218.977789 
L 119.553827 218.417171 
L 119.615511 218.284757 
L 119.871988 217.700868 
L 119.933673 217.567912 
L 120.183657 217.000449 
L 120.251834 216.854387 
L 120.501818 216.298887 
L 120.563503 216.171263 
L 120.806993 215.648507 
L 120.868678 215.526736 
L 121.105676 215.043675 
L 121.16736 214.929098 
L 121.397865 214.489184 
L 121.459549 214.383589 
L 121.683561 213.989697 
L 121.745245 213.89373 
L 121.956271 213.557439 
L 122.024448 213.462574 
L 122.22898 213.172575 
L 122.297158 213.090032 
L 122.488704 212.853749 
L 122.563375 212.776816 
L 122.741935 212.589293 
L 122.823098 212.520441 
L 122.995165 212.372894 
L 123.082822 212.315074 
L 123.241903 212.208459 
L 123.342545 212.160523 
L 123.495133 212.088186 
L 123.602269 212.057703 
L 123.741871 212.017341 
L 123.861993 212.005118 
L 123.988608 211.991895 
L 124.121716 212.0022 
L 124.241839 212.011037 
L 124.38144 212.04636 
L 124.495069 212.074394 
L 124.647657 212.138524 
L 124.7483 212.179075 
L 124.90738 212.27061 
L 125.00153 212.322537 
L 125.167104 212.441341 
L 125.254761 212.501124 
L 125.433321 212.652146 
L 125.514484 212.717377 
L 125.699537 212.895216 
L 125.780701 212.969208 
L 125.972247 213.172754 
L 126.046918 213.247473 
L 126.238464 213.466873 
L 126.313135 213.547083 
L 126.511174 213.787063 
L 126.585844 213.871745 
L 126.783884 214.121304 
L 126.852061 214.20082 
L 127.056593 214.465009 
L 127.124771 214.546154 
L 127.329303 214.813145 
L 127.397481 214.894737 
L 127.602013 215.161613 
L 127.670191 215.24257 
L 127.874723 215.505733 
L 127.9429 215.585077 
L 128.14094 215.834046 
L 128.21561 215.918607 
L 128.413649 216.158495 
L 128.48832 216.239286 
L 128.679866 216.460688 
L 128.754537 216.536799 
L 128.946083 216.745215 
L 129.027247 216.822575 
L 129.2123 217.009646 
L 129.293463 217.080297 
L 129.472023 217.245757 
L 129.55968 217.314792 
L 129.731747 217.458475 
L 129.819404 217.519134 
L 129.991471 217.645996 
L 130.08562 217.702084 
L 130.251194 217.807097 
L 130.351837 217.856704 
L 130.510918 217.940694 
L 130.618054 217.982272 
L 130.770641 218.046211 
L 130.884271 218.078021 
L 131.030365 218.123327 
L 131.150487 218.144066 
L 131.290089 218.172151 
L 131.416704 218.180453 
L 131.549812 218.193159 
L 131.682921 218.188105 
L 131.809536 218.18717 
L 131.949137 218.16789 
L 132.06926 218.155402 
L 132.208861 218.122906 
L 132.32249 218.100984 
L 132.468585 218.05446 
L 132.582214 218.022936 
L 132.734801 217.96214 
L 132.841937 217.924316 
L 133.001018 217.84952 
L 133.108154 217.804286 
L 133.273728 217.715844 
L 133.374371 217.667516 
L 133.539945 217.570067 
L 133.640588 217.516778 
L 133.812655 217.407985 
L 133.906804 217.354665 
L 134.078871 217.240065 
L 134.173021 217.184025 
L 134.345088 217.065271 
L 134.439238 217.007392 
L 134.611305 216.886253 
L 134.705455 216.827484 
L 134.877521 216.705476 
L 134.971671 216.646636 
L 135.143738 216.525382 
L 135.237888 216.467303 
L 135.409955 216.348116 
L 135.504105 216.291532 
L 135.676172 216.175819 
L 135.776815 216.117355 
L 135.948881 216.006339 
L 136.049524 215.950972 
L 136.221591 215.845869 
L 136.322234 215.794195 
L 136.487808 215.69936 
L 136.588451 215.651854 
L 136.754025 215.564297 
L 136.861161 215.518346 
L 137.020241 215.441727 
L 137.127377 215.401112 
L 137.286458 215.332689 
L 137.400087 215.295349 
L 137.552675 215.237886 
L 137.666304 215.206839 
L 137.818892 215.157971 
L 137.939014 215.131762 
L 138.085108 215.093304 
L 138.205231 215.074082 
L 138.351325 215.044148 
L 138.47794 215.031073 
L 138.617542 215.010519 
L 138.744157 215.004799 
L 138.883759 214.992284 
L 139.016867 214.993667 
L 139.149975 214.989111 
L 139.283084 214.997844 
L 139.416192 215.00048 
L 139.555793 215.016841 
L 139.682409 215.025728 
L 139.828503 215.049969 
L 139.955119 215.06507 
L 140.101213 215.096187 
L 140.221335 215.115649 
L 140.36743 215.15286 
L 140.487552 215.177077 
L 140.64014 215.221475 
L 140.760262 215.249999 
L 140.912849 215.299408 
L 141.026479 215.329542 
L 141.179066 215.383064 
L 141.292695 215.415982 
L 141.451776 215.475022 
L 141.565405 215.51014 
L 141.724486 215.571798 
L 141.838115 215.60848 
L 141.997196 215.671824 
L 142.110825 215.709431 
L 142.269905 215.773615 
L 142.383535 215.811528 
L 142.542615 215.87568 
L 142.656244 215.913322 
L 142.815325 215.97667 
L 142.928954 216.013478 
L 143.088035 216.07526 
L 143.201664 216.110744 
L 143.360745 216.170297 
L 143.474374 216.203977 
L 143.633455 216.260683 
L 143.747084 216.292169 
L 143.906164 216.345492 
L 144.026287 216.376285 
L 144.178874 216.423881 
L 144.298996 216.451644 
L 144.451584 216.495158 
L 144.571706 216.519606 
L 144.724294 216.558742 
L 144.850909 216.580999 
L 145.003497 216.615386 
L 145.130112 216.633654 
L 145.276207 216.662118 
L 145.402822 216.676371 
L 145.548916 216.700112 
L 145.682025 216.710984 
L 145.828119 216.729856 
L 145.961228 216.736311 
L 146.100829 216.749941 
L 146.233937 216.752127 
L 146.373539 216.761283 
L 146.51314 216.759341 
L 146.652742 216.76403 
L 146.792343 216.757744 
L 146.925452 216.758376 
L 147.065053 216.748028 
L 147.198161 216.744871 
L 147.344256 216.730212 
L 147.477364 216.723429 
L 147.623459 216.704984 
L 147.756567 216.694885 
L 147.902662 216.673016 
L 148.03577 216.659933 
L 148.181865 216.635026 
L 148.30848 216.620342 
L 148.461068 216.591821 
L 148.587683 216.575025 
L 148.740271 216.544237 
L 148.866886 216.525732 
L 149.019473 216.493156 
L 149.146089 216.473343 
L 149.298676 216.439477 
L 149.425292 216.418767 
L 149.577879 216.384092 
L 149.704495 216.362887 
L 149.857082 216.327892 
L 149.983697 216.306582 
L 150.136285 216.27172 
L 150.2629 216.250682 
L 150.415488 216.216395 
L 150.542103 216.195973 
L 150.694691 216.16266 
L 150.821306 216.143181 
L 150.973894 216.111212 
L 151.100509 216.092958 
L 151.253097 216.062659 
L 151.386205 216.044836 
L 151.538793 216.016537 
L 151.671901 216.000546 
L 151.824489 215.974502 
L 151.957597 215.960543 
L 152.110185 215.936951 
L 152.243293 215.925181 
L 152.389388 215.904891 
L 152.522496 215.895372 
L 152.668591 215.877627 
L 152.808192 215.869916 
L 152.954287 215.854844 
L 153.093888 215.849675 
L 153.239983 215.837303 
L 153.379584 215.83469 
L 153.525679 215.825009 
L 153.66528 215.824923 
L 153.811375 215.817893 
L 153.950976 215.820282 
L 154.090577 215.815817 
L 154.093824 215.819833 
L 154.233425 215.816564 
L 154.37952 215.822555 
L 154.519121 215.821589 
L 154.665216 215.829891 
L 154.804817 215.831089 
L 154.950912 215.841547 
L 155.090513 215.844745 
L 155.236608 215.857175 
L 155.376209 215.862192 
L 155.522304 215.876393 
L 155.661905 215.883024 
L 155.814493 215.899317 
L 155.954095 215.907374 
L 156.106682 215.925066 
L 156.246284 215.934306 
L 156.398871 215.953127 
L 156.538473 215.963299 
L 156.69106 215.982969 
L 156.830662 215.993817 
L 156.983249 216.014055 
L 157.122851 216.025318 
L 157.275439 216.045843 
L 157.41504 216.05727 
L 157.567628 216.077807 
L 157.707229 216.08915 
L 157.859817 216.109437 
L 157.999418 216.120464 
L 158.152006 216.140253 
L 158.291607 216.150745 
L 158.444195 216.169811 
L 158.583796 216.17957 
L 158.736384 216.197708 
L 158.875985 216.206561 
L 159.028573 216.223593 
L 159.168175 216.231388 
L 159.320762 216.247163 
L 159.460364 216.253776 
L 159.612951 216.268173 
L 159.752553 216.273504 
L 159.90514 216.286429 
L 160.051235 216.29075 
L 160.203823 216.302101 
L 160.349917 216.304923 
L 160.502505 216.314663 
L 160.648599 216.31596 
L 160.801187 216.324076 
L 160.947281 216.323849 
L 161.093376 216.330252 
L 161.239471 216.328557 
L 161.385565 216.333484 
L 161.53166 216.330366 
L 161.677754 216.333868 
L 161.823849 216.329386 
L 161.969943 216.331535 
L 162.122531 216.325658 
L 162.268625 216.326509 
L 162.421213 216.319357 
L 162.567308 216.319015 
L 162.719895 216.310702 
L 162.86599 216.30928 
L 163.018577 216.299933 
L 163.164672 216.297558 
L 163.31726 216.287312 
L 163.463354 216.284118 
L 163.615942 216.273118 
L 163.762036 216.269247 
L 163.914624 216.257643 
L 164.060719 216.25324 
L 164.213306 216.241185 
L 164.359401 216.2364 
L 164.511988 216.224051 
L 164.658083 216.219032 
L 164.810671 216.206543 
L 164.956765 216.201437 
L 165.115846 216.18858 
L 165.26194 216.183532 
L 165.421021 216.170844 
L 165.567116 216.165996 
L 165.726196 216.153626 
L 165.872291 216.149109 
L 166.031372 216.137194 
L 166.177466 216.133128 
L 166.336547 216.12179 
L 166.482641 216.118281 
L 166.641722 216.107627 
L 166.79431 216.104491 
L 166.953391 216.094628 
L 167.105978 216.092263 
L 167.265059 216.083263 
L 167.417647 216.081728 
L 167.576727 216.073647 
L 167.729315 216.072985 
L 167.881903 216.065999 
L 168.03449 216.066215 
L 168.187078 216.060137 
L 168.339665 216.061238 
L 168.492253 216.056066 
L 168.644841 216.058042 
L 168.797428 216.05376 
L 168.950016 216.056586 
L 169.102604 216.053163 
L 169.255191 216.056805 
L 169.407779 216.054199 
L 169.56686 216.058662 
L 169.719447 216.056836 
L 169.878528 216.062054 
L 170.031116 216.060944 
L 170.190196 216.066846 
L 170.342784 216.06638 
L 170.501865 216.072887 
L 170.654452 216.072986 
L 170.813533 216.080013 
L 170.966121 216.080594 
L 171.125201 216.088054 
L 171.277789 216.089029 
L 171.43687 216.096829 
L 171.589457 216.09811 
L 171.748538 216.106157 
L 171.901126 216.107654 
L 172.060207 216.115853 
L 172.212794 216.117477 
L 172.371875 216.125737 
L 172.530956 216.127606 
L 172.690036 216.135835 
L 172.849117 216.137652 
L 173.008198 216.14576 
L 173.167279 216.147439 
L 173.326359 216.155342 
L 173.48544 216.156802 
L 173.644521 216.164423 
L 173.803601 216.165591 
L 173.962682 216.172862 
L 174.121763 216.173674 
L 174.280844 216.180535 
L 174.439924 216.180936 
L 174.599005 216.187339 
L 174.758086 216.187287 
L 174.917167 216.193194 
L 175.076247 216.192655 
L 175.235328 216.198039 
L 175.394409 216.196993 
L 175.556736 216.1988 
L 175.72231 216.203424 
L 175.881391 216.201586 
L 176.046964 216.205636 
L 176.206045 216.203275 
L 176.371619 216.206763 
L 176.537193 216.203897 
L 176.702767 216.206834 
L 176.86834 216.203459 
L 177.033914 216.205877 
L 177.199488 216.202027 
L 177.365062 216.203967 
L 177.530636 216.199686 
L 177.696209 216.201194 
L 177.861783 216.196532 
L 178.027357 216.19766 
L 178.192931 216.192669 
L 178.358505 216.193473 
L 178.524079 216.188211 
L 178.689652 216.188747 
L 178.855226 216.183273 
L 179.0208 216.183603 
L 179.186374 216.177976 
L 179.351948 216.178158 
L 179.517521 216.172437 
L 179.683095 216.172531 
L 179.848669 216.166776 
L 180.014243 216.166839 
L 180.179817 216.161106 
L 180.345391 216.161194 
L 180.510964 216.155536 
L 180.676538 216.155701 
L 180.842112 216.150168 
L 181.007686 216.150459 
L 181.179753 216.145001 
L 181.345327 216.145463 
L 181.517393 216.14023 
L 181.682967 216.140903 
L 181.855034 216.135932 
L 182.020608 216.13685 
L 182.192675 216.132171 
L 182.358249 216.133359 
L 182.530316 216.128997 
L 182.702383 216.130425 
L 182.874449 216.1264 
L 183.046516 216.128147 
L 183.218583 216.124469 
L 183.39065 216.12654 
L 183.562717 216.123208 
L 183.734784 216.125599 
L 183.906851 216.122608 
L 184.078918 216.125309 
L 184.250985 216.122643 
L 184.423052 216.125637 
L 184.595119 216.123277 
L 184.767185 216.126542 
L 184.939252 216.124463 
L 185.111319 216.127971 
L 185.283386 216.126143 
L 185.455453 216.129863 
L 185.62752 216.128254 
L 185.799587 216.132152 
L 185.971654 216.130727 
L 186.143721 216.134768 
L 186.315788 216.13349 
L 186.487855 216.137638 
L 186.659921 216.13647 
L 186.838481 216.140746 
L 187.010548 216.139653 
L 187.189108 216.143963 
L 187.361175 216.142909 
L 187.539735 216.147216 
L 187.711802 216.146164 
L 187.890362 216.150432 
L 188.068922 216.149407 
L 188.247482 216.153601 
L 188.426042 216.15251 
L 188.604602 216.156599 
L 188.783162 216.155412 
L 188.961722 216.159369 
L 189.140282 216.158059 
L 189.318842 216.16186 
L 189.497402 216.160407 
L 189.675962 216.164032 
L 189.854522 216.162418 
L 190.033082 216.165852 
L 190.211642 216.164066 
L 190.390202 216.1673 
L 190.568762 216.165332 
L 190.747322 216.168361 
L 190.925882 216.16621 
L 191.104442 216.169033 
L 191.283002 216.166701 
L 191.461562 216.169322 
L 191.640122 216.166814 
L 191.818682 216.169243 
L 192.003735 216.166563 
L 192.188788 216.168797 
L 192.373841 216.165955 
L 192.558895 216.168013 
L 192.743948 216.165028 
L 192.929001 216.166931 
L 193.114054 216.163825 
L 193.299107 216.165596 
L 193.48416 216.162392 
L 193.669213 216.164054 
L 193.854266 216.160778 
L 194.039319 216.162357 
L 194.224372 216.159034 
L 194.409425 216.160555 
L 194.594479 216.157208 
L 194.779532 216.158697 
L 194.964585 216.155351 
L 195.149638 216.15683 
L 195.334691 216.153509 
L 195.519744 216.155001 
L 195.704797 216.151725 
L 195.88985 216.153249 
L 196.074903 216.150037 
L 196.259956 216.151612 
L 196.451503 216.148455 
L 196.643049 216.150072 
L 196.834595 216.147017 
L 197.026141 216.14872 
L 197.217687 216.145778 
L 197.409233 216.147578 
L 197.60078 216.14476 
L 197.792326 216.146664 
L 197.983872 216.143974 
L 198.175418 216.145987 
L 198.366964 216.143429 
L 198.558511 216.145551 
L 198.750057 216.143124 
L 198.941603 216.145354 
L 199.133149 216.143053 
L 199.324695 216.145385 
L 199.516241 216.143205 
L 199.707788 216.145631 
L 199.899334 216.143562 
L 200.09088 216.146072 
L 200.282426 216.144103 
L 200.480465 216.146697 
L 200.678505 216.144829 
L 200.876544 216.147484 
L 201.074583 216.145692 
L 201.272623 216.148394 
L 201.470662 216.146661 
L 201.668701 216.149392 
L 201.86674 216.147702 
L 202.06478 216.150445 
L 202.262819 216.148781 
L 202.460858 216.15152 
L 202.658897 216.149866 
L 202.856937 216.152585 
L 203.054976 216.150927 
L 203.253015 216.153613 
L 203.451055 216.151936 
L 203.649094 216.154577 
L 203.847133 216.15287 
L 204.045172 216.155455 
L 204.243212 216.153708 
L 204.447744 216.156239 
L 204.652276 216.154456 
L 204.856809 216.15691 
L 205.061341 216.155069 
L 205.265873 216.157442 
L 205.470406 216.155539 
L 205.674938 216.157828 
L 205.879471 216.155862 
L 206.084003 216.158066 
L 206.288535 216.156037 
L 206.493068 216.158157 
L 206.6976 216.156068 
L 206.902132 216.15811 
L 207.106665 216.155965 
L 207.311197 216.157932 
L 207.515729 216.155738 
L 207.720262 216.157638 
L 207.931287 216.155396 
L 208.142313 216.15723 
L 208.353338 216.154952 
L 208.564364 216.156734 
L 208.775389 216.154432 
L 208.986415 216.156173 
L 209.19744 216.153857 
L 209.408465 216.155569 
L 209.619491 216.153249 
L 209.830516 216.154942 
L 210.041542 216.15263 
L 210.252567 216.154315 
L 210.463593 216.152021 
L 210.674618 216.153707 
L 210.885644 216.151439 
L 211.096669 216.153135 
L 211.307695 216.150902 
L 211.525213 216.152608 
L 211.742732 216.15041 
L 211.96025 216.15214 
L 212.177769 216.149991 
L 212.395287 216.151751 
L 212.612806 216.149655 
L 212.830324 216.151448 
L 213.047843 216.149407 
L 213.265361 216.151235 
L 213.48288 216.149249 
L 213.700399 216.151112 
L 213.917917 216.149181 
L 214.135436 216.151078 
L 214.352954 216.1492 
L 214.570473 216.151126 
L 214.794484 216.149299 
L 215.018496 216.151256 
L 215.242508 216.149476 
L 215.466519 216.151455 
L 215.690531 216.149717 
L 215.914543 216.151713 
L 216.138554 216.150009 
L 216.362566 216.152016 
L 216.586577 216.15034 
L 216.810589 216.15235 
L 217.034601 216.150694 
L 217.258612 216.1527 
L 217.482624 216.151057 
L 217.713129 216.153058 
L 217.943633 216.151427 
L 218.174138 216.15341 
L 218.404643 216.151779 
L 218.635148 216.153739 
L 218.865652 216.152102 
L 219.096157 216.154034 
L 219.326662 216.152387 
L 219.557167 216.154285 
L 219.787671 216.152625 
L 220.018176 216.154488 
L 220.248681 216.152811 
L 220.479185 216.154637 
L 220.716183 216.152945 
L 220.953181 216.154734 
L 221.190179 216.153022 
L 221.427177 216.154772 
L 221.664175 216.153043 
L 221.901172 216.154756 
L 222.13817 216.153011 
L 222.375168 216.154689 
L 222.612166 216.152931 
L 222.849164 216.154578 
L 223.086161 216.152811 
L 223.323159 216.154429 
L 223.56665 216.152655 
L 223.810141 216.154247 
L 224.053632 216.152471 
L 224.297123 216.154044 
L 224.540614 216.152271 
L 224.784105 216.15383 
L 225.027596 216.152066 
L 225.271087 216.153615 
L 225.514577 216.151863 
L 225.758068 216.153407 
L 226.001559 216.151672 
L 226.251543 216.153212 
L 226.501527 216.151496 
L 226.751511 216.153038 
L 227.001495 216.151345 
L 227.251479 216.152893 
L 227.501463 216.151226 
L 227.751447 216.15278 
L 228.001431 216.151141 
L 228.251415 216.152702 
L 228.501399 216.15109 
L 228.751383 216.152659 
L 229.00786 216.151075 
L 229.264337 216.152651 
L 229.520815 216.151093 
L 229.777292 216.152675 
L 230.033769 216.151143 
L 230.290246 216.152729 
L 230.546723 216.151219 
L 230.8032 216.152806 
L 231.059677 216.151316 
L 231.322647 216.152903 
L 231.585617 216.151432 
L 231.848588 216.153015 
L 232.111558 216.151557 
L 232.374528 216.153132 
L 232.637498 216.151685 
L 232.900468 216.153249 
L 233.163439 216.151809 
L 233.426409 216.15336 
L 233.689379 216.151925 
L 233.958842 216.153461 
L 234.228305 216.15203 
L 234.497769 216.153548 
L 234.767232 216.152117 
L 235.036695 216.153615 
L 235.306159 216.152183 
L 235.575622 216.15366 
L 235.845085 216.152228 
L 236.121041 216.153684 
L 236.396998 216.15225 
L 236.672954 216.153686 
L 236.948911 216.152251 
L 237.224867 216.153666 
L 237.500823 216.152232 
L 237.77678 216.153628 
L 238.052736 216.152196 
L 238.335185 216.153575 
L 238.617635 216.152145 
L 238.900084 216.153509 
L 239.182534 216.152085 
L 239.464983 216.153436 
L 239.747433 216.152019 
L 240.029882 216.153359 
L 240.312332 216.151952 
L 240.601274 216.153283 
L 240.890217 216.151888 
L 241.179159 216.153212 
L 241.468102 216.15183 
L 241.757044 216.153149 
L 242.045987 216.151782 
L 242.334929 216.153097 
L 242.630365 216.151746 
L 242.925801 216.153058 
L 243.221236 216.151724 
L 243.516672 216.153033 
L 243.812108 216.151716 
L 244.107543 216.153023 
L 244.402979 216.151722 
L 244.704908 216.153026 
L 245.006836 216.151741 
L 245.308765 216.153041 
L 245.610694 216.151772 
L 245.912623 216.153066 
L 246.214551 216.15181 
L 246.51648 216.153098 
L 246.824902 216.151854 
L 247.133324 216.153134 
L 247.441745 216.1519 
L 247.750167 216.153171 
L 248.058589 216.151947 
L 248.367011 216.153206 
L 248.681926 216.15199 
L 248.996841 216.153238 
L 249.311756 216.152028 
L 249.626671 216.153263 
L 249.941585 216.152058 
L 250.2565 216.15328 
L 250.577908 216.152081 
L 250.899316 216.153289 
L 251.220724 216.152095 
L 251.542132 216.153289 
L 251.86354 216.152101 
L 252.184948 216.153281 
L 252.512849 216.152099 
L 252.840751 216.153265 
L 253.168652 216.152089 
L 253.496553 216.153244 
L 253.824454 216.152075 
L 254.152355 216.153218 
L 254.486749 216.152056 
L 254.821143 216.153188 
L 255.155537 216.152036 
L 255.489932 216.153158 
L 255.824326 216.152016 
L 256.165213 216.153129 
L 256.5061 216.151997 
L 256.846988 216.153103 
L 257.187875 216.151983 
L 257.528762 216.153083 
L 257.876143 216.151975 
L 258.223523 216.153068 
L 258.570903 216.151973 
L 258.918284 216.15306 
L 259.265664 216.151978 
L 259.619537 216.153058 
L 259.973411 216.151989 
L 260.327284 216.153062 
L 260.681158 216.152004 
L 261.041524 216.15307 
L 261.401891 216.152022 
L 261.762257 216.153079 
L 262.122624 216.152041 
L 262.482991 216.153088 
L 262.84985 216.152059 
L 263.21671 216.153096 
L 263.583569 216.152075 
L 263.950429 216.153101 
L 264.323782 216.152088 
L 264.697135 216.153104 
L 265.070487 216.152099 
L 265.44384 216.153104 
L 265.823686 216.152109 
L 266.203532 216.153104 
L 266.583377 216.152117 
L 266.963223 216.153102 
L 267.349562 216.152124 
L 267.735901 216.153099 
L 268.12224 216.152129 
L 268.508579 216.153093 
L 268.901411 216.15213 
L 269.294243 216.153083 
L 269.687075 216.152127 
L 270.0864 216.153068 
L 270.485725 216.152119 
L 270.88505 216.153049 
L 271.284375 216.152109 
L 271.690193 216.15303 
L 272.096012 216.1521 
L 272.50183 216.153013 
L 272.914141 216.152096 
L 273.326452 216.153004 
L 273.738764 216.1521 
L 274.151075 216.153003 
L 274.569879 216.152113 
L 274.988684 216.15301 
L 275.407488 216.152132 
L 275.832785 216.15302 
L 276.258083 216.15215 
L 276.68338 216.153027 
L 277.115171 216.152162 
L 277.546961 216.153024 
L 277.978752 216.152163 
L 278.417036 216.153011 
L 278.855319 216.152156 
L 279.293603 216.152993 
L 279.73838 216.152147 
L 280.183156 216.152977 
L 280.627933 216.152146 
L 281.079203 216.152974 
L 281.530473 216.15216 
L 281.988236 216.152987 
L 282.445999 216.152188 
L 282.903761 216.153008 
L 283.368017 216.152218 
L 283.832273 216.153024 
L 284.296529 216.152234 
L 284.767279 216.153019 
L 285.238028 216.152225 
L 285.71527 216.152986 
L 286.192512 216.15219 
L 286.669754 216.152937 
L 287.153489 216.152151 
L 287.637225 216.152896 
L 288.127453 216.152134 
L 288.617681 216.15289 
L 289.114403 216.15216 
L 289.611124 216.152929 
L 290.114339 216.152224 
L 290.617553 216.152991 
L 291.120768 216.152291 
L 291.630476 216.153033 
L 292.140183 216.152315 
L 292.656384 216.153012 
L 293.172585 216.152268 
L 293.695279 216.152926 
L 294.217972 216.152174 
L 294.747159 216.152825 
L 295.276346 216.152104 
L 295.812026 216.152785 
L 296.347706 216.152126 
L 296.889879 216.152855 
L 297.432052 216.152253 
L 297.980719 216.153002 
L 298.535878 216.152409 
L 299.091037 216.153112 
L 299.652689 216.15246 
L 300.214342 216.153064 
L 300.782487 216.152328 
L 301.350633 216.152852 
L 301.925271 216.152094 
L 302.506403 216.15263 
L 303.087535 216.151958 
L 303.675159 216.152608 
L 304.269277 216.152092 
L 304.863395 216.152869 
L 305.464006 216.152451 
L 306.07111 216.153227 
L 306.678214 216.152725 
L 307.291811 216.153305 
L 307.911901 216.152572 
L 308.531991 216.152914 
L 309.158575 216.152041 
L 309.791651 216.152359 
L 310.43122 216.151636 
L 311.07079 216.152223 
L 311.716852 216.15187 
L 312.369408 216.152806 
L 313.028457 216.152708 
L 313.687505 216.153652 
L 314.353047 216.153287 
L 315.025082 216.153687 
L 315.70361 216.152684 
L 316.388631 216.15255 
L 317.080145 216.151362 
L 317.778153 216.151445 
L 318.47616 216.150872 
L 319.187153 216.151807 
L 319.898147 216.15216 
L 320.615633 216.153759 
L 321.346106 216.154176 
L 322.076579 216.154905 
L 322.820038 216.153707 
L 323.563497 216.152754 
L 324.313449 216.15066 
L 325.076387 216.149931 
L 325.839325 216.149064 
L 326.615249 216.150194 
L 327.391174 216.151574 
L 328.180084 216.154717 
L 328.981981 216.156465 
L 329.777385 216.156919 
L 330.598761 216.153738 
L 331.420137 216.150205 
L 332.241513 216.146619 
L 333.082368 216.145479 
L 333.923223 216.145216 
L 334.790051 216.148729 
L 335.643892 216.154767 
L 336.504227 216.161213 
L 337.422999 216.159482 
L 338.289827 216.150719 
L 339.182627 216.140843 
L 340.114385 216.136946 
L 341.039651 216.133959 
L 341.990889 216.133821 
L 342.870703 216.14469 
L 343.834927 216.165974 
L 345.013423 216.159902 
L 345.932195 216.128472 
L 346.824995 216.109976 
L 347.886615 216.111555 
L 349.078097 216.087713 
L 351.490281 216.173111 
L 355.266013 216.035544 
L 355.944541 216.009445 
L 357.40224 215.816247 
L 358.606708 216.048372 
L 359.626124 216.117345 
L 360.554636 215.69738 
L 361.174726 215.43321 
L 361.837021 215.445641 
L 363.099927 215.778439 
L 363.629114 215.544795 
L 364.151808 215.079051 
L 364.742679 214.61851 
L 365.086813 214.556313 
L 365.391988 214.676594 
L 365.762095 215.017544 
L 366.788003 215.929057 
L 367.093178 215.789738 
L 367.456791 215.264693 
L 368.197004 213.526574 
L 368.658013 212.71899 
L 368.937216 212.568027 
L 369.157981 212.662102 
L 369.424198 213.005969 
L 369.885207 213.960965 
L 370.411148 214.81234 
L 370.644899 214.821454 
L 370.868911 214.525058 
L 371.14162 213.752152 
L 371.576657 211.81445 
L 372.339596 208.60637 
L 372.602566 208.263644 
L 372.771386 208.350837 
L 372.988905 208.82633 
L 373.290833 210.090616 
L 374.342714 215.013323 
L 374.469329 214.959038 
L 374.631657 214.516374 
L 374.878394 213.025569 
L 375.271226 208.96673 
L 376.225711 198.770537 
L 376.485434 197.980266 
L 376.60231 198.045851 
L 376.758144 198.551179 
L 377.004881 200.29768 
L 377.39122 204.963438 
L 378.144419 214.085691 
L 378.267788 214.355735 
L 378.309993 214.31064 
L 378.413882 213.881379 
L 378.592442 212.052906 
L 378.881385 206.371015 
L 379.462516 189.345759 
L 380.004689 176.384756 
L 380.287139 173.741279 
L 380.355316 173.650682 
L 380.404015 173.728498 
L 380.514397 174.367467 
L 380.696204 176.939249 
L 380.955927 184.24405 
L 381.332527 202.065845 
L 382.192861 244.22408 
L 382.241559 244.454978 
L 382.296751 244.162883 
L 382.407133 241.8056 
L 382.618159 231.51261 
L 383.046703 197.126235 
L 383.900544 129.921315 
L 384.134295 124.537437 
L 384.147281 124.534356 
L 384.1765 124.64173 
L 384.27065 125.993333 
L 384.491415 133.256317 
L 385.0693 160.404098 
L 385.4459 192.450797 
L 386.23481 275.4866 
L 386.322467 271.707954 
L 386.523753 245.518981 
L 387.517196 105.534032 
L 388.413242 80.950393 
L 388.419735 80.954119 
L 388.465187 81.182097 
L 388.569076 83.124757 
L 388.747636 91.482014 
L 389.039825 117.768485 
L 389.935872 208.388612 
L 389.968337 208.05083 
L 390.052748 203.925812 
L 390.231308 181.465426 
L 390.786467 108.153895 
L 391.799389 66.34834 
L 391.883799 65.73484 
L 391.932497 65.970175 
L 392.03314 68.037626 
L 392.205207 77.125881 
L 392.48441 106.11394 
L 393.234362 196.859098 
L 393.289553 195.668405 
L 393.406429 185.368908 
L 394.231052 93.45735 
L 395.110865 57.035345 
L 395.208262 56.204834 
L 395.25696 56.45955 
L 395.357603 58.710622 
L 395.526423 68.557586 
L 395.789393 99.382315 
L 396.41273 189.329742 
L 396.484154 186.844694 
L 396.623756 169.088633 
L 397.201641 88.311595 
L 397.776279 66.030909 
L 398.204823 54.060887 
L 398.289233 53.568 
L 398.337932 53.762056 
L 398.435328 55.44291 
L 398.487273 57.174678 
L 398.487273 57.174678 
" style="fill:none;stroke:#1f77b4;stroke-linecap:square;stroke-width:1.5;"/>
   </g>
   <g id="patch_3">
    <path d="M 57.6 307.584 
L 57.6 41.472 
" style="fill:none;stroke:#000000;stroke-linecap:square;stroke-linejoin:miter;stroke-width:0.8;"/>
   </g>
   <g id="patch_4">
    <path d="M 414.72 307.584 
L 414.72 41.472 
" style="fill:none;stroke:#000000;stroke-linecap:square;stroke-linejoin:miter;stroke-width:0.8;"/>
   </g>
   <g id="patch_5">
    <path d="M 57.6 307.584 
L 414.72 307.584 
" style="fill:none;stroke:#000000;stroke-linecap:square;stroke-linejoin:miter;stroke-width:0.8;"/>
   </g>
   <g id="patch_6">
    <path d="M 57.6 41.472 
L 414.72 41.472 
" style="fill:none;stroke:#000000;stroke-linecap:square;stroke-linejoin:miter;stroke-width:0.8;"/>
   </g>
  </g>
 </g>
 <defs>
  <clipPath id="p3ac83bef7a">
   <rect height="266.112" width="357.12" x="57.6" y="41.472"/>
  </clipPath>
 </defs>
</svg>
