<?xml version="1.0" encoding="utf-8" standalone="no"?>
<!DOCTYPE svg PUBLIC "-//W3C//DTD SVG 1.1//EN"
  "http://www.w3.org/Graphics/SVG/1.1/DTD/svg11.dtd">
<!-- Created with matplotlib (https://matplotlib.org/) -->
<svg height="345.6pt" version="1.1" viewBox="0 0 460.8 345.6" width="460.8pt" xmlns="http://www.w3.org/2000/svg" xmlns:xlink="http://www.w3.org/1999/xlink">
 <metadata>
  <rdf:RDF xmlns:cc="http://creativecommons.org/ns#" xmlns:dc="http://purl.org/dc/elements/1.1/" xmlns:rdf="http://www.w3.org/1999/02/22-rdf-syntax-ns#">
   <cc:Work>
    <dc:type rdf:resource="http://purl.org/dc/dcmitype/StillImage"/>
    <dc:date>2020-07-27T11:51:54.755091</dc:date>
    <dc:format>image/svg+xml</dc:format>
    <dc:creator>
     <cc:Agent>
      <dc:title>Matplotlib v3.3.0, https://matplotlib.org/</dc:title>
     </cc:Agent>
    </dc:creator>
   </cc:Work>
  </rdf:RDF>
 </metadata>
 <defs>
  <style type="text/css">*{stroke-linecap:butt;stroke-linejoin:round;}</style>
 </defs>
 <g id="figure_1">
  <g id="patch_1">
   <path d="M 0 345.6 
L 460.8 345.6 
L 460.8 0 
L 0 0 
z
" style="fill:#ffffff;"/>
  </g>
  <g id="axes_1">
   <g id="patch_2">
    <path d="M 57.6 307.584 
L 414.72 307.584 
L 414.72 41.472 
L 57.6 41.472 
z
" style="fill:#ffffff;"/>
   </g>
   <g id="matplotlib.axis_1">
    <g id="xtick_1">
     <g id="line2d_1">
      <defs>
       <path d="M 0 0 
L 0 3.5 
" id="md763b91d24" style="stroke:#000000;stroke-width:0.8;"/>
      </defs>
      <g>
       <use style="stroke:#000000;stroke-width:0.8;" x="73.832727" xlink:href="#md763b91d24" y="307.584"/>
      </g>
     </g>
     <g id="text_1">
      <!-- $\mathdefault{0}$ -->
      <g transform="translate(71.34206 321.502498)scale(0.1 -0.1)">
       <defs>
        <path d="M 42 31.640625 
C 42 37.75 41.90625 48.125 37.703125 56.109375 
C 34 63.109375 28.09375 65.59375 22.90625 65.59375 
C 18.09375 65.59375 12 63.40625 8.203125 56.203125 
C 4.203125 48.71875 3.796875 39.4375 3.796875 31.640625 
C 3.796875 25.953125 3.90625 17.28125 7 9.671875 
C 11.296875 -0.609375 19 -2 22.90625 -2 
C 27.5 -2 34.5 -0.109375 38.59375 9.375 
C 41.59375 16.28125 42 24.359375 42 31.640625 
z
M 22.90625 -0.40625 
C 16.5 -0.40625 12.703125 5.078125 11.296875 12.6875 
C 10.203125 18.5625 10.203125 27.15625 10.203125 32.75 
C 10.203125 40.4375 10.203125 46.828125 11.5 52.921875 
C 13.40625 61.390625 19 64 22.90625 64 
C 27 64 32.296875 61.296875 34.203125 53.125 
C 35.5 47.4375 35.59375 40.734375 35.59375 32.75 
C 35.59375 26.25 35.59375 18.265625 34.40625 12.375 
C 32.296875 1.484375 26.40625 -0.40625 22.90625 -0.40625 
z
" id="CMR17-48"/>
       </defs>
       <use transform="scale(0.996264)" xlink:href="#CMR17-48"/>
      </g>
     </g>
    </g>
    <g id="xtick_2">
     <g id="line2d_2">
      <g>
       <use style="stroke:#000000;stroke-width:0.8;" x="114.414545" xlink:href="#md763b91d24" y="307.584"/>
      </g>
     </g>
     <g id="text_2">
      <!-- $\mathdefault{25000}$ -->
      <g transform="translate(101.961207 321.502498)scale(0.1 -0.1)">
       <defs>
        <path d="M 41.703125 15.453125 
L 39.90625 15.453125 
C 38.90625 8.375 38.09375 7.171875 37.703125 6.5625 
C 37.203125 5.765625 30 5.765625 28.59375 5.765625 
L 9.40625 5.765625 
C 13 9.671875 20 16.75 28.5 24.953125 
C 34.59375 30.734375 41.703125 37.53125 41.703125 47.421875 
C 41.703125 59.21875 32.296875 66 21.796875 66 
C 10.796875 66 4.09375 56.3125 4.09375 47.34375 
C 4.09375 43.4375 7 42.9375 8.203125 42.9375 
C 9.203125 42.9375 12.203125 43.546875 12.203125 47.03125 
C 12.203125 50.109375 9.59375 51 8.203125 51 
C 7.59375 51 7 50.90625 6.59375 50.703125 
C 8.5 59.21875 14.296875 63.40625 20.40625 63.40625 
C 29.09375 63.40625 34.796875 56.515625 34.796875 47.421875 
C 34.796875 38.734375 29.703125 31.25 24 24.75 
L 4.09375 2.28125 
L 4.09375 0 
L 39.296875 0 
z
" id="CMR17-50"/>
        <path d="M 11.40625 57.6875 
C 12.40625 57.28125 16.5 56 20.703125 56 
C 30 56 35.09375 61.109375 38 64.0625 
C 38 64.953125 38 65.5 37.40625 65.5 
C 37.296875 65.5 37.09375 65.5 36.296875 65.046875 
C 32.796875 63.40625 28.703125 62.078125 23.703125 62.078125 
C 20.703125 62.078125 16.203125 62.484375 11.296875 64.671875 
C 10.203125 65.171875 10 65.171875 9.90625 65.171875 
C 9.40625 65.171875 9.296875 65.0625 9.296875 63.078125 
L 9.296875 34.421875 
C 9.296875 32.640625 9.296875 32.140625 10.296875 32.140625 
C 10.796875 32.140625 11 32.34375 11.5 33.03125 
C 14.703125 37.515625 19.09375 39.40625 24.09375 39.40625 
C 27.59375 39.40625 35.09375 37.21875 35.09375 20.140625 
C 35.09375 16.953125 35.09375 11.171875 32.09375 6.578125 
C 29.59375 2.484375 25.703125 0.390625 21.40625 0.390625 
C 14.796875 0.390625 8.09375 5 6.296875 12.71875 
C 6.703125 12.609375 7.5 12.421875 7.90625 12.421875 
C 9.203125 12.421875 11.703125 13.125 11.703125 16.21875 
C 11.703125 18.90625 9.796875 20 7.90625 20 
C 5.59375 20 4.09375 18.59375 4.09375 15.796875 
C 4.09375 7.09375 11 -2 21.59375 -2 
C 31.90625 -2 41.703125 6.875 41.703125 19.75 
C 41.703125 31.71875 33.90625 41 24.203125 41 
C 19.09375 41 14.796875 39.109375 11.40625 35.53125 
z
" id="CMR17-53"/>
       </defs>
       <use transform="scale(0.996264)" xlink:href="#CMR17-50"/>
       <use transform="translate(45.690477 0)scale(0.996264)" xlink:href="#CMR17-53"/>
       <use transform="translate(91.380954 0)scale(0.996264)" xlink:href="#CMR17-48"/>
       <use transform="translate(137.071431 0)scale(0.996264)" xlink:href="#CMR17-48"/>
       <use transform="translate(182.761908 0)scale(0.996264)" xlink:href="#CMR17-48"/>
      </g>
     </g>
    </g>
    <g id="xtick_3">
     <g id="line2d_3">
      <g>
       <use style="stroke:#000000;stroke-width:0.8;" x="154.996364" xlink:href="#md763b91d24" y="307.584"/>
      </g>
     </g>
     <g id="text_3">
      <!-- $\mathdefault{50000}$ -->
      <g transform="translate(142.543026 321.502498)scale(0.1 -0.1)">
       <use transform="scale(0.996264)" xlink:href="#CMR17-53"/>
       <use transform="translate(45.690477 0)scale(0.996264)" xlink:href="#CMR17-48"/>
       <use transform="translate(91.380954 0)scale(0.996264)" xlink:href="#CMR17-48"/>
       <use transform="translate(137.071431 0)scale(0.996264)" xlink:href="#CMR17-48"/>
       <use transform="translate(182.761908 0)scale(0.996264)" xlink:href="#CMR17-48"/>
      </g>
     </g>
    </g>
    <g id="xtick_4">
     <g id="line2d_4">
      <g>
       <use style="stroke:#000000;stroke-width:0.8;" x="195.578182" xlink:href="#md763b91d24" y="307.584"/>
      </g>
     </g>
     <g id="text_4">
      <!-- $\mathdefault{75000}$ -->
      <g transform="translate(183.124844 321.502498)scale(0.1 -0.1)">
       <defs>
        <path d="M 45.09375 61.578125 
L 45.09375 63.765625 
L 21.59375 63.765625 
C 9.90625 63.765625 9.703125 65.078125 9.296875 67 
L 7.5 67 
L 4.59375 48.34375 
L 6.40625 48.34375 
C 6.703125 50.234375 7.40625 55.3125 8.59375 57.203125 
C 9.203125 58 16.59375 58 18.296875 58 
L 40.296875 58 
L 29.203125 41.578125 
C 21.796875 30.53125 16.703125 15.609375 16.703125 2.578125 
C 16.703125 1.390625 16.703125 -2 20.296875 -2 
C 23.90625 -2 23.90625 1.390625 23.90625 2.671875 
L 23.90625 7.265625 
C 23.90625 23.5625 26.703125 34.3125 31.296875 41.1875 
z
" id="CMR17-55"/>
       </defs>
       <use transform="scale(0.996264)" xlink:href="#CMR17-55"/>
       <use transform="translate(45.690477 0)scale(0.996264)" xlink:href="#CMR17-53"/>
       <use transform="translate(91.380954 0)scale(0.996264)" xlink:href="#CMR17-48"/>
       <use transform="translate(137.071431 0)scale(0.996264)" xlink:href="#CMR17-48"/>
       <use transform="translate(182.761908 0)scale(0.996264)" xlink:href="#CMR17-48"/>
      </g>
     </g>
    </g>
    <g id="xtick_5">
     <g id="line2d_5">
      <g>
       <use style="stroke:#000000;stroke-width:0.8;" x="236.16" xlink:href="#md763b91d24" y="307.584"/>
      </g>
     </g>
     <g id="text_5">
      <!-- $\mathdefault{100000}$ -->
      <g transform="translate(221.215994 321.502498)scale(0.1 -0.1)">
       <defs>
        <path d="M 26.59375 63.40625 
C 26.59375 65.5 26.5 65.5 25.09375 65.5 
C 21.203125 61.1875 15.296875 59.796875 9.703125 59.796875 
C 9.40625 59.796875 8.90625 59.796875 8.796875 59.5 
C 8.703125 59.296875 8.703125 59.09375 8.703125 57 
C 11.796875 57 17 57.59375 21 59.984375 
L 21 7.203125 
C 21 3.6875 20.796875 2.5 12.203125 2.5 
L 9.203125 2.5 
L 9.203125 0 
C 14 0 19 0 23.796875 0 
C 28.59375 0 33.59375 0 38.40625 0 
L 38.40625 2.5 
L 35.40625 2.5 
C 26.796875 2.5 26.59375 3.59375 26.59375 7.15625 
z
" id="CMR17-49"/>
       </defs>
       <use transform="scale(0.996264)" xlink:href="#CMR17-49"/>
       <use transform="translate(45.690477 0)scale(0.996264)" xlink:href="#CMR17-48"/>
       <use transform="translate(91.380954 0)scale(0.996264)" xlink:href="#CMR17-48"/>
       <use transform="translate(137.071431 0)scale(0.996264)" xlink:href="#CMR17-48"/>
       <use transform="translate(182.761908 0)scale(0.996264)" xlink:href="#CMR17-48"/>
       <use transform="translate(228.452386 0)scale(0.996264)" xlink:href="#CMR17-48"/>
      </g>
     </g>
    </g>
    <g id="xtick_6">
     <g id="line2d_6">
      <g>
       <use style="stroke:#000000;stroke-width:0.8;" x="276.741818" xlink:href="#md763b91d24" y="307.584"/>
      </g>
     </g>
     <g id="text_6">
      <!-- $\mathdefault{125000}$ -->
      <g transform="translate(261.797812 321.502498)scale(0.1 -0.1)">
       <use transform="scale(0.996264)" xlink:href="#CMR17-49"/>
       <use transform="translate(45.690477 0)scale(0.996264)" xlink:href="#CMR17-50"/>
       <use transform="translate(91.380954 0)scale(0.996264)" xlink:href="#CMR17-53"/>
       <use transform="translate(137.071431 0)scale(0.996264)" xlink:href="#CMR17-48"/>
       <use transform="translate(182.761908 0)scale(0.996264)" xlink:href="#CMR17-48"/>
       <use transform="translate(228.452386 0)scale(0.996264)" xlink:href="#CMR17-48"/>
      </g>
     </g>
    </g>
    <g id="xtick_7">
     <g id="line2d_7">
      <g>
       <use style="stroke:#000000;stroke-width:0.8;" x="317.323636" xlink:href="#md763b91d24" y="307.584"/>
      </g>
     </g>
     <g id="text_7">
      <!-- $\mathdefault{150000}$ -->
      <g transform="translate(302.379631 321.502498)scale(0.1 -0.1)">
       <use transform="scale(0.996264)" xlink:href="#CMR17-49"/>
       <use transform="translate(45.690477 0)scale(0.996264)" xlink:href="#CMR17-53"/>
       <use transform="translate(91.380954 0)scale(0.996264)" xlink:href="#CMR17-48"/>
       <use transform="translate(137.071431 0)scale(0.996264)" xlink:href="#CMR17-48"/>
       <use transform="translate(182.761908 0)scale(0.996264)" xlink:href="#CMR17-48"/>
       <use transform="translate(228.452386 0)scale(0.996264)" xlink:href="#CMR17-48"/>
      </g>
     </g>
    </g>
    <g id="xtick_8">
     <g id="line2d_8">
      <g>
       <use style="stroke:#000000;stroke-width:0.8;" x="357.905455" xlink:href="#md763b91d24" y="307.584"/>
      </g>
     </g>
     <g id="text_8">
      <!-- $\mathdefault{175000}$ -->
      <g transform="translate(342.961449 321.502498)scale(0.1 -0.1)">
       <use transform="scale(0.996264)" xlink:href="#CMR17-49"/>
       <use transform="translate(45.690477 0)scale(0.996264)" xlink:href="#CMR17-55"/>
       <use transform="translate(91.380954 0)scale(0.996264)" xlink:href="#CMR17-53"/>
       <use transform="translate(137.071431 0)scale(0.996264)" xlink:href="#CMR17-48"/>
       <use transform="translate(182.761908 0)scale(0.996264)" xlink:href="#CMR17-48"/>
       <use transform="translate(228.452386 0)scale(0.996264)" xlink:href="#CMR17-48"/>
      </g>
     </g>
    </g>
    <g id="xtick_9">
     <g id="line2d_9">
      <g>
       <use style="stroke:#000000;stroke-width:0.8;" x="398.487273" xlink:href="#md763b91d24" y="307.584"/>
      </g>
     </g>
     <g id="text_9">
      <!-- $\mathdefault{200000}$ -->
      <g transform="translate(383.543267 321.502498)scale(0.1 -0.1)">
       <use transform="scale(0.996264)" xlink:href="#CMR17-50"/>
       <use transform="translate(45.690477 0)scale(0.996264)" xlink:href="#CMR17-48"/>
       <use transform="translate(91.380954 0)scale(0.996264)" xlink:href="#CMR17-48"/>
       <use transform="translate(137.071431 0)scale(0.996264)" xlink:href="#CMR17-48"/>
       <use transform="translate(182.761908 0)scale(0.996264)" xlink:href="#CMR17-48"/>
       <use transform="translate(228.452386 0)scale(0.996264)" xlink:href="#CMR17-48"/>
      </g>
     </g>
    </g>
   </g>
   <g id="matplotlib.axis_2">
    <g id="ytick_1">
     <g id="line2d_10">
      <defs>
       <path d="M 0 0 
L -3.5 0 
" id="mdfa4a875af" style="stroke:#000000;stroke-width:0.8;"/>
      </defs>
      <g>
       <use style="stroke:#000000;stroke-width:0.8;" x="57.6" xlink:href="#mdfa4a875af" y="298.968193"/>
      </g>
     </g>
     <g id="text_10">
      <!-- $\mathdefault{0.00}$ -->
      <g transform="translate(32.888586 302.427442)scale(0.1 -0.1)">
       <defs>
        <path d="M 18.40625 4.796875 
C 18.40625 7.6875 16 9.671875 13.59375 9.671875 
C 10.703125 9.671875 8.703125 7.28125 8.703125 4.890625 
C 8.703125 2 11.09375 0 13.5 0 
C 16.40625 0 18.40625 2.390625 18.40625 4.796875 
z
" id="CMMI12-58"/>
       </defs>
       <use transform="scale(0.996264)" xlink:href="#CMR17-48"/>
       <use transform="translate(45.690477 0)scale(0.996264)" xlink:href="#CMMI12-58"/>
       <use transform="translate(72.787654 0)scale(0.996264)" xlink:href="#CMR17-48"/>
       <use transform="translate(118.478131 0)scale(0.996264)" xlink:href="#CMR17-48"/>
      </g>
     </g>
    </g>
    <g id="ytick_2">
     <g id="line2d_11">
      <g>
       <use style="stroke:#000000;stroke-width:0.8;" x="57.6" xlink:href="#mdfa4a875af" y="265.608906"/>
      </g>
     </g>
     <g id="text_11">
      <!-- $\mathdefault{0.02}$ -->
      <g transform="translate(32.888586 269.068155)scale(0.1 -0.1)">
       <use transform="scale(0.996264)" xlink:href="#CMR17-48"/>
       <use transform="translate(45.690477 0)scale(0.996264)" xlink:href="#CMMI12-58"/>
       <use transform="translate(72.787654 0)scale(0.996264)" xlink:href="#CMR17-48"/>
       <use transform="translate(118.478131 0)scale(0.996264)" xlink:href="#CMR17-50"/>
      </g>
     </g>
    </g>
    <g id="ytick_3">
     <g id="line2d_12">
      <g>
       <use style="stroke:#000000;stroke-width:0.8;" x="57.6" xlink:href="#mdfa4a875af" y="232.24962"/>
      </g>
     </g>
     <g id="text_12">
      <!-- $\mathdefault{0.04}$ -->
      <g transform="translate(32.888586 235.708869)scale(0.1 -0.1)">
       <defs>
        <path d="M 33.59375 64.40625 
C 33.59375 66.5 33.5 66.5 31.703125 66.5 
L 2 19.59375 
L 2 17 
L 27.796875 17 
L 27.796875 7.140625 
C 27.796875 3.5 27.59375 2.5 20.59375 2.5 
L 18.703125 2.5 
L 18.703125 0 
C 21.90625 0 27.296875 0 30.703125 0 
C 34.09375 0 39.5 0 42.703125 0 
L 42.703125 2.5 
L 40.796875 2.5 
C 33.796875 2.5 33.59375 3.5 33.59375 7.140625 
L 33.59375 17 
L 43.796875 17 
L 43.796875 19.59375 
L 33.59375 19.59375 
z
M 28.09375 57.859375 
L 28.09375 19.59375 
L 4 19.59375 
z
" id="CMR17-52"/>
       </defs>
       <use transform="scale(0.996264)" xlink:href="#CMR17-48"/>
       <use transform="translate(45.690477 0)scale(0.996264)" xlink:href="#CMMI12-58"/>
       <use transform="translate(72.787654 0)scale(0.996264)" xlink:href="#CMR17-48"/>
       <use transform="translate(118.478131 0)scale(0.996264)" xlink:href="#CMR17-52"/>
      </g>
     </g>
    </g>
    <g id="ytick_4">
     <g id="line2d_13">
      <g>
       <use style="stroke:#000000;stroke-width:0.8;" x="57.6" xlink:href="#mdfa4a875af" y="198.890333"/>
      </g>
     </g>
     <g id="text_13">
      <!-- $\mathdefault{0.06}$ -->
      <g transform="translate(32.888586 202.349582)scale(0.1 -0.1)">
       <defs>
        <path d="M 10.59375 34 
C 10.59375 57.65625 21.796875 63 28.296875 63 
C 30.40625 63 35.5 62.640625 37.5 59 
C 35.90625 59 32.90625 59 32.90625 55.515625 
C 32.90625 52.828125 35.09375 51.921875 36.5 51.921875 
C 37.40625 51.921875 40.09375 52.3125 40.09375 55.625 
C 40.09375 61.78125 35.09375 65.296875 28.203125 65.296875 
C 16.296875 65.296875 3.796875 52.96875 3.796875 31 
C 3.796875 3.953125 15.09375 -2 23.09375 -2 
C 32.796875 -2 42 6.671875 42 20.046875 
C 42 32.515625 33.90625 41.59375 23.703125 41.59375 
C 17.59375 41.59375 13.09375 37.609375 10.59375 30.625 
z
M 23.09375 0.390625 
C 10.796875 0.390625 10.796875 18.75 10.796875 22.4375 
C 10.796875 29.625 14.203125 40 23.5 40 
C 25.203125 40 30.09375 40 33.40625 33.125 
C 35.203125 29.21875 35.203125 25.140625 35.203125 20.140625 
C 35.203125 14.75 35.203125 10.78125 33.09375 6.78125 
C 30.90625 2.671875 27.703125 0.390625 23.09375 0.390625 
z
" id="CMR17-54"/>
       </defs>
       <use transform="scale(0.996264)" xlink:href="#CMR17-48"/>
       <use transform="translate(45.690477 0)scale(0.996264)" xlink:href="#CMMI12-58"/>
       <use transform="translate(72.787654 0)scale(0.996264)" xlink:href="#CMR17-48"/>
       <use transform="translate(118.478131 0)scale(0.996264)" xlink:href="#CMR17-54"/>
      </g>
     </g>
    </g>
    <g id="ytick_5">
     <g id="line2d_14">
      <g>
       <use style="stroke:#000000;stroke-width:0.8;" x="57.6" xlink:href="#mdfa4a875af" y="165.531047"/>
      </g>
     </g>
     <g id="text_14">
      <!-- $\mathdefault{0.08}$ -->
      <g transform="translate(32.888586 168.990296)scale(0.1 -0.1)">
       <defs>
        <path d="M 27.203125 35.375 
C 33.5 38.546875 39.90625 43.328125 39.90625 50.984375 
C 39.90625 60.015625 31.09375 65.296875 23 65.296875 
C 13.90625 65.296875 5.90625 58.734375 5.90625 49.6875 
C 5.90625 47.203125 6.5 42.921875 10.40625 39.140625 
C 11.40625 38.15625 15.59375 35.171875 18.296875 33.28125 
C 13.796875 30.984375 3.296875 25.53125 3.296875 14.59375 
C 3.296875 4.359375 13.09375 -2 22.796875 -2 
C 33.5 -2 42.5 5.65625 42.5 15.78125 
C 42.5 24.84375 36.40625 29.015625 32.40625 31.703125 
z
M 14.09375 44.09375 
C 13.296875 44.59375 9.296875 47.671875 9.296875 52.359375 
C 9.296875 58.421875 15.59375 63 22.796875 63 
C 30.703125 63 36.5 57.4375 36.5 50.96875 
C 36.5 41.703125 26.09375 36.421875 25.59375 36.421875 
C 25.5 36.421875 25.40625 36.421875 24.59375 37.03125 
z
M 32.5 23.734375 
C 34 22.640625 38.796875 19.375 38.796875 13.296875 
C 38.796875 5.953125 31.40625 0.390625 23 0.390625 
C 13.90625 0.390625 7 6.84375 7 14.6875 
C 7 22.546875 13.09375 29.09375 20 32.1875 
z
" id="CMR17-56"/>
       </defs>
       <use transform="scale(0.996264)" xlink:href="#CMR17-48"/>
       <use transform="translate(45.690477 0)scale(0.996264)" xlink:href="#CMMI12-58"/>
       <use transform="translate(72.787654 0)scale(0.996264)" xlink:href="#CMR17-48"/>
       <use transform="translate(118.478131 0)scale(0.996264)" xlink:href="#CMR17-56"/>
      </g>
     </g>
    </g>
    <g id="ytick_6">
     <g id="line2d_15">
      <g>
       <use style="stroke:#000000;stroke-width:0.8;" x="57.6" xlink:href="#mdfa4a875af" y="132.17176"/>
      </g>
     </g>
     <g id="text_15">
      <!-- $\mathdefault{0.10}$ -->
      <g transform="translate(32.888586 135.63101)scale(0.1 -0.1)">
       <use transform="scale(0.996264)" xlink:href="#CMR17-48"/>
       <use transform="translate(45.690477 0)scale(0.996264)" xlink:href="#CMMI12-58"/>
       <use transform="translate(72.787654 0)scale(0.996264)" xlink:href="#CMR17-49"/>
       <use transform="translate(118.478131 0)scale(0.996264)" xlink:href="#CMR17-48"/>
      </g>
     </g>
    </g>
    <g id="ytick_7">
     <g id="line2d_16">
      <g>
       <use style="stroke:#000000;stroke-width:0.8;" x="57.6" xlink:href="#mdfa4a875af" y="98.812474"/>
      </g>
     </g>
     <g id="text_16">
      <!-- $\mathdefault{0.12}$ -->
      <g transform="translate(32.888586 102.271723)scale(0.1 -0.1)">
       <use transform="scale(0.996264)" xlink:href="#CMR17-48"/>
       <use transform="translate(45.690477 0)scale(0.996264)" xlink:href="#CMMI12-58"/>
       <use transform="translate(72.787654 0)scale(0.996264)" xlink:href="#CMR17-49"/>
       <use transform="translate(118.478131 0)scale(0.996264)" xlink:href="#CMR17-50"/>
      </g>
     </g>
    </g>
    <g id="ytick_8">
     <g id="line2d_17">
      <g>
       <use style="stroke:#000000;stroke-width:0.8;" x="57.6" xlink:href="#mdfa4a875af" y="65.453187"/>
      </g>
     </g>
     <g id="text_17">
      <!-- $\mathdefault{0.14}$ -->
      <g transform="translate(32.888586 68.912437)scale(0.1 -0.1)">
       <use transform="scale(0.996264)" xlink:href="#CMR17-48"/>
       <use transform="translate(45.690477 0)scale(0.996264)" xlink:href="#CMMI12-58"/>
       <use transform="translate(72.787654 0)scale(0.996264)" xlink:href="#CMR17-49"/>
       <use transform="translate(118.478131 0)scale(0.996264)" xlink:href="#CMR17-52"/>
      </g>
     </g>
    </g>
   </g>
   <g id="line2d_18">
    <path clip-path="url(#p7c90f8852f)" d="M 73.832727 132.17176 
L 74.021027 132.249484 
L 74.035636 136.708927 
L 74.074595 209.857162 
L 74.147642 138.793511 
L 74.170368 136.136057 
L 74.236922 142.818891 
L 74.397626 147.005491 
L 74.451194 144.821855 
L 74.404119 147.01861 
L 74.509632 146.571123 
L 74.641117 153.320787 
L 74.64274 153.173029 
L 74.728774 155.361407 
L 75.053428 168.546591 
L 75.524177 200.689113 
L 75.837469 237.478596 
L 76.231924 295.488 
L 76.283869 290.386455 
L 77.540282 132.211002 
L 78.267508 83.68257 
L 78.786956 65.512948 
L 79.129466 59.332079 
L 79.413539 54.825044 
L 79.634304 53.568181 
L 79.725207 53.85501 
L 80.083951 60.672761 
L 80.264134 67.231604 
L 80.900457 105.758942 
L 82.061097 196.124024 
L 82.807802 225.809049 
L 82.822412 226.036433 
L 82.996102 228.129509 
L 82.997725 228.114726 
L 83.064279 228.494425 
L 83.065903 228.473737 
L 83.135703 228.616647 
L 83.181155 228.56218 
L 83.341859 227.603966 
L 83.343482 227.615317 
L 83.387311 227.148547 
L 83.388934 227.15699 
L 83.630801 223.579252 
L 83.645411 223.342175 
L 83.916497 217.864773 
L 83.953833 217.091495 
L 84.20544 211.777086 
L 84.233036 211.251426 
L 84.455424 207.178311 
L 84.457047 207.178857 
L 84.461917 207.072697 
L 84.46354 207.073474 
L 84.65671 204.319031 
L 84.658333 204.327222 
L 84.828777 202.609955 
L 84.8304 202.625478 
L 84.890461 202.175268 
L 84.892084 202.19342 
L 85.030063 201.543182 
L 85.031686 201.567485 
L 85.130705 201.393127 
L 85.132329 201.421688 
L 85.143692 201.391795 
L 85.236218 201.529796 
L 85.237841 201.504352 
L 85.37582 202.077732 
L 85.377443 202.057206 
L 85.447244 202.524183 
L 85.448867 202.50598 
L 85.619311 204.027112 
L 85.620934 204.014037 
L 85.664762 204.514767 
L 85.666385 204.502884 
L 85.859555 206.967748 
L 85.861178 206.960141 
L 85.885527 207.332843 
L 85.887151 207.325672 
L 86.093306 210.481554 
L 86.094929 210.476926 
L 86.109539 210.740354 
L 86.111162 210.73583 
L 86.320564 214.170054 
L 86.322188 214.165915 
L 86.333551 214.381853 
L 86.335174 214.377669 
L 86.538083 217.633392 
L 86.539706 217.627547 
L 86.557562 217.93065 
L 86.559185 217.92456 
L 86.749108 220.665858 
L 86.750732 220.656618 
L 86.781574 221.08979 
L 86.783197 221.079913 
L 86.960134 223.170603 
L 86.961757 223.156739 
L 87.008832 223.657477 
L 87.010455 223.642442 
L 87.167913 224.986999 
L 87.169536 224.967906 
L 87.239337 225.448546 
L 87.24096 225.427598 
L 87.378938 226.105579 
L 87.380561 226.081014 
L 87.469841 226.359763 
L 87.471465 226.332897 
L 87.589964 226.494218 
L 87.599703 226.495396 
L 87.705216 226.388601 
L 87.706839 226.416053 
L 87.802612 226.181249 
L 87.804236 226.206487 
L 87.938967 225.694234 
L 87.940591 225.716724 
L 88.020131 225.308809 
L 88.021754 225.329908 
L 88.169472 224.448654 
L 88.171095 224.467654 
L 88.240896 223.981198 
L 88.242519 223.999438 
L 88.399977 222.851449 
L 88.4016 222.868532 
L 88.464908 222.367367 
L 88.466531 222.384193 
L 88.623988 221.16531 
L 88.625612 221.182036 
L 88.685673 220.703367 
L 88.687296 220.720236 
L 88.841507 219.580061 
L 88.84313 219.597738 
L 88.909684 219.118387 
L 88.911308 219.136587 
L 89.059025 218.19503 
L 89.060649 218.214706 
L 89.133696 217.787498 
L 89.135319 217.808047 
L 89.273297 217.13722 
L 89.274921 217.1596 
L 89.360954 216.8101 
L 89.362577 216.833725 
L 89.490816 216.447535 
L 89.492439 216.473077 
L 89.588212 216.274062 
L 89.589836 216.301075 
L 89.705088 216.177307 
L 89.734307 216.171853 
L 89.817094 216.225555 
L 89.818717 216.197305 
L 89.920983 216.336457 
L 89.922607 216.309509 
L 90.047599 216.584145 
L 90.049222 216.558654 
L 90.141748 216.841318 
L 90.143372 216.816789 
L 90.274857 217.296912 
L 90.27648 217.273549 
L 90.359267 217.633659 
L 90.36089 217.610905 
L 90.498868 218.254528 
L 90.500492 218.232546 
L 90.580032 218.643428 
L 90.581655 218.621762 
L 90.72288 219.358592 
L 90.724503 219.337227 
L 90.800797 219.756762 
L 90.80242 219.735433 
L 90.943645 220.483382 
L 90.945268 220.461888 
L 91.021562 220.870086 
L 91.023185 220.848386 
L 91.16441 221.545509 
L 91.166033 221.523233 
L 91.245574 221.902818 
L 91.247197 221.880114 
L 91.381929 222.44822 
L 91.383552 222.424658 
L 91.469585 222.756755 
L 91.471209 222.732563 
L 91.599447 223.145821 
L 91.601071 223.120616 
L 91.693597 223.373468 
L 91.69522 223.347484 
L 91.816966 223.599261 
L 91.818589 223.572235 
L 91.917609 223.721616 
L 91.919232 223.693737 
L 92.034484 223.794497 
L 92.083183 223.803459 
L 92.14649 223.767602 
L 92.148113 223.796462 
L 92.253626 223.711599 
L 92.255249 223.739579 
L 92.373748 223.586735 
L 92.375372 223.613822 
L 92.474391 223.43697 
L 92.476015 223.463398 
L 92.59776 223.205421 
L 92.599383 223.231168 
L 92.695156 222.991777 
L 92.69678 223.017091 
L 92.821772 222.683073 
L 92.823395 222.707971 
L 92.915921 222.437544 
L 92.917545 222.46224 
L 93.045783 222.086745 
L 93.047407 222.111311 
L 93.139933 221.830212 
L 93.141556 221.854787 
L 93.269795 221.482801 
L 93.271418 221.507523 
L 93.363945 221.241375 
L 93.365568 221.266291 
L 93.49056 220.93804 
L 93.492183 220.963323 
L 93.587956 220.726051 
L 93.58958 220.751685 
L 93.711325 220.489537 
L 93.712948 220.515689 
L 93.811968 220.326356 
L 93.813591 220.352979 
L 93.93209 220.169711 
L 93.933713 220.196933 
L 94.03598 220.069328 
L 94.037603 220.097088 
L 94.152855 219.996249 
L 94.154479 220.024623 
L 94.259991 219.966233 
L 94.261615 219.995161 
L 94.318429 219.964494 
L 94.37362 219.972087 
L 94.488873 220.044867 
L 94.490496 220.016574 
L 94.596009 220.116998 
L 94.597632 220.089121 
L 94.699898 220.213207 
L 94.701521 220.185689 
L 94.82002 220.352598 
L 94.821644 220.325435 
L 94.920663 220.488963 
L 94.922287 220.46204 
L 95.044032 220.675223 
L 95.045655 220.648522 
L 95.144675 220.838561 
L 95.146298 220.811981 
L 95.268044 221.047126 
L 95.269667 221.020618 
L 95.368687 221.219863 
L 95.37031 221.193354 
L 95.492055 221.429423 
L 95.493679 221.402843 
L 95.592698 221.594776 
L 95.594321 221.568086 
L 95.716067 221.786007 
L 95.71769 221.759125 
L 95.81671 221.929559 
L 95.818333 221.902479 
L 95.936832 222.082955 
L 95.938455 222.055599 
L 96.040721 222.197644 
L 96.042345 222.170023 
L 96.157597 222.304771 
L 96.15922 222.276829 
L 96.261487 222.379382 
L 96.26311 222.351144 
L 96.378362 222.439421 
L 96.379985 222.410845 
L 96.485498 222.472119 
L 96.487121 222.443236 
L 96.599127 222.483898 
L 96.711133 222.444219 
L 96.712756 222.473095 
L 96.818269 222.414979 
L 96.819892 222.443568 
L 96.935145 222.363588 
L 96.936768 222.391894 
L 97.042281 222.300678 
L 97.043904 222.328759 
L 97.159156 222.217447 
L 97.16078 222.245323 
L 97.263046 222.133076 
L 97.264669 222.160808 
L 97.379921 222.029404 
L 97.381545 222.05702 
L 97.483811 221.932031 
L 97.485434 221.959583 
L 97.603933 221.816466 
L 97.605556 221.843991 
L 97.707823 221.716489 
L 97.709446 221.74403 
L 97.827945 221.603788 
L 97.829568 221.631388 
L 97.931834 221.511055 
L 97.933457 221.538741 
L 98.04871 221.414287 
L 98.050333 221.442101 
L 98.152599 221.336682 
L 98.154223 221.364635 
L 98.269475 221.260482 
L 98.271098 221.288614 
L 98.376611 221.202124 
L 98.378234 221.230436 
L 98.493487 221.151934 
L 98.49511 221.180455 
L 98.600623 221.118772 
L 98.602246 221.147488 
L 98.714252 221.097198 
L 98.715875 221.126122 
L 98.782429 221.090914 
L 98.826257 221.118603 
L 98.889565 221.090864 
L 98.938263 221.094681 
L 99.050269 221.14124 
L 99.051892 221.11242 
L 99.157405 221.168358 
L 99.159028 221.139678 
L 99.271034 221.207083 
L 99.272657 221.178532 
L 99.37817 221.251699 
L 99.379793 221.223251 
L 99.495046 221.307734 
L 99.496669 221.279375 
L 99.602182 221.364316 
L 99.603805 221.336016 
L 99.719057 221.429959 
L 99.720681 221.4017 
L 99.826193 221.492135 
L 99.827817 221.46389 
L 99.943069 221.560399 
L 99.944692 221.532148 
L 100.050205 221.621882 
L 100.051828 221.593603 
L 100.167081 221.686197 
L 100.168704 221.657869 
L 100.274217 221.741357 
L 100.27584 221.712968 
L 100.391092 221.796141 
L 100.392716 221.767669 
L 100.498228 221.840476 
L 100.499852 221.811916 
L 100.611857 221.880542 
L 100.613481 221.85188 
L 100.718993 221.911217 
L 100.720617 221.882452 
L 100.832623 221.935836 
L 100.834246 221.90696 
L 100.943005 221.951787 
L 100.944628 221.9228 
L 101.056634 221.96004 
L 101.16864 221.931151 
L 101.209222 221.95854 
L 101.279023 221.924163 
L 101.280646 221.953151 
L 101.392652 221.910024 
L 101.394275 221.938911 
L 101.499788 221.890893 
L 101.501411 221.919694 
L 101.613417 221.865258 
L 101.61504 221.893982 
L 101.720553 221.836875 
L 101.722176 221.865538 
L 101.834182 221.803255 
L 101.835805 221.831869 
L 101.941318 221.769151 
L 101.942941 221.797733 
L 102.054947 221.731423 
L 102.05657 221.759986 
L 102.162083 221.695289 
L 102.163706 221.723847 
L 102.275712 221.657311 
L 102.277335 221.68588 
L 102.382848 221.622652 
L 102.384471 221.651242 
L 102.496477 221.587924 
L 102.4981 221.616548 
L 102.603613 221.557766 
L 102.605236 221.586433 
L 102.717242 221.529147 
L 102.718865 221.557868 
L 102.824378 221.505814 
L 102.826001 221.534592 
L 102.938007 221.485334 
L 102.939631 221.514179 
L 103.04839 221.469914 
L 103.050013 221.498827 
L 103.162019 221.458804 
L 103.21721 221.455165 
L 103.274025 221.481722 
L 103.386031 221.451061 
L 103.498036 221.483069 
L 103.532125 221.455677 
L 103.608419 221.489987 
L 103.610042 221.461002 
L 103.722048 221.500939 
L 103.723671 221.472004 
L 103.832431 221.514855 
L 103.834054 221.485963 
L 103.94606 221.532035 
L 103.947683 221.503179 
L 104.053196 221.550374 
L 104.054819 221.521545 
L 104.166825 221.571519 
L 104.168448 221.54271 
L 104.273961 221.592514 
L 104.275584 221.563716 
L 104.38759 221.615319 
L 104.389213 221.586526 
L 104.494726 221.636806 
L 104.496349 221.608009 
L 104.608355 221.659043 
L 104.609978 221.630236 
L 104.715491 221.679031 
L 104.717114 221.650207 
L 104.82912 221.698745 
L 104.830743 221.669898 
L 104.936256 221.715573 
L 104.937879 221.6867 
L 105.049885 221.731229 
L 105.051508 221.702324 
L 105.160268 221.744027 
L 105.161891 221.715088 
L 105.273897 221.754528 
L 105.27552 221.725553 
L 105.381033 221.76184 
L 105.385903 221.73301 
L 105.497908 221.766905 
L 105.609914 221.739839 
L 105.72192 221.768293 
L 105.833926 221.736046 
L 105.929699 221.760591 
L 105.945932 221.759664 
L 106.057937 221.723051 
L 106.059561 221.752011 
L 106.16832 221.713897 
L 106.169943 221.742831 
L 106.281949 221.702998 
L 106.283572 221.73191 
L 106.392332 221.691305 
L 106.393955 221.720201 
L 106.505961 221.678483 
L 106.507584 221.707369 
L 106.616343 221.665606 
L 106.617967 221.694486 
L 106.729972 221.652263 
L 106.731596 221.681142 
L 106.840355 221.639533 
L 106.841978 221.668416 
L 106.953984 221.626975 
L 106.955607 221.655868 
L 107.064367 221.615575 
L 107.06599 221.64448 
L 107.177996 221.604906 
L 107.179619 221.633826 
L 107.288378 221.595773 
L 107.290001 221.624712 
L 107.402007 221.587804 
L 107.403631 221.616764 
L 107.460445 221.584313 
L 107.514013 221.610551 
L 107.626019 221.576779 
L 107.738025 221.602768 
L 107.850031 221.572261 
L 107.962036 221.601458 
L 108.074042 221.574029 
L 108.186048 221.606105 
L 108.298054 221.5813 
L 108.41006 221.615689 
L 108.473367 221.590048 
L 108.522065 221.592851 
L 108.634071 221.628827 
L 108.635695 221.599873 
L 108.744454 221.636128 
L 108.746077 221.60718 
L 108.858083 221.643938 
L 108.859706 221.614994 
L 108.968465 221.651615 
L 108.970089 221.622672 
L 109.082095 221.659414 
L 109.083718 221.630469 
L 109.192477 221.666711 
L 109.1941 221.637763 
L 109.306106 221.673769 
L 109.307729 221.644814 
L 109.37753 221.677901 
L 109.418112 221.651078 
L 109.530118 221.685771 
L 109.642124 221.66155 
L 109.754129 221.694531 
L 109.866135 221.668483 
L 109.978141 221.699555 
L 110.090147 221.671583 
L 110.202153 221.700748 
L 110.314159 221.670946 
L 110.426164 221.698383 
L 110.53817 221.667006 
L 110.650176 221.693037 
L 110.762182 221.660463 
L 110.874188 221.685509 
L 110.986193 221.65219 
L 111.098199 221.676722 
L 111.210205 221.643134 
L 111.322211 221.667624 
L 111.434217 221.634223 
L 111.546223 221.6591 
L 111.658228 221.626278 
L 111.770234 221.651893 
L 111.88224 221.61995 
L 111.994246 221.646548 
L 112.106252 221.615672 
L 112.218257 221.643382 
L 112.330263 221.613641 
L 112.442269 221.642474 
L 112.554275 221.613825 
L 112.666281 221.643685 
L 112.778287 221.615985 
L 112.890292 221.646691 
L 113.002298 221.619724 
L 113.114304 221.651031 
L 113.22631 221.624534 
L 113.338316 221.656166 
L 113.450321 221.629858 
L 113.562327 221.661537 
L 113.674333 221.635149 
L 113.786339 221.666618 
L 113.898345 221.639914 
L 114.010351 221.670962 
L 114.122356 221.64376 
L 114.234362 221.674237 
L 114.346368 221.646419 
L 114.458374 221.676241 
L 114.57038 221.647759 
L 114.682385 221.676914 
L 114.794391 221.647788 
L 114.906397 221.676324 
L 115.018403 221.646633 
L 115.130409 221.674654 
L 115.242415 221.64452 
L 115.35442 221.672168 
L 115.466426 221.641745 
L 115.578432 221.669179 
L 115.690438 221.638632 
L 115.802444 221.666019 
L 115.914449 221.635509 
L 116.026455 221.663 
L 116.138461 221.632667 
L 116.250467 221.660391 
L 116.362473 221.630347 
L 116.474479 221.658396 
L 116.586484 221.628713 
L 116.69849 221.657139 
L 116.810496 221.62785 
L 116.922502 221.656666 
L 117.034508 221.627762 
L 117.146513 221.656942 
L 117.258519 221.628382 
L 117.370525 221.657868 
L 117.482531 221.62958 
L 117.594537 221.659291 
L 117.706543 221.631188 
L 117.818548 221.661029 
L 117.930554 221.633013 
L 118.04256 221.662888 
L 118.154566 221.634863 
L 118.266572 221.66468 
L 118.378577 221.636563 
L 118.490583 221.666246 
L 118.602589 221.637969 
L 118.714595 221.66746 
L 118.826601 221.638978 
L 118.938607 221.668245 
L 119.050612 221.639535 
L 119.162618 221.668568 
L 119.274624 221.639635 
L 119.38663 221.668447 
L 119.498636 221.639312 
L 119.610641 221.667936 
L 119.722647 221.63864 
L 119.834653 221.667121 
L 119.946659 221.637716 
L 120.058665 221.66611 
L 120.170671 221.636652 
L 120.282676 221.665017 
L 120.394682 221.635562 
L 120.506688 221.663951 
L 120.618694 221.634551 
L 120.7307 221.663011 
L 120.842705 221.633706 
L 120.954711 221.662271 
L 121.066717 221.633089 
L 121.178723 221.661781 
L 121.290729 221.632736 
L 121.402735 221.661561 
L 121.51474 221.632653 
L 121.626746 221.661606 
L 121.738752 221.632823 
L 121.850758 221.661884 
L 121.962764 221.633203 
L 122.074769 221.662346 
L 122.186775 221.633737 
L 122.298781 221.662931 
L 122.410787 221.63436 
L 122.522793 221.663571 
L 122.634799 221.635006 
L 122.746804 221.664201 
L 122.85881 221.63561 
L 122.970816 221.664762 
L 123.082822 221.636122 
L 123.194828 221.665209 
L 123.306833 221.636502 
L 123.418839 221.665511 
L 123.530845 221.636728 
L 123.642851 221.665655 
L 123.754857 221.636795 
L 123.866863 221.665641 
L 123.978868 221.636712 
L 124.090874 221.665488 
L 124.20288 221.636501 
L 124.314886 221.665223 
L 124.426892 221.636196 
L 124.538897 221.664883 
L 124.650903 221.635835 
L 124.762909 221.664505 
L 124.874915 221.635457 
L 124.986921 221.66413 
L 125.098927 221.635099 
L 125.210932 221.663793 
L 125.322938 221.634794 
L 125.434944 221.66352 
L 125.54695 221.634564 
L 125.658956 221.66333 
L 125.770961 221.634423 
L 125.882967 221.663235 
L 125.994973 221.634377 
L 126.106979 221.663231 
L 126.218985 221.63442 
L 126.330991 221.663312 
L 126.442996 221.634539 
L 126.555002 221.66346 
L 126.667008 221.634716 
L 126.779014 221.663655 
L 126.89102 221.634929 
L 127.003025 221.663874 
L 127.115031 221.635153 
L 127.227037 221.664093 
L 127.339043 221.635368 
L 127.451049 221.664293 
L 127.563055 221.635554 
L 127.67506 221.664456 
L 127.787066 221.635697 
L 127.899072 221.664571 
L 128.011078 221.635787 
L 128.123084 221.664631 
L 128.235089 221.635822 
L 128.347095 221.664636 
L 128.459101 221.635804 
L 128.571107 221.664591 
L 128.683113 221.63574 
L 128.795119 221.664505 
L 128.907124 221.635641 
L 129.01913 221.66439 
L 129.131136 221.635519 
L 129.243142 221.66426 
L 129.355148 221.635389 
L 129.467153 221.664128 
L 129.579159 221.635264 
L 129.691165 221.664007 
L 129.803171 221.635154 
L 129.915177 221.663906 
L 130.027183 221.63507 
L 130.139188 221.663833 
L 130.251194 221.635015 
L 130.3632 221.663793 
L 130.475206 221.634994 
L 130.587212 221.663784 
L 130.699217 221.635004 
L 130.811223 221.663806 
L 130.923229 221.635041 
L 131.035235 221.663852 
L 131.147241 221.6351 
L 131.259247 221.663916 
L 131.371252 221.635172 
L 131.483258 221.66399 
L 131.595264 221.635251 
L 131.70727 221.664066 
L 131.819276 221.635328 
L 131.931281 221.664136 
L 132.043287 221.635395 
L 132.155293 221.664195 
L 132.267299 221.635449 
L 132.379305 221.664237 
L 132.491311 221.635485 
L 132.603316 221.664261 
L 132.715322 221.635502 
L 132.827328 221.664266 
L 132.939334 221.6355 
L 133.05134 221.664252 
L 133.163345 221.635481 
L 133.275351 221.664224 
L 133.387357 221.63545 
L 133.499363 221.664185 
L 133.611369 221.63541 
L 133.723375 221.66414 
L 133.83538 221.635366 
L 133.947386 221.664093 
L 134.059392 221.635323 
L 134.171398 221.664049 
L 134.283404 221.635284 
L 134.395409 221.664012 
L 134.507415 221.635254 
L 134.619421 221.663984 
L 134.731427 221.635234 
L 134.843433 221.663966 
L 134.955439 221.635225 
L 135.067444 221.66396 
L 135.17945 221.635227 
L 135.291456 221.663965 
L 135.403462 221.635239 
L 135.515468 221.663979 
L 135.627473 221.635259 
L 135.739479 221.663999 
L 135.851485 221.635284 
L 135.963491 221.664023 
L 136.075497 221.635312 
L 136.187503 221.664049 
L 136.299508 221.63534 
L 136.411514 221.664073 
L 136.52352 221.635365 
L 136.635526 221.664093 
L 136.747532 221.635386 
L 136.859537 221.664108 
L 136.971543 221.6354 
L 137.083549 221.664117 
L 137.195555 221.635408 
L 137.307561 221.664119 
L 137.419567 221.63541 
L 137.531572 221.664115 
L 137.643578 221.635405 
L 137.755584 221.664105 
L 137.86759 221.635396 
L 137.979596 221.664091 
L 138.091601 221.635384 
L 138.203607 221.664075 
L 138.315613 221.63537 
L 138.427619 221.664058 
L 138.539625 221.635355 
L 138.651631 221.664041 
L 138.763636 221.635342 
L 138.875642 221.664027 
L 138.987648 221.635332 
L 139.099654 221.664016 
L 139.21166 221.635325 
L 139.323665 221.664008 
L 139.435671 221.635322 
L 139.547677 221.664004 
L 139.659683 221.635323 
L 139.771689 221.664004 
L 139.883695 221.635327 
L 139.9957 221.664008 
L 140.107706 221.635335 
L 140.219712 221.664013 
L 140.331718 221.635344 
L 140.443724 221.664021 
L 140.555729 221.635355 
L 140.667735 221.664029 
L 140.779741 221.635365 
L 140.891747 221.664036 
L 141.003753 221.635375 
L 141.115759 221.664043 
L 141.227764 221.635383 
L 141.33977 221.664047 
L 141.451776 221.63539 
L 141.563782 221.66405 
L 141.675788 221.635394 
L 141.787793 221.66405 
L 141.899799 221.635396 
L 142.011805 221.664048 
L 142.123811 221.635395 
L 142.235817 221.664045 
L 142.347823 221.635393 
L 142.459828 221.664039 
L 142.571834 221.63539 
L 142.68384 221.664033 
L 142.795846 221.635386 
L 142.907852 221.664026 
L 143.019857 221.635382 
L 143.131863 221.664019 
L 143.243869 221.635378 
L 143.355875 221.664013 
L 143.467881 221.635375 
L 143.579887 221.664008 
L 143.691892 221.635374 
L 143.803898 221.664004 
L 143.915904 221.635373 
L 144.02791 221.664002 
L 144.139916 221.635374 
L 144.251921 221.664001 
L 144.363927 221.635376 
L 144.475933 221.664001 
L 144.587939 221.635379 
L 144.699945 221.664002 
L 144.811951 221.635383 
L 144.923956 221.664003 
L 145.035962 221.635388 
L 145.147968 221.664005 
L 145.259974 221.635392 
L 145.37198 221.664007 
L 145.483985 221.635397 
L 145.595991 221.664009 
L 145.707997 221.635401 
L 145.820003 221.66401 
L 145.932009 221.635404 
L 146.044015 221.66401 
L 146.15602 221.635406 
L 146.268026 221.664009 
L 146.380032 221.635408 
L 146.492038 221.664008 
L 146.604044 221.635409 
L 146.716049 221.664006 
L 146.828055 221.635409 
L 146.940061 221.664003 
L 147.052067 221.635409 
L 147.164073 221.664 
L 147.276079 221.635409 
L 147.388084 221.663997 
L 147.50009 221.635408 
L 147.612096 221.663994 
L 147.724102 221.635408 
L 147.836108 221.66399 
L 147.948113 221.635407 
L 148.060119 221.663988 
L 148.172125 221.635407 
L 148.284131 221.663986 
L 148.396137 221.635408 
L 148.508143 221.663984 
L 148.620148 221.635409 
L 148.732154 221.663982 
L 148.84416 221.635411 
L 148.956166 221.663981 
L 149.068172 221.635413 
L 149.180177 221.663981 
L 149.292183 221.635415 
L 149.404189 221.66398 
L 149.516195 221.635417 
L 149.628201 221.66398 
L 149.740207 221.63542 
L 149.852212 221.66398 
L 149.964218 221.635422 
L 150.076224 221.66398 
L 150.18823 221.635424 
L 150.300236 221.663979 
L 150.412241 221.635426 
L 150.524247 221.663978 
L 150.636253 221.635428 
L 150.748259 221.663977 
L 150.860265 221.63543 
L 150.972271 221.663976 
L 151.084276 221.635431 
L 151.196282 221.663975 
L 151.308288 221.635432 
L 151.420294 221.663973 
L 151.5323 221.635433 
L 151.644305 221.663971 
L 151.756311 221.635433 
L 151.868317 221.663969 
L 151.980323 221.635434 
L 152.092329 221.663967 
L 152.204335 221.635435 
L 152.31634 221.663965 
L 152.428346 221.635436 
L 152.540352 221.663963 
L 152.652358 221.635437 
L 152.764364 221.663961 
L 152.876369 221.635438 
L 152.988375 221.66396 
L 153.100381 221.635439 
L 153.212387 221.663959 
L 153.324393 221.63544 
L 153.436399 221.663957 
L 153.548404 221.635442 
L 153.66041 221.663956 
L 153.772416 221.635443 
L 153.884422 221.663955 
L 153.996428 221.635445 
L 154.108433 221.663954 
L 154.220439 221.635447 
L 154.332445 221.663953 
L 154.444451 221.635448 
L 154.556457 221.663952 
L 154.668463 221.63545 
L 154.780468 221.663951 
L 154.892474 221.635452 
L 155.00448 221.66395 
L 155.116486 221.635453 
L 155.228492 221.663949 
L 155.340497 221.635455 
L 155.452503 221.663948 
L 155.564509 221.635456 
L 155.676515 221.663946 
L 155.788521 221.635457 
L 155.900527 221.663945 
L 156.012532 221.635458 
L 156.124538 221.663943 
L 156.236544 221.635459 
L 156.34855 221.663942 
L 156.460556 221.63546 
L 156.572561 221.66394 
L 156.684567 221.635462 
L 156.796573 221.663939 
L 156.908579 221.635463 
L 157.020585 221.663937 
L 157.132591 221.635464 
L 157.244596 221.663936 
L 157.356602 221.635465 
L 157.468608 221.663934 
L 157.580614 221.635466 
L 157.69262 221.663933 
L 157.804625 221.635468 
L 157.916631 221.663932 
L 158.028637 221.635469 
L 158.140643 221.66393 
L 158.252649 221.635471 
L 158.364655 221.663929 
L 158.47666 221.635472 
L 158.588666 221.663928 
L 158.700672 221.635473 
L 158.812678 221.663927 
L 158.924684 221.635475 
L 159.036689 221.663925 
L 159.148695 221.635476 
L 159.260701 221.663924 
L 159.372707 221.635478 
L 159.484713 221.663923 
L 159.596719 221.635479 
L 159.708724 221.663922 
L 159.82073 221.635481 
L 159.932736 221.66392 
L 160.044742 221.635482 
L 160.156748 221.663919 
L 160.268753 221.635483 
L 160.380759 221.663918 
L 160.492765 221.635484 
L 160.604771 221.663916 
L 160.716777 221.635486 
L 160.828783 221.663915 
L 160.940788 221.635487 
L 161.052794 221.663913 
L 161.1648 221.635488 
L 161.276806 221.663912 
L 161.388812 221.635489 
L 161.500817 221.663911 
L 161.612823 221.635491 
L 161.724829 221.663909 
L 161.836835 221.635492 
L 161.948841 221.663908 
L 162.060847 221.635493 
L 162.172852 221.663907 
L 162.284858 221.635495 
L 162.396864 221.663905 
L 162.50887 221.635496 
L 162.620876 221.663904 
L 162.732881 221.635497 
L 162.844887 221.663903 
L 162.956893 221.635499 
L 163.068899 221.663901 
L 163.180905 221.6355 
L 163.292911 221.6639 
L 163.404916 221.635501 
L 163.516922 221.663899 
L 163.628928 221.635503 
L 163.740934 221.663897 
L 163.85294 221.635504 
L 163.964945 221.663896 
L 164.076951 221.635505 
L 164.188957 221.663895 
L 164.300963 221.635507 
L 164.412969 221.663894 
L 164.524975 221.635508 
L 164.63698 221.663892 
L 164.748986 221.635509 
L 164.860992 221.663891 
L 164.972998 221.635511 
L 165.085004 221.66389 
L 165.197009 221.635512 
L 165.309015 221.663888 
L 165.421021 221.635513 
L 165.533027 221.663887 
L 165.645033 221.635515 
L 165.757039 221.663885 
L 165.869044 221.635516 
L 165.98105 221.663884 
L 166.093056 221.635517 
L 166.205062 221.663883 
L 166.317068 221.635519 
L 166.429073 221.663881 
L 166.541079 221.63552 
L 166.653085 221.66388 
L 166.765091 221.635521 
L 166.877097 221.663879 
L 166.989103 221.635523 
L 167.101108 221.663877 
L 167.213114 221.635524 
L 167.32512 221.663876 
L 167.437126 221.635525 
L 167.549132 221.663875 
L 167.661137 221.635527 
L 167.773143 221.663874 
L 167.885149 221.635528 
L 167.997155 221.663872 
L 168.109161 221.635529 
L 168.221167 221.663871 
L 168.333172 221.635531 
L 168.445178 221.66387 
L 168.557184 221.635532 
L 168.66919 221.663868 
L 168.781196 221.635533 
L 168.893201 221.663867 
L 169.005207 221.635535 
L 169.117213 221.663866 
L 169.229219 221.635536 
L 169.341225 221.663864 
L 169.453231 221.635537 
L 169.565236 221.663863 
L 169.677242 221.635538 
L 169.789248 221.663862 
L 169.901254 221.63554 
L 170.01326 221.66386 
L 170.125265 221.635541 
L 170.237271 221.663859 
L 170.349277 221.635542 
L 170.461283 221.663858 
L 170.573289 221.635544 
L 170.685295 221.663856 
L 170.7973 221.635545 
L 170.909306 221.663855 
L 171.021312 221.635546 
L 171.133318 221.663854 
L 171.245324 221.635548 
L 171.357329 221.663852 
L 171.469335 221.635549 
L 171.581341 221.663851 
L 171.693347 221.63555 
L 171.805353 221.66385 
L 171.917359 221.635552 
L 172.029364 221.663848 
L 172.14137 221.635553 
L 172.253376 221.663847 
L 172.365382 221.635554 
L 172.477388 221.663846 
L 172.589393 221.635556 
L 172.701399 221.663844 
L 172.813405 221.635557 
L 172.925411 221.663843 
L 173.037417 221.635558 
L 173.149423 221.663842 
L 173.261428 221.63556 
L 173.373434 221.66384 
L 173.48544 221.635561 
L 173.597446 221.663839 
L 173.709452 221.635562 
L 173.821457 221.663838 
L 173.933463 221.635564 
L 174.045469 221.663836 
L 174.157475 221.635565 
L 174.269481 221.663835 
L 174.381487 221.635566 
L 174.493492 221.663834 
L 174.605498 221.635567 
L 174.717504 221.663832 
L 174.82951 221.635569 
L 174.941516 221.663831 
L 175.053521 221.63557 
L 175.165527 221.66383 
L 175.277533 221.635571 
L 175.389539 221.663828 
L 175.501545 221.635573 
L 175.613551 221.663827 
L 175.725556 221.635574 
L 175.837562 221.663826 
L 175.949568 221.635575 
L 176.061574 221.663825 
L 176.17358 221.635577 
L 176.285585 221.663823 
L 176.397591 221.635578 
L 176.509597 221.663822 
L 176.621603 221.635579 
L 176.733609 221.663821 
L 176.845615 221.635581 
L 176.95762 221.663819 
L 177.069626 221.635582 
L 177.181632 221.663818 
L 177.293638 221.635583 
L 177.405644 221.663817 
L 177.517649 221.635585 
L 177.629655 221.663815 
L 177.741661 221.635586 
L 177.853667 221.663814 
L 177.965673 221.635587 
L 178.077679 221.663813 
L 178.189684 221.635589 
L 178.30169 221.663811 
L 178.413696 221.63559 
L 178.525702 221.66381 
L 178.637708 221.635591 
L 178.749713 221.663809 
L 178.861719 221.635593 
L 178.973725 221.663807 
L 179.085731 221.635594 
L 179.197737 221.663806 
L 179.309743 221.635595 
L 179.421748 221.663805 
L 179.533754 221.635596 
L 179.64576 221.663803 
L 179.757766 221.635598 
L 179.869772 221.663802 
L 179.981777 221.635599 
L 180.093783 221.663801 
L 180.205789 221.6356 
L 180.317795 221.663799 
L 180.429801 221.635602 
L 180.541807 221.663798 
L 180.653812 221.635603 
L 180.765818 221.663797 
L 180.877824 221.635604 
L 180.98983 221.663795 
L 181.101836 221.635606 
L 181.213841 221.663794 
L 181.325847 221.635607 
L 181.437853 221.663793 
L 181.549859 221.635608 
L 181.661865 221.663791 
L 181.773871 221.63561 
L 181.885876 221.66379 
L 181.997882 221.635611 
L 182.109888 221.663789 
L 182.221894 221.635612 
L 182.3339 221.663788 
L 182.445905 221.635614 
L 182.557911 221.663786 
L 182.669917 221.635615 
L 182.781923 221.663785 
L 182.893929 221.635616 
L 183.005935 221.663784 
L 183.11794 221.635617 
L 183.229946 221.663782 
L 183.341952 221.635619 
L 183.453958 221.663781 
L 183.565964 221.63562 
L 183.677969 221.66378 
L 183.789975 221.635621 
L 183.901981 221.663778 
L 184.013987 221.635623 
L 184.125993 221.663777 
L 184.237999 221.635624 
L 184.350004 221.663776 
L 184.46201 221.635625 
L 184.574016 221.663774 
L 184.686022 221.635627 
L 184.798028 221.663773 
L 184.910033 221.635628 
L 185.022039 221.663772 
L 185.134045 221.635629 
L 185.246051 221.66377 
L 185.358057 221.635631 
L 185.470063 221.663769 
L 185.582068 221.635632 
L 185.694074 221.663768 
L 185.80608 221.635633 
L 185.918086 221.663766 
L 186.030092 221.635635 
L 186.142097 221.663765 
L 186.254103 221.635636 
L 186.366109 221.663764 
L 186.478115 221.635637 
L 186.590121 221.663762 
L 186.702127 221.635638 
L 186.814132 221.663761 
L 186.926138 221.63564 
L 187.038144 221.66376 
L 187.15015 221.635641 
L 187.262156 221.663759 
L 187.374161 221.635642 
L 187.486167 221.663757 
L 187.598173 221.635644 
L 187.710179 221.663756 
L 187.822185 221.635645 
L 187.934191 221.663755 
L 188.046196 221.635646 
L 188.158202 221.663753 
L 188.270208 221.635648 
L 188.382214 221.663752 
L 188.49422 221.635649 
L 188.606225 221.663751 
L 188.718231 221.63565 
L 188.830237 221.663749 
L 188.942243 221.635652 
L 189.054249 221.663748 
L 189.166255 221.635653 
L 189.27826 221.663747 
L 189.390266 221.635654 
L 189.502272 221.663745 
L 189.614278 221.635656 
L 189.726284 221.663744 
L 189.838289 221.635657 
L 189.950295 221.663743 
L 190.062301 221.635658 
L 190.174307 221.663741 
L 190.286313 221.635659 
L 190.398319 221.66374 
L 190.510324 221.635661 
L 190.62233 221.663739 
L 190.734336 221.635662 
L 190.846342 221.663737 
L 190.958348 221.635663 
L 191.070353 221.663736 
L 191.182359 221.635665 
L 191.294365 221.663735 
L 191.406371 221.635666 
L 191.518377 221.663734 
L 191.630383 221.635667 
L 191.742388 221.663732 
L 191.854394 221.635669 
L 191.9664 221.663731 
L 192.078406 221.63567 
L 192.190412 221.66373 
L 192.302417 221.635671 
L 192.414423 221.663728 
L 192.526429 221.635673 
L 192.638435 221.663727 
L 192.750441 221.635674 
L 192.862447 221.663726 
L 192.974452 221.635675 
L 193.086458 221.663724 
L 193.198464 221.635676 
L 193.31047 221.663723 
L 193.422476 221.635678 
L 193.534481 221.663722 
L 193.646487 221.635679 
L 193.758493 221.66372 
L 193.870499 221.63568 
L 193.982505 221.663719 
L 194.094511 221.635682 
L 194.206516 221.663718 
L 194.318522 221.635683 
L 194.430528 221.663716 
L 194.542534 221.635684 
L 194.65454 221.663715 
L 194.766545 221.635686 
L 194.878551 221.663714 
L 194.990557 221.635687 
L 195.102563 221.663713 
L 195.214569 221.635688 
L 195.326575 221.663711 
L 195.43858 221.63569 
L 195.550586 221.66371 
L 195.662592 221.635691 
L 195.774598 221.663709 
L 195.886604 221.635692 
L 195.998609 221.663707 
L 196.110615 221.635693 
L 196.222621 221.663706 
L 196.334627 221.635695 
L 196.446633 221.663705 
L 196.558639 221.635696 
L 196.670644 221.663703 
L 196.78265 221.635697 
L 196.894656 221.663702 
L 197.006662 221.635699 
L 197.118668 221.663701 
L 197.230673 221.6357 
L 197.342679 221.663699 
L 197.454685 221.635701 
L 197.566691 221.663698 
L 197.678697 221.635703 
L 197.790703 221.663697 
L 197.902708 221.635704 
L 198.014714 221.663695 
L 198.12672 221.635705 
L 198.238726 221.663694 
L 198.350732 221.635707 
L 198.462737 221.663693 
L 198.574743 221.635708 
L 198.686749 221.663692 
L 198.798755 221.635709 
L 198.910761 221.66369 
L 199.022767 221.63571 
L 199.134772 221.663689 
L 199.246778 221.635712 
L 199.358784 221.663688 
L 199.47079 221.635713 
L 199.582796 221.663686 
L 199.694801 221.635714 
L 199.806807 221.663685 
L 199.918813 221.635716 
L 200.030819 221.663684 
L 200.142825 221.635717 
L 200.254831 221.663682 
L 200.366836 221.635718 
L 200.478842 221.663681 
L 200.590848 221.63572 
L 200.702854 221.66368 
L 200.81486 221.635721 
L 200.926865 221.663678 
L 201.038871 221.635722 
L 201.150877 221.663677 
L 201.262883 221.635724 
L 201.374889 221.663676 
L 201.486895 221.635725 
L 201.5989 221.663675 
L 201.710906 221.635726 
L 201.822912 221.663673 
L 201.934918 221.635727 
L 202.046924 221.663672 
L 202.158929 221.635729 
L 202.270935 221.663671 
L 202.382941 221.63573 
L 202.494947 221.663669 
L 202.606953 221.635731 
L 202.718959 221.663668 
L 202.830964 221.635733 
L 202.94297 221.663667 
L 203.054976 221.635734 
L 203.166982 221.663665 
L 203.278988 221.635735 
L 203.390993 221.663664 
L 203.502999 221.635737 
L 203.615005 221.663663 
L 203.727011 221.635738 
L 203.839017 221.663661 
L 203.951023 221.635739 
L 204.063028 221.66366 
L 204.175034 221.63574 
L 204.28704 221.663659 
L 204.399046 221.635742 
L 204.511052 221.663658 
L 204.623057 221.635743 
L 204.735063 221.663656 
L 204.847069 221.635744 
L 204.959075 221.663655 
L 205.071081 221.635746 
L 205.183087 221.663654 
L 205.295092 221.635747 
L 205.407098 221.663652 
L 205.519104 221.635748 
L 205.63111 221.663651 
L 205.743116 221.63575 
L 205.855121 221.66365 
L 205.967127 221.635751 
L 206.079133 221.663648 
L 206.191139 221.635752 
L 206.303145 221.663647 
L 206.415151 221.635753 
L 206.527156 221.663646 
L 206.639162 221.635755 
L 206.751168 221.663644 
L 206.863174 221.635756 
L 206.97518 221.663643 
L 207.087185 221.635757 
L 207.199191 221.663642 
L 207.311197 221.635759 
L 207.423203 221.663641 
L 207.535209 221.63576 
L 207.647215 221.663639 
L 207.75922 221.635761 
L 207.871226 221.663638 
L 207.983232 221.635763 
L 208.095238 221.663637 
L 208.207244 221.635764 
L 208.319249 221.663635 
L 208.431255 221.635765 
L 208.543261 221.663634 
L 208.655267 221.635766 
L 208.767273 221.663633 
L 208.879279 221.635768 
L 208.991284 221.663631 
L 209.10329 221.635769 
L 209.215296 221.66363 
L 209.327302 221.63577 
L 209.439308 221.663629 
L 209.551313 221.635772 
L 209.663319 221.663627 
L 209.775325 221.635773 
L 209.887331 221.663626 
L 209.999337 221.635774 
L 210.111343 221.663625 
L 210.223348 221.635776 
L 210.335354 221.663624 
L 210.44736 221.635777 
L 210.559366 221.663622 
L 210.671372 221.635778 
L 210.783377 221.663621 
L 210.895383 221.635779 
L 211.007389 221.66362 
L 211.119395 221.635781 
L 211.231401 221.663618 
L 211.343407 221.635782 
L 211.455412 221.663617 
L 211.567418 221.635783 
L 211.679424 221.663616 
L 211.79143 221.635785 
L 211.903436 221.663614 
L 212.015441 221.635786 
L 212.127447 221.663613 
L 212.239453 221.635787 
L 212.351459 221.663612 
L 212.463465 221.635789 
L 212.575471 221.663611 
L 212.687476 221.63579 
L 212.799482 221.663609 
L 212.911488 221.635791 
L 213.023494 221.663608 
L 213.1355 221.635792 
L 213.247505 221.663607 
L 213.359511 221.635794 
L 213.471517 221.663605 
L 213.583523 221.635795 
L 213.695529 221.663604 
L 213.807535 221.635796 
L 213.91954 221.663603 
L 214.031546 221.635798 
L 214.143552 221.663601 
L 214.255558 221.635799 
L 214.367564 221.6636 
L 214.479569 221.6358 
L 214.591575 221.663599 
L 214.703581 221.635802 
L 214.815587 221.663598 
L 214.927593 221.635803 
L 215.039599 221.663596 
L 215.151604 221.635804 
L 215.26361 221.663595 
L 215.375616 221.635805 
L 215.487622 221.663594 
L 215.599628 221.635807 
L 215.711633 221.663592 
L 215.823639 221.635808 
L 215.935645 221.663591 
L 216.047651 221.635809 
L 216.159657 221.66359 
L 216.271663 221.635811 
L 216.383668 221.663588 
L 216.495674 221.635812 
L 216.60768 221.663587 
L 216.719686 221.635813 
L 216.831692 221.663586 
L 216.943697 221.635814 
L 217.055703 221.663585 
L 217.167709 221.635816 
L 217.279715 221.663583 
L 217.391721 221.635817 
L 217.503727 221.663582 
L 217.615732 221.635818 
L 217.727738 221.663581 
L 217.839744 221.63582 
L 217.95175 221.663579 
L 218.063756 221.635821 
L 218.175761 221.663578 
L 218.287767 221.635822 
L 218.399773 221.663577 
L 218.511779 221.635824 
L 218.623785 221.663575 
L 218.735791 221.635825 
L 218.847796 221.663574 
L 218.959802 221.635826 
L 219.071808 221.663573 
L 219.183814 221.635827 
L 219.29582 221.663572 
L 219.407825 221.635829 
L 219.519831 221.66357 
L 219.631837 221.63583 
L 219.743843 221.663569 
L 219.855849 221.635831 
L 219.967855 221.663568 
L 220.07986 221.635833 
L 220.191866 221.663566 
L 220.303872 221.635834 
L 220.415878 221.663565 
L 220.527884 221.635835 
L 220.639889 221.663564 
L 220.751895 221.635836 
L 220.863901 221.663562 
L 220.975907 221.635838 
L 221.087913 221.663561 
L 221.199919 221.635839 
L 221.311924 221.66356 
L 221.42393 221.63584 
L 221.535936 221.663559 
L 221.647942 221.635842 
L 221.759948 221.663557 
L 221.871953 221.635843 
L 221.983959 221.663556 
L 222.095965 221.635844 
L 222.207971 221.663555 
L 222.319977 221.635846 
L 222.431983 221.663553 
L 222.543988 221.635847 
L 222.655994 221.663552 
L 222.768 221.635848 
L 222.880006 221.663551 
L 222.992012 221.635849 
L 223.104017 221.663549 
L 223.216023 221.635851 
L 223.328029 221.663548 
L 223.440035 221.635852 
L 223.552041 221.663547 
L 223.664047 221.635853 
L 223.776052 221.663546 
L 223.888058 221.635855 
L 224.000064 221.663544 
L 224.11207 221.635856 
L 224.224076 221.663543 
L 224.336081 221.635857 
L 224.448087 221.663542 
L 224.560093 221.635858 
L 224.672099 221.66354 
L 224.784105 221.63586 
L 224.896111 221.663539 
L 225.008116 221.635861 
L 225.120122 221.663538 
L 225.232128 221.635862 
L 225.344134 221.663536 
L 225.45614 221.635864 
L 225.568145 221.663535 
L 225.680151 221.635865 
L 225.792157 221.663534 
L 225.904163 221.635866 
L 226.016169 221.663533 
L 226.128175 221.635867 
L 226.24018 221.663531 
L 226.352186 221.635869 
L 226.464192 221.66353 
L 226.576198 221.63587 
L 226.688204 221.663529 
L 226.800209 221.635871 
L 226.912215 221.663527 
L 227.024221 221.635873 
L 227.136227 221.663526 
L 227.248233 221.635874 
L 227.360239 221.663525 
L 227.472244 221.635875 
L 227.58425 221.663524 
L 227.696256 221.635877 
L 227.808262 221.663522 
L 227.920268 221.635878 
L 228.032273 221.663521 
L 228.144279 221.635879 
L 228.256285 221.66352 
L 228.368291 221.63588 
L 228.480297 221.663518 
L 228.592303 221.635882 
L 228.704308 221.663517 
L 228.816314 221.635883 
L 228.92832 221.663516 
L 229.040326 221.635884 
L 229.152332 221.663514 
L 229.264337 221.635886 
L 229.376343 221.663513 
L 229.488349 221.635887 
L 229.600355 221.663512 
L 229.712361 221.635888 
L 229.824367 221.663511 
L 229.936372 221.635889 
L 230.048378 221.663509 
L 230.160384 221.635891 
L 230.27239 221.663508 
L 230.384396 221.635892 
L 230.496401 221.663507 
L 230.608407 221.635893 
L 230.720413 221.663505 
L 230.832419 221.635895 
L 230.944425 221.663504 
L 231.056431 221.635896 
L 231.168436 221.663503 
L 231.280442 221.635897 
L 231.392448 221.663502 
L 231.504454 221.635898 
L 231.61646 221.6635 
L 231.728465 221.6359 
L 231.840471 221.663499 
L 231.952477 221.635901 
L 232.064483 221.663498 
L 232.176489 221.635902 
L 232.288495 221.663496 
L 232.4005 221.635904 
L 232.512506 221.663495 
L 232.624512 221.635905 
L 232.736518 221.663494 
L 232.848524 221.635906 
L 232.960529 221.663493 
L 233.072535 221.635907 
L 233.184541 221.663491 
L 233.296547 221.635909 
L 233.408553 221.66349 
L 233.520559 221.63591 
L 233.632564 221.663489 
L 233.74457 221.635911 
L 233.856576 221.663487 
L 233.968582 221.635913 
L 234.080588 221.663486 
L 234.192593 221.635914 
L 234.304599 221.663485 
L 234.416605 221.635915 
L 234.528611 221.663483 
L 234.640617 221.635916 
L 234.752623 221.663482 
L 234.864628 221.635918 
L 234.976634 221.663481 
L 235.08864 221.635919 
L 235.200646 221.66348 
L 235.312652 221.63592 
L 235.424657 221.663478 
L 235.536663 221.635922 
L 235.648669 221.663477 
L 235.760675 221.635923 
L 235.872681 221.663476 
L 235.984687 221.635924 
L 236.096692 221.663474 
L 236.208698 221.635925 
L 236.320704 221.663473 
L 236.43271 221.635927 
L 236.544716 221.663472 
L 236.656721 221.635928 
L 236.768727 221.663471 
L 236.880733 221.635929 
L 236.992739 221.663469 
L 237.104745 221.635931 
L 237.216751 221.663468 
L 237.328756 221.635932 
L 237.440762 221.663467 
L 237.552768 221.635933 
L 237.664774 221.663465 
L 237.77678 221.635934 
L 237.888785 221.663464 
L 238.000791 221.635936 
L 238.112797 221.663463 
L 238.224803 221.635937 
L 238.336809 221.663462 
L 238.448815 221.635938 
L 238.56082 221.66346 
L 238.672826 221.63594 
L 238.784832 221.663459 
L 238.896838 221.635941 
L 239.008844 221.663458 
L 239.120849 221.635942 
L 239.232855 221.663456 
L 239.344861 221.635943 
L 239.456867 221.663455 
L 239.568873 221.635945 
L 239.680879 221.663454 
L 239.792884 221.635946 
L 239.90489 221.663453 
L 240.016896 221.635947 
L 240.128902 221.663451 
L 240.240908 221.635949 
L 240.352913 221.66345 
L 240.464919 221.63595 
L 240.576925 221.663449 
L 240.688931 221.635951 
L 240.800937 221.663447 
L 240.912943 221.635952 
L 241.024948 221.663446 
L 241.136954 221.635954 
L 241.24896 221.663445 
L 241.360966 221.635955 
L 241.472972 221.663444 
L 241.584977 221.635956 
L 241.696983 221.663442 
L 241.808989 221.635958 
L 241.920995 221.663441 
L 242.033001 221.635959 
L 242.145007 221.66344 
L 242.257012 221.63596 
L 242.369018 221.663438 
L 242.481024 221.635961 
L 242.59303 221.663437 
L 242.705036 221.635963 
L 242.817041 221.663436 
L 242.929047 221.635964 
L 243.041053 221.663435 
L 243.153059 221.635965 
L 243.265065 221.663433 
L 243.377071 221.635966 
L 243.489076 221.663432 
L 243.601082 221.635968 
L 243.713088 221.663431 
L 243.825094 221.635969 
L 243.9371 221.663429 
L 244.049105 221.63597 
L 244.161111 221.663428 
L 244.273117 221.635972 
L 244.385123 221.663427 
L 244.497129 221.635973 
L 244.609135 221.663426 
L 244.72114 221.635974 
L 244.833146 221.663424 
L 244.945152 221.635975 
L 245.057158 221.663423 
L 245.169164 221.635977 
L 245.281169 221.663422 
L 245.393175 221.635978 
L 245.505181 221.66342 
L 245.617187 221.635979 
L 245.729193 221.663419 
L 245.841199 221.635981 
L 245.953204 221.663418 
L 246.06521 221.635982 
L 246.177216 221.663417 
L 246.289222 221.635983 
L 246.401228 221.663415 
L 246.513233 221.635984 
L 246.625239 221.663414 
L 246.737245 221.635986 
L 246.849251 221.663413 
L 246.961257 221.635987 
L 247.073263 221.663411 
L 247.185268 221.635988 
L 247.297274 221.66341 
L 247.40928 221.63599 
L 247.521286 221.663409 
L 247.633292 221.635991 
L 247.745297 221.663408 
L 247.857303 221.635992 
L 247.969309 221.663406 
L 248.081315 221.635993 
L 248.193321 221.663405 
L 248.305327 221.635995 
L 248.417332 221.663404 
L 248.529338 221.635996 
L 248.641344 221.663402 
L 248.75335 221.635997 
L 248.865356 221.663401 
L 248.977361 221.635998 
L 249.089367 221.6634 
L 249.201373 221.636 
L 249.313379 221.663399 
L 249.425385 221.636001 
L 249.537391 221.663397 
L 249.649396 221.636002 
L 249.761402 221.663396 
L 249.873408 221.636004 
L 249.985414 221.663395 
L 250.09742 221.636005 
L 250.209425 221.663393 
L 250.321431 221.636006 
L 250.433437 221.663392 
L 250.545443 221.636007 
L 250.657449 221.663391 
L 250.769455 221.636009 
L 250.88146 221.66339 
L 250.993466 221.63601 
L 251.105472 221.663388 
L 251.217478 221.636011 
L 251.329484 221.663387 
L 251.441489 221.636013 
L 251.553495 221.663386 
L 251.665501 221.636014 
L 251.777507 221.663384 
L 251.889513 221.636015 
L 252.001519 221.663383 
L 252.113524 221.636016 
L 252.22553 221.663382 
L 252.337536 221.636018 
L 252.449542 221.663381 
L 252.561548 221.636019 
L 252.673553 221.663379 
L 252.785559 221.63602 
L 252.897565 221.663378 
L 253.009571 221.636021 
L 253.121577 221.663377 
L 253.233583 221.636023 
L 253.345588 221.663375 
L 253.457594 221.636024 
L 253.5696 221.663374 
L 253.681606 221.636025 
L 253.793612 221.663373 
L 253.905617 221.636027 
L 254.017623 221.663372 
L 254.129629 221.636028 
L 254.241635 221.66337 
L 254.353641 221.636029 
L 254.465647 221.663369 
L 254.577652 221.63603 
L 254.689658 221.663368 
L 254.801664 221.636032 
L 254.91367 221.663367 
L 255.025676 221.636033 
L 255.137681 221.663365 
L 255.249687 221.636034 
L 255.361693 221.663364 
L 255.473699 221.636036 
L 255.585705 221.663363 
L 255.697711 221.636037 
L 255.809716 221.663361 
L 255.921722 221.636038 
L 256.033728 221.66336 
L 256.145734 221.636039 
L 256.25774 221.663359 
L 256.369745 221.636041 
L 256.481751 221.663358 
L 256.593757 221.636042 
L 256.705763 221.663356 
L 256.817769 221.636043 
L 256.929775 221.663355 
L 257.04178 221.636044 
L 257.153786 221.663354 
L 257.265792 221.636046 
L 257.377798 221.663352 
L 257.489804 221.636047 
L 257.601809 221.663351 
L 257.713815 221.636048 
L 257.825821 221.66335 
L 257.937827 221.63605 
L 258.049833 221.663349 
L 258.161839 221.636051 
L 258.273844 221.663347 
L 258.38585 221.636052 
L 258.497856 221.663346 
L 258.609862 221.636053 
L 258.721868 221.663345 
L 258.833873 221.636055 
L 258.945879 221.663343 
L 259.057885 221.636056 
L 259.169891 221.663342 
L 259.281897 221.636057 
L 259.393903 221.663341 
L 259.505908 221.636058 
L 259.617914 221.66334 
L 259.72992 221.63606 
L 259.841926 221.663338 
L 259.953932 221.636061 
L 260.065937 221.663337 
L 260.177943 221.636062 
L 260.289949 221.663336 
L 260.401955 221.636064 
L 260.513961 221.663335 
L 260.625967 221.636065 
L 260.737972 221.663333 
L 260.849978 221.636066 
L 260.961984 221.663332 
L 261.07399 221.636067 
L 261.185996 221.663331 
L 261.298001 221.636069 
L 261.410007 221.663329 
L 261.522013 221.63607 
L 261.634019 221.663328 
L 261.746025 221.636071 
L 261.858031 221.663327 
L 261.970036 221.636072 
L 262.082042 221.663326 
L 262.194048 221.636074 
L 262.306054 221.663324 
L 262.41806 221.636075 
L 262.530065 221.663323 
L 262.642071 221.636076 
L 262.754077 221.663322 
L 262.866083 221.636078 
L 262.978089 221.663321 
L 263.090095 221.636079 
L 263.2021 221.663319 
L 263.314106 221.63608 
L 263.426112 221.663318 
L 263.538118 221.636081 
L 263.650124 221.663317 
L 263.762129 221.636083 
L 263.874135 221.663315 
L 263.986141 221.636084 
L 264.098147 221.663314 
L 264.210153 221.636085 
L 264.322159 221.663313 
L 264.434164 221.636086 
L 264.54617 221.663312 
L 264.658176 221.636088 
L 264.770182 221.66331 
L 264.882188 221.636089 
L 264.994193 221.663309 
L 265.106199 221.63609 
L 265.218205 221.663308 
L 265.330211 221.636091 
L 265.442217 221.663306 
L 265.554223 221.636093 
L 265.666228 221.663305 
L 265.778234 221.636094 
L 265.89024 221.663304 
L 266.002246 221.636095 
L 266.114252 221.663303 
L 266.226257 221.636097 
L 266.338263 221.663301 
L 266.450269 221.636098 
L 266.562275 221.6633 
L 266.674281 221.636099 
L 266.786287 221.663299 
L 266.898292 221.6361 
L 267.010298 221.663298 
L 267.122304 221.636102 
L 267.23431 221.663296 
L 267.346316 221.636103 
L 267.458321 221.663295 
L 267.570327 221.636104 
L 267.682333 221.663294 
L 267.794339 221.636105 
L 267.906345 221.663292 
L 268.018351 221.636107 
L 268.130356 221.663291 
L 268.242362 221.636108 
L 268.354368 221.66329 
L 268.466374 221.636109 
L 268.57838 221.663289 
L 268.690385 221.636111 
L 268.802391 221.663287 
L 268.914397 221.636112 
L 269.026403 221.663286 
L 269.138409 221.636113 
L 269.250415 221.663285 
L 269.36242 221.636114 
L 269.474426 221.663284 
L 269.586432 221.636116 
L 269.698438 221.663282 
L 269.810444 221.636117 
L 269.922449 221.663281 
L 270.034455 221.636118 
L 270.146461 221.66328 
L 270.258467 221.636119 
L 270.370473 221.663278 
L 270.482479 221.636121 
L 270.594484 221.663277 
L 270.70649 221.636122 
L 270.818496 221.663276 
L 270.930502 221.636123 
L 271.042508 221.663275 
L 271.154513 221.636124 
L 271.266519 221.663273 
L 271.378525 221.636126 
L 271.490531 221.663272 
L 271.602537 221.636127 
L 271.714543 221.663271 
L 271.826548 221.636128 
L 271.938554 221.66327 
L 272.05056 221.63613 
L 272.162566 221.663268 
L 272.274572 221.636131 
L 272.386577 221.663267 
L 272.498583 221.636132 
L 272.610589 221.663266 
L 272.722595 221.636133 
L 272.834601 221.663265 
L 272.946607 221.636135 
L 273.058612 221.663263 
L 273.170618 221.636136 
L 273.282624 221.663262 
L 273.39463 221.636137 
L 273.506636 221.663261 
L 273.618641 221.636138 
L 273.730647 221.663259 
L 273.842653 221.63614 
L 273.954659 221.663258 
L 274.066665 221.636141 
L 274.178671 221.663257 
L 274.290676 221.636142 
L 274.402682 221.663256 
L 274.514688 221.636143 
L 274.626694 221.663254 
L 274.7387 221.636145 
L 274.850705 221.663253 
L 274.962711 221.636146 
L 275.074717 221.663252 
L 275.186723 221.636147 
L 275.298729 221.663251 
L 275.410735 221.636148 
L 275.52274 221.663249 
L 275.634746 221.63615 
L 275.746752 221.663248 
L 275.858758 221.636151 
L 275.970764 221.663247 
L 276.082769 221.636152 
L 276.194775 221.663245 
L 276.306781 221.636154 
L 276.418787 221.663244 
L 276.530793 221.636155 
L 276.642799 221.663243 
L 276.754804 221.636156 
L 276.86681 221.663242 
L 276.978816 221.636157 
L 277.090822 221.66324 
L 277.202828 221.636159 
L 277.314833 221.663239 
L 277.426839 221.63616 
L 277.538845 221.663238 
L 277.650851 221.636161 
L 277.762857 221.663237 
L 277.874863 221.636162 
L 277.986868 221.663235 
L 278.098874 221.636164 
L 278.21088 221.663234 
L 278.322886 221.636165 
L 278.434892 221.663233 
L 278.546897 221.636166 
L 278.658903 221.663232 
L 278.770909 221.636167 
L 278.882915 221.66323 
L 278.994921 221.636169 
L 279.106927 221.663229 
L 279.218932 221.63617 
L 279.330938 221.663228 
L 279.442944 221.636171 
L 279.55495 221.663226 
L 279.666956 221.636172 
L 279.778961 221.663225 
L 279.890967 221.636174 
L 280.002973 221.663224 
L 280.114979 221.636175 
L 280.226985 221.663223 
L 280.338991 221.636176 
L 280.450996 221.663221 
L 280.563002 221.636178 
L 280.675008 221.66322 
L 280.787014 221.636179 
L 280.89902 221.663219 
L 281.011025 221.63618 
L 281.123031 221.663218 
L 281.235037 221.636181 
L 281.347043 221.663216 
L 281.459049 221.636183 
L 281.571055 221.663215 
L 281.68306 221.636184 
L 281.795066 221.663214 
L 281.907072 221.636185 
L 282.019078 221.663213 
L 282.131084 221.636186 
L 282.243089 221.663211 
L 282.355095 221.636188 
L 282.467101 221.66321 
L 282.579107 221.636189 
L 282.691113 221.663209 
L 282.803119 221.63619 
L 282.915124 221.663207 
L 283.02713 221.636191 
L 283.139136 221.663206 
L 283.251142 221.636193 
L 283.363148 221.663205 
L 283.475153 221.636194 
L 283.587159 221.663204 
L 283.699165 221.636195 
L 283.811171 221.663202 
L 283.923177 221.636196 
L 284.035183 221.663201 
L 284.147188 221.636198 
L 284.259194 221.6632 
L 284.3712 221.636199 
L 284.483206 221.663199 
L 284.595212 221.6362 
L 284.707217 221.663197 
L 284.819223 221.636201 
L 284.931229 221.663196 
L 285.043235 221.636203 
L 285.155241 221.663195 
L 285.267247 221.636204 
L 285.379252 221.663194 
L 285.491258 221.636205 
L 285.603264 221.663192 
L 285.71527 221.636207 
L 285.827276 221.663191 
L 285.939281 221.636208 
L 286.051287 221.66319 
L 286.163293 221.636209 
L 286.275299 221.663189 
L 286.387305 221.63621 
L 286.499311 221.663187 
L 286.611316 221.636212 
L 286.723322 221.663186 
L 286.835328 221.636213 
L 286.947334 221.663185 
L 287.05934 221.636214 
L 287.171345 221.663183 
L 287.283351 221.636215 
L 287.395357 221.663182 
L 287.507363 221.636217 
L 287.619369 221.663181 
L 287.731375 221.636218 
L 287.84338 221.66318 
L 287.955386 221.636219 
L 288.067392 221.663178 
L 288.179398 221.63622 
L 288.291404 221.663177 
L 288.403409 221.636222 
L 288.515415 221.663176 
L 288.627421 221.636223 
L 288.739427 221.663175 
L 288.851433 221.636224 
L 288.963439 221.663173 
L 289.075444 221.636225 
L 289.18745 221.663172 
L 289.299456 221.636227 
L 289.411462 221.663171 
L 289.523468 221.636228 
L 289.635473 221.66317 
L 289.747479 221.636229 
L 289.859485 221.663168 
L 289.971491 221.63623 
L 290.083497 221.663167 
L 290.195503 221.636232 
L 290.307508 221.663166 
L 290.419514 221.636233 
L 290.53152 221.663165 
L 290.643526 221.636234 
L 290.755532 221.663163 
L 290.867537 221.636235 
L 290.979543 221.663162 
L 291.091549 221.636237 
L 291.203555 221.663161 
L 291.315561 221.636238 
L 291.427567 221.663159 
L 291.539572 221.636239 
L 291.651578 221.663158 
L 291.763584 221.63624 
L 291.87559 221.663157 
L 291.987596 221.636242 
L 292.099601 221.663156 
L 292.211607 221.636243 
L 292.323613 221.663154 
L 292.435619 221.636244 
L 292.547625 221.663153 
L 292.659631 221.636245 
L 292.771636 221.663152 
L 292.883642 221.636247 
L 292.995648 221.663151 
L 293.107654 221.636248 
L 293.21966 221.663149 
L 293.331665 221.636249 
L 293.443671 221.663148 
L 293.555677 221.636251 
L 293.667683 221.663147 
L 293.779689 221.636252 
L 293.891695 221.663146 
L 294.0037 221.636253 
L 294.115706 221.663144 
L 294.227712 221.636254 
L 294.339718 221.663143 
L 294.451724 221.636256 
L 294.563729 221.663142 
L 294.675735 221.636257 
L 294.787741 221.663141 
L 294.899747 221.636258 
L 295.011753 221.663139 
L 295.123759 221.636259 
L 295.235764 221.663138 
L 295.34777 221.636261 
L 295.459776 221.663137 
L 295.571782 221.636262 
L 295.683788 221.663136 
L 295.795793 221.636263 
L 295.907799 221.663134 
L 296.019805 221.636264 
L 296.131811 221.663133 
L 296.243817 221.636266 
L 296.355823 221.663132 
L 296.467828 221.636267 
L 296.579834 221.663131 
L 296.69184 221.636268 
L 296.803846 221.663129 
L 296.915852 221.636269 
L 297.027857 221.663128 
L 297.139863 221.636271 
L 297.251869 221.663127 
L 297.363875 221.636272 
L 297.475881 221.663125 
L 297.587887 221.636273 
L 297.699892 221.663124 
L 297.811898 221.636274 
L 297.923904 221.663123 
L 298.03591 221.636276 
L 298.147916 221.663122 
L 298.259921 221.636277 
L 298.371927 221.66312 
L 298.483933 221.636278 
L 298.595939 221.663119 
L 298.707945 221.636279 
L 298.819951 221.663118 
L 298.931956 221.636281 
L 299.043962 221.663117 
L 299.155968 221.636282 
L 299.267974 221.663115 
L 299.37998 221.636283 
L 299.491985 221.663114 
L 299.603991 221.636284 
L 299.715997 221.663113 
L 299.828003 221.636286 
L 299.940009 221.663112 
L 300.052015 221.636287 
L 300.16402 221.66311 
L 300.276026 221.636288 
L 300.388032 221.663109 
L 300.500038 221.636289 
L 300.612044 221.663108 
L 300.724049 221.636291 
L 300.836055 221.663107 
L 300.948061 221.636292 
L 301.060067 221.663105 
L 301.172073 221.636293 
L 301.284079 221.663104 
L 301.396084 221.636294 
L 301.50809 221.663103 
L 301.620096 221.636296 
L 301.732102 221.663102 
L 301.844108 221.636297 
L 301.956113 221.6631 
L 302.068119 221.636298 
L 302.180125 221.663099 
L 302.292131 221.636299 
L 302.404137 221.663098 
L 302.516143 221.636301 
L 302.628148 221.663097 
L 302.740154 221.636302 
L 302.85216 221.663095 
L 302.964166 221.636303 
L 303.076172 221.663094 
L 303.188177 221.636304 
L 303.300183 221.663093 
L 303.412189 221.636306 
L 303.524195 221.663092 
L 303.636201 221.636307 
L 303.748207 221.66309 
L 303.860212 221.636308 
L 303.972218 221.663089 
L 304.084224 221.636309 
L 304.19623 221.663088 
L 304.308236 221.636311 
L 304.420241 221.663087 
L 304.532247 221.636312 
L 304.644253 221.663085 
L 304.756259 221.636313 
L 304.868265 221.663084 
L 304.980271 221.636314 
L 305.092276 221.663083 
L 305.204282 221.636316 
L 305.316288 221.663082 
L 305.428294 221.636317 
L 305.5403 221.66308 
L 305.652305 221.636318 
L 305.764311 221.663079 
L 305.876317 221.636319 
L 305.988323 221.663078 
L 306.100329 221.636321 
L 306.212335 221.663077 
L 306.32434 221.636322 
L 306.436346 221.663075 
L 306.548352 221.636323 
L 306.660358 221.663074 
L 306.772364 221.636324 
L 306.884369 221.663073 
L 306.996375 221.636326 
L 307.108381 221.663072 
L 307.220387 221.636327 
L 307.332393 221.66307 
L 307.444399 221.636328 
L 307.556404 221.663069 
L 307.66841 221.636329 
L 307.780416 221.663068 
L 307.892422 221.636331 
L 308.004428 221.663067 
L 308.116433 221.636332 
L 308.228439 221.663065 
L 308.340445 221.636333 
L 308.452451 221.663064 
L 308.564457 221.636334 
L 308.676463 221.663063 
L 308.788468 221.636336 
L 308.900474 221.663062 
L 309.01248 221.636337 
L 309.124486 221.66306 
L 309.236492 221.636338 
L 309.348497 221.663059 
L 309.460503 221.636339 
L 309.572509 221.663058 
L 309.684515 221.636341 
L 309.796521 221.663057 
L 309.908527 221.636342 
L 310.020532 221.663055 
L 310.132538 221.636343 
L 310.244544 221.663054 
L 310.35655 221.636344 
L 310.468556 221.663053 
L 310.580561 221.636346 
L 310.692567 221.663052 
L 310.804573 221.636347 
L 310.916579 221.66305 
L 311.028585 221.636348 
L 311.140591 221.663049 
L 311.252596 221.636349 
L 311.364602 221.663048 
L 311.476608 221.636351 
L 311.588614 221.663047 
L 311.70062 221.636352 
L 311.812625 221.663045 
L 311.924631 221.636353 
L 312.036637 221.663044 
L 312.148643 221.636354 
L 312.260649 221.663043 
L 312.372655 221.636355 
L 312.48466 221.663042 
L 312.596666 221.636357 
L 312.708672 221.66304 
L 312.820678 221.636358 
L 312.932684 221.663039 
L 313.044689 221.636359 
L 313.156695 221.663038 
L 313.268701 221.63636 
L 313.380707 221.663037 
L 313.492713 221.636362 
L 313.604719 221.663035 
L 313.716724 221.636363 
L 313.82873 221.663034 
L 313.940736 221.636364 
L 314.052742 221.663033 
L 314.164748 221.636365 
L 314.276753 221.663032 
L 314.388759 221.636367 
L 314.500765 221.66303 
L 314.612771 221.636368 
L 314.724777 221.663029 
L 314.836783 221.636369 
L 314.948788 221.663028 
L 315.060794 221.63637 
L 315.1728 221.663027 
L 315.284806 221.636372 
L 315.396812 221.663025 
L 315.508817 221.636373 
L 315.620823 221.663024 
L 315.732829 221.636374 
L 315.844835 221.663023 
L 315.956841 221.636375 
L 316.068847 221.663022 
L 316.180852 221.636377 
L 316.292858 221.66302 
L 316.404864 221.636378 
L 316.51687 221.663019 
L 316.628876 221.636379 
L 316.740881 221.663018 
L 316.852887 221.63638 
L 316.964893 221.663017 
L 317.076899 221.636382 
L 317.188905 221.663015 
L 317.300911 221.636383 
L 317.412916 221.663014 
L 317.524922 221.636384 
L 317.636928 221.663013 
L 317.748934 221.636385 
L 317.86094 221.663012 
L 317.972945 221.636387 
L 318.084951 221.66301 
L 318.196957 221.636388 
L 318.308963 221.663009 
L 318.420969 221.636389 
L 318.532975 221.663008 
L 318.64498 221.63639 
L 318.756986 221.663007 
L 318.868992 221.636392 
L 318.980998 221.663005 
L 319.093004 221.636393 
L 319.205009 221.663004 
L 319.317015 221.636394 
L 319.429021 221.663003 
L 319.541027 221.636395 
L 319.653033 221.663002 
L 319.765039 221.636397 
L 319.877044 221.663 
L 319.98905 221.636398 
L 320.101056 221.662999 
L 320.213062 221.636399 
L 320.325068 221.662998 
L 320.437073 221.6364 
L 320.549079 221.662997 
L 320.661085 221.636401 
L 320.773091 221.662995 
L 320.885097 221.636403 
L 320.997103 221.662994 
L 321.109108 221.636404 
L 321.221114 221.662993 
L 321.33312 221.636405 
L 321.445126 221.662992 
L 321.557132 221.636406 
L 321.669137 221.66299 
L 321.781143 221.636408 
L 321.893149 221.662989 
L 322.005155 221.636409 
L 322.117161 221.662988 
L 322.229167 221.63641 
L 322.341172 221.662987 
L 322.453178 221.636411 
L 322.565184 221.662985 
L 322.67719 221.636413 
L 322.789196 221.662984 
L 322.901201 221.636414 
L 323.013207 221.662983 
L 323.125213 221.636415 
L 323.237219 221.662982 
L 323.349225 221.636416 
L 323.461231 221.66298 
L 323.573236 221.636418 
L 323.685242 221.662979 
L 323.797248 221.636419 
L 323.909254 221.662978 
L 324.02126 221.63642 
L 324.133265 221.662977 
L 324.245271 221.636421 
L 324.357277 221.662975 
L 324.469283 221.636423 
L 324.581289 221.662974 
L 324.693295 221.636424 
L 324.8053 221.662973 
L 324.917306 221.636425 
L 325.029312 221.662972 
L 325.141318 221.636426 
L 325.253324 221.66297 
L 325.365329 221.636428 
L 325.477335 221.662969 
L 325.589341 221.636429 
L 325.701347 221.662968 
L 325.813353 221.63643 
L 325.925359 221.662967 
L 326.037364 221.636431 
L 326.14937 221.662966 
L 326.261376 221.636432 
L 326.373382 221.662964 
L 326.485388 221.636434 
L 326.597393 221.662963 
L 326.709399 221.636435 
L 326.821405 221.662962 
L 326.933411 221.636436 
L 327.045417 221.662961 
L 327.157423 221.636437 
L 327.269428 221.662959 
L 327.381434 221.636439 
L 327.49344 221.662958 
L 327.605446 221.63644 
L 327.717452 221.662957 
L 327.829457 221.636441 
L 327.941463 221.662956 
L 328.053469 221.636442 
L 328.165475 221.662954 
L 328.277481 221.636444 
L 328.389487 221.662953 
L 328.501492 221.636445 
L 328.613498 221.662952 
L 328.725504 221.636446 
L 328.83751 221.662951 
L 328.949516 221.636447 
L 329.061521 221.662949 
L 329.173527 221.636449 
L 329.285533 221.662948 
L 329.397539 221.63645 
L 329.509545 221.662947 
L 329.621551 221.636451 
L 329.733556 221.662946 
L 329.845562 221.636452 
L 329.957568 221.662944 
L 330.069574 221.636453 
L 330.18158 221.662943 
L 330.293585 221.636455 
L 330.405591 221.662942 
L 330.517597 221.636456 
L 330.629603 221.662941 
L 330.741609 221.636457 
L 330.853615 221.662939 
L 330.96562 221.636458 
L 331.077626 221.662938 
L 331.189632 221.63646 
L 331.301638 221.662937 
L 331.413644 221.636461 
L 331.525649 221.662936 
L 331.637655 221.636462 
L 331.749661 221.662935 
L 331.861667 221.636463 
L 331.973673 221.662933 
L 332.085679 221.636465 
L 332.197684 221.662932 
L 332.30969 221.636466 
L 332.421696 221.662931 
L 332.533702 221.636467 
L 332.645708 221.66293 
L 332.757713 221.636468 
L 332.869719 221.662928 
L 332.981725 221.63647 
L 333.093731 221.662927 
L 333.205737 221.636471 
L 333.317743 221.662926 
L 333.429748 221.636472 
L 333.541754 221.662925 
L 333.65376 221.636473 
L 333.765766 221.662923 
L 333.877772 221.636474 
L 333.989777 221.662922 
L 334.101783 221.636476 
L 334.213789 221.662921 
L 334.325795 221.636477 
L 334.437801 221.66292 
L 334.549807 221.636478 
L 334.661812 221.662918 
L 334.773818 221.636479 
L 334.885824 221.662917 
L 334.99783 221.636481 
L 335.109836 221.662916 
L 335.221841 221.636482 
L 335.333847 221.662915 
L 335.445853 221.636483 
L 335.557859 221.662913 
L 335.669865 221.636484 
L 335.781871 221.662912 
L 335.893876 221.636486 
L 336.005882 221.662911 
L 336.117888 221.636487 
L 336.229894 221.66291 
L 336.3419 221.636488 
L 336.453905 221.662909 
L 336.565911 221.636489 
L 336.677917 221.662907 
L 336.789923 221.636491 
L 336.901929 221.662906 
L 337.013935 221.636492 
L 337.12594 221.662905 
L 337.237946 221.636493 
L 337.349952 221.662904 
L 337.461958 221.636494 
L 337.573964 221.662902 
L 337.685969 221.636495 
L 337.797975 221.662901 
L 337.909981 221.636497 
L 338.021987 221.6629 
L 338.133993 221.636498 
L 338.245999 221.662899 
L 338.358004 221.636499 
L 338.47001 221.662897 
L 338.582016 221.6365 
L 338.694022 221.662896 
L 338.806028 221.636502 
L 338.918033 221.662895 
L 339.030039 221.636503 
L 339.142045 221.662894 
L 339.254051 221.636504 
L 339.366057 221.662892 
L 339.478063 221.636505 
L 339.590068 221.662891 
L 339.702074 221.636507 
L 339.81408 221.66289 
L 339.926086 221.636508 
L 340.038092 221.662889 
L 340.150097 221.636509 
L 340.262103 221.662887 
L 340.374109 221.63651 
L 340.486115 221.662886 
L 340.598121 221.636511 
L 340.710127 221.662885 
L 340.822132 221.636513 
L 340.934138 221.662884 
L 341.046144 221.636514 
L 341.15815 221.662883 
L 341.270156 221.636515 
L 341.382161 221.662881 
L 341.494167 221.636516 
L 341.606173 221.66288 
L 341.718179 221.636518 
L 341.830185 221.662879 
L 341.942191 221.636519 
L 342.054196 221.662878 
L 342.166202 221.63652 
L 342.278208 221.662876 
L 342.390214 221.636521 
L 342.50222 221.662875 
L 342.614225 221.636523 
L 342.726231 221.662874 
L 342.838237 221.636524 
L 342.950243 221.662873 
L 343.062249 221.636525 
L 343.174255 221.662871 
L 343.28626 221.636526 
L 343.398266 221.66287 
L 343.510272 221.636527 
L 343.622278 221.662869 
L 343.734284 221.636529 
L 343.846289 221.662868 
L 343.958295 221.63653 
L 344.070301 221.662867 
L 344.182307 221.636531 
L 344.294313 221.662865 
L 344.406319 221.636532 
L 344.518324 221.662864 
L 344.63033 221.636534 
L 344.742336 221.662863 
L 344.854342 221.636535 
L 344.966348 221.662862 
L 345.078353 221.636536 
L 345.190359 221.66286 
L 345.302365 221.636537 
L 345.414371 221.662859 
L 345.526377 221.636538 
L 345.638383 221.662858 
L 345.750388 221.63654 
L 345.862394 221.662857 
L 345.9744 221.636541 
L 346.086406 221.662855 
L 346.198412 221.636542 
L 346.310417 221.662854 
L 346.422423 221.636543 
L 346.534429 221.662853 
L 346.646435 221.636545 
L 346.758441 221.662852 
L 346.870447 221.636546 
L 346.982452 221.66285 
L 347.094458 221.636547 
L 347.206464 221.662849 
L 347.31847 221.636548 
L 347.430476 221.662848 
L 347.542481 221.63655 
L 347.654487 221.662847 
L 347.766493 221.636551 
L 347.878499 221.662846 
L 347.990505 221.636552 
L 348.102511 221.662844 
L 348.214516 221.636553 
L 348.326522 221.662843 
L 348.438528 221.636554 
L 348.550534 221.662842 
L 348.66254 221.636556 
L 348.774545 221.662841 
L 348.886551 221.636557 
L 348.998557 221.662839 
L 349.110563 221.636558 
L 349.222569 221.662838 
L 349.334575 221.636559 
L 349.44658 221.662837 
L 349.558586 221.636561 
L 349.670592 221.662836 
L 349.782598 221.636562 
L 349.894604 221.662834 
L 350.006609 221.636563 
L 350.118615 221.662833 
L 350.230621 221.636564 
L 350.342627 221.662832 
L 350.454633 221.636565 
L 350.566639 221.662831 
L 350.678644 221.636567 
L 350.79065 221.66283 
L 350.902656 221.636568 
L 351.014662 221.662828 
L 351.126668 221.636569 
L 351.238673 221.662827 
L 351.350679 221.63657 
L 351.462685 221.662826 
L 351.574691 221.636572 
L 351.686697 221.662825 
L 351.798703 221.636573 
L 351.910708 221.662823 
L 352.022714 221.636574 
L 352.13472 221.662822 
L 352.246726 221.636575 
L 352.358732 221.662821 
L 352.470737 221.636576 
L 352.582743 221.66282 
L 352.694749 221.636578 
L 352.806755 221.662819 
L 352.918761 221.636579 
L 353.030767 221.662817 
L 353.142772 221.63658 
L 353.254778 221.662816 
L 353.366784 221.636581 
L 353.47879 221.662815 
L 353.590796 221.636583 
L 353.702801 221.662814 
L 353.814807 221.636584 
L 353.926813 221.662812 
L 354.038819 221.636585 
L 354.150825 221.662811 
L 354.262831 221.636586 
L 354.374836 221.66281 
L 354.486842 221.636587 
L 354.598848 221.662809 
L 354.710854 221.636589 
L 354.82286 221.662807 
L 354.934865 221.63659 
L 355.046871 221.662806 
L 355.158877 221.636591 
L 355.270883 221.662805 
L 355.382889 221.636592 
L 355.494895 221.662804 
L 355.6069 221.636594 
L 355.718906 221.662803 
L 355.830912 221.636595 
L 355.942918 221.662801 
L 356.054924 221.636596 
L 356.166929 221.6628 
L 356.278935 221.636597 
L 356.390941 221.662799 
L 356.502947 221.636599 
L 356.614953 221.662798 
L 356.726959 221.6366 
L 356.838964 221.662796 
L 356.95097 221.636601 
L 357.062976 221.662795 
L 357.174982 221.636602 
L 357.286988 221.662794 
L 357.398993 221.636603 
L 357.510999 221.662793 
L 357.623005 221.636605 
L 357.735011 221.662792 
L 357.847017 221.636606 
L 357.959023 221.66279 
L 358.071028 221.636607 
L 358.183034 221.662789 
L 358.29504 221.636608 
L 358.407046 221.662788 
L 358.519052 221.636609 
L 358.631057 221.662787 
L 358.743063 221.636611 
L 358.855069 221.662785 
L 358.967075 221.636612 
L 359.079081 221.662784 
L 359.191087 221.636613 
L 359.303092 221.662783 
L 359.415098 221.636614 
L 359.527104 221.662782 
L 359.63911 221.636616 
L 359.751116 221.66278 
L 359.863121 221.636617 
L 359.975127 221.662779 
L 360.087133 221.636618 
L 360.199139 221.662778 
L 360.311145 221.636619 
L 360.423151 221.662777 
L 360.535156 221.63662 
L 360.647162 221.662776 
L 360.759168 221.636622 
L 360.871174 221.662774 
L 360.98318 221.636623 
L 361.095185 221.662773 
L 361.207191 221.636624 
L 361.319197 221.662772 
L 361.431203 221.636625 
L 361.543209 221.662771 
L 361.655215 221.636627 
L 361.76722 221.662769 
L 361.879226 221.636628 
L 361.991232 221.662768 
L 362.103238 221.636629 
L 362.215244 221.662767 
L 362.327249 221.63663 
L 362.439255 221.662766 
L 362.551261 221.636631 
L 362.663267 221.662765 
L 362.775273 221.636633 
L 362.887279 221.662763 
L 362.999284 221.636634 
L 363.11129 221.662762 
L 363.223296 221.636635 
L 363.335302 221.662761 
L 363.447308 221.636636 
L 363.559313 221.66276 
L 363.671319 221.636638 
L 363.783325 221.662758 
L 363.895331 221.636639 
L 364.007337 221.662757 
L 364.119343 221.63664 
L 364.231348 221.662756 
L 364.343354 221.636641 
L 364.45536 221.662755 
L 364.567366 221.636642 
L 364.679372 221.662754 
L 364.791377 221.636644 
L 364.903383 221.662752 
L 365.015389 221.636645 
L 365.127395 221.662751 
L 365.239401 221.636646 
L 365.351407 221.66275 
L 365.463412 221.636647 
L 365.575418 221.662749 
L 365.687424 221.636649 
L 365.79943 221.662747 
L 365.911436 221.63665 
L 366.023441 221.662746 
L 366.135447 221.636651 
L 366.247453 221.662745 
L 366.359459 221.636652 
L 366.471465 221.662744 
L 366.583471 221.636653 
L 366.695476 221.662743 
L 366.807482 221.636655 
L 366.919488 221.662741 
L 367.031494 221.636656 
L 367.1435 221.66274 
L 367.255505 221.636657 
L 367.367511 221.662739 
L 367.479517 221.636658 
L 367.591523 221.662738 
L 367.703529 221.636659 
L 367.815535 221.662736 
L 367.92754 221.636661 
L 368.039546 221.662735 
L 368.151552 221.636662 
L 368.263558 221.662734 
L 368.375564 221.636663 
L 368.487569 221.662733 
L 368.599575 221.636664 
L 368.711581 221.662732 
L 368.823587 221.636666 
L 368.935593 221.66273 
L 369.047599 221.636667 
L 369.159604 221.662729 
L 369.27161 221.636668 
L 369.383616 221.662728 
L 369.495622 221.636669 
L 369.607628 221.662727 
L 369.719633 221.63667 
L 369.831639 221.662725 
L 369.943645 221.636672 
L 370.055651 221.662724 
L 370.167657 221.636673 
L 370.279663 221.662723 
L 370.391668 221.636674 
L 370.503674 221.662722 
L 370.61568 221.636675 
L 370.727686 221.662721 
L 370.839692 221.636676 
L 370.951697 221.662719 
L 371.063703 221.636678 
L 371.175709 221.662718 
L 371.287715 221.636679 
L 371.399721 221.662717 
L 371.511727 221.63668 
L 371.623732 221.662716 
L 371.735738 221.636681 
L 371.847744 221.662715 
L 371.95975 221.636683 
L 372.071756 221.662713 
L 372.183761 221.636684 
L 372.295767 221.662712 
L 372.407773 221.636685 
L 372.519779 221.662711 
L 372.631785 221.636686 
L 372.743791 221.66271 
L 372.855796 221.636687 
L 372.967802 221.662708 
L 373.079808 221.636689 
L 373.191814 221.662707 
L 373.30382 221.63669 
L 373.415825 221.662706 
L 373.527831 221.636691 
L 373.639837 221.662705 
L 373.751843 221.636692 
L 373.863849 221.662704 
L 373.975855 221.636693 
L 374.08786 221.662702 
L 374.199866 221.636695 
L 374.311872 221.662701 
L 374.423878 221.636696 
L 374.535884 221.6627 
L 374.647889 221.636697 
L 374.759895 221.662699 
L 374.871901 221.636698 
L 374.983907 221.662697 
L 375.095913 221.6367 
L 375.207919 221.662696 
L 375.319924 221.636701 
L 375.43193 221.662695 
L 375.543936 221.636702 
L 375.655942 221.662694 
L 375.767948 221.636703 
L 375.879953 221.662693 
L 375.991959 221.636704 
L 376.103965 221.662691 
L 376.215971 221.636706 
L 376.327977 221.66269 
L 376.439983 221.636707 
L 376.551988 221.662689 
L 376.663994 221.636708 
L 376.776 221.662688 
L 376.888006 221.636709 
L 377.000012 221.662687 
L 377.112017 221.63671 
L 377.224023 221.662685 
L 377.336029 221.636712 
L 377.448035 221.662684 
L 377.560041 221.636713 
L 377.672047 221.662683 
L 377.784052 221.636714 
L 377.896058 221.662682 
L 378.008064 221.636715 
L 378.12007 221.66268 
L 378.232076 221.636717 
L 378.344081 221.662679 
L 378.456087 221.636718 
L 378.568093 221.662678 
L 378.680099 221.636719 
L 378.792105 221.662677 
L 378.904111 221.63672 
L 379.016116 221.662676 
L 379.128122 221.636721 
L 379.240128 221.662674 
L 379.352134 221.636723 
L 379.46414 221.662673 
L 379.576145 221.636724 
L 379.688151 221.662672 
L 379.800157 221.636725 
L 379.912163 221.662671 
L 380.024169 221.636726 
L 380.136175 221.662669 
L 380.24818 221.636727 
L 380.360186 221.662668 
L 380.472192 221.636729 
L 380.584198 221.662667 
L 380.696204 221.63673 
L 380.808209 221.662666 
L 380.920215 221.636731 
L 381.032221 221.662665 
L 381.144227 221.636732 
L 381.256233 221.662663 
L 381.368239 221.636733 
L 381.480244 221.662662 
L 381.59225 221.636735 
L 381.704256 221.662661 
L 381.816262 221.636736 
L 381.928268 221.66266 
L 382.040273 221.636737 
L 382.152279 221.662659 
L 382.264285 221.636738 
L 382.376291 221.662657 
L 382.488297 221.63674 
L 382.600303 221.662656 
L 382.712308 221.636741 
L 382.824314 221.662655 
L 382.93632 221.636742 
L 383.048326 221.662654 
L 383.160332 221.636743 
L 383.272337 221.662653 
L 383.384343 221.636744 
L 383.496349 221.662651 
L 383.608355 221.636746 
L 383.720361 221.66265 
L 383.832367 221.636747 
L 383.944372 221.662649 
L 384.056378 221.636748 
L 384.168384 221.662648 
L 384.28039 221.636749 
L 384.392396 221.662646 
L 384.504401 221.63675 
L 384.616407 221.662645 
L 384.728413 221.636752 
L 384.840419 221.662644 
L 384.952425 221.636753 
L 385.064431 221.662643 
L 385.176436 221.636754 
L 385.288442 221.662642 
L 385.400448 221.636755 
L 385.512454 221.66264 
L 385.62446 221.636756 
L 385.736465 221.662639 
L 385.848471 221.636758 
L 385.960477 221.662638 
L 386.072483 221.636759 
L 386.184489 221.662637 
L 386.296495 221.63676 
L 386.4085 221.662636 
L 386.520506 221.636761 
L 386.632512 221.662634 
L 386.744518 221.636762 
L 386.856524 221.662633 
L 386.968529 221.636764 
L 387.080535 221.662632 
L 387.192541 221.636765 
L 387.304547 221.662631 
L 387.416553 221.636766 
L 387.528559 221.662629 
L 387.640564 221.636767 
L 387.75257 221.662628 
L 387.864576 221.636769 
L 387.976582 221.662627 
L 388.088588 221.63677 
L 388.200593 221.662626 
L 388.312599 221.636771 
L 388.424605 221.662625 
L 388.536611 221.636772 
L 388.648617 221.662623 
L 388.760623 221.636773 
L 388.872628 221.662622 
L 388.984634 221.636775 
L 389.09664 221.662621 
L 389.208646 221.636776 
L 389.320652 221.66262 
L 389.432657 221.636777 
L 389.544663 221.662619 
L 389.656669 221.636778 
L 389.768675 221.662617 
L 389.880681 221.636779 
L 389.992687 221.662616 
L 390.104692 221.636781 
L 390.216698 221.662615 
L 390.328704 221.636782 
L 390.44071 221.662614 
L 390.552716 221.636783 
L 390.664721 221.662613 
L 390.776727 221.636784 
L 390.888733 221.662611 
L 391.000739 221.636785 
L 391.112745 221.66261 
L 391.224751 221.636787 
L 391.336756 221.662609 
L 391.448762 221.636788 
L 391.560768 221.662608 
L 391.672774 221.636789 
L 391.78478 221.662606 
L 391.896785 221.63679 
L 392.008791 221.662605 
L 392.120797 221.636791 
L 392.232803 221.662604 
L 392.344809 221.636793 
L 392.456815 221.662603 
L 392.56882 221.636794 
L 392.680826 221.662602 
L 392.792832 221.636795 
L 392.904838 221.6626 
L 393.016844 221.636796 
L 393.128849 221.662599 
L 393.240855 221.636797 
L 393.352861 221.662598 
L 393.464867 221.636799 
L 393.576873 221.662597 
L 393.688879 221.6368 
L 393.800884 221.662596 
L 393.91289 221.636801 
L 394.024896 221.662594 
L 394.136902 221.636802 
L 394.248908 221.662593 
L 394.360913 221.636803 
L 394.472919 221.662592 
L 394.584925 221.636805 
L 394.696931 221.662591 
L 394.808937 221.636806 
L 394.920943 221.66259 
L 395.032948 221.636807 
L 395.144954 221.662588 
L 395.25696 221.636808 
L 395.368966 221.662587 
L 395.480972 221.636809 
L 395.592977 221.662586 
L 395.704983 221.636811 
L 395.816989 221.662585 
L 395.928995 221.636812 
L 396.041001 221.662584 
L 396.153007 221.636813 
L 396.265012 221.662582 
L 396.377018 221.636814 
L 396.489024 221.662581 
L 396.60103 221.636815 
L 396.713036 221.66258 
L 396.825041 221.636817 
L 396.937047 221.662579 
L 397.049053 221.636818 
L 397.161059 221.662578 
L 397.273065 221.636819 
L 397.385071 221.662576 
L 397.497076 221.63682 
L 397.609082 221.662575 
L 397.721088 221.636821 
L 397.833094 221.662574 
L 397.9451 221.636823 
L 398.057105 221.662573 
L 398.169111 221.636824 
L 398.281117 221.662571 
L 398.393123 221.636825 
L 398.485649 221.66257 
L 398.487273 221.636826 
" style="fill:none;stroke:#1f77b4;stroke-linecap:square;stroke-width:1.5;"/>
   </g>
   <g id="patch_3">
    <path d="M 57.6 307.584 
L 57.6 41.472 
" style="fill:none;stroke:#000000;stroke-linecap:square;stroke-linejoin:miter;stroke-width:0.8;"/>
   </g>
   <g id="patch_4">
    <path d="M 414.72 307.584 
L 414.72 41.472 
" style="fill:none;stroke:#000000;stroke-linecap:square;stroke-linejoin:miter;stroke-width:0.8;"/>
   </g>
   <g id="patch_5">
    <path d="M 57.6 307.584 
L 414.72 307.584 
" style="fill:none;stroke:#000000;stroke-linecap:square;stroke-linejoin:miter;stroke-width:0.8;"/>
   </g>
   <g id="patch_6">
    <path d="M 57.6 41.472 
L 414.72 41.472 
" style="fill:none;stroke:#000000;stroke-linecap:square;stroke-linejoin:miter;stroke-width:0.8;"/>
   </g>
  </g>
 </g>
 <defs>
  <clipPath id="p7c90f8852f">
   <rect height="266.112" width="357.12" x="57.6" y="41.472"/>
  </clipPath>
 </defs>
</svg>
