<?xml version="1.0" encoding="utf-8" standalone="no"?>
<!DOCTYPE svg PUBLIC "-//W3C//DTD SVG 1.1//EN"
  "http://www.w3.org/Graphics/SVG/1.1/DTD/svg11.dtd">
<!-- Created with matplotlib (https://matplotlib.org/) -->
<svg height="345.6pt" version="1.1" viewBox="0 0 460.8 345.6" width="460.8pt" xmlns="http://www.w3.org/2000/svg" xmlns:xlink="http://www.w3.org/1999/xlink">
 <metadata>
  <rdf:RDF xmlns:cc="http://creativecommons.org/ns#" xmlns:dc="http://purl.org/dc/elements/1.1/" xmlns:rdf="http://www.w3.org/1999/02/22-rdf-syntax-ns#">
   <cc:Work>
    <dc:type rdf:resource="http://purl.org/dc/dcmitype/StillImage"/>
    <dc:date>2020-07-27T11:10:59.101921</dc:date>
    <dc:format>image/svg+xml</dc:format>
    <dc:creator>
     <cc:Agent>
      <dc:title>Matplotlib v3.3.0, https://matplotlib.org/</dc:title>
     </cc:Agent>
    </dc:creator>
   </cc:Work>
  </rdf:RDF>
 </metadata>
 <defs>
  <style type="text/css">*{stroke-linecap:butt;stroke-linejoin:round;}</style>
 </defs>
 <g id="figure_1">
  <g id="patch_1">
   <path d="M 0 345.6 
L 460.8 345.6 
L 460.8 0 
L 0 0 
z
" style="fill:#ffffff;"/>
  </g>
  <g id="axes_1">
   <g id="patch_2">
    <path d="M 57.6 307.584 
L 414.72 307.584 
L 414.72 41.472 
L 57.6 41.472 
z
" style="fill:#ffffff;"/>
   </g>
   <g id="matplotlib.axis_1">
    <g id="xtick_1">
     <g id="line2d_1">
      <defs>
       <path d="M 0 0 
L 0 3.5 
" id="m3b1e4bfb6d" style="stroke:#000000;stroke-width:0.8;"/>
      </defs>
      <g>
       <use style="stroke:#000000;stroke-width:0.8;" x="73.832727" xlink:href="#m3b1e4bfb6d" y="307.584"/>
      </g>
     </g>
     <g id="text_1">
      <!-- $\mathdefault{0}$ -->
      <g transform="translate(71.34206 321.502498)scale(0.1 -0.1)">
       <defs>
        <path d="M 42 31.640625 
C 42 37.75 41.90625 48.125 37.703125 56.109375 
C 34 63.109375 28.09375 65.59375 22.90625 65.59375 
C 18.09375 65.59375 12 63.40625 8.203125 56.203125 
C 4.203125 48.71875 3.796875 39.4375 3.796875 31.640625 
C 3.796875 25.953125 3.90625 17.28125 7 9.671875 
C 11.296875 -0.609375 19 -2 22.90625 -2 
C 27.5 -2 34.5 -0.109375 38.59375 9.375 
C 41.59375 16.28125 42 24.359375 42 31.640625 
z
M 22.90625 -0.40625 
C 16.5 -0.40625 12.703125 5.078125 11.296875 12.6875 
C 10.203125 18.5625 10.203125 27.15625 10.203125 32.75 
C 10.203125 40.4375 10.203125 46.828125 11.5 52.921875 
C 13.40625 61.390625 19 64 22.90625 64 
C 27 64 32.296875 61.296875 34.203125 53.125 
C 35.5 47.4375 35.59375 40.734375 35.59375 32.75 
C 35.59375 26.25 35.59375 18.265625 34.40625 12.375 
C 32.296875 1.484375 26.40625 -0.40625 22.90625 -0.40625 
z
" id="CMR17-48"/>
       </defs>
       <use transform="scale(0.996264)" xlink:href="#CMR17-48"/>
      </g>
     </g>
    </g>
    <g id="xtick_2">
     <g id="line2d_2">
      <g>
       <use style="stroke:#000000;stroke-width:0.8;" x="114.414545" xlink:href="#m3b1e4bfb6d" y="307.584"/>
      </g>
     </g>
     <g id="text_2">
      <!-- $\mathdefault{25000}$ -->
      <g transform="translate(101.961207 321.502498)scale(0.1 -0.1)">
       <defs>
        <path d="M 41.703125 15.453125 
L 39.90625 15.453125 
C 38.90625 8.375 38.09375 7.171875 37.703125 6.5625 
C 37.203125 5.765625 30 5.765625 28.59375 5.765625 
L 9.40625 5.765625 
C 13 9.671875 20 16.75 28.5 24.953125 
C 34.59375 30.734375 41.703125 37.53125 41.703125 47.421875 
C 41.703125 59.21875 32.296875 66 21.796875 66 
C 10.796875 66 4.09375 56.3125 4.09375 47.34375 
C 4.09375 43.4375 7 42.9375 8.203125 42.9375 
C 9.203125 42.9375 12.203125 43.546875 12.203125 47.03125 
C 12.203125 50.109375 9.59375 51 8.203125 51 
C 7.59375 51 7 50.90625 6.59375 50.703125 
C 8.5 59.21875 14.296875 63.40625 20.40625 63.40625 
C 29.09375 63.40625 34.796875 56.515625 34.796875 47.421875 
C 34.796875 38.734375 29.703125 31.25 24 24.75 
L 4.09375 2.28125 
L 4.09375 0 
L 39.296875 0 
z
" id="CMR17-50"/>
        <path d="M 11.40625 57.6875 
C 12.40625 57.28125 16.5 56 20.703125 56 
C 30 56 35.09375 61.109375 38 64.0625 
C 38 64.953125 38 65.5 37.40625 65.5 
C 37.296875 65.5 37.09375 65.5 36.296875 65.046875 
C 32.796875 63.40625 28.703125 62.078125 23.703125 62.078125 
C 20.703125 62.078125 16.203125 62.484375 11.296875 64.671875 
C 10.203125 65.171875 10 65.171875 9.90625 65.171875 
C 9.40625 65.171875 9.296875 65.0625 9.296875 63.078125 
L 9.296875 34.421875 
C 9.296875 32.640625 9.296875 32.140625 10.296875 32.140625 
C 10.796875 32.140625 11 32.34375 11.5 33.03125 
C 14.703125 37.515625 19.09375 39.40625 24.09375 39.40625 
C 27.59375 39.40625 35.09375 37.21875 35.09375 20.140625 
C 35.09375 16.953125 35.09375 11.171875 32.09375 6.578125 
C 29.59375 2.484375 25.703125 0.390625 21.40625 0.390625 
C 14.796875 0.390625 8.09375 5 6.296875 12.71875 
C 6.703125 12.609375 7.5 12.421875 7.90625 12.421875 
C 9.203125 12.421875 11.703125 13.125 11.703125 16.21875 
C 11.703125 18.90625 9.796875 20 7.90625 20 
C 5.59375 20 4.09375 18.59375 4.09375 15.796875 
C 4.09375 7.09375 11 -2 21.59375 -2 
C 31.90625 -2 41.703125 6.875 41.703125 19.75 
C 41.703125 31.71875 33.90625 41 24.203125 41 
C 19.09375 41 14.796875 39.109375 11.40625 35.53125 
z
" id="CMR17-53"/>
       </defs>
       <use transform="scale(0.996264)" xlink:href="#CMR17-50"/>
       <use transform="translate(45.690477 0)scale(0.996264)" xlink:href="#CMR17-53"/>
       <use transform="translate(91.380954 0)scale(0.996264)" xlink:href="#CMR17-48"/>
       <use transform="translate(137.071431 0)scale(0.996264)" xlink:href="#CMR17-48"/>
       <use transform="translate(182.761908 0)scale(0.996264)" xlink:href="#CMR17-48"/>
      </g>
     </g>
    </g>
    <g id="xtick_3">
     <g id="line2d_3">
      <g>
       <use style="stroke:#000000;stroke-width:0.8;" x="154.996364" xlink:href="#m3b1e4bfb6d" y="307.584"/>
      </g>
     </g>
     <g id="text_3">
      <!-- $\mathdefault{50000}$ -->
      <g transform="translate(142.543026 321.502498)scale(0.1 -0.1)">
       <use transform="scale(0.996264)" xlink:href="#CMR17-53"/>
       <use transform="translate(45.690477 0)scale(0.996264)" xlink:href="#CMR17-48"/>
       <use transform="translate(91.380954 0)scale(0.996264)" xlink:href="#CMR17-48"/>
       <use transform="translate(137.071431 0)scale(0.996264)" xlink:href="#CMR17-48"/>
       <use transform="translate(182.761908 0)scale(0.996264)" xlink:href="#CMR17-48"/>
      </g>
     </g>
    </g>
    <g id="xtick_4">
     <g id="line2d_4">
      <g>
       <use style="stroke:#000000;stroke-width:0.8;" x="195.578182" xlink:href="#m3b1e4bfb6d" y="307.584"/>
      </g>
     </g>
     <g id="text_4">
      <!-- $\mathdefault{75000}$ -->
      <g transform="translate(183.124844 321.502498)scale(0.1 -0.1)">
       <defs>
        <path d="M 45.09375 61.578125 
L 45.09375 63.765625 
L 21.59375 63.765625 
C 9.90625 63.765625 9.703125 65.078125 9.296875 67 
L 7.5 67 
L 4.59375 48.34375 
L 6.40625 48.34375 
C 6.703125 50.234375 7.40625 55.3125 8.59375 57.203125 
C 9.203125 58 16.59375 58 18.296875 58 
L 40.296875 58 
L 29.203125 41.578125 
C 21.796875 30.53125 16.703125 15.609375 16.703125 2.578125 
C 16.703125 1.390625 16.703125 -2 20.296875 -2 
C 23.90625 -2 23.90625 1.390625 23.90625 2.671875 
L 23.90625 7.265625 
C 23.90625 23.5625 26.703125 34.3125 31.296875 41.1875 
z
" id="CMR17-55"/>
       </defs>
       <use transform="scale(0.996264)" xlink:href="#CMR17-55"/>
       <use transform="translate(45.690477 0)scale(0.996264)" xlink:href="#CMR17-53"/>
       <use transform="translate(91.380954 0)scale(0.996264)" xlink:href="#CMR17-48"/>
       <use transform="translate(137.071431 0)scale(0.996264)" xlink:href="#CMR17-48"/>
       <use transform="translate(182.761908 0)scale(0.996264)" xlink:href="#CMR17-48"/>
      </g>
     </g>
    </g>
    <g id="xtick_5">
     <g id="line2d_5">
      <g>
       <use style="stroke:#000000;stroke-width:0.8;" x="236.16" xlink:href="#m3b1e4bfb6d" y="307.584"/>
      </g>
     </g>
     <g id="text_5">
      <!-- $\mathdefault{100000}$ -->
      <g transform="translate(221.215994 321.502498)scale(0.1 -0.1)">
       <defs>
        <path d="M 26.59375 63.40625 
C 26.59375 65.5 26.5 65.5 25.09375 65.5 
C 21.203125 61.1875 15.296875 59.796875 9.703125 59.796875 
C 9.40625 59.796875 8.90625 59.796875 8.796875 59.5 
C 8.703125 59.296875 8.703125 59.09375 8.703125 57 
C 11.796875 57 17 57.59375 21 59.984375 
L 21 7.203125 
C 21 3.6875 20.796875 2.5 12.203125 2.5 
L 9.203125 2.5 
L 9.203125 0 
C 14 0 19 0 23.796875 0 
C 28.59375 0 33.59375 0 38.40625 0 
L 38.40625 2.5 
L 35.40625 2.5 
C 26.796875 2.5 26.59375 3.59375 26.59375 7.15625 
z
" id="CMR17-49"/>
       </defs>
       <use transform="scale(0.996264)" xlink:href="#CMR17-49"/>
       <use transform="translate(45.690477 0)scale(0.996264)" xlink:href="#CMR17-48"/>
       <use transform="translate(91.380954 0)scale(0.996264)" xlink:href="#CMR17-48"/>
       <use transform="translate(137.071431 0)scale(0.996264)" xlink:href="#CMR17-48"/>
       <use transform="translate(182.761908 0)scale(0.996264)" xlink:href="#CMR17-48"/>
       <use transform="translate(228.452386 0)scale(0.996264)" xlink:href="#CMR17-48"/>
      </g>
     </g>
    </g>
    <g id="xtick_6">
     <g id="line2d_6">
      <g>
       <use style="stroke:#000000;stroke-width:0.8;" x="276.741818" xlink:href="#m3b1e4bfb6d" y="307.584"/>
      </g>
     </g>
     <g id="text_6">
      <!-- $\mathdefault{125000}$ -->
      <g transform="translate(261.797812 321.502498)scale(0.1 -0.1)">
       <use transform="scale(0.996264)" xlink:href="#CMR17-49"/>
       <use transform="translate(45.690477 0)scale(0.996264)" xlink:href="#CMR17-50"/>
       <use transform="translate(91.380954 0)scale(0.996264)" xlink:href="#CMR17-53"/>
       <use transform="translate(137.071431 0)scale(0.996264)" xlink:href="#CMR17-48"/>
       <use transform="translate(182.761908 0)scale(0.996264)" xlink:href="#CMR17-48"/>
       <use transform="translate(228.452386 0)scale(0.996264)" xlink:href="#CMR17-48"/>
      </g>
     </g>
    </g>
    <g id="xtick_7">
     <g id="line2d_7">
      <g>
       <use style="stroke:#000000;stroke-width:0.8;" x="317.323636" xlink:href="#m3b1e4bfb6d" y="307.584"/>
      </g>
     </g>
     <g id="text_7">
      <!-- $\mathdefault{150000}$ -->
      <g transform="translate(302.379631 321.502498)scale(0.1 -0.1)">
       <use transform="scale(0.996264)" xlink:href="#CMR17-49"/>
       <use transform="translate(45.690477 0)scale(0.996264)" xlink:href="#CMR17-53"/>
       <use transform="translate(91.380954 0)scale(0.996264)" xlink:href="#CMR17-48"/>
       <use transform="translate(137.071431 0)scale(0.996264)" xlink:href="#CMR17-48"/>
       <use transform="translate(182.761908 0)scale(0.996264)" xlink:href="#CMR17-48"/>
       <use transform="translate(228.452386 0)scale(0.996264)" xlink:href="#CMR17-48"/>
      </g>
     </g>
    </g>
    <g id="xtick_8">
     <g id="line2d_8">
      <g>
       <use style="stroke:#000000;stroke-width:0.8;" x="357.905455" xlink:href="#m3b1e4bfb6d" y="307.584"/>
      </g>
     </g>
     <g id="text_8">
      <!-- $\mathdefault{175000}$ -->
      <g transform="translate(342.961449 321.502498)scale(0.1 -0.1)">
       <use transform="scale(0.996264)" xlink:href="#CMR17-49"/>
       <use transform="translate(45.690477 0)scale(0.996264)" xlink:href="#CMR17-55"/>
       <use transform="translate(91.380954 0)scale(0.996264)" xlink:href="#CMR17-53"/>
       <use transform="translate(137.071431 0)scale(0.996264)" xlink:href="#CMR17-48"/>
       <use transform="translate(182.761908 0)scale(0.996264)" xlink:href="#CMR17-48"/>
       <use transform="translate(228.452386 0)scale(0.996264)" xlink:href="#CMR17-48"/>
      </g>
     </g>
    </g>
    <g id="xtick_9">
     <g id="line2d_9">
      <g>
       <use style="stroke:#000000;stroke-width:0.8;" x="398.487273" xlink:href="#m3b1e4bfb6d" y="307.584"/>
      </g>
     </g>
     <g id="text_9">
      <!-- $\mathdefault{200000}$ -->
      <g transform="translate(383.543267 321.502498)scale(0.1 -0.1)">
       <use transform="scale(0.996264)" xlink:href="#CMR17-50"/>
       <use transform="translate(45.690477 0)scale(0.996264)" xlink:href="#CMR17-48"/>
       <use transform="translate(91.380954 0)scale(0.996264)" xlink:href="#CMR17-48"/>
       <use transform="translate(137.071431 0)scale(0.996264)" xlink:href="#CMR17-48"/>
       <use transform="translate(182.761908 0)scale(0.996264)" xlink:href="#CMR17-48"/>
       <use transform="translate(228.452386 0)scale(0.996264)" xlink:href="#CMR17-48"/>
      </g>
     </g>
    </g>
   </g>
   <g id="matplotlib.axis_2">
    <g id="ytick_1">
     <g id="line2d_10">
      <defs>
       <path d="M 0 0 
L -3.5 0 
" id="m615b114461" style="stroke:#000000;stroke-width:0.8;"/>
      </defs>
      <g>
       <use style="stroke:#000000;stroke-width:0.8;" x="57.6" xlink:href="#m615b114461" y="297.74419"/>
      </g>
     </g>
     <g id="text_10">
      <!-- $\mathdefault{0.00}$ -->
      <g transform="translate(32.888586 301.203439)scale(0.1 -0.1)">
       <defs>
        <path d="M 18.40625 4.796875 
C 18.40625 7.6875 16 9.671875 13.59375 9.671875 
C 10.703125 9.671875 8.703125 7.28125 8.703125 4.890625 
C 8.703125 2 11.09375 0 13.5 0 
C 16.40625 0 18.40625 2.390625 18.40625 4.796875 
z
" id="CMMI12-58"/>
       </defs>
       <use transform="scale(0.996264)" xlink:href="#CMR17-48"/>
       <use transform="translate(45.690477 0)scale(0.996264)" xlink:href="#CMMI12-58"/>
       <use transform="translate(72.787654 0)scale(0.996264)" xlink:href="#CMR17-48"/>
       <use transform="translate(118.478131 0)scale(0.996264)" xlink:href="#CMR17-48"/>
      </g>
     </g>
    </g>
    <g id="ytick_2">
     <g id="line2d_11">
      <g>
       <use style="stroke:#000000;stroke-width:0.8;" x="57.6" xlink:href="#m615b114461" y="264.327469"/>
      </g>
     </g>
     <g id="text_11">
      <!-- $\mathdefault{0.02}$ -->
      <g transform="translate(32.888586 267.786718)scale(0.1 -0.1)">
       <use transform="scale(0.996264)" xlink:href="#CMR17-48"/>
       <use transform="translate(45.690477 0)scale(0.996264)" xlink:href="#CMMI12-58"/>
       <use transform="translate(72.787654 0)scale(0.996264)" xlink:href="#CMR17-48"/>
       <use transform="translate(118.478131 0)scale(0.996264)" xlink:href="#CMR17-50"/>
      </g>
     </g>
    </g>
    <g id="ytick_3">
     <g id="line2d_12">
      <g>
       <use style="stroke:#000000;stroke-width:0.8;" x="57.6" xlink:href="#m615b114461" y="230.910748"/>
      </g>
     </g>
     <g id="text_12">
      <!-- $\mathdefault{0.04}$ -->
      <g transform="translate(32.888586 234.369997)scale(0.1 -0.1)">
       <defs>
        <path d="M 33.59375 64.40625 
C 33.59375 66.5 33.5 66.5 31.703125 66.5 
L 2 19.59375 
L 2 17 
L 27.796875 17 
L 27.796875 7.140625 
C 27.796875 3.5 27.59375 2.5 20.59375 2.5 
L 18.703125 2.5 
L 18.703125 0 
C 21.90625 0 27.296875 0 30.703125 0 
C 34.09375 0 39.5 0 42.703125 0 
L 42.703125 2.5 
L 40.796875 2.5 
C 33.796875 2.5 33.59375 3.5 33.59375 7.140625 
L 33.59375 17 
L 43.796875 17 
L 43.796875 19.59375 
L 33.59375 19.59375 
z
M 28.09375 57.859375 
L 28.09375 19.59375 
L 4 19.59375 
z
" id="CMR17-52"/>
       </defs>
       <use transform="scale(0.996264)" xlink:href="#CMR17-48"/>
       <use transform="translate(45.690477 0)scale(0.996264)" xlink:href="#CMMI12-58"/>
       <use transform="translate(72.787654 0)scale(0.996264)" xlink:href="#CMR17-48"/>
       <use transform="translate(118.478131 0)scale(0.996264)" xlink:href="#CMR17-52"/>
      </g>
     </g>
    </g>
    <g id="ytick_4">
     <g id="line2d_13">
      <g>
       <use style="stroke:#000000;stroke-width:0.8;" x="57.6" xlink:href="#m615b114461" y="197.494027"/>
      </g>
     </g>
     <g id="text_13">
      <!-- $\mathdefault{0.06}$ -->
      <g transform="translate(32.888586 200.953276)scale(0.1 -0.1)">
       <defs>
        <path d="M 10.59375 34 
C 10.59375 57.65625 21.796875 63 28.296875 63 
C 30.40625 63 35.5 62.640625 37.5 59 
C 35.90625 59 32.90625 59 32.90625 55.515625 
C 32.90625 52.828125 35.09375 51.921875 36.5 51.921875 
C 37.40625 51.921875 40.09375 52.3125 40.09375 55.625 
C 40.09375 61.78125 35.09375 65.296875 28.203125 65.296875 
C 16.296875 65.296875 3.796875 52.96875 3.796875 31 
C 3.796875 3.953125 15.09375 -2 23.09375 -2 
C 32.796875 -2 42 6.671875 42 20.046875 
C 42 32.515625 33.90625 41.59375 23.703125 41.59375 
C 17.59375 41.59375 13.09375 37.609375 10.59375 30.625 
z
M 23.09375 0.390625 
C 10.796875 0.390625 10.796875 18.75 10.796875 22.4375 
C 10.796875 29.625 14.203125 40 23.5 40 
C 25.203125 40 30.09375 40 33.40625 33.125 
C 35.203125 29.21875 35.203125 25.140625 35.203125 20.140625 
C 35.203125 14.75 35.203125 10.78125 33.09375 6.78125 
C 30.90625 2.671875 27.703125 0.390625 23.09375 0.390625 
z
" id="CMR17-54"/>
       </defs>
       <use transform="scale(0.996264)" xlink:href="#CMR17-48"/>
       <use transform="translate(45.690477 0)scale(0.996264)" xlink:href="#CMMI12-58"/>
       <use transform="translate(72.787654 0)scale(0.996264)" xlink:href="#CMR17-48"/>
       <use transform="translate(118.478131 0)scale(0.996264)" xlink:href="#CMR17-54"/>
      </g>
     </g>
    </g>
    <g id="ytick_5">
     <g id="line2d_14">
      <g>
       <use style="stroke:#000000;stroke-width:0.8;" x="57.6" xlink:href="#m615b114461" y="164.077306"/>
      </g>
     </g>
     <g id="text_14">
      <!-- $\mathdefault{0.08}$ -->
      <g transform="translate(32.888586 167.536555)scale(0.1 -0.1)">
       <defs>
        <path d="M 27.203125 35.375 
C 33.5 38.546875 39.90625 43.328125 39.90625 50.984375 
C 39.90625 60.015625 31.09375 65.296875 23 65.296875 
C 13.90625 65.296875 5.90625 58.734375 5.90625 49.6875 
C 5.90625 47.203125 6.5 42.921875 10.40625 39.140625 
C 11.40625 38.15625 15.59375 35.171875 18.296875 33.28125 
C 13.796875 30.984375 3.296875 25.53125 3.296875 14.59375 
C 3.296875 4.359375 13.09375 -2 22.796875 -2 
C 33.5 -2 42.5 5.65625 42.5 15.78125 
C 42.5 24.84375 36.40625 29.015625 32.40625 31.703125 
z
M 14.09375 44.09375 
C 13.296875 44.59375 9.296875 47.671875 9.296875 52.359375 
C 9.296875 58.421875 15.59375 63 22.796875 63 
C 30.703125 63 36.5 57.4375 36.5 50.96875 
C 36.5 41.703125 26.09375 36.421875 25.59375 36.421875 
C 25.5 36.421875 25.40625 36.421875 24.59375 37.03125 
z
M 32.5 23.734375 
C 34 22.640625 38.796875 19.375 38.796875 13.296875 
C 38.796875 5.953125 31.40625 0.390625 23 0.390625 
C 13.90625 0.390625 7 6.84375 7 14.6875 
C 7 22.546875 13.09375 29.09375 20 32.1875 
z
" id="CMR17-56"/>
       </defs>
       <use transform="scale(0.996264)" xlink:href="#CMR17-48"/>
       <use transform="translate(45.690477 0)scale(0.996264)" xlink:href="#CMMI12-58"/>
       <use transform="translate(72.787654 0)scale(0.996264)" xlink:href="#CMR17-48"/>
       <use transform="translate(118.478131 0)scale(0.996264)" xlink:href="#CMR17-56"/>
      </g>
     </g>
    </g>
    <g id="ytick_6">
     <g id="line2d_15">
      <g>
       <use style="stroke:#000000;stroke-width:0.8;" x="57.6" xlink:href="#m615b114461" y="130.660585"/>
      </g>
     </g>
     <g id="text_15">
      <!-- $\mathdefault{0.10}$ -->
      <g transform="translate(32.888586 134.119834)scale(0.1 -0.1)">
       <use transform="scale(0.996264)" xlink:href="#CMR17-48"/>
       <use transform="translate(45.690477 0)scale(0.996264)" xlink:href="#CMMI12-58"/>
       <use transform="translate(72.787654 0)scale(0.996264)" xlink:href="#CMR17-49"/>
       <use transform="translate(118.478131 0)scale(0.996264)" xlink:href="#CMR17-48"/>
      </g>
     </g>
    </g>
    <g id="ytick_7">
     <g id="line2d_16">
      <g>
       <use style="stroke:#000000;stroke-width:0.8;" x="57.6" xlink:href="#m615b114461" y="97.243864"/>
      </g>
     </g>
     <g id="text_16">
      <!-- $\mathdefault{0.12}$ -->
      <g transform="translate(32.888586 100.703113)scale(0.1 -0.1)">
       <use transform="scale(0.996264)" xlink:href="#CMR17-48"/>
       <use transform="translate(45.690477 0)scale(0.996264)" xlink:href="#CMMI12-58"/>
       <use transform="translate(72.787654 0)scale(0.996264)" xlink:href="#CMR17-49"/>
       <use transform="translate(118.478131 0)scale(0.996264)" xlink:href="#CMR17-50"/>
      </g>
     </g>
    </g>
    <g id="ytick_8">
     <g id="line2d_17">
      <g>
       <use style="stroke:#000000;stroke-width:0.8;" x="57.6" xlink:href="#m615b114461" y="63.827143"/>
      </g>
     </g>
     <g id="text_17">
      <!-- $\mathdefault{0.14}$ -->
      <g transform="translate(32.888586 67.286392)scale(0.1 -0.1)">
       <use transform="scale(0.996264)" xlink:href="#CMR17-48"/>
       <use transform="translate(45.690477 0)scale(0.996264)" xlink:href="#CMMI12-58"/>
       <use transform="translate(72.787654 0)scale(0.996264)" xlink:href="#CMR17-49"/>
       <use transform="translate(118.478131 0)scale(0.996264)" xlink:href="#CMR17-52"/>
      </g>
     </g>
    </g>
   </g>
   <g id="line2d_18">
    <path clip-path="url(#pcf6292e48c)" d="M 73.832727 130.660585 
L 74.113553 130.770271 
L 74.131409 135.772633 
L 74.173615 189.042257 
L 74.238545 133.246572 
L 74.266141 129.976261 
L 74.337565 135.573915 
L 74.430092 145.175704 
L 74.475543 138.336956 
L 74.525865 128.753486 
L 74.597289 134.003908 
L 74.74176 139.51636 
L 74.801821 137.889955 
L 74.861882 138.010817 
L 74.962525 137.398667 
L 74.982004 137.596194 
L 75.175174 140.557367 
L 75.176797 140.545847 
L 75.217379 141.004458 
L 75.219002 140.997468 
L 75.301789 141.597959 
L 75.348864 141.411376 
L 75.363473 141.398786 
L 75.397562 141.57245 
L 75.447884 142.796815 
L 75.611834 145.039818 
L 75.62969 145.293759 
L 75.845585 148.420934 
L 75.847209 148.402186 
L 75.899153 149.08846 
L 76.171863 156.096495 
L 76.952657 191.912024 
L 77.525673 232.421627 
L 78.319453 295.488 
L 78.369775 292.855874 
L 80.122909 167.704118 
L 80.830656 136.006639 
L 81.416657 117.784259 
L 82.015645 106.024386 
L 82.376012 102.263494 
L 82.58866 101.442928 
L 82.686057 101.412189 
L 82.721769 101.489315 
L 83.083759 103.530305 
L 83.254202 105.267813 
L 84.004154 116.988158 
L 84.83527 138.925585 
L 86.302708 193.941384 
L 86.904943 214.08333 
L 87.671127 230.160173 
L 88.252259 234.057888 
L 88.294464 234.087624 
L 88.370758 234.045109 
L 88.372381 234.050029 
L 88.442182 233.913421 
L 88.443805 233.91645 
L 89.201873 228.092395 
L 89.395043 225.66063 
L 90.068701 215.928783 
L 90.446924 210.560893 
L 90.839756 205.725237 
L 91.170903 202.513352 
L 91.445236 200.554918 
L 91.528023 200.104171 
L 91.740672 199.215675 
L 91.742295 199.216544 
L 91.773137 199.116968 
L 91.774761 199.11836 
L 91.938711 198.764979 
L 91.940335 198.768728 
L 92.019875 198.678579 
L 92.021498 198.683571 
L 92.127011 198.656675 
L 92.139997 198.660346 
L 92.287715 198.803283 
L 92.289338 198.79971 
L 92.352646 198.921218 
L 92.354269 198.918498 
L 92.576657 199.563141 
L 92.604253 199.661326 
L 92.904559 201.102566 
L 92.96462 201.443498 
L 93.336349 203.965787 
L 93.448355 204.817762 
L 93.839564 208.040943 
L 93.987281 209.300211 
L 94.352518 212.419455 
L 94.506729 213.679904 
L 94.826513 216.125605 
L 94.948259 216.960994 
L 95.222592 218.63295 
L 95.292393 218.994725 
L 95.524521 220.045704 
L 95.558609 220.169296 
L 95.758272 220.806124 
L 95.759895 220.804728 
L 95.800477 220.911153 
L 95.8021 220.909403 
L 95.969297 221.235289 
L 95.970921 221.23209 
L 96.043968 221.328495 
L 96.045591 221.324672 
L 96.180323 221.424692 
L 96.183569 221.425802 
L 96.295575 221.425555 
L 96.316678 221.425142 
L 96.396218 221.379176 
L 96.397841 221.383454 
L 96.552052 221.215388 
L 96.553676 221.218483 
L 96.62023 221.111417 
L 96.621853 221.114057 
L 96.815023 220.714739 
L 96.816646 220.716133 
L 96.857228 220.611094 
L 96.858851 220.612256 
L 97.084486 219.958715 
L 97.118575 219.853961 
L 97.366935 218.969789 
L 97.407517 218.82056 
L 97.672111 217.755709 
L 97.722432 217.551773 
L 97.990272 216.417092 
L 98.047087 216.181646 
L 98.308433 215.08992 
L 98.362001 214.878228 
L 98.610362 213.912474 
L 98.654191 213.756843 
L 98.886319 212.956461 
L 98.923654 212.843075 
L 99.136303 212.221276 
L 99.176884 212.120244 
L 99.370054 211.66604 
L 99.371677 211.667472 
L 99.548614 211.33594 
L 99.550237 211.338113 
L 99.714188 211.105613 
L 99.715811 211.108504 
L 99.792105 211.022688 
L 99.793728 211.025907 
L 99.934953 210.913209 
L 99.936576 210.917049 
L 99.993391 210.88421 
L 100.037219 210.873016 
L 100.158964 210.850077 
L 100.283956 210.8753 
L 100.311552 210.880134 
L 100.384599 210.919029 
L 100.386223 210.915196 
L 100.530694 211.024122 
L 100.532317 211.020822 
L 100.611857 211.102171 
L 100.613481 211.099151 
L 100.777431 211.302284 
L 100.779055 211.299786 
L 100.845609 211.399065 
L 100.847232 211.396764 
L 101.027415 211.694317 
L 101.029039 211.692483 
L 101.082607 211.793338 
L 101.08423 211.791627 
L 101.277399 212.172885 
L 101.279023 212.171552 
L 101.326097 212.273942 
L 101.327721 212.272686 
L 101.53063 212.71981 
L 101.532253 212.718818 
L 101.572835 212.815167 
L 101.574458 212.814215 
L 101.780614 213.295754 
L 101.782237 213.29494 
L 101.822819 213.394743 
L 101.824442 213.393943 
L 102.030598 213.883631 
L 102.032221 213.882849 
L 102.072803 213.98244 
L 102.074426 213.981648 
L 102.280582 214.461615 
L 102.282205 214.460732 
L 102.322787 214.556746 
L 102.32441 214.555832 
L 102.524073 214.996266 
L 102.525696 214.99517 
L 102.569524 215.091598 
L 102.571148 215.09045 
L 102.764317 215.480505 
L 102.76594 215.479102 
L 102.816262 215.578184 
L 102.817885 215.576701 
L 103.001315 215.902883 
L 103.002938 215.901096 
L 103.059753 215.9973 
L 103.061376 215.995406 
L 103.235066 216.255122 
L 103.236689 216.252894 
L 103.303244 216.34463 
L 103.304867 216.342261 
L 103.465571 216.532042 
L 103.467194 216.529333 
L 103.546735 216.611891 
L 103.548358 216.609004 
L 103.696076 216.733815 
L 103.697699 216.730598 
L 103.786979 216.792162 
L 103.788602 216.788742 
L 103.923334 216.856824 
L 104.032093 216.88479 
L 104.153839 216.905068 
L 104.275584 216.896247 
L 104.38759 216.878767 
L 104.522321 216.82736 
L 104.546671 216.820731 
L 104.619718 216.779752 
L 104.621341 216.783091 
L 104.765812 216.688829 
L 104.767436 216.691898 
L 104.853469 216.623922 
L 104.855092 216.62684 
L 105.009303 216.491512 
L 105.010927 216.494195 
L 105.090467 216.414875 
L 105.09209 216.417448 
L 105.256041 216.244754 
L 105.257664 216.247138 
L 105.330711 216.162925 
L 105.332335 216.165236 
L 105.499532 215.968752 
L 105.501155 215.970934 
L 105.570956 215.883663 
L 105.572579 215.885802 
L 105.743023 215.673972 
L 105.744646 215.67604 
L 105.814447 215.585833 
L 105.81607 215.587884 
L 105.986513 215.373108 
L 105.988137 215.375146 
L 106.057937 215.285427 
L 106.059561 215.28747 
L 106.230004 215.077666 
L 106.231628 215.079746 
L 106.301428 214.993554 
L 106.303052 214.99566 
L 106.470249 214.801325 
L 106.471872 214.80351 
L 106.544919 214.719867 
L 106.546543 214.722096 
L 106.710493 214.548342 
L 106.712116 214.550683 
L 106.78841 214.4725 
L 106.790033 214.474902 
L 106.947491 214.328321 
L 106.949114 214.330858 
L 107.031901 214.258092 
L 107.033524 214.260708 
L 107.184489 214.142881 
L 107.186112 214.145647 
L 107.275392 214.081795 
L 107.277015 214.084655 
L 107.421487 213.995898 
L 107.520506 213.950403 
L 107.658484 213.889896 
L 107.763997 213.860079 
L 107.895482 213.825999 
L 108.010735 213.81392 
L 108.13248 213.803886 
L 108.254225 213.812047 
L 108.369478 213.821791 
L 108.500963 213.851644 
L 108.609722 213.877536 
L 108.7477 213.928683 
L 108.849967 213.966549 
L 108.991191 214.035878 
L 109.090211 214.083158 
L 109.237929 214.169503 
L 109.249292 214.172434 
L 109.332079 214.225635 
L 109.333702 214.222918 
L 109.484666 214.321077 
L 109.486289 214.318427 
L 109.575569 214.379972 
L 109.577193 214.377353 
L 109.728157 214.481016 
L 109.72978 214.478434 
L 109.81906 214.541947 
L 109.820684 214.539379 
L 109.971648 214.644311 
L 109.973271 214.641754 
L 110.062551 214.704824 
L 110.064175 214.702266 
L 110.215139 214.804592 
L 110.216762 214.802019 
L 110.296303 214.856352 
L 110.307665 214.859903 
L 110.45863 214.956235 
L 110.554403 215.008862 
L 110.702121 215.094494 
L 110.80114 215.142423 
L 110.945612 215.215545 
L 111.047878 215.256988 
L 111.189103 215.316474 
L 111.294615 215.349909 
L 111.429347 215.394351 
L 111.43097 215.391309 
L 111.565702 215.428484 
L 111.677708 215.447504 
L 111.805946 215.470532 
L 111.924445 215.479343 
L 112.049437 215.489714 
L 112.171183 215.48728 
L 112.292928 215.486147 
L 112.421167 215.472254 
L 112.539665 215.460978 
L 112.671151 215.436147 
L 112.786403 215.416521 
L 112.921135 215.381844 
L 113.03314 215.355841 
L 113.171119 215.312835 
L 113.279878 215.282499 
L 113.421103 215.233025 
L 113.529862 215.199246 
L 113.671087 215.146525 
L 113.776599 215.112253 
L 113.917824 215.058568 
L 114.023337 215.024332 
L 114.164561 214.971759 
L 114.273321 214.937935 
L 114.414545 214.888356 
L 114.523305 214.857436 
L 114.664529 214.812421 
L 114.776535 214.784617 
L 114.914513 214.746265 
L 115.026519 214.723407 
L 115.161251 214.692218 
L 115.276503 214.674247 
L 115.411235 214.649968 
L 115.529734 214.63762 
L 115.661219 214.620882 
L 115.782964 214.614602 
L 115.911203 214.605043 
L 116.036195 214.605048 
L 116.161187 214.602082 
L 116.289425 214.608355 
L 116.411171 214.611213 
L 116.542656 214.623502 
L 116.664401 214.631597 
L 116.795887 214.649091 
L 116.914385 214.661191 
L 117.049117 214.683394 
L 117.167616 214.698925 
L 117.302348 214.724428 
L 117.420847 214.742395 
L 117.558825 214.770643 
L 117.677324 214.790021 
L 117.815302 214.819246 
L 117.933801 214.838979 
L 118.071779 214.867984 
L 118.190278 214.887082 
L 118.328256 214.914771 
L 118.446755 214.932355 
L 118.584733 214.957788 
L 118.703232 214.973127 
L 118.837964 214.995109 
L 118.959709 215.008082 
L 119.094441 215.026589 
L 119.216186 215.036284 
L 119.350918 215.050973 
L 119.47591 215.057384 
L 119.607395 215.067885 
L 119.732387 215.070636 
L 119.863872 215.077271 
L 119.992111 215.076472 
L 120.120349 215.079369 
L 120.251834 215.075052 
L 120.380073 215.07456 
L 120.511558 215.066994 
L 120.639796 215.063495 
L 120.774528 215.052912 
L 120.89952 215.047084 
L 121.034252 215.034157 
L 121.159244 215.026386 
L 121.293975 215.011712 
L 121.418967 215.002572 
L 121.556945 214.986462 
L 121.681937 214.976547 
L 121.819916 214.95996 
L 121.944908 214.949877 
L 122.082886 214.93347 
L 122.207878 214.923794 
L 122.345856 214.908169 
L 122.470848 214.899413 
L 122.608826 214.885091 
L 122.737065 214.877432 
L 122.875043 214.864852 
L 123.003281 214.858932 
L 123.138013 214.848575 
L 123.266252 214.844594 
L 123.400983 214.836385 
L 123.532468 214.834355 
L 123.6672 214.828381 
L 123.798685 214.828489 
L 123.933417 214.824708 
L 124.068148 214.826873 
L 124.199633 214.825153 
L 124.201257 214.827593 
L 124.332742 214.82681 
L 124.467473 214.831793 
L 124.598959 214.832709 
L 124.73369 214.839261 
L 124.865175 214.841601 
L 125.003153 214.84956 
L 125.134639 214.853026 
L 125.272617 214.861954 
L 125.404102 214.866206 
L 125.54208 214.875738 
L 125.673565 214.880423 
L 125.811543 214.890191 
L 125.943028 214.894963 
L 126.081007 214.904608 
L 126.212492 214.909138 
L 126.35047 214.918333 
L 126.485201 214.922475 
L 126.62318 214.930924 
L 126.757911 214.93425 
L 126.895889 214.941718 
L 127.030621 214.944031 
L 127.168599 214.950352 
L 127.303331 214.951525 
L 127.441309 214.956603 
L 127.579287 214.956621 
L 127.717265 214.960416 
L 127.855244 214.959197 
L 127.993222 214.961747 
L 128.1312 214.959358 
L 128.269178 214.960756 
L 128.410403 214.957277 
L 128.548381 214.957649 
L 128.689606 214.953239 
L 128.827584 214.952757 
L 128.968809 214.947604 
L 129.106787 214.946463 
L 129.248012 214.940772 
L 129.38599 214.939177 
L 129.527215 214.933163 
L 129.665193 214.931323 
L 129.809664 214.925105 
L 129.947642 214.923225 
L 130.092113 214.917104 
L 130.233338 214.915294 
L 130.377809 214.909469 
L 130.519034 214.908003 
L 130.663505 214.902645 
L 130.80473 214.901673 
L 130.949201 214.896916 
L 131.090426 214.89655 
L 131.234897 214.892487 
L 131.376122 214.892797 
L 131.520593 214.889476 
L 131.665065 214.890469 
L 131.809536 214.887903 
L 131.954007 214.889605 
L 132.098479 214.887757 
L 132.24295 214.890115 
L 132.387421 214.888916 
L 132.531892 214.891845 
L 132.676364 214.891197 
L 132.824081 214.894627 
L 132.968553 214.894421 
L 133.116271 214.898208 
L 133.260742 214.898318 
L 133.40846 214.90233 
L 133.552931 214.902627 
L 133.700649 214.906734 
L 133.848367 214.907142 
L 133.996084 214.911217 
L 134.143802 214.911564 
L 134.294767 214.915536 
L 134.442484 214.915709 
L 134.593449 214.919423 
L 134.741167 214.91933 
L 134.892131 214.922702 
L 135.039849 214.922271 
L 135.190813 214.92524 
L 135.341777 214.924445 
L 135.492742 214.926975 
L 135.643706 214.925764 
L 135.794671 214.927848 
L 135.945635 214.92623 
L 136.096599 214.927889 
L 136.247564 214.925896 
L 136.398528 214.927174 
L 136.552739 214.924842 
L 136.70695 214.925779 
L 136.861161 214.92318 
L 137.015372 214.92386 
L 137.169583 214.921074 
L 137.323793 214.921579 
L 137.478004 214.91869 
L 137.632215 214.919102 
L 137.789673 214.916164 
L 137.943884 214.916565 
L 138.101341 214.913682 
L 138.258799 214.914118 
L 138.416256 214.911361 
L 138.573713 214.911924 
L 138.731171 214.90935 
L 138.888628 214.910092 
L 139.046086 214.907744 
L 139.203543 214.908699 
L 139.364247 214.906596 
L 139.524951 214.907779 
L 139.685655 214.905949 
L 139.846359 214.907375 
L 140.007063 214.905811 
L 140.167767 214.907465 
L 140.328471 214.906143 
L 140.489175 214.907994 
L 140.649879 214.906877 
L 140.81383 214.908895 
L 140.97778 214.907951 
L 141.141731 214.91008 
L 141.305681 214.909249 
L 141.469632 214.911435 
L 141.633583 214.910662 
L 141.797533 214.912852 
L 141.961484 214.912087 
L 142.128681 214.914247 
L 142.295878 214.913455 
L 142.463075 214.915527 
L 142.630272 214.914656 
L 142.797469 214.916605 
L 142.964666 214.915626 
L 143.131863 214.917428 
L 143.29906 214.916321 
L 143.469504 214.917967 
L 143.639948 214.916726 
L 143.810391 214.918204 
L 143.980835 214.916825 
L 144.151279 214.918146 
L 144.321722 214.916644 
L 144.492166 214.917825 
L 144.665856 214.916218 
L 144.839546 214.917279 
L 145.013236 214.915598 
L 145.186927 214.916576 
L 145.360617 214.914856 
L 145.534307 214.915785 
L 145.711244 214.914052 
L 145.88818 214.914958 
L 146.065117 214.913252 
L 146.242054 214.914175 
L 146.418991 214.912524 
L 146.595927 214.913489 
L 146.776111 214.911911 
L 146.956294 214.912932 
L 147.136477 214.91145 
L 147.31666 214.912546 
L 147.496844 214.911168 
L 147.677027 214.912342 
L 147.860457 214.911068 
L 148.043887 214.912319 
L 148.227316 214.911144 
L 148.410746 214.912463 
L 148.594176 214.911374 
L 148.780852 214.912747 
L 148.967529 214.911729 
L 149.154205 214.913135 
L 149.340881 214.912164 
L 149.527558 214.91358 
L 149.717481 214.912635 
L 149.907404 214.914043 
L 150.097327 214.913101 
L 150.287249 214.914475 
L 150.477172 214.913516 
L 150.670342 214.914845 
L 150.863511 214.913857 
L 151.056681 214.915123 
L 151.24985 214.914095 
L 151.446266 214.915294 
L 151.642682 214.914223 
L 151.839098 214.915352 
L 152.035514 214.914237 
L 152.23193 214.915301 
L 152.431593 214.914148 
L 152.631255 214.915155 
L 152.830918 214.913977 
L 153.03058 214.914939 
L 153.233489 214.913747 
L 153.436399 214.914678 
L 153.639308 214.913488 
L 153.842217 214.914405 
L 154.048372 214.913229 
L 154.254528 214.914144 
L 154.460684 214.912998 
L 154.666839 214.913923 
L 154.876241 214.912816 
L 155.085644 214.913758 
L 155.295046 214.912696 
L 155.507695 214.913661 
L 155.720343 214.912645 
L 155.932992 214.913633 
L 156.145641 214.912664 
L 156.361536 214.913672 
L 156.577431 214.912744 
L 156.793327 214.913765 
L 157.012468 214.912871 
L 157.23161 214.913898 
L 157.450752 214.913026 
L 157.67314 214.914049 
L 157.895529 214.913191 
L 158.117917 214.914197 
L 158.340305 214.913341 
L 158.56594 214.914323 
L 158.791575 214.913463 
L 159.01721 214.914412 
L 159.246092 214.913542 
L 159.474973 214.914458 
L 159.707101 214.913577 
L 159.939229 214.914458 
L 160.171357 214.913568 
L 160.406732 214.91442 
L 160.642106 214.913526 
L 160.877481 214.914353 
L 161.116102 214.91346 
L 161.354723 214.914269 
L 161.596591 214.913383 
L 161.838458 214.914179 
L 162.080326 214.913306 
L 162.32544 214.914093 
L 162.570554 214.913236 
L 162.818915 214.914018 
L 163.067276 214.913181 
L 163.315636 214.913963 
L 163.567244 214.91315 
L 163.818851 214.913935 
L 164.073705 214.91315 
L 164.328559 214.91394 
L 164.586659 214.913183 
L 164.844759 214.913978 
L 165.106106 214.913245 
L 165.367453 214.914037 
L 165.632047 214.913319 
L 165.89664 214.914098 
L 166.16448 214.913384 
L 166.43232 214.914139 
L 166.703407 214.91342 
L 166.974493 214.914148 
L 167.248826 214.913426 
L 167.523159 214.914133 
L 167.800739 214.913417 
L 168.078319 214.914113 
L 168.359145 214.913415 
L 168.643217 214.914109 
L 168.92729 214.91343 
L 169.214609 214.914119 
L 169.501929 214.91345 
L 169.792495 214.914116 
L 170.086307 214.913439 
L 170.380119 214.914071 
L 170.677178 214.913381 
L 170.977484 214.913983 
L 171.277789 214.9133 
L 171.581341 214.913905 
L 171.88814 214.913264 
L 172.194938 214.913905 
L 172.504983 214.913328 
L 172.818275 214.914004 
L 173.134813 214.913464 
L 173.451351 214.914125 
L 173.771136 214.913556 
L 174.094167 214.914137 
L 174.420445 214.913496 
L 174.749969 214.913992 
L 175.079494 214.913323 
L 175.412265 214.913823 
L 175.748282 214.913237 
L 176.087546 214.913845 
L 176.430057 214.913404 
L 176.775814 214.914107 
L 177.124817 214.913711 
L 177.477068 214.914333 
L 177.832564 214.913772 
L 178.191308 214.914146 
L 178.553297 214.913377 
L 178.918534 214.913632 
L 179.287017 214.912936 
L 179.658746 214.913425 
L 180.033722 214.913115 
L 180.411945 214.913983 
L 180.793414 214.91393 
L 181.178129 214.914739 
L 181.569338 214.914287 
L 181.963793 214.914408 
L 182.361495 214.913299 
L 182.762444 214.913084 
L 183.169885 214.912198 
L 183.580573 214.912721 
L 183.994508 214.912935 
L 184.414935 214.914499 
L 184.838609 214.915158 
L 185.26553 214.915975 
L 185.702191 214.914765 
L 186.138851 214.913494 
L 186.582004 214.911291 
L 187.031651 214.91068 
L 187.484544 214.910598 
L 187.950423 214.913054 
L 188.413056 214.915913 
L 188.882182 214.918708 
L 189.36754 214.917235 
L 189.846406 214.913187 
L 190.335011 214.908111 
L 190.836602 214.905886 
L 191.334947 214.905696 
L 191.859264 214.911347 
L 192.368972 214.921114 
L 192.919261 214.924663 
L 193.420852 214.914611 
L 193.958156 214.900001 
L 194.527924 214.894373 
L 195.0912 214.88905 
L 195.7259 214.898287 
L 196.25671 214.92985 
L 196.742068 214.936648 
L 197.539095 214.86549 
L 198.452998 214.859457 
L 199.324695 214.793269 
L 200.652532 214.918507 
L 201.034001 214.748935 
L 201.441443 214.615196 
L 202.632925 214.593219 
L 203.407226 214.269338 
L 203.647471 214.49368 
L 204.243212 214.958048 
L 204.413655 214.791309 
L 204.772399 213.98376 
L 205.213929 213.187636 
L 205.400605 213.257756 
L 205.603514 213.609189 
L 206.046668 214.370411 
L 206.192762 214.255329 
L 206.397295 213.629729 
L 207.113158 210.72394 
L 207.160233 210.756634 
L 207.278732 211.038962 
L 207.517353 212.352024 
L 207.994595 214.845821 
L 208.077382 214.725089 
L 208.207244 214.018502 
L 208.437748 211.358785 
L 209.035113 204.39491 
L 209.083811 204.362191 
L 209.130886 204.443891 
L 209.244515 205.09491 
L 209.458787 207.822678 
L 209.929536 213.773423 
L 209.940899 213.767909 
L 209.99609 213.571662 
L 210.112966 212.175441 
L 210.325615 206.473199 
L 210.965184 188.237925 
L 210.99278 188.20024 
L 211.039855 188.362142 
L 211.143744 189.773174 
L 211.323927 195.821764 
L 211.672931 217.162906 
L 211.926161 226.563314 
L 211.934278 226.549774 
L 211.979729 226.019944 
L 212.090112 221.529963 
L 212.31737 201.162646 
L 212.901748 148.788103 
L 212.943953 148.392121 
L 212.997521 149.058199 
L 213.106281 154.614353 
L 213.346525 181.394229 
L 213.731241 248.860136 
L 213.922787 281.924165 
L 213.974732 277.007389 
L 214.20686 217.661759 
L 214.688972 111.083078 
L 214.828573 109.985536 
L 214.909737 108.316212 
L 215.072064 104.509884 
L 215.124009 105.16136 
L 215.223028 110.74173 
L 215.401588 136.354077 
L 215.8837 225.945805 
L 215.950255 220.614654 
L 216.094726 179.611147 
L 216.411264 105.222 
L 216.685597 82.508173 
L 216.890129 71.271385 
L 216.917725 71.545983 
L 216.992396 75.422125 
L 217.140113 97.464842 
L 217.602746 200.432773 
L 217.690403 189.385583 
L 218.21959 87.518681 
L 218.607552 59.748204 
L 218.614045 59.760907 
L 218.65138 60.512471 
L 218.742284 67.985812 
L 218.915974 105.145143 
L 219.243875 189.063851 
L 219.302313 183.048088 
L 219.482496 124.432886 
L 219.709754 88.411598 
L 220.211345 54.721982 
L 220.237318 54.960117 
L 220.307119 58.407164 
L 220.433734 78.135286 
L 220.662615 157.854843 
L 220.7941 189.062087 
L 220.841175 184.305456 
L 220.984023 133.402457 
L 221.229137 79.004138 
L 221.722612 53.578667 
L 221.729105 53.568 
L 221.758324 53.809319 
L 221.831372 56.967643 
L 221.946624 73.645098 
L 222.118691 139.134992 
L 222.282641 196.905875 
L 222.33134 190.097089 
L 222.522886 108.25876 
L 222.737158 67.470974 
L 223.066682 58.40143 
L 223.147846 57.439425 
L 223.196544 57.934599 
L 223.282577 62.177262 
L 223.401076 81.833382 
L 223.579636 159.265412 
L 223.722484 214.088239 
L 223.772806 205.169139 
L 224.303616 63.512519 
L 224.569833 60.190969 
L 224.641257 61.260037 
L 224.733783 68.289467 
L 224.862022 99.719793 
L 225.136355 222.49914 
L 225.225635 194.995121 
L 225.589248 66.131604 
L 225.746705 63.439231 
L 225.873321 63.385999 
L 225.89767 63.421422 
L 225.962601 63.850873 
L 226.048634 66.407009 
L 226.15577 78.159149 
L 226.301865 125.335439 
L 226.530746 230.490292 
L 226.598924 212.667766 
L 227.022598 68.572774 
L 227.202781 65.894016 
L 227.298554 65.565004 
L 227.344006 65.723372 
L 227.417053 67.150151 
L 227.514449 74.683569 
L 227.644311 106.832558 
L 227.918644 231.44505 
L 228.007924 202.840509 
L 228.374784 70.184901 
L 228.538735 66.66127 
L 228.582563 66.630596 
L 228.631261 66.719777 
L 228.717295 67.388313 
L 228.814691 70.369562 
L 228.925073 82.457031 
L 229.072791 129.551569 
L 229.303296 234.891296 
L 229.371473 216.712322 
L 229.796771 71.383172 
L 229.981824 68.138897 
L 230.064611 67.818918 
L 230.111686 68.010805 
L 230.18798 69.696212 
L 230.288623 78.2454 
L 230.423354 113.900008 
L 230.686324 233.704466 
L 230.769111 208.764747 
L 231.152204 71.331826 
L 231.317777 67.925054 
L 231.366476 67.871762 
L 231.415174 67.976172 
L 231.497961 68.791675 
L 231.59698 72.567879 
L 231.712233 87.866059 
L 231.872937 147.002045 
L 232.070976 235.820485 
L 232.129414 221.761213 
L 232.59367 71.080541 
L 232.788463 68.519175 
L 232.832291 68.418729 
L 232.877743 68.608578 
L 232.954036 70.300093 
L 233.054679 78.824838 
L 233.189411 114.282058 
L 233.454004 234.132835 
L 233.536791 208.825926 
L 233.919884 71.706494 
L 234.087081 68.223204 
L 234.135779 68.164007 
L 234.184477 68.271174 
L 234.267264 69.122777 
L 234.366284 73.041926 
L 234.481536 88.727585 
L 234.643863 149.360971 
L 234.837033 235.978834 
L 234.895471 222.290569 
L 235.362973 71.180071 
L 235.559389 68.625323 
L 235.599971 68.539164 
L 235.645423 68.734617 
L 235.721716 70.454491 
L 235.822359 79.070475 
L 235.957091 114.713524 
L 236.220061 234.189104 
L 236.302848 209.341512 
L 236.687564 71.736806 
L 236.854761 68.27322 
L 236.903459 68.211605 
L 236.95378 68.325239 
L 237.036567 69.208267 
L 237.135587 73.250063 
L 237.252463 89.664281 
L 237.416413 152.314988 
L 237.604713 235.988413 
L 237.659904 223.347752 
L 238.140393 70.906124 
L 238.340055 68.58943 
L 238.367651 68.552383 
L 238.409856 68.72491 
L 238.484527 70.302638 
L 238.585169 78.492709 
L 238.718278 112.468943 
L 238.987741 234.190813 
L 239.073775 207.34912 
L 239.450374 72.009722 
L 239.617571 68.290313 
L 239.669516 68.215127 
L 239.719837 68.324732 
L 239.802624 69.193901 
L 239.901644 73.18743 
L 240.018519 89.45769 
L 240.18247 151.832492 
L 240.370769 235.985929 
L 240.427584 223.059602 
L 240.904826 70.975288 
L 241.102865 68.602846 
L 241.133708 68.552233 
L 241.177536 68.730945 
L 241.252207 70.329309 
L 241.352849 78.589324 
L 241.485958 112.735475 
L 241.755421 234.186445 
L 241.839831 207.819916 
L 242.218054 71.963802 
L 242.385251 68.287612 
L 242.437196 68.214762 
L 242.487517 68.327101 
L 242.570304 69.206272 
L 242.669324 73.235546 
L 242.786199 89.61298 
L 242.95015 152.193021 
L 243.138449 235.985588 
L 243.195264 222.773848 
L 243.66926 71.045062 
L 243.867299 68.611056 
L 243.899764 68.551287 
L 243.945216 68.736175 
L 244.02151 70.419371 
L 244.122153 78.915858 
L 244.256884 114.269035 
L 244.521478 234.187965 
L 244.604265 209.106362 
L 244.987357 71.814475 
L 245.154554 68.279918 
L 245.204876 68.214567 
L 245.253574 68.322566 
L 245.336361 69.18799 
L 245.43538 73.16865 
L 245.552256 89.400776 
L 245.716207 151.702718 
L 245.904506 235.982768 
L 245.961321 223.1584 
L 246.440186 70.93714 
L 246.639849 68.592287 
L 246.667444 68.551229 
L 246.711273 68.72787 
L 246.785943 70.31878 
L 246.886586 78.553768 
L 247.019695 112.63944 
L 247.289158 234.186834 
L 247.373568 207.943208 
L 247.751791 71.979141 
L 247.918988 68.287838 
L 247.970932 68.214147 
L 248.021254 68.325486 
L 248.104041 69.201014 
L 248.20306 73.217391 
L 248.319936 89.556409 
L 248.483887 152.063303 
L 248.672186 235.985293 
L 248.729001 222.875168 
L 249.20462 71.006447 
L 249.402659 68.605912 
L 249.435124 68.551395 
L 249.478953 68.733759 
L 249.555247 70.409257 
L 249.655889 78.880286 
L 249.790621 114.171729 
L 250.055215 234.187056 
L 250.139625 208.414919 
L 250.519471 71.934119 
L 250.686668 68.285602 
L 250.738612 68.21435 
L 250.788934 68.328534 
L 250.871721 69.214255 
L 250.97074 73.266621 
L 251.087616 89.712981 
L 251.251567 152.424611 
L 251.439866 235.983492 
L 251.495057 223.259195 
L 251.975546 70.900633 
L 252.175209 68.588111 
L 252.202804 68.551674 
L 252.243386 68.712254 
L 252.318057 70.247843 
L 252.417076 78.07484 
L 252.548561 110.693357 
L 252.822895 234.187651 
L 252.910551 206.416897 
L 253.282281 72.214725 
L 253.449478 68.299602 
L 253.504669 68.214048 
L 253.554991 68.324374 
L 253.637777 69.196275 
L 253.736797 73.19983 
L 253.853673 89.500523 
L 254.017623 151.934077 
L 254.205923 235.98486 
L 254.262737 222.976777 
L 254.738356 71.013236 
L 254.936396 68.606764 
L 254.968861 68.551302 
L 255.012689 68.731611 
L 255.08736 70.335774 
L 255.188003 78.615534 
L 255.321111 112.809933 
L 255.588951 234.185776 
L 255.674985 207.7195 
L 256.053207 71.950166 
L 256.220404 68.286386 
L 256.272349 68.214263 
L 256.322671 68.327427 
L 256.405457 69.209489 
L 256.504477 73.248941 
L 256.621353 89.656823 
L 256.785303 152.295187 
L 256.973603 235.984637 
L 257.028794 223.359777 
L 257.509283 70.907108 
L 257.708945 68.588833 
L 257.736541 68.551563 
L 257.778746 68.723626 
L 257.853417 70.299831 
L 257.95406 78.485065 
L 258.087168 112.449605 
L 258.356631 234.187942 
L 258.442665 207.370275 
L 258.819264 72.011601 
L 258.986461 68.289415 
L 259.038406 68.213979 
L 259.088727 68.323293 
L 259.171514 69.191577 
L 259.270534 73.182347 
L 259.387409 89.444775 
L 259.55136 151.804959 
L 259.73966 235.983875 
L 259.796474 223.078122 
L 260.273716 70.975507 
L 260.471756 68.602035 
L 260.502598 68.551225 
L 260.546426 68.729485 
L 260.621097 70.326248 
L 260.72174 78.581019 
L 260.854848 112.714777 
L 261.124311 234.185727 
L 261.208721 207.844273 
L 261.586944 71.966276 
L 261.754141 68.287178 
L 261.806086 68.214183 
L 261.856407 68.326329 
L 261.939194 69.204744 
L 262.038214 73.231314 
L 262.155089 89.600775 
L 262.31904 152.165848 
L 262.50734 235.985221 
L 262.564154 222.794341 
L 263.03815 71.046132 
L 263.236189 68.610968 
L 263.270278 68.551462 
L 263.314106 68.735461 
L 263.3904 70.417058 
L 263.491043 78.90826 
L 263.625775 114.248673 
L 263.890368 234.18767 
L 263.974778 208.316405 
L 264.354624 71.921423 
L 264.521821 68.284979 
L 264.573766 68.214418 
L 264.624087 68.329414 
L 264.706874 69.218045 
L 264.805894 73.280684 
L 264.922769 89.757614 
L 265.08672 152.527354 
L 265.273396 235.982329 
L 265.330211 223.179194 
L 265.809076 70.938423 
L 266.008739 68.592383 
L 266.036335 68.551156 
L 266.080163 68.727375 
L 266.154833 70.316759 
L 266.255476 78.546591 
L 266.388585 112.619743 
L 266.658048 234.187023 
L 266.742458 207.968915 
L 267.120681 71.982447 
L 267.287878 68.287974 
L 267.339823 68.214106 
L 267.390144 68.325236 
L 267.472931 69.200015 
L 267.571951 73.213739 
L 267.688826 89.544834 
L 267.852777 152.036587 
L 268.041076 235.985243 
L 268.097891 222.89617 
L 268.57351 71.007838 
L 268.771549 68.606081 
L 268.804015 68.551369 
L 268.847843 68.733309 
L 268.924137 70.407222 
L 269.02478 78.873003 
L 269.159511 114.151702 
L 269.424105 234.186837 
L 269.508515 208.440547 
L 269.889984 71.833117 
L 270.057181 68.28069 
L 270.107503 68.21433 
L 270.157824 68.328304 
L 270.240611 69.213268 
L 270.339631 73.262964 
L 270.456506 89.701373 
L 270.620457 152.397873 
L 270.808756 235.983775 
L 270.863948 223.279992 
L 271.344436 70.901968 
L 271.544099 68.588259 
L 271.571695 68.55165 
L 271.612276 68.711842 
L 271.686947 70.245943 
L 271.785967 78.067991 
L 271.917452 110.674263 
L 272.191785 234.187758 
L 272.279441 206.442942 
L 272.651171 72.218251 
L 272.818368 68.299781 
L 272.873559 68.214034 
L 272.923881 68.32415 
L 273.006668 69.195303 
L 273.105687 73.196215 
L 273.222563 89.489001 
L 273.386513 151.907406 
L 273.574813 235.984703 
L 273.631628 222.99773 
L 274.10887 70.970202 
L 274.308532 68.596076 
L 274.337751 68.551285 
L 274.38158 68.731171 
L 274.45625 70.333804 
L 274.556893 78.608399 
L 274.690001 112.790272 
L 274.957841 234.185442 
L 275.043875 207.745279 
L 275.422097 71.953488 
L 275.589295 68.28655 
L 275.641239 68.214246 
L 275.691561 68.3272 
L 275.774348 69.208508 
L 275.873367 73.245296 
L 275.990243 89.645239 
L 276.154193 152.26847 
L 276.342493 235.984804 
L 276.397684 223.380515 
L 276.879796 70.866129 
L 277.079459 68.584332 
L 277.105431 68.551542 
L 277.146013 68.709858 
L 277.220684 70.236763 
L 277.319703 78.03488 
L 277.451188 110.581882 
L 277.725521 234.187932 
L 277.814801 205.736631 
L 278.183284 72.349647 
L 278.350481 68.306507 
L 278.407296 68.213965 
L 278.457617 68.32307 
L 278.540404 69.190609 
L 278.639424 73.178742 
L 278.7563 89.433276 
L 278.92025 151.778304 
L 279.10855 235.983602 
L 279.165364 223.099018 
L 279.642607 70.97689 
L 279.840646 68.602207 
L 279.871488 68.55121 
L 279.915316 68.729048 
L 279.989987 70.324285 
L 280.09063 78.573902 
L 280.223738 112.695141 
L 280.493201 234.18604 
L 280.577612 207.870024 
L 280.955834 71.969611 
L 281.123031 68.287342 
L 281.174976 68.214167 
L 281.225297 68.326103 
L 281.308084 69.203766 
L 281.407104 73.22768 
L 281.52398 89.589213 
L 281.68793 152.139146 
L 281.87623 235.985271 
L 281.933044 222.815392 
L 282.40704 71.04756 
L 282.605079 68.611152 
L 282.639168 68.551442 
L 282.682996 68.735016 
L 282.75929 70.415024 
L 282.859933 78.900972 
L 282.994665 114.228637 
L 283.259258 234.187544 
L 283.343668 208.342054 
L 283.723514 71.924723 
L 283.890711 68.28514 
L 283.942656 68.2144 
L 283.992977 68.329184 
L 284.075764 69.217057 
L 284.174784 73.27702 
L 284.29166 89.745991 
L 284.45561 152.500608 
L 284.64391 235.98256 
L 284.699101 223.200034 
L 285.177967 70.939782 
L 285.377629 68.59254 
L 285.405225 68.551143 
L 285.449053 68.726941 
L 285.523724 70.314803 
L 285.624367 78.539492 
L 285.757475 112.600132 
L 286.026938 234.187221 
L 286.112972 207.171443 
L 286.487948 72.093916 
L 286.655145 68.293511 
L 286.708713 68.214091 
L 286.759034 68.325011 
L 286.841821 69.199041 
L 286.940841 73.210116 
L 287.057716 89.533295 
L 287.221667 152.009902 
L 287.409967 235.985177 
L 287.466781 222.917166 
L 287.9424 71.009242 
L 288.140439 68.606259 
L 288.172905 68.551351 
L 288.216733 68.732866 
L 288.293027 70.405195 
L 288.39367 78.865733 
L 288.528401 114.131691 
L 288.792995 234.186595 
L 288.877405 208.466168 
L 289.258874 71.836348 
L 289.426071 68.280846 
L 289.476393 68.214313 
L 289.526714 68.328075 
L 289.609501 69.212283 
L 289.708521 73.259311 
L 289.825396 89.689771 
L 289.989347 152.371142 
L 290.177647 235.984034 
L 290.232838 223.300775 
L 290.713327 70.903305 
L 290.912989 68.588408 
L 290.940585 68.551627 
L 290.98279 68.724848 
L 291.05746 70.305358 
L 291.158103 78.50517 
L 291.291212 112.505244 
L 291.560675 234.18784 
L 291.646708 207.29677 
L 292.021684 72.110564 
L 292.188881 68.294345 
L 292.242449 68.214019 
L 292.292771 68.323927 
L 292.375558 69.194333 
L 292.474577 73.192602 
L 292.591453 89.477484 
L 292.755404 151.880737 
L 292.943703 235.984522 
L 293.000518 223.01867 
L 293.47776 70.971581 
L 293.677423 68.596238 
L 293.706641 68.551269 
L 293.75047 68.730731 
L 293.82514 70.331835 
L 293.925783 78.601267 
L 294.058892 112.770616 
L 294.326732 234.185084 
L 294.412765 207.771052 
L 294.790988 71.956813 
L 294.958185 68.286713 
L 295.010129 68.21423 
L 295.060451 68.326973 
L 295.143238 69.207527 
L 295.242257 73.241654 
L 295.359133 89.63366 
L 295.523084 152.241756 
L 295.711383 235.984947 
L 295.768198 222.734445 
L 296.242193 71.042077 
L 296.440233 68.610446 
L 296.472698 68.551035 
L 296.51815 68.736732 
L 296.594444 70.422849 
L 296.695087 78.928996 
L 296.829818 114.305648 
L 297.094412 234.187898 
L 297.177199 209.059219 
L 297.560291 71.808371 
L 297.727488 68.279499 
L 297.777809 68.214472 
L 297.826508 68.322848 
L 297.909295 69.189642 
L 298.008314 73.17514 
L 298.12519 89.421781 
L 298.28914 151.751652 
L 298.47744 235.983305 
L 298.534255 223.119902 
L 299.011497 70.978274 
L 299.209536 68.602379 
L 299.240378 68.551195 
L 299.284207 68.728612 
L 299.358877 70.322324 
L 299.45952 78.566788 
L 299.592628 112.67551 
L 299.862092 234.18633 
L 299.946502 207.89577 
L 300.324724 71.972948 
L 300.491921 68.287506 
L 300.543866 68.214151 
L 300.594188 68.325877 
L 300.676975 69.202788 
L 300.775994 73.224049 
L 300.89287 89.577656 
L 301.05682 152.112449 
L 301.24512 235.985298 
L 301.301935 222.836433 
L 301.77593 71.04899 
L 301.973969 68.611337 
L 302.008058 68.551423 
L 302.051887 68.73457 
L 302.12818 70.412991 
L 302.228823 78.893687 
L 302.363555 114.208606 
L 302.628148 234.187394 
L 302.712559 208.367697 
L 303.092404 71.928025 
L 303.259601 68.285302 
L 303.311546 68.214381 
L 303.361868 68.328955 
L 303.444655 69.21607 
L 303.543674 73.273359 
L 303.66055 89.734372 
L 303.8245 152.473864 
L 304.0128 235.98291 
L 304.067991 223.220861 
L 304.546857 70.941143 
L 304.746519 68.592696 
L 304.774115 68.55113 
L 304.817943 68.726507 
L 304.892614 70.31285 
L 304.993257 78.532397 
L 305.126365 112.580526 
L 305.395828 234.187395 
L 305.481862 207.197335 
L 305.856838 72.097349 
L 306.024035 68.293683 
L 306.077603 68.214076 
L 306.127924 68.324787 
L 306.210711 69.198067 
L 306.309731 73.206495 
L 306.426607 89.52176 
L 306.590557 151.983221 
L 306.778857 235.985088 
L 306.835671 222.938151 
L 307.31129 71.010646 
L 307.509329 68.606436 
L 307.541795 68.551333 
L 307.585623 68.732424 
L 307.660294 70.339408 
L 307.760937 78.628688 
L 307.894045 112.846167 
L 308.161885 234.186329 
L 308.247919 207.671998 
L 308.624518 72.051135 
L 308.791715 68.291377 
L 308.845283 68.214295 
L 308.895604 68.327847 
L 308.978391 69.2113 
L 309.077411 73.255661 
L 309.194287 89.678174 
L 309.358237 152.344415 
L 309.546537 235.984268 
L 309.601728 223.321545 
L 310.082217 70.904642 
L 310.281879 68.588558 
L 310.309475 68.551604 
L 310.35168 68.724417 
L 310.426351 70.303412 
L 310.526993 78.498093 
L 310.660102 112.485663 
L 310.929565 234.187898 
L 311.015599 207.322637 
L 311.390575 72.11401 
L 311.557772 68.294518 
L 311.61134 68.214005 
L 311.661661 68.323703 
L 311.744448 69.193362 
L 311.843468 73.188992 
L 311.960343 89.465971 
L 312.124294 151.854072 
L 312.312593 235.984316 
L 312.369408 223.039598 
L 312.84665 70.972962 
L 313.044689 68.60172 
L 313.075532 68.551253 
L 313.11936 68.730292 
L 313.194031 70.329868 
L 313.294673 78.59414 
L 313.427782 112.750965 
L 313.697245 234.185086 
L 313.781655 207.796819 
L 314.159878 71.96014 
L 314.327075 68.286876 
L 314.37902 68.214213 
L 314.429341 68.326746 
L 314.512128 69.206547 
L 314.611148 73.238014 
L 314.728023 89.622085 
L 314.891974 152.215045 
L 315.080273 235.985065 
L 315.137088 222.75553 
L 315.611084 71.043503 
L 315.809123 68.610629 
L 315.841588 68.551026 
L 315.88704 68.736284 
L 315.963334 70.42081 
L 316.063977 78.921697 
L 316.198708 114.285597 
L 316.463302 234.18784 
L 316.546089 209.084698 
L 316.929181 71.811583 
L 317.096378 68.279653 
L 317.1467 68.214453 
L 317.195398 68.322626 
L 317.278185 69.188675 
L 317.377204 73.171541 
L 317.49408 89.41029 
L 317.658031 151.725004 
L 317.84633 235.982983 
L 317.903145 223.140774 
L 318.38201 70.935921 
L 318.581673 68.592096 
L 318.609268 68.551181 
L 318.653097 68.728176 
L 318.727767 70.320365 
L 318.82841 78.559679 
L 318.961519 112.655884 
L 319.230982 234.186596 
L 319.315392 207.921511 
L 319.693615 71.976288 
L 319.860812 68.287671 
L 319.912756 68.214135 
L 319.963078 68.325651 
L 320.045865 69.201812 
L 320.144884 73.220419 
L 320.26176 89.566104 
L 320.425711 152.085754 
L 320.61401 235.985301 
L 320.670825 222.857461 
L 321.14482 71.05042 
L 321.34286 68.611521 
L 321.376948 68.551403 
L 321.420777 68.734126 
L 321.497071 70.41096 
L 321.597713 78.886406 
L 321.732445 114.18858 
L 321.997039 234.18722 
L 322.081449 208.393334 
L 322.461295 71.93133 
L 322.628492 68.285463 
L 322.680436 68.214363 
L 322.730758 68.328725 
L 322.813545 69.215083 
L 322.912564 73.269699 
L 323.02944 89.722757 
L 323.193391 152.447124 
L 323.38169 235.983237 
L 323.436881 223.241677 
L 323.915747 70.942504 
L 324.115409 68.592853 
L 324.143005 68.551118 
L 324.186833 68.726074 
L 324.261504 70.310898 
L 324.362147 78.525305 
L 324.495255 112.560925 
L 324.764719 234.187544 
L 324.850752 207.223223 
L 325.225728 72.100785 
L 325.392925 68.293855 
L 325.446493 68.214061 
L 325.496815 68.324563 
L 325.579601 69.197094 
L 325.678621 73.202876 
L 325.795497 89.51023 
L 325.959447 151.956543 
L 326.147747 235.984975 
L 326.204561 222.959124 
L 326.68018 71.012052 
L 326.87822 68.606614 
L 326.910685 68.551316 
L 326.954513 68.731983 
L 327.029184 70.337435 
L 327.129827 78.621546 
L 327.262935 112.826496 
L 327.530775 234.186039 
L 327.616809 207.697786 
L 327.993408 72.054535 
L 328.160605 68.291546 
L 328.214173 68.214278 
L 328.264495 68.327619 
L 328.347281 69.210317 
L 328.446301 73.252012 
L 328.563177 89.666582 
L 328.727127 152.317691 
L 328.915427 235.984479 
L 328.970618 223.342304 
L 329.451107 70.90598 
L 329.650769 68.588707 
L 329.678365 68.551582 
L 329.72057 68.723988 
L 329.795241 70.301467 
L 329.895884 78.49102 
L 330.028992 112.466088 
L 330.298455 234.187932 
L 330.384489 207.348499 
L 330.761088 72.008765 
L 330.928285 68.289274 
L 330.98023 68.213991 
L 331.030551 68.32348 
L 331.113338 69.192393 
L 331.212358 73.185384 
L 331.329233 89.454464 
L 331.493184 151.827411 
L 331.681484 235.984087 
L 331.738298 223.060515 
L 332.21554 70.974343 
L 332.41358 68.601891 
L 332.444422 68.551237 
L 332.48825 68.729854 
L 332.562921 70.327902 
L 332.663564 78.587016 
L 332.796672 112.731319 
L 333.066135 234.185444 
L 333.150545 207.822581 
L 333.528768 71.96347 
L 333.695965 68.28704 
L 333.74791 68.214196 
L 333.798231 68.326519 
L 333.881018 69.205568 
L 333.980038 73.234376 
L 334.096913 89.610515 
L 334.260864 152.188338 
L 334.449164 235.98516 
L 334.505978 222.776602 
L 334.979974 71.04493 
L 335.178013 68.610813 
L 335.210479 68.551018 
L 335.25593 68.735837 
L 335.332224 70.418773 
L 335.432867 78.914402 
L 335.567599 114.265552 
L 335.832192 234.187758 
L 335.914979 209.110172 
L 336.298071 71.814798 
L 336.465268 68.279808 
L 336.51559 68.214434 
L 336.564288 68.322404 
L 336.647075 69.187709 
L 336.746095 73.167943 
L 336.86297 89.398805 
L 337.026921 151.698359 
L 337.21522 235.982638 
L 337.272035 223.161635 
L 337.7509 70.937279 
L 337.950563 68.592252 
L 337.978159 68.551167 
L 338.021987 68.727741 
L 338.096657 70.318406 
L 338.1973 78.552573 
L 338.330409 112.636263 
L 338.599872 234.186838 
L 338.684282 207.947245 
L 339.062505 71.97963 
L 339.229702 68.287836 
L 339.281647 68.214119 
L 339.331968 68.325426 
L 339.414755 69.200836 
L 339.513775 73.216792 
L 339.63065 89.554556 
L 339.794601 152.059063 
L 339.9829 235.985279 
L 340.039715 222.878478 
L 340.515334 71.006657 
L 340.713373 68.605932 
L 340.745839 68.551385 
L 340.789667 68.733682 
L 340.865961 70.40893 
L 340.966604 78.879129 
L 341.101335 114.168559 
L 341.365929 234.187022 
L 341.450339 208.418965 
L 341.830185 71.934638 
L 341.997382 68.285625 
L 342.049327 68.214345 
L 342.099648 68.328496 
L 342.182435 69.214097 
L 342.281455 73.266042 
L 342.39833 89.711147 
L 342.562281 152.420388 
L 342.75058 235.983539 
L 342.805772 223.26248 
L 343.28626 70.900843 
L 343.485923 68.588134 
L 343.513519 68.55167 
L 343.5541 68.712189 
L 343.628771 70.247543 
L 343.727791 78.073758 
L 343.859276 110.690343 
L 344.133609 234.18767 
L 344.221265 206.421009 
L 344.592995 72.215281 
L 344.760192 68.29963 
L 344.815383 68.214046 
L 344.865705 68.324339 
L 344.948492 69.196122 
L 345.047511 73.199259 
L 345.164387 89.498704 
L 345.328337 151.929868 
L 345.516637 235.984837 
L 345.573452 222.980085 
L 346.049071 71.013458 
L 346.24711 68.606792 
L 346.279575 68.551299 
L 346.323404 68.731542 
L 346.398074 70.335463 
L 346.498717 78.614408 
L 346.631825 112.80683 
L 346.899665 234.185725 
L 346.985699 207.723569 
L 347.363921 71.95069 
L 347.531119 68.286412 
L 347.583063 68.214261 
L 347.633385 68.327391 
L 347.716172 69.209335 
L 347.815191 73.248366 
L 347.932067 89.654994 
L 348.096017 152.290971 
L 348.284317 235.984665 
L 348.339508 223.363051 
L 348.819997 70.907319 
L 349.01966 68.588857 
L 349.047255 68.55156 
L 349.08946 68.723559 
L 349.164131 70.299524 
L 349.264774 78.48395 
L 349.397882 112.446517 
L 349.667345 234.187942 
L 349.753379 207.374355 
L 350.129978 72.012132 
L 350.297175 68.289441 
L 350.34912 68.213977 
L 350.399441 68.323258 
L 350.482228 69.191424 
L 350.581248 73.181778 
L 350.698124 89.44296 
L 350.862074 151.800753 
L 351.050374 235.983834 
L 351.107188 223.081421 
L 351.584431 70.975726 
L 351.78247 68.602062 
L 351.813312 68.551222 
L 351.85714 68.729416 
L 351.931811 70.325938 
L 352.032454 78.579895 
L 352.165562 112.711678 
L 352.435025 234.185778 
L 352.519436 207.848337 
L 352.897658 71.966802 
L 353.064855 68.287204 
L 353.1168 68.21418 
L 353.167121 68.326293 
L 353.249908 69.204589 
L 353.348928 73.230741 
L 353.465804 89.59895 
L 353.629754 152.161634 
L 353.818054 235.98523 
L 353.874868 222.797663 
L 354.348864 71.046357 
L 354.546903 68.610997 
L 354.580992 68.551459 
L 354.62482 68.735391 
L 354.701114 70.416737 
L 354.801757 78.90711 
L 354.936489 114.245511 
L 355.201082 234.187652 
L 355.285492 208.320453 
L 355.665338 71.921944 
L 355.832535 68.285004 
L 355.88448 68.214415 
L 355.934801 68.329378 
L 356.017588 69.217889 
L 356.116608 73.280105 
L 356.233484 89.75578 
L 356.397434 152.523133 
L 356.584111 235.982269 
L 356.640925 223.182484 
L 357.119791 70.938637 
L 357.319453 68.592408 
L 357.347049 68.551154 
L 357.390877 68.727306 
L 357.465548 70.31645 
L 357.566191 78.545471 
L 357.699299 112.616648 
L 357.968762 234.187056 
L 358.053172 207.972975 
L 358.431395 71.982975 
L 358.598592 68.288001 
L 358.650537 68.214104 
L 358.700858 68.325201 
L 358.783645 69.199861 
L 358.882665 73.213167 
L 358.99954 89.543013 
L 359.163491 152.032376 
L 359.351791 235.985234 
L 359.408605 222.899484 
L 359.884224 71.008059 
L 360.082263 68.606109 
L 360.114729 68.551366 
L 360.158557 68.733239 
L 360.234851 70.406902 
L 360.335494 78.871856 
L 360.470225 114.148544 
L 360.734819 234.1868 
L 360.819229 208.44459 
L 361.200698 71.833627 
L 361.367895 68.280715 
L 361.418217 68.214328 
L 361.468538 68.328268 
L 361.551325 69.213112 
L 361.650345 73.262388 
L 361.76722 89.699542 
L 361.931171 152.393654 
L 362.119471 235.983818 
L 362.174662 223.283273 
L 362.655151 70.902179 
L 362.854813 68.588283 
L 362.882409 68.551646 
L 362.922991 68.711777 
L 362.997661 70.245643 
L 363.096681 78.06691 
L 363.228166 110.67125 
L 363.502499 234.187772 
L 363.590156 206.447052 
L 363.961885 72.218807 
L 364.129082 68.299809 
L 364.184273 68.214031 
L 364.234595 68.324115 
L 364.317382 69.19515 
L 364.416401 73.195645 
L 364.533277 89.487183 
L 364.697228 151.903197 
L 364.885527 235.984676 
L 364.942342 223.001035 
L 365.419584 70.970419 
L 365.619247 68.596102 
L 365.648465 68.551283 
L 365.692294 68.731102 
L 365.766964 70.333493 
L 365.867607 78.607273 
L 366.000716 112.78717 
L 366.268556 234.185387 
L 366.354589 207.749346 
L 366.732812 71.954012 
L 366.900009 68.286575 
L 366.951953 68.214244 
L 367.002275 68.327164 
L 367.085062 69.208353 
L 367.184081 73.244722 
L 367.300957 89.643411 
L 367.464908 152.264254 
L 367.653207 235.984828 
L 367.708399 223.383786 
L 368.190511 70.866336 
L 368.390173 68.584354 
L 368.416145 68.551538 
L 368.456727 68.709793 
L 368.531398 70.236465 
L 368.630417 78.033803 
L 368.761903 110.578873 
L 369.036236 234.187928 
L 369.125516 205.740762 
L 369.493999 72.350219 
L 369.661196 68.306536 
L 369.71801 68.213963 
L 369.768332 68.323035 
L 369.851119 69.190456 
L 369.950138 73.178174 
L 370.067014 89.431461 
L 370.230964 151.774098 
L 370.419264 235.983557 
L 370.476079 223.102314 
L 370.953321 70.977109 
L 371.15136 68.602234 
L 371.182202 68.551208 
L 371.226031 68.728979 
L 371.300701 70.323976 
L 371.401344 78.572779 
L 371.534452 112.692043 
L 371.803916 234.186088 
L 371.888326 207.874087 
L 372.266548 71.970137 
L 372.433745 68.287368 
L 372.48569 68.214164 
L 372.536012 68.326067 
L 372.618799 69.203611 
L 372.717818 73.227107 
L 372.834694 89.587389 
L 372.998644 152.134933 
L 373.186944 235.985277 
L 373.243759 222.818713 
L 373.717754 71.047786 
L 373.915793 68.611181 
L 373.949882 68.551439 
L 373.993711 68.734945 
L 374.070004 70.414703 
L 374.170647 78.899822 
L 374.305379 114.225476 
L 374.569972 234.187522 
L 374.654383 208.346101 
L 375.034228 71.925244 
L 375.201425 68.285165 
L 375.25337 68.214397 
L 375.303692 68.329148 
L 375.386479 69.216901 
L 375.485498 73.276442 
L 375.602374 89.744157 
L 375.766324 152.496387 
L 375.954624 235.982617 
L 376.009815 223.203321 
L 376.488681 70.939997 
L 376.688343 68.592564 
L 376.715939 68.551141 
L 376.759767 68.726872 
L 376.834438 70.314495 
L 376.935081 78.538372 
L 377.068189 112.597038 
L 377.337652 234.18725 
L 377.423686 207.175529 
L 377.798662 72.094458 
L 377.965859 68.293539 
L 378.019427 68.214088 
L 378.069748 68.324976 
L 378.152535 69.198887 
L 378.251555 73.209544 
L 378.368431 89.531474 
L 378.532381 152.005691 
L 378.720681 235.985165 
L 378.777495 222.920478 
L 379.253114 71.009463 
L 379.451153 68.606287 
L 379.483619 68.551348 
L 379.527447 68.732796 
L 379.603741 70.404875 
L 379.704384 78.864586 
L 379.839116 114.128534 
L 380.103709 234.186555 
L 380.188119 208.47021 
L 380.569588 71.836858 
L 380.736785 68.280871 
L 380.787107 68.21431 
L 380.837428 68.328039 
L 380.920215 69.212128 
L 381.019235 73.258735 
L 381.136111 89.687941 
L 381.300061 152.366925 
L 381.488361 235.984072 
L 381.543552 223.304053 
L 382.024041 70.903516 
L 382.223703 68.588432 
L 382.251299 68.551623 
L 382.293504 68.72478 
L 382.368175 70.305051 
L 382.468817 78.504053 
L 382.601926 112.502154 
L 382.871389 234.187851 
L 382.957423 207.300853 
L 383.332399 72.111108 
L 383.499596 68.294373 
L 383.553164 68.214017 
L 383.603485 68.323891 
L 383.686272 69.194179 
L 383.785292 73.192033 
L 383.902167 89.475667 
L 384.066118 151.876529 
L 384.254417 235.984491 
L 384.311232 223.021973 
L 384.788474 70.971799 
L 384.988137 68.596264 
L 385.017356 68.551266 
L 385.061184 68.730662 
L 385.135855 70.331525 
L 385.236497 78.600142 
L 385.369606 112.767514 
L 385.637446 234.185026 
L 385.723479 207.775118 
L 386.101702 71.957337 
L 386.268899 68.286739 
L 386.320844 68.214227 
L 386.371165 68.326937 
L 386.453952 69.207373 
L 386.552972 73.24108 
L 386.669847 89.631833 
L 386.833798 152.237541 
L 387.022097 235.984967 
L 387.078912 222.737773 
L 387.552908 71.042302 
L 387.750947 68.610475 
L 387.783412 68.551034 
L 387.828864 68.736661 
L 387.905158 70.422528 
L 388.005801 78.927844 
L 388.140532 114.302484 
L 388.405126 234.18789 
L 388.487913 209.06324 
L 388.871005 71.808878 
L 389.038202 68.279523 
L 389.088524 68.214469 
L 389.137222 68.322813 
L 389.220009 69.189489 
L 389.319028 73.174572 
L 389.435904 89.419967 
L 389.599855 151.747447 
L 389.788154 235.983256 
L 389.844969 223.123196 
L 390.323834 70.934778 
L 390.523497 68.591965 
L 390.551092 68.551193 
L 390.593297 68.714955 
L 390.667968 70.260282 
L 390.766988 78.119627 
L 390.898473 110.8181 
L 391.172806 234.186374 
L 391.260463 206.246802 
L 391.632192 72.191782 
L 391.799389 68.298438 
L 391.85458 68.214148 
L 391.904902 68.325841 
L 391.987689 69.202634 
L 392.086708 73.223476 
L 392.203584 89.575833 
L 392.367535 152.108236 
L 392.555834 235.9853 
L 392.612649 222.839752 
L 393.086644 71.049215 
L 393.284684 68.611366 
L 393.318772 68.55142 
L 393.362601 68.7345 
L 393.438895 70.41267 
L 393.539537 78.892538 
L 393.674269 114.205446 
L 393.938863 234.187368 
L 394.023273 208.371742 
L 394.403119 71.928547 
L 394.570316 68.285327 
L 394.62226 68.214379 
L 394.672582 68.328918 
L 394.755369 69.215914 
L 394.854388 73.272781 
L 394.971264 89.732538 
L 395.135215 152.469644 
L 395.323514 235.982963 
L 395.378705 223.224146 
L 395.857571 70.941358 
L 396.057233 68.592721 
L 396.084829 68.551128 
L 396.128657 68.726439 
L 396.203328 70.312542 
L 396.303971 78.531278 
L 396.437079 112.577433 
L 396.706543 234.18742 
L 396.792576 207.201421 
L 397.167552 72.097891 
L 397.334749 68.29371 
L 397.388317 68.214073 
L 397.438639 68.324751 
L 397.521425 69.197913 
L 397.620445 73.205924 
L 397.737321 89.51994 
L 397.901271 151.979011 
L 398.089571 235.985072 
L 398.146385 222.941461 
L 398.487273 81.378091 
L 398.487273 81.378091 
" style="fill:none;stroke:#1f77b4;stroke-linecap:square;stroke-width:1.5;"/>
   </g>
   <g id="patch_3">
    <path d="M 57.6 307.584 
L 57.6 41.472 
" style="fill:none;stroke:#000000;stroke-linecap:square;stroke-linejoin:miter;stroke-width:0.8;"/>
   </g>
   <g id="patch_4">
    <path d="M 414.72 307.584 
L 414.72 41.472 
" style="fill:none;stroke:#000000;stroke-linecap:square;stroke-linejoin:miter;stroke-width:0.8;"/>
   </g>
   <g id="patch_5">
    <path d="M 57.6 307.584 
L 414.72 307.584 
" style="fill:none;stroke:#000000;stroke-linecap:square;stroke-linejoin:miter;stroke-width:0.8;"/>
   </g>
   <g id="patch_6">
    <path d="M 57.6 41.472 
L 414.72 41.472 
" style="fill:none;stroke:#000000;stroke-linecap:square;stroke-linejoin:miter;stroke-width:0.8;"/>
   </g>
  </g>
 </g>
 <defs>
  <clipPath id="pcf6292e48c">
   <rect height="266.112" width="357.12" x="57.6" y="41.472"/>
  </clipPath>
 </defs>
</svg>
