<?xml version="1.0" encoding="utf-8" standalone="no"?>
<!DOCTYPE svg PUBLIC "-//W3C//DTD SVG 1.1//EN"
  "http://www.w3.org/Graphics/SVG/1.1/DTD/svg11.dtd">
<!-- Created with matplotlib (https://matplotlib.org/) -->
<svg height="345.6pt" version="1.1" viewBox="0 0 460.8 345.6" width="460.8pt" xmlns="http://www.w3.org/2000/svg" xmlns:xlink="http://www.w3.org/1999/xlink">
 <metadata>
  <rdf:RDF xmlns:cc="http://creativecommons.org/ns#" xmlns:dc="http://purl.org/dc/elements/1.1/" xmlns:rdf="http://www.w3.org/1999/02/22-rdf-syntax-ns#">
   <cc:Work>
    <dc:type rdf:resource="http://purl.org/dc/dcmitype/StillImage"/>
    <dc:date>2020-07-23T21:24:49.456196</dc:date>
    <dc:format>image/svg+xml</dc:format>
    <dc:creator>
     <cc:Agent>
      <dc:title>Matplotlib v3.3.0, https://matplotlib.org/</dc:title>
     </cc:Agent>
    </dc:creator>
   </cc:Work>
  </rdf:RDF>
 </metadata>
 <defs>
  <style type="text/css">*{stroke-linecap:butt;stroke-linejoin:round;}</style>
 </defs>
 <g id="figure_1">
  <g id="patch_1">
   <path d="M 0 345.6 
L 460.8 345.6 
L 460.8 0 
L 0 0 
z
" style="fill:#ffffff;"/>
  </g>
  <g id="axes_1">
   <g id="patch_2">
    <path d="M 57.6 307.584 
L 414.72 307.584 
L 414.72 41.472 
L 57.6 41.472 
z
" style="fill:#ffffff;"/>
   </g>
   <g id="matplotlib.axis_1">
    <g id="xtick_1">
     <g id="line2d_1">
      <defs>
       <path d="M 0 0 
L 0 3.5 
" id="m5ab9c92fec" style="stroke:#000000;stroke-width:0.8;"/>
      </defs>
      <g>
       <use style="stroke:#000000;stroke-width:0.8;" x="73.832727" xlink:href="#m5ab9c92fec" y="307.584"/>
      </g>
     </g>
     <g id="text_1">
      <!-- $\mathdefault{0}$ -->
      <g transform="translate(71.34206 321.502498)scale(0.1 -0.1)">
       <defs>
        <path d="M 42 31.640625 
C 42 37.75 41.90625 48.125 37.703125 56.109375 
C 34 63.109375 28.09375 65.59375 22.90625 65.59375 
C 18.09375 65.59375 12 63.40625 8.203125 56.203125 
C 4.203125 48.71875 3.796875 39.4375 3.796875 31.640625 
C 3.796875 25.953125 3.90625 17.28125 7 9.671875 
C 11.296875 -0.609375 19 -2 22.90625 -2 
C 27.5 -2 34.5 -0.109375 38.59375 9.375 
C 41.59375 16.28125 42 24.359375 42 31.640625 
z
M 22.90625 -0.40625 
C 16.5 -0.40625 12.703125 5.078125 11.296875 12.6875 
C 10.203125 18.5625 10.203125 27.15625 10.203125 32.75 
C 10.203125 40.4375 10.203125 46.828125 11.5 52.921875 
C 13.40625 61.390625 19 64 22.90625 64 
C 27 64 32.296875 61.296875 34.203125 53.125 
C 35.5 47.4375 35.59375 40.734375 35.59375 32.75 
C 35.59375 26.25 35.59375 18.265625 34.40625 12.375 
C 32.296875 1.484375 26.40625 -0.40625 22.90625 -0.40625 
z
" id="CMR17-48"/>
       </defs>
       <use transform="scale(0.996264)" xlink:href="#CMR17-48"/>
      </g>
     </g>
    </g>
    <g id="xtick_2">
     <g id="line2d_2">
      <g>
       <use style="stroke:#000000;stroke-width:0.8;" x="138.763636" xlink:href="#m5ab9c92fec" y="307.584"/>
      </g>
     </g>
     <g id="text_2">
      <!-- $\mathdefault{20000}$ -->
      <g transform="translate(126.310298 321.502498)scale(0.1 -0.1)">
       <defs>
        <path d="M 41.703125 15.453125 
L 39.90625 15.453125 
C 38.90625 8.375 38.09375 7.171875 37.703125 6.5625 
C 37.203125 5.765625 30 5.765625 28.59375 5.765625 
L 9.40625 5.765625 
C 13 9.671875 20 16.75 28.5 24.953125 
C 34.59375 30.734375 41.703125 37.53125 41.703125 47.421875 
C 41.703125 59.21875 32.296875 66 21.796875 66 
C 10.796875 66 4.09375 56.3125 4.09375 47.34375 
C 4.09375 43.4375 7 42.9375 8.203125 42.9375 
C 9.203125 42.9375 12.203125 43.546875 12.203125 47.03125 
C 12.203125 50.109375 9.59375 51 8.203125 51 
C 7.59375 51 7 50.90625 6.59375 50.703125 
C 8.5 59.21875 14.296875 63.40625 20.40625 63.40625 
C 29.09375 63.40625 34.796875 56.515625 34.796875 47.421875 
C 34.796875 38.734375 29.703125 31.25 24 24.75 
L 4.09375 2.28125 
L 4.09375 0 
L 39.296875 0 
z
" id="CMR17-50"/>
       </defs>
       <use transform="scale(0.996264)" xlink:href="#CMR17-50"/>
       <use transform="translate(45.690477 0)scale(0.996264)" xlink:href="#CMR17-48"/>
       <use transform="translate(91.380954 0)scale(0.996264)" xlink:href="#CMR17-48"/>
       <use transform="translate(137.071431 0)scale(0.996264)" xlink:href="#CMR17-48"/>
       <use transform="translate(182.761908 0)scale(0.996264)" xlink:href="#CMR17-48"/>
      </g>
     </g>
    </g>
    <g id="xtick_3">
     <g id="line2d_3">
      <g>
       <use style="stroke:#000000;stroke-width:0.8;" x="203.694545" xlink:href="#m5ab9c92fec" y="307.584"/>
      </g>
     </g>
     <g id="text_3">
      <!-- $\mathdefault{40000}$ -->
      <g transform="translate(191.241207 321.502498)scale(0.1 -0.1)">
       <defs>
        <path d="M 33.59375 64.40625 
C 33.59375 66.5 33.5 66.5 31.703125 66.5 
L 2 19.59375 
L 2 17 
L 27.796875 17 
L 27.796875 7.140625 
C 27.796875 3.5 27.59375 2.5 20.59375 2.5 
L 18.703125 2.5 
L 18.703125 0 
C 21.90625 0 27.296875 0 30.703125 0 
C 34.09375 0 39.5 0 42.703125 0 
L 42.703125 2.5 
L 40.796875 2.5 
C 33.796875 2.5 33.59375 3.5 33.59375 7.140625 
L 33.59375 17 
L 43.796875 17 
L 43.796875 19.59375 
L 33.59375 19.59375 
z
M 28.09375 57.859375 
L 28.09375 19.59375 
L 4 19.59375 
z
" id="CMR17-52"/>
       </defs>
       <use transform="scale(0.996264)" xlink:href="#CMR17-52"/>
       <use transform="translate(45.690477 0)scale(0.996264)" xlink:href="#CMR17-48"/>
       <use transform="translate(91.380954 0)scale(0.996264)" xlink:href="#CMR17-48"/>
       <use transform="translate(137.071431 0)scale(0.996264)" xlink:href="#CMR17-48"/>
       <use transform="translate(182.761908 0)scale(0.996264)" xlink:href="#CMR17-48"/>
      </g>
     </g>
    </g>
    <g id="xtick_4">
     <g id="line2d_4">
      <g>
       <use style="stroke:#000000;stroke-width:0.8;" x="268.625455" xlink:href="#m5ab9c92fec" y="307.584"/>
      </g>
     </g>
     <g id="text_4">
      <!-- $\mathdefault{60000}$ -->
      <g transform="translate(256.172116 321.502498)scale(0.1 -0.1)">
       <defs>
        <path d="M 10.59375 34 
C 10.59375 57.65625 21.796875 63 28.296875 63 
C 30.40625 63 35.5 62.640625 37.5 59 
C 35.90625 59 32.90625 59 32.90625 55.515625 
C 32.90625 52.828125 35.09375 51.921875 36.5 51.921875 
C 37.40625 51.921875 40.09375 52.3125 40.09375 55.625 
C 40.09375 61.78125 35.09375 65.296875 28.203125 65.296875 
C 16.296875 65.296875 3.796875 52.96875 3.796875 31 
C 3.796875 3.953125 15.09375 -2 23.09375 -2 
C 32.796875 -2 42 6.671875 42 20.046875 
C 42 32.515625 33.90625 41.59375 23.703125 41.59375 
C 17.59375 41.59375 13.09375 37.609375 10.59375 30.625 
z
M 23.09375 0.390625 
C 10.796875 0.390625 10.796875 18.75 10.796875 22.4375 
C 10.796875 29.625 14.203125 40 23.5 40 
C 25.203125 40 30.09375 40 33.40625 33.125 
C 35.203125 29.21875 35.203125 25.140625 35.203125 20.140625 
C 35.203125 14.75 35.203125 10.78125 33.09375 6.78125 
C 30.90625 2.671875 27.703125 0.390625 23.09375 0.390625 
z
" id="CMR17-54"/>
       </defs>
       <use transform="scale(0.996264)" xlink:href="#CMR17-54"/>
       <use transform="translate(45.690477 0)scale(0.996264)" xlink:href="#CMR17-48"/>
       <use transform="translate(91.380954 0)scale(0.996264)" xlink:href="#CMR17-48"/>
       <use transform="translate(137.071431 0)scale(0.996264)" xlink:href="#CMR17-48"/>
       <use transform="translate(182.761908 0)scale(0.996264)" xlink:href="#CMR17-48"/>
      </g>
     </g>
    </g>
    <g id="xtick_5">
     <g id="line2d_5">
      <g>
       <use style="stroke:#000000;stroke-width:0.8;" x="333.556364" xlink:href="#m5ab9c92fec" y="307.584"/>
      </g>
     </g>
     <g id="text_5">
      <!-- $\mathdefault{80000}$ -->
      <g transform="translate(321.103026 321.502498)scale(0.1 -0.1)">
       <defs>
        <path d="M 27.203125 35.375 
C 33.5 38.546875 39.90625 43.328125 39.90625 50.984375 
C 39.90625 60.015625 31.09375 65.296875 23 65.296875 
C 13.90625 65.296875 5.90625 58.734375 5.90625 49.6875 
C 5.90625 47.203125 6.5 42.921875 10.40625 39.140625 
C 11.40625 38.15625 15.59375 35.171875 18.296875 33.28125 
C 13.796875 30.984375 3.296875 25.53125 3.296875 14.59375 
C 3.296875 4.359375 13.09375 -2 22.796875 -2 
C 33.5 -2 42.5 5.65625 42.5 15.78125 
C 42.5 24.84375 36.40625 29.015625 32.40625 31.703125 
z
M 14.09375 44.09375 
C 13.296875 44.59375 9.296875 47.671875 9.296875 52.359375 
C 9.296875 58.421875 15.59375 63 22.796875 63 
C 30.703125 63 36.5 57.4375 36.5 50.96875 
C 36.5 41.703125 26.09375 36.421875 25.59375 36.421875 
C 25.5 36.421875 25.40625 36.421875 24.59375 37.03125 
z
M 32.5 23.734375 
C 34 22.640625 38.796875 19.375 38.796875 13.296875 
C 38.796875 5.953125 31.40625 0.390625 23 0.390625 
C 13.90625 0.390625 7 6.84375 7 14.6875 
C 7 22.546875 13.09375 29.09375 20 32.1875 
z
" id="CMR17-56"/>
       </defs>
       <use transform="scale(0.996264)" xlink:href="#CMR17-56"/>
       <use transform="translate(45.690477 0)scale(0.996264)" xlink:href="#CMR17-48"/>
       <use transform="translate(91.380954 0)scale(0.996264)" xlink:href="#CMR17-48"/>
       <use transform="translate(137.071431 0)scale(0.996264)" xlink:href="#CMR17-48"/>
       <use transform="translate(182.761908 0)scale(0.996264)" xlink:href="#CMR17-48"/>
      </g>
     </g>
    </g>
    <g id="xtick_6">
     <g id="line2d_6">
      <g>
       <use style="stroke:#000000;stroke-width:0.8;" x="398.487273" xlink:href="#m5ab9c92fec" y="307.584"/>
      </g>
     </g>
     <g id="text_6">
      <!-- $\mathdefault{100000}$ -->
      <g transform="translate(383.543267 321.502498)scale(0.1 -0.1)">
       <defs>
        <path d="M 26.59375 63.40625 
C 26.59375 65.5 26.5 65.5 25.09375 65.5 
C 21.203125 61.1875 15.296875 59.796875 9.703125 59.796875 
C 9.40625 59.796875 8.90625 59.796875 8.796875 59.5 
C 8.703125 59.296875 8.703125 59.09375 8.703125 57 
C 11.796875 57 17 57.59375 21 59.984375 
L 21 7.203125 
C 21 3.6875 20.796875 2.5 12.203125 2.5 
L 9.203125 2.5 
L 9.203125 0 
C 14 0 19 0 23.796875 0 
C 28.59375 0 33.59375 0 38.40625 0 
L 38.40625 2.5 
L 35.40625 2.5 
C 26.796875 2.5 26.59375 3.59375 26.59375 7.15625 
z
" id="CMR17-49"/>
       </defs>
       <use transform="scale(0.996264)" xlink:href="#CMR17-49"/>
       <use transform="translate(45.690477 0)scale(0.996264)" xlink:href="#CMR17-48"/>
       <use transform="translate(91.380954 0)scale(0.996264)" xlink:href="#CMR17-48"/>
       <use transform="translate(137.071431 0)scale(0.996264)" xlink:href="#CMR17-48"/>
       <use transform="translate(182.761908 0)scale(0.996264)" xlink:href="#CMR17-48"/>
       <use transform="translate(228.452386 0)scale(0.996264)" xlink:href="#CMR17-48"/>
      </g>
     </g>
    </g>
   </g>
   <g id="matplotlib.axis_2">
    <g id="ytick_1">
     <g id="line2d_7">
      <defs>
       <path d="M 0 0 
L -3.5 0 
" id="m26ddb78d02" style="stroke:#000000;stroke-width:0.8;"/>
      </defs>
      <g>
       <use style="stroke:#000000;stroke-width:0.8;" x="57.6" xlink:href="#m26ddb78d02" y="295.843477"/>
      </g>
     </g>
     <g id="text_7">
      <!-- $\mathdefault{0.00}$ -->
      <g transform="translate(32.888586 299.302726)scale(0.1 -0.1)">
       <defs>
        <path d="M 18.40625 4.796875 
C 18.40625 7.6875 16 9.671875 13.59375 9.671875 
C 10.703125 9.671875 8.703125 7.28125 8.703125 4.890625 
C 8.703125 2 11.09375 0 13.5 0 
C 16.40625 0 18.40625 2.390625 18.40625 4.796875 
z
" id="CMMI12-58"/>
       </defs>
       <use transform="scale(0.996264)" xlink:href="#CMR17-48"/>
       <use transform="translate(45.690477 0)scale(0.996264)" xlink:href="#CMMI12-58"/>
       <use transform="translate(72.787654 0)scale(0.996264)" xlink:href="#CMR17-48"/>
       <use transform="translate(118.478131 0)scale(0.996264)" xlink:href="#CMR17-48"/>
      </g>
     </g>
    </g>
    <g id="ytick_2">
     <g id="line2d_8">
      <g>
       <use style="stroke:#000000;stroke-width:0.8;" x="57.6" xlink:href="#m26ddb78d02" y="256.172171"/>
      </g>
     </g>
     <g id="text_8">
      <!-- $\mathdefault{0.02}$ -->
      <g transform="translate(32.888586 259.63142)scale(0.1 -0.1)">
       <use transform="scale(0.996264)" xlink:href="#CMR17-48"/>
       <use transform="translate(45.690477 0)scale(0.996264)" xlink:href="#CMMI12-58"/>
       <use transform="translate(72.787654 0)scale(0.996264)" xlink:href="#CMR17-48"/>
       <use transform="translate(118.478131 0)scale(0.996264)" xlink:href="#CMR17-50"/>
      </g>
     </g>
    </g>
    <g id="ytick_3">
     <g id="line2d_9">
      <g>
       <use style="stroke:#000000;stroke-width:0.8;" x="57.6" xlink:href="#m26ddb78d02" y="216.500864"/>
      </g>
     </g>
     <g id="text_9">
      <!-- $\mathdefault{0.04}$ -->
      <g transform="translate(32.888586 219.960113)scale(0.1 -0.1)">
       <use transform="scale(0.996264)" xlink:href="#CMR17-48"/>
       <use transform="translate(45.690477 0)scale(0.996264)" xlink:href="#CMMI12-58"/>
       <use transform="translate(72.787654 0)scale(0.996264)" xlink:href="#CMR17-48"/>
       <use transform="translate(118.478131 0)scale(0.996264)" xlink:href="#CMR17-52"/>
      </g>
     </g>
    </g>
    <g id="ytick_4">
     <g id="line2d_10">
      <g>
       <use style="stroke:#000000;stroke-width:0.8;" x="57.6" xlink:href="#m26ddb78d02" y="176.829557"/>
      </g>
     </g>
     <g id="text_10">
      <!-- $\mathdefault{0.06}$ -->
      <g transform="translate(32.888586 180.288806)scale(0.1 -0.1)">
       <use transform="scale(0.996264)" xlink:href="#CMR17-48"/>
       <use transform="translate(45.690477 0)scale(0.996264)" xlink:href="#CMMI12-58"/>
       <use transform="translate(72.787654 0)scale(0.996264)" xlink:href="#CMR17-48"/>
       <use transform="translate(118.478131 0)scale(0.996264)" xlink:href="#CMR17-54"/>
      </g>
     </g>
    </g>
    <g id="ytick_5">
     <g id="line2d_11">
      <g>
       <use style="stroke:#000000;stroke-width:0.8;" x="57.6" xlink:href="#m26ddb78d02" y="137.158251"/>
      </g>
     </g>
     <g id="text_11">
      <!-- $\mathdefault{0.08}$ -->
      <g transform="translate(32.888586 140.6175)scale(0.1 -0.1)">
       <use transform="scale(0.996264)" xlink:href="#CMR17-48"/>
       <use transform="translate(45.690477 0)scale(0.996264)" xlink:href="#CMMI12-58"/>
       <use transform="translate(72.787654 0)scale(0.996264)" xlink:href="#CMR17-48"/>
       <use transform="translate(118.478131 0)scale(0.996264)" xlink:href="#CMR17-56"/>
      </g>
     </g>
    </g>
    <g id="ytick_6">
     <g id="line2d_12">
      <g>
       <use style="stroke:#000000;stroke-width:0.8;" x="57.6" xlink:href="#m26ddb78d02" y="97.486944"/>
      </g>
     </g>
     <g id="text_12">
      <!-- $\mathdefault{0.10}$ -->
      <g transform="translate(32.888586 100.946193)scale(0.1 -0.1)">
       <use transform="scale(0.996264)" xlink:href="#CMR17-48"/>
       <use transform="translate(45.690477 0)scale(0.996264)" xlink:href="#CMMI12-58"/>
       <use transform="translate(72.787654 0)scale(0.996264)" xlink:href="#CMR17-49"/>
       <use transform="translate(118.478131 0)scale(0.996264)" xlink:href="#CMR17-48"/>
      </g>
     </g>
    </g>
    <g id="ytick_7">
     <g id="line2d_13">
      <g>
       <use style="stroke:#000000;stroke-width:0.8;" x="57.6" xlink:href="#m26ddb78d02" y="57.815637"/>
      </g>
     </g>
     <g id="text_13">
      <!-- $\mathdefault{0.12}$ -->
      <g transform="translate(32.888586 61.274887)scale(0.1 -0.1)">
       <use transform="scale(0.996264)" xlink:href="#CMR17-48"/>
       <use transform="translate(45.690477 0)scale(0.996264)" xlink:href="#CMMI12-58"/>
       <use transform="translate(72.787654 0)scale(0.996264)" xlink:href="#CMR17-49"/>
       <use transform="translate(118.478131 0)scale(0.996264)" xlink:href="#CMR17-50"/>
      </g>
     </g>
    </g>
   </g>
   <g id="line2d_14">
    <path clip-path="url(#p57f2f5b344)" d="M 73.832727 97.486944 
L 75.533917 97.574276 
L 75.572876 98.768501 
L 75.641053 111.858035 
L 75.709231 127.28271 
L 75.751436 112.135982 
L 75.793641 101.119481 
L 75.858572 111.79714 
L 75.946228 128.787611 
L 75.988433 117.238797 
L 76.082583 92.497794 
L 76.141021 93.712111 
L 76.407238 105.990266 
L 76.524113 112.757781 
L 76.566319 110.267713 
L 76.673455 98.101552 
L 76.757865 99.019831 
L 77.030575 101.524423 
L 77.121478 101.674651 
L 77.303284 105.236337 
L 77.364969 103.542464 
L 77.475351 99.832187 
L 77.537036 100.049763 
L 77.634432 100.596299 
L 77.673391 100.257845 
L 77.774033 95.631184 
L 77.832471 92.80876 
L 77.887663 95.438109 
L 78.024017 101.613642 
L 78.072716 100.945354 
L 78.270755 96.638022 
L 78.355165 98.229497 
L 78.514246 100.902447 
L 78.553204 101.0407 
L 78.653847 99.459812 
L 78.657094 99.565153 
L 78.718778 98.16302 
L 78.722025 98.326789 
L 78.744751 98.063774 
L 78.825914 98.464996 
L 78.829161 98.285524 
L 78.842147 98.282351 
L 78.962269 99.657314 
L 78.965516 99.559133 
L 79.040186 100.534103 
L 79.043433 100.429909 
L 79.105117 100.81498 
L 79.157062 100.605855 
L 79.316143 98.707668 
L 79.319389 98.739055 
L 79.37458 98.255457 
L 79.377827 98.285836 
L 79.407046 98.154909 
L 79.46873 98.497997 
L 79.471977 98.498131 
L 79.644044 99.736191 
L 79.64729 99.734761 
L 79.7317 99.660319 
L 79.962205 99.197848 
L 79.975191 99.213503 
L 80.082327 99.539811 
L 80.1083 99.496409 
L 80.260887 98.669431 
L 80.26738 98.670781 
L 80.406982 99.139022 
L 80.410228 99.100256 
L 80.491392 99.405004 
L 80.494639 99.358892 
L 80.530351 99.434051 
L 80.598528 99.352159 
L 80.608268 99.405006 
L 80.611514 99.355531 
L 80.705664 99.559161 
L 80.708911 99.513198 
L 80.82254 99.605369 
L 80.825786 99.556982 
L 80.919936 99.767333 
L 80.923183 99.722341 
L 80.971881 99.821668 
L 81.027072 99.690238 
L 81.030319 99.731609 
L 81.176413 99.070533 
L 81.215372 99.021557 
L 81.296535 99.201806 
L 81.299782 99.160041 
L 81.393932 99.358673 
L 81.397178 99.311157 
L 81.413411 99.360781 
L 81.501068 99.252706 
L 81.504314 99.297333 
L 81.546519 99.23402 
L 81.608204 99.339359 
L 81.61145 99.300125 
L 81.751052 99.787572 
L 81.754298 99.756208 
L 81.835462 100.039413 
L 81.838708 100.002889 
L 81.87442 100.072552 
L 81.942598 99.896074 
L 81.945844 99.924101 
L 82.007529 99.575073 
L 82.010775 99.596167 
L 82.150377 98.991913 
L 82.153623 99.027172 
L 82.169856 98.984799 
L 82.25102 99.150671 
L 82.254266 99.122028 
L 82.380881 99.365469 
L 82.468538 99.326763 
L 82.393868 99.368335 
L 82.494511 99.335253 
L 82.647098 99.830904 
L 82.650345 99.81415 
L 82.705536 100.067915 
L 82.708783 100.046392 
L 82.763974 100.15645 
L 82.819165 100.044676 
L 82.822412 100.065838 
L 82.890589 99.793051 
L 82.893836 99.809137 
L 83.046423 99.265649 
L 83.04967 99.286962 
L 83.12434 99.180893 
L 83.147066 99.212853 
L 83.150313 99.187942 
L 83.237969 99.35693 
L 83.241216 99.338063 
L 83.348352 99.504335 
L 83.367831 99.498303 
L 83.455488 99.419095 
L 83.48146 99.436738 
L 83.6795 100.220766 
L 83.705472 100.246843 
L 83.890525 99.681231 
L 83.893772 99.691836 
L 83.948963 99.521816 
L 83.952209 99.535816 
L 84.078825 99.393043 
L 84.198947 99.467817 
L 84.202193 99.451119 
L 84.296343 99.537463 
L 84.29959 99.520006 
L 84.419712 99.583352 
L 84.422959 99.568784 
L 84.491136 99.734044 
L 84.494383 99.726698 
L 84.666449 100.266796 
L 84.679436 100.271724 
L 84.845009 99.949982 
L 84.848256 99.958448 
L 84.90994 99.821802 
L 84.913187 99.83276 
L 85.033309 99.742588 
L 85.036556 99.758434 
L 85.039802 99.743852 
L 85.133952 99.827886 
L 85.137199 99.816813 
L 85.283293 100.03131 
L 85.28654 100.021796 
L 85.354717 100.150106 
L 85.357964 100.14265 
L 85.575482 100.811822 
L 85.578729 100.806565 
L 85.640413 100.915285 
L 85.64366 100.904446 
L 85.679372 100.922141 
L 85.741056 100.862864 
L 85.744303 100.871977 
L 85.877411 100.766877 
L 86.023505 100.887253 
L 86.026752 100.879889 
L 86.094929 100.995183 
L 86.098176 100.989479 
L 86.322188 101.584182 
L 86.3579 101.715041 
L 86.601391 102.715877 
L 86.604637 102.712842 
L 86.653335 102.80494 
L 86.656582 102.79955 
L 86.828649 103.062137 
L 86.831895 103.059473 
L 86.8741 103.161557 
L 86.877347 103.159823 
L 87.114345 103.806134 
L 87.163043 103.978089 
L 87.594833 106.107311 
L 87.675997 106.339977 
L 88.075322 107.800438 
L 88.175965 108.23592 
L 88.646714 110.712139 
L 88.766836 111.16726 
L 89.231092 113.278652 
L 89.455104 114.550921 
L 89.779759 116.052801 
L 90.289466 118.464039 
L 90.851119 121.305373 
L 91.458223 124.330722 
L 92.013382 127.227612 
L 93.136687 133.249064 
L 94.669056 142.168823 
L 97.86041 165.44452 
L 100.149225 187.211332 
L 101.35694 200.654243 
L 102.447779 214.209287 
L 103.723671 231.636398 
L 107.966906 295.146055 
L 108.061056 294.257932 
L 110.593361 261.760018 
L 111.963404 249.259811 
L 112.577001 245.242037 
L 113.49902 241.179035 
L 114.080151 239.97436 
L 114.398313 239.644026 
L 114.609338 239.705217 
L 115.239168 240.35736 
L 115.544343 241.084873 
L 116.242351 243.607486 
L 116.765044 246.285904 
L 118.031197 254.353509 
L 119.264884 263.310493 
L 121.310208 276.785509 
L 122.485457 282.17318 
L 123.452928 285.175289 
L 124.439878 287.045853 
L 125.520977 288.03121 
L 126.417024 288.317711 
L 127.660451 288.117481 
L 128.092241 288.036317 
L 128.40391 287.879455 
L 130.637533 286.358225 
L 133.406836 283.512522 
L 135.474886 280.950509 
L 136.984529 279.205899 
L 137.718249 278.643364 
L 138.21497 278.348878 
L 139.338275 278.25277 
L 140.302499 278.859676 
L 141.26023 280.217464 
L 142.396521 282.800803 
L 146.253417 293.492167 
L 146.970903 294.684603 
L 147.78254 295.411602 
L 148.243549 295.475058 
L 148.905844 295.389629 
L 149.629824 294.869817 
L 150.077847 294.34948 
L 151.337507 292.403557 
L 155.626193 285.212631 
L 157.093632 283.735676 
L 157.853324 283.209055 
L 159.3792 282.587383 
L 159.931113 282.518415 
L 161.836835 282.540163 
L 164.453551 283.352728 
L 165.115846 283.737704 
L 166.823529 284.986126 
L 170.297332 288.06897 
L 171.225844 288.568619 
L 171.855674 288.737277 
L 172.709516 288.795094 
L 173.810095 288.508442 
L 175.021056 287.822133 
L 176.296948 286.848759 
L 180.072681 284.090195 
L 181.166767 283.69537 
L 182.348509 283.538462 
L 183.93607 283.69844 
L 184.942499 283.964246 
L 186.273583 284.414722 
L 190.893417 286.058647 
L 193.191971 286.593802 
L 195.785961 286.843236 
L 197.078086 286.747817 
L 199.412352 286.36047 
L 200.477219 285.826837 
L 201.571305 285.279856 
L 202.227107 285.184933 
L 203.39911 285.018833 
L 203.895831 284.614231 
L 204.519168 283.793242 
L 205.194449 283.008999 
L 205.554816 282.890664 
L 205.834019 283.031457 
L 206.16192 283.483402 
L 206.681367 284.653553 
L 207.22354 285.711457 
L 207.42158 285.730312 
L 207.60014 285.47108 
L 207.85337 284.631855 
L 208.252695 282.398708 
L 209.359767 275.864706 
L 209.642217 275.351853 
L 209.791558 275.403418 
L 209.963625 275.769376 
L 210.213609 276.917065 
L 210.554496 279.670028 
L 211.080436 286.059025 
L 211.431063 289.162415 
L 211.463529 289.151647 
L 211.492748 289.077728 
L 211.60313 288.264316 
L 211.840128 284.444264 
L 212.531642 268.441317 
L 213.223156 254.80286 
L 213.606249 250.897865 
L 213.84 250.186613 
L 213.937396 250.273891 
L 214.086737 250.834555 
L 214.323735 252.737778 
L 214.664623 257.52065 
L 215.138618 267.739316 
L 215.628847 277.103845 
L 215.651572 277.12752 
L 215.693777 276.991444 
L 215.79442 275.678372 
L 215.989213 269.576456 
L 216.408017 247.805355 
L 217.284585 203.171729 
L 217.680663 193.679546 
L 218.323479 184.711233 
L 218.544244 183.602796 
L 218.550737 183.60496 
L 218.618915 183.767292 
L 218.748777 184.82911 
L 218.956556 188.720527 
L 219.274717 199.587944 
L 219.904547 221.267784 
L 219.924026 221.291726 
L 219.962985 221.121108 
L 220.060381 219.352151 
L 220.238941 211.112851 
L 220.573335 183.0573 
L 221.154467 137.577134 
L 221.946624 105.835201 
L 222.300497 98.017686 
L 222.423866 97.375046 
L 222.466071 97.457952 
L 222.563468 98.298406 
L 222.732288 102.124985 
L 222.979025 113.721858 
L 223.368611 144.701048 
L 223.803648 173.764853 
L 223.868579 174.451371 
L 223.92377 173.963442 
L 224.037399 169.896306 
L 224.264657 151.858258 
L 224.904227 99.310773 
L 225.637946 73.755104 
L 226.063244 64.775121 
L 226.222324 63.823485 
L 226.251543 63.867068 
L 226.335953 64.45856 
L 226.482048 67.433981 
L 226.689827 77.019883 
L 226.991756 103.12837 
L 227.543668 149.986286 
L 227.582627 150.287513 
L 227.634572 149.745007 
L 227.748201 144.999387 
L 228.001431 122.581889 
L 228.452701 87.438301 
L 228.884492 73.406724 
L 229.550033 58.014304 
L 229.890921 53.961983 
L 229.942865 53.873549 
L 229.991564 53.990286 
L 230.092207 54.987779 
L 230.248041 59.199255 
L 230.462313 72.103533 
L 230.822679 110.712143 
L 231.163567 137.385693 
L 231.209018 137.826298 
L 231.260963 137.248734 
L 231.374592 132.271868 
L 231.647302 107.739906 
L 232.046627 78.888628 
L 232.403747 68.999577 
L 233.108247 56.199816 
L 233.413423 53.607427 
L 233.458874 53.570307 
L 233.504326 53.662014 
L 233.608215 54.461068 
L 233.764049 57.762078 
L 233.965335 67.622932 
L 234.241292 94.121367 
L 234.74126 140.41858 
L 234.773725 140.642437 
L 234.822423 140.086541 
L 234.936052 134.956509 
L 235.202269 109.930531 
L 235.621073 77.360597 
L 235.984687 66.568075 
L 236.51712 56.324338 
L 236.715159 55.390612 
L 236.724899 55.39334 
L 236.799569 55.558551 
L 236.942417 56.577305 
L 237.143703 59.864694 
L 237.357975 67.531605 
L 237.601466 85.715857 
L 238.270255 148.518743 
L 238.331939 147.649175 
L 238.458554 140.799391 
L 238.773469 107.779702 
L 239.156561 77.420419 
L 239.461737 69.205778 
L 239.844829 64.179575 
L 239.968198 63.832217 
L 240.007156 63.877131 
L 240.117539 64.376608 
L 240.328564 66.594753 
L 240.588288 71.772164 
L 240.8123 81.30639 
L 241.07527 103.736508 
L 241.68562 158.947316 
L 241.688867 158.944931 
L 241.724579 158.597063 
L 241.821975 154.789366 
L 242.036247 135.534159 
L 242.620625 82.854177 
L 242.912815 75.080367 
L 243.227729 71.687743 
L 243.318633 71.507631 
L 243.367331 71.579563 
L 243.484207 72.208269 
L 243.698479 74.824224 
L 243.945216 80.73381 
L 244.178967 92.548848 
L 244.484143 121.568298 
L 245.00359 168.93808 
L 245.042548 169.260068 
L 245.094493 168.63205 
L 245.208122 163.318125 
L 245.467846 137.990154 
L 245.993786 91.016295 
L 246.285975 81.910233 
L 246.522973 79.833764 
L 246.558685 79.821675 
L 246.60089 79.906034 
L 246.717766 80.685945 
L 246.922298 83.864554 
L 247.188515 91.828055 
L 247.457978 107.424631 
L 247.818345 143.773982 
L 248.298833 187.566969 
L 248.347532 188.113391 
L 248.402723 187.452469 
L 248.519599 181.885836 
L 248.789062 155.489738 
L 249.344221 105.237194 
L 249.649396 94.685419 
L 249.847436 93.041688 
L 249.853929 93.04418 
L 249.915613 93.230168 
L 250.048721 94.572817 
L 250.262993 99.350204 
L 250.522717 110.661379 
L 250.834385 135.368007 
L 251.587584 205.361587 
L 251.639529 204.751257 
L 251.753158 199.389893 
L 252.019375 173.389334 
L 252.610246 119.086432 
L 252.918668 108.102394 
L 253.084241 106.76377 
L 253.106967 106.79293 
L 253.188131 107.287012 
L 253.347212 109.970497 
L 253.580963 118.290488 
L 253.876399 137.806706 
L 254.28871 182.273684 
L 254.717254 221.221601 
L 254.756212 221.612503 
L 254.808157 220.956424 
L 254.925033 215.022763 
L 255.217222 185.250959 
L 255.785367 133.08123 
L 256.103529 120.898095 
L 256.275596 119.305747 
L 256.298321 119.333249 
L 256.376239 119.83642 
L 256.52558 122.583972 
L 256.749591 131.42743 
L 257.048273 153.274234 
L 257.522269 207.959325 
L 257.840431 232.740037 
L 257.85991 232.842602 
L 257.902115 232.361318 
L 258.006004 227.425108 
L 258.268975 201.182612 
L 258.859846 146.311685 
L 259.1845 133.662866 
L 259.343581 132.161683 
L 259.3728 132.210071 
L 259.45721 132.909978 
L 259.616291 136.504023 
L 259.856535 147.768286 
L 260.184436 174.994695 
L 260.89543 242.370396 
L 260.940881 241.780558 
L 261.051264 236.223424 
L 261.356439 205.907784 
L 261.892119 159.989958 
L 262.213527 148.2148 
L 262.362868 146.898308 
L 262.395334 146.96145 
L 262.482991 147.763298 
L 262.645318 151.730046 
L 262.892055 164.146828 
L 263.242682 194.789569 
L 263.859526 249.847531 
L 263.869265 249.822023 
L 263.92121 248.84374 
L 264.054319 240.940096 
L 265.115939 163.222651 
L 265.291252 161.492504 
L 265.310732 161.517184 
L 265.382156 161.982575 
L 265.525004 164.706274 
L 265.752262 174.076382 
L 266.080163 198.170519 
L 266.765184 254.033041 
L 266.804143 253.693965 
L 266.904785 249.759805 
L 267.171002 227.740179 
L 267.752134 183.714311 
L 268.063802 174.126058 
L 268.187171 173.28905 
L 268.229376 173.389929 
L 268.330019 174.437435 
L 268.508579 179.145939 
L 268.774796 192.993867 
L 269.1936 228.535156 
L 269.599418 256.878052 
L 269.622144 256.99532 
L 269.667596 256.529853 
L 269.777978 251.937501 
L 270.089647 226.405784 
L 270.618833 189.41319 
L 270.920762 180.857977 
L 271.034391 180.166356 
L 271.079843 180.272865 
L 271.183732 181.340145 
L 271.365539 185.990798 
L 271.638249 199.593529 
L 272.096012 235.996872 
L 272.436899 255.609626 
L 272.459625 255.712924 
L 272.505076 255.313266 
L 272.612212 251.452581 
L 272.888169 231.042628 
L 273.475793 191.084167 
L 273.784215 182.607976 
L 273.897844 181.942758 
L 273.943296 182.052511 
L 274.047185 183.120427 
L 274.228992 187.770505 
L 274.501702 201.384251 
L 274.962711 237.987201 
L 275.290612 256.215545 
L 275.306845 256.274012 
L 275.34905 255.93309 
L 275.45294 252.299099 
L 275.71591 232.855722 
L 276.32626 190.457206 
L 276.634682 181.783365 
L 276.758051 181.026585 
L 276.797009 181.111635 
L 276.894406 182.009538 
L 277.069719 186.115347 
L 277.335936 198.443061 
L 277.761233 230.447617 
L 278.150819 253.837367 
L 278.180038 254.005176 
L 278.231983 253.516882 
L 278.348858 249.084766 
L 278.650787 226.420185 
L 279.215686 188.623042 
L 279.524108 180.081326 
L 279.647476 179.330877 
L 279.686435 179.415587 
L 279.783831 180.314087 
L 279.959145 184.456042 
L 280.222115 196.833756 
L 280.634426 228.680617 
L 281.040244 254.501748 
L 281.069463 254.654121 
L 281.118161 254.153197 
L 281.231791 249.674434 
L 281.533719 226.178168 
L 282.088879 188.010454 
L 282.400547 179.166569 
L 282.527162 178.380564 
L 282.566121 178.465922 
L 282.663517 179.360547 
L 282.838831 183.464583 
L 283.101801 195.67255 
L 283.520605 227.418846 
L 283.926423 252.530407 
L 283.958889 252.711214 
L 284.007587 252.240072 
L 284.121216 247.992578 
L 284.413405 226.103435 
L 284.988044 187.195895 
L 285.296465 178.60673 
L 285.419834 177.854536 
L 285.458793 177.940151 
L 285.556189 178.843853 
L 285.731503 183.006849 
L 285.994473 195.448122 
L 286.406784 227.443198 
L 286.815849 253.469992 
L 286.841821 253.609724 
L 286.890519 253.152985 
L 287.004148 248.783017 
L 287.299584 226.014256 
L 287.861236 187.418548 
L 288.169658 178.744528 
L 288.293027 177.988137 
L 288.331985 178.070637 
L 288.429382 178.956794 
L 288.604695 183.033954 
L 288.867665 195.173582 
L 289.28647 226.77664 
L 289.692288 251.714991 
L 289.724753 251.910095 
L 289.776698 251.415397 
L 289.893574 247.011226 
L 290.192256 224.714342 
L 290.757155 187.063045 
L 291.065577 178.683568 
L 291.182452 178.002193 
L 291.224657 178.097927 
L 291.3253 179.070125 
L 291.50386 183.431359 
L 291.770077 196.261088 
L 292.201868 229.981201 
L 292.578467 252.815346 
L 292.604439 252.956372 
L 292.653137 252.518885 
L 292.76352 248.433539 
L 293.045969 227.197788 
L 293.627101 187.395334 
L 293.935523 178.83975 
L 294.055645 178.114399 
L 294.09785 178.206998 
L 294.198493 179.162975 
L 294.377053 183.442042 
L 294.646516 196.156194 
L 295.0848 229.503605 
L 295.458153 251.269343 
L 295.487372 251.43373 
L 295.539316 250.962385 
L 295.652945 246.823401 
L 295.938641 225.932414 
L 296.52302 186.858781 
L 296.831441 178.492237 
L 296.948317 177.804079 
L 296.990522 177.895704 
L 297.091165 178.854585 
L 297.269725 183.181351 
L 297.535942 195.947255 
L 297.964486 229.343226 
L 298.344332 252.6432 
L 298.373551 252.81062 
L 298.422249 252.357525 
L 298.535878 248.065091 
L 298.828067 225.838959 
L 299.396212 186.953347 
L 299.704634 178.27664 
L 299.831249 177.492465 
L 299.870208 177.577327 
L 299.967604 178.468071 
L 300.142918 182.554194 
L 300.405888 194.711133 
L 300.824692 226.341711 
L 301.230511 251.420252 
L 301.262976 251.631609 
L 301.314921 251.160812 
L 301.42855 246.965627 
L 301.717492 225.530927 
L 302.298624 186.291353 
L 302.607046 177.741419 
L 302.730415 176.989308 
L 302.769373 177.073486 
L 302.866769 177.971146 
L 303.042083 182.117371 
L 303.305053 194.534106 
L 303.717364 226.556424 
L 304.126429 252.895998 
L 304.155648 253.079426 
L 304.207593 252.574834 
L 304.324468 247.934808 
L 304.63289 223.858327 
L 305.181556 186.440433 
L 305.489978 177.799598 
L 305.613347 177.045349 
L 305.652305 177.12816 
L 305.749702 178.015725 
L 305.925015 182.102398 
L 306.187985 194.285048 
L 306.603543 225.822027 
L 307.015855 251.636667 
L 307.04832 251.8411 
L 307.100265 251.350725 
L 307.21714 246.913025 
L 307.515823 224.411672 
L 308.080721 186.394475 
L 308.389143 177.844071 
L 308.512512 177.098587 
L 308.551471 177.185675 
L 308.648867 178.092583 
L 308.82418 182.263219 
L 309.087151 194.730825 
L 309.499462 226.809273 
L 309.908527 253.029051 
L 309.937745 253.193634 
L 309.986444 252.719946 
L 310.100073 248.322827 
L 310.395508 225.519445 
L 310.957161 186.90321 
L 311.265583 178.190247 
L 311.388951 177.411238 
L 311.431156 177.500154 
L 311.531799 178.450415 
L 311.710359 182.735889 
L 311.976576 195.327921 
L 312.40512 228.166845 
L 312.791459 251.683579 
L 312.823924 251.888456 
L 312.875869 251.402539 
L 312.992745 246.989265 
L 313.291427 224.581241 
L 313.856326 186.667149 
L 314.164748 178.16062 
L 314.28487 177.431901 
L 314.327075 177.524729 
L 314.427718 178.49079 
L 314.606278 182.847445 
L 314.872495 195.70582 
L 315.297792 229.112119 
L 315.684131 253.079905 
L 315.710103 253.219652 
L 315.758801 252.76781 
L 315.869184 248.605216 
L 316.15488 226.832065 
L 316.729519 187.1156 
L 317.03794 178.370343 
L 317.164556 177.573557 
L 317.203514 177.655808 
L 317.300911 178.541994 
L 317.476224 182.625224 
L 317.739194 194.789476 
L 318.154752 226.200623 
L 318.563817 251.672738 
L 318.599529 251.891142 
L 318.648227 251.427428 
L 318.761856 247.23501 
L 319.050799 225.78874 
L 319.63193 186.612224 
L 319.940352 178.141809 
L 320.060474 177.427022 
L 320.102679 177.524917 
L 320.203322 178.503257 
L 320.381882 182.88088 
L 320.648099 195.763644 
L 321.073396 229.186876 
L 321.456489 253.057148 
L 321.485708 253.22274 
L 321.534406 252.753531 
L 321.648035 248.376613 
L 321.943471 225.631893 
L 322.505123 187.027052 
L 322.813545 178.285731 
L 322.94016 177.491559 
L 322.979119 177.574661 
L 323.076515 178.462843 
L 323.251828 182.54848 
L 323.514799 194.715335 
L 323.930356 226.154553 
L 324.339421 251.682615 
L 324.375133 251.904864 
L 324.423831 251.445111 
L 324.53746 247.255184 
L 324.826403 225.784302 
L 325.407535 186.556613 
L 325.715956 178.066999 
L 325.836079 177.343379 
L 325.878284 177.438213 
L 325.978927 178.40974 
L 326.157487 182.77824 
L 326.423703 195.655991 
L 326.849001 229.099084 
L 327.23534 253.099617 
L 327.261312 253.238608 
L 327.31001 252.783641 
L 327.423639 248.428648 
L 327.715828 225.957449 
L 328.280727 187.023211 
L 328.589149 178.257833 
L 328.715764 177.45489 
L 328.754723 177.535569 
L 328.852119 178.418398 
L 329.027433 182.49685 
L 329.290403 194.655861 
L 329.705961 226.092968 
L 330.118272 251.723885 
L 330.150737 251.913863 
L 330.199436 251.46468 
L 330.313065 247.29407 
L 330.598761 226.110261 
L 331.183139 186.589454 
L 331.491561 178.0959 
L 331.611683 177.371807 
L 331.653888 177.466327 
L 331.754531 178.43664 
L 331.933091 182.801553 
L 332.199308 195.673252 
L 332.624605 229.105917 
L 333.010944 253.09203 
L 333.036916 253.230873 
L 333.085615 252.776294 
L 333.199244 248.425238 
L 333.491433 225.971174 
L 334.056332 187.063036 
L 334.364753 178.312743 
L 334.491369 177.515105 
L 334.530327 177.597229 
L 334.627724 178.483321 
L 334.803037 182.566962 
L 335.066007 194.733249 
L 335.481565 226.160549 
L 335.89063 251.673511 
L 335.926342 251.895403 
L 335.97504 251.435677 
L 336.088669 247.248329 
L 336.377612 225.795732 
L 336.958743 186.601307 
L 337.267165 178.13022 
L 337.387287 177.415557 
L 337.429492 177.513545 
L 337.530135 178.492278 
L 337.708695 182.871496 
L 337.974912 195.758781 
L 338.400209 229.188464 
L 338.783302 253.052559 
L 338.812521 253.217177 
L 338.861219 252.74645 
L 338.974848 248.367063 
L 339.270284 225.622928 
L 339.831936 187.035811 
L 340.140358 178.308967 
L 340.266973 177.520911 
L 340.305932 177.60595 
L 340.403328 178.499143 
L 340.578641 182.594358 
L 340.841612 194.774582 
L 341.257169 226.21427 
L 341.666234 251.674317 
L 341.701946 251.887432 
L 341.750644 251.416146 
L 341.864273 247.207026 
L 342.153216 225.734143 
L 342.734348 186.55903 
L 343.042769 178.101321 
L 343.162892 177.390339 
L 343.205097 177.489584 
L 343.30574 178.471493 
L 343.4843 182.857574 
L 343.750516 195.757407 
L 344.17906 229.484912 
L 344.558906 253.053598 
L 344.588125 253.21528 
L 344.636823 252.739435 
L 344.750452 248.348814 
L 345.045888 225.588895 
L 345.60754 187.001386 
L 345.915962 178.276672 
L 346.042577 177.489455 
L 346.081536 177.574846 
L 346.178932 178.469206 
L 346.354246 182.567573 
L 346.617216 194.753487 
L 347.032774 226.203208 
L 347.441839 251.677025 
L 347.477551 251.890223 
L 347.526249 251.418594 
L 347.639878 247.20733 
L 347.92882 225.72827 
L 348.509952 186.541425 
L 348.818374 178.08378 
L 348.938496 177.373222 
L 348.980701 177.47253 
L 349.081344 178.454365 
L 349.259904 182.839865 
L 349.526121 195.740211 
L 349.951418 229.19324 
L 350.334511 253.055786 
L 350.363729 253.218131 
L 350.412428 252.743145 
L 350.526057 248.353278 
L 350.821492 225.590905 
L 351.383145 186.999379 
L 351.691567 178.2756 
L 351.818182 177.488685 
L 351.85714 177.574131 
L 351.954537 178.468595 
L 352.12985 182.567392 
L 352.39282 194.75568 
L 352.811625 226.484298 
L 353.217443 251.679349 
L 353.249908 251.89226 
L 353.301853 251.419465 
L 353.415482 247.206039 
L 353.704425 225.724809 
L 354.285556 186.545384 
L 354.593978 178.090495 
L 354.7141 177.381914 
L 354.756305 177.482058 
L 354.856948 178.466076 
L 355.035508 182.855465 
L 355.301725 195.759744 
L 355.730269 229.495653 
L 356.110115 253.058032 
L 356.139334 253.218114 
L 356.188032 252.739513 
L 356.301661 248.343184 
L 356.597097 225.578001 
L 357.158749 186.998691 
L 357.467171 178.28284 
L 357.593786 177.49941 
L 357.632745 177.58593 
L 357.730141 178.483022 
L 357.905455 182.586095 
L 358.168425 194.779375 
L 358.587229 226.511224 
L 358.993047 251.681097 
L 359.025513 251.890615 
L 359.077457 251.412709 
L 359.191087 247.190842 
L 359.480029 225.704006 
L 360.057914 186.678452 
L 360.366336 178.132744 
L 360.489705 177.387647 
L 360.528663 177.474474 
L 360.62606 178.379535 
L 360.801373 182.541245 
L 361.064343 194.979956 
L 361.476655 226.973782 
L 361.885719 253.059702 
L 361.914938 253.216507 
L 361.963636 252.732606 
L 362.077265 248.326411 
L 362.375948 225.277031 
L 362.934353 186.987188 
L 363.242775 178.278905 
L 363.366144 177.498163 
L 363.408349 177.585939 
L 363.505745 178.485492 
L 363.681059 182.593286 
L 363.944029 194.793275 
L 364.362833 226.530304 
L 364.768652 251.68402 
L 364.801117 251.890626 
L 364.853062 251.408067 
L 364.969937 247.002587 
L 365.26862 224.601923 
L 365.836765 186.525414 
L 366.145187 178.086536 
L 366.262063 177.383195 
L 366.307514 177.485476 
L 366.408157 178.473876 
L 366.586717 182.871312 
L 366.852934 195.788517 
L 367.281478 229.535752 
L 367.661324 253.062675 
L 367.690543 253.217492 
L 367.739241 252.730239 
L 367.85287 248.31721 
L 368.151552 225.260766 
L 368.709958 186.976055 
L 369.01838 178.272638 
L 369.141748 177.493744 
L 369.183953 177.582138 
L 369.28135 178.483118 
L 369.456663 182.593635 
L 369.719633 194.79846 
L 370.138438 226.541319 
L 370.544256 251.686997 
L 370.576721 251.892002 
L 370.628666 251.406779 
L 370.745542 246.99575 
L 371.044224 224.588986 
L 371.612369 186.518041 
L 371.920791 178.082564 
L 372.037667 177.381025 
L 372.083119 177.484102 
L 372.183761 178.4744 
L 372.362321 182.875297 
L 372.628538 195.796796 
L 373.057082 229.548016 
L 373.436928 253.064955 
L 373.466147 253.218105 
L 373.514845 252.728083 
L 373.628474 248.309616 
L 373.927156 225.248406 
L 374.485562 186.969805 
L 374.793984 178.271638 
L 374.917353 177.494955 
L 374.959558 177.584114 
L 375.060201 178.533816 
L 375.238761 182.814966 
L 375.504977 195.396504 
L 375.933521 228.20812 
L 376.31986 251.68907 
L 376.352326 251.891975 
L 376.404271 251.403497 
L 376.521146 246.986631 
L 376.819828 224.575112 
L 377.384727 186.65152 
L 377.693149 178.12216 
L 377.813271 177.383457 
L 377.855476 177.47284 
L 377.952873 178.383378 
L 378.128186 182.555139 
L 378.391156 195.008903 
L 378.803468 227.018415 
L 379.212532 253.066724 
L 379.241751 253.217534 
L 379.290449 252.723702 
L 379.404079 248.298071 
L 379.702761 225.231899 
L 380.261167 186.962573 
L 380.569588 178.270848 
L 380.692957 177.49674 
L 380.735162 177.586795 
L 380.835805 178.538679 
L 381.014365 182.823832 
L 381.280582 195.410982 
L 381.709126 228.22643 
L 382.095465 251.691339 
L 382.12793 251.891607 
L 382.179875 251.39898 
L 382.296751 246.974565 
L 382.595433 224.558005 
L 383.160332 186.642647 
L 383.468753 178.120298 
L 383.588876 177.384367 
L 383.631081 177.474689 
L 383.731724 178.434839 
L 383.907037 182.671158 
L 384.170007 195.220824 
L 384.588812 227.887163 
L 384.988137 253.068904 
L 385.017356 253.217309 
L 385.062807 252.781195 
L 385.17319 248.64469 
L 385.455639 227.156586 
L 386.036771 186.95336 
L 386.345193 178.26792 
L 386.468561 177.496256 
L 386.510767 177.587144 
L 386.611409 178.541026 
L 386.789969 182.829817 
L 387.056186 195.422531 
L 387.48473 228.242871 
L 387.871069 251.693748 
L 387.903535 251.891689 
L 387.955479 251.395347 
L 388.072355 246.963833 
L 388.371037 224.541057 
L 388.935936 186.633741 
L 389.244358 178.116669 
L 389.36448 177.383068 
L 389.406685 177.474261 
L 389.507328 178.436572 
L 389.682641 182.676736 
L 389.948858 195.43182 
L 390.370909 228.469262 
L 390.763741 253.071019 
L 390.789713 253.217686 
L 390.838412 252.777914 
L 390.948794 248.634713 
L 391.231244 227.140516 
L 391.812375 186.94443 
L 392.120797 178.264814 
L 392.244166 177.495478 
L 392.286371 177.587165 
L 392.387014 178.542963 
L 392.565574 182.835169 
L 392.831791 195.432818 
L 393.260335 228.25807 
L 393.646673 251.696015 
L 393.679139 251.891785 
L 393.731084 251.392024 
L 393.847959 246.954178 
L 394.146641 224.525882 
L 394.71154 186.625744 
L 395.019962 178.114384 
L 395.140084 177.382831 
L 395.182289 177.474751 
L 395.282932 178.438863 
L 395.461492 182.792289 
L 395.727709 195.644457 
L 396.153007 229.051119 
L 396.539345 253.072957 
L 396.565318 253.217743 
L 396.614016 252.774477 
L 396.724399 248.624655 
L 397.006848 227.124877 
L 397.584733 187.079291 
L 397.893155 178.30371 
L 398.01977 177.495745 
L 398.058729 177.574682 
L 398.156125 178.452685 
L 398.331439 182.52096 
L 398.487273 188.853856 
L 398.487273 188.853856 
" style="fill:none;stroke:#1f77b4;stroke-linecap:square;stroke-width:1.5;"/>
   </g>
   <g id="patch_3">
    <path d="M 57.6 307.584 
L 57.6 41.472 
" style="fill:none;stroke:#000000;stroke-linecap:square;stroke-linejoin:miter;stroke-width:0.8;"/>
   </g>
   <g id="patch_4">
    <path d="M 414.72 307.584 
L 414.72 41.472 
" style="fill:none;stroke:#000000;stroke-linecap:square;stroke-linejoin:miter;stroke-width:0.8;"/>
   </g>
   <g id="patch_5">
    <path d="M 57.6 307.584 
L 414.72 307.584 
" style="fill:none;stroke:#000000;stroke-linecap:square;stroke-linejoin:miter;stroke-width:0.8;"/>
   </g>
   <g id="patch_6">
    <path d="M 57.6 41.472 
L 414.72 41.472 
" style="fill:none;stroke:#000000;stroke-linecap:square;stroke-linejoin:miter;stroke-width:0.8;"/>
   </g>
  </g>
 </g>
 <defs>
  <clipPath id="p57f2f5b344">
   <rect height="266.112" width="357.12" x="57.6" y="41.472"/>
  </clipPath>
 </defs>
</svg>
