<?xml version="1.0" encoding="utf-8" standalone="no"?>
<!DOCTYPE svg PUBLIC "-//W3C//DTD SVG 1.1//EN"
  "http://www.w3.org/Graphics/SVG/1.1/DTD/svg11.dtd">
<!-- Created with matplotlib (https://matplotlib.org/) -->
<svg height="345.6pt" version="1.1" viewBox="0 0 460.8 345.6" width="460.8pt" xmlns="http://www.w3.org/2000/svg" xmlns:xlink="http://www.w3.org/1999/xlink">
 <metadata>
  <rdf:RDF xmlns:cc="http://creativecommons.org/ns#" xmlns:dc="http://purl.org/dc/elements/1.1/" xmlns:rdf="http://www.w3.org/1999/02/22-rdf-syntax-ns#">
   <cc:Work>
    <dc:type rdf:resource="http://purl.org/dc/dcmitype/StillImage"/>
    <dc:date>2020-07-27T11:56:40.497756</dc:date>
    <dc:format>image/svg+xml</dc:format>
    <dc:creator>
     <cc:Agent>
      <dc:title>Matplotlib v3.3.0, https://matplotlib.org/</dc:title>
     </cc:Agent>
    </dc:creator>
   </cc:Work>
  </rdf:RDF>
 </metadata>
 <defs>
  <style type="text/css">*{stroke-linecap:butt;stroke-linejoin:round;}</style>
 </defs>
 <g id="figure_1">
  <g id="patch_1">
   <path d="M 0 345.6 
L 460.8 345.6 
L 460.8 0 
L 0 0 
z
" style="fill:#ffffff;"/>
  </g>
  <g id="axes_1">
   <g id="patch_2">
    <path d="M 57.6 307.584 
L 414.72 307.584 
L 414.72 41.472 
L 57.6 41.472 
z
" style="fill:#ffffff;"/>
   </g>
   <g id="matplotlib.axis_1">
    <g id="xtick_1">
     <g id="line2d_1">
      <defs>
       <path d="M 0 0 
L 0 3.5 
" id="ma898af025b" style="stroke:#000000;stroke-width:0.8;"/>
      </defs>
      <g>
       <use style="stroke:#000000;stroke-width:0.8;" x="73.832727" xlink:href="#ma898af025b" y="307.584"/>
      </g>
     </g>
     <g id="text_1">
      <!-- $\mathdefault{0}$ -->
      <g transform="translate(71.34206 321.502498)scale(0.1 -0.1)">
       <defs>
        <path d="M 42 31.640625 
C 42 37.75 41.90625 48.125 37.703125 56.109375 
C 34 63.109375 28.09375 65.59375 22.90625 65.59375 
C 18.09375 65.59375 12 63.40625 8.203125 56.203125 
C 4.203125 48.71875 3.796875 39.4375 3.796875 31.640625 
C 3.796875 25.953125 3.90625 17.28125 7 9.671875 
C 11.296875 -0.609375 19 -2 22.90625 -2 
C 27.5 -2 34.5 -0.109375 38.59375 9.375 
C 41.59375 16.28125 42 24.359375 42 31.640625 
z
M 22.90625 -0.40625 
C 16.5 -0.40625 12.703125 5.078125 11.296875 12.6875 
C 10.203125 18.5625 10.203125 27.15625 10.203125 32.75 
C 10.203125 40.4375 10.203125 46.828125 11.5 52.921875 
C 13.40625 61.390625 19 64 22.90625 64 
C 27 64 32.296875 61.296875 34.203125 53.125 
C 35.5 47.4375 35.59375 40.734375 35.59375 32.75 
C 35.59375 26.25 35.59375 18.265625 34.40625 12.375 
C 32.296875 1.484375 26.40625 -0.40625 22.90625 -0.40625 
z
" id="CMR17-48"/>
       </defs>
       <use transform="scale(0.996264)" xlink:href="#CMR17-48"/>
      </g>
     </g>
    </g>
    <g id="xtick_2">
     <g id="line2d_2">
      <g>
       <use style="stroke:#000000;stroke-width:0.8;" x="114.414545" xlink:href="#ma898af025b" y="307.584"/>
      </g>
     </g>
     <g id="text_2">
      <!-- $\mathdefault{25000}$ -->
      <g transform="translate(101.961207 321.502498)scale(0.1 -0.1)">
       <defs>
        <path d="M 41.703125 15.453125 
L 39.90625 15.453125 
C 38.90625 8.375 38.09375 7.171875 37.703125 6.5625 
C 37.203125 5.765625 30 5.765625 28.59375 5.765625 
L 9.40625 5.765625 
C 13 9.671875 20 16.75 28.5 24.953125 
C 34.59375 30.734375 41.703125 37.53125 41.703125 47.421875 
C 41.703125 59.21875 32.296875 66 21.796875 66 
C 10.796875 66 4.09375 56.3125 4.09375 47.34375 
C 4.09375 43.4375 7 42.9375 8.203125 42.9375 
C 9.203125 42.9375 12.203125 43.546875 12.203125 47.03125 
C 12.203125 50.109375 9.59375 51 8.203125 51 
C 7.59375 51 7 50.90625 6.59375 50.703125 
C 8.5 59.21875 14.296875 63.40625 20.40625 63.40625 
C 29.09375 63.40625 34.796875 56.515625 34.796875 47.421875 
C 34.796875 38.734375 29.703125 31.25 24 24.75 
L 4.09375 2.28125 
L 4.09375 0 
L 39.296875 0 
z
" id="CMR17-50"/>
        <path d="M 11.40625 57.6875 
C 12.40625 57.28125 16.5 56 20.703125 56 
C 30 56 35.09375 61.109375 38 64.0625 
C 38 64.953125 38 65.5 37.40625 65.5 
C 37.296875 65.5 37.09375 65.5 36.296875 65.046875 
C 32.796875 63.40625 28.703125 62.078125 23.703125 62.078125 
C 20.703125 62.078125 16.203125 62.484375 11.296875 64.671875 
C 10.203125 65.171875 10 65.171875 9.90625 65.171875 
C 9.40625 65.171875 9.296875 65.0625 9.296875 63.078125 
L 9.296875 34.421875 
C 9.296875 32.640625 9.296875 32.140625 10.296875 32.140625 
C 10.796875 32.140625 11 32.34375 11.5 33.03125 
C 14.703125 37.515625 19.09375 39.40625 24.09375 39.40625 
C 27.59375 39.40625 35.09375 37.21875 35.09375 20.140625 
C 35.09375 16.953125 35.09375 11.171875 32.09375 6.578125 
C 29.59375 2.484375 25.703125 0.390625 21.40625 0.390625 
C 14.796875 0.390625 8.09375 5 6.296875 12.71875 
C 6.703125 12.609375 7.5 12.421875 7.90625 12.421875 
C 9.203125 12.421875 11.703125 13.125 11.703125 16.21875 
C 11.703125 18.90625 9.796875 20 7.90625 20 
C 5.59375 20 4.09375 18.59375 4.09375 15.796875 
C 4.09375 7.09375 11 -2 21.59375 -2 
C 31.90625 -2 41.703125 6.875 41.703125 19.75 
C 41.703125 31.71875 33.90625 41 24.203125 41 
C 19.09375 41 14.796875 39.109375 11.40625 35.53125 
z
" id="CMR17-53"/>
       </defs>
       <use transform="scale(0.996264)" xlink:href="#CMR17-50"/>
       <use transform="translate(45.690477 0)scale(0.996264)" xlink:href="#CMR17-53"/>
       <use transform="translate(91.380954 0)scale(0.996264)" xlink:href="#CMR17-48"/>
       <use transform="translate(137.071431 0)scale(0.996264)" xlink:href="#CMR17-48"/>
       <use transform="translate(182.761908 0)scale(0.996264)" xlink:href="#CMR17-48"/>
      </g>
     </g>
    </g>
    <g id="xtick_3">
     <g id="line2d_3">
      <g>
       <use style="stroke:#000000;stroke-width:0.8;" x="154.996364" xlink:href="#ma898af025b" y="307.584"/>
      </g>
     </g>
     <g id="text_3">
      <!-- $\mathdefault{50000}$ -->
      <g transform="translate(142.543026 321.502498)scale(0.1 -0.1)">
       <use transform="scale(0.996264)" xlink:href="#CMR17-53"/>
       <use transform="translate(45.690477 0)scale(0.996264)" xlink:href="#CMR17-48"/>
       <use transform="translate(91.380954 0)scale(0.996264)" xlink:href="#CMR17-48"/>
       <use transform="translate(137.071431 0)scale(0.996264)" xlink:href="#CMR17-48"/>
       <use transform="translate(182.761908 0)scale(0.996264)" xlink:href="#CMR17-48"/>
      </g>
     </g>
    </g>
    <g id="xtick_4">
     <g id="line2d_4">
      <g>
       <use style="stroke:#000000;stroke-width:0.8;" x="195.578182" xlink:href="#ma898af025b" y="307.584"/>
      </g>
     </g>
     <g id="text_4">
      <!-- $\mathdefault{75000}$ -->
      <g transform="translate(183.124844 321.502498)scale(0.1 -0.1)">
       <defs>
        <path d="M 45.09375 61.578125 
L 45.09375 63.765625 
L 21.59375 63.765625 
C 9.90625 63.765625 9.703125 65.078125 9.296875 67 
L 7.5 67 
L 4.59375 48.34375 
L 6.40625 48.34375 
C 6.703125 50.234375 7.40625 55.3125 8.59375 57.203125 
C 9.203125 58 16.59375 58 18.296875 58 
L 40.296875 58 
L 29.203125 41.578125 
C 21.796875 30.53125 16.703125 15.609375 16.703125 2.578125 
C 16.703125 1.390625 16.703125 -2 20.296875 -2 
C 23.90625 -2 23.90625 1.390625 23.90625 2.671875 
L 23.90625 7.265625 
C 23.90625 23.5625 26.703125 34.3125 31.296875 41.1875 
z
" id="CMR17-55"/>
       </defs>
       <use transform="scale(0.996264)" xlink:href="#CMR17-55"/>
       <use transform="translate(45.690477 0)scale(0.996264)" xlink:href="#CMR17-53"/>
       <use transform="translate(91.380954 0)scale(0.996264)" xlink:href="#CMR17-48"/>
       <use transform="translate(137.071431 0)scale(0.996264)" xlink:href="#CMR17-48"/>
       <use transform="translate(182.761908 0)scale(0.996264)" xlink:href="#CMR17-48"/>
      </g>
     </g>
    </g>
    <g id="xtick_5">
     <g id="line2d_5">
      <g>
       <use style="stroke:#000000;stroke-width:0.8;" x="236.16" xlink:href="#ma898af025b" y="307.584"/>
      </g>
     </g>
     <g id="text_5">
      <!-- $\mathdefault{100000}$ -->
      <g transform="translate(221.215994 321.502498)scale(0.1 -0.1)">
       <defs>
        <path d="M 26.59375 63.40625 
C 26.59375 65.5 26.5 65.5 25.09375 65.5 
C 21.203125 61.1875 15.296875 59.796875 9.703125 59.796875 
C 9.40625 59.796875 8.90625 59.796875 8.796875 59.5 
C 8.703125 59.296875 8.703125 59.09375 8.703125 57 
C 11.796875 57 17 57.59375 21 59.984375 
L 21 7.203125 
C 21 3.6875 20.796875 2.5 12.203125 2.5 
L 9.203125 2.5 
L 9.203125 0 
C 14 0 19 0 23.796875 0 
C 28.59375 0 33.59375 0 38.40625 0 
L 38.40625 2.5 
L 35.40625 2.5 
C 26.796875 2.5 26.59375 3.59375 26.59375 7.15625 
z
" id="CMR17-49"/>
       </defs>
       <use transform="scale(0.996264)" xlink:href="#CMR17-49"/>
       <use transform="translate(45.690477 0)scale(0.996264)" xlink:href="#CMR17-48"/>
       <use transform="translate(91.380954 0)scale(0.996264)" xlink:href="#CMR17-48"/>
       <use transform="translate(137.071431 0)scale(0.996264)" xlink:href="#CMR17-48"/>
       <use transform="translate(182.761908 0)scale(0.996264)" xlink:href="#CMR17-48"/>
       <use transform="translate(228.452386 0)scale(0.996264)" xlink:href="#CMR17-48"/>
      </g>
     </g>
    </g>
    <g id="xtick_6">
     <g id="line2d_6">
      <g>
       <use style="stroke:#000000;stroke-width:0.8;" x="276.741818" xlink:href="#ma898af025b" y="307.584"/>
      </g>
     </g>
     <g id="text_6">
      <!-- $\mathdefault{125000}$ -->
      <g transform="translate(261.797812 321.502498)scale(0.1 -0.1)">
       <use transform="scale(0.996264)" xlink:href="#CMR17-49"/>
       <use transform="translate(45.690477 0)scale(0.996264)" xlink:href="#CMR17-50"/>
       <use transform="translate(91.380954 0)scale(0.996264)" xlink:href="#CMR17-53"/>
       <use transform="translate(137.071431 0)scale(0.996264)" xlink:href="#CMR17-48"/>
       <use transform="translate(182.761908 0)scale(0.996264)" xlink:href="#CMR17-48"/>
       <use transform="translate(228.452386 0)scale(0.996264)" xlink:href="#CMR17-48"/>
      </g>
     </g>
    </g>
    <g id="xtick_7">
     <g id="line2d_7">
      <g>
       <use style="stroke:#000000;stroke-width:0.8;" x="317.323636" xlink:href="#ma898af025b" y="307.584"/>
      </g>
     </g>
     <g id="text_7">
      <!-- $\mathdefault{150000}$ -->
      <g transform="translate(302.379631 321.502498)scale(0.1 -0.1)">
       <use transform="scale(0.996264)" xlink:href="#CMR17-49"/>
       <use transform="translate(45.690477 0)scale(0.996264)" xlink:href="#CMR17-53"/>
       <use transform="translate(91.380954 0)scale(0.996264)" xlink:href="#CMR17-48"/>
       <use transform="translate(137.071431 0)scale(0.996264)" xlink:href="#CMR17-48"/>
       <use transform="translate(182.761908 0)scale(0.996264)" xlink:href="#CMR17-48"/>
       <use transform="translate(228.452386 0)scale(0.996264)" xlink:href="#CMR17-48"/>
      </g>
     </g>
    </g>
    <g id="xtick_8">
     <g id="line2d_8">
      <g>
       <use style="stroke:#000000;stroke-width:0.8;" x="357.905455" xlink:href="#ma898af025b" y="307.584"/>
      </g>
     </g>
     <g id="text_8">
      <!-- $\mathdefault{175000}$ -->
      <g transform="translate(342.961449 321.502498)scale(0.1 -0.1)">
       <use transform="scale(0.996264)" xlink:href="#CMR17-49"/>
       <use transform="translate(45.690477 0)scale(0.996264)" xlink:href="#CMR17-55"/>
       <use transform="translate(91.380954 0)scale(0.996264)" xlink:href="#CMR17-53"/>
       <use transform="translate(137.071431 0)scale(0.996264)" xlink:href="#CMR17-48"/>
       <use transform="translate(182.761908 0)scale(0.996264)" xlink:href="#CMR17-48"/>
       <use transform="translate(228.452386 0)scale(0.996264)" xlink:href="#CMR17-48"/>
      </g>
     </g>
    </g>
    <g id="xtick_9">
     <g id="line2d_9">
      <g>
       <use style="stroke:#000000;stroke-width:0.8;" x="398.487273" xlink:href="#ma898af025b" y="307.584"/>
      </g>
     </g>
     <g id="text_9">
      <!-- $\mathdefault{200000}$ -->
      <g transform="translate(383.543267 321.502498)scale(0.1 -0.1)">
       <use transform="scale(0.996264)" xlink:href="#CMR17-50"/>
       <use transform="translate(45.690477 0)scale(0.996264)" xlink:href="#CMR17-48"/>
       <use transform="translate(91.380954 0)scale(0.996264)" xlink:href="#CMR17-48"/>
       <use transform="translate(137.071431 0)scale(0.996264)" xlink:href="#CMR17-48"/>
       <use transform="translate(182.761908 0)scale(0.996264)" xlink:href="#CMR17-48"/>
       <use transform="translate(228.452386 0)scale(0.996264)" xlink:href="#CMR17-48"/>
      </g>
     </g>
    </g>
   </g>
   <g id="matplotlib.axis_2">
    <g id="ytick_1">
     <g id="line2d_10">
      <defs>
       <path d="M 0 0 
L -3.5 0 
" id="md03be384f5" style="stroke:#000000;stroke-width:0.8;"/>
      </defs>
      <g>
       <use style="stroke:#000000;stroke-width:0.8;" x="57.6" xlink:href="#md03be384f5" y="297.418663"/>
      </g>
     </g>
     <g id="text_10">
      <!-- $\mathdefault{0.00}$ -->
      <g transform="translate(32.888586 300.877912)scale(0.1 -0.1)">
       <defs>
        <path d="M 18.40625 4.796875 
C 18.40625 7.6875 16 9.671875 13.59375 9.671875 
C 10.703125 9.671875 8.703125 7.28125 8.703125 4.890625 
C 8.703125 2 11.09375 0 13.5 0 
C 16.40625 0 18.40625 2.390625 18.40625 4.796875 
z
" id="CMMI12-58"/>
       </defs>
       <use transform="scale(0.996264)" xlink:href="#CMR17-48"/>
       <use transform="translate(45.690477 0)scale(0.996264)" xlink:href="#CMMI12-58"/>
       <use transform="translate(72.787654 0)scale(0.996264)" xlink:href="#CMR17-48"/>
       <use transform="translate(118.478131 0)scale(0.996264)" xlink:href="#CMR17-48"/>
      </g>
     </g>
    </g>
    <g id="ytick_2">
     <g id="line2d_11">
      <g>
       <use style="stroke:#000000;stroke-width:0.8;" x="57.6" xlink:href="#md03be384f5" y="262.82407"/>
      </g>
     </g>
     <g id="text_11">
      <!-- $\mathdefault{0.02}$ -->
      <g transform="translate(32.888586 266.283319)scale(0.1 -0.1)">
       <use transform="scale(0.996264)" xlink:href="#CMR17-48"/>
       <use transform="translate(45.690477 0)scale(0.996264)" xlink:href="#CMMI12-58"/>
       <use transform="translate(72.787654 0)scale(0.996264)" xlink:href="#CMR17-48"/>
       <use transform="translate(118.478131 0)scale(0.996264)" xlink:href="#CMR17-50"/>
      </g>
     </g>
    </g>
    <g id="ytick_3">
     <g id="line2d_12">
      <g>
       <use style="stroke:#000000;stroke-width:0.8;" x="57.6" xlink:href="#md03be384f5" y="228.229478"/>
      </g>
     </g>
     <g id="text_12">
      <!-- $\mathdefault{0.04}$ -->
      <g transform="translate(32.888586 231.688727)scale(0.1 -0.1)">
       <defs>
        <path d="M 33.59375 64.40625 
C 33.59375 66.5 33.5 66.5 31.703125 66.5 
L 2 19.59375 
L 2 17 
L 27.796875 17 
L 27.796875 7.140625 
C 27.796875 3.5 27.59375 2.5 20.59375 2.5 
L 18.703125 2.5 
L 18.703125 0 
C 21.90625 0 27.296875 0 30.703125 0 
C 34.09375 0 39.5 0 42.703125 0 
L 42.703125 2.5 
L 40.796875 2.5 
C 33.796875 2.5 33.59375 3.5 33.59375 7.140625 
L 33.59375 17 
L 43.796875 17 
L 43.796875 19.59375 
L 33.59375 19.59375 
z
M 28.09375 57.859375 
L 28.09375 19.59375 
L 4 19.59375 
z
" id="CMR17-52"/>
       </defs>
       <use transform="scale(0.996264)" xlink:href="#CMR17-48"/>
       <use transform="translate(45.690477 0)scale(0.996264)" xlink:href="#CMMI12-58"/>
       <use transform="translate(72.787654 0)scale(0.996264)" xlink:href="#CMR17-48"/>
       <use transform="translate(118.478131 0)scale(0.996264)" xlink:href="#CMR17-52"/>
      </g>
     </g>
    </g>
    <g id="ytick_4">
     <g id="line2d_13">
      <g>
       <use style="stroke:#000000;stroke-width:0.8;" x="57.6" xlink:href="#md03be384f5" y="193.634885"/>
      </g>
     </g>
     <g id="text_13">
      <!-- $\mathdefault{0.06}$ -->
      <g transform="translate(32.888586 197.094135)scale(0.1 -0.1)">
       <defs>
        <path d="M 10.59375 34 
C 10.59375 57.65625 21.796875 63 28.296875 63 
C 30.40625 63 35.5 62.640625 37.5 59 
C 35.90625 59 32.90625 59 32.90625 55.515625 
C 32.90625 52.828125 35.09375 51.921875 36.5 51.921875 
C 37.40625 51.921875 40.09375 52.3125 40.09375 55.625 
C 40.09375 61.78125 35.09375 65.296875 28.203125 65.296875 
C 16.296875 65.296875 3.796875 52.96875 3.796875 31 
C 3.796875 3.953125 15.09375 -2 23.09375 -2 
C 32.796875 -2 42 6.671875 42 20.046875 
C 42 32.515625 33.90625 41.59375 23.703125 41.59375 
C 17.59375 41.59375 13.09375 37.609375 10.59375 30.625 
z
M 23.09375 0.390625 
C 10.796875 0.390625 10.796875 18.75 10.796875 22.4375 
C 10.796875 29.625 14.203125 40 23.5 40 
C 25.203125 40 30.09375 40 33.40625 33.125 
C 35.203125 29.21875 35.203125 25.140625 35.203125 20.140625 
C 35.203125 14.75 35.203125 10.78125 33.09375 6.78125 
C 30.90625 2.671875 27.703125 0.390625 23.09375 0.390625 
z
" id="CMR17-54"/>
       </defs>
       <use transform="scale(0.996264)" xlink:href="#CMR17-48"/>
       <use transform="translate(45.690477 0)scale(0.996264)" xlink:href="#CMMI12-58"/>
       <use transform="translate(72.787654 0)scale(0.996264)" xlink:href="#CMR17-48"/>
       <use transform="translate(118.478131 0)scale(0.996264)" xlink:href="#CMR17-54"/>
      </g>
     </g>
    </g>
    <g id="ytick_5">
     <g id="line2d_14">
      <g>
       <use style="stroke:#000000;stroke-width:0.8;" x="57.6" xlink:href="#md03be384f5" y="159.040293"/>
      </g>
     </g>
     <g id="text_14">
      <!-- $\mathdefault{0.08}$ -->
      <g transform="translate(32.888586 162.499542)scale(0.1 -0.1)">
       <defs>
        <path d="M 27.203125 35.375 
C 33.5 38.546875 39.90625 43.328125 39.90625 50.984375 
C 39.90625 60.015625 31.09375 65.296875 23 65.296875 
C 13.90625 65.296875 5.90625 58.734375 5.90625 49.6875 
C 5.90625 47.203125 6.5 42.921875 10.40625 39.140625 
C 11.40625 38.15625 15.59375 35.171875 18.296875 33.28125 
C 13.796875 30.984375 3.296875 25.53125 3.296875 14.59375 
C 3.296875 4.359375 13.09375 -2 22.796875 -2 
C 33.5 -2 42.5 5.65625 42.5 15.78125 
C 42.5 24.84375 36.40625 29.015625 32.40625 31.703125 
z
M 14.09375 44.09375 
C 13.296875 44.59375 9.296875 47.671875 9.296875 52.359375 
C 9.296875 58.421875 15.59375 63 22.796875 63 
C 30.703125 63 36.5 57.4375 36.5 50.96875 
C 36.5 41.703125 26.09375 36.421875 25.59375 36.421875 
C 25.5 36.421875 25.40625 36.421875 24.59375 37.03125 
z
M 32.5 23.734375 
C 34 22.640625 38.796875 19.375 38.796875 13.296875 
C 38.796875 5.953125 31.40625 0.390625 23 0.390625 
C 13.90625 0.390625 7 6.84375 7 14.6875 
C 7 22.546875 13.09375 29.09375 20 32.1875 
z
" id="CMR17-56"/>
       </defs>
       <use transform="scale(0.996264)" xlink:href="#CMR17-48"/>
       <use transform="translate(45.690477 0)scale(0.996264)" xlink:href="#CMMI12-58"/>
       <use transform="translate(72.787654 0)scale(0.996264)" xlink:href="#CMR17-48"/>
       <use transform="translate(118.478131 0)scale(0.996264)" xlink:href="#CMR17-56"/>
      </g>
     </g>
    </g>
    <g id="ytick_6">
     <g id="line2d_15">
      <g>
       <use style="stroke:#000000;stroke-width:0.8;" x="57.6" xlink:href="#md03be384f5" y="124.4457"/>
      </g>
     </g>
     <g id="text_15">
      <!-- $\mathdefault{0.10}$ -->
      <g transform="translate(32.888586 127.90495)scale(0.1 -0.1)">
       <use transform="scale(0.996264)" xlink:href="#CMR17-48"/>
       <use transform="translate(45.690477 0)scale(0.996264)" xlink:href="#CMMI12-58"/>
       <use transform="translate(72.787654 0)scale(0.996264)" xlink:href="#CMR17-49"/>
       <use transform="translate(118.478131 0)scale(0.996264)" xlink:href="#CMR17-48"/>
      </g>
     </g>
    </g>
    <g id="ytick_7">
     <g id="line2d_16">
      <g>
       <use style="stroke:#000000;stroke-width:0.8;" x="57.6" xlink:href="#md03be384f5" y="89.851108"/>
      </g>
     </g>
     <g id="text_16">
      <!-- $\mathdefault{0.12}$ -->
      <g transform="translate(32.888586 93.310357)scale(0.1 -0.1)">
       <use transform="scale(0.996264)" xlink:href="#CMR17-48"/>
       <use transform="translate(45.690477 0)scale(0.996264)" xlink:href="#CMMI12-58"/>
       <use transform="translate(72.787654 0)scale(0.996264)" xlink:href="#CMR17-49"/>
       <use transform="translate(118.478131 0)scale(0.996264)" xlink:href="#CMR17-50"/>
      </g>
     </g>
    </g>
    <g id="ytick_8">
     <g id="line2d_17">
      <g>
       <use style="stroke:#000000;stroke-width:0.8;" x="57.6" xlink:href="#md03be384f5" y="55.256516"/>
      </g>
     </g>
     <g id="text_17">
      <!-- $\mathdefault{0.14}$ -->
      <g transform="translate(32.888586 58.715765)scale(0.1 -0.1)">
       <use transform="scale(0.996264)" xlink:href="#CMR17-48"/>
       <use transform="translate(45.690477 0)scale(0.996264)" xlink:href="#CMMI12-58"/>
       <use transform="translate(72.787654 0)scale(0.996264)" xlink:href="#CMR17-49"/>
       <use transform="translate(118.478131 0)scale(0.996264)" xlink:href="#CMR17-52"/>
      </g>
     </g>
    </g>
   </g>
   <g id="line2d_18">
    <path clip-path="url(#pdfe742e736)" d="M 73.832727 124.4457 
L 74.159005 124.539793 
L 74.176861 128.262176 
L 74.222313 178.501422 
L 74.283997 126.38267 
L 74.313216 122.709992 
L 74.381393 129.134622 
L 74.46418 140.641607 
L 74.501516 131.951783 
L 74.626508 123.735873 
L 74.629754 123.813117 
L 74.822924 131.074898 
L 74.83591 131.005017 
L 74.964148 128.392258 
L 74.970641 128.380544 
L 75.126476 129.569316 
L 75.128099 129.51725 
L 75.201146 130.710503 
L 75.202769 130.69412 
L 75.253091 131.302632 
L 75.254714 131.268226 
L 75.27257 131.340515 
L 75.347241 130.773529 
L 75.391069 130.267439 
L 75.464116 130.58507 
L 75.741696 133.298337 
L 75.743319 133.278141 
L 75.809873 133.80627 
L 75.811497 133.786453 
L 75.899153 133.77559 
L 75.929996 134.024696 
L 75.931619 134.017408 
L 75.951098 134.428426 
L 76.102063 136.341025 
L 76.103686 136.324135 
L 76.313088 139.069254 
L 76.314711 139.066503 
L 76.326074 139.256147 
L 76.327697 139.253248 
L 76.657222 145.848966 
L 76.752995 148.33507 
L 77.858444 194.592257 
L 78.478534 231.074963 
L 79.434641 295.488 
L 79.536908 289.704204 
L 81.074147 190.220282 
L 81.777024 158.059603 
L 82.502627 134.802738 
L 83.083759 122.591769 
L 83.531782 116.658631 
L 83.897018 113.937316 
L 84.202193 113.127709 
L 84.203817 113.128924 
L 84.267124 113.141324 
L 84.302836 113.18213 
L 84.599895 114.244138 
L 84.788195 115.651377 
L 85.067398 118.739379 
L 85.440751 124.402289 
L 85.905007 133.305285 
L 86.458543 146.17012 
L 87.877283 187.51452 
L 88.711645 211.29121 
L 89.250572 223.078158 
L 89.664506 229.385814 
L 90.255377 233.945295 
L 90.321932 234.142131 
L 90.482636 234.395131 
L 90.640093 234.320079 
L 90.641716 234.32194 
L 90.698531 234.219723 
L 90.700154 234.220409 
L 91.368943 230.619301 
L 92.842874 213.934218 
L 93.435369 207.096635 
L 94.506729 198.77584 
L 95.259927 196.955885 
L 95.404399 196.977896 
L 95.45472 197.008158 
L 95.493679 197.042668 
L 95.797231 197.563554 
L 95.863785 197.729875 
L 97.237073 204.405517 
L 97.806842 208.090806 
L 98.136367 210.210221 
L 98.586013 212.923669 
L 98.938263 214.776574 
L 99.279151 216.261588 
L 99.572963 217.253589 
L 99.701201 217.591783 
L 99.933329 218.068265 
L 100.009623 218.181226 
L 100.193053 218.380816 
L 100.295319 218.440373 
L 100.436544 218.473739 
L 100.594001 218.435246 
L 100.693021 218.378536 
L 100.915409 218.150411 
L 100.988457 218.052539 
L 101.282269 217.53409 
L 101.368303 217.35508 
L 101.720553 216.496435 
L 101.842298 216.168772 
L 102.223767 215.057002 
L 102.377978 214.590308 
L 102.756201 213.424387 
L 102.926644 212.90839 
L 103.278895 211.87685 
L 103.442845 211.428808 
L 103.759383 210.629416 
L 103.897361 210.319195 
L 104.173318 209.76879 
L 104.421679 209.364586 
L 104.520698 209.232334 
L 104.736593 208.99129 
L 104.83886 208.905886 
L 105.022289 208.788753 
L 105.147281 208.742545 
L 105.298246 208.714107 
L 105.452457 208.723804 
L 105.577449 208.752629 
L 105.767372 208.840771 
L 105.872884 208.905968 
L 106.095273 209.089714 
L 106.189423 209.181749 
L 106.281949 209.278036 
L 106.540049 209.589676 
L 106.635823 209.714258 
L 106.913402 210.109467 
L 107.015668 210.260422 
L 107.302988 210.705934 
L 107.411747 210.875361 
L 107.699066 211.330423 
L 107.811072 211.503584 
L 108.090275 211.929242 
L 108.361361 212.321962 
L 108.473367 212.473214 
L 108.728221 212.800098 
L 108.83698 212.926196 
L 109.075601 213.182476 
L 109.187607 213.28706 
L 109.405126 213.467374 
L 109.609658 213.603954 
L 109.802828 213.704131 
L 109.937559 213.753446 
L 110.111249 213.799218 
L 110.26546 213.816865 
L 110.419671 213.81947 
L 110.593361 213.798204 
L 110.73134 213.769338 
L 110.924509 213.704829 
L 111.052748 213.652661 
L 111.265396 213.54359 
L 111.387142 213.474459 
L 111.616023 213.325442 
L 111.737769 213.242071 
L 111.97639 213.064735 
L 112.098135 212.97301 
L 112.340003 212.782646 
L 112.464995 212.685762 
L 112.706863 212.495422 
L 112.835101 212.398518 
L 113.073722 212.219745 
L 113.205207 212.127453 
L 113.437335 211.969432 
L 113.572067 211.885825 
L 113.794455 211.755018 
L 113.93568 211.681853 
L 114.148329 211.580552 
L 114.296047 211.521656 
L 114.498956 211.450502 
L 114.656413 211.408287 
L 114.846336 211.367117 
L 115.01678 211.344482 
L 115.196963 211.329952 
L 115.380393 211.330199 
L 115.550836 211.338751 
L 115.747252 211.36346 
L 115.911203 211.390969 
L 116.120605 211.439874 
L 116.281309 211.482525 
L 116.500451 211.552201 
L 116.657908 211.605192 
L 116.883543 211.689596 
L 117.041001 211.749191 
L 117.269882 211.841015 
L 117.430586 211.904034 
L 117.659468 211.995919 
L 117.823418 212.058326 
L 118.0523 212.145023 
L 118.219497 212.203297 
L 118.445132 212.279572 
L 118.618822 212.331772 
L 118.839587 212.393196 
L 119.058729 212.447598 
L 119.242159 212.484833 
L 119.454807 212.522825 
L 119.647977 212.548036 
L 119.854132 212.569405 
L 120.057041 212.580491 
L 120.259951 212.586012 
L 120.472599 212.581697 
L 120.672262 212.572617 
L 120.891404 212.553262 
L 121.08782 212.532043 
L 121.316701 212.499163 
L 121.513117 212.468522 
L 121.748492 212.425597 
L 121.948154 212.388508 
L 122.186775 212.340286 
L 122.389684 212.300477 
L 122.631552 212.251354 
L 122.837708 212.212381 
L 123.079575 212.166849 
L 123.292224 212.131148 
L 123.534092 212.092149 
L 123.753233 212.062246 
L 123.991855 212.032202 
L 124.217489 212.009998 
L 124.456111 211.989648 
L 124.688239 211.976563 
L 124.92686 211.966537 
L 125.168727 211.963388 
L 125.404102 211.963618 
L 125.652463 211.970602 
L 125.891084 211.980155 
L 126.145937 211.996334 
L 126.384559 212.013309 
L 126.645905 212.036567 
L 126.887773 212.058575 
L 127.155613 212.085953 
L 127.403974 212.110295 
L 127.67506 212.138113 
L 127.929914 212.161737 
L 128.201001 212.186646 
L 128.462348 212.206966 
L 128.736681 212.227034 
L 129.004521 212.242167 
L 129.2821 212.255967 
L 129.55968 212.264837 
L 129.83726 212.27158 
L 130.121332 212.273483 
L 130.402159 212.273295 
L 130.695971 212.268308 
L 130.98329 212.261727 
L 131.283596 212.250766 
L 131.574161 212.239327 
L 131.88096 212.224323 
L 132.181265 212.209987 
L 132.494557 212.193524 
L 132.801356 212.179075 
L 133.12114 212.163856 
L 133.437679 212.151584 
L 133.76071 212.139868 
L 134.086988 212.131519 
L 134.416512 212.124402 
L 134.752529 212.120882 
L 135.088547 212.118777 
L 135.434304 212.120234 
L 135.780061 212.122894 
L 136.138804 212.128842 
L 136.491055 212.135285 
L 136.856291 212.144246 
L 137.221527 212.152841 
L 137.596503 212.162769 
L 137.974726 212.171273 
L 138.359441 212.179877 
L 138.75065 212.18619 
L 139.145105 212.191773 
L 139.5493 212.194644 
L 139.955119 212.196088 
L 140.365807 212.196184 
L 140.789481 212.193706 
L 141.216401 212.190667 
L 141.656308 212.185576 
L 142.099462 212.180629 
L 142.552355 212.174565 
L 143.011741 212.169553 
L 143.480867 212.164424 
L 143.959732 212.161134 
L 144.445091 212.158419 
L 144.943436 212.157866 
L 145.448273 212.157983 
L 145.969344 212.160066 
L 146.496908 212.162382 
L 147.037457 212.165936 
L 147.587747 212.168915 
L 148.151023 212.172258 
L 148.730531 212.174412 
L 149.319779 212.17646 
L 149.928506 212.177093 
L 150.546973 212.177302 
L 151.188166 212.175694 
L 151.839098 212.173544 
L 152.512756 212.170509 
L 153.20914 212.168918 
L 153.915264 212.168516 
L 154.64736 212.169401 
L 155.408675 212.1683 
L 156.186223 212.166243 
L 156.980003 212.165836 
L 157.835468 212.171576 
L 158.707165 212.178424 
L 159.539904 212.172757 
L 160.453807 212.161322 
L 161.484585 212.16139 
L 162.353036 212.189117 
L 163.117597 212.185197 
L 164.164608 212.133481 
L 165.081757 212.107415 
L 165.778141 212.099953 
L 166.922548 212.23931 
L 168.081565 211.909885 
L 168.850996 212.000138 
L 169.232465 211.549486 
L 169.673996 211.138533 
L 169.875281 211.268097 
L 170.157731 211.840312 
L 170.62361 212.761849 
L 170.764835 212.681178 
L 170.928785 212.254121 
L 171.230714 210.677363 
L 171.693347 208.473985 
L 171.797236 208.428185 
L 171.832948 208.466864 
L 171.974173 208.893864 
L 172.22578 210.521626 
L 172.621859 212.744117 
L 172.675427 212.722451 
L 172.701399 212.669196 
L 172.823145 212.020096 
L 173.026054 209.49073 
L 173.724061 199.089114 
L 173.764643 199.154702 
L 173.863663 199.867994 
L 174.038976 203.097357 
L 174.394473 214.883203 
L 174.668806 220.424114 
L 174.702895 220.321547 
L 174.787305 219.094561 
L 174.952879 212.739386 
L 175.331101 187.03392 
L 175.680105 170.401677 
L 175.732049 170.042684 
L 175.783994 170.459818 
L 175.889507 173.938531 
L 176.07943 189.134475 
L 176.507974 246.675594 
L 176.686534 261.675338 
L 176.723869 260.791029 
L 176.822889 250.716566 
L 177.129687 189.321857 
L 177.520896 127.98834 
L 177.567971 127.210278 
L 177.626409 128.15938 
L 178.092288 144.557118 
L 178.304937 175.297109 
L 178.707508 244.47675 
L 178.764323 240.9269 
L 178.895808 210.597351 
L 179.335715 109.556191 
L 179.512652 99.796714 
L 179.798348 84.483924 
L 179.821073 84.640361 
L 179.889251 87.210001 
L 180.022359 102.593987 
L 180.311302 169.758998 
L 180.530444 207.37802 
L 180.564532 205.906116 
L 180.657059 187.894021 
L 181.066124 102.8656 
L 181.593687 64.401277 
L 181.686214 67.678192 
L 181.819322 86.08692 
L 182.254359 187.432767 
L 182.358249 172.628068 
L 182.781923 88.004927 
L 183.273775 55.87618 
L 183.337082 57.395147 
L 183.442595 68.253293 
L 183.630895 116.134874 
L 183.879255 179.228499 
L 183.92146 176.182256 
L 184.039959 143.687793 
L 184.327279 81.333598 
L 184.877568 53.568 
L 184.888931 53.611378 
L 184.937629 54.866904 
L 185.038272 64.53418 
L 185.198976 106.032627 
L 185.43922 179.538901 
L 185.494412 173.340179 
L 185.679465 109.20161 
L 185.903476 70.780128 
L 186.138851 65.422836 
L 186.375849 59.967958 
L 186.432663 60.748322 
L 186.523567 66.774569 
L 186.656675 93.746881 
L 186.947241 198.096831 
L 187.038144 178.43321 
L 187.443962 66.696967 
L 187.598173 65.393065 
L 187.672844 65.167414 
L 187.838417 63.91828 
L 187.896855 64.524186 
L 187.982889 69.227824 
L 188.103011 91.025535 
L 188.309167 181.885112 
L 188.416303 213.721517 
L 188.468247 205.317151 
L 188.990941 64.411891 
L 189.034769 64.610839 
L 189.236055 67.088858 
L 189.364294 71.024292 
L 189.479546 83.959296 
L 189.632134 133.379656 
L 189.856145 227.629575 
L 189.91783 214.506368 
L 190.408058 69.289396 
L 190.490845 68.68112 
L 190.544413 68.806967 
L 190.664535 69.804529 
L 190.773295 72.951957 
L 190.886924 84.719762 
L 191.034641 129.394389 
L 191.273263 232.194423 
L 191.34144 216.363649 
L 191.800826 71.746534 
L 191.87712 70.708699 
L 191.933935 71.025944 
L 192.080029 73.558101 
L 192.211514 80.054245 
L 192.341376 100.643095 
L 192.526429 175.505568 
L 192.68551 238.614582 
L 192.737455 228.461762 
L 193.274758 75.260475 
L 193.347805 74.794952 
L 193.402996 74.984385 
L 193.505263 76.415142 
L 193.617268 81.67119 
L 193.74226 100.639192 
L 193.922444 171.175249 
L 194.091264 239.601374 
L 194.144832 229.121864 
L 194.677265 76.122658 
L 194.719471 75.901891 
L 194.777908 76.227177 
L 194.9029 78.653117 
L 195.031139 86.037574 
L 195.167494 110.225571 
L 195.372026 197.763557 
L 195.498641 242.913362 
L 195.548963 233.10456 
L 196.096006 78.740523 
L 196.177169 78.149523 
L 196.229114 78.34859 
L 196.326511 79.960038 
L 196.44014 86.345532 
L 196.571625 109.626127 
L 196.774534 196.607354 
L 196.901149 242.247709 
L 196.953094 232.164194 
L 197.493644 78.305708 
L 197.539095 78.056105 
L 197.597533 78.387085 
L 197.716032 80.814318 
L 197.844271 88.727035 
L 197.982249 114.530148 
L 198.198144 208.920901 
L 198.30528 244.337121 
L 198.357225 234.323848 
L 198.902644 80.113594 
L 198.990301 79.396539 
L 199.040623 79.594144 
L 199.134772 81.211785 
L 199.248401 87.793577 
L 199.38151 111.901633 
L 199.589289 201.825919 
L 199.707788 243.111644 
L 199.759732 233.043573 
L 200.301905 79.088714 
L 200.34898 78.817112 
L 200.407418 79.145735 
L 200.524294 81.581223 
L 200.652532 89.692169 
L 200.792134 116.392975 
L 201.016145 215.318701 
L 201.111919 244.785664 
L 201.165487 234.049295 
L 201.69792 80.804282 
L 201.798563 79.818 
L 201.844015 79.982901 
L 201.934918 81.449282 
L 202.048547 87.665834 
L 202.180032 110.314597 
L 202.379695 194.12905 
L 202.514426 243.375076 
L 202.564748 233.630822 
L 203.113414 79.276765 
L 203.155619 79.05928 
L 203.214057 79.383984 
L 203.329309 81.775422 
L 203.457548 89.842213 
L 203.597149 116.407134 
L 203.819537 214.298933 
L 203.916934 244.913972 
L 203.970502 234.462555 
L 204.507805 80.853695 
L 204.605201 79.945394 
L 204.652276 80.125229 
L 204.744803 81.688018 
L 204.858432 88.189403 
L 204.99154 112.032527 
L 205.197696 200.577342 
L 205.319441 243.451075 
L 205.371386 233.386563 
L 205.913559 79.420119 
L 205.962257 79.130649 
L 206.020695 79.461407 
L 206.135948 81.872159 
L 206.264186 90.011039 
L 206.403788 116.755658 
L 206.627799 215.602222 
L 206.723572 244.951774 
L 206.775517 234.740281 
L 207.31769 80.806081 
L 207.410217 79.982039 
L 207.458915 80.168013 
L 207.551441 81.75069 
L 207.665071 88.319847 
L 207.798179 112.339605 
L 208.005958 201.934843 
L 208.12608 243.469419 
L 208.176401 233.63973 
L 208.723444 79.388801 
L 208.767273 79.150684 
L 208.825711 79.473435 
L 208.940963 81.868056 
L 209.069201 89.960307 
L 209.208803 116.582871 
L 209.431191 214.499472 
L 209.528588 244.960888 
L 209.582156 234.406127 
L 210.117836 80.934659 
L 210.216855 79.991901 
L 210.262307 80.160407 
L 210.35321 81.64885 
L 210.466839 87.954929 
L 210.598324 110.828416 
L 210.79961 195.739872 
L 210.931095 243.476775 
L 210.98304 233.302912 
L 211.52359 79.464628 
L 211.573911 79.15594 
L 211.632349 79.48861 
L 211.747601 81.90558 
L 211.87584 90.068778 
L 212.015441 116.874365 
L 212.241076 216.562629 
L 212.335226 244.962318 
L 212.387171 234.639231 
L 212.927721 80.846453 
L 213.021871 79.994305 
L 213.070569 80.182369 
L 213.163095 81.771738 
L 213.276724 88.363784 
L 213.409833 112.443309 
L 213.617612 202.11064 
L 213.736111 243.476719 
L 213.788055 233.53236 
L 214.333475 79.411194 
L 214.378927 79.157127 
L 214.437364 79.482945 
L 214.552617 81.884826 
L 214.680855 90.000992 
L 214.820457 116.685019 
L 215.044468 215.458311 
L 215.140241 244.964307 
L 215.193809 234.292026 
L 215.727866 80.967247 
L 215.828509 79.994992 
L 215.873961 80.165758 
L 215.964864 81.660872 
L 216.078493 87.988909 
L 216.209978 110.920485 
L 216.411264 195.911841 
L 216.542749 243.477538 
L 216.593071 233.758819 
L 217.14336 79.362833 
L 217.183942 79.157411 
L 217.24238 79.476417 
L 217.357632 81.86332 
L 217.485871 89.932681 
L 217.625472 116.495463 
L 217.84786 214.346111 
L 217.945257 244.962342 
L 217.998825 234.523333 
L 218.536128 80.909468 
L 218.633524 79.995038 
L 218.680599 80.173158 
L 218.773126 81.734791 
L 218.886755 88.238065 
L 219.019863 112.081916 
L 219.226019 200.609361 
L 219.347764 243.478112 
L 219.399709 233.417203 
L 219.943505 79.427701 
L 219.99058 79.157511 
L 220.049018 79.486748 
L 220.164271 81.896222 
L 220.292509 90.036251 
L 220.432111 116.781937 
L 220.656122 215.618853 
L 220.751895 244.96413 
L 220.80384 234.752747 
L 221.346013 80.820415 
L 221.43854 79.995053 
L 221.487238 80.180618 
L 221.579764 81.763109 
L 221.693393 88.333218 
L 221.826502 112.354609 
L 222.034281 201.947226 
L 222.154403 243.475978 
L 222.204724 233.64432 
L 222.751767 79.395896 
L 222.795596 79.157471 
L 222.854033 79.479924 
L 222.969286 81.874409 
L 223.097524 89.967499 
L 223.237126 116.591786 
L 223.461137 215.302767 
L 223.556911 244.963853 
L 223.610479 234.40623 
L 224.146159 80.938051 
L 224.245178 79.995098 
L 224.29063 80.163562 
L 224.381533 81.652116 
L 224.495162 87.958941 
L 224.626647 110.834176 
L 224.827933 195.746951 
L 224.959418 243.478295 
L 225.011363 233.301224 
L 225.551913 79.466255 
L 225.602234 79.157583 
L 225.660672 79.490253 
L 225.775924 81.907356 
L 225.904163 90.07131 
L 226.043764 116.878731 
L 226.269399 216.568169 
L 226.363549 244.962923 
L 226.415494 234.636539 
L 226.956044 80.847088 
L 227.050193 79.995053 
L 227.098892 80.183161 
L 227.191418 81.772712 
L 227.305047 88.365451 
L 227.438156 112.446775 
L 227.645935 202.11613 
L 227.764433 243.477083 
L 227.816378 233.529279 
L 228.361798 79.411455 
L 228.407249 79.157487 
L 228.465687 79.483385 
L 228.58094 81.88547 
L 228.709178 90.002352 
L 228.84878 116.688221 
L 229.072791 215.463281 
L 229.168564 244.964435 
L 229.222132 234.288648 
L 229.756189 80.967197 
L 229.856832 79.995146 
L 229.902284 80.165978 
L 229.993187 81.661287 
L 230.106816 87.989982 
L 230.238301 110.923297 
L 230.439587 195.917022 
L 230.571072 243.477559 
L 230.621393 233.755463 
L 231.17006 79.380797 
L 231.212265 79.15748 
L 231.270703 79.476584 
L 231.385955 81.863709 
L 231.514193 89.93378 
L 231.653795 116.498397 
L 231.876183 214.350966 
L 231.97358 244.96242 
L 232.027148 234.519864 
L 232.564451 80.909287 
L 232.661847 79.995067 
L 232.708922 80.173259 
L 232.801449 81.7351 
L 232.915078 88.239043 
L 233.048186 112.084674 
L 233.254342 200.61443 
L 233.376087 243.478139 
L 233.428032 233.413758 
L 233.971828 79.42759 
L 234.018903 79.157524 
L 234.077341 79.486863 
L 234.192593 81.896563 
L 234.320832 90.037305 
L 234.460433 116.784831 
L 234.684445 215.623639 
L 234.780218 244.964108 
L 234.832163 234.749289 
L 235.374336 80.820219 
L 235.466863 79.995056 
L 235.515561 80.180697 
L 235.608087 81.763398 
L 235.721716 88.334181 
L 235.854825 112.357358 
L 236.062604 201.952266 
L 236.182726 243.475916 
L 236.233047 233.640895 
L 236.78009 79.395781 
L 236.823919 79.157472 
L 236.882356 79.480028 
L 236.997609 81.874739 
L 237.125847 89.968537 
L 237.265449 116.594659 
L 237.48946 215.307556 
L 237.585233 244.963883 
L 237.638801 234.402729 
L 238.174481 80.937832 
L 238.273501 79.995099 
L 238.318953 80.163633 
L 238.409856 81.652388 
L 238.523485 87.959865 
L 238.65497 110.83683 
L 238.856256 195.752022 
L 238.987741 243.478285 
L 239.039686 233.297757 
L 239.580236 79.46612 
L 239.630557 79.157585 
L 239.688995 79.490358 
L 239.804247 81.907688 
L 239.932486 90.072356 
L 240.072087 116.881619 
L 240.297722 216.572919 
L 240.391872 244.962873 
L 240.443817 234.633066 
L 240.984367 80.846884 
L 241.078516 79.995053 
L 241.127215 80.183237 
L 241.219741 81.772998 
L 241.33337 88.366413 
L 241.466479 112.449525 
L 241.674257 202.121165 
L 241.792756 243.477127 
L 241.844701 233.525842 
L 242.390121 79.411334 
L 242.435572 79.157487 
L 242.49401 79.483489 
L 242.609263 81.8858 
L 242.737501 90.003393 
L 242.877103 116.691098 
L 243.101114 215.468064 
L 243.196887 244.964438 
L 243.250455 234.285135 
L 243.784512 80.966974 
L 243.883532 79.995075 
L 243.930607 80.16605 
L 244.02151 81.661561 
L 244.135139 87.990909 
L 244.266624 110.925956 
L 244.46791 195.922092 
L 244.599395 243.477523 
L 244.649716 233.752054 
L 245.198383 79.380685 
L 245.240588 79.157479 
L 245.299025 79.476687 
L 245.414278 81.864038 
L 245.542516 89.934814 
L 245.682118 116.501265 
L 245.904506 214.35578 
L 246.001903 244.962476 
L 246.055471 234.516379 
L 246.592774 80.909073 
L 246.69017 79.995068 
L 246.737245 80.173332 
L 246.829772 81.735382 
L 246.943401 88.239993 
L 247.076509 112.087404 
L 247.282665 200.619477 
L 247.40441 243.478156 
L 247.456355 233.410306 
L 247.998528 79.44852 
L 248.047226 79.157526 
L 248.105664 79.486967 
L 248.220916 81.896894 
L 248.349155 90.038348 
L 248.488756 116.787714 
L 248.712768 215.628417 
L 248.808541 244.964084 
L 248.860486 234.745831 
L 249.402659 80.820019 
L 249.495185 79.995056 
L 249.543884 80.180772 
L 249.63641 81.763684 
L 249.750039 88.33514 
L 249.883148 112.360103 
L 250.090927 201.957302 
L 250.211049 243.475853 
L 250.26137 233.637472 
L 250.808413 79.395666 
L 250.852241 79.157472 
L 250.910679 79.480131 
L 251.025932 81.875068 
L 251.15417 89.969575 
L 251.293772 116.597532 
L 251.517783 215.312343 
L 251.613556 244.963913 
L 251.667124 234.39923 
L 252.202804 80.937614 
L 252.301824 79.9951 
L 252.347276 80.163705 
L 252.438179 81.652661 
L 252.551808 87.960789 
L 252.683293 110.839485 
L 252.884579 195.757092 
L 253.016064 243.478276 
L 253.068009 233.294292 
L 253.608559 79.465985 
L 253.65888 79.157587 
L 253.717318 79.490462 
L 253.83257 81.90802 
L 253.960809 90.073403 
L 254.10041 116.884507 
L 254.326045 216.577669 
L 254.420195 244.962822 
L 254.47214 234.629594 
L 255.012689 80.84668 
L 255.106839 79.995054 
L 255.155537 80.183313 
L 255.248064 81.773285 
L 255.361693 88.367376 
L 255.494801 112.452275 
L 255.70258 202.1262 
L 255.821079 243.477171 
L 255.873024 233.522404 
L 256.418444 79.411215 
L 256.463895 79.157488 
L 256.522333 79.483592 
L 256.637585 81.886131 
L 256.765824 90.004434 
L 256.905425 116.693976 
L 257.129437 215.472847 
L 257.22521 244.96444 
L 257.278778 234.281623 
L 257.812835 80.966751 
L 257.911855 79.995074 
L 257.958929 80.166122 
L 258.049833 81.661835 
L 258.163462 87.991836 
L 258.294947 110.928616 
L 258.496233 195.927162 
L 258.627718 243.477487 
L 258.678039 233.748645 
L 259.226705 79.380574 
L 259.268911 79.157478 
L 259.327348 79.476789 
L 259.442601 81.864366 
L 259.570839 89.935849 
L 259.710441 116.504132 
L 259.932829 214.360593 
L 260.030225 244.962532 
L 260.083793 234.512893 
L 260.621097 80.908859 
L 260.718493 79.995069 
L 260.765568 80.173406 
L 260.858095 81.735664 
L 260.971724 88.240944 
L 261.104832 112.090133 
L 261.310988 200.624525 
L 261.432733 243.478173 
L 261.484678 233.406854 
L 262.026851 79.44839 
L 262.075549 79.157527 
L 262.133987 79.487071 
L 262.249239 81.897225 
L 262.377478 90.039392 
L 262.517079 116.790597 
L 262.741091 215.633195 
L 262.836864 244.96406 
L 262.888809 234.742372 
L 263.430982 80.81982 
L 263.523508 79.995055 
L 263.572207 80.180848 
L 263.664733 81.763969 
L 263.778362 88.3361 
L 263.911471 112.362848 
L 264.119249 201.962338 
L 264.239372 243.475789 
L 264.289693 233.634048 
L 264.836736 79.39555 
L 264.880564 79.157472 
L 264.939002 79.480234 
L 265.054255 81.875398 
L 265.182493 89.970612 
L 265.322095 116.600404 
L 265.546106 215.31713 
L 265.641879 244.963942 
L 265.695447 234.39573 
L 266.231127 80.937396 
L 266.330147 79.995101 
L 266.375599 80.163777 
L 266.466502 81.652934 
L 266.580131 87.961713 
L 266.711616 110.84214 
L 266.912902 195.762163 
L 267.044387 243.478265 
L 267.096332 233.290826 
L 267.636881 79.465851 
L 267.687203 79.15759 
L 267.745641 79.490567 
L 267.860893 81.908352 
L 267.989132 90.074449 
L 268.128733 116.887396 
L 268.354368 216.582418 
L 268.448518 244.962771 
L 268.500463 234.626121 
L 269.041012 80.846477 
L 269.135162 79.995054 
L 269.18386 80.183389 
L 269.276387 81.773572 
L 269.390016 88.368338 
L 269.523124 112.455026 
L 269.730903 202.131234 
L 269.849402 243.477214 
L 269.901347 233.518966 
L 270.446767 79.411095 
L 270.492218 79.157489 
L 270.550656 79.483695 
L 270.665908 81.886461 
L 270.794147 90.005474 
L 270.933748 116.696854 
L 271.15776 215.47763 
L 271.253533 244.964442 
L 271.307101 234.278109 
L 271.841158 80.966528 
L 271.940177 79.995073 
L 271.987252 80.166195 
L 272.078156 81.662109 
L 272.191785 87.992763 
L 272.32327 110.931276 
L 272.524556 195.932233 
L 272.656041 243.477449 
L 272.706362 233.745236 
L 273.255028 79.380463 
L 273.297233 79.157478 
L 273.355671 79.476891 
L 273.470924 81.864694 
L 273.599162 89.936884 
L 273.738764 116.507 
L 273.961152 214.365407 
L 274.058548 244.962587 
L 274.112116 234.509406 
L 274.64942 80.908646 
L 274.746816 79.995069 
L 274.793891 80.17348 
L 274.886417 81.735947 
L 275.000047 88.241894 
L 275.133155 112.092862 
L 275.339311 200.629572 
L 275.461056 243.478189 
L 275.513001 233.403402 
L 276.055174 79.44826 
L 276.103872 79.157529 
L 276.16231 79.487175 
L 276.277562 81.897557 
L 276.405801 90.040435 
L 276.545402 116.793481 
L 276.769414 215.637973 
L 276.865187 244.964034 
L 276.917132 234.738913 
L 277.459305 80.81962 
L 277.551831 79.995055 
L 277.600529 80.180923 
L 277.693056 81.764255 
L 277.806685 88.337059 
L 277.939793 112.365594 
L 278.147572 201.967374 
L 278.267695 243.475725 
L 278.318016 233.630624 
L 278.865059 79.395435 
L 278.908887 79.157472 
L 278.967325 79.480337 
L 279.082577 81.875727 
L 279.210816 89.97165 
L 279.350417 116.603277 
L 279.574429 215.321918 
L 279.670202 244.96397 
L 279.72377 234.39223 
L 280.25945 80.937178 
L 280.35847 79.995102 
L 280.403921 80.163849 
L 280.494825 81.653207 
L 280.608454 87.962637 
L 280.739939 110.844794 
L 280.941225 195.767233 
L 281.07271 243.478254 
L 281.124655 233.287359 
L 281.665204 79.465717 
L 281.715526 79.157592 
L 281.773964 79.490671 
L 281.889216 81.908684 
L 282.017455 90.075496 
L 282.157056 116.890284 
L 282.382691 216.587167 
L 282.476841 244.962718 
L 282.528785 234.622649 
L 283.069335 80.846273 
L 283.163485 79.995054 
L 283.212183 80.183465 
L 283.30471 81.773859 
L 283.418339 88.369301 
L 283.551447 112.457777 
L 283.759226 202.136269 
L 283.877725 243.477256 
L 283.92967 233.515528 
L 284.475089 79.410975 
L 284.520541 79.15749 
L 284.578979 79.483799 
L 284.694231 81.886791 
L 284.82247 90.006515 
L 284.962071 116.699732 
L 285.186083 215.482412 
L 285.281856 244.964443 
L 285.335424 234.274596 
L 285.869481 80.966306 
L 285.9685 79.995073 
L 286.015575 80.166267 
L 286.106479 81.662383 
L 286.220108 87.99369 
L 286.351593 110.933937 
L 286.552879 195.937303 
L 286.684364 243.477411 
L 286.734685 233.741826 
L 287.283351 79.380352 
L 287.325556 79.157477 
L 287.383994 79.476994 
L 287.499247 81.865023 
L 287.627485 89.937919 
L 287.767087 116.509868 
L 287.989475 214.370221 
L 288.086871 244.962642 
L 288.140439 234.50592 
L 288.677743 80.908432 
L 288.775139 79.99507 
L 288.822214 80.173554 
L 288.91474 81.736229 
L 289.028369 88.242845 
L 289.161478 112.095592 
L 289.367633 200.634619 
L 289.489379 243.478204 
L 289.541324 233.399949 
L 290.083497 79.44813 
L 290.132195 79.15753 
L 290.190633 79.487279 
L 290.305885 81.897888 
L 290.434124 90.041479 
L 290.573725 116.796364 
L 290.797737 215.642751 
L 290.89351 244.964008 
L 290.945455 234.735453 
L 291.487628 80.819421 
L 291.580154 79.995055 
L 291.628852 80.180999 
L 291.721379 81.764541 
L 291.835008 88.338019 
L 291.968116 112.368339 
L 292.175895 201.97241 
L 292.296017 243.475659 
L 292.346339 233.6272 
L 292.893382 79.395319 
L 292.93721 79.157472 
L 292.995648 79.48044 
L 293.1109 81.876056 
L 293.239139 89.972688 
L 293.37874 116.606151 
L 293.602752 215.326705 
L 293.698525 244.963997 
L 293.752093 234.38873 
L 294.287773 80.93696 
L 294.386793 79.995104 
L 294.432244 80.163921 
L 294.523148 81.65348 
L 294.636777 87.963562 
L 294.768262 110.847449 
L 294.969548 195.772304 
L 295.101033 243.478242 
L 295.152977 233.283892 
L 295.693527 79.465582 
L 295.743849 79.157594 
L 295.802287 79.490776 
L 295.917539 81.909017 
L 296.045777 90.076543 
L 296.185379 116.893173 
L 296.411014 216.591917 
L 296.505164 244.962665 
L 296.557108 234.619175 
L 297.097658 80.846069 
L 297.191808 79.995054 
L 297.240506 80.183541 
L 297.333033 81.774145 
L 297.446662 88.370264 
L 297.57977 112.460528 
L 297.787549 202.141303 
L 297.906048 243.477298 
L 297.957993 233.512089 
L 298.503412 79.410855 
L 298.548864 79.15749 
L 298.607302 79.483902 
L 298.722554 81.887122 
L 298.850793 90.007556 
L 298.990394 116.702611 
L 299.214406 215.487195 
L 299.310179 244.964443 
L 299.363747 234.271082 
L 299.897804 80.966083 
L 299.996823 79.995072 
L 300.043898 80.166339 
L 300.134801 81.662657 
L 300.248431 87.994618 
L 300.379916 110.936597 
L 300.581201 195.942373 
L 300.712687 243.477372 
L 300.763008 233.738415 
L 301.311674 79.380241 
L 301.353879 79.157477 
L 301.412317 79.477096 
L 301.527569 81.865351 
L 301.655808 89.938955 
L 301.795409 116.512736 
L 302.017798 214.375034 
L 302.115194 244.962695 
L 302.168762 234.502432 
L 302.706065 80.908219 
L 302.803462 79.995071 
L 302.850537 80.173628 
L 302.943063 81.736512 
L 303.056692 88.243796 
L 303.189801 112.098322 
L 303.395956 200.639667 
L 303.517702 243.478218 
L 303.569647 233.396496 
L 304.11182 79.448001 
L 304.160518 79.157532 
L 304.218956 79.487383 
L 304.334208 81.898219 
L 304.462447 90.042523 
L 304.602048 116.799248 
L 304.82606 215.647529 
L 304.921833 244.963981 
L 304.973777 234.731994 
L 305.515951 80.819221 
L 305.608477 79.995054 
L 305.657175 80.181074 
L 305.749702 81.764827 
L 305.863331 88.338979 
L 305.996439 112.371085 
L 306.204218 201.977446 
L 306.32434 243.475593 
L 306.374662 233.623775 
L 306.921705 79.395204 
L 306.965533 79.157472 
L 307.023971 79.480543 
L 307.139223 81.876386 
L 307.267462 89.973726 
L 307.407063 116.609024 
L 307.631075 215.331492 
L 307.726848 244.964023 
L 307.780416 234.385229 
L 308.316096 80.936742 
L 308.415116 79.995105 
L 308.460567 80.163992 
L 308.551471 81.653753 
L 308.6651 87.964486 
L 308.796585 110.850105 
L 308.997871 195.777374 
L 309.129356 243.478229 
L 309.1813 233.280425 
L 309.72185 79.465448 
L 309.772172 79.157596 
L 309.830609 79.49088 
L 309.945862 81.909349 
L 310.0741 90.07759 
L 310.213702 116.896062 
L 310.439337 216.596666 
L 310.533487 244.962611 
L 310.585431 234.615701 
L 311.124358 80.880072 
L 311.220131 79.995054 
L 311.267206 80.17123 
L 311.359732 81.727333 
L 311.473361 88.212899 
L 311.60647 112.009573 
L 311.812625 200.475398 
L 311.934371 243.477338 
L 311.986316 233.50865 
L 312.531735 79.410736 
L 312.577187 79.157491 
L 312.635625 79.484006 
L 312.750877 81.887452 
L 312.879116 90.008597 
L 313.018717 116.705489 
L 313.242729 215.491977 
L 313.338502 244.964443 
L 313.39207 234.267567 
L 313.926127 80.96586 
L 314.025146 79.995071 
L 314.072221 80.166412 
L 314.163124 81.662932 
L 314.276753 87.995545 
L 314.408239 110.939258 
L 314.609524 195.947443 
L 314.741009 243.477332 
L 314.791331 233.735005 
L 315.339997 79.38013 
L 315.382202 79.157476 
L 315.44064 79.477199 
L 315.555892 81.86568 
L 315.684131 89.93999 
L 315.823732 116.515604 
L 316.046121 214.379847 
L 316.143517 244.962748 
L 316.197085 234.498945 
L 316.734388 80.908005 
L 316.831785 79.995072 
L 316.87886 80.173702 
L 316.971386 81.736795 
L 317.085015 88.244747 
L 317.218124 112.101052 
L 317.424279 200.644714 
L 317.546025 243.478232 
L 317.597969 233.393043 
L 318.140143 79.447871 
L 318.188841 79.157533 
L 318.247279 79.487487 
L 318.362531 81.898551 
L 318.490769 90.043567 
L 318.630371 116.802131 
L 318.854383 215.652307 
L 318.950156 244.963954 
L 319.0021 234.728533 
L 319.544273 80.819022 
L 319.6368 79.995054 
L 319.685498 80.18115 
L 319.778025 81.765113 
L 319.891654 88.339939 
L 320.024762 112.373831 
L 320.232541 201.982482 
L 320.35104 243.475603 
L 320.402985 233.62035 
L 320.950028 79.395089 
L 320.993856 79.157473 
L 321.052294 79.480646 
L 321.167546 81.876715 
L 321.295785 89.974765 
L 321.435386 116.611897 
L 321.659398 215.336279 
L 321.755171 244.964049 
L 321.808739 234.381727 
L 322.344419 80.936524 
L 322.443439 79.995106 
L 322.48889 80.164064 
L 322.579793 81.654027 
L 322.693423 87.965411 
L 322.824908 110.85276 
L 323.026193 195.782445 
L 323.157679 243.478216 
L 323.209623 233.276957 
L 323.750173 79.465314 
L 323.800495 79.157598 
L 323.858932 79.490985 
L 323.974185 81.909681 
L 324.102423 90.078637 
L 324.242025 116.898951 
L 324.46766 216.601414 
L 324.561809 244.962556 
L 324.613754 234.612227 
L 325.152681 80.879863 
L 325.248454 79.995055 
L 325.295529 80.171303 
L 325.388055 81.727615 
L 325.501684 88.213847 
L 325.634793 112.012297 
L 325.840948 200.480447 
L 325.962694 243.477378 
L 326.014639 233.50521 
L 326.560058 79.410616 
L 326.60551 79.157492 
L 326.663948 79.484109 
L 326.7792 81.887782 
L 326.907439 90.009638 
L 327.04704 116.708368 
L 327.271052 215.496759 
L 327.366825 244.964441 
L 327.420393 234.264052 
L 327.954449 80.965638 
L 328.053469 79.99507 
L 328.100544 80.166484 
L 328.191447 81.663206 
L 328.305076 87.996473 
L 328.436561 110.941918 
L 328.637847 195.952513 
L 328.769332 243.477291 
L 328.819654 233.731593 
L 329.36832 79.380019 
L 329.410525 79.157476 
L 329.468963 79.477301 
L 329.584215 81.866008 
L 329.712454 89.941025 
L 329.852055 116.518472 
L 330.074444 214.38466 
L 330.17184 244.9628 
L 330.225408 234.495457 
L 330.762711 80.907791 
L 330.860108 79.995072 
L 330.907183 80.173776 
L 330.999709 81.737077 
L 331.113338 88.245698 
L 331.246447 112.103782 
L 331.452602 200.649761 
L 331.574348 243.478244 
L 331.626292 233.389589 
L 332.168465 79.447741 
L 332.217164 79.157535 
L 332.275601 79.487591 
L 332.390854 81.898882 
L 332.519092 90.044611 
L 332.658694 116.805015 
L 332.882705 215.657084 
L 332.978479 244.963925 
L 333.030423 234.725072 
L 333.572596 80.818822 
L 333.665123 79.995054 
L 333.713821 80.181225 
L 333.806348 81.765398 
L 333.919977 88.340899 
L 334.053085 112.376577 
L 334.260864 201.987518 
L 334.379363 243.475669 
L 334.431308 233.616924 
L 334.978351 79.394973 
L 335.022179 79.157473 
L 335.080617 79.480749 
L 335.195869 81.877045 
L 335.324108 89.975803 
L 335.463709 116.614771 
L 335.687721 215.341065 
L 335.783494 244.964074 
L 335.837062 234.378226 
L 336.372742 80.936306 
L 336.471761 79.995108 
L 336.517213 80.164136 
L 336.608116 81.6543 
L 336.721745 87.966335 
L 336.853231 110.855416 
L 337.054516 195.787515 
L 337.186001 243.478201 
L 337.237946 233.273489 
L 337.778496 79.465179 
L 337.828817 79.157601 
L 337.887255 79.491089 
L 338.002508 81.910014 
L 338.130746 90.079684 
L 338.270348 116.90184 
L 338.495983 216.606163 
L 338.590132 244.962501 
L 338.642077 234.608752 
L 339.181004 80.879654 
L 339.276777 79.995055 
L 339.323852 80.171377 
L 339.416378 81.727896 
L 339.530007 88.214795 
L 339.663116 112.015022 
L 339.869271 200.485495 
L 339.991017 243.477417 
L 340.042961 233.50177 
L 340.588381 79.410496 
L 340.633833 79.157493 
L 340.692271 79.484213 
L 340.807523 81.888113 
L 340.935761 90.01068 
L 341.075363 116.711247 
L 341.299375 215.501542 
L 341.395148 244.964439 
L 341.448716 234.260537 
L 341.982772 80.965415 
L 342.081792 79.99507 
L 342.128867 80.166556 
L 342.21977 81.66348 
L 342.333399 87.9974 
L 342.464884 110.944579 
L 342.66617 195.957583 
L 342.797655 243.47725 
L 342.847977 233.728182 
L 343.396643 79.379908 
L 343.438848 79.157475 
L 343.497286 79.477404 
L 343.612538 81.866337 
L 343.740777 89.942061 
L 343.880378 116.52134 
L 344.102767 214.389473 
L 344.200163 244.962851 
L 344.253731 234.491968 
L 344.791034 80.907578 
L 344.888431 79.995073 
L 344.935505 80.17385 
L 345.028032 81.73736 
L 345.141661 88.246649 
L 345.274769 112.106512 
L 345.480925 200.654809 
L 345.602671 243.478256 
L 345.654615 233.386134 
L 346.196788 79.447612 
L 346.245487 79.157537 
L 346.303924 79.487695 
L 346.419177 81.899213 
L 346.547415 90.045656 
L 346.687017 116.8079 
L 346.911028 215.661862 
L 347.006801 244.963896 
L 347.058746 234.721611 
L 347.600919 80.818623 
L 347.693446 79.995054 
L 347.742144 80.181301 
L 347.834671 81.765684 
L 347.9483 88.341859 
L 348.081408 112.379324 
L 348.289187 201.992554 
L 348.407686 243.475735 
L 348.459631 233.613498 
L 349.006673 79.394858 
L 349.050502 79.157473 
L 349.10894 79.480852 
L 349.224192 81.877374 
L 349.352431 89.976841 
L 349.492032 116.617644 
L 349.716044 215.345852 
L 349.811817 244.964098 
L 349.865385 234.374723 
L 350.401065 80.936088 
L 350.500084 79.995109 
L 350.545536 80.164208 
L 350.636439 81.654573 
L 350.750068 87.96726 
L 350.881553 110.858071 
L 351.082839 195.792586 
L 351.214324 243.478186 
L 351.266269 233.27002 
L 351.806819 79.465045 
L 351.85714 79.157603 
L 351.915578 79.491194 
L 352.030831 81.910346 
L 352.159069 90.080731 
L 352.298671 116.90473 
L 352.524305 216.610912 
L 352.618455 244.962445 
L 352.6704 234.605277 
L 353.209327 80.879445 
L 353.3051 79.995055 
L 353.352175 80.17145 
L 353.444701 81.728178 
L 353.55833 88.215743 
L 353.691439 112.017747 
L 353.897594 200.490544 
L 354.01934 243.477455 
L 354.071284 233.498329 
L 354.615081 79.43065 
L 354.662156 79.157494 
L 354.720593 79.484317 
L 354.835846 81.888443 
L 354.964084 90.011721 
L 355.103686 116.714126 
L 355.327697 215.506324 
L 355.423471 244.964436 
L 355.477039 234.257021 
L 356.011095 80.965193 
L 356.110115 79.995069 
L 356.15719 80.166629 
L 356.248093 81.663754 
L 356.361722 87.998328 
L 356.493207 110.94724 
L 356.694493 195.962654 
L 356.825978 243.477207 
L 356.8763 233.72477 
L 357.424966 79.379797 
L 357.467171 79.157475 
L 357.525609 79.477506 
L 357.640861 81.866666 
L 357.7691 89.943096 
L 357.908701 116.524209 
L 358.131089 214.394286 
L 358.228486 244.962901 
L 358.282054 234.488479 
L 358.819357 80.907364 
L 358.916753 79.995074 
L 358.963828 80.173924 
L 359.056355 81.737643 
L 359.169984 88.247601 
L 359.303092 112.109242 
L 359.509248 200.659856 
L 359.630993 243.478267 
L 359.682938 233.382679 
L 360.225111 79.447482 
L 360.273809 79.157538 
L 360.332247 79.487799 
L 360.4475 81.899545 
L 360.575738 90.0467 
L 360.71534 116.810784 
L 360.939351 215.666639 
L 361.035124 244.963866 
L 361.087069 234.71815 
L 361.629242 80.818423 
L 361.721769 79.995054 
L 361.770467 80.181377 
L 361.862993 81.76597 
L 361.976623 88.342819 
L 362.109731 112.38207 
L 362.31751 201.99759 
L 362.436009 243.475799 
L 362.487953 233.610071 
L 363.034996 79.394743 
L 363.078825 79.157474 
L 363.137263 79.480955 
L 363.252515 81.877704 
L 363.380753 89.97788 
L 363.520355 116.620518 
L 363.744367 215.350639 
L 363.84014 244.964121 
L 363.893708 234.371221 
L 364.429388 80.93587 
L 364.528407 79.99511 
L 364.573859 80.16428 
L 364.664762 81.654846 
L 364.778391 87.968185 
L 364.909876 110.860727 
L 365.111162 195.797656 
L 365.242647 243.47817 
L 365.294592 233.266551 
L 365.835142 79.464911 
L 365.885463 79.157605 
L 365.943901 79.491298 
L 366.059153 81.910678 
L 366.187392 90.081778 
L 366.326993 116.907619 
L 366.552628 216.61566 
L 366.646778 244.962387 
L 366.698723 234.601802 
L 367.237649 80.879236 
L 367.333423 79.995056 
L 367.380497 80.171524 
L 367.473024 81.728459 
L 367.586653 88.216691 
L 367.719761 112.020472 
L 367.925917 200.495592 
L 368.047663 243.477493 
L 368.099607 233.494888 
L 368.643404 79.430525 
L 368.690479 79.157495 
L 368.748916 79.48442 
L 368.864169 81.888774 
L 368.992407 90.012762 
L 369.132009 116.717005 
L 369.35602 215.511105 
L 369.451793 244.964432 
L 369.505361 234.253505 
L 370.039418 80.96497 
L 370.138438 79.995068 
L 370.185513 80.166701 
L 370.276416 81.664029 
L 370.390045 87.999256 
L 370.52153 110.949902 
L 370.722816 195.967724 
L 370.854301 243.477164 
L 370.904623 233.721357 
L 371.453289 79.379686 
L 371.495494 79.157475 
L 371.553932 79.477609 
L 371.669184 81.866994 
L 371.797423 89.944132 
L 371.937024 116.527078 
L 372.159412 214.399099 
L 372.256809 244.962951 
L 372.310377 234.48499 
L 372.84768 80.907151 
L 372.945076 79.995075 
L 372.992151 80.173998 
L 373.084678 81.737925 
L 373.198307 88.248552 
L 373.331415 112.111973 
L 373.537571 200.664903 
L 373.659316 243.478277 
L 373.711261 233.379224 
L 374.253434 79.447352 
L 374.302132 79.15754 
L 374.36057 79.487903 
L 374.475823 81.899876 
L 374.604061 90.047744 
L 374.743663 116.813668 
L 374.967674 215.671416 
L 375.063447 244.963835 
L 375.115392 234.714688 
L 375.657565 80.818224 
L 375.750092 79.995053 
L 375.79879 80.181452 
L 375.891316 81.766256 
L 376.004945 88.34378 
L 376.138054 112.384817 
L 376.345833 202.002626 
L 376.464332 243.475863 
L 376.516276 233.606644 
L 377.063319 79.394628 
L 377.107148 79.157474 
L 377.165585 79.481058 
L 377.280838 81.878033 
L 377.409076 89.978918 
L 377.548678 116.623392 
L 377.772689 215.355425 
L 377.868463 244.964143 
L 377.922031 234.367718 
L 378.457711 80.935652 
L 378.55673 79.995112 
L 378.602182 80.164352 
L 378.693085 81.655119 
L 378.806714 87.96911 
L 378.938199 110.863383 
L 379.139485 195.802727 
L 379.27097 243.478153 
L 379.322915 233.263081 
L 379.863465 79.464777 
L 379.913786 79.157608 
L 379.972224 79.491403 
L 380.087476 81.911011 
L 380.215715 90.082825 
L 380.355316 116.910509 
L 380.580951 216.620408 
L 380.675101 244.962329 
L 380.727046 234.598326 
L 381.265972 80.879027 
L 381.361745 79.995056 
L 381.40882 80.171597 
L 381.501347 81.728741 
L 381.614976 88.21764 
L 381.748084 112.023198 
L 381.95424 200.50064 
L 382.075985 243.477529 
L 382.12793 233.491447 
L 382.671727 79.4304 
L 382.718801 79.157496 
L 382.777239 79.484524 
L 382.892492 81.889104 
L 383.02073 90.013804 
L 383.160332 116.719884 
L 383.384343 215.515887 
L 383.480116 244.964427 
L 383.533684 234.249989 
L 384.067741 80.964748 
L 384.166761 79.995067 
L 384.213836 80.166774 
L 384.304739 81.664303 
L 384.418368 88.000183 
L 384.549853 110.952563 
L 384.751139 195.972794 
L 384.882624 243.47712 
L 384.932945 233.717944 
L 385.481612 79.379575 
L 385.523817 79.157474 
L 385.582255 79.477712 
L 385.697507 81.867323 
L 385.825745 89.945167 
L 385.965347 116.529947 
L 386.187735 214.403911 
L 386.285132 244.963 
L 386.3387 234.481501 
L 386.876003 80.906938 
L 386.973399 79.995076 
L 387.020474 80.174072 
L 387.113001 81.738208 
L 387.22663 88.249503 
L 387.359738 112.114704 
L 387.565894 200.66995 
L 387.687639 243.478287 
L 387.739584 233.375768 
L 388.281757 79.447223 
L 388.330455 79.157542 
L 388.388893 79.488007 
L 388.504145 81.900208 
L 388.632384 90.048789 
L 388.771985 116.816553 
L 388.995997 215.676193 
L 389.09177 244.963803 
L 389.143715 234.711225 
L 389.685888 80.818025 
L 389.778415 79.995053 
L 389.827113 80.181528 
L 389.919639 81.766542 
L 390.033268 88.34474 
L 390.166377 112.387564 
L 390.374156 202.007662 
L 390.492655 243.475926 
L 390.544599 233.603217 
L 391.091642 79.394512 
L 391.135471 79.157474 
L 391.193908 79.481161 
L 391.309161 81.878363 
L 391.437399 89.979957 
L 391.577001 116.626267 
L 391.801012 215.360211 
L 391.896785 244.964165 
L 391.950353 234.364215 
L 392.486033 80.935434 
L 392.585053 79.995113 
L 392.630505 80.164424 
L 392.721408 81.655393 
L 392.835037 87.970035 
L 392.966522 110.866039 
L 393.167808 195.807797 
L 393.299293 243.478136 
L 393.351238 233.259611 
L 393.891788 79.464643 
L 393.942109 79.15761 
L 394.000547 79.491508 
L 394.115799 81.911343 
L 394.244038 90.083873 
L 394.383639 116.913399 
L 394.609274 216.625157 
L 394.703424 244.96227 
L 394.755369 234.59485 
L 395.294295 80.878818 
L 395.390068 79.995056 
L 395.437143 80.171671 
L 395.52967 81.729023 
L 395.643299 88.218588 
L 395.776407 112.025923 
L 395.982563 200.505689 
L 396.104308 243.477565 
L 396.156253 233.488005 
L 396.700049 79.430275 
L 396.747124 79.157497 
L 396.805562 79.484627 
L 396.920815 81.889435 
L 397.049053 90.014845 
L 397.188655 116.722764 
L 397.412666 215.520669 
L 397.508439 244.964422 
L 397.562007 234.246472 
L 398.096064 80.964525 
L 398.195084 79.995067 
L 398.242159 80.166846 
L 398.333062 81.664577 
L 398.446691 88.001111 
L 398.487273 92.678235 
L 398.487273 92.678235 
" style="fill:none;stroke:#1f77b4;stroke-linecap:square;stroke-width:1.5;"/>
   </g>
   <g id="patch_3">
    <path d="M 57.6 307.584 
L 57.6 41.472 
" style="fill:none;stroke:#000000;stroke-linecap:square;stroke-linejoin:miter;stroke-width:0.8;"/>
   </g>
   <g id="patch_4">
    <path d="M 414.72 307.584 
L 414.72 41.472 
" style="fill:none;stroke:#000000;stroke-linecap:square;stroke-linejoin:miter;stroke-width:0.8;"/>
   </g>
   <g id="patch_5">
    <path d="M 57.6 307.584 
L 414.72 307.584 
" style="fill:none;stroke:#000000;stroke-linecap:square;stroke-linejoin:miter;stroke-width:0.8;"/>
   </g>
   <g id="patch_6">
    <path d="M 57.6 41.472 
L 414.72 41.472 
" style="fill:none;stroke:#000000;stroke-linecap:square;stroke-linejoin:miter;stroke-width:0.8;"/>
   </g>
  </g>
 </g>
 <defs>
  <clipPath id="pdfe742e736">
   <rect height="266.112" width="357.12" x="57.6" y="41.472"/>
  </clipPath>
 </defs>
</svg>
