<?xml version="1.0" encoding="utf-8" standalone="no"?>
<!DOCTYPE svg PUBLIC "-//W3C//DTD SVG 1.1//EN"
  "http://www.w3.org/Graphics/SVG/1.1/DTD/svg11.dtd">
<!-- Created with matplotlib (https://matplotlib.org/) -->
<svg height="345.6pt" version="1.1" viewBox="0 0 460.8 345.6" width="460.8pt" xmlns="http://www.w3.org/2000/svg" xmlns:xlink="http://www.w3.org/1999/xlink">
 <metadata>
  <rdf:RDF xmlns:cc="http://creativecommons.org/ns#" xmlns:dc="http://purl.org/dc/elements/1.1/" xmlns:rdf="http://www.w3.org/1999/02/22-rdf-syntax-ns#">
   <cc:Work>
    <dc:type rdf:resource="http://purl.org/dc/dcmitype/StillImage"/>
    <dc:date>2020-07-23T22:29:46.296676</dc:date>
    <dc:format>image/svg+xml</dc:format>
    <dc:creator>
     <cc:Agent>
      <dc:title>Matplotlib v3.3.0, https://matplotlib.org/</dc:title>
     </cc:Agent>
    </dc:creator>
   </cc:Work>
  </rdf:RDF>
 </metadata>
 <defs>
  <style type="text/css">*{stroke-linecap:butt;stroke-linejoin:round;}</style>
 </defs>
 <g id="figure_1">
  <g id="patch_1">
   <path d="M 0 345.6 
L 460.8 345.6 
L 460.8 0 
L 0 0 
z
" style="fill:#ffffff;"/>
  </g>
  <g id="axes_1">
   <g id="patch_2">
    <path d="M 57.6 307.584 
L 414.72 307.584 
L 414.72 41.472 
L 57.6 41.472 
z
" style="fill:#ffffff;"/>
   </g>
   <g id="matplotlib.axis_1">
    <g id="xtick_1">
     <g id="line2d_1">
      <defs>
       <path d="M 0 0 
L 0 3.5 
" id="ma236b53d38" style="stroke:#000000;stroke-width:0.8;"/>
      </defs>
      <g>
       <use style="stroke:#000000;stroke-width:0.8;" x="73.832727" xlink:href="#ma236b53d38" y="307.584"/>
      </g>
     </g>
     <g id="text_1">
      <!-- $\mathdefault{0}$ -->
      <g transform="translate(71.34206 321.502498)scale(0.1 -0.1)">
       <defs>
        <path d="M 42 31.640625 
C 42 37.75 41.90625 48.125 37.703125 56.109375 
C 34 63.109375 28.09375 65.59375 22.90625 65.59375 
C 18.09375 65.59375 12 63.40625 8.203125 56.203125 
C 4.203125 48.71875 3.796875 39.4375 3.796875 31.640625 
C 3.796875 25.953125 3.90625 17.28125 7 9.671875 
C 11.296875 -0.609375 19 -2 22.90625 -2 
C 27.5 -2 34.5 -0.109375 38.59375 9.375 
C 41.59375 16.28125 42 24.359375 42 31.640625 
z
M 22.90625 -0.40625 
C 16.5 -0.40625 12.703125 5.078125 11.296875 12.6875 
C 10.203125 18.5625 10.203125 27.15625 10.203125 32.75 
C 10.203125 40.4375 10.203125 46.828125 11.5 52.921875 
C 13.40625 61.390625 19 64 22.90625 64 
C 27 64 32.296875 61.296875 34.203125 53.125 
C 35.5 47.4375 35.59375 40.734375 35.59375 32.75 
C 35.59375 26.25 35.59375 18.265625 34.40625 12.375 
C 32.296875 1.484375 26.40625 -0.40625 22.90625 -0.40625 
z
" id="CMR17-48"/>
       </defs>
       <use transform="scale(0.996264)" xlink:href="#CMR17-48"/>
      </g>
     </g>
    </g>
    <g id="xtick_2">
     <g id="line2d_2">
      <g>
       <use style="stroke:#000000;stroke-width:0.8;" x="114.414545" xlink:href="#ma236b53d38" y="307.584"/>
      </g>
     </g>
     <g id="text_2">
      <!-- $\mathdefault{25000}$ -->
      <g transform="translate(101.961207 321.502498)scale(0.1 -0.1)">
       <defs>
        <path d="M 41.703125 15.453125 
L 39.90625 15.453125 
C 38.90625 8.375 38.09375 7.171875 37.703125 6.5625 
C 37.203125 5.765625 30 5.765625 28.59375 5.765625 
L 9.40625 5.765625 
C 13 9.671875 20 16.75 28.5 24.953125 
C 34.59375 30.734375 41.703125 37.53125 41.703125 47.421875 
C 41.703125 59.21875 32.296875 66 21.796875 66 
C 10.796875 66 4.09375 56.3125 4.09375 47.34375 
C 4.09375 43.4375 7 42.9375 8.203125 42.9375 
C 9.203125 42.9375 12.203125 43.546875 12.203125 47.03125 
C 12.203125 50.109375 9.59375 51 8.203125 51 
C 7.59375 51 7 50.90625 6.59375 50.703125 
C 8.5 59.21875 14.296875 63.40625 20.40625 63.40625 
C 29.09375 63.40625 34.796875 56.515625 34.796875 47.421875 
C 34.796875 38.734375 29.703125 31.25 24 24.75 
L 4.09375 2.28125 
L 4.09375 0 
L 39.296875 0 
z
" id="CMR17-50"/>
        <path d="M 11.40625 57.6875 
C 12.40625 57.28125 16.5 56 20.703125 56 
C 30 56 35.09375 61.109375 38 64.0625 
C 38 64.953125 38 65.5 37.40625 65.5 
C 37.296875 65.5 37.09375 65.5 36.296875 65.046875 
C 32.796875 63.40625 28.703125 62.078125 23.703125 62.078125 
C 20.703125 62.078125 16.203125 62.484375 11.296875 64.671875 
C 10.203125 65.171875 10 65.171875 9.90625 65.171875 
C 9.40625 65.171875 9.296875 65.0625 9.296875 63.078125 
L 9.296875 34.421875 
C 9.296875 32.640625 9.296875 32.140625 10.296875 32.140625 
C 10.796875 32.140625 11 32.34375 11.5 33.03125 
C 14.703125 37.515625 19.09375 39.40625 24.09375 39.40625 
C 27.59375 39.40625 35.09375 37.21875 35.09375 20.140625 
C 35.09375 16.953125 35.09375 11.171875 32.09375 6.578125 
C 29.59375 2.484375 25.703125 0.390625 21.40625 0.390625 
C 14.796875 0.390625 8.09375 5 6.296875 12.71875 
C 6.703125 12.609375 7.5 12.421875 7.90625 12.421875 
C 9.203125 12.421875 11.703125 13.125 11.703125 16.21875 
C 11.703125 18.90625 9.796875 20 7.90625 20 
C 5.59375 20 4.09375 18.59375 4.09375 15.796875 
C 4.09375 7.09375 11 -2 21.59375 -2 
C 31.90625 -2 41.703125 6.875 41.703125 19.75 
C 41.703125 31.71875 33.90625 41 24.203125 41 
C 19.09375 41 14.796875 39.109375 11.40625 35.53125 
z
" id="CMR17-53"/>
       </defs>
       <use transform="scale(0.996264)" xlink:href="#CMR17-50"/>
       <use transform="translate(45.690477 0)scale(0.996264)" xlink:href="#CMR17-53"/>
       <use transform="translate(91.380954 0)scale(0.996264)" xlink:href="#CMR17-48"/>
       <use transform="translate(137.071431 0)scale(0.996264)" xlink:href="#CMR17-48"/>
       <use transform="translate(182.761908 0)scale(0.996264)" xlink:href="#CMR17-48"/>
      </g>
     </g>
    </g>
    <g id="xtick_3">
     <g id="line2d_3">
      <g>
       <use style="stroke:#000000;stroke-width:0.8;" x="154.996364" xlink:href="#ma236b53d38" y="307.584"/>
      </g>
     </g>
     <g id="text_3">
      <!-- $\mathdefault{50000}$ -->
      <g transform="translate(142.543026 321.502498)scale(0.1 -0.1)">
       <use transform="scale(0.996264)" xlink:href="#CMR17-53"/>
       <use transform="translate(45.690477 0)scale(0.996264)" xlink:href="#CMR17-48"/>
       <use transform="translate(91.380954 0)scale(0.996264)" xlink:href="#CMR17-48"/>
       <use transform="translate(137.071431 0)scale(0.996264)" xlink:href="#CMR17-48"/>
       <use transform="translate(182.761908 0)scale(0.996264)" xlink:href="#CMR17-48"/>
      </g>
     </g>
    </g>
    <g id="xtick_4">
     <g id="line2d_4">
      <g>
       <use style="stroke:#000000;stroke-width:0.8;" x="195.578182" xlink:href="#ma236b53d38" y="307.584"/>
      </g>
     </g>
     <g id="text_4">
      <!-- $\mathdefault{75000}$ -->
      <g transform="translate(183.124844 321.502498)scale(0.1 -0.1)">
       <defs>
        <path d="M 45.09375 61.578125 
L 45.09375 63.765625 
L 21.59375 63.765625 
C 9.90625 63.765625 9.703125 65.078125 9.296875 67 
L 7.5 67 
L 4.59375 48.34375 
L 6.40625 48.34375 
C 6.703125 50.234375 7.40625 55.3125 8.59375 57.203125 
C 9.203125 58 16.59375 58 18.296875 58 
L 40.296875 58 
L 29.203125 41.578125 
C 21.796875 30.53125 16.703125 15.609375 16.703125 2.578125 
C 16.703125 1.390625 16.703125 -2 20.296875 -2 
C 23.90625 -2 23.90625 1.390625 23.90625 2.671875 
L 23.90625 7.265625 
C 23.90625 23.5625 26.703125 34.3125 31.296875 41.1875 
z
" id="CMR17-55"/>
       </defs>
       <use transform="scale(0.996264)" xlink:href="#CMR17-55"/>
       <use transform="translate(45.690477 0)scale(0.996264)" xlink:href="#CMR17-53"/>
       <use transform="translate(91.380954 0)scale(0.996264)" xlink:href="#CMR17-48"/>
       <use transform="translate(137.071431 0)scale(0.996264)" xlink:href="#CMR17-48"/>
       <use transform="translate(182.761908 0)scale(0.996264)" xlink:href="#CMR17-48"/>
      </g>
     </g>
    </g>
    <g id="xtick_5">
     <g id="line2d_5">
      <g>
       <use style="stroke:#000000;stroke-width:0.8;" x="236.16" xlink:href="#ma236b53d38" y="307.584"/>
      </g>
     </g>
     <g id="text_5">
      <!-- $\mathdefault{100000}$ -->
      <g transform="translate(221.215994 321.502498)scale(0.1 -0.1)">
       <defs>
        <path d="M 26.59375 63.40625 
C 26.59375 65.5 26.5 65.5 25.09375 65.5 
C 21.203125 61.1875 15.296875 59.796875 9.703125 59.796875 
C 9.40625 59.796875 8.90625 59.796875 8.796875 59.5 
C 8.703125 59.296875 8.703125 59.09375 8.703125 57 
C 11.796875 57 17 57.59375 21 59.984375 
L 21 7.203125 
C 21 3.6875 20.796875 2.5 12.203125 2.5 
L 9.203125 2.5 
L 9.203125 0 
C 14 0 19 0 23.796875 0 
C 28.59375 0 33.59375 0 38.40625 0 
L 38.40625 2.5 
L 35.40625 2.5 
C 26.796875 2.5 26.59375 3.59375 26.59375 7.15625 
z
" id="CMR17-49"/>
       </defs>
       <use transform="scale(0.996264)" xlink:href="#CMR17-49"/>
       <use transform="translate(45.690477 0)scale(0.996264)" xlink:href="#CMR17-48"/>
       <use transform="translate(91.380954 0)scale(0.996264)" xlink:href="#CMR17-48"/>
       <use transform="translate(137.071431 0)scale(0.996264)" xlink:href="#CMR17-48"/>
       <use transform="translate(182.761908 0)scale(0.996264)" xlink:href="#CMR17-48"/>
       <use transform="translate(228.452386 0)scale(0.996264)" xlink:href="#CMR17-48"/>
      </g>
     </g>
    </g>
    <g id="xtick_6">
     <g id="line2d_6">
      <g>
       <use style="stroke:#000000;stroke-width:0.8;" x="276.741818" xlink:href="#ma236b53d38" y="307.584"/>
      </g>
     </g>
     <g id="text_6">
      <!-- $\mathdefault{125000}$ -->
      <g transform="translate(261.797812 321.502498)scale(0.1 -0.1)">
       <use transform="scale(0.996264)" xlink:href="#CMR17-49"/>
       <use transform="translate(45.690477 0)scale(0.996264)" xlink:href="#CMR17-50"/>
       <use transform="translate(91.380954 0)scale(0.996264)" xlink:href="#CMR17-53"/>
       <use transform="translate(137.071431 0)scale(0.996264)" xlink:href="#CMR17-48"/>
       <use transform="translate(182.761908 0)scale(0.996264)" xlink:href="#CMR17-48"/>
       <use transform="translate(228.452386 0)scale(0.996264)" xlink:href="#CMR17-48"/>
      </g>
     </g>
    </g>
    <g id="xtick_7">
     <g id="line2d_7">
      <g>
       <use style="stroke:#000000;stroke-width:0.8;" x="317.323636" xlink:href="#ma236b53d38" y="307.584"/>
      </g>
     </g>
     <g id="text_7">
      <!-- $\mathdefault{150000}$ -->
      <g transform="translate(302.379631 321.502498)scale(0.1 -0.1)">
       <use transform="scale(0.996264)" xlink:href="#CMR17-49"/>
       <use transform="translate(45.690477 0)scale(0.996264)" xlink:href="#CMR17-53"/>
       <use transform="translate(91.380954 0)scale(0.996264)" xlink:href="#CMR17-48"/>
       <use transform="translate(137.071431 0)scale(0.996264)" xlink:href="#CMR17-48"/>
       <use transform="translate(182.761908 0)scale(0.996264)" xlink:href="#CMR17-48"/>
       <use transform="translate(228.452386 0)scale(0.996264)" xlink:href="#CMR17-48"/>
      </g>
     </g>
    </g>
    <g id="xtick_8">
     <g id="line2d_8">
      <g>
       <use style="stroke:#000000;stroke-width:0.8;" x="357.905455" xlink:href="#ma236b53d38" y="307.584"/>
      </g>
     </g>
     <g id="text_8">
      <!-- $\mathdefault{175000}$ -->
      <g transform="translate(342.961449 321.502498)scale(0.1 -0.1)">
       <use transform="scale(0.996264)" xlink:href="#CMR17-49"/>
       <use transform="translate(45.690477 0)scale(0.996264)" xlink:href="#CMR17-55"/>
       <use transform="translate(91.380954 0)scale(0.996264)" xlink:href="#CMR17-53"/>
       <use transform="translate(137.071431 0)scale(0.996264)" xlink:href="#CMR17-48"/>
       <use transform="translate(182.761908 0)scale(0.996264)" xlink:href="#CMR17-48"/>
       <use transform="translate(228.452386 0)scale(0.996264)" xlink:href="#CMR17-48"/>
      </g>
     </g>
    </g>
    <g id="xtick_9">
     <g id="line2d_9">
      <g>
       <use style="stroke:#000000;stroke-width:0.8;" x="398.487273" xlink:href="#ma236b53d38" y="307.584"/>
      </g>
     </g>
     <g id="text_9">
      <!-- $\mathdefault{200000}$ -->
      <g transform="translate(383.543267 321.502498)scale(0.1 -0.1)">
       <use transform="scale(0.996264)" xlink:href="#CMR17-50"/>
       <use transform="translate(45.690477 0)scale(0.996264)" xlink:href="#CMR17-48"/>
       <use transform="translate(91.380954 0)scale(0.996264)" xlink:href="#CMR17-48"/>
       <use transform="translate(137.071431 0)scale(0.996264)" xlink:href="#CMR17-48"/>
       <use transform="translate(182.761908 0)scale(0.996264)" xlink:href="#CMR17-48"/>
       <use transform="translate(228.452386 0)scale(0.996264)" xlink:href="#CMR17-48"/>
      </g>
     </g>
    </g>
   </g>
   <g id="matplotlib.axis_2">
    <g id="ytick_1">
     <g id="line2d_10">
      <defs>
       <path d="M 0 0 
L -3.5 0 
" id="m6794a980db" style="stroke:#000000;stroke-width:0.8;"/>
      </defs>
      <g>
       <use style="stroke:#000000;stroke-width:0.8;" x="57.6" xlink:href="#m6794a980db" y="296.664524"/>
      </g>
     </g>
     <g id="text_10">
      <!-- $\mathdefault{0.00}$ -->
      <g transform="translate(32.888586 300.123773)scale(0.1 -0.1)">
       <defs>
        <path d="M 18.40625 4.796875 
C 18.40625 7.6875 16 9.671875 13.59375 9.671875 
C 10.703125 9.671875 8.703125 7.28125 8.703125 4.890625 
C 8.703125 2 11.09375 0 13.5 0 
C 16.40625 0 18.40625 2.390625 18.40625 4.796875 
z
" id="CMMI12-58"/>
       </defs>
       <use transform="scale(0.996264)" xlink:href="#CMR17-48"/>
       <use transform="translate(45.690477 0)scale(0.996264)" xlink:href="#CMMI12-58"/>
       <use transform="translate(72.787654 0)scale(0.996264)" xlink:href="#CMR17-48"/>
       <use transform="translate(118.478131 0)scale(0.996264)" xlink:href="#CMR17-48"/>
      </g>
     </g>
    </g>
    <g id="ytick_2">
     <g id="line2d_11">
      <g>
       <use style="stroke:#000000;stroke-width:0.8;" x="57.6" xlink:href="#m6794a980db" y="258.28997"/>
      </g>
     </g>
     <g id="text_11">
      <!-- $\mathdefault{0.02}$ -->
      <g transform="translate(32.888586 261.749219)scale(0.1 -0.1)">
       <use transform="scale(0.996264)" xlink:href="#CMR17-48"/>
       <use transform="translate(45.690477 0)scale(0.996264)" xlink:href="#CMMI12-58"/>
       <use transform="translate(72.787654 0)scale(0.996264)" xlink:href="#CMR17-48"/>
       <use transform="translate(118.478131 0)scale(0.996264)" xlink:href="#CMR17-50"/>
      </g>
     </g>
    </g>
    <g id="ytick_3">
     <g id="line2d_12">
      <g>
       <use style="stroke:#000000;stroke-width:0.8;" x="57.6" xlink:href="#m6794a980db" y="219.915417"/>
      </g>
     </g>
     <g id="text_12">
      <!-- $\mathdefault{0.04}$ -->
      <g transform="translate(32.888586 223.374666)scale(0.1 -0.1)">
       <defs>
        <path d="M 33.59375 64.40625 
C 33.59375 66.5 33.5 66.5 31.703125 66.5 
L 2 19.59375 
L 2 17 
L 27.796875 17 
L 27.796875 7.140625 
C 27.796875 3.5 27.59375 2.5 20.59375 2.5 
L 18.703125 2.5 
L 18.703125 0 
C 21.90625 0 27.296875 0 30.703125 0 
C 34.09375 0 39.5 0 42.703125 0 
L 42.703125 2.5 
L 40.796875 2.5 
C 33.796875 2.5 33.59375 3.5 33.59375 7.140625 
L 33.59375 17 
L 43.796875 17 
L 43.796875 19.59375 
L 33.59375 19.59375 
z
M 28.09375 57.859375 
L 28.09375 19.59375 
L 4 19.59375 
z
" id="CMR17-52"/>
       </defs>
       <use transform="scale(0.996264)" xlink:href="#CMR17-48"/>
       <use transform="translate(45.690477 0)scale(0.996264)" xlink:href="#CMMI12-58"/>
       <use transform="translate(72.787654 0)scale(0.996264)" xlink:href="#CMR17-48"/>
       <use transform="translate(118.478131 0)scale(0.996264)" xlink:href="#CMR17-52"/>
      </g>
     </g>
    </g>
    <g id="ytick_4">
     <g id="line2d_13">
      <g>
       <use style="stroke:#000000;stroke-width:0.8;" x="57.6" xlink:href="#m6794a980db" y="181.540863"/>
      </g>
     </g>
     <g id="text_13">
      <!-- $\mathdefault{0.06}$ -->
      <g transform="translate(32.888586 185.000112)scale(0.1 -0.1)">
       <defs>
        <path d="M 10.59375 34 
C 10.59375 57.65625 21.796875 63 28.296875 63 
C 30.40625 63 35.5 62.640625 37.5 59 
C 35.90625 59 32.90625 59 32.90625 55.515625 
C 32.90625 52.828125 35.09375 51.921875 36.5 51.921875 
C 37.40625 51.921875 40.09375 52.3125 40.09375 55.625 
C 40.09375 61.78125 35.09375 65.296875 28.203125 65.296875 
C 16.296875 65.296875 3.796875 52.96875 3.796875 31 
C 3.796875 3.953125 15.09375 -2 23.09375 -2 
C 32.796875 -2 42 6.671875 42 20.046875 
C 42 32.515625 33.90625 41.59375 23.703125 41.59375 
C 17.59375 41.59375 13.09375 37.609375 10.59375 30.625 
z
M 23.09375 0.390625 
C 10.796875 0.390625 10.796875 18.75 10.796875 22.4375 
C 10.796875 29.625 14.203125 40 23.5 40 
C 25.203125 40 30.09375 40 33.40625 33.125 
C 35.203125 29.21875 35.203125 25.140625 35.203125 20.140625 
C 35.203125 14.75 35.203125 10.78125 33.09375 6.78125 
C 30.90625 2.671875 27.703125 0.390625 23.09375 0.390625 
z
" id="CMR17-54"/>
       </defs>
       <use transform="scale(0.996264)" xlink:href="#CMR17-48"/>
       <use transform="translate(45.690477 0)scale(0.996264)" xlink:href="#CMMI12-58"/>
       <use transform="translate(72.787654 0)scale(0.996264)" xlink:href="#CMR17-48"/>
       <use transform="translate(118.478131 0)scale(0.996264)" xlink:href="#CMR17-54"/>
      </g>
     </g>
    </g>
    <g id="ytick_5">
     <g id="line2d_14">
      <g>
       <use style="stroke:#000000;stroke-width:0.8;" x="57.6" xlink:href="#m6794a980db" y="143.166309"/>
      </g>
     </g>
     <g id="text_14">
      <!-- $\mathdefault{0.08}$ -->
      <g transform="translate(32.888586 146.625559)scale(0.1 -0.1)">
       <defs>
        <path d="M 27.203125 35.375 
C 33.5 38.546875 39.90625 43.328125 39.90625 50.984375 
C 39.90625 60.015625 31.09375 65.296875 23 65.296875 
C 13.90625 65.296875 5.90625 58.734375 5.90625 49.6875 
C 5.90625 47.203125 6.5 42.921875 10.40625 39.140625 
C 11.40625 38.15625 15.59375 35.171875 18.296875 33.28125 
C 13.796875 30.984375 3.296875 25.53125 3.296875 14.59375 
C 3.296875 4.359375 13.09375 -2 22.796875 -2 
C 33.5 -2 42.5 5.65625 42.5 15.78125 
C 42.5 24.84375 36.40625 29.015625 32.40625 31.703125 
z
M 14.09375 44.09375 
C 13.296875 44.59375 9.296875 47.671875 9.296875 52.359375 
C 9.296875 58.421875 15.59375 63 22.796875 63 
C 30.703125 63 36.5 57.4375 36.5 50.96875 
C 36.5 41.703125 26.09375 36.421875 25.59375 36.421875 
C 25.5 36.421875 25.40625 36.421875 24.59375 37.03125 
z
M 32.5 23.734375 
C 34 22.640625 38.796875 19.375 38.796875 13.296875 
C 38.796875 5.953125 31.40625 0.390625 23 0.390625 
C 13.90625 0.390625 7 6.84375 7 14.6875 
C 7 22.546875 13.09375 29.09375 20 32.1875 
z
" id="CMR17-56"/>
       </defs>
       <use transform="scale(0.996264)" xlink:href="#CMR17-48"/>
       <use transform="translate(45.690477 0)scale(0.996264)" xlink:href="#CMMI12-58"/>
       <use transform="translate(72.787654 0)scale(0.996264)" xlink:href="#CMR17-48"/>
       <use transform="translate(118.478131 0)scale(0.996264)" xlink:href="#CMR17-56"/>
      </g>
     </g>
    </g>
    <g id="ytick_6">
     <g id="line2d_15">
      <g>
       <use style="stroke:#000000;stroke-width:0.8;" x="57.6" xlink:href="#m6794a980db" y="104.791756"/>
      </g>
     </g>
     <g id="text_15">
      <!-- $\mathdefault{0.10}$ -->
      <g transform="translate(32.888586 108.251005)scale(0.1 -0.1)">
       <use transform="scale(0.996264)" xlink:href="#CMR17-48"/>
       <use transform="translate(45.690477 0)scale(0.996264)" xlink:href="#CMMI12-58"/>
       <use transform="translate(72.787654 0)scale(0.996264)" xlink:href="#CMR17-49"/>
       <use transform="translate(118.478131 0)scale(0.996264)" xlink:href="#CMR17-48"/>
      </g>
     </g>
    </g>
    <g id="ytick_7">
     <g id="line2d_16">
      <g>
       <use style="stroke:#000000;stroke-width:0.8;" x="57.6" xlink:href="#m6794a980db" y="66.417202"/>
      </g>
     </g>
     <g id="text_16">
      <!-- $\mathdefault{0.12}$ -->
      <g transform="translate(32.888586 69.876452)scale(0.1 -0.1)">
       <use transform="scale(0.996264)" xlink:href="#CMR17-48"/>
       <use transform="translate(45.690477 0)scale(0.996264)" xlink:href="#CMMI12-58"/>
       <use transform="translate(72.787654 0)scale(0.996264)" xlink:href="#CMR17-49"/>
       <use transform="translate(118.478131 0)scale(0.996264)" xlink:href="#CMR17-50"/>
      </g>
     </g>
    </g>
   </g>
   <g id="line2d_17">
    <path clip-path="url(#p9f54f45327)" d="M 73.832727 104.791756 
L 74.391133 104.888637 
L 74.412236 107.62095 
L 74.467427 144.773132 
L 74.516125 105.823656 
L 74.542097 102.170411 
L 74.582679 115.828607 
L 74.636247 131.122212 
L 74.675206 108.116722 
L 74.702801 102.450385 
L 74.788835 106.250369 
L 74.994991 114.945012 
L 75.020963 113.60932 
L 75.217379 98.880899 
L 75.231988 100.379478 
L 75.309905 109.196874 
L 75.399185 107.964945 
L 75.421911 108.429772 
L 75.470609 106.344546 
L 75.498205 105.159573 
L 75.574499 106.879823 
L 75.576122 106.759702 
L 75.671895 107.516608 
L 75.694621 107.452534 
L 75.774161 106.372913 
L 75.81312 106.684898 
L 75.840716 106.919296 
L 75.910516 106.498974 
L 75.920256 106.517438 
L 75.967331 106.870906 
L 76.040378 106.72869 
L 76.0907 106.567232 
L 76.141021 106.761521 
L 76.142644 106.74821 
L 76.261143 107.562792 
L 76.290362 107.472335 
L 76.418601 106.863992 
L 76.420224 106.910463 
L 76.493271 106.594011 
L 76.524113 106.716063 
L 76.525737 106.671143 
L 76.61177 107.310003 
L 76.613393 107.275423 
L 76.683194 107.689077 
L 76.731892 107.624064 
L 76.856884 107.1664 
L 76.858508 107.209487 
L 76.957527 106.97816 
L 76.959151 107.014805 
L 76.980253 106.945675 
L 77.050054 107.442609 
L 77.051677 107.426529 
L 77.124724 108.222719 
L 77.175046 107.914539 
L 77.176669 107.93752 
L 77.226991 107.741145 
L 77.274065 107.786253 
L 77.395811 107.551104 
L 77.408797 107.545127 
L 77.579241 108.781207 
L 77.614953 108.95323 
L 77.694493 108.735521 
L 77.842211 109.294727 
L 77.843834 109.279642 
L 77.929868 109.516711 
L 77.931491 109.503106 
L 78.186345 111.726151 
L 78.187968 111.719047 
L 78.22855 112.031479 
L 78.230173 112.030358 
L 78.468794 114.431986 
L 78.532102 115.501553 
L 78.76423 118.666147 
L 78.93792 121.054224 
L 79.420032 128.782537 
L 79.577489 131.529929 
L 80.147258 141.647168 
L 80.71378 152.941364 
L 82.140637 189.591317 
L 83.255825 229.318472 
L 84.676189 291.333256 
L 84.786572 295.488 
L 84.84014 293.937582 
L 87.068893 206.214305 
L 87.900009 186.897226 
L 88.49088 178.540617 
L 88.969745 174.793235 
L 89.283037 173.717993 
L 89.479453 173.500704 
L 89.583343 173.591086 
L 89.91449 174.338788 
L 90.185577 175.762148 
L 90.701777 179.682433 
L 91.458223 187.855283 
L 94.130129 220.02826 
L 94.721001 224.488642 
L 95.245318 227.421857 
L 96.022865 230.556018 
L 99.8197 244.825879 
L 100.267724 245.47257 
L 100.571276 245.551368 
L 100.818013 245.415481 
L 101.006313 245.161958 
L 101.361809 244.390707 
L 101.912099 242.494629 
L 102.537059 239.620836 
L 103.804835 233.570832 
L 104.575889 231.045273 
L 105.01742 230.189247 
L 105.421615 229.753677 
L 105.939439 229.600368 
L 106.43616 229.727489 
L 107.962036 230.241089 
L 108.522065 230.106394 
L 109.026903 229.806719 
L 111.232931 228.300886 
L 111.70855 228.349252 
L 112.119238 228.562086 
L 112.760431 229.179397 
L 113.461684 230.135863 
L 114.90802 232.06668 
L 115.528111 232.532207 
L 116.039441 232.688204 
L 116.630313 232.641613 
L 117.411107 232.326271 
L 118.936983 231.693906 
L 119.670703 231.664258 
L 120.618694 231.907206 
L 122.193268 232.401576 
L 122.912378 232.401658 
L 123.775959 232.153106 
L 126.671878 231.070336 
L 127.530589 231.139683 
L 129.084061 231.542835 
L 130.296646 231.714483 
L 131.356643 231.631895 
L 133.913297 231.346785 
L 135.672925 231.551092 
L 138.555857 231.89682 
L 139.010374 231.708667 
L 139.799284 231.345394 
L 140.171014 231.493148 
L 140.610921 231.620804 
L 140.843049 231.433339 
L 141.188806 230.793008 
L 141.554042 230.283531 
L 141.695267 230.37814 
L 141.872204 230.847438 
L 142.154653 232.363434 
L 142.628649 234.720586 
L 142.700073 234.684688 
L 142.719552 234.645642 
L 142.846167 234.0616 
L 143.058816 231.802103 
L 143.730851 223.355497 
L 143.769809 223.409627 
L 143.863959 223.998882 
L 144.03278 226.772441 
L 144.323345 235.994107 
L 144.712931 246.445039 
L 144.722671 246.44575 
L 144.750266 246.337488 
L 144.834676 244.945848 
L 145.00025 237.697213 
L 145.735593 195.087782 
L 145.811887 195.848941 
L 145.949865 200.869656 
L 146.261533 222.428255 
L 146.631639 262.199058 
L 146.815069 281.874565 
L 146.865391 278.851691 
L 147.042327 246.337151 
L 147.623459 143.394092 
L 147.813382 140.671993 
L 148.099078 134.532038 
L 148.188358 135.83881 
L 148.31822 143.215686 
L 148.530868 170.63213 
L 148.866886 217.33162 
L 148.910714 215.772514 
L 149.016227 200.357848 
L 149.592489 102.042538 
L 150.064861 73.034216 
L 150.071354 73.04435 
L 150.111936 73.583737 
L 150.207709 78.585682 
L 150.373283 101.441615 
L 150.774231 176.245705 
L 150.847279 171.265247 
L 151.016099 133.249214 
L 151.285562 92.066184 
L 151.921885 57.465397 
L 151.942988 57.567381 
L 152.007919 59.436372 
L 152.129664 70.850559 
L 152.340689 116.50554 
L 152.580934 161.631269 
L 152.613399 160.476369 
L 152.707549 145.636148 
L 153.110121 79.252005 
L 153.686383 53.75422 
L 153.715601 53.568 
L 153.7643 54.151259 
L 153.856826 59.369437 
L 154.007791 83.272372 
L 154.335692 155.565018 
L 154.408739 149.427603 
L 154.65223 91.635092 
L 154.874618 70.569214 
L 155.239855 60.021356 
L 155.415168 56.70756 
L 155.458996 57.088386 
L 155.543407 60.740605 
L 155.676515 78.253339 
L 156.028765 158.35088 
L 156.129408 146.216093 
L 156.596911 67.68337 
L 156.827415 64.137526 
L 157.054673 62.090518 
L 157.108241 62.49251 
L 157.194275 65.74635 
L 157.317644 80.98408 
L 157.557888 148.811406 
L 157.674764 165.674361 
L 157.721839 162.685666 
L 157.8517 132.839932 
L 158.176355 70.533005 
L 158.353292 67.251374 
L 158.374394 67.252323 
L 158.411729 67.34693 
L 158.544838 68.325936 
L 158.699049 71.05099 
L 158.822417 78.429871 
L 158.966889 103.978717 
L 159.283427 184.797867 
L 159.356474 177.372402 
L 159.601588 109.205586 
L 159.848326 74.540161 
L 159.965201 72.921791 
L 160.002537 73.000066 
L 160.119412 73.911015 
L 160.257391 76.814694 
L 160.380759 85.512404 
L 160.536593 116.717757 
L 160.853132 202.981228 
L 160.922932 195.509015 
L 161.192396 117.476342 
L 161.450496 81.326602 
L 161.536529 79.882223 
L 161.590097 80.23865 
L 161.721583 83.304669 
L 161.8693 92.30581 
L 162.026758 119.105554 
L 162.390371 223.263311 
L 162.489391 206.939738 
L 162.995852 92.930459 
L 163.107857 90.656218 
L 163.150063 90.895227 
L 163.249082 93.188908 
L 163.380567 102.271258 
L 163.546141 132.753525 
L 163.898391 235.197769 
L 163.987671 220.428827 
L 164.502249 103.379772 
L 164.598022 101.120434 
L 164.64672 101.626296 
L 164.757103 106.050724 
L 164.916183 122.656089 
L 165.122339 172.752815 
L 165.380439 245.634615 
L 165.437254 239.201813 
L 165.714833 155.859122 
L 165.987543 115.238407 
L 166.093056 112.557256 
L 166.140131 112.999293 
L 166.242397 117.062635 
L 166.393361 133.594804 
L 166.607633 187.228844 
L 166.846255 251.660275 
L 166.898199 245.879033 
L 167.153053 170.19729 
L 167.438749 125.05208 
L 167.550755 121.639348 
L 167.594583 122.119191 
L 167.696849 126.792388 
L 167.8608 146.173044 
L 168.096175 205.843887 
L 168.299084 256.003865 
L 168.347782 251.298953 
L 168.555561 192.546285 
L 168.872099 135.435818 
L 169.014947 129.900517 
L 169.047412 130.163283 
L 169.135069 133.391884 
L 169.286033 148.66178 
L 169.501929 197.784842 
L 169.74542 259.177148 
L 169.798988 253.337262 
L 170.458036 135.642526 
L 170.495372 135.987536 
L 170.587898 139.876188 
L 170.746979 157.642822 
L 170.9856 214.226214 
L 171.186886 259.974492 
L 171.235584 255.490235 
L 171.446609 199.50658 
L 171.766394 145.104303 
L 171.910865 139.391354 
L 171.944954 139.683039 
L 172.032611 143.192256 
L 172.186822 159.885699 
L 172.41895 213.844211 
L 172.625105 261.354851 
L 172.673804 256.714478 
L 172.899439 196.799216 
L 173.211107 146.205475 
L 173.344215 141.383528 
L 173.383174 141.768061 
L 173.477324 145.892453 
L 173.639651 164.513491 
L 173.889635 224.353279 
L 174.063325 260.532488 
L 174.1104 256.561647 
L 174.2987 208.392862 
L 174.634717 148.834187 
L 174.793798 142.109368 
L 174.821393 142.299762 
L 174.900934 145.032754 
L 175.047028 159.265734 
L 175.267793 206.872152 
L 175.501545 261.208053 
L 175.553489 256.167618 
L 175.808343 189.828149 
L 176.108649 145.809322 
L 176.225524 142.159066 
L 176.269353 142.671999 
L 176.369996 147.591352 
L 176.538816 168.627211 
L 176.813149 237.272596 
L 176.941388 260.081895 
L 176.990086 255.829116 
L 177.191372 204.418168 
L 177.520896 148.048298 
L 177.67186 141.96412 
L 177.702703 142.200204 
L 177.785489 145.217699 
L 177.934831 160.285723 
L 178.158842 209.915538 
L 178.379607 260.810321 
L 178.431552 255.985366 
L 178.665303 194.749808 
L 178.973725 146.3546 
L 179.10521 141.722618 
L 179.144169 142.114375 
L 179.238319 146.269127 
L 179.400646 165.009449 
L 179.652253 225.273942 
L 179.821073 259.835027 
L 179.868148 255.965345 
L 180.051578 209.341254 
L 180.390842 148.513656 
L 180.553169 141.478808 
L 180.579142 141.651896 
L 180.657059 144.235298 
L 180.80153 157.837538 
L 181.017425 203.252249 
L 181.260916 260.685083 
L 181.316108 255.263107 
L 181.61966 178.073934 
L 181.900486 143.357327 
L 181.986519 141.412837 
L 182.038464 142.11907 
L 182.147223 148.060357 
L 182.322537 171.938121 
L 182.704006 259.818826 
L 182.806272 243.931562 
L 183.30137 146.070319 
L 183.436102 141.329283 
L 183.473437 141.700398 
L 183.565964 145.694127 
L 183.725044 164.042198 
L 183.970159 223.539409 
L 184.143849 260.700847 
L 184.190924 256.532235 
L 184.388963 204.573724 
L 184.715241 147.619099 
L 184.867828 141.342521 
L 184.898671 141.589384 
L 184.983081 144.746123 
L 185.137292 160.468021 
L 185.366173 210.903512 
L 185.585315 259.855929 
L 185.635636 255.372326 
L 185.846662 201.093923 
L 186.169693 147.088831 
L 186.317411 141.352113 
L 186.349876 141.630862 
L 186.43591 144.960863 
L 186.588497 161.096552 
L 186.819002 213.914553 
L 187.025158 260.741866 
L 187.075479 256.11335 
L 187.296244 198.01293 
L 187.611159 146.555791 
L 187.749137 141.387484 
L 187.786473 141.734798 
L 187.878999 145.665239 
L 188.039703 163.717337 
L 188.284817 221.45493 
L 188.466624 259.88021 
L 188.513699 255.993501 
L 188.698752 208.836188 
L 189.036393 148.383491 
L 189.19872 141.388224 
L 189.224692 141.56425 
L 189.302609 144.15097 
L 189.447081 157.768717 
L 189.662976 203.266326 
L 189.906467 260.758281 
L 189.961658 255.31812 
L 190.27495 176.104989 
L 190.552529 143.086925 
L 190.63207 141.433204 
L 190.684015 142.145805 
L 190.792774 148.11247 
L 190.968087 172.039626 
L 191.347933 259.886997 
L 191.450199 244.332278 
L 191.950167 145.893404 
L 192.080029 141.414133 
L 192.118988 141.797308 
L 192.213137 145.92934 
L 192.372218 164.473462 
L 192.620579 225.17831 
L 192.789399 260.758492 
L 192.836474 256.510484 
L 193.03776 203.664607 
L 193.362415 147.53981 
L 193.513379 141.441308 
L 193.544221 141.694788 
L 193.628631 144.869276 
L 193.782842 160.640069 
L 194.013347 211.600823 
L 194.230865 259.886388 
L 194.279564 255.569793 
L 194.482473 203.475995 
L 194.810374 147.506602 
L 194.961338 141.42171 
L 194.99218 141.657604 
L 195.074967 144.684341 
L 195.224308 159.803408 
L 195.44832 209.502446 
L 195.670708 260.758334 
L 195.72103 256.001264 
L 195.949911 195.840434 
L 196.259956 146.30861 
L 196.394688 141.438487 
L 196.432023 141.800881 
L 196.52455 145.766175 
L 196.685254 163.880952 
L 196.931991 222.169648 
L 197.112175 259.884954 
L 197.159249 255.875211 
L 197.349172 207.359034 
L 197.683567 148.204306 
L 197.842647 141.416948 
L 197.870243 141.602091 
L 197.949783 144.302796 
L 198.095878 158.351882 
L 198.313396 204.850564 
L 198.552017 260.75789 
L 198.605585 255.470037 
L 198.883165 183.745027 
L 199.173731 144.244342 
L 199.275997 141.439433 
L 199.324695 142.046227 
L 199.430208 147.522932 
L 199.602275 170.044781 
L 199.900957 246.38979 
L 199.993484 259.884533 
L 200.045428 255.118522 
L 200.272687 196.661353 
L 200.587601 146.416268 
L 200.72558 141.414912 
L 200.761292 141.751752 
L 200.852195 145.547583 
L 201.009652 163.253372 
L 201.249897 220.625145 
L 201.433327 260.756694 
L 201.482025 256.377489 
L 201.689804 201.760976 
L 202.011212 147.213917 
L 202.157306 141.438205 
L 202.191395 141.731013 
L 202.279052 145.205698 
L 202.436509 161.983714 
L 202.673507 215.952599 
L 202.874793 259.884789 
L 202.923491 255.707497 
L 203.119907 205.378974 
L 203.451055 147.84102 
L 203.606889 141.41581 
L 203.636108 141.63873 
L 203.718895 144.630282 
L 203.868236 159.67379 
L 204.092247 209.252095 
L 204.314636 260.756506 
L 204.36658 255.865791 
L 204.605201 193.263012 
L 204.912 145.790162 
L 205.038615 141.436886 
L 205.079197 141.846811 
L 205.17497 146.147864 
L 205.338921 165.344024 
L 205.593775 227.064696 
L 205.756102 259.884514 
L 205.803177 256.012641 
L 205.986607 209.311533 
L 206.325871 148.419103 
L 206.488198 141.415569 
L 206.51417 141.588715 
L 206.592087 144.166147 
L 206.736559 157.773133 
L 206.952454 203.261713 
L 207.197568 260.756302 
L 207.251136 255.331542 
L 207.557935 177.429639 
L 207.838761 143.237332 
L 207.921548 141.437884 
L 207.973492 142.148803 
L 208.082252 148.113993 
L 208.257565 172.030077 
L 208.637411 259.883748 
L 208.739677 244.349135 
L 209.239645 145.89661 
L 209.369507 141.415341 
L 209.408465 141.797832 
L 209.502615 145.925221 
L 209.661696 164.453552 
L 209.908433 224.673109 
L 210.078877 260.756858 
L 210.125952 256.524647 
L 210.327238 203.68541 
L 210.651892 147.546645 
L 210.802857 141.438181 
L 210.833699 141.689117 
L 210.918109 144.857349 
L 211.07232 160.621012 
L 211.302825 211.570156 
L 211.520343 259.884386 
L 211.569041 255.584811 
L 211.771951 203.498073 
L 212.099852 147.511579 
L 212.250816 141.415758 
L 212.281658 141.650264 
L 212.364445 144.674392 
L 212.513786 159.786138 
L 212.737798 209.466177 
L 212.960186 260.757238 
L 213.010508 256.018888 
L 213.239389 195.867878 
L 213.549434 146.313089 
L 213.684166 141.437614 
L 213.721501 141.798124 
L 213.814028 145.757267 
L 213.974732 163.858799 
L 214.221469 222.137063 
L 214.401652 259.884866 
L 214.448727 255.893588 
L 214.637027 207.817274 
L 214.973044 148.213954 
L 215.133748 141.415895 
L 215.159721 141.598937 
L 215.237638 144.206253 
L 215.382109 157.87835 
L 215.598004 203.470096 
L 215.841495 260.757407 
L 215.895063 255.490667 
L 216.17102 184.12787 
L 216.463209 144.248899 
L 216.565475 141.437789 
L 216.614173 142.042344 
L 216.719686 147.514167 
L 216.891753 170.022866 
L 217.188812 245.957053 
L 217.282961 259.884931 
L 217.334906 255.138315 
L 217.560541 197.089976 
L 217.877079 146.424094 
L 218.015057 141.415642 
L 218.050769 141.750525 
L 218.141673 145.540466 
L 218.29913 163.233409 
L 218.539375 220.59239 
L 218.722804 260.757095 
L 218.771503 256.397806 
L 218.979281 201.790218 
L 219.300689 147.224113 
L 219.446784 141.438041 
L 219.480873 141.728518 
L 219.568529 145.197849 
L 219.725987 161.966596 
L 219.962985 215.919787 
L 220.164271 259.884774 
L 220.212969 255.726143 
L 220.409385 205.408884 
L 220.740532 147.85062 
L 220.896367 141.41561 
L 220.925585 141.637013 
L 221.008372 144.624392 
L 221.157713 159.657793 
L 221.381725 209.2192 
L 221.604113 260.756467 
L 221.656058 255.88613 
L 221.893056 193.68615 
L 222.199855 145.911217 
L 222.329716 141.43792 
L 222.368675 141.845429 
L 222.464448 146.140264 
L 222.628399 165.324743 
L 222.883252 227.032614 
L 223.04558 259.884307 
L 223.092655 256.030675 
L 223.276084 209.341799 
L 223.615348 148.429717 
L 223.777676 141.415656 
L 223.803648 141.587169 
L 223.881565 144.159893 
L 224.026036 157.757738 
L 224.241932 203.230682 
L 224.487046 260.756482 
L 224.540614 255.352217 
L 224.840919 178.776728 
L 225.123369 143.463779 
L 225.211025 141.437825 
L 225.261347 142.102992 
L 225.368483 147.836854 
L 225.542173 171.077783 
L 225.928512 259.88392 
L 226.032401 243.554656 
L 226.52263 146.368666 
L 226.658985 141.41566 
L 226.69632 141.764624 
L 226.787223 145.590008 
L 226.944681 163.356725 
L 227.186548 221.291812 
L 227.368355 260.757087 
L 227.41543 256.54369 
L 227.615092 204.142573 
L 227.939747 147.689635 
L 228.092335 141.437863 
L 228.123177 141.686941 
L 228.207587 144.850364 
L 228.361798 160.604334 
L 228.592303 211.538047 
L 228.809821 259.884572 
L 228.858519 255.603317 
L 229.059805 203.946876 
L 229.387706 147.653415 
L 229.540294 141.415719 
L 229.571136 141.648516 
L 229.653923 144.667991 
L 229.803264 159.769363 
L 230.027276 209.433754 
L 230.249664 260.757351 
L 230.299985 256.038776 
L 230.527244 196.299906 
L 230.838912 146.321491 
L 230.973644 141.437819 
L 231.010979 141.796075 
L 231.103505 145.749609 
L 231.264209 163.840275 
L 231.509324 221.63704 
L 231.69113 259.884919 
L 231.738205 255.911638 
L 231.926505 207.84721 
L 232.262522 148.223819 
L 232.423226 141.415748 
L 232.450822 141.620015 
L 232.531985 144.466604 
L 232.679703 159.014335 
L 232.900468 207.056325 
L 233.130973 260.757294 
L 233.182918 255.803589 
L 233.426409 192.004085 
L 233.731584 145.546113 
L 233.854953 141.437841 
L 233.897158 141.889234 
L 233.994554 146.402198 
L 234.160128 166.231411 
L 234.419852 229.964561 
L 234.572439 259.884928 
L 234.619514 255.957454 
L 234.806191 208.354172 
L 235.143831 148.248706 
L 235.304535 141.41567 
L 235.332131 141.615868 
L 235.411671 144.360449 
L 235.557766 158.5072 
L 235.776908 205.610645 
L 236.012282 260.756898 
L 236.06585 255.563876 
L 236.332067 186.394388 
L 236.627503 144.643317 
L 236.736262 141.437953 
L 236.783337 141.993123 
L 236.885603 147.102541 
L 237.056047 168.757763 
L 237.336873 239.902399 
L 237.453748 259.884623 
L 237.50407 255.479039 
L 237.711849 202.082582 
L 238.036503 147.328617 
L 238.185844 141.415622 
L 238.21831 141.686575 
L 238.304343 145.00206 
L 238.456931 161.10949 
L 238.687436 213.841842 
L 238.893591 260.756161 
L 238.943913 256.189453 
L 239.161431 198.971598 
L 239.477969 146.749805 
L 239.619194 141.437924 
L 239.653283 141.749867 
L 239.742563 145.376362 
L 239.90002 162.408746 
L 240.138641 217.194594 
L 240.335057 259.884009 
L 240.383756 255.791095 
L 240.576925 206.364432 
L 240.909696 148.02097 
L 241.067153 141.415633 
L 241.096372 141.631045 
L 241.177536 144.509044 
L 241.325254 159.123695 
L 241.546019 207.268722 
L 241.776524 260.756752 
L 241.828468 255.668468 
L 242.083322 189.138195 
L 242.383628 145.075066 
L 242.500503 141.43784 
L 242.544332 141.941845 
L 242.644975 146.813257 
L 242.813795 167.78051 
L 243.084881 235.707087 
L 243.21799 259.884221 
L 243.266688 255.574483 
L 243.469597 203.48201 
L 243.797498 147.506285 
L 243.948463 141.415687 
L 243.979305 141.651254 
L 244.062092 144.678196 
L 244.211433 159.795402 
L 244.435444 209.483804 
L 244.657833 260.75723 
L 244.708154 256.00803 
L 244.937036 195.852432 
L 245.247081 146.308676 
L 245.381812 141.437817 
L 245.419148 141.799446 
L 245.511674 145.761299 
L 245.672378 163.868848 
L 245.919116 222.155148 
L 246.099299 259.884746 
L 246.146374 255.883672 
L 246.336297 207.371593 
L 246.670691 148.208702 
L 246.829772 141.415776 
L 246.857367 141.599666 
L 246.935284 144.209504 
L 247.079756 157.887174 
L 247.295651 203.487231 
L 247.539142 260.757372 
L 247.59271 255.479186 
L 247.868666 184.114297 
L 248.160855 144.245321 
L 248.263121 141.437832 
L 248.31182 142.044026 
L 248.417332 147.519259 
L 248.589399 170.034313 
L 248.886458 245.972767 
L 248.980608 259.884957 
L 249.032553 255.127695 
L 249.259811 196.67526 
L 249.576349 146.300747 
L 249.712704 141.415705 
L 249.748416 141.751689 
L 249.839319 145.544467 
L 249.996777 163.243521 
L 250.237021 220.610788 
L 250.420451 260.757177 
L 250.469149 256.387264 
L 250.676928 201.773888 
L 250.998336 147.21916 
L 251.144431 141.437886 
L 251.178519 141.729468 
L 251.266176 145.201682 
L 251.423633 161.976319 
L 251.660631 215.937449 
L 251.861917 259.884848 
L 251.910615 255.716035 
L 252.107031 205.392649 
L 252.438179 147.845345 
L 252.594013 141.415645 
L 252.623232 141.637995 
L 252.706019 144.62804 
L 252.85536 159.666968 
L 253.079372 209.236927 
L 253.30176 260.756648 
L 253.353705 255.875134 
L 253.592326 193.27627 
L 253.899124 145.794228 
L 254.027363 141.437986 
L 254.066321 141.846709 
L 254.162095 146.144543 
L 254.326045 165.335255 
L 254.580899 227.050565 
L 254.743226 259.884421 
L 254.790301 256.020889 
L 254.973731 209.325136 
L 255.312995 148.424292 
L 255.475322 141.415625 
L 255.501295 141.587968 
L 255.579212 144.163208 
L 255.723683 157.766445 
L 255.939578 203.247828 
L 256.184692 260.756299 
L 256.23826 255.340696 
L 256.543436 177.769085 
L 256.824262 143.311677 
L 256.908672 141.437887 
L 256.960617 142.14773 
L 257.069376 148.110276 
L 257.244689 172.02003 
L 257.626159 259.883744 
L 257.726801 244.362092 
L 258.226769 145.900224 
L 258.356631 141.415648 
L 258.39559 141.797073 
L 258.48974 145.921644 
L 258.64882 164.44466 
L 258.895558 224.658376 
L 259.066001 260.75698 
L 259.113076 256.533275 
L 259.314362 203.698418 
L 259.639017 147.551007 
L 259.789981 141.437829 
L 259.820823 141.687908 
L 259.905233 144.854052 
L 260.059444 160.613634 
L 260.289949 211.55554 
L 260.507468 259.884465 
L 260.556166 255.593102 
L 260.759075 203.511304 
L 261.086976 147.515519 
L 261.23794 141.415715 
L 261.268783 141.649495 
L 261.351569 144.671613 
L 261.500911 159.778582 
L 261.724922 209.451507 
L 261.947311 260.757325 
L 261.997632 256.027892 
L 262.22489 196.284347 
L 262.536559 146.316961 
L 262.67129 141.437816 
L 262.708625 141.797261 
L 262.801152 145.753738 
L 262.961856 163.850413 
L 263.208593 222.122444 
L 263.388777 259.884867 
L 263.435852 255.901727 
L 263.624151 207.830699 
L 263.960169 148.218454 
L 264.120873 141.415765 
L 264.148468 141.620915 
L 264.229632 144.47011 
L 264.37735 159.02337 
L 264.598115 207.073857 
L 264.82862 260.757335 
L 264.880564 255.792474 
L 265.125679 191.600591 
L 265.429231 145.541935 
L 265.552599 141.437847 
L 265.594804 141.890596 
L 265.692201 146.406668 
L 265.857775 166.242108 
L 266.117498 229.982449 
L 266.270086 259.884952 
L 266.317161 255.947601 
L 266.503837 208.337608 
L 266.841478 148.243345 
L 267.002182 141.415676 
L 267.029777 141.616751 
L 267.109318 144.363871 
L 267.255412 158.516076 
L 267.474554 205.628059 
L 267.709929 260.75701 
L 267.763497 255.552552 
L 268.031337 186.013632 
L 268.326772 144.544451 
L 268.433908 141.437922 
L 268.480983 141.994608 
L 268.583249 147.107333 
L 268.753693 168.76906 
L 269.034519 239.919344 
L 269.151395 259.884719 
L 269.201716 255.468707 
L 269.409495 202.06664 
L 269.73415 147.323623 
L 269.883491 141.415631 
L 269.915956 141.687616 
L 270.00199 145.005858 
L 270.154577 161.119095 
L 270.385082 213.859891 
L 270.591238 260.756348 
L 270.641559 256.1787 
L 270.860701 198.543276 
L 271.175616 146.74506 
L 271.316841 141.437941 
L 271.350929 141.750979 
L 271.440209 145.380319 
L 271.597667 162.41851 
L 271.836288 217.21242 
L 272.032704 259.884167 
L 272.081402 255.781065 
L 272.274572 206.348059 
L 272.607343 148.015687 
L 272.7648 141.415629 
L 272.794019 141.631972 
L 272.875183 144.51257 
L 273.0229 159.13275 
L 273.243665 207.286282 
L 273.47417 260.756606 
L 273.526115 255.657238 
L 273.782592 188.746007 
L 274.081274 145.071141 
L 274.19815 141.437858 
L 274.241978 141.943268 
L 274.342621 146.817909 
L 274.511441 167.791585 
L 274.782528 235.724567 
L 274.915636 259.884065 
L 274.964335 255.564241 
L 275.167244 203.465913 
L 275.495145 147.501218 
L 275.646109 141.415669 
L 275.676951 141.652217 
L 275.759738 144.681812 
L 275.909079 159.804649 
L 276.133091 209.501545 
L 276.355479 260.757155 
L 276.405801 255.997102 
L 276.636305 195.434739 
L 276.946351 146.186454 
L 277.079459 141.437819 
L 277.116794 141.800649 
L 277.209321 145.76546 
L 277.370025 163.878977 
L 277.616762 222.173116 
L 277.796945 259.884661 
L 277.84402 255.87374 
L 278.033943 207.355126 
L 278.368337 148.203349 
L 278.527418 141.415753 
L 278.555014 141.600521 
L 278.632931 144.212843 
L 278.777402 157.895863 
L 278.993297 203.504442 
L 279.236788 260.757369 
L 279.290356 255.467796 
L 279.569559 183.387935 
L 279.860125 144.152919 
L 279.960768 141.437823 
L 280.009466 142.045578 
L 280.114979 147.524222 
L 280.287046 170.045904 
L 280.585728 246.392423 
L 280.678255 259.884938 
L 280.730199 255.117034 
L 280.957457 196.659943 
L 281.272372 146.414956 
L 281.410351 141.415725 
L 281.446063 141.752845 
L 281.536966 145.548557 
L 281.694423 163.253705 
L 281.934668 220.629125 
L 282.118097 260.757248 
L 282.166796 256.376699 
L 282.374575 201.757687 
L 282.695983 147.214202 
L 282.842077 141.437871 
L 282.876166 141.73055 
L 282.963823 145.205555 
L 283.12128 161.985962 
L 283.358278 215.955227 
L 283.559564 259.884898 
L 283.608262 255.705932 
L 283.804678 205.376365 
L 284.135825 147.840136 
L 284.29166 141.415654 
L 284.320879 141.638934 
L 284.403665 144.631629 
L 284.553007 159.676177 
L 284.777018 209.25465 
L 284.999407 260.75679 
L 285.051351 255.864086 
L 285.289972 193.261133 
L 285.596771 145.789925 
L 285.723386 141.437963 
L 285.763968 141.847988 
L 285.859741 146.148888 
L 286.023692 165.345748 
L 286.278545 227.068524 
L 286.440873 259.88454 
L 286.487948 256.0111 
L 286.673001 208.87607 
L 287.010641 148.418854 
L 287.172969 141.415625 
L 287.198941 141.588795 
L 287.276858 144.166519 
L 287.421329 157.7751 
L 287.637225 203.265014 
L 287.882339 260.756108 
L 287.935907 255.32919 
L 288.244329 177.101131 
L 288.523532 143.236505 
L 288.606319 141.437904 
L 288.658263 142.149411 
L 288.767023 148.115488 
L 288.942336 172.03205 
L 289.322182 259.883864 
L 289.424448 244.346365 
L 289.924416 145.895879 
L 290.054278 141.41564 
L 290.093236 141.798302 
L 290.187386 145.925924 
L 290.346467 164.455154 
L 290.593204 224.676773 
L 290.763648 260.756861 
L 290.810723 256.522855 
L 291.012009 203.682008 
L 291.336663 147.545908 
L 291.487628 141.437838 
L 291.51847 141.68891 
L 291.60288 144.857739 
L 291.757091 160.622915 
L 291.987596 211.57307 
L 292.205114 259.884336 
L 292.253812 255.582877 
L 292.456721 203.495208 
L 292.784623 147.510446 
L 292.935587 141.415697 
L 292.966429 141.650458 
L 293.049216 144.675228 
L 293.198557 159.787822 
L 293.422569 209.469248 
L 293.644957 260.757279 
L 293.695279 256.016984 
L 293.92416 195.865135 
L 294.234205 146.312407 
L 294.368937 141.437815 
L 294.406272 141.798461 
L 294.498799 145.757893 
L 294.659503 163.860538 
L 294.90624 222.140411 
L 295.086423 259.884807 
L 295.133498 255.891813 
L 295.323421 207.385103 
L 295.657815 148.213097 
L 295.818519 141.41579 
L 295.844492 141.598966 
L 295.922409 144.206763 
L 296.06688 157.880045 
L 296.282775 203.473117 
L 296.526266 260.757362 
L 296.579834 255.488524 
L 296.855791 184.125577 
L 297.14798 144.24815 
L 297.250246 141.437837 
L 297.298944 142.04275 
L 297.404457 147.515188 
L 297.576524 170.024812 
L 297.873583 245.959974 
L 297.967732 259.884961 
L 298.019677 255.136431 
L 298.245312 197.08719 
L 298.56185 146.423316 
L 298.699828 141.415692 
L 298.73554 141.750746 
L 298.826444 145.541116 
L 298.983901 163.235169 
L 299.224145 220.595748 
L 299.407575 260.757108 
L 299.456273 256.395924 
L 299.664052 201.787179 
L 299.98546 147.22323 
L 300.131555 141.437902 
L 300.165644 141.728583 
L 300.2533 145.198506 
L 300.410758 161.96841 
L 300.647756 215.922869 
L 300.849041 259.884796 
L 300.89774 255.724315 
L 301.094156 205.406007 
L 301.425303 147.849619 
L 301.581137 141.415637 
L 301.610356 141.637225 
L 301.693143 144.625097 
L 301.842484 159.659417 
L 302.066496 209.222388 
L 302.288884 260.756519 
L 302.340829 255.884188 
L 302.577827 193.683394 
L 302.884625 145.910512 
L 303.014487 141.437965 
L 303.053446 141.845662 
L 303.149219 146.140982 
L 303.313169 165.326647 
L 303.568023 227.035834 
L 303.730351 259.884313 
L 303.777425 256.028912 
L 303.960855 209.338783 
L 304.300119 148.428755 
L 304.462447 141.415626 
L 304.488419 141.587291 
L 304.566336 144.160491 
L 304.710807 157.759347 
L 304.926703 203.233733 
L 305.171817 260.756443 
L 305.225385 255.350128 
L 305.527313 178.441236 
L 305.809763 143.387892 
L 305.895796 141.437873 
L 305.947741 142.146352 
L 306.0565 148.106002 
L 306.231814 172.010172 
L 306.613283 259.883895 
L 306.713926 244.374989 
L 307.213894 145.903789 
L 307.343756 141.415657 
L 307.382714 141.796067 
L 307.476864 145.918135 
L 307.635945 164.436054 
L 307.882682 224.643286 
L 308.053126 260.757065 
L 308.100201 256.541815 
L 308.299863 204.139583 
L 308.624518 147.688696 
L 308.777105 141.437824 
L 308.807948 141.687088 
L 308.892358 144.851029 
L 309.046569 160.606024 
L 309.277073 211.541162 
L 309.494592 259.884559 
L 309.54329 255.601481 
L 309.744576 203.943993 
L 310.072477 147.652479 
L 310.225065 141.415731 
L 310.255907 141.648706 
L 310.338694 144.66865 
L 310.488035 159.771004 
L 310.712047 209.436956 
L 310.934435 260.757352 
L 310.984756 256.036832 
L 311.212015 196.297095 
L 311.523683 146.320699 
L 311.658415 141.437819 
L 311.69575 141.796279 
L 311.788276 145.750332 
L 311.94898 163.842108 
L 312.194095 221.640257 
L 312.375901 259.884905 
L 312.422976 255.909852 
L 312.611276 207.844241 
L 312.947293 148.222851 
L 313.107997 141.415746 
L 313.135593 141.620175 
L 313.216756 144.467243 
L 313.364474 159.015969 
L 313.585239 207.059466 
L 313.815744 260.757302 
L 313.867689 255.801589 
L 314.11118 192.001412 
L 314.414732 145.654805 
L 314.539724 141.437857 
L 314.580305 141.855237 
L 314.676079 146.173431 
L 314.840029 165.40499 
L 315.094883 227.169814 
L 315.25721 259.884934 
L 315.304285 255.955687 
L 315.490961 208.351187 
L 315.828602 148.24775 
L 315.989306 141.415665 
L 316.016902 141.616019 
L 316.096442 144.361055 
L 316.242537 158.508796 
L 316.461679 205.613775 
L 316.697053 260.756917 
L 316.750621 255.561838 
L 317.016838 186.391854 
L 317.312273 144.642642 
L 317.421033 141.43794 
L 317.468108 141.993387 
L 317.570374 147.10341 
L 317.740817 168.75979 
L 318.021644 239.905448 
L 318.138519 259.884644 
L 318.188841 255.477185 
L 318.39662 202.07972 
L 318.721274 147.327719 
L 318.870615 141.415628 
L 318.903081 141.686766 
L 318.989114 145.002741 
L 319.141702 161.11121 
L 319.372207 213.845091 
L 319.578362 260.756197 
L 319.628684 256.187524 
L 319.846202 198.968738 
L 320.16274 146.748958 
L 320.303965 141.437924 
L 320.338054 141.750062 
L 320.427334 145.377068 
L 320.584791 162.410506 
L 320.823412 217.197793 
L 321.019828 259.884037 
L 321.068527 255.789291 
L 321.261696 206.361492 
L 321.594467 148.020018 
L 321.751924 141.415633 
L 321.781143 141.631214 
L 321.862307 144.509682 
L 322.010025 159.125324 
L 322.23079 207.271876 
L 322.461295 260.756727 
L 322.513239 255.66645 
L 322.768093 189.135584 
L 323.068399 145.074363 
L 323.185274 141.437848 
L 323.229103 141.942105 
L 323.329745 146.814092 
L 323.498566 167.782498 
L 323.769652 235.710231 
L 323.902761 259.884193 
L 323.951459 255.572643 
L 324.154368 203.479114 
L 324.482269 147.505376 
L 324.633233 141.415681 
L 324.664076 141.651424 
L 324.746863 144.678844 
L 324.896204 159.797065 
L 325.120215 209.48699 
L 325.342604 260.757218 
L 325.392925 256.006065 
L 325.621807 195.84965 
L 325.931852 146.307854 
L 326.066583 141.437817 
L 326.103919 141.799662 
L 326.196445 145.762049 
L 326.357149 163.870667 
L 326.603887 222.158378 
L 326.78407 259.884733 
L 326.831145 255.881889 
L 327.021068 207.368634 
L 327.355462 148.207741 
L 327.514543 141.415772 
L 327.542138 141.59982 
L 327.620055 144.210102 
L 327.764527 157.888734 
L 327.980422 203.490325 
L 328.223913 260.757372 
L 328.277481 255.47714 
L 328.55506 183.754704 
L 328.845626 144.244701 
L 328.947892 141.437829 
L 328.996591 142.044303 
L 329.102103 147.52015 
L 329.27417 170.036398 
L 329.571229 245.975568 
L 329.665379 259.884954 
L 329.717324 255.125779 
L 329.944582 196.672509 
L 330.26112 146.299931 
L 330.397475 141.41571 
L 330.433187 141.751898 
L 330.52409 145.545203 
L 330.681548 163.245351 
L 330.921792 220.614084 
L 331.105222 260.757191 
L 331.15392 256.385366 
L 331.361699 201.770977 
L 331.683107 147.218269 
L 331.829201 141.437884 
L 331.86329 141.729663 
L 331.950947 145.202378 
L 332.108404 161.978051 
L 332.345402 215.940645 
L 332.546688 259.884858 
L 332.595386 255.71422 
L 332.791802 205.389722 
L 333.12295 147.844409 
L 333.278784 141.415645 
L 333.308003 141.638163 
L 333.39079 144.628685 
L 333.540131 159.668623 
L 333.764143 209.240111 
L 333.986531 260.756675 
L 334.038476 255.873149 
L 334.277097 193.27355 
L 334.583895 145.793453 
L 334.712134 141.437991 
L 334.751092 141.846939 
L 334.846865 146.145324 
L 335.010816 165.33714 
L 335.26567 227.053793 
L 335.427997 259.884444 
L 335.475072 256.019131 
L 335.658502 209.322146 
L 335.997766 148.423315 
L 336.160093 141.415624 
L 336.186065 141.588117 
L 336.263983 144.163802 
L 336.408454 157.768 
L 336.624349 203.250917 
L 336.869463 260.756265 
L 336.923031 255.338629 
L 337.228207 177.766811 
L 337.509033 143.311172 
L 337.593443 141.437889 
L 337.645388 142.148032 
L 337.754147 148.111212 
L 337.92946 172.02219 
L 338.310929 259.88371 
L 338.411572 244.359265 
L 338.91154 145.899443 
L 339.041402 141.415647 
L 339.080361 141.797294 
L 339.174511 145.922414 
L 339.333591 164.446546 
L 339.580329 224.661683 
L 339.750772 260.75696 
L 339.797847 256.531403 
L 339.999133 203.695469 
L 340.323788 147.550091 
L 340.474752 141.437831 
L 340.505594 141.688088 
L 340.590004 144.854714 
L 340.744215 160.615302 
L 340.97472 211.558691 
L 341.192239 259.884443 
L 341.240937 255.591265 
L 341.443846 203.508411 
L 341.771747 147.514607 
L 341.922711 141.415712 
L 341.953553 141.649668 
L 342.03634 144.672263 
L 342.185681 159.780242 
L 342.409693 209.454695 
L 342.632081 260.757318 
L 342.682403 256.025932 
L 342.909661 196.281554 
L 343.221329 146.316142 
L 343.356061 141.437816 
L 343.393396 141.797477 
L 343.485923 145.754485 
L 343.646627 163.852232 
L 343.893364 222.125673 
L 344.073548 259.884858 
L 344.120623 255.899947 
L 344.308922 207.827732 
L 344.64494 148.217491 
L 344.805644 141.41577 
L 344.833239 141.621077 
L 344.914403 144.470738 
L 345.062121 159.024991 
L 345.282886 207.07701 
L 345.513391 260.757341 
L 345.565335 255.790476 
L 345.810449 191.597913 
L 346.114001 145.541184 
L 346.23737 141.437845 
L 346.279575 141.890838 
L 346.376972 146.407471 
L 346.542545 166.244033 
L 346.802269 229.985661 
L 346.954857 259.884955 
L 347.001932 255.945829 
L 347.188608 208.334633 
L 347.526249 148.24238 
L 347.686953 141.415679 
L 347.714548 141.616911 
L 347.794089 144.364488 
L 347.940183 158.517671 
L 348.159325 205.631189 
L 348.3947 260.757029 
L 348.448268 255.550517 
L 348.716108 186.011105 
L 349.011543 144.543799 
L 349.118679 141.437918 
L 349.165754 141.994876 
L 349.26802 147.108193 
L 349.438464 168.771092 
L 349.71929 239.922388 
L 349.836166 259.884733 
L 349.886487 255.466849 
L 350.094266 202.063775 
L 350.418921 147.322725 
L 350.568262 141.415632 
L 350.600727 141.687803 
L 350.686761 145.006541 
L 350.839348 161.120823 
L 351.069853 213.863133 
L 351.276009 260.75638 
L 351.32633 256.176766 
L 351.545472 198.540432 
L 351.860387 146.744206 
L 352.001612 141.437946 
L 352.0357 141.75118 
L 352.12498 145.381032 
L 352.282438 162.420264 
L 352.521059 217.215625 
L 352.717475 259.884194 
L 352.766173 255.779262 
L 352.959343 206.345116 
L 353.292113 148.014739 
L 353.449571 141.415628 
L 353.47879 141.632139 
L 353.559953 144.513203 
L 353.707671 159.134377 
L 353.928436 207.289439 
L 354.158941 260.756578 
L 354.210886 255.655219 
L 354.467363 188.743404 
L 354.766045 145.070435 
L 354.882921 141.437861 
L 354.926749 141.943523 
L 355.027392 146.818746 
L 355.196212 167.793576 
L 355.467299 235.727708 
L 355.600407 259.884035 
L 355.649105 255.562399 
L 355.852015 203.463021 
L 356.179916 147.500307 
L 356.33088 141.415667 
L 356.361722 141.652391 
L 356.444509 144.682463 
L 356.59385 159.806311 
L 356.817862 209.504734 
L 357.04025 260.75714 
L 357.090572 255.995137 
L 357.321076 195.431966 
L 357.631121 146.185646 
L 357.76423 141.43782 
L 357.801565 141.800865 
L 357.894092 145.766208 
L 358.054796 163.880798 
L 358.301533 222.176345 
L 358.481716 259.884643 
L 358.528791 255.871954 
L 358.718714 207.352167 
L 359.053108 148.202387 
L 359.212189 141.415749 
L 359.239785 141.600675 
L 359.317702 144.213443 
L 359.462173 157.897426 
L 359.678068 203.507535 
L 359.921559 260.757367 
L 359.975127 255.465747 
L 360.25433 183.385485 
L 360.544896 144.152309 
L 360.645539 141.437822 
L 360.694237 142.045857 
L 360.79975 147.525114 
L 360.971817 170.047987 
L 361.270499 246.395202 
L 361.363025 259.884934 
L 361.41497 255.115117 
L 361.642228 196.65719 
L 361.957143 146.414131 
L 362.095121 141.415729 
L 362.130833 141.753052 
L 362.221737 145.549292 
L 362.379194 163.255535 
L 362.619439 220.63242 
L 362.802868 260.757259 
L 362.851567 256.374799 
L 363.059345 201.754776 
L 363.380753 147.213311 
L 363.526848 141.437869 
L 363.560937 141.730744 
L 363.648593 145.206251 
L 363.806051 161.987696 
L 364.043049 215.958422 
L 364.244335 259.884906 
L 364.293033 255.704115 
L 364.489449 205.373438 
L 364.820596 147.839201 
L 364.976431 141.415656 
L 365.005649 141.639103 
L 365.088436 144.632274 
L 365.237777 159.677832 
L 365.461789 209.257836 
L 365.684177 260.756814 
L 365.736122 255.8621 
L 365.974743 193.258413 
L 366.281542 145.789152 
L 366.408157 141.437959 
L 366.448739 141.848218 
L 366.544512 146.149669 
L 366.708463 165.347634 
L 366.963316 227.071752 
L 367.125644 259.88456 
L 367.172719 256.009339 
L 367.357772 208.873087 
L 367.695412 148.417877 
L 367.85774 141.415625 
L 367.883712 141.588944 
L 367.961629 144.167114 
L 368.1061 157.776656 
L 368.321996 203.268102 
L 368.56711 260.756072 
L 368.620678 255.327121 
L 368.930723 176.773585 
L 369.209926 143.165102 
L 369.291089 141.437907 
L 369.343034 142.149713 
L 369.451793 148.116425 
L 369.627107 172.034211 
L 370.006953 259.883896 
L 370.109219 244.343538 
L 370.609187 145.895098 
L 370.739049 141.415638 
L 370.778007 141.798523 
L 370.872157 145.926694 
L 371.031238 164.45704 
L 371.277975 224.68008 
L 371.448419 260.756838 
L 371.495494 256.520981 
L 371.69678 203.679058 
L 372.021434 147.544992 
L 372.172399 141.437839 
L 372.203241 141.68909 
L 372.287651 144.858401 
L 372.441862 160.624583 
L 372.672367 211.576221 
L 372.889885 259.884312 
L 372.938583 255.581039 
L 373.141492 203.492315 
L 373.469393 147.509535 
L 373.620358 141.415694 
L 373.6512 141.650632 
L 373.733987 144.675878 
L 373.883328 159.789483 
L 374.10734 209.472437 
L 374.329728 260.757269 
L 374.380049 256.015022 
L 374.608931 195.862352 
L 374.918976 146.311588 
L 375.053708 141.437815 
L 375.091043 141.798677 
L 375.183569 145.758639 
L 375.344273 163.862358 
L 375.591011 222.14364 
L 375.771194 259.884795 
L 375.818269 255.89003 
L 376.008192 207.382143 
L 376.342586 148.212134 
L 376.50329 141.415795 
L 376.529263 141.59912 
L 376.60718 144.207363 
L 376.751651 157.881606 
L 376.967546 203.47621 
L 377.211037 260.757365 
L 377.264605 255.486479 
L 377.540561 184.123105 
L 377.832751 144.24753 
L 377.935017 141.437835 
L 377.983715 142.043029 
L 378.089228 147.51608 
L 378.261295 170.026894 
L 378.558353 245.962777 
L 378.652503 259.884961 
L 378.704448 255.134517 
L 378.930083 197.084428 
L 379.246621 146.422491 
L 379.384599 141.415695 
L 379.420311 141.750953 
L 379.511215 145.541851 
L 379.668672 163.236999 
L 379.908916 220.599044 
L 380.092346 260.757124 
L 380.141044 256.394027 
L 380.348823 201.784267 
L 380.670231 147.222338 
L 380.816326 141.437899 
L 380.850415 141.728777 
L 380.938071 145.199202 
L 381.095529 161.970142 
L 381.332527 215.926063 
L 381.533812 259.884808 
L 381.582511 255.722501 
L 381.778927 205.40308 
L 382.110074 147.848682 
L 382.265908 141.415639 
L 382.295127 141.637393 
L 382.377914 144.625742 
L 382.527255 159.661071 
L 382.751267 209.225573 
L 382.973655 260.756548 
L 383.0256 255.882204 
L 383.262598 193.680663 
L 383.569396 145.909729 
L 383.699258 141.43797 
L 383.738217 141.845892 
L 383.83399 146.141762 
L 383.99794 165.328533 
L 384.252794 227.039062 
L 384.415121 259.884337 
L 384.462196 256.027155 
L 384.645626 209.335793 
L 384.98489 148.427777 
L 385.147217 141.415625 
L 385.17319 141.587439 
L 385.251107 144.161086 
L 385.395578 157.760902 
L 385.611473 203.236821 
L 385.856588 260.756413 
L 385.910156 255.348062 
L 386.212084 178.43894 
L 386.494534 143.387376 
L 386.580567 141.437875 
L 386.632512 142.146654 
L 386.741271 148.106938 
L 386.916585 172.012332 
L 387.298054 259.883863 
L 387.398697 244.372164 
L 387.898665 145.903008 
L 388.028527 141.415655 
L 388.067485 141.796287 
L 388.161635 145.918904 
L 388.320716 164.437939 
L 388.567453 224.646592 
L 388.737897 260.757047 
L 388.784972 256.539944 
L 388.984634 204.136625 
L 389.309289 147.687769 
L 389.461876 141.437825 
L 389.492719 141.687268 
L 389.577129 144.851691 
L 389.73134 160.607691 
L 389.961844 211.544312 
L 390.179363 259.884539 
L 390.228061 255.599645 
L 390.429347 203.941093 
L 390.757248 147.651557 
L 390.909836 141.415728 
L 390.940678 141.648879 
L 391.023465 144.669299 
L 391.172806 159.772664 
L 391.396817 209.440144 
L 391.619206 260.757347 
L 391.669527 256.034873 
L 391.896785 196.294302 
L 392.208454 146.31988 
L 392.343185 141.437818 
L 392.380521 141.796494 
L 392.473047 145.751078 
L 392.633751 163.843928 
L 392.878865 221.643485 
L 393.060672 259.884898 
L 393.107747 255.908073 
L 393.296047 207.841274 
L 393.632064 148.221887 
L 393.792768 141.41575 
L 393.820364 141.620337 
L 393.901527 144.467871 
L 394.049245 159.017591 
L 394.27001 207.062619 
L 394.500515 260.75731 
L 394.55246 255.799593 
L 394.795951 191.998724 
L 395.099503 145.654044 
L 395.224495 141.437855 
L 395.265076 141.855469 
L 395.360849 146.174214 
L 395.5248 165.406879 
L 395.779654 227.173042 
L 395.941981 259.884939 
L 395.989056 255.953916 
L 396.175732 208.348212 
L 396.513373 148.246784 
L 396.674077 141.415668 
L 396.701673 141.616179 
L 396.781213 144.361672 
L 396.927308 158.510391 
L 397.146449 205.616905 
L 397.381824 260.756938 
L 397.435392 255.559804 
L 397.701609 186.389317 
L 397.997044 144.641979 
L 398.105804 141.437936 
L 398.152879 141.993655 
L 398.255145 147.104269 
L 398.425588 168.761821 
L 398.487273 181.18413 
L 398.487273 181.18413 
" style="fill:none;stroke:#1f77b4;stroke-linecap:square;stroke-width:1.5;"/>
   </g>
   <g id="patch_3">
    <path d="M 57.6 307.584 
L 57.6 41.472 
" style="fill:none;stroke:#000000;stroke-linecap:square;stroke-linejoin:miter;stroke-width:0.8;"/>
   </g>
   <g id="patch_4">
    <path d="M 414.72 307.584 
L 414.72 41.472 
" style="fill:none;stroke:#000000;stroke-linecap:square;stroke-linejoin:miter;stroke-width:0.8;"/>
   </g>
   <g id="patch_5">
    <path d="M 57.6 307.584 
L 414.72 307.584 
" style="fill:none;stroke:#000000;stroke-linecap:square;stroke-linejoin:miter;stroke-width:0.8;"/>
   </g>
   <g id="patch_6">
    <path d="M 57.6 41.472 
L 414.72 41.472 
" style="fill:none;stroke:#000000;stroke-linecap:square;stroke-linejoin:miter;stroke-width:0.8;"/>
   </g>
  </g>
 </g>
 <defs>
  <clipPath id="p9f54f45327">
   <rect height="266.112" width="357.12" x="57.6" y="41.472"/>
  </clipPath>
 </defs>
</svg>
