<?xml version="1.0" encoding="utf-8" standalone="no"?>
<!DOCTYPE svg PUBLIC "-//W3C//DTD SVG 1.1//EN"
  "http://www.w3.org/Graphics/SVG/1.1/DTD/svg11.dtd">
<!-- Created with matplotlib (https://matplotlib.org/) -->
<svg height="316.068734pt" version="1.1" viewBox="0 0 405.945311 316.068734" width="405.945311pt" xmlns="http://www.w3.org/2000/svg" xmlns:xlink="http://www.w3.org/1999/xlink">
 <defs>
  <style type="text/css">
*{stroke-linecap:butt;stroke-linejoin:round;}
  </style>
 </defs>
 <g id="figure_1">
  <g id="patch_1">
   <path d="M 0 316.068734 
L 405.945311 316.068734 
L 405.945311 0 
L 0 0 
z
" style="fill:#ffffff;"/>
  </g>
  <g id="axes_1">
   <g id="patch_2">
    <path d="M 38.125311 276.812 
L 395.245311 276.812 
L 395.245311 10.7 
L 38.125311 10.7 
z
" style="fill:#ffffff;"/>
   </g>
   <g id="matplotlib.axis_1">
    <g id="xtick_1">
     <g id="line2d_1">
      <defs>
       <path d="M 0 0 
L 0 3.5 
" id="m752a003622" style="stroke:#000000;stroke-width:0.8;"/>
      </defs>
      <g>
       <use style="stroke:#000000;stroke-width:0.8;" x="54.545727" xlink:href="#m752a003622" y="276.812"/>
      </g>
     </g>
     <g id="text_1">
      <!-- 0.00 -->
      <defs>
       <path d="M 31.78125 66.40625 
Q 24.171875 66.40625 20.328125 58.90625 
Q 16.5 51.421875 16.5 36.375 
Q 16.5 21.390625 20.328125 13.890625 
Q 24.171875 6.390625 31.78125 6.390625 
Q 39.453125 6.390625 43.28125 13.890625 
Q 47.125 21.390625 47.125 36.375 
Q 47.125 51.421875 43.28125 58.90625 
Q 39.453125 66.40625 31.78125 66.40625 
z
M 31.78125 74.21875 
Q 44.046875 74.21875 50.515625 64.515625 
Q 56.984375 54.828125 56.984375 36.375 
Q 56.984375 17.96875 50.515625 8.265625 
Q 44.046875 -1.421875 31.78125 -1.421875 
Q 19.53125 -1.421875 13.0625 8.265625 
Q 6.59375 17.96875 6.59375 36.375 
Q 6.59375 54.828125 13.0625 64.515625 
Q 19.53125 74.21875 31.78125 74.21875 
z
" id="DejaVuSans-48"/>
       <path d="M 10.6875 12.40625 
L 21 12.40625 
L 21 0 
L 10.6875 0 
z
" id="DejaVuSans-46"/>
      </defs>
      <g transform="translate(45.69002 290.730498)scale(0.1 -0.1)">
       <use xlink:href="#DejaVuSans-48"/>
       <use x="63.623047" xlink:href="#DejaVuSans-46"/>
       <use x="95.410156" xlink:href="#DejaVuSans-48"/>
       <use x="159.033203" xlink:href="#DejaVuSans-48"/>
      </g>
     </g>
    </g>
    <g id="xtick_2">
     <g id="line2d_2">
      <g>
       <use style="stroke:#000000;stroke-width:0.8;" x="128.813998" xlink:href="#m752a003622" y="276.812"/>
      </g>
     </g>
     <g id="text_2">
      <!-- 0.01 -->
      <defs>
       <path d="M 42 31.84375 
C 42 37.96875 41.90625 48.421875 37.703125 56.453125 
C 34 63.484375 28.09375 66 22.90625 66 
C 18.09375 66 12 63.78125 8.203125 56.5625 
C 4.203125 49.015625 3.796875 39.671875 3.796875 31.84375 
C 3.796875 26.109375 3.90625 17.375 7 9.734375 
C 11.296875 -0.609375 19 -2 22.90625 -2 
C 27.5 -2 34.5 -0.109375 38.59375 9.4375 
C 41.59375 16.375 42 24.5 42 31.84375 
z
M 22.90625 -0.40625 
C 16.5 -0.40625 12.703125 5.125 11.296875 12.75 
C 10.203125 18.6875 10.203125 27.328125 10.203125 32.953125 
C 10.203125 40.6875 10.203125 47.109375 11.5 53.234375 
C 13.40625 61.78125 19 64.390625 22.90625 64.390625 
C 27 64.390625 32.296875 61.671875 34.203125 53.4375 
C 35.5 47.71875 35.59375 40.984375 35.59375 32.953125 
C 35.59375 26.421875 35.59375 18.375 34.40625 12.453125 
C 32.296875 1.5 26.40625 -0.40625 22.90625 -0.40625 
z
" id="CMR17-48"/>
       <path d="M 16.59375 4.09375 
C 16.59375 6.59375 14.59375 8.1875 12.5 8.1875 
C 10.5 8.1875 8.40625 6.59375 8.40625 4.09375 
C 8.40625 1.59375 10.40625 0 12.5 0 
C 14.5 0 16.59375 1.59375 16.59375 4.09375 
z
" id="CMR17-46"/>
       <path d="M 26.59375 63.796875 
C 26.59375 65.890625 26.5 66 25.09375 66 
C 21.203125 61.359375 15.296875 59.890625 9.703125 59.6875 
C 9.40625 59.6875 8.90625 59.6875 8.796875 59.5 
C 8.703125 59.296875 8.703125 59.09375 8.703125 57 
C 11.796875 57 17 57.59375 21 59.984375 
L 21 7.296875 
C 21 3.796875 20.796875 2.59375 12.203125 2.59375 
L 9.203125 2.59375 
L 9.203125 0 
C 14 0.09375 19 0.1875 23.796875 0.1875 
C 28.59375 0.1875 33.59375 0.09375 38.40625 0 
L 38.40625 2.59375 
L 35.40625 2.59375 
C 26.796875 2.59375 26.59375 3.6875 26.59375 7.296875 
z
" id="CMR17-49"/>
      </defs>
      <g transform="translate(119.958291 290.730498)scale(0.1 -0.1)">
       <use transform="scale(0.996264)" xlink:href="#CMR17-48"/>
       <use transform="translate(45.690477 0)scale(0.996264)" xlink:href="#CMR17-46"/>
       <use transform="translate(70.561536 0)scale(0.996264)" xlink:href="#CMR17-48"/>
       <use transform="translate(116.252013 0)scale(0.996264)" xlink:href="#CMR17-49"/>
      </g>
     </g>
    </g>
    <g id="xtick_3">
     <g id="line2d_3">
      <g>
       <use style="stroke:#000000;stroke-width:0.8;" x="203.08227" xlink:href="#m752a003622" y="276.812"/>
      </g>
     </g>
     <g id="text_3">
      <!-- 0.02 -->
      <defs>
       <path d="M 41.703125 15.46875 
L 39.90625 15.46875 
C 38.90625 8.390625 38.09375 7.1875 37.703125 6.59375 
C 37.203125 5.796875 30 5.796875 28.59375 5.796875 
L 9.40625 5.796875 
C 13 9.6875 20 16.765625 28.5 24.9375 
C 34.59375 30.71875 41.703125 37.5 41.703125 47.390625 
C 41.703125 59.1875 32.296875 66 21.796875 66 
C 10.796875 66 4.09375 56.296875 4.09375 47.296875 
C 4.09375 43.390625 7 42.890625 8.203125 42.890625 
C 9.203125 42.890625 12.203125 43.484375 12.203125 46.984375 
C 12.203125 50.09375 9.59375 51 8.203125 51 
C 7.59375 51 7 50.890625 6.59375 50.6875 
C 8.5 59.1875 14.296875 63.390625 20.40625 63.390625 
C 29.09375 63.390625 34.796875 56.5 34.796875 47.390625 
C 34.796875 38.703125 29.703125 31.21875 24 24.734375 
L 4.09375 2.296875 
L 4.09375 0 
L 39.296875 0 
z
" id="CMR17-50"/>
      </defs>
      <g transform="translate(194.226563 290.730498)scale(0.1 -0.1)">
       <use transform="scale(0.996264)" xlink:href="#CMR17-48"/>
       <use transform="translate(45.690477 0)scale(0.996264)" xlink:href="#CMR17-46"/>
       <use transform="translate(70.561536 0)scale(0.996264)" xlink:href="#CMR17-48"/>
       <use transform="translate(116.252013 0)scale(0.996264)" xlink:href="#CMR17-50"/>
      </g>
     </g>
    </g>
    <g id="xtick_4">
     <g id="line2d_4">
      <g>
       <use style="stroke:#000000;stroke-width:0.8;" x="277.350542" xlink:href="#m752a003622" y="276.812"/>
      </g>
     </g>
     <g id="text_4">
      <!-- 0.03 -->
      <defs>
       <path d="M 22.09375 34 
C 31 34 34.90625 26.140625 34.90625 17.09375 
C 34.90625 5.03125 28.5 0.390625 22.703125 0.390625 
C 17.40625 0.390625 8.796875 3.015625 6.09375 10.796875 
C 6.59375 10.59375 7.09375 10.59375 7.59375 10.59375 
C 10 10.59375 11.796875 12.1875 11.796875 14.796875 
C 11.796875 17.6875 9.59375 19 7.59375 19 
C 5.90625 19 3.296875 18.1875 3.296875 14.484375 
C 3.296875 5.234375 12.296875 -2 22.90625 -2 
C 34 -2 42.5 6.75 42.5 16.984375 
C 42.5 26.84375 34.5 34 25 35.09375 
C 32.59375 36.671875 39.90625 43.375 39.90625 52.390625 
C 39.90625 60.25 32 66 23 66 
C 13.90625 66 5.90625 60.34375 5.90625 52.296875 
C 5.90625 48.796875 8.5 48.1875 9.796875 48.1875 
C 11.90625 48.1875 13.703125 49.484375 13.703125 52.09375 
C 13.703125 54.6875 11.90625 56 9.796875 56 
C 9.40625 56 8.90625 56 8.5 55.796875 
C 11.40625 62.484375 19.296875 63.6875 22.796875 63.6875 
C 26.296875 63.6875 32.90625 61.96875 32.90625 52.296875 
C 32.90625 49.484375 32.5 44.546875 29.09375 40.21875 
C 26.09375 36.390625 22.703125 36.1875 19.40625 35.890625 
C 18.90625 35.890625 16.59375 35.6875 16.203125 35.6875 
C 15.5 35.59375 15.09375 35.5 15.09375 34.796875 
C 15.09375 34.09375 15.203125 34 17.203125 34 
z
" id="CMR17-51"/>
      </defs>
      <g transform="translate(268.494835 290.730498)scale(0.1 -0.1)">
       <use transform="scale(0.996264)" xlink:href="#CMR17-48"/>
       <use transform="translate(45.690477 0)scale(0.996264)" xlink:href="#CMR17-46"/>
       <use transform="translate(70.561536 0)scale(0.996264)" xlink:href="#CMR17-48"/>
       <use transform="translate(116.252013 0)scale(0.996264)" xlink:href="#CMR17-51"/>
      </g>
     </g>
    </g>
    <g id="xtick_5">
     <g id="line2d_5">
      <g>
       <use style="stroke:#000000;stroke-width:0.8;" x="351.618813" xlink:href="#m752a003622" y="276.812"/>
      </g>
     </g>
     <g id="text_5">
      <!-- 0.04 -->
      <defs>
       <path d="M 33.59375 64.796875 
C 33.59375 66.890625 33.5 67 31.703125 67 
L 2 19.59375 
L 2 17 
L 27.796875 17 
L 27.796875 7.1875 
C 27.796875 3.59375 27.59375 2.59375 20.59375 2.59375 
L 18.703125 2.59375 
L 18.703125 0 
C 21.90625 0.1875 27.296875 0.1875 30.703125 0.1875 
C 34.09375 0.1875 39.5 0.1875 42.703125 0 
L 42.703125 2.59375 
L 40.796875 2.59375 
C 33.796875 2.59375 33.59375 3.59375 33.59375 7.1875 
L 33.59375 17 
L 43.796875 17 
L 43.796875 19.59375 
L 33.59375 19.59375 
z
M 28.09375 58.171875 
L 28.09375 19.59375 
L 4 19.59375 
z
" id="CMR17-52"/>
      </defs>
      <g transform="translate(342.763106 290.730498)scale(0.1 -0.1)">
       <use transform="scale(0.996264)" xlink:href="#CMR17-48"/>
       <use transform="translate(45.690477 0)scale(0.996264)" xlink:href="#CMR17-46"/>
       <use transform="translate(70.561536 0)scale(0.996264)" xlink:href="#CMR17-48"/>
       <use transform="translate(116.252013 0)scale(0.996264)" xlink:href="#CMR17-52"/>
      </g>
     </g>
    </g>
    <g id="text_6">
     <!-- velocity in y-direction $u$ [$\frac{lu}{s}$] -->
     <defs>
      <path d="M 2.984375 54.6875 
L 12.5 54.6875 
L 29.59375 8.796875 
L 46.6875 54.6875 
L 56.203125 54.6875 
L 35.6875 0 
L 23.484375 0 
z
" id="DejaVuSans-118"/>
      <path d="M 56.203125 29.59375 
L 56.203125 25.203125 
L 14.890625 25.203125 
Q 15.484375 15.921875 20.484375 11.0625 
Q 25.484375 6.203125 34.421875 6.203125 
Q 39.59375 6.203125 44.453125 7.46875 
Q 49.3125 8.734375 54.109375 11.28125 
L 54.109375 2.78125 
Q 49.265625 0.734375 44.1875 -0.34375 
Q 39.109375 -1.421875 33.890625 -1.421875 
Q 20.796875 -1.421875 13.15625 6.1875 
Q 5.515625 13.8125 5.515625 26.8125 
Q 5.515625 40.234375 12.765625 48.109375 
Q 20.015625 56 32.328125 56 
Q 43.359375 56 49.78125 48.890625 
Q 56.203125 41.796875 56.203125 29.59375 
z
M 47.21875 32.234375 
Q 47.125 39.59375 43.09375 43.984375 
Q 39.0625 48.390625 32.421875 48.390625 
Q 24.90625 48.390625 20.390625 44.140625 
Q 15.875 39.890625 15.1875 32.171875 
z
" id="DejaVuSans-101"/>
      <path d="M 9.421875 75.984375 
L 18.40625 75.984375 
L 18.40625 0 
L 9.421875 0 
z
" id="DejaVuSans-108"/>
      <path d="M 30.609375 48.390625 
Q 23.390625 48.390625 19.1875 42.75 
Q 14.984375 37.109375 14.984375 27.296875 
Q 14.984375 17.484375 19.15625 11.84375 
Q 23.34375 6.203125 30.609375 6.203125 
Q 37.796875 6.203125 41.984375 11.859375 
Q 46.1875 17.53125 46.1875 27.296875 
Q 46.1875 37.015625 41.984375 42.703125 
Q 37.796875 48.390625 30.609375 48.390625 
z
M 30.609375 56 
Q 42.328125 56 49.015625 48.375 
Q 55.71875 40.765625 55.71875 27.296875 
Q 55.71875 13.875 49.015625 6.21875 
Q 42.328125 -1.421875 30.609375 -1.421875 
Q 18.84375 -1.421875 12.171875 6.21875 
Q 5.515625 13.875 5.515625 27.296875 
Q 5.515625 40.765625 12.171875 48.375 
Q 18.84375 56 30.609375 56 
z
" id="DejaVuSans-111"/>
      <path d="M 48.78125 52.59375 
L 48.78125 44.1875 
Q 44.96875 46.296875 41.140625 47.34375 
Q 37.3125 48.390625 33.40625 48.390625 
Q 24.65625 48.390625 19.8125 42.84375 
Q 14.984375 37.3125 14.984375 27.296875 
Q 14.984375 17.28125 19.8125 11.734375 
Q 24.65625 6.203125 33.40625 6.203125 
Q 37.3125 6.203125 41.140625 7.25 
Q 44.96875 8.296875 48.78125 10.40625 
L 48.78125 2.09375 
Q 45.015625 0.34375 40.984375 -0.53125 
Q 36.96875 -1.421875 32.421875 -1.421875 
Q 20.0625 -1.421875 12.78125 6.34375 
Q 5.515625 14.109375 5.515625 27.296875 
Q 5.515625 40.671875 12.859375 48.328125 
Q 20.21875 56 33.015625 56 
Q 37.15625 56 41.109375 55.140625 
Q 45.0625 54.296875 48.78125 52.59375 
z
" id="DejaVuSans-99"/>
      <path d="M 9.421875 54.6875 
L 18.40625 54.6875 
L 18.40625 0 
L 9.421875 0 
z
M 9.421875 75.984375 
L 18.40625 75.984375 
L 18.40625 64.59375 
L 9.421875 64.59375 
z
" id="DejaVuSans-105"/>
      <path d="M 18.3125 70.21875 
L 18.3125 54.6875 
L 36.8125 54.6875 
L 36.8125 47.703125 
L 18.3125 47.703125 
L 18.3125 18.015625 
Q 18.3125 11.328125 20.140625 9.421875 
Q 21.96875 7.515625 27.59375 7.515625 
L 36.8125 7.515625 
L 36.8125 0 
L 27.59375 0 
Q 17.1875 0 13.234375 3.875 
Q 9.28125 7.765625 9.28125 18.015625 
L 9.28125 47.703125 
L 2.6875 47.703125 
L 2.6875 54.6875 
L 9.28125 54.6875 
L 9.28125 70.21875 
z
" id="DejaVuSans-116"/>
      <path d="M 32.171875 -5.078125 
Q 28.375 -14.84375 24.75 -17.8125 
Q 21.140625 -20.796875 15.09375 -20.796875 
L 7.90625 -20.796875 
L 7.90625 -13.28125 
L 13.1875 -13.28125 
Q 16.890625 -13.28125 18.9375 -11.515625 
Q 21 -9.765625 23.484375 -3.21875 
L 25.09375 0.875 
L 2.984375 54.6875 
L 12.5 54.6875 
L 29.59375 11.921875 
L 46.6875 54.6875 
L 56.203125 54.6875 
z
" id="DejaVuSans-121"/>
      <path id="DejaVuSans-32"/>
      <path d="M 54.890625 33.015625 
L 54.890625 0 
L 45.90625 0 
L 45.90625 32.71875 
Q 45.90625 40.484375 42.875 44.328125 
Q 39.84375 48.1875 33.796875 48.1875 
Q 26.515625 48.1875 22.3125 43.546875 
Q 18.109375 38.921875 18.109375 30.90625 
L 18.109375 0 
L 9.078125 0 
L 9.078125 54.6875 
L 18.109375 54.6875 
L 18.109375 46.1875 
Q 21.34375 51.125 25.703125 53.5625 
Q 30.078125 56 35.796875 56 
Q 45.21875 56 50.046875 50.171875 
Q 54.890625 44.34375 54.890625 33.015625 
z
" id="DejaVuSans-110"/>
      <path d="M 4.890625 31.390625 
L 31.203125 31.390625 
L 31.203125 23.390625 
L 4.890625 23.390625 
z
" id="DejaVuSans-45"/>
      <path d="M 45.40625 46.390625 
L 45.40625 75.984375 
L 54.390625 75.984375 
L 54.390625 0 
L 45.40625 0 
L 45.40625 8.203125 
Q 42.578125 3.328125 38.25 0.953125 
Q 33.9375 -1.421875 27.875 -1.421875 
Q 17.96875 -1.421875 11.734375 6.484375 
Q 5.515625 14.40625 5.515625 27.296875 
Q 5.515625 40.1875 11.734375 48.09375 
Q 17.96875 56 27.875 56 
Q 33.9375 56 38.25 53.625 
Q 42.578125 51.265625 45.40625 46.390625 
z
M 14.796875 27.296875 
Q 14.796875 17.390625 18.875 11.75 
Q 22.953125 6.109375 30.078125 6.109375 
Q 37.203125 6.109375 41.296875 11.75 
Q 45.40625 17.390625 45.40625 27.296875 
Q 45.40625 37.203125 41.296875 42.84375 
Q 37.203125 48.484375 30.078125 48.484375 
Q 22.953125 48.484375 18.875 42.84375 
Q 14.796875 37.203125 14.796875 27.296875 
z
" id="DejaVuSans-100"/>
      <path d="M 41.109375 46.296875 
Q 39.59375 47.171875 37.8125 47.578125 
Q 36.03125 48 33.890625 48 
Q 26.265625 48 22.1875 43.046875 
Q 18.109375 38.09375 18.109375 28.8125 
L 18.109375 0 
L 9.078125 0 
L 9.078125 54.6875 
L 18.109375 54.6875 
L 18.109375 46.1875 
Q 20.953125 51.171875 25.484375 53.578125 
Q 30.03125 56 36.53125 56 
Q 37.453125 56 38.578125 55.875 
Q 39.703125 55.765625 41.0625 55.515625 
z
" id="DejaVuSans-114"/>
      <path d="M 6.6875 21.6875 
L 13.09375 54.6875 
L 22.125 54.6875 
L 15.71875 22.015625 
Q 15.234375 19.625 15.015625 17.921875 
Q 14.796875 16.21875 14.796875 15.09375 
Q 14.796875 10.9375 17.328125 8.65625 
Q 19.875 6.390625 24.515625 6.390625 
Q 31.734375 6.390625 37 11.265625 
Q 42.28125 16.15625 43.890625 24.421875 
L 49.90625 54.6875 
L 58.890625 54.6875 
L 48.296875 0 
L 39.3125 0 
L 41.109375 8.59375 
Q 37.3125 3.8125 32.0625 1.1875 
Q 26.8125 -1.421875 20.90625 -1.421875 
Q 13.71875 -1.421875 9.71875 2.515625 
Q 5.71875 6.453125 5.71875 13.484375 
Q 5.71875 14.9375 5.953125 17.140625 
Q 6.203125 19.34375 6.6875 21.6875 
z
" id="DejaVuSans-Oblique-117"/>
      <path d="M 8.59375 75.984375 
L 29.296875 75.984375 
L 29.296875 69 
L 17.578125 69 
L 17.578125 -6.203125 
L 29.296875 -6.203125 
L 29.296875 -13.1875 
L 8.59375 -13.1875 
z
" id="DejaVuSans-91"/>
      <path d="M 18.3125 75.984375 
L 27.296875 75.984375 
L 12.5 0 
L 3.515625 0 
z
" id="DejaVuSans-Oblique-108"/>
      <path d="M 50 53.078125 
L 48.296875 44.578125 
Q 44.734375 46.53125 40.765625 47.5 
Q 36.8125 48.484375 32.625 48.484375 
Q 25.53125 48.484375 21.453125 46.0625 
Q 17.390625 43.65625 17.390625 39.5 
Q 17.390625 34.671875 26.859375 32.078125 
Q 27.59375 31.890625 27.9375 31.78125 
L 30.8125 30.90625 
Q 39.796875 28.421875 42.796875 25.6875 
Q 45.796875 22.953125 45.796875 18.21875 
Q 45.796875 9.515625 38.890625 4.046875 
Q 31.984375 -1.421875 20.796875 -1.421875 
Q 16.453125 -1.421875 11.671875 -0.578125 
Q 6.890625 0.25 1.125 2 
L 2.875 11.28125 
Q 7.8125 8.734375 12.59375 7.421875 
Q 17.390625 6.109375 21.78125 6.109375 
Q 28.375 6.109375 32.5 8.9375 
Q 36.625 11.765625 36.625 16.109375 
Q 36.625 20.796875 25.78125 23.6875 
L 24.859375 23.921875 
L 21.78125 24.703125 
Q 14.9375 26.515625 11.765625 29.46875 
Q 8.59375 32.421875 8.59375 37.015625 
Q 8.59375 45.75 15.15625 50.875 
Q 21.734375 56 33.015625 56 
Q 37.453125 56 41.671875 55.265625 
Q 45.90625 54.546875 50 53.078125 
z
" id="DejaVuSans-Oblique-115"/>
      <path d="M 30.421875 75.984375 
L 30.421875 -13.1875 
L 9.71875 -13.1875 
L 9.71875 -6.203125 
L 21.390625 -6.203125 
L 21.390625 69 
L 9.71875 69 
L 9.71875 75.984375 
z
" id="DejaVuSans-93"/>
     </defs>
     <g transform="translate(155.301577 306.931555)scale(0.1 -0.1)">
      <use transform="translate(0 0.01875)" xlink:href="#DejaVuSans-118"/>
      <use transform="translate(59.179688 0.01875)" xlink:href="#DejaVuSans-101"/>
      <use transform="translate(120.703125 0.01875)" xlink:href="#DejaVuSans-108"/>
      <use transform="translate(148.486328 0.01875)" xlink:href="#DejaVuSans-111"/>
      <use transform="translate(209.667969 0.01875)" xlink:href="#DejaVuSans-99"/>
      <use transform="translate(264.648438 0.01875)" xlink:href="#DejaVuSans-105"/>
      <use transform="translate(292.431641 0.01875)" xlink:href="#DejaVuSans-116"/>
      <use transform="translate(331.640625 0.01875)" xlink:href="#DejaVuSans-121"/>
      <use transform="translate(390.820312 0.01875)" xlink:href="#DejaVuSans-32"/>
      <use transform="translate(422.607422 0.01875)" xlink:href="#DejaVuSans-105"/>
      <use transform="translate(450.390625 0.01875)" xlink:href="#DejaVuSans-110"/>
      <use transform="translate(513.769531 0.01875)" xlink:href="#DejaVuSans-32"/>
      <use transform="translate(545.556641 0.01875)" xlink:href="#DejaVuSans-121"/>
      <use transform="translate(604.736328 0.01875)" xlink:href="#DejaVuSans-45"/>
      <use transform="translate(640.820312 0.01875)" xlink:href="#DejaVuSans-100"/>
      <use transform="translate(704.296875 0.01875)" xlink:href="#DejaVuSans-105"/>
      <use transform="translate(732.080078 0.01875)" xlink:href="#DejaVuSans-114"/>
      <use transform="translate(773.193359 0.01875)" xlink:href="#DejaVuSans-101"/>
      <use transform="translate(834.716797 0.01875)" xlink:href="#DejaVuSans-99"/>
      <use transform="translate(889.697266 0.01875)" xlink:href="#DejaVuSans-116"/>
      <use transform="translate(928.90625 0.01875)" xlink:href="#DejaVuSans-105"/>
      <use transform="translate(956.689453 0.01875)" xlink:href="#DejaVuSans-111"/>
      <use transform="translate(1017.871094 0.01875)" xlink:href="#DejaVuSans-110"/>
      <use transform="translate(1081.25 0.01875)" xlink:href="#DejaVuSans-32"/>
      <use transform="translate(1113.037109 0.01875)" xlink:href="#DejaVuSans-Oblique-117"/>
      <use transform="translate(1176.416016 0.01875)" xlink:href="#DejaVuSans-32"/>
      <use transform="translate(1208.203125 0.01875)" xlink:href="#DejaVuSans-91"/>
      <use transform="translate(1247.216797 44.810938)scale(0.7)" xlink:href="#DejaVuSans-Oblique-108"/>
      <use transform="translate(1266.665039 44.810938)scale(0.7)" xlink:href="#DejaVuSans-Oblique-117"/>
      <use transform="translate(1261.216797 -26.634375)scale(0.7)" xlink:href="#DejaVuSans-Oblique-115"/>
      <use transform="translate(1323.530273 0.01875)" xlink:href="#DejaVuSans-93"/>
      <path d="M 1247.216797 18.815625 
L 1247.216797 25.065625 
L 1311.030273 25.065625 
L 1311.030273 18.815625 
L 1247.216797 18.815625 
z
"/>
     </g>
    </g>
   </g>
   <g id="matplotlib.axis_2">
    <g id="ytick_1">
     <g id="line2d_6">
      <defs>
       <path d="M 0 0 
L -3.5 0 
" id="m601e6eaf25" style="stroke:#000000;stroke-width:0.8;"/>
      </defs>
      <g>
       <use style="stroke:#000000;stroke-width:0.8;" x="38.125311" xlink:href="#m601e6eaf25" y="262.7"/>
      </g>
     </g>
     <g id="text_7">
      <!-- 0 -->
      <g transform="translate(26.143975 266.159249)scale(0.1 -0.1)">
       <use xlink:href="#DejaVuSans-48"/>
      </g>
     </g>
    </g>
    <g id="ytick_2">
     <g id="line2d_7">
      <g>
       <use style="stroke:#000000;stroke-width:0.8;" x="38.125311" xlink:href="#m601e6eaf25" y="222.38"/>
      </g>
     </g>
     <g id="text_8">
      <!-- 10 -->
      <g transform="translate(21.16264 225.839249)scale(0.1 -0.1)">
       <use transform="scale(0.996264)" xlink:href="#CMR17-49"/>
       <use transform="translate(45.690477 0)scale(0.996264)" xlink:href="#CMR17-48"/>
      </g>
     </g>
    </g>
    <g id="ytick_3">
     <g id="line2d_8">
      <g>
       <use style="stroke:#000000;stroke-width:0.8;" x="38.125311" xlink:href="#m601e6eaf25" y="182.06"/>
      </g>
     </g>
     <g id="text_9">
      <!-- 20 -->
      <g transform="translate(21.16264 185.519249)scale(0.1 -0.1)">
       <use transform="scale(0.996264)" xlink:href="#CMR17-50"/>
       <use transform="translate(45.690477 0)scale(0.996264)" xlink:href="#CMR17-48"/>
      </g>
     </g>
    </g>
    <g id="ytick_4">
     <g id="line2d_9">
      <g>
       <use style="stroke:#000000;stroke-width:0.8;" x="38.125311" xlink:href="#m601e6eaf25" y="141.74"/>
      </g>
     </g>
     <g id="text_10">
      <!-- 30 -->
      <g transform="translate(21.16264 145.199249)scale(0.1 -0.1)">
       <use transform="scale(0.996264)" xlink:href="#CMR17-51"/>
       <use transform="translate(45.690477 0)scale(0.996264)" xlink:href="#CMR17-48"/>
      </g>
     </g>
    </g>
    <g id="ytick_5">
     <g id="line2d_10">
      <g>
       <use style="stroke:#000000;stroke-width:0.8;" x="38.125311" xlink:href="#m601e6eaf25" y="101.42"/>
      </g>
     </g>
     <g id="text_11">
      <!-- 40 -->
      <g transform="translate(21.16264 104.879249)scale(0.1 -0.1)">
       <use transform="scale(0.996264)" xlink:href="#CMR17-52"/>
       <use transform="translate(45.690477 0)scale(0.996264)" xlink:href="#CMR17-48"/>
      </g>
     </g>
    </g>
    <g id="ytick_6">
     <g id="line2d_11">
      <g>
       <use style="stroke:#000000;stroke-width:0.8;" x="38.125311" xlink:href="#m601e6eaf25" y="61.1"/>
      </g>
     </g>
     <g id="text_12">
      <!-- 50 -->
      <defs>
       <path d="M 11.40625 58.59375 
C 12.40625 58.1875 16.5 56.890625 20.703125 56.890625 
C 30 56.890625 35.09375 61.890625 38 64.6875 
C 38 65.484375 38 66 37.40625 66 
C 37.296875 66 37.09375 66 36.296875 65.59375 
C 32.796875 64.09375 28.703125 63 23.703125 63 
C 20.703125 63 16.203125 63.359375 11.296875 65.484375 
C 10.203125 66 10 66 9.90625 66 
C 9.40625 66 9.296875 65.890625 9.296875 63.90625 
L 9.296875 34.859375 
C 9.296875 33.015625 9.296875 32.5 10.296875 32.5 
C 10.796875 32.5 11 32.703125 11.5 33.421875 
C 14.703125 38.046875 19.09375 40 24.09375 40 
C 27.59375 40 35.09375 37.734375 35.09375 20.203125 
C 35.09375 16.984375 35.09375 11.1875 32.09375 6.59375 
C 29.59375 2.484375 25.703125 0.390625 21.40625 0.390625 
C 14.796875 0.390625 8.09375 4.984375 6.296875 12.6875 
C 6.703125 12.59375 7.5 12.390625 7.90625 12.390625 
C 9.203125 12.390625 11.703125 13.09375 11.703125 16.1875 
C 11.703125 18.890625 9.796875 20 7.90625 20 
C 5.59375 20 4.09375 18.59375 4.09375 15.796875 
C 4.09375 7.09375 11 -2 21.59375 -2 
C 31.90625 -2 41.703125 6.890625 41.703125 19.796875 
C 41.703125 32.09375 33.90625 41.59375 24.203125 41.59375 
C 19.09375 41.59375 14.796875 39.6875 11.40625 36 
z
" id="CMR17-53"/>
      </defs>
      <g transform="translate(21.16264 64.559249)scale(0.1 -0.1)">
       <use transform="scale(0.996264)" xlink:href="#CMR17-53"/>
       <use transform="translate(45.690477 0)scale(0.996264)" xlink:href="#CMR17-48"/>
      </g>
     </g>
    </g>
    <g id="ytick_7">
     <g id="line2d_12">
      <g>
       <use style="stroke:#000000;stroke-width:0.8;" x="38.125311" xlink:href="#m601e6eaf25" y="20.78"/>
      </g>
     </g>
     <g id="text_13">
      <!-- 60 -->
      <defs>
       <path d="M 10.59375 34.34375 
C 10.59375 58 21.796875 63.6875 28.296875 63.6875 
C 30.40625 63.6875 35.5 63.265625 37.5 59.09375 
C 35.90625 59.09375 32.90625 59.09375 32.90625 55.59375 
C 32.90625 52.890625 35.09375 52 36.5 52 
C 37.40625 52 40.09375 52.390625 40.09375 55.796875 
C 40.09375 62.296875 35.09375 66 28.203125 66 
C 16.296875 66 3.796875 53.296875 3.796875 31.421875 
C 3.796875 4.015625 15.09375 -2 23.09375 -2 
C 32.796875 -2 42 6.734375 42 20.234375 
C 42 32.828125 33.90625 42 23.703125 42 
C 17.59375 42 13.09375 37.96875 10.59375 30.921875 
z
M 23.09375 0.390625 
C 10.796875 0.390625 10.796875 18.9375 10.796875 22.65625 
C 10.796875 29.90625 14.203125 40.390625 23.5 40.390625 
C 25.203125 40.390625 30.09375 40.390625 33.40625 33.4375 
C 35.203125 29.515625 35.203125 25.375 35.203125 20.34375 
C 35.203125 14.90625 35.203125 10.875 33.09375 6.84375 
C 30.90625 2.703125 27.703125 0.390625 23.09375 0.390625 
z
" id="CMR17-54"/>
      </defs>
      <g transform="translate(21.16264 24.239249)scale(0.1 -0.1)">
       <use transform="scale(0.996264)" xlink:href="#CMR17-54"/>
       <use transform="translate(45.690477 0)scale(0.996264)" xlink:href="#CMR17-48"/>
      </g>
     </g>
    </g>
    <g id="text_14">
     <!-- y position [lu] -->
     <defs>
      <path d="M 18.109375 8.203125 
L 18.109375 -20.796875 
L 9.078125 -20.796875 
L 9.078125 54.6875 
L 18.109375 54.6875 
L 18.109375 46.390625 
Q 20.953125 51.265625 25.265625 53.625 
Q 29.59375 56 35.59375 56 
Q 45.5625 56 51.78125 48.09375 
Q 58.015625 40.1875 58.015625 27.296875 
Q 58.015625 14.40625 51.78125 6.484375 
Q 45.5625 -1.421875 35.59375 -1.421875 
Q 29.59375 -1.421875 25.265625 0.953125 
Q 20.953125 3.328125 18.109375 8.203125 
z
M 48.6875 27.296875 
Q 48.6875 37.203125 44.609375 42.84375 
Q 40.53125 48.484375 33.40625 48.484375 
Q 26.265625 48.484375 22.1875 42.84375 
Q 18.109375 37.203125 18.109375 27.296875 
Q 18.109375 17.390625 22.1875 11.75 
Q 26.265625 6.109375 33.40625 6.109375 
Q 40.53125 6.109375 44.609375 11.75 
Q 48.6875 17.390625 48.6875 27.296875 
z
" id="DejaVuSans-112"/>
      <path d="M 44.28125 53.078125 
L 44.28125 44.578125 
Q 40.484375 46.53125 36.375 47.5 
Q 32.28125 48.484375 27.875 48.484375 
Q 21.1875 48.484375 17.84375 46.4375 
Q 14.5 44.390625 14.5 40.28125 
Q 14.5 37.15625 16.890625 35.375 
Q 19.28125 33.59375 26.515625 31.984375 
L 29.59375 31.296875 
Q 39.15625 29.25 43.1875 25.515625 
Q 47.21875 21.78125 47.21875 15.09375 
Q 47.21875 7.46875 41.1875 3.015625 
Q 35.15625 -1.421875 24.609375 -1.421875 
Q 20.21875 -1.421875 15.453125 -0.5625 
Q 10.6875 0.296875 5.421875 2 
L 5.421875 11.28125 
Q 10.40625 8.6875 15.234375 7.390625 
Q 20.0625 6.109375 24.8125 6.109375 
Q 31.15625 6.109375 34.5625 8.28125 
Q 37.984375 10.453125 37.984375 14.40625 
Q 37.984375 18.0625 35.515625 20.015625 
Q 33.0625 21.96875 24.703125 23.78125 
L 21.578125 24.515625 
Q 13.234375 26.265625 9.515625 29.90625 
Q 5.8125 33.546875 5.8125 39.890625 
Q 5.8125 47.609375 11.28125 51.796875 
Q 16.75 56 26.8125 56 
Q 31.78125 56 36.171875 55.265625 
Q 40.578125 54.546875 44.28125 53.078125 
z
" id="DejaVuSans-115"/>
      <path d="M 8.5 21.578125 
L 8.5 54.6875 
L 17.484375 54.6875 
L 17.484375 21.921875 
Q 17.484375 14.15625 20.5 10.265625 
Q 23.53125 6.390625 29.59375 6.390625 
Q 36.859375 6.390625 41.078125 11.03125 
Q 45.3125 15.671875 45.3125 23.6875 
L 45.3125 54.6875 
L 54.296875 54.6875 
L 54.296875 0 
L 45.3125 0 
L 45.3125 8.40625 
Q 42.046875 3.421875 37.71875 1 
Q 33.40625 -1.421875 27.6875 -1.421875 
Q 18.265625 -1.421875 13.375 4.4375 
Q 8.5 10.296875 8.5 21.578125 
z
M 31.109375 56 
z
" id="DejaVuSans-117"/>
     </defs>
     <g transform="translate(14.67198 173.948412)rotate(-90)scale(0.1 -0.1)">
      <use xlink:href="#DejaVuSans-121"/>
      <use x="59.179688" xlink:href="#DejaVuSans-32"/>
      <use x="90.966797" xlink:href="#DejaVuSans-112"/>
      <use x="154.443359" xlink:href="#DejaVuSans-111"/>
      <use x="215.625" xlink:href="#DejaVuSans-115"/>
      <use x="267.724609" xlink:href="#DejaVuSans-105"/>
      <use x="295.507812" xlink:href="#DejaVuSans-116"/>
      <use x="334.716797" xlink:href="#DejaVuSans-105"/>
      <use x="362.5" xlink:href="#DejaVuSans-111"/>
      <use x="423.681641" xlink:href="#DejaVuSans-110"/>
      <use x="487.060547" xlink:href="#DejaVuSans-32"/>
      <use x="518.847656" xlink:href="#DejaVuSans-91"/>
      <use x="557.861328" xlink:href="#DejaVuSans-108"/>
      <use x="585.644531" xlink:href="#DejaVuSans-117"/>
      <use x="649.023438" xlink:href="#DejaVuSans-93"/>
     </g>
    </g>
   </g>
   <g id="line2d_13">
    <path clip-path="url(#p6785305f56)" d="M 54.358038 262.7 
L 61.472012 258.668 
L 76.656303 254.636 
L 98.133206 250.604 
L 122.041947 246.572 
L 145.997431 242.54 
L 168.500721 238.508 
L 188.896372 234.476 
L 207.079782 230.444 
L 223.239549 226.412 
L 237.675387 222.38 
L 250.702635 218.348 
L 262.596336 214.316 
L 273.567492 210.284 
L 283.760444 206.252 
L 293.263543 202.22 
L 302.123918 198.188 
L 310.36181 194.156 
L 317.982005 190.124 
L 324.981881 186.092 
L 331.356329 182.06 
L 337.100335 178.028 
L 342.210029 173.996 
L 346.682861 169.964 
L 350.51738 165.932 
L 353.712905 161.9 
L 356.269213 157.868 
L 358.186312 153.836 
L 359.464296 149.804 
L 360.10326 145.772 
L 360.10326 141.74 
L 359.464296 137.708 
L 358.186312 133.676 
L 356.269213 129.644 
L 353.712905 125.612 
L 350.51738 121.58 
L 346.682861 117.548 
L 342.210029 113.516 
L 337.100335 109.484 
L 331.356329 105.452 
L 324.981881 101.42 
L 317.982005 97.388 
L 310.36181 93.356 
L 302.123918 89.324 
L 293.263543 85.292 
L 283.760444 81.26 
L 273.567492 77.228 
L 262.596336 73.196 
L 250.702635 69.164 
L 237.675387 65.132 
L 223.239549 61.1 
L 207.079782 57.068 
L 188.896372 53.036 
L 168.500721 49.004 
L 145.997431 44.972 
L 122.041947 40.94 
L 98.133206 36.908 
L 76.656303 32.876 
L 61.472012 28.844 
L 54.358038 24.812 
" style="fill:none;stroke:#00ffff;stroke-dasharray:1,1.65;stroke-dashoffset:0;"/>
   </g>
   <g id="line2d_14">
    <path clip-path="url(#p6785305f56)" d="M 54.545727 264.716 
L 74.230074 260.684 
L 93.247155 256.652 
L 111.59697 252.62 
L 129.279519 248.588 
L 146.294803 244.556 
L 162.64282 240.524 
L 178.323571 236.492 
L 193.337056 232.46 
L 207.683275 228.428 
L 221.362228 224.396 
L 234.373916 220.364 
L 246.718337 216.332 
L 258.395492 212.3 
L 269.405381 208.268 
L 279.748004 204.236 
L 289.423361 200.204 
L 298.431452 196.172 
L 306.772277 192.14 
L 314.445836 188.108 
L 321.452129 184.076 
L 327.791157 180.044 
L 333.462918 176.012 
L 338.467413 171.98 
L 342.804642 167.948 
L 346.474605 163.916 
L 349.477302 159.884 
L 351.812733 155.852 
L 353.480898 151.82 
L 354.481797 147.788 
L 354.81543 143.756 
L 354.481797 139.724 
L 353.480898 135.692 
L 351.812733 131.66 
L 349.477302 127.628 
L 346.474605 123.596 
L 342.804642 119.564 
L 338.467413 115.532 
L 333.462918 111.5 
L 327.791157 107.468 
L 321.452129 103.436 
L 314.445836 99.404 
L 306.772277 95.372 
L 298.431452 91.34 
L 289.423361 87.308 
L 279.748004 83.276 
L 269.405381 79.244 
L 258.395492 75.212 
L 246.718337 71.18 
L 234.373916 67.148 
L 221.362228 63.116 
L 207.683275 59.084 
L 193.337056 55.052 
L 178.323571 51.02 
L 162.64282 46.988 
L 146.294803 42.956 
L 129.279519 38.924 
L 111.59697 34.892 
L 93.247155 30.86 
L 74.230074 26.828 
L 54.545727 22.796 
" style="fill:none;stroke:#ff0000;stroke-dasharray:5.55,2.4;stroke-dashoffset:0;stroke-width:1.5;"/>
   </g>
   <g id="line2d_15">
    <path clip-path="url(#p6785305f56)" d="M 54.545727 264.716 
L 57.82317 264.716 
L 61.100613 264.716 
L 64.378056 264.716 
L 67.655499 264.716 
L 70.932942 264.716 
L 74.210385 264.716 
L 77.487828 264.716 
L 80.765271 264.716 
L 84.042714 264.716 
L 87.320157 264.716 
L 90.5976 264.716 
L 93.875043 264.716 
L 97.152486 264.716 
L 100.429929 264.716 
L 103.707372 264.716 
L 106.984815 264.716 
L 110.262258 264.716 
L 113.539701 264.716 
L 116.817144 264.716 
L 120.094587 264.716 
L 123.37203 264.716 
L 126.649473 264.716 
L 129.926916 264.716 
L 133.204359 264.716 
L 136.481802 264.716 
L 139.759245 264.716 
L 143.036688 264.716 
L 146.314131 264.716 
L 149.591574 264.716 
L 152.869017 264.716 
L 156.14646 264.716 
L 159.423903 264.716 
L 162.701346 264.716 
L 165.978789 264.716 
L 169.256232 264.716 
L 172.533675 264.716 
L 175.811118 264.716 
L 179.088561 264.716 
L 182.366004 264.716 
L 185.643447 264.716 
L 188.92089 264.716 
L 192.198333 264.716 
L 195.475776 264.716 
L 198.753219 264.716 
L 202.030662 264.716 
L 205.308105 264.716 
L 208.585548 264.716 
L 211.862991 264.716 
L 215.140434 264.716 
L 218.417877 264.716 
L 221.69532 264.716 
L 224.972763 264.716 
L 228.250206 264.716 
L 231.527648 264.716 
L 234.805091 264.716 
L 238.082534 264.716 
L 241.359977 264.716 
L 244.63742 264.716 
L 247.914863 264.716 
L 251.192306 264.716 
L 254.469749 264.716 
L 257.747192 264.716 
L 261.024635 264.716 
L 264.302078 264.716 
L 267.579521 264.716 
L 270.856964 264.716 
L 274.134407 264.716 
L 277.41185 264.716 
L 280.689293 264.716 
L 283.966736 264.716 
L 287.244179 264.716 
L 290.521622 264.716 
L 293.799065 264.716 
L 297.076508 264.716 
L 300.353951 264.716 
L 303.631394 264.716 
L 306.908837 264.716 
L 310.18628 264.716 
L 313.463723 264.716 
L 316.741166 264.716 
L 320.018609 264.716 
L 323.296052 264.716 
L 326.573495 264.716 
L 329.850938 264.716 
L 333.128381 264.716 
L 336.405824 264.716 
L 339.683267 264.716 
L 342.96071 264.716 
L 346.238153 264.716 
L 349.515596 264.716 
L 352.793039 264.716 
L 356.070482 264.716 
L 359.347925 264.716 
L 362.625368 264.716 
L 365.902811 264.716 
L 369.180254 264.716 
L 372.457697 264.716 
L 375.73514 264.716 
L 379.012583 264.716 
" style="fill:none;stroke:#008000;stroke-linecap:square;stroke-width:1.5;"/>
   </g>
   <g id="line2d_16">
    <path clip-path="url(#p6785305f56)" d="M 54.545727 22.796 
L 57.82317 22.796 
L 61.100613 22.796 
L 64.378056 22.796 
L 67.655499 22.796 
L 70.932942 22.796 
L 74.210385 22.796 
L 77.487828 22.796 
L 80.765271 22.796 
L 84.042714 22.796 
L 87.320157 22.796 
L 90.5976 22.796 
L 93.875043 22.796 
L 97.152486 22.796 
L 100.429929 22.796 
L 103.707372 22.796 
L 106.984815 22.796 
L 110.262258 22.796 
L 113.539701 22.796 
L 116.817144 22.796 
L 120.094587 22.796 
L 123.37203 22.796 
L 126.649473 22.796 
L 129.926916 22.796 
L 133.204359 22.796 
L 136.481802 22.796 
L 139.759245 22.796 
L 143.036688 22.796 
L 146.314131 22.796 
L 149.591574 22.796 
L 152.869017 22.796 
L 156.14646 22.796 
L 159.423903 22.796 
L 162.701346 22.796 
L 165.978789 22.796 
L 169.256232 22.796 
L 172.533675 22.796 
L 175.811118 22.796 
L 179.088561 22.796 
L 182.366004 22.796 
L 185.643447 22.796 
L 188.92089 22.796 
L 192.198333 22.796 
L 195.475776 22.796 
L 198.753219 22.796 
L 202.030662 22.796 
L 205.308105 22.796 
L 208.585548 22.796 
L 211.862991 22.796 
L 215.140434 22.796 
L 218.417877 22.796 
L 221.69532 22.796 
L 224.972763 22.796 
L 228.250206 22.796 
L 231.527648 22.796 
L 234.805091 22.796 
L 238.082534 22.796 
L 241.359977 22.796 
L 244.63742 22.796 
L 247.914863 22.796 
L 251.192306 22.796 
L 254.469749 22.796 
L 257.747192 22.796 
L 261.024635 22.796 
L 264.302078 22.796 
L 267.579521 22.796 
L 270.856964 22.796 
L 274.134407 22.796 
L 277.41185 22.796 
L 280.689293 22.796 
L 283.966736 22.796 
L 287.244179 22.796 
L 290.521622 22.796 
L 293.799065 22.796 
L 297.076508 22.796 
L 300.353951 22.796 
L 303.631394 22.796 
L 306.908837 22.796 
L 310.18628 22.796 
L 313.463723 22.796 
L 316.741166 22.796 
L 320.018609 22.796 
L 323.296052 22.796 
L 326.573495 22.796 
L 329.850938 22.796 
L 333.128381 22.796 
L 336.405824 22.796 
L 339.683267 22.796 
L 342.96071 22.796 
L 346.238153 22.796 
L 349.515596 22.796 
L 352.793039 22.796 
L 356.070482 22.796 
L 359.347925 22.796 
L 362.625368 22.796 
L 365.902811 22.796 
L 369.180254 22.796 
L 372.457697 22.796 
L 375.73514 22.796 
L 379.012583 22.796 
" style="fill:none;stroke:#008000;stroke-linecap:square;stroke-width:1.5;"/>
   </g>
   <g id="line2d_17">
    <path clip-path="url(#p6785305f56)" d="M 64.599213 262.7 
L 84.324399 258.668 
L 103.340218 254.636 
L 121.649469 250.604 
L 139.254999 246.572 
L 156.159654 242.54 
L 172.366275 238.508 
L 187.877668 234.476 
L 202.696587 230.444 
L 216.825708 226.412 
L 230.267615 222.38 
L 243.024771 218.348 
L 255.099508 214.316 
L 266.494001 210.284 
L 277.210262 206.252 
L 287.250121 202.22 
L 296.615224 198.188 
L 305.307026 194.156 
L 313.326793 190.124 
L 320.675606 186.092 
L 327.354366 182.06 
L 333.363811 178.028 
L 338.70453 173.996 
L 343.376975 169.964 
L 347.381489 165.932 
L 350.718316 161.9 
L 353.387627 157.868 
L 355.389534 153.836 
L 356.724107 149.804 
L 357.391385 145.772 
L 357.391385 141.74 
L 356.724107 137.708 
L 355.389534 133.676 
L 353.387627 129.644 
L 350.718316 125.612 
L 347.381489 121.58 
L 343.376975 117.548 
L 338.70453 113.516 
L 333.363811 109.484 
L 327.354366 105.452 
L 320.675606 101.42 
L 313.326793 97.388 
L 305.307026 93.356 
L 296.615224 89.324 
L 287.250121 85.292 
L 277.210262 81.26 
L 266.494001 77.228 
L 255.099508 73.196 
L 243.024771 69.164 
L 230.267615 65.132 
L 216.825708 61.1 
L 202.696587 57.068 
L 187.877668 53.036 
L 172.366275 49.004 
L 156.159654 44.972 
L 139.254999 40.94 
L 121.649469 36.908 
L 103.340218 32.876 
L 84.324399 28.844 
L 64.599213 24.812 
" style="fill:none;stroke:#0000ff;stroke-dasharray:6.4,1.6,1,1.6;stroke-dashoffset:0;"/>
   </g>
   <g id="line2d_18">
    <path clip-path="url(#p6785305f56)" d="M 54.545727 264.716 
L 74.257015 260.684 
L 93.300124 256.652 
L 111.675054 252.62 
L 129.381804 248.588 
L 146.420376 244.556 
L 162.790768 240.524 
L 178.49298 236.492 
L 193.527014 232.46 
L 207.892868 228.428 
L 221.590543 224.396 
L 234.620038 220.364 
L 246.981355 216.332 
L 258.674492 212.3 
L 269.69945 208.268 
L 280.056228 204.236 
L 289.744828 200.204 
L 298.765248 196.172 
L 307.117489 192.14 
L 314.80155 188.108 
L 321.817432 184.076 
L 328.165135 180.044 
L 333.844659 176.012 
L 338.856004 171.98 
L 343.199169 167.948 
L 346.874155 163.916 
L 349.880961 159.884 
L 352.219589 155.852 
L 353.890037 151.82 
L 354.892306 147.788 
L 355.226396 143.756 
L 354.892306 139.724 
L 353.890037 135.692 
L 352.219589 131.66 
L 349.880961 127.628 
L 346.874155 123.596 
L 343.199169 119.564 
L 338.856004 115.532 
L 333.844659 111.5 
L 328.165135 107.468 
L 321.817432 103.436 
L 314.80155 99.404 
L 307.117489 95.372 
L 298.765248 91.34 
L 289.744828 87.308 
L 280.056228 83.276 
L 269.69945 79.244 
L 258.674492 75.212 
L 246.981355 71.18 
L 234.620038 67.148 
L 221.590543 63.116 
L 207.892868 59.084 
L 193.527014 55.052 
L 178.49298 51.02 
L 162.790768 46.988 
L 146.420376 42.956 
L 129.381804 38.924 
L 111.675054 34.892 
L 93.300124 30.86 
L 74.257015 26.828 
L 54.545727 22.796 
" style="fill:none;stroke:#ff0000;stroke-dasharray:5.55,2.4;stroke-dashoffset:0;stroke-width:1.5;"/>
   </g>
   <g id="line2d_19">
    <path clip-path="url(#p6785305f56)" d="M 54.545727 264.716 
L 57.82317 264.716 
L 61.100613 264.716 
L 64.378056 264.716 
L 67.655499 264.716 
L 70.932942 264.716 
L 74.210385 264.716 
L 77.487828 264.716 
L 80.765271 264.716 
L 84.042714 264.716 
L 87.320157 264.716 
L 90.5976 264.716 
L 93.875043 264.716 
L 97.152486 264.716 
L 100.429929 264.716 
L 103.707372 264.716 
L 106.984815 264.716 
L 110.262258 264.716 
L 113.539701 264.716 
L 116.817144 264.716 
L 120.094587 264.716 
L 123.37203 264.716 
L 126.649473 264.716 
L 129.926916 264.716 
L 133.204359 264.716 
L 136.481802 264.716 
L 139.759245 264.716 
L 143.036688 264.716 
L 146.314131 264.716 
L 149.591574 264.716 
L 152.869017 264.716 
L 156.14646 264.716 
L 159.423903 264.716 
L 162.701346 264.716 
L 165.978789 264.716 
L 169.256232 264.716 
L 172.533675 264.716 
L 175.811118 264.716 
L 179.088561 264.716 
L 182.366004 264.716 
L 185.643447 264.716 
L 188.92089 264.716 
L 192.198333 264.716 
L 195.475776 264.716 
L 198.753219 264.716 
L 202.030662 264.716 
L 205.308105 264.716 
L 208.585548 264.716 
L 211.862991 264.716 
L 215.140434 264.716 
L 218.417877 264.716 
L 221.69532 264.716 
L 224.972763 264.716 
L 228.250206 264.716 
L 231.527648 264.716 
L 234.805091 264.716 
L 238.082534 264.716 
L 241.359977 264.716 
L 244.63742 264.716 
L 247.914863 264.716 
L 251.192306 264.716 
L 254.469749 264.716 
L 257.747192 264.716 
L 261.024635 264.716 
L 264.302078 264.716 
L 267.579521 264.716 
L 270.856964 264.716 
L 274.134407 264.716 
L 277.41185 264.716 
L 280.689293 264.716 
L 283.966736 264.716 
L 287.244179 264.716 
L 290.521622 264.716 
L 293.799065 264.716 
L 297.076508 264.716 
L 300.353951 264.716 
L 303.631394 264.716 
L 306.908837 264.716 
L 310.18628 264.716 
L 313.463723 264.716 
L 316.741166 264.716 
L 320.018609 264.716 
L 323.296052 264.716 
L 326.573495 264.716 
L 329.850938 264.716 
L 333.128381 264.716 
L 336.405824 264.716 
L 339.683267 264.716 
L 342.96071 264.716 
L 346.238153 264.716 
L 349.515596 264.716 
L 352.793039 264.716 
L 356.070482 264.716 
L 359.347925 264.716 
L 362.625368 264.716 
L 365.902811 264.716 
L 369.180254 264.716 
L 372.457697 264.716 
L 375.73514 264.716 
L 379.012583 264.716 
" style="fill:none;stroke:#008000;stroke-linecap:square;stroke-width:1.5;"/>
   </g>
   <g id="line2d_20">
    <path clip-path="url(#p6785305f56)" d="M 54.545727 22.796 
L 57.82317 22.796 
L 61.100613 22.796 
L 64.378056 22.796 
L 67.655499 22.796 
L 70.932942 22.796 
L 74.210385 22.796 
L 77.487828 22.796 
L 80.765271 22.796 
L 84.042714 22.796 
L 87.320157 22.796 
L 90.5976 22.796 
L 93.875043 22.796 
L 97.152486 22.796 
L 100.429929 22.796 
L 103.707372 22.796 
L 106.984815 22.796 
L 110.262258 22.796 
L 113.539701 22.796 
L 116.817144 22.796 
L 120.094587 22.796 
L 123.37203 22.796 
L 126.649473 22.796 
L 129.926916 22.796 
L 133.204359 22.796 
L 136.481802 22.796 
L 139.759245 22.796 
L 143.036688 22.796 
L 146.314131 22.796 
L 149.591574 22.796 
L 152.869017 22.796 
L 156.14646 22.796 
L 159.423903 22.796 
L 162.701346 22.796 
L 165.978789 22.796 
L 169.256232 22.796 
L 172.533675 22.796 
L 175.811118 22.796 
L 179.088561 22.796 
L 182.366004 22.796 
L 185.643447 22.796 
L 188.92089 22.796 
L 192.198333 22.796 
L 195.475776 22.796 
L 198.753219 22.796 
L 202.030662 22.796 
L 205.308105 22.796 
L 208.585548 22.796 
L 211.862991 22.796 
L 215.140434 22.796 
L 218.417877 22.796 
L 221.69532 22.796 
L 224.972763 22.796 
L 228.250206 22.796 
L 231.527648 22.796 
L 234.805091 22.796 
L 238.082534 22.796 
L 241.359977 22.796 
L 244.63742 22.796 
L 247.914863 22.796 
L 251.192306 22.796 
L 254.469749 22.796 
L 257.747192 22.796 
L 261.024635 22.796 
L 264.302078 22.796 
L 267.579521 22.796 
L 270.856964 22.796 
L 274.134407 22.796 
L 277.41185 22.796 
L 280.689293 22.796 
L 283.966736 22.796 
L 287.244179 22.796 
L 290.521622 22.796 
L 293.799065 22.796 
L 297.076508 22.796 
L 300.353951 22.796 
L 303.631394 22.796 
L 306.908837 22.796 
L 310.18628 22.796 
L 313.463723 22.796 
L 316.741166 22.796 
L 320.018609 22.796 
L 323.296052 22.796 
L 326.573495 22.796 
L 329.850938 22.796 
L 333.128381 22.796 
L 336.405824 22.796 
L 339.683267 22.796 
L 342.96071 22.796 
L 346.238153 22.796 
L 349.515596 22.796 
L 352.793039 22.796 
L 356.070482 22.796 
L 359.347925 22.796 
L 362.625368 22.796 
L 365.902811 22.796 
L 369.180254 22.796 
L 372.457697 22.796 
L 375.73514 22.796 
L 379.012583 22.796 
" style="fill:none;stroke:#008000;stroke-linecap:square;stroke-width:1.5;"/>
   </g>
   <g id="patch_3">
    <path d="M 38.125311 276.812 
L 38.125311 10.7 
" style="fill:none;stroke:#000000;stroke-linecap:square;stroke-linejoin:miter;stroke-width:0.8;"/>
   </g>
   <g id="patch_4">
    <path d="M 395.245311 276.812 
L 395.245311 10.7 
" style="fill:none;stroke:#000000;stroke-linecap:square;stroke-linejoin:miter;stroke-width:0.8;"/>
   </g>
   <g id="patch_5">
    <path d="M 38.125311 276.812 
L 395.245311 276.812 
" style="fill:none;stroke:#000000;stroke-linecap:square;stroke-linejoin:miter;stroke-width:0.8;"/>
   </g>
   <g id="patch_6">
    <path d="M 38.125311 10.7 
L 395.245311 10.7 
" style="fill:none;stroke:#000000;stroke-linecap:square;stroke-linejoin:miter;stroke-width:0.8;"/>
   </g>
   <g id="legend_1">
    <g id="patch_7">
     <path d="M 262.374912 271.812 
L 388.245311 271.812 
Q 390.245311 271.812 390.245311 269.812 
L 390.245311 215.063287 
Q 390.245311 213.063287 388.245311 213.063287 
L 262.374912 213.063287 
Q 260.374912 213.063287 260.374912 215.063287 
L 260.374912 269.812 
Q 260.374912 271.812 262.374912 271.812 
z
" style="fill:#ffffff;opacity:0.8;stroke:#cccccc;stroke-linejoin:miter;"/>
    </g>
    <g id="line2d_21">
     <path d="M 264.374912 220.563287 
L 284.374912 220.563287 
" style="fill:none;stroke:#00ffff;stroke-dasharray:1,1.65;stroke-dashoffset:0;"/>
    </g>
    <g id="line2d_22"/>
    <g id="text_15">
     <!-- Sim. sol. channel 1 -->
     <defs>
      <path d="M 43.796875 67.984375 
C 43.796875 69.796875 43.703125 69.890625 43.09375 69.890625 
C 42.5 69.890625 42.296875 69.484375 41.90625 68.59375 
L 38.90625 61.953125 
C 35.09375 67.5 29.296875 70 23 70 
C 12.796875 70 4.59375 61.84375 4.59375 51.578125 
C 4.59375 48.453125 5.296875 44.015625 8.703125 39.78125 
C 12.40625 35.15625 15.90625 34.34375 23.90625 32.234375 
C 26.90625 31.421875 31.90625 30.109375 32.90625 29.703125 
C 38.59375 27.296875 41.59375 21.25 41.59375 15.609375 
C 41.59375 8.34375 36.5 0.59375 27.796875 0.59375 
C 17.09375 0.59375 7.09375 6.640625 6.40625 20.75 
C 6.296875 22.359375 6.203125 22.453125 5.5 22.453125 
C 4.703125 22.453125 4.59375 22.359375 4.59375 20.34375 
L 4.59375 0 
C 4.59375 -1.8125 4.703125 -1.90625 5.296875 -1.90625 
C 6 -1.90625 6.203125 -1.40625 7.59375 1.703125 
C 7.703125 2 7.703125 2.203125 9.59375 6.03125 
C 14.59375 -0.609375 23 -2 27.796875 -2 
C 38.703125 -2 46.40625 7.140625 46.40625 17.828125 
C 46.40625 23.0625 44.5 27.09375 43.40625 28.90625 
C 39.203125 35.359375 34.703125 36.5625 29.90625 37.765625 
C 29.203125 38.078125 29 38.078125 23.40625 39.484375 
C 18 40.890625 15.703125 41.59375 13.203125 44.3125 
C 10.40625 47.4375 9.40625 50.671875 9.40625 53.890625 
C 9.40625 60.4375 14.59375 67.59375 23.09375 67.59375 
C 33.703125 67.59375 40.296875 60.03125 41.796875 47.4375 
C 42.09375 45.625 42.203125 45.53125 42.90625 45.53125 
C 43.796875 45.53125 43.796875 45.828125 43.796875 47.546875 
z
" id="CMR17-83"/>
      <path d="M 15.5 61.890625 
C 15.5 64.09375 13.703125 66 11.40625 66 
C 9.203125 66 7.296875 64.1875 7.296875 61.890625 
C 7.296875 59.6875 9.09375 57.796875 11.40625 57.796875 
C 13.59375 57.796875 15.5 59.59375 15.5 61.890625 
z
M 3.796875 42.890625 
L 3.796875 40.296875 
C 9.40625 40.296875 10.203125 39.6875 10.203125 34.859375 
L 10.203125 6.921875 
C 10.203125 3.09375 9.796875 2.59375 3.40625 2.59375 
L 3.40625 0 
C 5.796875 0.1875 10.09375 0.1875 12.59375 0.1875 
C 15 0.1875 19.09375 0.1875 21.40625 0 
L 21.40625 2.59375 
C 15.5 2.59375 15.296875 3.203125 15.296875 6.8125 
L 15.296875 44 
z
" id="CMR17-105"/>
      <path d="M 67.59375 30.53125 
C 67.59375 35.5625 66.703125 44 54.796875 44 
C 48 44 43.296875 39.375 41.5 33.953125 
L 41.40625 33.953125 
C 40.203125 42.1875 34.296875 44 28.703125 44 
C 20.796875 44 16.703125 37.875 15.203125 33.84375 
L 15.09375 33.84375 
L 15.09375 44 
L 3.296875 42.890625 
L 3.296875 40.28125 
C 9.203125 40.28125 10.09375 39.6875 10.09375 34.859375 
L 10.09375 6.921875 
C 10.09375 3.09375 9.703125 2.59375 3.296875 2.59375 
L 3.296875 0 
C 5.703125 0.1875 10.09375 0.1875 12.703125 0.1875 
C 15.296875 0.1875 19.796875 0.1875 22.203125 0 
L 22.203125 2.59375 
C 15.796875 2.59375 15.40625 3 15.40625 6.921875 
L 15.40625 26.21875 
C 15.40625 35.453125 21 42.390625 28 42.390625 
C 35.40625 42.390625 36.203125 35.765625 36.203125 30.9375 
L 36.203125 6.921875 
C 36.203125 3.09375 35.796875 2.59375 29.40625 2.59375 
L 29.40625 0 
C 31.796875 0.1875 36.203125 0.1875 38.796875 0.1875 
C 41.40625 0.1875 45.90625 0.1875 48.296875 0 
L 48.296875 2.59375 
C 41.90625 2.59375 41.5 3 41.5 6.921875 
L 41.5 26.21875 
C 41.5 35.453125 47.09375 42.390625 54.09375 42.390625 
C 61.5 42.390625 62.296875 35.765625 62.296875 30.9375 
L 62.296875 6.921875 
C 62.296875 3.09375 61.90625 2.59375 55.5 2.59375 
L 55.5 0 
C 57.90625 0.1875 62.296875 0.1875 64.90625 0.1875 
C 67.5 0.1875 72 0.1875 74.40625 0 
L 74.40625 2.59375 
C 68 2.59375 67.59375 3 67.59375 6.921875 
z
" id="CMR17-109"/>
      <path d="M 30.90625 42 
C 30.90625 43.796875 30.796875 43.890625 30.203125 43.890625 
C 29.796875 43.890625 29.703125 43.796875 28.5 42.296875 
C 28.203125 41.890625 27.296875 40.890625 27 40.5 
C 23.796875 43.890625 19.296875 44 17.59375 44 
C 6.5 44 2.5 38.1875 2.5 32.390625 
C 2.5 23.390625 12.703125 21.296875 15.59375 20.6875 
C 21.90625 19.390625 24.09375 19 26.203125 17.1875 
C 27.5 16 29.703125 13.796875 29.703125 10.1875 
C 29.703125 6 27.296875 0.59375 18.09375 0.59375 
C 9.40625 0.59375 6.296875 7.1875 4.5 16 
C 4.203125 17.390625 4.203125 17.5 3.40625 17.5 
C 2.59375 17.5 2.5 17.390625 2.5 15.390625 
L 2.5 1 
C 2.5 -0.8125 2.59375 -0.90625 3.203125 -0.90625 
C 3.703125 -0.90625 3.796875 -0.8125 4.296875 0 
C 4.90625 0.890625 6.40625 3.296875 7 4.296875 
C 9 1.59375 12.5 -1 18.09375 -1 
C 28 -1 33.296875 4.390625 33.296875 12.1875 
C 33.296875 17.296875 30.59375 20 29.296875 21.1875 
C 26.296875 24.296875 22.796875 25 18.59375 25.796875 
C 13.09375 27 6.09375 28.390625 6.09375 34.5 
C 6.09375 37.09375 7.5 42.59375 17.59375 42.59375 
C 28.296875 42.59375 28.90625 32.59375 29.09375 29.390625 
C 29.203125 28.890625 29.703125 28.796875 30 28.796875 
C 30.90625 28.796875 30.90625 29.09375 30.90625 30.796875 
z
" id="CMR17-115"/>
      <path d="M 43.09375 21.1875 
C 43.09375 34 33.796875 44 22.90625 44 
C 12 44 2.703125 34 2.703125 21.1875 
C 2.703125 8.59375 12 -1 22.90625 -1 
C 33.796875 -1 43.09375 8.59375 43.09375 21.1875 
z
M 22.90625 0.796875 
C 18.203125 0.796875 14.203125 3.59375 11.90625 7.5 
C 9.40625 12 9.09375 17.59375 9.09375 22 
C 9.09375 26.1875 9.296875 31.390625 11.90625 35.890625 
C 13.90625 39.1875 17.796875 42.390625 22.90625 42.390625 
C 27.40625 42.390625 31.203125 39.890625 33.59375 36.390625 
C 36.703125 31.6875 36.703125 25.09375 36.703125 22 
C 36.703125 18.09375 36.5 12.09375 33.796875 7.296875 
C 31 2.6875 26.703125 0.796875 22.90625 0.796875 
z
" id="CMR17-111"/>
      <path d="M 15.296875 69 
L 3.40625 67.890625 
L 3.40625 65.296875 
C 9.296875 65.296875 10.203125 64.703125 10.203125 59.921875 
L 10.203125 6.859375 
C 10.203125 3.09375 9.796875 2.59375 3.40625 2.59375 
L 3.40625 0 
C 5.796875 0.1875 10.203125 0.1875 12.703125 0.1875 
C 15.296875 0.1875 19.703125 0.1875 22.09375 0 
L 22.09375 2.59375 
C 15.703125 2.59375 15.296875 2.984375 15.296875 6.859375 
z
" id="CMR17-108"/>
      <path d="M 34.90625 35 
C 33 35 30.203125 35 30.203125 31.484375 
C 30.203125 28.6875 32.5 27.890625 33.796875 27.890625 
C 34.5 27.890625 37.40625 28.1875 37.40625 31.6875 
C 37.40625 38.6875 30.59375 44 22.90625 44 
C 12.296875 44 3.296875 34.390625 3.296875 21.546875 
C 3.296875 8.140625 12.703125 -1 22.90625 -1 
C 35.296875 -1 38.40625 10.5625 38.40625 11.671875 
C 38.40625 12.078125 38.296875 12.375 37.59375 12.375 
C 36.90625 12.375 36.796875 12.28125 36.40625 10.96875 
C 33.796875 2.8125 28.09375 0.796875 23.796875 0.796875 
C 17.40625 0.796875 9.703125 6.734375 9.703125 21.640625 
C 9.703125 36.84375 17.09375 42.1875 23 42.1875 
C 26.90625 42.1875 32.703125 40.34375 34.90625 35 
z
" id="CMR17-99"/>
      <path d="M 41.5 30.53125 
C 41.5 35.65625 40.5 44 28.703125 44 
C 20.5 44 16.5 37.375 15.296875 34.046875 
L 15.203125 34.046875 
L 15.203125 69 
L 3.296875 67.890625 
L 3.296875 65.296875 
C 9.203125 65.296875 10.09375 64.703125 10.09375 60.046875 
L 10.09375 6.921875 
C 10.09375 3.09375 9.703125 2.59375 3.296875 2.59375 
L 3.296875 0 
C 5.703125 0.1875 10.09375 0.1875 12.703125 0.1875 
C 15.296875 0.1875 19.796875 0.1875 22.203125 0 
L 22.203125 2.59375 
C 15.796875 2.59375 15.40625 3 15.40625 6.921875 
L 15.40625 26.21875 
C 15.40625 35.453125 21 42.390625 28 42.390625 
C 35.40625 42.390625 36.203125 35.765625 36.203125 30.9375 
L 36.203125 6.921875 
C 36.203125 3.09375 35.796875 2.59375 29.40625 2.59375 
L 29.40625 0 
C 31.796875 0.1875 36.203125 0.1875 38.796875 0.1875 
C 41.40625 0.1875 45.90625 0.1875 48.296875 0 
L 48.296875 2.59375 
C 41.90625 2.59375 41.5 3 41.5 6.921875 
z
" id="CMR17-104"/>
      <path d="M 36 25.875 
C 36 32 36 35.546875 31.796875 39.59375 
C 28.09375 42.984375 23.796875 44 20.40625 44 
C 12.5 44 6.796875 37.625 6.796875 30.890625 
C 6.796875 27.1875 9.796875 27 10.40625 27 
C 11.703125 27 14 27.796875 14 30.59375 
C 14 33.09375 12.09375 34.1875 10.40625 34.1875 
C 10 34.1875 9.5 34.09375 9.203125 34 
C 11.296875 40.53125 16.703125 42.390625 20.203125 42.390625 
C 25.203125 42.390625 30.703125 37.828125 30.703125 29.296875 
L 30.703125 25.5 
C 24.796875 25.296875 17.703125 24.5 12.09375 21.453125 
C 5.796875 17.921875 4 12.84375 4 9 
C 4 1.203125 13 -1 18.296875 -1 
C 23.796875 -1 28.90625 2.109375 31.09375 7.890625 
C 31.296875 3.421875 34.09375 -0.609375 38.5 -0.609375 
C 40.59375 -0.609375 45.90625 0.796875 45.90625 8.796875 
L 45.90625 14.46875 
L 44.09375 14.46875 
L 44.09375 8.703125 
C 44.09375 2.515625 41.40625 1.703125 40.09375 1.703125 
C 36 1.703125 36 6.96875 36 11.4375 
z
M 30.703125 13.859375 
C 30.703125 5.046875 24.5 0.59375 19 0.59375 
C 14 0.59375 10.09375 4.34375 10.09375 9 
C 10.09375 12.046875 11.40625 17.40625 17.203125 20.65625 
C 22 23.390625 27.5 23.796875 30.703125 24 
z
" id="CMR17-97"/>
      <path d="M 41.5 30.53125 
C 41.5 35.65625 40.5 44 28.703125 44 
C 20.796875 44 16.703125 37.875 15.203125 33.84375 
L 15.09375 33.84375 
L 15.09375 44 
L 3.296875 42.890625 
L 3.296875 40.28125 
C 9.203125 40.28125 10.09375 39.6875 10.09375 34.859375 
L 10.09375 6.921875 
C 10.09375 3.09375 9.703125 2.59375 3.296875 2.59375 
L 3.296875 0 
C 5.703125 0.1875 10.09375 0.1875 12.703125 0.1875 
C 15.296875 0.1875 19.796875 0.1875 22.203125 0 
L 22.203125 2.59375 
C 15.796875 2.59375 15.40625 3 15.40625 6.921875 
L 15.40625 26.21875 
C 15.40625 35.453125 21 42.390625 28 42.390625 
C 35.40625 42.390625 36.203125 35.765625 36.203125 30.9375 
L 36.203125 6.921875 
C 36.203125 3.09375 35.796875 2.59375 29.40625 2.59375 
L 29.40625 0 
C 31.796875 0.1875 36.203125 0.1875 38.796875 0.1875 
C 41.40625 0.1875 45.90625 0.1875 48.296875 0 
L 48.296875 2.59375 
C 41.90625 2.59375 41.5 3 41.5 6.921875 
z
" id="CMR17-110"/>
      <path d="M 38.09375 23.484375 
C 38.5 23.890625 38.5 24.09375 38.5 25.09375 
C 38.5 35.171875 33.09375 44 21.703125 44 
C 11.09375 44 2.703125 33.984375 2.703125 21.78125 
C 2.703125 8.65625 12.203125 -1 22.796875 -1 
C 34 -1 38.40625 9.671875 38.40625 11.796875 
C 38.40625 12.5 37.796875 12.5 37.59375 12.5 
C 36.90625 12.5 36.796875 12.296875 36.40625 11.078125 
C 34.203125 4.21875 28.703125 0.796875 23.5 0.796875 
C 19.203125 0.796875 14.90625 3.21875 12.203125 7.65625 
C 9.09375 12.796875 9.09375 18.75 9.09375 23.484375 
z
M 9.203125 25 
C 9.90625 39.234375 17.59375 42.390625 21.59375 42.390625 
C 28.40625 42.390625 33 36.0625 33.09375 25 
z
" id="CMR17-101"/>
     </defs>
     <g transform="translate(292.374912 224.063287)scale(0.1 -0.1)">
      <use transform="scale(0.996264)" xlink:href="#CMR17-83"/>
      <use transform="translate(50.89537 0)scale(0.996264)" xlink:href="#CMR17-105"/>
      <use transform="translate(75.766428 0)scale(0.996264)" xlink:href="#CMR17-109"/>
      <use transform="translate(152.686018 0)scale(0.996264)" xlink:href="#CMR17-46"/>
      <use transform="translate(218.042737 0)scale(0.996264)" xlink:href="#CMR17-115"/>
      <use transform="translate(253.844075 0)scale(0.996264)" xlink:href="#CMR17-111"/>
      <use transform="translate(299.534552 0)scale(0.996264)" xlink:href="#CMR17-108"/>
      <use transform="translate(324.40561 0)scale(0.996264)" xlink:href="#CMR17-46"/>
      <use transform="translate(389.762329 0)scale(0.996264)" xlink:href="#CMR17-99"/>
      <use transform="translate(427.645536 0)scale(0.996264)" xlink:href="#CMR17-104"/>
      <use transform="translate(478.540906 0)scale(0.996264)" xlink:href="#CMR17-97"/>
      <use transform="translate(524.231383 0)scale(0.996264)" xlink:href="#CMR17-110"/>
      <use transform="translate(575.126752 0)scale(0.996264)" xlink:href="#CMR17-110"/>
      <use transform="translate(626.022122 0)scale(0.996264)" xlink:href="#CMR17-101"/>
      <use transform="translate(666.507783 0)scale(0.996264)" xlink:href="#CMR17-108"/>
      <use transform="translate(721.454808 0)scale(0.996264)" xlink:href="#CMR17-49"/>
     </g>
    </g>
    <g id="line2d_23">
     <path d="M 264.374912 234.500465 
L 284.374912 234.500465 
" style="fill:none;stroke:#ff0000;stroke-dasharray:5.55,2.4;stroke-dashoffset:0;stroke-width:1.5;"/>
    </g>
    <g id="line2d_24"/>
    <g id="text_16">
     <!-- Analyt. sol. -->
     <defs>
      <path d="M 36.296875 69.390625 
C 35.796875 70.6875 35.59375 71 34.59375 71 
C 33.59375 71 33.40625 70.6875 32.90625 69.390625 
L 11.703125 9.0625 
C 9.796875 3.6875 5.796875 2.59375 2.296875 2.59375 
L 2.296875 0 
C 4.09375 0.1875 8.09375 0.1875 10 0.1875 
C 12.5 0.1875 16.5 0.1875 18.90625 0 
L 18.90625 2.59375 
C 14.203125 2.796875 13.5 5.96875 13.5 7.171875 
C 13.5 8.0625 13.703125 8.5625 13.90625 9.15625 
L 19.203125 24 
L 45.40625 24 
L 51.40625 7.078125 
C 51.90625 5.875 51.90625 5.671875 51.90625 5.28125 
C 51.90625 2.59375 47.59375 2.59375 45.703125 2.59375 
L 45.703125 0 
C 48.59375 0.1875 53.796875 0.1875 56.90625 0.1875 
C 59.5 0.1875 64.5 0.1875 66.90625 0 
L 66.90625 2.59375 
C 61.59375 2.59375 59.796875 2.59375 58.5 6.28125 
z
M 32.296875 61.3125 
L 44.5 26.59375 
L 20.09375 26.59375 
z
" id="CMR17-65"/>
      <path d="M 39 34.109375 
C 41.5 40.296875 46 40.390625 47.40625 40.390625 
L 47.40625 43 
C 45.5 42.890625 43 42.796875 41.09375 42.796875 
C 39 42.796875 35.703125 42.796875 33.703125 43 
L 33.703125 40.390625 
C 37.5 40.09375 37.59375 37.25 37.59375 36.4375 
C 37.59375 35.4375 37.40625 34.921875 36.90625 33.71875 
L 26 6.390625 
L 14.09375 35.9375 
C 13.59375 37.15625 13.59375 37.859375 13.59375 37.96875 
C 13.59375 40.1875 15.90625 40.390625 18.296875 40.390625 
L 18.296875 43 
C 15.90625 42.796875 11.59375 42.796875 9.09375 42.796875 
C 6.40625 42.796875 3.203125 42.796875 1 43 
L 1 40.390625 
C 6.40625 40.390625 7 39.890625 8.296875 36.640625 
L 23.203125 -0.484375 
C 18.703125 -12.421875 16.09375 -19.40625 9.796875 -19.40625 
C 8.703125 -19.40625 6.203125 -19.109375 4.40625 -17.28125 
C 6.703125 -17.078125 7.703125 -15.65625 7.703125 -13.9375 
C 7.703125 -12.21875 6.5 -10.703125 4.5 -10.703125 
C 2.296875 -10.703125 1.203125 -12.21875 1.203125 -14.046875 
C 1.203125 -18.09375 5.296875 -21 9.796875 -21 
C 15.59375 -21 19.203125 -15.359375 21.203125 -10.296875 
z
" id="CMR17-121"/>
      <path d="M 15.09375 40.390625 
L 29.09375 40.390625 
L 29.09375 43 
L 15.09375 43 
L 15.09375 62 
L 13.296875 62 
C 13.09375 51.4375 9.59375 42.1875 1.09375 41.984375 
L 1.09375 40.390625 
L 9.796875 40.390625 
L 9.796875 12.15625 
C 9.796875 10.234375 9.796875 -1 21.40625 -1 
C 27.296875 -1 30.703125 4.8125 30.703125 12.25 
L 30.703125 17.984375 
L 28.90625 17.984375 
L 28.90625 12.34375 
C 28.90625 5.421875 26.203125 0.796875 22 0.796875 
C 19.09375 0.796875 15.09375 2.796875 15.09375 11.953125 
z
" id="CMR17-116"/>
     </defs>
     <g transform="translate(292.374912 238.000465)scale(0.1 -0.1)">
      <use transform="scale(0.996264)" xlink:href="#CMR17-65"/>
      <use transform="translate(69.07243 0)scale(0.996264)" xlink:href="#CMR17-110"/>
      <use transform="translate(119.9678 0)scale(0.996264)" xlink:href="#CMR17-97"/>
      <use transform="translate(165.658277 0)scale(0.996264)" xlink:href="#CMR17-108"/>
      <use transform="translate(190.529335 0)scale(0.996264)" xlink:href="#CMR17-121"/>
      <use transform="translate(238.822251 0)scale(0.996264)" xlink:href="#CMR17-116"/>
      <use transform="translate(274.103019 0)scale(0.996264)" xlink:href="#CMR17-46"/>
      <use transform="translate(339.459738 0)scale(0.996264)" xlink:href="#CMR17-115"/>
      <use transform="translate(375.261075 0)scale(0.996264)" xlink:href="#CMR17-111"/>
      <use transform="translate(420.951553 0)scale(0.996264)" xlink:href="#CMR17-108"/>
      <use transform="translate(445.822611 0)scale(0.996264)" xlink:href="#CMR17-46"/>
     </g>
    </g>
    <g id="line2d_25">
     <path d="M 264.374912 248.437643 
L 284.374912 248.437643 
" style="fill:none;stroke:#008000;stroke-linecap:square;stroke-width:1.5;"/>
    </g>
    <g id="line2d_26"/>
    <g id="text_17">
     <!-- Rigid wall -->
     <defs>
      <path d="M 39.203125 33.6875 
C 48.703125 35.59375 56.703125 42.015625 56.703125 50.046875 
C 56.703125 59.46875 46.09375 68 32.09375 68 
L 5.203125 68 
L 5.203125 65.390625 
C 12.09375 65.390625 13.203125 65.390625 13.203125 60.875 
L 13.203125 6.6875 
C 13.203125 2.1875 12.09375 2.1875 5.203125 2.1875 
L 5.203125 -0.40625 
C 8.09375 -0.203125 13.296875 -0.203125 16.40625 -0.203125 
C 19.5 -0.203125 24.703125 -0.203125 27.59375 -0.40625 
L 27.59375 2.1875 
C 20.703125 2.1875 19.59375 2.1875 19.59375 6.6875 
L 19.59375 33 
L 31.296875 33 
C 37 33 40.203125 30.6875 41.59375 29.390625 
C 45.59375 25.5 45.59375 22.796875 45.59375 16 
C 45.59375 9.296875 45.59375 5.890625 48.59375 2.5 
C 52.40625 -1.609375 57.5 -2 59.703125 -2 
C 67.09375 -2 68.203125 6.296875 68.203125 8 
C 68.203125 8.59375 68.203125 9.296875 67.296875 9.296875 
C 66.5 9.296875 66.40625 8.6875 66.40625 8.296875 
C 65.90625 1.796875 63 -0.40625 59.90625 -0.40625 
C 54.40625 -0.40625 53.796875 5.890625 53.203125 12 
C 52.90625 14.09375 52.703125 15.59375 52.5 17.796875 
C 51.90625 22.796875 51.09375 30.09375 39.203125 33.6875 
z
M 31 34.59375 
L 19.59375 34.59375 
L 19.59375 61.484375 
C 19.59375 64.890625 19.796875 65.390625 23.796875 65.390625 
L 31.09375 65.390625 
C 39.40625 65.390625 49.09375 62.484375 49.09375 50.046875 
C 49.09375 37.09375 38.5 34.59375 31 34.59375 
z
" id="CMR17-82"/>
      <path d="M 11.09375 18.203125 
C 13 16.6875 16.296875 15 20.296875 15 
C 28.203125 15 35 21.234375 35 29.609375 
C 35 32.234375 34.203125 36.265625 31.203125 39.390625 
C 34 42.390625 38.09375 43.390625 40.40625 43.390625 
C 40.796875 43.390625 41.40625 43.390625 41.90625 43.09375 
C 41.5 42.984375 40.59375 42.59375 40.59375 40.984375 
C 40.59375 39.6875 41.5 38.796875 42.796875 38.796875 
C 44.296875 38.796875 45.09375 39.796875 45.09375 41.09375 
C 45.09375 42.984375 43.59375 45 40.40625 45 
C 36.40625 45 32.90625 43.09375 30.09375 40.484375 
C 27.09375 43.1875 23.5 44.1875 20.296875 44.1875 
C 12.40625 44.1875 5.59375 37.984375 5.59375 29.609375 
C 5.59375 23.859375 8.90625 20.21875 9.90625 19.21875 
C 6.90625 15.6875 6.90625 11.59375 6.90625 11.09375 
C 6.90625 8.5 7.90625 4.6875 11.296875 2.59375 
C 6.09375 1.28125 2 -2.875 2 -8.078125 
C 2 -15.5625 11.5 -21 22.90625 -21 
C 33.90625 -21 43.796875 -15.765625 43.796875 -7.96875 
C 43.796875 6 29 6 21.296875 6 
C 19 6 14.90625 6 14.40625 6.09375 
C 11.296875 6.59375 9.203125 9.390625 9.203125 12.890625 
C 9.203125 13.796875 9.203125 16 11.09375 18.203125 
z
M 20.296875 16.6875 
C 11.5 16.6875 11.5 27.59375 11.5 29.609375 
C 11.5 31.625 11.5 42.484375 20.296875 42.484375 
C 29.09375 42.484375 29.09375 31.625 29.09375 29.609375 
C 29.09375 27.59375 29.09375 16.6875 20.296875 16.6875 
z
M 22.90625 -19.3125 
C 12.90625 -19.3125 6 -13.796875 6 -8.078125 
C 6 -4.859375 7.703125 -1.84375 9.90625 -0.171875 
C 12.40625 1.59375 13.40625 1.59375 20.203125 1.59375 
C 28.40625 1.59375 39.796875 1.59375 39.796875 -8.078125 
C 39.796875 -13.796875 32.90625 -19.3125 22.90625 -19.3125 
z
" id="CMR17-103"/>
      <path d="M 29.203125 67.890625 
L 29.203125 65.296875 
C 35.09375 65.296875 36 64.703125 36 60.046875 
L 36 37.046875 
C 35.59375 37.546875 31.5 44 23.40625 44 
C 13.203125 44 3.296875 34.8125 3.296875 21.5 
C 3.296875 8.265625 12.59375 -1 22.40625 -1 
C 30.90625 -1 35.296875 5.640625 35.796875 6.34375 
L 35.796875 -1 
L 47.90625 -0.203125 
L 47.90625 2.40625 
C 42 2.40625 41.09375 3.015625 41.09375 7.859375 
L 41.09375 69 
z
M 35.796875 11.90625 
C 35.796875 8.875 34 6.140625 31.703125 4.125 
C 28.296875 1.09375 24.90625 0.59375 23 0.59375 
C 20.09375 0.59375 9.703125 2.109375 9.703125 21.390625 
C 9.703125 41.1875 21.296875 42.390625 23.90625 42.390625 
C 28.5 42.390625 32.203125 39.765625 34.5 36.140625 
C 35.796875 34.015625 35.796875 33.703125 35.796875 31.890625 
z
" id="CMR17-100"/>
      <path d="M 58.203125 34.15625 
C 60.203125 40.09375 64.203125 40.296875 65.703125 40.390625 
L 65.703125 43 
C 63.703125 42.890625 61.703125 42.796875 59.703125 42.796875 
C 57.796875 42.796875 53.5 42.796875 51.796875 43 
L 51.796875 40.390625 
C 54.90625 40.1875 56.59375 38.375 56.59375 35.875 
C 56.59375 35.171875 56.40625 34.265625 56.203125 33.5625 
L 46.796875 6.21875 
L 36.59375 35.875 
C 36.40625 36.578125 36.09375 37.375 36.09375 37.78125 
C 36.09375 40.390625 39.5 40.390625 41.09375 40.390625 
L 41.09375 43 
C 38.796875 42.796875 34.59375 42.796875 32.203125 42.796875 
C 29.703125 42.796875 27.09375 42.796875 24.796875 43 
L 24.796875 40.390625 
C 30.296875 40.390625 30.296875 40.1875 32.40625 33.859375 
L 23.203125 6.921875 
L 13.296875 35.96875 
C 12.796875 37.28125 12.796875 37.484375 12.796875 37.78125 
C 12.796875 40.390625 16.203125 40.390625 17.796875 40.390625 
L 17.796875 43 
C 15.40625 42.796875 11.203125 42.796875 8.703125 42.796875 
C 6.5 42.796875 3.09375 42.796875 1 43 
L 1 40.390625 
C 5.40625 40.390625 6.5 40.09375 7.59375 36.765625 
L 19.90625 0.59375 
C 20.296875 -0.703125 20.59375 -1 21.40625 -1 
C 22.09375 -1 22.5 -0.8125 23 0.6875 
L 33.296875 31.046875 
L 43.703125 0.6875 
C 44.203125 -0.8125 44.59375 -1 45.296875 -1 
C 46.09375 -1 46.40625 -0.703125 46.796875 0.59375 
z
" id="CMR17-119"/>
     </defs>
     <g transform="translate(292.374912 251.937643)scale(0.1 -0.1)">
      <use transform="scale(0.996264)" xlink:href="#CMR17-82"/>
      <use transform="translate(67.791102 0)scale(0.996264)" xlink:href="#CMR17-105"/>
      <use transform="translate(92.66216 0)scale(0.996264)" xlink:href="#CMR17-103"/>
      <use transform="translate(138.352638 0)scale(0.996264)" xlink:href="#CMR17-105"/>
      <use transform="translate(163.223696 0)scale(0.996264)" xlink:href="#CMR17-100"/>
      <use transform="translate(244.195032 0)scale(0.996264)" xlink:href="#CMR17-119"/>
      <use transform="translate(308.102459 0)scale(0.996264)" xlink:href="#CMR17-97"/>
      <use transform="translate(353.792936 0)scale(0.996264)" xlink:href="#CMR17-108"/>
      <use transform="translate(378.663994 0)scale(0.996264)" xlink:href="#CMR17-108"/>
     </g>
    </g>
    <g id="line2d_27">
     <path d="M 264.374912 262.374822 
L 284.374912 262.374822 
" style="fill:none;stroke:#0000ff;stroke-dasharray:6.4,1.6,1,1.6;stroke-dashoffset:0;"/>
    </g>
    <g id="line2d_28"/>
    <g id="text_18">
     <!-- Sim. sol. channel 100 -->
     <g transform="translate(292.374912 265.874822)scale(0.1 -0.1)">
      <use transform="scale(0.996264)" xlink:href="#CMR17-83"/>
      <use transform="translate(50.89537 0)scale(0.996264)" xlink:href="#CMR17-105"/>
      <use transform="translate(75.766428 0)scale(0.996264)" xlink:href="#CMR17-109"/>
      <use transform="translate(152.686018 0)scale(0.996264)" xlink:href="#CMR17-46"/>
      <use transform="translate(218.042737 0)scale(0.996264)" xlink:href="#CMR17-115"/>
      <use transform="translate(253.844075 0)scale(0.996264)" xlink:href="#CMR17-111"/>
      <use transform="translate(299.534552 0)scale(0.996264)" xlink:href="#CMR17-108"/>
      <use transform="translate(324.40561 0)scale(0.996264)" xlink:href="#CMR17-46"/>
      <use transform="translate(389.762329 0)scale(0.996264)" xlink:href="#CMR17-99"/>
      <use transform="translate(427.645536 0)scale(0.996264)" xlink:href="#CMR17-104"/>
      <use transform="translate(478.540906 0)scale(0.996264)" xlink:href="#CMR17-97"/>
      <use transform="translate(524.231383 0)scale(0.996264)" xlink:href="#CMR17-110"/>
      <use transform="translate(575.126752 0)scale(0.996264)" xlink:href="#CMR17-110"/>
      <use transform="translate(626.022122 0)scale(0.996264)" xlink:href="#CMR17-101"/>
      <use transform="translate(666.507783 0)scale(0.996264)" xlink:href="#CMR17-108"/>
      <use transform="translate(721.454808 0)scale(0.996264)" xlink:href="#CMR17-49"/>
      <use transform="translate(767.145285 0)scale(0.996264)" xlink:href="#CMR17-48"/>
      <use transform="translate(812.835762 0)scale(0.996264)" xlink:href="#CMR17-48"/>
     </g>
    </g>
   </g>
  </g>
 </g>
 <defs>
  <clipPath id="p6785305f56">
   <rect height="266.112" width="357.12" x="38.125311" y="10.7"/>
  </clipPath>
 </defs>
</svg>
