<?xml version="1.0" encoding="utf-8" standalone="no"?>
<!DOCTYPE svg PUBLIC "-//W3C//DTD SVG 1.1//EN"
  "http://www.w3.org/Graphics/SVG/1.1/DTD/svg11.dtd">
<!-- Created with matplotlib (https://matplotlib.org/) -->
<svg height="312.568734pt" version="1.1" viewBox="0 0 402.445311 312.568734" width="402.445311pt" xmlns="http://www.w3.org/2000/svg" xmlns:xlink="http://www.w3.org/1999/xlink">
 <defs>
  <style type="text/css">
*{stroke-linecap:butt;stroke-linejoin:round;}
  </style>
 </defs>
 <g id="figure_1">
  <g id="patch_1">
   <path d="M 0 312.568734 
L 402.445311 312.568734 
L 402.445311 0 
L 0 0 
z
" style="fill:#ffffff;"/>
  </g>
  <g id="axes_1">
   <g id="patch_2">
    <path d="M 38.125311 273.312 
L 395.245311 273.312 
L 395.245311 7.2 
L 38.125311 7.2 
z
" style="fill:#ffffff;"/>
   </g>
   <g id="matplotlib.axis_1">
    <g id="xtick_1">
     <g id="line2d_1">
      <defs>
       <path d="M 0 0 
L 0 3.5 
" id="m4f81b72900" style="stroke:#000000;stroke-width:0.8;"/>
      </defs>
      <g>
       <use style="stroke:#000000;stroke-width:0.8;" x="54.545727" xlink:href="#m4f81b72900" y="273.312"/>
      </g>
     </g>
     <g id="text_1">
      <!-- 0.00 -->
      <defs>
       <path d="M 31.78125 66.40625 
Q 24.171875 66.40625 20.328125 58.90625 
Q 16.5 51.421875 16.5 36.375 
Q 16.5 21.390625 20.328125 13.890625 
Q 24.171875 6.390625 31.78125 6.390625 
Q 39.453125 6.390625 43.28125 13.890625 
Q 47.125 21.390625 47.125 36.375 
Q 47.125 51.421875 43.28125 58.90625 
Q 39.453125 66.40625 31.78125 66.40625 
z
M 31.78125 74.21875 
Q 44.046875 74.21875 50.515625 64.515625 
Q 56.984375 54.828125 56.984375 36.375 
Q 56.984375 17.96875 50.515625 8.265625 
Q 44.046875 -1.421875 31.78125 -1.421875 
Q 19.53125 -1.421875 13.0625 8.265625 
Q 6.59375 17.96875 6.59375 36.375 
Q 6.59375 54.828125 13.0625 64.515625 
Q 19.53125 74.21875 31.78125 74.21875 
z
" id="DejaVuSans-48"/>
       <path d="M 10.6875 12.40625 
L 21 12.40625 
L 21 0 
L 10.6875 0 
z
" id="DejaVuSans-46"/>
      </defs>
      <g transform="translate(45.69002 287.230498)scale(0.1 -0.1)">
       <use xlink:href="#DejaVuSans-48"/>
       <use x="63.623047" xlink:href="#DejaVuSans-46"/>
       <use x="95.410156" xlink:href="#DejaVuSans-48"/>
       <use x="159.033203" xlink:href="#DejaVuSans-48"/>
      </g>
     </g>
    </g>
    <g id="xtick_2">
     <g id="line2d_2">
      <g>
       <use style="stroke:#000000;stroke-width:0.8;" x="128.813998" xlink:href="#m4f81b72900" y="273.312"/>
      </g>
     </g>
     <g id="text_2">
      <!-- 0.01 -->
      <defs>
       <path d="M 42 31.640625 
C 42 37.75 41.90625 48.125 37.703125 56.109375 
C 34 63.109375 28.09375 65.59375 22.90625 65.59375 
C 18.09375 65.59375 12 63.40625 8.203125 56.203125 
C 4.203125 48.71875 3.796875 39.4375 3.796875 31.640625 
C 3.796875 25.953125 3.90625 17.28125 7 9.671875 
C 11.296875 -0.609375 19 -2 22.90625 -2 
C 27.5 -2 34.5 -0.109375 38.59375 9.375 
C 41.59375 16.28125 42 24.359375 42 31.640625 
z
M 22.90625 -0.40625 
C 16.5 -0.40625 12.703125 5.078125 11.296875 12.6875 
C 10.203125 18.5625 10.203125 27.15625 10.203125 32.75 
C 10.203125 40.4375 10.203125 46.828125 11.5 52.921875 
C 13.40625 61.390625 19 64 22.90625 64 
C 27 64 32.296875 61.296875 34.203125 53.125 
C 35.5 47.4375 35.59375 40.734375 35.59375 32.75 
C 35.59375 26.25 35.59375 18.265625 34.40625 12.375 
C 32.296875 1.484375 26.40625 -0.40625 22.90625 -0.40625 
z
" id="CMR17-48"/>
       <path d="M 16.59375 4.078125 
C 16.59375 6.5625 14.59375 8.15625 12.5 8.15625 
C 10.5 8.15625 8.40625 6.5625 8.40625 4.078125 
C 8.40625 1.59375 10.40625 0 12.5 0 
C 14.5 0 16.59375 1.59375 16.59375 4.078125 
z
" id="CMR17-46"/>
       <path d="M 26.59375 63.40625 
C 26.59375 65.5 26.5 65.5 25.09375 65.5 
C 21.203125 61.1875 15.296875 59.796875 9.703125 59.796875 
C 9.40625 59.796875 8.90625 59.796875 8.796875 59.5 
C 8.703125 59.296875 8.703125 59.09375 8.703125 57 
C 11.796875 57 17 57.59375 21 59.984375 
L 21 7.203125 
C 21 3.6875 20.796875 2.5 12.203125 2.5 
L 9.203125 2.5 
L 9.203125 0 
C 14 0 19 0 23.796875 0 
C 28.59375 0 33.59375 0 38.40625 0 
L 38.40625 2.5 
L 35.40625 2.5 
C 26.796875 2.5 26.59375 3.59375 26.59375 7.15625 
z
" id="CMR17-49"/>
      </defs>
      <g transform="translate(119.958291 287.230498)scale(0.1 -0.1)">
       <use transform="scale(0.996264)" xlink:href="#CMR17-48"/>
       <use transform="translate(45.690477 0)scale(0.996264)" xlink:href="#CMR17-46"/>
       <use transform="translate(70.561536 0)scale(0.996264)" xlink:href="#CMR17-48"/>
       <use transform="translate(116.252013 0)scale(0.996264)" xlink:href="#CMR17-49"/>
      </g>
     </g>
    </g>
    <g id="xtick_3">
     <g id="line2d_3">
      <g>
       <use style="stroke:#000000;stroke-width:0.8;" x="203.08227" xlink:href="#m4f81b72900" y="273.312"/>
      </g>
     </g>
     <g id="text_3">
      <!-- 0.02 -->
      <defs>
       <path d="M 41.703125 15.453125 
L 39.90625 15.453125 
C 38.90625 8.375 38.09375 7.171875 37.703125 6.5625 
C 37.203125 5.765625 30 5.765625 28.59375 5.765625 
L 9.40625 5.765625 
C 13 9.671875 20 16.75 28.5 24.953125 
C 34.59375 30.734375 41.703125 37.53125 41.703125 47.421875 
C 41.703125 59.21875 32.296875 66 21.796875 66 
C 10.796875 66 4.09375 56.3125 4.09375 47.34375 
C 4.09375 43.4375 7 42.9375 8.203125 42.9375 
C 9.203125 42.9375 12.203125 43.546875 12.203125 47.03125 
C 12.203125 50.109375 9.59375 51 8.203125 51 
C 7.59375 51 7 50.90625 6.59375 50.703125 
C 8.5 59.21875 14.296875 63.40625 20.40625 63.40625 
C 29.09375 63.40625 34.796875 56.515625 34.796875 47.421875 
C 34.796875 38.734375 29.703125 31.25 24 24.75 
L 4.09375 2.28125 
L 4.09375 0 
L 39.296875 0 
z
" id="CMR17-50"/>
      </defs>
      <g transform="translate(194.226563 287.230498)scale(0.1 -0.1)">
       <use transform="scale(0.996264)" xlink:href="#CMR17-48"/>
       <use transform="translate(45.690477 0)scale(0.996264)" xlink:href="#CMR17-46"/>
       <use transform="translate(70.561536 0)scale(0.996264)" xlink:href="#CMR17-48"/>
       <use transform="translate(116.252013 0)scale(0.996264)" xlink:href="#CMR17-50"/>
      </g>
     </g>
    </g>
    <g id="xtick_4">
     <g id="line2d_4">
      <g>
       <use style="stroke:#000000;stroke-width:0.8;" x="277.350542" xlink:href="#m4f81b72900" y="273.312"/>
      </g>
     </g>
     <g id="text_4">
      <!-- 0.03 -->
      <defs>
       <path d="M 22.09375 33.703125 
C 31 33.703125 34.90625 25.96875 34.90625 17.03125 
C 34.90625 5 28.5 0.390625 22.703125 0.390625 
C 17.40625 0.390625 8.796875 3.03125 6.09375 10.828125 
C 6.59375 10.625 7.09375 10.625 7.59375 10.625 
C 10 10.625 11.796875 12.21875 11.796875 14.8125 
C 11.796875 17.703125 9.59375 19 7.59375 19 
C 5.90625 19 3.296875 18.203125 3.296875 14.46875 
C 3.296875 5.234375 12.296875 -2 22.90625 -2 
C 34 -2 42.5 6.71875 42.5 16.953125 
C 42.5 26.671875 34.5 33.703125 25 34.796875 
C 32.59375 36.375 39.90625 43.0625 39.90625 52.015625 
C 39.90625 59.6875 32 65.296875 23 65.296875 
C 13.90625 65.296875 5.90625 59.828125 5.90625 52.015625 
C 5.90625 48.59375 8.5 48 9.796875 48 
C 11.90625 48 13.703125 49.296875 13.703125 51.890625 
C 13.703125 54.46875 11.90625 55.765625 9.796875 55.765625 
C 9.40625 55.765625 8.90625 55.765625 8.5 55.578125 
C 11.40625 61.859375 19.296875 63 22.796875 63 
C 26.296875 63 32.90625 61.328125 32.90625 51.875 
C 32.90625 49.109375 32.5 44.1875 29.09375 39.84375 
C 26.09375 36 22.703125 36 19.40625 35.6875 
C 18.90625 35.6875 16.59375 35.453125 16.203125 35.453125 
C 15.5 35.359375 15.09375 35.265625 15.09375 34.5 
C 15.09375 33.796875 15.203125 33.703125 17.203125 33.703125 
z
" id="CMR17-51"/>
      </defs>
      <g transform="translate(268.494835 287.230498)scale(0.1 -0.1)">
       <use transform="scale(0.996264)" xlink:href="#CMR17-48"/>
       <use transform="translate(45.690477 0)scale(0.996264)" xlink:href="#CMR17-46"/>
       <use transform="translate(70.561536 0)scale(0.996264)" xlink:href="#CMR17-48"/>
       <use transform="translate(116.252013 0)scale(0.996264)" xlink:href="#CMR17-51"/>
      </g>
     </g>
    </g>
    <g id="xtick_5">
     <g id="line2d_5">
      <g>
       <use style="stroke:#000000;stroke-width:0.8;" x="351.618813" xlink:href="#m4f81b72900" y="273.312"/>
      </g>
     </g>
     <g id="text_5">
      <!-- 0.04 -->
      <defs>
       <path d="M 33.59375 64.40625 
C 33.59375 66.5 33.5 66.5 31.703125 66.5 
L 2 19.59375 
L 2 17 
L 27.796875 17 
L 27.796875 7.140625 
C 27.796875 3.5 27.59375 2.5 20.59375 2.5 
L 18.703125 2.5 
L 18.703125 0 
C 21.90625 0 27.296875 0 30.703125 0 
C 34.09375 0 39.5 0 42.703125 0 
L 42.703125 2.5 
L 40.796875 2.5 
C 33.796875 2.5 33.59375 3.5 33.59375 7.140625 
L 33.59375 17 
L 43.796875 17 
L 43.796875 19.59375 
L 33.59375 19.59375 
z
M 28.09375 57.859375 
L 28.09375 19.59375 
L 4 19.59375 
z
" id="CMR17-52"/>
      </defs>
      <g transform="translate(342.763106 287.230498)scale(0.1 -0.1)">
       <use transform="scale(0.996264)" xlink:href="#CMR17-48"/>
       <use transform="translate(45.690477 0)scale(0.996264)" xlink:href="#CMR17-46"/>
       <use transform="translate(70.561536 0)scale(0.996264)" xlink:href="#CMR17-48"/>
       <use transform="translate(116.252013 0)scale(0.996264)" xlink:href="#CMR17-52"/>
      </g>
     </g>
    </g>
    <g id="text_6">
     <!-- velocity in y-direction $u$ [$\frac{lu}{s}$] -->
     <defs>
      <path d="M 2.984375 54.6875 
L 12.5 54.6875 
L 29.59375 8.796875 
L 46.6875 54.6875 
L 56.203125 54.6875 
L 35.6875 0 
L 23.484375 0 
z
" id="DejaVuSans-118"/>
      <path d="M 56.203125 29.59375 
L 56.203125 25.203125 
L 14.890625 25.203125 
Q 15.484375 15.921875 20.484375 11.0625 
Q 25.484375 6.203125 34.421875 6.203125 
Q 39.59375 6.203125 44.453125 7.46875 
Q 49.3125 8.734375 54.109375 11.28125 
L 54.109375 2.78125 
Q 49.265625 0.734375 44.1875 -0.34375 
Q 39.109375 -1.421875 33.890625 -1.421875 
Q 20.796875 -1.421875 13.15625 6.1875 
Q 5.515625 13.8125 5.515625 26.8125 
Q 5.515625 40.234375 12.765625 48.109375 
Q 20.015625 56 32.328125 56 
Q 43.359375 56 49.78125 48.890625 
Q 56.203125 41.796875 56.203125 29.59375 
z
M 47.21875 32.234375 
Q 47.125 39.59375 43.09375 43.984375 
Q 39.0625 48.390625 32.421875 48.390625 
Q 24.90625 48.390625 20.390625 44.140625 
Q 15.875 39.890625 15.1875 32.171875 
z
" id="DejaVuSans-101"/>
      <path d="M 9.421875 75.984375 
L 18.40625 75.984375 
L 18.40625 0 
L 9.421875 0 
z
" id="DejaVuSans-108"/>
      <path d="M 30.609375 48.390625 
Q 23.390625 48.390625 19.1875 42.75 
Q 14.984375 37.109375 14.984375 27.296875 
Q 14.984375 17.484375 19.15625 11.84375 
Q 23.34375 6.203125 30.609375 6.203125 
Q 37.796875 6.203125 41.984375 11.859375 
Q 46.1875 17.53125 46.1875 27.296875 
Q 46.1875 37.015625 41.984375 42.703125 
Q 37.796875 48.390625 30.609375 48.390625 
z
M 30.609375 56 
Q 42.328125 56 49.015625 48.375 
Q 55.71875 40.765625 55.71875 27.296875 
Q 55.71875 13.875 49.015625 6.21875 
Q 42.328125 -1.421875 30.609375 -1.421875 
Q 18.84375 -1.421875 12.171875 6.21875 
Q 5.515625 13.875 5.515625 27.296875 
Q 5.515625 40.765625 12.171875 48.375 
Q 18.84375 56 30.609375 56 
z
" id="DejaVuSans-111"/>
      <path d="M 48.78125 52.59375 
L 48.78125 44.1875 
Q 44.96875 46.296875 41.140625 47.34375 
Q 37.3125 48.390625 33.40625 48.390625 
Q 24.65625 48.390625 19.8125 42.84375 
Q 14.984375 37.3125 14.984375 27.296875 
Q 14.984375 17.28125 19.8125 11.734375 
Q 24.65625 6.203125 33.40625 6.203125 
Q 37.3125 6.203125 41.140625 7.25 
Q 44.96875 8.296875 48.78125 10.40625 
L 48.78125 2.09375 
Q 45.015625 0.34375 40.984375 -0.53125 
Q 36.96875 -1.421875 32.421875 -1.421875 
Q 20.0625 -1.421875 12.78125 6.34375 
Q 5.515625 14.109375 5.515625 27.296875 
Q 5.515625 40.671875 12.859375 48.328125 
Q 20.21875 56 33.015625 56 
Q 37.15625 56 41.109375 55.140625 
Q 45.0625 54.296875 48.78125 52.59375 
z
" id="DejaVuSans-99"/>
      <path d="M 9.421875 54.6875 
L 18.40625 54.6875 
L 18.40625 0 
L 9.421875 0 
z
M 9.421875 75.984375 
L 18.40625 75.984375 
L 18.40625 64.59375 
L 9.421875 64.59375 
z
" id="DejaVuSans-105"/>
      <path d="M 18.3125 70.21875 
L 18.3125 54.6875 
L 36.8125 54.6875 
L 36.8125 47.703125 
L 18.3125 47.703125 
L 18.3125 18.015625 
Q 18.3125 11.328125 20.140625 9.421875 
Q 21.96875 7.515625 27.59375 7.515625 
L 36.8125 7.515625 
L 36.8125 0 
L 27.59375 0 
Q 17.1875 0 13.234375 3.875 
Q 9.28125 7.765625 9.28125 18.015625 
L 9.28125 47.703125 
L 2.6875 47.703125 
L 2.6875 54.6875 
L 9.28125 54.6875 
L 9.28125 70.21875 
z
" id="DejaVuSans-116"/>
      <path d="M 32.171875 -5.078125 
Q 28.375 -14.84375 24.75 -17.8125 
Q 21.140625 -20.796875 15.09375 -20.796875 
L 7.90625 -20.796875 
L 7.90625 -13.28125 
L 13.1875 -13.28125 
Q 16.890625 -13.28125 18.9375 -11.515625 
Q 21 -9.765625 23.484375 -3.21875 
L 25.09375 0.875 
L 2.984375 54.6875 
L 12.5 54.6875 
L 29.59375 11.921875 
L 46.6875 54.6875 
L 56.203125 54.6875 
z
" id="DejaVuSans-121"/>
      <path id="DejaVuSans-32"/>
      <path d="M 54.890625 33.015625 
L 54.890625 0 
L 45.90625 0 
L 45.90625 32.71875 
Q 45.90625 40.484375 42.875 44.328125 
Q 39.84375 48.1875 33.796875 48.1875 
Q 26.515625 48.1875 22.3125 43.546875 
Q 18.109375 38.921875 18.109375 30.90625 
L 18.109375 0 
L 9.078125 0 
L 9.078125 54.6875 
L 18.109375 54.6875 
L 18.109375 46.1875 
Q 21.34375 51.125 25.703125 53.5625 
Q 30.078125 56 35.796875 56 
Q 45.21875 56 50.046875 50.171875 
Q 54.890625 44.34375 54.890625 33.015625 
z
" id="DejaVuSans-110"/>
      <path d="M 4.890625 31.390625 
L 31.203125 31.390625 
L 31.203125 23.390625 
L 4.890625 23.390625 
z
" id="DejaVuSans-45"/>
      <path d="M 45.40625 46.390625 
L 45.40625 75.984375 
L 54.390625 75.984375 
L 54.390625 0 
L 45.40625 0 
L 45.40625 8.203125 
Q 42.578125 3.328125 38.25 0.953125 
Q 33.9375 -1.421875 27.875 -1.421875 
Q 17.96875 -1.421875 11.734375 6.484375 
Q 5.515625 14.40625 5.515625 27.296875 
Q 5.515625 40.1875 11.734375 48.09375 
Q 17.96875 56 27.875 56 
Q 33.9375 56 38.25 53.625 
Q 42.578125 51.265625 45.40625 46.390625 
z
M 14.796875 27.296875 
Q 14.796875 17.390625 18.875 11.75 
Q 22.953125 6.109375 30.078125 6.109375 
Q 37.203125 6.109375 41.296875 11.75 
Q 45.40625 17.390625 45.40625 27.296875 
Q 45.40625 37.203125 41.296875 42.84375 
Q 37.203125 48.484375 30.078125 48.484375 
Q 22.953125 48.484375 18.875 42.84375 
Q 14.796875 37.203125 14.796875 27.296875 
z
" id="DejaVuSans-100"/>
      <path d="M 41.109375 46.296875 
Q 39.59375 47.171875 37.8125 47.578125 
Q 36.03125 48 33.890625 48 
Q 26.265625 48 22.1875 43.046875 
Q 18.109375 38.09375 18.109375 28.8125 
L 18.109375 0 
L 9.078125 0 
L 9.078125 54.6875 
L 18.109375 54.6875 
L 18.109375 46.1875 
Q 20.953125 51.171875 25.484375 53.578125 
Q 30.03125 56 36.53125 56 
Q 37.453125 56 38.578125 55.875 
Q 39.703125 55.765625 41.0625 55.515625 
z
" id="DejaVuSans-114"/>
      <path d="M 6.6875 21.6875 
L 13.09375 54.6875 
L 22.125 54.6875 
L 15.71875 22.015625 
Q 15.234375 19.625 15.015625 17.921875 
Q 14.796875 16.21875 14.796875 15.09375 
Q 14.796875 10.9375 17.328125 8.65625 
Q 19.875 6.390625 24.515625 6.390625 
Q 31.734375 6.390625 37 11.265625 
Q 42.28125 16.15625 43.890625 24.421875 
L 49.90625 54.6875 
L 58.890625 54.6875 
L 48.296875 0 
L 39.3125 0 
L 41.109375 8.59375 
Q 37.3125 3.8125 32.0625 1.1875 
Q 26.8125 -1.421875 20.90625 -1.421875 
Q 13.71875 -1.421875 9.71875 2.515625 
Q 5.71875 6.453125 5.71875 13.484375 
Q 5.71875 14.9375 5.953125 17.140625 
Q 6.203125 19.34375 6.6875 21.6875 
z
" id="DejaVuSans-Oblique-117"/>
      <path d="M 8.59375 75.984375 
L 29.296875 75.984375 
L 29.296875 69 
L 17.578125 69 
L 17.578125 -6.203125 
L 29.296875 -6.203125 
L 29.296875 -13.1875 
L 8.59375 -13.1875 
z
" id="DejaVuSans-91"/>
      <path d="M 18.3125 75.984375 
L 27.296875 75.984375 
L 12.5 0 
L 3.515625 0 
z
" id="DejaVuSans-Oblique-108"/>
      <path d="M 50 53.078125 
L 48.296875 44.578125 
Q 44.734375 46.53125 40.765625 47.5 
Q 36.8125 48.484375 32.625 48.484375 
Q 25.53125 48.484375 21.453125 46.0625 
Q 17.390625 43.65625 17.390625 39.5 
Q 17.390625 34.671875 26.859375 32.078125 
Q 27.59375 31.890625 27.9375 31.78125 
L 30.8125 30.90625 
Q 39.796875 28.421875 42.796875 25.6875 
Q 45.796875 22.953125 45.796875 18.21875 
Q 45.796875 9.515625 38.890625 4.046875 
Q 31.984375 -1.421875 20.796875 -1.421875 
Q 16.453125 -1.421875 11.671875 -0.578125 
Q 6.890625 0.25 1.125 2 
L 2.875 11.28125 
Q 7.8125 8.734375 12.59375 7.421875 
Q 17.390625 6.109375 21.78125 6.109375 
Q 28.375 6.109375 32.5 8.9375 
Q 36.625 11.765625 36.625 16.109375 
Q 36.625 20.796875 25.78125 23.6875 
L 24.859375 23.921875 
L 21.78125 24.703125 
Q 14.9375 26.515625 11.765625 29.46875 
Q 8.59375 32.421875 8.59375 37.015625 
Q 8.59375 45.75 15.15625 50.875 
Q 21.734375 56 33.015625 56 
Q 37.453125 56 41.671875 55.265625 
Q 45.90625 54.546875 50 53.078125 
z
" id="DejaVuSans-Oblique-115"/>
      <path d="M 30.421875 75.984375 
L 30.421875 -13.1875 
L 9.71875 -13.1875 
L 9.71875 -6.203125 
L 21.390625 -6.203125 
L 21.390625 69 
L 9.71875 69 
L 9.71875 75.984375 
z
" id="DejaVuSans-93"/>
     </defs>
     <g transform="translate(155.301577 303.431555)scale(0.1 -0.1)">
      <use transform="translate(0 0.01875)" xlink:href="#DejaVuSans-118"/>
      <use transform="translate(59.179688 0.01875)" xlink:href="#DejaVuSans-101"/>
      <use transform="translate(120.703125 0.01875)" xlink:href="#DejaVuSans-108"/>
      <use transform="translate(148.486328 0.01875)" xlink:href="#DejaVuSans-111"/>
      <use transform="translate(209.667969 0.01875)" xlink:href="#DejaVuSans-99"/>
      <use transform="translate(264.648438 0.01875)" xlink:href="#DejaVuSans-105"/>
      <use transform="translate(292.431641 0.01875)" xlink:href="#DejaVuSans-116"/>
      <use transform="translate(331.640625 0.01875)" xlink:href="#DejaVuSans-121"/>
      <use transform="translate(390.820312 0.01875)" xlink:href="#DejaVuSans-32"/>
      <use transform="translate(422.607422 0.01875)" xlink:href="#DejaVuSans-105"/>
      <use transform="translate(450.390625 0.01875)" xlink:href="#DejaVuSans-110"/>
      <use transform="translate(513.769531 0.01875)" xlink:href="#DejaVuSans-32"/>
      <use transform="translate(545.556641 0.01875)" xlink:href="#DejaVuSans-121"/>
      <use transform="translate(604.736328 0.01875)" xlink:href="#DejaVuSans-45"/>
      <use transform="translate(640.820312 0.01875)" xlink:href="#DejaVuSans-100"/>
      <use transform="translate(704.296875 0.01875)" xlink:href="#DejaVuSans-105"/>
      <use transform="translate(732.080078 0.01875)" xlink:href="#DejaVuSans-114"/>
      <use transform="translate(773.193359 0.01875)" xlink:href="#DejaVuSans-101"/>
      <use transform="translate(834.716797 0.01875)" xlink:href="#DejaVuSans-99"/>
      <use transform="translate(889.697266 0.01875)" xlink:href="#DejaVuSans-116"/>
      <use transform="translate(928.90625 0.01875)" xlink:href="#DejaVuSans-105"/>
      <use transform="translate(956.689453 0.01875)" xlink:href="#DejaVuSans-111"/>
      <use transform="translate(1017.871094 0.01875)" xlink:href="#DejaVuSans-110"/>
      <use transform="translate(1081.25 0.01875)" xlink:href="#DejaVuSans-32"/>
      <use transform="translate(1113.037109 0.01875)" xlink:href="#DejaVuSans-Oblique-117"/>
      <use transform="translate(1176.416016 0.01875)" xlink:href="#DejaVuSans-32"/>
      <use transform="translate(1208.203125 0.01875)" xlink:href="#DejaVuSans-91"/>
      <use transform="translate(1247.216797 44.810938)scale(0.7)" xlink:href="#DejaVuSans-Oblique-108"/>
      <use transform="translate(1266.665039 44.810938)scale(0.7)" xlink:href="#DejaVuSans-Oblique-117"/>
      <use transform="translate(1261.216797 -26.634375)scale(0.7)" xlink:href="#DejaVuSans-Oblique-115"/>
      <use transform="translate(1323.530273 0.01875)" xlink:href="#DejaVuSans-93"/>
      <path d="M 1247.216797 18.815625 
L 1247.216797 25.065625 
L 1311.030273 25.065625 
L 1311.030273 18.815625 
L 1247.216797 18.815625 
z
"/>
     </g>
    </g>
   </g>
   <g id="matplotlib.axis_2">
    <g id="ytick_1">
     <g id="line2d_6">
      <defs>
       <path d="M 0 0 
L -3.5 0 
" id="m1f3569af88" style="stroke:#000000;stroke-width:0.8;"/>
      </defs>
      <g>
       <use style="stroke:#000000;stroke-width:0.8;" x="38.125311" xlink:href="#m1f3569af88" y="259.2"/>
      </g>
     </g>
     <g id="text_7">
      <!-- 0 -->
      <g transform="translate(26.143975 262.659249)scale(0.1 -0.1)">
       <use xlink:href="#DejaVuSans-48"/>
      </g>
     </g>
    </g>
    <g id="ytick_2">
     <g id="line2d_7">
      <g>
       <use style="stroke:#000000;stroke-width:0.8;" x="38.125311" xlink:href="#m1f3569af88" y="218.88"/>
      </g>
     </g>
     <g id="text_8">
      <!-- 10 -->
      <g transform="translate(21.16264 222.339249)scale(0.1 -0.1)">
       <use transform="scale(0.996264)" xlink:href="#CMR17-49"/>
       <use transform="translate(45.690477 0)scale(0.996264)" xlink:href="#CMR17-48"/>
      </g>
     </g>
    </g>
    <g id="ytick_3">
     <g id="line2d_8">
      <g>
       <use style="stroke:#000000;stroke-width:0.8;" x="38.125311" xlink:href="#m1f3569af88" y="178.56"/>
      </g>
     </g>
     <g id="text_9">
      <!-- 20 -->
      <g transform="translate(21.16264 182.019249)scale(0.1 -0.1)">
       <use transform="scale(0.996264)" xlink:href="#CMR17-50"/>
       <use transform="translate(45.690477 0)scale(0.996264)" xlink:href="#CMR17-48"/>
      </g>
     </g>
    </g>
    <g id="ytick_4">
     <g id="line2d_9">
      <g>
       <use style="stroke:#000000;stroke-width:0.8;" x="38.125311" xlink:href="#m1f3569af88" y="138.24"/>
      </g>
     </g>
     <g id="text_10">
      <!-- 30 -->
      <g transform="translate(21.16264 141.699249)scale(0.1 -0.1)">
       <use transform="scale(0.996264)" xlink:href="#CMR17-51"/>
       <use transform="translate(45.690477 0)scale(0.996264)" xlink:href="#CMR17-48"/>
      </g>
     </g>
    </g>
    <g id="ytick_5">
     <g id="line2d_10">
      <g>
       <use style="stroke:#000000;stroke-width:0.8;" x="38.125311" xlink:href="#m1f3569af88" y="97.92"/>
      </g>
     </g>
     <g id="text_11">
      <!-- 40 -->
      <g transform="translate(21.16264 101.379249)scale(0.1 -0.1)">
       <use transform="scale(0.996264)" xlink:href="#CMR17-52"/>
       <use transform="translate(45.690477 0)scale(0.996264)" xlink:href="#CMR17-48"/>
      </g>
     </g>
    </g>
    <g id="ytick_6">
     <g id="line2d_11">
      <g>
       <use style="stroke:#000000;stroke-width:0.8;" x="38.125311" xlink:href="#m1f3569af88" y="57.6"/>
      </g>
     </g>
     <g id="text_12">
      <!-- 50 -->
      <defs>
       <path d="M 11.40625 57.6875 
C 12.40625 57.28125 16.5 56 20.703125 56 
C 30 56 35.09375 61.109375 38 64.0625 
C 38 64.953125 38 65.5 37.40625 65.5 
C 37.296875 65.5 37.09375 65.5 36.296875 65.046875 
C 32.796875 63.40625 28.703125 62.078125 23.703125 62.078125 
C 20.703125 62.078125 16.203125 62.484375 11.296875 64.671875 
C 10.203125 65.171875 10 65.171875 9.90625 65.171875 
C 9.40625 65.171875 9.296875 65.0625 9.296875 63.078125 
L 9.296875 34.421875 
C 9.296875 32.640625 9.296875 32.140625 10.296875 32.140625 
C 10.796875 32.140625 11 32.34375 11.5 33.03125 
C 14.703125 37.515625 19.09375 39.40625 24.09375 39.40625 
C 27.59375 39.40625 35.09375 37.21875 35.09375 20.140625 
C 35.09375 16.953125 35.09375 11.171875 32.09375 6.578125 
C 29.59375 2.484375 25.703125 0.390625 21.40625 0.390625 
C 14.796875 0.390625 8.09375 5 6.296875 12.71875 
C 6.703125 12.609375 7.5 12.421875 7.90625 12.421875 
C 9.203125 12.421875 11.703125 13.125 11.703125 16.21875 
C 11.703125 18.90625 9.796875 20 7.90625 20 
C 5.59375 20 4.09375 18.59375 4.09375 15.796875 
C 4.09375 7.09375 11 -2 21.59375 -2 
C 31.90625 -2 41.703125 6.875 41.703125 19.75 
C 41.703125 31.71875 33.90625 41 24.203125 41 
C 19.09375 41 14.796875 39.109375 11.40625 35.53125 
z
" id="CMR17-53"/>
      </defs>
      <g transform="translate(21.16264 61.059249)scale(0.1 -0.1)">
       <use transform="scale(0.996264)" xlink:href="#CMR17-53"/>
       <use transform="translate(45.690477 0)scale(0.996264)" xlink:href="#CMR17-48"/>
      </g>
     </g>
    </g>
    <g id="ytick_7">
     <g id="line2d_12">
      <g>
       <use style="stroke:#000000;stroke-width:0.8;" x="38.125311" xlink:href="#m1f3569af88" y="17.28"/>
      </g>
     </g>
     <g id="text_13">
      <!-- 60 -->
      <defs>
       <path d="M 10.59375 34 
C 10.59375 57.65625 21.796875 63 28.296875 63 
C 30.40625 63 35.5 62.640625 37.5 59 
C 35.90625 59 32.90625 59 32.90625 55.515625 
C 32.90625 52.828125 35.09375 51.921875 36.5 51.921875 
C 37.40625 51.921875 40.09375 52.3125 40.09375 55.625 
C 40.09375 61.78125 35.09375 65.296875 28.203125 65.296875 
C 16.296875 65.296875 3.796875 52.96875 3.796875 31 
C 3.796875 3.953125 15.09375 -2 23.09375 -2 
C 32.796875 -2 42 6.671875 42 20.046875 
C 42 32.515625 33.90625 41.59375 23.703125 41.59375 
C 17.59375 41.59375 13.09375 37.609375 10.59375 30.625 
z
M 23.09375 0.390625 
C 10.796875 0.390625 10.796875 18.75 10.796875 22.4375 
C 10.796875 29.625 14.203125 40 23.5 40 
C 25.203125 40 30.09375 40 33.40625 33.125 
C 35.203125 29.21875 35.203125 25.140625 35.203125 20.140625 
C 35.203125 14.75 35.203125 10.78125 33.09375 6.78125 
C 30.90625 2.671875 27.703125 0.390625 23.09375 0.390625 
z
" id="CMR17-54"/>
      </defs>
      <g transform="translate(21.16264 20.739249)scale(0.1 -0.1)">
       <use transform="scale(0.996264)" xlink:href="#CMR17-54"/>
       <use transform="translate(45.690477 0)scale(0.996264)" xlink:href="#CMR17-48"/>
      </g>
     </g>
    </g>
    <g id="text_14">
     <!-- y position [lu] -->
     <defs>
      <path d="M 18.109375 8.203125 
L 18.109375 -20.796875 
L 9.078125 -20.796875 
L 9.078125 54.6875 
L 18.109375 54.6875 
L 18.109375 46.390625 
Q 20.953125 51.265625 25.265625 53.625 
Q 29.59375 56 35.59375 56 
Q 45.5625 56 51.78125 48.09375 
Q 58.015625 40.1875 58.015625 27.296875 
Q 58.015625 14.40625 51.78125 6.484375 
Q 45.5625 -1.421875 35.59375 -1.421875 
Q 29.59375 -1.421875 25.265625 0.953125 
Q 20.953125 3.328125 18.109375 8.203125 
z
M 48.6875 27.296875 
Q 48.6875 37.203125 44.609375 42.84375 
Q 40.53125 48.484375 33.40625 48.484375 
Q 26.265625 48.484375 22.1875 42.84375 
Q 18.109375 37.203125 18.109375 27.296875 
Q 18.109375 17.390625 22.1875 11.75 
Q 26.265625 6.109375 33.40625 6.109375 
Q 40.53125 6.109375 44.609375 11.75 
Q 48.6875 17.390625 48.6875 27.296875 
z
" id="DejaVuSans-112"/>
      <path d="M 44.28125 53.078125 
L 44.28125 44.578125 
Q 40.484375 46.53125 36.375 47.5 
Q 32.28125 48.484375 27.875 48.484375 
Q 21.1875 48.484375 17.84375 46.4375 
Q 14.5 44.390625 14.5 40.28125 
Q 14.5 37.15625 16.890625 35.375 
Q 19.28125 33.59375 26.515625 31.984375 
L 29.59375 31.296875 
Q 39.15625 29.25 43.1875 25.515625 
Q 47.21875 21.78125 47.21875 15.09375 
Q 47.21875 7.46875 41.1875 3.015625 
Q 35.15625 -1.421875 24.609375 -1.421875 
Q 20.21875 -1.421875 15.453125 -0.5625 
Q 10.6875 0.296875 5.421875 2 
L 5.421875 11.28125 
Q 10.40625 8.6875 15.234375 7.390625 
Q 20.0625 6.109375 24.8125 6.109375 
Q 31.15625 6.109375 34.5625 8.28125 
Q 37.984375 10.453125 37.984375 14.40625 
Q 37.984375 18.0625 35.515625 20.015625 
Q 33.0625 21.96875 24.703125 23.78125 
L 21.578125 24.515625 
Q 13.234375 26.265625 9.515625 29.90625 
Q 5.8125 33.546875 5.8125 39.890625 
Q 5.8125 47.609375 11.28125 51.796875 
Q 16.75 56 26.8125 56 
Q 31.78125 56 36.171875 55.265625 
Q 40.578125 54.546875 44.28125 53.078125 
z
" id="DejaVuSans-115"/>
      <path d="M 8.5 21.578125 
L 8.5 54.6875 
L 17.484375 54.6875 
L 17.484375 21.921875 
Q 17.484375 14.15625 20.5 10.265625 
Q 23.53125 6.390625 29.59375 6.390625 
Q 36.859375 6.390625 41.078125 11.03125 
Q 45.3125 15.671875 45.3125 23.6875 
L 45.3125 54.6875 
L 54.296875 54.6875 
L 54.296875 0 
L 45.3125 0 
L 45.3125 8.40625 
Q 42.046875 3.421875 37.71875 1 
Q 33.40625 -1.421875 27.6875 -1.421875 
Q 18.265625 -1.421875 13.375 4.4375 
Q 8.5 10.296875 8.5 21.578125 
z
M 31.109375 56 
z
" id="DejaVuSans-117"/>
     </defs>
     <g transform="translate(14.67198 170.448412)rotate(-90)scale(0.1 -0.1)">
      <use xlink:href="#DejaVuSans-121"/>
      <use x="59.179688" xlink:href="#DejaVuSans-32"/>
      <use x="90.966797" xlink:href="#DejaVuSans-112"/>
      <use x="154.443359" xlink:href="#DejaVuSans-111"/>
      <use x="215.625" xlink:href="#DejaVuSans-115"/>
      <use x="267.724609" xlink:href="#DejaVuSans-105"/>
      <use x="295.507812" xlink:href="#DejaVuSans-116"/>
      <use x="334.716797" xlink:href="#DejaVuSans-105"/>
      <use x="362.5" xlink:href="#DejaVuSans-111"/>
      <use x="423.681641" xlink:href="#DejaVuSans-110"/>
      <use x="487.060547" xlink:href="#DejaVuSans-32"/>
      <use x="518.847656" xlink:href="#DejaVuSans-91"/>
      <use x="557.861328" xlink:href="#DejaVuSans-108"/>
      <use x="585.644531" xlink:href="#DejaVuSans-117"/>
      <use x="649.023438" xlink:href="#DejaVuSans-93"/>
     </g>
    </g>
   </g>
   <g id="line2d_13">
    <path clip-path="url(#p67d756dc7c)" d="M 54.358038 259.2 
L 61.472012 255.168 
L 76.656303 251.136 
L 98.133206 247.104 
L 122.041947 243.072 
L 145.997431 239.04 
L 168.500721 235.008 
L 188.896372 230.976 
L 207.079782 226.944 
L 223.239549 222.912 
L 237.675387 218.88 
L 250.702635 214.848 
L 262.596336 210.816 
L 273.567492 206.784 
L 283.760444 202.752 
L 293.263543 198.72 
L 302.123918 194.688 
L 310.36181 190.656 
L 317.982005 186.624 
L 324.981881 182.592 
L 331.356329 178.56 
L 337.100335 174.528 
L 342.210029 170.496 
L 346.682861 166.464 
L 350.51738 162.432 
L 353.712905 158.4 
L 356.269213 154.368 
L 358.186312 150.336 
L 359.464296 146.304 
L 360.10326 142.272 
L 360.10326 138.24 
L 359.464296 134.208 
L 358.186312 130.176 
L 356.269213 126.144 
L 353.712905 122.112 
L 350.51738 118.08 
L 346.682861 114.048 
L 342.210029 110.016 
L 337.100335 105.984 
L 331.356329 101.952 
L 324.981881 97.92 
L 317.982005 93.888 
L 310.36181 89.856 
L 302.123918 85.824 
L 293.263543 81.792 
L 283.760444 77.76 
L 273.567492 73.728 
L 262.596336 69.696 
L 250.702635 65.664 
L 237.675387 61.632 
L 223.239549 57.6 
L 207.079782 53.568 
L 188.896372 49.536 
L 168.500721 45.504 
L 145.997431 41.472 
L 122.041947 37.44 
L 98.133206 33.408 
L 76.656303 29.376 
L 61.472012 25.344 
L 54.358038 21.312 
" style="fill:none;stroke:#00ffff;stroke-dasharray:1,1.65;stroke-dashoffset:0;"/>
   </g>
   <g id="line2d_14">
    <path clip-path="url(#p67d756dc7c)" d="M 54.545727 261.216 
L 74.230074 257.184 
L 93.247155 253.152 
L 111.59697 249.12 
L 129.279519 245.088 
L 146.294803 241.056 
L 162.64282 237.024 
L 178.323571 232.992 
L 193.337056 228.96 
L 207.683275 224.928 
L 221.362228 220.896 
L 234.373916 216.864 
L 246.718337 212.832 
L 258.395492 208.8 
L 269.405381 204.768 
L 279.748004 200.736 
L 289.423361 196.704 
L 298.431452 192.672 
L 306.772277 188.64 
L 314.445836 184.608 
L 321.452129 180.576 
L 327.791157 176.544 
L 333.462918 172.512 
L 338.467413 168.48 
L 342.804642 164.448 
L 346.474605 160.416 
L 349.477302 156.384 
L 351.812733 152.352 
L 353.480898 148.32 
L 354.481797 144.288 
L 354.81543 140.256 
L 354.481797 136.224 
L 353.480898 132.192 
L 351.812733 128.16 
L 349.477302 124.128 
L 346.474605 120.096 
L 342.804642 116.064 
L 338.467413 112.032 
L 333.462918 108 
L 327.791157 103.968 
L 321.452129 99.936 
L 314.445836 95.904 
L 306.772277 91.872 
L 298.431452 87.84 
L 289.423361 83.808 
L 279.748004 79.776 
L 269.405381 75.744 
L 258.395492 71.712 
L 246.718337 67.68 
L 234.373916 63.648 
L 221.362228 59.616 
L 207.683275 55.584 
L 193.337056 51.552 
L 178.323571 47.52 
L 162.64282 43.488 
L 146.294803 39.456 
L 129.279519 35.424 
L 111.59697 31.392 
L 93.247155 27.36 
L 74.230074 23.328 
L 54.545727 19.296 
" style="fill:none;stroke:#ff0000;stroke-dasharray:5.55,2.4;stroke-dashoffset:0;stroke-width:1.5;"/>
   </g>
   <g id="line2d_15">
    <path clip-path="url(#p67d756dc7c)" d="M 54.545727 261.216 
L 57.82317 261.216 
L 61.100613 261.216 
L 64.378056 261.216 
L 67.655499 261.216 
L 70.932942 261.216 
L 74.210385 261.216 
L 77.487828 261.216 
L 80.765271 261.216 
L 84.042714 261.216 
L 87.320157 261.216 
L 90.5976 261.216 
L 93.875043 261.216 
L 97.152486 261.216 
L 100.429929 261.216 
L 103.707372 261.216 
L 106.984815 261.216 
L 110.262258 261.216 
L 113.539701 261.216 
L 116.817144 261.216 
L 120.094587 261.216 
L 123.37203 261.216 
L 126.649473 261.216 
L 129.926916 261.216 
L 133.204359 261.216 
L 136.481802 261.216 
L 139.759245 261.216 
L 143.036688 261.216 
L 146.314131 261.216 
L 149.591574 261.216 
L 152.869017 261.216 
L 156.14646 261.216 
L 159.423903 261.216 
L 162.701346 261.216 
L 165.978789 261.216 
L 169.256232 261.216 
L 172.533675 261.216 
L 175.811118 261.216 
L 179.088561 261.216 
L 182.366004 261.216 
L 185.643447 261.216 
L 188.92089 261.216 
L 192.198333 261.216 
L 195.475776 261.216 
L 198.753219 261.216 
L 202.030662 261.216 
L 205.308105 261.216 
L 208.585548 261.216 
L 211.862991 261.216 
L 215.140434 261.216 
L 218.417877 261.216 
L 221.69532 261.216 
L 224.972763 261.216 
L 228.250206 261.216 
L 231.527648 261.216 
L 234.805091 261.216 
L 238.082534 261.216 
L 241.359977 261.216 
L 244.63742 261.216 
L 247.914863 261.216 
L 251.192306 261.216 
L 254.469749 261.216 
L 257.747192 261.216 
L 261.024635 261.216 
L 264.302078 261.216 
L 267.579521 261.216 
L 270.856964 261.216 
L 274.134407 261.216 
L 277.41185 261.216 
L 280.689293 261.216 
L 283.966736 261.216 
L 287.244179 261.216 
L 290.521622 261.216 
L 293.799065 261.216 
L 297.076508 261.216 
L 300.353951 261.216 
L 303.631394 261.216 
L 306.908837 261.216 
L 310.18628 261.216 
L 313.463723 261.216 
L 316.741166 261.216 
L 320.018609 261.216 
L 323.296052 261.216 
L 326.573495 261.216 
L 329.850938 261.216 
L 333.128381 261.216 
L 336.405824 261.216 
L 339.683267 261.216 
L 342.96071 261.216 
L 346.238153 261.216 
L 349.515596 261.216 
L 352.793039 261.216 
L 356.070482 261.216 
L 359.347925 261.216 
L 362.625368 261.216 
L 365.902811 261.216 
L 369.180254 261.216 
L 372.457697 261.216 
L 375.73514 261.216 
L 379.012583 261.216 
" style="fill:none;stroke:#008000;stroke-linecap:square;stroke-width:1.5;"/>
   </g>
   <g id="line2d_16">
    <path clip-path="url(#p67d756dc7c)" d="M 54.545727 19.296 
L 57.82317 19.296 
L 61.100613 19.296 
L 64.378056 19.296 
L 67.655499 19.296 
L 70.932942 19.296 
L 74.210385 19.296 
L 77.487828 19.296 
L 80.765271 19.296 
L 84.042714 19.296 
L 87.320157 19.296 
L 90.5976 19.296 
L 93.875043 19.296 
L 97.152486 19.296 
L 100.429929 19.296 
L 103.707372 19.296 
L 106.984815 19.296 
L 110.262258 19.296 
L 113.539701 19.296 
L 116.817144 19.296 
L 120.094587 19.296 
L 123.37203 19.296 
L 126.649473 19.296 
L 129.926916 19.296 
L 133.204359 19.296 
L 136.481802 19.296 
L 139.759245 19.296 
L 143.036688 19.296 
L 146.314131 19.296 
L 149.591574 19.296 
L 152.869017 19.296 
L 156.14646 19.296 
L 159.423903 19.296 
L 162.701346 19.296 
L 165.978789 19.296 
L 169.256232 19.296 
L 172.533675 19.296 
L 175.811118 19.296 
L 179.088561 19.296 
L 182.366004 19.296 
L 185.643447 19.296 
L 188.92089 19.296 
L 192.198333 19.296 
L 195.475776 19.296 
L 198.753219 19.296 
L 202.030662 19.296 
L 205.308105 19.296 
L 208.585548 19.296 
L 211.862991 19.296 
L 215.140434 19.296 
L 218.417877 19.296 
L 221.69532 19.296 
L 224.972763 19.296 
L 228.250206 19.296 
L 231.527648 19.296 
L 234.805091 19.296 
L 238.082534 19.296 
L 241.359977 19.296 
L 244.63742 19.296 
L 247.914863 19.296 
L 251.192306 19.296 
L 254.469749 19.296 
L 257.747192 19.296 
L 261.024635 19.296 
L 264.302078 19.296 
L 267.579521 19.296 
L 270.856964 19.296 
L 274.134407 19.296 
L 277.41185 19.296 
L 280.689293 19.296 
L 283.966736 19.296 
L 287.244179 19.296 
L 290.521622 19.296 
L 293.799065 19.296 
L 297.076508 19.296 
L 300.353951 19.296 
L 303.631394 19.296 
L 306.908837 19.296 
L 310.18628 19.296 
L 313.463723 19.296 
L 316.741166 19.296 
L 320.018609 19.296 
L 323.296052 19.296 
L 326.573495 19.296 
L 329.850938 19.296 
L 333.128381 19.296 
L 336.405824 19.296 
L 339.683267 19.296 
L 342.96071 19.296 
L 346.238153 19.296 
L 349.515596 19.296 
L 352.793039 19.296 
L 356.070482 19.296 
L 359.347925 19.296 
L 362.625368 19.296 
L 365.902811 19.296 
L 369.180254 19.296 
L 372.457697 19.296 
L 375.73514 19.296 
L 379.012583 19.296 
" style="fill:none;stroke:#008000;stroke-linecap:square;stroke-width:1.5;"/>
   </g>
   <g id="line2d_17">
    <path clip-path="url(#p67d756dc7c)" d="M 64.599213 259.2 
L 84.324399 255.168 
L 103.340218 251.136 
L 121.649469 247.104 
L 139.254999 243.072 
L 156.159654 239.04 
L 172.366275 235.008 
L 187.877668 230.976 
L 202.696587 226.944 
L 216.825708 222.912 
L 230.267615 218.88 
L 243.024771 214.848 
L 255.099508 210.816 
L 266.494001 206.784 
L 277.210262 202.752 
L 287.250121 198.72 
L 296.615224 194.688 
L 305.307026 190.656 
L 313.326793 186.624 
L 320.675606 182.592 
L 327.354366 178.56 
L 333.363811 174.528 
L 338.70453 170.496 
L 343.376975 166.464 
L 347.381489 162.432 
L 350.718316 158.4 
L 353.387627 154.368 
L 355.389534 150.336 
L 356.724107 146.304 
L 357.391385 142.272 
L 357.391385 138.24 
L 356.724107 134.208 
L 355.389534 130.176 
L 353.387627 126.144 
L 350.718316 122.112 
L 347.381489 118.08 
L 343.376975 114.048 
L 338.70453 110.016 
L 333.363811 105.984 
L 327.354366 101.952 
L 320.675606 97.92 
L 313.326793 93.888 
L 305.307026 89.856 
L 296.615224 85.824 
L 287.250121 81.792 
L 277.210262 77.76 
L 266.494001 73.728 
L 255.099508 69.696 
L 243.024771 65.664 
L 230.267615 61.632 
L 216.825708 57.6 
L 202.696587 53.568 
L 187.877668 49.536 
L 172.366275 45.504 
L 156.159654 41.472 
L 139.254999 37.44 
L 121.649469 33.408 
L 103.340218 29.376 
L 84.324399 25.344 
L 64.599213 21.312 
" style="fill:none;stroke:#0000ff;stroke-dasharray:6.4,1.6,1,1.6;stroke-dashoffset:0;"/>
   </g>
   <g id="line2d_18">
    <path clip-path="url(#p67d756dc7c)" d="M 54.545727 261.216 
L 74.257015 257.184 
L 93.300124 253.152 
L 111.675054 249.12 
L 129.381804 245.088 
L 146.420376 241.056 
L 162.790768 237.024 
L 178.49298 232.992 
L 193.527014 228.96 
L 207.892868 224.928 
L 221.590543 220.896 
L 234.620038 216.864 
L 246.981355 212.832 
L 258.674492 208.8 
L 269.69945 204.768 
L 280.056228 200.736 
L 289.744828 196.704 
L 298.765248 192.672 
L 307.117489 188.64 
L 314.80155 184.608 
L 321.817432 180.576 
L 328.165135 176.544 
L 333.844659 172.512 
L 338.856004 168.48 
L 343.199169 164.448 
L 346.874155 160.416 
L 349.880961 156.384 
L 352.219589 152.352 
L 353.890037 148.32 
L 354.892306 144.288 
L 355.226396 140.256 
L 354.892306 136.224 
L 353.890037 132.192 
L 352.219589 128.16 
L 349.880961 124.128 
L 346.874155 120.096 
L 343.199169 116.064 
L 338.856004 112.032 
L 333.844659 108 
L 328.165135 103.968 
L 321.817432 99.936 
L 314.80155 95.904 
L 307.117489 91.872 
L 298.765248 87.84 
L 289.744828 83.808 
L 280.056228 79.776 
L 269.69945 75.744 
L 258.674492 71.712 
L 246.981355 67.68 
L 234.620038 63.648 
L 221.590543 59.616 
L 207.892868 55.584 
L 193.527014 51.552 
L 178.49298 47.52 
L 162.790768 43.488 
L 146.420376 39.456 
L 129.381804 35.424 
L 111.675054 31.392 
L 93.300124 27.36 
L 74.257015 23.328 
L 54.545727 19.296 
" style="fill:none;stroke:#ff0000;stroke-dasharray:5.55,2.4;stroke-dashoffset:0;stroke-width:1.5;"/>
   </g>
   <g id="line2d_19">
    <path clip-path="url(#p67d756dc7c)" d="M 54.545727 261.216 
L 57.82317 261.216 
L 61.100613 261.216 
L 64.378056 261.216 
L 67.655499 261.216 
L 70.932942 261.216 
L 74.210385 261.216 
L 77.487828 261.216 
L 80.765271 261.216 
L 84.042714 261.216 
L 87.320157 261.216 
L 90.5976 261.216 
L 93.875043 261.216 
L 97.152486 261.216 
L 100.429929 261.216 
L 103.707372 261.216 
L 106.984815 261.216 
L 110.262258 261.216 
L 113.539701 261.216 
L 116.817144 261.216 
L 120.094587 261.216 
L 123.37203 261.216 
L 126.649473 261.216 
L 129.926916 261.216 
L 133.204359 261.216 
L 136.481802 261.216 
L 139.759245 261.216 
L 143.036688 261.216 
L 146.314131 261.216 
L 149.591574 261.216 
L 152.869017 261.216 
L 156.14646 261.216 
L 159.423903 261.216 
L 162.701346 261.216 
L 165.978789 261.216 
L 169.256232 261.216 
L 172.533675 261.216 
L 175.811118 261.216 
L 179.088561 261.216 
L 182.366004 261.216 
L 185.643447 261.216 
L 188.92089 261.216 
L 192.198333 261.216 
L 195.475776 261.216 
L 198.753219 261.216 
L 202.030662 261.216 
L 205.308105 261.216 
L 208.585548 261.216 
L 211.862991 261.216 
L 215.140434 261.216 
L 218.417877 261.216 
L 221.69532 261.216 
L 224.972763 261.216 
L 228.250206 261.216 
L 231.527648 261.216 
L 234.805091 261.216 
L 238.082534 261.216 
L 241.359977 261.216 
L 244.63742 261.216 
L 247.914863 261.216 
L 251.192306 261.216 
L 254.469749 261.216 
L 257.747192 261.216 
L 261.024635 261.216 
L 264.302078 261.216 
L 267.579521 261.216 
L 270.856964 261.216 
L 274.134407 261.216 
L 277.41185 261.216 
L 280.689293 261.216 
L 283.966736 261.216 
L 287.244179 261.216 
L 290.521622 261.216 
L 293.799065 261.216 
L 297.076508 261.216 
L 300.353951 261.216 
L 303.631394 261.216 
L 306.908837 261.216 
L 310.18628 261.216 
L 313.463723 261.216 
L 316.741166 261.216 
L 320.018609 261.216 
L 323.296052 261.216 
L 326.573495 261.216 
L 329.850938 261.216 
L 333.128381 261.216 
L 336.405824 261.216 
L 339.683267 261.216 
L 342.96071 261.216 
L 346.238153 261.216 
L 349.515596 261.216 
L 352.793039 261.216 
L 356.070482 261.216 
L 359.347925 261.216 
L 362.625368 261.216 
L 365.902811 261.216 
L 369.180254 261.216 
L 372.457697 261.216 
L 375.73514 261.216 
L 379.012583 261.216 
" style="fill:none;stroke:#008000;stroke-linecap:square;stroke-width:1.5;"/>
   </g>
   <g id="line2d_20">
    <path clip-path="url(#p67d756dc7c)" d="M 54.545727 19.296 
L 57.82317 19.296 
L 61.100613 19.296 
L 64.378056 19.296 
L 67.655499 19.296 
L 70.932942 19.296 
L 74.210385 19.296 
L 77.487828 19.296 
L 80.765271 19.296 
L 84.042714 19.296 
L 87.320157 19.296 
L 90.5976 19.296 
L 93.875043 19.296 
L 97.152486 19.296 
L 100.429929 19.296 
L 103.707372 19.296 
L 106.984815 19.296 
L 110.262258 19.296 
L 113.539701 19.296 
L 116.817144 19.296 
L 120.094587 19.296 
L 123.37203 19.296 
L 126.649473 19.296 
L 129.926916 19.296 
L 133.204359 19.296 
L 136.481802 19.296 
L 139.759245 19.296 
L 143.036688 19.296 
L 146.314131 19.296 
L 149.591574 19.296 
L 152.869017 19.296 
L 156.14646 19.296 
L 159.423903 19.296 
L 162.701346 19.296 
L 165.978789 19.296 
L 169.256232 19.296 
L 172.533675 19.296 
L 175.811118 19.296 
L 179.088561 19.296 
L 182.366004 19.296 
L 185.643447 19.296 
L 188.92089 19.296 
L 192.198333 19.296 
L 195.475776 19.296 
L 198.753219 19.296 
L 202.030662 19.296 
L 205.308105 19.296 
L 208.585548 19.296 
L 211.862991 19.296 
L 215.140434 19.296 
L 218.417877 19.296 
L 221.69532 19.296 
L 224.972763 19.296 
L 228.250206 19.296 
L 231.527648 19.296 
L 234.805091 19.296 
L 238.082534 19.296 
L 241.359977 19.296 
L 244.63742 19.296 
L 247.914863 19.296 
L 251.192306 19.296 
L 254.469749 19.296 
L 257.747192 19.296 
L 261.024635 19.296 
L 264.302078 19.296 
L 267.579521 19.296 
L 270.856964 19.296 
L 274.134407 19.296 
L 277.41185 19.296 
L 280.689293 19.296 
L 283.966736 19.296 
L 287.244179 19.296 
L 290.521622 19.296 
L 293.799065 19.296 
L 297.076508 19.296 
L 300.353951 19.296 
L 303.631394 19.296 
L 306.908837 19.296 
L 310.18628 19.296 
L 313.463723 19.296 
L 316.741166 19.296 
L 320.018609 19.296 
L 323.296052 19.296 
L 326.573495 19.296 
L 329.850938 19.296 
L 333.128381 19.296 
L 336.405824 19.296 
L 339.683267 19.296 
L 342.96071 19.296 
L 346.238153 19.296 
L 349.515596 19.296 
L 352.793039 19.296 
L 356.070482 19.296 
L 359.347925 19.296 
L 362.625368 19.296 
L 365.902811 19.296 
L 369.180254 19.296 
L 372.457697 19.296 
L 375.73514 19.296 
L 379.012583 19.296 
" style="fill:none;stroke:#008000;stroke-linecap:square;stroke-width:1.5;"/>
   </g>
   <g id="patch_3">
    <path d="M 38.125311 273.312 
L 38.125311 7.2 
" style="fill:none;stroke:#000000;stroke-linecap:square;stroke-linejoin:miter;stroke-width:0.8;"/>
   </g>
   <g id="patch_4">
    <path d="M 395.245311 273.312 
L 395.245311 7.2 
" style="fill:none;stroke:#000000;stroke-linecap:square;stroke-linejoin:miter;stroke-width:0.8;"/>
   </g>
   <g id="patch_5">
    <path d="M 38.125311 273.312 
L 395.245311 273.312 
" style="fill:none;stroke:#000000;stroke-linecap:square;stroke-linejoin:miter;stroke-width:0.8;"/>
   </g>
   <g id="patch_6">
    <path d="M 38.125311 7.2 
L 395.245311 7.2 
" style="fill:none;stroke:#000000;stroke-linecap:square;stroke-linejoin:miter;stroke-width:0.8;"/>
   </g>
   <g id="legend_1">
    <g id="patch_7">
     <path d="M 262.374912 268.312 
L 388.245311 268.312 
Q 390.245311 268.312 390.245311 266.312 
L 390.245311 211.563287 
Q 390.245311 209.563287 388.245311 209.563287 
L 262.374912 209.563287 
Q 260.374912 209.563287 260.374912 211.563287 
L 260.374912 266.312 
Q 260.374912 268.312 262.374912 268.312 
z
" style="fill:#ffffff;opacity:0.8;stroke:#cccccc;stroke-linejoin:miter;"/>
    </g>
    <g id="line2d_21">
     <path d="M 264.374912 217.063287 
L 284.374912 217.063287 
" style="fill:none;stroke:#00ffff;stroke-dasharray:1,1.65;stroke-dashoffset:0;"/>
    </g>
    <g id="line2d_22"/>
    <g id="text_15">
     <!-- Sim. sol. channel 1 -->
     <defs>
      <path d="M 43.796875 67.03125 
C 43.796875 68.8125 43.703125 68.921875 43.09375 68.921875 
C 42.5 68.921875 42.296875 68.515625 41.90625 67.625 
L 38.90625 61.046875 
C 35.09375 66.515625 29.296875 69 23 69 
C 12.796875 69 4.59375 60.953125 4.59375 50.828125 
C 4.59375 47.75 5.296875 43.375 8.703125 39.21875 
C 12.40625 34.65625 15.90625 33.859375 23.90625 31.765625 
C 26.90625 30.96875 31.90625 29.671875 32.90625 29.28125 
C 38.59375 26.90625 41.59375 20.953125 41.59375 15.390625 
C 41.59375 8.234375 36.5 0.59375 27.796875 0.59375 
C 17.09375 0.59375 7.09375 6.546875 6.40625 20.484375 
C 6.296875 22.078125 6.203125 22.171875 5.5 22.171875 
C 4.703125 22.171875 4.59375 22.078125 4.59375 20.078125 
L 4.59375 -0.015625 
C 4.59375 -1.796875 4.703125 -1.90625 5.296875 -1.90625 
C 6 -1.90625 6.203125 -1.40625 7.59375 1.6875 
C 7.703125 1.984375 7.703125 2.1875 9.59375 5.953125 
C 14.59375 -0.609375 23 -2 27.796875 -2 
C 38.703125 -2 46.40625 7.046875 46.40625 17.5625 
C 46.40625 22.71875 44.5 26.6875 43.40625 28.484375 
C 39.203125 34.84375 34.703125 36.03125 29.90625 37.21875 
C 29.203125 37.53125 29 37.53125 23.40625 38.90625 
C 18 40.296875 15.703125 41 13.203125 43.6875 
C 10.40625 46.75 9.40625 49.9375 9.40625 53.109375 
C 9.40625 59.5625 14.59375 66.609375 23.09375 66.609375 
C 33.703125 66.609375 40.296875 59.15625 41.796875 46.765625 
C 42.09375 44.96875 42.203125 44.875 42.90625 44.875 
C 43.796875 44.875 43.796875 45.171875 43.796875 46.859375 
z
" id="CMR17-83"/>
      <path d="M 15.5 61.078125 
C 15.5 63.265625 13.703125 65.15625 11.40625 65.15625 
C 9.203125 65.15625 7.296875 63.375 7.296875 61.078125 
C 7.296875 58.890625 9.09375 57 11.40625 57 
C 13.59375 57 15.5 58.796875 15.5 61.078125 
z
M 3.796875 42.28125 
L 3.796875 39.703125 
C 9.40625 39.703125 10.203125 39.09375 10.203125 34.328125 
L 10.203125 6.671875 
C 10.203125 2.875 9.796875 2.390625 3.40625 2.390625 
L 3.40625 -0.203125 
C 5.796875 0 10.09375 0 12.59375 0 
C 15 0 19.09375 0 21.40625 -0.203125 
L 21.40625 2.390625 
C 15.5 2.390625 15.296875 2.984375 15.296875 6.5625 
L 15.296875 43.375 
z
" id="CMR17-105"/>
      <path d="M 67.59375 30.203125 
C 67.59375 35.1875 66.703125 43.59375 54.796875 43.59375 
C 48 43.59375 43.296875 39 41.5 33.609375 
L 41.40625 33.609375 
C 40.203125 41.8125 34.296875 43.59375 28.703125 43.59375 
C 20.796875 43.59375 16.703125 37.5 15.203125 33.5 
L 15.09375 33.5 
L 15.09375 43.59375 
L 3.296875 42.5 
L 3.296875 39.90625 
C 9.203125 39.90625 10.09375 39.296875 10.09375 34.5 
L 10.09375 6.6875 
C 10.09375 2.875 9.703125 2.390625 3.296875 2.390625 
L 3.296875 -0.203125 
C 5.703125 0 10.09375 0 12.703125 0 
C 15.296875 0 19.796875 0 22.203125 -0.203125 
L 22.203125 2.390625 
C 15.796875 2.390625 15.40625 2.78125 15.40625 6.6875 
L 15.40625 25.90625 
C 15.40625 35.109375 21 42 28 42 
C 35.40625 42 36.203125 35.40625 36.203125 30.59375 
L 36.203125 6.6875 
C 36.203125 2.875 35.796875 2.390625 29.40625 2.390625 
L 29.40625 -0.203125 
C 31.796875 0 36.203125 0 38.796875 0 
C 41.40625 0 45.90625 0 48.296875 -0.203125 
L 48.296875 2.390625 
C 41.90625 2.390625 41.5 2.78125 41.5 6.6875 
L 41.5 25.90625 
C 41.5 35.109375 47.09375 42 54.09375 42 
C 61.5 42 62.296875 35.40625 62.296875 30.59375 
L 62.296875 6.6875 
C 62.296875 2.875 61.90625 2.390625 55.5 2.390625 
L 55.5 -0.203125 
C 57.90625 0 62.296875 0 64.90625 0 
C 67.5 0 72 0 74.40625 -0.203125 
L 74.40625 2.390625 
C 68 2.390625 67.59375 2.78125 67.59375 6.6875 
z
" id="CMR17-109"/>
      <path d="M 30.90625 42.140625 
C 30.90625 43.953125 30.796875 44.046875 30.203125 44.046875 
C 29.796875 44.046875 29.703125 43.953125 28.5 42.453125 
C 28.203125 42.046875 27.296875 41.03125 27 40.640625 
C 23.796875 44.046875 19.296875 44.046875 17.59375 44.046875 
C 6.5 44.046875 2.5 38.234375 2.5 32.4375 
C 2.5 23.40625 12.703125 21.328125 15.59375 20.703125 
C 21.90625 19.421875 24.09375 19.015625 26.203125 17.203125 
C 27.5 16.015625 29.703125 13.8125 29.703125 10.21875 
C 29.703125 6 27.296875 0.59375 18.09375 0.59375 
C 9.40625 0.59375 6.296875 7.1875 4.5 15.953125 
C 4.203125 17.34375 4.203125 17.453125 3.40625 17.453125 
C 2.59375 17.453125 2.5 17.34375 2.5 15.359375 
L 2.5 0.984375 
C 2.5 -0.796875 2.59375 -0.90625 3.203125 -0.90625 
C 3.703125 -0.90625 3.796875 -0.796875 4.296875 0 
C 4.90625 0.890625 6.40625 3.296875 7 4.3125 
C 9 1.609375 12.5 -1 18.09375 -1 
C 28 -1 33.296875 4.421875 33.296875 12.25 
C 33.296875 17.375 30.59375 20.078125 29.296875 21.28125 
C 26.296875 24.390625 22.796875 25.09375 18.59375 25.890625 
C 13.09375 27.109375 6.09375 28.515625 6.09375 34.640625 
C 6.09375 37.234375 7.5 42.765625 17.59375 42.765625 
C 28.296875 42.765625 28.90625 32.71875 29.09375 29.5 
C 29.203125 29 29.703125 28.890625 30 28.890625 
C 30.90625 28.890625 30.90625 29.203125 30.90625 30.90625 
z
" id="CMR17-115"/>
      <path d="M 43.09375 21.1875 
C 43.09375 34 33.796875 44 22.90625 44 
C 12 44 2.703125 34 2.703125 21.1875 
C 2.703125 8.609375 12 -1 22.90625 -1 
C 33.796875 -1 43.09375 8.609375 43.09375 21.1875 
z
M 22.90625 0.796875 
C 18.203125 0.796875 14.203125 3.59375 11.90625 7.5 
C 9.40625 11.984375 9.09375 17.59375 9.09375 22 
C 9.09375 26.203125 9.296875 31.40625 11.90625 35.90625 
C 13.90625 39.203125 17.796875 42.40625 22.90625 42.40625 
C 27.40625 42.40625 31.203125 39.90625 33.59375 36.40625 
C 36.703125 31.703125 36.703125 25.109375 36.703125 22 
C 36.703125 18.09375 36.5 12.109375 33.796875 7.296875 
C 31 2.703125 26.703125 0.796875 22.90625 0.796875 
z
" id="CMR17-111"/>
      <path d="M 15.296875 68.6875 
L 3.40625 67.59375 
L 3.40625 65 
C 9.296875 65 10.203125 64.40625 10.203125 59.640625 
L 10.203125 6.65625 
C 10.203125 2.875 9.796875 2.390625 3.40625 2.390625 
L 3.40625 -0.203125 
C 5.796875 0 10.203125 0 12.703125 0 
C 15.296875 0 19.703125 0 22.09375 -0.203125 
L 22.09375 2.390625 
C 15.703125 2.390625 15.296875 2.78125 15.296875 6.65625 
z
" id="CMR17-108"/>
      <path d="M 34.90625 35 
C 33 35 30.203125 35 30.203125 31.515625 
C 30.203125 28.71875 32.5 27.921875 33.796875 27.921875 
C 34.5 27.921875 37.40625 28.234375 37.40625 31.625 
C 37.40625 38.546875 30.59375 43.796875 22.90625 43.796875 
C 12.296875 43.796875 3.296875 34.03125 3.296875 21.296875 
C 3.296875 8.0625 12.703125 -1 22.90625 -1 
C 35.296875 -1 38.40625 10.578125 38.40625 11.6875 
C 38.40625 12.09375 38.296875 12.390625 37.59375 12.390625 
C 36.90625 12.390625 36.796875 12.296875 36.40625 10.984375 
C 33.796875 2.8125 28.09375 0.796875 23.796875 0.796875 
C 17.40625 0.796875 9.703125 6.671875 9.703125 21.390625 
C 9.703125 36.53125 17.09375 42 23 42 
C 26.90625 42 32.703125 40.203125 34.90625 35 
z
" id="CMR17-99"/>
      <path d="M 41.5 30.203125 
C 41.5 35.296875 40.5 43.59375 28.703125 43.59375 
C 20.5 43.59375 16.5 37 15.296875 33.703125 
L 15.203125 33.703125 
L 15.203125 68.6875 
L 3.296875 67.59375 
L 3.296875 65 
C 9.203125 65 10.09375 64.40625 10.09375 59.640625 
L 10.09375 6.65625 
C 10.09375 2.875 9.703125 2.390625 3.296875 2.390625 
L 3.296875 -0.203125 
C 5.703125 0 10.09375 0 12.703125 0 
C 15.296875 0 19.796875 0 22.203125 -0.203125 
L 22.203125 2.390625 
C 15.796875 2.390625 15.40625 2.78125 15.40625 6.6875 
L 15.40625 25.90625 
C 15.40625 35.109375 21 42 28 42 
C 35.40625 42 36.203125 35.40625 36.203125 30.59375 
L 36.203125 6.6875 
C 36.203125 2.875 35.796875 2.390625 29.40625 2.390625 
L 29.40625 -0.203125 
C 31.796875 0 36.203125 0 38.796875 0 
C 41.40625 0 45.90625 0 48.296875 -0.203125 
L 48.296875 2.390625 
C 41.90625 2.390625 41.5 2.78125 41.5 6.6875 
z
" id="CMR17-104"/>
      <path d="M 36 25.828125 
C 36 32.375 36 35.84375 31.796875 39.734375 
C 28.09375 43 23.796875 44 20.40625 44 
C 12.5 44 6.796875 37.609375 6.796875 30.796875 
C 6.796875 27 9.796875 27 10.40625 27 
C 11.703125 27 14 27.78125 14 30.53125 
C 14 33 12.09375 34.078125 10.40625 34.078125 
C 10 34.078125 9.5 33.96875 9.203125 33.875 
C 11.296875 40.5 16.703125 42.40625 20.203125 42.40625 
C 25.203125 42.40625 30.703125 37.953125 30.703125 29.453125 
L 30.703125 25 
C 24.796875 25 17.703125 24.203125 12.09375 21.203125 
C 5.796875 17.703125 4 12.703125 4 8.90625 
C 4 1.203125 13 -1 18.296875 -1 
C 23.796875 -1 28.90625 2.171875 31.09375 7.984375 
C 31.296875 3.640625 34.09375 -0.28125 38.5 -0.28125 
C 40.59375 -0.28125 45.90625 1.09375 45.90625 8.859375 
L 45.90625 14.375 
L 44.09375 14.375 
L 44.09375 8.78125 
C 44.09375 2.78125 41.40625 2 40.09375 2 
C 36 2 36 7.15625 36 11.53125 
z
M 30.703125 13.59375 
C 30.703125 4.953125 24.5 0.59375 19 0.59375 
C 14 0.59375 10.09375 4.296875 10.09375 8.90625 
C 10.09375 11.890625 11.40625 17.1875 17.203125 20.390625 
C 22 23.09375 27.5 23.5 30.703125 23.5 
z
" id="CMR17-97"/>
      <path d="M 41.5 30.203125 
C 41.5 35.296875 40.5 43.59375 28.703125 43.59375 
C 20.796875 43.59375 16.703125 37.5 15.203125 33.5 
L 15.09375 33.5 
L 15.09375 43.59375 
L 3.296875 42.5 
L 3.296875 39.90625 
C 9.203125 39.90625 10.09375 39.296875 10.09375 34.5 
L 10.09375 6.6875 
C 10.09375 2.875 9.703125 2.390625 3.296875 2.390625 
L 3.296875 -0.203125 
C 5.703125 0 10.09375 0 12.703125 0 
C 15.296875 0 19.796875 0 22.203125 -0.203125 
L 22.203125 2.390625 
C 15.796875 2.390625 15.40625 2.78125 15.40625 6.6875 
L 15.40625 25.90625 
C 15.40625 35.109375 21 42 28 42 
C 35.40625 42 36.203125 35.40625 36.203125 30.59375 
L 36.203125 6.6875 
C 36.203125 2.875 35.796875 2.390625 29.40625 2.390625 
L 29.40625 -0.203125 
C 31.796875 0 36.203125 0 38.796875 0 
C 41.40625 0 45.90625 0 48.296875 -0.203125 
L 48.296875 2.390625 
C 41.90625 2.390625 41.5 2.78125 41.5 6.6875 
z
" id="CMR17-110"/>
      <path d="M 38.09375 23 
C 38.5 23.40625 38.5 23.609375 38.5 24.625 
C 38.5 34.96875 33.09375 44 21.703125 44 
C 11.09375 44 2.703125 33.890625 2.703125 21.609375 
C 2.703125 8.609375 12.203125 -1 22.796875 -1 
C 34 -1 38.40625 9.484375 38.40625 11.5625 
C 38.40625 12.25 37.796875 12.25 37.59375 12.25 
C 36.90625 12.25 36.796875 12.046875 36.40625 10.875 
C 34.203125 4.140625 28.703125 0.796875 23.5 0.796875 
C 19.203125 0.796875 14.90625 3.171875 12.203125 7.5 
C 9.09375 12.546875 9.09375 18.375 9.09375 23 
z
M 9.203125 24.5 
C 9.90625 39.140625 17.59375 42.40625 21.59375 42.40625 
C 28.40625 42.40625 33 35.890625 33.09375 24.5 
z
" id="CMR17-101"/>
     </defs>
     <g transform="translate(292.374912 220.563287)scale(0.1 -0.1)">
      <use transform="scale(0.996264)" xlink:href="#CMR17-83"/>
      <use transform="translate(50.89537 0)scale(0.996264)" xlink:href="#CMR17-105"/>
      <use transform="translate(75.766428 0)scale(0.996264)" xlink:href="#CMR17-109"/>
      <use transform="translate(152.686018 0)scale(0.996264)" xlink:href="#CMR17-46"/>
      <use transform="translate(218.042737 0)scale(0.996264)" xlink:href="#CMR17-115"/>
      <use transform="translate(253.844075 0)scale(0.996264)" xlink:href="#CMR17-111"/>
      <use transform="translate(299.534552 0)scale(0.996264)" xlink:href="#CMR17-108"/>
      <use transform="translate(324.40561 0)scale(0.996264)" xlink:href="#CMR17-46"/>
      <use transform="translate(389.762329 0)scale(0.996264)" xlink:href="#CMR17-99"/>
      <use transform="translate(427.645536 0)scale(0.996264)" xlink:href="#CMR17-104"/>
      <use transform="translate(478.540906 0)scale(0.996264)" xlink:href="#CMR17-97"/>
      <use transform="translate(524.231383 0)scale(0.996264)" xlink:href="#CMR17-110"/>
      <use transform="translate(575.126752 0)scale(0.996264)" xlink:href="#CMR17-110"/>
      <use transform="translate(626.022122 0)scale(0.996264)" xlink:href="#CMR17-101"/>
      <use transform="translate(666.507783 0)scale(0.996264)" xlink:href="#CMR17-108"/>
      <use transform="translate(721.454808 0)scale(0.996264)" xlink:href="#CMR17-49"/>
     </g>
    </g>
    <g id="line2d_23">
     <path d="M 264.374912 231.000465 
L 284.374912 231.000465 
" style="fill:none;stroke:#ff0000;stroke-dasharray:5.55,2.4;stroke-dashoffset:0;stroke-width:1.5;"/>
    </g>
    <g id="line2d_24"/>
    <g id="text_16">
     <!-- Analyt. sol. -->
     <defs>
      <path d="M 36.296875 68.40625 
C 35.796875 69.703125 35.59375 70 34.59375 70 
C 33.59375 70 33.40625 69.703125 32.90625 68.40625 
L 11.703125 8.84375 
C 9.796875 3.484375 5.796875 2.390625 2.296875 2.390625 
L 2.296875 -0.203125 
C 4.09375 0 8.09375 0 10 0 
C 12.5 0 16.5 0 18.90625 -0.203125 
L 18.90625 2.390625 
C 14.203125 2.390625 13.5 5.640625 13.5 6.859375 
C 13.5 7.765625 13.703125 8.28125 13.90625 8.890625 
L 19.203125 24 
L 45.40625 24 
L 51.40625 6.90625 
C 51.90625 5.703125 51.90625 5.5 51.90625 5.109375 
C 51.90625 2.390625 47.59375 2.390625 45.703125 2.390625 
L 45.703125 0 
C 48.59375 0 53.796875 0 56.90625 0 
C 59.5 0 64.5 0 66.90625 -0.203125 
L 66.90625 2.390625 
C 61.59375 2.390625 59.796875 2.390625 58.5 6.046875 
z
M 32.296875 60.828125 
L 44.5 26.59375 
L 20.09375 26.59375 
z
" id="CMR17-65"/>
      <path d="M 39 34.328125 
C 41.5 40.40625 46 40.40625 47.40625 40.40625 
L 47.40625 43 
C 45.5 43 43 43 41.09375 43 
C 39 43 35.703125 43 33.703125 43.09375 
L 33.703125 40.5 
C 37.5 40.203125 37.59375 37.40625 37.59375 36.609375 
C 37.59375 35.625 37.40625 35.125 36.90625 33.921875 
L 26 7.015625 
L 14.09375 36.03125 
C 13.59375 37.21875 13.59375 37.90625 13.59375 38.015625 
C 13.59375 40.203125 15.90625 40.40625 18.296875 40.40625 
L 18.296875 43.09375 
C 15.90625 43 11.59375 43 9.09375 43 
C 6.40625 43 3.203125 43 1 43.09375 
L 1 40.40625 
C 6.40625 40.40625 7 39.90625 8.296875 36.71875 
L 23.203125 0.234375 
C 18.703125 -11.53125 16.09375 -18.40625 9.796875 -18.40625 
C 8.703125 -18.40625 6.203125 -18.109375 4.40625 -16.3125 
C 6.703125 -16.109375 7.703125 -14.71875 7.703125 -13.015625 
C 7.703125 -11.328125 6.5 -9.828125 4.5 -9.828125 
C 2.296875 -9.828125 1.203125 -11.328125 1.203125 -13.125 
C 1.203125 -17.109375 5.296875 -20 9.796875 -20 
C 15.59375 -20 19.203125 -14.40625 21.203125 -9.4375 
z
" id="CMR17-121"/>
      <path d="M 15.09375 40 
L 29.09375 40 
L 29.09375 42.578125 
L 15.09375 42.578125 
L 15.09375 61 
L 13.296875 61 
C 13.09375 50.703125 9.59375 41.6875 1.09375 41.6875 
L 1.09375 40 
L 9.796875 40 
L 9.796875 12.046875 
C 9.796875 10.15625 9.796875 -1 21.40625 -1 
C 27.296875 -1 30.703125 4.78125 30.703125 12.140625 
L 30.703125 17.8125 
L 28.90625 17.8125 
L 28.90625 12.234375 
C 28.90625 5.375 26.203125 0.796875 22 0.796875 
C 19.09375 0.796875 15.09375 2.78125 15.09375 11.84375 
z
" id="CMR17-116"/>
     </defs>
     <g transform="translate(292.374912 234.500465)scale(0.1 -0.1)">
      <use transform="scale(0.996264)" xlink:href="#CMR17-65"/>
      <use transform="translate(69.07243 0)scale(0.996264)" xlink:href="#CMR17-110"/>
      <use transform="translate(119.9678 0)scale(0.996264)" xlink:href="#CMR17-97"/>
      <use transform="translate(165.658277 0)scale(0.996264)" xlink:href="#CMR17-108"/>
      <use transform="translate(190.529335 0)scale(0.996264)" xlink:href="#CMR17-121"/>
      <use transform="translate(238.822251 0)scale(0.996264)" xlink:href="#CMR17-116"/>
      <use transform="translate(274.103019 0)scale(0.996264)" xlink:href="#CMR17-46"/>
      <use transform="translate(339.459738 0)scale(0.996264)" xlink:href="#CMR17-115"/>
      <use transform="translate(375.261075 0)scale(0.996264)" xlink:href="#CMR17-111"/>
      <use transform="translate(420.951553 0)scale(0.996264)" xlink:href="#CMR17-108"/>
      <use transform="translate(445.822611 0)scale(0.996264)" xlink:href="#CMR17-46"/>
     </g>
    </g>
    <g id="line2d_25">
     <path d="M 264.374912 244.937643 
L 284.374912 244.937643 
" style="fill:none;stroke:#008000;stroke-linecap:square;stroke-width:1.5;"/>
    </g>
    <g id="line2d_26"/>
    <g id="text_17">
     <!-- Rigid wall -->
     <defs>
      <path d="M 39.203125 33.53125 
C 48.703125 35.4375 56.703125 41.8125 56.703125 49.78125 
C 56.703125 59.140625 46.09375 67.59375 32.09375 67.59375 
L 5.203125 67.59375 
L 5.203125 65 
C 12.09375 65 13.203125 65 13.203125 60.515625 
L 13.203125 6.484375 
C 13.203125 2 12.09375 2 5.203125 2 
L 5.203125 -0.40625 
C 8.09375 -0.40625 13.296875 -0.40625 16.40625 -0.40625 
C 19.5 -0.40625 24.703125 -0.40625 27.59375 -0.40625 
L 27.59375 2 
C 20.703125 2 19.59375 2 19.59375 6.515625 
L 19.59375 33 
L 31.296875 33 
C 37 33 40.203125 30.6875 41.59375 29.390625 
C 45.59375 25.5 45.59375 22.796875 45.59375 16 
C 45.59375 9.296875 45.59375 5.890625 48.59375 2.5 
C 52.40625 -1.59375 57.5 -2 59.703125 -2 
C 67.09375 -2 68.203125 6.1875 68.203125 7.859375 
C 68.203125 8.4375 68.203125 9.140625 67.296875 9.140625 
C 66.5 9.140625 66.40625 8.546875 66.40625 8.15625 
C 65.90625 1.75 63 -0.40625 59.90625 -0.40625 
C 54.40625 -0.40625 53.796875 5.859375 53.203125 11.9375 
C 52.90625 14.03125 52.703125 15.515625 52.5 17.703125 
C 51.90625 22.6875 51.09375 29.953125 39.203125 33.53125 
z
M 31 34.59375 
L 19.59375 34.59375 
L 19.59375 61.140625 
C 19.59375 64.515625 19.796875 65 23.796875 65 
L 31.09375 65 
C 39.40625 65 49.09375 62.140625 49.09375 49.84375 
C 49.09375 37.0625 38.5 34.59375 31 34.59375 
z
" id="CMR17-82"/>
      <path d="M 11.09375 18.1875 
C 13 16.6875 16.296875 15 20.296875 15 
C 28.203125 15 35 21.203125 35 29.5 
C 35 32.09375 34.203125 36.09375 31.203125 39.203125 
C 34 42.0625 38.09375 43 40.40625 43 
C 40.796875 43 41.40625 43 41.90625 42.71875 
C 41.5 42.625 40.59375 42.234375 40.59375 40.703125 
C 40.59375 39.484375 41.5 38.609375 42.796875 38.609375 
C 44.296875 38.609375 45.09375 39.578125 45.09375 40.84375 
C 45.09375 42.671875 43.59375 44.59375 40.40625 44.59375 
C 36.40625 44.59375 32.90625 42.78125 30.09375 40.3125 
C 27.09375 43.015625 23.5 44 20.296875 44 
C 12.40625 44 5.59375 37.796875 5.59375 29.5 
C 5.59375 23.78125 8.90625 20.1875 9.90625 19.1875 
C 6.90625 15.6875 6.90625 11.609375 6.90625 11.109375 
C 6.90625 8.515625 7.90625 4.71875 11.296875 2.625 
C 6.09375 1.328125 2 -2.640625 2 -7.59375 
C 2 -14.734375 11.5 -20 22.90625 -20 
C 33.90625 -20 43.796875 -14.9375 43.796875 -7.484375 
C 43.796875 6 29 6 21.296875 6 
C 19 6 14.90625 6 14.40625 6.109375 
C 11.296875 6.609375 9.203125 9.40625 9.203125 12.90625 
C 9.203125 13.796875 9.203125 16 11.09375 18.1875 
z
M 20.296875 16.6875 
C 11.5 16.6875 11.5 27.5 11.5 29.515625 
C 11.5 31.5 11.5 42.3125 20.296875 42.3125 
C 29.09375 42.3125 29.09375 31.5 29.09375 29.515625 
C 29.09375 27.5 29.09375 16.6875 20.296875 16.6875 
z
M 22.90625 -18.296875 
C 12.90625 -18.296875 6 -13.046875 6 -7.59375 
C 6 -4.515625 7.703125 -1.640625 9.90625 -0.0625 
C 12.40625 1.625 13.40625 1.625 20.203125 1.625 
C 28.40625 1.625 39.796875 1.625 39.796875 -7.59375 
C 39.796875 -13.046875 32.90625 -18.296875 22.90625 -18.296875 
z
" id="CMR17-103"/>
      <path d="M 29.203125 67.59375 
L 29.203125 65 
C 35.09375 65 36 64.40625 36 59.6875 
L 36 36.640625 
C 35.59375 37.140625 31.5 43.59375 23.40625 43.59375 
C 13.203125 43.59375 3.296875 34.5 3.296875 21.3125 
C 3.296875 8.203125 12.59375 -1 22.40625 -1 
C 30.90625 -1 35.296875 5.265625 35.796875 5.9375 
L 35.796875 -0.984375 
L 47.90625 -0.984375 
L 47.90625 2 
C 42 2 41.09375 2.59375 41.09375 7.390625 
L 41.09375 68.6875 
z
M 35.796875 11.796875 
C 35.796875 8.796875 34 6.09375 31.703125 4.09375 
C 28.296875 1.09375 24.90625 0.59375 23 0.59375 
C 20.09375 0.59375 9.703125 2.09375 9.703125 21.1875 
C 9.703125 40.8125 21.296875 42 23.90625 42 
C 28.5 42 32.203125 39.40625 34.5 35.796875 
C 35.796875 33.703125 35.796875 33.40625 35.796875 31.609375 
z
" id="CMR17-100"/>
      <path d="M 58.203125 34.109375 
C 60.203125 40 64.203125 40 65.703125 40 
L 65.703125 42.6875 
C 63.703125 42.6875 61.703125 42.6875 59.703125 42.6875 
C 57.796875 42.6875 53.5 42.6875 51.796875 42.78125 
L 51.796875 40 
C 54.90625 40 56.59375 38.203125 56.59375 35.71875 
C 56.59375 35.015625 56.40625 34.125 56.203125 33.4375 
L 46.796875 6.359375 
L 36.59375 35.546875 
C 36.40625 36.234375 36.09375 37.03125 36.09375 37.421875 
C 36.09375 40 39.5 40 41.09375 40 
L 41.09375 42.78125 
C 38.796875 42.6875 34.59375 42.6875 32.203125 42.6875 
C 29.703125 42.6875 27.09375 42.6875 24.796875 42.78125 
L 24.796875 40 
C 30.296875 40 30.296875 39.796875 32.40625 33.578125 
L 23.203125 7.046875 
L 13.296875 35.640625 
C 12.796875 36.921875 12.796875 37.125 12.796875 37.421875 
C 12.796875 40 16.203125 40 17.796875 40 
L 17.796875 42.78125 
C 15.40625 42.6875 11.203125 42.6875 8.703125 42.6875 
C 6.5 42.6875 3.09375 42.6875 1 42.78125 
L 1 40 
C 5.40625 40 6.5 39.703125 7.59375 36.421875 
L 19.90625 0.765625 
C 20.296875 -0.515625 20.59375 -0.8125 21.40625 -0.8125 
C 22.09375 -0.8125 22.5 -0.609375 23 0.875 
L 33.296875 30.9375 
L 43.703125 0.875 
C 44.203125 -0.609375 44.59375 -0.8125 45.296875 -0.8125 
C 46.09375 -0.8125 46.40625 -0.515625 46.796875 0.78125 
z
" id="CMR17-119"/>
     </defs>
     <g transform="translate(292.374912 248.437643)scale(0.1 -0.1)">
      <use transform="scale(0.996264)" xlink:href="#CMR17-82"/>
      <use transform="translate(67.791102 0)scale(0.996264)" xlink:href="#CMR17-105"/>
      <use transform="translate(92.66216 0)scale(0.996264)" xlink:href="#CMR17-103"/>
      <use transform="translate(138.352638 0)scale(0.996264)" xlink:href="#CMR17-105"/>
      <use transform="translate(163.223696 0)scale(0.996264)" xlink:href="#CMR17-100"/>
      <use transform="translate(244.195032 0)scale(0.996264)" xlink:href="#CMR17-119"/>
      <use transform="translate(308.102459 0)scale(0.996264)" xlink:href="#CMR17-97"/>
      <use transform="translate(353.792936 0)scale(0.996264)" xlink:href="#CMR17-108"/>
      <use transform="translate(378.663994 0)scale(0.996264)" xlink:href="#CMR17-108"/>
     </g>
    </g>
    <g id="line2d_27">
     <path d="M 264.374912 258.874822 
L 284.374912 258.874822 
" style="fill:none;stroke:#0000ff;stroke-dasharray:6.4,1.6,1,1.6;stroke-dashoffset:0;"/>
    </g>
    <g id="line2d_28"/>
    <g id="text_18">
     <!-- Sim. sol. channel 100 -->
     <g transform="translate(292.374912 262.374822)scale(0.1 -0.1)">
      <use transform="scale(0.996264)" xlink:href="#CMR17-83"/>
      <use transform="translate(50.89537 0)scale(0.996264)" xlink:href="#CMR17-105"/>
      <use transform="translate(75.766428 0)scale(0.996264)" xlink:href="#CMR17-109"/>
      <use transform="translate(152.686018 0)scale(0.996264)" xlink:href="#CMR17-46"/>
      <use transform="translate(218.042737 0)scale(0.996264)" xlink:href="#CMR17-115"/>
      <use transform="translate(253.844075 0)scale(0.996264)" xlink:href="#CMR17-111"/>
      <use transform="translate(299.534552 0)scale(0.996264)" xlink:href="#CMR17-108"/>
      <use transform="translate(324.40561 0)scale(0.996264)" xlink:href="#CMR17-46"/>
      <use transform="translate(389.762329 0)scale(0.996264)" xlink:href="#CMR17-99"/>
      <use transform="translate(427.645536 0)scale(0.996264)" xlink:href="#CMR17-104"/>
      <use transform="translate(478.540906 0)scale(0.996264)" xlink:href="#CMR17-97"/>
      <use transform="translate(524.231383 0)scale(0.996264)" xlink:href="#CMR17-110"/>
      <use transform="translate(575.126752 0)scale(0.996264)" xlink:href="#CMR17-110"/>
      <use transform="translate(626.022122 0)scale(0.996264)" xlink:href="#CMR17-101"/>
      <use transform="translate(666.507783 0)scale(0.996264)" xlink:href="#CMR17-108"/>
      <use transform="translate(721.454808 0)scale(0.996264)" xlink:href="#CMR17-49"/>
      <use transform="translate(767.145285 0)scale(0.996264)" xlink:href="#CMR17-48"/>
      <use transform="translate(812.835762 0)scale(0.996264)" xlink:href="#CMR17-48"/>
     </g>
    </g>
   </g>
  </g>
 </g>
 <defs>
  <clipPath id="p67d756dc7c">
   <rect height="266.112" width="357.12" x="38.125311" y="7.2"/>
  </clipPath>
 </defs>
</svg>
