<?xml version="1.0" encoding="utf-8" standalone="no"?>
<!DOCTYPE svg PUBLIC "-//W3C//DTD SVG 1.1//EN"
  "http://www.w3.org/Graphics/SVG/1.1/DTD/svg11.dtd">
<!-- Created with matplotlib (https://matplotlib.org/) -->
<svg height="311.275168pt" version="1.1" viewBox="0 0 401.338347 311.275168" width="401.338347pt" xmlns="http://www.w3.org/2000/svg" xmlns:xlink="http://www.w3.org/1999/xlink">
 <defs>
  <style type="text/css">
*{stroke-linecap:butt;stroke-linejoin:round;}
  </style>
 </defs>
 <g id="figure_1">
  <g id="patch_1">
   <path d="M 0 311.275168 
L 401.338347 311.275168 
L 401.338347 0 
L 0 0 
z
" style="fill:#ffffff;"/>
  </g>
  <g id="axes_1">
   <g id="patch_2">
    <path d="M 37.018347 273.312 
L 394.138347 273.312 
L 394.138347 7.2 
L 37.018347 7.2 
z
" style="fill:#ffffff;"/>
   </g>
   <g id="Quiver_1">
    <path clip-path="url(#p88e38d554e)" d="M 53.251074 256.7376 
L 67.356264 256.7376 
L 66.909864 255.8448 
L 71.373864 257.184 
L 66.909864 258.5232 
L 67.356264 257.6304 
L 53.251074 257.6304 
L 53.251074 256.7376 
" style="fill:#0000ff;"/>
   </g>
   <g id="Quiver_2">
    <path clip-path="url(#p88e38d554e)" d="M 53.251074 248.6736 
L 102.232409 248.6736 
L 101.786009 247.7808 
L 106.250009 249.12 
L 101.786009 250.4592 
L 102.232409 249.5664 
L 53.251074 249.5664 
L 53.251074 248.6736 
" style="fill:#0000ff;"/>
   </g>
   <g id="Quiver_3">
    <path clip-path="url(#p88e38d554e)" d="M 53.251074 240.6096 
L 134.505018 240.6096 
L 134.058618 239.7168 
L 138.522618 241.056 
L 134.058618 242.3952 
L 134.505018 241.5024 
L 53.251074 241.5024 
L 53.251074 240.6096 
" style="fill:#0000ff;"/>
   </g>
   <g id="Quiver_4">
    <path clip-path="url(#p88e38d554e)" d="M 53.251074 232.5456 
L 164.194099 232.5456 
L 163.747699 231.6528 
L 168.211699 232.992 
L 163.747699 234.3312 
L 164.194099 233.4384 
L 53.251074 233.4384 
L 53.251074 232.5456 
" style="fill:#0000ff;"/>
   </g>
   <g id="Quiver_5">
    <path clip-path="url(#p88e38d554e)" d="M 53.251074 224.4816 
L 191.32277 224.4816 
L 190.87637 223.5888 
L 195.34037 224.928 
L 190.87637 226.2672 
L 191.32277 225.3744 
L 53.251074 225.3744 
L 53.251074 224.4816 
" style="fill:#0000ff;"/>
   </g>
   <g id="Quiver_6">
    <path clip-path="url(#p88e38d554e)" d="M 53.251074 216.4176 
L 215.914129 216.4176 
L 215.467729 215.5248 
L 219.931729 216.864 
L 215.467729 218.2032 
L 215.914129 217.3104 
L 53.251074 217.3104 
L 53.251074 216.4176 
" style="fill:#0000ff;"/>
   </g>
   <g id="Quiver_7">
    <path clip-path="url(#p88e38d554e)" d="M 53.251074 208.3536 
L 237.989561 208.3536 
L 237.543161 207.4608 
L 242.007161 208.8 
L 237.543161 210.1392 
L 237.989561 209.2464 
L 53.251074 209.2464 
L 53.251074 208.3536 
" style="fill:#0000ff;"/>
   </g>
   <g id="Quiver_8">
    <path clip-path="url(#p88e38d554e)" d="M 53.251074 200.2896 
L 257.567965 200.2896 
L 257.121565 199.3968 
L 261.585565 200.736 
L 257.121565 202.0752 
L 257.567965 201.1824 
L 53.251074 201.1824 
L 53.251074 200.2896 
" style="fill:#0000ff;"/>
   </g>
   <g id="Quiver_9">
    <path clip-path="url(#p88e38d554e)" d="M 53.251074 192.2256 
L 274.665604 192.2256 
L 274.219204 191.3328 
L 278.683204 192.672 
L 274.219204 194.0112 
L 274.665604 193.1184 
L 53.251074 193.1184 
L 53.251074 192.2256 
" style="fill:#0000ff;"/>
   </g>
   <g id="Quiver_10">
    <path clip-path="url(#p88e38d554e)" d="M 53.251074 184.1616 
L 289.296226 184.1616 
L 288.849826 183.2688 
L 293.313826 184.608 
L 288.849826 185.9472 
L 289.296226 185.0544 
L 53.251074 185.0544 
L 53.251074 184.1616 
" style="fill:#0000ff;"/>
   </g>
   <g id="Quiver_11">
    <path clip-path="url(#p88e38d554e)" d="M 53.251074 176.0976 
L 301.471298 176.0976 
L 301.024898 175.2048 
L 305.488898 176.544 
L 301.024898 177.8832 
L 301.471298 176.9904 
L 53.251074 176.9904 
L 53.251074 176.0976 
" style="fill:#0000ff;"/>
   </g>
   <g id="Quiver_12">
    <path clip-path="url(#p88e38d554e)" d="M 53.251074 168.0336 
L 311.200202 168.0336 
L 310.753802 167.1408 
L 315.217802 168.48 
L 310.753802 169.8192 
L 311.200202 168.9264 
L 53.251074 168.9264 
L 53.251074 168.0336 
" style="fill:#0000ff;"/>
   </g>
   <g id="Quiver_13">
    <path clip-path="url(#p88e38d554e)" d="M 53.251074 159.9696 
L 318.49038 159.9696 
L 318.04398 159.0768 
L 322.50798 160.416 
L 318.04398 161.7552 
L 318.49038 160.8624 
L 53.251074 160.8624 
L 53.251074 159.9696 
" style="fill:#0000ff;"/>
   </g>
   <g id="Quiver_14">
    <path clip-path="url(#p88e38d554e)" d="M 53.251074 151.9056 
L 323.347399 151.9056 
L 322.900999 151.0128 
L 327.364999 152.352 
L 322.900999 153.6912 
L 323.347399 152.7984 
L 53.251074 152.7984 
L 53.251074 151.9056 
" style="fill:#0000ff;"/>
   </g>
   <g id="Quiver_15">
    <path clip-path="url(#p88e38d554e)" d="M 53.251074 143.8416 
L 325.774978 143.8416 
L 325.328578 142.9488 
L 329.792578 144.288 
L 325.328578 145.6272 
L 325.774978 144.7344 
L 53.251074 144.7344 
L 53.251074 143.8416 
" style="fill:#0000ff;"/>
   </g>
   <g id="Quiver_16">
    <path clip-path="url(#p88e38d554e)" d="M 53.251074 135.7776 
L 325.774978 135.7776 
L 325.328578 134.8848 
L 329.792578 136.224 
L 325.328578 137.5632 
L 325.774978 136.6704 
L 53.251074 136.6704 
L 53.251074 135.7776 
" style="fill:#0000ff;"/>
   </g>
   <g id="Quiver_17">
    <path clip-path="url(#p88e38d554e)" d="M 53.251074 127.7136 
L 323.347399 127.7136 
L 322.900999 126.8208 
L 327.364999 128.16 
L 322.900999 129.4992 
L 323.347399 128.6064 
L 53.251074 128.6064 
L 53.251074 127.7136 
" style="fill:#0000ff;"/>
   </g>
   <g id="Quiver_18">
    <path clip-path="url(#p88e38d554e)" d="M 53.251074 119.6496 
L 318.49038 119.6496 
L 318.04398 118.7568 
L 322.50798 120.096 
L 318.04398 121.4352 
L 318.49038 120.5424 
L 53.251074 120.5424 
L 53.251074 119.6496 
" style="fill:#0000ff;"/>
   </g>
   <g id="Quiver_19">
    <path clip-path="url(#p88e38d554e)" d="M 53.251074 111.5856 
L 311.200202 111.5856 
L 310.753802 110.6928 
L 315.217802 112.032 
L 310.753802 113.3712 
L 311.200202 112.4784 
L 53.251074 112.4784 
L 53.251074 111.5856 
" style="fill:#0000ff;"/>
   </g>
   <g id="Quiver_20">
    <path clip-path="url(#p88e38d554e)" d="M 53.251074 103.5216 
L 301.471298 103.5216 
L 301.024898 102.6288 
L 305.488898 103.968 
L 301.024898 105.3072 
L 301.471298 104.4144 
L 53.251074 104.4144 
L 53.251074 103.5216 
" style="fill:#0000ff;"/>
   </g>
   <g id="Quiver_21">
    <path clip-path="url(#p88e38d554e)" d="M 53.251074 95.4576 
L 289.296226 95.4576 
L 288.849826 94.5648 
L 293.313826 95.904 
L 288.849826 97.2432 
L 289.296226 96.3504 
L 53.251074 96.3504 
L 53.251074 95.4576 
" style="fill:#0000ff;"/>
   </g>
   <g id="Quiver_22">
    <path clip-path="url(#p88e38d554e)" d="M 53.251074 87.3936 
L 274.665604 87.3936 
L 274.219204 86.5008 
L 278.683204 87.84 
L 274.219204 89.1792 
L 274.665604 88.2864 
L 53.251074 88.2864 
L 53.251074 87.3936 
" style="fill:#0000ff;"/>
   </g>
   <g id="Quiver_23">
    <path clip-path="url(#p88e38d554e)" d="M 53.251074 79.3296 
L 257.567965 79.3296 
L 257.121565 78.4368 
L 261.585565 79.776 
L 257.121565 81.1152 
L 257.567965 80.2224 
L 53.251074 80.2224 
L 53.251074 79.3296 
" style="fill:#0000ff;"/>
   </g>
   <g id="Quiver_24">
    <path clip-path="url(#p88e38d554e)" d="M 53.251074 71.2656 
L 237.989561 71.2656 
L 237.543161 70.3728 
L 242.007161 71.712 
L 237.543161 73.0512 
L 237.989561 72.1584 
L 53.251074 72.1584 
L 53.251074 71.2656 
" style="fill:#0000ff;"/>
   </g>
   <g id="Quiver_25">
    <path clip-path="url(#p88e38d554e)" d="M 53.251074 63.2016 
L 215.914129 63.2016 
L 215.467729 62.3088 
L 219.931729 63.648 
L 215.467729 64.9872 
L 215.914129 64.0944 
L 53.251074 64.0944 
L 53.251074 63.2016 
" style="fill:#0000ff;"/>
   </g>
   <g id="Quiver_26">
    <path clip-path="url(#p88e38d554e)" d="M 53.251074 55.1376 
L 191.32277 55.1376 
L 190.87637 54.2448 
L 195.34037 55.584 
L 190.87637 56.9232 
L 191.32277 56.0304 
L 53.251074 56.0304 
L 53.251074 55.1376 
" style="fill:#0000ff;"/>
   </g>
   <g id="Quiver_27">
    <path clip-path="url(#p88e38d554e)" d="M 53.251074 47.0736 
L 164.194099 47.0736 
L 163.747699 46.1808 
L 168.211699 47.52 
L 163.747699 48.8592 
L 164.194099 47.9664 
L 53.251074 47.9664 
L 53.251074 47.0736 
" style="fill:#0000ff;"/>
   </g>
   <g id="Quiver_28">
    <path clip-path="url(#p88e38d554e)" d="M 53.251074 39.0096 
L 134.505018 39.0096 
L 134.058618 38.1168 
L 138.522618 39.456 
L 134.058618 40.7952 
L 134.505018 39.9024 
L 53.251074 39.9024 
L 53.251074 39.0096 
" style="fill:#0000ff;"/>
   </g>
   <g id="Quiver_29">
    <path clip-path="url(#p88e38d554e)" d="M 53.251074 30.9456 
L 102.232409 30.9456 
L 101.786009 30.0528 
L 106.250009 31.392 
L 101.786009 32.7312 
L 102.232409 31.8384 
L 53.251074 31.8384 
L 53.251074 30.9456 
" style="fill:#0000ff;"/>
   </g>
   <g id="Quiver_30">
    <path clip-path="url(#p88e38d554e)" d="M 53.251074 22.8816 
L 67.356264 22.8816 
L 66.909864 21.9888 
L 71.373864 23.328 
L 66.909864 24.6672 
L 67.356264 23.7744 
L 53.251074 23.7744 
L 53.251074 22.8816 
" style="fill:#0000ff;"/>
   </g>
   <g id="matplotlib.axis_1">
    <g id="xtick_1">
     <g id="line2d_1">
      <defs>
       <path d="M 0 0 
L 0 3.5 
" id="m85fd8b0d22" style="stroke:#000000;stroke-width:0.8;"/>
      </defs>
      <g>
       <use style="stroke:#000000;stroke-width:0.8;" x="53.251074" xlink:href="#m85fd8b0d22" y="273.312"/>
      </g>
     </g>
     <g id="text_1">
      <!-- 0.000 -->
      <defs>
       <path d="M 31.78125 66.40625 
Q 24.171875 66.40625 20.328125 58.90625 
Q 16.5 51.421875 16.5 36.375 
Q 16.5 21.390625 20.328125 13.890625 
Q 24.171875 6.390625 31.78125 6.390625 
Q 39.453125 6.390625 43.28125 13.890625 
Q 47.125 21.390625 47.125 36.375 
Q 47.125 51.421875 43.28125 58.90625 
Q 39.453125 66.40625 31.78125 66.40625 
z
M 31.78125 74.21875 
Q 44.046875 74.21875 50.515625 64.515625 
Q 56.984375 54.828125 56.984375 36.375 
Q 56.984375 17.96875 50.515625 8.265625 
Q 44.046875 -1.421875 31.78125 -1.421875 
Q 19.53125 -1.421875 13.0625 8.265625 
Q 6.59375 17.96875 6.59375 36.375 
Q 6.59375 54.828125 13.0625 64.515625 
Q 19.53125 74.21875 31.78125 74.21875 
z
" id="DejaVuSans-48"/>
       <path d="M 10.6875 12.40625 
L 21 12.40625 
L 21 0 
L 10.6875 0 
z
" id="DejaVuSans-46"/>
      </defs>
      <g transform="translate(41.9047 287.230498)scale(0.1 -0.1)">
       <use xlink:href="#DejaVuSans-48"/>
       <use x="63.623047" xlink:href="#DejaVuSans-46"/>
       <use x="95.410156" xlink:href="#DejaVuSans-48"/>
       <use x="159.033203" xlink:href="#DejaVuSans-48"/>
       <use x="222.65625" xlink:href="#DejaVuSans-48"/>
      </g>
     </g>
    </g>
    <g id="xtick_2">
     <g id="line2d_2">
      <g>
       <use style="stroke:#000000;stroke-width:0.8;" x="102.514923" xlink:href="#m85fd8b0d22" y="273.312"/>
      </g>
     </g>
     <g id="text_2">
      <!-- 0.002 -->
      <defs>
       <path d="M 42 31.640625 
C 42 37.75 41.90625 48.125 37.703125 56.109375 
C 34 63.109375 28.09375 65.59375 22.90625 65.59375 
C 18.09375 65.59375 12 63.40625 8.203125 56.203125 
C 4.203125 48.71875 3.796875 39.4375 3.796875 31.640625 
C 3.796875 25.953125 3.90625 17.28125 7 9.671875 
C 11.296875 -0.609375 19 -2 22.90625 -2 
C 27.5 -2 34.5 -0.109375 38.59375 9.375 
C 41.59375 16.28125 42 24.359375 42 31.640625 
z
M 22.90625 -0.40625 
C 16.5 -0.40625 12.703125 5.078125 11.296875 12.6875 
C 10.203125 18.5625 10.203125 27.15625 10.203125 32.75 
C 10.203125 40.4375 10.203125 46.828125 11.5 52.921875 
C 13.40625 61.390625 19 64 22.90625 64 
C 27 64 32.296875 61.296875 34.203125 53.125 
C 35.5 47.4375 35.59375 40.734375 35.59375 32.75 
C 35.59375 26.25 35.59375 18.265625 34.40625 12.375 
C 32.296875 1.484375 26.40625 -0.40625 22.90625 -0.40625 
z
" id="CMR17-48"/>
       <path d="M 16.59375 4.078125 
C 16.59375 6.5625 14.59375 8.15625 12.5 8.15625 
C 10.5 8.15625 8.40625 6.5625 8.40625 4.078125 
C 8.40625 1.59375 10.40625 0 12.5 0 
C 14.5 0 16.59375 1.59375 16.59375 4.078125 
z
" id="CMR17-46"/>
       <path d="M 41.703125 15.453125 
L 39.90625 15.453125 
C 38.90625 8.375 38.09375 7.171875 37.703125 6.5625 
C 37.203125 5.765625 30 5.765625 28.59375 5.765625 
L 9.40625 5.765625 
C 13 9.671875 20 16.75 28.5 24.953125 
C 34.59375 30.734375 41.703125 37.53125 41.703125 47.421875 
C 41.703125 59.21875 32.296875 66 21.796875 66 
C 10.796875 66 4.09375 56.3125 4.09375 47.34375 
C 4.09375 43.4375 7 42.9375 8.203125 42.9375 
C 9.203125 42.9375 12.203125 43.546875 12.203125 47.03125 
C 12.203125 50.109375 9.59375 51 8.203125 51 
C 7.59375 51 7 50.90625 6.59375 50.703125 
C 8.5 59.21875 14.296875 63.40625 20.40625 63.40625 
C 29.09375 63.40625 34.796875 56.515625 34.796875 47.421875 
C 34.796875 38.734375 29.703125 31.25 24 24.75 
L 4.09375 2.28125 
L 4.09375 0 
L 39.296875 0 
z
" id="CMR17-50"/>
      </defs>
      <g transform="translate(91.168548 287.230498)scale(0.1 -0.1)">
       <use transform="scale(0.996264)" xlink:href="#CMR17-48"/>
       <use transform="translate(45.690477 0)scale(0.996264)" xlink:href="#CMR17-46"/>
       <use transform="translate(70.561536 0)scale(0.996264)" xlink:href="#CMR17-48"/>
       <use transform="translate(116.252013 0)scale(0.996264)" xlink:href="#CMR17-48"/>
       <use transform="translate(161.94249 0)scale(0.996264)" xlink:href="#CMR17-50"/>
      </g>
     </g>
    </g>
    <g id="xtick_3">
     <g id="line2d_3">
      <g>
       <use style="stroke:#000000;stroke-width:0.8;" x="151.778772" xlink:href="#m85fd8b0d22" y="273.312"/>
      </g>
     </g>
     <g id="text_3">
      <!-- 0.004 -->
      <defs>
       <path d="M 33.59375 64.40625 
C 33.59375 66.5 33.5 66.5 31.703125 66.5 
L 2 19.59375 
L 2 17 
L 27.796875 17 
L 27.796875 7.140625 
C 27.796875 3.5 27.59375 2.5 20.59375 2.5 
L 18.703125 2.5 
L 18.703125 0 
C 21.90625 0 27.296875 0 30.703125 0 
C 34.09375 0 39.5 0 42.703125 0 
L 42.703125 2.5 
L 40.796875 2.5 
C 33.796875 2.5 33.59375 3.5 33.59375 7.140625 
L 33.59375 17 
L 43.796875 17 
L 43.796875 19.59375 
L 33.59375 19.59375 
z
M 28.09375 57.859375 
L 28.09375 19.59375 
L 4 19.59375 
z
" id="CMR17-52"/>
      </defs>
      <g transform="translate(140.432397 287.230498)scale(0.1 -0.1)">
       <use transform="scale(0.996264)" xlink:href="#CMR17-48"/>
       <use transform="translate(45.690477 0)scale(0.996264)" xlink:href="#CMR17-46"/>
       <use transform="translate(70.561536 0)scale(0.996264)" xlink:href="#CMR17-48"/>
       <use transform="translate(116.252013 0)scale(0.996264)" xlink:href="#CMR17-48"/>
       <use transform="translate(161.94249 0)scale(0.996264)" xlink:href="#CMR17-52"/>
      </g>
     </g>
    </g>
    <g id="xtick_4">
     <g id="line2d_4">
      <g>
       <use style="stroke:#000000;stroke-width:0.8;" x="201.042621" xlink:href="#m85fd8b0d22" y="273.312"/>
      </g>
     </g>
     <g id="text_4">
      <!-- 0.006 -->
      <defs>
       <path d="M 10.59375 34 
C 10.59375 57.65625 21.796875 63 28.296875 63 
C 30.40625 63 35.5 62.640625 37.5 59 
C 35.90625 59 32.90625 59 32.90625 55.515625 
C 32.90625 52.828125 35.09375 51.921875 36.5 51.921875 
C 37.40625 51.921875 40.09375 52.3125 40.09375 55.625 
C 40.09375 61.78125 35.09375 65.296875 28.203125 65.296875 
C 16.296875 65.296875 3.796875 52.96875 3.796875 31 
C 3.796875 3.953125 15.09375 -2 23.09375 -2 
C 32.796875 -2 42 6.671875 42 20.046875 
C 42 32.515625 33.90625 41.59375 23.703125 41.59375 
C 17.59375 41.59375 13.09375 37.609375 10.59375 30.625 
z
M 23.09375 0.390625 
C 10.796875 0.390625 10.796875 18.75 10.796875 22.4375 
C 10.796875 29.625 14.203125 40 23.5 40 
C 25.203125 40 30.09375 40 33.40625 33.125 
C 35.203125 29.21875 35.203125 25.140625 35.203125 20.140625 
C 35.203125 14.75 35.203125 10.78125 33.09375 6.78125 
C 30.90625 2.671875 27.703125 0.390625 23.09375 0.390625 
z
" id="CMR17-54"/>
      </defs>
      <g transform="translate(189.696246 287.230498)scale(0.1 -0.1)">
       <use transform="scale(0.996264)" xlink:href="#CMR17-48"/>
       <use transform="translate(45.690477 0)scale(0.996264)" xlink:href="#CMR17-46"/>
       <use transform="translate(70.561536 0)scale(0.996264)" xlink:href="#CMR17-48"/>
       <use transform="translate(116.252013 0)scale(0.996264)" xlink:href="#CMR17-48"/>
       <use transform="translate(161.94249 0)scale(0.996264)" xlink:href="#CMR17-54"/>
      </g>
     </g>
    </g>
    <g id="xtick_5">
     <g id="line2d_5">
      <g>
       <use style="stroke:#000000;stroke-width:0.8;" x="250.306469" xlink:href="#m85fd8b0d22" y="273.312"/>
      </g>
     </g>
     <g id="text_5">
      <!-- 0.008 -->
      <defs>
       <path d="M 27.203125 35.375 
C 33.5 38.546875 39.90625 43.328125 39.90625 50.984375 
C 39.90625 60.015625 31.09375 65.296875 23 65.296875 
C 13.90625 65.296875 5.90625 58.734375 5.90625 49.6875 
C 5.90625 47.203125 6.5 42.921875 10.40625 39.140625 
C 11.40625 38.15625 15.59375 35.171875 18.296875 33.28125 
C 13.796875 30.984375 3.296875 25.53125 3.296875 14.59375 
C 3.296875 4.359375 13.09375 -2 22.796875 -2 
C 33.5 -2 42.5 5.65625 42.5 15.78125 
C 42.5 24.84375 36.40625 29.015625 32.40625 31.703125 
z
M 14.09375 44.09375 
C 13.296875 44.59375 9.296875 47.671875 9.296875 52.359375 
C 9.296875 58.421875 15.59375 63 22.796875 63 
C 30.703125 63 36.5 57.4375 36.5 50.96875 
C 36.5 41.703125 26.09375 36.421875 25.59375 36.421875 
C 25.5 36.421875 25.40625 36.421875 24.59375 37.03125 
z
M 32.5 23.734375 
C 34 22.640625 38.796875 19.375 38.796875 13.296875 
C 38.796875 5.953125 31.40625 0.390625 23 0.390625 
C 13.90625 0.390625 7 6.84375 7 14.6875 
C 7 22.546875 13.09375 29.09375 20 32.1875 
z
" id="CMR17-56"/>
      </defs>
      <g transform="translate(238.960094 287.230498)scale(0.1 -0.1)">
       <use transform="scale(0.996264)" xlink:href="#CMR17-48"/>
       <use transform="translate(45.690477 0)scale(0.996264)" xlink:href="#CMR17-46"/>
       <use transform="translate(70.561536 0)scale(0.996264)" xlink:href="#CMR17-48"/>
       <use transform="translate(116.252013 0)scale(0.996264)" xlink:href="#CMR17-48"/>
       <use transform="translate(161.94249 0)scale(0.996264)" xlink:href="#CMR17-56"/>
      </g>
     </g>
    </g>
    <g id="xtick_6">
     <g id="line2d_6">
      <g>
       <use style="stroke:#000000;stroke-width:0.8;" x="299.570318" xlink:href="#m85fd8b0d22" y="273.312"/>
      </g>
     </g>
     <g id="text_6">
      <!-- 0.010 -->
      <defs>
       <path d="M 26.59375 63.40625 
C 26.59375 65.5 26.5 65.5 25.09375 65.5 
C 21.203125 61.1875 15.296875 59.796875 9.703125 59.796875 
C 9.40625 59.796875 8.90625 59.796875 8.796875 59.5 
C 8.703125 59.296875 8.703125 59.09375 8.703125 57 
C 11.796875 57 17 57.59375 21 59.984375 
L 21 7.203125 
C 21 3.6875 20.796875 2.5 12.203125 2.5 
L 9.203125 2.5 
L 9.203125 0 
C 14 0 19 0 23.796875 0 
C 28.59375 0 33.59375 0 38.40625 0 
L 38.40625 2.5 
L 35.40625 2.5 
C 26.796875 2.5 26.59375 3.59375 26.59375 7.15625 
z
" id="CMR17-49"/>
      </defs>
      <g transform="translate(288.223943 287.230498)scale(0.1 -0.1)">
       <use transform="scale(0.996264)" xlink:href="#CMR17-48"/>
       <use transform="translate(45.690477 0)scale(0.996264)" xlink:href="#CMR17-46"/>
       <use transform="translate(70.561536 0)scale(0.996264)" xlink:href="#CMR17-48"/>
       <use transform="translate(116.252013 0)scale(0.996264)" xlink:href="#CMR17-49"/>
       <use transform="translate(161.94249 0)scale(0.996264)" xlink:href="#CMR17-48"/>
      </g>
     </g>
    </g>
    <g id="xtick_7">
     <g id="line2d_7">
      <g>
       <use style="stroke:#000000;stroke-width:0.8;" x="348.834167" xlink:href="#m85fd8b0d22" y="273.312"/>
      </g>
     </g>
     <g id="text_7">
      <!-- 0.012 -->
      <g transform="translate(337.487792 287.230498)scale(0.1 -0.1)">
       <use transform="scale(0.996264)" xlink:href="#CMR17-48"/>
       <use transform="translate(45.690477 0)scale(0.996264)" xlink:href="#CMR17-46"/>
       <use transform="translate(70.561536 0)scale(0.996264)" xlink:href="#CMR17-48"/>
       <use transform="translate(116.252013 0)scale(0.996264)" xlink:href="#CMR17-49"/>
       <use transform="translate(161.94249 0)scale(0.996264)" xlink:href="#CMR17-50"/>
      </g>
     </g>
    </g>
    <g id="text_8">
     <!-- Velocity in y-direction $u$ [$\frac{m}{s}$] -->
     <defs>
      <path d="M 28.609375 0 
L 0.78125 72.90625 
L 11.078125 72.90625 
L 34.1875 11.53125 
L 57.328125 72.90625 
L 67.578125 72.90625 
L 39.796875 0 
z
" id="DejaVuSans-86"/>
      <path d="M 56.203125 29.59375 
L 56.203125 25.203125 
L 14.890625 25.203125 
Q 15.484375 15.921875 20.484375 11.0625 
Q 25.484375 6.203125 34.421875 6.203125 
Q 39.59375 6.203125 44.453125 7.46875 
Q 49.3125 8.734375 54.109375 11.28125 
L 54.109375 2.78125 
Q 49.265625 0.734375 44.1875 -0.34375 
Q 39.109375 -1.421875 33.890625 -1.421875 
Q 20.796875 -1.421875 13.15625 6.1875 
Q 5.515625 13.8125 5.515625 26.8125 
Q 5.515625 40.234375 12.765625 48.109375 
Q 20.015625 56 32.328125 56 
Q 43.359375 56 49.78125 48.890625 
Q 56.203125 41.796875 56.203125 29.59375 
z
M 47.21875 32.234375 
Q 47.125 39.59375 43.09375 43.984375 
Q 39.0625 48.390625 32.421875 48.390625 
Q 24.90625 48.390625 20.390625 44.140625 
Q 15.875 39.890625 15.1875 32.171875 
z
" id="DejaVuSans-101"/>
      <path d="M 9.421875 75.984375 
L 18.40625 75.984375 
L 18.40625 0 
L 9.421875 0 
z
" id="DejaVuSans-108"/>
      <path d="M 30.609375 48.390625 
Q 23.390625 48.390625 19.1875 42.75 
Q 14.984375 37.109375 14.984375 27.296875 
Q 14.984375 17.484375 19.15625 11.84375 
Q 23.34375 6.203125 30.609375 6.203125 
Q 37.796875 6.203125 41.984375 11.859375 
Q 46.1875 17.53125 46.1875 27.296875 
Q 46.1875 37.015625 41.984375 42.703125 
Q 37.796875 48.390625 30.609375 48.390625 
z
M 30.609375 56 
Q 42.328125 56 49.015625 48.375 
Q 55.71875 40.765625 55.71875 27.296875 
Q 55.71875 13.875 49.015625 6.21875 
Q 42.328125 -1.421875 30.609375 -1.421875 
Q 18.84375 -1.421875 12.171875 6.21875 
Q 5.515625 13.875 5.515625 27.296875 
Q 5.515625 40.765625 12.171875 48.375 
Q 18.84375 56 30.609375 56 
z
" id="DejaVuSans-111"/>
      <path d="M 48.78125 52.59375 
L 48.78125 44.1875 
Q 44.96875 46.296875 41.140625 47.34375 
Q 37.3125 48.390625 33.40625 48.390625 
Q 24.65625 48.390625 19.8125 42.84375 
Q 14.984375 37.3125 14.984375 27.296875 
Q 14.984375 17.28125 19.8125 11.734375 
Q 24.65625 6.203125 33.40625 6.203125 
Q 37.3125 6.203125 41.140625 7.25 
Q 44.96875 8.296875 48.78125 10.40625 
L 48.78125 2.09375 
Q 45.015625 0.34375 40.984375 -0.53125 
Q 36.96875 -1.421875 32.421875 -1.421875 
Q 20.0625 -1.421875 12.78125 6.34375 
Q 5.515625 14.109375 5.515625 27.296875 
Q 5.515625 40.671875 12.859375 48.328125 
Q 20.21875 56 33.015625 56 
Q 37.15625 56 41.109375 55.140625 
Q 45.0625 54.296875 48.78125 52.59375 
z
" id="DejaVuSans-99"/>
      <path d="M 9.421875 54.6875 
L 18.40625 54.6875 
L 18.40625 0 
L 9.421875 0 
z
M 9.421875 75.984375 
L 18.40625 75.984375 
L 18.40625 64.59375 
L 9.421875 64.59375 
z
" id="DejaVuSans-105"/>
      <path d="M 18.3125 70.21875 
L 18.3125 54.6875 
L 36.8125 54.6875 
L 36.8125 47.703125 
L 18.3125 47.703125 
L 18.3125 18.015625 
Q 18.3125 11.328125 20.140625 9.421875 
Q 21.96875 7.515625 27.59375 7.515625 
L 36.8125 7.515625 
L 36.8125 0 
L 27.59375 0 
Q 17.1875 0 13.234375 3.875 
Q 9.28125 7.765625 9.28125 18.015625 
L 9.28125 47.703125 
L 2.6875 47.703125 
L 2.6875 54.6875 
L 9.28125 54.6875 
L 9.28125 70.21875 
z
" id="DejaVuSans-116"/>
      <path d="M 32.171875 -5.078125 
Q 28.375 -14.84375 24.75 -17.8125 
Q 21.140625 -20.796875 15.09375 -20.796875 
L 7.90625 -20.796875 
L 7.90625 -13.28125 
L 13.1875 -13.28125 
Q 16.890625 -13.28125 18.9375 -11.515625 
Q 21 -9.765625 23.484375 -3.21875 
L 25.09375 0.875 
L 2.984375 54.6875 
L 12.5 54.6875 
L 29.59375 11.921875 
L 46.6875 54.6875 
L 56.203125 54.6875 
z
" id="DejaVuSans-121"/>
      <path id="DejaVuSans-32"/>
      <path d="M 54.890625 33.015625 
L 54.890625 0 
L 45.90625 0 
L 45.90625 32.71875 
Q 45.90625 40.484375 42.875 44.328125 
Q 39.84375 48.1875 33.796875 48.1875 
Q 26.515625 48.1875 22.3125 43.546875 
Q 18.109375 38.921875 18.109375 30.90625 
L 18.109375 0 
L 9.078125 0 
L 9.078125 54.6875 
L 18.109375 54.6875 
L 18.109375 46.1875 
Q 21.34375 51.125 25.703125 53.5625 
Q 30.078125 56 35.796875 56 
Q 45.21875 56 50.046875 50.171875 
Q 54.890625 44.34375 54.890625 33.015625 
z
" id="DejaVuSans-110"/>
      <path d="M 4.890625 31.390625 
L 31.203125 31.390625 
L 31.203125 23.390625 
L 4.890625 23.390625 
z
" id="DejaVuSans-45"/>
      <path d="M 45.40625 46.390625 
L 45.40625 75.984375 
L 54.390625 75.984375 
L 54.390625 0 
L 45.40625 0 
L 45.40625 8.203125 
Q 42.578125 3.328125 38.25 0.953125 
Q 33.9375 -1.421875 27.875 -1.421875 
Q 17.96875 -1.421875 11.734375 6.484375 
Q 5.515625 14.40625 5.515625 27.296875 
Q 5.515625 40.1875 11.734375 48.09375 
Q 17.96875 56 27.875 56 
Q 33.9375 56 38.25 53.625 
Q 42.578125 51.265625 45.40625 46.390625 
z
M 14.796875 27.296875 
Q 14.796875 17.390625 18.875 11.75 
Q 22.953125 6.109375 30.078125 6.109375 
Q 37.203125 6.109375 41.296875 11.75 
Q 45.40625 17.390625 45.40625 27.296875 
Q 45.40625 37.203125 41.296875 42.84375 
Q 37.203125 48.484375 30.078125 48.484375 
Q 22.953125 48.484375 18.875 42.84375 
Q 14.796875 37.203125 14.796875 27.296875 
z
" id="DejaVuSans-100"/>
      <path d="M 41.109375 46.296875 
Q 39.59375 47.171875 37.8125 47.578125 
Q 36.03125 48 33.890625 48 
Q 26.265625 48 22.1875 43.046875 
Q 18.109375 38.09375 18.109375 28.8125 
L 18.109375 0 
L 9.078125 0 
L 9.078125 54.6875 
L 18.109375 54.6875 
L 18.109375 46.1875 
Q 20.953125 51.171875 25.484375 53.578125 
Q 30.03125 56 36.53125 56 
Q 37.453125 56 38.578125 55.875 
Q 39.703125 55.765625 41.0625 55.515625 
z
" id="DejaVuSans-114"/>
      <path d="M 6.6875 21.6875 
L 13.09375 54.6875 
L 22.125 54.6875 
L 15.71875 22.015625 
Q 15.234375 19.625 15.015625 17.921875 
Q 14.796875 16.21875 14.796875 15.09375 
Q 14.796875 10.9375 17.328125 8.65625 
Q 19.875 6.390625 24.515625 6.390625 
Q 31.734375 6.390625 37 11.265625 
Q 42.28125 16.15625 43.890625 24.421875 
L 49.90625 54.6875 
L 58.890625 54.6875 
L 48.296875 0 
L 39.3125 0 
L 41.109375 8.59375 
Q 37.3125 3.8125 32.0625 1.1875 
Q 26.8125 -1.421875 20.90625 -1.421875 
Q 13.71875 -1.421875 9.71875 2.515625 
Q 5.71875 6.453125 5.71875 13.484375 
Q 5.71875 14.9375 5.953125 17.140625 
Q 6.203125 19.34375 6.6875 21.6875 
z
" id="DejaVuSans-Oblique-117"/>
      <path d="M 8.59375 75.984375 
L 29.296875 75.984375 
L 29.296875 69 
L 17.578125 69 
L 17.578125 -6.203125 
L 29.296875 -6.203125 
L 29.296875 -13.1875 
L 8.59375 -13.1875 
z
" id="DejaVuSans-91"/>
      <path d="M 89.796875 33.015625 
L 83.40625 0 
L 74.421875 0 
L 80.71875 32.71875 
Q 81.109375 34.8125 81.296875 36.328125 
Q 81.5 37.84375 81.5 38.921875 
Q 81.5 43.3125 79.046875 45.75 
Q 76.609375 48.1875 72.21875 48.1875 
Q 65.671875 48.1875 60.546875 43.28125 
Q 55.421875 38.375 53.90625 30.515625 
L 47.90625 0 
L 38.921875 0 
L 45.3125 32.71875 
Q 45.703125 34.515625 45.890625 36.046875 
Q 46.09375 37.59375 46.09375 38.8125 
Q 46.09375 43.265625 43.65625 45.71875 
Q 41.21875 48.1875 36.921875 48.1875 
Q 30.28125 48.1875 25.140625 43.28125 
Q 20.015625 38.375 18.5 30.515625 
L 12.5 0 
L 3.515625 0 
L 14.203125 54.6875 
L 23.1875 54.6875 
L 21.484375 46.1875 
Q 25.140625 50.984375 30.046875 53.484375 
Q 34.96875 56 40.578125 56 
Q 46.53125 56 50.359375 52.875 
Q 54.203125 49.75 54.984375 44.1875 
Q 59.078125 49.953125 64.46875 52.96875 
Q 69.875 56 75.875 56 
Q 82.90625 56 86.734375 51.953125 
Q 90.578125 47.90625 90.578125 40.484375 
Q 90.578125 38.875 90.375 36.9375 
Q 90.1875 35.015625 89.796875 33.015625 
z
" id="DejaVuSans-Oblique-109"/>
      <path d="M 50 53.078125 
L 48.296875 44.578125 
Q 44.734375 46.53125 40.765625 47.5 
Q 36.8125 48.484375 32.625 48.484375 
Q 25.53125 48.484375 21.453125 46.0625 
Q 17.390625 43.65625 17.390625 39.5 
Q 17.390625 34.671875 26.859375 32.078125 
Q 27.59375 31.890625 27.9375 31.78125 
L 30.8125 30.90625 
Q 39.796875 28.421875 42.796875 25.6875 
Q 45.796875 22.953125 45.796875 18.21875 
Q 45.796875 9.515625 38.890625 4.046875 
Q 31.984375 -1.421875 20.796875 -1.421875 
Q 16.453125 -1.421875 11.671875 -0.578125 
Q 6.890625 0.25 1.125 2 
L 2.875 11.28125 
Q 7.8125 8.734375 12.59375 7.421875 
Q 17.390625 6.109375 21.78125 6.109375 
Q 28.375 6.109375 32.5 8.9375 
Q 36.625 11.765625 36.625 16.109375 
Q 36.625 20.796875 25.78125 23.6875 
L 24.859375 23.921875 
L 21.78125 24.703125 
Q 14.9375 26.515625 11.765625 29.46875 
Q 8.59375 32.421875 8.59375 37.015625 
Q 8.59375 45.75 15.15625 50.875 
Q 21.734375 56 33.015625 56 
Q 37.453125 56 41.671875 55.265625 
Q 45.90625 54.546875 50 53.078125 
z
" id="DejaVuSans-Oblique-115"/>
      <path d="M 30.421875 75.984375 
L 30.421875 -13.1875 
L 9.71875 -13.1875 
L 9.71875 -6.203125 
L 21.390625 -6.203125 
L 21.390625 69 
L 9.71875 69 
L 9.71875 75.984375 
z
" id="DejaVuSans-93"/>
     </defs>
     <g transform="translate(153.464723 302.13799)scale(0.1 -0.1)">
      <use transform="translate(0 0.003125)" xlink:href="#DejaVuSans-86"/>
      <use transform="translate(68.408203 0.003125)" xlink:href="#DejaVuSans-101"/>
      <use transform="translate(129.931641 0.003125)" xlink:href="#DejaVuSans-108"/>
      <use transform="translate(157.714844 0.003125)" xlink:href="#DejaVuSans-111"/>
      <use transform="translate(218.896484 0.003125)" xlink:href="#DejaVuSans-99"/>
      <use transform="translate(273.876953 0.003125)" xlink:href="#DejaVuSans-105"/>
      <use transform="translate(301.660156 0.003125)" xlink:href="#DejaVuSans-116"/>
      <use transform="translate(340.869141 0.003125)" xlink:href="#DejaVuSans-121"/>
      <use transform="translate(400.048828 0.003125)" xlink:href="#DejaVuSans-32"/>
      <use transform="translate(431.835938 0.003125)" xlink:href="#DejaVuSans-105"/>
      <use transform="translate(459.619141 0.003125)" xlink:href="#DejaVuSans-110"/>
      <use transform="translate(522.998047 0.003125)" xlink:href="#DejaVuSans-32"/>
      <use transform="translate(554.785156 0.003125)" xlink:href="#DejaVuSans-121"/>
      <use transform="translate(613.964844 0.003125)" xlink:href="#DejaVuSans-45"/>
      <use transform="translate(650.048828 0.003125)" xlink:href="#DejaVuSans-100"/>
      <use transform="translate(713.525391 0.003125)" xlink:href="#DejaVuSans-105"/>
      <use transform="translate(741.308594 0.003125)" xlink:href="#DejaVuSans-114"/>
      <use transform="translate(782.421875 0.003125)" xlink:href="#DejaVuSans-101"/>
      <use transform="translate(843.945312 0.003125)" xlink:href="#DejaVuSans-99"/>
      <use transform="translate(898.925781 0.003125)" xlink:href="#DejaVuSans-116"/>
      <use transform="translate(938.134766 0.003125)" xlink:href="#DejaVuSans-105"/>
      <use transform="translate(965.917969 0.003125)" xlink:href="#DejaVuSans-111"/>
      <use transform="translate(1027.099609 0.003125)" xlink:href="#DejaVuSans-110"/>
      <use transform="translate(1090.478516 0.003125)" xlink:href="#DejaVuSans-32"/>
      <use transform="translate(1122.265625 0.003125)" xlink:href="#DejaVuSans-Oblique-117"/>
      <use transform="translate(1185.644531 0.003125)" xlink:href="#DejaVuSans-32"/>
      <use transform="translate(1217.431641 0.003125)" xlink:href="#DejaVuSans-91"/>
      <use transform="translate(1256.445312 43.8)scale(0.7)" xlink:href="#DejaVuSans-Oblique-109"/>
      <use transform="translate(1272.445312 -26.65)scale(0.7)" xlink:href="#DejaVuSans-Oblique-115"/>
      <use transform="translate(1337.133789 0.003125)" xlink:href="#DejaVuSans-93"/>
      <path d="M 1256.445312 18.8 
L 1256.445312 25.05 
L 1324.633789 25.05 
L 1324.633789 18.8 
L 1256.445312 18.8 
z
"/>
     </g>
    </g>
   </g>
   <g id="matplotlib.axis_2">
    <g id="ytick_1">
     <g id="line2d_8">
      <defs>
       <path d="M 0 0 
L -3.5 0 
" id="ma896c5d281" style="stroke:#000000;stroke-width:0.8;"/>
      </defs>
      <g>
       <use style="stroke:#000000;stroke-width:0.8;" x="37.018347" xlink:href="#ma896c5d281" y="257.184"/>
      </g>
     </g>
     <g id="text_9">
      <!-- 0 -->
      <g transform="translate(25.037012 260.643249)scale(0.1 -0.1)">
       <use xlink:href="#DejaVuSans-48"/>
      </g>
     </g>
    </g>
    <g id="ytick_2">
     <g id="line2d_9">
      <g>
       <use style="stroke:#000000;stroke-width:0.8;" x="37.018347" xlink:href="#ma896c5d281" y="216.864"/>
      </g>
     </g>
     <g id="text_10">
      <!-- 5 -->
      <defs>
       <path d="M 11.40625 57.6875 
C 12.40625 57.28125 16.5 56 20.703125 56 
C 30 56 35.09375 61.109375 38 64.0625 
C 38 64.953125 38 65.5 37.40625 65.5 
C 37.296875 65.5 37.09375 65.5 36.296875 65.046875 
C 32.796875 63.40625 28.703125 62.078125 23.703125 62.078125 
C 20.703125 62.078125 16.203125 62.484375 11.296875 64.671875 
C 10.203125 65.171875 10 65.171875 9.90625 65.171875 
C 9.40625 65.171875 9.296875 65.0625 9.296875 63.078125 
L 9.296875 34.421875 
C 9.296875 32.640625 9.296875 32.140625 10.296875 32.140625 
C 10.796875 32.140625 11 32.34375 11.5 33.03125 
C 14.703125 37.515625 19.09375 39.40625 24.09375 39.40625 
C 27.59375 39.40625 35.09375 37.21875 35.09375 20.140625 
C 35.09375 16.953125 35.09375 11.171875 32.09375 6.578125 
C 29.59375 2.484375 25.703125 0.390625 21.40625 0.390625 
C 14.796875 0.390625 8.09375 5 6.296875 12.71875 
C 6.703125 12.609375 7.5 12.421875 7.90625 12.421875 
C 9.203125 12.421875 11.703125 13.125 11.703125 16.21875 
C 11.703125 18.90625 9.796875 20 7.90625 20 
C 5.59375 20 4.09375 18.59375 4.09375 15.796875 
C 4.09375 7.09375 11 -2 21.59375 -2 
C 31.90625 -2 41.703125 6.875 41.703125 19.75 
C 41.703125 31.71875 33.90625 41 24.203125 41 
C 19.09375 41 14.796875 39.109375 11.40625 35.53125 
z
" id="CMR17-53"/>
      </defs>
      <g transform="translate(25.037012 220.323249)scale(0.1 -0.1)">
       <use transform="scale(0.996264)" xlink:href="#CMR17-53"/>
      </g>
     </g>
    </g>
    <g id="ytick_3">
     <g id="line2d_10">
      <g>
       <use style="stroke:#000000;stroke-width:0.8;" x="37.018347" xlink:href="#ma896c5d281" y="176.544"/>
      </g>
     </g>
     <g id="text_11">
      <!-- 10 -->
      <g transform="translate(20.055677 180.003249)scale(0.1 -0.1)">
       <use transform="scale(0.996264)" xlink:href="#CMR17-49"/>
       <use transform="translate(45.690477 0)scale(0.996264)" xlink:href="#CMR17-48"/>
      </g>
     </g>
    </g>
    <g id="ytick_4">
     <g id="line2d_11">
      <g>
       <use style="stroke:#000000;stroke-width:0.8;" x="37.018347" xlink:href="#ma896c5d281" y="136.224"/>
      </g>
     </g>
     <g id="text_12">
      <!-- 15 -->
      <g transform="translate(20.055677 139.683249)scale(0.1 -0.1)">
       <use transform="scale(0.996264)" xlink:href="#CMR17-49"/>
       <use transform="translate(45.690477 0)scale(0.996264)" xlink:href="#CMR17-53"/>
      </g>
     </g>
    </g>
    <g id="ytick_5">
     <g id="line2d_12">
      <g>
       <use style="stroke:#000000;stroke-width:0.8;" x="37.018347" xlink:href="#ma896c5d281" y="95.904"/>
      </g>
     </g>
     <g id="text_13">
      <!-- 20 -->
      <g transform="translate(20.055677 99.363249)scale(0.1 -0.1)">
       <use transform="scale(0.996264)" xlink:href="#CMR17-50"/>
       <use transform="translate(45.690477 0)scale(0.996264)" xlink:href="#CMR17-48"/>
      </g>
     </g>
    </g>
    <g id="ytick_6">
     <g id="line2d_13">
      <g>
       <use style="stroke:#000000;stroke-width:0.8;" x="37.018347" xlink:href="#ma896c5d281" y="55.584"/>
      </g>
     </g>
     <g id="text_14">
      <!-- 25 -->
      <g transform="translate(20.055677 59.043249)scale(0.1 -0.1)">
       <use transform="scale(0.996264)" xlink:href="#CMR17-50"/>
       <use transform="translate(45.690477 0)scale(0.996264)" xlink:href="#CMR17-53"/>
      </g>
     </g>
    </g>
    <g id="ytick_7">
     <g id="line2d_14">
      <g>
       <use style="stroke:#000000;stroke-width:0.8;" x="37.018347" xlink:href="#ma896c5d281" y="15.264"/>
      </g>
     </g>
     <g id="text_15">
      <!-- 30 -->
      <defs>
       <path d="M 22.09375 33.703125 
C 31 33.703125 34.90625 25.96875 34.90625 17.03125 
C 34.90625 5 28.5 0.390625 22.703125 0.390625 
C 17.40625 0.390625 8.796875 3.03125 6.09375 10.828125 
C 6.59375 10.625 7.09375 10.625 7.59375 10.625 
C 10 10.625 11.796875 12.21875 11.796875 14.8125 
C 11.796875 17.703125 9.59375 19 7.59375 19 
C 5.90625 19 3.296875 18.203125 3.296875 14.46875 
C 3.296875 5.234375 12.296875 -2 22.90625 -2 
C 34 -2 42.5 6.71875 42.5 16.953125 
C 42.5 26.671875 34.5 33.703125 25 34.796875 
C 32.59375 36.375 39.90625 43.0625 39.90625 52.015625 
C 39.90625 59.6875 32 65.296875 23 65.296875 
C 13.90625 65.296875 5.90625 59.828125 5.90625 52.015625 
C 5.90625 48.59375 8.5 48 9.796875 48 
C 11.90625 48 13.703125 49.296875 13.703125 51.890625 
C 13.703125 54.46875 11.90625 55.765625 9.796875 55.765625 
C 9.40625 55.765625 8.90625 55.765625 8.5 55.578125 
C 11.40625 61.859375 19.296875 63 22.796875 63 
C 26.296875 63 32.90625 61.328125 32.90625 51.875 
C 32.90625 49.109375 32.5 44.1875 29.09375 39.84375 
C 26.09375 36 22.703125 36 19.40625 35.6875 
C 18.90625 35.6875 16.59375 35.453125 16.203125 35.453125 
C 15.5 35.359375 15.09375 35.265625 15.09375 34.5 
C 15.09375 33.796875 15.203125 33.703125 17.203125 33.703125 
z
" id="CMR17-51"/>
      </defs>
      <g transform="translate(20.055677 18.723249)scale(0.1 -0.1)">
       <use transform="scale(0.996264)" xlink:href="#CMR17-51"/>
       <use transform="translate(45.690477 0)scale(0.996264)" xlink:href="#CMR17-48"/>
      </g>
     </g>
    </g>
    <g id="text_16">
     <!-- y coordinate -->
     <defs>
      <path d="M 34.28125 27.484375 
Q 23.390625 27.484375 19.1875 25 
Q 14.984375 22.515625 14.984375 16.5 
Q 14.984375 11.71875 18.140625 8.90625 
Q 21.296875 6.109375 26.703125 6.109375 
Q 34.1875 6.109375 38.703125 11.40625 
Q 43.21875 16.703125 43.21875 25.484375 
L 43.21875 27.484375 
z
M 52.203125 31.203125 
L 52.203125 0 
L 43.21875 0 
L 43.21875 8.296875 
Q 40.140625 3.328125 35.546875 0.953125 
Q 30.953125 -1.421875 24.3125 -1.421875 
Q 15.921875 -1.421875 10.953125 3.296875 
Q 6 8.015625 6 15.921875 
Q 6 25.140625 12.171875 29.828125 
Q 18.359375 34.515625 30.609375 34.515625 
L 43.21875 34.515625 
L 43.21875 35.40625 
Q 43.21875 41.609375 39.140625 45 
Q 35.0625 48.390625 27.6875 48.390625 
Q 23 48.390625 18.546875 47.265625 
Q 14.109375 46.140625 10.015625 43.890625 
L 10.015625 52.203125 
Q 14.9375 54.109375 19.578125 55.046875 
Q 24.21875 56 28.609375 56 
Q 40.484375 56 46.34375 49.84375 
Q 52.203125 43.703125 52.203125 31.203125 
z
" id="DejaVuSans-97"/>
     </defs>
     <g transform="translate(14.118498 167.390421)rotate(-90)scale(0.1 -0.1)">
      <use xlink:href="#DejaVuSans-121"/>
      <use x="59.179688" xlink:href="#DejaVuSans-32"/>
      <use x="90.966797" xlink:href="#DejaVuSans-99"/>
      <use x="145.947266" xlink:href="#DejaVuSans-111"/>
      <use x="207.128906" xlink:href="#DejaVuSans-111"/>
      <use x="268.310547" xlink:href="#DejaVuSans-114"/>
      <use x="307.673828" xlink:href="#DejaVuSans-100"/>
      <use x="371.150391" xlink:href="#DejaVuSans-105"/>
      <use x="398.933594" xlink:href="#DejaVuSans-110"/>
      <use x="462.3125" xlink:href="#DejaVuSans-97"/>
      <use x="523.591797" xlink:href="#DejaVuSans-116"/>
      <use x="562.800781" xlink:href="#DejaVuSans-101"/>
     </g>
    </g>
   </g>
   <g id="line2d_15">
    <path clip-path="url(#p88e38d554e)" d="M 71.373864 257.184 
L 106.250009 249.12 
L 138.522618 241.056 
L 168.211699 232.992 
L 195.34037 224.928 
L 219.931729 216.864 
L 242.007161 208.8 
L 261.585565 200.736 
L 278.683204 192.672 
L 293.313826 184.608 
L 305.488898 176.544 
L 315.217802 168.48 
L 322.50798 160.416 
L 327.364999 152.352 
L 329.792578 144.288 
L 329.792578 136.224 
L 327.364999 128.16 
L 322.50798 120.096 
L 315.217802 112.032 
L 305.488898 103.968 
L 293.313826 95.904 
L 278.683204 87.84 
L 261.585565 79.776 
L 242.007161 71.712 
L 219.931729 63.648 
L 195.34037 55.584 
L 168.211699 47.52 
L 138.522618 39.456 
L 106.250009 31.392 
L 71.373864 23.328 
" style="fill:none;stroke:#0000ff;stroke-dasharray:1,1.65;stroke-dashoffset:0;"/>
   </g>
   <g id="line2d_16">
    <path clip-path="url(#p88e38d554e)" d="M 53.251074 261.216 
L 88.900842 253.152 
L 122.092006 245.088 
L 152.824564 237.024 
L 181.098518 228.96 
L 206.913867 220.896 
L 230.270612 212.832 
L 251.168752 204.768 
L 269.608287 196.704 
L 285.589217 188.64 
L 299.111543 180.576 
L 310.175264 172.512 
L 318.78038 164.448 
L 324.926892 156.384 
L 328.614799 148.32 
L 329.844102 140.256 
L 328.614799 132.192 
L 324.926892 124.128 
L 318.78038 116.064 
L 310.175264 108 
L 299.111543 99.936 
L 285.589217 91.872 
L 269.608287 83.808 
L 251.168752 75.744 
L 230.270612 67.68 
L 206.913867 59.616 
L 181.098518 51.552 
L 152.824564 43.488 
L 122.092006 35.424 
L 88.900842 27.36 
L 53.251074 19.296 
" style="fill:none;stroke:#ff0000;stroke-dasharray:5.55,2.4;stroke-dashoffset:0;stroke-width:1.5;"/>
   </g>
   <g id="line2d_17">
    <path clip-path="url(#p88e38d554e)" d="M 53.251074 261.216 
L 56.530413 261.216 
L 59.809752 261.216 
L 63.089091 261.216 
L 66.36843 261.216 
L 69.647769 261.216 
L 72.927108 261.216 
L 76.206446 261.216 
L 79.485785 261.216 
L 82.765124 261.216 
L 86.044463 261.216 
L 89.323802 261.216 
L 92.603141 261.216 
L 95.882479 261.216 
L 99.161818 261.216 
L 102.441157 261.216 
L 105.720496 261.216 
L 108.999835 261.216 
L 112.279174 261.216 
L 115.558513 261.216 
L 118.837851 261.216 
L 122.11719 261.216 
L 125.396529 261.216 
L 128.675868 261.216 
L 131.955207 261.216 
L 135.234546 261.216 
L 138.513884 261.216 
L 141.793223 261.216 
L 145.072562 261.216 
L 148.351901 261.216 
L 151.63124 261.216 
L 154.910579 261.216 
L 158.189917 261.216 
L 161.469256 261.216 
L 164.748595 261.216 
L 168.027934 261.216 
L 171.307273 261.216 
L 174.586612 261.216 
L 177.865951 261.216 
L 181.145289 261.216 
L 184.424628 261.216 
L 187.703967 261.216 
L 190.983306 261.216 
L 194.262645 261.216 
L 197.541984 261.216 
L 200.821322 261.216 
L 204.100661 261.216 
L 207.38 261.216 
L 210.659339 261.216 
L 213.938678 261.216 
L 217.218017 261.216 
L 220.497355 261.216 
L 223.776694 261.216 
L 227.056033 261.216 
L 230.335372 261.216 
L 233.614711 261.216 
L 236.89405 261.216 
L 240.173389 261.216 
L 243.452727 261.216 
L 246.732066 261.216 
L 250.011405 261.216 
L 253.290744 261.216 
L 256.570083 261.216 
L 259.849422 261.216 
L 263.12876 261.216 
L 266.408099 261.216 
L 269.687438 261.216 
L 272.966777 261.216 
L 276.246116 261.216 
L 279.525455 261.216 
L 282.804793 261.216 
L 286.084132 261.216 
L 289.363471 261.216 
L 292.64281 261.216 
L 295.922149 261.216 
L 299.201488 261.216 
L 302.480827 261.216 
L 305.760165 261.216 
L 309.039504 261.216 
L 312.318843 261.216 
L 315.598182 261.216 
L 318.877521 261.216 
L 322.15686 261.216 
L 325.436198 261.216 
L 328.715537 261.216 
L 331.994876 261.216 
L 335.274215 261.216 
L 338.553554 261.216 
L 341.832893 261.216 
L 345.112232 261.216 
L 348.39157 261.216 
L 351.670909 261.216 
L 354.950248 261.216 
L 358.229587 261.216 
L 361.508926 261.216 
L 364.788265 261.216 
L 368.067603 261.216 
L 371.346942 261.216 
L 374.626281 261.216 
L 377.90562 261.216 
" style="fill:none;stroke:#008000;stroke-linecap:square;stroke-width:1.5;"/>
   </g>
   <g id="line2d_18">
    <path clip-path="url(#p88e38d554e)" d="M 53.251074 19.296 
L 56.530413 19.296 
L 59.809752 19.296 
L 63.089091 19.296 
L 66.36843 19.296 
L 69.647769 19.296 
L 72.927108 19.296 
L 76.206446 19.296 
L 79.485785 19.296 
L 82.765124 19.296 
L 86.044463 19.296 
L 89.323802 19.296 
L 92.603141 19.296 
L 95.882479 19.296 
L 99.161818 19.296 
L 102.441157 19.296 
L 105.720496 19.296 
L 108.999835 19.296 
L 112.279174 19.296 
L 115.558513 19.296 
L 118.837851 19.296 
L 122.11719 19.296 
L 125.396529 19.296 
L 128.675868 19.296 
L 131.955207 19.296 
L 135.234546 19.296 
L 138.513884 19.296 
L 141.793223 19.296 
L 145.072562 19.296 
L 148.351901 19.296 
L 151.63124 19.296 
L 154.910579 19.296 
L 158.189917 19.296 
L 161.469256 19.296 
L 164.748595 19.296 
L 168.027934 19.296 
L 171.307273 19.296 
L 174.586612 19.296 
L 177.865951 19.296 
L 181.145289 19.296 
L 184.424628 19.296 
L 187.703967 19.296 
L 190.983306 19.296 
L 194.262645 19.296 
L 197.541984 19.296 
L 200.821322 19.296 
L 204.100661 19.296 
L 207.38 19.296 
L 210.659339 19.296 
L 213.938678 19.296 
L 217.218017 19.296 
L 220.497355 19.296 
L 223.776694 19.296 
L 227.056033 19.296 
L 230.335372 19.296 
L 233.614711 19.296 
L 236.89405 19.296 
L 240.173389 19.296 
L 243.452727 19.296 
L 246.732066 19.296 
L 250.011405 19.296 
L 253.290744 19.296 
L 256.570083 19.296 
L 259.849422 19.296 
L 263.12876 19.296 
L 266.408099 19.296 
L 269.687438 19.296 
L 272.966777 19.296 
L 276.246116 19.296 
L 279.525455 19.296 
L 282.804793 19.296 
L 286.084132 19.296 
L 289.363471 19.296 
L 292.64281 19.296 
L 295.922149 19.296 
L 299.201488 19.296 
L 302.480827 19.296 
L 305.760165 19.296 
L 309.039504 19.296 
L 312.318843 19.296 
L 315.598182 19.296 
L 318.877521 19.296 
L 322.15686 19.296 
L 325.436198 19.296 
L 328.715537 19.296 
L 331.994876 19.296 
L 335.274215 19.296 
L 338.553554 19.296 
L 341.832893 19.296 
L 345.112232 19.296 
L 348.39157 19.296 
L 351.670909 19.296 
L 354.950248 19.296 
L 358.229587 19.296 
L 361.508926 19.296 
L 364.788265 19.296 
L 368.067603 19.296 
L 371.346942 19.296 
L 374.626281 19.296 
L 377.90562 19.296 
" style="fill:none;stroke:#008000;stroke-linecap:square;stroke-width:1.5;"/>
   </g>
   <g id="patch_3">
    <path d="M 37.018347 273.312 
L 37.018347 7.2 
" style="fill:none;stroke:#000000;stroke-linecap:square;stroke-linejoin:miter;stroke-width:0.8;"/>
   </g>
   <g id="patch_4">
    <path d="M 394.138347 273.312 
L 394.138347 7.2 
" style="fill:none;stroke:#000000;stroke-linecap:square;stroke-linejoin:miter;stroke-width:0.8;"/>
   </g>
   <g id="patch_5">
    <path d="M 37.018347 273.312 
L 394.138347 273.312 
" style="fill:none;stroke:#000000;stroke-linecap:square;stroke-linejoin:miter;stroke-width:0.8;"/>
   </g>
   <g id="patch_6">
    <path d="M 37.018347 7.2 
L 394.138347 7.2 
" style="fill:none;stroke:#000000;stroke-linecap:square;stroke-linejoin:miter;stroke-width:0.8;"/>
   </g>
   <g id="legend_1">
    <g id="patch_7">
     <path d="M 302.00412 268.312 
L 387.138347 268.312 
Q 389.138347 268.312 389.138347 266.312 
L 389.138347 225.500465 
Q 389.138347 223.500465 387.138347 223.500465 
L 302.00412 223.500465 
Q 300.00412 223.500465 300.00412 225.500465 
L 300.00412 266.312 
Q 300.00412 268.312 302.00412 268.312 
z
" style="fill:#ffffff;opacity:0.8;stroke:#cccccc;stroke-linejoin:miter;"/>
    </g>
    <g id="line2d_19">
     <path d="M 304.00412 231.000465 
L 324.00412 231.000465 
" style="fill:none;stroke:#0000ff;stroke-dasharray:1,1.65;stroke-dashoffset:0;"/>
    </g>
    <g id="line2d_20"/>
    <g id="text_17">
     <!-- Sim. Sol. -->
     <defs>
      <path d="M 53.515625 70.515625 
L 53.515625 60.890625 
Q 47.90625 63.578125 42.921875 64.890625 
Q 37.9375 66.21875 33.296875 66.21875 
Q 25.25 66.21875 20.875 63.09375 
Q 16.5 59.96875 16.5 54.203125 
Q 16.5 49.359375 19.40625 46.890625 
Q 22.3125 44.4375 30.421875 42.921875 
L 36.375 41.703125 
Q 47.40625 39.59375 52.65625 34.296875 
Q 57.90625 29 57.90625 20.125 
Q 57.90625 9.515625 50.796875 4.046875 
Q 43.703125 -1.421875 29.984375 -1.421875 
Q 24.8125 -1.421875 18.96875 -0.25 
Q 13.140625 0.921875 6.890625 3.21875 
L 6.890625 13.375 
Q 12.890625 10.015625 18.65625 8.296875 
Q 24.421875 6.59375 29.984375 6.59375 
Q 38.421875 6.59375 43.015625 9.90625 
Q 47.609375 13.234375 47.609375 19.390625 
Q 47.609375 24.75 44.3125 27.78125 
Q 41.015625 30.8125 33.5 32.328125 
L 27.484375 33.5 
Q 16.453125 35.6875 11.515625 40.375 
Q 6.59375 45.0625 6.59375 53.421875 
Q 6.59375 63.09375 13.40625 68.65625 
Q 20.21875 74.21875 32.171875 74.21875 
Q 37.3125 74.21875 42.625 73.28125 
Q 47.953125 72.359375 53.515625 70.515625 
z
" id="DejaVuSans-83"/>
      <path d="M 52 44.1875 
Q 55.375 50.25 60.0625 53.125 
Q 64.75 56 71.09375 56 
Q 79.640625 56 84.28125 50.015625 
Q 88.921875 44.046875 88.921875 33.015625 
L 88.921875 0 
L 79.890625 0 
L 79.890625 32.71875 
Q 79.890625 40.578125 77.09375 44.375 
Q 74.3125 48.1875 68.609375 48.1875 
Q 61.625 48.1875 57.5625 43.546875 
Q 53.515625 38.921875 53.515625 30.90625 
L 53.515625 0 
L 44.484375 0 
L 44.484375 32.71875 
Q 44.484375 40.625 41.703125 44.40625 
Q 38.921875 48.1875 33.109375 48.1875 
Q 26.21875 48.1875 22.15625 43.53125 
Q 18.109375 38.875 18.109375 30.90625 
L 18.109375 0 
L 9.078125 0 
L 9.078125 54.6875 
L 18.109375 54.6875 
L 18.109375 46.1875 
Q 21.1875 51.21875 25.484375 53.609375 
Q 29.78125 56 35.6875 56 
Q 41.65625 56 45.828125 52.96875 
Q 50 49.953125 52 44.1875 
z
" id="DejaVuSans-109"/>
     </defs>
     <g transform="translate(332.00412 234.500465)scale(0.1 -0.1)">
      <use xlink:href="#DejaVuSans-83"/>
      <use x="63.476562" xlink:href="#DejaVuSans-105"/>
      <use x="91.259766" xlink:href="#DejaVuSans-109"/>
      <use x="188.671875" xlink:href="#DejaVuSans-46"/>
      <use x="220.458984" xlink:href="#DejaVuSans-32"/>
      <use x="252.246094" xlink:href="#DejaVuSans-83"/>
      <use x="315.722656" xlink:href="#DejaVuSans-111"/>
      <use x="376.904297" xlink:href="#DejaVuSans-108"/>
      <use x="404.6875" xlink:href="#DejaVuSans-46"/>
     </g>
    </g>
    <g id="line2d_21">
     <path d="M 304.00412 244.937643 
L 324.00412 244.937643 
" style="fill:none;stroke:#ff0000;stroke-dasharray:5.55,2.4;stroke-dashoffset:0;stroke-width:1.5;"/>
    </g>
    <g id="line2d_22"/>
    <g id="text_18">
     <!-- Analyt. Sol. -->
     <defs>
      <path d="M 34.1875 63.1875 
L 20.796875 26.90625 
L 47.609375 26.90625 
z
M 28.609375 72.90625 
L 39.796875 72.90625 
L 67.578125 0 
L 57.328125 0 
L 50.6875 18.703125 
L 17.828125 18.703125 
L 11.1875 0 
L 0.78125 0 
z
" id="DejaVuSans-65"/>
     </defs>
     <g transform="translate(332.00412 248.437643)scale(0.1 -0.1)">
      <use xlink:href="#DejaVuSans-65"/>
      <use x="68.408203" xlink:href="#DejaVuSans-110"/>
      <use x="131.787109" xlink:href="#DejaVuSans-97"/>
      <use x="193.066406" xlink:href="#DejaVuSans-108"/>
      <use x="220.849609" xlink:href="#DejaVuSans-121"/>
      <use x="280.029297" xlink:href="#DejaVuSans-116"/>
      <use x="319.238281" xlink:href="#DejaVuSans-46"/>
      <use x="351.025391" xlink:href="#DejaVuSans-32"/>
      <use x="382.8125" xlink:href="#DejaVuSans-83"/>
      <use x="446.289062" xlink:href="#DejaVuSans-111"/>
      <use x="507.470703" xlink:href="#DejaVuSans-108"/>
      <use x="535.253906" xlink:href="#DejaVuSans-46"/>
     </g>
    </g>
    <g id="line2d_23">
     <path d="M 304.00412 258.874822 
L 324.00412 258.874822 
" style="fill:none;stroke:#008000;stroke-linecap:square;stroke-width:1.5;"/>
    </g>
    <g id="line2d_24"/>
    <g id="text_19">
     <!-- Rigid Wall -->
     <defs>
      <path d="M 44.390625 34.1875 
Q 47.5625 33.109375 50.5625 29.59375 
Q 53.5625 26.078125 56.59375 19.921875 
L 66.609375 0 
L 56 0 
L 46.6875 18.703125 
Q 43.0625 26.03125 39.671875 28.421875 
Q 36.28125 30.8125 30.421875 30.8125 
L 19.671875 30.8125 
L 19.671875 0 
L 9.8125 0 
L 9.8125 72.90625 
L 32.078125 72.90625 
Q 44.578125 72.90625 50.734375 67.671875 
Q 56.890625 62.453125 56.890625 51.90625 
Q 56.890625 45.015625 53.6875 40.46875 
Q 50.484375 35.9375 44.390625 34.1875 
z
M 19.671875 64.796875 
L 19.671875 38.921875 
L 32.078125 38.921875 
Q 39.203125 38.921875 42.84375 42.21875 
Q 46.484375 45.515625 46.484375 51.90625 
Q 46.484375 58.296875 42.84375 61.546875 
Q 39.203125 64.796875 32.078125 64.796875 
z
" id="DejaVuSans-82"/>
      <path d="M 45.40625 27.984375 
Q 45.40625 37.75 41.375 43.109375 
Q 37.359375 48.484375 30.078125 48.484375 
Q 22.859375 48.484375 18.828125 43.109375 
Q 14.796875 37.75 14.796875 27.984375 
Q 14.796875 18.265625 18.828125 12.890625 
Q 22.859375 7.515625 30.078125 7.515625 
Q 37.359375 7.515625 41.375 12.890625 
Q 45.40625 18.265625 45.40625 27.984375 
z
M 54.390625 6.78125 
Q 54.390625 -7.171875 48.1875 -13.984375 
Q 42 -20.796875 29.203125 -20.796875 
Q 24.46875 -20.796875 20.265625 -20.09375 
Q 16.0625 -19.390625 12.109375 -17.921875 
L 12.109375 -9.1875 
Q 16.0625 -11.328125 19.921875 -12.34375 
Q 23.78125 -13.375 27.78125 -13.375 
Q 36.625 -13.375 41.015625 -8.765625 
Q 45.40625 -4.15625 45.40625 5.171875 
L 45.40625 9.625 
Q 42.625 4.78125 38.28125 2.390625 
Q 33.9375 0 27.875 0 
Q 17.828125 0 11.671875 7.65625 
Q 5.515625 15.328125 5.515625 27.984375 
Q 5.515625 40.671875 11.671875 48.328125 
Q 17.828125 56 27.875 56 
Q 33.9375 56 38.28125 53.609375 
Q 42.625 51.21875 45.40625 46.390625 
L 45.40625 54.6875 
L 54.390625 54.6875 
z
" id="DejaVuSans-103"/>
      <path d="M 3.328125 72.90625 
L 13.28125 72.90625 
L 28.609375 11.28125 
L 43.890625 72.90625 
L 54.984375 72.90625 
L 70.3125 11.28125 
L 85.59375 72.90625 
L 95.609375 72.90625 
L 77.296875 0 
L 64.890625 0 
L 49.515625 63.28125 
L 33.984375 0 
L 21.578125 0 
z
" id="DejaVuSans-87"/>
     </defs>
     <g transform="translate(332.00412 262.374822)scale(0.1 -0.1)">
      <use xlink:href="#DejaVuSans-82"/>
      <use x="69.482422" xlink:href="#DejaVuSans-105"/>
      <use x="97.265625" xlink:href="#DejaVuSans-103"/>
      <use x="160.742188" xlink:href="#DejaVuSans-105"/>
      <use x="188.525391" xlink:href="#DejaVuSans-100"/>
      <use x="252.001953" xlink:href="#DejaVuSans-32"/>
      <use x="283.789062" xlink:href="#DejaVuSans-87"/>
      <use x="376.291016" xlink:href="#DejaVuSans-97"/>
      <use x="437.570312" xlink:href="#DejaVuSans-108"/>
      <use x="465.353516" xlink:href="#DejaVuSans-108"/>
     </g>
    </g>
   </g>
  </g>
 </g>
 <defs>
  <clipPath id="p88e38d554e">
   <rect height="266.112" width="357.12" x="37.018347" y="7.2"/>
  </clipPath>
 </defs>
</svg>
